<?xml version="1.0" standalone="no"?>
<!DOCTYPE svg PUBLIC "-//W3C//DTD SVG 1.1//EN" "http://www.w3.org/Graphics/SVG/1.1/DTD/svg11.dtd" >
<svg xmlns="http://www.w3.org/2000/svg" xmlns:xlink="http://www.w3.org/1999/xlink" version="1.1">
<metadata></metadata>
<defs>
<font id="asialphabetregular" horiz-adv-x="1415" >
<font-face units-per-em="2048" ascent="1536" descent="-512" />
<missing-glyph horiz-adv-x="942" />
<glyph unicode="&#xfb01;" horiz-adv-x="1398" d="M36 1221q1 1 5 0q7 -2 52 -15.5t71.5 -19.5t82 -12.5t115.5 -6.5h109q11 0 4 11l-164 217q-50 66 -85 100t-89 70q-6 4 -7 6.5t1 4t6 1.5h604q39 0 78 10q74 19 117 19q35 0 88 -18t90 -54q52 -51 44.5 -130t-64.5 -101q-46 -17 -84 -1t-54 46q-40 75 -59 97 q-44 50 -115 50h-317q-7 0 -4 -6l123 -301q5 -9 7.5 -12.5t8 -6t14.5 -2.5h195q21 0 37 21.5t24 21.5q35 0 111 -55q41 -30 50.5 -45.5t-5.5 -20t-55 -4.5h-336q-4 0 -4 -4v-999q0 -18 -10 -34.5t-41 -47.5q-39 -39 -97 -72q-25 -16 -41 0q-34 40 -70 59.5t-89 32.5l-80 21 q-21 6 -21 22q0 19 23 19h211q6 0 6 6v993q0 4 -4 4h-74q-52 0 -95 -6t-63 -12.5t-38.5 -14t-22.5 -8.5q-5 0 -6 3l-82 170q-2 3 -1 4zM776 801q3 -29 55 -41l89 -23q40 -10 52.5 -28t12.5 -52q0 -8 -14.5 -276t-14.5 -334q0 -94 72 -94q37 0 83 21t58 44q9 15 9 29 q0 46 -13.5 316t-13.5 296q0 64 14 128.5t49 175.5q78 243 172 489q12 34 -6 41q-20 10 -37 -23q-16 -32 -63 -124.5t-70.5 -136t-62 -112t-71.5 -114.5t-66 -80q-66 -69 -172 -69q-65 0 -62 -33z" />
<glyph unicode="&#xfb02;" horiz-adv-x="1304" d="M36 1221q1 1 5 0q7 -2 52 -15.5t71.5 -19.5t82 -12.5t115.5 -6.5h109q11 0 4 11l-164 217q-50 66 -85 100t-89 70q-6 4 -7 6.5t1 4t6 1.5h592l86 92q7 10 21 10q30 0 131 -31t135 -49q14 -8 14 -20v-1491q0 -6 6 -6h211q23 0 23 -19q0 -16 -21 -22l-80 -21 q-53 -13 -89 -32.5t-70 -59.5q-18 -18 -41 0q-58 33 -97 72q-31 31 -41 47.5t-10 34.5v983q-4 20 -39 20h-233q-4 0 -4 -4v-999q0 -18 -10 -34.5t-41 -47.5q-39 -39 -97 -72q-25 -16 -41 0q-34 40 -70 59.5t-89 32.5l-80 21q-21 6 -21 22q0 19 23 19h211q6 0 6 6v993 q0 4 -4 4h-74q-52 0 -95 -6t-63 -12.5t-38.5 -14t-22.5 -8.5q-5 0 -6 3l-82 170q-2 3 -1 4zM461 1489l123 -301q5 -9 7.5 -12.5t8 -6t14.5 -2.5h250q17 0 29 11.5t14 25.5v6v4v261v4v2q-3 14 -12 14h-430q-7 0 -4 -6z" />
<glyph horiz-adv-x="0" />
<glyph horiz-adv-x="682" />
<glyph unicode=" "  horiz-adv-x="942" />
<glyph unicode="&#x09;" horiz-adv-x="942" />
<glyph unicode="&#xa0;" horiz-adv-x="942" />
<glyph unicode="!" horiz-adv-x="716" d="M177.5 224q-7.5 66 31.5 124l104 141q11 17 11 35q0 499 -4 599q-10 224 -58 339l-53 127q-3 6 4 6q105 -18 166 -18h129q16 0 28 -3t19 -9t12 -11.5t6.5 -15.5t2 -14.5t0 -15.5t-0.5 -13l-53 -881q-1 -17 -8.5 -32.5t-12 -21t-18.5 -21.5q-3 -3 -43.5 -35t-94 -78.5 t-91.5 -87.5q-39 -41 -30 -69.5t37.5 -43.5t66.5 -18q7 -1 60 -9t87 -16q55 -13 78.5 -54.5t9.5 -90.5q-16 -45 -57 -62t-88.5 -8t-91.5 35q-58 35 -99.5 95.5t-49 126.5z" />
<glyph unicode="&#x22;" horiz-adv-x="1007" d="M172 1198l6 533q0 6 8 6q36 0 104.5 -22.5t112.5 -43.5q71 -38 29 -67q-35 -26 -45 -60l-100 -422l356 607q4 8 16 8q69 0 211 -66q71 -38 29 -67q-35 -26 -45 -60l-143 -504q-3 -10 -7 -15t-7 -6t-8 1.5t-7.5 5t-6.5 7t-5 5.5q-13 14 -32 36t-28.5 32t-26.5 23.5 t-38 23.5q-21 9 -21 21q0 18 23 18h61q6 0 6 6l21 385q0 5 -1.5 5.5t-3.5 -1.5t-3 -4l-363 -553q-8 -10 -17 -7t-14 15l-53 117q-8 19 -8 43z" />
<glyph unicode="#" horiz-adv-x="1525" d="M12 580q-3 6 4 6q111 -19 166 -19h97l77 437h-94q-69 0 -119 -13q-4 0 -4 2q-2 0 -2 2l-49 103q-3 6 4 6q111 -19 166 -19h113l86 471q1 5 12 9q28 12 119 12q86 0 127 -23q20 -10 0 -22q-56 -24 -74 -117l-63 -330h383l86 474q1 4 2 5t5 2t5 1q28 12 119 12 q86 0 127 -23q20 -10 0 -22q-57 -24 -74 -117l-66 -332h64l35 54q15 24 29.5 35t29.5 13.5t38.5 -10t48 -30t65.5 -51.5q35 -31 45.5 -52t-1.5 -30.5t-44 -9.5h-324l-86 -437h68l34 54q15 24 29.5 35t29.5 13.5t38.5 -10t48 -30t65.5 -51.5q35 -31 45.5 -52t-1.5 -31 t-44 -10h-327l-78 -401q-16 -50 -62 -74q-13 -8 -22 -8q-7 -3 -10 0h-201q-8 0 -8 6q0 8 8 8q30 7 63 38.5t50 82.5l61 348h-391l-78 -403q-16 -51 -61 -74q-13 -8 -23 -8q-7 -3 -10 0h-201q-8 0 -8 6q0 8 8 8q30 7 63 38.5t50 82.5l63 350h-78q-72 0 -118 -12q-5 0 -5 2 q-2 0 -2 2zM477 567h389l80 437h-385z" />
<glyph unicode="$" horiz-adv-x="1566" d="M74 162q-11 8 2 16q33 21 49.5 53.5t30.5 81.5l43 142q11 30 23 36t19 -6.5t7 -29.5v-185q0 -24 27 -57.5t79 -69.5t146 -63t209 -33q4 0 4 4v778q0 7 -4 7h-273q-15 0 -27.5 -7.5t-18 -13.5t-19.5 -24q-46 -54 -109 -54q-38 0 -61 22t-23 58v830q0 10 8 10 q20 0 56 -14.5t78 -35t57 -26.5q12 -4 14 -4h318q4 0 4 6v201q0 6 4 6q103 0 231 -55q31 -13 31 -31t-31 -33q-23 -10 -37 -33.5t-14 -44.5v-10q0 -6 4 -6h244q60 0 115 7t82.5 13t71 19.5t52.5 15.5q4 1 5 0t-1 -4l-81 -170q-1 -2 -7 -2q-2 1 -17 5t-28 8t-38 9t-50 8.5 t-60 6t-71 2.5h-217q-4 0 -4 -6v-565q0 -6 4 -6h299q8 0 12 8l35 75q15 34 45 13l162 -117q37 -27 4 -47q-41 -24 -41 -143v-291q0 -104 14.5 -147.5t41.5 -59.5q6 -4 8 -8t-1 -10.5t-13.5 -15.5t-28.5 -23q-219 -159 -535 -191q-6 0 -6 -6v-88q0 -17 -10 -27 q-17 -17 -28 -26t-31.5 -18t-43.5 -9q-71 0 -71 80v80q0 6 -6 6q-165 6 -346.5 68t-286.5 141zM387 926q0 -8 12 -8h310q4 0 4 6v565q0 6 -4 6h-316q-6 0 -6 -8v-561zM897 63q0 -2 6 -2q115 24 203 74t113 88q5 7 2 15q-15 56 -15 213v376q0 9 -6 9h-299q-4 0 -4 -7v-766z " />
<glyph unicode="%" horiz-adv-x="1693" d="M55.5 779.5q5.5 120.5 61.5 242.5q43 97 118.5 170t176.5 84q452 106 659 254q7 5 18.5 13t17 12t13.5 9.5t13.5 7.5t12.5 4t14 1.5t14 -2.5q52 -19 36 -68l-565 -1652q-11 -33 -33.5 -41.5t-58.5 -3.5q-31 5 -45 27.5t-4 51.5l532 1543q-68 -48 -152 -88.5t-138 -60 t-140 -46.5q48 -34 71.5 -91t22.5 -126.5t-12.5 -136t-34.5 -138.5q-22 -66 -59 -124t-87 -104t-116 -65t-137 -1q-102 26 -153 117t-45.5 211.5zM219.5 786q-10.5 -88 11 -162t76.5 -94q74 -29 157.5 46t115.5 202q14 54 22.5 109.5t10.5 118.5t-17.5 111t-60.5 65 q-34 14 -78 4l-41 -21q-76 -49 -152 -217q-34 -74 -44.5 -162zM984.5 417.5q6.5 120.5 64.5 244.5q18 38 39.5 72.5t52.5 69t66 58.5t79.5 41t93.5 15.5t107 -17.5q67 -22 103.5 -78.5t40 -132t-8.5 -152t-39 -153.5q-22 -66 -58.5 -124.5t-86.5 -104.5t-116.5 -65 t-137.5 -1q-103 27 -154.5 117t-45 210.5zM1146.5 416q-10.5 -86 12 -154t78.5 -90q73 -32 156.5 44.5t115.5 203.5q14 53 23 108.5t10.5 118t-18 110t-60.5 64.5q-27 13 -54 8t-49.5 -14.5t-44.5 -31.5t-39 -44t-33.5 -50.5t-28 -52t-21.5 -48.5q-37 -86 -47.5 -172z" />
<glyph unicode="&#x26;" horiz-adv-x="1603" d="M100 357q-1 67 21 130t57 121.5t88.5 118.5t109 111.5t126.5 109.5l86 70l-479 655q-6 6 0 6q188 0 278 -34q18 -6 21 -19t-13 -24q-10 -5 -6 -23h10q43 -2 136 -2h581q51 0 85.5 -16.5t48 -42.5t15.5 -59t-9 -64.5t-30 -59.5t-42 -45l-379 -276l471 -602q33 61 93.5 194 t94.5 199q4 6 10.5 6.5t11 -3t3.5 -7.5l9 -29q8 -30 17.5 -73.5t12.5 -77.5q7 -67 -25 -136q-65 -123 -125 -202l140 -179q12 -18 12 -30q11 -50 -51 -90q-32 -20 -75.5 -17.5t-60.5 25.5l-106 143q-218 -170 -504 -170q-43 0 -73.5 0.5t-91 6t-106 14.5t-104 28t-100 45.5 t-78.5 68.5t-55 95q-24 67 -25 134zM347.5 548.5q-44.5 -132.5 19.5 -272.5q47 -109 145 -169t221 -60q147 0 249 49t179 142l-493 671l-109 -90q-167 -138 -211.5 -270.5zM467 1460l250 -336l317 238q26 19 37 50.5t-4.5 57t-58.5 25.5h-467q-35 0 -57.5 -9t-16.5 -26z" />
<glyph unicode="'" horiz-adv-x="583" d="M82 1174q0 18 22 18h62q6 0 6 6l49 533q0 6 8 6q37 0 105 -22.5t112 -43.5q71 -38 29 -67q-35 -26 -45 -60l-162 -504q-3 -10 -7 -15t-7 -6t-8 1.5t-7.5 5t-6.5 7t-5 5.5q-13 14 -32 36t-28.5 32t-26.5 23.5t-38 23.5q-20 9 -20 21z" />
<glyph unicode="(" horiz-adv-x="831" d="M119 761q1 127 65 232l316 523q25 46 11 71t-62 33q-12 2 -18.5 11t-2 19t20.5 15q44 14 102 14q136 0 207 -34q11 -7 4 -21l-379 -692q-89 -164 2 -363l350 -753q6 -9 -6 -9h-197q-20 0 -27 0.5t-16 2.5t-7 6.5t1 13.5q9 37 -30 119l-275 563q-60 122 -59 249z" />
<glyph unicode=")" horiz-adv-x="831" d="M70 1624q-7 14 4 21q71 34 207 34q58 0 102 -14q16 -5 20.5 -15t-2 -19t-18.5 -11q-48 -8 -62 -33t11 -71l315 -523q64 -105 65 -232t-59 -249l-274 -563q-40 -83 -31 -119q4 -16 -5 -19.5t-44 -3.5h-197q-12 0 -6 9l350 753q91 200 3 363z" />
<glyph unicode="*" horiz-adv-x="1191" d="M258 1520q43 73 109 110q24 15 36 6q5 -2 7.5 -6t3.5 -6t1.5 -10.5t0.5 -11.5q0 -28 59 -64l57 -35v254q0 6 5 6q83 0 149 -37q25 -16 25 -28q0 -7 -3.5 -12t-7.5 -7.5t-14 -9.5q-24 -19 -24 -84v-78l161 95q33 18 61 12.5t42 -29.5q14 -22 10 -40.5t-15.5 -30.5 t-33.5 -25l-164 -94l158 -90q31 -18 40.5 -46t-3.5 -51q-19 -33 -46.5 -34.5t-56.5 18.5l-153 88v-162q0 -36 -19.5 -58t-46.5 -22q-36 0 -50 20.5t-14 59.5v166l-198 -115q-5 -5 -8 0q-41 70 -41 150q0 26 12 35q5 3 9.5 3t7.5 -1t9 -3.5t11 -4.5q4 -3 9 -4t12 0t12.5 2 t14 4.5t12.5 5t13 5.5t11 5l47 27l-203 118q-6 7 -4 9z" />
<glyph unicode="+" horiz-adv-x="1343" d="M156 629q-3 6 4 6q111 -19 166 -19h221v463q0 6 4 6q116 0 244 -55q30 -13 30 -31q0 -17 -30 -32q-39 -17 -39 -78v-273h137l35 54q15 24 29.5 35t29.5 13.5t38.5 -10t48 -30t65.5 -51.5q35 -31 45.5 -52t-1.5 -30.5t-44 -9.5h-383v-371q0 -16 -11 -27q-53 -53 -114 -53 q-38 0 -61 22t-23 58v371h-217q-69 0 -119 -13q-4 0 -4 2q-2 0 -2 2z" />
<glyph unicode="," horiz-adv-x="831" d="M266 100q0 60 42 102t100 42q56 0 96.5 -33.5t54.5 -89.5q11 -46 -3 -111t-48 -119q-31 -49 -77 -87.5t-83 -51.5q-26 -6 -32.5 7.5t12.5 27.5q37 19 84 82q39 55 51 111q-36 -23 -78 -17.5t-68 27.5q-51 41 -51 110z" />
<glyph unicode="-" horiz-adv-x="1384" d="M197 629q-3 6 4 6q111 -19 166 -19h526l35 54q15 24 29.5 35t29.5 13.5t38.5 -10t48 -30t65.5 -51.5q35 -31 45.5 -52t-1.5 -30.5t-44 -9.5h-768q-69 0 -119 -13q-4 0 -4 2q-2 0 -2 2z" />
<glyph unicode="." horiz-adv-x="839" d="M266 117q0 63 45.5 108t108.5 45t108 -45t45 -108t-45 -108.5t-108 -45.5t-108.5 45.5t-45.5 108.5z" />
<glyph unicode="/" horiz-adv-x="876" d="M78 -111l577 1641q21 63 93 45q73 -18 51 -78l-576 -1640q-21 -60 -94 -45q-71 15 -51 77z" />
<glyph unicode="0" horiz-adv-x="1679" d="M140 1628q1 1 5 0q193 -51 390 -51h256q85 0 147 -2.5t130.5 -10.5t117 -22t99 -38t84 -57.5t64.5 -81.5t48.5 -109.5t28 -141t10.5 -176.5v-811q0 -16 -11 -27q-53 -53 -114 -53q-38 0 -61 22t-23 58v811q0 139 -20.5 238t-57 161t-97.5 97t-131 48t-169 13h-97 q-66 0 -131 -30t-119 -84.5t-87 -141.5t-33 -190v-443q0 -105 6 -179.5t21 -135t39 -99t62 -64t88.5 -36t119.5 -10.5q72 0 132.5 10t94.5 20.5t116 41.5t136 49q10 4 15.5 -2t0.5 -17q-31 -62 -72 -125q-68 -106 -239 -106q-83 0 -150 5t-145 22t-138 45.5t-117.5 78 t-95 117t-60.5 166t-23 221.5v393q-1 157 84 287t231 203q8 4 -2 4h-72q-67 0 -172 -43q-3 -3 -6 2l-82 170q-2 3 -1 4z" />
<glyph unicode="1" horiz-adv-x="952" d="M161.5 1087q3.5 8 6 11t11.5 11.5t16 16.5q101 121 266 379q11 17 30.5 48.5t26.5 43t17.5 30t15.5 29.5t8 21q0 5 8 2q46 -15 119 -59q95 -59 49 -80q-15 -7 -26.5 -16t-17 -15.5t-17.5 -21.5l-35 -45v-1397q0 -17 -10 -27q-53 -53 -115 -53q-38 0 -61 22t-23 58l2 1225 q-110 -125 -203 -191q-45 -39 -65 -6q-6 6 -2.5 14z" />
<glyph unicode="2" horiz-adv-x="1570" d="M102 872q-10 12 11 39q137 186 205 393t63 392q0 10 8 10q53 -7 110 -31t83 -45q6 -6 6 -14v-33q0 -3 1.5 -4.5t2.5 -1.5h2h471q153 0 245.5 -71t92.5 -208q0 -334 -414 -698l-590 -514q-4 -4 0 -4h465q80 0 148 13t115.5 34t87 49.5t63.5 56.5t43 59t28.5 53.5 t17.5 42.5q0 2 0.5 3t1 3t1.5 3l33 84q10 23 22 21q20 -3 15 -27l-82 -457q0 -1 -1 -3.5t-1.5 -4.5t-2 -4.5t-3.5 -4t-5.5 -2.5t-7.5 -1h-940q-30 0 -57 -10q-74 -26 -105 -25q-34 2 -53 25q-9 11 -30.5 41t-38.5 47q-4 4 2 4h94q6 0 10 4l625 616q327 324 327 584 q0 98 -54.5 153.5t-172.5 55.5h-360q-6 0 -9 -8q-67 -199 -168 -345.5t-262 -264.5q-30 -21 -43 -5z" />
<glyph unicode="3" d="M87 1630q1 1 5 0t52 -15t73 -19.5t81 -12t116 -6.5h645q4 0 8 4l78 82q12 10 17.5 9t15.5 -9l131 -109q18 -13 18 -24.5t-14 -22.5q-250 -189 -424 -323t-236 -183.5t-103.5 -82.5t-60.5 -48q-8 -8 3 -8h608q7 0 10 8l33 72q14 33 45 12l162 -116q37 -27 4 -47 q-30 -20 -35 -25q-4 -4 -4 -12v-246q0 -127 -34.5 -225t-91.5 -159.5t-139 -100.5t-169 -54.5t-189 -15.5q-166 0 -318.5 42.5t-246.5 137.5q-18 23 0 41q84 78 111 160l26 80q4 12 12.5 17t15.5 0t7 -19v-160q0 -80 101.5 -142.5t271.5 -62.5q202 0 318 91t116 278v354 q0 10 -6 10h-688q-34 0 -51.5 16.5t-14.5 39t23 41.5l626 612q6 6 -2 6h-598q-52 0 -95 -6t-63 -12.5t-38.5 -14t-22.5 -8.5q-5 0 -6 2l-82 170q-2 3 -1 4z" />
<glyph unicode="4" horiz-adv-x="1531" d="M77.5 455.5q2.5 17.5 12.5 29.5l690 885q18 24 46 58.5t43.5 55t32.5 43.5t24.5 38.5t7.5 25.5q0 9 -1.5 16t-5.5 11.5t-6.5 6.5t-9 5t-8.5 4q-4 4 0 8q19 12 66.5 24.5t111.5 12.5q43 0 67.5 -14t29 -34.5t0 -41t-16.5 -37.5q-4 -8 -4 -20v-946q0 -8 10 -8h19l53 69 q29 40 70 27q79 -20 176 -90q41 -29 52 -49t-4.5 -29.5t-53.5 -9.5h-312q-10 0 -10 -9v-335q0 -80 -52.5 -133.5t-111.5 -53.5q-25 0 -43 23q-47 56 -135 75q-87 19 -88 19q-29 5 -44 20t-3.5 28t49.5 13h209q10 0 10 9v335q0 9 -10 9h-737q-4 0 -11 -7l-43 -51 q-14 -18 -32 -20.5t-29 8.5q-11 12 -8.5 29.5zM264.5 580.5q1.5 -2.5 5.5 -2.5h668q10 0 10 8v800q0 15 -10 5q-121 -144 -289 -344t-249.5 -298t-133.5 -163q-3 -3 -1.5 -5.5z" />
<glyph unicode="5" horiz-adv-x="1388" d="M78 1589q-3 6 4 6q105 -18 166 -18h692l53 72q28 39 70 26q74 -19 176 -92q41 -29 52 -49t-4.5 -29.5t-53.5 -9.5h-735q-13 -8 -15 -29l-71 -522h667l37 80q14 33 45 12l162 -116q38 -27 4 -48t-39 -30v-289q0 -126 -33 -228.5t-89 -170.5t-133.5 -114t-162 -66.5 t-178.5 -20.5q-221 0 -388.5 53.5t-223.5 145.5q-18 23 0 41q38 36 56 71t32 88l20 80q6 21 23 21q18 0 18 -23v-160q0 -39 24 -76.5t72 -71.5t134 -54.5t196 -20.5q49 0 104 13t112.5 42.5t103.5 71t75 104.5t29 138v446h-680l-2 -20q0 -14 -10 -27q-42 -53 -127 -53 q-38 0 -61 22t-23 58l6 53q0 12 2 16l80 584h-12q-73 0 -119 -12q-4 0 -4 2q-2 0 -2 2z" />
<glyph unicode="6" horiz-adv-x="1562" d="M119.5 185q-0.5 15 13.5 22q39 20 39 86v745q0 142 46.5 255t128.5 184.5t191 109t236 37.5q225 0 416 -72q7 -4 10 2l64 115q9 17 30 4l158 -110q6 -6 -2 -11q-36 -24 -94 -79q-344 -320 -373 -349q-3 -3 -7 -5t-7 -2.5t-6 0.5t-5 3t-3 4.5t0 6.5t3 8l148 243q2 3 1.5 6 t-1.5 5l-2 2q-35 56 -123 95.5t-223 39.5q-68 0 -120 -7.5t-102 -30t-82 -60t-51.5 -100t-19.5 -148.5v-334q0 -5 6 -2q51 28 151.5 51t213.5 23h442q6 0 10 6l37 73q15 34 45 13l162 -117q37 -27 4 -47q-41 -24 -41 -59v-500q0 -71 31 -82q7 -3 8.5 -6.5t-3 -10.5 t-14 -15.5t-28.5 -24.5q-91 -76 -269.5 -137.5t-338.5 -61.5q-203 0 -351 52t-311 155q-17 10 -17.5 25zM383 164q0 -9 8 -14q161 -103 406 -103q230 0 391 96q9 5 11.5 10t2.5 21v655q0 11 -12 11h-395q-116 0 -207.5 -22t-148 -69.5t-56.5 -113.5v-471z" />
<glyph unicode="7" horiz-adv-x="1421" d="M66 1167v506q0 6 4 6q53 0 95 -12.5t97 -40.5q12 -6 12 -16v-23q0 -8 13 -8q23 -2 110 -2h690q8 0 11 6l35 74q14 33 45 12l161 -117q33 -24 4 -47l-32 -26q-4 -4 -4 -11v-176q0 -20 -2 -39t-9 -40t-11 -35t-16.5 -37t-17 -32.5t-21.5 -35.5t-20.5 -31t-24 -34t-22.5 -31 l-196 -277q-40 -55 -60 -137t-20 -141v-387q0 -17 -10 -27q-20 -20 -61.5 -37.5t-76.5 -17.5t-48 21t-13 61v371q0 35 5 65.5t9.5 49.5t20 47.5t21.5 38t30.5 43t30.5 42.5l178 252q127 183 127 299v248l-6 4h-693q-107 0 -122 -12q-5 -5 -5 -10v-299q0 -7 7 -7h211 q22 0 22 -18q0 -17 -20 -23l-80 -20q-53 -14 -89.5 -33t-70.5 -59q-18 -18 -41 0q-58 33 -96 71q-31 31 -41 47.5t-10 34.5z" />
<glyph unicode="8" horiz-adv-x="1587" d="M98 389q0 58 12.5 108t30.5 86.5t52 72t62.5 58t78 50t82 42.5t90 41.5t88.5 41.5q-451 268 -451 762q0 12 7 12q157 0 247 -86h547q90 0 169 -26t132 -81t53 -129q0 -26 -8.5 -53t-21 -50t-36 -49t-43.5 -46.5t-54 -46t-57.5 -42.5t-63.5 -42.5t-62.5 -39.5t-64.5 -39 t-60 -36q187 -98 398 -131l37 80q14 33 45 12l161 -117q38 -27 5 -47q-34 -21 -39 -30v-156q0 -280 -123 -411.5t-338 -131.5h-414q-208 0 -334.5 112.5t-126.5 311.5zM307 389q0 -168 72.5 -255t193.5 -87h385q123 0 195 91t72 278v233q-316 82 -514 178 q-26 -14 -68.5 -35.5t-71 -35.5t-67 -37t-64 -43.5t-53 -51t-43.5 -63.5t-26.5 -77t-10.5 -95zM397 1495q-10 -148 77 -287.5t247 -246.5q56 35 94 60.5t95 68.5t92 79.5t61.5 82t26.5 85.5q0 71 -50 114.5t-125 43.5h-518z" />
<glyph unicode="9" horiz-adv-x="1507" d="M92 1141v506q0 10 8 10q19 0 55.5 -15t79.5 -36t58 -27q8 -3 8 -12v-62q0 -5 6 -2q51 28 151.5 51t213.5 23h452l39 84q14 33 45 12l160 -117q37 -27 4 -47q-41 -24 -41 -59v-942q0 -113 -38 -207t-101.5 -157t-147 -107t-173 -64t-181.5 -20q-166 0 -318.5 42.5 t-246.5 137.5q-18 23 0 41q84 78 111 160l26 80q4 12 12.5 17t15.5 0t7 -19v-160q0 -80 101.5 -142.5t271.5 -62.5q65 0 127.5 13t121.5 42t104 71t72 105t27 138v248q-2 14 -10 6q-63 -44 -138.5 -75.5t-144.5 -31.5h-237q-104 0 -193.5 36.5t-158.5 106.5t-108.5 182 t-39.5 253zM301 1049q0 -185 90.5 -294.5t214.5 -109.5h205q125 0 218 110t93 294v432q2 7 -8 14h-401q-116 0 -207.5 -22t-148 -69.5t-56.5 -113.5v-241z" />
<glyph unicode=":" horiz-adv-x="849" d="M266 117q0 63 45.5 108t108.5 45t108 -45t45 -108t-45 -108.5t-108 -45.5t-108.5 45.5t-45.5 108.5zM276 778q0 63 45.5 108.5t108.5 45.5t108.5 -45.5t45.5 -108.5t-45.5 -108t-108.5 -45t-108.5 45t-45.5 108z" />
<glyph unicode=";" horiz-adv-x="839" d="M266 100q0 60 42 102t100 42q56 0 96.5 -33.5t54.5 -89.5q11 -46 -3 -111t-48 -119q-31 -49 -77 -87.5t-83 -51.5q-26 -6 -32.5 7.5t12.5 27.5q37 19 84 82q39 55 51 111q-36 -23 -78 -17.5t-68 27.5q-51 41 -51 110zM266 778q0 63 45.5 108.5t108.5 45.5t108 -45.5 t45 -108.5t-45 -108t-108 -45t-108.5 45t-45.5 108z" />
<glyph unicode="&#x3c;" horiz-adv-x="983" d="M119 541q-2 11 10 20l530 561q8 8 23 8h221q14 0 4 -10l-510 -528q-3 -3 0 -6l514 -525q12 -12 -2 -14h-270q-6 0 -8 2.5t-2 11.5q0 24 -12 43.5t-58 65.5l-328 328q-32 32 -86 32q-24 0 -26 11z" />
<glyph unicode="=" horiz-adv-x="1302" d="M156 434q-3 6 4 6q105 -18 166 -18h526l35 53q15 24 29.5 35t29.5 13.5t38.5 -10t48 -30t65.5 -51.5q35 -31 45.5 -52t-1.5 -30.5t-44 -9.5h-768q-73 0 -119 -12q-4 0 -4 2q-2 0 -2 2zM156 750q-3 6 4 6q111 -19 166 -19h526l35 54q15 24 29.5 35t29.5 13.5t38.5 -10 t48 -30t65.5 -51.5q35 -31 45.5 -52t-1.5 -31t-44 -10h-768q-73 0 -119 -12q-4 0 -4 2q-2 0 -2 2z" />
<glyph unicode="&#x3e;" horiz-adv-x="983" d="M67 52q0 4 5 9l514 525q3 3 0 6l-510 528q-10 10 4 10h221q15 0 23 -8l530 -561q12 -9 10 -20t-26 -11q-54 0 -86 -32l-328 -328q-46 -46 -58 -65.5t-12 -43.5q0 -9 -2 -11.5t-8 -2.5h-270q-7 0 -7 5z" />
<glyph unicode="?" horiz-adv-x="1376" d="M40 1630q1 1 5 0q6 -2 34.5 -10.5t41.5 -12.5t45 -11t57.5 -10t64 -6t79.5 -3h731l37 74q4 11 16 14t16 -2q23 -10 88 -53q121 -83 76 -101q-33 -11 -90 -71l-471 -574q73 -34 29 -67q-45 -33 -45 -60v-135q-3 -52 -39 -76q-1 0 -32.5 -20.5t-62.5 -42t-71.5 -58 t-65.5 -71.5q-31 -42 -23 -70t34 -43t63 -18q7 -1 60.5 -9t87.5 -16q55 -13 78.5 -54.5t9.5 -90.5q-16 -45 -57.5 -62t-89 -8t-91.5 35q-57 34 -96.5 97t-46 128t25.5 121l113 176q18 29 18 58v352q23 0 70 -12q47 -9 51 -13l359 590h-701q-52 0 -95 -6t-63 -12.5t-38.5 -14 t-22.5 -8.5q-5 0 -6 2l-82 170q-2 3 -1 4z" />
<glyph unicode="@" horiz-adv-x="1972" d="M174 45l2 1600q0 10 8 10q14 0 41 -9.5t48 -19t55.5 -26.5t42.5 -21h4l2 -2h1151l59 74q4 11 16.5 14t16.5 -2q23 -10 88 -53q121 -83 76 -101q-47 -15 -47 -45v-1454q0 -74 -90 -86q-47 -6 -83 14t-36 62h-1024q-88 0 -121 23q-44 -58 -125 -58q-38 0 -61 22t-23 58z M383 121q0 -21 38 -30t83 -9h1024v1413h-1139q-4 0 -4 -2zM479 948q-14 18 21 53q72 90 139 261q32 86 49 147l86 -23q48 -14 63.5 -29t-1.5 -32l-15 -15t-9.5 -11t-10 -14.5t-8.5 -18.5q-19 -38 -39 -72h458l37 74q4 11 16.5 14t16.5 -2q23 -10 88 -53q31 -21 69 -42 q20 -10 20 -13t-13 -7q-21 -7 -34 -36t-13 -48v-811q0 -74 -90 -86q-47 -6 -83 14t-36 62h-367q-88 0 -121 23q-44 -58 -124 -58q-38 0 -61 22t-23 58v553q0 10 8 10q43 0 190 -75q5 -5 6 -5h494v328h-473q-36 -52 -76 -90.5t-102 -71.5q-21 -10 -29 -13t-17 -2.5t-16 9.5z M702 381q0 -21 38 -30t83 -9h367v365h-488v-326z" />
<glyph unicode="A" horiz-adv-x="1712" d="M-25 -20q-16 25 9 47q125 111 276 383q52 93 99 197.5t93 235.5t74.5 280.5t32.5 293.5q0 8 8 8q115 -14 174 -26q53 -11 68.5 -32.5t-4.5 -41.5q-3 -4 -12.5 -14t-12.5 -14t-8.5 -12.5t-8.5 -17.5t-5 -20q-18 -88 -46.5 -177.5t-48 -138.5t-71.5 -179q-4 -7 2 -7 q8 -2 92 -2h356q5 0 5 7q-115 383 -123 741q0 4 -4 4h-252q-73 0 -119 -12q-4 0 -6 4l-49 102q-3 6 4 6q105 -18 166 -18h225q12 0 16 4l51 68q22 31 50 31q9 0 18 -3q8 -2 17.5 -6t18.5 -8.5t26 -14t30 -16.5t39.5 -22.5t46.5 -26.5q59 -35 59 -59q0 -29 -65 -29h-100 q-4 0 -4 -4q-4 -47 -4 -96q0 -405 294 -932q168 -315 338 -408q22 -13 4 -22l-200 -111q-11 -8 -31 4q-57 37 -136 147.5t-155 268.5q-66 132 -125 309q-5 11 -16 11h-375q-109 0 -139 -13l-8 -6q-45 -90 -115 -203q-82 -135 -189.5 -271.5t-201.5 -195.5q-11 -8 -29.5 -7 t-28.5 14z" />
<glyph unicode="B" horiz-adv-x="1589" d="M174 45v1602q0 10 8 10q42 0 191 -76q12 -4 22 -4h793l43 72q8 15 15.5 17.5t25.5 -9.5l182 -158q11 -11 -8 -20q-43 -17 -62 -28.5t-41 -37.5l-399 -489q-15 -17 12 -17h201h12.5h15.5t13.5 1t14.5 3.5t11 6.5t9 10l39 63q13 21 33 13q18 -8 88 -54q87 -60 87 -86 q0 -10 -12 -14q-47 -15 -47 -82v-768q0 -29 -11.5 -44.5t-37.5 -23.5q-56 -14 -88 -14q-39 0 -54.5 20t-15.5 58q0 4 -4 4h-798q-25 0 -90.5 -23.5t-79.5 -23.5q-68 0 -68 92zM383 121q0 -21 38 -30t83 -9h698q12 0 12 12v723q0 21 -18 21h-334l-297 -316q-15 -19 -28 -6 q-11 11 2 29l614 946q2 4 -2 4h-760q-8 0 -8 -10v-1364z" />
<glyph unicode="C" horiz-adv-x="1605" d="M45.5 717.5q-1.5 4.5 1.5 9.5l393 764q2 3 -4 4q-21 0 -121 -16q-5 0 -6 2l-53 108q-2 4 4 4q88 -16 232 -16h835q8 0 10 4l49 88q9 17 31 4l158 -110q6 -6 -2 -11q-36 -24 -94 -79q-344 -320 -373 -349q-14 -14 -25 -5q-6 8 0 20l211 350l-4 6h-608q-6 0 -10 -6 l-340 -655q-3 -6 0 -11l334 -735q3 -6 10 -6h526q11 0 19 8l47 64q21 29 49 29q9 0 20 -3q48 -14 124 -60.5t120 -90.5q10 -11 7.5 -20t-13.5 -9h-1079q-46 0 -50 8q-3 5 0 15q2 7 2 15q0 37 -32 103l-254 543q-11 19 -25.5 24t-38.5 5h-43q-6 0 -7.5 4.5z" />
<glyph unicode="D" horiz-adv-x="1800" d="M14 1589q-2 4 4 4q88 -16 232 -16h844l36 80q15 34 46 12l161 -117q37 -27 4 -47q-24 -13 -34 -30l299 -521q16 -31 66 -31q9 0 20 1q20 2 24.5 -4.5t-6.5 -32.5l-397 -737q-17 -32 -17 -70q0 -27 9 -57q3 -11 -0.5 -16t-8.5 -6t-14 -1h-1124q-6 0 -8 6t4 14 q45 53 45 164v1307q2 3 -4 4q-21 0 -121 -16q-5 0 -6 2zM408 92q0 -10 8 -10h647l383 741l-379 666q-4 6 -10 6h-641q-8 0 -8 -6v-1397z" />
<glyph unicode="E" horiz-adv-x="1611" d="M129 1673q-3 6 4 6q27 0 135.5 -51t118.5 -51h784q5 0 7 2l53 70q23 30 49 30q49 0 227 -129q31 -22 31 -37q0 -18 -45 -18h-1102q-8 0 -8 -8v-621q0 -8 8 -8h617q60 0 114.5 6.5t84 13.5t69 18.5t53.5 14.5q4 1 5 0t-1 -4l-82 -170q-1 -2 -6 -2q-3 1 -19 6.5t-35.5 10.5 t-49.5 11t-74 9.5t-96 3.5h-580q-8 0 -8 -8v-678q0 -8 8 -8h785l53 72q23 30 49 30q11 0 32 -6t67 -29.5t98 -60.5q55 -41 55 -61q0 -27 -62 -27h-1077q-8 0 -8 -8q0 -34 -42 -54t-99 -20q-68 0 -68 76v1253q0 277 -45 426z" />
<glyph unicode="F" horiz-adv-x="1462" d="M12 1589q-3 6 4 6q105 -18 166 -18h934l53 72q21 29 50 29q10 0 20 -3q74 -19 176 -92q41 -29 52 -49t-4.5 -29.5t-53.5 -9.5h-922q-26 0 -26 -348v-350l659 303q7 4 10 -4l70 -205q1 -11 2.5 -17.5t-4.5 -8t-8.5 -1.5t-10.5 2t-10 2q-29 7 -58 7q-32 0 -64 -9 q-148 -40 -337 -101.5t-249 -86.5v-449v-18q0 -36 6 -66l12 -63q2 -15 -18 -41q-62 -72 -137 -115q-25 -16 -41 0q-34 39 -73 59.5t-93 34.5l-80 21q-21 6 -21 22q0 19 23 19h211q6 0 6 6v533q-31 -7 -95 -25t-83 -23q-42 -9 -39 15q-2 8 2.5 14t21.5 14l193 107v424v54 v109.5t-2 88t-7 73.5t-14 23h-47q-72 0 -118 -12q-7 0 -7 4z" />
<glyph unicode="G" horiz-adv-x="1662" d="M-48 -6q5 12 28 29q135 103 190 307q-120 140 -193 303q-15 38 0 47q20 7 41 -21q83 -127 175 -219q20 146 20 394v811q0 10 8 10q53 0 191 -74q12 -4 14 -4h756q10 0 16 6l49 66q21 29 50 29q9 0 20 -3q72 -19 176 -92q41 -29 52 -49t-4.5 -29.5t-53.5 -9.5h-1065v-567 q0 -364 -103 -598q203 -153 445 -205q123 -27 251 -27q124 0 253 25q4 0 4 6v651h-182q-52 0 -96 -3.5t-74.5 -9.5t-50 -11t-35.5 -10.5t-19 -6.5q-5 0 -6 2l-82 170q-2 3 -1 4t5 0q13 -3 53.5 -14.5t70 -18.5t84 -13.5t114.5 -6.5h219l39 84q14 33 45 12l162 -116 q37 -27 4 -47q-41 -24 -41 -60v-434q0 -80 30 -115q20 -23 7 -47q-23 -47 -78 -121q-12 -16 -29 -22q-44 -15 -130 -29t-169 -14q-521 0 -842 276q-96 -170 -254 -252q-24 -13 -41.5 -14t-21.5 10q-6 9 -1 21z" />
<glyph unicode="H" horiz-adv-x="1681" d="M129 1673q-3 6 4 6q58 0 147.5 -16.5t141.5 -38.5q31 -13 31 -31q0 -17 -31 -32q-39 -17 -39 -78v-549q0 -41 51 -41h707q176 0 176 78v702q0 6 4 6q116 0 244 -55q30 -13 30 -31q0 -17 -30 -32q-39 -17 -39 -78v-1401q0 -18 -10 -34.5t-41 -47.5q-39 -39 -97 -72 q-25 -16 -41 0q-34 40 -70 59.5t-89 32.5l-80 21q-21 6 -21 22q0 19 23 19h211q6 0 6 6v662q0 61 -203 61h-694q-24 0 -30.5 -8.5t-6.5 -28.5v-741q0 -17 -10 -27q-53 -53 -115 -53q-38 0 -61 22t-23 58v1214q0 277 -45 426z" />
<glyph unicode="I" horiz-adv-x="940" d="M36 135q1 1 5 0q12 -3 50.5 -15t64.5 -18.5t78 -13t112 -6.5q6 0 6 6v1403q0 4 -4 4h-4q-52 0 -95 -6t-63 -12.5t-38.5 -14t-22.5 -8.5q-5 0 -6 2l-82 170q-2 3 -1 4t5 0q5 -1 52 -15t72 -19.5t81 -12t116 -6.5h187q16 0 20 6l49 66q22 30 49 30q10 0 21 -4 q47 -20 150 -92q59 -42 59 -65q0 -9 -9 -15q-13 -8 -42 -8h-281q-4 0 -4 -4v-1403q0 -6 6 -6h11q10 0 16 8l29 45q23 39 53 43q5 1 10 1q26 0 56 -19q36 -22 104 -78q47 -39 47 -59q0 -23 -59 -23h-490q-52 0 -95 -6t-63 -12.5t-38.5 -14t-22.5 -8.5q-5 0 -6 2l-82 170 q-2 3 -1 4z" />
<glyph unicode="J" horiz-adv-x="884" d="M11 1630q1 1 5 0q6 -2 34.5 -10.5t41.5 -12.5t45 -11t57.5 -10t64 -6t79.5 -3h186q17 0 21 6l49 66q22 30 49 30q10 0 21 -4q45 -19 149 -92q58 -42 58 -64q0 -24 -62 -24h-268l-4 -4v-1395q0 -15 -1 -22t-11.5 -23.5t-32.5 -40.5q-42 -47 -103 -82q-25 -16 -45 4 q-48 57 -129.5 162t-112.5 144q-6 6 -5.5 14.5t5.5 13.5q11 11 29 -2l184 -141q5 -5 9 -3.5t4 7.5v1364q0 4 -9 4q-52 0 -95 -6t-63 -12.5t-38.5 -14t-22.5 -8.5q-5 0 -6 2l-82 170q-2 3 -1 4z" />
<glyph unicode="K" horiz-adv-x="1538" d="M129 1673q-3 6 4 6q58 0 147.5 -16.5t141.5 -38.5q31 -13 31 -31q0 -17 -31 -32q-39 -17 -39 -78v-717q0 -5 2.5 -5.5t5.5 3.5l799 909q9 9 16 6l178 -102q28 -17 20 -42t-38 -30q-6 -1 -22.5 -3t-24 -3.5t-20 -5t-23 -10.5t-19.5 -17l-440 -444q-17 -17 -20 -51v-9 q0 -26 14 -56q17 -36 66 -101l415 -561q84 -114 126 -159t81 -71q7 -3 6.5 -8.5t-10.5 -5.5h-244q-23 0 -38.5 9.5t-32.5 35.5l-418 647q-29 43 -40.5 61t-28 51t-23.5 62q-1 4 -1.5 4t-2.5 -2l-277 -288q-6 -9 -6 -21v-522q0 -17 -10 -27q-22 -22 -55.5 -39.5t-67.5 -17.5 q-38 -1 -58 23q-19 21 -18 55v6v1210q0 277 -45 426z" />
<glyph unicode="L" horiz-adv-x="1292" d="M18 94q-3 6 5 6q105 -18 145 -18q7 0 11.5 21t6 69.5t2 85.5t0.5 111v708q0 76 -3 145t-7 120.5t-10.5 99t-12 78.5t-13 61t-12 44t-10 30t-5.5 18q-3 6 4 6q61 0 163.5 -16.5t153.5 -38.5q31 -13 31 -31q0 -17 -31 -32q-39 -17 -38 -78v-1110q0 -143 12.5 -217t54.5 -74 h512l53 72q21 29 50 29q10 0 20 -3q74 -19 176 -92q41 -29 52 -49t-4.5 -29.5t-53.5 -9.5h-1077q-73 0 -119 -12q-4 0 -4 2q-2 0 -2 2z" />
<glyph unicode="M" horiz-adv-x="2023" d="M102 1520l103 135q18 24 33 24q20 0 36 -22l39 -51l600 -453q6 -6 9 2l18 41q10 24 31 12l45 -24q17 -8 31.5 -11t45.5 7t68 39l479 385q7 7 7 14v55q0 6 4 6q115 0 243 -55q31 -13 31 -31q0 -13 -31 -32q-26 -16 -32.5 -31t-6.5 -47v-1401q0 -18 -10 -34.5t-41 -47.5 q-40 -40 -96 -72q-25 -16 -41 0q-34 40 -70.5 59t-89.5 33l-80 21q-20 6 -20 22q0 19 23 19h210q7 0 7 6v1309q0 12 -9 6l-516 -324q-16 -10 -16 -78v-956q0 -17 -10 -27q-53 -53 -111 -53q-38 0 -59 22t-21 58v1010l-495 309q-4 3 -7.5 1t-3.5 -7v-1321q0 -17 -10 -27 q-22 -22 -55.5 -39.5t-67.5 -17.5q-38 1 -64 25t-26 56q0 10 6 110q4 80 6 141.5t2 146.5v1012q0 20 -8 26z" />
<glyph unicode="N" horiz-adv-x="1710" d="M-23 63q0 19 23 19h193q6 0 6 6v1368q0 13 -11 17l-61 24q-16 6 -17 18.5t11 22.5l127 139q3 3 6 0l1067 -1509q2 -3 5 -5t5 -1t2 6v1511q73 0 187 -28q92 -24 92 -51q0 -12 -17 -25q-53 -41 -53 -74v-1413q0 -25 14 -45.5t37 -26.5q11 -3 2 -12q-34 -32 -80 -59t-75 -27 q-40 0 -88 38.5t-82 82.5l-854 1141q-8 12 -8 -4v-1094q0 -18 -10 -34t-42 -48q-40 -40 -96 -72q-25 -16 -41 0q-35 41 -78.5 62.5t-142.5 50.5q-21 6 -21 22z" />
<glyph unicode="O" horiz-adv-x="1937" d="M47.5 697q-4.5 7 1.5 16l377 782v6l-53 80q-2 4 4 4q40 -8 69 -8h832q9 0 12 8l31 72q14 33 45 12l186 -135q2 -1 3.5 -3.5t-1 -6.5t-8.5 -8q-41 -23 -41 -49q0 -8 4 -17l263 -506q9 -18 30.5 -24.5t37.5 -5.5t24 4q12 4 15 -1.5t-1 -11.5l-375 -755q-14 -28 -14 -63 q0 -14 2 -30q4 -34 -7 -45.5t-44 -11.5h-951q-24 0 -30 14l-295 678q-5 11 -14 16.5t-18 6.5t-21 -2t-19.5 -6t-16.5 -7l-9 -4q-14 -6 -18.5 1zM328 823l256 -606q32 -75 55.5 -105t50.5 -30h582q4 0 4 4q0 20 12 47l326 686q2 4 0 8l-281 537q-43 83 -61 107t-43 24h-596 q-4 0 -4 -4q0 -18 -13 -47l-288 -613q-2 -4 0 -8z" />
<glyph unicode="P" horiz-adv-x="1574" d="M36 1632q1 1 5 0q5 -1 52 -15t72 -19.5t81 -12t116 -6.5h891l9 4l36 76q14 33 45 12l162 -117q37 -27 4 -47q-41 -24 -41 -59v-657q0 -17 -10 -27q-8 -7 -40.5 -34t-59.5 -48t-55 -39l-3 -3q-4 -2 -5.5 -3t-5 -1.5t-6 1t-5.5 4.5q-4 4 -14.5 16.5t-17 19t-16.5 14.5 t-19.5 12t-20.5 4h-770q-21 0 -21 -29v-637q0 -17 -10 -27q-22 -22 -60.5 -41.5t-72.5 -19.5q-66 0 -66 88v1341q0 7 5 7q113 0 243 -56q31 -13 31 -30t-31 -33q-39 -17 -39 -78v-377q0 -29 21 -29h813q27 0 27 39v666q0 6 -7 6h-909q-52 0 -95 -6t-63 -12.5t-38.5 -14 t-22.5 -8.5q-5 0 -6 2l-82 170q-2 3 -1 4z" />
<glyph unicode="Q" horiz-adv-x="1968" d="M47.5 697q-4.5 7 1.5 16l377 782v6l-53 80q-2 4 4 4q40 -8 69 -8h832q9 0 12 8l31 72q14 33 45 12l186 -135q2 -1 3.5 -3.5t-1 -6.5t-8.5 -8q-41 -23 -41 -49q0 -8 4 -17l263 -506q9 -18 30.5 -24.5t37.5 -5.5t24 4q12 4 15 -1.5t-1 -11.5l-272 -549l190 -274 q24 -27 49 -52t45.5 -44t22.5 -21q12 -12 -4 -12h-211q-41 0 -64 37l-104 215l-27 -55q-14 -28 -14 -63q0 -15 2 -30q4 -34 -7 -45.5t-44 -11.5h-951q-24 0 -30 14l-295 678q-5 11 -14 16.5t-18 6.5t-21 -2t-19.5 -6t-16.5 -7l-9 -4q-14 -6 -18.5 1zM328 823l256 -606 q32 -75 55.5 -105t50.5 -30h582q4 0 4 4q0 20 12 47l137 289l-147 309q-12 30 10 43q11 7 24.5 0t18.5 -18l150 -217l133 280q2 4 0 8l-281 537q-43 83 -61 107t-43 24h-596q-4 0 -4 -4q0 -18 -13 -47l-288 -613q-2 -4 0 -8z" />
<glyph unicode="R" horiz-adv-x="1636" d="M174 45v1602q0 10 8 10q19 0 53.5 -14t75.5 -34t56 -26t32 -6h738l53 72q21 29 50 29q10 0 20 -3q74 -19 176 -92q41 -29 52 -49t-4.5 -29.5t-53.5 -9.5q-15 0 -15 -16v-500q0 -17 -10 -27q-41 -41 -115 -53q-17 -3 -31 4t-19.5 12t-18.5 26t-15 24q-9 14 -41 14h-757 q-25 0 -25 -29v-170q0 -30 25 -30h895q24 0 30 16l31 65q15 34 45 13l162 -117q37 -27 4 -47q-39 -23 -39 -59v-283q0 -68 -33.5 -169t-99.5 -169q-40 -40 -96 -72q-25 -16 -41 0q-34 40 -70.5 59t-89.5 33l-80 21q-20 6 -20 22q0 19 22 19h209q35 0 62.5 48t27.5 124v412 q0 4 -4 4h-915q-25 0 -25 -29v-596q0 -17 -10 -27q-53 -53 -115 -53q-38 0 -61 22t-23 58zM383 1090q0 -31 25 -31h774q24 0 24 31v401q0 4 -4 4h-794q-5 0 -9.5 0.5t-7 1.5t-4.5 2t-3 1l-1 1v-411z" />
<glyph unicode="S" horiz-adv-x="1566" d="M74 162q-11 8 2 16q33 21 49.5 53.5t30.5 81.5l43 142q11 30 23 36t19 -6.5t7 -29.5v-185q0 -20 17.5 -47t58.5 -58t98 -57t146.5 -43.5t193.5 -17.5q111 0 216.5 35t163 73.5t77.5 67.5q5 7 2 15q-15 56 -15 135v454q0 9 -6 9h-764q-15 0 -27.5 -7.5t-18 -13.5 t-19.5 -24q-46 -54 -109 -54q-38 0 -61 22t-23 58v830q0 10 8 10q20 0 56 -14.5t78 -35t57 -26.5q12 -4 14 -4h754q60 0 115 7t82.5 13t71 19.5t52.5 15.5q4 1 5 0t-1 -4l-81 -170q-1 -2 -7 -2q-2 1 -17 5t-28 8t-38 9t-50 8.5t-60 6t-71 2.5h-725q-6 0 -6 -8v-561 q0 -8 12 -8h801q8 0 12 8l35 75q15 34 45 13l162 -117q37 -27 4 -47q-41 -24 -41 -143v-359q0 -106 56 -139q6 -4 8 -8t-1 -10.5t-13.5 -15.5t-28.5 -23q-139 -101 -323 -150t-386 -49q-167 0 -356 63t-299 146z" />
<glyph unicode="T" horiz-adv-x="1449" d="M-9 1632q1 1 5 0q6 -2 41 -13t54 -15.5t56 -12.5t79 -11t91 -3h775q10 0 16 6l49 66q21 29 50 29q10 0 20 -3q72 -19 176 -92q41 -29 52 -49t-4.5 -29.5t-53.5 -9.5h-576q-6 0 -6 -8v-1446q0 -17 -10 -27q-22 -22 -59.5 -41.5t-71.5 -19.5q-68 0 -68 88v1446q0 8 -6 8 h-256q-36 0 -71 -2.5t-60 -6t-50 -8.5t-38 -9t-28 -8t-17 -5q-5 0 -6 2l-82 170q-2 3 -1 4z" />
<glyph unicode="U" horiz-adv-x="1718" d="M113 1671q-3 6 4 6q61 0 156.5 -15.5t146.5 -37.5q31 -13 31 -31q0 -13 -31 -32q-39 -24 -39 -78v-1016q0 -62 11.5 -119.5t39 -113t68.5 -96.5t104 -66t141 -25q101 0 194 26t155 61.5t114.5 81.5t78.5 78.5t42 59.5q23 38 23 68v1253q0 4 4 4q75 -6 174 -37 q61 -19 79 -37t-3 -40q-45 -42 -45 -72l-2 -1423q0 -96 -89 -105q-9 -1 -17 -1q-37 0 -67 18q-36 22 -36 65v201q0 3 -1 4.5t-3 -0.5q-7 -6 -30.5 -31t-42.5 -44t-54.5 -48.5t-69 -51.5t-84 -46.5t-102.5 -40.5t-120 -26.5t-141 -10.5q-235 0 -381.5 117.5t-146.5 322.5v684 q0 393 -61 594z" />
<glyph unicode="V" horiz-adv-x="1619" d="M-10 1667q-8 8 2 8q54 4 110 4q154 0 240 -22q28 -6 31 -27q4 -26 -19 -39q-20 -12 -20 -48q0 -31 15 -81q16 -52 33 -98.5t44 -114.5t39 -100l346 -985q2 -5 4 0l559 1509q2 7 12 4l240 -104q13 -7 -2 -14q-68 -43 -106 -129l-598 -1348q-14 -28 -25 -39 q-57 -57 -143 -115q-25 -16 -41 0q-35 41 -76 64.5t-125 54.5q-21 8 -21 21q0 14 19 14h174q5 0 5.5 6.5t-1.5 9.5l-403 967q-225 509 -293 602z" />
<glyph unicode="W" horiz-adv-x="2093" d="M154 39q-3 7 2 10l100 55q6 4 6 9v964q0 86 -3.5 162.5t-9.5 134.5t-12.5 103t-15.5 81t-14 55t-12 39l-7 21q-3 6 5 6q61 0 163.5 -16.5t153.5 -38.5q31 -13 31 -31q0 -17 -31 -32q-39 -17 -39 -78v-1262q0 -5 6 -2l510 313q5 2 8.5 7t5.5 12.5t3 14t1.5 16.5t0.5 15.5 v15v12.5v946q0 6 4 6q103 0 231 -55q31 -13 31 -31q0 -17 -31 -33q-39 -17 -39 -78v-909q0 -10 8 -18l492 -330q14 -11 14 4v1546q0 6 4 6q116 0 244 -55q31 -13 31 -31q0 -17 -31 -32q-39 -17 -39 -78v-1409q0 -1 -4 -13l-74 -104q-23 -38 -57 -38q-6 0 -12 1 q-18 3 -27.5 17t-20 36.5t-28.5 36.5l-506 336q-58 39 -86 45q-7 1 -14 1q-23 0 -52 -15q-38 -20 -38 22v31q0 6 -4.5 8t-10.5 -2l-715 -471q-10 -8 -18 -26q-10 -19 -24 -19t-30.5 17t-27.5 45z" />
<glyph unicode="X" horiz-adv-x="1554" d="M-2 1655q-10 5 2 8q66 16 166 16q41 0 82 -8.5t60.5 -16t27.5 -12.5q16 -10 16 -22q0 -6 -14 -31q-4 -7 -4 -16q0 -25 33 -66l413 -526q6 -9 11 0l471 678q6 6 12 8q28 12 102 12q50 0 96.5 -10t67.5 -22q21 -10 0 -23q-76 -32 -135 -106l-514 -662q-5 -7 0 -12l571 -701 q56 -72 125 -120q2 -2 7.5 -5t7.5 -5t2 -5q0 -8 -15 -8h-254q-27 0 -39.5 7t-25.5 26l-504 649q-6 6 -10 0l-453 -584q-71 -92 -151 -98h-113q-5 0 -8 1.5t-2 4t8 4.5q32 16 75 53t78 87l476 651q5 7 0 12l-445 590q-54 73 -119.5 149.5t-103.5 102.5z" />
<glyph unicode="Y" horiz-adv-x="1439" d="M0 1546q-6 6 2 10l188 115q25 15 38.5 8.5t15.5 -26.5q1 -9 4 -34t5.5 -41t7.5 -35.5t11 -31.5l443 -682q2 -2 4 0l518 844q5 11 12 4l183 -114q11 -7 11.5 -16t-5.5 -13q-4 -4 -46.5 -39t-68.5 -70l-481 -663q-27 -34 -27 -96v-621q0 -17 -10 -27q-53 -53 -115 -53 q-38 0 -61 22t-23 58v576q0 60 -11 96t-38 74z" />
<glyph unicode="Z" horiz-adv-x="1597" d="M62 445.5q5 18.5 18 23.5q23 10 45 -33q35 -70 78 -121q6 -6 14 -2q121 66 250.5 199.5t246 304.5t210.5 333.5t180 334.5q5 10 -4 10h-678q-36 0 -71 -2.5t-60 -6t-50 -8.5t-38 -9t-28 -8t-17 -5q-5 0 -6 2l-82 170q-2 3 -1 4t5 0q6 -2 41 -13t54 -15.5t56 -12.5t79 -11 t91 -3h744q7 0 10 6l31 78q4 11 18 15.5t35 1t44.5 -13t50.5 -28t50 -43.5q69 -73 69 -104q0 -14 -15 -19q-43 -14 -80 -43q-78 -124 -129 -203.5t-130 -194.5t-141.5 -193.5t-147.5 -174.5t-163.5 -165t-174.5 -137t-196 -117q-3 -1 -3.5 -4.5t1.5 -4.5q81 -69 217 -103 q137 -34 273 -36h21q127 0 275 16q160 18 265.5 38.5t202.5 44.5q8 2 11 0t-1 -15q-55 -117 -86 -158q-12 -17 -23 -23t-34 -11q-16 -2 -76 -11.5t-109.5 -15t-99.5 -6.5q-40 -1 -78 -1q-48 0 -92 2q-80 2 -172.5 13t-171.5 31t-160.5 54.5t-147 81.5t-122 115.5 t-94.5 153.5q-9 24 -4 42.5z" />
<glyph unicode="[" horiz-adv-x="905" d="M174 -442l2 2191q0 10 8 10q42 0 191 -76q12 -4 14 -4h135q200 0 310 29q4 1 5 0t-1 -4l-70 -143q-1 -2 -6 -2q-1 0 -16.5 4.5t-28.5 8t-38.5 8.5t-50 8.5t-59.5 6t-71 2.5h-105q-8 0 -8 -8l-2 -1913q0 -4 4 -4h135q199 0 309 29q5 2 6 0q0 -1 -1 -4l-70 -143 q-2 -3 -6 -3q-2 1 -17 5t-28 8t-38 9t-50 8.5t-60 6t-71 2.5h-105q-8 0 -8 -8v-14q0 -30 -34.5 -54t-82.5 -30q-92 -15 -92 74z" />
<glyph unicode="\" horiz-adv-x="808" d="M57 1583q-11 31 1.5 57t47.5 35q70 18 91 -47l555 -1571q12 -32 1 -62.5t-44 -37.5q-73 -15 -95 45z" />
<glyph unicode="]" horiz-adv-x="972" d="M67 1708q1 1 5 0q110 -29 309 -29h129q10 0 10 9v45q0 6 4 6q114 0 244 -56q31 -13 31 -30t-31 -33q-39 -17 -39 -78l2 -1974q0 -30 -34.5 -54t-82.5 -30q-92 -15 -92 74v24q0 8 -8 8h-104q-36 0 -71 -2.5t-60 -6t-50 -9t-38.5 -9t-28.5 -8t-17 -4.5q-5 0 -6 3l-69 143 q-2 3 -1 4t5 0q110 -29 309 -29h133q4 0 4 4v1913q0 8 -8 8h-104q-36 0 -71 -2.5t-60 -6t-50.5 -8.5t-38.5 -8.5t-28.5 -8t-16.5 -4.5q-5 0 -6 2l-69 143q-2 3 -1 4z" />
<glyph unicode="^" horiz-adv-x="1611" d="M177 899q-13 16 29 38q4 3 9 5q111 50 200 133.5t144.5 183t85 208t29.5 214.5q6 0 40.5 -4t83.5 -11.5t79 -14.5q95 -24 55 -64q-37 -40 -31 -67q41 -181 168 -314.5t330 -208.5q11 -4 26 -9q12 -4 12 -6q0 -3 -19 -17q-33 -24 -60 -47l-60 -50q-11 -11 -28 -4 q-187 101 -313 244t-173 287q-31 -104 -88.5 -192t-129.5 -148t-149 -99.5t-157 -58.5q-67 -18 -83 2z" />
<glyph unicode="_" horiz-adv-x="1705" d="M-10 -193h1726v-81h-1726v81z" />
<glyph unicode="`" horiz-adv-x="1165" d="M338 1706q4 8 45 2q109 -16 219 -69.5t172 -129.5q38 -46 49 -102t-18 -84q-21 -17 -46 -18.5t-59 19.5t-69 65q-9 11 -35 45t-37 47t-34 41t-38 43l-37 37t-44 39.5t-46 33.5q-28 17 -22 31z" />
<glyph unicode="a" d="M37 793q-4 5 -4 12q0 18 28 45q86 78 150 183t106 274q1 6 13 6q98 -17 190 -41q12 -3 2 -8q-31 -19 -51 -58l-16 -32q-2 -7 4 -7h610q5 0 8 7l41 67q11 22 33 12q23 -10 88 -53q88 -61 88 -86q0 -9 -12 -14q-47 -15 -47 -45v-793q0 -188 32 -266q4 -11 4 -19 q0 -24 -34 -24q-111 0 -211 119q-10 13 -33 4q-50 -23 -79.5 -34.5t-113.5 -26.5t-186 -15h-301q-8 0 -8 -8q0 -34 -42 -54t-99 -20q-68 0 -68 76v729q0 10 8 10q42 0 191 -76q12 -4 16 -4h709q8 0 8 9v415q0 8 -8 8h-637q-7 0 -13 -6q-84 -109 -148.5 -169t-150.5 -111 q-27 -16 -45 -16q-14 0 -22 10zM338 121q0 -21 38 -30t83 -9h235q153 0 259 50.5t106 125.5v305q0 8 -8 8h-705q-8 0 -8 -8v-442z" />
<glyph unicode="b" horiz-adv-x="1406" d="M160 33v1640q0 6 4 6q116 0 244 -55q30 -13 30 -31q0 -17 -30 -32q-39 -17 -39 -78v-363q0 -5 6 -2q114 49 262 49h424q9 0 12 7l35 75q15 34 45 13l162 -117q37 -27 4 -47q-39 -23 -39 -60v-708q0 -160 -111 -268.5t-272 -108.5q-184 0 -320 63t-204 197q-1 3 -2.5 2 t-1.5 -4v-178q0 -16 -11 -27q-53 -53 -139 -53q-26 0 -42.5 22.5t-16.5 57.5zM369 375q0 -11 2 -17q40 -121 178 -199.5t293 -78.5q112 0 170.5 68t58.5 178v755q0 4 -4 4h-389q-205 0 -303 -98q-6 -6 -6 -16v-596z" />
<glyph unicode="c" horiz-adv-x="1441" d="M34 1218.5q1 1.5 5 0.5q58 -15 90 -22.5t119 -18.5t180 -11h760q8 0 10 4l49 89q9 17 31 4l158 -111q5 -5 -2 -10q-35 -24 -95 -80q-344 -320 -372 -348q-8 -8 -16.5 -8t-11 6t2.5 16l211 350l-4 6h-637l-8 -4q-50 -34 -73 -138.5t-23 -336.5q0 -279 87.5 -401.5 t288.5 -122.5q179 0 305.5 38.5t245.5 108.5q6 4 11.5 0.5t6.5 -9.5t-1 -9q-2 -2 -12 -22t-27.5 -53t-36.5 -62q-24 -37 -43 -53t-49 -27q-46 -13 -148.5 -27t-175.5 -14q-77 0 -143.5 7.5t-135 26.5t-123.5 50.5t-104.5 82.5t-83 118t-52.5 161t-19 209q0 327 100 473 q0 4 -4 4q-67 0 -172 -43q-3 -3 -6 2l-82 170q-2 3 -1 4.5z" />
<glyph unicode="d" horiz-adv-x="1433" d="M147 330v907q0 10 9 10q41 0 190 -76q2 -1 4.5 -2.5t5.5 -1.5h435q148 0 262 -49q6 -3 6 2v553q0 6 4 6q116 0 244 -55q30 -13 30 -31q0 -17 -30 -32q-39 -17 -39 -78v-1450q0 -16 -11 -27q-53 -53 -114 -53q-38 0 -61 22t-23 58v166q0 8 -4 0q-62 -119 -204.5 -182.5 t-320.5 -63.5q-175 0 -279 106t-104 271zM356 326q0 -106 65 -175t169 -69q146 0 277.5 75t189.5 189q2 4 2 8v617q0 10 -6 16q-98 98 -303 98h-388q-6 0 -6 -6v-753z" />
<glyph unicode="e" horiz-adv-x="1529" d="M160 508v729q0 10 8 10q39 0 188 -76q13 -7 13 -16v-35q0 -5 6 -2q60 26 115.5 37.5t146.5 11.5q118 0 194 2t169 9.5t153.5 25t91.5 45.5q12 12 31 0q36 -20 80 -49q89 -59 89 -85q0 -10 -13 -15q-48 -15 -48 -45v-242q0 -104 -72 -200.5t-185 -154t-230 -57.5 q-72 0 -124 3t-114 13.5t-108.5 30t-93.5 54t-84 82.5q-1 3 -2.5 2t-1.5 -4v-119q0 -416 485 -416q84 0 155.5 16.5t116.5 41t77 53.5t45.5 54t13.5 44v160q0 22 12 22q10 0 16 -20l21 -80q24 -95 100 -160q19 -19 0 -41q-40 -50 -104.5 -86.5t-125 -54.5t-135.5 -28.5 t-118 -12.5t-90 -2q-354 0 -516 132t-162 423zM360 866q0 -77 31 -137t79.5 -97t114 -61t128.5 -33.5t129 -9.5q156 0 245 84t89 197l2 293q0 6 -7 6q-141 -23 -469 -23q-342 0 -342 -116v-103z" />
<glyph unicode="f" horiz-adv-x="1024" d="M48 1221q1 1 5 0q2 0 49.5 -15.5t69 -20t76 -11.5t114.5 -7h109q11 0 4 11l-164 217q-50 66 -85 100t-89 70q-6 4 -7 6.5t1 4t6 1.5h471q9 0 15 6l47 47q14 14 21 19.5t21 10t27 -2.5q25 -7 70 -30.5t80 -51.5q56 -43 56 -63q0 -9 -13 -13q-12 -4 -37 -4h-430q-7 0 -4 -6 l123 -301q5 -9 7.5 -12.5t8 -6t14.5 -2.5h172q21 0 37.5 21.5t24.5 21.5q34 0 110 -55q41 -30 50.5 -45.5t-5.5 -20t-55 -4.5h-313q-4 0 -4 -4v-999q0 -18 -10 -34.5t-41 -47.5q-39 -39 -97 -72q-25 -16 -41 0q-37 43 -65.5 61.5t-75.5 30.5l-80 21q-20 6 -20 22q0 19 22 19 h193q6 0 6 6v993q0 4 -4 4h-74q-52 0 -93 -5.5t-59 -12.5t-34.5 -14.5t-20.5 -8.5q-5 0 -6 3l-82 170q-2 3 -1 4z" />
<glyph unicode="g" horiz-adv-x="1445" d="M147 -195q26 24 44.5 57.5t26.5 58t18 65.5l20 80q6 20 20 20q21 0 21 -23l8 -159q4 -78 66.5 -129.5t149.5 -69.5q65 -13 136 -13q24 0 48 1q256 16 354 121q20 21 26.5 41t6.5 65v494q0 10 -9 4q-103 -80 -297 -80h-380q-17 0 -31 -14q-5 -5 -15 -14.5t-16 -15 t-14.5 -13.5t-14 -12t-12.5 -8.5t-13 -6.5t-11 -2q-52 0 -90.5 113.5t-38.5 263.5v608q0 10 8 10q39 0 188 -76l12 -4h734l38 80q15 35 46 13l161 -117q37 -27 4 -47q-41 -24 -41 -60v-852q0 -162 -22 -236t-82 -145q-73 -86 -198.5 -151.5t-290.5 -77.5q-39 -3 -76 -3 q-135 0 -256 37q-155 46 -228 156q-16 25 0 41zM358 682q0 -81 2 -130t7 -76.5t11.5 -36.5t18.5 -9h465q40 0 73.5 6t52.5 12t38.5 20.5t25 20t18.5 22.5l13 17q9 9 9 31v526h-734v-403z" />
<glyph unicode="h" horiz-adv-x="1404" d="M160 45v1628q0 6 4 6q116 0 244 -55q30 -13 30 -31q0 -17 -30 -32q-39 -17 -39 -78v-363q0 -5 6 -2q114 49 262 49h414l57 72q4 11 16.5 14t16.5 -2q23 -10 88 -53q88 -61 88 -86q0 -9 -12 -14q-48 -15 -48 -45v-971q0 -18 -10 -34.5t-41 -47.5q-40 -40 -96 -72 q-25 -16 -41 0q-34 40 -70.5 59t-89.5 33l-80 21q-20 6 -20 22q0 19 22 19h211q7 0 7 6v997h-371q-205 0 -303 -98q-6 -6 -6 -16v-926q0 -16 -11 -27q-53 -53 -114 -53q-38 0 -61 22t-23 58z" />
<glyph unicode="i" horiz-adv-x="675" d="M53 804q0 30 62 30q106 0 172 69q33 34 66 79.5t72.5 115.5t61.5 111t71 137.5t63 123.5q16 33 36 23q19 -7 7 -41q-94 -246 -172 -489q-36 -113 -50 -177t-14 -127q0 -26 14 -296t13 -316q0 -14 -9 -29q-12 -23 -58 -44t-83 -21q-72 0 -72 94q0 66 14.5 334t14.5 276 q0 34 -12.5 52t-52.5 28l-88 23q-56 13 -56 44zM87 1671q4 10 52 8q59 -2 130 -39.5t122 -105.5q20 -32 31.5 -66.5t12 -67t-15.5 -59t-48 -38.5q-24 -9 -45 -9q-20 0 -39 8q-38 16 -54 46q-14 27 -21 77.5t-13 69.5q-10 30 -15.5 43.5t-22 39.5t-40.5 48q-38 35 -34 45z " />
<glyph unicode="j" horiz-adv-x="663" d="M25 -190q0 8 8 12t18 0l209 -94q6 0 6 6v1245q0 14 -8 22l-188 179q-3 6 4 6q111 -19 190 -19h256q27 0 27 -9q-1 -12 -41 -46l-31 -27v-1400q0 -25 -18 -47q-78 -100 -144 -138q-13 -8 -24.5 -8.5t-16.5 8.5q-74 147 -231 285q-16 16 -16 25zM126 1671q4 10 52 8 q59 -2 130 -39.5t122 -105.5q20 -32 31.5 -66.5t12 -67t-15.5 -59t-48 -38.5q-24 -9 -45 -9t-39 8q-38 16 -54 46q-14 27 -21 77.5t-13 69.5q-10 30 -15.5 43.5t-22 39.5t-40.5 48q-38 35 -34 45z" />
<glyph unicode="k" horiz-adv-x="1253" d="M160 45v1628q0 6 4 6q116 0 244 -55q30 -13 30 -31q0 -17 -30 -32q-39 -17 -39 -78v-881q0 -1 0.5 -2t2 -2t5.5 2l680 645l98 -100q54 -54 54 -81q0 -10 -7 -16q-5 -4 -14 -6q-10 -2 -30.5 -2.5t-35 -4t-26.5 -13.5l-387 -293q-6 -6 0 -14l352 -463q34 -49 63 -82.5 t72.5 -77.5t73.5 -78q14 -14 -4 -14h-234q-15 0 -18 10q-9 19 -22.5 43.5t-36 60.5t-43.5 68.5t-59.5 89.5t-68 101t-85 126t-95.5 142q-3 7 -10 0l-219 -166q-6 -6 -6 -12v-418q0 -16 -11 -27q-53 -53 -114 -53q-38 0 -61 22t-23 58z" />
<glyph unicode="l" horiz-adv-x="550" d="M59 1657q0 22 23 22q30 0 131 -31t135 -49q14 -8 14 -20v-1491q0 -6 7 -6h211q22 0 22 -19q0 -16 -20 -22l-80 -21q-53 -14 -89.5 -33t-70.5 -59q-18 -18 -41 0q-56 32 -96 72q-31 31 -41 47.5t-10 34.5v1417q0 100 -72 133q-23 10 -23 25z" />
<glyph unicode="m" horiz-adv-x="1904" d="M86 1241q-3 6 4 6q62 0 134.5 -17t90.5 -42q12 -17 27 -58.5t23 -76.5q2 -6 8 0l11 11q12 11 17 15t19 16t24.5 18l28 16t35 15.5t38.5 11.5t46 8.5t51 2.5q82 0 126 9t91 38q11 7 24 5.5t21 -9.5q16 -15 51 -47.5t53 -51t27 -30.5q4 -7 11 0q80 86 186 86h125 q82 0 126 9t91 38q11 7 24 5.5t21 -9.5l131 -129q25 -25 25 -63v-936q0 -18 -10 -34t-42 -48q-40 -40 -96 -72q-25 -16 -41 0q-34 40 -70.5 59t-89.5 33l-79 21q-21 6 -21 22q0 19 23 19h211q6 0 6 6v846q0 64 -61 107.5t-150 43.5h-99h-12q-55 0 -99 -25q-49 -28 -71 -61 q-1 -3 -4 -6.5t-4.5 -6.5t-1.5 -7v-946q0 -17 -10 -27q-53 -53 -115 -53q-38 0 -61 22t-23 58v923q0 48 -38.5 88.5t-92.5 40.5h-113q-101 -5 -174 -67.5t-73 -163.5v-89.5v-117.5t-0.5 -120.5t-2 -130.5t-3.5 -114t-6 -105t-9 -71q0 -2 -1.5 -7t-2 -8t-2 -8.5t-3 -9.5 t-4.5 -10t-6.5 -11t-8.5 -11t-11 -12q-51 -47 -115 -69q-43 -14 -64 -15q-11 0 -17 4q-3 2 -5 4.5t-2.5 6t0 5.5t1.5 6.5t1 5.5q56 201 56 752q0 107 -6.5 194t-17 142.5t-19.5 88.5t-20 59.5t-11 27.5z" />
<glyph unicode="n" horiz-adv-x="1425" d="M86 1241q-3 6 4 6q62 0 134.5 -17t90.5 -42q13 -18 33.5 -73t26.5 -89q2 -6 8 0q137 141 340 141h184q169 0 257.5 -70t88.5 -223v-647q0 -145 64 -145q15 0 26.5 11.5t20 36.5t13.5 44.5t11 54.5t9 47l16 84q3 21 19 21q18 0 18 -23v-307q0 -17 -14 -31 q-55 -55 -142 -55q-135 0 -192.5 79t-57.5 235v620q0 108 -42.5 147t-118.5 39h-148q-218 0 -336 -141q-30 -33 -30 -100v-89v-116t-0.5 -118.5t-2 -128.5t-3.5 -112t-6 -103.5t-9 -70.5q0 -2 -1.5 -7t-2 -8t-2 -8.5t-3 -9.5t-4.5 -10t-6.5 -11t-8.5 -11t-11 -12 q-51 -47 -115 -69q-43 -14 -64 -15q-11 0 -17 4q-4 3 -5.5 7t-1.5 6t1.5 8t1.5 7q51 183 51 752q0 107 -6.5 194t-17 142.5t-19.5 88.5t-20 59.5t-11 27.5z" />
<glyph unicode="o" horiz-adv-x="1466" d="M98 530v707q0 10 8 10q29 0 97.5 -30t95.5 -48q8 -5 8 -12v-61q0 -5 6 -2q50 27 150.5 50t214.5 23h412q8 0 12 7l37 73q15 34 45 13l162 -117q37 -27 4 -47q-41 -24 -41 -60v-506q0 -141 -40 -252.5t-109.5 -181.5t-159 -106.5t-193.5 -36.5h-209q-104 0 -193.5 36.5 t-158.5 106.5t-108.5 181.5t-39.5 252.5zM307 438q0 -185 90.5 -294t214.5 -109h176q125 0 218.5 109.5t93.5 293.5v637q0 10 -8 10h-373q-116 0 -207.5 -22t-148 -69t-56.5 -113v-443z" />
<glyph unicode="p" horiz-adv-x="1505" d="M-80 -477q0 18 23 18h211q6 0 6 6v1690q0 10 8 10q39 0 188 -76q13 -4 13 -16v-113q0 -6 4 -2q118 127 389 127h389l39 80q15 34 45 13l162 -117q37 -27 4 -47q-41 -24 -41 -60v-518q0 -141 -40 -251t-109.5 -177.5t-159 -102t-193.5 -34.5q-88 0 -162 12.5t-119 27.5 t-89 43t-62 44t-47 45q-10 10 -10 -4v-580q0 -18 -10 -34t-42 -48q-38 -38 -96 -71q-25 -16 -41 0q-34 40 -70.5 59t-89.5 33l-79 20q-21 6 -21 23zM369 483q0 -205 116.5 -326.5t354.5 -121.5q126 0 218.5 104t92.5 287v659h-377q-405 0 -405 -303v-299z" />
<glyph unicode="q" horiz-adv-x="1443" d="M92 608v629q0 10 8 10q31 0 97 -22.5t98 -44.5q1 0 7 -6.5t11 -6.5h377q268 0 391 -123q4 -4 4 3q0 34 12.5 102t26.5 98q11 19 19.5 22t25.5 -9l162 -117q37 -27 4 -47q-28 -18 -35.5 -29.5t-7.5 -30.5v-1497q0 -18 -10 -34.5t-41 -47.5q-38 -38 -96 -71q-25 -16 -41 0 q-34 40 -70.5 59t-89.5 33l-80 20q-20 6 -20 23q0 18 22 18h211q6 0 6 6v1246q0 55 -16 100t-41.5 75t-62 52.5t-72.5 35t-77.5 20t-72.5 9.5t-63 2h-373q-4 0 -4 -4v-540q0 -264 63 -385q57 -110 167 -110q10 0 20 1q85 7 215 82.5t256 183.5q10 7 16.5 3t1.5 -15 q-13 -52 -70.5 -149.5t-97.5 -126.5q-45 -34 -120.5 -53t-145.5 -19q-68 0 -117 4.5t-106.5 19.5t-97 42.5t-78.5 76.5t-62.5 117t-38 168t-14.5 227z" />
<glyph unicode="r" horiz-adv-x="892" d="M66 1225q0 22 22 22q31 0 132.5 -31t135.5 -49q15 -9 15 -20v-262q1 -5 2.5 -6.5t3 0t2.5 6.5q36 90 117 161t221 130q45 18 73.5 44.5t43.5 26.5q4 4 8 0q3 -1 16 -14l92 -242q5 -15 -0.5 -18.5t-13.5 0.5q-78 23 -140 25q-5 0 -9 1q-57 0 -113 -18 q-81 -23 -143.5 -69.5t-95.5 -99.5t-49.5 -99.5t-16.5 -81.5v-592q0 -16 -11 -27q-22 -22 -57 -40.5t-68 -18.5q-36 0 -54.5 24t-18.5 62v1028q0 100 -72 133q-22 9 -22 25z" />
<glyph unicode="s" horiz-adv-x="1452" d="M116 1218.5q1 1.5 5 0.5q58 -15 90 -22.5t119 -18.5t180 -11h618q4 0 9 7l41 75q16 32 43 11l110 -95q19 -19 0 -37q-10 -10 -33.5 -28t-33.5 -27l-232 -205q-25 -21 -40 -11.5t-1 36.5l101 188q2 4 -5 4h-540q-4 0 -6 -6l-129 -364q-3 -10 4 -10h684q7 0 12 8l35 73 q15 34 45 13l162 -117q37 -27 4 -47q-41 -24 -41 -60v-333q0 -94 -80 -152q-26 -19 -59 -38t-92 -43.5t-143.5 -40t-178.5 -15.5q-166 0 -338.5 41t-294.5 123q-1 1 -3 2q-10 6 -11 9.5t8 12.5q49 39 78 117l67 148q3 8 9 12t11 -1t5 -20v-194q0 -11 8 -19q45 -49 167.5 -93 t246.5 -44q141 0 233.5 35.5t130.5 81.5l7 7q7 7 8.5 10.5t5.5 11.5t5 19.5t1 27.5v378q0 7 -6 7h-719q-2 0 -3.5 -1.5t-1.5 -3.5l-1 -2l-6 -16q-11 -29 -54 -39q-24 -6 -48 -6q-20 0 -40 4q-61 12 -61 52q0 12 6 28l148 440q0 4 -5 4q-15 -3 -32 -9t-43.5 -18t-36.5 -16 q-3 -3 -6 2l-82 170q-2 3 -1 4.5z" />
<glyph unicode="t" horiz-adv-x="950" d="M49 1190q-2 3 0 4t6 0q102 -27 170 -27h115q4 0 4 4v502q0 6 4 6q116 0 244 -55q31 -13 31 -31q0 -13 -31 -32q-24 -16 -31.5 -33.5t-7.5 -44.5v-312q0 -4 4 -4h78q5 0 12 7l49 65q22 30 51 30q9 0 19 -3q61 -20 174 -133q24 -22 19 -35t-50 -13h-352q-4 0 -4 -4v-419 q0 -5 4 -5q35 7 127.5 27.5t151.5 30.5q40 8 47 -10q7 -26 -29 -39l-297 -111q-4 0 -4 -4v-463q0 -6 6 -6h211q23 0 23 -19q0 -16 -21 -22l-80 -21q-51 -13 -87.5 -33t-72.5 -59q-16 -16 -40 0q-58 33 -97 72q-31 31 -41 47.5t-10 34.5v385q0 4 -4 4l-78 -31 q-40 -15 -57 -53t-35 4l-72 170q-3 10 4 12l238 43q4 0 4 5v460q0 4 -4 4h-111q-37 0 -114 -20q-4 0 -6 4z" />
<glyph unicode="u" horiz-adv-x="1419" d="M66 1241q-3 6 4 6q26 0 104 -14t159 -43.5t81 -61.5q0 -16 -31 -32q-35 -15 -35 -103v-524q0 -120 56 -192q45 -58 93 -58q12 0 25 4l543 154q4 2 4 6v858q0 6 4 6q116 0 244 -55q31 -13 31 -31q0 -17 -31 -33q-39 -17 -39 -77v-1018q0 -17 -10 -27q-53 -53 -115 -53 q-38 0 -61 22t-23 58v264q0 10 -8 6q-20 -9 -117.5 -42.5t-183.5 -67.5t-212 -105t-231 -158q-23 -20 -51.5 -8.5t-50.5 51.5l-74 136q-2 1 -1.5 4t3.5 4l166 47q7 4 0 6q-86 43 -128 114t-42 189v256q0 107 -6 194t-17 142.5t-19.5 88t-19.5 59.5t-11 28z" />
<glyph unicode="v" horiz-adv-x="1384" d="M6 1239q0 4 4 4q30 4 81 4q34 0 77 -2q108 -4 160 -20q27 -6 30 -27q3 -22 -24 -37q-24 -14 -24 -43q0 -18 9 -43l386 -934q0 -3 2 -3t2 3l407 1102q4 4 6 4q126 -18 236 -82q10 -6 15 -17.5t3 -19.5q-6 -18 -33 -24q-26 -4 -36 -12.5t-21 -32.5l-467 -977 q-18 -35 -78 -84q-56 -46 -98 -70q-25 -16 -41 0q-34 39 -71.5 58.5t-92.5 33.5l-80 21q-20 6 -20 22q0 19 22 19h197q11 0 4 14z" />
<glyph unicode="w" horiz-adv-x="1857" d="M41 1241q0 6 4 6q59 0 145.5 -16t135.5 -39q30 -13 30 -31t-30 -33q-23 -10 -33.5 -33t-5.5 -44l53 -357q20 -129 61.5 -282.5t73.5 -218.5q4 -7 6 -5l338 146q6 3 6 12l-2 688q0 50 -15 84.5t-60 61.5q-19 11 -19 20q0 14 23 14q34 0 109.5 -8t158 -30t82.5 -52 q0 -13 -31 -32q-18 -10 -28.5 -33.5t-10.5 -44.5l2 -666q0 -13 8 -18l306 -158q3 -3 6 0q32 46 54.5 123t53.5 256l117 692q4 4 6 4q151 0 258 -63q26 -14 23 -35q-1 -5 -3 -8t-6 -5.5t-7.5 -3.5t-10 -3t-10.5 -3q-42 -7 -55 -65l-95 -445q-26 -129 -40.5 -191.5t-57 -185 t-98.5 -223.5q-30 -53 -58 -53q-16 0 -30 17q-77 91 -175 150t-182 75q-4 0 -4 -4v-47q0 -17 -10 -27q-45 -45 -115 -45q-38 0 -61 20t-23 52v75q0 14 -10 9q-175 -69 -375 -269q-16 -16 -31 -16q-22 0 -40 35q-175 337 -232 678z" />
<glyph unicode="x" horiz-adv-x="1351" d="M10.5 5.5q1.5 2.5 7.5 4.5q55 21 150 133l377 463q5 7 0 12l-502 611q-6 6 2 6q66 12 141 12q41 0 82 -8.5t60.5 -16t27.5 -12.5q17 -10 17 -22q0 -5 -15 -31q-5 -8 -5 -17q0 -26 34 -65l275 -313q2 -3 5 -3t5 3l379 465q6 6 12 8q28 12 102 12q50 0 96 -10.5t68 -22.5 q20 -10 0 -22q-49 -21 -135 -107l-412 -454q-5 -8 0 -13l418 -475q3 -3 32.5 -34t52.5 -52.5t40 -33.5q2 -1 7 -4.5t7 -5.5t2 -5q0 -8 -14 -8h-235q-9 0 -17 1.5t-13 2.5t-11.5 6t-8 6t-8.5 8.5t-8 8.5l-369 448q-6 6 -10 0l-352 -389q-62 -70 -109 -86q-18 -6 -45 -6h-123 q-4 0 -6.5 1.5t-1 4z" />
<glyph unicode="y" horiz-adv-x="1310" d="M10 1239q0 4 4 4q30 4 83 4q35 0 81 -2q114 -4 166 -20q28 -6 31 -27t-25 -37q-21 -12 -23.5 -40t9.5 -46l328 -694l383 856q0 4 4 4q23 6 77 6q79 0 156 -30q21 -9 21 -21q0 -7 -3 -12t-10 -10.5t-8 -6.5q-52 -40 -94 -120q-455 -855 -696 -1412q-8 -16 -12.5 -23 t-16.5 -19t-35 -31q-26 -19 -54 -45t-34 -29q-25 -16 -41 0q-12 14 -25 25.5t-21.5 18.5t-23 15.5t-19.5 10.5t-20 9l-16 7l-72 29q-20 6 -20 22q0 19 22 19h220q7 0 10 8l254 563z" />
<glyph unicode="z" horiz-adv-x="1312" d="M27 170q-5 10 6 10l133 4q6 0 12 6l731 885q10 10 -2 10h-567q-52 0 -95 -6t-63 -12.5t-38.5 -14t-22.5 -8.5q-5 0 -6 3l-82 170q-2 3 -1 4t5 0q3 -1 40.5 -12.5t54.5 -15.5t55.5 -12t80 -11t90.5 -3h605q9 0 16 9l61 79q14 18 29 20.5t36 -12.5t41 -36t52 -60 q55 -69 55 -99q0 -18 -20 -21q-66 -11 -82 -27l-848 -832q-2 -4 2 -4l727 43q4 0 4 4q-18 55 -46 114t-48 87q-34 46 -28 52q1 1 4 1q12 0 59 -20q77 -34 145 -96.5t105 -132.5q48 -93 48 -158q0 -8 -1 -17q-7 -70 -70 -92q-23 -8 -41 -8q-44 0 -61 47q-30 87 -43 146 q-2 4 -8 4q-241 -29 -801 -140q-14 -3 -29 -14l-51 -39q-17 -12 -32 -12q-33 0 -60 59q-24 54 -51 158z" />
<glyph unicode="{" horiz-adv-x="929" d="M-71 851q0 7 12 11q76 27 102 39q66 31 101.5 77.5t35.5 102.5v648q0 10 8 10q42 0 191 -76q12 -4 14 -4h88l54 72q28 39 69 26q74 -19 176 -92q41 -29 52 -49t-4.5 -29.5t-53.5 -9.5h-377q-8 0 -8 -8v-406q0 -127 -39 -202t-100 -101q-7 -3 -8.5 -6t1 -5t7.5 -3 q42 -13 70.5 -42t48.5 -98.5t20 -177.5l-2 -526h90l53 72q28 39 70 26q74 -19 176 -92q41 -29 52 -49t-4.5 -29.5t-53.5 -9.5h-383v-37q0 -58 -117 -73q-90 -15 -90 73v727q0 86 -37.5 131.5t-101.5 67.5l-100 31q-12 4 -12 11z" />
<glyph unicode="|" horiz-adv-x="591" d="M174 0v1673q0 6 4 6q116 0 244 -55q31 -13 31 -31q0 -17 -31 -32q-39 -17 -39 -78v-1483q0 -17 -10 -27q-53 -53 -115 -53q-38 0 -61 22t-23 58z" />
<glyph unicode="}" horiz-adv-x="866" d="M82 18q11 0 63 -8q55 -8 109 -8h223v526q0 108 20 177.5t48.5 98.5t70.5 42q5 1 7.5 3t1 5t-8.5 6q-61 26 -100 101t-39 202v414h-217q-22 0 -62.5 -8t-60.5 -8l-55 114q11 0 63 -8q55 -8 109 -8h223v70q0 6 4 6q114 0 244 -56q31 -13 31 -30t-31 -33q-39 -17 -39 -78 v-457q0 -56 35.5 -102.5t101.5 -77.5q22 -10 103 -39q12 -4 12 -11t-12 -11l-101 -31q-64 -22 -101.5 -67.5t-37.5 -131.5l2 -727q0 -58 -119 -73q-92 -15 -92 73v37h-217q-22 0 -62.5 -8t-60.5 -8z" />
<glyph unicode="~" horiz-adv-x="1652" d="M174 489q0 53 23 112.5t66 116t118 93.5t166 37q291 0 399 -234q2 -4 8 -20t8.5 -21t9 -19t10.5 -20t12.5 -17t15.5 -16l17.5 -12.5t22 -11t26 -6t30.5 -2.5q32 0 56.5 12t43 38t27.5 43t23 53t16 42q36 97 198 86q9 0 9 -8q0 -40 -13.5 -86.5t-44 -94.5t-72.5 -87 t-105.5 -63.5t-137.5 -24.5q-156 0 -246.5 60t-144.5 173q-14 34 -23.5 52t-29 44t-48 38t-67.5 12q-32 0 -56.5 -12t-43 -38t-27.5 -43.5t-22.5 -53.5t-16.5 -42q-36 -98 -201 -86q-6 0 -6 6z" />
<glyph unicode="&#xa1;" horiz-adv-x="716" d="M122.5 -328q0.5 11 0.5 13l53 880q1 17 8 32.5t12.5 22t18.5 21.5q3 3 43.5 35t94 78.5t91.5 87.5q39 41 30 69.5t-37 43.5t-66 18q-8 2 -61 9t-87 15q-55 13 -78.5 55t-9.5 91q16 45 57.5 62t89 8t91.5 -35q58 -34 99 -95.5t48.5 -127.5t-31.5 -124l-104 -141 q-10 -15 -10 -35v-152v-138.5v-117.5t1 -108.5t3 -91t5 -85t8 -70t11 -67t14.5 -55t18.5 -53.5l53 -127q3 -6 -4 -6q-111 19 -166 19h-129q-16 0 -28 3t-19 9t-12 11.5t-6.5 15.5t-2 14.5t0 15.5z" />
<glyph unicode="&#xa2;" horiz-adv-x="1441" d="M10 1184q12 0 64 -8q62 -9 108 -9h537v217q0 7 4 7q114 0 244 -56q30 -13 30 -30q0 -18 -30 -33q-39 -17 -39 -78v-27h276l43 82q14 33 43 11l111 -95q19 -19 0 -37q-10 -10 -33.5 -28t-34.5 -27q-41 -35 -135.5 -139t-107.5 -115q-30 -27 -52 -14q-22 14 -2 53l127 227 h-235v-995q221 28 407 139q6 4 11.5 0.5t6.5 -9.5t-1 -9q-2 -2 -11 -19t-25.5 -47t-35.5 -59q-23 -36 -39.5 -48t-48.5 -24q-114 -34 -264 -45v-82q0 -16 -10 -26q-54 -54 -115 -54q-38 0 -61 22t-23 58v84q-90 9 -163 31t-141.5 68.5t-114.5 115.5t-73.5 176t-27.5 246v477 h-11q-22 0 -62 -8t-60 -8zM408 606q0 -257 73 -379t238 -141v999h-311v-479z" />
<glyph unicode="&#xa3;" horiz-adv-x="1204" d="M12 967q-3 6 4 6q111 -19 166 -19h64q-12 40 -44.5 133.5t-48.5 162t-16 141.5q0 177 115 274.5t291 97.5q77 0 143 -21.5t114 -59.5t82 -82t58 -95q33 -71 -98 -202q-18 -18 -27 8q-10 29 -20 67q-8 22 -19 57t-14 42q-35 93 -86.5 149.5t-132.5 56.5q-51 0 -90 -20.5 t-60.5 -51t-35 -72.5t-17.5 -76.5t-4 -71.5q0 -94 15.5 -162t53 -156t48.5 -119h86l34 54q15 24 29.5 35t29.5 13.5t38.5 -10t48 -30t65.5 -51.5q35 -31 45.5 -52t-1.5 -31t-44 -10h-309q23 -97 23 -213q0 -113 -26 -253t-69 -267q126 -55 181 -69q87 -23 200 -23 q126 0 189 45t63 107v180q0 13 6.5 22t16.5 9q4 0 7 -1.5t6 -5.5t4 -6.5t3.5 -9t3.5 -8.5l45 -133q12 -35 26.5 -56t45.5 -49q30 -30 -2 -59q-43 -37 -169.5 -77t-244.5 -40q-60 0 -125 11t-98 20t-93.5 30t-61.5 21q-23 6 -43.5 9.5t-35 5.5t-30.5 1.5t-24 -1t-21.5 -4 t-17.5 -5t-17 -6.5t-16 -6q-26 -8 -68 -29.5t-51 -23.5q-4 0 -4 2q-2 0 -2 2l-49 102q-6 9 4 6q54 -11 79.5 -7.5t86.5 30.5q26 42 61 234.5t35 312.5q0 90 -25 202h-82q-72 0 -118 -12q-5 0 -5 2q-2 0 -2 2z" />
<glyph unicode="&#xa5;" horiz-adv-x="1439" d="M-14 1552l194 119q25 15 38 8.5t15 -26.5q1 -7 4.5 -33.5t5.5 -41.5t7.5 -35t11.5 -32l451 -720l538 888l191 -116q11 -7 11.5 -16t-5.5 -13q-4 -4 -46.5 -39t-68.5 -70l-518 -682v-110h127l35 53q15 24 29.5 35t29.5 13.5t38.5 -10t48 -30t65.5 -51.5q35 -31 45.5 -52 t-1.5 -30.5t-44 -9.5h-373v-234h127l35 54q15 24 29.5 35t29.5 13.5t38.5 -10t48 -30t65.5 -51.5q35 -31 45.5 -52t-1.5 -30.5t-44 -9.5h-373v-191q0 -17 -10 -27q-53 -53 -115 -53q-38 0 -61 22t-23 58v191h-186q-69 0 -119 -13q-4 0 -4 2q-2 0 -2 2l-49 103q-3 6 4 6 q111 -19 166 -19h190v234h-186q-73 0 -119 -12q-4 0 -4 2q-2 0 -2 2l-49 102q-3 6 4 6q105 -18 166 -18h190v110z" />
<glyph unicode="&#xa6;" horiz-adv-x="606" d="M195 1020v653q0 6 4 6q115 0 243 -55q31 -13 31 -31q0 -17 -31 -32q-39 -17 -39 -78v-463q0 -17 -10 -27q-53 -53 -114 -53q-38 0 -61 22t-23 58zM197 47v565q0 17 10 27q53 53 115 53q38 0 61 -22t23 -58v-565q0 -16 -11 -27q-53 -53 -114 -53q-38 0 -61 22t-23 58z" />
<glyph unicode="&#xa7;" horiz-adv-x="1339" d="M170 -420q-3 6 4 6q105 -18 166 -18h565v483l-461 271v-41q0 -17 -10 -27q-53 -53 -115 -53q-38 0 -59.5 22t-21.5 58v1366q0 10 8 10q41 0 190 -76q12 -4 15 -4h372l54 72q28 39 69 26q74 -19 176 -92q41 -29 52 -49t-4.5 -29.5t-53.5 -9.5h-670v-485l461 -271l39 84 q15 34 45 13l160 -117q37 -27 4 -47q-41 -24 -41 -60v-1153q0 -16 -10 -26q-54 -54 -115 -54q-38 0 -61 22t-23 58v27h-561q-73 0 -119 -12q-4 0 -4 2q-2 0 -2 2zM446 403l459 -270v524l-459 271v-525z" />
<glyph unicode="&#xa8;" horiz-adv-x="1339" d="M350 1526q0 51 37 88t88 37q53 0 89 -36.5t36 -88.5t-36 -87.5t-89 -35.5q-51 0 -88 36t-37 87zM739 1528q0 51 36 87t87 36q54 0 90.5 -36t36.5 -87q0 -52 -36.5 -88.5t-90.5 -36.5q-51 0 -87 37t-36 88z" />
<glyph unicode="&#xa9;" horiz-adv-x="1972" d="M174 45v1600q0 10 8 10q38 0 193 -76l2 -2h1151l59 74q4 11 16.5 14t16.5 -2q23 -10 88 -53q121 -83 76 -101q-47 -15 -47 -45v-1454q0 -74 -90 -86q-47 -6 -83 14t-36 62h-1024q-88 0 -121 23q-44 -58 -125 -58q-38 0 -61 22t-23 58zM383 121q0 -21 38 -30t83 -9h1024 v1413h-1139q-4 0 -4 -2zM458 1308.5q-2 -8.5 3.5 -23t11.5 -25.5t14 -25v-436q0 -133 28 -233t79 -165t130 -105t172.5 -56.5t215.5 -16.5q93 0 201 23q30 8 47 21t41 50q19 29 35.5 59t25.5 47t11 19q5 5 -1 14t-16 5q-130 -63 -235 -92t-236 -29q-57 0 -101 11.5 t-74.5 30.5t-51.5 52.5t-33 67t-18.5 85.5t-8.5 97.5t-2 112.5v438h537l-127 -227q-21 -40 2 -54q21 -13 51 15q13 11 108 115t136 139q10 9 33.5 27t33.5 28q18 18 0 37l-110 94q-29 22 -43 -10l-43 -82h-803q-11 0 -13 -8.5z" />
<glyph unicode="&#xab;" horiz-adv-x="1449" d="M309 475q-108 108 0 221l236 248q3 3 6.5 7t5 5t4 2.5t6 2t8.5 0.5h213q7 0 11 -3.5t-4 -13.5l-346 -356l346 -352q9 -10 5.5 -18.5t-12.5 -8.5h-253q-10 0 -13 16q-3 43 -67 107zM682.5 581q-0.5 31 34.5 70l276 293q2 2 5.5 6t5 5t3.5 2.5t4 2t5 1t8 0.5h213 q7 0 10.5 -3.5t-4.5 -13.5l-346 -356l346 -352q9 -10 6 -18.5t-12 -8.5h-188q-9 0 -16.5 3.5t-10.5 6t-16 14.5l-287 281q-36 36 -36.5 67z" />
<glyph unicode="&#xac;" horiz-adv-x="1343" d="M156 1180q-3 6 4 6q111 -19 166 -19h567l35 54q15 24 29.5 35t29.5 13.5t38.5 -10t48 -30t65.5 -51.5q73 -64 39 -86q-8 -5 -21 -7h-2q-39 -17 -39 -77v-881q0 -17 -10 -27q-53 -53 -115 -53q-38 0 -61 22t-23 58v958h-577q-73 0 -119 -12q-4 0 -4 2q-2 0 -2 2z" />
<glyph unicode="&#xad;" horiz-adv-x="1384" d="M197 629q-3 6 4 6q111 -19 166 -19h526l35 54q15 24 29.5 35t29.5 13.5t38.5 -10t48 -30t65.5 -51.5q35 -31 45.5 -52t-1.5 -30.5t-44 -9.5h-768q-69 0 -119 -13q-4 0 -4 2q-2 0 -2 2z" />
<glyph unicode="&#xae;" horiz-adv-x="1972" d="M174 45v1600q0 10 8 10q38 0 193 -76l2 -2h1151l59 74q4 11 16.5 14t16.5 -2q23 -10 88 -53q121 -83 76 -101q-47 -15 -47 -45v-1454q0 -74 -90 -86q-47 -6 -83 14t-36 62h-1024q-88 0 -121 23q-44 -58 -125 -58q-38 0 -61 22t-23 58zM383 121q0 -21 38 -30t83 -9h1024 v1413h-1139q-4 0 -4 -2zM530 276v1088q0 10 9 10q37 0 186 -76q12 -4 14 -4h361l53 72q29 40 70 27q72 -19 176 -93q41 -29 52 -49t-4.5 -29.5t-53.5 -9.5q-15 0 -15 -16v-252q0 -16 -10 -26q-46 -46 -115 -46q-84 0 -84 62h-430v-154h473l21 45q15 34 45 13l162 -117 q37 -27 4 -47q-4 -3 -7.5 -8t-6 -12t-4 -15.5t-2.5 -17t-1.5 -17t-0.5 -16t0.5 -13t0.5 -9.5v-5v-104q0 -88 -133 -226q-38 -38 -96 -71q-25 -16 -41 0q-34 40 -70.5 59t-89.5 33l-80 20q-20 6 -20 23q0 18 22 18h209q90 0 90 76v313h-475v-426q0 -16 -10 -26 q-53 -53 -115 -53q-38 0 -61 22t-23 57zM739 1014h430v198h-430v-198z" />
<glyph unicode="&#xb0;" horiz-adv-x="1155" d="M276 1378v86q0 69 18.5 122.5t48 86t70.5 53.5t81 29t84 8q54 0 103 -14t95.5 -45.5t74.5 -93t28 -146.5v-86q0 -85 -28 -146.5t-74.5 -93t-95.5 -45.5t-103 -14q-44 0 -84 8t-81 29t-70.5 53.5t-48 86t-18.5 122.5zM473 1378q0 -231 105 -231q104 0 104 231v86 q0 232 -104 232q-105 0 -105 -232v-86z" />
<glyph unicode="&#xb1;" horiz-adv-x="1357" d="M156 94q-3 6 4 6q105 -18 166 -18h567l35 53q15 24 29.5 35t29.5 13.5t38.5 -10t48 -30t65.5 -51.5q35 -31 45.5 -52t-1.5 -30.5t-44 -9.5h-809q-73 0 -119 -12q-4 0 -4 2q-2 0 -2 2zM170 686q-3 6 4 6q105 -18 166 -18h221v405q0 6 4 6q116 0 244 -55q31 -13 31 -31 q0 -17 -31 -32q-39 -17 -39 -78v-215h137l35 53q15 24 29.5 35t29.5 13.5t38.5 -10t48 -30t65.5 -51.5q35 -31 45.5 -52t-1.5 -30.5t-44 -9.5h-383v-344q0 -17 -10 -27q-53 -53 -115 -53q-38 0 -61 22t-23 58v344h-217q-73 0 -119 -12q-4 0 -4 2q-2 0 -2 2z" />
<glyph unicode="&#xb2;" horiz-adv-x="1212" d="M164 1100q-6 12 12 30q77 77 125 239t43 290q0 6 6 6q40 -5 98 -22t70 -29q4 -4 4 -10v-27h219q152 0 231 -49.5t79 -161.5q0 -101 -71.5 -225.5t-176.5 -243.5l-291 -336h319q34 0 61.5 7t45.5 14.5t33 25t22 26.5t14 31.5t8 27t5 24.5l12 57q0 14 12 14q13 0 13 -16 v-252q0 -1 0.5 -4.5t0 -5t-3 -3t-7.5 -1.5h-685q-33 0 -79 -12q-6 -2 -16.5 -5t-14.5 -3.5t-11 0t-12 5.5t-12 15q-13 22 -37 55h72l354 416q7 8 41.5 50.5t45 56t38 50.5t38 58.5t26 53.5t21 61t5.5 59q0 74 -45.5 115t-132.5 41h-127q-32 -106 -78.5 -183t-98.5 -126 t-138 -111q-27 -21 -37 -2z" />
<glyph unicode="&#xb3;" horiz-adv-x="1155" d="M143 1585q0 4 4 4q70 -12 113 -12h434l64 90q14 18 30 8l175 -112q20 -17 4 -33q-179 -134 -299.5 -226.5t-160.5 -125t-66 -53.5t-42 -33h334l25 53q12 23 30 8l203 -125q22 -22 2 -33q-15 -9 -26 -20v-125q0 -190 -83.5 -279.5t-230.5 -89.5h-247q-83 0 -154 29.5 t-107 91.5q-13 16 0 29q63 54 80 125l15 53q3 14 16 14q12 0 12 -14v-109q0 -24 2 -43t10.5 -42.5t23 -39.5t41.5 -27t65 -11h145q83 0 131.5 61.5t48.5 189.5v248h-397q-32 0 -35 21t21 45l327 420h-389q-17 0 -80 -9h-4v3z" />
<glyph unicode="&#xb4;" horiz-adv-x="1202" d="M365 1305q-5 13 22 30q91 61 178.5 157.5t124.5 182.5q9 21 27 6q2 -2 29 -21t48 -37t31 -34q23 -37 -4 -67q-63 -77 -184 -140.5t-227 -78.5q-41 -6 -45 2z" />
<glyph unicode="&#xb5;" horiz-adv-x="1421" d="M139 45v1196q0 6 4 6q116 0 244 -55q31 -13 31 -31q0 -17 -31 -33q-39 -17 -39 -77v-783l723 111v862q0 6 4 6q116 0 244 -55q31 -13 31 -31q0 -17 -31 -33q-39 -17 -39 -77v-1006q0 -17 -10 -27q-53 -53 -115 -53q-38 0 -61 22t-23 58v262q-54 -25 -225.5 -69.5 t-319 -82t-159.5 -49.5l-19 -18v-43q0 -17 -10 -27q-53 -53 -115 -53q-38 0 -61 22t-23 58z" />
<glyph unicode="&#xb6;" horiz-adv-x="1521" d="M174 684v963q0 10 8 10q27 0 108.5 -40t92.5 -40h1028q61 0 166 18q7 0 4 -6l-49 -102l-2 -2q-2 -2 -4 -2q-46 12 -119 12h-1024v-709h295v641q0 7 4 7q114 0 244 -56q30 -13 30 -30q0 -18 -30 -33q-39 -17 -39 -78v-1356q0 -16 -10 -26q-54 -54 -115 -54q-38 0 -61 22 t-23 58v826h-295v-23q0 -36 -23 -58t-61 -22q-62 0 -115 53q-10 10 -10 27zM1047 -113v1547q0 6 4 6q113 0 243 -56q31 -13 31 -30q0 -18 -31 -33q-39 -17 -39 -78v-1356q0 -16 -10 -26q-54 -54 -115 -54q-38 0 -60.5 22t-22.5 58z" />
<glyph unicode="&#xb7;" horiz-adv-x="839" d="M266 612q0 63 45.5 108.5t108.5 45.5t108 -45.5t45 -108.5t-45 -108t-108 -45t-108.5 45t-45.5 108z" />
<glyph unicode="&#xb8;" horiz-adv-x="1282" d="M314.5 -192.5q1.5 14.5 7.5 28.5l88 211h192l-70 -172h213l19 25q14 33 45 12l147 -92q35 -24 5 -47q-9 -7 -12.5 -16t-4 -14.5t-0.5 -21.5v-26q0 -50 -27.5 -89t-68 -60.5t-94 -35t-97 -18t-86.5 -4.5q-65 0 -139 24.5t-106 61.5q-31 35 -4 47q16 7 32 28.5t25 39.5 t10 18q17 0 17 -22v-52q0 -12 3.5 -21.5t11 -15.5t15 -11t20 -8t22 -4.5t25 -2t23.5 -0.5h24h21q92 0 133 18t41 60v147h-243l-2 -2q-54 -54 -140 -35q-25 5 -36 20t-9.5 29.5z" />
<glyph unicode="&#xb9;" horiz-adv-x="837" d="M215.5 1277.5q2.5 5.5 4.5 7.5t8 8.5t10 11.5q63 73 182 256q60 97 65 118h7q22 0 81 -39q63 -40 33 -55q-8 -4 -14.5 -8.5t-9.5 -7.5t-8.5 -10t-8.5 -11l-24 -30v-949q0 -15 -11 -26q-17 -17 -28 -26t-32 -18.5t-44 -9.5q-38 0 -60 22t-22 58v774q-19 -27 -82 -71 q-33 -25 -45 -4q-4 4 -1.5 9.5z" />
<glyph unicode="&#xba;" horiz-adv-x="899" d="M168 1425q0 117 85 185.5t198 68.5q111 0 195.5 -69t84.5 -185t-84.5 -185t-195.5 -69q-113 0 -198 68.5t-85 185.5zM338 1425q0 -97 31 -155t82 -58t80.5 58t29.5 155t-29.5 154t-80.5 57t-82 -57.5t-31 -153.5z" />
<glyph unicode="&#xbb;" horiz-adv-x="1449" d="M201 217.5q-3 8.5 6 18.5l346 352l-346 356q-8 10 -4.5 13.5t10.5 3.5h213h9t6 -2t4 -2.5t5.5 -5.5t6.5 -7l276 -293q35 -39 34.5 -70t-36.5 -67l-287 -281q-2 -1 -5.5 -4.5l-5 -5t-4.5 -4t-4.5 -3t-4 -2.5t-4.5 -2.5t-4.5 -1.5t-5 -1h-5.5h-188q-9 0 -12 8.5z M649.5 217.5q-3.5 8.5 5.5 18.5l346 352l-346 356q-8 10 -4 13.5t11 3.5h212h9t6 -2t4 -2.5t5.5 -5.5t6.5 -7l236 -248q108 -113 0 -221l-146 -143q-64 -64 -67 -107q-3 -16 -13 -16h-253q-9 0 -12.5 8.5z" />
<glyph unicode="&#xbc;" horiz-adv-x="2150" d="M195.5 1277q-2.5 -6 1.5 -9q12 -21 45 4q63 44 82 71v-774q0 -36 22 -58t60 -22q23 0 44 9.5t32 18.5t28 26q10 10 10 26v949l25 30q3 4 8.5 11t8.5 10t9.5 7.5t14.5 8.5q30 15 -33 55q-59 39 -82 39h-6q-4 -19 -66 -118q-119 -183 -182 -256q-4 -5 -10 -11.5t-7.5 -8.5 t-4 -8zM557 -111l653 1745q21 63 93 45t51 -77l-652 -1745q-21 -60 -94 -45q-71 15 -51 77zM1059 285q6 -8 16 -7.5t25 15.5q24 24 33 37h448v-283h-86q-26 0 -33.5 -9t2.5 -19t29 -13q3 0 61 -12q49 -13 93 -60q14 -14 28 -14q40 0 75.5 38t35.5 95v277h219q25 0 36 10 t3 28t-35 38q-60 44 -119 59q-27 9 -49 -19l-35 -47h-20v695q0 36 -31 36h-80q-51 0 -71 -12q-3 -3 0 -6q24 -18 24 -33q0 -12 -4.5 -25.5t-17 -32.5t-21 -31t-30.5 -39.5t-31 -39.5l-463 -585q-17 -26 -2 -41zM1192 399q70 79 389 461v-461h-389z" />
<glyph unicode="&#xbd;" horiz-adv-x="2226" d="M195.5 1277q-2.5 -6 1.5 -9q12 -21 45 4q63 44 82 71v-774q0 -36 22 -58t60 -22q23 0 44 9.5t32 18.5t28 26q10 10 10 26v949l25 30q3 4 8.5 11t8.5 10t9.5 7.5t14.5 8.5q30 15 -33 55q-59 39 -82 39h-6q-4 -19 -66 -118q-119 -183 -182 -256q-4 -5 -10 -11.5t-7.5 -8.5 t-4 -8zM557 -111l653 1745q21 63 93 45t51 -77l-652 -1745q-21 -60 -94 -45q-71 15 -51 77zM1219 594q-6 13 12 31q77 77 125 238.5t43 289.5q0 6 6 6q40 -5 98 -22t70 -29q4 -4 4 -10v-27h219q152 0 230.5 -49.5t78.5 -161.5q0 -103 -71.5 -229t-175.5 -244l-291 -332h319 q34 0 61.5 7t45.5 14.5t33 25t22 26.5t14 31.5t8 27t5 24.5l12 57q0 15 12 15t12 -17v-252q0 -1 0.5 -4.5t0 -5t-3 -3t-7.5 -1.5h-661q-34 0 -80 -12q-6 -2 -16.5 -5t-14.5 -3.5t-11 0t-12 5.5t-12 15q-13 22 -37 55h72l344 412q48 58 75.5 95t61.5 91t50 105t16 102 q0 74 -45.5 115t-132.5 41h-127q-46 -153 -116 -240.5t-200 -179.5q-27 -21 -36 -2z" />
<glyph unicode="&#xbe;" horiz-adv-x="2410" d="M117 1585l35 -69v-3h4q63 9 80 9h389l-328 -420q-24 -24 -21 -45t35 -21h398v-248q0 -128 -49 -189.5t-132 -61.5h-145q-38 0 -65 11t-41.5 27t-22.5 40t-10 42.5t-2 42.5v109q0 14 -13 14t-16 -14l-14 -53q-17 -71 -80 -125q-13 -13 0 -29q36 -62 107 -91.5t153 -29.5 h248q147 0 230 89.5t83 279.5v125q10 10 27 20q20 11 -2 33l-203 125q-19 16 -31 -8l-24 -53h-334q16 12 41.5 33t65.5 53.5t160.5 125t299.5 226.5q16 16 -4 33l-174 112q-17 11 -31 -8l-63 -90h-435q-41 0 -112 12q-4 0 -4 -4zM817 -111l653 1745q21 63 93 45t51 -77 l-651 -1745q-22 -60 -95 -45q-71 15 -51 77zM1319 285q6 -8 16 -7.5t25 15.5q24 24 33 37h448v-283h-86q-26 0 -33.5 -9t2.5 -19t29 -13q4 0 62 -12q48 -12 92 -60q14 -14 28 -14q40 0 75.5 38t35.5 95v277h219q25 0 36 10t3 28t-35 38q-60 44 -119 59q-27 9 -49 -19 l-35 -47h-20v695q0 36 -31 36h-80q-51 0 -71 -12q-3 -3 0 -6q24 -18 24 -33q0 -12 -4.5 -25.5t-17 -32.5t-21 -31t-30.5 -39.5t-31 -39.5l-463 -585q-17 -26 -2 -41zM1452 399q70 79 389 461v-461h-389z" />
<glyph unicode="&#xbf;" horiz-adv-x="1376" d="M70 -334q32 10 90 72l471 573q-74 35 -29 68t45 59v135q3 52 39 76l32 21q32 20 63 42t71.5 58.5t65.5 71.5q31 42 23 70t-34 43t-63 18q-8 2 -61 9t-87 15q-55 13 -78.5 55t-9.5 91q16 45 57.5 62t89 8t91.5 -35q57 -34 96.5 -97t46 -128.5t-25.5 -121.5l-113 -176 q-19 -30 -19 -57v-352q-23 0 -69 12q-48 9 -51 12l-359 -589h701q53 0 95.5 5.5t62.5 12t38.5 14t22.5 8.5q5 0 6 -2l82 -170q2 -3 1 -4t-5 0q-1 0 -40.5 12.5t-55.5 16t-55 11.5t-80.5 11t-90.5 3h-731l-37 -74q-4 -11 -16.5 -14t-16.5 2q-23 10 -88 53q-120 83 -75 100z " />
<glyph unicode="&#xc0;" horiz-adv-x="1712" d="M-25 -20q-16 25 9 47q125 111 276 383q52 93 99 197.5t93 235.5t74.5 280.5t32.5 293.5q0 8 8 8q115 -14 174 -26q53 -11 68.5 -32.5t-4.5 -41.5q-3 -4 -12.5 -14t-12.5 -14t-8.5 -12.5t-8.5 -17.5t-5 -20q-18 -88 -46.5 -177.5t-48 -138.5t-71.5 -179q-4 -7 2 -7 q8 -2 92 -2h356q5 0 5 7q-115 383 -123 741q0 4 -4 4h-252q-73 0 -119 -12q-4 0 -6 4l-49 102q-3 6 4 6q105 -18 166 -18h225q12 0 16 4l51 68q29 41 68 28q8 -2 17.5 -6t18.5 -8.5t26 -14t30 -16.5t39.5 -22.5t46.5 -26.5q64 -38 58.5 -63t-64.5 -25h-100q-4 0 -4 -4 q-40 -438 290 -1028q168 -315 338 -408q22 -13 4 -22l-200 -111q-11 -8 -31 4q-57 37 -136 147.5t-155 268.5q-66 132 -125 309q-5 11 -16 11h-375q-109 0 -139 -13l-8 -6q-45 -90 -115 -203q-82 -135 -189.5 -271.5t-201.5 -195.5q-11 -8 -29.5 -7t-28.5 14zM440 2150 q4 8 45 2q110 -16 220.5 -69t171.5 -129q38 -46 48.5 -102.5t-18.5 -84.5q-21 -17 -46 -18.5t-59 19.5t-69 65q-10 13 -40.5 52.5t-43 54.5t-39.5 46.5t-46 50t-46 41.5t-55 42q-28 18 -23 30z" />
<glyph unicode="&#xc1;" horiz-adv-x="1712" d="M-25 -20q-16 25 9 47q125 111 276 383q52 93 99 197.5t93 235.5t74.5 280.5t32.5 293.5q0 8 8 8q115 -14 174 -26q53 -11 68.5 -32.5t-4.5 -41.5q-3 -4 -12.5 -14t-12.5 -14t-8.5 -12.5t-8.5 -17.5t-5 -20q-18 -88 -46.5 -177.5t-48 -138.5t-71.5 -179q-4 -7 2 -7 q8 -2 92 -2h356q5 0 5 7q-115 383 -123 741q0 4 -4 4h-252q-73 0 -119 -12q-4 0 -6 4l-49 102q-3 6 4 6q105 -18 166 -18h225q12 0 16 4l51 68q29 41 68 28q8 -2 17.5 -6t18.5 -8.5t26 -14t30 -16.5t39.5 -22.5t46.5 -26.5q64 -38 58.5 -63t-64.5 -25h-100q-4 0 -4 -4 q-40 -438 290 -1028q168 -315 338 -408q22 -13 4 -22l-200 -111q-11 -8 -31 4q-57 37 -136 147.5t-155 268.5q-66 132 -125 309q-5 11 -16 11h-375q-109 0 -139 -13l-8 -6q-45 -90 -115 -203q-82 -135 -189.5 -271.5t-201.5 -195.5q-11 -8 -29.5 -7t-28.5 14zM682 1759 q-5 13 23 31q91 61 178.5 157.5t124.5 182.5q9 20 26 6q3 -2 29.5 -21t48 -37t31.5 -34q23 -38 -4 -68q-63 -77 -184.5 -140t-227.5 -79q-41 -6 -45 2z" />
<glyph unicode="&#xc2;" horiz-adv-x="1712" d="M-25 -20q-16 25 9 47q125 111 276 383q52 93 99 197.5t93 235.5t74.5 280.5t32.5 293.5q0 8 8 8q115 -14 174 -26q53 -11 68.5 -32.5t-4.5 -41.5q-3 -4 -12.5 -14t-12.5 -14t-8.5 -12.5t-8.5 -17.5t-5 -20q-18 -88 -46.5 -177.5t-48 -138.5t-71.5 -179q-4 -7 2 -7 q8 -2 92 -2h356q5 0 5 7q-115 383 -123 741q0 4 -4 4h-252q-73 0 -119 -12q-4 0 -6 4l-49 102q-3 6 4 6q105 -18 166 -18h225q12 0 16 4l51 68q29 41 68 28q8 -2 17.5 -6t18.5 -8.5t26 -14t30 -16.5t39.5 -22.5t46.5 -26.5q64 -38 58.5 -63t-64.5 -25h-100q-4 0 -4 -4 q-40 -438 290 -1028q168 -315 338 -408q22 -13 4 -22l-200 -111q-11 -8 -31 4q-57 37 -136 147.5t-155 268.5q-66 132 -125 309q-5 11 -16 11h-375q-109 0 -139 -13l-8 -6q-45 -90 -115 -203q-82 -135 -189.5 -271.5t-201.5 -195.5q-11 -8 -29.5 -7t-28.5 14zM526 1735v170 q0 6 6 12l310 248q4 3 7 1t3 -7q0 -26 12.5 -46t48.5 -51l138 -125q55 -46 104 -41q4 2 5.5 0.5t2 -3t0.5 -5.5v-151q0 -18 -16 -2l-293 252q-6 6 -14 -2l-308 -254q-6 -6 -6 4z" />
<glyph unicode="&#xc3;" horiz-adv-x="1712" d="M-25 -20q-16 25 9 47q125 111 276 383q52 93 99 197.5t93 235.5t74.5 280.5t32.5 293.5q0 8 8 8q115 -14 174 -26q53 -11 68.5 -32.5t-4.5 -41.5q-3 -4 -12.5 -14t-12.5 -14t-8.5 -12.5t-8.5 -17.5t-5 -20q-18 -88 -46.5 -177.5t-48 -138.5t-71.5 -179q-4 -7 2 -7 q8 -2 92 -2h356q5 0 5 7q-115 383 -123 741q0 4 -4 4h-252q-73 0 -119 -12q-4 0 -6 4l-49 102q-3 6 4 6q105 -18 166 -18h225q12 0 16 4l51 68q29 41 68 28q8 -2 17.5 -6t18.5 -8.5t26 -14t30 -16.5t39.5 -22.5t46.5 -26.5q64 -38 58.5 -63t-64.5 -25h-100q-4 0 -4 -4 q-40 -438 290 -1028q168 -315 338 -408q22 -13 4 -22l-200 -111q-11 -8 -31 4q-57 37 -136 147.5t-155 268.5q-66 132 -125 309q-5 11 -16 11h-375q-109 0 -139 -13l-8 -6q-45 -90 -115 -203q-82 -135 -189.5 -271.5t-201.5 -195.5q-11 -8 -29.5 -7t-28.5 14zM494 1817v4 v168q0 6 6 12l59 47l4 4q24 19 60 33q9 3 39 8h26q20 -3 41 -12l21 -13l16 -12l88 -82q12 -12 29 -22q15 -7 28 -10q19 0 29 2q18 3 43 18l14 10l131 101l2 2q5 0 5 -7v-167q0 -7 -2 -9q0 -1 -2 -2q-1 -1 -1.5 -1t-1.5 -1l-49 -43l-10 -8q-14 -10 -25 -16l-10 -6l-16 -7 q-4 0 -12 -4q-7 0 -11 -2q-2 0 -6 -1t-6 -1h-18q-36 0 -80 23l-19 12l-18 16l-76 70l-29 21l-10 4q-2 0 -6 1t-6 1q-24 6 -55 -11l-11 -6l-14 -10l-141 -104q-6 -6 -6 0z" />
<glyph unicode="&#xc4;" horiz-adv-x="1712" d="M-25 -20q10 -13 28.5 -14t29.5 7q94 59 201.5 195.5t189.5 271.5q70 113 115 203q2 4 8 6q30 13 139 13h375q11 0 16 -11q59 -177 125 -309q76 -158 155 -268.5t136 -147.5q20 -12 31 -4l200 111q18 9 -4 22q-170 93 -338 408q-330 590 -290 1028q0 4 4 4h100 q59 0 64.5 25t-58.5 63q-20 11 -46.5 26.5t-39.5 22.5t-30 16.5t-26 14t-18.5 8.5t-17.5 6q-39 13 -68 -28l-51 -68q-4 -4 -16 -4h-225q-61 0 -166 18q-7 0 -4 -6l49 -102q2 -4 6 -4q46 12 119 12h252q4 0 4 -4q8 -358 123 -741q0 -7 -5 -7h-356q-84 0 -92 2q-6 0 -2 7 q52 130 71.5 179t48 138.5t46.5 177.5q2 11 5 20t8.5 17.5t8.5 12.5t12.5 14t12.5 14q20 20 4.5 41.5t-68.5 32.5q-59 12 -174 26q-8 0 -8 -8q-4 -144 -32.5 -293.5t-74.5 -280.5t-93 -235.5t-99 -197.5q-151 -272 -276 -383q-25 -22 -9 -47zM526 1946q0 51 37 88t88 37 q53 0 89 -36.5t36 -88.5t-36 -87.5t-89 -35.5q-51 0 -88 36t-37 87zM915 1948q0 51 36 87t87 36q54 0 90.5 -36t36.5 -87q0 -52 -36.5 -88.5t-90.5 -36.5q-51 0 -87 37t-36 88z" />
<glyph unicode="&#xc5;" horiz-adv-x="1712" d="M-25 -20q10 -13 28.5 -14t29.5 7q94 59 201.5 195.5t189.5 271.5q70 113 115 203q2 4 8 6q30 13 139 13h375q11 0 16 -11q59 -177 125 -309q76 -158 155 -268.5t136 -147.5q20 -12 31 -4l200 111q18 9 -4 22q-170 93 -338 408q-330 590 -290 1028q0 4 4 4h100 q59 0 64.5 25t-58.5 63q-20 11 -46.5 26.5t-39.5 22.5t-30 16.5t-26 14t-18.5 8.5t-17.5 6q-39 13 -68 -28l-51 -68q-4 -4 -16 -4h-225q-61 0 -166 18q-7 0 -4 -6l49 -102q2 -4 6 -4q46 12 119 12h252q4 0 4 -4q8 -358 123 -741q0 -7 -5 -7h-356q-84 0 -92 2q-6 0 -2 7 q52 130 71.5 179t48 138.5t46.5 177.5q2 11 5 20t8.5 17.5t8.5 12.5t12.5 14t12.5 14q20 20 4.5 41.5t-68.5 32.5q-59 12 -174 26q-8 0 -8 -8q-4 -144 -32.5 -293.5t-74.5 -280.5t-93 -235.5t-99 -197.5q-151 -272 -276 -383q-25 -22 -9 -47zM621 1946q0 93 67 147.5 t158 54.5q90 0 157.5 -54.5t67.5 -147.5t-67.5 -148t-157.5 -55q-91 0 -158 55t-67 148zM768 1946q0 -67 21.5 -107.5t56.5 -40.5t56.5 40.5t21.5 107.5t-21.5 107t-56.5 40t-56.5 -40t-21.5 -107z" />
<glyph unicode="&#xc6;" horiz-adv-x="2301" d="M-40 -7.5q2 13.5 13 21.5q52 44 132 152.5t155 243.5q52 93 99 197.5t93 235.5t74.5 280.5t32.5 293.5q0 8 8 8q115 -14 174 -26q53 -11 68.5 -32.5t-4.5 -41.5q-3 -4 -12.5 -14t-12.5 -14t-8.5 -12.5t-8.5 -17.5t-5 -20q-56 -268 -166 -497q-1 -4 4.5 -5.5t13.5 -1.5 h437q8 0 8 9v735q0 8 -8 8h-379q-73 0 -119 -12q-4 0 -4 2q-2 0 -2 2l-49 102q-3 6 4 6q105 -18 166 -18h1204l53 72q23 30 49 30q11 0 32 -6t67 -29.5t98 -60.5q58 -43 55 -63q0 -25 -61 -25h-889q-8 0 -8 -8v-621q0 -8 8 -8h493q60 0 114.5 6.5t84 13.5t70 18.5t53.5 14.5 q4 1 5 0t-1 -4l-82 -170q-1 -2 -6 -2q-3 1 -19 6.5t-35.5 10.5t-49.5 11t-74 9.5t-96 3.5h-457q-8 0 -8 -8v-678q0 -8 8 -8h594l53 72q23 30 49 30q11 0 32 -6t67 -29.5t98 -60.5q58 -43 55 -63q0 -25 -61 -25h-887q-8 0 -8 -8v-29q0 -35 -42 -55.5t-100 -20.5q-67 0 -67 76 v690q0 9 -8 9h-472q-27 0 -32 -11q-49 -98 -119 -211q-81 -134 -194 -277t-207 -202q-11 -8 -29.5 -7.5t-28.5 13.5q-7 12 -5 25.5z" />
<glyph unicode="&#xc7;" horiz-adv-x="1605" d="M45.5 717.5q-1.5 4.5 1.5 9.5l393 764q2 3 -4 4q-21 0 -121 -16q-5 0 -6 2l-53 108q-2 4 4 4q88 -16 232 -16h835q8 0 10 4l49 88q9 17 31 4l158 -110q6 -6 -2 -11q-36 -24 -94 -79q-344 -320 -373 -349q-14 -14 -25 -5q-6 8 0 20l211 350l-4 6h-608q-6 0 -10 -6 l-340 -655q-3 -6 0 -11l334 -735q3 -6 10 -6h526q11 0 19 8l47 64q28 39 69 26q48 -14 124 -60.5t120 -90.5q10 -11 7.5 -20t-13.5 -9h-621q-7 0 -10 -10l-41 -109q-3 -6 4 -6h213l19 25q20 27 45 12l147 -92q34 -24 4 -47q-8 -7 -12 -16.5t-4 -13.5v-22v-26q0 -42 -19 -76 t-52.5 -56t-73.5 -37.5t-89 -23t-92 -11t-88 -3.5q-154 0 -223 78q-14 17 -14 23t12 14q21 13 41 36.5t31 40.5t12 17q16 0 16 -23v-41q0 -12 3.5 -21.5t11 -15.5t15 -11t20.5 -8t22.5 -4.5t25 -2t23.5 -0.5h24h21q92 0 133 18t41 60v147h-250l-2 -2q-41 -41 -125 -22 q-69 15 -47 65l64 154q2 10 -6 10h-258q-46 0 -50 8q-3 5 0 15q9 37 -30 118l-254 543q-11 19 -25.5 24t-38.5 5h-43q-6 0 -7.5 4.5z" />
<glyph unicode="&#xc8;" horiz-adv-x="1611" d="M129 1673q-3 6 4 6q27 0 135.5 -51t118.5 -51h784q5 0 7 2l53 70q23 30 49 30q49 0 227 -129q31 -22 31 -37q0 -18 -45 -18h-1102q-8 0 -8 -8v-621q0 -8 8 -8h617q60 0 114.5 6.5t84 13.5t69 18.5t53.5 14.5q4 1 5 0t-1 -4l-82 -170q-1 -2 -6 -2q-3 1 -19 6.5t-35.5 10.5 t-49.5 11t-74 9.5t-96 3.5h-580q-8 0 -8 -8v-678q0 -8 8 -8h785l53 72q23 30 49 30q11 0 32 -6t67 -29.5t98 -60.5q58 -43 55 -63q0 -25 -62 -25h-1077q-8 0 -8 -8q0 -34 -42 -54t-99 -20q-68 0 -68 76v1253q0 277 -45 426zM496 2150q4 8 45 2q110 -16 220 -69t171 -129 q38 -46 49 -102.5t-18 -84.5q-21 -17 -46.5 -18.5t-59.5 19.5t-69 65q-10 13 -40.5 52.5t-43 54.5t-39.5 46.5t-46 50t-46 41.5t-55 42q-27 17 -22 30z" />
<glyph unicode="&#xc9;" horiz-adv-x="1611" d="M129 1673q-3 6 4 6q27 0 135.5 -51t118.5 -51h784q5 0 7 2l53 70q23 30 49 30q49 0 227 -129q31 -22 31 -37q0 -18 -45 -18h-1102q-8 0 -8 -8v-621q0 -8 8 -8h617q60 0 114.5 6.5t84 13.5t69 18.5t53.5 14.5q4 1 5 0t-1 -4l-82 -170q-1 -2 -6 -2q-3 1 -19 6.5t-35.5 10.5 t-49.5 11t-74 9.5t-96 3.5h-580q-8 0 -8 -8v-678q0 -8 8 -8h785l53 72q23 30 49 30q11 0 32 -6t67 -29.5t98 -60.5q58 -43 55 -63q0 -25 -62 -25h-1077q-8 0 -8 -8q0 -34 -42 -54t-99 -20q-68 0 -68 76v1253q0 277 -45 426zM682 1759q-5 13 23 31q91 61 178.5 157.5 t124.5 182.5q9 20 26 6q3 -2 29.5 -21t48 -37t31.5 -34q23 -38 -4 -68q-63 -77 -184.5 -140t-227.5 -79q-41 -6 -45 2z" />
<glyph unicode="&#xca;" horiz-adv-x="1611" d="M129 1673q-3 6 4 6q27 0 135.5 -51t118.5 -51h784q5 0 7 2l53 70q23 30 49 30q49 0 227 -129q31 -22 31 -37q0 -18 -45 -18h-1102q-8 0 -8 -8v-621q0 -8 8 -8h617q60 0 114.5 6.5t84 13.5t69 18.5t53.5 14.5q4 1 5 0t-1 -4l-82 -170q-1 -2 -6 -2q-3 1 -19 6.5t-35.5 10.5 t-49.5 11t-74 9.5t-96 3.5h-580q-8 0 -8 -8v-678q0 -8 8 -8h785l53 72q23 30 49 30q11 0 32 -6t67 -29.5t98 -60.5q58 -43 55 -63q0 -25 -62 -25h-1077q-8 0 -8 -8q0 -34 -42 -54t-99 -20q-68 0 -68 76v1253q0 277 -45 426zM535 1735v170q0 6 6 12l309 248q4 3 7 1t3 -7 q0 -26 13 -46t49 -51l137 -125q55 -46 104 -41q4 2 5.5 0.5t2 -3t0.5 -5.5v-151q0 -18 -16 -2l-293 252q-6 6 -14 -2l-307 -254q-6 -6 -6 4z" />
<glyph unicode="&#xcb;" horiz-adv-x="1611" d="M129 1673q45 -149 45 -426v-1253q0 -76 68 -76q57 0 99 20t42 54q0 8 8 8h1077q62 0 62 25q3 20 -55 63q-52 37 -98 60.5t-67 29.5t-32 6q-26 0 -49 -30l-53 -72h-785q-8 0 -8 8v678q0 8 8 8h580q52 0 96 -3.5t74 -9.5t49.5 -11t35.5 -10.5t19 -6.5q5 0 6 2l82 170 q2 3 1 4t-5 0q-14 -3 -53.5 -14.5t-69 -18.5t-84 -13.5t-114.5 -6.5h-617q-8 0 -8 8v621q0 8 8 8h1102q45 0 45 18q0 15 -31 37q-178 129 -227 129q-26 0 -49 -30l-53 -70q-2 -2 -7 -2h-784q-10 0 -118.5 51t-135.5 51q-7 0 -4 -6zM526 1946q0 51 37 88t88 37q53 0 89 -36.5 t36 -88.5t-36 -87.5t-89 -35.5q-51 0 -88 36t-37 87zM915 1948q0 51 36 87t87 36q54 0 90.5 -36t36.5 -87q0 -52 -36.5 -88.5t-90.5 -36.5q-51 0 -87 37t-36 88z" />
<glyph unicode="&#xcc;" horiz-adv-x="956" d="M36 135q1 1 5 0q12 -3 50.5 -15t64.5 -18.5t78 -13t112 -6.5q6 0 6 6v1403q0 4 -4 4h-4q-52 0 -95 -6t-63 -12.5t-38.5 -14t-22.5 -8.5q-5 0 -6 2l-82 170q-2 3 -1 4t5 0q5 -1 52 -15t72 -19.5t81 -12t116 -6.5h187q16 0 20 6l49 66q30 42 70 26q47 -20 150 -92 q83 -58 50 -80q-13 -8 -42 -8h-281q-4 0 -4 -4v-1403q0 -6 6 -6h11q10 0 16 8l29 45q24 39 53.5 43t66 -18t103.5 -78q99 -82 -12 -82h-490q-52 0 -95 -6t-63 -12.5t-38.5 -14t-22.5 -8.5q-5 0 -6 2l-82 170q-2 3 -1 4zM61 2150q4 8 45 2q110 -16 220.5 -69t171.5 -129 q38 -46 48.5 -102.5t-18.5 -84.5q-21 -17 -46 -18.5t-59 19.5t-69 65q-10 13 -40.5 52.5t-43 54.5t-39.5 46.5t-46 50t-46 41.5t-55 42q-28 18 -23 30z" />
<glyph unicode="&#xcd;" horiz-adv-x="956" d="M36 135q1 1 5 0q12 -3 50.5 -15t64.5 -18.5t78 -13t112 -6.5q6 0 6 6v1403q0 4 -4 4h-4q-52 0 -95 -6t-63 -12.5t-38.5 -14t-22.5 -8.5q-5 0 -6 2l-82 170q-2 3 -1 4t5 0q5 -1 52 -15t72 -19.5t81 -12t116 -6.5h187q16 0 20 6l49 66q30 42 70 26q47 -20 150 -92 q83 -58 50 -80q-13 -8 -42 -8h-281q-4 0 -4 -4v-1403q0 -6 6 -6h11q10 0 16 8l29 45q24 39 53.5 43t66 -18t103.5 -78q99 -82 -12 -82h-490q-52 0 -95 -6t-63 -12.5t-38.5 -14t-22.5 -8.5q-5 0 -6 2l-82 170q-2 3 -1 4zM313 1759q-5 13 23 31q91 61 178.5 157.5t124.5 182.5 q9 21 27 6q2 -2 29 -21t48 -37t31 -34q23 -38 -4 -68q-63 -77 -184.5 -140t-227.5 -79q-41 -6 -45 2z" />
<glyph unicode="&#xce;" horiz-adv-x="956" d="M36 135q1 1 5 0q12 -3 50.5 -15t64.5 -18.5t78 -13t112 -6.5q6 0 6 6v1403q0 4 -4 4h-4q-52 0 -95 -6t-63 -12.5t-38.5 -14t-22.5 -8.5q-5 0 -6 2l-82 170q-2 3 -1 4t5 0q5 -1 52 -15t72 -19.5t81 -12t116 -6.5h187q16 0 20 6l49 66q30 42 70 26q47 -20 150 -92 q83 -58 50 -80q-13 -8 -42 -8h-281q-4 0 -4 -4v-1403q0 -6 6 -6h11q10 0 16 8l29 45q24 39 53.5 43t66 -18t103.5 -78q99 -82 -12 -82h-490q-52 0 -95 -6t-63 -12.5t-38.5 -14t-22.5 -8.5q-5 0 -6 2l-82 170q-2 3 -1 4zM143 1737v170q0 5 7 12l309 248q5 3 7.5 1t2.5 -7 q0 -26 12.5 -46t48.5 -51l138 -125q55 -46 104 -41q4 2 5.5 0.5t2 -3t0.5 -5.5v-151q0 -18 -16 -2l-293 252q-6 6 -14 -2l-307 -254q-7 -7 -7 4z" />
<glyph unicode="&#xcf;" horiz-adv-x="956" d="M36 135q1 1 5 0q12 -3 50.5 -15t64.5 -18.5t78 -13t112 -6.5q6 0 6 6v1403q0 4 -4 4h-4q-52 0 -95 -6t-63 -12.5t-38.5 -14t-22.5 -8.5q-5 0 -6 2l-82 170q-2 3 -1 4t5 0q5 -1 52 -15t72 -19.5t81 -12t116 -6.5h187q16 0 20 6l49 66q30 42 70 26q47 -20 150 -92 q83 -58 50 -80q-13 -8 -42 -8h-281q-4 0 -4 -4v-1403q0 -6 6 -6h11q10 0 16 8l29 45q24 39 53.5 43t66 -18t103.5 -78q99 -82 -12 -82h-490q-52 0 -95 -6t-63 -12.5t-38.5 -14t-22.5 -8.5q-5 0 -6 2l-82 170q-2 3 -1 4zM141 1948q0 51 37 88t88 37q53 0 89 -36.5t36 -88.5 t-35.5 -87.5t-89.5 -35.5q-51 0 -88 36t-37 87zM530 1950q0 51 36 87t87 36q54 0 90.5 -36t36.5 -87q0 -52 -37 -88.5t-90 -36.5q-51 0 -87 37t-36 88z" />
<glyph unicode="&#xd0;" horiz-adv-x="1800" d="M-25 911q-3 7 5 7q111 -19 165 -19h50q2 0 4 2v590q2 3 -4 4q-21 0 -121 -16q-5 0 -6 2l-54 108q-2 4 4 4q88 -16 232 -16h844l36 80q15 34 46 12l161 -117q37 -27 4 -47q-24 -13 -34 -30l299 -521q19 -37 86 -30q20 2 24.5 -4.5t-6.5 -32.5l-397 -737q-29 -56 -8 -127 q3 -11 -0.5 -16t-8.5 -6t-14 -1h-1124q-6 0 -8 6t4 14q45 53 45 164v629l-4 4h-45q-73 0 -119 -12q-4 0 -4 2q-2 0 -2 2zM408 92q0 -10 8 -10h647l383 741l-379 666q-4 6 -10 6h-641q-8 0 -8 -6v-588l2 -2h139l35 53q15 24 29.5 35t29.5 13.5t38.5 -10t48 -30t65.5 -51.5 q35 -31 45.5 -52t-1.5 -30.5t-44 -9.5h-383q-4 0 -4 -4v-721z" />
<glyph unicode="&#xd1;" horiz-adv-x="1710" d="M-23 63q0 19 23 19h193q6 0 6 6v1368q0 13 -11 17l-61 24q-16 6 -17 18.5t11 22.5l127 139q3 3 6 0l1067 -1509q2 -3 5 -5t5 -1t2 6v1511q73 0 187 -28q132 -34 75 -76q-53 -41 -53 -74v-1413q0 -25 14 -45.5t37 -26.5q11 -3 2 -12q-34 -32 -80 -59t-75 -27 q-40 0 -88 38.5t-82 82.5l-854 1141q-8 12 -8 -4v-1094q0 -18 -10 -34t-42 -48q-40 -40 -96 -72q-25 -16 -41 0q-35 41 -78.5 62.5t-142.5 50.5q-21 6 -21 22zM555 1821v168q0 6 6 12l60 47q32 26 66 37.5t71 5t69 -34.5l88 -82q21 -19 39.5 -27t46 -3t58.5 28l131 101 q6 6 6 -5v-167q0 -7 -6 -13l-49 -43q-32 -28 -69 -39t-80.5 -0.5t-82.5 45.5l-75 70q-33 29 -64 28.5t-68 -28.5l-141 -104q-6 -6 -6 4z" />
<glyph unicode="&#xd2;" horiz-adv-x="1937" d="M47.5 697q-4.5 7 1.5 16l377 782v6l-53 80q-2 4 4 4q40 -8 69 -8h832q9 0 12 8l31 72q14 33 45 12l186 -135q2 -1 3.5 -3.5t-1 -6.5t-8.5 -8q-54 -30 -37 -66l263 -506q9 -18 30.5 -24.5t37.5 -5.5t24 4q12 4 15 -1.5t-1 -11.5l-375 -755q-20 -39 -12 -93q4 -34 -7 -45.5 t-44 -11.5h-951q-24 0 -30 14l-295 678q-5 11 -14 16.5t-18 6.5t-21 -2t-19.5 -6t-16.5 -7l-9 -4q-14 -6 -18.5 1zM328 823l256 -606q32 -75 55.5 -105t50.5 -30h582q4 0 4 4q0 20 12 47l326 686q2 4 0 8l-281 537q-43 83 -61 107t-43 24h-596q-4 0 -4 -4q0 -18 -13 -47 l-288 -613q-2 -4 0 -8zM567 2150q4 8 45 2q110 -16 220.5 -69t171.5 -129q38 -46 48.5 -102.5t-18.5 -84.5q-21 -17 -46 -18.5t-59 19.5t-69 65q-10 13 -40.5 52.5t-43 54.5t-39.5 46.5t-46 50t-46 41.5t-55 42q-28 18 -23 30z" />
<glyph unicode="&#xd3;" horiz-adv-x="1937" d="M47.5 697q-4.5 7 1.5 16l377 782v6l-53 80q-2 4 4 4q40 -8 69 -8h832q9 0 12 8l31 72q14 33 45 12l186 -135q2 -1 3.5 -3.5t-1 -6.5t-8.5 -8q-54 -30 -37 -66l263 -506q9 -18 30.5 -24.5t37.5 -5.5t24 4q12 4 15 -1.5t-1 -11.5l-375 -755q-20 -39 -12 -93q4 -34 -7 -45.5 t-44 -11.5h-951q-24 0 -30 14l-295 678q-5 11 -14 16.5t-18 6.5t-21 -2t-19.5 -6t-16.5 -7l-9 -4q-14 -6 -18.5 1zM328 823l256 -606q32 -75 55.5 -105t50.5 -30h582q4 0 4 4q0 20 12 47l326 686q2 4 0 8l-281 537q-43 83 -61 107t-43 24h-596q-4 0 -4 -4q0 -18 -13 -47 l-288 -613q-2 -4 0 -8zM784 1759q-5 13 23 31q91 61 178.5 157.5t124.5 182.5q9 21 27 6q2 -2 29 -21t48 -37t31 -34q23 -38 -4 -68q-63 -77 -184.5 -140t-227.5 -79q-41 -6 -45 2z" />
<glyph unicode="&#xd4;" horiz-adv-x="1937" d="M47.5 697q-4.5 7 1.5 16l377 782v6l-53 80q-2 4 4 4q40 -8 69 -8h832q9 0 12 8l31 72q14 33 45 12l186 -135q2 -1 3.5 -3.5t-1 -6.5t-8.5 -8q-54 -30 -37 -66l263 -506q9 -18 30.5 -24.5t37.5 -5.5t24 4q12 4 15 -1.5t-1 -11.5l-375 -755q-20 -39 -12 -93q4 -34 -7 -45.5 t-44 -11.5h-951q-24 0 -30 14l-295 678q-5 11 -14 16.5t-18 6.5t-21 -2t-19.5 -6t-16.5 -7l-9 -4q-14 -6 -18.5 1zM328 823l256 -606q32 -75 55.5 -105t50.5 -30h582q4 0 4 4q0 20 12 47l326 686q2 4 0 8l-281 537q-43 83 -61 107t-43 24h-596q-4 0 -4 -4q0 -18 -13 -47 l-288 -613q-2 -4 0 -8zM631 1737v170q0 6 6 12l309 248q4 3 7 1t3 -7q0 -26 13 -46t49 -51l137 -125q55 -47 105 -41q4 2 5.5 0.5t2 -3t0.5 -5.5v-151q0 -19 -17 -2l-293 252q-6 6 -14 -2l-307 -254q-6 -6 -6 4z" />
<glyph unicode="&#xd5;" horiz-adv-x="1937" d="M47.5 697q-4.5 7 1.5 16l377 782v6l-53 80q-2 4 4 4q40 -8 69 -8h832q9 0 12 8l31 72q14 33 45 12l186 -135q2 -1 3.5 -3.5t-1 -6.5t-8.5 -8q-54 -30 -37 -66l263 -506q9 -18 30.5 -24.5t37.5 -5.5t24 4q12 4 15 -1.5t-1 -11.5l-375 -755q-20 -39 -12 -93q4 -34 -7 -45.5 t-44 -11.5h-951q-24 0 -30 14l-295 678q-5 11 -14 16.5t-18 6.5t-21 -2t-19.5 -6t-16.5 -7l-9 -4q-14 -6 -18.5 1zM328 823l256 -606q32 -75 55.5 -105t50.5 -30h582q4 0 4 4q0 20 12 47l326 686q2 4 0 8l-281 537q-43 83 -61 107t-43 24h-596q-4 0 -4 -4q0 -18 -13 -47 l-288 -613q-2 -4 0 -8zM639 1823v168q0 6 6 12l60 47q32 26 66 37.5t71 5t69 -34.5l88 -82q21 -19 39.5 -27t46 -3t58.5 28l131 101q6 6 6 -4v-168q0 -7 -6 -13l-49 -43q-32 -28 -69 -39t-80.5 -0.5t-82.5 45.5l-75 70q-33 29 -64 28.5t-68 -28.5l-141 -104q-6 -6 -6 4z" />
<glyph unicode="&#xd6;" horiz-adv-x="1937" d="M47.5 697q4.5 -7 18.5 -1l9 4q9 4 16.5 7t19.5 6t21 2t18 -6.5t14 -16.5l295 -678q6 -14 30 -14h951q33 0 44 11.5t7 45.5q-8 54 12 93l375 755q4 6 1 11.5t-15 1.5q-8 -3 -24 -4t-37.5 5.5t-30.5 24.5l-263 506q-17 36 37 66q6 4 8.5 8t1 6.5t-3.5 3.5l-186 135 q-31 21 -45 -12l-31 -72q-3 -8 -12 -8h-832q-29 0 -69 8q-6 0 -4 -4l53 -80v-6l-377 -782q-6 -9 -1.5 -16zM328 823q-2 4 0 8l288 613q13 29 13 47l4 4h596q25 0 43 -24t61 -107l281 -537q2 -4 0 -8l-326 -686q-12 -27 -12 -47l-4 -4h-582q-27 0 -50.5 30t-55.5 105z M633 1942q0 51 37 87.5t88 36.5q53 0 89 -36t36 -88t-35.5 -87.5t-89.5 -35.5q-51 0 -88 36t-37 87zM1022 1944q0 51 36 86.5t87 35.5q54 0 90.5 -35.5t36.5 -86.5q0 -52 -37 -88.5t-90 -36.5q-51 0 -87 37t-36 88z" />
<glyph unicode="&#xd7;" horiz-adv-x="1161" d="M135 1010q-3 3 2 6q14 12 31.5 18t58.5 10q78 7 105 -20l248 -289l249 289q27 27 105 20q41 -4 58.5 -10t31.5 -18q5 -3 2 -6l-344 -394l311 -360q24 -25 25 -57.5t-25 -53.5q-62 -47 -121 25l-292 332l-291 -332q-59 -72 -121 -25q-26 21 -25 53.5t25 57.5l311 360z" />
<glyph unicode="&#xd8;" horiz-adv-x="1937" d="M47.5 697q-4.5 7 1.5 16l377 782v6l-53 80q-2 4 4 4q40 -8 69 -8h805l78 172q16 35 41 27q33 -9 21 -41l-66 -158h57q53 0 68 -29l322 -604q9 -18 30.5 -24.5t37.5 -5.5t24 4q12 4 15 -1.5t-1 -11.5l-375 -755q-20 -39 -12 -93q4 -34 -7 -45.5t-44 -11.5h-760l-62 -150 q-18 -51 -79 -36q-32 6 -44.5 22.5t-0.5 42.5l53 121h-58q-24 0 -30 14l-295 678q-5 11 -14 16.5t-18 6.5t-21 -2t-19.5 -6t-16.5 -7l-9 -4q-14 -6 -18.5 1zM328 823l256 -606q12 -34 30 -67l600 1345h-581q-4 0 -4 -4q0 -18 -13 -47l-288 -613q-2 -4 0 -8zM713 82h559 q4 0 4 4q0 20 12 47l326 686q2 4 0 8l-281 537q-47 84 -55 96z" />
<glyph unicode="&#xd9;" horiz-adv-x="1718" d="M113 1671q-3 6 4 6q61 0 156.5 -15.5t146.5 -37.5q31 -13 31 -31q0 -13 -31 -32q-39 -24 -39 -78v-1016q0 -62 11.5 -119.5t39 -113t68.5 -96.5t104 -66t141 -25q101 0 194 26t155 61.5t114.5 81.5t78.5 78.5t42 59.5q23 38 23 68v1253q0 4 4 4q75 -6 174 -37 q61 -19 79 -37t-3 -40q-45 -42 -45 -72l-2 -1423q0 -96 -89 -105q-47 -5 -83.5 17.5t-36.5 64.5v201q0 3 -1 4.5t-3 -0.5q-7 -6 -30.5 -31t-42.5 -44t-54.5 -48.5t-69 -51.5t-84 -46.5t-102.5 -40.5t-120 -26.5t-141 -10.5q-235 0 -381.5 117.5t-146.5 322.5v684 q0 393 -61 594zM590 2150q4 8 45 2q110 -16 220 -69t171 -129q38 -46 49 -102.5t-18 -84.5q-21 -17 -46 -18.5t-59 19.5t-69 65q-8 10 -41 52t-43.5 55t-39 46.5t-46.5 50.5t-45.5 40.5t-55.5 42.5q-27 17 -22 30z" />
<glyph unicode="&#xda;" horiz-adv-x="1718" d="M113 1671q-3 6 4 6q61 0 156.5 -15.5t146.5 -37.5q31 -13 31 -31q0 -13 -31 -32q-39 -24 -39 -78v-1016q0 -62 11.5 -119.5t39 -113t68.5 -96.5t104 -66t141 -25q101 0 194 26t155 61.5t114.5 81.5t78.5 78.5t42 59.5q23 38 23 68v1253q0 4 4 4q75 -6 174 -37 q61 -19 79 -37t-3 -40q-45 -42 -45 -72l-2 -1423q0 -96 -89 -105q-47 -5 -83.5 17.5t-36.5 64.5v201q0 3 -1 4.5t-3 -0.5q-7 -6 -30.5 -31t-42.5 -44t-54.5 -48.5t-69 -51.5t-84 -46.5t-102.5 -40.5t-120 -26.5t-141 -10.5q-235 0 -381.5 117.5t-146.5 322.5v684 q0 393 -61 594zM664 1759q-6 14 22 31q91 61 178.5 157.5t124.5 182.5q9 21 27 6q2 -2 29 -21t48 -37t31 -34q23 -38 -4 -68q-63 -77 -184 -140.5t-227 -78.5q-41 -6 -45 2z" />
<glyph unicode="&#xdb;" horiz-adv-x="1718" d="M113 1671q-3 6 4 6q61 0 156.5 -15.5t146.5 -37.5q31 -13 31 -31q0 -13 -31 -32q-39 -24 -39 -78v-1016q0 -62 11.5 -119.5t39 -113t68.5 -96.5t104 -66t141 -25q101 0 194 26t155 61.5t114.5 81.5t78.5 78.5t42 59.5q23 38 23 68v1253q0 4 4 4q75 -6 174 -37 q61 -19 79 -37t-3 -40q-45 -42 -45 -72l-2 -1423q0 -96 -89 -105q-47 -5 -83.5 17.5t-36.5 64.5v201q0 3 -1 4.5t-3 -0.5q-7 -6 -30.5 -31t-42.5 -44t-54.5 -48.5t-69 -51.5t-84 -46.5t-102.5 -40.5t-120 -26.5t-141 -10.5q-235 0 -381.5 117.5t-146.5 322.5v684 q0 393 -61 594zM559 1737v170q0 6 6 12l309 248q4 3 7.5 1t3.5 -7q0 -26 12.5 -46t48.5 -51l137 -125q55 -47 105 -41q4 2 5.5 0.5t2 -3t0.5 -5.5v-151q0 -18 -16 -2l-293 252q-7 7 -15 -2l-307 -254q-6 -6 -6 4z" />
<glyph unicode="&#xdc;" horiz-adv-x="1718" d="M113 1671q61 -201 61 -594v-684q0 -205 146.5 -322.5t381.5 -117.5q73 0 141 10.5t120 26.5t102.5 40.5t84 46.5t69 51.5t54.5 48.5t42.5 44t30.5 31q2 2 3 0.5t1 -4.5v-201q0 -42 36.5 -64.5t83.5 -17.5q89 9 89 105l2 1423q0 30 45 72q21 22 3 40t-79 37 q-99 31 -174 37q-4 0 -4 -4v-1253q0 -30 -23 -68q-16 -27 -42 -59.5t-78.5 -78.5t-114.5 -81.5t-155 -61.5t-194 -26q-78 0 -141 25t-104 66t-68.5 96.5t-39 113t-11.5 119.5v1016q0 54 39 78q31 19 31 32q0 18 -31 31q-51 22 -146.5 37.5t-156.5 15.5q-7 0 -4 -6zM571 1942 q0 51 37 87.5t88 36.5q53 0 89 -36t36 -88t-35.5 -87.5t-89.5 -35.5q-51 0 -88 36t-37 87zM961 1944q0 51 35.5 86.5t86.5 35.5q54 0 90.5 -35.5t36.5 -86.5q0 -52 -37 -88.5t-90 -36.5q-51 0 -86.5 37t-35.5 88z" />
<glyph unicode="&#xdd;" horiz-adv-x="1439" d="M0 1546q-6 6 2 10l188 115q25 15 38.5 8.5t15.5 -26.5q1 -9 4 -34t5.5 -41t7.5 -35.5t11 -31.5l443 -682q2 -2 4 0l518 844q5 11 12 4l183 -114q11 -7 11.5 -16t-5.5 -13q-4 -4 -46.5 -39t-68.5 -70l-481 -663q-27 -34 -27 -96v-621q0 -17 -10 -27q-53 -53 -115 -53 q-38 0 -61 22t-23 58v576q0 60 -11 96t-38 74zM537 1759q-6 14 22 31q91 61 178.5 157.5t124.5 182.5q9 21 27 6q2 -2 29 -21t48 -37t31 -34q23 -38 -4 -68q-63 -77 -184 -140.5t-227 -78.5q-41 -6 -45 2z" />
<glyph unicode="&#xde;" horiz-adv-x="1406" d="M160 33v1640q0 6 4 6q116 0 244 -55q30 -13 30 -31q0 -17 -30 -32q-39 -17 -39 -78v-228q0 -6 6 -6h680q15 0 20 13l33 69q14 33 45 12l162 -116q37 -27 4 -47q-39 -23 -39 -60v-491q0 -160 -111 -268.5t-272 -108.5q-354 0 -522 256q-6 6 -6 -2v-473q0 -16 -11 -27 q-53 -53 -114 -53q-38 0 -61 22t-23 58zM369 733q0 -88 45 -158.5t116 -111.5t151.5 -62.5t160.5 -21.5q112 0 170.5 68t58.5 178v536q0 6 -6 6h-690q-6 0 -6 -6v-428z" />
<glyph unicode="&#xdf;" horiz-adv-x="1705" d="M174 45v1602q0 10 8 10q42 0 191 -76q12 -4 14 -4h651l29 84q11 32 41 8l182 -151q31 -28 -2 -43q-60 -24 -82 -52l-250 -381q-3 -5 -1.5 -11t6.5 -9l253 -180l37 71q4 11 16.5 14.5t16.5 -1.5q18 -8 88 -54q120 -83 76 -100q-47 -15 -47 -45v-717q0 -35 -34 -60.5 t-81 -31.5q-43 -6 -68 14.5t-26 63.5q0 4 -4 4h-410q-17 0 -26 -4q-8 -5 -21.5 -14.5t-19 -12.5t-16 -4.5t-21.5 4.5t-25 19l-106 86q-2 2 -2 5t4 3h647v461v32v32t-0.5 27.5t-1.5 27.5t-3 23.5t-5.5 23t-8 18.5t-11.5 17.5t-15 13.5l-248 176q-9 6 -18 -6l-174 -258 q-5 -6 -14 -8t-15 2q-12 9 2 28l328 803h-625v-1448q0 -43 -45.5 -68.5t-95.5 -25.5q-36 0 -52 26t-16 66z" />
<glyph unicode="&#xe0;" d="M37 793q-14 19 24 57q86 78 150 183t106 274q1 6 13 6q98 -17 190 -41q12 -3 2 -8q-31 -19 -51 -58l-16 -32q-2 -7 4 -7h610q5 0 8 7l41 67q11 22 33 12q23 -10 88 -53q120 -83 76 -100q-47 -15 -47 -45v-793q0 -188 32 -266q16 -43 -30 -43q-111 0 -211 119 q-10 13 -33 4q-50 -23 -79.5 -34.5t-113.5 -26.5t-186 -15h-301q-8 0 -8 -8q0 -34 -42 -54t-99 -20q-68 0 -68 76v729q0 10 8 10q42 0 191 -76q12 -4 16 -4h709q8 0 8 9v415q0 8 -8 8h-637q-7 0 -13 -6q-84 -109 -148.5 -169t-150.5 -111q-49 -29 -67 -6zM338 121 q0 -21 38 -30t83 -9h235q153 0 259 50.5t106 125.5v305q0 8 -8 8h-705q-8 0 -8 -8v-442zM430 1780q4 8 45 2q109 -16 219 -69.5t172 -129.5q38 -46 49 -102t-18 -84q-21 -17 -46 -18.5t-59 19t-69 64.5q-10 13 -40.5 52.5t-43 54.5t-39.5 46.5t-46 50t-46 41.5t-55 42 q-28 18 -23 31z" />
<glyph unicode="&#xe1;" d="M37 793q-14 19 24 57q86 78 150 183t106 274q1 6 13 6q98 -17 190 -41q12 -3 2 -8q-31 -19 -51 -58l-16 -32q-2 -7 4 -7h610q5 0 8 7l41 67q11 22 33 12q23 -10 88 -53q120 -83 76 -100q-47 -15 -47 -45v-793q0 -188 32 -266q16 -43 -30 -43q-111 0 -211 119 q-10 13 -33 4q-50 -23 -79.5 -34.5t-113.5 -26.5t-186 -15h-301q-8 0 -8 -8q0 -34 -42 -54t-99 -20q-68 0 -68 76v729q0 10 8 10q42 0 191 -76q12 -4 16 -4h709q8 0 8 9v415q0 8 -8 8h-637q-7 0 -13 -6q-84 -109 -148.5 -169t-150.5 -111q-49 -29 -67 -6zM338 121 q0 -21 38 -30t83 -9h235q153 0 259 50.5t106 125.5v305q0 8 -8 8h-705q-8 0 -8 -8v-442zM588 1389q-5 13 22 30q91 61 178.5 157.5t124.5 182.5q9 21 27 6q3 -2 29.5 -21t48 -37t31.5 -34q22 -36 -5 -67q-63 -78 -184 -141.5t-227 -78.5q-41 -6 -45 3z" />
<glyph unicode="&#xe2;" d="M37 793q-14 19 24 57q86 78 150 183t106 274q1 6 13 6q98 -17 190 -41q12 -3 2 -8q-31 -19 -51 -58l-16 -32q-2 -7 4 -7h610q5 0 8 7l41 67q11 22 33 12q23 -10 88 -53q120 -83 76 -100q-47 -15 -47 -45v-793q0 -188 32 -266q16 -43 -30 -43q-111 0 -211 119 q-10 13 -33 4q-50 -23 -79.5 -34.5t-113.5 -26.5t-186 -15h-301q-8 0 -8 -8q0 -34 -42 -54t-99 -20q-68 0 -68 76v729q0 10 8 10q42 0 191 -76q12 -4 16 -4h709q8 0 8 9v415q0 8 -8 8h-637q-7 0 -13 -6q-84 -109 -148.5 -169t-150.5 -111q-49 -29 -67 -6zM338 121 q0 -21 38 -30t83 -9h235q153 0 259 50.5t106 125.5v305q0 8 -8 8h-705q-8 0 -8 -8v-442zM471 1364v170q0 6 6 12l309 248q4 3 7.5 1t3.5 -7q0 -26 12.5 -45.5t48.5 -50.5l137 -125q55 -47 105 -41q4 2 5.5 0.5t2 -3t0.5 -5.5v-152q0 -18 -16 -2l-293 252q-7 6 -15 -2 l-307 -254q-6 -6 -6 4z" />
<glyph unicode="&#xe3;" d="M37 793q-14 19 24 57q86 78 150 183t106 274q1 6 13 6q98 -17 190 -41q12 -3 2 -8q-31 -19 -51 -58l-16 -32q-2 -7 4 -7h610q5 0 8 7l41 67q11 22 33 12q23 -10 88 -53q120 -83 76 -100q-47 -15 -47 -45v-793q0 -188 32 -266q16 -43 -30 -43q-111 0 -211 119 q-10 13 -33 4q-50 -23 -79.5 -34.5t-113.5 -26.5t-186 -15h-301q-8 0 -8 -8q0 -34 -42 -54t-99 -20q-68 0 -68 76v729q0 10 8 10q42 0 191 -76q12 -4 16 -4h709q8 0 8 9v415q0 8 -8 8h-637q-7 0 -13 -6q-84 -109 -148.5 -169t-150.5 -111q-49 -29 -67 -6zM338 121 q0 -21 38 -30t83 -9h235q153 0 259 50.5t106 125.5v305q0 8 -8 8h-705q-8 0 -8 -8v-442zM440 1397v168q0 6 6 12l60 47q32 26 66 37.5t71.5 5t69.5 -34.5l88 -82q21 -19 39 -27t45.5 -3t58.5 28l131 101q6 6 6 -4v-168q0 -7 -6 -13l-49 -43q-32 -28 -68.5 -39t-80 -0.5 t-82.5 45.5l-76 70q-33 29 -63.5 28.5t-67.5 -28.5l-142 -104q-6 -6 -6 4z" />
<glyph unicode="&#xe4;" d="M37 793q-14 19 24 57q86 78 150 183t106 274q1 6 13 6q98 -17 190 -41q12 -3 2 -8q-31 -19 -51 -58l-16 -32q-2 -7 4 -7h610q5 0 8 7l41 67q11 22 33 12q23 -10 88 -53q120 -83 76 -100q-47 -15 -47 -45v-793q0 -188 32 -266q16 -43 -30 -43q-111 0 -211 119 q-10 13 -33 4q-50 -23 -79.5 -34.5t-113.5 -26.5t-186 -15h-301q-8 0 -8 -8q0 -34 -42 -54t-99 -20q-68 0 -68 76v729q0 10 8 10q42 0 191 -76q12 -4 16 -4h709q8 0 8 9v415q0 8 -8 8h-637q-7 0 -13 -6q-84 -109 -148.5 -169t-150.5 -111q-49 -29 -67 -6zM338 121 q0 -21 38 -30t83 -9h235q153 0 259 50.5t106 125.5v305q0 8 -8 8h-705q-8 0 -8 -8v-442zM422 1573q0 51 37 88t88 37q53 0 89 -36.5t36 -88.5q0 -51 -36 -87t-89 -36q-51 0 -88 36t-37 87zM811 1575q0 51 36 87t87 36q54 0 90.5 -36t36.5 -87t-36.5 -88t-90.5 -37 q-51 0 -87 37t-36 88z" />
<glyph unicode="&#xe5;" d="M37 793q-14 19 24 57q86 78 150 183t106 274q1 6 13 6q98 -17 190 -41q12 -3 2 -8q-31 -19 -51 -58l-16 -32q-2 -7 4 -7h610q5 0 8 7l41 67q11 22 33 12q23 -10 88 -53q120 -83 76 -100q-47 -15 -47 -45v-793q0 -188 32 -266q16 -43 -30 -43q-111 0 -211 119 q-10 13 -33 4q-50 -23 -79.5 -34.5t-113.5 -26.5t-186 -15h-301q-8 0 -8 -8q0 -34 -42 -54t-99 -20q-68 0 -68 76v729q0 10 8 10q42 0 191 -76q12 -4 16 -4h709q8 0 8 9v415q0 8 -8 8h-637q-7 0 -13 -6q-84 -109 -148.5 -169t-150.5 -111q-49 -29 -67 -6zM338 121 q0 -21 38 -30t83 -9h235q153 0 259 50.5t106 125.5v305q0 8 -8 8h-705q-8 0 -8 -8v-442zM563 1577q0 93 67 148t158 55q90 0 158 -55t68 -148t-68 -148t-158 -55q-91 0 -158 55t-67 148zM711 1577q0 -67 21 -107t56 -40t56.5 40t21.5 107t-21.5 107t-56.5 40t-56 -40 t-21 -107z" />
<glyph unicode="&#xe6;" horiz-adv-x="2359" d="M37 793q-14 19 24 57q86 78 150 183t106 274q1 6 13 6q98 -17 190 -41q12 -3 2 -8q-31 -19 -51 -58l-16 -32q-2 -7 4 -7h440q187 0 258 -55q5 -5 12 0q86 55 369 55h481q4 0 6 4l39 70q4 11 16.5 14t16.5 -2q23 -10 88 -53q120 -83 76 -100q-47 -15 -47 -45v-242 q0 -48 -13.5 -86t-34 -63t-56.5 -43t-70 -27.5t-86 -15t-92 -6.5t-101 -1h-485q-8 0 -8 -8v-100q0 -224 107 -320t331 -96q104 0 184 24t121 59.5t60.5 68t19.5 57.5v160q0 22 12 22q11 0 17 -20l20 -80q24 -94 101 -160q19 -19 0 -41q-147 -184 -551 -184q-107 0 -187.5 12 t-142.5 38.5t-107 59t-94 82.5q-9 9 -22 0q-43 -33 -77 -53.5t-92.5 -44.5t-138.5 -35.5t-182 -11.5h-301q-8 0 -8 -8q0 -34 -42 -54t-99 -20q-68 0 -68 76v729q0 10 8 10q42 0 191 -76q12 -4 16 -4h709q8 0 8 9v217q0 29 -1.5 48.5t-10.5 52.5t-26.5 53t-52.5 36t-85 16 h-469q-7 0 -13 -6q-84 -109 -148.5 -169t-150.5 -111q-49 -29 -67 -6zM338 121q0 -21 38 -30t83 -9h235q158 0 262.5 56t104.5 153v272q0 8 -8 8h-707q-8 0 -8 -8v-442zM1268 668q0 -15 8 -15h485q79 0 130.5 12t75 36t31 48t7.5 60v270q0 6 -6 6h-420q-172 0 -241.5 -38 t-69.5 -105v-274z" />
<glyph unicode="&#xe7;" horiz-adv-x="1441" d="M34 1218.5q1 1.5 5 0.5q58 -15 90 -22.5t119 -18.5t180 -11h760q8 0 10 4l49 89q9 17 31 4l158 -111q5 -5 -2 -10q-35 -24 -95 -80q-344 -320 -372 -348q-8 -8 -16.5 -8t-11 6t2.5 16l211 350l-4 6h-637l-8 -4q-96 -66 -96 -321v-154q0 -279 87.5 -401.5t288.5 -122.5 q179 0 305.5 38.5t245.5 108.5q6 4 11.5 0.5t6.5 -9.5t-1 -9q-2 -2 -11 -19t-25.5 -47t-35.5 -59q-23 -36 -39.5 -48t-48.5 -24q-170 -48 -291 -59q-6 -6 -6 -8l-41 -109q-3 -6 4 -6h213l19 25q20 27 45 12l147 -92q34 -24 4 -47q-8 -7 -12 -16.5t-4 -13.5v-22v-26 q0 -42 -19 -76t-52.5 -56t-73.5 -37.5t-89 -23t-92 -11t-88 -3.5q-154 0 -223 78q-15 17 -15 23t13 14q21 13 41 36.5t31 40.5t12 17q16 0 16 -23v-41q0 -12 3.5 -21.5t11 -15.5t15 -11t20.5 -8t22.5 -4.5t25 -2t23.5 -0.5h24h21q92 0 133 18t41 60v147h-250l-2 -2 q-41 -41 -125 -22q-69 15 -47 65l64 154q0 10 -2 14q-89 10 -161 33.5t-138.5 72t-111.5 119t-72 178t-27 244.5v148q0 93 22.5 168.5t77.5 156.5q0 4 -4 4q-67 0 -172 -43q-3 -3 -6 2l-82 170q-2 3 -1 4.5z" />
<glyph unicode="&#xe8;" horiz-adv-x="1529" d="M160 508v729q0 10 8 10q39 0 188 -76q13 -7 13 -16v-35q0 -5 6 -2q60 26 115.5 37.5t146.5 11.5q118 0 194 2t169 9.5t153.5 25t91.5 45.5q12 12 31 0q36 -20 80 -49q123 -82 76 -100q-48 -15 -48 -45v-242q0 -104 -72 -200.5t-185 -154t-230 -57.5q-72 0 -124 3 t-114 13.5t-108.5 30t-93.5 54t-84 82.5q-1 3 -2.5 2t-1.5 -4v-119q0 -416 485 -416q84 0 155.5 16.5t116.5 41t77 53.5t45.5 54t13.5 44v160q0 22 12 22q10 0 16 -20l21 -80q24 -95 100 -160q19 -19 0 -41q-40 -50 -104.5 -86.5t-125 -54.5t-135.5 -28.5t-118 -12.5t-90 -2 q-354 0 -516 132t-162 423zM360 866q0 -77 31 -137t79.5 -97t114 -61t128.5 -33.5t129 -9.5q156 0 245 84t89 197l2 293q0 6 -7 6q-141 -23 -469 -23q-342 0 -342 -116v-103zM430 1780q4 8 45 2q109 -16 219 -69.5t172 -129.5q38 -46 49 -102t-18 -84q-21 -17 -46 -18.5 t-59 19t-69 64.5q-10 13 -40.5 52.5t-43 54.5t-39.5 46.5t-46 50t-46 41.5t-55 42q-28 18 -23 31z" />
<glyph unicode="&#xe9;" horiz-adv-x="1529" d="M160 508v729q0 10 8 10q39 0 188 -76q13 -7 13 -16v-35q0 -5 6 -2q60 26 115.5 37.5t146.5 11.5q118 0 194 2t169 9.5t153.5 25t91.5 45.5q12 12 31 0q36 -20 80 -49q123 -82 76 -100q-48 -15 -48 -45v-242q0 -104 -72 -200.5t-185 -154t-230 -57.5q-72 0 -124 3 t-114 13.5t-108.5 30t-93.5 54t-84 82.5q-1 3 -2.5 2t-1.5 -4v-119q0 -416 485 -416q84 0 155.5 16.5t116.5 41t77 53.5t45.5 54t13.5 44v160q0 22 12 22q10 0 16 -20l21 -80q24 -95 100 -160q19 -19 0 -41q-40 -50 -104.5 -86.5t-125 -54.5t-135.5 -28.5t-118 -12.5t-90 -2 q-354 0 -516 132t-162 423zM360 866q0 -77 31 -137t79.5 -97t114 -61t128.5 -33.5t129 -9.5q156 0 245 84t89 197l2 293q0 6 -7 6q-141 -23 -469 -23q-342 0 -342 -116v-103zM588 1389q-5 13 22 30q91 61 178.5 157.5t124.5 182.5q9 21 27 6q3 -2 29.5 -21t48 -37t31.5 -34 q22 -36 -5 -67q-63 -78 -184 -141.5t-227 -78.5q-41 -6 -45 3z" />
<glyph unicode="&#xea;" horiz-adv-x="1529" d="M160 508v729q0 10 8 10q39 0 188 -76q13 -7 13 -16v-35q0 -5 6 -2q60 26 115.5 37.5t146.5 11.5q118 0 194 2t169 9.5t153.5 25t91.5 45.5q12 12 31 0q36 -20 80 -49q123 -82 76 -100q-48 -15 -48 -45v-242q0 -104 -72 -200.5t-185 -154t-230 -57.5q-72 0 -124 3 t-114 13.5t-108.5 30t-93.5 54t-84 82.5q-1 3 -2.5 2t-1.5 -4v-119q0 -416 485 -416q84 0 155.5 16.5t116.5 41t77 53.5t45.5 54t13.5 44v160q0 22 12 22q10 0 16 -20l21 -80q24 -95 100 -160q19 -19 0 -41q-40 -50 -104.5 -86.5t-125 -54.5t-135.5 -28.5t-118 -12.5t-90 -2 q-354 0 -516 132t-162 423zM360 866q0 -77 31 -137t79.5 -97t114 -61t128.5 -33.5t129 -9.5q156 0 245 84t89 197l2 293q0 6 -7 6q-141 -23 -469 -23q-342 0 -342 -116v-103zM471 1364v170q0 6 6 12l309 248q4 3 7.5 1t3.5 -7q0 -26 12.5 -45.5t48.5 -50.5l137 -125 q55 -47 105 -41q4 2 5.5 0.5t2 -3t0.5 -5.5v-152q0 -18 -16 -2l-293 252q-7 6 -15 -2l-307 -254q-6 -6 -6 4z" />
<glyph unicode="&#xeb;" horiz-adv-x="1529" d="M160 508q0 -291 162 -423t516 -132q47 0 90 2t118 12.5t135.5 28.5t125 54.5t104.5 86.5q19 22 0 41q-76 65 -100 160l-21 80q-6 20 -16 20q-12 0 -12 -22v-160q0 -19 -13.5 -44t-45.5 -54t-77 -53.5t-116.5 -41t-155.5 -16.5q-485 0 -485 416v119q0 3 1.5 4t2.5 -2 q37 -48 84 -82.5t93.5 -54t108.5 -30t114 -13.5t124 -3q117 0 230 57.5t185 154t72 200.5v242q0 30 48 45q47 18 -76 100q-44 29 -80 49q-19 12 -31 0q-31 -28 -91.5 -45.5t-153.5 -25t-169 -9.5t-194 -2q-91 0 -146.5 -11.5t-115.5 -37.5q-6 -3 -6 2v35q0 9 -13 16 q-149 76 -188 76q-8 0 -8 -10v-729zM360 866v103q0 116 342 116q328 0 469 23q7 0 7 -6l-2 -293q0 -113 -89 -197t-245 -84q-66 0 -129 9.5t-128.5 33.5t-114 61t-79.5 97t-31 137zM477 1573q0 51 37 88t88 37q53 0 89 -36.5t36 -88.5q0 -51 -35.5 -87t-89.5 -36 q-51 0 -88 36t-37 87zM866 1575q0 51 36 87t87 36q54 0 90.5 -36t36.5 -87t-37 -88t-90 -37q-51 0 -87 37t-36 88z" />
<glyph unicode="&#xec;" horiz-adv-x="675" d="M-74 1780q4 8 45 2q109 -16 219 -69.5t172 -129.5q38 -46 49 -102t-18 -84q-21 -17 -46 -18.5t-59 19t-69 64.5q-10 13 -40.5 52.5t-43 54.5t-39.5 46.5t-46 50t-46 41.5t-55 42q-28 18 -23 31zM53 801q-3 33 62 33q106 0 172 69q33 34 66 79.5t72.5 115.5t61.5 111 t71 137.5t63 123.5q16 33 36 23q19 -7 7 -41q-94 -246 -172 -489q-36 -113 -50 -177t-14 -127q0 -26 13.5 -296t13.5 -316q0 -14 -9 -29q-12 -23 -58 -44t-83 -21q-72 0 -72 94q0 66 14.5 334t14.5 276q0 34 -12.5 52t-52.5 28l-88 23q-53 12 -56 41z" />
<glyph unicode="&#xed;" horiz-adv-x="675" d="M53 801q-3 33 62 33q106 0 172 69q33 34 66 79.5t72.5 115.5t61.5 111t71 137.5t63 123.5q16 33 36 23q19 -7 7 -41q-94 -246 -172 -489q-36 -113 -50 -177t-14 -127q0 -26 13.5 -296t13.5 -316q0 -14 -9 -29q-12 -23 -58 -44t-83 -21q-72 0 -72 94q0 66 14.5 334 t14.5 276q0 34 -12.5 52t-52.5 28l-88 23q-53 12 -56 41zM121 1389q-5 13 22 30q91 61 178.5 157.5t124.5 182.5q9 21 27 6q3 -2 29.5 -21t48 -37t31.5 -34q23 -37 -4 -67q-63 -77 -184.5 -141t-227.5 -79q-41 -6 -45 3z" />
<glyph unicode="&#xee;" horiz-adv-x="675" d="M-102 1364v170q0 6 6 12l309 248q5 3 7.5 1t2.5 -7q0 -26 13 -45t49 -51l137 -125q55 -46 104 -41q9 2 9 -8v-152q0 -19 -17 -2l-293 252q-6 6 -14 -2l-307 -254q-6 -6 -6 4zM53 801q-3 33 62 33q106 0 172 69q33 34 66 79.5t72.5 115.5t61.5 111t71 137.5t63 123.5 q16 33 36 23q19 -7 7 -41q-94 -246 -172 -489q-36 -113 -50 -177t-14 -127q0 -26 13.5 -296t13.5 -316q0 -14 -9 -29q-12 -23 -58 -44t-83 -21q-72 0 -72 94q0 66 14.5 334t14.5 276q0 34 -12.5 52t-52.5 28l-88 23q-53 12 -56 41z" />
<glyph unicode="&#xef;" horiz-adv-x="675" d="M-18 1573q0 51 36.5 88t87.5 37q53 0 89 -36.5t36 -88.5q0 -51 -35.5 -87t-89.5 -36q-51 0 -87.5 36t-36.5 87zM53 801q3 -29 56 -41l88 -23q40 -10 52.5 -28t12.5 -52q0 -8 -14.5 -276t-14.5 -334q0 -94 72 -94q37 0 83 21t58 44q9 15 9 29q0 46 -13.5 316t-13.5 296 q0 63 14 127t50 177q78 243 172 489q12 34 -7 41q-20 10 -36 -23q-14 -27 -63 -123.5t-71 -137.5t-61.5 -111t-72.5 -115.5t-66 -79.5q-66 -69 -172 -69q-65 0 -62 -33zM371 1575q0 51 36 87t87 36q54 0 90.5 -36t36.5 -87t-36.5 -88t-90.5 -37q-51 0 -87 37t-36 88z" />
<glyph unicode="&#xf0;" horiz-adv-x="1595" d="M131 922q42 27 109 94l262 266l-248 389q-4 4 2 4q51 7 162 2.5t164 -20.5q27 -6 30 -27q3 -22 -24 -37q-22 -13 -25 -40.5t10 -45.5l60 -92l274 281q20 23 40.5 6.5t0.5 -41.5l-268 -318l604 -919q17 -26 26 -59.5t5 -74.5t-22 -81t-61.5 -78t-107.5 -67t-166 -46.5 t-231 -17.5q-115 0 -206 11.5t-150 31t-99.5 46t-59 55.5t-22.5 60.5t4 60t25 54.5l451 689q2 2 2 6l-115 182l-240 -285q-40 -45 -67 -98q-3 -7 -8 -2l-109 102q-5 5 -2 9zM333 227.5q-5 -21.5 8.5 -49t52 -48t125 -34.5t212.5 -14q94 0 167 8t118.5 21t76 31.5t43 37.5 t14.5 41t-3.5 40.5t-16.5 37.5l-368 575q-5 2 -8 -4l-402 -600q-14 -21 -19 -42.5z" />
<glyph unicode="&#xf1;" horiz-adv-x="1439" d="M100 1241q-3 6 4 6q62 0 135.5 -17.5t90.5 -41.5q13 -18 33 -73t26 -89q2 -6 8 0q137 141 340 141h185q169 0 257.5 -70t88.5 -223v-647q0 -145 63 -145q15 0 26.5 11.5t20 36.5t13.5 44.5t11 54.5t9 47l16 84q3 21 19 21q18 0 18 -23v-307q0 -17 -14 -31 q-55 -55 -141 -55q-135 0 -192.5 79t-57.5 235v620q0 108 -43 147t-119 39h-147q-218 0 -336 -141q-31 -34 -31 -100v-89v-116t-0.5 -118.5t-2 -128.5t-3.5 -112t-6 -103.5t-9 -70.5q0 -2 -1.5 -9.5t-2.5 -11.5t-4 -12t-6.5 -14t-9.5 -14t-14 -16q-50 -48 -115 -69.5 t-82 -10.5q-4 3 -5.5 7t-1.5 6t1.5 8t1.5 7q51 183 51 752q0 107 -6.5 194t-17 142.5t-19.5 88.5t-20 59.5t-11 27.5zM440 1397v168q0 6 6 12l60 47q32 26 66 37.5t71.5 5t69.5 -34.5l88 -82q21 -19 39 -27t45.5 -3t58.5 28l131 101q6 6 6 -4v-168q0 -7 -6 -13l-49 -43 q-32 -28 -68.5 -39t-80 -0.5t-82.5 45.5l-76 70q-33 29 -63.5 28.5t-67.5 -28.5l-142 -104q-6 -6 -6 4z" />
<glyph unicode="&#xf2;" horiz-adv-x="1464" d="M98 530v707q0 10 8 10q29 0 97.5 -30t95.5 -48q8 -5 8 -12v-61q0 -5 6 -2q50 27 150.5 50t214.5 23h412q8 0 12 7l37 73q15 34 45 13l162 -117q37 -27 4 -47q-41 -24 -41 -60v-506q0 -141 -40 -252.5t-109.5 -181.5t-159 -106.5t-193.5 -36.5h-209q-104 0 -193.5 36.5 t-158.5 106.5t-108.5 181.5t-39.5 252.5zM307 438q0 -185 90.5 -294t214.5 -109h176q125 0 218.5 109.5t93.5 293.5v637q0 10 -8 10h-373q-116 0 -207.5 -22t-148 -69t-56.5 -113v-443zM389 1780q4 8 45 2q109 -16 219 -69.5t172 -129.5q38 -46 49 -102t-18 -84 q-21 -17 -46 -18.5t-59 19t-69 64.5q-10 13 -40.5 52.5t-43 54.5t-39.5 46.5t-46 50t-46 41.5t-55 42q-28 18 -23 31z" />
<glyph unicode="&#xf3;" horiz-adv-x="1464" d="M98 530v707q0 10 8 10q29 0 97.5 -30t95.5 -48q8 -5 8 -12v-61q0 -5 6 -2q50 27 150.5 50t214.5 23h412q8 0 12 7l37 73q15 34 45 13l162 -117q37 -27 4 -47q-41 -24 -41 -60v-506q0 -141 -40 -252.5t-109.5 -181.5t-159 -106.5t-193.5 -36.5h-209q-104 0 -193.5 36.5 t-158.5 106.5t-108.5 181.5t-39.5 252.5zM307 438q0 -185 90.5 -294t214.5 -109h176q125 0 218.5 109.5t93.5 293.5v637q0 10 -8 10h-373q-116 0 -207.5 -22t-148 -69t-56.5 -113v-443zM547 1389q-5 13 22 30q91 61 178.5 157.5t124.5 182.5q9 21 27 6q3 -2 29.5 -21t48 -37 t31.5 -34q23 -37 -4 -67q-63 -77 -184.5 -141t-227.5 -79q-41 -6 -45 3z" />
<glyph unicode="&#xf4;" horiz-adv-x="1464" d="M98 530v707q0 10 8 10q29 0 97.5 -30t95.5 -48q8 -5 8 -12v-61q0 -5 6 -2q50 27 150.5 50t214.5 23h412q8 0 12 7l37 73q15 34 45 13l162 -117q37 -27 4 -47q-41 -24 -41 -60v-506q0 -141 -40 -252.5t-109.5 -181.5t-159 -106.5t-193.5 -36.5h-209q-104 0 -193.5 36.5 t-158.5 106.5t-108.5 181.5t-39.5 252.5zM307 438q0 -185 90.5 -294t214.5 -109h176q125 0 218.5 109.5t93.5 293.5v637q0 10 -8 10h-373q-116 0 -207.5 -22t-148 -69t-56.5 -113v-443zM430 1364v170q0 6 6 12l309 248q5 3 8 1t3 -7q0 -26 12.5 -45.5t48.5 -50.5l137 -125 q55 -47 105 -41q4 2 5.5 0.5t2 -3t0.5 -5.5v-152q0 -18 -16 -2l-293 252q-6 6 -15 -2l-307 -254q-6 -6 -6 4z" />
<glyph unicode="&#xf5;" horiz-adv-x="1464" d="M98 530v707q0 10 8 10q29 0 97.5 -30t95.5 -48q8 -5 8 -12v-61q0 -5 6 -2q50 27 150.5 50t214.5 23h412q8 0 12 7l37 73q15 34 45 13l162 -117q37 -27 4 -47q-41 -24 -41 -60v-506q0 -141 -40 -252.5t-109.5 -181.5t-159 -106.5t-193.5 -36.5h-209q-104 0 -193.5 36.5 t-158.5 106.5t-108.5 181.5t-39.5 252.5zM307 438q0 -185 90.5 -294t214.5 -109h176q125 0 218.5 109.5t93.5 293.5v637q0 10 -8 10h-373q-116 0 -207.5 -22t-148 -69t-56.5 -113v-443zM399 1397v168q0 5 7 12l59 47q32 26 66 37.5t71.5 5t69.5 -34.5l88 -82q21 -19 39 -27 t45.5 -3t58.5 28l131 101q6 6 6 -4v-168q0 -7 -6 -13l-49 -43q-32 -28 -68.5 -39t-80 -0.5t-82.5 45.5l-76 70q-33 29 -63.5 28.5t-67.5 -28.5l-141 -104q-7 -7 -7 4z" />
<glyph unicode="&#xf6;" horiz-adv-x="1464" d="M98 530q0 -141 39.5 -252.5t108.5 -181.5t158.5 -106.5t193.5 -36.5h209q104 0 193.5 36.5t159 106.5t109.5 181.5t40 252.5v506q0 36 41 60q33 20 -4 47l-162 117q-30 21 -45 -13l-37 -73q-4 -7 -12 -7h-412q-114 0 -214.5 -23t-150.5 -50q-6 -3 -6 2v61q0 7 -8 12 q-27 18 -95.5 48t-97.5 30q-8 0 -8 -10v-707zM307 438v443q0 66 56.5 113t148 69t207.5 22h373q8 0 8 -10v-637q0 -184 -93.5 -293.5t-218.5 -109.5h-176q-124 0 -214.5 109t-90.5 294zM397 1573q0 51 37 88t88 37q53 0 89 -36.5t36 -88.5q0 -51 -35.5 -87t-89.5 -36 q-51 0 -88 36t-37 87zM786 1575q0 51 36 87t87 36q54 0 90.5 -36t36.5 -87t-37 -88t-90 -37q-51 0 -87 37t-36 88z" />
<glyph unicode="&#xf7;" horiz-adv-x="849" d="M-100 629l49 -103q0 -2 2 -2q0 -2 4 -2q50 13 119 13h809q32 0 44 9.5t1.5 30.5t-45.5 52q-41 34 -65.5 51.5t-48 30t-38.5 10t-29.5 -13.5t-29.5 -35l-35 -54h-567q-55 0 -166 19q-7 0 -4 -6zM266 256q0 63 45.5 108.5t108.5 45.5t108 -45.5t45 -108.5t-45 -108.5 t-108 -45.5t-108.5 45.5t-45.5 108.5zM276 918q0 63 45.5 108t108.5 45t108.5 -45t45.5 -108t-45.5 -108.5t-108.5 -45.5t-108.5 45.5t-45.5 108.5z" />
<glyph unicode="&#xf8;" horiz-adv-x="1462" d="M98 530v707q0 10 8 10q19 0 55.5 -15t79.5 -36t58 -27q8 -3 8 -12v-61q0 -5 6 -2q50 27 150.5 50t214.5 23h156q44 0 88 -6l106 246q16 35 41 27q33 -9 21 -41l-97 -244q145 -34 230.5 -135t85.5 -266v-218q0 -141 -40 -251t-109.5 -177.5t-159 -102t-193.5 -34.5h-209 q-22 0 -68 4l-45 -119q-18 -51 -79 -36q-70 14 -46 65l52 119q-144 52 -229 186t-85 346zM307 438q0 -120 40 -207t108 -135l428 977q-41 12 -78 12h-86q-116 0 -207.5 -22t-148 -69t-56.5 -113v-443zM563 51q16 -4 49 -4h176q126 0 219 104t93 287v326q0 100 -41 171 t-107 109z" />
<glyph unicode="&#xf9;" horiz-adv-x="1419" d="M66 1241q-3 6 4 6q26 0 104 -14t159 -43.5t81 -61.5q0 -16 -31 -32q-35 -15 -35 -103v-524q0 -120 56 -192t118 -54l543 154q4 2 4 6v858q0 6 4 6q116 0 244 -55q31 -13 31 -31q0 -17 -31 -33q-39 -17 -39 -77v-1018q0 -17 -10 -27q-53 -53 -115 -53q-38 0 -61 22t-23 58 v264q0 10 -8 6q-20 -9 -117.5 -42.5t-183.5 -67.5t-212 -105t-231 -158q-23 -20 -51.5 -8.5t-50.5 51.5l-74 136q-2 1 -1.5 4t3.5 4l166 47q7 4 0 6q-86 43 -128 114t-42 189v256q0 107 -6 194t-17 142.5t-19.5 88t-19.5 59.5t-11 28zM383 1780q4 8 45 2q109 -16 219 -69.5 t172 -129.5q38 -46 49 -102t-18 -84q-21 -17 -46 -18.5t-59 19t-69 64.5q-10 13 -40.5 52.5t-43 54.5t-39.5 46.5t-46 50t-46 41.5t-55 42q-28 18 -23 31z" />
<glyph unicode="&#xfa;" horiz-adv-x="1419" d="M66 1241q-3 6 4 6q26 0 104 -14t159 -43.5t81 -61.5q0 -16 -31 -32q-35 -15 -35 -103v-524q0 -120 56 -192t118 -54l543 154q4 2 4 6v858q0 6 4 6q116 0 244 -55q31 -13 31 -31q0 -17 -31 -33q-39 -17 -39 -77v-1018q0 -17 -10 -27q-53 -53 -115 -53q-38 0 -61 22t-23 58 v264q0 10 -8 6q-20 -9 -117.5 -42.5t-183.5 -67.5t-212 -105t-231 -158q-23 -20 -51.5 -8.5t-50.5 51.5l-74 136q-2 1 -1.5 4t3.5 4l166 47q7 4 0 6q-86 43 -128 114t-42 189v256q0 107 -6 194t-17 142.5t-19.5 88t-19.5 59.5t-11 28zM524 1389q-5 13 23 30 q91 61 178.5 157.5t124.5 182.5q9 21 27 6q2 -2 29 -21t48 -37t31 -34q23 -37 -4 -67q-63 -77 -184.5 -141t-227.5 -79q-41 -6 -45 3z" />
<glyph unicode="&#xfb;" horiz-adv-x="1419" d="M66 1241q-3 6 4 6q26 0 104 -14t159 -43.5t81 -61.5q0 -16 -31 -32q-35 -15 -35 -103v-524q0 -120 56 -192t118 -54l543 154q4 2 4 6v858q0 6 4 6q116 0 244 -55q31 -13 31 -31q0 -17 -31 -33q-39 -17 -39 -77v-1018q0 -17 -10 -27q-53 -53 -115 -53q-38 0 -61 22t-23 58 v264q0 10 -8 6q-20 -9 -117.5 -42.5t-183.5 -67.5t-212 -105t-231 -158q-23 -20 -51.5 -8.5t-50.5 51.5l-74 136q-2 1 -1.5 4t3.5 4l166 47q7 4 0 6q-86 43 -128 114t-42 189v256q0 107 -6 194t-17 142.5t-19.5 88t-19.5 59.5t-11 28zM408 1364v170q0 6 6 12l309 248 q5 3 7.5 1t2.5 -7q0 -26 13 -45t49 -51l137 -125q55 -46 104 -41q4 2 5.5 0.5t2 -3t0.5 -5.5v-152q0 -18 -16 -2l-293 252q-6 6 -14 -2l-307 -254q-6 -6 -6 4z" />
<glyph unicode="&#xfc;" horiz-adv-x="1419" d="M66 1241q-3 6 4 6q26 0 104 -14t159 -43.5t81 -61.5q0 -16 -31 -32q-35 -15 -35 -103v-524q0 -120 56 -192t118 -54l543 154q4 2 4 6v858q0 6 4 6q116 0 244 -55q31 -13 31 -31q0 -17 -31 -33q-39 -17 -39 -77v-1018q0 -17 -10 -27q-53 -53 -115 -53q-38 0 -61 22t-23 58 v264q0 10 -8 6q-20 -9 -117.5 -42.5t-183.5 -67.5t-212 -105t-231 -158q-23 -20 -51.5 -8.5t-50.5 51.5l-74 136q-2 1 -1.5 4t3.5 4l166 47q7 4 0 6q-86 43 -128 114t-42 189v256q0 107 -6 194t-17 142.5t-19.5 88t-19.5 59.5t-11 28zM391 1573q0 51 37 88t88 37 q53 0 89 -36.5t36 -88.5q0 -51 -35.5 -87t-89.5 -36q-51 0 -88 36t-37 87zM780 1575q0 51 36 87t87 36q54 0 90.5 -36t36.5 -87t-37 -88t-90 -37q-51 0 -87 37t-36 88z" />
<glyph unicode="&#xfd;" horiz-adv-x="1355" d="M10 1239q0 4 4 4q50 6 164 2t166 -20q28 -6 31 -27t-25 -37q-21 -12 -23.5 -40t9.5 -46l328 -694l383 856q0 4 4 4q23 6 77 6q79 0 156 -30q21 -9 21 -21q0 -7 -3 -12t-10 -10.5t-8 -6.5q-52 -40 -94 -120q-455 -855 -696 -1412q-8 -16 -12.5 -23t-16.5 -19t-35 -31 q-26 -19 -54 -45t-34 -29q-25 -16 -41 0q-12 14 -25 25.5t-21.5 18.5t-23 15.5t-19.5 10.5t-20 9l-16 7l-72 29q-20 6 -20 22q0 19 22 19h220q7 0 10 8l254 563zM537 1389q-5 13 22 30q91 61 178.5 157.5t124.5 182.5q9 21 27 6q2 -2 29 -21t48 -37t31 -34q23 -37 -4 -67 q-63 -78 -184 -141.5t-227 -78.5q-41 -6 -45 3z" />
<glyph unicode="&#xfe;" horiz-adv-x="1406" d="M160 -436v2109q0 6 4 6q116 0 244 -55q30 -13 30 -31q0 -17 -30 -32q-39 -17 -39 -78v-309q0 -7 6 -7h680q15 0 20 13l33 69q15 34 45 13l162 -117q37 -27 4 -47q-39 -23 -39 -60v-708q0 -160 -111 -268.5t-272 -108.5q-354 0 -522 256q-6 6 -6 -2v-643q0 -16 -11 -27 q-53 -53 -114 -53q-38 0 -61 22t-23 58zM369 434q0 -88 45 -158.5t116 -111.5t151.5 -62.5t160.5 -21.5q112 0 170.5 68t58.5 178v753q0 6 -6 6h-690q-6 0 -6 -6v-645z" />
<glyph unicode="&#xff;" horiz-adv-x="1355" d="M10 1239l580 -1024l-254 -563q-3 -8 -10 -8h-220q-22 0 -22 -19q0 -16 20 -22l72 -29l16 -7q15 -7 20 -9t19.5 -10.5t23 -15.5t21.5 -18.5t25 -25.5q16 -16 41 0q6 3 34 29t54 45q33 27 42.5 39t21.5 34q241 557 696 1412q42 80 94 120q1 1 8 6.5t10 10.5t3 12 q0 12 -21 21q-77 30 -156 30q-54 0 -77 -6q-4 0 -4 -4l-383 -856l-328 694q-12 18 -9.5 46t23.5 40q28 16 25 37t-31 27q-52 16 -166 20t-164 -2q-4 0 -4 -4zM346 1575q0 51 37 88t88 37q53 0 89 -36.5t36 -88.5q0 -51 -36 -87t-89 -36q-51 0 -88 36t-37 87zM735 1577 q0 51 36 87t87 36q54 0 90.5 -36t36.5 -87t-36.5 -88t-90.5 -37q-51 0 -87 37t-36 88z" />
<glyph unicode="&#x131;" horiz-adv-x="675" d="M53 801q-3 33 62 33q106 0 172 69q33 34 66 79.5t72.5 115.5t61.5 111t71 137.5t63 123.5q16 33 36 23q19 -7 7 -41q-94 -246 -172 -489q-36 -113 -50 -177t-14 -127q0 -26 13.5 -296t13.5 -316q0 -14 -9 -29q-12 -23 -58 -44t-83 -21q-72 0 -72 94q0 66 14.5 334 t14.5 276q0 34 -12.5 52t-52.5 28l-88 23q-53 12 -56 41z" />
<glyph unicode="&#x152;" horiz-adv-x="2461" d="M69.5 718.5q-6.5 16.5 10.5 57.5l348 723l-51 78h837v70q0 10 9 10q27 0 108 -40t96 -40h601l53 72q23 30 49 30q11 0 32 -6t67 -29.5t98 -60.5q58 -43 55 -63q0 -25 -62 -25h-888q-9 0 -9 -8v-629h572q55 0 166 19q4 0 4 -5v-2l-49 -102l-2 -2q-2 -2 -5 -2 q-46 12 -118 12h-568v-694h602l54 72q23 30 49 30q11 0 32 -6t66.5 -29.5t97.5 -60.5q59 -44 56 -63q0 -25 -62 -25h-895v-37q0 -35 -42 -55.5t-99 -20.5q-68 0 -68 76v37h-725q-24 0 -30 14l-295 678q-13 24 -60 15q-28 -5 -34.5 11.5zM326 827l315 -745h573v1413h-573z " />
<glyph unicode="&#x153;" horiz-adv-x="2451" d="M98 530v707q0 10 8 10q19 0 55.5 -15t79.5 -36t58 -27q8 -3 8 -12v-61q0 -5 6 -2q50 27 150.5 50t214.5 23h221q187 0 258 -55q5 -5 12 0q86 55 369 55h481q4 0 6 4l39 70q4 11 16.5 14t16.5 -2q23 -10 88 -53q120 -83 76 -100q-47 -15 -47 -45v-242q0 -48 -13.5 -86 t-34 -63t-56.5 -43t-70 -27.5t-86 -15t-92 -6.5t-101 -1h-485q-8 0 -8 -8v-100q0 -224 107 -320t331 -96q104 0 184 24t121 59.5t60.5 68t19.5 57.5v160q0 22 12 22q11 0 17 -20l20 -80q24 -94 101 -160q19 -19 0 -41q-147 -184 -551 -184q-107 0 -187.5 12t-142.5 38.5 t-107 59t-94 82.5q-9 9 -22 0q-72 -87 -171.5 -139.5t-207.5 -52.5h-168q-103 0 -191.5 36.5t-156 106.5t-106 181.5t-38.5 252.5zM307 438q0 -186 87 -294.5t210 -108.5h135q59 0 116 27.5t103.5 77t74.5 127.5t28 171v441q0 29 -1.5 48.5t-10.5 52.5t-26.5 53t-52.5 36 t-85 16h-166q-116 0 -207.5 -22t-148 -69t-56.5 -113v-443zM1268 668q0 -15 8 -15h485q79 0 130.5 12t75 36t31 48t7.5 60v270q0 6 -6 6h-420q-172 0 -241.5 -38t-69.5 -105v-274z" />
<glyph unicode="&#x160;" horiz-adv-x="1566" d="M74 162q-11 8 2 16q33 21 49.5 53.5t30.5 81.5l43 142q11 30 23 36t19 -6.5t7 -29.5v-185q0 -20 17.5 -47t58.5 -58t98 -57t146.5 -43.5t193.5 -17.5q111 0 216.5 35t163 73.5t77.5 67.5q5 7 2 15q-15 56 -15 135v454q0 9 -6 9h-764q-15 0 -27.5 -7.5t-18 -13.5 t-19.5 -24q-46 -54 -109 -54q-38 0 -61 22t-23 58v830q0 10 8 10q20 0 56 -14.5t78 -35t57 -26.5q12 -4 14 -4h754q60 0 115 7t82.5 13t71 19.5t52.5 15.5q4 1 5 0t-1 -4l-81 -170q-1 -2 -7 -2q-2 1 -17 5t-28 8t-38 9t-50 8.5t-60 6t-71 2.5h-725q-6 0 -6 -8v-561 q0 -8 12 -8h801q8 0 12 8l35 75q15 34 45 13l162 -117q37 -27 4 -47q-41 -24 -41 -143v-359q0 -106 56 -139q6 -4 8 -8t-1 -10.5t-13.5 -15.5t-28.5 -23q-139 -101 -323 -150t-386 -49q-167 0 -356 63t-299 146zM528 1987v170q0 11 7 4l307 -254q8 -8 14 -2l293 252 q16 16 16 -3v-151q0 -8 -3 -8q-2 -1 -5 0q-49 5 -104 -41l-138 -125q-36 -31 -48.5 -50.5t-12.5 -45.5q0 -5 -3 -7.5t-7 0.5l-309 248q-7 7 -7 13z" />
<glyph unicode="&#x161;" horiz-adv-x="1486" d="M116 1218.5q1 1.5 5 0.5q58 -15 90 -22.5t119 -18.5t180 -11h618q4 0 9 7l41 75q16 32 43 11l110 -95q19 -19 0 -37q-10 -10 -33.5 -28t-33.5 -27l-232 -205q-25 -21 -40 -11.5t-1 36.5l101 188q2 4 -5 4h-540q-4 0 -6 -6l-129 -364q-3 -10 4 -10h684q7 0 12 8l35 73 q15 34 45 13l162 -117q37 -27 4 -47q-41 -24 -41 -60v-333q0 -94 -80 -152q-26 -19 -59 -38t-92 -43.5t-143.5 -40t-178.5 -15.5q-166 0 -338.5 41t-294.5 123q-1 1 -3 2q-10 6 -11 9.5t8 12.5q49 39 78 117l67 148q3 8 9 12t11 -1t5 -20v-194q0 -11 8 -19q45 -49 167.5 -93 t246.5 -44q141 0 233.5 35.5t130.5 81.5l7 7q7 7 8.5 10.5t5.5 11.5t5 19.5t1 27.5v378q0 7 -6 7h-719q-2 0 -3.5 -1.5t-1.5 -3.5l-1 -2l-6 -16q-11 -29 -54 -39t-88 -2q-79 15 -55 80l148 440q0 4 -5 4q-15 -3 -32 -9t-43.5 -18t-36.5 -16q-3 -3 -6 2l-82 170q-2 3 -1 4.5z M469 1616v170q0 10 6 4l307 -254q8 -8 15 -2l293 252q16 16 16 -2v-152q0 -8 -3 -8q-2 -1 -5 0q-50 6 -105 -41l-137 -125q-36 -31 -48.5 -50.5t-12.5 -45.5q0 -5 -3.5 -7t-7.5 1l-309 248q-6 6 -6 12z" />
<glyph unicode="&#x178;" horiz-adv-x="1439" d="M0 1546l557 -755q27 -38 38 -74t11 -96v-576q0 -36 23 -58t61 -22q62 0 115 53q10 10 10 27v621q0 62 27 96l481 663q26 35 68.5 70t46.5 39q6 4 5.5 13t-11.5 16l-183 114q-7 7 -12 -4l-518 -844q-2 -2 -4 0l-443 682q-6 12 -11 31.5t-7.5 35.5t-5.5 41t-4 34 q-2 20 -15.5 26.5t-38.5 -8.5l-188 -115q-8 -4 -2 -10zM397 1942q0 51 37 87.5t88 36.5q53 0 89 -36t36 -88t-35.5 -87.5t-89.5 -35.5q-51 0 -88 36t-37 87zM786 1944q0 51 36 86.5t87 35.5q54 0 90.5 -35.5t36.5 -86.5q0 -52 -37 -88.5t-90 -36.5q-51 0 -87 37t-36 88z" />
<glyph unicode="&#x17d;" horiz-adv-x="1597" d="M62 445.5q5 18.5 18 23.5q23 10 45 -33q35 -70 78 -121q6 -6 14 -2q121 66 250.5 199.5t246 304.5t210.5 333.5t180 334.5q5 10 -4 10h-678q-36 0 -71 -2.5t-60 -6t-50 -8.5t-38 -9t-28 -8t-17 -5q-5 0 -6 2l-82 170q-2 3 -1 4t5 0q6 -2 41 -13t54 -15.5t56 -12.5t79 -11 t91 -3h744q7 0 10 6l31 78q4 11 18 15.5t35 1t44.5 -13t50.5 -28t50 -43.5q102 -108 54 -123q-43 -14 -80 -43q-78 -124 -129 -203.5t-130 -194.5t-141.5 -193.5t-147.5 -174.5t-163.5 -165t-174.5 -137t-196 -117q-3 -1 -3.5 -4.5t1.5 -4.5q81 -69 217 -103t272.5 -35.5 t296 16t265.5 38t203 44.5q8 2 11 0t-1 -15q-55 -117 -86 -158q-12 -17 -23 -23t-34 -11q-16 -2 -76 -11.5t-109.5 -15t-99.5 -6.5q-90 -2 -170 0.5t-172.5 13.5t-171.5 31t-160.5 54.5t-147 81.5t-122 115.5t-94.5 153.5q-9 24 -4 42.5zM528 1987v170q0 11 7 4l307 -254 q8 -8 14 -2l293 252q16 16 16 -3v-151q0 -8 -3 -8q-2 -1 -5 0q-49 5 -104 -41l-138 -125q-36 -31 -48.5 -50.5t-12.5 -45.5q0 -5 -3 -7.5t-7 0.5l-309 248q-7 7 -7 13z" />
<glyph unicode="&#x17e;" horiz-adv-x="1318" d="M27 170q-5 10 6 10l133 4q6 0 12 6l731 885q10 10 -2 10h-567q-52 0 -95 -6t-63 -12.5t-38.5 -14t-22.5 -8.5q-5 0 -6 3l-82 170q-2 3 -1 4t5 0q3 -1 40.5 -12.5t54.5 -15.5t55.5 -12t80 -11t90.5 -3h605q9 0 16 9l61 79q14 18 29 20.5t36 -12.5t41 -36t52 -60 q88 -111 35 -120q-66 -11 -82 -27l-848 -832q-2 -4 2 -4l727 43q4 0 4 4q-18 55 -46 114t-48 87q-33 46 -27.5 51.5t62.5 -18.5q77 -34 145 -96.5t105 -132.5q54 -105 47 -175t-70 -92q-78 -28 -102 39q-30 87 -43 146q-2 4 -8 4q-241 -29 -801 -140q-14 -3 -29 -14l-51 -39 q-53 -39 -92 47q-24 54 -51 158zM324 1616v170q0 10 6 4l307 -254q8 -8 14 -2l293 252q17 17 17 -2v-152q0 -10 -9 -8q-49 5 -104 -41l-137 -125q-36 -32 -49 -51t-13 -45q0 -5 -2.5 -7t-7.5 1l-309 248q-6 6 -6 12z" />
<glyph unicode="&#x192;" horiz-adv-x="1017" d="M-31 -57q0 18 23 18h211q6 0 6 6l207 1118h-166q-73 0 -119 -12q-4 0 -4 2q-2 0 -2 2l-49 103q-3 6 4 6q111 -19 166 -19h176q6 0 9.5 2t4.5 4t1.5 6t0.5 5l58 329q6 34 25.5 49t58.5 15h94q18 0 28 10l43 43q20 20 34.5 27t35.5 0q25 -7 70 -30.5t80 -51.5 q84 -64 43 -76q-12 -4 -37 -4h-260q-22 0 -25 -22l-51 -285q-3 -21 18 -21h150q21 0 37 21.5t24 21.5q35 0 111 -55q41 -30 50.5 -45.5t-5.5 -20t-55 -4.5h-340l-207 -1124q-4 -20 -13 -36.5t-38 -45.5q-39 -39 -97 -72q-25 -16 -41 0q-37 39 -73 59.5t-86 33.5l-80 20 q-21 6 -21 23z" />
<glyph unicode="&#x2c6;" horiz-adv-x="1251" d="M307 1217v169q0 7 6 13l310 248q5 3 7.5 0.5t2.5 -7.5q0 -26 12.5 -45.5t48.5 -50.5l137 -125q55 -47 105 -41q4 2 5.5 0.5t2 -3t0.5 -5.5v-151q0 -18 -16 -2l-293 251q-6 6 -14 -2l-308 -254q-6 -6 -6 5z" />
<glyph unicode="&#x2c7;" horiz-adv-x="1251" d="M307 1470v170q0 11 6 5l308 -254q8 -8 14 -2l293 251q16 16 16 -2v-151q0 -8 -3 -8q-2 -1 -5 0q-50 6 -105 -41l-137 -125q-36 -31 -48.5 -50.5t-12.5 -45.5q0 -5 -2.5 -7.5t-7.5 0.5l-310 248q-6 6 -6 12z" />
<glyph unicode="&#x2d8;" horiz-adv-x="1245" d="M307 1624q0 6 8 6h134q12 0 12 -6q0 -132 44 -194t118 -62q73 0 117 62t44 194q0 6 11 6h133q10 0 10 -6q0 -155 -84.5 -235t-230.5 -80t-231 80t-85 235z" />
<glyph unicode="&#x2d9;" horiz-adv-x="952" d="M307 1382q0 70 51 111t119 41q66 0 117 -41t51 -111q0 -69 -50.5 -110t-117.5 -41q-68 0 -119 40.5t-51 110.5z" />
<glyph unicode="&#x2da;" horiz-adv-x="1064" d="M307 1382q0 93 67 148t158 55q90 0 158 -55t68 -148t-68 -147.5t-158 -54.5q-91 0 -158 54.5t-67 147.5zM455 1382q0 -67 21 -107t56 -40t56.5 40t21.5 107t-21.5 107.5t-56.5 40.5t-56 -40t-21 -108z" />
<glyph unicode="&#x2dc;" horiz-adv-x="1255" d="M307 1292v168q0 7 6 13l60 47q32 26 66 37.5t71.5 5t69.5 -34.5l88 -82q21 -19 39 -27t45.5 -3t58.5 28l131 100q6 6 6 -4v-168q0 -6 -6 -12l-49 -43q-32 -28 -68.5 -39t-80 -0.5t-82.5 45.5l-76 70q-33 29 -63.5 28.5t-67.5 -28.5l-142 -105q-6 -6 -6 4z" />
<glyph unicode="&#x3c0;" horiz-adv-x="1542" d="M11 1382q1 1 5 0t52 -15t73 -19.5t81 -12t116 -6.5h846q16 0 20 6l49 66q30 42 70 26q47 -20 150 -92q83 -58 50 -80q-13 -8 -42 -8h-281q-4 0 -4 -4v-1208q0 -17 -10 -27q-22 -22 -59.5 -41.5t-71.5 -19.5q-68 0 -68 88v1208q0 4 -4 4h-434q-4 0 -4 -4v-389v-89.5 v-117.5t-0.5 -120.5t-2 -130.5t-3.5 -114t-6 -105t-9 -71q0 -2 -1.5 -7t-2 -8t-2 -8.5t-3 -9.5t-4.5 -10t-6.5 -11t-8.5 -11t-11 -12q-50 -48 -114.5 -69.5t-81.5 -10.5q-4 3 -5.5 7t-1.5 6t1.5 8t1.5 7q51 183 51 740v526q0 4 -4 4q-53 0 -97.5 -6t-66.5 -12t-43.5 -14 t-24.5 -9q-5 0 -6 2l-82 170q-2 3 -1 4z" />
<glyph unicode="&#x2000;" horiz-adv-x="1084" />
<glyph unicode="&#x2001;" horiz-adv-x="2168" />
<glyph unicode="&#x2002;" horiz-adv-x="1084" />
<glyph unicode="&#x2003;" horiz-adv-x="2168" />
<glyph unicode="&#x2004;" horiz-adv-x="722" />
<glyph unicode="&#x2005;" horiz-adv-x="542" />
<glyph unicode="&#x2006;" horiz-adv-x="361" />
<glyph unicode="&#x2007;" horiz-adv-x="361" />
<glyph unicode="&#x2008;" horiz-adv-x="271" />
<glyph unicode="&#x2009;" horiz-adv-x="433" />
<glyph unicode="&#x200a;" horiz-adv-x="120" />
<glyph unicode="&#x2010;" horiz-adv-x="1384" d="M197 629q-3 6 4 6q111 -19 166 -19h526l35 54q15 24 29.5 35t29.5 13.5t38.5 -10t48 -30t65.5 -51.5q35 -31 45.5 -52t-1.5 -30.5t-44 -9.5h-768q-69 0 -119 -13q-4 0 -4 2q-2 0 -2 2z" />
<glyph unicode="&#x2011;" horiz-adv-x="1384" d="M197 629q-3 6 4 6q111 -19 166 -19h526l35 54q15 24 29.5 35t29.5 13.5t38.5 -10t48 -30t65.5 -51.5q35 -31 45.5 -52t-1.5 -30.5t-44 -9.5h-768q-69 0 -119 -13q-4 0 -4 2q-2 0 -2 2z" />
<glyph unicode="&#x2012;" horiz-adv-x="1384" d="M197 629q-3 6 4 6q111 -19 166 -19h526l35 54q15 24 29.5 35t29.5 13.5t38.5 -10t48 -30t65.5 -51.5q35 -31 45.5 -52t-1.5 -30.5t-44 -9.5h-768q-69 0 -119 -13q-4 0 -4 2q-2 0 -2 2z" />
<glyph unicode="&#x2013;" horiz-adv-x="1587" d="M156 629q-3 6 4 6q111 -19 166 -19h811l34 54q15 24 29.5 35t29.5 13.5t38.5 -10t48 -30t65.5 -51.5q35 -31 45.5 -52t-1.5 -30.5t-44 -9.5h-1052q-69 0 -119 -13q-4 0 -4 2q-2 0 -2 2z" />
<glyph unicode="&#x2014;" horiz-adv-x="2091" d="M156 629q-3 6 4 6q111 -19 166 -19h1314l35 54q15 24 29.5 35t29.5 13.5t38.5 -10t48 -30t65.5 -51.5q35 -31 45.5 -52t-1.5 -30.5t-44 -9.5h-1556q-69 0 -119 -13q-4 0 -4 2q-2 0 -2 2z" />
<glyph unicode="&#x2018;" horiz-adv-x="851" d="M283 1434q-11 46 3 110.5t48 118.5q31 49 77 87.5t83 51.5q26 6 32.5 -7.5t-12.5 -27.5q-39 -20 -84 -81q-39 -55 -51 -111q22 16 50.5 17.5t51.5 -6.5t43 -21q51 -41 51 -111q0 -60 -41.5 -101.5t-99.5 -41.5q-56 0 -96.5 33.5t-54.5 89.5z" />
<glyph unicode="&#x2019;" horiz-adv-x="851" d="M276 1667q0 59 42 101t100 42q57 0 97 -33t54 -89q11 -46 -3 -111t-48 -119q-31 -49 -77 -87.5t-83 -51.5q-26 -6 -32.5 7.5t12.5 27.5q37 19 84 82q40 55 51 110q-36 -23 -77.5 -17.5t-67.5 27.5q-52 42 -52 111z" />
<glyph unicode="&#x201a;" horiz-adv-x="851" d="M276 121q0 59 42 101t100 42q56 0 96.5 -33.5t54.5 -89.5q11 -46 -3 -110.5t-48 -118.5q-31 -49 -77 -87.5t-83 -51.5q-26 -6 -32.5 7t12.5 27q37 19 84 82q39 55 51 111q-36 -23 -77.5 -17.5t-67.5 27.5q-52 42 -52 111z" />
<glyph unicode="&#x201c;" horiz-adv-x="1220" d="M283 1434q-11 46 3 110.5t48 118.5q31 49 77 87.5t83 51.5q26 6 32.5 -7.5t-12.5 -27.5q-39 -20 -84 -81q-39 -55 -51 -111q22 16 50.5 17.5t51.5 -6.5t43 -21q51 -41 51 -111q0 -60 -41.5 -101.5t-99.5 -41.5q-56 0 -96.5 33.5t-54.5 89.5zM651 1432q-11 46 3 110.5 t48 118.5q31 49 77 87.5t83 51.5q26 6 33 -7.5t-12 -27.5q-37 -19 -84 -82q-40 -55 -51 -110q22 16 50.5 17.5t51.5 -6.5t43 -21q51 -41 51 -111q0 -60 -42 -101.5t-99 -41.5t-97.5 33.5t-54.5 89.5z" />
<glyph unicode="&#x201d;" horiz-adv-x="1220" d="M276 1667q0 59 42 101t100 42q57 0 97 -33t54 -89q11 -46 -3 -111t-48 -119q-31 -49 -77 -87.5t-83 -51.5q-26 -6 -32.5 7.5t12.5 27.5q37 19 84 82q40 55 51 110q-36 -23 -77.5 -17.5t-67.5 27.5q-52 42 -52 111zM645 1665q0 59 41.5 101t99.5 42q57 0 97.5 -33 t54.5 -89q11 -46 -3 -111t-48 -119q-31 -49 -77 -87.5t-83 -51.5q-26 -6 -32.5 7.5t12.5 27.5q37 19 84 82q40 55 51 110q-36 -23 -78 -17.5t-68 27.5q-51 41 -51 111z" />
<glyph unicode="&#x201e;" horiz-adv-x="1220" d="M276 121q0 59 42 101t100 42q56 0 96.5 -33.5t54.5 -89.5q11 -46 -3 -110.5t-48 -118.5q-31 -49 -77 -87.5t-83 -51.5q-26 -6 -32.5 7t12.5 27q37 19 84 82q39 55 51 111q-36 -23 -77.5 -17.5t-67.5 27.5q-52 42 -52 111zM645 119q0 59 41.5 101t99.5 42q57 0 97.5 -33.5 t54.5 -89.5q11 -46 -3 -110.5t-48 -118.5q-31 -49 -77 -87.5t-83 -51.5q-26 -6 -32.5 7t12.5 27q37 19 84 82q39 55 51 111q-36 -23 -78 -17.5t-68 27.5q-51 41 -51 111z" />
<glyph unicode="&#x2020;" horiz-adv-x="1046" d="M23 944q-3 6 4 6q105 -18 166 -18h194v741q0 6 4 6q116 0 244 -55q31 -13 31 -31q0 -17 -31 -32q-39 -17 -39 -78v-551h123l35 53q15 24 29.5 35t29.5 13.5t38.5 -10t48 -30t65.5 -51.5q35 -31 45.5 -52t-1.5 -30.5t-44 -9.5h-369v-850q0 -17 -10 -27q-53 -53 -115 -53 q-38 0 -61 22t-23 58v850h-190q-73 0 -119 -12q-4 0 -4 2q-2 0 -2 2z" />
<glyph unicode="&#x2021;" horiz-adv-x="1036" d="M23 782q-3 6 4 6q105 -18 166 -18h194v234h-190q-69 0 -119 -13q-4 0 -4 2q-2 0 -2 2l-49 103q-3 6 4 6q111 -19 166 -19h194v588q0 6 4 6q116 0 244 -55q31 -13 31 -31q0 -17 -31 -32q-39 -17 -39 -78v-398h123l35 54q15 24 29.5 35t29.5 13.5t38.5 -10t48 -30 t65.5 -51.5q35 -31 45.5 -52t-1.5 -30.5t-44 -9.5h-369v-234h123l35 53q15 24 29.5 35t29.5 13.5t38.5 -10t48 -30t65.5 -51.5q35 -31 45.5 -52t-1.5 -30.5t-44 -9.5h-369v-688q0 -17 -10 -27q-53 -53 -115 -53q-38 0 -61 22t-23 58v688h-190q-73 0 -119 -12q-4 0 -4 2 q-2 0 -2 2z" />
<glyph unicode="&#x2022;" horiz-adv-x="849" d="M221 614q0 83 60.5 142t144.5 59q85 0 143 -58t58 -143q0 -84 -59 -144t-142 -60t-144 60.5t-61 143.5z" />
<glyph unicode="&#x2026;" horiz-adv-x="2519" d="M266 117q0 63 45.5 108t108.5 45t108 -45t45 -108t-45 -108.5t-108 -45.5t-108.5 45.5t-45.5 108.5zM1106 117q0 63 45.5 108t108.5 45t108 -45t45 -108t-45 -108.5t-108 -45.5t-108.5 45.5t-45.5 108.5zM1946 117q0 63 45 108t108 45t108.5 -45t45.5 -108t-45.5 -108.5 t-108.5 -45.5t-108 45.5t-45 108.5z" />
<glyph unicode="&#x202f;" horiz-adv-x="433" />
<glyph unicode="&#x2030;" horiz-adv-x="1929" d="M70 852.5q12 90.5 47 169.5q42 96 119 169.5t176 84.5q452 106 659 254q7 5 18.5 13t17 12t13.5 9.5t13.5 7.5t12.5 4t14 1.5t14 -2.5q52 -19 36 -68l-565 -1652q-11 -33 -33.5 -41.5t-58.5 -3.5q-31 5 -45 27.5t-4 51.5l532 1543q-68 -48 -152 -88.5t-138 -60 t-140 -46.5q48 -34 71.5 -91t22.5 -126.5t-12.5 -136t-34.5 -138.5q-22 -66 -59 -124t-87 -104t-116 -65t-137 -1q-76 20 -123.5 83t-60 145.5t-0.5 173zM230 808q-11 -88 7 -173t70 -105q74 -29 157.5 46t115.5 202q14 54 22.5 109.5t10.5 118.5t-17.5 111t-60.5 65 q-34 14 -78 4l-41 -21q-76 -49 -152 -217q-23 -52 -34 -140zM912 219.5q12 91.5 49 169.5q18 38 39.5 72.5t52.5 69.5t66 58.5t79.5 41t93.5 16t107 -17.5q67 -22 103.5 -78.5t40 -132t-8.5 -152t-39 -153.5q-22 -66 -58.5 -124.5t-86.5 -104.5t-116.5 -65t-137.5 -1 q-75 19 -122.5 82.5t-60.5 145.5t-1 173.5zM1072 177.5q-11 -87.5 7 -172.5t70 -105q73 -32 156.5 44t115.5 203q14 53 23 108.5t10.5 118t-18 110.5t-60.5 65q-27 13 -54 8t-49.5 -15t-44.5 -32t-39 -44t-33.5 -50.5t-28 -52t-21.5 -48.5q-23 -50 -34 -137.5zM1233 1087.5 q12 91.5 49 169.5q18 38 39.5 72.5t52.5 69.5t66 58.5t79.5 41t93.5 16t107 -17.5q67 -22 103.5 -78.5t40.5 -132t-8 -152t-39 -153.5q-17 -52 -43.5 -100t-63.5 -90.5t-82 -70t-98.5 -38.5t-112.5 4q-75 19 -122.5 82.5t-60.5 145.5t-1 173.5zM1393 1046q-11 -88 7 -173 t70 -105q73 -32 157 44.5t116 203.5q14 53 23 108.5t10.5 118t-18 110t-60.5 64.5q-27 13 -54 8t-49.5 -15t-44.5 -31.5t-39.5 -43.5t-34 -50.5t-28 -52t-21.5 -48.5q-23 -50 -34 -138z" />
<glyph unicode="&#x2039;" horiz-adv-x="1001" d="M309 475q-108 108 0 221l236 248q3 3 6.5 7t5 5t4 2.5t6 2t8.5 0.5h213q7 0 11 -3.5t-4 -13.5l-346 -356l346 -352q9 -10 5.5 -18.5t-12.5 -8.5h-253q-10 0 -13 16q-3 43 -67 107z" />
<glyph unicode="&#x203a;" horiz-adv-x="1001" d="M201 217.5q-3 8.5 6 18.5l346 352l-346 356q-8 10 -4.5 13.5t10.5 3.5h213h9t6 -2t4 -2.5t5.5 -5.5t6.5 -7l235 -248q108 -113 0 -221l-145 -143q-65 -65 -68 -107q-3 -16 -12 -16h-254q-9 0 -12 8.5z" />
<glyph unicode="&#x2044;" horiz-adv-x="942" d="M78 -111l618 1645q12 32 22 39.5t30 1.5q27 -9 10 -66l-535 -1652q-21 -60 -94 -45q-75 15 -51 77z" />
<glyph unicode="&#x205f;" horiz-adv-x="542" />
<glyph unicode="&#x20ac;" horiz-adv-x="1261" d="M-70 1098q-3 6 4 6q111 -19 166 -19h131l211 410h-10q-22 0 -62.5 -8t-60.5 -8l-55 114q11 0 63 -8q55 -8 109 -8h403l54 72q28 39 69 26q74 -19 176 -92q41 -29 52 -49t-4.5 -29.5t-53.5 -9.5h-450l-211 -410h166l35 54q15 24 29 35t29 13.5t38.5 -10t47.5 -30t66 -51.5 q35 -31 45.5 -52t-1.5 -30.5t-44 -9.5h-454l-76 -150q-12 -24 0 -55l59 -133h228l35 53q15 24 29 35t29 13.5t38.5 -10t47.5 -30t66 -51.5q35 -31 45.5 -52t-1.5 -30.5t-44 -9.5h-436l228 -502h168l53 72q28 39 69 26q76 -20 177 -92q41 -29 52 -49t-5 -29.5t-54 -9.5h-632 q-46 0 -50 8q-3 5 0 15q5 18 1 39t-17.5 49.5t-13.5 29.5l-209 443h-99q-68 0 -118 -13q-4 0 -4 2q-2 0 -2 2l-50 103q-3 6 5 6q105 -18 165 -18h66l-37 79q-34 76 -10 123l69 136h-86q-68 0 -118 -13q-4 0 -4 2q-2 0 -2 2z" />
<glyph unicode="&#x2122;" horiz-adv-x="2287" d="M53 1589q-3 6 4 6q105 -18 166 -18h430l54 72q28 39 69 26q74 -19 176 -92q41 -29 52 -49t-4.5 -29.5t-53.5 -9.5h-330v-817q0 -17 -10 -27q-53 -53 -110 -53q-38 0 -59 22t-21 58v817h-189q-72 0 -118 -12q-5 0 -5 2q-2 0 -2 2zM1034 1583l56 72q18 24 32 24 q21 0 37 -22l332 -404v27q0 18 12 24.5t31 -4.5l84 -59q3 -2 8 -5l7.5 -4.5t6.5 -3.5t6.5 -2.5t6 0t6 2t6 5t6.5 8.5l250 344v94q0 7 4 7q106 0 236 -56q30 -13 30 -31q0 -17 -30 -32q-39 -17 -39 -78l2 -793q0 -19 -8.5 -35.5t-38.5 -46.5q-51 -51 -86 -71q-14 -10 -18 -9 t-9 9q-5 7 -16 22.5t-14.5 20t-12.5 15t-14 14t-14.5 10t-20 10t-23.5 6.5l-55 14q-20 6 -20 23q0 18 22 18h119q6 0 6 6v777l-233 -318l2 -459q0 -15 -11 -26q-53 -53 -106 -53q-37 0 -56.5 21.5t-19.5 57.5v451l-215 244q-2 -2 -2 -11v-708q0 -17 -10 -27 q-53 -53 -111 -53q-38 0 -59 22t-21 58v874z" />
<glyph unicode="&#x2202;" horiz-adv-x="1357" d="M100 357q-1 67 21 130t56.5 122t88 119t109.5 111.5t127 108.5l493 395q37 29 57.5 54t24 43t-5.5 30.5t-28.5 18.5t-47.5 6h-479q-52 0 -95 -6t-63 -12.5t-38.5 -14t-22.5 -8.5q-5 0 -6 2l-82 170q-2 3 -1 4t5 0t52 -15t73 -19.5t81 -12t116 -6.5h522q74 0 121.5 -21.5 t62.5 -55t12 -71.5t-24 -73t-51 -58l-326 -249q-7 -7 -2 -15l389 -495q71 -97 64 -190.5t-80 -172.5q-85 -94 -233.5 -152.5t-280.5 -58.5q-495 0 -584 258q-24 67 -25 134zM352 272q43 -108 148 -166.5t233 -58.5q107 0 213.5 49.5t153.5 120.5q66 98 2 182l-389 531 q-8 8 -13 4l-141 -115q-318 -269 -207 -547z" />
<glyph unicode="&#x220f;" horiz-adv-x="1536" d="M150 1673q-3 6 4 6q28 0 136 -51t118 -51h944q31 0 34 -16q2 -12 -34 -48q-39 -37 -39 -77v-1835q0 -18 -10 -34.5t-41 -47.5q-39 -39 -97 -72q-25 -16 -41 0q-34 40 -70 59.5t-89 32.5l-80 21q-21 6 -21 22q0 19 23 19h211q6 0 6 6v1827q0 61 -203 61h-444 q-27 0 -36 -11.5t-9 -37.5v-1895q0 -15 -11 -26q-53 -53 -114 -53q-38 0 -61 22t-23 57v1696q0 251 -53 426z" />
<glyph unicode="&#x2211;" horiz-adv-x="1259" d="M42.5 -543.5q4.5 13.5 20.5 21.5q99 47 251.5 188.5t295 307t263.5 330t169 261.5q2 1 1.5 4t-3.5 4q-65 50 -129 104t-123 111.5t-108.5 107t-103.5 110t-88.5 100t-81.5 98t-65.5 82t-58 74.5t-42.5 55q-10 13 -20.5 22t-25 16t-20.5 9l-24 8q-48 16 53 123 q23 25 50 43.5t50.5 28t44.5 13t35 -1t18 -15.5l31 -78q3 -6 10 -6h449q49 0 91 3t79 11t56 12.5t54 15.5t41 13q5 2 6 0q0 -1 -1 -4l-82 -170q-1 -2 -7 -2q-2 1 -17 5t-28 8t-38 9t-50 8.5t-60 6t-71 2.5h-383q-9 0 -4 -10q73 -147 152.5 -275t161 -230.5t145 -173.5 t141.5 -149q3 -3 5.5 -0.5t2.5 5.5q21 58 21 126q0 9 4 13q5 2 14 -4q38 -25 62 -60q8 -12 8 -39q0 -85 -103.5 -281.5t-271.5 -431.5t-342 -421q-10 -10 4 -10h410q49 0 91 3t79 11t56 12.5t54 15.5t41 13q5 2 6 0q0 -1 -1 -4l-82 -170q-1 -2 -7 -2q-2 1 -17 5t-28 8t-38 9 t-50 8.5t-60 6t-71 2.5h-434q-10 0 -10 -7l-17 -71q-5 -21 -111 -23t-175 21q-44 14 -61.5 32.5t-13 32z" />
<glyph unicode="&#x221a;" horiz-adv-x="1144" d="M14 33q25 84 34.5 119.5t23 107.5t12.5 141t-14 152q-4 27 45.5 38.5t103.5 4.5q47 -6 76.5 -19.5t35 -29t-4.5 -31.5q-38 -60 -56 -96q16 -11 31 -37q117 -224 141 -391l650 1720q13 31 47 23q37 -9 24 -39l-610 -1839q-21 -60 -94 -45q-25 6 -49.5 20.5t-30.5 26.5 q-6 13 1.5 33t4.5 30q-19 69 -35.5 124t-43.5 127t-54.5 102t-50.5 6q-82 -143 -162 -261q-10 -14 -20 -8.5t-5 21.5z" />
<glyph unicode="&#x221e;" horiz-adv-x="2545" d="M92 655q0 103 34.5 192t91 149.5t128 104t146 63.5t145.5 20q101 0 191.5 -30.5t167 -89t136.5 -122t125 -151.5l84 106q216 287 555 287q85 0 164 -17.5t152.5 -58t127 -100t84 -150t27.5 -201.5q-3 -106 -39.5 -195.5t-92.5 -149.5t-126 -102.5t-140.5 -61.5 t-137.5 -19q-69 0 -131.5 16.5t-117 49t-100 69t-93.5 91.5t-82 100.5t-80 111.5q-57 -71 -107 -141q-223 -297 -557 -297q-84 0 -162 17.5t-150.5 58t-125.5 99.5t-85 149.5t-32 201.5zM301 655q0 -106 33.5 -192.5t89 -140t124 -82.5t142.5 -29q91 0 158 54t153 171 q32 43 100 138.5t105 144.5q-49 69 -90 119t-96 103t-108.5 86t-122 54t-142.5 21q-107 0 -187 -60.5t-119.5 -161t-39.5 -225.5zM1366 639q40 -56 59.5 -83t57.5 -76t62 -74.5t60.5 -62.5t66.5 -56t67.5 -39t76.5 -28.5t80 -8.5q107 0 187 60t120 160.5t40 225.5 q0 106 -33.5 192.5t-89.5 140.5t-124.5 83t-142.5 29q-91 0 -158 -54t-153 -171q-60 -87 -176 -238z" />
<glyph unicode="&#x222b;" horiz-adv-x="946" d="M158 -389q0 18 22 18h193q6 0 6 6v1371q0 11 6 20q50 80 68 113q5 8 2 14q-85 129 -297 412q-9 12 6 12h387q10 0 16 6l37 31q32 25 58 16q14 -4 58 -41t60 -57q30 -37 -12 -37h-346q-7 0 -4 -6l96 -254q2 -7 8 -2l53 76q9 14 21 2q11 -12 28 -41t21 -45q5 -20 -2 -27 q-25 -26 -32.5 -35t-15 -27t-7.5 -42v-1465q0 -18 -10 -34.5t-41 -47.5q-36 -36 -97 -71q-25 -16 -41 0q-37 43 -65.5 61.5t-75.5 30.5l-80 20q-20 6 -20 23z" />
<glyph unicode="&#x2260;" horiz-adv-x="1302" d="M156 434q-3 6 4 6q105 -18 166 -18h155l133 233h-284q-73 0 -119 -12q-4 0 -4 2q-2 0 -2 2l-49 103q-3 6 4 6q111 -19 166 -19h333l181 316q17 31 45 22q13 -7 16.5 -20t-4.5 -25l-145 -293h100l35 54q15 24 29.5 35t29.5 13.5t38.5 -10t48 -30t65.5 -51.5 q35 -31 45.5 -52t-1.5 -31t-44 -10h-385l-117 -233h256l35 53q15 24 29.5 35t29.5 13.5t38.5 -10t48 -30t65.5 -51.5q35 -31 45.5 -52t-1.5 -30.5t-44 -9.5h-541l-137 -279q-19 -51 -80 -36q-32 6 -44.5 22.5t-0.5 42.5l141 250h-106q-73 0 -119 -12q-4 0 -4 2q-2 0 -2 2z " />
<glyph unicode="&#x2264;" horiz-adv-x="1134" d="M119 639.5q-2 10.5 10 19.5l471 500q8 8 23 8h221q14 0 4 -10l-453 -471l596 -606q28 -29 24 -47t-17.5 -25.5t-30.5 -7.5h-664q-73 0 -119 -12q-4 0 -6 4l-49 102q-3 6 4 6q105 -18 166 -18h410q7 0 12 3t3 13.5t-19 26.5l-474 471q-33 33 -86 33q-24 0 -26 10.5z" />
<glyph unicode="&#x2265;" horiz-adv-x="980" d="M-15 5q0 4 5 9l536 672l-452 471q-10 10 4 10h221q15 0 23 -8l471 -500q12 -9 9.5 -19.5t-26.5 -10.5q-63 0 -86 -33l-393 -492q-17 -22 8 -22h260q10 0 13 6l49 72q15 20 33.5 22t55.5 -20.5t95 -75.5q86 -80 18 -86h-12h-825q-7 0 -7 5z" />
<glyph unicode="&#x25ca;" horiz-adv-x="1374" d="M55.5 717.5q-1.5 4.5 1.5 9.5l445 862l6 4q28 -11 58 -13.5t120 -2.5t120 2.5t58 13.5l6 -4l332 -645q9 -19 24 -24t40 -5h43q6 0 7.5 -4.5t-1.5 -9.5l-367 -760q-2 -4 -9.5 -18t-11.5 -22.5t-10.5 -25t-6.5 -26.5t1 -26q4 -16 -5 -19.5t-44 -3.5h-352q-20 0 -27 0.5 t-16 2.5t-7 6.5t1 13.5q2 8 2 17.5t-2 20t-4 18t-7 19t-7 16t-7.5 15.5t-5.5 12l-260 543q-5 11 -11.5 17.5t-17.5 8.5t-15.5 2.5t-19.5 0.5h-43q-6 0 -7.5 4.5zM336 823l340 -735l10 -6q7 0 10 6l340 735q3 5 0 11l-340 655q-4 6 -10 6t-10 -6l-340 -655q-3 -6 0 -11z" />
<glyph unicode="&#x25fc;" horiz-adv-x="1249" d="M0 0v1249h1249v-1249h-1249z" />
</font>
</defs>
</svg>
