<?xml version="1.0" standalone="no"?>
<!DOCTYPE svg PUBLIC "-//W3C//DTD SVG 1.1//EN" "http://www.w3.org/Graphics/SVG/1.1/DTD/svg11.dtd" >
<svg xmlns="http://www.w3.org/2000/svg" xmlns:xlink="http://www.w3.org/1999/xlink" version="1.1">
<metadata></metadata>
<defs>
<font id="augustheavy" horiz-adv-x="1148" >
<font-face units-per-em="2048" ascent="1536" descent="-512" />
<missing-glyph horiz-adv-x="614" />
<glyph unicode="&#xfb01;" horiz-adv-x="1198" d="M0 717v250q0 8 8 8h162q6 0 6 6v106q0 181 90.5 270t245.5 89q60 0 104.5 -11t100.5 -38q8 -4 20 -4h336q8 0 8 -9v-272q0 -8 -8 -8h-340q-8 0 -8 8v12q0 31 -29 49.5t-67 18.5q-54 0 -80.5 -24t-26.5 -81v-106q0 -6 6 -6h545q8 0 8 -8v-959q0 -8 -8 -8h-340q-8 0 -8 8 v697q0 4 -6 4h-191q-6 0 -6 -7q0 -8 2 -106t2 -178v-410q0 -8 -8 -8h-338q-8 0 -8 8v410q0 80 2 178t2 106q0 7 -6 7h-162q-8 0 -8 8z" />
<glyph unicode="&#xfb02;" horiz-adv-x="1193" d="M0 717v250q0 8 8 8h162q6 0 6 6v106q0 181 90.5 270t245.5 89q110 0 211 -49q8 -4 14 -4h336q8 0 8 -9v-1376q0 -8 -8 -8h-340q-8 0 -8 8v697q0 4 -6 4h-191q-6 0 -6 -7q0 -8 2 -106t2 -178v-410q0 -8 -8 -8h-338q-8 0 -8 8v410q0 80 2 178t2 106q0 7 -6 7h-162 q-8 0 -8 8zM522 981q0 -6 6 -6h193q4 0 4 6v106q0 58 -25 81.5t-77 23.5q-50 0 -75.5 -24.5t-25.5 -80.5v-106z" />
<glyph horiz-adv-x="0" />
<glyph horiz-adv-x="682" />
<glyph unicode=" "  horiz-adv-x="614" />
<glyph unicode="&#x09;" horiz-adv-x="614" />
<glyph unicode="&#xa0;" horiz-adv-x="614" />
<glyph unicode="!" horiz-adv-x="647" d="M133 1384q0 9 8 9h365q8 0 8 -9q0 -210 -34 -572t-34 -411q0 -8 -8 -8h-223q-8 0 -8 8q0 48 -37 410t-37 573zM162 8v266q0 9 8 9h307q8 0 8 -9v-266q0 -8 -8 -8h-307q-5 0 -6.5 1t-1.5 7z" />
<glyph unicode="&#x22;" horiz-adv-x="1040" d="M98 1196v188q0 9 8 9h351q8 0 8 -9v-188l-88 -440q0 -8 -8 -8h-174q-9 0 -9 8zM575 1196v188q0 9 9 9h350q8 0 8 -9v-188l-88 -440q0 -8 -8 -8h-174q-5 0 -6.5 1t-1.5 7z" />
<glyph unicode="#" horiz-adv-x="1460" d="M78 383l10 229q0 9 8 9h240q8 0 8 8l8 139q0 8 -8 8h-240q-8 0 -8 8l10 230q0 8 9 8h250q8 0 8 8l22 354q0 9 8 9h275q8 0 8 -9l-22 -354q0 -8 8 -8h143q8 0 8 8l23 354q0 9 8 9h276q9 0 9 -9l-23 -354q0 -8 8 -8h250q8 0 8 -8l-10 -230q0 -8 -8 -8h-260q-8 0 -8 -8 l-9 -139q0 -8 9 -8h260q8 0 8 -9l-10 -229q0 -8 -8 -8h-269q-8 0 -8 -8l-22 -359q0 -8 -9 -8h-276q-8 0 -8 8l24 359q0 8 -8 8h-145q-9 0 -9 -8l-22 -359q0 -8 -8 -8h-275q-8 0 -8 8l25 359q0 8 -9 8h-233q-8 0 -8 8zM635 629q0 -8 8 -8h143q9 0 9 8l10 139q0 8 -8 8h-144 q-8 0 -8 -8z" />
<glyph unicode="$" horiz-adv-x="1316" d="M66 436q0 6 4 8h366q10 0 10 -8q0 -94 63.5 -149.5t176.5 -55.5q88 0 132 40.5t44 93.5q0 56 -31 88.5t-100 56.5q-236 83 -321 115q-312 118 -312 399q0 154 106.5 262t278.5 144q4 4 4 10v157q0 9 9 9h305q8 0 8 -9v-155q0 -9 8 -12q104 -21 184 -66.5t127.5 -106.5 t71 -130t23.5 -144q0 -8 -6 -8h-367q-10 0 -10 8q0 96 -52.5 144.5t-144.5 48.5q-69 0 -116.5 -33.5t-47.5 -89.5q0 -48 29.5 -78.5t105.5 -56.5l244 -89q205 -66 296 -170t91 -260q0 -169 -116.5 -282t-315.5 -144q-4 -2 -4 -10v-164q0 -8 -8 -8h-305q-9 0 -9 8v168 q0 9 -4 13q-190 38 -303.5 156t-113.5 300z" />
<glyph unicode="%" horiz-adv-x="1822" d="M78 1075q0 167 111.5 269t267.5 102q75 0 143.5 -25.5t121.5 -72t84.5 -117.5t31.5 -156q0 -111 -54 -196.5t-140 -128.5t-187 -43q-156 0 -267.5 100.5t-111.5 267.5zM240 6q25 33 111.5 148t113 149.5t102.5 135.5t106 142t96 130.5t101 138t92.5 128t98 138.5 t89.5 130.5t95 139.5q5 7 10 7h318q7 0 4 -7q-377 -490 -1008 -1380q-3 -6 -12 -6h-313q-7 0 -4 6zM338 1075q0 -67 33 -106t86 -39t87 39.5t34 105.5q0 68 -34 108t-87 40t-86 -40t-33 -108zM985 330q0 167 111.5 268.5t267.5 101.5q101 0 187 -43t140 -129t54 -198 q0 -111 -54 -197t-140 -129t-187 -43q-156 0 -267.5 101t-111.5 268zM1245 330q0 -67 33 -106.5t86 -39.5t87 39.5t34 106.5q0 68 -33.5 107.5t-87.5 39.5q-53 0 -86 -39.5t-33 -107.5z" />
<glyph unicode="&#x26;" horiz-adv-x="1488" d="M78 371q0 264 309 385q4 1 2 3l-2 3q-86 97 -127 168t-41 149q0 159 132.5 263t338.5 104q209 0 347.5 -92.5t138.5 -227.5q0 -77 -23 -143t-66 -118t-92.5 -91t-113.5 -76q-3 -1 -3.5 -4t1.5 -4l131 -151q3 -3 6 2q31 64 31 110q0 8 6 8h299q8 0 8 -8 q-8 -106 -47.5 -198.5t-85.5 -157.5q-1 -1 -1 -5t1 -5l237 -277q3 -3 1.5 -5.5t-5.5 -2.5h-409q-9 0 -13 4l-49 57q-3 3 -6 0q-139 -100 -352 -100q-260 0 -406.5 111.5t-146.5 298.5zM459 369q0 -64 48.5 -101t125.5 -37q87 0 147 64q4 4 2 8l-184 213q-6 6 -10 4 q-7 -5 -29.5 -18.5t-36 -23.5t-30 -26t-25 -37t-8.5 -46zM590 1081q0 -42 19 -73t66 -83q9 -9 13 -14q4 -4 8 0q97 67 97 162q0 103 -103 103q-41 0 -70.5 -26t-29.5 -69z" />
<glyph unicode="'" horiz-adv-x="563" d="M98 1196v188q0 9 8 9h351q8 0 8 -9v-188l-88 -440q0 -8 -8 -8h-174q-9 0 -9 8z" />
<glyph unicode="(" horiz-adv-x="856" d="M113 571q0 140 33 271.5t80.5 225t109.5 176.5t109 128.5t90 77.5q8 6 16 6h283q4 0 5 -3t-1 -5q-47 -50 -85 -96t-90 -130t-86.5 -172t-59.5 -214.5t-25 -264.5q0 -507 346 -870q3 -3 1 -5.5t-5 -2.5h-283q-8 0 -16 6q-42 31 -90 78t-109.5 130t-109 176t-80.5 222.5 t-33 265.5z" />
<glyph unicode=")" horiz-adv-x="856" d="M17.5 -304.5q-2.5 2.5 0.5 5.5q347 364 347 870q0 138 -25 264.5t-60 214.5t-87 172.5t-89.5 130t-85.5 95.5q-2 2 -0.5 5t5.5 3h282q9 0 17 -6q43 -32 90 -78t109 -128.5t109 -176t80 -225t33 -271.5q0 -136 -33 -265.5t-80.5 -222.5t-108.5 -176t-109 -130t-90 -78 q-8 -6 -17 -6h-282q-3 0 -5.5 2.5z" />
<glyph unicode="*" horiz-adv-x="1017" d="M74 977l86 260q3 8 10 4l199 -78q6 -3 6 2l-10 217q0 11 10 11h266q10 0 10 -11l-10 -217q0 -5 6 -2l199 80q10 5 14 -4l84 -258q2 -9 -4 -12l-209 -60q-3 0 -4 -2.5t2 -5.5l129 -162q5 -7 -2 -14l-217 -158q-7 -7 -12 2l-117 179q-3 6 -6 0l-115 -177q-3 -6 -16 0 l-215 158q-7 7 0 14l131 160q3 3 1.5 5.5t-3.5 2.5l-207 54q-9 2 -6 12z" />
<glyph unicode="+" horiz-adv-x="1144" d="M109 563v281q0 10 10 10h293q10 0 10 10v316q0 10 10 10h281q10 0 10 -10v-316q0 -10 10 -10h293q10 0 10 -10v-281q0 -10 -10 -10h-293q-10 0 -10 -10v-318q0 -10 -10 -10h-281q-10 0 -10 10v318q0 10 -10 10h-293q-10 0 -10 10z" />
<glyph unicode="," horiz-adv-x="671" d="M147 8v348q0 9 9 9h360q8 0 8 -9v-239q0 -87 -10 -164.5t-36 -153.5t-66.5 -130.5t-106 -88t-149.5 -33.5q-9 0 -9 9v168q0 8 9 8q80 0 121.5 68.5t41.5 191.5q0 8 -8 8h-155q-9 0 -9 8z" />
<glyph unicode="-" horiz-adv-x="806" d="M113 348v281q0 10 12 10h557q12 0 12 -10v-281q0 -10 -12 -10h-557q-12 0 -12 10z" />
<glyph unicode="." horiz-adv-x="671" d="M147 8v348q0 9 9 9h360q8 0 8 -9v-348q0 -8 -8 -8h-360q-9 0 -9 8z" />
<glyph unicode="/" horiz-adv-x="972" d="M-4 6q313 630 666 1380q5 7 10 7h301q7 0 4 -7q-369 -724 -668 -1380q-3 -6 -12 -6h-297q-7 0 -4 6z" />
<glyph unicode="0" horiz-adv-x="1409" d="M102 479v475q0 141 78.5 254t216.5 175.5t308 62.5q259 0 430.5 -139t171.5 -353v-475q0 -107 -40 -200.5t-114.5 -164.5t-190 -112t-257.5 -41q-140 0 -255 41t-190.5 112t-116.5 164.5t-41 200.5zM481 489q0 -123 64 -190.5t160 -67.5t159.5 66.5t63.5 187.5v420 q0 138 -63.5 204.5t-159.5 66.5t-160 -66.5t-64 -204.5v-416z" />
<glyph unicode="1" horiz-adv-x="888" d="M143 948v228q0 7 7 12l544 256q11 6 11 -4v-1432q0 -8 -9 -8h-364q-8 0 -8 8v1008q0 2 -2 3.5t-5 0.5l-163 -76q-3 -2 -7 -1t-4 5z" />
<glyph unicode="2" horiz-adv-x="1271" d="M123 8v223q0 164 77 263t300 211q161 81 219.5 145.5t58.5 167.5q0 73 -36.5 115.5t-100.5 42.5q-65 0 -102 -51.5t-37 -145.5v-31q0 -8 -8 -8h-363q-8 0 -8 8v39q0 68 18.5 132.5t60 124.5t102 104.5t151 71t200.5 26.5q230 0 374.5 -117t144.5 -285q0 -91 -30 -166.5 t-95 -144t-153.5 -129t-219.5 -129.5q-110 -58 -141 -92.5t-31 -83.5v-20q0 -9 8 -9h639q8 0 8 -8v-254q0 -8 -8 -8h-1020q-8 0 -8 8z" />
<glyph unicode="3" horiz-adv-x="1337" d="M98 389v64q0 8 8 8h365q8 0 8 -8v-29q0 -193 180 -193q77 0 124.5 51t47.5 130q0 91 -53.5 137.5t-140.5 46.5h-98q-9 0 -9 8v254q0 8 9 8h75q91 0 142 43.5t51 122.5q0 57 -44.5 100.5t-103.5 43.5q-80 0 -125 -46.5t-45 -107.5v-25q0 -8 -8 -8h-364q-8 0 -8 8v35 q0 117 71.5 212.5t191.5 148.5t263 53q253 0 404 -107.5t151 -294.5q0 -111 -68.5 -190.5t-165.5 -110.5q-2 0 -2 -2t2 -2q113 -29 185.5 -119.5t72.5 -201.5q0 -195 -157.5 -326t-423.5 -131q-240 0 -387.5 121t-147.5 307z" />
<glyph unicode="4" horiz-adv-x="1372" d="M57 301v215q0 8 4 16l519 854q4 7 10 7h514q8 0 8 -9v-813q0 -8 8 -8h176q9 0 9 -8v-254q0 -8 -9 -8h-176q-8 0 -8 -8v-277q0 -8 -8 -8h-367q-8 0 -8 8v277q0 8 -8 8h-655q-9 0 -9 8zM440 566q0 -3 4 -3h277q8 0 8 8v246q0 119 6 248q-1 4 -4 0l-289 -494q-2 -2 -2 -5z " />
<glyph unicode="5" horiz-adv-x="1333" d="M123 401q0 11 6 11h354q11 0 11 -6q3 -75 44 -125t119 -50q92 0 136.5 58.5t44.5 193.5q0 59 -12.5 102t-30 65.5t-44.5 35.5t-48.5 16t-49.5 3q-49 0 -84.5 -27t-44.5 -57q-4 -7 -8 -7h-354q-8 0 -8 9l94 761q0 9 8 9h870q9 0 9 -9v-254q0 -8 -9 -8h-548q-7 0 -7 -6 l-26 -203q0 -6 4 -2q54 64 192 64q480 0 480 -483q0 -145 -40 -249t-117 -165t-179.5 -89t-237.5 -28q-237 0 -372 112t-152 328z" />
<glyph unicode="6" horiz-adv-x="1423" d="M123 614q0 190 36 337.5t95 239t143.5 150.5t173 82t191.5 23q246 0 372 -102t144 -275q0 -6 -8 -6h-330q-6 0 -8 6q-7 40 -52.5 73.5t-129.5 33.5q-114 0 -184 -83.5t-83 -261.5q0 -8 6 -2q52 56 122.5 90.5t183.5 34.5q254 0 395 -121.5t141 -365.5q0 -246 -150.5 -376 t-428.5 -130q-307 0 -468 155t-161 498zM506 467q0 -236 223 -236q111 0 168 55t57 181q0 217 -227 217q-95 0 -158 -53t-63 -164z" />
<glyph unicode="7" horiz-adv-x="1083" d="M37 1130v254q0 9 8 9h995q9 0 9 -9v-235q0 -5 -7 -12q-210 -171 -299.5 -440.5t-89.5 -688.5q0 -8 -8 -8h-364q-9 0 -9 8q0 300 102 590t277 520q2 4 -2 4h-604q-8 0 -8 8z" />
<glyph unicode="8" horiz-adv-x="1384" d="M113 408q0 128 86.5 226t201.5 124q2 2 0 4q-243 97 -243 303q0 110 73 198t194.5 135.5t266.5 47.5t267 -47.5t195 -135.5t73 -198q0 -206 -244 -303q-2 -2 0 -4q115 -26 202 -124t87 -226q0 -87 -34 -164.5t-102 -142t-182.5 -102.5t-261.5 -38t-261.5 38t-182 102.5 t-101.5 142t-34 164.5zM494 412q0 -96 54.5 -159t143.5 -63t144 63t55 159q0 102 -52 164.5t-147 62.5q-94 0 -146 -62t-52 -165zM539 1042q0 -74 41.5 -128t111.5 -54t112 54.5t42 127.5q0 80 -40.5 127.5t-113.5 47.5t-113 -47t-40 -128z" />
<glyph unicode="9" horiz-adv-x="1423" d="M96 948q0 235 151 366.5t427 131.5q326 0 476 -176t150 -533q0 -776 -628 -776q-233 0 -366 105t-161 272q-2 7 7 6h2h329q7 0 9 -6q8 -47 55 -77t139 -30q135 0 193 85.5t61 258.5q0 9 -6 3q-102 -125 -322 -125q-246 0 -381 125t-135 370zM475 948q0 -225 221 -225 q37 0 74.5 13t71.5 39t55 71t21 102q0 113 -64.5 170.5t-159.5 57.5q-219 0 -219 -228z" />
<glyph unicode=":" horiz-adv-x="671" d="M147 8v348q0 9 9 9h360q8 0 8 -9v-348q0 -8 -8 -8h-360q-9 0 -9 8zM147 618v349q0 8 9 8h360q8 0 8 -8v-349q0 -8 -8 -8h-360q-9 0 -9 8z" />
<glyph unicode=";" horiz-adv-x="671" d="M147 8v348q0 9 9 9h360q8 0 8 -9v-239q0 -87 -10 -164.5t-36 -153.5t-66.5 -130.5t-106 -88t-149.5 -33.5q-9 0 -9 9v168q0 8 9 8q80 0 121.5 68.5t41.5 191.5q0 8 -8 8h-155q-9 0 -9 8zM147 618v349q0 8 9 8h360q8 0 8 -8v-349q0 -8 -8 -8h-360q-9 0 -9 8z" />
<glyph unicode="&#x3c;" horiz-adv-x="1177" d="M98 563v277q0 9 8 12l992 391h4q4 0 4 -6v-299q0 -7 -8 -10l-633 -219q-6 -3 -5.5 -7t5.5 -6l633 -219q8 -3 8 -10v-299q0 -6 -4 -6h-4l-992 389q-8 3 -8 12z" />
<glyph unicode="=" horiz-adv-x="1218" d="M113 358v256q0 9 8 9h977q8 0 8 -9v-256q0 -8 -8 -8h-977q-8 0 -8 8zM113 774v256q0 8 8 8h977q8 0 8 -8v-256q0 -8 -8 -8h-977q-8 0 -8 8z" />
<glyph unicode="&#x3e;" horiz-adv-x="1177" d="M72 168v299q0 7 8 10l633 219q5 2 5.5 6t-5.5 7l-633 219q-8 3 -8 10v299q0 6 4 6h4l991 -391q8 -3 8 -12v-277q0 -9 -8 -12l-991 -389h-4q-4 0 -4 6z" />
<glyph unicode="?" horiz-adv-x="1128" d="M27 952v78q0 79 40 154t109 133t171 93.5t218 35.5q134 0 252 -48t194 -143t76 -217q0 -61 -10.5 -110t-38.5 -103.5t-85.5 -104t-143.5 -91.5q-57 -28 -81.5 -61.5t-31.5 -73.5l-12 -84q0 -11 -10 -11h-305q-11 0 -11 11l-14 96q-19 113 29.5 176.5t177.5 120.5 q80 34 117 88.5t37 114.5q0 170 -142 170q-59 0 -107 -39t-48 -119v-66q0 -10 -11 -10h-360q-10 0 -10 10zM358 8v266q0 9 9 9h307q8 0 8 -9v-266q0 -8 -8 -8h-307q-9 0 -9 8z" />
<glyph unicode="@" horiz-adv-x="1771" d="M109 485q0 172 66 323.5t177.5 256.5t261.5 166t314 61q177 0 323.5 -61t242 -164.5t148 -239.5t52.5 -288q0 -222 -111 -347.5t-278 -125.5q-82 0 -137 37.5t-72 80.5q-2 4 -4.5 3.5t-4.5 -3.5q-33 -61 -104.5 -98t-181.5 -37q-128 0 -210.5 82.5t-82.5 183.5 q0 121 78.5 195.5t199.5 85.5l236 20q10 0 10 9v18q0 54 -29.5 81.5t-76.5 27.5q-84 0 -105 -76q-2 -6 -8 -6h-264q-13 0 -10 8q21 111 121 189.5t266 78.5q91 0 163.5 -31.5t116.5 -85t67 -119t23 -137.5v-233q0 -74 54 -74q42 0 70 62.5t28 187.5q0 113 -34 211.5t-98 174 t-165 118.5t-227 43q-260 0 -418 -155.5t-158 -422.5t152 -410t422 -143q90 0 163 16.5t150 63.5q7 7 12 -2l92 -174q6 -6 -2 -12q-81 -61 -189.5 -91t-221.5 -30q-241 0 -426 96t-288 274.5t-103 411.5zM793 330q0 -66 90 -66q71 0 110 38.5t39 92.5v37q0 4 -4 4 q-8 -1 -55.5 -7t-89.5 -13q-90 -18 -90 -86z" />
<glyph unicode="A" horiz-adv-x="1468" d="M4 6l502 1380q4 7 8 7h432q4 0 8 -7l512 -1380q0 -6 -4 -6h-393q-6 0 -8 6l-88 295q-3 6 -8 6h-467q-6 0 -9 -6l-88 -295q-2 -6 -8 -6h-385q-7 0 -4 6zM573 584q-3 -6 5 -6h307q7 0 4 6l-156 516q0 2 -2 2t-2 -2z" />
<glyph unicode="B" horiz-adv-x="1372" d="M147 6v1380q0 7 7 7h585q154 0 270 -35.5t187.5 -115.5t71.5 -198q0 -65 -24 -121t-62.5 -93.5t-81 -61.5t-86.5 -35q-3 -1 -3.5 -3t0.5 -3.5t3 -1.5q57 -13 106.5 -36.5t91.5 -58.5t66.5 -87t24.5 -115q0 -91 -30.5 -164.5t-82.5 -122t-125.5 -81t-155.5 -46.5t-176 -14 h-579q-7 0 -7 6zM528 276q0 -6 7 -6h210q80 0 127.5 41.5t47.5 114.5q0 80 -46.5 118t-128.5 38h-210q-7 0 -7 -7v-299zM528 858q0 -6 7 -6h206q65 0 104.5 36.5t39.5 100.5q0 57 -37.5 95t-106.5 38h-206q-7 0 -7 -6v-258z" />
<glyph unicode="C" horiz-adv-x="1538" d="M119 586v250q0 280 184.5 445t497.5 165q131 0 247.5 -36t205.5 -102t140.5 -168t51.5 -227q0 -8 -6 -8h-373q-8 0 -8 6q0 116 -79.5 190.5t-178.5 74.5q-133 0 -218 -99t-85 -291v-176q0 -184 84 -281.5t223 -97.5q99 0 175.5 69.5t76.5 172.5q0 10 10 10h371q4 0 4 -8 q-25 -248 -187.5 -381t-449.5 -133q-172 0 -304.5 46.5t-215 131t-124.5 197.5t-42 250z" />
<glyph unicode="D" horiz-adv-x="1480" d="M147 8v1376q0 9 9 9h532q163 0 287.5 -32.5t215 -100.5t137 -180.5t46.5 -266.5v-248q0 -297 -175.5 -431t-508.5 -134h-534q-9 0 -9 8zM528 279q0 -9 9 -9h163q131 0 211 81.5t80 260.5v183q0 159 -83 243t-214 84h-157q-9 0 -9 -8v-835z" />
<glyph unicode="E" horiz-adv-x="1255" d="M147 8v1376q0 9 9 9h1022q8 0 8 -9v-254q0 -8 -8 -8h-641q-9 0 -9 -8v-246q0 -8 9 -8h571q8 0 8 -8v-254q0 -8 -8 -8h-571q-9 0 -9 -8v-303q0 -9 9 -9h653q8 0 8 -8v-254q0 -8 -8 -8h-1034q-9 0 -9 8z" />
<glyph unicode="F" horiz-adv-x="1226" d="M147 8v1376q0 9 9 9h1022q8 0 8 -9v-254q0 -8 -8 -8h-641q-9 0 -9 -8v-246q0 -8 9 -8h571q8 0 8 -8v-254q0 -8 -8 -8h-571q-9 0 -9 -8v-574q0 -8 -8 -8h-364q-9 0 -9 8z" />
<glyph unicode="G" horiz-adv-x="1587" d="M119 586v237q0 287 189.5 455t504.5 168q177 0 324 -54t239 -164.5t92 -258.5q0 -8 -6 -8h-372q-9 0 -9 6q-13 99 -91 154t-177 55q-64 0 -119.5 -22t-100 -66t-70 -118.5t-25.5 -172.5v-187q0 -183 91 -281t232 -98q293 0 293 256q0 9 -8 9h-279q-8 0 -8 8v254q0 8 8 8 h641q9 0 9 -8v-207q0 -284 -173 -437t-483 -153q-159 0 -291.5 47t-222 130t-139 198.5t-49.5 249.5z" />
<glyph unicode="H" horiz-adv-x="1544" d="M154 8v1376q0 9 8 9h364q9 0 9 -9v-522q0 -8 8 -8h456q9 0 9 8v522q0 9 8 9h366q9 0 9 -9v-1376q0 -8 -9 -8h-366q-8 0 -8 8v567q0 9 -9 9h-456q-8 0 -8 -9v-567q0 -8 -9 -8h-364q-8 0 -8 8z" />
<glyph unicode="I" horiz-adv-x="688" d="M154 8v1376q0 9 8 9h364q9 0 9 -9v-1376q0 -8 -9 -8h-364q-8 0 -8 8z" />
<glyph unicode="J" horiz-adv-x="1189" d="M31 455q0 8 6 8h369q6 0 6 -8q0 -31 3 -59t11.5 -59.5t23 -53.5t39.5 -37t58 -15q54 0 84.5 38t30.5 110v1005q0 9 8 9h364q8 0 8 -9v-909q0 -257 -135 -385.5t-370 -128.5q-135 0 -235.5 38.5t-158 108t-85 156t-27.5 191.5z" />
<glyph unicode="K" horiz-adv-x="1454" d="M154 8v1376q0 9 8 9h364q9 0 9 -9v-546q0 -8 6 -2l442 550q5 7 8 7h424q4 0 5.5 -3t-1.5 -6l-485 -538q-4 -4 0 -8l512 -830q4 -8 -4 -8h-422q-8 0 -12 6l-314 561q-3 3 -6 0l-149 -170q-4 -4 -4 -10v-379q0 -8 -9 -8h-364q-8 0 -8 8z" />
<glyph unicode="L" horiz-adv-x="1214" d="M154 8v1376q0 9 8 9h364q9 0 9 -9v-1105q0 -9 8 -9h643q8 0 8 -8v-254q0 -8 -8 -8h-1024q-8 0 -8 8z" />
<glyph unicode="M" horiz-adv-x="1912" d="M154 8v1376q0 9 8 9h497q11 0 13 -9l280 -905q4 -5 9 0l278 905q2 9 12 9h500q8 0 8 -9v-1376q0 -8 -8 -8h-365q-8 0 -8 8v221q0 235 8 421.5t16 255.5l9 69q0 3 -2 3t-2 -3l-295 -967q-3 -8 -8 -8h-295q-5 0 -8 8l-295 967q0 3 -2 3t-2 -3q33 -219 33 -746v-221 q0 -8 -9 -8h-364q-8 0 -8 8z" />
<glyph unicode="N" horiz-adv-x="1595" d="M154 8v1376q0 9 8 9h354q6 0 12 -9l541 -819q4 -8 4 0q-12 58 -12 232v589q0 7 6 7h367q8 0 8 -9v-1376q0 -8 -8 -8h-355q-7 0 -12 8l-541 852q-4 7 -4 3q-1 -1 0 -3q13 -38 13 -231v-623q0 -6 -7 -6h-366q-8 0 -8 8z" />
<glyph unicode="O" horiz-adv-x="1634" d="M119 602v215q0 192 88.5 335.5t246 218.5t363.5 75q316 0 507.5 -169t191.5 -460v-215q0 -289 -192 -465t-507 -176t-506.5 176t-191.5 465zM498 627q0 -189 85 -292.5t234 -103.5t234.5 103.5t85.5 292.5v141q0 195 -88.5 301.5t-231.5 106.5t-231 -106.5t-88 -301.5 v-141z" />
<glyph unicode="P" horiz-adv-x="1421" d="M154 8v1376q0 9 8 9h657q274 0 407.5 -128.5t133.5 -355.5q0 -225 -136 -350t-421 -125h-260q-8 0 -8 -8v-418q0 -8 -9 -8h-364q-8 0 -8 8zM535 713q0 -8 8 -8h196q106 0 172 52t66 156q0 103 -66.5 156t-171.5 53h-196q-8 0 -8 -8v-401z" />
<glyph unicode="Q" horiz-adv-x="1679" d="M119 602v215q0 189 100 334.5t263 220t358 74.5t358 -74.5t263 -220t100 -334.5v-215q0 -128 -58 -241.5t-133 -174.5q-4 -4 0 -8l182 -211q6 -6 -2 -6h-352q-8 0 -14 6l-51 62q-5 2 -7 0q-51 -31 -129.5 -49.5t-156.5 -18.5q-197 0 -361 79t-262 226.5t-98 335.5z M498 639q0 -187 95.5 -297.5t246.5 -110.5q62 0 90 11q5 3 2 6l-258 293q-3 3 -1.5 6.5t5.5 3.5h362q9 0 11 -4l79 -98q4 -3 9 2q12 14 27.5 75.5t15.5 112.5v127q0 111 -27 192.5t-75.5 127.5t-108 68t-131.5 22t-131.5 -22.5t-108 -69.5t-75.5 -128.5t-27 -189.5v-127z " />
<glyph unicode="R" horiz-adv-x="1447" d="M154 8v1376q0 9 8 9h581q586 0 586 -398q0 -142 -79 -223t-210 -108q-6 0 -6 -4t6 -5q141 -25 217 -94.5t76 -204.5v-163q0 -129 70 -185q3 -2 2 -5t-4 -3h-402q-4 0 -6 4l-5 9q-5 9 -7 14t-6.5 18t-7 25t-4.5 31t-2 40v144q0 125 -68 178t-203 53h-147q-8 0 -8 -8v-500 q0 -8 -9 -8h-364q-8 0 -8 8zM535 795q0 -9 8 -9h176q227 0 227 172q0 78 -56.5 122t-158.5 44h-188q-8 0 -8 -8v-321z" />
<glyph unicode="S" horiz-adv-x="1316" d="M66 436q0 6 4 8h366q10 0 10 -8q0 -94 63.5 -149.5t176.5 -55.5q88 0 132 40.5t44 93.5q0 56 -31 88.5t-100 56.5q-236 83 -321 115q-312 118 -312 399q0 126 73 223t196.5 148t275.5 51q150 0 265 -40t182 -107t100 -147t33 -169q0 -8 -6 -8h-367q-10 0 -10 8 q0 96 -52.5 144.5t-144.5 48.5q-69 0 -116.5 -33.5t-47.5 -89.5q0 -48 29.5 -78.5t105.5 -56.5l244 -89q205 -66 296 -170t91 -260q1 -201 -163 -321q-159 -117 -416 -117h-13q-167 2 -298 56t-210 162.5t-79 256.5z" />
<glyph unicode="T" horiz-adv-x="1157" d="M12 1128v256q0 9 8 9h1117q8 0 8 -9v-256q0 -8 -8 -8l-361 2q-8 0 -8 -8v-1106q0 -8 -8 -8h-367q-8 0 -8 8v1106q0 8 -8 8l-357 -2q-8 0 -8 8z" />
<glyph unicode="U" horiz-adv-x="1556" d="M147 508v874q0 11 11 11h360q10 0 10 -11v-911q0 -111 66 -175.5t184 -64.5t184 64.5t66 175.5v911q0 11 10 11h361q10 0 10 -11v-874q0 -243 -168 -395t-463 -152t-463 152t-168 395z" />
<glyph unicode="V" horiz-adv-x="1445" d="M4 1384q-3 9 8 9h373q5 0 8 -7l324 -929q1 -3 2.5 -4t3 0t2.5 4l326 929q3 7 8 7h375q11 0 8 -9l-539 -1372q-4 -12 -14 -12h-334q-10 0 -14 12z" />
<glyph unicode="W" horiz-adv-x="1994" d="M8 1384q-3 9 8 9h361q5 0 8 -7l219 -913q0 -5 4 -4l2 4l230 913q4 7 8 7h301q5 0 8 -7l232 -913q4 -7 6 0l217 913q4 7 8 7h358q4 0 7 -2.5t2 -6.5l-396 -1376q-3 -8 -10 -8h-362q-8 0 -11 8l-204 772q-1 3 -2.5 4.5t-3.5 0.5t-3 -5l-202 -772q-3 -8 -11 -8h-362 q-7 0 -10 8z" />
<glyph unicode="X" horiz-adv-x="1456" d="M6 8l496 705q3 3 0 10l-453 661q-3 3 -1.5 6t5.5 3h412q5 0 12 -7l248 -391q4 -4 8 0l246 391q7 7 12 7h408q3 0 5 -3t-1 -6l-453 -663q-3 -7 0 -10l500 -703q1 -1 1.5 -3t-0.5 -3.5t-5 -1.5h-422q-5 0 -10 8l-281 453q-4 4 -8 0l-285 -453q-5 -8 -10 -8h-420q-9 0 -4 8z " />
<glyph unicode="Y" horiz-adv-x="1372" d="M4 1384q-4 9 4 9h387q5 0 11 -9l276 -544q3 -7 8 0l277 544q6 9 10 9h387q8 0 4 -9l-489 -829q-2 -4 -2 -12v-535q0 -8 -9 -8h-364q-8 0 -8 8v537q0 6 -2 10z" />
<glyph unicode="Z" horiz-adv-x="1177" d="M51 8v211q0 13 4 17l627 880q6 6 -2 6h-594q-8 0 -8 8v254q0 9 8 9h1006q8 0 8 -9v-243q0 -10 -8 -21l-592 -844q-6 -6 2 -6h620q8 0 8 -8v-254q0 -8 -8 -8h-1063q-8 0 -8 8z" />
<glyph unicode="[" horiz-adv-x="716" d="M102 -297v1745q0 8 9 8h546q9 0 9 -8v-107q0 -10 -9 -10l-165 4q-9 0 -9 -8v-1505q0 -8 9 -8l165 4q9 0 9 -8v-107q0 -10 -9 -10h-546q-9 0 -9 10z" />
<glyph unicode="\" horiz-adv-x="972" d="M-4 1386q-4 7 4 7h301q5 0 10 -7q353 -750 666 -1380q3 -6 -4 -6h-297q-9 0 -12 6q-299 656 -668 1380z" />
<glyph unicode="]" horiz-adv-x="716" d="M51 -190q0 8 8 8l166 -4q8 0 8 8v1505q0 8 -8 8l-166 -4q-8 0 -8 10v107q0 8 8 8h547q8 0 8 -8v-1745q0 -10 -8 -10h-547q-8 0 -8 10v107z" />
<glyph unicode="^" horiz-adv-x="1294" d="M135 647l379 737q6 9 12 9h258q7 0 13 -9l362 -737q3 -8 -6 -8h-338q-7 0 -10 8l-150 361q-1 3 -2.5 4t-3 0t-2.5 -4l-155 -361q-3 -8 -11 -8h-340q-10 0 -6 8z" />
<glyph unicode="_" horiz-adv-x="1060" d="M-8 -86q0 10 12 10h1053q12 0 12 -10v-281q0 -10 -12 -10h-1053q-12 0 -12 10v281z" />
<glyph unicode="`" horiz-adv-x="1024" d="M267 1389q1 4 5 4h322q8 0 12 -11l82 -301q2 -10 -6 -10h-211q-9 0 -14 8l-189 303q-2 3 -1 7z" />
<glyph unicode="a" d="M66 227q0 71 25.5 130t64.5 97.5t94.5 68.5t105.5 46t107 27q73 15 231 35q6 0 6 10v23q0 56 -35.5 86t-95.5 30q-51 0 -87 -29t-42 -75q0 -8 -8 -8h-332q-8 0 -8 4v4q28 154 143.5 248t327.5 94q245 0 368.5 -103.5t123.5 -300.5v-329q0 -39 1 -71.5t4.5 -59t5.5 -42 t8.5 -35.5t7.5 -25t9.5 -24t8.5 -20q3 -8 -6 -8h-324q-2 0 -10 4q-13 12 -30.5 46.5t-22.5 55.5q-2 6 -5 0q-91 -145 -307 -145q-86 0 -158.5 27t-121.5 89t-49 150zM401 279q0 -37 27.5 -57.5t65.5 -20.5q99 0 152.5 55t53.5 131v31q0 4 -6 4q-58 -5 -121.5 -17.5 t-93.5 -25.5q-78 -34 -78 -100z" />
<glyph unicode="b" horiz-adv-x="1232" d="M113 8v1376q0 9 8 9h340q8 0 8 -9v-501q0 -12 8 0q30 54 108.5 94.5t176.5 40.5q94 0 171.5 -34.5t125 -89.5t73 -119.5t25.5 -127.5v-338q0 -61 -25.5 -122t-71.5 -112t-119 -82.5t-159 -31.5q-111 0 -193.5 46t-113.5 97q-4 8 -8 0l-59 -96q-4 -8 -11 -8h-276 q-8 0 -8 8zM469 471q0 -126 51 -193t133 -67q64 0 106 37.5t42 99.5v266q0 59 -43 98.5t-107 39.5q-54 0 -97 -38.5t-64 -92.5t-21 -109v-41z" />
<glyph unicode="c" horiz-adv-x="1153" d="M78 399v174q0 194 141 319.5t365 125.5q226 0 358.5 -115.5t132.5 -277.5q0 -11 -8 -11h-340q-8 0 -8 9q0 56 -39.5 92.5t-91.5 36.5q-85 0 -119.5 -44.5t-34.5 -144.5v-147q0 -113 38 -159t116 -46q63 0 97 40t34 103q0 11 8 11h340q8 0 8 -11q0 -173 -132.5 -283 t-358.5 -110t-366 123t-140 315z" />
<glyph unicode="d" horiz-adv-x="1232" d="M76 309v338q0 63 25.5 127.5t73 119.5t125 89.5t171.5 34.5q98 0 176.5 -40.5t108.5 -94.5q8 -12 8 0v501q0 9 8 9h340q8 0 8 -9v-1376q0 -8 -8 -8h-276q-7 0 -11 8l-59 96q-4 8 -8 0q-31 -51 -113.5 -97t-193.5 -46q-86 0 -159 31.5t-119 82.5t-71.5 112t-25.5 122z M432 348q0 -62 42 -99.5t106 -37.5q82 0 133 67t51 193v41q0 55 -21 109t-64 92.5t-97 38.5q-64 0 -107 -39.5t-43 -98.5v-266z" />
<glyph unicode="e" horiz-adv-x="1185" d="M78 430v113q0 95 37 181.5t102.5 151.5t163 103.5t211.5 38.5q256 0 389 -142.5t133 -392.5q0 -70 -8 -82q-3 -6 -6 -6h-660q-6 0 -6 -6q0 -90 52 -135t126 -45q55 0 91 22t51 54q2 6 10 6h326q8 0 6 -6q-48 -151 -169 -237.5t-313 -86.5q-151 0 -274.5 63t-192.5 170 t-69 236zM434 623q0 -7 6 -7h297q6 0 6 7q-3 59 -43 94t-110 35q-63 0 -109.5 -32.5t-46.5 -96.5z" />
<glyph unicode="f" horiz-adv-x="739" d="M6 717v250q0 8 8 8h160q6 0 6 6l-2 123v10q0 160 90 244q92 88 238 88q77 0 141 -22t84 -42q4 -4 4 -10v-217q0 -2 -2.5 -3.5t-5.5 1.5q-53 39 -119 39q-76 0 -76 -74l-2 -137q0 -6 7 -6h190q8 0 8 -8v-250q0 -8 -8 -8h-192q-7 0 -7 -7q0 -8 2 -106t2 -178v-410 q0 -8 -8 -8h-338q-8 0 -8 8v410q0 80 2 178t2 106q0 7 -6 7h-162q-8 0 -8 8z" />
<glyph unicode="g" horiz-adv-x="1173" d="M49 -219q0 85 46 150t128 89q10 5 2 9q-86 52 -86 135q0 103 119 155q4 0 2 5q0 1 -2 2q-71 44 -113.5 114t-42.5 154v88q0 145 133.5 240.5t335.5 95.5q192 0 308 -53q3 -3 8 0q100 53 205 53h47q8 0 8 -8v-181q0 -8 -8 -8h-33q-17 0 -44.5 -4t-35.5 -10q-4 -4 0 -8 q13 -19 23 -52t10 -65v-88q0 -99 -71 -178t-179.5 -119.5t-228.5 -40.5h-45q-62 0 -62 -51q0 -23 18 -39t54 -16h295q145 0 229 -66.5t84 -181.5q0 -83 -39 -159.5t-112 -137.5t-189.5 -97t-259.5 -36q-234 0 -369 87.5t-135 221.5zM406 -182q0 -56 48 -92.5t134 -36.5 q107 0 159 39t52 104q0 47 -29.5 73.5t-79.5 26.5h-162q-26 0 -57 7q-27 -11 -46 -45t-19 -76zM459 614q0 -67 31 -108t90 -41q122 0 122 149v56q0 65 -28 100t-94 35q-60 0 -90.5 -36t-30.5 -99v-56z" />
<glyph unicode="h" horiz-adv-x="1259" d="M113 8v1376q0 9 8 9h340q8 0 8 -9v-501q0 -12 8 0q40 62 112.5 98.5t172.5 36.5q94 0 171.5 -34.5t125 -89.5t73 -119.5t25.5 -127.5v-639q0 -8 -8 -8h-340q-8 0 -8 8v606q0 59 -43 98.5t-107 39.5q-86 0 -134 -60t-48 -166v-518q0 -8 -8 -8h-340q-8 0 -8 8z" />
<glyph unicode="i" horiz-adv-x="589" d="M117 8v959q0 8 8 8h340q8 0 8 -8v-959q0 -8 -8 -8h-340q-8 0 -8 8zM117 1112v272q0 9 8 9h340q8 0 8 -9v-272q0 -8 -8 -8h-340q-8 0 -8 8z" />
<glyph unicode="j" horiz-adv-x="602" d="M-37 -223q0 8 6 2q15 -15 40.5 -25t47.5 -10q35 0 54.5 19.5t19.5 58.5v1145q0 8 8 8h340q8 0 8 -8v-1153q0 -142 -95.5 -228t-221.5 -86q-73 0 -128 19t-75 37l-4 10v211zM131 1112v272q0 9 8 9h340q8 0 8 -9v-272q0 -8 -8 -8h-340q-8 0 -8 8z" />
<glyph unicode="k" horiz-adv-x="1218" d="M113 8v1376q0 9 8 9h340q8 0 8 -9v-772q0 -10 8 -2l311 359q6 6 15 6h393q3 0 5 -1.5t-1 -6.5l-364 -355q-6 -6 -2 -10l358 -592v-9q-2 -1 -6 -1l-379 -2q-5 0 -10 8l-191 373q-3 7 -8 2l-125 -121q-4 -4 -4 -8v-244q0 -8 -8 -8h-342q-6 0 -6 8z" />
<glyph unicode="l" horiz-adv-x="581" d="M113 8v1376q0 9 8 9h340q8 0 8 -9v-1376q0 -8 -8 -8h-340q-8 0 -8 8z" />
<glyph unicode="m" horiz-adv-x="1753" d="M113 8v959q0 8 8 8h221q7 0 10 -6l62 -117q3 -9 6 0q70 166 303 166q90 0 156 -48.5t84 -115.5q2 -7 5 -2l1 2q37 70 119 117t210 47q160 0 254.5 -93t94.5 -263v-654q0 -8 -9 -8h-340q-8 0 -8 8v619q0 125 -112 125q-63 0 -96 -46.5t-33 -105.5v-592q0 -8 -9 -8h-323 q-6 0 -6 8v619q0 125 -113 125q-58 0 -93.5 -42.5t-35.5 -107.5v-594q0 -8 -8 -8h-340q-8 0 -8 8z" />
<glyph unicode="n" horiz-adv-x="1243" d="M113 8v959q0 8 8 8h221q9 0 12 -8l60 -115q3 -8 8 0q45 71 133.5 118.5t192.5 47.5q186 0 287.5 -107.5t101.5 -277.5v-625q0 -8 -9 -8h-340q-8 0 -8 8v592q0 63 -36.5 107.5t-106.5 44.5q-79 0 -123.5 -54t-44.5 -137v-553q0 -8 -8 -8h-340q-8 0 -8 8z" />
<glyph unicode="o" horiz-adv-x="1273" d="M78 408v163q0 125 71 227t199.5 161t288.5 59t288.5 -59t199.5 -161t71 -227v-163q0 -85 -42 -166t-114 -143.5t-178 -100t-225 -37.5t-225 37.5t-178 100t-114 143.5t-42 166zM434 442q0 -97 55 -159t148 -62t148 62t55 159v95q0 102 -54 158.5t-149 56.5t-149 -56.5 t-54 -158.5v-95z" />
<glyph unicode="p" horiz-adv-x="1261" d="M113 -403v1372q0 6 6 6h225q7 0 10 -6l68 -117q1 -3 4 0q54 74 140.5 120t201.5 46q89 0 162.5 -25.5t132 -78t91 -141t32.5 -206.5v-149q0 -233 -112 -345t-306 -112q-101 0 -180.5 35t-118.5 102q-3 5 -5 5t-1 -7q6 -47 6 -243v-256q0 -7 -6 -7h-344q-6 0 -6 7z M473 444q0 -102 50.5 -160.5t135.5 -58.5q170 0 170 187v151q0 189 -178 189q-75 0 -126.5 -63t-51.5 -165v-80z" />
<glyph unicode="q" horiz-adv-x="1261" d="M76 418v149q0 118 35.5 206.5t98 141t141 78t171.5 25.5q192 0 314 -166q3 -3 4 0l67 117q3 6 11 6h225q6 0 6 -6v-1372q0 -7 -6 -7h-344q-6 0 -6 7v256q0 201 6 239q1 7 -1 7t-5 -5q-92 -133 -281 -133q-95 0 -172.5 26.5t-137.5 80t-93 143t-33 207.5zM432 412 q0 -87 47 -137t123 -50q186 0 186 219v80q0 106 -47.5 167t-138.5 61q-75 0 -122.5 -50t-47.5 -139v-151z" />
<glyph unicode="r" horiz-adv-x="804" d="M113 8v959q0 8 8 8h219q7 0 10 -6l62 -119q3 -7 8 0q32 66 99 117t153 51q82 0 121 -39q4 -4 4 -8v-309q0 -7 -3 -8.5t-6 1.5q-70 66 -151 66q-168 0 -168 -258v-455q0 -8 -8 -8h-340q-8 0 -8 8z" />
<glyph unicode="s" horiz-adv-x="1081" d="M51 313q0 6 6 6h340q6 0 6 -6q3 -52 47.5 -79t106.5 -27q57 0 87 19t30 48q0 21 -17 36t-61 28l-297 88q-221 66 -221 260q0 136 134 234t341 98q130 0 236 -41.5t168.5 -119.5t62.5 -177q0 -6 -6 -6h-340q-6 0 -6 6q0 41 -34 64.5t-89 23.5q-44 0 -77.5 -18t-33.5 -50 q0 -40 84 -65l266 -78q120 -36 181 -96t61 -160q0 -159 -125 -249.5t-346 -90.5q-216 0 -353.5 93t-150.5 259z" />
<glyph unicode="t" horiz-adv-x="714" d="M16 717v250q0 8 9 8h135q6 0 6 6l-2 236q0 7 6 10l334 164q12 6 12 -7l-2 -403q0 -6 6 -6h158q8 0 8 -8v-250q0 -8 -8 -8h-158q-6 0 -6 -7l2 -426q0 -63 66 -63q56 0 96 43q8 8 8 -2v-221q0 -4 -4 -8q-90 -64 -238 -64q-280 0 -280 297l2 444q0 7 -6 7h-135q-9 0 -9 8z " />
<glyph unicode="u" horiz-adv-x="1243" d="M106 342v625q0 8 9 8h340q8 0 8 -8v-592q0 -62 35 -107t100 -45q86 0 131 58t45 161v525q0 8 8 8h340q8 0 8 -8v-959q0 -8 -8 -8h-221q-9 0 -12 8l-60 121q-3 8 -8 0q-136 -168 -334 -168q-185 0 -283 105.5t-98 275.5z" />
<glyph unicode="v" d="M4 967v7q2 1 8 1h353q6 0 8 -4l198 -594q1 -3 3 -4t3.5 0t2.5 4l198 594l6 4h355q8 0 8 -8l-406 -959q-3 -8 -10 -8h-313q-7 0 -10 8z" />
<glyph unicode="w" horiz-adv-x="1689" d="M10 969q-1 3 1.5 4.5t4.5 1.5h338q9 0 11 -6l124 -621q0 -3 2 -4t4 0t3 4l170 621q2 6 8 6h336q6 0 8 -6l170 -621q1 -3 3 -4t3.5 0t1.5 4l127 621q2 6 10 6h338q2 0 4.5 -1.5t1.5 -4.5l-307 -965q0 -4 -4 -4h-346q-4 0 -4 4l-172 584q0 2 -2 2t-2 -2l-172 -584 q0 -4 -4 -4h-347q-4 0 -4 4z" />
<glyph unicode="x" horiz-adv-x="1208" d="M4 6l375 492q4 4 0 8l-330 461q-2 1 -1 4.5t5 3.5h393q10 0 13 -6l143 -244q0 -1 2 -1t2 1l142 244q3 6 10 6h397q8 0 4 -8l-332 -461q-4 -4 0 -8l377 -492q2 -2 1 -4t-5 -2h-405q-10 0 -13 6l-176 268q0 2 -2 2t-2 -2l-176 -268q-6 -6 -12 -6h-408q-8 0 -2 6z" />
<glyph unicode="y" horiz-adv-x="1128" d="M4 967q-3 8 6 8h348q12 0 15 -8l194 -594q2 -7 6 0l195 594q3 8 18 8h342q9 0 9 -8q-428 -1078 -486 -1221q-31 -78 -68.5 -129t-80.5 -76t-83.5 -34t-92.5 -9q-55 0 -103 13.5t-71 35.5q-2 2 -2 7v227q0 8 6 2q40 -37 100 -37q71 0 98 72l49 135q0 4 -2 8z" />
<glyph unicode="z" horiz-adv-x="927" d="M57 4v229q0 5 4 9l414 460q3 7 -2 7h-393q-8 0 -8 8v250q0 8 8 8h799q4 0 4 -4v-219q0 -5 -4 -9l-433 -471q-6 -6 3 -6h440q8 0 8 -8v-250q0 -8 -8 -8h-828q-4 0 -4 4z" />
<glyph unicode="{" horiz-adv-x="702" d="M10 559v29q0 5 8 8q77 18 108.5 48.5t31.5 92.5v469q0 110 77 180t203 70h205q8 0 8 -8v-70q0 -8 -8 -8h-37q-38 0 -52.5 -17t-14.5 -59v-475q0 -89 -46.5 -154t-111.5 -87q-5 -2 -5 -5t5 -4q64 -24 111 -87.5t47 -149.5v-477q0 -42 14.5 -59t52.5 -17h37q8 0 8 -8v-70 q0 -8 -8 -8h-205q-126 0 -203 70t-77 180v467q0 63 -32.5 95t-107.5 46q-8 3 -8 8z" />
<glyph unicode="|" horiz-adv-x="591" d="M143 -315v1699q0 9 9 9h288q9 0 9 -9v-1699q0 -9 -9 -9h-288q-9 0 -9 9z" />
<glyph unicode="}" horiz-adv-x="702" d="M51 -229q0 8 8 8h37q38 0 53 17t15 59v477q0 86 47 149.5t111 87.5q4 1 4 4t-4 5q-65 22 -111.5 87t-46.5 154v475q0 42 -15 59t-53 17h-37q-8 0 -8 8v70q0 8 8 8h205q126 0 203.5 -70t77.5 -180v-469q0 -62 31.5 -92.5t107.5 -48.5q8 -3 8 -8v-29q0 -5 -8 -8 q-75 -14 -107 -46t-32 -95v-467q0 -110 -77.5 -180t-203.5 -70h-205q-8 0 -8 8v70z" />
<glyph unicode="~" horiz-adv-x="1583" d="M186 635q-4 5 4 20q19 27 46.5 54t68.5 55t98 45.5t121 17.5q68 0 145.5 -28.5t135.5 -62.5t127 -62.5t123 -28.5q40 0 74.5 19t55 41t56.5 67q5 5 12 -2l162 -215q5 -7 0 -14q-26 -40 -55 -71.5t-70 -61.5t-95.5 -46t-119.5 -16q-57 0 -117.5 18.5t-113.5 45t-104.5 53 t-107 45t-104.5 18.5q-48 0 -93.5 -32.5t-74.5 -75.5q-3 -7 -12 2z" />
<glyph unicode="&#xa1;" horiz-adv-x="573" d="M96 -410q0 211 37 573t37 410q0 9 8 9h223q9 0 9 -9q0 -49 33.5 -411t33.5 -572q0 -8 -8 -8h-365q-8 0 -8 8zM125 700v267q0 6 1.5 7t6.5 1h307q9 0 9 -8v-267q0 -8 -9 -8h-307q-5 0 -6.5 1t-1.5 7z" />
<glyph unicode="&#xa2;" horiz-adv-x="1126" d="M72 399v174q0 154 92.5 268.5t249.5 155.5q4 0 4 4v177q0 8 8 8h291q8 0 8 -8v-177q161 -36 252.5 -140t91.5 -236q0 -11 -8 -11h-340q-8 0 -8 9q0 56 -39.5 92.5t-91.5 36.5q-85 0 -119.5 -44.5t-34.5 -144.5v-147q0 -113 38 -159t116 -46q63 0 97 40t34 103q0 11 8 11 h340q8 0 8 -11q0 -141 -90.5 -243.5t-251.5 -135.5q-2 0 -2 -6v-192q0 -8 -8 -8h-291q-8 0 -8 8v198q0 7 -6 7q-157 40 -248.5 152t-91.5 265z" />
<glyph unicode="&#xa3;" horiz-adv-x="1196" d="M92 8v252q0 10 8 10h17q51 0 79.5 49.5t28.5 131.5v118q0 4 -4 4h-100q-8 0 -8 9v254q0 8 8 8h100q4 0 4 4v188q0 194 129.5 302t341.5 108q100 0 180.5 -24t133 -63.5t87.5 -93.5t49.5 -110.5t14.5 -116.5v-53q0 -10 -10 -10h-363q-8 0 -8 10v74q0 54 -23 85.5t-61 31.5 q-90 0 -90 -103v-225q0 -4 4 -4h232q8 0 8 -8v-254q0 -9 -8 -9l-232 -2q-4 0 -4 -6v-92q0 -68 -16.5 -119t-42.5 -75q-3 -2 -3.5 -4t0.5 -3.5t3 -1.5h616q8 0 8 -8v-254q0 -8 -8 -8h-1063q-8 0 -8 8z" />
<glyph unicode="&#xa5;" horiz-adv-x="1372" d="M4 1384q-4 9 4 9h387q5 0 11 -9l276 -544q3 -7 8 0l277 544q6 9 10 9h387q8 0 4 -9l-385 -653q-4 -6 2 -6h166q8 0 8 -8v-209q0 -8 -8 -8h-268q-6 0 -6 -8v-86q0 -9 6 -9h268q8 0 8 -8v-207q0 -8 -8 -8h-268q-6 0 -6 -6v-160q0 -8 -9 -8h-364q-8 0 -8 8v160q0 6 -7 6 h-272q-8 0 -8 8v207q0 8 8 8h272q7 0 7 9v86q0 8 -7 8h-272q-8 0 -8 8v209q0 8 8 8h170q6 0 2 6z" />
<glyph unicode="&#xa6;" horiz-adv-x="614" d="M154 -315v643q0 8 8 8h291q8 0 8 -8v-643q0 -9 -8 -9h-291q-8 0 -8 9zM154 741v643q0 9 8 9h291q8 0 8 -9v-643q0 -8 -8 -8h-291q-8 0 -8 8z" />
<glyph unicode="&#xa7;" horiz-adv-x="1091" d="M39 219q0 10 10 10h340q8 0 8 -10q0 -62 42.5 -105.5t129.5 -43.5q57 0 91 23t34 57q0 43 -28 67.5t-82 44.5l-244 90q-38 14 -55.5 21t-55.5 25t-58.5 32.5t-49.5 40t-44 51.5t-26.5 62.5t-11.5 77.5q0 101 64 166.5t161 89.5q4 0 3 4l-3 2q-81 40 -117 71 q-69 60 -69 138q0 79 49 141.5t125.5 98.5t160 54.5t162.5 18.5q127 0 242 -40.5t187.5 -115t72.5 -164.5q0 -10 -10 -10h-365q-8 0 -8 10q0 55 -39 80t-84 25q-54 0 -83 -20.5t-29 -57.5t26.5 -58.5t122.5 -62.5l121 -51q44 -19 75 -33t76.5 -38t76 -48.5t60.5 -54.5 t45 -66t15 -75q0 -94 -69 -166t-148 -82q-2 0 -2 -2t2 -4q100 -53 143 -94q74 -69 74 -154q0 -91 -68.5 -163.5t-185.5 -112.5t-260 -40q-70 0 -143 16t-141 48t-122 75.5t-86 104t-32 127.5zM420 709q0 -54 24.5 -83t90.5 -57q81 -34 81 -32l-2 2q32 3 56 29.5t24 62.5 q0 48 -29.5 80.5t-103.5 62.5l-86 35q-23 -9 -39 -38.5t-16 -61.5z" />
<glyph unicode="&#xa8;" horiz-adv-x="1024" d="M147 1124v260q0 9 9 9h256q8 0 8 -9v-260q0 -8 -8 -8h-256q-9 0 -9 8zM606 1124v260q0 9 8 9h254q9 0 9 -9v-260q0 -8 -9 -8h-254q-5 0 -6.5 1t-1.5 7z" />
<glyph unicode="&#xa9;" horiz-adv-x="1679" d="M96 702q0 151 59 288t159 236t237.5 157.5t288.5 58.5t288.5 -58.5t237 -157.5t158.5 -236t59 -288q0 -161 -58.5 -300t-159 -234.5t-236.5 -150t-289 -54.5q-202 0 -373 98.5t-271 268.5t-100 372zM332 702q0 -145 67.5 -265t184 -188.5t256.5 -68.5q142 0 256.5 61 t184 181.5t69.5 279.5q0 144 -68.5 264.5t-185.5 189.5t-256 69t-256 -69t-184.5 -189.5t-67.5 -264.5zM457 698q0 -187 112.5 -305.5t286.5 -118.5q66 0 123 21t97 56.5t66 67.5t46 68q3 6 0 9l-180 96q-3 2 -7 -2q-24 -42 -64.5 -66t-82.5 -24q-77 0 -123.5 54.5 t-46.5 143.5q0 90 47.5 146.5t122.5 56.5q44 0 87 -25.5t67 -70.5q2 -2 6 -2l176 117q3 3 0 8q-50 83 -133 138.5t-201 55.5q-168 0 -283.5 -119.5t-115.5 -304.5z" />
<glyph unicode="&#xaa;" horiz-adv-x="751" d="M47 952q0 108 91.5 162.5t295.5 85.5q10 0 10 14v19q0 65 -77 65q-82 0 -82 -84q0 -8 -9 -8h-202q-8 0 -8 8q0 117 84.5 174.5t220.5 57.5q55 0 103.5 -12t93 -39t70.5 -80t26 -127v-227q0 -14 7.5 -24.5t20.5 -10.5q8 0 8 -8v-123q0 -7 -8 -11q-20 -8 -69 -8 q-37 0 -66 16t-41 44q-3 7 -10 0q-69 -76 -221 -76q-113 0 -175.5 48.5t-62.5 143.5zM274 969q0 -58 72 -54q42 2 70 28t28 81v31q0 4 -6 4q-44 -7 -90 -21q-39 -12 -56.5 -25.5t-17.5 -43.5z" />
<glyph unicode="&#xab;" horiz-adv-x="1107" d="M72 465v190q0 9 4 13l452 385q3 3 5 2.5t3 -2t1 -2.5v-330q0 -3 -7 -8l-202 -152q-2 -2 0 -4l202 -149q7 -5 7 -9v-331q0 -9 -9 0l-452 385q-4 4 -4 12zM582 465v190q0 9 4 13l452 385q3 3 5 2.5t3 -2t1 -2.5v-330q0 -3 -7 -8l-202 -152q-2 -2 0 -4l202 -149q7 -5 7 -9 v-331q0 -9 -9 0l-452 385q-4 4 -4 12z" />
<glyph unicode="&#xac;" horiz-adv-x="1228" d="M51 670v286q0 11 10 11h1084q10 0 10 -11v-649q0 -16 -16 -16h-297q-17 0 -17 16v342q0 10 -10 10h-754q-10 0 -10 11z" />
<glyph unicode="&#xad;" horiz-adv-x="806" d="M113 348v281q0 10 12 10h557q12 0 12 -10v-281q0 -10 -12 -10h-557q-12 0 -12 10z" />
<glyph unicode="&#xae;" horiz-adv-x="1679" d="M96 705q0 202 100 372t271 268.5t373 98.5q151 0 288.5 -58.5t237 -157t158.5 -235.5t59 -288q0 -161 -58.5 -300t-159 -235t-237 -150.5t-288.5 -54.5q-151 0 -288.5 58.5t-237.5 157.5t-159 236t-59 288zM332 705q0 -109 40 -206t107.5 -166.5t162 -110t198.5 -40.5 q142 0 256.5 61.5t183 181.5t68.5 280q0 144 -68 264t-184.5 189t-255.5 69t-256 -69t-184.5 -189t-67.5 -264zM530 324v784q0 4 5 4h313q166 0 240.5 -51t74.5 -164q0 -65 -44 -116.5t-107 -69.5q-2 0 -2 -2t2 -2q157 -34 157 -175v-126q0 -57 15 -82q4 -7 -2 -7h-219 q-2 0 -7 5q-12 30 -12 77v90q0 75 -28.5 106.5t-84.5 31.5h-77q-6 0 -6 -4v-299q0 -7 -5 -7h-211q-2 0 -2 7zM748 801q0 -4 6 -4h102q84 0 84 75q0 35 -19.5 51.5t-62.5 16.5h-104q-6 0 -6 -6v-133z" />
<glyph unicode="&#xaf;" horiz-adv-x="1024" d="M221 1169v215q0 9 8 9h566q8 0 8 -9v-215q0 -8 -8 -8h-566q-8 0 -8 8z" />
<glyph unicode="&#xb0;" horiz-adv-x="978" d="M72 1049q0 169 115.5 283t301.5 114t302 -114t116 -283t-116 -283.5t-302 -114.5q-185 0 -301 114.5t-116 283.5zM360 1049q0 -58 36.5 -99t92.5 -41t92.5 41t36.5 99t-36.5 98.5t-92.5 40.5t-92.5 -40.5t-36.5 -98.5z" />
<glyph unicode="&#xb1;" horiz-adv-x="1132" d="M102 8v254q0 8 9 8h911q8 0 8 -8v-254q0 -8 -8 -8h-911q-9 0 -9 8zM102 563v281q0 10 11 10h293q10 0 10 10v193q0 10 10 10h281q10 0 10 -10v-193q0 -10 10 -10h293q10 0 10 -10v-281q0 -10 -10 -10h-293q-10 0 -10 -10v-193q0 -10 -10 -10h-281q-10 0 -10 10v193 q0 10 -10 10h-293q-11 0 -11 10z" />
<glyph unicode="&#xb2;" horiz-adv-x="970" d="M102 1124v25q0 121 110 210t282 89t275 -79.5t103 -201.5t-91 -208.5t-294 -163.5q-24 -8 -45.5 -25t-21.5 -31q0 -4 4 -4h442q6 0 6 -6v-197q0 -4 -6 -4h-745q-6 0 -6 4l-2 144q-1 61 22.5 110t70.5 87.5t97.5 65.5t124.5 58q90 36 128 74t38 88q0 88 -100 88 q-47 0 -75 -28.5t-28 -73.5v-21q0 -6 -6 -6h-276q-7 0 -7 6z" />
<glyph unicode="&#xb3;" horiz-adv-x="993" d="M66 780v29q0 6 4 6h292q7 0 7 -6v-23q0 -40 30 -69t80 -29q52 0 82.5 28.5t30.5 78.5q0 42 -26.5 66.5t-63 32t-90.5 7.5h-39q-4 0 -4 6v135q0 7 4 7h45q74 0 103.5 28t29.5 78q0 42 -22 66t-66 24q-35 0 -58.5 -25.5t-23.5 -62.5v-24q0 -5 -4 -5h-285q-4 0 -4 5v38 q0 115 107.5 195t269.5 80q160 0 262 -67t102 -189q0 -74 -38.5 -125t-100.5 -78v-2q180 -48 180 -203q0 -129 -110.5 -212t-306.5 -83q-168 0 -277.5 86.5t-109.5 206.5z" />
<glyph unicode="&#xb4;" horiz-adv-x="1024" d="M268 1081l82 301q4 11 12 11h322q4 0 5 -4t-1 -7l-188 -303q-5 -8 -15 -8h-211q-8 0 -6 10z" />
<glyph unicode="&#xb5;" horiz-adv-x="1249" d="M113 -360v1327q0 8 8 8h340q8 0 8 -8v-592q0 -62 35 -107t100 -45q86 0 131 58t45 161v525q0 8 8 8h340q9 0 9 -8v-959q0 -8 -9 -8h-221q-9 0 -12 8l-59 121q-3 9 -9 0q-136 -168 -333 -168h-21q-4 0 -4 -8v-313q0 -9 -8 -9h-340q-8 0 -8 9z" />
<glyph unicode="&#xb6;" horiz-adv-x="1538" d="M72 1008q0 159 112 272t271 113h1067q6 0 6 -9v-249q0 -9 -8 -9h-105q-6 0 -6 -8v-1110q0 -8 -8 -8h-365q-8 0 -8 8v1110q0 8 -6 8h-180q-6 0 -6 -8v-1110q0 -8 -9 -8h-364q-8 0 -8 8v613q0 4 -4 4q-158 1 -268.5 113t-110.5 270z" />
<glyph unicode="&#xb7;" horiz-adv-x="550" d="M113 416v348q0 6 1.5 7t6.5 1h309q8 0 8 -8v-348q0 -8 -8 -8h-309q-5 0 -6.5 1t-1.5 7z" />
<glyph unicode="&#xb8;" horiz-adv-x="1024" d="M295 -373q0 8 6 8h172q4 0 4 -4q3 -15 21.5 -33t54.5 -18q35 0 52.5 21t17.5 57q0 96 -148 96q-44 0 -131 -26q-3 -1 -4.5 1t-1.5 5l74 217q3 12 -4 14l196 2q-5 0 -8 -8l-25 -68q-3 -8 4 -8q20 4 41 4q88 0 148.5 -63t60.5 -150q0 -91 -70 -164t-196 -73q-129 0 -193 54 t-71 136z" />
<glyph unicode="&#xb9;" horiz-adv-x="831" d="M158 1165v129q0 7 4 9l370 141q7 4 7 -2v-912q0 -4 -7 -4h-258q-4 0 -4 4v670q0 6 -4 4l-102 -43q-6 0 -6 4z" />
<glyph unicode="&#xba;" horiz-adv-x="780" d="M61 1100q0 167 88.5 256.5t239.5 89.5t240.5 -89.5t89.5 -256.5t-89.5 -256.5t-240.5 -89.5t-239.5 89.5t-88.5 256.5zM279 1100q0 -195 110 -195q111 0 111 195q0 194 -111 194q-110 0 -110 -194z" />
<glyph unicode="&#xbb;" horiz-adv-x="1107" d="M61 68v331q0 4 7 9l202 149q2 2 0 4l-202 152q-7 5 -7 8v330q0 1 1 2.5t3 2t5 -2.5l452 -385q4 -4 4 -13v-190q0 -8 -4 -12l-452 -385q-9 -9 -9 0zM571 68v331q0 4 7 9l202 149q2 2 0 4l-202 152q-7 5 -7 8v330q0 1 1 2.5t3 2t5 -2.5l452 -385q4 -4 4 -13v-190 q0 -8 -4 -12l-452 -385q-9 -9 -9 0z" />
<glyph unicode="&#xbc;" horiz-adv-x="1957" d="M158 1165v129q0 7 4 9l370 141q7 4 7 -2v-912q0 -4 -7 -4h-258q-4 0 -4 4v670q0 6 -4 4l-102 -43q-6 0 -6 4zM328 6q540 885 825 1380q5 7 10 7h301q8 0 4 -7q-342 -546 -827 -1380q-3 -6 -12 -6h-297q-7 0 -4 6zM1049 188v185q0 2 4 10l321 508l6 4h383q4 0 4 -6v-494 q0 -6 5 -6h124q5 0 5 -4v-197q0 -6 -5 -6h-124q-4 0 -4.5 -1t-0.5 -3v-172q0 -6 -4 -6h-252q-4 0 -4 6v172q0 4 -6 4h-448q-4 0 -4 6zM1319 395q-2 -4 2 -6h180q6 0 6 6v283q0 8 -4 0z" />
<glyph unicode="&#xbd;" horiz-adv-x="2058" d="M158 1165v129q0 7 4 9l370 141q7 4 7 -2v-912q0 -4 -7 -4h-258q-4 0 -4 4v670q0 6 -4 4l-102 -43q-6 0 -6 4zM328 6q540 885 825 1380q5 7 10 7h301q8 0 4 -7q-342 -546 -827 -1380q-3 -6 -12 -6h-297q-7 0 -4 6zM1176 596v25q0 121 109.5 210t281.5 89t275.5 -79.5 t103.5 -201.5t-91 -209t-294 -164q-24 -8 -46 -24.5t-22 -30.5q0 -4 4 -4h442q7 0 7 -6v-197q0 -4 -7 -4h-745q-6 0 -6 4l-2 143q-1 61 22.5 110.5t70.5 87.5t97.5 65.5t124.5 58.5q90 36 128 74t38 88q0 88 -100 88q-47 0 -75 -29t-28 -74v-20q0 -6 -6 -6h-276q-6 0 -6 6z " />
<glyph unicode="&#xbe;" horiz-adv-x="2205" d="M66 780v29q0 6 4 6h292q7 0 7 -6v-23q0 -40 30 -69t80 -29q52 0 82.5 28.5t30.5 78.5q0 42 -26.5 66.5t-63 32t-90.5 7.5h-39q-4 0 -4 6v135q0 7 4 7h45q74 0 103.5 28t29.5 78q0 42 -22 66t-66 24q-35 0 -58.5 -25.5t-23.5 -62.5v-24q0 -5 -4 -5h-285q-4 0 -4 5v38 q0 115 107.5 195t269.5 80q160 0 262 -67t102 -189q0 -74 -38.5 -125t-100.5 -78v-2q180 -48 180 -203q0 -129 -110.5 -212t-306.5 -83q-168 0 -277.5 86.5t-109.5 206.5zM575 6q557 913 826 1380q5 7 10 7h301q8 0 4 -7q-342 -546 -827 -1380q-3 -6 -12 -6h-297q-8 0 -5 6z M1296 188v185q0 2 4 10l322 508l6 4h383q4 0 4 -6v-494q0 -6 4 -6h125q4 0 4 -4v-197q0 -6 -4 -6h-125q-4 0 -4 -4v-172q0 -6 -4 -6h-252q-4 0 -4 6v172q0 4 -6 4h-449q-4 0 -4 6zM1567 395q-2 -4 2 -6h180q6 0 6 6v283q0 8 -4 0z" />
<glyph unicode="&#xbf;" horiz-adv-x="1128" d="M41 -63q0 -122 76 -217t194 -143t252 -48q116 0 218 35.5t171.5 93.5t109.5 133t40 154v78q0 10 -10 10h-361q-10 0 -10 -10v-66q0 -80 -48.5 -119t-107.5 -39q-141 0 -141 170q0 60 37 114.5t117 88.5q129 57 177 120.5t29 176.5l-14 96q0 10 -10 10h-305q-11 0 -11 -10 l-12 -84q-7 -40 -31.5 -73.5t-81.5 -61.5q-86 -42 -143.5 -91.5t-85.5 -104t-38.5 -103.5t-10.5 -110zM446 700v267q0 8 9 8h307q5 0 6.5 -1t1.5 -7v-267q0 -6 -1.5 -7t-6.5 -1h-307q-9 0 -9 8z" />
<glyph unicode="&#xc0;" horiz-adv-x="1468" d="M4 6l502 1380q4 7 8 7h432q4 0 8 -7l512 -1380q0 -6 -4 -6h-393q-6 0 -8 6l-88 295q-3 6 -8 6h-467q-6 0 -9 -6l-88 -295q-2 -6 -8 -6h-385q-7 0 -4 6zM430 1866q-5 10 4 10h322q9 0 12 -10l82 -301q3 -11 -6 -11h-211q-9 0 -15 9zM573 584q-3 -6 5 -6h307q7 0 4 6 l-156 516q0 2 -2 2t-2 -2z" />
<glyph unicode="&#xc1;" horiz-adv-x="1468" d="M4 6l502 1380q4 7 8 7h432q4 0 8 -7l512 -1380q0 -6 -4 -6h-393q-6 0 -8 6l-88 295q-3 6 -8 6h-467q-6 0 -9 -6l-88 -295q-2 -6 -8 -6h-385q-7 0 -4 6zM573 584q-3 -6 5 -6h307q7 0 4 6l-156 516q0 2 -2 2t-2 -2zM627 1565l82 301q3 10 12 10h321q10 0 5 -10l-189 -303 q-6 -9 -14 -9h-211q-9 0 -6 11z" />
<glyph unicode="&#xc2;" horiz-adv-x="1468" d="M4 6l502 1380q4 7 8 7h432q4 0 8 -7l512 -1380q0 -6 -4 -6h-393q-6 0 -8 6l-88 295q-3 6 -8 6h-467q-6 0 -9 -6l-88 -295q-2 -6 -8 -6h-385q-7 0 -4 6zM356 1553q-1 3 2 6l226 309q4 4 8 4h282q5 0 9 -4l225 -309q3 -3 2 -6t-4 -3h-275q-8 0 -12 6l-82 156q-4 8 -8 0 l-82 -156q-4 -6 -12 -6h-275q-3 0 -4 3zM573 584q-3 -6 5 -6h307q7 0 4 6l-156 516q0 2 -2 2t-2 -2z" />
<glyph unicode="&#xc3;" horiz-adv-x="1468" d="M4 6l502 1380q4 7 8 7h432q4 0 8 -7l512 -1380q0 -6 -4 -6h-393q-6 0 -8 6l-88 295q-3 6 -8 6h-467q-6 0 -9 -6l-88 -295q-2 -6 -8 -6h-385q-7 0 -4 6zM336 1581q0 125 63.5 205t188.5 80q92 0 172 -51q63 -39 95 -29.5t32 65.5q0 7 8 7h231q9 0 9 -9q0 -282 -238 -282 q-95 0 -172 41q-51 26 -82.5 33.5t-49.5 -6.5t-18 -54q0 -8 -6 -8h-225q-8 0 -8 8zM573 584q-3 -6 5 -6h307q7 0 4 6l-156 516q0 2 -2 2t-2 -2z" />
<glyph unicode="&#xc4;" horiz-adv-x="1468" d="M4 6l502 1380q4 7 8 7h432q4 0 8 -7l512 -1380q0 -6 -4 -6h-393q-6 0 -8 6l-88 295q-3 6 -8 6h-467q-6 0 -9 -6l-88 -295q-2 -6 -8 -6h-385q-7 0 -4 6zM365 1571v260q0 6 1.5 7t6.5 1h256q8 0 8 -8v-260q0 -8 -8 -8h-256q-5 0 -6.5 1t-1.5 7zM573 584q-3 -6 5 -6h307 q7 0 4 6l-156 516q0 2 -2 2t-2 -2zM823 1571v260q0 6 1.5 7t6.5 1h254q9 0 9 -8v-260q0 -8 -9 -8h-254q-5 0 -6.5 1t-1.5 7z" />
<glyph unicode="&#xc5;" horiz-adv-x="1468" d="M4 6l502 1380q4 7 8 7h432q4 0 8 -7l512 -1380q0 -6 -4 -6h-393q-6 0 -8 6l-88 295q-3 6 -8 6h-467q-6 0 -9 -6l-88 -295q-2 -6 -8 -6h-385q-7 0 -4 6zM496 1708q0 92 73 151.5t166 59.5q97 0 168.5 -59t71.5 -152q0 -86 -75 -149.5t-165 -63.5q-87 0 -163 59.5 t-76 153.5zM573 584q-3 -6 5 -6h307q7 0 4 6l-156 516q0 2 -2 2t-2 -2zM666 1708q0 -31 19 -52.5t48 -21.5t48.5 21.5t19.5 52.5t-19.5 52.5t-48.5 21.5t-48 -21.5t-19 -52.5z" />
<glyph unicode="&#xc6;" horiz-adv-x="2086" d="M-29 6l774 1380q7 7 11 7h1253q8 0 8 -9v-254q0 -8 -8 -8h-641q-8 0 -8 -8v-246q0 -8 8 -8h571q9 0 9 -8v-254q0 -8 -9 -8h-571q-8 0 -8 -8v-303q0 -9 8 -9h653q9 0 9 -8v-254q0 -8 -9 -8h-1036q-6 0 -6 8v326q0 6 -6 6h-410q-4 0 -10 -6l-184 -328q-3 -6 -13 -6h-381 q-8 0 -4 6zM688 575q-6 -6 2 -6h283q4 0 6 4v510q-2 4 -6 0z" />
<glyph unicode="&#xc7;" horiz-adv-x="1517" d="M119 586v250q0 281 181 445.5t493 164.5q131 0 245.5 -35.5t201 -102t136 -168.5t49.5 -227q0 -6 -0.5 -7t-5.5 -1h-372q-9 0 -9 6q0 117 -74 191t-171 74q-131 0 -213 -98.5t-82 -291.5v-176q0 -185 80.5 -282t218.5 -97q97 0 168 69t71 173q0 10 11 10h370q4 0 4 -8 q-24 -227 -154.5 -357t-367.5 -153q-1 0 -3.5 -2.5t-2.5 -3.5l-25 -68q-3 -8 4 -8q20 4 41 4q88 0 148.5 -63t60.5 -150q0 -91 -70 -164t-196 -73q-129 0 -193 54t-71 136q0 8 6 8h172q4 0 4 -4q3 -15 21.5 -33t54.5 -18q35 0 52.5 21t17.5 57q0 96 -148 96q-44 0 -131 -26 q-3 -1 -4.5 1t-1.5 5l76 221q3 10 -4 10q-149 11 -262.5 62t-184 134t-106 189.5t-35.5 235.5z" />
<glyph unicode="&#xc8;" horiz-adv-x="1255" d="M147 8v1376q0 9 9 9h1022q8 0 8 -9v-254q0 -8 -8 -8h-641q-9 0 -9 -8v-246q0 -8 9 -8h571q8 0 8 -8v-254q0 -8 -8 -8h-571q-9 0 -9 -8v-303q0 -9 9 -9h653q8 0 8 -8v-254q0 -8 -8 -8h-1034q-9 0 -9 8zM360 1866q-5 10 5 10h321q9 0 12 -10l82 -301q3 -11 -6 -11h-211 q-8 0 -14 9z" />
<glyph unicode="&#xc9;" horiz-adv-x="1255" d="M147 8v1376q0 9 9 9h1022q8 0 8 -9v-254q0 -8 -8 -8h-641q-9 0 -9 -8v-246q0 -8 9 -8h571q8 0 8 -8v-254q0 -8 -8 -8h-571q-9 0 -9 -8v-303q0 -9 9 -9h653q8 0 8 -8v-254q0 -8 -8 -8h-1034q-9 0 -9 8zM537 1567l81 301q3 10 13 10h321q9 0 4 -10l-188 -303q-6 -9 -14 -9 h-211q-9 0 -6 11z" />
<glyph unicode="&#xca;" horiz-adv-x="1255" d="M147 8v1376q0 9 9 9h1022q8 0 8 -9v-254q0 -8 -8 -8h-641q-9 0 -9 -8v-246q0 -8 9 -8h571q8 0 8 -8v-254q0 -8 -8 -8h-571q-9 0 -9 -8v-303q0 -9 9 -9h653q8 0 8 -8v-254q0 -8 -8 -8h-1034q-9 0 -9 8zM287 1555q-1 3 2 6l225 309q4 4 8 4h283q4 0 8 -4l225 -309 q3 -3 2 -6t-4 -3h-274q-7 0 -12 7l-82 155q-2 3 -5 3t-4 -3l-81 -155q-5 -7 -13 -7h-274q-3 0 -4 3z" />
<glyph unicode="&#xcb;" horiz-adv-x="1255" d="M147 8v1376q0 9 9 9h1022q8 0 8 -9v-254q0 -8 -8 -8h-641q-9 0 -9 -8v-246q0 -8 9 -8h571q8 0 8 -8v-254q0 -8 -8 -8h-571q-9 0 -9 -8v-303q0 -9 9 -9h653q8 0 8 -8v-254q0 -8 -8 -8h-1034q-9 0 -9 8zM297 1573v260q0 6 1.5 7t6.5 1h256q8 0 8 -8v-260q0 -8 -8 -8h-256 q-5 0 -6.5 1t-1.5 7zM756 1573v260q0 6 1.5 7t6.5 1h254q8 0 8 -8v-260q0 -8 -8 -8h-254q-5 0 -6.5 1t-1.5 7z" />
<glyph unicode="&#xcc;" horiz-adv-x="688" d="M51 1866q-5 10 4 10h322q9 0 12 -10l82 -301q3 -11 -6 -11h-211q-8 0 -14 9zM154 8q0 -8 8 -8h364q9 0 9 8v1376q0 9 -9 9h-364q-8 0 -8 -9v-1376z" />
<glyph unicode="&#xcd;" horiz-adv-x="688" d="M154 8q0 -8 8 -8h364q9 0 9 8v1376q0 9 -9 9h-364q-8 0 -8 -9v-1376zM244 1563l82 301q3 10 12 10h321q10 0 5 -10l-189 -303q-6 -9 -14 -9h-211q-9 0 -6 11z" />
<glyph unicode="&#xce;" horiz-adv-x="688" d="M-33 1555q-1 3 2 6l226 309q4 4 8 4h282q5 0 9 -4l225 -309q3 -3 2 -6t-4 -3h-275q-7 0 -12 7l-82 155q-4 8 -8 0l-82 -155q-5 -7 -12 -7h-275q-3 0 -4 3zM154 8v1376q0 9 8 9h364q9 0 9 -9v-1376q0 -8 -9 -8h-364q-8 0 -8 8z" />
<glyph unicode="&#xcf;" horiz-adv-x="688" d="M-14 1585v260q0 6 1.5 7t6.5 1h256q8 0 8 -8v-260q0 -8 -8 -8h-256q-5 0 -6.5 1t-1.5 7zM154 8q0 -8 8 -8h364q9 0 9 8v1376q0 9 -9 9h-364q-8 0 -8 -9v-1376zM444 1585v260q0 8 9 8h254q8 0 8 -8v-260q0 -8 -8 -8h-254q-9 0 -9 8z" />
<glyph unicode="&#xd0;" horiz-adv-x="1480" d="M-29 559v254q0 8 9 8h159q8 0 8 8v555q0 9 9 9h532q163 0 287.5 -32.5t215 -100.5t137 -180.5t46.5 -266.5v-248q0 -297 -175.5 -431t-508.5 -134h-534q-9 0 -9 8v537q-3 6 -8 6h-159q-9 0 -9 8zM528 279q0 -9 9 -9h163q131 0 211 81.5t80 260.5v183q0 159 -83 243 t-214 84h-157q-9 0 -9 -8v-285q0 -8 9 -8h182q8 0 8 -8v-254q0 -8 -8 -8h-182q-9 0 -9 -6v-266z" />
<glyph unicode="&#xd1;" horiz-adv-x="1583" d="M147 8v1376q0 9 9 9h354q6 0 12 -9l541 -819q4 -8 4 0q-12 58 -12 232v589q0 7 6 7h366q9 0 9 -9v-1376q0 -8 -9 -8h-354q-7 0 -12 8l-541 852q-4 7 -4 3q-1 -1 0 -3q12 -35 12 -231v-623q0 -6 -6 -6h-366q-9 0 -9 8zM391 1579q0 125 63.5 205t188.5 80q90 0 172 -52 q63 -39 95 -29t32 66q0 6 8 6h232q8 0 8 -8q0 -282 -238 -282q-95 0 -172 41q-51 26 -82 33.5t-49 -6.5t-18 -54q0 -8 -6 -8h-226q-8 0 -8 8z" />
<glyph unicode="&#xd2;" horiz-adv-x="1634" d="M119 602v215q0 192 88.5 335.5t246 218.5t363.5 75q316 0 507.5 -169t191.5 -460v-215q0 -289 -192 -465t-507 -176t-506.5 176t-191.5 465zM498 627q0 -189 85 -292.5t234 -103.5t234.5 103.5t85.5 292.5v141q0 195 -88.5 301.5t-231.5 106.5t-231 -106.5t-88 -301.5 v-141zM516 1864q-5 10 4 10h322q9 0 12 -10l82 -301q3 -11 -6 -11h-211q-8 0 -14 9z" />
<glyph unicode="&#xd3;" horiz-adv-x="1634" d="M119 602v215q0 192 88.5 335.5t246 218.5t363.5 75q316 0 507.5 -169t191.5 -460v-215q0 -289 -192 -465t-507 -176t-506.5 176t-191.5 465zM498 627q0 -189 85 -292.5t234 -103.5t234.5 103.5t85.5 292.5v141q0 195 -88.5 301.5t-231.5 106.5t-231 -106.5t-88 -301.5 v-141zM696 1565l82 301q3 10 13 10h321q9 0 4 -10l-188 -303q-6 -9 -15 -9h-211q-9 0 -6 11z" />
<glyph unicode="&#xd4;" horiz-adv-x="1634" d="M119 602v215q0 192 88.5 335.5t246 218.5t363.5 75q316 0 507.5 -169t191.5 -460v-215q0 -289 -192 -465t-507 -176t-506.5 176t-191.5 465zM438 1555q-1 3 2 6l226 309q4 4 8 4h282q5 0 9 -4l225 -309q3 -3 2 -6t-4 -3h-275q-7 0 -12 7l-82 155q-4 8 -8 0l-82 -155 q-5 -7 -12 -7h-275q-3 0 -4 3zM498 627q0 -189 85 -292.5t234 -103.5t234.5 103.5t85.5 292.5v141q0 195 -88.5 301.5t-231.5 106.5t-231 -106.5t-88 -301.5v-141z" />
<glyph unicode="&#xd5;" horiz-adv-x="1634" d="M119 602v215q0 192 88.5 335.5t246 218.5t363.5 75q316 0 507.5 -169t191.5 -460v-215q0 -289 -192 -465t-507 -176t-506.5 176t-191.5 465zM418 1581q0 125 63.5 205t188.5 80q92 0 172 -51q63 -39 95 -29.5t32 65.5q0 7 8 7h231q9 0 9 -9q0 -282 -238 -282 q-95 0 -172 41q-51 26 -82.5 33.5t-49.5 -6.5t-18 -54q0 -8 -6 -8h-225q-8 0 -8 8zM498 627q0 -189 85 -292.5t234 -103.5t234.5 103.5t85.5 292.5v141q0 195 -88.5 301.5t-231.5 106.5t-231 -106.5t-88 -301.5v-141z" />
<glyph unicode="&#xd6;" horiz-adv-x="1634" d="M119 602v215q0 192 88.5 335.5t246 218.5t363.5 75q316 0 507.5 -169t191.5 -460v-215q0 -289 -192 -465t-507 -176t-506.5 176t-191.5 465zM449 1571v260q0 6 1.5 7t6.5 1h256q8 0 8 -8v-260q0 -8 -8 -8h-256q-5 0 -6.5 1t-1.5 7zM498 627q0 -189 85 -292.5t234 -103.5 t234.5 103.5t85.5 292.5v141q0 195 -88.5 301.5t-231.5 106.5t-231 -106.5t-88 -301.5v-141zM907 1571v260q0 6 1.5 7t6.5 1h254q9 0 9 -8v-260q0 -8 -9 -8h-254q-5 0 -6.5 1t-1.5 7z" />
<glyph unicode="&#xd7;" horiz-adv-x="1103" d="M67.5 979q-0.5 2 2.5 5l2 3l196 197q11 6 17 0l260 -260q7 -7 14 0l260 260q6 6 17 0l196 -197l2 -3q3 -3 2.5 -5t-4.5 -6l-258 -264q-8 -7 0 -15l246 -245q3 -1 3 -6.5t-3 -8.5l-197 -196q-5 -11 -16 0l-248 245q-7 7 -14 0l-248 -245q-11 -11 -16 0l-197 196 q-3 3 -3 8.5t3 6.5l248 247q6 6 -2 15l-258 262q-4 4 -4.5 6z" />
<glyph unicode="&#xd8;" horiz-adv-x="1527" d="M106 602v215q0 292 183.5 460.5t494.5 168.5q135 0 254 -35q2 -1 4 -0.5t2 2.5l80 152q3 6 9 6h159q7 0 4 -6l-110 -211q-2 -4 2 -8q132 -79 203 -214t71 -315v-215q0 -291 -182.5 -466t-495.5 -175q-169 0 -301 53q-5 0 -6 -2l-80 -151q-3 -6 -8 -6h-160q-7 0 -4 6 l119 223q2 4 0 6q-111 79 -174.5 213.5t-63.5 298.5zM485 627q0 -119 31 -207q4 -4 6 0l381 727q1 1 0.5 3.5t-2.5 2.5q-57 23 -117 23q-140 0 -219.5 -105t-79.5 -303v-141zM623 283q-2 -5 2 -9q64 -43 159 -43q147 0 223 102t76 294v141q0 90 -15 165t-42 111q-2 2 -4 0z " />
<glyph unicode="&#xd9;" horiz-adv-x="1556" d="M147 508v874q0 11 11 11h360q10 0 10 -11v-911q0 -111 66 -175.5t184 -64.5t184 64.5t66 175.5v911q0 11 10 11h361q10 0 10 -11v-874q0 -243 -168 -395t-463 -152t-463 152t-168 395zM477 1866q-5 10 4 10h322q9 0 12 -10l82 -301q3 -11 -6 -11h-211q-8 0 -14 9z" />
<glyph unicode="&#xda;" horiz-adv-x="1556" d="M147 508v874q0 11 11 11h360q10 0 10 -11v-911q0 -111 66 -175.5t184 -64.5t184 64.5t66 175.5v911q0 11 10 11h361q10 0 10 -11v-874q0 -243 -168 -395t-463 -152t-463 152t-168 395zM664 1565l81 301q3 10 13 10h321q9 0 4 -10l-188 -303q-6 -9 -14 -9h-211q-9 0 -6 11 z" />
<glyph unicode="&#xdb;" horiz-adv-x="1556" d="M147 508v874q0 11 11 11h360q10 0 10 -11v-911q0 -111 66 -175.5t184 -64.5t184 64.5t66 175.5v911q0 11 10 11h361q10 0 10 -11v-874q0 -243 -168 -395t-463 -152t-463 152t-168 395zM406 1555q-1 3 2 6l225 309q4 4 8 4h283q4 0 8 -4l225 -309q3 -3 2 -6t-4 -3h-274 q-8 0 -13 7l-82 155q-4 8 -8 0l-82 -155q-5 -7 -12 -7h-274q-3 0 -4 3z" />
<glyph unicode="&#xdc;" horiz-adv-x="1548" d="M143 508v874q0 11 11 11h360q10 0 10 -11v-911q0 -111 66 -175.5t184 -64.5t184 64.5t66 175.5v911q0 11 10 11h361q10 0 10 -11v-874q0 -243 -168 -395t-463 -152t-463 152t-168 395zM412 1573v260q0 6 1.5 7t6.5 1h256q8 0 8 -8v-260q0 -8 -8 -8h-256q-5 0 -6.5 1 t-1.5 7zM870 1573v260q0 8 9 8h254q8 0 8 -8v-260q0 -8 -8 -8h-254q-9 0 -9 8z" />
<glyph unicode="&#xdd;" horiz-adv-x="1372" d="M4 1384q-4 9 4 9h387q5 0 11 -9l276 -544q3 -7 8 0l277 544q6 9 10 9h387q8 0 4 -9l-489 -829q-2 -4 -2 -12v-535q0 -8 -9 -8h-364q-8 0 -8 8v537q0 6 -2 10zM567 1565l82 301q3 10 13 10h321q9 0 4 -10l-188 -303q-6 -9 -15 -9h-211q-9 0 -6 11z" />
<glyph unicode="&#xde;" horiz-adv-x="1232" d="M113 8v1376q0 9 8 9h340q8 0 8 -9v-276q0 -12 8 0q33 53 110.5 94t174.5 41q94 0 171.5 -34.5t125 -89.5t73 -119.5t25.5 -127.5v-337q0 -63 -25.5 -127.5t-73 -119.5t-125 -89.5t-171.5 -34.5q-97 0 -175.5 41t-111.5 94q-8 12 -8 0v-291q0 -8 -10 -8h-336q-8 0 -8 8z M469 670q0 -55 21 -109t64 -92.5t97 -38.5q64 0 107 39t43 98v273q0 59 -43 98t-107 39q-54 0 -97 -38.5t-64 -92.5t-21 -109v-67z" />
<glyph unicode="&#xdf;" horiz-adv-x="1318" d="M145 8v967q0 229 141.5 350t395.5 121q221 0 361.5 -104t140.5 -275q0 -113 -48 -182.5t-139 -126.5q-8 -4 0 -4q54 -7 104.5 -30.5t93 -62.5t68 -98.5t25.5 -130.5q0 -197 -136 -314.5t-364 -117.5h-153q-8 0 -8 8v254q0 8 8 8h72q200 0 200 168t-223 168h-47q-8 0 -8 8 v240q0 8 8 8h47q66 0 106.5 46t40.5 118q0 150 -149 150q-70 0 -113 -40t-43 -118v-1010q0 -8 -8 -8h-364q-9 0 -9 8z" />
<glyph unicode="&#xe0;" d="M66 227q0 71 25.5 130t64.5 97.5t94.5 68.5t105.5 46t107 27q73 15 231 35q6 0 6 10v23q0 56 -35.5 86t-95.5 30q-51 0 -87 -29t-42 -75q0 -8 -8 -8h-332q-8 0 -8 4v4q28 154 143.5 248t327.5 94q245 0 368.5 -103.5t123.5 -300.5v-329q0 -39 1 -71.5t4.5 -59t5.5 -42 t8.5 -35.5t7.5 -25t9.5 -24t8.5 -20q3 -8 -6 -8h-324q-2 0 -10 4q-13 12 -30.5 46.5t-22.5 55.5q-2 6 -5 0q-91 -145 -307 -145q-86 0 -158.5 27t-121.5 89t-49 150zM279 1442q-5 10 4 10h321q9 0 12 -10l82 -301q3 -11 -6 -11h-211q-8 0 -14 9zM401 279q0 -37 27.5 -57.5 t65.5 -20.5q99 0 152.5 55t53.5 131v31q0 4 -6 4q-58 -5 -121.5 -17.5t-93.5 -25.5q-78 -34 -78 -100z" />
<glyph unicode="&#xe1;" d="M66 227q0 71 25.5 130t64.5 97.5t94.5 68.5t105.5 46t107 27q73 15 231 35q6 0 6 10v23q0 56 -35.5 86t-95.5 30q-51 0 -87 -29t-42 -75q0 -8 -8 -8h-332q-8 0 -8 4v4q28 154 143.5 248t327.5 94q245 0 368.5 -103.5t123.5 -300.5v-329q0 -39 1 -71.5t4.5 -59t5.5 -42 t8.5 -35.5t7.5 -25t9.5 -24t8.5 -20q3 -8 -6 -8h-324q-2 0 -10 4q-13 12 -30.5 46.5t-22.5 55.5q-2 6 -5 0q-91 -145 -307 -145q-86 0 -158.5 27t-121.5 89t-49 150zM401 279q0 -37 27.5 -57.5t65.5 -20.5q99 0 152.5 55t53.5 131v31q0 4 -6 4q-58 -5 -121.5 -17.5 t-93.5 -25.5q-78 -34 -78 -100zM453 1141l82 301q3 10 12 10h321q9 0 4 -10l-188 -303q-6 -9 -14 -9h-211q-9 0 -6 11z" />
<glyph unicode="&#xe2;" d="M66 227q0 71 25.5 130t64.5 97.5t94.5 68.5t105.5 46t107 27q73 15 231 35q6 0 6 10v23q0 56 -35.5 86t-95.5 30q-51 0 -87 -29t-42 -75q0 -8 -8 -8h-332q-8 0 -8 4v4q28 154 143.5 248t327.5 94q245 0 368.5 -103.5t123.5 -300.5v-329q0 -39 1 -71.5t4.5 -59t5.5 -42 t8.5 -35.5t7.5 -25t9.5 -24t8.5 -20q3 -8 -6 -8h-324q-2 0 -10 4q-13 12 -30.5 46.5t-22.5 55.5q-2 6 -5 0q-91 -145 -307 -145q-86 0 -158.5 27t-121.5 89t-49 150zM199 1133q-1 3 2 6l225 309q4 4 8 4h283q4 0 8 -4l225 -309q3 -3 2 -6t-4 -3h-274q-7 0 -12 7l-82 155 q-2 3 -5 3t-4 -3l-82 -155q-5 -7 -12 -7h-274q-3 0 -4 3zM401 279q0 -37 27.5 -57.5t65.5 -20.5q99 0 152.5 55t53.5 131v31q0 4 -6 4q-58 -5 -121.5 -17.5t-93.5 -25.5q-78 -34 -78 -100z" />
<glyph unicode="&#xe3;" d="M66 227q0 71 25.5 130t64.5 97.5t94.5 68.5t105.5 46t107 27q73 15 231 35q6 0 6 10v23q0 56 -35.5 86t-95.5 30q-51 0 -87 -29t-42 -75q0 -8 -8 -8h-332q-8 0 -8 4v4q28 154 143.5 248t327.5 94q245 0 368.5 -103.5t123.5 -300.5v-329q0 -39 1 -71.5t4.5 -59t5.5 -42 t8.5 -35.5t7.5 -25t9.5 -24t8.5 -20q3 -8 -6 -8h-324q-2 0 -10 4q-13 12 -30.5 46.5t-22.5 55.5q-2 6 -5 0q-91 -145 -307 -145q-86 0 -158.5 27t-121.5 89t-49 150zM178 1157q0 125 63.5 205t188.5 80q92 0 172 -51q63 -39 95 -29.5t32 65.5q0 7 8 7h232q8 0 8 -9 q0 -282 -238 -282q-95 0 -172 41q-51 26 -82 33.5t-49 -6.5t-18 -54q0 -8 -6 -8h-226q-8 0 -8 8zM401 279q0 -37 27.5 -57.5t65.5 -20.5q99 0 152.5 55t53.5 131v31q0 4 -6 4q-58 -5 -121.5 -17.5t-93.5 -25.5q-78 -34 -78 -100z" />
<glyph unicode="&#xe4;" d="M66 227q0 71 25.5 130t64.5 97.5t94.5 68.5t105.5 46t107 27q73 15 231 35q6 0 6 10v23q0 56 -35.5 86t-95.5 30q-51 0 -87 -29t-42 -75q0 -8 -8 -8h-332q-8 0 -8 4v4q28 154 143.5 248t327.5 94q245 0 368.5 -103.5t123.5 -300.5v-329q0 -39 1 -71.5t4.5 -59t5.5 -42 t8.5 -35.5t7.5 -25t9.5 -24t8.5 -20q3 -8 -6 -8h-324q-2 0 -10 4q-13 12 -30.5 46.5t-22.5 55.5q-2 6 -5 0q-91 -145 -307 -145q-86 0 -158.5 27t-121.5 89t-49 150zM209 1149v260q0 6 1.5 7t6.5 1h256q8 0 8 -8v-260q0 -8 -8 -8h-256q-5 0 -6.5 1t-1.5 7zM401 279 q0 -37 27.5 -57.5t65.5 -20.5q99 0 152.5 55t53.5 131v31q0 4 -6 4q-58 -5 -121.5 -17.5t-93.5 -25.5q-78 -34 -78 -100zM668 1149v260q0 6 1.5 7t6.5 1h254q8 0 8 -8v-260q0 -8 -8 -8h-254q-5 0 -6.5 1t-1.5 7z" />
<glyph unicode="&#xe5;" d="M66 227q0 71 25.5 130t64.5 97.5t94.5 68.5t105.5 46t107 27q73 15 231 35q6 0 6 10v23q0 56 -35.5 86t-95.5 30q-51 0 -87 -29t-42 -75q0 -8 -8 -8h-332q-8 0 -8 4v4q28 154 143.5 248t327.5 94q245 0 368.5 -103.5t123.5 -300.5v-329q0 -39 1 -71.5t4.5 -59t5.5 -42 t8.5 -35.5t7.5 -25t9.5 -24t8.5 -20q3 -8 -6 -8h-324q-2 0 -10 4q-13 12 -30.5 46.5t-22.5 55.5q-2 6 -5 0q-91 -145 -307 -145q-86 0 -158.5 27t-121.5 89t-49 150zM336 1284q0 92 73 151.5t166 59.5q97 0 168.5 -59t71.5 -152q0 -86 -75 -149.5t-165 -63.5 q-87 0 -163 59.5t-76 153.5zM401 279q0 -37 27.5 -57.5t65.5 -20.5q99 0 152.5 55t53.5 131v31q0 4 -6 4q-58 -5 -121.5 -17.5t-93.5 -25.5q-78 -34 -78 -100zM506 1284q0 -31 19 -52.5t48 -21.5t48.5 21.5t19.5 52.5t-19.5 52.5t-48.5 21.5t-48 -21.5t-19 -52.5z" />
<glyph unicode="&#xe6;" horiz-adv-x="1806" d="M66 227q0 71 25.5 130t64.5 97.5t94.5 68.5t105.5 46t107 27q73 15 231 35q6 0 6 10v23q0 56 -35.5 86t-95.5 30q-51 0 -87 -29t-42 -75q0 -8 -8 -8h-332q-8 0 -8 4v4q28 154 143.5 248t327.5 94q219 0 344 -86q133 86 305 86q257 0 390 -143t133 -392q0 -18 -3 -48 t-6 -34q-3 -6 -6 -6h-659q-6 0 -6 -6v-10q3 -85 54.5 -127.5t123.5 -42.5q55 0 90.5 21.5t50.5 54.5q2 6 10 6h326q8 0 6 -6q-48 -151 -168.5 -237.5t-312.5 -86.5q-116 0 -214 40.5t-157 117.5q-5 5 -8 0q-114 -158 -438 -158q-72 0 -134 16t-111.5 47.5t-78 83.5 t-28.5 119zM401 279q0 -37 27.5 -57.5t65.5 -20.5q99 0 152.5 55t53.5 131v31q0 4 -6 4q-58 -5 -121.5 -17.5t-93.5 -25.5q-78 -34 -78 -100zM1055 621q0 -5 6 -5h297q6 0 6 7q-3 59 -43.5 94t-110.5 35q-63 0 -109 -32.5t-46 -96.5v-2z" />
<glyph unicode="&#xe7;" horiz-adv-x="1134" d="M78 420v135q0 220 139 341.5t367 121.5q238 0 362.5 -108t124.5 -287q0 -11 -8 -11h-279q-8 0 -8 9q0 85 -50 128.5t-142 43.5q-94 0 -145.5 -56t-51.5 -198v-101q0 -128 54 -193t143 -65q85 0 137.5 42t52.5 134q0 9 8 9h279q8 0 8 -11q0 -165 -107 -269.5t-292 -121.5 q-8 0 -11 -8l-22 -61q-3 -9 4 -9q20 4 41 4q88 0 148.5 -63t60.5 -150q0 -91 -70 -164t-196 -73q-129 0 -193.5 54t-71.5 136q0 9 7 9h172q4 0 4 -5q3 -15 21 -33t54 -18q35 0 52.5 21t17.5 57q0 96 -147 96q-44 0 -131 -26q-3 -1 -5 1t-2 5l74 217q3 14 -6 14 q-169 0 -281 130.5t-112 322.5z" />
<glyph unicode="&#xe8;" horiz-adv-x="1185" d="M78 430q0 -129 69 -236t192.5 -170t274.5 -63q192 0 313 86.5t169 237.5q2 6 -6 6h-326q-8 0 -10 -6q-15 -32 -51 -54t-91 -22q-74 0 -126 45t-52 135q0 6 6 6h660q3 0 6 6q8 12 8 82q0 250 -133 392.5t-389 142.5q-114 0 -211.5 -38.5t-163 -103.5t-102.5 -151.5 t-37 -181.5v-113zM301 1442q-5 10 4 10h322q9 0 12 -10l82 -301q3 -11 -6 -11h-211q-9 0 -15 9zM434 623q0 64 46.5 96.5t109.5 32.5q70 0 110 -35t43 -94q0 -7 -6 -7h-297q-6 0 -6 7z" />
<glyph unicode="&#xe9;" horiz-adv-x="1185" d="M78 430q0 -129 69 -236t192.5 -170t274.5 -63q192 0 313 86.5t169 237.5q2 6 -6 6h-326q-8 0 -10 -6q-15 -32 -51 -54t-91 -22q-74 0 -126 45t-52 135q0 6 6 6h660q3 0 6 6q8 12 8 82q0 250 -133 392.5t-389 142.5q-114 0 -211.5 -38.5t-163 -103.5t-102.5 -151.5 t-37 -181.5v-113zM434 623q0 64 46.5 96.5t109.5 32.5q70 0 110 -35t43 -94q0 -7 -6 -7h-297q-6 0 -6 7zM483 1141l82 301q3 10 13 10h321q9 0 4 -10l-188 -303q-6 -9 -15 -9h-211q-9 0 -6 11z" />
<glyph unicode="&#xea;" horiz-adv-x="1185" d="M78 430v113q0 95 37 181.5t102.5 151.5t163 103.5t211.5 38.5q256 0 389 -142.5t133 -392.5q0 -70 -8 -82q-3 -6 -6 -6h-660q-6 0 -6 -6q0 -90 52 -135t126 -45q55 0 91 22t51 54q2 6 10 6h326q8 0 6 -6q-48 -151 -169 -237.5t-313 -86.5q-151 0 -274.5 63t-192.5 170 t-69 236zM223 1133q-1 3 2 6l226 309q4 4 8 4h282q5 0 9 -4l225 -309q3 -3 2 -6t-4 -3h-275q-7 0 -12 7l-82 155q-4 8 -8 0l-82 -155q-5 -7 -12 -7h-275q-3 0 -4 3zM434 623q0 -7 6 -7h297q6 0 6 7q-3 59 -43 94t-110 35q-63 0 -109.5 -32.5t-46.5 -96.5z" />
<glyph unicode="&#xeb;" horiz-adv-x="1185" d="M78 430q0 -129 69 -236t192.5 -170t274.5 -63q192 0 313 86.5t169 237.5q2 6 -6 6h-326q-8 0 -10 -6q-15 -32 -51 -54t-91 -22q-74 0 -126 45t-52 135q0 6 6 6h660q3 0 6 6q8 12 8 82q0 250 -133 392.5t-389 142.5q-114 0 -211.5 -38.5t-163 -103.5t-102.5 -151.5 t-37 -181.5v-113zM233 1149v260q0 8 9 8h256q8 0 8 -8v-260q0 -8 -8 -8h-256q-9 0 -9 8zM434 623q0 64 46.5 96.5t109.5 32.5q70 0 110 -35t43 -94q0 -7 -6 -7h-297q-6 0 -6 7zM692 1149v260q0 6 1.5 7t6.5 1h254q9 0 9 -8v-260q0 -8 -9 -8h-254q-5 0 -6.5 1t-1.5 7z" />
<glyph unicode="&#xec;" horiz-adv-x="589" d="M-39 1442q-5 10 4 10h322q9 0 12 -10l82 -301q3 -11 -6 -11h-211q-8 0 -14 9zM117 8q0 -8 8 -8h340q8 0 8 8v959q0 8 -8 8h-340q-8 0 -8 -8v-959z" />
<glyph unicode="&#xed;" horiz-adv-x="589" d="M117 8q0 -8 8 -8h340q8 0 8 8v959q0 8 -8 8h-340q-8 0 -8 -8v-959zM150 1141l81 301q3 10 13 10h321q9 0 4 -10l-188 -303q-6 -9 -14 -9h-211q-9 0 -6 11z" />
<glyph unicode="&#xee;" horiz-adv-x="589" d="M-108 1133q-1 3 2 6l225 309q4 4 8 4h283q4 0 8 -4l225 -309q3 -3 2 -6t-4 -3h-274q-8 0 -13 7l-82 155q-4 8 -8 0l-82 -155q-5 -7 -12 -7h-274q-3 0 -4 3zM117 8v959q0 8 8 8h340q8 0 8 -8v-959q0 -8 -8 -8h-340q-8 0 -8 8z" />
<glyph unicode="&#xef;" horiz-adv-x="589" d="M-98 1147v260q0 6 1.5 7t6.5 1h256q8 0 8 -8v-260q0 -8 -8 -8h-256q-5 0 -6.5 1t-1.5 7zM117 8q0 -8 8 -8h340q8 0 8 8v959q0 8 -8 8h-340q-8 0 -8 -8v-959zM360 1147v260q0 8 9 8h254q8 0 8 -8v-260q0 -8 -8 -8h-254q-9 0 -9 8z" />
<glyph unicode="&#xf0;" horiz-adv-x="1318" d="M92 403q0 91 30.5 172t88 143.5t148.5 99t204 36.5q167 0 250 -66q4 -4 6 -3t0 6q-56 152 -211 256h-2l-360 -222q-8 -4 -8 6v232q0 4 4 8l133 76q6 3 0 6q-79 18 -129 23q-6 0 -6 6v260q0 4 8 4q207 -18 416 -117q4 0 6 2l272 166q6 3 6 -4v-223q0 -7 -6 -13l-76 -47 q-3 -3 0 -6q154 -121 242 -286.5t88 -364.5q0 -181 -75.5 -316t-207.5 -205.5t-303 -70.5q-92 0 -182 28t-166 81t-123 139.5t-47 193.5zM473 406q0 -75 46 -125t120 -50q72 0 123 50t51 122q0 85 -49.5 133t-124.5 48q-63 0 -114.5 -48.5t-51.5 -129.5z" />
<glyph unicode="&#xf1;" horiz-adv-x="1243" d="M113 8v959q0 8 8 8h221q9 0 12 -8l60 -115q3 -8 8 0q45 71 133.5 118.5t192.5 47.5q186 0 287.5 -107.5t101.5 -277.5v-625q0 -8 -9 -8h-340q-8 0 -8 8v592q0 63 -36.5 107.5t-106.5 44.5q-79 0 -123.5 -54t-44.5 -137v-553q0 -8 -8 -8h-340q-8 0 -8 8zM193 1155 q0 125 63 205t188 80q92 0 172 -51q63 -39 95 -29.5t32 65.5q0 7 9 7h231q8 0 8 -9q0 -282 -237 -282q-95 0 -172 41q-51 26 -82.5 33.5t-49.5 -6.5t-18 -54q0 -8 -6 -8h-225q-8 0 -8 8z" />
<glyph unicode="&#xf2;" horiz-adv-x="1273" d="M78 408v163q0 125 71 227t199.5 161t288.5 59t288.5 -59t199.5 -161t71 -227v-163q0 -85 -42 -166t-114 -143.5t-178 -100t-225 -37.5t-225 37.5t-178 100t-114 143.5t-42 166zM334 1442q-5 10 4 10h321q10 0 13 -10l82 -301q3 -11 -6 -11h-211q-9 0 -15 9zM434 442 q0 -97 55 -159t148 -62t148 62t55 159v95q0 102 -54 158.5t-149 56.5t-149 -56.5t-54 -158.5v-95z" />
<glyph unicode="&#xf3;" horiz-adv-x="1267" d="M78 408v163q0 125 71 227t199.5 161t288.5 59t288.5 -59t199.5 -161t71 -227v-163q0 -85 -42 -166t-114 -143.5t-178 -100t-225 -37.5t-225 37.5t-178 100t-114 143.5t-42 166zM434 442q0 -97 55 -159t148 -62t148 62t55 159v95q0 102 -54 158.5t-149 56.5t-149 -56.5 t-54 -158.5v-95zM512 1141l82 301q3 10 12 10h322q9 0 4 -10l-189 -303q-6 -9 -14 -9h-211q-9 0 -6 11z" />
<glyph unicode="&#xf4;" horiz-adv-x="1273" d="M78 408v163q0 125 71 227t199.5 161t288.5 59t288.5 -59t199.5 -161t71 -227v-163q0 -85 -42 -166t-114 -143.5t-178 -100t-225 -37.5t-225 37.5t-178 100t-114 143.5t-42 166zM260 1133q-1 3 2 6l225 309q4 4 9 4h282q4 0 8 -4l226 -309q3 -3 2 -6t-4 -3h-275 q-7 0 -12 7l-82 155q-4 8 -8 0l-82 -155q-5 -7 -12 -7h-275q-3 0 -4 3zM434 442q0 -97 55 -159t148 -62t148 62t55 159v95q0 102 -54 158.5t-149 56.5t-149 -56.5t-54 -158.5v-95z" />
<glyph unicode="&#xf5;" horiz-adv-x="1273" d="M78 408v163q0 125 71 227t199.5 161t288.5 59t288.5 -59t199.5 -161t71 -227v-163q0 -85 -42 -166t-114 -143.5t-178 -100t-225 -37.5t-225 37.5t-178 100t-114 143.5t-42 166zM240 1157q0 125 63.5 205t188.5 80q92 0 172 -51q63 -39 95 -29.5t32 65.5q0 7 8 7h231 q8 0 8 -9q0 -282 -237 -282q-95 0 -172 41q-51 26 -82.5 33.5t-49.5 -6.5t-18 -54q0 -8 -6 -8h-225q-8 0 -8 8zM434 442q0 -97 55 -159t148 -62t148 62t55 159v95q0 102 -54 158.5t-149 56.5t-149 -56.5t-54 -158.5v-95z" />
<glyph unicode="&#xf6;" horiz-adv-x="1273" d="M78 408v163q0 125 71 227t199.5 161t288.5 59t288.5 -59t199.5 -161t71 -227v-163q0 -85 -42 -166t-114 -143.5t-178 -100t-225 -37.5t-225 37.5t-178 100t-114 143.5t-42 166zM270 1149v260q0 8 9 8h256q8 0 8 -8v-260q0 -8 -8 -8h-256q-9 0 -9 8zM434 442 q0 -97 55 -159t148 -62t148 62t55 159v95q0 102 -54 158.5t-149 56.5t-149 -56.5t-54 -158.5v-95zM729 1149v260q0 6 1.5 7t6.5 1h254q8 0 8 -8v-260q0 -8 -8 -8h-254q-5 0 -6.5 1t-1.5 7z" />
<glyph unicode="&#xf7;" horiz-adv-x="1181" d="M113 563v281q0 10 12 10h932q12 0 12 -10v-281q0 -10 -12 -10h-932q-12 0 -12 10zM410 324q0 74 52.5 126t127.5 52q74 0 126 -52t52 -126q0 -75 -52 -128t-126 -53q-75 0 -127.5 53t-52.5 128zM410 1085q0 74 52.5 126.5t127.5 52.5q73 0 125.5 -52.5t52.5 -126.5 q0 -75 -52 -127.5t-126 -52.5q-75 0 -127.5 52.5t-52.5 127.5z" />
<glyph unicode="&#xf8;" horiz-adv-x="1273" d="M78 408v163q0 125 71 227t199.5 161t288.5 59q92 0 186 -23q5 0 6 2l70 133q3 7 8 7h140q7 0 4 -7l-97 -182q-3 -6 2 -6q113 -59 176.5 -156.5t63.5 -214.5v-163q0 -85 -42 -166t-114 -143.5t-178 -100t-225 -37.5q-90 0 -186 27q-5 0 -7 -4l-73 -140q-3 -6 -9 -6h-137 q-7 0 -4 6l101 189q1 1 0 3.5t-3 2.5q-113 62 -177 161.5t-64 207.5zM434 442q0 -67 31 -127q0 -8 4 0l225 424q3 6 -2 6q-28 7 -55 7q-95 0 -149 -56.5t-54 -158.5v-95zM575 233q-3 -6 3 -6q18 -6 59 -6q93 0 148 62t55 159v95q0 67 -31 127q0 4 -4 2l-2 -4z" />
<glyph unicode="&#xf9;" horiz-adv-x="1243" d="M106 342q0 -170 98 -275.5t283 -105.5q198 0 334 168q5 8 8 0l60 -121q3 -8 12 -8h221q8 0 8 8v959q0 8 -8 8h-340q-8 0 -8 -8v-525q0 -103 -45 -161t-131 -58q-65 0 -100 45t-35 107v592q0 8 -8 8h-340q-9 0 -9 -8v-625zM272 1442q-5 10 4 10h322q9 0 12 -10l82 -301 q3 -11 -6 -11h-211q-8 0 -14 9z" />
<glyph unicode="&#xfa;" horiz-adv-x="1243" d="M106 342q0 -170 98 -275.5t283 -105.5q198 0 334 168q5 8 8 0l60 -121q3 -8 12 -8h221q8 0 8 8v959q0 8 -8 8h-340q-8 0 -8 -8v-525q0 -103 -45 -161t-131 -58q-65 0 -100 45t-35 107v592q0 8 -8 8h-340q-9 0 -9 -8v-625zM455 1141l82 301q3 10 12 10h321q9 0 4 -10 l-188 -303q-6 -9 -14 -9h-211q-9 0 -6 11z" />
<glyph unicode="&#xfb;" horiz-adv-x="1243" d="M106 342v625q0 8 9 8h340q8 0 8 -8v-592q0 -62 35 -107t100 -45q86 0 131 58t45 161v525q0 8 8 8h340q8 0 8 -8v-959q0 -8 -8 -8h-221q-9 0 -12 8l-60 121q-3 8 -8 0q-136 -168 -334 -168q-185 0 -283 105.5t-98 275.5zM201 1133q-1 3 2 6l225 309q4 4 8 4h283q4 0 8 -4 l225 -309q3 -3 2 -6t-4 -3h-274q-7 0 -12 7l-82 155q-2 3 -5 3t-4 -3l-81 -155q-5 -7 -13 -7h-274q-3 0 -4 3z" />
<glyph unicode="&#xfc;" horiz-adv-x="1243" d="M106 342q0 -170 98 -275.5t283 -105.5q198 0 334 168q5 8 8 0l60 -121q3 -8 12 -8h221q8 0 8 8v959q0 8 -8 8h-340q-8 0 -8 -8v-525q0 -103 -45 -161t-131 -58q-65 0 -100 45t-35 107v592q0 8 -8 8h-340q-9 0 -9 -8v-625zM211 1147v260q0 6 1.5 7t6.5 1h256q8 0 8 -8 v-260q0 -8 -8 -8h-256q-5 0 -6.5 1t-1.5 7zM670 1147v260q0 6 1.5 7t6.5 1h254q8 0 8 -8v-260q0 -8 -8 -8h-254q-5 0 -6.5 1t-1.5 7z" />
<glyph unicode="&#xfd;" horiz-adv-x="1128" d="M4 967l397 -1006q2 -4 2 -8l-49 -135q-27 -72 -98 -72q-60 0 -100 37q-6 6 -6 -2v-227q0 -5 2 -7q23 -22 71 -35.5t103 -13.5q52 0 92.5 9t83.5 34t80.5 76t68.5 129q58 143 486 1221q0 8 -9 8h-342q-15 0 -18 -8l-195 -594q-4 -7 -6 0l-194 594q-3 8 -15 8h-348 q-9 0 -6 -8zM475 1141l82 301q3 10 12 10h322q9 0 4 -10l-188 -303q-6 -9 -15 -9h-211q-9 0 -6 11z" />
<glyph unicode="&#xfe;" horiz-adv-x="1232" d="M113 -514v1898q0 9 8 9h340q8 0 8 -9v-503q0 -12 8 0q33 53 110.5 94t174.5 41q94 0 171.5 -34.5t125 -89.5t73 -119.5t25.5 -127.5v-317q0 -63 -25.5 -126.5t-73 -118t-125 -88.5t-171.5 -34q-97 0 -175.5 41t-111.5 94q-8 12 -8 0v-610q0 -8 -10 -8h-336q-8 0 -8 8z M469 455q0 -87 50.5 -159.5t131.5 -72.5q64 0 107 39t43 98v252q0 59 -43 98.5t-107 39.5q-81 0 -131.5 -71t-50.5 -157v-67z" />
<glyph unicode="&#xff;" horiz-adv-x="1128" d="M4 967l397 -1006q2 -4 2 -8l-49 -135q-27 -72 -98 -72q-60 0 -100 37q-6 6 -6 -2v-227q0 -5 2 -7q23 -22 71 -35.5t103 -13.5q52 0 92.5 9t83.5 34t80.5 76t68.5 129q58 143 486 1221q0 8 -9 8h-342q-15 0 -18 -8l-195 -594q-4 -7 -6 0l-194 594q-3 8 -15 8h-348 q-9 0 -6 -8zM223 1153v260q0 6 1.5 7t6.5 1h256q9 0 9 -8v-260q0 -8 -9 -8h-256q-5 0 -6.5 1t-1.5 7zM682 1153v260q0 6 1.5 7t6.5 1h254q8 0 8 -8v-260q0 -8 -8 -8h-254q-5 0 -6.5 1t-1.5 7z" />
<glyph unicode="&#x131;" horiz-adv-x="589" d="M117 8v959q0 8 8 8h340q8 0 8 -8v-959q0 -8 -8 -8h-340q-8 0 -8 8z" />
<glyph unicode="&#x152;" horiz-adv-x="2187" d="M119 602v215q0 298 159.5 463.5t464.5 165.5q103 0 195 -34.5t154 -96.5q4 -4 4 0v69q0 9 8 9h1022q8 0 8 -9v-254q0 -8 -8 -8h-641q-8 0 -8 -8v-246q0 -8 8 -8h571q8 0 8 -8v-254q0 -8 -8 -8h-571q-8 0 -8 -8v-303q0 -9 8 -9h653q8 0 8 -8v-254q0 -8 -8 -8h-1034 q-8 0 -8 8v80q0 6 -4 2q-157 -129 -349 -129q-206 0 -347.5 80.5t-209 223t-67.5 337.5zM498 627q0 -192 76 -294t223 -102t223 102t76 294v159q0 188 -81 289t-218 101q-140 0 -219.5 -105t-79.5 -303v-141z" />
<glyph unicode="&#x153;" horiz-adv-x="1927" d="M72 408v163q0 125 71 227t199.5 161t288.5 59q123 0 220 -35t155 -90q2 -2 4 0q80 60 156.5 92.5t181.5 32.5q256 0 389 -142.5t133 -392.5q0 -70 -8 -82q-3 -6 -7 -6h-659q-6 0 -6 -6q0 -90 52 -135t126 -45q55 0 90.5 21.5t50.5 54.5q2 6 11 6h325q8 0 6 -6 q-48 -151 -168.5 -237.5t-312.5 -86.5q-106 0 -207.5 35.5t-154.5 91.5q-5 5 -7 0q-44 -55 -150 -91t-220 -36q-119 0 -225 37.5t-178 100t-114 143.5t-42 166zM428 442q0 -97 55 -159t148 -62t148 62t55 159v101q-1 99 -55.5 154t-147.5 55q-95 0 -149 -56.5t-54 -158.5 v-95zM1190 623q0 -7 6 -7h297q6 0 6 7q-3 59 -43 94t-110 35q-63 0 -109.5 -32.5t-46.5 -96.5z" />
<glyph unicode="&#x160;" horiz-adv-x="1316" d="M66 436q0 6 4 8h366q10 0 10 -8q0 -94 63.5 -149.5t176.5 -55.5q88 0 132 40.5t44 93.5q0 56 -31 88.5t-100 56.5q-236 83 -321 115q-312 118 -312 399q0 126 73 223t196.5 148t275.5 51q150 0 265 -40t182 -107t100 -147t33 -169q0 -8 -6 -8h-367q-10 0 -10 8 q0 96 -52.5 144.5t-144.5 48.5q-69 0 -116.5 -33.5t-47.5 -89.5q0 -48 29.5 -78.5t105.5 -56.5l244 -89q205 -66 296 -170t91 -260q0 -202 -163.5 -321.5t-428.5 -116.5q-167 2 -298 56t-210 162.5t-79 256.5zM307 1873.5q1 2.5 4 2.5h224q8 0 12 -6l92 -166q4 -8 8 0 l92 166q4 6 13 6h223q3 0 4 -2.5t-2 -5.5l-225 -309q-5 -5 -9 -5h-200q-3 0 -8 5l-226 309q-3 3 -2 5.5z" />
<glyph unicode="&#x161;" horiz-adv-x="1081" d="M51 313q0 6 6 6h340q6 0 6 -6q3 -52 47.5 -79t106.5 -27q57 0 87 19t30 48q0 21 -17 36t-61 28l-297 88q-221 66 -221 260q0 136 134 234t341 98q130 0 236 -41.5t168.5 -119.5t62.5 -177q0 -6 -6 -6h-340q-6 0 -6 6q0 41 -34 64.5t-89 23.5q-44 0 -77.5 -18t-33.5 -50 q0 -40 84 -65l266 -78q120 -36 181 -96t61 -160q0 -159 -125 -249.5t-346 -90.5q-216 0 -353.5 93t-150.5 259zM195 1449.5q1 2.5 4 2.5h223q8 0 12 -6l92 -166q2 -3 5 -3t4 3l92 166q4 6 12 6h223q3 0 4 -2.5t-2 -5.5l-225 -309q-5 -5 -8 -5h-201q-3 0 -8 5l-225 309 q-3 3 -2 5.5z" />
<glyph unicode="&#x178;" horiz-adv-x="1372" d="M4 1384q-4 9 4 9h387q5 0 11 -9l276 -544q3 -7 8 0l277 544q6 9 10 9h387q8 0 4 -9l-489 -829q-2 -4 -2 -12v-535q0 -8 -9 -8h-364q-8 0 -8 8v537q0 6 -2 10zM319 1573v260q0 8 9 8h256q8 0 8 -8v-260q0 -8 -8 -8h-256q-9 0 -9 8zM778 1573v260q0 6 1.5 7t6.5 1h254 q9 0 9 -8v-260q0 -8 -9 -8h-254q-5 0 -6.5 1t-1.5 7z" />
<glyph unicode="&#x17d;" horiz-adv-x="1177" d="M51 8v211q0 13 4 17l627 880q6 6 -2 6h-594q-8 0 -8 8v254q0 9 8 9h1006q8 0 8 -9v-243q0 -10 -8 -21l-592 -844q-6 -6 2 -6h620q8 0 8 -8v-254q0 -8 -8 -8h-1063q-8 0 -8 8zM254 1873.5q1 2.5 4 2.5h223q9 0 13 -6l92 -166q4 -8 8 0l92 166q4 6 12 6h224q3 0 4 -2.5 t-2 -5.5l-226 -309q-5 -5 -8 -5h-201q-3 0 -8 5l-225 309q-3 3 -2 5.5z" />
<glyph unicode="&#x17e;" horiz-adv-x="927" d="M57 4v229q0 5 4 9l414 460q3 7 -2 7h-393q-8 0 -8 8v250q0 8 8 8h799q4 0 4 -4v-219q0 -5 -4 -9l-433 -471q-6 -6 3 -6h440q8 0 8 -8v-250q0 -8 -8 -8h-828q-4 0 -4 4zM141 1451.5q1 2.5 4 2.5h224q8 0 12 -6l92 -166q4 -8 8 0l92 166q4 6 13 6h223q3 0 4 -2.5t-2 -5.5 l-225 -309q-4 -4 -8 -4h-201q-4 0 -8 4l-226 309q-3 3 -2 5.5z" />
<glyph unicode="&#x192;" horiz-adv-x="1042" d="M8 -293q3 6 4 6q27 -22 109 -22q86 0 108 98l213 981h-194q-8 0 -8 4q2 2 2 4v201q3 8 10 8h237l43 191q30 133 106.5 200.5t211.5 67.5q50 0 90.5 -8t55.5 -16l16 -7q4 -4 4 -12v-203q0 -8 -4 -8t-33.5 14.5t-56.5 14.5q-78 0 -95 -86l-36 -148h217q8 0 8 -8v-201 q-3 -8 -10 -8h-263l-225 -1014q-33 -149 -113.5 -222t-197.5 -73q-61 0 -110 11.5t-68 22.5l-19 11q-2 4 -2 11v190z" />
<glyph unicode="&#x2c6;" horiz-adv-x="1019" d="M137 1073.5q-1 2.5 2 5.5l226 310q4 4 8 4h282q5 0 9 -4l225 -310q3 -3 2 -5.5t-4 -2.5h-275q-8 0 -12 6l-82 156q-4 8 -8 0l-82 -156q-4 -6 -12 -6h-275q-3 0 -4 2.5z" />
<glyph unicode="&#x2c7;" horiz-adv-x="983" d="M156 1398.5q1 2.5 4 2.5h223q8 0 12 -6l92 -166q1 -3 4 -3t5 3l92 166q4 6 12 6h223q3 0 4 -2.5t-2 -5.5l-225 -310q-4 -4 -8 -4h-201q-4 0 -8 4l-225 310q-3 3 -2 5.5z" />
<glyph unicode="&#x2d8;" horiz-adv-x="1026" d="M164 1386q0 7 6 7h254q4 0 4 -7q0 -54 19 -82t67 -28q49 0 66.5 27.5t17.5 82.5q0 7 4 7h254q6 0 6 -7q0 -143 -95 -224t-253 -81q-154 0 -252 81.5t-98 223.5z" />
<glyph unicode="&#x2d9;" horiz-adv-x="997" d="M348 1108v278q0 7 6 7h289q6 0 6 -7v-278q0 -6 -6 -6h-289q-6 0 -6 6z" />
<glyph unicode="&#x2da;" horiz-adv-x="987" d="M254 1235q0 92 73.5 151.5t166.5 59.5q96 0 167.5 -59t71.5 -152q0 -86 -74.5 -149.5t-164.5 -63.5q-87 0 -163.5 59.5t-76.5 153.5zM424 1235q0 -31 19.5 -52.5t48.5 -21.5t48 21.5t19 52.5t-19 52.5t-48 21.5t-48.5 -21.5t-19.5 -52.5z" />
<glyph unicode="&#x2db;" horiz-adv-x="1050" d="M256 -233q0 148 219 280h320q-9 -6 -40.5 -25.5t-53 -33.5t-54.5 -36t-55.5 -40t-44.5 -39t-33.5 -39.5t-11.5 -34.5q0 -49 45 -49q33 0 78 35q6 0 8 -4l102 -141q0 -1 1 -3.5t1 -3.5q-2 -2 -2 -4q-101 -82 -252 -82q-40 0 -79.5 13.5t-73 39t-54 69t-20.5 98.5z" />
<glyph unicode="&#x2dc;" horiz-adv-x="1024" d="M106 1167q0 125 63.5 205t188.5 80q92 0 172 -51q63 -39 95 -29t32 66q0 6 9 6h231q8 0 8 -8q0 -283 -237 -283q-95 0 -172 41q-51 26 -82.5 33.5t-49.5 -6.5t-18 -54q0 -8 -6 -8h-225q-9 0 -9 8z" />
<glyph unicode="&#x2dd;" horiz-adv-x="1427" d="M268 1081l82 301q4 11 12 11h322q4 0 5 -4t-1 -7l-188 -303q-5 -8 -15 -8h-211q-8 0 -6 10zM739 1081l82 301q4 11 13 11h321q9 0 4 -11l-188 -303q-5 -8 -15 -8h-211q-9 0 -6 10z" />
<glyph unicode="&#x3c0;" horiz-adv-x="1298" d="M51 713v254q0 8 8 8h1180q8 0 8 -8v-254q0 -8 -8 -8h-92q-4 0 -4 -7v-690q0 -8 -8 -8h-369q-6 0 -6 8v690q0 7 -4 7h-217q-4 0 -4 -7v-690q0 -8 -9 -8h-366q-6 0 -6 8v690q0 7 -4 7h-91q-8 0 -8 8z" />
<glyph unicode="&#x2000;" horiz-adv-x="959" />
<glyph unicode="&#x2001;" horiz-adv-x="1919" />
<glyph unicode="&#x2002;" horiz-adv-x="959" />
<glyph unicode="&#x2003;" horiz-adv-x="1919" />
<glyph unicode="&#x2004;" horiz-adv-x="639" />
<glyph unicode="&#x2005;" horiz-adv-x="479" />
<glyph unicode="&#x2006;" horiz-adv-x="319" />
<glyph unicode="&#x2007;" horiz-adv-x="319" />
<glyph unicode="&#x2008;" horiz-adv-x="239" />
<glyph unicode="&#x2009;" horiz-adv-x="383" />
<glyph unicode="&#x200a;" horiz-adv-x="106" />
<glyph unicode="&#x2010;" horiz-adv-x="806" d="M113 348v281q0 10 12 10h557q12 0 12 -10v-281q0 -10 -12 -10h-557q-12 0 -12 10z" />
<glyph unicode="&#x2011;" horiz-adv-x="806" d="M113 348v281q0 10 12 10h557q12 0 12 -10v-281q0 -10 -12 -10h-557q-12 0 -12 10z" />
<glyph unicode="&#x2012;" horiz-adv-x="806" d="M113 348v281q0 10 12 10h557q12 0 12 -10v-281q0 -10 -12 -10h-557q-12 0 -12 10z" />
<glyph unicode="&#x2013;" horiz-adv-x="1284" d="M113 461v280q0 11 10 11h1038q10 0 10 -9v-282q0 -10 -10 -10h-1038q-10 0 -10 10z" />
<glyph unicode="&#x2014;" horiz-adv-x="1656" d="M113 461v280q0 11 10 11h1411q10 0 10 -11v-280q0 -10 -10 -10h-1411q-10 0 -10 10z" />
<glyph unicode="&#x2018;" horiz-adv-x="581" d="M113 662v239q0 87 10 162t36 147t66.5 123t106 82t149.5 31q5 0 6.5 -1t1.5 -7v-168q0 -6 -1.5 -7t-6.5 -1q-164 0 -164 -236q0 -8 9 -8h155q5 0 6.5 -1t1.5 -7v-348q0 -9 -8 -9h-360q-8 0 -8 9z" />
<glyph unicode="&#x2019;" horiz-adv-x="581" d="M92 606v168q0 6 1.5 7t6.5 1q164 0 164 238q0 8 -8 8h-156q-5 0 -6.5 1t-1.5 7v348q0 9 8 9h361q8 0 8 -9v-239q0 -87 -10 -162t-36 -147.5t-67 -123.5t-106.5 -82.5t-149.5 -31.5q-5 0 -6.5 1t-1.5 7z" />
<glyph unicode="&#x201a;" horiz-adv-x="581" d="M92 8v348q0 9 8 9h361q8 0 8 -9v-239q0 -87 -10 -162t-36 -147.5t-67 -123.5t-106.5 -82.5t-149.5 -31.5q-5 0 -6.5 1t-1.5 7v168q0 6 1.5 7t6.5 1q164 0 164 238q0 8 -8 8h-156q-5 0 -6.5 1t-1.5 7z" />
<glyph unicode="&#x201c;" horiz-adv-x="1077" d="M113 662v239q0 87 10 162t36 147t66.5 123t106 82t149.5 31q5 0 6.5 -1t1.5 -7v-168q0 -6 -1.5 -7t-6.5 -1q-164 0 -164 -236q0 -8 9 -8h155q5 0 6.5 -1t1.5 -7v-348q0 -9 -8 -9h-360q-8 0 -8 9zM608 662v239q0 87 10 162t36 147t67 123t106.5 82t149.5 31q5 0 6.5 -1 t1.5 -7v-168q0 -6 -1.5 -7t-6.5 -1q-164 0 -164 -236q0 -8 8 -8h156q5 0 6.5 -1t1.5 -7v-348q0 -9 -8 -9h-361q-8 0 -8 9z" />
<glyph unicode="&#x201d;" horiz-adv-x="1077" d="M92 608v168q0 6 1.5 7t6.5 1q164 0 164 236q0 8 -8 8h-156q-5 0 -6.5 1t-1.5 7v348q0 9 8 9h361q8 0 8 -9v-239q0 -87 -10 -162t-36 -147t-67 -123t-106.5 -82t-149.5 -31q-5 0 -6.5 1t-1.5 7zM588 608v168q0 6 1.5 7t6.5 1q164 0 164 236q0 8 -8 8h-156q-5 0 -6.5 1 t-1.5 7v348q0 9 8 9h360q9 0 9 -9v-239q0 -87 -10 -162t-36 -147t-67 -123t-106.5 -82t-149.5 -31q-5 0 -6.5 1t-1.5 7z" />
<glyph unicode="&#x201e;" horiz-adv-x="1077" d="M92 8v348q0 9 8 9h361q8 0 8 -9v-239q0 -87 -10 -162t-36 -147t-67 -123t-106.5 -82t-149.5 -31q-5 0 -6.5 1t-1.5 7v168q0 6 1.5 7t6.5 1q164 0 164 236q0 8 -8 8h-156q-5 0 -6.5 1t-1.5 7zM588 8v348q0 9 8 9h360q9 0 9 -9v-239q0 -87 -10 -162t-36 -147t-67 -123 t-106.5 -82t-149.5 -31q-5 0 -6.5 1t-1.5 7v168q0 6 1.5 7t6.5 1q164 0 164 236q0 8 -8 8h-156q-5 0 -6.5 1t-1.5 7z" />
<glyph unicode="&#x2020;" horiz-adv-x="1054" d="M31 807v254q0 8 8 8h289q6 0 6 6v309q0 9 8 9h365q8 0 8 -9v-309q0 -3 1.5 -4.5t3.5 -1.5h1h295q8 0 8 -8v-254q0 -8 -8 -8h-295q-6 0 -6 -4v-1196q0 -9 -8 -9h-365q-8 0 -8 9v1194q0 6 -6 6h-289q-8 0 -8 8z" />
<glyph unicode="&#x2021;" horiz-adv-x="1054" d="M31 -78v254q0 8 8 8h289q6 0 6 6v603q0 6 -6 6h-289q-8 0 -8 8v254q0 8 8 8h289q6 0 6 6v309q0 9 8 9h365q8 0 8 -9v-309q0 -3 1.5 -4.5t3.5 -1.5h1h295q8 0 8 -8v-254q0 -8 -8 -8h-295q-6 0 -6 -4v-607l6 -4h295q8 0 8 -8v-254q0 -8 -8 -8h-295q-6 0 -6 -4v-311 q0 -9 -8 -9h-365q-8 0 -8 9v309q0 6 -6 6h-289q-8 0 -8 8z" />
<glyph unicode="&#x2022;" horiz-adv-x="823" d="M113 686q0 123 88 211t211 88t211 -88t88 -211t-88 -211t-211 -88t-211 88t-88 211z" />
<glyph unicode="&#x2026;" horiz-adv-x="2015" d="M147 8v348q0 9 9 9h360q8 0 8 -9v-348q0 -8 -8 -8h-360q-9 0 -9 8zM819 8v348q0 9 8 9h361q8 0 8 -9v-348q0 -8 -8 -8h-361q-5 0 -6.5 1t-1.5 7zM1491 8v348q0 9 8 9h361q8 0 8 -9v-348q0 -8 -8 -8h-361q-5 0 -6.5 1t-1.5 7z" />
<glyph unicode="&#x202f;" horiz-adv-x="383" />
<glyph unicode="&#x2030;" horiz-adv-x="2641" d="M78 1075q0 167 111.5 269t267.5 102q75 0 143.5 -25.5t121.5 -72t84.5 -117.5t31.5 -156q0 -111 -54 -196.5t-140 -128.5t-187 -43q-156 0 -267.5 100.5t-111.5 267.5zM240 6q25 33 111.5 148t113 149.5t102.5 135.5t106 142t96 130.5t101 138t92.5 128t98 138.5 t89.5 130.5t95 139.5q5 7 10 7h318q7 0 4 -7q-377 -490 -1008 -1380q-3 -6 -12 -6h-313q-7 0 -4 6zM338 1075q0 -67 33 -106t86 -39t87 39.5t34 105.5q0 68 -34 108t-87 40t-86 -40t-33 -108zM985 330q0 167 111.5 268.5t267.5 101.5q101 0 187 -43t140 -129t54 -198 q0 -111 -54 -197t-140 -129t-187 -43q-156 0 -267.5 101t-111.5 268zM1245 330q0 -67 33 -106.5t86 -39.5t87 39.5t34 106.5q0 68 -33.5 107.5t-87.5 39.5q-53 0 -86 -39.5t-33 -107.5zM1804 330q0 167 111.5 268.5t267.5 101.5q101 0 187 -43t140 -129t54 -198 q0 -111 -54 -197t-140 -129t-187 -43q-156 0 -267.5 101t-111.5 268zM2064 330q0 -67 33 -106.5t86 -39.5t87 39.5t34 106.5q0 68 -33.5 107.5t-87.5 39.5q-53 0 -86 -39.5t-33 -107.5z" />
<glyph unicode="&#x2039;" horiz-adv-x="598" d="M72 465v190q0 9 4 13l452 385q3 3 5 2.5t3 -2t1 -2.5v-330q0 -3 -7 -8l-202 -152q-2 -2 0 -4l202 -149q7 -5 7 -9v-331q0 -9 -9 0l-452 385q-4 4 -4 12z" />
<glyph unicode="&#x203a;" horiz-adv-x="598" d="M61 68v331q0 4 7 9l202 149q2 2 0 4l-202 152q-7 5 -7 8v330q0 1 1 2.5t3 2t5 -2.5l452 -385q4 -4 4 -13v-190q0 -8 -4 -12l-452 -385q-9 -9 -9 0z" />
<glyph unicode="&#x2044;" horiz-adv-x="937" d="M-59 -143q616 1408 741 1708q2 6 10 6h301q7 0 4 -6q-44 -103 -336.5 -772.5t-406.5 -935.5q-4 -7 -12 -7h-297q-7 0 -4 7z" />
<glyph unicode="&#x205f;" horiz-adv-x="479" />
<glyph unicode="&#x20ac;" horiz-adv-x="1505" d="M2 451v188q0 8 8 8h88q5 0 8 6v88q0 9 -8 9h-88q-8 0 -8 8v188q0 8 8 8h99q8 0 8 9q40 226 214 354.5t449 128.5q131 0 245.5 -35.5t201 -102t136.5 -168.5t50 -227q0 -6 -0.5 -7t-5.5 -1h-373q-8 0 -8 6q0 117 -74.5 191t-171.5 74q-98 0 -174 -56.5t-98 -158.5 q0 -7 8 -7h260q8 0 8 -8v-188q0 -8 -8 -8h-282q-9 0 -9 -7v-88q0 -8 9 -8h282q8 0 8 -8v-188q0 -9 -8 -9h-256q-10 0 -10 -8q32 -100 103 -151.5t171 -51.5q98 0 169 69t71 173q0 10 10 10h371q4 0 4 -8q-25 -249 -182.5 -381.5t-442.5 -132.5q-292 0 -458.5 128t-206.5 351 q-1 0 -3 1t-3 1h-103q-8 0 -8 9z" />
<glyph unicode="&#x2122;" horiz-adv-x="1873" d="M41 1196v190q0 7 6 7h1075q8 0 11 -9l157 -454q3 -6 6 0l138 454q3 9 10 9h344q8 0 8 -9v-745q0 -6 -6 -6h-240q-6 0 -6 6v215q0 163 8 264q0 6 -4 2q-2 -1 -2 -2l-157 -479q-3 -6 -7 -6h-178q-3 0 -6 6l-158 479q-2 3 -4 3t-2 -3q8 -78 8 -264v-215q0 -6 -6 -6h-239 q-6 0 -6 6v545q0 6 -7 6h-227q-6 0 -6 -6v-545q0 -6 -6 -6h-260q-6 0 -6 6v545q0 6 -7 6h-225q-6 0 -6 6z" />
<glyph unicode="&#x2202;" horiz-adv-x="1368" d="M92 451q0 114 43.5 208t116.5 154t165.5 92.5t194.5 32.5q176 0 287 -78q4 -2 6 2q0 153 -87.5 236.5t-221.5 83.5q-89 0 -168 -34t-125 -71q-10 -7 -14 2l-111 221q-4 8 2 11q195 135 434 135q298 0 466.5 -194t168.5 -543q0 -348 -157 -548t-447 -200 q-131 0 -238.5 41.5t-174.5 111t-103.5 156.5t-36.5 181zM463 451q0 -103 56 -161.5t143 -58.5q99 0 151.5 64.5t52.5 161.5q0 88 -60.5 148.5t-143.5 60.5q-92 0 -145.5 -62t-53.5 -153z" />
<glyph unicode="&#x2206;" horiz-adv-x="1271" d="M2 6l539 1380q3 7 8 7h174q5 0 8 -7l539 -1380q2 -6 -4 -6h-1260q-6 0 -4 6zM393 274q-4 -4 4 -4h475q5 1 5 4l-238 617q-2 4 -4 0z" />
<glyph unicode="&#x220f;" horiz-adv-x="1714" d="M147 -381v1767q0 7 9 7h1403q8 0 8 -7v-1767q0 -8 -8 -8h-369q-6 0 -6 8v1497q0 6 -8 6h-639q-9 0 -9 -6v-1497q0 -8 -8 -8h-366q-7 0 -7 8z" />
<glyph unicode="&#x2211;" horiz-adv-x="1167" d="M66 1198v186q0 9 8 9h1016q8 0 8 -9v-256q0 -6 -8 -6h-564q-4 0 -5 -1t0 -3.5t1 -3.5l430 -608q4 -4 0 -8l-426 -609v-7q1 -1 4 -1h564q8 0 8 -6v-256q0 -8 -8 -8h-1016q-8 0 -8 8v186q0 5 4 13l481 680q4 4 0 8l-485 680q-4 8 -4 12z" />
<glyph unicode="&#x221a;" horiz-adv-x="1675" d="M-9 9l1 3l356 906q5 10 10 0l430 -967q7 -16 15 0l551 1479q7 16 20 16h314q8 0 8 -8l-881 -2241q-7 -21 -16 0l-416 953q0 3 -4.5 3t-5.5 -3l-51 -138q-4 -12 -15 -12h-309q-5 0 -6.5 3t-0.5 6z" />
<glyph unicode="&#x221e;" horiz-adv-x="1974" d="M51 477q0 88 32.5 168.5t91 142.5t149 99t198.5 37q120 0 244.5 -72.5t218.5 -175.5q6 -8 14 0q228 248 461 248q108 0 198 -39.5t146.5 -103.5t87.5 -141t31 -155q0 -80 -29.5 -156.5t-85 -140.5t-146.5 -103.5t-202 -39.5q-66 0 -134 24t-133.5 69t-103.5 76t-90 79 q-7 7 -14 0q-248 -252 -465 -252q-104 0 -194.5 40.5t-149 104t-92 140t-33.5 151.5zM377 483q0 -64 43 -99.5t102 -35.5q121 0 271 135q-52 54 -125 92.5t-146 38.5q-56 0 -100.5 -37t-44.5 -94zM1196 483q52 -54 121.5 -94.5t142.5 -40.5q60 0 106 37t46 98t-46 96 t-106 35q-128 0 -264 -131z" />
<glyph unicode="&#x222b;" horiz-adv-x="913" d="M160 -111q0 8 6 2q20 -20 30.5 -29.5t37 -23.5t51.5 -14q104 0 88 117l-170 1194q-19 127 59.5 219t212.5 92q72 0 135 -15.5t90.5 -29.5t44.5 -27q9 -6 9 -14v-215q0 -8 -6 -2q-20 20 -30.5 29.5t-37 23.5t-51.5 14q-104 0 -88 -116l170 -1194q19 -127 -60 -219.5 t-213 -92.5q-72 0 -135 15.5t-90.5 29.5t-44.5 27q-8 5 -8 14v215z" />
<glyph unicode="&#x2248;" horiz-adv-x="1583" d="M156 788q-6 8 4 21q39 49 124.5 92t200.5 43q81 0 168 -28.5t147.5 -62.5t131 -62.5t123.5 -28.5q20 0 39 6t31 12.5t30 24.5t24.5 25.5t27 34t26.5 34.5q5 5 12 -2l160 -213q7 -10 0 -20q-18 -34 -45.5 -66.5t-67.5 -64t-96.5 -51t-120.5 -19.5q-57 0 -117.5 18.5 t-113.5 45t-104.5 53t-107 45t-104.5 18.5q-120 0 -198 -72q-6 -5 -13 2zM194.5 309q-0.5 3 0.5 4.5t3 5t3 5.5q18 27 47.5 56t70.5 59t95.5 49.5t109.5 19.5q68 0 146 -28.5t137.5 -62.5t133.5 -62.5t134 -28.5q104 0 197 84q5 5 12 -2l162 -215q5 -7 0 -15 q-133 -151 -336 -151q-66 0 -134 18.5t-123.5 45t-107 53t-104.5 45t-98 18.5q-91 0 -172 -121q-4 -7 -13 2l-161 215q-2 3 -2.5 6z" />
<glyph unicode="&#x2260;" horiz-adv-x="1218" d="M113 358v256q0 9 8 9h332q9 0 14 12l61 125q3 6 -4 6h-403q-8 0 -8 8v256q0 8 8 8h541q2 0 8 6l98 195q2 6 8 6h223q8 0 5 -6l-99 -195q-2 -4 2 -6h191q8 0 8 -8v-256q0 -8 -8 -8h-328l-6 -6l-66 -131q0 -6 -1 -5q1 -1 5 -1h396q8 0 8 -9v-256q0 -8 -8 -8h-531 q-7 0 -10 -6l-100 -197q-3 -6 -8 -6h-226q-5 0 -2 6l101 197q3 6 -5 6h-196q-8 0 -8 8z" />
<glyph unicode="&#x2264;" horiz-adv-x="1110" d="M92 8v254q0 8 8 8h936q8 0 8 -8v-254q0 -8 -8 -8h-936q-8 0 -8 8zM92 618v170q0 10 8 13l936 305q8 3 8 -6v-275q0 -8 -6 -10l-434 -108q-3 -1 -3 -4t3 -5l434 -106q6 -2 6 -12v-271q0 -10 -8 -6l-936 305q-8 4 -8 10z" />
<glyph unicode="&#x2265;" horiz-adv-x="1110" d="M66 8v254q0 8 8 8h936q8 0 8 -8v-254q0 -8 -8 -8h-936q-8 0 -8 8zM66 309v271q0 10 6 12l434 106q3 2 3 5t-3 4l-434 108q-6 2 -6 10v275q0 9 8 6l936 -305q8 -3 8 -13v-170q0 -6 -8 -10l-936 -305q-8 -4 -8 6z" />
<glyph unicode="&#x25ca;" horiz-adv-x="1185" d="M94 692q-2 4 0 8l412 686q4 7 8 7h164q4 0 8 -7l406 -686q2 -4 0 -8l-406 -686q-3 -6 -8 -6h-164q-5 0 -8 6zM416 692l174 -299q4 -8 8 0l170 299q2 4 0 8l-170 299q-4 8 -8 0l-174 -299q-2 -4 0 -8z" />
<glyph unicode="&#x25fc;" horiz-adv-x="972" d="M0 0v973h973v-973h-973z" />
</font>
</defs>
</svg>
