<?xml version="1.0" standalone="no"?>
<!DOCTYPE svg PUBLIC "-//W3C//DTD SVG 1.1//EN" "http://www.w3.org/Graphics/SVG/1.1/DTD/svg11.dtd" >
<svg xmlns="http://www.w3.org/2000/svg" xmlns:xlink="http://www.w3.org/1999/xlink" version="1.1">
<metadata></metadata>
<defs>
<font id="augustmedium_italic" horiz-adv-x="1024" >
<font-face units-per-em="2048" ascent="1393" descent="-655" />
<missing-glyph horiz-adv-x="608" />
<glyph unicode="&#xfb01;" horiz-adv-x="985" d="M33 6l135 766q3 6 -4 6h-117q-6 0 -6 6l33 185q3 6 8 6h117q6 0 6 6l28 156q25 149 108.5 223t209.5 74q93 0 149 -39q4 -2 9 -2h241q8 0 4 -7l-41 -235q0 -6 -8 -6h-233q-6 0 -4 6l4 25q5 32 -21.5 49.5t-58.5 17.5q-99 0 -115 -106l-28 -156q0 -6 6 -6h422q7 0 4 -6 l-170 -963q0 -6 -6 -6h-234q-6 0 -6 6l135 766q3 6 -4 6h-176q-5 0 -8 -6l-136 -766q0 -6 -6 -6h-231q-6 0 -6 6z" />
<glyph unicode="&#xfb02;" horiz-adv-x="976" d="M33 6l135 766q3 6 -4 6h-117q-6 0 -6 6l33 185q3 6 8 6h117q6 0 6 6l28 156q25 149 108.5 223t209.5 74q41 0 83.5 -11t67.5 -28q4 -2 9 -2h241q8 0 4 -7l-243 -1380q0 -6 -6 -6h-234q-6 0 -6 6l135 766q3 6 -4 6h-178q-5 0 -8 -6l-136 -766q0 -6 -6 -6h-231q-6 0 -6 6z M449 981q0 -6 6 -6h176q8 0 8 6l35 195q5 32 -22.5 49.5t-59.5 17.5q-99 0 -115 -106z" />
<glyph horiz-adv-x="0" />
<glyph horiz-adv-x="682" />
<glyph unicode=" "  horiz-adv-x="608" />
<glyph unicode="&#x09;" horiz-adv-x="608" />
<glyph unicode="&#xa0;" horiz-adv-x="608" />
<glyph unicode="!" horiz-adv-x="446" d="M-18 6l36 217q0 6 7 6h229q6 0 6 -6l-39 -217q0 -6 -6 -6h-227q-6 0 -6 6zM76 356q4 23 41 315t59 429l47 286q0 7 6 7h230q6 0 6 -7l-53 -286q-22 -120 -90.5 -424.5t-71.5 -319.5q0 -4 -1.5 -6t-2.5 -2h-2h-162q-6 0 -6 8z" />
<glyph unicode="&#x22;" horiz-adv-x="823" d="M100 797l35 430l29 157q0 9 8 9h215q8 0 8 -9l-28 -157l-117 -430q0 -4 -4 -4h-142q-4 0 -4 4zM467 797l35 430l28 157q0 9 9 9h215q8 0 8 -9l-29 -157l-117 -430q0 -4 -4 -4h-141q-4 0 -4 4z" />
<glyph unicode="#" horiz-adv-x="1261" d="M14 424l39 182q0 8 8 8h242q10 0 10 9l35 141q3 8 -6 8h-240q-9 0 -6 8l37 183q3 8 10 8h246q7 0 10 8l101 405q0 9 8 9h186q8 0 8 -9l-100 -405q-3 -8 6 -8h146q7 0 10 8l100 405q0 9 8 9h187q8 0 8 -9l-98 -405q-3 -8 6 -8h252q9 0 6 -8l-37 -183q-3 -8 -10 -8h-260 q-8 0 -11 -8l-34 -141q0 -9 6 -9h258q8 0 8 -8l-39 -182q0 -8 -10 -8h-264q-9 0 -9 -8l-100 -400q0 -8 -8 -8h-188q-9 0 -9 8l101 400q0 8 -9 8h-145q-8 0 -8 -8l-98 -400q0 -8 -9 -8h-186q-8 0 -8 8l98 400q0 8 -8 8h-234q-6 0 -6 8zM514 623q0 -9 6 -9h148q10 0 10 9 l35 141q3 8 -6 8h-148q-7 0 -10 -8z" />
<glyph unicode="$" horiz-adv-x="1255" d="M43 434q0 6 4 8h236q7 0 10 -8q-3 -123 68.5 -189.5t209.5 -66.5q127 0 198.5 57.5t90.5 151.5q14 80 -22.5 134t-153.5 83q-28 7 -124 24t-152 31q-149 37 -208.5 135t-35.5 232q27 154 150 253t298 130q4 0 4 4l25 135q0 5 6 8h234q8 0 8 -8l-25 -135q0 -6 4 -6 q80 -12 139 -42t93.5 -68t54 -88.5t25.5 -98.5t4 -104q-3 -9 -6 -9h-232q-4 0 -4 9q-2 98 -54 153t-179 55q-114 0 -192.5 -43.5t-92.5 -126.5q-6 -21 -3.5 -45t11.5 -45.5t39.5 -42t79.5 -34.5q47 -13 155.5 -36t122.5 -26q182 -47 250 -149t37 -275q-13 -73 -55 -142.5 t-104.5 -125.5t-149.5 -94t-184 -47q-11 0 -11 -9l-32 -168q0 -8 -9 -8h-233q-6 3 -6 8l33 181q0 6 -7 6q-167 32 -251.5 154t-63.5 288z" />
<glyph unicode="%" horiz-adv-x="1490" d="M61 6q211 243 605.5 717t537.5 663q5 7 8 7h213q5 0 5 -7q-113 -139 -544.5 -656.5t-594.5 -723.5q-3 -6 -8 -6h-217q-11 0 -5 6zM154 1106q22 128 134 228t244 100q129 0 208.5 -98t56.5 -230q-24 -127 -136 -226.5t-243 -99.5q-128 0 -207.5 98t-56.5 228zM346 1106 q-12 -63 18.5 -100t86.5 -37q53 0 98 38t55 99q11 60 -18 99.5t-86 39.5q-55 0 -99.5 -39t-54.5 -100zM692 285q22 127 134.5 227t244.5 100q129 0 208 -97.5t56 -229.5q-22 -127 -135 -226.5t-244 -99.5q-128 0 -207.5 98t-56.5 228zM885 285q-10 -63 19.5 -100.5 t84.5 -37.5q53 0 98.5 38.5t55.5 99.5q11 60 -18.5 99.5t-86.5 39.5q-55 0 -99 -39t-54 -100z" />
<glyph unicode="&#x26;" horiz-adv-x="1273" d="M16 358q11 60 36 112.5t53.5 89t74 74.5t80 61t88.5 55q2 2 2 6q-10 16 -24.5 38t-24.5 38l-22.5 36t-21 36t-17.5 35t-14 36.5t-8.5 37t-3 40t4.5 41.5q19 106 90 185t165 117t196 38q71 0 136 -22.5t114 -64t72 -107.5t9 -146q-10 -54 -32.5 -97t-71.5 -89t-97 -82 t-143 -101q-5 -5 -2 -8l183 -293q4 -8 8 0q28 42 48 102t26 101l4 6h200q9 0 6 -8q-54 -213 -174 -375q-4 -4 0 -8l148 -234q2 -2 1 -5t-5 -3h-252q-4 0 -8 4l-54 84q-2 2 -4 0q-63 -57 -154 -93t-188 -36q-226 0 -339.5 109t-84.5 290zM260 360q-15 -86 35.5 -145 t177.5 -59q116 0 213 82q5 5 2 8l-213 352q-4 4 -8 0q-66 -41 -103 -70.5t-66 -72.5t-38 -95zM457.5 1060.5q-0.5 -15.5 3.5 -31.5t8.5 -28.5t14 -30.5t17.5 -30.5t22 -35t24 -38.5q2 -2 4 0q109 73 154 120.5t55 107.5q10 66 -25 104.5t-106 38.5q-66 0 -112 -38.5 t-56 -104.5q-3 -18 -3.5 -33.5z" />
<glyph unicode="'" horiz-adv-x="395" d="M100 797l35 430l29 157q0 9 8 9h215q8 0 8 -9l-28 -157l-117 -430q0 -4 -4 -4h-142q-4 0 -4 4z" />
<glyph unicode="(" horiz-adv-x="714" d="M69.5 377q-3.5 94 16.5 194q25 140 82 272t122 225t142.5 176t133 128.5t104.5 77.5q8 6 16 6h154q4 0 5 -3t-1 -5q-59 -52 -105 -96.5t-117.5 -130.5t-123 -173.5t-101 -215t-73.5 -265.5q-17 -95 -19 -186t7 -163t29.5 -143.5t42 -122t52 -103.5t51.5 -82.5t48 -65.5 q3 -3 0.5 -5.5t-5.5 -2.5h-153q-9 0 -17 6q-25 21 -52 50.5t-62 77t-63.5 102.5t-56.5 126.5t-40.5 149.5t-16 172z" />
<glyph unicode=")" horiz-adv-x="714" d="M-131 -304.5q-1 2.5 2 5.5q57 51 103.5 97t117 131.5t122.5 172.5t101 210.5t72 254.5q20 116 21.5 222.5t-16.5 193t-39.5 155t-58 132.5t-59.5 99t-57 79q-3 4 -1 6t5 2h154q8 0 16 -6q22 -19 45 -43.5t53 -61.5t56.5 -82.5t53 -100t45 -120.5t29.5 -138t9 -158 t-18 -175q-24 -135 -80.5 -265t-121 -223t-142 -176t-134 -129.5t-104.5 -78.5q-8 -6 -16 -6h-152q-5 0 -6 2.5z" />
<glyph unicode="*" horiz-adv-x="946" d="M63 1022l87 174q0 2 3.5 3.5t4.5 0.5l241 -92q6 -3 9 4l38 274q4 7 11 7h180q9 0 6 -7l-55 -274q-2 -3 -0.5 -4.5t4.5 0.5l270 92q12 4 12 -4l25 -174q0 -6 -6 -8l-272 -78q-2 0 -4 -2.5t-1 -3.5l129 -215q4 -5 -4 -13l-166 -106q-6 -3 -8 2l-116 225q-1 3 -4 3t-5 -3 l-194 -227q-3 -5 -8 0l-127 106q-7 6 0 13l204 217q4 4 0 4l-251 78q-4 4 -3 8z" />
<glyph unicode="+" horiz-adv-x="1118" d="M43 602l35 201q3 8 10 8h375q6 0 8 6l64 363q0 8 8 8h202q9 0 9 -8l-64 -363l4 -6h373q9 0 6 -8l-35 -201q0 -8 -10 -8h-373q-6 0 -6 -6l-65 -367q0 -8 -9 -8h-202q-8 0 -8 8l65 367q0 6 -6 6h-375q-6 0 -6 8z" />
<glyph unicode="," horiz-adv-x="468" d="M31 -356l20 123q2 8 10 8q68 0 104.5 25.5t47.5 95.5l18 100q0 4 -6 4h-129q-5 0 -6 1t0 7l45 260q2 8 10 8h279q10 0 6 -8l-59 -336q-25 -146 -98 -218.5t-236 -75.5q-8 0 -6 6z" />
<glyph unicode="-" horiz-adv-x="978" d="M156 389l34 201q3 8 11 8h614q9 0 6 -8l-35 -201q-3 -8 -10 -8h-614q-9 0 -6 8z" />
<glyph unicode="." horiz-adv-x="468" d="M61 8l48 260q0 6 1.5 7t6.5 1h278q8 0 8 -8l-47 -260q0 -8 -8 -8h-278q-9 0 -9 8z" />
<glyph unicode="/" horiz-adv-x="821" d="M-117 6l842 1380q2 7 8 7h203q2 0 3.5 -2t0.5 -5l-846 -1380q-3 -6 -8 -6h-199z" />
<glyph unicode="0" horiz-adv-x="1255" d="M70 530l63 353q20 118 68.5 216t124.5 174t186.5 118.5t245.5 42.5q257 0 365.5 -148.5t64.5 -402.5l-64 -353q-46 -266 -206 -418.5t-420 -152.5q-268 0 -371.5 148.5t-56.5 422.5zM330 567q-38 -219 9 -315t193 -96t226.5 96t118.5 315l49 279q20 120 15 207 t-59.5 135.5t-162.5 48.5q-65 0 -116 -18.5t-86.5 -50t-62.5 -82.5t-44 -107.5t-31 -132.5z" />
<glyph unicode="1" horiz-adv-x="722" d="M176 8l197 1114q2 5 -1 5q-2 0 -3 -1l-179 -82q-5 -2 -7 -0.5t-1 5.5l29 165q3 8 10 13l445 207q3 2 6 -0.5t2 -8.5l-250 -1417q0 -8 -8 -8h-232q-8 0 -8 8z" />
<glyph unicode="2" horiz-adv-x="1177" d="M6 8l27 160q9 57 29 106.5t42 87t61.5 76.5t69 63.5t86 58.5t90 52t101.5 54q185 97 259 169.5t93 176.5q21 115 -19 170t-161 55q-104 0 -171.5 -63t-88.5 -187l-8 -41q0 -8 -8 -8h-228q-8 0 -8 8l12 72q15 83 57.5 157.5t108.5 132.5t159.5 92t201.5 34 q234 0 332.5 -108t62.5 -308q-28 -156 -132.5 -270t-328.5 -236q-34 -19 -93.5 -50t-81.5 -43.5t-60.5 -35t-52 -35t-33 -32.5t-27.5 -39.5t-12 -43.5l-4 -28q-3 -8 6 -8l671 6q9 0 9 -8l-35 -187q0 -8 -8 -8h-910q-8 0 -8 8z" />
<glyph unicode="3" horiz-adv-x="1169" d="M29 391l10 53q0 9 10 9h227q7 0 7 -9l-4 -18q-21 -125 26.5 -197.5t171.5 -72.5q125 0 200 66.5t97 187.5q24 133 -44 190t-220 57h-90q-8 0 -8 9l30 159q3 9 11 9h88q256 0 295 215q14 85 -30 136.5t-138 51.5q-198 0 -228 -180l-4 -21q-3 -8 -10 -8h-227q-9 0 -6 8 l6 37q29 162 169 261.5t330 99.5q208 0 313.5 -97.5t73.5 -273.5q-22 -122 -97 -199.5t-177 -111.5q-5 -2 0 -4q36 -9 68 -25t65 -45t51 -70t26.5 -99.5t-7.5 -133.5q-13 -78 -58.5 -151.5t-116.5 -133t-174.5 -95.5t-222.5 -36q-225 0 -335 122t-78 310z" />
<glyph unicode="4" horiz-adv-x="1142" d="M-6 309l33 201q3 9 10 16l694 860q7 7 12 7h281q8 0 8 -9l-153 -868q-3 -8 6 -8h166q8 0 8 -8l-35 -191q0 -8 -10 -8h-166q-8 0 -8 -8l-52 -285q0 -8 -8 -8h-221q-8 0 -8 8l51 285q0 8 -8 8h-594q-6 0 -6 8zM256 516q-8 -8 2 -8h375q7 0 10 8l117 635q0 10 -8 2z" />
<glyph unicode="5" horiz-adv-x="1177" d="M66 377q0 8 8 8h223q8 0 8 -8q-6 -102 41.5 -161.5t151.5 -59.5q131 0 209 77t104 218q54 299 -227 299q-81 0 -157 -36t-124 -91q-8 -10 -18 -7l-119 35q-6 3 -6 8l213 725q0 9 8 9h715q8 0 8 -9l-35 -190q0 -8 -10 -8l-510 10q-8 0 -8 -8l-95 -311q0 -4 0.5 -4.5 t6.5 1.5q90 80 245 80q202 0 297 -122t52 -367q-18 -108 -67 -200t-122.5 -160.5t-175 -107t-219.5 -38.5q-220 0 -319 113t-78 305z" />
<glyph unicode="6" horiz-adv-x="1183" d="M102 610q32 183 85.5 325.5t118.5 235t145 153t162 85.5t173 25q73 0 137 -21t116.5 -62t83 -110t30.5 -158q-4 -8 -8 -8h-191q-7 4 -8 6q-17 164 -192 164q-141 0 -247 -118.5t-149 -335.5q-3 -3 0 -4q2 -1 7 4q145 163 325 163q210 0 319 -124.5t68 -360.5 q-40 -228 -197 -369t-378 -141q-244 0 -350.5 163t-49.5 488zM312.5 332q12.5 -59 45.5 -98t76 -58.5t92 -19.5q117 0 202 80.5t112 232.5q24 134 -33.5 208.5t-175.5 74.5q-117 0 -206 -78t-112 -205q-13 -78 -0.5 -137z" />
<glyph unicode="7" horiz-adv-x="915" d="M90 1194l35 190q0 3 1.5 5t3.5 3l1 1h905q8 0 8 -9l-32 -178q0 -8 -6 -12q-144 -135 -195 -191q-182 -198 -285 -464q-67 -174 -112 -398l-25 -133q0 -8 -8 -8h-227q-9 0 -9 6l23 117q24 108 55 213.5t80 229.5t107.5 232t139.5 212t173 178q11 8 0 8l-627 -10q-6 0 -6 8 z" />
<glyph unicode="8" horiz-adv-x="1210" d="M45 414q14 77 51.5 139.5t86.5 101.5t95 62.5t91 34.5q3 1 2 4q-77 27 -125.5 100.5t-34.5 194.5q11 95 60.5 170t122.5 120.5t158.5 69t176.5 23.5q123 0 218 -43.5t144.5 -132t28.5 -207.5q-11 -63 -39.5 -115t-68.5 -86.5t-78.5 -56.5t-81.5 -37q-2 0 -4 -1 q-2 -2 2 -3q33 -10 63.5 -26t63 -44.5t54.5 -64.5t31.5 -88.5t0.5 -114.5q-33 -216 -191.5 -335.5t-392.5 -119.5q-245 0 -358 117t-76 338zM276 408q-21 -110 43 -181t193 -71q126 0 209 69.5t104 182.5q21 116 -37.5 186t-187.5 70q-127 0 -215 -71t-109 -185zM436 1053 q-18 -101 38 -161.5t159 -60.5q104 0 174.5 56t87.5 166q11 78 -42.5 131t-166.5 53q-101 0 -168.5 -53t-81.5 -131z" />
<glyph unicode="9" horiz-adv-x="1132" d="M31 315q0 9 4 9h201q8 0 12 -9q3 -74 43.5 -111.5t138.5 -37.5q305 0 381 448q1 3 -1 3t-5 -3q-46 -64 -126.5 -110.5t-195.5 -46.5q-76 0 -139.5 17t-107.5 47.5t-77 71.5t-47.5 88.5t-19.5 99.5t6 104l19 104q33 188 190 316.5t369 128.5q231 0 337 -131.5t62 -380.5 l-31 -172q-38 -219 -98.5 -373t-144 -245t-183 -132t-227.5 -41q-106 0 -182 32t-114.5 85.5t-54 113t-9.5 125.5zM332 913q-21 -118 40.5 -182.5t186.5 -64.5q123 0 200.5 79t98.5 191l6 39q24 132 -30 192t-177 60q-126 0 -209.5 -64.5t-105.5 -197.5z" />
<glyph unicode=":" horiz-adv-x="573" d="M53 8l47 260q0 8 9 8h278q8 0 8 -8l-47 -260q0 -8 -8 -8h-279q-5 0 -6.5 1t-1.5 7zM176 707l47 260q0 6 1.5 7t6.5 1h279q8 0 8 -8l-47 -260q0 -9 -8 -9h-279q-8 0 -8 9z" />
<glyph unicode=";" horiz-adv-x="573" d="M25 -356l22 123q2 8 10 8q68 0 104.5 25.5t47.5 95.5l18 100q0 4 -6 4h-129q-5 0 -6 1t0 7l45 260q2 8 10 8h279q10 0 6 -8l-59 -336q-25 -146 -98 -218.5t-236 -75.5q-8 0 -8 6zM209 709l47 260q0 6 8 6h279q8 0 8 -6l-47 -260q0 -9 -10 -9h-279q-8 0 -6 9z" />
<glyph unicode="&#x3c;" horiz-adv-x="1087" d="M84 623l27 155q3 5 8 8l983 426q4 1 5 -0.5t1 -5.5l-37 -211q-3 -5 -8 -8l-709 -289q-3 -2 -4 -5t2 -5l606 -291q7 -4 5 -8l-33 -194q-3 -10 -10 -7l-832 426q-7 3 -4 9z" />
<glyph unicode="=" horiz-adv-x="1206" d="M53 383l35 201q3 8 10 8h977q9 0 6 -8l-34 -201q-4 -8 -11 -8h-977q-9 0 -6 8zM127 801l33 200q3 9 10 9h977q9 0 6 -9l-33 -200q-4 -8 -10 -8h-977q-9 0 -6 8z" />
<glyph unicode="&#x3e;" horiz-adv-x="1087" d="M-20 195l32 208q3 7 8 9l709 290q3 2 4 5.5t-2 5.5l-606 288q-7 3 -4 9l35 196q0 9 10 6l831 -426q6 -3 4 -8l-26 -155q-3 -7 -8 -9l-981 -426q-3 -2 -5 0.5t-1 6.5z" />
<glyph unicode="?" horiz-adv-x="1122" d="M154 981q12 67 34 127t63.5 121.5t98.5 105t144 71.5t194 28q92 0 164.5 -22t114.5 -58t69.5 -83.5t31 -98t-2.5 -101.5q-12 -67 -34 -119.5t-59.5 -97.5t-79 -81.5t-106.5 -82.5q-15 -11 -42 -30t-36.5 -26t-28 -21t-24 -19.5t-18 -16t-16 -17t-11 -16.5t-10.5 -19.5 t-6.5 -21t-7.5 -26.5l-29 -115q0 -6 -8 -6h-187q-6 0 -4 6l13 132q19 105 63 157.5t166 132.5q114 74 156 126t57 143q15 83 -30.5 128.5t-147.5 45.5q-105 0 -160 -60.5t-78 -185.5q0 -6 -6 -6h-231q-6 0 -6 6zM276 6l39 217q2 6 9 6h229q4 0 4 -6l-39 -217q0 -6 -6 -6 h-229q-7 0 -7 6z" />
<glyph unicode="@" horiz-adv-x="1638" d="M72 498q29 172 109 311.5t195.5 230.5t259 140t302.5 49q100 0 187.5 -19.5t155 -55t121.5 -85t88 -110.5t55 -131.5t21.5 -146.5t-12.5 -157q-20 -113 -72.5 -214t-134.5 -167.5t-173 -66.5q-49 0 -85.5 15.5t-55 40.5t-27.5 48t-11 45q0 8 -4 0q-134 -157 -352 -157 q-115 0 -180 74.5t-47 172.5q21 113 111.5 181t205.5 79l289 29q8 0 8 8l6 33q13 73 -31 112.5t-112 39.5q-65 0 -114 -44t-64 -96q-3 -8 -11 -8h-184q-11 0 -8 8q45 123 154 206t251 83q77 0 135.5 -19.5t92.5 -53.5t54.5 -80t21 -99t-8.5 -110l-49 -285q-7 -37 9 -54.5 t44 -17.5q20 0 42 12.5t48 41t49.5 87t37.5 138.5q28 161 -20 293.5t-164.5 210t-278.5 77.5t-308 -77t-247 -215t-131 -310q-47 -267 84 -428t395 -161q205 0 362 104q8 4 13 -4l45 -94q5 -4 -4 -13q-194 -135 -437 -135q-224 0 -379 95t-219 263.5t-28 385.5zM618 334 q-8 -48 17 -78.5t86 -30.5q102 0 178 58.5t90 138.5l4 33q2 2 -2 2q-209 -20 -254 -27q-44 -7 -78 -30t-41 -66z" />
<glyph unicode="A" horiz-adv-x="1361" d="M-51 1l2 5l737 1380q4 7 8 7h318q4 0 8 -7l262 -1380q0 -6 -4 -6h-256q-6 0 -8 6l-60 350q0 6 -6 6h-547q-4 0 -10 -6l-176 -350q-2 -6 -8 -6h-254q-5 0 -6 1zM510 575q-3 -6 2 -6h403q6 0 3 6l-101 594q0 1 -2 1t-2 -1z" />
<glyph unicode="B" horiz-adv-x="1267" d="M16 6l244 1380q0 7 6 7h545q219 1 332 -87q94 -73 94 -206q0 -27 -4 -56q-14 -106 -92 -179t-176 -103q-12 -5 -2 -8q110 -22 172 -110q45 -64 45 -153q0 -33 -6 -71q-20 -114 -76.5 -197t-141.5 -131t-185 -70t-218 -22h-530q-7 0 -7 6zM305 203q0 -6 4 -6h303 q135 0 210 58t93 155q4 22 4 42q0 68 -45 122q-58 68 -204 69h-281q-8 0 -8 -6zM420 846q-3 -6 4 -6h311q106 0 166.5 50.5t75.5 131.5q3 17 3 33q0 59 -38 95q-48 46 -143 46h-312q-5 0 -8 -6z" />
<glyph unicode="C" horiz-adv-x="1349" d="M76 584l43 241q31 179 135.5 319t255 215t319.5 75q172 0 293 -68q122 -66 172 -184q33 -78 34 -169q0 -47 -9 -98q0 -6 -1.5 -7t-6.5 -1h-252q-8 0 -8 8q7 36 7 69q0 92 -52 160q-70 92 -205 93q-155 0 -275 -116t-157 -328l-31 -177q-13 -73 -13 -135q1 -119 47 -201 q70 -124 240 -124q87 0 156 29t111 78t66.5 103t35.5 115q3 8 10 8h250q9 0 6 -8q-13 -78 -44.5 -150t-87.5 -140.5t-131 -119.5t-182 -81.5t-233 -30.5q-283 0 -413 167q-93 120 -94 306q0 71 14 152z" />
<glyph unicode="D" horiz-adv-x="1343" d="M16 8l244 1376q0 9 8 9h408q154 0 273.5 -37t201.5 -112.5t113 -199.5q16 -64 16 -138q0 -70 -14 -148l-29 -160q-28 -161 -93 -277t-165 -186t-226 -102.5t-286 -32.5h-442q-9 0 -9 8zM301 205q0 -8 8 -8h183q198 0 328 108.5t169 323.5l23 123q12 68 12 126 q0 128 -60 206q-88 112 -296 112h-176q-11 0 -11 -8z" />
<glyph unicode="E" horiz-adv-x="1161" d="M16 8l244 1376q0 9 8 9h916q8 0 8 -9l-33 -180q0 -8 -8 -8h-662q-10 0 -10 -8l-63 -352q-3 -9 6 -9h579q10 0 7 -8l-31 -184q0 -8 -10 -8h-580q-8 0 -8 -9l-74 -413q0 -8 6 -8h674q8 0 8 -9l-32 -180q0 -8 -9 -8h-927q-9 0 -9 8z" />
<glyph unicode="F" horiz-adv-x="1136" d="M16 8l244 1376q0 9 8 9h916q8 0 8 -9l-31 -180q-3 -8 -10 -8h-662q-7 0 -10 -8l-61 -352q-3 -9 6 -9h596q9 0 6 -8l-33 -186q0 -8 -10 -8h-596q-8 0 -8 -9l-109 -608q0 -8 -8 -8h-237q-9 0 -9 8z" />
<glyph unicode="G" horiz-adv-x="1347" d="M76 606l39 221q46 271 244 439t487 168q112 0 207.5 -34.5t161 -97t93.5 -156.5q17 -55 17 -117q0 -43 -8 -89q0 -6 -6 -6h-228q-7 0 -4 8q5 30 5 57q0 87 -52 152q-69 86 -217 86q-178 0 -299 -115.5t-160 -335.5l-24 -139q-13 -78 -13 -144q0 -128 49 -215 q74 -132 257 -132q184 0 274.5 73.5t118.5 241.5l10 51q0 8 -8 8h-293q-9 0 -6 9l33 184q0 8 8 8h530q8 0 8 -8l-28 -156q-27 -167 -84.5 -285.5t-146 -188.5t-198.5 -102t-251 -32q-281 0 -424 179q-106 131 -106 322q0 69 14 146z" />
<glyph unicode="H" horiz-adv-x="1411" d="M16 8l244 1376q0 9 8 9h238q8 0 8 -9l-96 -544q-3 -9 6 -9h610q7 0 10 9l97 544q0 9 8 9h237q9 0 9 -9l-244 -1376q0 -8 -8 -8h-238q-8 0 -8 8l109 608q0 9 -9 9h-610q-8 0 -8 -9l-109 -608q0 -8 -8 -8h-237q-9 0 -9 8z" />
<glyph unicode="I" horiz-adv-x="532" d="M16 8l244 1376q0 9 8 9h240q8 0 8 -9l-244 -1376q0 -8 -8 -8h-239q-9 0 -9 8z" />
<glyph unicode="J" horiz-adv-x="1030" d="M12 430q4 8 8 8h236q8 0 4 -8q-9 -52 -9 -94q0 -170 148 -170q83 0 141 70t81 202l167 946q0 9 9 9h237q8 0 8 -9l-161 -913q-23 -133 -71.5 -232.5t-117 -160t-151 -90t-179.5 -29.5q-146 0 -234 62t-114 165q-14 54 -14 118q0 59 12 126z" />
<glyph unicode="K" horiz-adv-x="1257" d="M16 8l244 1376q0 9 8 9h238q8 0 8 -9l-115 -643q0 -11 9 -2l647 647q5 7 12 7h295q4 0 5.5 -3t-1.5 -6l-598 -571q-3 -1 -3.5 -4t1.5 -4l379 -797q5 -8 -4 -8h-277q-8 0 -12 6l-281 617q-2 2 -4 0l-221 -211q-6 -6 -6 -13l-70 -391q0 -8 -8 -8h-237q-9 0 -9 8z" />
<glyph unicode="L" horiz-adv-x="1052" d="M16 8l244 1376q0 9 8 9h238q8 0 8 -9l-207 -1169q0 -8 6 -8h623q8 0 8 -8l-35 -191q0 -8 -8 -8h-876q-9 0 -9 8z" />
<glyph unicode="M" horiz-adv-x="1628" d="M16 8l244 1376q0 9 8 9h324q9 0 12 -11l158 -927q0 -8 4 0l489 927q3 11 13 11h336q8 0 8 -9l-244 -1376q0 -8 -8 -8h-238q-8 0 -8 8l66 373q44 250 77 420.5t43 216.5l11 45q-1 4 -4 0l-555 -1057q-2 -6 -9 -6h-102q-6 0 -8 6l-182 1057q0 3 -2.5 3t-2.5 -3 q-10 -118 -110 -682l-66 -373q0 -8 -8 -8h-237q-9 0 -9 8z" />
<glyph unicode="N" horiz-adv-x="1335" d="M16 8l244 1376q0 9 8 9h240q6 0 12 -9l375 -964q1 -4 4 0q9 88 31 196l135 768q0 9 8 9h238q8 0 8 -9l-244 -1376q0 -8 -8 -8h-242q-7 0 -12 8l-373 965h-4q-8 -64 -28 -189l-138 -776q0 -8 -8 -8h-237q-9 0 -9 8z" />
<glyph unicode="O" horiz-adv-x="1411" d="M74 578l43 241q50 278 248.5 446.5t484.5 168.5q133 0 242 -44t180.5 -122.5t100.5 -194.5q16 -63 16 -134q0 -58 -11 -120l-43 -241q-52 -288 -242 -453.5t-487 -165.5q-300 0 -440 170q-105 127 -104 314q0 64 12 135zM334 573q-10 -56 -9 -105q-1 -122 57 -201 q82 -111 243 -111q83 0 157 25.5t136 76t105.5 132.5t61.5 188l37 219q10 60 10 112q0 45 -8 83q-16 83 -60 137.5t-108 81t-145 26.5q-151 0 -278 -115t-162 -325z" />
<glyph unicode="P" horiz-adv-x="1263" d="M16 8l244 1376q0 9 8 9h496q84 0 159.5 -16.5t141.5 -53t110 -88.5q45 -52 63 -129q10 -40 9 -85q0 -41 -8 -85q-25 -143 -119.5 -247.5t-232 -156t-301.5 -51.5h-224q-7 0 -10 -8l-82 -465q0 -8 -8 -8h-237q-9 0 -9 8zM393 696q-3 -8 6 -8h252q296 0 340 248q5 29 5 54 q0 80 -49 130q-65 66 -208 66h-252q-10 0 -10 -8z" />
<glyph unicode="Q" horiz-adv-x="1413" d="M74 590l41 229q50 279 249.5 447t487.5 168q131 0 239.5 -44.5t179.5 -124t100 -195.5q16 -63 16 -133q0 -57 -11 -118l-41 -229q-40 -228 -172 -354q-5 -4 -2 -7l215 -217q2 -4 0 -8t-8 -4h-272q-11 0 -17 6l-78 80q-4 4 -8 2q-84 -70 -178 -99.5t-221 -29.5 q-144 0 -255.5 50t-175.5 136t-87 201q-13 59 -13 122q0 59 11 122zM338 621q-11 -61 -11 -115q0 -127 60 -215q85 -125 244 -125q127 0 213 72q4 4 0 8l-256 258q-3 3 -1.5 6.5t5.5 3.5h280q7 0 13 -6l110 -111l4 -2q20 9 49 79.5t42 146.5l28 163q9 57 9 106q0 48 -9 89 q-17 83 -63.5 137.5t-108 81.5t-131.5 27q-102 0 -192.5 -47t-160 -149t-95.5 -245z" />
<glyph unicode="R" horiz-adv-x="1304" d="M16 8l244 1376q0 9 10 9h510q252 -1 378 -113q100 -89 100 -226q0 -36 -7 -75q-21 -122 -112 -211t-230 -133q-4 -1 -2.5 -3.5t4.5 -2.5q127 -11 191 -83q46 -52 46 -135q0 -32 -7 -69l-25 -141q-4 -25 -6.5 -46.5t-2.5 -40t-0.5 -30t2 -26.5t3.5 -19.5t4 -18.5l4 -14 q0 -6 -6 -6h-240q-6 0 -10 6q-12 20 -15 68q-1 13 -1 25q0 33 6 61l20 114q5 40 7 72.5t-7 58t-20 44.5t-32.5 32.5t-44.5 22.5t-55 14.5t-64.5 7.5t-73.5 2h-213q-8 0 -11 -8l-90 -512q0 -8 -8 -8h-237q-9 0 -9 8zM399 739q0 -8 9 -8h270q129 0 213 60.5t104 169.5 q4 24 4 45q0 76 -51 122q-65 58 -192 58h-269q-7 0 -10 -8z" />
<glyph unicode="S" horiz-adv-x="1273" d="M43 455q0 4 8 8h248q8 0 8 -8q-5 -30 -6 -57q0 -88 57 -150q74 -82 232 -82q120 0 194.5 56.5t89.5 150.5q4 24 4 45q0 52 -24 88q-34 52 -137 82l-258 76q-274 81 -274 321q0 42 8 88q29 165 172.5 263t351.5 98q86 0 159 -15.5t123.5 -42t91 -62t62 -76.5t36.5 -85 q14 -41 14 -82v-5q-1 -43 -5 -83q0 -8 -8 -8h-234q-8 0 -8 8q5 27 5 52q1 76 -49 126q-66 66 -216 66q-99 0 -161.5 -40t-75.5 -118q-3 -17 -3 -33q0 -111 152 -157l229 -70q182 -56 258 -160q54 -75 54 -186q0 -44 -8 -94q-16 -87 -60 -161t-115 -132q-72 -56 -178 -88 q-96 -29 -211 -29h-22q-150 4 -258.5 46t-165.5 112q-57 69 -77 155q-11 46 -11 96q0 42 8 87z" />
<glyph unicode="T" horiz-adv-x="974" d="M70 1194l34 190q0 9 9 9h991q8 0 8 -9l-35 -190q0 -8 -8 -8l-364 2q-8 0 -11 -8l-207 -1172q0 -8 -8 -8h-237q-9 0 -9 8l207 1172q3 8 -6 8l-356 -2q-8 0 -8 8z" />
<glyph unicode="U" horiz-adv-x="1343" d="M105 258q-10 51 -10 111q0 63 11 137l154 878q0 9 8 9h238q8 0 8 -9l-158 -901q-9 -41 -8 -77v-25q4 -45 15 -78t33 -57t44.5 -39.5t51.5 -24.5t53 -12.5t49 -3.5q45 0 86 7t88 28t83.5 54.5t67 92t44.5 135.5l157 901q0 9 8 9h238q8 0 8 -9l-153 -878 q-26 -141 -87 -247.5t-148.5 -171t-193 -96.5t-227.5 -32t-215.5 31.5t-158.5 97.5t-86 170z" />
<glyph unicode="V" horiz-adv-x="1271" d="M133 1384q-3 9 8 9h258q8 0 11 -9l153 -1052q1 -3 2.5 -4t3 0t2.5 4l529 1052q3 9 10 9h262q4 0 7 -3t1 -6l-745 -1376q0 -8 -8 -8h-221q-8 0 -11 8z" />
<glyph unicode="W" horiz-adv-x="1783" d="M133 1384v2q0 7 8 7h258q8 0 11 -9l45 -1044q0 -3 1 -4t3 0t4 4l434 1044q3 9 10 9h211q7 0 10 -9l66 -1044q0 -3 1 -4t3 0t4 4l414 1044q3 9 10 9h258q8 0 8 -7v-2l-610 -1376q-3 -8 -10 -8h-258q-7 0 -10 8l-54 948q-1 3 -2.5 4t-3 0t-2.5 -4l-389 -948q-3 -8 -10 -8 h-275q-7 0 -10 8z" />
<glyph unicode="X" horiz-adv-x="1245" d="M-96 8l567 694q5 6 2 9l-309 673q-6 9 4 9h266q6 0 12 -9l207 -479q1 -3 4 -3t5 3l382 479q6 9 13 9h266q10 0 4 -9l-551 -673q-6 -5 -2 -9l324 -694q1 -1 1.5 -3t-0.5 -3.5t-5 -1.5h-279q-7 0 -12 8l-211 500q0 8 -8 0l-387 -500q-5 -8 -13 -8h-276q-8 0 -4 8z" />
<glyph unicode="Y" horiz-adv-x="1310" d="M133.5 1390q1.5 3 5.5 3h277q6 0 12 -9l238 -602q4 -8 8 0l450 602q6 9 13 9h276q3 0 5 -3t-1 -6l-657 -829q-5 -11 -6 -14l-95 -533q0 -8 -8 -8h-237q-8 0 -8 8l94 533q1 7 -2 14l-363 829q-3 3 -1.5 6z" />
<glyph unicode="Z" horiz-adv-x="1124" d="M-68 8l39 213q0 10 13 23l862 936q6 6 0 6h-676q-8 0 -8 8l35 190q0 9 8 9h960q9 0 9 -9l-37 -208q-3 -11 -13 -21l-872 -942q-8 -6 -2 -6h725q8 0 8 -8l-35 -191q0 -8 -8 -8h-999q-9 0 -9 8z" />
<glyph unicode="[" horiz-adv-x="589" d="M-14 -301l307 1751q0 6 6 6h373q6 0 6 -6l-16 -88q0 -6 -7 -6l-159 4q-7 0 -7 -6l-276 -1559q0 -6 6 -6l160 4q6 0 6 -6l-16 -88q0 -6 -7 -6h-370q-6 0 -6 6z" />
<glyph unicode="\" horiz-adv-x="815" d="M127 1386q-2 7 4 7h201q6 0 8 -7q29 -136 176 -721t170 -659q3 -6 -4 -6h-197q-5 0 -8 6q-53 223 -183 737.5t-167 642.5z" />
<glyph unicode="]" horiz-adv-x="589" d="M-88 -301l16 88q0 6 6 6l158 -4q6 0 6 6l277 1559q0 6 -6 6l-160 -4q-6 0 -6 6l16 88q0 6 6 6h373q6 0 6 -6l-309 -1751q0 -6 -6 -6h-371q-6 0 -6 6z" />
<glyph unicode="^" horiz-adv-x="1296" d="M90 647l520 737q9 9 15 9h194q7 0 10 -9l246 -737q2 -8 -8 -8h-236q-7 0 -10 10l-145 479q0 3 -1.5 4t-4 0t-4.5 -4l-320 -479q-8 -10 -14 -10h-238q-8 1 -4 8z" />
<glyph unicode="_" horiz-adv-x="1079" d="M-25 -340l33 205h1096l-35 -205h-1094z" />
<glyph unicode="`" d="M312 1388.5q0 1.5 2 3t5 1.5h248q6 0 6 -7l89 -249q0 -7 -7 -7h-168q-8 0 -8 7l-166 249q-1 1 -1 2.5z" />
<glyph unicode="a" horiz-adv-x="1064" d="M27 260q23 130 115.5 205t228.5 100q72 14 212.5 32.5t143.5 18.5q4 0 4 7l6 32q4 24 4 44q0 124 -153 124q-88 0 -146 -41.5t-77 -113.5q0 -4 -5 -4h-223q-4 0 -4 4q16 51 43 99t70.5 94t97 80t126.5 54.5t155 20.5q205 0 295 -111q65 -81 66 -207q0 -46 -9 -98 l-64 -364q-8 -40 -9 -75t4 -61t10 -41.5t13 -33t9 -19.5q0 -6 -4 -6h-246q-4 0 -8 4q-36 36 -36 108q0 12 1 25q0 8 -4 0q-53 -86 -139 -132t-197 -46q-147 1 -225 83q-60 64 -60 159q0 28 5 59zM270 268q-1 -8 -1 -16q-1 -42 23 -70q28 -32 89 -32q120 0 206 67t105 168 l10 59q0 7 -6 7l-85 -15q-85 -14 -191 -35q-66 -12 -106 -46.5t-44 -86.5z" />
<glyph unicode="b" horiz-adv-x="1132" d="M12 6l244 1380q0 7 6 7h238q6 0 6 -7l-96 -538q0 -6 4 -2q48 66 134.5 118t176.5 52q184 0 273 -116q61 -80 61 -214q0 -60 -12 -131l-31 -170q-34 -196 -157.5 -311t-280.5 -115q-115 0 -191 60.5t-94 150.5q-2 5 -4 0l-99 -164q-2 -6 -8 -6h-166q-7 0 -4 6zM338 434 q-5 -27 -5 -52q1 -82 51 -144q66 -82 146 -82q196 0 236 225l27 154q10 60 10 106q-1 67 -21 108q-36 70 -135 70q-102 0 -187.5 -77.5t-107.5 -219.5z" />
<glyph unicode="c" horiz-adv-x="1077" d="M46 267l-2 38q0 51 9 107l27 149q17 95 58.5 176t108.5 144t165.5 99t218.5 36q211 0 303 -100q70 -76 70 -195q0 -39 -7 -82q0 -8 -8 -8h-223q-9 0 -6 8q3 19 3 37q0 54 -30 92q-40 50 -145 51q-101 0 -168.5 -67t-91.5 -205l-21 -113q-8 -47 -9 -86q0 -76 33 -122 q49 -70 140 -70q189 0 234 182q0 8 8 8h221q8 0 8 -8q-42 -172 -172.5 -275.5t-345.5 -103.5q-88 0 -158 22.5t-115.5 63t-73 97.5t-31.5 125z" />
<glyph unicode="d" horiz-adv-x="1126" d="M53 385l31 170q40 228 170 344.5t315 116.5q98 0 163.5 -50.5t86.5 -119.5q0 -3 2 -3t2 3l97 540q0 7 6 7h237q6 0 6 -7l-196 -1116q-10 -65 -10 -120q0 -20 1 -38q5 -70 21 -104q4 -8 -4 -8h-207q-6 0 -8 6l-68 129q-2 5 -6 0q-40 -47 -66 -72t-67 -52.5t-92 -39 t-119 -12.5q-166 -1 -246 119q-58 86 -58 208q0 47 9 99zM309 414q-7 -42 -8 -77q-1 -71 29 -115q44 -66 131 -66q83 0 176 81.5t115 204.5l14 80q5 28 5 54q0 34 -8 66q-14 57 -44 95t-67.5 60t-73.5 22q-100 0 -161 -70t-87 -214z" />
<glyph unicode="e" horiz-adv-x="1099" d="M53 444l15 82q43 244 186 367t362 123q232 0 336 -130q75 -94 75 -237q0 -55 -11 -117l-19 -108q0 -6 -6 -6h-688q-8 0 -8 -6v-4q-6 -35 -6 -65q0 -80 44 -126q61 -63 175 -63q81 0 140 38.5t85 102.5q2 6 8 6h228q6 0 4 -6q-48 -147 -182 -241.5t-328 -94.5 q-228 1 -338 137q-82 101 -82 244q0 50 10 104zM328 598q0 -6 4 -6h438q8 0 8 6l4 23q3 19 3 36q-1 63 -43 109q-54 59 -148 59q-97 0 -171 -56.5t-91 -147.5z" />
<glyph unicode="f" horiz-adv-x="528" d="M16 6l136 766q3 6 -5 6h-124q-7 0 -7 6l33 185q3 6 8 6h125q6 0 6 6l29 156q25 149 108.5 223t209.5 74q42 0 83 -14t66 -36q2 -2 2 -10l-29 -164q0 -6 -6 -6l-5 4q-4 4 -12 10t-18 11.5t-23.5 9.5t-27.5 4q-88 0 -104 -106l-29 -156q0 -6 6 -6h166q7 0 4 -6l-33 -185 q0 -6 -6 -6h-166q-5 0 -8 -6l-135 -766q0 -6 -6 -6h-231q-7 0 -7 6z" />
<glyph unicode="g" horiz-adv-x="1052" d="M-63 -164l4 29q21 149 196 196q8 3 4 7q-52 49 -52 113q0 23 7 48q14 50 40.5 77.5t72.5 49.5q5 4 0 9q-93 62 -93 183q0 28 5 60l16 84q26 148 159.5 236t315.5 88q81 0 156 -25t98 -51q3 -3 8 0q72 35 197 35h45q6 0 6 -8l-30 -168q-3 -8 -11 -8q-16 1 -32 1l-72 -6 q-3 0 -5 -2.5t-1 -5.5q5 -23 5 -46q0 -18 -3 -36l-15 -84q-27 -144 -149.5 -228.5t-321.5 -84.5h-77q-30 0 -50.5 -18.5t-25.5 -44.5q-5 -27 11 -45.5t52 -18.5h250q84 0 149 -27t101 -88q25 -43 25 -99q0 -23 -4 -48q-13 -75 -57 -142.5t-116 -120.5t-179.5 -84.5 t-235.5 -31.5q-212 0 -312 85q-84 72 -84 177q0 21 3 43zM170 -137q-4 -29 2.5 -53.5t26.5 -47.5t66 -36t114 -13q124 0 207.5 44t93.5 122q4 34 -7.5 56t-39.5 33t-59 14.5t-78 3.5h-172q-70 0 -105 -24t-45 -81zM360 625q-3 -16 -3 -30q0 -49 32 -78q41 -38 129 -38 q183 0 209 148l6 41q4 20 4 38q0 48 -29 78q-38 41 -126 41q-186 0 -215 -159z" />
<glyph unicode="h" horiz-adv-x="1095" d="M10 6l244 1380q0 7 6 7h236q6 0 6 -7l-94 -538q-2 -3 -0.5 -3t4.5 3q54 78 137 123t170 45q177 0 248 -110q49 -76 49 -188q0 -50 -10 -108l-76 -430q-6 -28 -6 -64v-30q4 -54 22 -80q3 -6 -4 -6h-242q-4 0 -8 6q-20 31 -20 86q0 35 8 80l72 403q9 51 9 92 q0 152 -128 152q-82 0 -172 -84t-105 -176l-98 -553q0 -6 -6 -6h-236q-6 0 -6 6z" />
<glyph unicode="i" horiz-adv-x="489" d="M10 6l170 963q0 6 6 6h234q6 0 6 -6l-170 -963q0 -6 -6 -6h-234q-6 0 -6 6zM213 1151l41 235q0 7 6 7h234q6 0 6 -7l-41 -235q-3 -6 -8 -6h-234q-6 0 -4 6z" />
<glyph unicode="j" horiz-adv-x="528" d="M-154 -342l31 170q2 6 6 2q29 -39 66 -39q42 0 62.5 27t31.5 92l186 1059q2 6 9 6h231q7 0 4 -6l-174 -994q-35 -198 -114.5 -289.5t-207.5 -91.5q-39 0 -74 16.5t-55 39.5q-2 2 -2 8zM260 1151l41 235q2 7 8 7h234q7 0 4 -7l-41 -235q0 -6 -6 -6h-234q-6 0 -6 6z" />
<glyph unicode="k" horiz-adv-x="1052" d="M10 6l244 1380q0 7 6 7h234q6 0 6 -7l-144 -808q0 -6 6 0l461 391q6 6 13 6h282q2 0 4 -1.5t0 -4.5l-456 -383q-7 -7 -4 -13l284 -567q3 -6 -4 -6h-258q-5 0 -8 6l-197 424q-4 4 -8 0l-160 -123l-4 -6l-51 -295q0 -6 -6 -6h-234q-6 0 -6 6z" />
<glyph unicode="l" horiz-adv-x="450" d="M10 6l244 1380q0 7 6 7h227q7 0 7 -7l-244 -1380q0 -6 -6 -6h-228q-6 0 -6 6z" />
<glyph unicode="m" horiz-adv-x="1583" d="M10 6l170 963q2 6 8 6h160q3 0 6 -6l52 -133q2 -6 8 0q144 180 311 180q54 0 93.5 -20t59 -51t27 -63t4.5 -61q0 -8 6 -2q23 30 41 51t51.5 51t67.5 48.5t84 32.5t105 14q142 0 202 -94q40 -62 39 -160q0 -50 -10 -109l-84 -473q-6 -28 -6 -64q1 -14 1 -30q4 -54 21 -80 q3 -6 -4 -6h-241q-4 0 -8 6q-21 33 -21 91q0 36 8 81l82 469q5 30 5 56q0 41 -12 69q-20 48 -81 47q-79 0 -143 -63t-78 -142l-78 -434q-6 -28 -6 -64v-30q4 -54 22 -80q3 -6 -4 -6h-233q-4 0 -8 6q-21 32 -21 88q0 34 8 78l86 481q4 23 4 44q0 42 -18 74q-26 48 -90 48 q-70 0 -141.5 -65.5t-85.5 -139.5l-113 -608q0 -6 -6 -6h-234q-6 0 -6 6z" />
<glyph unicode="n" horiz-adv-x="1130" d="M10 6l170 963q2 6 8 6h160q3 0 6 -6l52 -133q2 -6 8 0q55 69 146 124.5t188 55.5q178 0 252 -106q51 -72 51 -188q0 -54 -11 -118l-75 -424q-6 -28 -7 -64q0 -14 2 -30q4 -54 21 -80q3 -6 -4 -6h-242q-4 0 -8 6q-21 32 -21 89q0 37 9 83l78 438q6 33 6 61q-1 54 -23 89 q-34 53 -121 53q-90 0 -186.5 -90.5t-118.5 -210.5l-94 -512q0 -6 -6 -6h-234q-6 0 -6 6z" />
<glyph unicode="o" horiz-adv-x="1155" d="M51 440l21 111q37 214 201 339.5t382 125.5q98 0 182.5 -32t144.5 -90t86 -148q15 -52 15 -111q0 -42 -8 -86l-20 -111q-22 -124 -74 -217t-128.5 -149.5t-169.5 -84.5t-202 -28q-221 -1 -343 133q-95 103 -95 255q0 44 8 93zM301 434q-5 -35 -5 -66q0 -86 41 -140 q56 -72 173 -72q115 0 190 68.5t101 199.5l20 104q8 41 8 77q0 83 -42 137q-60 78 -166 79q-111 0 -198 -76t-108 -215z" />
<glyph unicode="p" horiz-adv-x="1130" d="M-59 -383l237 1352q0 6 6 6h125q5 0 8 -6l84 -138q3 -3 7 0q52 76 139.5 130.5t197.5 54.5q174 0 256 -127q56 -86 56 -214q0 -61 -13 -132l-20 -117q-37 -210 -166 -338.5t-301 -128.5q-114 0 -183.5 54.5t-88.5 131.5q0 4 -4 0l-91 -528q-3 -6 -8 -6h-237q-6 0 -4 6z M336 444q-5 -26 -5 -51q0 -79 46 -147q60 -90 158 -90q93 0 155 73.5t86 202.5l17 98q9 48 9 90q0 69 -25 120q-39 79 -140 79q-93 0 -180 -91t-105 -191z" />
<glyph unicode="q" horiz-adv-x="1122" d="M55 426l21 117q39 219 166.5 346t300.5 127q57 0 102.5 -13.5t77 -40t52 -53t40.5 -63.5q3 -5 6 -2l121 125q6 6 12 6h133q7 0 7 -6l-238 -1352q-2 -6 -8 -6h-238q-7 0 -4 6l88 510q2 2 0.5 2.5t-4.5 -2.5q-134 -169 -307 -169q-10 0 -21 1q-184 10 -264 133 q-55 84 -55 209q0 58 12 125zM307 432q-9 -50 -9 -92q0 -65 22 -110q37 -74 131 -74q98 0 190 90t111 198l16 93q4 24 4 48q0 40 -12 81q-20 65 -68 109t-110 44q-101 0 -168 -79.5t-90 -209.5z" />
<glyph unicode="r" horiz-adv-x="671" d="M10 6l170 963q2 6 8 6h146q6 0 8 -4l51 -115q0 -8 4 0q36 71 114 115.5t157 44.5q60 0 90 -15q4 -2 4 -8l-45 -260q-1 -4 -3 -5t-4 0t-3 3q-20 32 -58.5 51t-85.5 19q-72 0 -126.5 -53t-71.5 -142l-107 -600q0 -6 -6 -6h-236q-6 0 -6 6z" />
<glyph unicode="s" horiz-adv-x="983" d="M29 245q0 35 4 68q0 7 4 9h225q6 0 6 -5q-2 -12 -2 -24q0 -49 36 -88q46 -49 159 -49q85 0 128 27t50 71q1 8 1 16q0 30 -20 50q-24 25 -98 51l-219 80q-183 67 -183 230q0 26 5 54q20 122 134.5 201.5t297.5 79.5q213 0 309 -96q75 -75 75 -180q0 -29 -5 -60q0 -6 -6 -6 h-213q-6 0 -6 6q1 10 1 20q0 48 -34 80q-41 38 -135 39q-148 0 -166 -86q-6 -37 13.5 -59.5t62.5 -38.5l219 -88q55 -22 92.5 -44t71.5 -56q36 -34 48 -82q7 -26 6 -55q0 -26 -5 -54q-55 -297 -443 -297q-72 0 -133 11.5t-104 31.5t-77.5 47.5t-53.5 59.5t-32 66.5t-13 69.5 z" />
<glyph unicode="t" horiz-adv-x="602" d="M63 786l31 183q3 6 8 6h111q6 0 6 2l53 305q2 7 9 10l247 109q7 2 7 -6l-74 -414q0 -6 6 -6h182q4 -2 4 -8l-32 -183q0 -6 -7 -6h-186q-2 0 -2 -4l-96 -543q-8 -39 6 -57t53 -18q30 0 64 16t49.5 28.5t23.5 20.5q4 4 4 -2l-30 -180q0 -7 -8 -12q-35 -28 -87.5 -48 t-103.5 -20q-55 0 -97.5 17t-73.5 54q-31 36 -40 96q-4 24 -4 53q0 41 8 91l90 504v2q0 4 -4 4h-112q-8 0 -5 6z" />
<glyph unicode="u" horiz-adv-x="1112" d="M57 342l111 627q0 6 6 6h238q6 0 6 -6l-105 -590q-6 -36 -6 -67q0 -54 19 -94q30 -62 120 -62q108 0 198 97.5t110 209.5l90 506q0 6 6 6h229q6 0 6 -6l-122 -699q-9 -63 -9 -116q0 -22 2 -42q6 -68 21 -106q0 -6 -6 -6h-201q-6 0 -8 6l-68 129q-2 5 -6 0 q-73 -85 -156.5 -130.5t-195.5 -45.5q-160 0 -236 95q-53 66 -53 179q0 50 10 109z" />
<glyph unicode="v" horiz-adv-x="1017" d="M57 971q0 4 6 4h248q6 0 8 -6l115 -738q3 -5 8 0l377 738q2 6 8 6h248q4 0 4 -4v-2l-538 -963q-2 -6 -9 -6h-266q-6 0 -8 6l-199 963z" />
<glyph unicode="w" horiz-adv-x="1406" d="M57 969q-3 6 4 6h240q6 0 8 -6l47 -693q1 -3 2.5 -4t3.5 0t3 4l309 693q2 6 8 6h182q6 0 8 -6l66 -690q0 -3 1 -4t3 0t4 4l291 690q2 6 8 6h240q7 0 4 -6l-449 -965q0 -4 -4 -4h-270q-4 0 -4 4l-51 582q-1 3 -3 4t-3.5 0t-2.5 -4l-256 -582q0 -4 -4 -4h-270q-4 0 -4 4z " />
<glyph unicode="x" horiz-adv-x="1028" d="M-81 2q-1 2 1 4l438 500q5 5 2 8l-266 455q-2 1 -1 3.5t5 2.5h271q8 0 12 -6l154 -283q0 -8 8 0l243 283q4 6 13 6h264q7 0 4 -6l-414 -451q-5 -5 -2 -8l293 -504q3 -6 -4 -6h-285q-8 0 -12 6l-160 324q0 8 -8 0l-262 -324q-4 -6 -12 -6h-277q-4 0 -5 2z" />
<glyph unicode="y" horiz-adv-x="950" d="M-80 -334l27 162q4 8 10 2q39 -51 94 -51q41 0 68 15t49 54l100 189q4 8 2 14l-213 916q0 8 9 8h243q5 0 8 -8l123 -619q2 -6 6 0l316 619q5 8 12 8h248q9 0 4 -8l-680 -1194q-107 -185 -270 -185q-44 0 -88 21t-66 47q-5 5 -2 10z" />
<glyph unicode="z" horiz-adv-x="870" d="M-43 6l31 178q6 12 10 15l571 571q8 8 2 8h-450q-6 0 -6 6l32 185q0 6 7 6h716q7 0 7 -6l-33 -187q0 -6 -8 -14l-560 -565l-2 -6h496q6 0 6 -7l-33 -184q0 -6 -6 -6h-774q-6 0 -6 6z" />
<glyph unicode="{" horiz-adv-x="620" d="M57 561l6 29q0 5 11 8q87 28 120 54.5t44 86.5l81 467q20 116 88.5 183t190.5 67h90q8 0 8 -8l-12 -70q-3 -8 -10 -8h-37q-38 0 -57 -17.5t-27 -58.5l-98 -561q-7 -43 -39.5 -87.5t-89.5 -65.5q-12 -6 -2 -9q50 -20 66.5 -64.5t8.5 -88.5l-98 -563q-8 -42 4.5 -59 t50.5 -17h37q9 0 6 -8l-12 -70q0 -8 -8 -8h-90q-122 0 -167.5 67t-25.5 183l82 469q11 60 -12 86.5t-100 54.5q-9 3 -9 8z" />
<glyph unicode="|" horiz-adv-x="538" d="M23 -319l301 1705q0 7 6 7h178q6 0 6 -7l-301 -1705q0 -7 -6 -7h-178q-6 0 -6 7z" />
<glyph unicode="}" horiz-adv-x="620" d="M-78 -299l12 70q3 8 11 8h37q37 0 55 17.5t26 58.5l99 563q7 43 40 88t89 65q13 5 2 9q-49 21 -66 65.5t-10 87.5l98 561q8 42 -4.5 59t-50.5 17h-37q-9 0 -6 8l12 70q0 8 9 8h90q122 0 167 -67t25 -183l-82 -467q-11 -60 13 -86.5t102 -54.5q6 -3 6 -8l-6 -29 q0 -5 -8 -8q-87 -28 -121 -54.5t-45 -86.5l-82 -469q-20 -116 -88.5 -183t-190.5 -67h-88q-8 0 -8 8z" />
<glyph unicode="~" horiz-adv-x="1583" d="M258 613q0 3 2 5q51 64 142.5 118.5t197.5 54.5q61 0 117.5 -23t93 -50t85.5 -50t97 -23q64 0 116 28.5t103 90.5q2 3 5 3t4 -3l71 -168q0 -6 -4 -10q-159 -162 -334 -162q-58 0 -116 22t-97 48.5t-89 48.5t-95 22q-114 0 -219 -127q-6 -6 -8 0l-70 170q-2 2 -2 5z" />
<glyph horiz-adv-x="0" />
<glyph unicode="&#xa1;" horiz-adv-x="446" d="M-18 6l53 287q28 144 94 438t68 305q0 4 1.5 6t3.5 2h1h162q6 0 6 -8q-5 -26 -44 -327.5t-57 -415.5l-49 -287q0 -6 -6 -6h-227q-6 0 -6 6zM184 1169l39 217q0 7 6 7h230q6 0 6 -7l-39 -217q0 -6 -6 -6h-230q-6 0 -6 6z" />
<glyph unicode="&#xa2;" horiz-adv-x="1116" d="M51 418l27 149q30 169 159.5 290.5t319.5 148.5q4 0 4 4l31 170q0 8 10 8h164q6 0 6 -8l-31 -172q0 -4 4 -4q162 -26 236 -130.5t61 -234.5q0 -8 -6 -8h-219q-8 0 -8 8q12 65 -12 112t-84 64q-4 0 -6 -4l-113 -639q0 -4 4 -4q58 11 97.5 59t54.5 111q3 8 10 8h221 q10 0 6 -8q-44 -137 -154.5 -240t-269.5 -129q-2 0 -6 -4l-33 -188q0 -8 -10 -8h-164q-6 0 -6 8l33 186q0 4 -2 4q-114 20 -195 87.5t-114 163t-15 200.5zM305 434q-20 -109 12.5 -185.5t94.5 -76.5q2 0 2 2l112 635q0 4 -4 4q-71 -16 -123.5 -82t-74.5 -184z" />
<glyph unicode="&#xa3;" horiz-adv-x="1208" d="M-33 8l33 197q3 8 10 8q62 5 99 15.5t67.5 39t48.5 76.5t33 129q15 111 16 121q0 4 -4 4h-192q-9 0 -6 8l34 197q0 8 11 8l174 -2q6 0 6 6q11 80 27 172q17 95 52.5 174t91.5 141.5t139 97t186 34.5q187 0 265.5 -111t41.5 -322q-3 -8 -10 -8h-222q-9 0 -6 8 q37 238 -104 238q-43 0 -77.5 -22t-57.5 -60.5t-38 -81.5t-24 -94q-20 -124 -24 -168q0 -4 2 -4l329 2q6 0 6 -8l-34 -197q-3 -8 -11 -8l-313 4q-6 0 -6 -6l-16 -121q-35 -193 -138 -252q-4 -4 2 -4h609q6 0 6 -8l-37 -203q0 -8 -8 -8h-953q-8 0 -8 8z" />
<glyph unicode="&#xa5;" horiz-adv-x="1310" d="M133.5 1390q1.5 3 5.5 3h277q6 0 12 -9l238 -602q3 -5 8 0l450 602q6 9 13 9h276q3 0 5 -3t-1 -6l-485 -606q-6 -6 0 -6h145q9 0 6 -8l-34 -201q0 -8 -11 -8h-278q-4 0 -4 -6l-25 -137q0 -6 2 -6h279q8 0 8 -9l-37 -200q0 -9 -8 -9h-279q-3 0 -6 -6l-31 -174q0 -8 -8 -8 h-237q-8 0 -8 8l30 174q3 6 -2 6h-276q-8 0 -8 9l36 200q0 9 9 9h276q6 0 6 6l25 137q0 6 -4 6h-277q-6 0 -6 8l35 201q3 8 10 8h143q7 0 5 6l-273 606q-3 3 -1.5 6z" />
<glyph unicode="&#xa6;" horiz-adv-x="509" d="M-10 -317l112 645q0 8 9 8h215q8 0 8 -8l-115 -645q0 -9 -8 -9h-213q-8 0 -8 9zM174 739l115 645q0 9 8 9h215q8 0 8 -9l-114 -645q0 -8 -9 -8h-215q-5 0 -6.5 1t-1.5 7z" />
<glyph unicode="&#xa7;" horiz-adv-x="1069" d="M18 117q0 8 9 8h223q12 0 12 -8q0 -53 40 -85t116 -32q80 0 136.5 37.5t66.5 97.5q8 47 -29.5 80t-110.5 64l-145 59q-63 26 -107 53t-78.5 64t-47 87t-1.5 113q16 88 78 151.5t139 86.5q4 0 0 4q-11 11 -17 16.5t-17.5 19t-17.5 24.5t-13.5 29t-10 36t-2.5 42t5 50 q13 76 60.5 139t113 101.5t137.5 59t141 20.5q164 0 261.5 -83.5t91.5 -226.5q0 -8 -9 -8h-215q-12 0 -12 8q0 52 -42 85.5t-111 33.5q-64 0 -115.5 -32t-59.5 -76q-8 -45 22.5 -72t115.5 -68l129 -61q24 -11 42.5 -20.5t40.5 -22.5t37.5 -24.5t33.5 -27.5t28 -31 t21.5 -34.5t14.5 -39.5t5.5 -45.5t-4.5 -51.5q-10 -51 -32 -94t-55 -74.5t-58 -50t-60 -39.5q-2 -2 -2 -4q42 -23 72 -83t16 -138q-19 -107 -92.5 -187t-177.5 -120t-222 -40q-158 0 -254 84t-90 226zM338 680q-10 -51 21 -81.5t106 -61.5l158 -66q42 19 71 51.5t35 67.5 q12 75 -108 129q-32 15 -73 32.5t-65 27.5t-26 12q-47 -12 -80 -43t-39 -68z" />
<glyph unicode="&#xa8;" d="M172 1137l39 229q2 6 8 6h227q8 0 5 -6l-39 -229q-4 -7 -9 -7h-227q-6 0 -4 7zM573 1137l39 229q2 6 9 6h227q7 0 4 -6l-39 -229q-3 -7 -8 -7h-227q-7 0 -5 7z" />
<glyph unicode="&#xa9;" horiz-adv-x="1601" d="M82 696q36 201 158.5 366.5t304 260t383.5 94.5q151 0 275 -55.5t202 -151.5t110 -229.5t5 -284.5q-37 -201 -160 -366.5t-304.5 -260t-383.5 -94.5t-350 94.5t-212 260t-28 366.5zM240 696q-20 -116 4.5 -221t84.5 -181.5t156 -121.5t213 -45q155 0 298.5 76.5 t241 207.5t124.5 285q26 155 -24.5 285.5t-166.5 207.5t-270 77q-156 0 -299 -77t-239.5 -208t-122.5 -285zM430 692q-32 -180 56.5 -293.5t256.5 -113.5q119 0 217 64t146 136q6 6 0 9l-115 63q-4 2 -8 -2q-86 -121 -213 -121q-99 0 -145.5 70.5t-26.5 187.5q22 118 94 190 t170 72q61 0 105.5 -33.5t64.5 -97.5q3 -5 6 -2l140 86q4 4 0 8q-25 75 -99.5 130t-191.5 55q-162 0 -293.5 -114.5t-163.5 -293.5z" />
<glyph unicode="&#xaa;" horiz-adv-x="706" d="M18 940q16 93 82 138t187 67l145 26q38 6 43 33v8q8 40 -15.5 60t-82.5 20q-65 0 -99.5 -25t-44.5 -81q0 -8 -10 -8h-137q-6 0 -6 8q21 117 110 174t218 57q122 0 182 -46.5t41 -149.5l-56 -320q-7 -29 -1 -40t30 -11h8q6 0 6 -6l-18 -96q0 -6 -8 -9q-36 -6 -72 -6 q-43 0 -70.5 16.5t-33.5 47.5q0 8 -4 0q-53 -66 -199 -66q-97 0 -155 53.5t-40 155.5zM180 944q-7 -42 18 -63t76 -21q64 0 108 32t54 93l13 68q0 7 -7 4q-37 -11 -110 -25q-74 -14 -109.5 -31.5t-42.5 -56.5z" />
<glyph unicode="&#xab;" horiz-adv-x="905" d="M31 487l39 213q0 8 8 13l424 315h2q6 0 6 -4l-45 -254q-2 -6 -8 -12l-219 -152q-5 -2 -5 -4q1 -2 3 -2l161 -166q6 -12 6 -14l-45 -254q-3 -6 -6 -6q-2 0 -4 2l-313 315q-4 4 -4 10zM451 487l38 213q0 7 9 13l424 315h2q6 0 6 -4l-45 -254q-2 -6 -8 -12l-220 -152 q-4 -2 -4 -4t2 -2l162 -166q6 -12 6 -14l-45 -254q-3 -6 -6 -6q-2 0 -4 2l-313 315q-4 4 -4 10z" />
<glyph unicode="&#xac;" horiz-adv-x="1097" d="M68 741l30 181q3 8 11 8h917q9 0 6 -8l-96 -545q-2 -12 -14 -12h-209q-13 0 -11 12l62 348q3 8 -6 8h-684q-9 0 -6 8z" />
<glyph unicode="&#xad;" horiz-adv-x="978" d="M156 389l34 201q3 8 11 8h614q9 0 6 -8l-35 -201q-3 -8 -10 -8h-614q-9 0 -6 8z" />
<glyph unicode="&#xae;" horiz-adv-x="1601" d="M82 696q36 201 158.5 366.5t304 260t383.5 94.5q151 0 275 -55.5t202 -151.5t110 -229.5t5 -284.5q-37 -201 -160 -366.5t-304.5 -260t-383.5 -94.5t-350 94.5t-212 260t-28 366.5zM240 696q-20 -116 4.5 -221t84.5 -181.5t156 -121.5t213 -45q155 0 298.5 76.5 t241 207.5t124.5 285q26 155 -24.5 285.5t-166.5 207.5t-270 77q-156 0 -299 -77t-239.5 -208t-122.5 -285zM461 322q0 -7 2 -7h143q4 0 4 7l56 307q0 4 6 4h131q89 0 121 -35.5t18 -114.5l-16 -90q-7 -53 0 -74q2 -4 6 -4h147q7 0 4 7q-10 29 -2 77l23 127q24 142 -115 174 v5q64 17 112 66t58 110q20 112 -40.5 162.5t-221.5 50.5h-297q-2 0 -4 -4zM690 772l33 182q0 7 6 7h156q60 0 91.5 -25.5t24.5 -69.5q-9 -48 -51.5 -73t-105.5 -25h-148q-6 0 -6 4z" />
<glyph unicode="&#xaf;" d="M197 1210l30 174q3 9 11 9h581q9 0 6 -9l-30 -174q-3 -8 -11 -8h-581q-9 0 -6 8z" />
<glyph unicode="&#xb0;" horiz-adv-x="827" d="M41 1053q26 155 154 263.5t284 108.5q155 0 244 -108.5t63 -263.5q-28 -155 -156.5 -264t-283.5 -109t-244 109t-61 264zM258 1053q-12 -63 26 -109.5t101 -46.5t117.5 46.5t66.5 109.5q11 63 -27.5 109t-101.5 46t-117.5 -46t-64.5 -109z" />
<glyph unicode="&#xb1;" horiz-adv-x="1312" d="M47 8l33 193q3 8 10 8h989q9 0 6 -8l-32 -193q-3 -8 -11 -8h-989q-9 0 -6 8zM150 596l34 201q3 8 11 8h383l49 278q0 9 8 9h203q8 0 8 -9l-49 -278h387q9 0 6 -8l-35 -201q0 -8 -10 -8h-379q-10 0 -10 -10l-47 -269q-3 -8 -9 -8h-202q-5 0 -7.5 2t-1.5 6l48 271q0 8 -9 8 h-372q-6 0 -6 8z" />
<glyph unicode="&#xb2;" horiz-adv-x="882" d="M33 535l18 108q8 45 23 82.5t40.5 69t47.5 54t62.5 48.5t65.5 40.5t75 41.5q126 67 165 102.5t48 89.5q9 55 -19 84t-80 29q-54 0 -92 -37t-49 -94l-4 -27q0 -6 -8 -6h-176q-5 0 -5 6l9 45q19 105 116.5 184t245.5 79q132 0 201.5 -70.5t48.5 -192.5q-9 -51 -29.5 -90 t-62.5 -78t-92 -72t-138 -85q-119 -70 -151.5 -95t-36.5 -53l-2 -10q0 -6 6 -6h397q5 0 5 -6l-25 -141q0 -5 -6 -5h-592q-6 0 -6 5z" />
<glyph unicode="&#xb3;" horiz-adv-x="860" d="M78 780l6 35q0 4 6 4h174q6 0 6 -4l-2 -12q-11 -59 14.5 -98t79.5 -39q64 0 106 35t54 100q10 66 -25.5 96.5t-115.5 30.5h-57q-4 0 -5 0.5t0 3.5l23 135q2 4 8 4h56q133 0 153 107q9 48 -13.5 74t-68.5 26q-45 0 -77 -25.5t-38 -66.5l-4 -15q0 -4 -6 -4h-174q-6 0 -6 4 l6 25q19 105 113 171.5t227 66.5q120 0 186 -61.5t48 -164.5q-14 -80 -54 -124t-118 -76v-4q69 -12 106.5 -66.5t20.5 -151.5q-20 -111 -118 -190.5t-247 -79.5q-144 0 -215 72.5t-49 191.5z" />
<glyph unicode="&#xb4;" d="M307 1137l174 249q7 7 11 7h249q7 0 0 -7l-252 -249q-11 -7 -12 -7h-168q-9 0 -2 7z" />
<glyph unicode="&#xb5;" horiz-adv-x="1148" d="M-6 -383l237 1352q0 6 7 6h233q6 0 6 -6l-115 -647q-12 -76 23 -121t115 -45q116 0 204.5 85t108.5 195l94 533q0 6 6 6h230q8 0 6 -6l-123 -699q-14 -88 -9 -158t21 -104q4 -8 -4 -8h-200q-7 0 -9 6l-67 129q-2 5 -6 0q-68 -90 -136.5 -133t-152.5 -43q-107 0 -148 61 q-4 4 -6 0l-71 -403q0 -6 -7 -6h-231q-6 0 -6 6z" />
<glyph unicode="&#xb6;" horiz-adv-x="1267" d="M137 899q28 159 160 272t291 113h684q7 0 4 -8l-33 -191q-3 -8 -10 -8h-131q-5 0 -8 -8l-187 -1061q-3 -8 -10 -8h-158q-9 0 -6 8l187 1061q3 8 -5 8h-178q-5 0 -8 -8l-186 -1061q-3 -8 -11 -8h-163q-10 0 -7 8l89 504q2 4 -2 4q-159 2 -250 113.5t-62 269.5z" />
<glyph unicode="&#xb7;" horiz-adv-x="509" d="M98 526l47 258q0 7 7 7h251q7 0 7 -7l-48 -258q0 -6 -6 -6h-252q-6 0 -6 6z" />
<glyph unicode="&#xb8;" d="M360 -322q3 9 9 9h106q2 0 4.5 -10.5t7 -22.5t24.5 -22.5t54 -10.5q51 0 76.5 24t34.5 76q9 49 -10 66.5t-76 17.5q-26 0 -50.5 -3t-37 -5.5t-38 -9t-34.5 -8.5q-1 0 -2 -1t-2 -1q-2 0 -2 6l55 151v-2q0 1 1 4.5t1 4.5q3 14 -12 18l23 2l30 80h121l-35 -86l19 -4h-6 q-12 0 -17 -8l-20 -56v-4q0 -4 4 -4q13 0 36.5 4t34.5 4q81 0 119.5 -40t24.5 -126q-15 -86 -83 -139t-165 -53t-149 38.5t-46 110.5z" />
<glyph unicode="&#xb9;" horiz-adv-x="731" d="M217 545l121 680q0 4 -4 2l-113 -45l-2 4l19 106q0 4 4 6l315 134q3 1 4.5 -0.5t-0.5 -4.5l-155 -882q0 -4 -5 -4h-180q-4 0 -4 4z" />
<glyph unicode="&#xba;" horiz-adv-x="772" d="M61 1075q26 153 135 247.5t250 94.5q140 0 215.5 -94.5t49.5 -247.5q-29 -157 -136 -250.5t-249 -93.5q-143 0 -218.5 93.5t-46.5 250.5zM219 1075q-18 -92 22.5 -146.5t108.5 -54.5q66 0 126.5 55t76.5 146q14 90 -25 144.5t-106 54.5q-68 0 -128.5 -55.5t-74.5 -143.5z " />
<glyph unicode="&#xbb;" horiz-adv-x="905" d="M-23 166l43 254q0 7 11 14l219 166l2 2v4l-166 152q-6 6 -4 12l45 254q0 4 4 4h4l314 -315q4 -8 4 -13l-39 -213q0 -7 -8 -10l-422 -315l-4 -2q-6 0 -3 6zM395 166l45 254q0 7 11 14l219 166l2 2v4l-166 152q-6 6 -4 12l45 254q0 4 4 4h4l313 -315q4 -8 4 -13l-38 -213 q0 -7 -9 -10l-424 -315l-4 -2q-5 0 -2 6z" />
<glyph unicode="&#xbc;" horiz-adv-x="1763" d="M266 545l119 680q0 3 -1 3t-3 -1l-111 -45l-4 4l19 106q0 4 6 6l313 134q6 3 6 -5l-155 -882q-2 -4 -6 -4h-181q-4 0 -2 4zM272 6l926 1380q5 7 10 7h187q7 0 2 -7q-449 -653 -928 -1380q-3 -6 -8 -6h-185q-7 0 -4 6zM846 170l26 149l7 13l450 553q2 2 6 2h236q4 0 4 -4 l-98 -557q-3 -7 4 -7h106q4 0 4 -4l-26 -145q0 -4 -4 -4h-107q-6 0 -6 -6l-29 -156q0 -4 -4 -4h-164q-4 0 -4 4l29 156q0 6 -4 6h-420q-6 0 -6 4zM1063 319h235q4 0 7 7l22 125q15 82 27 144t18.5 92t7.5 36q-1 4 -4 0l-313 -397q-11 -7 0 -7z" />
<glyph unicode="&#xbd;" horiz-adv-x="1867" d="M266 545l119 680q0 3 -1 3t-3 -1l-111 -45l-4 4l19 106q0 4 6 6l313 134q6 3 6 -5l-155 -882q-2 -4 -6 -4h-181q-4 0 -2 4zM272 6l926 1380q5 7 10 7h187q7 0 2 -7q-449 -653 -928 -1380q-3 -6 -8 -6h-185q-7 0 -4 6zM971 6l18 107q8 45 23 82.5t40.5 69t47.5 54 t62.5 48.5t65.5 40.5t75 41.5q126 67 165 102.5t48 89.5q10 55 -18.5 84t-80.5 29q-54 0 -92 -37t-49 -94l-4 -27q0 -6 -6 -6h-176q-7 0 -7 6l9 45q19 105 117.5 183.5t246.5 78.5q132 0 200.5 -70t47.5 -192q-18 -98 -84.5 -162t-237.5 -164q-118 -69 -150 -93.5t-38 -53.5 l-2 -10q0 -6 6 -6h397q7 0 4 -7l-24 -139q0 -6 -6 -6h-592q-6 0 -6 6z" />
<glyph unicode="&#xbe;" horiz-adv-x="1916" d="M123 780l6 35q0 4 6 4h174q6 0 6 -4l-2 -12q-11 -59 15 -98t80 -39q64 0 105.5 35t53.5 100q10 66 -24.5 96.5t-114.5 30.5h-57q-6 0 -6 4l24 135q0 4 6 4h56q68 0 106.5 29t46.5 78q9 48 -13.5 74t-68.5 26q-44 0 -75 -25.5t-39 -66.5l-2 -15q-4 -4 -9 -4h-174 q-8 0 -4 4l4 25q19 105 113 171.5t227 66.5q120 0 186 -61.5t48 -164.5q-14 -80 -54 -123.5t-116 -76.5l-2 -4q69 -12 106.5 -66.5t20.5 -151.5q-18 -110 -117 -190t-248 -80q-144 0 -214.5 72.5t-49.5 191.5zM426 6l926 1380q5 7 10 7h186q7 0 2 -7q-425 -618 -927 -1380 q-3 -6 -9 -6h-184q-7 0 -4 6zM999 170q0 -4 7 -4h419q5 0 5 -6l-29 -156q0 -4 4 -4h164q4 0 4 4l29 156q0 6 6 6h106q4 0 4 4l27 145q0 4 -4 4h-107q-8 0 -4 7l99 557q0 4 -5 4h-235q-4 0 -6 -2l-451 -553l-6 -13zM1217 319q-11 0 0 7l313 397q0 2 2 2l2 -2q-1 -6 -7.5 -36 t-18.5 -92t-27 -144l-23 -125q-4 -7 -6 -7h-235z" />
<glyph unicode="&#xbf;" horiz-adv-x="1122" d="M42.5 220.5q-3.5 50.5 2.5 101.5q23 128 85.5 207.5t193.5 172.5q15 11 42 30t36.5 26t28 21t24 19.5t18 16t16 17t11 16.5t10.5 19.5t6.5 21t7.5 26.5l29 115q0 6 8 6h187q6 0 4 -6l-13 -131q-13 -73 -39.5 -120.5t-66 -81.5t-123.5 -89q-78 -51 -117.5 -86t-62.5 -77 t-33 -105q-15 -83 30.5 -128.5t147.5 -45.5q105 0 160 60.5t78 185.5q0 6 6 6h231q6 0 6 -6q-12 -67 -34 -127t-63.5 -121.5t-98.5 -105t-144 -71.5t-194 -28q-92 0 -164.5 22t-114.5 58t-69.5 83.5t-31 98zM553 1169l39 217q0 7 6 7h229q7 0 7 -7l-39 -217q-2 -6 -9 -6 h-229q-4 0 -4 6z" />
<glyph unicode="&#xc0;" horiz-adv-x="1361" d="M-51 1l2 5l737 1380q4 7 8 7h318q4 0 8 -7l262 -1380q0 -6 -4 -6h-256q-6 0 -8 6l-60 350q0 6 -6 6h-547q-4 0 -10 -6l-176 -350q-2 -6 -8 -6h-254q-5 0 -6 1zM510 575q-3 -6 2 -6h403q6 0 3 6l-101 594q0 1 -2 1t-2 -1zM598 1815q-6 6 6 6h248q6 0 6 -6l88 -250 q0 -6 -6 -6h-168q-8 0 -8 6z" />
<glyph unicode="&#xc1;" horiz-adv-x="1361" d="M-51 1l2 5l737 1380q4 7 8 7h318q4 0 8 -7l262 -1380q0 -6 -4 -6h-256q-6 0 -8 6l-60 350q0 6 -6 6h-547q-4 0 -10 -6l-176 -350q-2 -6 -8 -6h-254q-5 0 -6 1zM510 575q-3 -6 2 -6h403q6 0 3 6l-101 594q0 1 -2 1t-2 -1zM770 1565l174 250q6 6 10 6h250q6 0 0 -6 l-252 -250q-9 -6 -12 -6h-168q-8 0 -2 6z" />
<glyph unicode="&#xc2;" horiz-adv-x="1361" d="M-51 1l2 5l737 1380q4 7 8 7h318q4 0 8 -7l262 -1380q0 -6 -4 -6h-256q-6 0 -8 6l-60 350q0 6 -6 6h-547q-4 0 -10 -6l-176 -350q-2 -6 -8 -6h-254q-5 0 -6 1zM510 575q-3 -6 2 -6h403q6 0 3 6l-101 594q0 1 -2 1t-2 -1zM553 1559q-6 0 0 6l256 252q6 4 10 4h156 q4 0 6 -4l170 -252q2 -1 1 -3.5t-5 -2.5h-201q-8 0 -8 6l-61 116q-5 5 -9 0l-102 -116q-6 -6 -12 -6h-201z" />
<glyph unicode="&#xc3;" horiz-adv-x="1361" d="M-51 1l2 5l737 1380q4 7 8 7h318q4 0 8 -7l262 -1380q0 -6 -4 -6h-256q-6 0 -8 6l-60 350q0 6 -6 6h-547q-4 0 -10 -6l-176 -350q-2 -6 -8 -6h-254q-5 0 -6 1zM510 575q-3 -6 2 -6h403q6 0 3 6l-101 594q0 1 -2 1t-2 -1zM528 1589q18 101 79.5 164.5t152.5 63.5 q43 0 72 -8t73 -35q4 -2 14 -8.5t15 -9.5t14 -8t15.5 -7.5t15 -5.5t16 -4.5t15.5 -1.5q25 0 37.5 14.5t17.5 46.5q3 8 10 8h162q9 0 6 -8q-18 -100 -79 -163.5t-150 -63.5q-50 0 -81.5 8.5t-70.5 32.5q-7 4 -23.5 15t-25.5 16.5t-23.5 10.5t-27.5 5q-21 0 -34.5 -17.5 t-20 -35t-11.5 -17.5h-161q-10 0 -7 8z" />
<glyph unicode="&#xc4;" horiz-adv-x="1361" d="M-51 1l2 5l737 1380q4 7 8 7h318q4 0 8 -7l262 -1380q0 -6 -4 -6h-256q-6 0 -8 6l-60 350q0 6 -6 6h-547q-4 0 -10 -6l-176 -350q-2 -6 -8 -6h-254q-5 0 -6 1zM510 575q-3 -6 2 -6h403q6 0 3 6l-101 594q0 1 -2 1t-2 -1zM545 1575l39 229q2 6 8 6h227q7 0 4 -6l-39 -229 q-3 -6 -8 -6h-227q-6 0 -4 6zM946 1575l39 229q2 6 8 6h228q7 0 4 -6l-39 -229q-3 -6 -8 -6h-228q-6 0 -4 6z" />
<glyph unicode="&#xc5;" horiz-adv-x="1361" d="M-51 1l2 5l737 1380q4 7 8 7h318q4 0 8 -7l262 -1380q0 -6 -4 -6h-256q-6 0 -8 6l-60 350q0 6 -6 6h-547q-4 0 -10 -6l-176 -350q-2 -6 -8 -6h-254q-5 0 -6 1zM510 575q-3 -6 2 -6h403q6 0 3 6l-101 594q0 1 -2 1t-2 -1zM686 1688q13 86 84 145t158 59q86 0 136 -59 t36 -145q-15 -86 -86 -145.5t-158 -59.5q-86 0 -135.5 59.5t-34.5 145.5zM813 1688q-6 -33 12.5 -55.5t51.5 -22.5t59.5 22.5t32.5 55.5q4 33 -14.5 55t-51.5 22t-59.5 -22t-30.5 -55z" />
<glyph unicode="&#xc6;" horiz-adv-x="1875" d="M-111 2q0 1 1 2t1 2l947 1380q4 7 8 7h1052q9 0 9 -9l-35 -190q0 -8 -8 -8h-641q-11 0 -11 -8l-59 -338q-3 -9 6 -9h553q9 0 6 -8l-32 -190q0 -8 -11 -8h-553q-8 0 -8 -9l-72 -401q0 -8 7 -8h653q8 0 8 -8l-35 -191q0 -8 -8 -8h-907q-8 0 -8 8l59 332q0 8 -6 8h-402 q-7 0 -10 -6l-235 -336q-2 -6 -8 -6h-254q-7 0 -7 2zM512 553q-3 -6 2 -6h326q8 0 8 8l115 645q0 3 -1.5 3t-3.5 -3z" />
<glyph unicode="&#xc7;" horiz-adv-x="1390" d="M92 584l43 241q49 271 245.5 440t453.5 169q261 0 402 -147t101 -372q-2 -8 -10 -8h-252q-9 0 -6 8q23 134 -55 222t-217 88q-151 0 -263.5 -115t-148.5 -317l-31 -177q-34 -197 45 -321.5t250 -124.5q72 0 135 28t105.5 73t70 96t37.5 102q0 8 9 8h249q9 0 9 -8 q-17 -95 -68.5 -185.5t-129 -163t-188.5 -117t-235 -44.5q-6 0 -6 -4l-31 -84q-2 -3 2 -2h2q25 10 62 10q85 0 132 -53t23 -148q-22 -85 -94.5 -134.5t-173.5 -49.5q-96 0 -144 38.5t-42 111.5q3 8 10 8h123q7 0 4 -6q0 -11 3.5 -22.5t21.5 -24.5t49 -13q37 0 65 25.5 t37 66.5q10 52 -15.5 78.5t-80.5 26.5q-47 0 -148 -23q-6 -3 -6 2l76 197q0 6 -4 6q-246 29 -353.5 195.5t-62.5 423.5z" />
<glyph unicode="&#xc8;" horiz-adv-x="1161" d="M16 8l244 1376q0 9 8 9h916q8 0 8 -9l-33 -180q0 -8 -8 -8h-662q-10 0 -10 -8l-63 -352q-3 -9 6 -9h579q10 0 7 -8l-31 -184q0 -8 -10 -8h-580q-8 0 -8 -9l-74 -413q0 -8 6 -8h674q8 0 8 -9l-32 -180q0 -8 -9 -8h-927q-9 0 -9 8zM516 1815q-6 6 6 6h248q6 0 6 -6l88 -250 q0 -6 -6 -6h-168q-8 0 -8 6z" />
<glyph unicode="&#xc9;" horiz-adv-x="1161" d="M16 8l244 1376q0 9 8 9h916q8 0 8 -9l-33 -180q0 -8 -8 -8h-662q-10 0 -10 -8l-63 -352q-3 -9 6 -9h579q10 0 7 -8l-31 -184q0 -8 -10 -8h-580q-8 0 -8 -9l-74 -413q0 -8 6 -8h674q8 0 8 -9l-32 -180q0 -8 -9 -8h-927q-9 0 -9 8zM647 1565l174 250q6 6 10 6h250q6 0 0 -6 l-252 -250q-9 -6 -12 -6h-168q-8 0 -2 6z" />
<glyph unicode="&#xca;" horiz-adv-x="1161" d="M16 8l244 1376q0 9 8 9h916q8 0 8 -9l-33 -180q0 -8 -8 -8h-662q-10 0 -10 -8l-63 -352q-3 -9 6 -9h579q10 0 7 -8l-31 -184q0 -8 -10 -8h-580q-8 0 -8 -9l-74 -413q0 -8 6 -8h674q8 0 8 -9l-32 -180q0 -8 -9 -8h-927q-9 0 -9 8zM459 1559q-6 0 0 6l256 252q6 4 10 4h156 q4 0 6 -4l170 -252q2 -1 1 -3.5t-5 -2.5h-201q-8 0 -8 6l-62 116q-4 4 -8 0l-102 -116q-6 -6 -13 -6h-200z" />
<glyph unicode="&#xcb;" horiz-adv-x="1161" d="M16 8l244 1376q0 9 8 9h916q8 0 8 -9l-33 -180q0 -8 -8 -8h-662q-10 0 -10 -8l-63 -352q-3 -9 6 -9h579q10 0 7 -8l-31 -184q0 -8 -10 -8h-580q-8 0 -8 -9l-74 -413q0 -8 6 -8h674q8 0 8 -9l-32 -180q0 -8 -9 -8h-927q-9 0 -9 8zM410 1575l39 229q2 6 8 6h227q7 0 4 -6 l-39 -229q-3 -6 -8 -6h-227q-6 0 -4 6zM811 1575l39 229q2 6 8 6h227q8 0 5 -6l-39 -229q-3 -6 -9 -6h-227q-6 0 -4 6z" />
<glyph unicode="&#xcc;" horiz-adv-x="530" d="M16 8q0 -8 9 -8h239q8 0 8 8l244 1376q0 9 -8 9h-240q-8 0 -8 -9zM132 1817.5q0 1.5 2 2.5t5 1h248q6 0 6 -6l88 -250q0 -6 -6 -6h-168q-8 0 -8 6l-166 250q-1 1 -1 2.5z" />
<glyph unicode="&#xcd;" horiz-adv-x="532" d="M16 8q0 -8 9 -8h239q8 0 8 8l244 1376q0 9 -8 9h-240q-8 0 -8 -9zM322 1565l174 250q6 6 10 6h250q6 0 0 -6l-252 -250q-9 -6 -12 -6h-168q-8 0 -2 6z" />
<glyph unicode="&#xce;" horiz-adv-x="532" d="M16 8l244 1376q0 9 8 9h240q8 0 8 -9l-244 -1376q0 -8 -8 -8h-239q-9 0 -9 8zM100 1559q-6 0 0 6l256 252q6 4 11 4h155q4 0 6 -4l170 -252q2 -1 1 -3.5t-5 -2.5h-200q-9 0 -9 6l-61 116q-4 4 -8 0l-103 -116q-6 -6 -12 -6h-201z" />
<glyph unicode="&#xcf;" horiz-adv-x="532" d="M16 8q0 -8 9 -8h239q8 0 8 8l244 1376q0 9 -8 9h-240q-8 0 -8 -9zM94 1573l39 229q2 6 8 6h228q7 0 4 -6l-39 -229q-3 -6 -8 -6h-228q-6 0 -4 6zM496 1573l39 229q2 6 8 6h227q7 0 4 -6l-39 -229q-3 -6 -8 -6h-227q-6 0 -4 6z" />
<glyph unicode="&#xd0;" horiz-adv-x="1351" d="M14 584l33 188q0 6 8 6h103q6 0 6 6l106 600q0 9 9 9h407q92 0 172 -13.5t153 -42.5t125.5 -75t89.5 -111.5t44.5 -152t-8.5 -195.5l-41 -228q-22 -122 -75.5 -220t-127.5 -163.5t-168.5 -109t-195.5 -63t-212 -19.5h-407q-8 0 -8 8l100 563q0 7 -6 7h-103q-4 0 -4 6z M317 217q0 -8 9 -8h209q81 0 149.5 21.5t127.5 67.5t100.5 125.5t60.5 188.5l28 162q37 207 -47.5 309.5t-253.5 102.5h-202q-11 0 -11 -8l-69 -394q0 -6 6 -6h203q4 0 4 -6l-33 -188q0 -6 -8 -6h-203q-6 0 -6 -7z" />
<glyph unicode="&#xd1;" horiz-adv-x="1337" d="M16 8l244 1376q0 9 8 9h240q6 0 12 -9l375 -964q1 -4 4 0q9 88 31 196l135 768q0 9 8 9h238q8 0 8 -9l-244 -1376q0 -8 -8 -8h-242q-7 0 -12 8l-373 965h-4q-8 -64 -28 -189l-138 -776q0 -8 -8 -8h-237q-9 0 -9 8zM467 1589q18 102 79 165t152 63q43 0 72.5 -8t73.5 -35 q4 -3 16 -10.5t17.5 -10.5t16.5 -8.5t18.5 -8.5t17 -5t18.5 -2q26 0 38.5 14.5t17.5 46.5q3 8 10 8h162q9 0 6 -8q-18 -100 -79 -163.5t-151 -63.5q-50 0 -81 8t-70 33q-6 4 -23.5 15t-26.5 16.5t-23.5 10.5t-27.5 5q-21 0 -34.5 -17.5t-19.5 -35t-11 -17.5h-162q-9 0 -6 8z " />
<glyph unicode="&#xd2;" horiz-adv-x="1411" d="M74 578l43 241q50 278 248.5 446.5t484.5 168.5q133 0 242 -44t180.5 -122.5t100.5 -194.5t5 -254l-43 -241q-52 -288 -242 -453.5t-487 -165.5q-299 0 -439.5 170t-92.5 449zM334 573q-33 -195 48.5 -306t242.5 -111q83 0 157 25.5t136 76t105.5 132.5t61.5 188l37 219 q18 112 2.5 195t-60 137.5t-108.5 81t-145 26.5q-151 0 -278 -115t-162 -325zM637 1815q-6 6 6 6h248q6 0 6 -6l88 -250q0 -6 -6 -6h-168q-8 0 -8 6z" />
<glyph unicode="&#xd3;" horiz-adv-x="1411" d="M74 578l43 241q50 278 248.5 446.5t484.5 168.5q133 0 242 -44t180.5 -122.5t100.5 -194.5t5 -254l-43 -241q-52 -288 -242 -453.5t-487 -165.5q-299 0 -439.5 170t-92.5 449zM334 573q-33 -195 48.5 -306t242.5 -111q83 0 157 25.5t136 76t105.5 132.5t61.5 188l37 219 q18 112 2.5 195t-60 137.5t-108.5 81t-145 26.5q-151 0 -278 -115t-162 -325zM797 1567l174 250q6 6 10 6h250q6 0 0 -6l-252 -250q-9 -6 -12 -6h-168q-8 0 -2 6z" />
<glyph unicode="&#xd4;" horiz-adv-x="1411" d="M74 578l43 241q50 278 248.5 446.5t484.5 168.5q133 0 242 -44t180.5 -122.5t100.5 -194.5t5 -254l-43 -241q-52 -288 -242 -453.5t-487 -165.5q-299 0 -439.5 170t-92.5 449zM334 573q-33 -195 48.5 -306t242.5 -111q83 0 157 25.5t136 76t105.5 132.5t61.5 188l37 219 q18 112 2.5 195t-60 137.5t-108.5 81t-145 26.5q-151 0 -278 -115t-162 -325zM592 1556q-7 0 0 7l256 252q6 4 10 4h156q4 0 6 -4l170 -252q2 -1 1 -4t-5 -3h-201q-8 0 -8 7l-62 116q-4 4 -8 0l-102 -116q-7 -7 -12 -7h-201z" />
<glyph unicode="&#xd5;" horiz-adv-x="1466" d="M80 578l43 241q50 278 248.5 446.5t484.5 168.5q133 0 242 -44t180.5 -122.5t100.5 -194.5t5 -254l-43 -241q-52 -288 -242 -453.5t-487 -165.5q-299 0 -439.5 170t-92.5 449zM340 573q-33 -195 48.5 -306t242.5 -111q112 0 205 43.5t162.5 140.5t93.5 238l36 219 q18 112 2.5 195t-60 137.5t-108.5 81t-145 26.5q-151 0 -278 -115t-162 -325zM537 1589q18 102 79 165t152 63q43 0 72 -8t73 -35q4 -2 14 -8.5t15 -9.5t14 -8t15.5 -7.5t15 -5.5t16 -4.5t15.5 -1.5q25 0 37.5 14.5t17.5 46.5q3 8 10 8h162q9 0 6 -8q-18 -100 -79 -163.5 t-150 -63.5q-50 0 -81.5 8.5t-70.5 32.5q-7 4 -23.5 15t-25.5 16.5t-23.5 10.5t-27.5 5q-21 0 -34.5 -17.5t-19.5 -35t-11 -17.5h-162q-9 0 -6 8z" />
<glyph unicode="&#xd6;" horiz-adv-x="1411" d="M74 578l43 241q50 278 248.5 446.5t484.5 168.5q133 0 242 -44t180.5 -122.5t100.5 -194.5t5 -254l-43 -241q-52 -288 -242 -453.5t-487 -165.5q-299 0 -439.5 170t-92.5 449zM334 573q-33 -195 48.5 -306t242.5 -111q83 0 157 25.5t136 76t105.5 132.5t61.5 188l37 219 q18 112 2.5 195t-60 137.5t-108.5 81t-145 26.5q-151 0 -278 -115t-162 -325zM541 1573l39 229q2 6 8 6h227q7 0 4 -6l-39 -229q-3 -6 -8 -6h-227q-6 0 -4 6zM942 1573l39 229q2 6 8 6h228q7 0 4 -6l-39 -229q-3 -6 -8 -6h-228q-6 0 -4 6z" />
<glyph unicode="&#xd7;" horiz-adv-x="1093" d="M41 397q-4 7 2 13l342 288q8 5 2 11l-237 284q-7 7 2 13l167 143q7 7 13 0l237 -285q3 -6 13 0l336 285q6 6 12 0l119 -143q4 -7 -2 -13l-338 -282q-6 -6 -2 -15l237 -286q7 -7 -2 -13l-168 -143q-6 -6 -12 0l-240 291q-4 4 -8 0l-342 -291q-6 -6 -12 0z" />
<glyph unicode="&#xd8;" horiz-adv-x="1355" d="M0 -143l162 233q-93 87 -127.5 216.5t-9.5 283.5l41 229q50 279 249.5 447t487.5 168q139 0 264 -56l131 187q3 6 10 6h140q6 0 2 -6l-179 -254q99 -81 141 -208.5t15 -283.5l-41 -229q-21 -123 -88 -237.5t-164 -201.5t-225.5 -139.5t-263.5 -52.5q-161 0 -283 61 l-115 -163q-3 -7 -10 -7h-137q-4 0 0 7zM289 621q-34 -184 35 -302l602 859q-74 41 -162 41q-76 0 -147 -27t-132 -79t-105 -136.5t-63 -192.5zM408 225q73 -49 174 -49q72 0 144 29.5t136 83.5t112 140.5t66 191.5l29 163q32 191 -51 310z" />
<glyph unicode="&#xd9;" horiz-adv-x="1343" d="M105 258.5q-21 103.5 1 247.5l154 878q0 9 8 9h238q8 0 8 -9l-158 -901q-12 -57 -7.5 -102t15 -78t32.5 -57t44.5 -39.5t51.5 -24.5t53 -12.5t49 -3.5q45 0 86 7t88 28t83.5 54.5t67 92t44.5 135.5l157 901q0 9 8 9h238q8 0 8 -9l-153 -878q-26 -141 -87 -247.5 t-148.5 -171t-193 -96.5t-227.5 -32t-215.5 31.5t-158.5 98t-86 170zM563 1817q-6 6 6 6h248q6 0 6 -6l88 -250q0 -6 -6 -6h-168q-8 0 -8 6z" />
<glyph unicode="&#xda;" horiz-adv-x="1343" d="M105 258.5q-21 103.5 1 247.5l154 878q0 9 8 9h238q8 0 8 -9l-158 -901q-12 -57 -7.5 -102t15 -78t32.5 -57t44.5 -39.5t51.5 -24.5t53 -12.5t49 -3.5q45 0 86 7t88 28t83.5 54.5t67 92t44.5 135.5l157 901q0 9 8 9h238q8 0 8 -9l-153 -878q-26 -141 -87 -247.5 t-148.5 -171t-193 -96.5t-227.5 -32t-215.5 31.5t-158.5 98t-86 170zM727 1565l174 250q6 6 10 6h250q6 0 0 -6l-252 -250q-9 -6 -12 -6h-168q-8 0 -2 6z" />
<glyph unicode="&#xdb;" horiz-adv-x="1343" d="M105 258.5q-21 103.5 1 247.5l154 878q0 9 8 9h238q8 0 8 -9l-158 -901q-12 -57 -7.5 -102t15 -78t32.5 -57t44.5 -39.5t51.5 -24.5t53 -12.5t49 -3.5q45 0 86 7t88 28t83.5 54.5t67 92t44.5 135.5l157 901q0 9 8 9h238q8 0 8 -9l-153 -878q-26 -141 -87 -247.5 t-148.5 -171t-193 -96.5t-227.5 -32t-215.5 31.5t-158.5 98t-86 170zM557 1559q-6 0 0 6l256 252q6 4 10 4h156q4 0 6 -4l170 -252q2 -1 1 -3.5t-5 -2.5h-201q-8 0 -8 6l-61 116q-5 5 -9 0l-102 -116q-6 -6 -12 -6h-201z" />
<glyph unicode="&#xdc;" horiz-adv-x="1343" d="M105 258.5q-21 103.5 1 247.5l154 878q0 9 8 9h238q8 0 8 -9l-158 -901q-12 -57 -7.5 -102t15 -78t32.5 -57t44.5 -39.5t51.5 -24.5t53 -12.5t49 -3.5q45 0 86 7t88 28t83.5 54.5t67 92t44.5 135.5l157 901q0 9 8 9h238q8 0 8 -9l-153 -878q-26 -141 -87 -247.5 t-148.5 -171t-193 -96.5t-227.5 -32t-215.5 31.5t-158.5 98t-86 170zM535 1575l38 229q2 6 9 6h227q7 0 4 -6l-39 -229q-3 -6 -8 -6h-227q-6 0 -4 6zM936 1575l39 229q2 6 8 6h227q7 0 4 -6l-38 -229q-3 -6 -9 -6h-227q-6 0 -4 6z" />
<glyph unicode="&#xdd;" horiz-adv-x="1310" d="M133.5 1390q1.5 3 5.5 3h277q6 0 12 -9l238 -602q4 -8 8 0l450 602q6 9 13 9h276q3 0 5 -3t-1 -6l-657 -829q-5 -11 -6 -14l-95 -533q0 -8 -8 -8h-237q-8 0 -8 8l94 533q1 7 -2 14l-363 829q-3 3 -1.5 6zM686 1565l174 250q6 6 10 6h250q6 0 0 -6l-252 -250q-9 -6 -12 -6 h-168q-8 0 -2 6z" />
<glyph unicode="&#xde;" horiz-adv-x="1128" d="M10 6l244 1380q0 7 6 7h232q6 0 6 -7l-54 -305q-2 -2 -1.5 -3.5t3.5 1.5q111 127 279 127q196 0 280 -116t48 -316l-33 -190q-31 -175 -152.5 -287.5t-306.5 -112.5q-187 0 -250 133q-4 4 -4 -2l-55 -309q0 -6 -6 -6h-230q-6 0 -6 6zM356 594q-17 -96 44 -154.5 t143 -58.5q80 0 146 59t85 172l25 142q45 250 -146 250q-37 0 -76.5 -12t-78.5 -37t-69 -71t-40 -106z" />
<glyph unicode="&#xdf;" horiz-adv-x="1232" d="M16 8l168 944q17 103 56 181.5t106 138t169.5 90.5t238.5 31q97 0 175 -22t134 -65t79 -114.5t7 -163.5q-17 -96 -84 -173t-141 -95q-6 -4 -2 -6q24 -3 46 -9t48.5 -17t45.5 -27.5t39 -41.5t28 -57.5t12 -76.5t-8 -99q-20 -113 -73.5 -198t-127.5 -133t-155 -71.5 t-167 -23.5h-209q-8 0 -8 8l33 189q3 8 10 8h150q139 0 205.5 56t87.5 177q4 22 6 38t0 39t-10 39t-26.5 34t-47 29t-74 18.5t-104.5 7.5h-109q-9 0 -6 8l33 189q0 8 10 8h102q211 0 240 172q12 69 -31.5 119.5t-159.5 50.5q-126 0 -186 -64.5t-82 -189.5l-164 -928 q0 -8 -8 -8h-237q-9 0 -9 8z" />
<glyph unicode="&#xe0;" horiz-adv-x="1064" d="M27 260q23 130 115.5 205t228.5 100q72 14 212.5 32.5t143.5 18.5q4 0 4 7l6 32q29 168 -149 168q-88 0 -146 -41.5t-77 -113.5q0 -4 -5 -4h-223q-4 0 -4 4q16 51 43 99t70.5 94t97 80t126.5 54.5t155 20.5q206 0 295.5 -111t56.5 -305l-64 -364q-8 -40 -9 -75t4 -61 t10 -41.5t13 -33t9 -19.5q0 -6 -4 -6h-246q-4 0 -8 4q-42 42 -35 133q0 8 -4 0q-53 -86 -139 -132t-197 -46q-148 0 -225.5 82.5t-54.5 218.5zM270 268q-5 -53 22.5 -85.5t88.5 -32.5q120 0 206 67t105 168l10 59q0 7 -6 7l-85 -15q-85 -14 -191 -35q-66 -12 -106 -46.5 t-44 -86.5zM464 1429.5q0 1.5 2 3t5 1.5h248q6 0 6 -7l88 -249q0 -7 -6 -7h-168q-8 0 -8 7l-166 249q-1 1 -1 2.5z" />
<glyph unicode="&#xe1;" horiz-adv-x="1134" d="M27 260q23 130 115.5 205t228.5 100q72 14 212.5 32.5t143.5 18.5q4 0 4 7l6 32q29 168 -149 168q-88 0 -146 -41.5t-77 -113.5q0 -4 -5 -4h-223q-4 0 -4 4q16 51 43 99t70.5 94t97 80t126.5 54.5t155 20.5q206 0 295.5 -111t56.5 -305l-64 -364q-8 -40 -9 -75t4 -61 t10 -41.5t13 -33t9 -19.5q0 -6 -4 -6h-246q-4 0 -8 4q-42 42 -35 133q0 8 -4 0q-53 -86 -139 -132t-197 -46q-148 0 -225.5 82.5t-54.5 218.5zM270 268q-5 -53 22.5 -85.5t88.5 -32.5q120 0 206 67t105 168l10 59q0 7 -6 7l-85 -15q-85 -14 -191 -35q-66 -12 -106 -46.5 t-44 -86.5zM616.5 1173q-1.5 2 1.5 5l175 249q7 7 10 7h250q7 0 0 -7l-252 -249q-11 -7 -13 -7h-167q-3 0 -4.5 2z" />
<glyph unicode="&#xe2;" horiz-adv-x="1067" d="M27 260q23 130 115.5 205t228.5 100q72 14 212.5 32.5t143.5 18.5q4 0 4 7l6 32q29 168 -149 168q-88 0 -146 -41.5t-77 -113.5q0 -4 -5 -4h-223q-4 0 -4 4q16 51 43 99t70.5 94t97 80t126.5 54.5t155 20.5q206 0 295.5 -111t56.5 -305l-64 -364q-8 -40 -9 -75t4 -61 t10 -41.5t13 -33t9 -19.5q0 -6 -4 -6h-246q-4 0 -8 4q-42 42 -35 133q0 8 -4 0q-53 -86 -139 -132t-197 -46q-148 0 -225.5 82.5t-54.5 218.5zM270 268q-5 -53 22.5 -85.5t88.5 -32.5q120 0 206 67t105 168l10 59q0 7 -6 7l-85 -15q-85 -14 -191 -35q-66 -12 -106 -46.5 t-44 -86.5zM389 1174q-6 0 0 6l256 252q6 4 10 4h156q4 0 6 -4l170 -252q2 -2 1 -4t-5 -2h-201q-8 0 -8 6l-61 116q-4 4 -8 0l-103 -116q-6 -6 -12 -6h-201z" />
<glyph unicode="&#xe3;" horiz-adv-x="1126" d="M27 260q23 130 115.5 205t228.5 100q72 14 212.5 32.5t143.5 18.5q4 0 4 7l6 32q29 168 -149 168q-88 0 -146 -41.5t-77 -113.5q0 -4 -5 -4h-223q-4 0 -4 4q16 51 43 99t70.5 94t97 80t126.5 54.5t155 20.5q206 0 295.5 -111t56.5 -305l-64 -364q-8 -40 -9 -75t4 -61 t10 -41.5t13 -33t9 -19.5q0 -6 -4 -6h-246q-4 0 -8 4q-42 42 -35 133q0 8 -4 0q-53 -86 -139 -132t-197 -46q-148 0 -225.5 82.5t-54.5 218.5zM270 268q-5 -53 22.5 -85.5t88.5 -32.5q120 0 206 67t105 168l10 59q0 7 -6 7l-85 -15q-85 -14 -191 -35q-66 -12 -106 -46.5 t-44 -86.5zM332 1204q18 102 79 165t152 63q43 0 72.5 -8t73.5 -35q5 -3 19.5 -12t21.5 -13t19 -10t22.5 -8.5t21.5 -2.5q25 0 37.5 15t17.5 47q3 8 11 8h161q10 0 7 -8q-18 -100 -79 -163.5t-151 -63.5q-50 0 -81 8t-70 33q-6 4 -23.5 15t-26.5 16.5t-23.5 10.5t-27.5 5 q-21 0 -34.5 -17.5t-19.5 -35t-11 -17.5h-162q-9 0 -6 8z" />
<glyph unicode="&#xe4;" horiz-adv-x="1118" d="M27 260q23 130 115.5 205t228.5 100q72 14 212.5 32.5t143.5 18.5q4 0 4 7l6 32q29 168 -149 168q-88 0 -146 -41.5t-77 -113.5q0 -4 -5 -4h-223q-4 0 -4 4q16 51 43 99t70.5 94t97 80t126.5 54.5t155 20.5q206 0 295.5 -111t56.5 -305l-64 -364q-8 -40 -9 -75t4 -61 t10 -41.5t13 -33t9 -19.5q0 -6 -4 -6h-246q-4 0 -8 4q-42 42 -35 133q0 8 -4 0q-53 -86 -139 -132t-197 -46q-148 0 -225.5 82.5t-54.5 218.5zM270 268q-5 -53 22.5 -85.5t88.5 -32.5q120 0 206 67t105 168l10 59q0 7 -6 7l-85 -15q-85 -14 -191 -35q-66 -12 -106 -46.5 t-44 -86.5zM358 1190l39 229q2 6 9 6h227q7 0 4 -6l-39 -229q-3 -6 -8 -6h-228q-6 0 -4 6zM760 1190l39 229q2 6 8 6h227q7 0 4 -6l-39 -229q-3 -6 -8 -6h-227q-6 0 -4 6z" />
<glyph unicode="&#xe5;" horiz-adv-x="1064" d="M27 260q23 130 115.5 205t228.5 100q72 14 212.5 32.5t143.5 18.5q4 0 4 7l6 32q29 168 -149 168q-88 0 -146 -41.5t-77 -113.5q0 -4 -5 -4h-223q-4 0 -4 4q16 51 43 99t70.5 94t97 80t126.5 54.5t155 20.5q206 0 295.5 -111t56.5 -305l-64 -364q-8 -40 -9 -75t4 -61 t10 -41.5t13 -33t9 -19.5q0 -6 -4 -6h-246q-4 0 -8 4q-42 42 -35 133q0 8 -4 0q-53 -86 -139 -132t-197 -46q-148 0 -225.5 82.5t-54.5 218.5zM270 268q-5 -53 22.5 -85.5t88.5 -32.5q120 0 206 67t105 168l10 59q0 7 -6 7l-85 -15q-85 -14 -191 -35q-66 -12 -106 -46.5 t-44 -86.5zM504 1305q13 86 83.5 145t157.5 59q86 0 136 -59t37 -145q-15 -86 -86 -145.5t-158 -59.5q-86 0 -135.5 59.5t-34.5 145.5zM631 1305q-6 -34 12.5 -56t50.5 -22q33 0 59.5 22.5t32.5 55.5q4 34 -14.5 55.5t-50.5 21.5q-33 0 -59.5 -22t-30.5 -55z" />
<glyph unicode="&#xe6;" horiz-adv-x="1738" d="M20 260q46 255 351 311q66 12 200 24.5t146 14.5q2 0 8 6l4 29q30 178 -147 178q-88 0 -146.5 -41.5t-77.5 -113.5q0 -4 -4 -4h-223q-4 0 -4 4q20 65 59 124t98 111t145.5 82.5t188.5 30.5q114 0 186 -30t118 -97q3 -3 6 0q81 69 162 98t180 29q225 0 327 -130t62 -354 l-19 -108q0 -6 -6 -6h-688q-8 0 -8 -4l-4 -21q-16 -121 44.5 -180t172.5 -59q81 0 140 38.5t85 102.5q2 6 8 6h228q4 0 4 -4v-4q-163 -334 -510 -334q-290 0 -356 207q-4 7 -7 0q-51 -66 -111 -110t-123.5 -63.5t-114 -26.5t-111.5 -7q-131 0 -208.5 84t-54.5 217zM264 268 q-10 -54 17 -86t94 -32q106 0 199 66t110 159l10 55q0 6 -6 6q-18 -2 -50 -6t-94.5 -12.5t-129.5 -16.5q-63 -7 -102 -43t-48 -90zM971 596q-2 -4 4 -4h438q8 0 8 6l4 23q15 86 -39.5 145t-148.5 59q-95 0 -171 -59t-91 -145z" />
<glyph unicode="&#xe7;" horiz-adv-x="1073" d="M51 418l27 149q34 195 177 322t366 127q111 0 192 -31.5t123 -85t56.5 -119.5t0.5 -141q0 -8 -8 -8h-219q-6 0 -6 8q13 79 -28 129.5t-146 50.5q-100 0 -168.5 -67t-93.5 -205l-19 -113q-25 -138 23.5 -203t140.5 -65q103 0 157 44.5t74 127.5q3 8 11 8h221q10 0 6 -8 q-39 -164 -156 -270.5t-295 -106.5q-4 0 -6 -4l-32 -86q-1 -3 2 -2h2q25 10 61 10q85 0 132.5 -53t23.5 -148q-22 -85 -95 -134.5t-174 -49.5q-96 0 -144 38.5t-42 111.5q3 8 10 8h123q7 0 4 -6q0 -11 3.5 -22.5t21.5 -24.5t49 -13q37 0 65 25.5t37 66.5q10 52 -15.5 78.5 t-80.5 26.5q-46 0 -147 -23q-6 -3 -6 2l75 197q3 6 -4 6q-169 27 -248.5 156t-50.5 297z" />
<glyph unicode="&#xe8;" horiz-adv-x="1099" d="M53 444q-38 -212 72 -348.5t338 -136.5q194 0 328 94.5t182 241.5q2 6 -4 6h-228q-6 0 -8 -6q-26 -64 -85 -102.5t-140 -38.5q-114 0 -175 63t-38 191v4q0 6 8 6h688q6 0 6 6l19 108q40 224 -64 354t-336 130q-219 0 -362 -123t-186 -367zM328 598l4 23q17 91 91 147.5 t171 56.5q94 0 148.5 -59t39.5 -145l-4 -23q0 -6 -8 -6h-438q-4 0 -4 6zM427 1434.5q0 1.5 2 2.5t5 1h248q6 0 6 -6l88 -250q0 -6 -6 -6h-168q-8 0 -8 6l-166 250q-1 1 -1 2.5z" />
<glyph unicode="&#xe9;" horiz-adv-x="1099" d="M53 444q-38 -212 72 -348.5t338 -136.5q194 0 328 94.5t182 241.5q2 6 -4 6h-228q-6 0 -8 -6q-26 -64 -85 -102.5t-140 -38.5q-114 0 -175 63t-38 191v4q0 6 8 6h688q6 0 6 6l19 108q40 224 -64 354t-336 130q-219 0 -362 -123t-186 -367zM328 598l4 23q17 91 91 147.5 t171 56.5q94 0 148.5 -59t39.5 -145l-4 -23q0 -6 -8 -6h-438q-4 0 -4 6zM584 1180l174 250q6 6 10 6h250q6 0 0 -6l-252 -250q-9 -6 -12 -6h-168q-8 0 -2 6z" />
<glyph unicode="&#xea;" horiz-adv-x="1099" d="M53 444l15 82q43 244 186 367t362 123q232 0 336 -130t64 -354l-19 -108q0 -6 -6 -6h-688q-8 0 -8 -6v-4q-23 -128 38 -191t175 -63q81 0 140 38.5t85 102.5q2 6 8 6h228q6 0 4 -6q-48 -147 -182 -241.5t-328 -94.5q-228 0 -338 136.5t-72 348.5zM328 598q0 -6 4 -6h438 q8 0 8 6l4 23q15 86 -39.5 145t-148.5 59q-97 0 -171 -56.5t-91 -147.5zM375 1174q-6 0 0 6l256 252q6 4 10 4h156q4 0 6 -4l170 -252q2 -2 1 -4t-5 -2h-201q-8 0 -8 6l-62 116q-4 4 -8 0l-102 -116q-6 -6 -13 -6h-200z" />
<glyph unicode="&#xeb;" horiz-adv-x="1120" d="M53 444q-38 -212 72 -348.5t338 -136.5q194 0 328 94.5t182 241.5q2 6 -4 6h-228q-6 0 -8 -6q-26 -64 -85 -102.5t-140 -38.5q-114 0 -175 63t-38 191v4q0 6 8 6h688q6 0 6 6l19 108q40 224 -64 354t-336 130q-219 0 -362 -123t-186 -367zM328 598l4 23q17 91 91 147.5 t171 56.5q94 0 148.5 -59t39.5 -145l-4 -23q0 -6 -8 -6h-438q-4 0 -4 6zM367 1190l39 229q2 6 8 6h227q7 0 4 -6l-39 -229q-3 -6 -8 -6h-227q-6 0 -4 6zM768 1190l39 229q2 6 8 6h227q8 0 5 -6l-39 -229q-3 -6 -9 -6h-227q-6 0 -4 6z" />
<glyph unicode="&#xec;" horiz-adv-x="454" d="M18 6l170 963q0 6 7 6h233q6 0 6 -6l-170 -963q0 -6 -6 -6h-233q-7 0 -7 6zM54 1429.5q0 1.5 2 3t5 1.5h248q6 0 6 -7l88 -249q0 -7 -6 -7h-168q-8 0 -8 7l-166 249q-1 1 -1 2.5z" />
<glyph unicode="&#xed;" horiz-adv-x="456" d="M20 6l170 963q0 6 7 6h233q6 0 6 -6l-170 -963q0 -6 -6 -6h-233q-7 0 -7 6zM264 1180l174 250q6 6 11 6h249q6 0 0 -6l-252 -250q-9 -6 -12 -6h-168q-8 0 -2 6z" />
<glyph unicode="&#xee;" horiz-adv-x="454" d="M18 6l170 963q0 6 7 6h233q6 0 6 -6l-170 -963q0 -6 -6 -6h-233q-7 0 -7 6zM33 1174q-6 0 0 6l256 252q6 4 10 4h156q4 0 6 -4l170 -252q2 -2 1 -4t-5 -2h-201q-8 0 -8 6l-62 116q-4 4 -8 0l-102 -116q-6 -6 -13 -6h-200z" />
<glyph unicode="&#xef;" horiz-adv-x="454" d="M18 6l170 963q0 6 7 6h233q6 0 6 -6l-170 -963q0 -6 -6 -6h-233q-7 0 -7 6zM23 1190l38 229q2 6 9 6h227q7 0 4 -6l-39 -229q-3 -6 -8 -6h-227q-6 0 -4 6zM424 1190l39 229q2 6 8 6h227q7 0 4 -6l-38 -229q-3 -6 -9 -6h-227q-6 0 -4 6z" />
<glyph unicode="&#xf0;" horiz-adv-x="1069" d="M39 385q14 82 53.5 157.5t99.5 136.5t147 97.5t187 36.5q89 0 149.5 -21.5t106.5 -68.5q4 -4 4 2q-12 202 -133 332q-4 4 -8 2l-358 -203q-6 -3 -8 -1t0 7l32 182q0 5 4 9l205 116q5 5 0 7q-70 46 -168 67q-6 2 -6 6l31 178q3 7 8 7q84 -11 177 -48.5t165 -93.5 q2 -2 4 -2t3 1l1 1l283 160q6 4 7 2l-1 -4l-33 -186q0 -9 -6 -11l-131 -75q-2 -2 -2 -7q34 -45 59 -89.5t46.5 -106t31 -128.5t7 -156.5t-20.5 -190.5q-27 -154 -100 -274.5t-194 -193.5t-271 -73q-199 0 -302.5 113.5t-68.5 312.5zM258 385q-19 -106 32 -170.5t154 -64.5 q60 0 111.5 23t85.5 59.5t55 76.5t27 78q18 103 -42.5 165t-156.5 62q-95 0 -171.5 -64t-94.5 -165z" />
<glyph unicode="&#xf1;" horiz-adv-x="1136" d="M16 6l170 963q2 6 9 6h159q3 0 6 -6l52 -133q2 -6 8 0q55 69 146 124.5t188 55.5q178 0 253 -106t40 -306l-76 -424q-9 -39 -5.5 -93.5t21.5 -80.5q3 -6 -4 -6h-242q-4 0 -8 6q-34 53 -12 172l78 438q18 98 -16 150.5t-121 52.5q-90 0 -187 -90.5t-119 -210.5l-94 -512 q0 -6 -6 -6h-233q-7 0 -7 6zM330 1204q18 102 79 165t152 63q43 0 72.5 -8t73.5 -35q5 -3 19.5 -12t21.5 -13t19 -10t22.5 -8.5t21.5 -2.5q25 0 37.5 15t17.5 47q3 8 11 8h161q9 0 6 -8q-18 -100 -79 -163.5t-150 -63.5q-50 0 -81 8t-70 33q-6 4 -23.5 15t-26.5 16.5 t-23.5 10.5t-27.5 5q-21 0 -34.5 -17.5t-19.5 -35t-11 -17.5h-162q-9 0 -6 8z" />
<glyph unicode="&#xf2;" horiz-adv-x="1155" d="M51 440l21 111q37 214 201 339.5t382 125.5q98 0 182.5 -32t144 -90.5t86 -148t7.5 -196.5l-20 -111q-22 -124 -74 -217t-128.5 -149.5t-169.5 -84.5t-202 -28q-221 0 -343.5 133.5t-86.5 347.5zM301 434q-20 -133 36 -205.5t173 -72.5q115 0 190 68.5t101 199.5l20 104 q26 136 -34 214.5t-166 78.5q-111 0 -198 -76t-108 -215zM456 1434.5q0 1.5 2 2.5t5 1h248q6 0 6 -6l88 -250q0 -6 -6 -6h-168q-8 0 -8 6l-166 250q-1 1 -1 2.5z" />
<glyph unicode="&#xf3;" horiz-adv-x="1159" d="M51 440l21 111q37 214 201 339.5t382 125.5q98 0 182.5 -32t144 -90.5t86 -148t7.5 -196.5l-20 -111q-22 -124 -74 -217t-128.5 -149.5t-169.5 -84.5t-202 -28q-221 0 -343.5 133.5t-86.5 347.5zM301 434q-20 -133 36 -205.5t173 -72.5q115 0 190 68.5t101 199.5l20 104 q26 136 -34 214.5t-166 78.5q-111 0 -198 -76t-108 -215zM649 1178l174 249q7 7 11 7h249q7 0 0 -7l-252 -249q-11 -7 -12 -7h-168q-9 0 -2 7z" />
<glyph unicode="&#xf4;" horiz-adv-x="1155" d="M51 440l21 111q37 214 201 339.5t382 125.5q98 0 182.5 -32t144 -90.5t86 -148t7.5 -196.5l-20 -111q-22 -124 -74 -217t-128.5 -149.5t-169.5 -84.5t-202 -28q-221 0 -343.5 133.5t-86.5 347.5zM301 434q-20 -133 36 -205.5t173 -72.5q115 0 190 68.5t101 199.5l20 104 q26 136 -34 214.5t-166 78.5q-111 0 -198 -76t-108 -215zM410 1171q-7 0 0 7l256 252q6 4 10 4h155q5 0 7 -4l170 -252q2 -2 1 -4.5t-5 -2.5h-201q-8 0 -8 7l-62 116q-4 4 -8 0l-102 -116q-7 -7 -13 -7h-200z" />
<glyph unicode="&#xf5;" horiz-adv-x="1155" d="M51 440l21 111q37 214 201 339.5t382 125.5q98 0 182.5 -32t144 -90.5t86 -148t7.5 -196.5l-20 -111q-22 -124 -74 -217t-128.5 -149.5t-169.5 -84.5t-202 -28q-221 0 -343.5 133.5t-86.5 347.5zM301 434q-20 -133 36 -205.5t173 -72.5q115 0 190 68.5t101 199.5l20 104 q26 136 -34 214.5t-166 78.5q-111 0 -198 -76t-108 -215zM354 1202q18 101 79.5 164.5t152.5 63.5q43 0 71.5 -8.5t73.5 -35.5q4 -2 14 -8.5t15 -9.5t14 -8t15.5 -7.5t15 -5.5t16 -4.5t15.5 -1.5q25 0 37.5 15t17.5 47q3 8 10 8h162q9 0 6 -8q-18 -100 -79 -163.5 t-150 -63.5q-50 0 -81.5 8.5t-70.5 32.5q-7 4 -23.5 15t-25.5 16.5t-23.5 10.5t-27.5 5q-21 0 -34.5 -17.5t-20 -35t-11.5 -17.5h-162q-9 0 -6 8z" />
<glyph unicode="&#xf6;" horiz-adv-x="1155" d="M51 440l21 111q37 214 201 339.5t382 125.5q98 0 182.5 -32t144 -90.5t86 -148t7.5 -196.5l-20 -111q-22 -124 -74 -217t-128.5 -149.5t-169.5 -84.5t-202 -28q-221 0 -343.5 133.5t-86.5 347.5zM301 434q-20 -133 36 -205.5t173 -72.5q115 0 190 68.5t101 199.5l20 104 q26 136 -34 214.5t-166 78.5q-111 0 -198 -76t-108 -215zM383 1188l39 229q2 6 8 6h227q8 0 5 -6l-39 -229q-3 -6 -9 -6h-227q-6 0 -4 6zM784 1188l39 229q2 6 8 6h228q7 0 4 -6l-39 -229q-3 -6 -8 -6h-228q-6 0 -4 6z" />
<glyph unicode="&#xf7;" horiz-adv-x="1120" d="M125 602l35 201q3 8 10 8h817q9 0 6 -8l-35 -201q-3 -8 -10 -8h-817q-9 0 -6 8zM354 365q10 61 61.5 104t114.5 43q61 0 96.5 -42.5t24.5 -104.5q-10 -63 -60 -106.5t-112 -43.5q-63 0 -99.5 43.5t-25.5 106.5zM469 1042q11 62 61 105t113 43q62 0 97.5 -43.5 t25.5 -104.5q-10 -63 -61 -106t-113 -43q-63 0 -98.5 43t-24.5 106z" />
<glyph unicode="&#xf8;" horiz-adv-x="1187" d="M76 -143l137 192q-82 65 -118 166t-15 225l20 111q25 142 114.5 249.5t212 161.5t257.5 54q93 0 184 -33l113 160q3 6 8 6h139q8 0 5 -6l-156 -221q78 -61 113 -157t14 -216l-21 -111q-25 -141 -116.5 -252.5t-215 -169t-253.5 -57.5q-92 0 -179 33l-94 -135q-3 -7 -8 -7 h-137q-8 0 -4 7zM332 457q-21 -125 22 -203l387 549q-41 18 -92 18q-110 0 -195 -75.5t-110 -215.5zM446 172q33 -16 86 -16q104 0 192.5 82t113.5 219l12 71q20 110 -21 187z" />
<glyph unicode="&#xf9;" horiz-adv-x="1130" d="M76 342q-34 -193 42 -288t236 -95q112 0 196 46t157 130q5 5 6 0l67 -129q2 -6 8 -6h201q6 0 6 6q-16 38 -21.5 106t7.5 158l123 699q0 6 -6 6h-230q-6 0 -6 -6l-90 -506q-13 -71 -56 -141t-111 -118t-140 -48q-90 0 -120 61.5t-13 161.5l104 590q0 6 -6 6h-237 q-7 0 -7 -6zM409 1432.5q0 1.5 2 2.5t5 1h248q6 0 6 -6l88 -250q0 -6 -6 -6h-168q-9 0 -9 6l-165 250q-1 1 -1 2.5z" />
<glyph unicode="&#xfa;" horiz-adv-x="1130" d="M76 342q-34 -193 42 -288t236 -95q112 0 196 46t157 130q5 5 6 0l67 -129q2 -6 8 -6h201q6 0 6 6q-16 38 -21.5 106t7.5 158l123 699q0 6 -6 6h-230q-6 0 -6 -6l-90 -506q-13 -71 -56 -141t-111 -118t-140 -48q-90 0 -120 61.5t-13 161.5l104 590q0 6 -6 6h-237 q-7 0 -7 -6zM582 1180l174 250q6 6 10 6h250q6 0 0 -6l-252 -250q-9 -6 -12 -6h-168q-8 0 -2 6z" />
<glyph unicode="&#xfb;" horiz-adv-x="1130" d="M76 342l110 627q0 6 7 6h237q6 0 6 -6l-104 -590q-17 -100 13 -161.5t120 -61.5q72 0 140 48t111 118t56 141l90 506q0 6 6 6h230q6 0 6 -6l-123 -699q-13 -90 -7.5 -158t21.5 -106q0 -6 -6 -6h-201q-6 0 -8 6l-67 129q-1 5 -6 0q-73 -84 -157 -130t-196 -46 q-160 0 -236 95t-42 288zM377 1171q-7 0 0 7l256 252q6 4 10 4h156q4 0 6 -4l170 -252q2 -2 1 -4.5t-5 -2.5h-201q-8 0 -8 7l-62 116q-4 4 -8 0l-102 -116q-7 -7 -12 -7h-201z" />
<glyph unicode="&#xfc;" horiz-adv-x="1130" d="M76 342q-34 -193 42 -288t236 -95q112 0 196 46t157 130q5 5 6 0l67 -129q2 -6 8 -6h201q6 0 6 6q-16 38 -21.5 106t7.5 158l123 699q0 6 -6 6h-230q-6 0 -6 -6l-90 -506q-13 -71 -56 -141t-111 -118t-140 -48q-90 0 -120 61.5t-13 161.5l104 590q0 6 -6 6h-237 q-7 0 -7 -6zM346 1192l39 229q2 6 8 6h228q7 0 4 -6l-39 -229q-3 -6 -8 -6h-228q-6 0 -4 6zM748 1192l38 229q2 6 9 6h227q7 0 4 -6l-39 -229q-3 -6 -8 -6h-227q-6 0 -4 6z" />
<glyph unicode="&#xfd;" horiz-adv-x="960" d="M-39 -334l27 162q4 8 10 2q39 -51 94 -51q41 0 68 15t49 54l100 189q4 8 2 14l-213 916q0 8 8 8h244q5 0 8 -8l123 -619q2 -6 6 0l316 619q5 8 12 8h248q9 0 4 -8l-680 -1194q-107 -185 -270 -185q-44 0 -88 21t-66 47q-5 5 -2 10zM547 1178l174 249q7 7 10 7h250 q7 0 0 -7l-252 -249q-11 -7 -12 -7h-168q-9 0 -2 7z" />
<glyph unicode="&#xfe;" horiz-adv-x="1128" d="M-23 -391l312 1777q0 7 6 7h231q6 0 6 -7l-90 -512q-2 -4 1 -4q2 0 6 2q106 125 268 125q197 0 284.5 -116.5t51.5 -315.5l-33 -190q-32 -174 -156.5 -287t-310.5 -113q-183 0 -242 134q-4 4 -4 -3l-88 -497h-242zM356 385q-17 -96 44 -154.5t143 -58.5q80 0 145 59 t86 172l25 142q45 250 -146 250q-29 0 -60 -7t-64.5 -24.5t-61 -42.5t-49.5 -64.5t-31 -87.5z" />
<glyph unicode="&#xff;" horiz-adv-x="960" d="M-39 -334l27 162q4 8 10 2q39 -51 94 -51q41 0 68 15t49 54l100 189q4 8 2 14l-213 916q0 8 8 8h244q5 0 8 -8l123 -619q2 -6 6 0l316 619q5 8 12 8h248q9 0 4 -8l-680 -1194q-107 -185 -270 -185q-44 0 -88 21t-66 47q-5 5 -2 10zM311 1190l39 229q2 6 8 6h228q7 0 4 -6 l-39 -229q-3 -6 -8 -6h-228q-6 0 -4 6zM713 1190l39 229q2 6 8 6h227q7 0 4 -6l-39 -229q-3 -6 -8 -6h-227q-6 0 -4 6z" />
<glyph unicode="&#x131;" horiz-adv-x="540" d="M61 6l170 963q0 6 7 6h233q6 0 6 -6l-170 -963q0 -6 -6 -6h-233q-7 0 -7 6z" />
<glyph unicode="&#x152;" horiz-adv-x="2029" d="M73.5 323q-15.5 112 10.5 246l43 250q51 283 222.5 449t434.5 166q128 0 216.5 -46.5t115.5 -109.5q-2 -2 0.5 -2.5t3.5 2.5l19 106q0 9 8 9h895q8 0 8 -9l-35 -190q0 -8 -8 -8h-641q-10 0 -10 -8l-60 -338q-3 -9 7 -9h552q10 0 7 -8l-33 -190q0 -8 -10 -8h-553 q-9 0 -9 -9l-71 -401q0 -8 6 -8h653q8 0 8 -8l-34 -191q0 -8 -9 -8h-907q-8 0 -8 8l23 123q0 2 -2 2l-3 -2q-21 -30 -50.5 -57t-74.5 -54.5t-110 -44t-141 -16.5q-145 0 -246 45t-151.5 126t-66 193zM346 594q-37 -209 26.5 -318.5t219.5 -109.5t261.5 102t141.5 303l39 220 q39 224 -21 330t-237 106q-162 0 -259.5 -108.5t-135.5 -327.5z" />
<glyph unicode="&#x153;" horiz-adv-x="1880" d="M82 440l20 111q25 142 114.5 249.5t212 161.5t257.5 54q120 0 211 -48.5t121 -140.5q0 -6 6 0q142 189 387 189q225 0 327 -130t62 -354l-18 -108q0 -6 -6 -6h-689q-4 0 -7 -8.5t-3 -14.5q-18 -111 46 -176t169 -65q80 0 138.5 39t87.5 102q2 6 8 6h227q7 0 4 -8 q-173 -334 -510 -334q-136 0 -228 53t-122 158q0 8 -8 0q-85 -110 -177.5 -160.5t-211.5 -50.5q-101 0 -186 35t-142.5 96.5t-82.5 152.5t-7 197zM334 457q-25 -138 34.5 -219.5t166.5 -81.5q104 0 192 82t113 219l14 86q19 129 -41 203.5t-162 74.5q-110 0 -195 -75.5 t-110 -215.5zM1112 598q0 -6 4 -6h438q9 0 9 6l4 23q15 86 -40 145t-149 59q-95 0 -171 -59t-91 -145z" />
<glyph unicode="&#x160;" horiz-adv-x="1273" d="M43 455q0 4 8 8h248q8 0 8 -8q-23 -125 51 -207t232 -82q120 0 194.5 56.5t89.5 150.5q14 81 -20 132.5t-137 82.5l-258 76q-322 95 -266 409q29 165 172.5 263t351.5 98q86 0 159 -15.5t123.5 -42t91 -62t62 -76.5t36.5 -85t14 -87t-5 -83q0 -8 -8 -8h-234q-8 0 -8 8 q21 112 -44.5 178t-215.5 66q-99 0 -161.5 -40t-75.5 -118q-25 -138 149 -190l229 -70q182 -56 258 -160t46 -280q-16 -87 -60 -161t-115.5 -131.5t-177 -89t-233.5 -28.5q-150 4 -258.5 46t-165.5 112t-77 155.5t-3 182.5zM491 1818.5q1 2.5 5 2.5h200q9 0 9 -6l61 -117 q4 -4 8 0l103 117q6 6 12 6h201q6 0 0 -6l-256 -252q-6 -4 -11 -4h-155q-4 0 -6 4l-170 252q-2 1 -1 3.5z" />
<glyph unicode="&#x161;" horiz-adv-x="966" d="M16 245q0 35 4 68q0 7 5 9h225q6 0 6 -5q-11 -63 34.5 -112t158.5 -49q85 0 128 27t50 71q6 41 -18.5 66t-98.5 51l-219 80q-212 78 -178 284q20 122 134.5 201.5t297.5 79.5q214 0 309.5 -95.5t69.5 -240.5q0 -6 -6 -6h-213q-7 0 -7 6q8 62 -33 100.5t-135 38.5 q-147 0 -165 -86q-6 -38 13 -60t62 -38l219 -88q55 -22 92.5 -44t72 -56t47 -82t1.5 -109q-55 -297 -442 -297q-72 0 -133 11.5t-104.5 31.5t-78 47.5t-53.5 59.5t-32 66.5t-13 69.5zM310 1431q1 3 5 3h201q8 0 8 -7l62 -116q4 -4 8 0l102 116q7 7 13 7h200q7 0 0 -7 l-256 -251q-8 -5 -10 -5h-156q-3 0 -6 5l-170 251q-2 1 -1 4z" />
<glyph unicode="&#x178;" horiz-adv-x="1310" d="M133.5 1390q1.5 3 5.5 3h277q6 0 12 -9l238 -602q4 -8 8 0l450 602q6 9 13 9h276q3 0 5 -3t-1 -6l-657 -829q-5 -11 -6 -14l-95 -533q0 -8 -8 -8h-237q-8 0 -8 8l94 533q1 7 -2 14l-363 829q-3 3 -1.5 6zM483 1575l39 229q2 6 8 6h228q7 0 4 -6l-39 -229q-3 -6 -8 -6 h-228q-6 0 -4 6zM885 1575l39 229q2 6 8 6h227q7 0 4 -6l-39 -229q-3 -6 -8 -6h-227q-6 0 -4 6z" />
<glyph unicode="&#x17d;" horiz-adv-x="1124" d="M-68 8l39 213q0 10 13 23l862 936q6 6 0 6h-676q-8 0 -8 8l35 190q0 9 8 9h960q9 0 9 -9l-37 -208q-3 -11 -13 -21l-872 -942q-8 -6 -2 -6h725q8 0 8 -8l-35 -191q0 -8 -8 -8h-999q-9 0 -9 8zM417 1816.5q1 2.5 5 2.5h201q8 0 8 -7l61 -116q4 -4 8 0l103 116q7 7 12 7 h201q7 0 0 -7l-256 -251q-8 -5 -10 -5h-156q-4 0 -6 5l-170 251q-2 2 -1 4.5z" />
<glyph unicode="&#x17e;" horiz-adv-x="870" d="M-43 6l31 178q6 12 10 15l571 571q8 8 2 8h-450q-6 0 -6 6l32 185q0 6 7 6h716q7 0 7 -6l-33 -187q0 -6 -8 -14l-560 -565l-2 -6h496q6 0 6 -7l-33 -184q0 -6 -6 -6h-774q-6 0 -6 6zM251 1431q1 3 5 3h201q8 0 8 -7l61 -116q4 -5 9 0l102 116q7 7 12 7h201q7 0 0 -7 l-256 -251q-8 -5 -10 -5h-156q-4 0 -6 5l-170 251q-2 1 -1 4z" />
<glyph unicode="&#x192;" horiz-adv-x="991" d="M-134 -353q1 4 1 5l76 160q3 6 8 6q12 0 42 -10.5t50 -10.5q47 0 70.5 31t56.5 121l297 823l-201 -4q-5 0 -7 1.5t-1 4.5v4l66 185q6 12 14 12l190 -4l84 239q37 105 117 166.5t180 61.5q48 0 99.5 -15.5t82 -35.5t27.5 -35v-6l-59 -144q-6 -6 -10 -6q-3 2 -5 2 q-52 55 -124 55q-40 0 -63.5 -24.5t-47.5 -95.5l-57 -162l211 4q6 0 6 -12l-62 -187q0 -8 -12 -8l-205 4q-48 -139 -163.5 -451.5t-166.5 -461.5q-42 -122 -127 -193.5t-196 -71.5q-37 0 -72.5 8.5t-50 15t-43.5 20.5q-4 2 -5 3.5t0 5.5z" />
<glyph unicode="&#x2c6;" horiz-adv-x="1032" d="M195 1130q-7 0 0 7l256 252q6 4 10 4h155q5 0 7 -4l170 -252q2 -1 0.5 -4t-5.5 -3h-200q-8 0 -8 7l-62 116q-4 4 -8 0l-102 -116q-7 -7 -13 -7h-200z" />
<glyph unicode="&#x2c7;" horiz-adv-x="1032" d="M237 1390.5q1 2.5 5 2.5h200q9 0 9 -7l61 -116q4 -4 8 0l103 116q7 7 12 7h201q7 0 0 -7l-256 -251q-8 -5 -11 -5h-155q-4 0 -6 5l-170 251q-2 2 -1 4.5z" />
<glyph unicode="&#x2d8;" d="M221 1386q0 7 6 7h179q6 0 6 -7q-12 -61 19 -99t85 -38t97 37t55 100q0 7 6 7h178q6 0 6 -7q-25 -140 -132.5 -224.5t-240.5 -84.5t-211 84.5t-53 224.5z" />
<glyph unicode="&#x2d9;" d="M369 1139l39 229q2 6 8 6h227q7 0 4 -6l-39 -229q-3 -6 -8 -6h-227q-6 0 -4 6z" />
<glyph unicode="&#x2da;" d="M307 1243q13 86 84 145.5t158 59.5q86 0 136 -59.5t36 -145.5q-15 -86 -86 -145.5t-158 -59.5q-86 0 -135.5 59.5t-34.5 145.5zM434 1243q-6 -33 12.5 -55.5t51.5 -22.5t59.5 22.5t32.5 55.5q4 34 -15 56t-51 22q-33 0 -59.5 -22.5t-30.5 -55.5z" />
<glyph unicode="&#x2db;" d="M238 -233q26 149 268 280h272l-65 -37q-65 -36 -95 -55t-81.5 -54.5t-77.5 -65.5t-31 -56q-9 -53 49 -53q18 0 42 10t32 10l4 -4l39 -148v-4q0 -2 -4 -4q-42 -22 -76 -30.5t-84 -8.5q-99 0 -155 56t-37 164z" />
<glyph unicode="&#x2dc;" d="M158 1147q18 101 79 164t152 63q43 0 72.5 -8t73.5 -35q4 -3 16 -10.5t17.5 -10.5t16.5 -8.5t18.5 -8.5t17 -5t18.5 -2q25 0 37.5 15t17.5 47q3 8 11 8h161q9 0 6 -8q-18 -100 -79 -164t-150 -64q-50 0 -81 8t-70 33q-6 4 -23.5 15t-26.5 16.5t-23.5 10.5t-27.5 5 q-21 0 -34.5 -17t-19.5 -34.5t-11 -17.5h-162q-9 0 -6 8z" />
<glyph unicode="&#x2dd;" horiz-adv-x="980" d="M113 1133l4 4l174 249q5 7 10 7h248q6 0 2 -4v-3l-252 -249q-7 -7 -12 -7h-168q-6 0 -6 3zM438 1133l4 4l174 249q5 7 11 7h247q2 0 3 -1.5t0 -2.5v-3l-252 -249q-7 -7 -13 -7h-168q-6 0 -6 3z" />
<glyph unicode="&#x3c0;" horiz-adv-x="1169" d="M70 8l131 744q0 6 -2 6h-119q-8 0 -8 8l37 201q0 8 8 8h1104q8 0 8 -8l-37 -201q0 -8 -8 -8h-119q-6 0 -6 -6l-131 -744q0 -8 -8 -8h-240q-6 0 -6 8l131 744q0 6 -2 6h-342q-6 0 -6 -6l-131 -744q0 -8 -9 -8h-239q-6 0 -6 8z" />
<glyph unicode="&#x2000;" horiz-adv-x="946" />
<glyph unicode="&#x2001;" horiz-adv-x="1892" />
<glyph unicode="&#x2002;" horiz-adv-x="946" />
<glyph unicode="&#x2003;" horiz-adv-x="1892" />
<glyph unicode="&#x2004;" horiz-adv-x="630" />
<glyph unicode="&#x2005;" horiz-adv-x="473" />
<glyph unicode="&#x2006;" horiz-adv-x="315" />
<glyph unicode="&#x2007;" horiz-adv-x="315" />
<glyph unicode="&#x2008;" horiz-adv-x="236" />
<glyph unicode="&#x2009;" horiz-adv-x="378" />
<glyph unicode="&#x200a;" horiz-adv-x="105" />
<glyph unicode="&#x2010;" horiz-adv-x="978" d="M156 389l34 201q3 8 11 8h614q9 0 6 -8l-35 -201q-3 -8 -10 -8h-614q-9 0 -6 8z" />
<glyph unicode="&#x2011;" horiz-adv-x="978" d="M156 389l34 201q3 8 11 8h614q9 0 6 -8l-35 -201q-3 -8 -10 -8h-614q-9 0 -6 8z" />
<glyph unicode="&#x2012;" horiz-adv-x="978" d="M156 389l34 201q3 8 11 8h614q9 0 6 -8l-35 -201q-3 -8 -10 -8h-614q-9 0 -6 8z" />
<glyph unicode="&#x2013;" horiz-adv-x="1392" d="M156 514l34 199q3 8 11 8h1028q9 0 6 -8l-35 -199q-3 -8 -10 -8h-1028q-9 0 -6 8z" />
<glyph unicode="&#x2014;" horiz-adv-x="1796" d="M156 512l34 201q3 8 11 8h1431q9 0 6 -8l-34 -201q-3 -8 -11 -8h-1431q-9 0 -6 8z" />
<glyph unicode="&#x2018;" horiz-adv-x="428" d="M31 803l59 336q25 146 98 219t236 76q8 0 6 -7l-20 -122q-2 -9 -11 -9q-68 0 -104 -25t-47 -95l-19 -101q0 -4 7 -4h129q5 0 6 -1t0 -7l-45 -260q-2 -8 -11 -8h-278q-10 0 -6 8z" />
<glyph unicode="&#x2019;" horiz-adv-x="421" d="M35 760l20 123q2 8 11 8q68 0 104 25.5t47 95.5l19 100q0 4 -7 4h-129q-5 0 -6 1t0 7l45 260q2 9 11 9h278q10 0 6 -9l-59 -335q-25 -146 -98 -219t-236 -76q-8 0 -6 6z" />
<glyph unicode="&#x201a;" horiz-adv-x="854" d="M35 -356l20 123q2 8 11 8q68 0 104 25.5t47 95.5l19 100q0 4 -7 4h-129q-5 0 -6 1t0 7l45 260q2 8 11 8h278q10 0 6 -8l-59 -336q-25 -146 -98 -218.5t-236 -75.5q-8 0 -6 6zM416 -356l20 123q2 8 10 8q68 0 104.5 25.5t47.5 95.5l18 100q0 4 -6 4h-129q-5 0 -6 1t0 7 l45 260q2 8 10 8h279q10 0 6 -8l-59 -336q-25 -146 -98 -218.5t-236 -75.5q-8 0 -6 6z" />
<glyph unicode="&#x201c;" horiz-adv-x="765" d="M-4 803l57 336q25 146 98 219t236 76q8 0 6 -7l-20 -122q-2 -9 -11 -9q-68 0 -104 -25t-47 -95l-18 -101q0 -4 6 -4h129q5 0 6 -1t0 -7l-45 -260q-2 -8 -10 -8h-279q-8 0 -4 8zM377 803l59 336q25 146 98 219t236 76q8 0 6 -7l-20 -122q-2 -9 -11 -9q-68 0 -104 -25 t-47 -95l-19 -101q0 -4 7 -4h129q5 0 6 -1t0 -7l-45 -260q-2 -8 -10 -8h-279q-10 0 -6 8z" />
<glyph unicode="&#x201d;" horiz-adv-x="796" d="M6 760l21 123q2 8 10 8q68 0 104 25.5t47 95.5l19 100q0 4 -6 4h-129q-5 0 -6 1t0 7l45 260q2 9 10 9h278q11 0 7 -9l-60 -335q-25 -146 -98 -219t-236 -76q-8 0 -6 6zM389 760l21 123q2 8 10 8q68 0 104 25.5t47 95.5l19 100q0 4 -6 4h-129q-5 0 -6 1t0 7l45 260 q2 9 10 9h278q10 0 6 -9l-59 -335q-25 -146 -98 -219t-236 -76q-8 0 -6 6z" />
<glyph unicode="&#x201e;" horiz-adv-x="473" d="M35 -356l20 123q2 8 11 8q68 0 104 25.5t47 95.5l19 100q0 4 -7 4h-129q-5 0 -6 1t0 7l45 260q2 8 11 8h278q10 0 6 -8l-59 -336q-25 -146 -98 -218.5t-236 -75.5q-8 0 -6 6z" />
<glyph unicode="&#x2020;" horiz-adv-x="1050" d="M10 862l37 201q0 8 8 8h371q6 0 8 6l53 309q3 9 11 9h202q10 0 7 -9l-54 -309l4 -6h375q8 0 8 -8l-36 -201q0 -8 -9 -8h-374q-9 0 -9 -6l-219 -1249q-3 -9 -10 -9h-203q-9 0 -6 9l219 1249q2 6 -4 6h-371q-8 0 -8 8z" />
<glyph unicode="&#x2021;" horiz-adv-x="946" d="M-236 -80l37 201q0 8 9 8h368q6 0 8 6l125 711q2 6 -4 6h-370q-9 0 -9 8l37 201q0 8 8 8h371q6 0 8 6l54 309q3 9 10 9h202q10 0 7 -9l-54 -309l4 -6h375q8 0 8 -8l-36 -201q0 -8 -9 -8h-374q-9 0 -9 -6l-124 -711l4 -6h374q9 0 9 -8l-37 -201q0 -8 -8 -8h-375 q-5 0 -8 -6l-54 -309q-3 -9 -10 -9h-203q-9 0 -6 9l53 311q4 4 -4 4h-368q-9 0 -9 8z" />
<glyph unicode="&#x2022;" horiz-adv-x="778" d="M80 682q23 129 128.5 219t233.5 90q129 0 202 -90t50 -219q-22 -128 -126.5 -217.5t-233.5 -89.5q-127 0 -201.5 89.5t-52.5 217.5z" />
<glyph unicode="&#x2026;" horiz-adv-x="1708" d="M115 8l47 260q0 6 1.5 7t6.5 1h279q8 0 8 -8l-47 -260q0 -8 -9 -8h-278q-5 0 -6.5 1t-1.5 7zM682 8l47 260q0 6 1.5 7t6.5 1h279q8 0 8 -8l-47 -260q0 -8 -8 -8h-279q-5 0 -6.5 1t-1.5 7zM1249 8l47 260q0 8 9 8h278q8 0 8 -8l-47 -260q0 -8 -8 -8h-279q-5 0 -6.5 1 t-1.5 7z" />
<glyph unicode="&#x202f;" horiz-adv-x="378" />
<glyph unicode="&#x2030;" horiz-adv-x="2183" d="M61 6q211 243 605.5 717t537.5 663q5 7 8 7h213q5 0 5 -7q-113 -139 -544.5 -656.5t-594.5 -723.5q-3 -6 -8 -6h-217q-11 0 -5 6zM154 1106q22 128 134 228t244 100q129 0 208.5 -98t56.5 -230q-24 -127 -136 -226.5t-243 -99.5q-128 0 -207.5 98t-56.5 228zM346 1106 q-12 -63 18.5 -100t86.5 -37q53 0 98 38t55 99q11 60 -18 99.5t-86 39.5q-55 0 -99.5 -39t-54.5 -100zM692 285q22 127 134.5 227t244.5 100q129 0 208 -97.5t56 -229.5q-22 -127 -135 -226.5t-244 -99.5q-128 0 -207.5 98t-56.5 228zM885 285q-10 -63 19.5 -100.5 t84.5 -37.5q53 0 98.5 38.5t55.5 99.5q11 60 -18.5 99.5t-86.5 39.5q-55 0 -99 -39t-54 -100zM1384 285q22 127 134.5 227t244.5 100q129 0 208.5 -97.5t56.5 -229.5q-22 -127 -135 -226.5t-244 -99.5q-128 0 -208 98t-57 228zM1577 285q-10 -63 19.5 -100.5t84.5 -37.5 q53 0 98.5 38.5t55.5 99.5q11 60 -18 99.5t-86 39.5q-55 0 -99.5 -39t-54.5 -100z" />
<glyph unicode="&#x2039;" horiz-adv-x="485" d="M31 487l39 213q0 8 8 13l424 315h2q6 0 6 -4l-45 -254q-2 -6 -8 -12l-219 -152q-5 -3 -2 -6l161 -166q6 -12 6 -14l-45 -254q-3 -6 -6 -6q-2 0 -4 2l-313 315q-4 4 -4 10z" />
<glyph unicode="&#x203a;" horiz-adv-x="485" d="M-23 166l43 254q0 7 11 14l219 166q2 2 2 6l-166 152q-6 6 -4 12l45 254q0 4 4 4h4l314 -315q4 -8 4 -13l-39 -213q0 -7 -8 -10l-422 -315l-4 -2q-6 0 -3 6z" />
<glyph unicode="&#x2044;" horiz-adv-x="856" d="M-199 -143l1039 1708q4 6 10 6h203q5 0 2 -6l-1043 -1708q-4 -7 -10 -7h-199q-5 0 -2 7z" />
<glyph unicode="&#x205f;" horiz-adv-x="473" />
<glyph unicode="&#x20ac;" horiz-adv-x="1447" d="M31 440l30 176q0 9 9 9h106l23 125h-107q-9 0 -6 8l31 176q0 8 10 8h113q66 230 237 361t426 131q263 0 398 -144.5t94 -382.5q-2 -8 -11 -8h-245q-9 0 -6 8q27 154 -40 239t-225 85q-278 0 -370 -289h284q6 0 6 -8l-30 -176q-3 -8 -10 -8h-293l-23 -125h293q8 0 8 -9 l-33 -176q0 -8 -8 -8h-272q14 -125 90.5 -195.5t210.5 -70.5q78 0 141 27t102 72t62.5 94t32.5 102q3 8 10 8h244q9 0 6 -8q-16 -92 -64.5 -179t-126.5 -160.5t-195 -118t-255 -44.5q-258 0 -391 126.5t-131 346.5h-117q-8 0 -8 8z" />
<glyph unicode="&#x2122;" horiz-adv-x="1599" d="M51 1243l27 143q0 7 6 7h874q9 0 11 -7l108 -444h4l252 444q2 7 10 7h203q6 0 6 -7l-133 -747q0 -6 -6 -6h-162q-6 0 -6 6q33 184 56 303.5t29 147.5l7 28h-4l-295 -481q-2 -4 -6 -4h-18q-4 0 -6 4l-134 481h-4q-12 -85 -82 -479q0 -6 -6 -6h-161q-7 0 -7 6l105 592 q3 6 -4 6h-234q-5 0 -8 -6l-104 -592q0 -6 -7 -6h-161q-6 0 -6 6l104 592q3 6 -4 6h-238q-6 0 -6 6z" />
<glyph unicode="&#x2202;" horiz-adv-x="1228" d="M52.5 325q-5.5 60 6.5 121q40 231 200 362.5t368 131.5q102 0 184 -38.5t123 -94.5q6 -6 6 0q21 119 -8.5 216.5t-106.5 155.5t-190 58q-114 0 -209 -61q-7 -4 -10 2l-49 161q-5 5 4 11q55 33 146.5 58.5t174.5 25.5q122 0 213.5 -37t146.5 -104.5t85.5 -162t29.5 -209 t-22 -245.5q-64 -357 -236 -537t-442 -180q-79 0 -146 19t-113.5 53t-82 80t-51.5 100t-21.5 114zM297 444q-23 -131 38 -209.5t183 -78.5q69 0 130 27.5t102.5 71.5t68 93.5t35.5 97.5q23 132 -52 200.5t-202 68.5q-106 0 -194 -74t-109 -197z" />
<glyph unicode="&#x2206;" horiz-adv-x="1271" d="M-121 2q0 1 1 2t1 2l781 1380q4 7 8 7h174q4 0 8 -7l295 -1380v-4q0 -2 -4 -2h-1258q-6 0 -6 2zM217 209q1 -2 4 -2h653q5 0 7 2v4l-179 848q-2 2 -4 0l-479 -848q0 -1 -1 -2t-1 -2z" />
<glyph unicode="&#x220f;" horiz-adv-x="1460" d="M-51 -381l309 1767q0 7 8 7h1166q8 0 8 -7l-312 -1767q-3 -8 -10 -8h-239q-8 0 -5 8l277 1569q0 6 -8 6h-658q-8 0 -8 -6l-276 -1569q-3 -8 -11 -8h-237q-7 0 -4 8z" />
<glyph unicode="&#x2211;" horiz-adv-x="1138" d="M-86 -381l25 141q0 7 6 13l600 725q5 5 2 8l-352 725q0 2 -1 5.5t-1 6.5l24 141q3 9 10 9h1016q9 0 6 -9l-30 -182q-4 -8 -11 -8h-725q-6 0 -6 -8l332 -680q3 -3 -2 -8l-565 -680q-2 -1 -3 -3t0 -3.5t5 -1.5h727q7 0 4 -7l-31 -184q-3 -8 -10 -8h-1014q-9 0 -6 8z" />
<glyph unicode="&#x221a;" horiz-adv-x="1411" d="M-92 6l444 797q8 8 8 0l197 -715q2 -8 6 -3q0 1 0.5 1.5l1.5 1.5l709 1296q6 9 14 9h195q4 0 4 -4l-1004 -1790q-7 -11 -10 0l-190 706q0 3 -3 3t-6 -3l-163 -299q-4 -6 -11 -6h-190z" />
<glyph unicode="&#x221e;" horiz-adv-x="1802" d="M51.5 365q-0.5 55 7.5 112q30 173 146.5 284t288.5 111q72 0 147 -36t118 -71.5t138 -122.5q19 -17 29 -26q24 16 91 63.5t106 72.5t98.5 57.5t115.5 47.5t111 15q116 0 190 -56t97.5 -141t5.5 -186q-13 -76 -49 -145.5t-91 -126.5t-133 -91t-168 -34q-45 0 -88 10 t-85 33.5t-72.5 42.5t-72 57t-60 56t-58.5 59q-11 -8 -51.5 -38t-56 -41t-54 -38.5t-59.5 -39t-56.5 -32.5t-61 -31t-57.5 -21.5t-61.5 -16t-58.5 -4.5q-74 0 -131.5 22.5t-90.5 61t-53.5 88.5t-21 105zM285 483q-14 -74 16 -123t96 -49q32 0 73 14.5t92.5 45t82.5 51 t86 57.5q-53 48 -92.5 80t-94 63t-91.5 31q-63 0 -110 -51t-58 -119zM1065 485q5 -4 31 -25.5t36 -30t35.5 -28t39 -28.5t36.5 -23.5t38.5 -21t33.5 -12t33 -5.5q64 0 109.5 50.5t58.5 119.5q12 75 -20.5 123.5t-98.5 48.5q-31 0 -70 -14t-93 -45.5t-81 -49.5t-88 -59z" />
<glyph unicode="&#x222b;" horiz-adv-x="878" d="M29 -326l32 181q0 1 2.5 3t6 2t6.5 -5q36 -56 117 -56q44 0 78.5 35t37.5 107l39 1181q3 132 79.5 222t211.5 90q136 0 205 -58q7 -7 4 -16l-33 -195q-7 -7 -14 0q-1 1 -13 13.5t-22.5 21.5t-33 18t-48.5 9q-41 0 -72 -30t-34 -91l-48 -1210q-3 -90 -48.5 -160.5 t-113 -106t-141.5 -35.5q-121 0 -192 64q-6 4 -6 16z" />
<glyph unicode="&#x2248;" horiz-adv-x="1200" d="M61 354l5 6q61 68 146 120t183 52q53 0 101.5 -14.5t84.5 -35t71 -40.5t76.5 -34.5t84.5 -14.5q62 0 110 18.5t103 71.5q0 2 4 2q2 0 4 -2l70 -168q0 -1 1 -2t1 -2l-6 -6q-90 -81 -164.5 -107t-173.5 -26q-58 0 -117 21t-99 46.5t-90.5 46.5t-95.5 21q-112 0 -219 -127 l-4 -4q-4 0 -4 4l-70 170zM92 782l4 4q157 146 332 146q58 0 109.5 -14.5t88.5 -35t72 -41.5t73.5 -35.5t78.5 -14.5q64 0 116 28t103 90q0 2 4 2q2 0 4 -2l72 -168q0 -2 -2 -4q0 -4 -2 -6q-74 -76 -155 -119t-148 -43q-57 0 -107 14t-87 34.5t-72.5 41t-77.5 34.5t-86 14 q-129 0 -240 -101q-4 -4 -6 -4q-2 2 -2 4l-70 170q-2 2 -2 6z" />
<glyph unicode="&#x2260;" horiz-adv-x="1206" d="M53 383l35 201q3 8 10 8h316q9 0 16 12l123 182q3 7 -4 7h-416q-9 0 -6 8l33 200q3 9 10 9h528q3 0 9 6l151 223q4 6 10 6h224q8 0 2 -6l-152 -223q-2 -4 2 -6h203q9 0 6 -9l-33 -200q-4 -8 -10 -8h-313q-2 -1 -4 -4l-2 -3l-132 -188q0 -6 5 -6h411q9 0 6 -8l-34 -201 q-4 -8 -11 -8h-520q-7 0 -10 -6l-150 -222q-6 -6 -10 -6h-225q-6 0 0 6l151 222q3 6 -4 6h-209q-9 0 -6 8z" />
<glyph unicode="&#x2264;" horiz-adv-x="1177" d="M16 6l33 195q2 6 8 6h959q6 0 6 -6l-33 -195q-3 -6 -10 -6h-956q-7 0 -7 6zM125 616l31 172q0 5 8 9l1007 278q3 2 5.5 0t1.5 -6l-37 -209q-2 -6 -6 -8l-643 -147q-3 0 -3 -2.5t3 -2.5l589 -147q4 -2 4 -8l-36 -209l-9 -6l-909 278q-6 3 -6 8z" />
<glyph unicode="&#x2265;" horiz-adv-x="1177" d="M16 6l33 195q0 6 8 6h959q9 0 6 -6l-33 -195q-3 -6 -10 -6h-956q-5 0 -6.5 1.5t-0.5 4.5zM74 336l37 209q3 5 8 8l643 147q2 2 0 5l-590 147q-6 3 -6 8l37 209q3 6 8 6h2l909 -278q4 -2 4 -9l-30 -172q0 -5 -6 -8l-1008 -278q-8 -2 -8 6z" />
<glyph unicode="&#x25ca;" horiz-adv-x="1112" d="M55 690q-5 5 2 12l531 684q4 7 8 7h164q4 0 8 -7l285 -686q2 -4 -2 -8l-527 -686q-3 -6 -8 -6h-164q-5 0 -8 6zM293 692l178 -442q5 -8 10 0l330 442q4 4 2 8l-172 441q-3 4 -7.5 3.5t-6.5 -3.5l-332 -441q-2 -4 -2 -8z" />
<glyph unicode="&#x25fc;" horiz-adv-x="972" d="M0 0v973h973v-973h-973z" />
</font>
</defs>
</svg>
