<?xml version="1.0" standalone="no"?>
<!DOCTYPE svg PUBLIC "-//W3C//DTD SVG 1.1//EN" "http://www.w3.org/Graphics/SVG/1.1/DTD/svg11.dtd" >
<svg xmlns="http://www.w3.org/2000/svg" xmlns:xlink="http://www.w3.org/1999/xlink" version="1.1">
<metadata></metadata>
<defs>
<font id="bottomioutline" horiz-adv-x="811" >
<font-face units-per-em="2048" ascent="1536" descent="-512" />
<missing-glyph horiz-adv-x="598" />
<glyph unicode="&#xfb01;" horiz-adv-x="1449" d="M10 0v41h43q51 0 77 54t26 179v709h-138v41h138v14q0 141 76.5 242.5t200.5 150t280 48.5q69 0 141 -14t141 -42t112.5 -79.5t43.5 -118.5q0 -65 -47.5 -108.5t-112.5 -43.5q-82 0 -126 44t-44 108q0 35 11.5 63.5t24.5 44t24.5 33t11.5 31.5q0 13 -43 27t-94 14 q-80 0 -129 -49t-49 -148v-217h239q141 0 400 35h-3l3 2q4 0 8 -4q78 -66 78 -197v-571q0 -194 -82 -244l-4 -4h151v-41h-1358zM135 41h301q101 51 101 248v952q0 153 94 203q-64 -9 -122 -26t-116.5 -49.5t-100.5 -76.5t-68.5 -109.5t-26.5 -144.5v-780q0 -170 -62 -217z M492 41h288q51 0 77 54t26 179v486q0 123 -25.5 173t-77.5 50h-202v-694q0 -198 -82 -244zM862 1225q0 -51 36 -85t93 -34q53 0 86 33.5t33 85.5q0 71 -55 119.5t-123 62.5q2 -2 2 -16q0 -9 -36 -70t-36 -96zM866 41h238q30 0 55.5 11t50 36.5t38.5 77t14 123.5v571 q0 100 -50 156q-2 2 -6 2q-20 -3 -64.5 -10t-65 -10t-55 -7.5t-64 -6t-62.5 -1.5h-16q30 -16 37.5 -59.5t7.5 -159.5v-516q0 -78 -16.5 -133.5t-41.5 -73.5z" />
<glyph unicode="&#xfb02;" horiz-adv-x="1492" d="M10 0v41h43q51 0 77 54t26 179v709h-138v41h138v14q0 106 43 191t117 139t168.5 82.5t201.5 28.5t191 -41q56 0 113 6t139 18.5t112 16.5h6q27 0 47 -25t30 -63t14.5 -71.5t4.5 -59.5v-971q0 -105 -17.5 -160t-68.5 -84l-4 -4h156v-41h-1399zM135 41h301q101 51 101 248 v952q0 153 94 203q-64 -9 -122 -26t-116.5 -49.5t-100.5 -76.5t-68.5 -109.5t-26.5 -144.5v-780q0 -170 -62 -217zM487 41h330q51 0 77 54t26 179v902q0 135 -50 198.5t-137 63.5q-155 0 -155 -197v-217h186v-41h-186v-694q0 -98 -16.5 -154.5t-69.5 -89.5zM901 41h273 q66 10 97.5 82.5t31.5 185.5v969q0 106 -58 158q-2 2 -6 2q-244 -33 -315 -33h-15q52 -37 52 -225v-908q0 -194 -60 -231z" />
<glyph unicode="yy" horiz-adv-x="1923" d="M-25 983v41h646v-41h-107q-8 0 0 -4q51 -31 96 -133l166 -361l123 289l-35 70q-16 31 -25 47.5t-26.5 42t-36 37.5t-37.5 12h-26v41h645v-41h-107q-8 0 0 -4q52 -31 97 -133l165 -361l138 322q12 25 19 52t8.5 56.5t-17 48.5t-55.5 19h-41v41h49q50 0 77 -24.5t27 -57.5 q18 37 55.5 59.5t86.5 22.5h20v-41h-18q-57 0 -91.5 -38.5t-74.5 -137.5l-484 -1126q-21 -47 -35.5 -75.5t-38.5 -63t-47.5 -53t-58 -31.5t-76.5 -13q-74 0 -124 49t-50 127q0 75 53 135t130 60q41 0 78.5 -19.5t67.5 -39t54 -19.5q27 0 41 33l90 215l-372 739l-449 -1044 q-21 -47 -35.5 -75.5t-38.5 -63t-47.5 -53t-58 -31.5t-76.5 -13q-74 0 -124 49t-50 127q0 75 52.5 135t129.5 60q41 0 78.5 -19.5t68 -39t54.5 -19.5q27 0 41 33l90 215l-432 858q-16 31 -25 47.5t-26.5 42t-36 37.5t-37.5 12h-27zM88 983q12 -8 22.5 -18.5t21.5 -28.5 t16 -26.5t18 -35t16 -32.5l402 -809l170 401l-191 408q-28 61 -68 101t-75 40h-332zM90 -379q0 -55 38 -95t97 -40q73 0 123 52t92 165q-8 -4 -22 -4q-29 0 -88.5 38t-102.5 38q-59 0 -98 -45.5t-39 -108.5zM825 983q10 -7 20 -17.5t17 -18.5t16.5 -24.5t13.5 -24t14.5 -29 t13.5 -27.5l401 -809l170 401l-191 408q-28 61 -68 101t-75 40h-332zM827 -379q0 -55 38.5 -95t97.5 -40q73 0 123 52t92 165q-8 -4 -23 -4q-29 0 -88 38t-102 38q-59 0 -98.5 -45.5t-39.5 -108.5z" />
<glyph unicode="jj" horiz-adv-x="1323" d="M-287 -319q0 -102 102.5 -169t241.5 -67q199 0 338 131q53 -65 140.5 -98t183.5 -33q274 0 428 190q84 104 108.5 213t24.5 258v754q0 121 -76 197q-4 4 -16 2q-170 -35 -393 -35h-68v-41h31q40 0 59.5 -14t31 -62.5t11.5 -146.5v-969q0 -58 -7.5 -110t-23 -97t-44 -71.5 t-66.5 -26.5q-47 0 -81 46.5t-49.5 114t-15.5 144.5v1069q0 122 -75 197q-4 5 -17 2q-170 -35 -393 -35h-68v-41h31q40 0 60 -14t31.5 -62.5t11.5 -146.5v-969v-44q1 -33 0.5 -65.5t-2.5 -61.5t-8.5 -53.5t-17 -42.5t-28.5 -28t-43 -10q-30 0 -47.5 16t-17.5 45q0 22 19 48 t38 59t19 72q0 67 -48 108t-116 41q-87 0 -138 -51.5t-51 -142.5zM-246 -319q0 76 39 114.5t109 38.5q55 0 89 -31t34 -77q0 -36 -19.5 -69t-39 -59.5t-19.5 -46.5q0 -38 26 -61q-81 8 -150 62t-69 129zM150 983h24q157 0 303 35q4 0 6 -2q49 -56 49 -156v-1069 q0 -223 97 -301q2 -2 -2 -2q-66 10 -134 52t-94 100q-61 -67 -133.5 -104.5t-113.5 -45.5q43 30 43 205v1069q0 116 -7.5 159.5t-37.5 59.5zM166 1294q0 76 60.5 132.5t140.5 56.5q79 0 137.5 -56t58.5 -133q0 -79 -58 -133.5t-138 -54.5q-81 0 -141 55t-60 133zM211 1294 q0 -63 45 -106t111 -43t109.5 43t43.5 106q0 62 -44 106t-109 44q-66 0 -111 -44t-45 -106zM807 -514q39 26 66.5 104t27.5 201v973q0 116 -7.5 159.5t-37.5 59.5h25q157 0 303 35q4 0 6 -2q49 -56 49 -156v-756q0 -155 -26.5 -252.5t-92.5 -183.5q-65 -86 -157 -130.5 t-156 -51.5zM872 1294q0 76 60.5 132.5t140.5 56.5t138.5 -56.5t58.5 -132.5q0 -79 -58.5 -133.5t-138.5 -54.5q-81 0 -141 55t-60 133zM918 1294q0 -63 44.5 -106t110.5 -43t110 43t44 106q0 62 -44.5 106t-109.5 44t-110 -44t-45 -106z" />
<glyph unicode="qj" horiz-adv-x="2058" d="M57 516q0 110 25.5 204t74.5 167t129.5 115t182.5 42q88 0 173 -47.5t108 -132.5v160h104q120 0 238 15t159 16v-37l-22 -2q-55 -4 -55 -211v-1114q0 -44 7.5 -77t26.5 -64t58.5 -47.5t97.5 -16.5q29 0 50 18t29.5 44t14.5 55.5t4.5 52.5t-0.5 34v3v2v1065 q0 98 -11.5 146.5t-31 62.5t-59.5 14h-31v41h68q223 0 393 35q12 2 16 -2q76 -76 76 -197v-754q0 -63 -1 -96.5t-7 -91.5t-18.5 -98t-37.5 -90.5t-61 -94.5q-154 -190 -391 -190q-67 0 -119 20h-645v41h43q53 0 79 46t26 167v443q-18 -57 -46.5 -95.5t-68 -59.5t-82 -29.5 t-98.5 -8.5q-176 0 -287 155.5t-111 391.5zM98 516q0 -227 106.5 -366.5t258.5 -139.5q85 0 123 15q-75 24 -92 121t-17 345v15q0 62 1 106t4.5 104t12 101t21 80t33.5 59.5t49 22.5q-58 25 -143 25q-151 0 -254 -128.5t-103 -359.5zM518 506q0 -64 0.5 -104.5t2 -89.5 t4.5 -79t8 -62.5t13 -51t19 -35t26 -23t34 -6.5q54 0 89.5 124t35.5 327q0 63 -1.5 109.5t-5.5 101t-12.5 92.5t-22 71t-34.5 49.5t-49 16.5q-62 0 -84.5 -102.5t-22.5 -337.5zM733 -494h455q-55 60 -55 185v1114q0 88 6.5 135t29.5 70q-3 0 -95 -13.5t-185 -13.5h-98v-1268 q0 -179 -58 -209zM1448 -514q50 9 135 53.5t148 128.5q64 84 87 179.5t23 256.5v756q0 98 -51 156q-2 2 -6 2q-146 -35 -301 -35h-25q30 -16 37.5 -59.5t7.5 -159.5v-1069q0 -157 -55 -209zM1475 1294q0 76 60 132.5t140 56.5t138.5 -56.5t58.5 -132.5q0 -79 -58.5 -133.5 t-138.5 -54.5q-81 0 -140.5 55t-59.5 133zM1520 1294q0 -63 44.5 -106t110.5 -43t110 43t44 106q0 62 -44.5 106t-109.5 44t-110 -44t-45 -106z" />
<glyph horiz-adv-x="0" />
<glyph horiz-adv-x="682" />
<glyph unicode=" "  horiz-adv-x="598" />
<glyph unicode="&#x09;" horiz-adv-x="598" />
<glyph unicode="&#xa0;" horiz-adv-x="598" />
<glyph unicode="!" horiz-adv-x="641" d="M158 190q0 86 58 144.5t144 58.5t144.5 -58.5t58.5 -144.5t-58.5 -144t-144.5 -58t-144 58t-58 144zM158 1243q0 33 9 66.5t30 69t65 57.5t105 22q63 0 106.5 -22t62.5 -58t26 -66t7 -61q0 -55 -28 -153q-7 -23 -36 -117.5t-40 -133t-27.5 -113.5t-25.5 -144l-17 -133 h-63q-7 142 -42 287t-102 348q-30 92 -30 151zM199 190q0 -69 46 -115t115 -46t115.5 46t46.5 115t-46.5 115.5t-115.5 46.5t-115 -46.5t-46 -115.5zM199 1243q0 -32 22 -127q61 -165 101 -344t40 -285l37 230q10 73 69.5 267.5t59.5 264.5q0 20 -2.5 39t-12.5 43.5 t-26.5 42.5t-47.5 30.5t-72 12.5q-50 0 -85.5 -18.5t-52 -48t-23.5 -56t-7 -51.5z" />
<glyph unicode="&#x22;" horiz-adv-x="761" d="M91 1404q1 7 1 19q0 51 38 81t91 30q55 0 91 -29.5t36 -79.5q0 -16 -2 -22q0 -6 -98 -541h-55q-60 324 -96 501q-7 35 -6 41zM133 1408q0 -8 4 -32q29 -144 84 -461q54 311 83 462q5 24 4 27q-1 5 -1 15q0 38 -26 56t-60 18q-35 0 -61.5 -18t-26.5 -56v-11zM413 1404 q1 7 1 19q0 51 38 81t91 30q55 0 91 -29.5t36 -79.5q0 -16 -2 -22q0 -1 -99 -541h-55q-56 303 -93 490q-9 46 -8 52zM455 1408q0 -8 4 -32q29 -144 84 -461q54 311 83 462q5 24 4 27q-1 5 -1 15q0 38 -26 56t-60 18q-35 0 -61.5 -18t-26.5 -56v-11z" />
<glyph unicode="#" horiz-adv-x="1366" d="M86 438v203h279l24 195h-256v204h283l55 408h213l-57 -408h200l56 408h207l-56 -408h240v-204h-266l-29 -195h252v-203h-277l-63 -438h-207l64 438h-203l-62 -438h-209l62 438h-250zM127 479h256l-61 -438h127l61 438h285l-64 -438h125l64 438h270v121h-258l41 277h260 v122h-246l55 408h-124l-56 -408h-282l59 408h-133l-55 -408h-277v-122h262l-37 -277h-272v-121zM522 600h287l39 277h-285zM569 641l29 195h203l-27 -195h-205z" />
<glyph unicode="$" horiz-adv-x="1249" d="M47 1044q0 78 36 156.5t101 143.5t168.5 106t227.5 41h18v102h43v-104q120 -10 201.5 -54.5t150.5 -123.5q43 23 43 92v43h41v-37q0 -60 -14 -86.5t-45 -48.5q52 -81 80 -230h-43q-72 374 -414 402v-426l137 -49q49 -16 81 -27.5t81 -34t81.5 -45t69.5 -58t59 -75.5 t37 -95.5t15 -119.5q0 -75 -21 -150t-66.5 -145.5t-110 -125.5t-158.5 -88.5t-205 -35.5v-133h-43v135q-138 7 -252 71t-182 165q-39 -21 -39 -92v-97h-41v91q0 61 12.5 87.5t42.5 47.5q-47 73 -76 229h43q19 -136 90 -239.5t174.5 -159.5t227.5 -64v502l-104 35 q-71 24 -128 50.5t-119 69.5t-103.5 93.5t-69 123t-27.5 158.5zM88 1044q0 -315 422 -454l137 -45q132 -46 181 -73q149 -83 149 -236q0 -87 -55 -142q92 59 165.5 174t73.5 246q0 57 -13 105.5t-28 82.5t-51.5 67t-57 50t-73 41.5t-70.5 31.5t-76 28q-21 8 -32 12l-189 69 q-41 15 -64 24t-58.5 25.5t-55.5 30t-44.5 35t-37 44.5t-21.5 53.5t-9 66.5q0 30 15 61.5t22.5 40.5t25.5 29q-91 -33 -173.5 -140t-82.5 -227zM322 1280q0 -91 67.5 -144.5t198.5 -95.5l10 -4v414h-18q-121 0 -189.5 -47t-68.5 -123zM641 12q71 0 137 25.5t112 78t46 120.5 q0 33 -10 62.5t-23.5 51t-39.5 42.5t-46.5 34t-57 28.5t-57.5 23.5t-61 22v-488z" />
<glyph unicode="%" horiz-adv-x="1794" d="M66 1026q0 110 31.5 200.5t83 147t115.5 87t132 30.5q158 0 258 -129.5t105 -335.5q0 -202 -103.5 -334.5t-257.5 -132.5q-107 0 -191 64t-128.5 170t-44.5 233zM104 1026q0 -152 76.5 -279.5t181.5 -152.5q-19 12 -31 31t-18.5 37.5t-9.5 56t-3.5 64t-0.5 83.5v371 q0 104 15.5 152t47.5 67q-39 -11 -82 -43.5t-83.5 -84t-66.5 -131t-26 -171.5zM342 866q0 -140 18.5 -207t69.5 -67q26 0 44 23t26 66t11 85.5t3 99.5v371q0 219 -86 219q-48 0 -67 -54t-19 -165v-371zM457 0l831 1448h47l-831 -1448h-47zM492 596q83 19 143 84t88.5 154 t28.5 192q0 96 -26 176.5t-67 131t-83 81t-82 41.5q63 -37 63 -217v-371q0 -48 -0.5 -67.5t-2 -55.5t-5.5 -52.5t-11 -38.5t-18.5 -35t-27.5 -23zM1001 438q0 110 31.5 200.5t83.5 147t116 87t132 30.5q158 0 257.5 -129.5t104.5 -335.5q0 -202 -103 -334.5t-257 -132.5 q-107 0 -191 64t-129 170t-45 233zM1040 438q0 -152 76.5 -279.5t181.5 -152.5q-43 28 -53 84t-10 189v370q0 104 15.5 152t47.5 67q-39 -11 -82 -43.5t-83.5 -84t-66.5 -131t-26 -171.5zM1278 279q0 -140 18.5 -207.5t69.5 -67.5q26 0 44 23.5t26 66.5t11 85.5t3 99.5v370 q0 219 -86 219q-48 0 -67 -54t-19 -165v-370zM1427 8q83 19 143.5 84t89 154t28.5 192q0 96 -26 176.5t-67 131t-83 81t-82 41.5q63 -37 63 -217v-370q0 -54 -0.5 -80t-3.5 -64.5t-10 -58t-20 -39.5t-32 -31z" />
<glyph unicode="&#x26;" horiz-adv-x="1642" d="M49 424q0 323 379 426q-5 7 -27 35.5t-30 39t-27 37.5t-27.5 42t-22 41t-19 46t-10.5 45.5t-5 49.5q0 65 38 118t95.5 84.5t131.5 53t140 29.5t126 8q55 0 112.5 -6t123.5 -23.5t116.5 -44t84.5 -73t34 -105.5q0 -46 -26.5 -89t-64 -73t-90.5 -57.5t-94 -43.5t-86 -30 l369 -490q48 61 71 149.5t23 162.5q0 127 -94 127h-107v41h101q95 0 120 -60q6 26 28.5 43t57.5 17h107v-41h-88q-45 0 -58 -18t-18 -68q-10 -137 -23 -189q-24 -99 -92 -200l172 -230q35 -48 58.5 -73t59 -44.5t77.5 -19.5h31v-41h-475q-40 0 -58 1t-47 7.5t-48.5 21 t-45.5 40.5t-55 67q-63 -54 -150 -98q-131 -68 -266 -68q-219 0 -360.5 131t-141.5 322zM90 424q0 -173 132 -292.5t347 -119.5q114 0 193 29q-30 -6 -64 -6q-159 0 -240 103t-81 292v277q0 73 29 102q-60 -17 -112.5 -46.5t-100 -75t-75.5 -113.5t-28 -150zM301 1186 q0 -36 14.5 -77.5t43 -87t51.5 -77t57 -76.5q9 -12 14 -18l541 -715q24 -36 41 -55t43 -28t44 -10t67 -1h346q-33 7 -63.5 38t-80.5 99l-688 909q-104 136 -104 228q0 88 65 123q-23 -3 -37.5 -5t-60 -11.5t-77.5 -20t-76 -31t-72 -45t-48 -61t-20 -78.5zM418 428 q0 -179 76 -269.5t208 -90.5q58 0 111 19.5t73.5 34.5t49.5 41q2 2 3.5 3t2.5 2l-487 645q-37 -15 -37 -108v-277zM668 1315q0 -17 2.5 -32t9.5 -32t11 -27.5t17.5 -30t18 -26.5t23 -31t22.5 -30l102 -137q57 24 72 74.5t15 183.5q0 43 -7 77.5t-24 66.5t-52.5 49.5 t-86.5 17.5q-62 0 -92.5 -35.5t-30.5 -87.5zM903 1438q32 -14 52.5 -36.5t30 -53t12.5 -57.5t3 -64q0 -120 -7.5 -166.5t-39.5 -73.5q267 98 267 240q0 53 -31.5 93.5t-83.5 63.5t-100.5 35.5t-102.5 18.5z" />
<glyph unicode="'" horiz-adv-x="440" d="M91 1404q1 7 1 19q0 51 38 81t91 30q55 0 91 -29.5t36 -79.5q0 -16 -2 -22q0 -6 -98 -541h-55q-60 324 -96 501q-7 35 -6 41zM133 1408q0 -8 4 -32q29 -144 84 -461q54 311 83 462q5 24 4 27q-1 5 -1 15q0 38 -26 56t-60 18q-35 0 -61.5 -18t-26.5 -56v-11z" />
<glyph unicode="(" horiz-adv-x="854" d="M61 598q0 144 41.5 276.5t112 236t167.5 191t204.5 149t226.5 103.5l29 -57q-70 -57 -117.5 -105t-98 -124.5t-80 -164.5t-48.5 -217t-19 -290q0 -175 19 -321t51 -251.5t79.5 -191.5t98.5 -143t115 -105l-29 -59q-67 25 -135.5 61.5t-143.5 91.5t-142 120.5t-128.5 152 t-105.5 182.5t-70.5 216t-26.5 249zM102 598q0 -127 27 -245t71 -210.5t105 -176t123.5 -144.5t132 -113.5t125.5 -84.5t109 -56l4 10q-84 61 -147 141.5t-113 200t-75.5 289t-25.5 387.5q0 157 18 284.5t48 219t78 169t99 130.5t120 106l-4 8q-108 -44 -207 -105t-189 -146 t-155.5 -183.5t-104.5 -223t-39 -257.5z" />
<glyph unicode=")" horiz-adv-x="854" d="M12 -416q64 48 115 105t98.5 143t79.5 191.5t51 251.5t19 321q0 161 -19 290t-48.5 217t-80 164.5t-98 124.5t-117.5 105l29 57q119 -42 226.5 -103.5t204.5 -149t167.5 -191t112 -235.5t41.5 -277q0 -129 -26.5 -249t-70.5 -216t-105.5 -182.5t-128.5 -152t-142 -120.5 t-143.5 -91.5t-135.5 -61.5zM53 1505q69 -53 120 -106t99 -130.5t78 -169t48 -219t18 -284.5q0 -218 -25.5 -387.5t-75.5 -289t-113 -200t-147 -141.5l4 -10q53 24 109 56t125.5 84.5t132 113.5t123.5 144.5t105 176t71 210.5t27 245q0 133 -39 257.5t-104.5 223 t-155.5 183.5t-189 146t-207 105z" />
<glyph unicode="*" horiz-adv-x="854" d="M31 1094l92 282l39 -14l-27 -82l191 -61v239h317v-41h-106v-198l229 75v-2l90 -282l-39 -13l-26 86l-197 -63l145 -197l-241 -172l-25 33l72 51l-117 162l-141 -197l-238 177l25 32l67 -51l119 162zM84 1120l242 -78l-150 -208l103 -74l149 203l152 -203l100 74l-145 208 l241 82l-39 117l-241 -80v256h-129v-256l-244 80z" />
<glyph unicode="+" horiz-adv-x="1331" d="M154 408v210h409v406h211v-406h404v-210h-404v-408h-211v408h-409zM195 449h409v-408h129v408h404v129h-404v405h-129v-405h-409v-129z" />
<glyph unicode="," horiz-adv-x="598" d="M78 180q0 85 59 145t146 60q88 0 146 -56.5t58 -148.5q0 -60 -2.5 -103t-11.5 -102t-28.5 -106t-51 -97.5t-82.5 -95.5t-118 -82l-21 37q260 129 274 435q-25 -42 -68.5 -66.5t-94.5 -24.5q-86 0 -145.5 59.5t-59.5 145.5zM119 180q0 -69 47.5 -117.5t116.5 -48.5 t116 48.5t47 117.5t-47 117.5t-116 48.5t-116.5 -48.5t-47.5 -117.5z" />
<glyph unicode="-" horiz-adv-x="1032" d="M154 393v275h725v-275h-725zM195 434h643v191l-643 2v-193z" />
<glyph unicode="." horiz-adv-x="555" d="M74 193q0 85 59 144.5t146 59.5q86 0 145 -59t59 -145q0 -87 -59.5 -146t-144.5 -59q-86 0 -145.5 59.5t-59.5 145.5zM115 193q0 -69 47.5 -117.5t116.5 -48.5t116 48.5t47 117.5t-47 117t-116 48t-116.5 -48t-47.5 -117z" />
<glyph unicode="/" horiz-adv-x="854" d="M41 0l461 1446h313l-461 -1446h-313zM100 41h219l437 1364h-219z" />
<glyph unicode="0" horiz-adv-x="1236" d="M37 723q0 358 199 569q91 97 185.5 136.5t201.5 39.5q161 0 293 -100.5t207.5 -271t78.5 -373.5q0 -164 -45.5 -304t-123.5 -235.5t-184 -149.5t-226 -54q-132 0 -243 60t-185.5 162t-116 236.5t-41.5 284.5zM78 723q0 -169 58.5 -320t161 -251t226.5 -127q-17 16 -31 38 t-22.5 42.5t-15 50t-9.5 49t-4.5 52.5t-2 47.5t0 45.5t0.5 37v633q0 195 17.5 282t66.5 123q-66 -12 -135.5 -54t-124.5 -103q-109 -124 -147.5 -258t-38.5 -287zM481 308.5q0 -21.5 2.5 -63t7.5 -67.5t15.5 -59t25.5 -52.5t38 -33t53 -13.5q32 0 55.5 14t38 42t23.5 58.5 t13 77t5 83t0 88.5v641q0 72 -1.5 121.5t-6.5 99t-14 80t-24 55.5t-37 36t-52 11q-32 0 -55.5 -10.5t-39.5 -36t-25.5 -55t-14 -81t-6 -100t-1.5 -124.5v-633v-20v-58.5zM715 23q194 42 320 233t126 465q0 109 -28 219.5t-81.5 210t-141 173t-195.5 99.5q49 -36 66.5 -123 t17.5 -282v-633v-28v-35.5t-1 -37.5t-2.5 -42.5t-4.5 -42t-7 -44t-10.5 -39.5t-14.5 -38t-19.5 -30t-24.5 -25z" />
<glyph unicode="1" horiz-adv-x="1198" d="M182 0v41h94q59 0 86 50.5t27 182.5v891q0 158 -123 158h-69v41h51q90 0 232.5 32.5t260.5 78.5q22 10 43 -7q68 -55 68 -208v-973q0 -170 -80 -242q-8 -4 0 -4h242v-41h-832zM346 1337q44 -11 64 -62.5t20 -123.5v-879q0 -175 -55 -227q-4 -4 0 -4h284q75 0 113.5 70 t38.5 186v993q0 50 -14 88.5t-31 55.5q-9 9 -21 4q-57 -23 -174 -54t-225 -47z" />
<glyph unicode="2" horiz-adv-x="1241" d="M57 1004q0 93 31.5 170.5t84.5 131t124 90.5t149.5 54.5t161.5 17.5q96 0 177.5 -12.5t152.5 -41t121.5 -72t79 -109t28.5 -148.5q0 -145 -100 -249t-319 -207q-135 -63 -185.5 -163t-50.5 -290v-135h96q53 0 85 1t85.5 7.5t92.5 19t84 36.5t81 59q101 98 101 225v107h45 v-109q0 -135 -115 -256q-25 -25 -72 -55.5t-71 -34.5h229v-41h-1075v211q0 40 5 74t18 62.5t27 51t39.5 45.5t47 39t59 38t65.5 37t76.5 40.5t82.5 44.5q69 38 112 72t77 81.5t48.5 111t14.5 151.5q0 346 -275 346q-85 0 -183.5 -57t-98.5 -123q0 -36 24 -56 q16 -11 32.5 -13t28.5 1.5t29.5 8.5t30.5 5q86 0 130 -54.5t44 -127.5q0 -92 -61.5 -151.5t-155.5 -59.5q-103 0 -170.5 56.5t-67.5 169.5zM100 1004q0 -92 55.5 -138.5t139.5 -46.5q83 0 129.5 48.5t46.5 121.5q0 61 -37 101t-96 40q-15 0 -42.5 -7.5t-51 -7.5t-45.5 15 q-43 27 -43 80v15q-56 -99 -56 -221zM119 41h352v135q0 195 51 301t199 180q80 39 137 72t111 74t86 81.5t51.5 91.5t19.5 109q0 74 -27 133t-72.5 98t-110.5 65.5t-136.5 38.5t-154.5 14q-30 0 -76 -4q124 -21 183 -108t59 -263q0 -167 -63 -268.5t-200 -174.5 q-94 -50 -141.5 -76.5t-103 -62t-79.5 -59t-47.5 -57.5t-30.5 -68t-7 -80v-172z" />
<glyph unicode="3" horiz-adv-x="1275" d="M57 348q0 88 54.5 149.5t154.5 61.5q85 0 149 -51t64 -139q0 -42 -11.5 -66t-39.5 -55q-11 -12 -37 -34t-38.5 -39t-12.5 -38q0 -48 51.5 -79t136.5 -31q38 0 68 9.5t57.5 35t45.5 67.5t29 110t11 159q0 179 -69.5 265.5t-227.5 86.5h-186v41h186q137 0 205 71.5 t68 237.5q0 74 -8.5 128t-29.5 97.5t-59.5 65.5t-95.5 22q-141 0 -141 -94q0 -36 55 -84q68 -60 68 -129q0 -82 -51.5 -127t-128.5 -45q-86 0 -138.5 53.5t-52.5 139.5q0 46 19.5 93.5t62 92.5t102 80t146 56.5t188.5 21.5q220 0 354 -103t134 -254q0 -65 -25 -118.5 t-67 -88.5t-91 -61t-104.5 -40t-98.5 -21t-81 -9q55 -5 97 -11t99 -18.5t99 -29.5t86 -46t72.5 -66t46.5 -90.5t18 -118.5q0 -195 -156 -310.5t-463 -115.5q-123 0 -224 34t-162.5 88t-94.5 118t-33 128zM102 348q0 -93 63.5 -172t172.5 -117q-39 36 -39 78q0 24 14.5 46 t34.5 40.5t40.5 38t35 47.5t14.5 60q0 66 -51.5 107.5t-120.5 41.5q-164 0 -164 -170zM174 1137q0 -63 42.5 -107.5t107.5 -44.5q68 0 103.5 35.5t35.5 89.5q0 31 -12.5 55.5t-47.5 53.5q-63 54 -63 100q0 39 31 70q-71 -29 -134 -100t-63 -152zM588 1444q94 -17 131 -97.5 t37 -236.5q0 -61 -11 -111.5t-24.5 -79.5t-35 -54.5t-32.5 -34t-28 -19.5q93 9 170.5 29t149 55t112.5 93.5t41 135.5q0 139 -126.5 227t-320.5 93h-63zM608 762q81 -34 126.5 -122.5t45.5 -231.5q0 -313 -135 -390q241 21 372.5 117.5t131.5 270.5q0 59 -17 107.5t-42.5 81 t-67.5 59t-78.5 41.5t-90.5 28t-88 18t-86 11.5t-71 9.5z" />
<glyph unicode="4" horiz-adv-x="1226" d="M-18 379l575 885q56 87 121.5 134.5t130.5 47.5h154v-1026h84q98 0 98 76v84h37v-97q0 -34 -20 -56.5t-50 -27.5q31 -6 50.5 -28t19.5 -56v-96h-37v86q0 37 -26.5 55.5t-71.5 18.5h-84v-90q0 -185 -76 -244v-4h137v-41h-664v41h43q51 0 77 54t26 179v105h-524zM59 420 h447v690zM483 41h279q83 0 121.5 62.5t38.5 162.5v1139h-107q-65 0 -124 -51t-97 -111l-47 -74v-897q0 -191 -64 -231z" />
<glyph unicode="5" horiz-adv-x="1236" d="M59 322q0 100 60 166.5t180 66.5q55 0 97.5 -20.5t65 -51.5t33.5 -60t11 -52q0 -52 -16 -92t-39 -63t-46 -40.5t-39 -35.5t-16 -38q0 -29 34.5 -55.5t104.5 -26.5q117 0 180.5 84t63.5 277q0 124 -21.5 209t-65 132t-100.5 67t-136 20q-71 0 -140 -30.5t-100 -61.5l-33 8 l29 588q7 85 37 109t123 24h548h31.5h30t26.5 0.5t25.5 2t20.5 4t19 6.5t14 10t11.5 14.5t6.5 19.5h43l-35 -241q-12 -70 -22.5 -100t-34.5 -46q-17 -9 -26.5 -12.5t-49.5 -7.5t-107 -4h-628l-13 -306q60 41 168.5 73t251.5 32q142 0 254 -36.5t180.5 -99.5t104 -141.5 t35.5 -167.5q0 -144 -85.5 -251t-228 -161t-321.5 -54q-124 0 -218 30.5t-143 72t-79.5 93.5t-38 86t-7.5 60zM100 322q0 -97 65.5 -170.5t178.5 -112.5q-31 24 -31 61q0 35 19.5 63.5t62.5 59.5q37 27 53.5 55.5t16.5 69.5q0 76 -47.5 121t-118.5 45q-105 0 -152 -53 t-47 -139zM201 1133h624q34 0 59 1t44.5 4.5t32.5 5.5t23 11t15 12.5t9 18t5.5 20.5t4 26t4.5 30l22 161q-18 -18 -57 -18h-661q-72 0 -89.5 -14.5t-25.5 -79.5zM494 844q153 -22 216.5 -136t63.5 -327q0 -174 -41 -257.5t-112 -111.5q238 30 378 143.5t140 290.5 q0 84 -30.5 152.5t-82 114.5t-121 77.5t-144.5 45.5t-155 14q-71 0 -112 -6z" />
<glyph unicode="6" horiz-adv-x="1236" d="M47 633q0 156 52.5 291.5t142.5 233.5t201 167t237 107q68 20 139.5 30t118 11.5t135.5 1.5v-41q-52 0 -97 -5.5t-96.5 -21t-94.5 -41t-86 -69t-76.5 -101.5t-61 -141.5t-43.5 -186.5q46 36 94 47q74 19 154 19q201 0 319.5 -120t118.5 -306q0 -149 -74 -270.5 t-200 -189.5t-277 -68q-128 0 -239.5 46.5t-192.5 130t-127.5 206.5t-46.5 270zM88 633q0 -111 28.5 -207.5t74.5 -164.5t107 -119.5t123.5 -80t125.5 -38.5q-55 28 -78 133q-16 78 -16 256v98q0 88 2.5 159t12 159t26 158t45 144t68 129t98 101t131.5 72q-128 -30 -162 -41 q-259 -82 -422.5 -285.5t-163.5 -472.5zM496 444q0 -230 14 -288q30 -136 129 -136q37 0 63 19.5t37.5 49.5t16 53.5t4.5 43.5q6 61 6 260v105q0 71 -4.5 122t-17.5 99t-40.5 73t-68.5 25q-34 0 -57.5 -8.5t-39 -35t-24 -52t-12.5 -84.5t-5 -105t-1 -141zM686 893 q51 -14 75.5 -54.5t35 -128.5t10.5 -261q0 -178 -10.5 -268.5t-29 -122.5t-58.5 -50q215 40 334.5 178t119.5 322q0 83 -24.5 150t-65.5 111t-97.5 73.5t-117 42t-127.5 12.5q-25 0 -45 -4z" />
<glyph unicode="7" horiz-adv-x="1236" d="M117 866l92 580h989v-62q0 -36 -12 -70t-38 -68t-45 -55t-57.5 -56.5t-50.5 -47.5q-103 -103 -147.5 -190t-44.5 -223q0 -79 27.5 -228.5t27.5 -220.5q0 -104 -71 -174.5t-183 -70.5q-119 0 -178 74t-59 175q0 156 30.5 287t95.5 245t147.5 210t203.5 205 q70 64 96.5 105.5t26.5 88.5v29q0 6 -6 6h-216q-100 0 -205.5 -38.5t-183.5 -106.5q-130 -114 -186 -394h-53zM182 1055q55 160 150 239q102 87 215 111h-311zM410 231q0 -95 51.5 -153t142.5 -58q87 0 150 53.5t63 151.5q0 77 -25.5 228.5t-25.5 220.5q0 99 27 179.5 t67.5 135.5t110.5 125q16 16 49.5 46t52.5 49.5t41 48t32.5 59.5t10.5 67v21h-149v-35q0 -99 -136 -223q-119 -108 -198 -199.5t-142 -202t-92.5 -236.5t-29.5 -278z" />
<glyph unicode="8" horiz-adv-x="1236" d="M35 393q0 83 30.5 149.5t87 111.5t128 74t161.5 44q-32 7 -64 17t-87 37t-94.5 60.5t-70 90.5t-30.5 125q0 154 145.5 265.5t376.5 111.5q122 0 222.5 -31.5t164 -84.5t98 -119.5t34.5 -137.5q0 -242 -340 -332q62 -10 117.5 -28t109 -49t92.5 -71t62.5 -97.5 t23.5 -125.5q0 -80 -38 -154.5t-109 -135t-184.5 -97t-252.5 -36.5q-265 0 -424 117.5t-159 295.5zM76 399q0 -141 120.5 -245t311.5 -129q-70 56 -70 321q0 221 17 304.5t75 107.5q-66 -9 -123.5 -23.5t-120.5 -42.5t-107.5 -65.5t-73.5 -96.5t-29 -131zM141 1106 q0 -52 18 -95.5t51 -75.5t69.5 -56t85 -42t84.5 -28.5t81 -20.5q-40 27 -51.5 91.5t-11.5 183.5v170q0 161 74 205q-180 -20 -290 -112.5t-110 -219.5zM479 414q0 -85 0.5 -123.5t4.5 -95t12.5 -80t23.5 -50.5t39 -36t59 -9q38 0 64 14t41 36.5t23 67.5t10 90t2 120 q0 89 -0.5 131t-4.5 99.5t-12.5 81t-24 50t-39.5 34.5t-59 8q-83 0 -111 -62t-28 -233v-43zM504 1063q0 -145 23 -207.5t91 -62.5q65 0 88 64.5t23 205.5v170q0 29 -3.5 56.5t-13.5 63t-34 57.5t-60 22q-114 0 -114 -199v-170zM696 1438q74 -44 74 -205v-170 q0 -119 -11.5 -183.5t-51.5 -91.5q45 10 81 20.5t84.5 28.5t85 42t69.5 56t51 75.5t18 95.5q0 127 -110 219.5t-290 112.5zM707 758q63 -23 77.5 -101t14.5 -311q0 -267 -68 -321q191 25 310.5 128.5t119.5 245.5q0 301 -454 359z" />
<glyph unicode="9" horiz-adv-x="1236" d="M35 950q0 122 47.5 223.5t128 167.5t184 102t217.5 36q169 0 302.5 -82t207.5 -226.5t74 -326.5q0 -200 -77 -365t-208.5 -273t-304 -167t-366.5 -59h-68v40h37q104 0 188 26t138 65.5t94.5 96.5t61 108.5t33 111.5t15 96t2.5 72q-66 -88 -243 -88q-91 0 -173 28 t-147.5 81.5t-104 139.5t-38.5 193zM78 950q0 -99 34 -178t91.5 -127.5t128.5 -74t149 -25.5q49 0 76 6q-51 14 -76.5 58t-36 139.5t-10.5 277.5q0 168 10.5 254.5t29 118t58.5 49.5q-214 -40 -334 -179t-120 -319zM455 33q328 80 514 287.5t186 523.5q0 249 -131 407.5 t-328 194.5q18 -8 32.5 -21.5t24 -35.5t16.5 -39t11 -50.5t6.5 -50t3.5 -56t1 -50.5v-51v-312v-18q0 -52 -0.5 -81t-3.5 -87t-8.5 -95t-17 -93t-27.5 -94.5t-42 -85t-58.5 -79.5t-78 -64t-100.5 -50zM475 1026q0 -262 23 -354q26 -99 114 -99q138 0 138 185v338 q0 142 -12.5 214t-40.5 100t-85 28q-20 0 -35.5 -3t-29 -10.5t-23 -16t-17 -26t-13 -33.5t-9 -44t-5.5 -52.5t-3 -64.5t-1.5 -74.5t-0.5 -87.5z" />
<glyph unicode=":" horiz-adv-x="641" d="M158 176q0 86 58.5 145.5t145.5 59.5q86 0 145.5 -59.5t59.5 -145.5q0 -87 -60 -146t-145 -59q-88 0 -146 58.5t-58 146.5zM158 715q0 86 58.5 145.5t145.5 59.5q85 0 145 -60t60 -145q0 -87 -60 -146t-145 -59q-88 0 -146 58.5t-58 146.5zM199 176q0 -69 47 -117.5 t116 -48.5t116.5 48.5t47.5 117.5t-47.5 117.5t-116.5 48.5t-116 -48.5t-47 -117.5zM199 715q0 -69 47 -117.5t116 -48.5t116.5 48.5t47.5 117.5t-47.5 117.5t-116.5 48.5t-116 -48.5t-47 -117.5z" />
<glyph unicode=";" horiz-adv-x="681" d="M176 176q0 85 59 145t146 60q88 0 146.5 -56.5t58.5 -148.5q0 -73 -3.5 -124t-20 -122.5t-46.5 -125.5t-87.5 -112t-137.5 -102l-21 37q261 130 275 434q-25 -41 -69 -65.5t-95 -24.5q-88 0 -146.5 58.5t-58.5 146.5zM176 715q0 85 59 145t146 60q85 0 145 -60t60 -145 q0 -87 -60 -146t-145 -59q-88 0 -146.5 58.5t-58.5 146.5zM217 176q0 -69 47.5 -117.5t116.5 -48.5t116.5 48.5t47.5 117.5t-47.5 117.5t-116.5 48.5t-116.5 -48.5t-47.5 -117.5zM217 715q0 -69 47.5 -117.5t116.5 -48.5t116.5 48.5t47.5 117.5t-47.5 117.5t-116.5 48.5 t-116.5 -48.5t-47.5 -117.5z" />
<glyph unicode="&#x3c;" horiz-adv-x="1239" d="M154 442v152l972 440v-225l-673 -285q-18 -6 -19 -6l19 -6l673 -295v-225zM193 467l897 -414v133l-748 332l748 322v133l-897 -404v-102z" />
<glyph unicode="=" horiz-adv-x="1357" d="M154 242v211h1050v-211h-1050zM154 582v211h1050v-211h-1050zM195 283h968v129h-968v-129zM195 623h968v129h-968v-129z" />
<glyph unicode="&#x3e;" horiz-adv-x="1239" d="M113 -8v225l673 295l19 6q-7 0 -19 6l-673 285v225l972 -440v-152zM150 53l897 414v102l-897 404v-133l747 -322l-747 -332v-133z" />
<glyph unicode="?" horiz-adv-x="1110" d="M131 1147q0 36 16 78.5t52 88t86 82t125.5 60t162.5 23.5q114 0 204 -24.5t141 -60.5t84.5 -81.5t45 -82.5t11.5 -69q0 -40 -7 -76t-15.5 -63t-30 -58.5t-34.5 -49t-47 -49t-49 -44t-58.5 -48t-59.5 -48.5l-119 -96q-34 -28 -53 -52.5t-25 -44.5t-7 -42t1 -46h-57 q-68 115 -68 191q0 93 41.5 170.5t167.5 208.5q62 67 87.5 123.5t25.5 132.5q0 77 -54 122.5t-141 45.5q-180 0 -180 -78q0 -20 21.5 -45t47 -47t47 -60t21.5 -80q0 -81 -57.5 -128.5t-132.5 -47.5q-76 0 -134.5 50t-58.5 145zM172 1145q0 -67 44.5 -109.5t107.5 -42.5 q65 0 107 36t42 89q0 37 -14 66.5t-34 49t-40.5 37t-34.5 39t-14 46.5q0 24 18 45q-78 -51 -130 -119.5t-52 -136.5zM360 193q0 85 59 144.5t146 59.5q85 0 145 -59.5t60 -144.5q0 -87 -60 -146t-145 -59q-88 0 -146.5 58.5t-58.5 146.5zM401 193q0 -69 47.5 -116.5 t116.5 -47.5t116.5 47.5t47.5 116.5t-47.5 116t-116.5 47t-116.5 -47t-47.5 -116zM473 635q0 -19 3 -38t6.5 -32.5t10 -30t10 -23.5t11 -20.5t8.5 -15.5q0 57 17.5 94.5t76.5 85.5l117 97q17 14 52.5 42.5t50.5 41.5t43 37.5t40 39t31.5 38.5t28 44.5t18.5 47.5t13.5 56 t3.5 62q0 28 -9 58t-34 66t-62.5 66.5t-101.5 56.5t-145 38q59 -12 96 -62t37 -114q0 -79 -27 -142t-92 -131q-123 -127 -163 -201t-40 -161z" />
<glyph unicode="@" horiz-adv-x="2222" d="M63 625q0 444 299 697t830 253q100 0 196.5 -10t194 -33.5t182 -58.5t158.5 -88t127 -119t83 -155t30 -193q0 -140 -50 -265.5t-131 -214t-181.5 -154t-203 -97t-194.5 -31.5q-29 0 -59.5 6.5t-65 22t-59.5 48.5t-31 80q-46 -90 -107 -120.5t-157 -30.5 q-162 0 -272.5 123.5t-110.5 335.5q0 131 45 256t122.5 222t191.5 156.5t243 59.5q50 0 89 -10.5t62.5 -25.5t39 -34.5t22 -35.5t8.5 -31l18 82h355q-122 -575 -195 -902q-14 -63 -14 -67q0 -55 33 -55q24 0 49 11t55 36.5t58 74.5t54 117.5t48 172.5t35 233q6 59 6 110 q0 120 -31 212t-87 154.5t-140.5 102t-187 57t-230.5 17.5q-341 0 -542 -197t-249 -626q-6 -55 -6 -105q0 -142 43.5 -258t117 -193.5t172 -130.5t205.5 -76.5t222 -23.5q79 0 162 13.5t180.5 44.5t195 94t175.5 151l24 -32q-300 -312 -741 -312q-115 0 -223 11t-217.5 36.5 t-203.5 64t-176.5 98t-140.5 134.5t-91.5 176.5t-33.5 221.5zM104 629q0 -279 193.5 -455.5t538.5 -234.5q-486 174 -486 659q0 56 6 117q36 326 155.5 516t324.5 270q-336 -63 -534 -293t-198 -579zM586 623q0 -103 29 -186.5t76 -134.5t104 -78t116 -27h15q-82 30 -82 221 q0 131 30 291q14 78 25 130.5t27 118t33 110.5t39 89.5t49.5 75t60.5 49.5q-100 -6 -195.5 -61t-167 -142t-115.5 -207t-44 -249zM885 416q0 -101 23 -155t79 -54q180 0 270 444q78 375 78 439q0 96 -45.5 140t-109.5 44q-159 0 -262 -565q-33 -187 -33 -293zM1219 371 q1 -48 20 -84.5t48.5 -55.5t59 -28.5t56.5 -9.5q81 0 117 20q-33 14 -33 66q0 25 34 175q78 345 169 765h-279l-113 -572q-12 -63 -36 -150.5t-43 -125.5zM1599 1497q164 -73 238 -191t74 -302q0 -58 -6 -123q-52 -463 -211 -615q-1 -2 -2 -2.5t-2 -1.5l-2 -2 q196 94 313 271t117 380q0 105 -36 197.5t-91.5 156.5t-127 114t-137.5 77.5t-127 40.5z" />
<glyph unicode="A" horiz-adv-x="1624" d="M-10 0v41q109 0 154 32t85 146l316 899l-78 191q-21 52 -43.5 74t-69.5 22h-22v41h395q95 0 163 -51t105 -140l457 -1077q14 -32 24 -51t28 -41.5t43 -33.5t57 -11h30v-41h-436q-172 0 -240 160l-100 231h-522l-57 -174q-25 -73 -25 -106v-7q3 -63 65 -63h99v-41h-123 q-38 0 -59 22t-27 50q-61 -72 -168 -72h-51zM348 432h494q-37 90 -141 331t-130 304zM457 1405q6 -3 12.5 -9.5t11 -13t10.5 -18t8.5 -17.5t8 -19t6.5 -15l479 -1129q38 -88 93 -115.5t143 -27.5h266q-20 11 -39 39.5t-47 93.5l-446 1049q-41 99 -102 140.5t-165 41.5h-239z " />
<glyph unicode="B" horiz-adv-x="1490" d="M20 0v41h46q54 0 78 51.5t24 173.5v905q0 125 -25.5 180.5t-76.5 55.5h-46v39h771q194 0 266 -10q85 -14 147.5 -48t97 -80.5t50.5 -97t16 -106.5q0 -79 -33 -139.5t-94 -99t-138.5 -60t-174.5 -29.5q-3 0 -3 -2t3 -2q57 -4 105.5 -10t102.5 -19t96.5 -31t82.5 -46 t66.5 -64.5t42.5 -87t16 -111.5q0 -101 -47.5 -183.5t-143.5 -133.5q-48 -25 -108 -42.5t-107 -26t-129.5 -12.5t-124 -4.5t-141.5 -0.5h-619zM143 1405q34 -13 50 -67.5t16 -174.5v-897q0 -187 -59 -225h321q65 19 96 73t31 152v891q0 102 -36.5 173t-98.5 75h-320z M549 1401q1 -1 4 -2q35 -15 55.5 -65t25.5 -92t5 -85v-362h100q33 0 57.5 7t48.5 26.5t39 53t24.5 90t9.5 132.5q0 301 -265 301h-100q-5 0 -4 -4zM557 45q-4 -4 2 -4h80q164 0 234.5 85t70.5 296q0 85 -15 149t-37 98t-52 55t-53 26.5t-48 5.5h-100v-480q0 -165 -82 -231z M809 39q91 0 171.5 10t159 35.5t134.5 65.5t90.5 104.5t34.5 148.5t-39.5 147.5t-85.5 96.5t-135 56.5t-132 29.5t-132 14q-5 1 -7 1q49 -29 83 -110t34 -218q0 -327 -176 -381zM815 1405q143 -54 143 -301q0 -75 -8 -129.5t-24 -88.5t-27.5 -50t-30.5 -35q66 5 124 15.5 t122 33t109 54t74.5 83.5t29.5 117q0 301 -457 301h-55z" />
<glyph unicode="C" horiz-adv-x="1490" d="M78 713q0 165 58 306.5t162 243t254.5 159t328.5 57.5q155 0 249 -39t193 -142q24 13 37.5 40t13.5 57v43h41v-37q0 -101 -69 -139q22 -40 30.5 -57.5t24.5 -69t22 -111.5h-43q-20 188 -143.5 301t-304.5 113q-68 0 -123.5 -25t-92 -65t-64 -100t-42.5 -119.5t-23.5 -135 t-11 -134.5t-2.5 -130q0 -63 1 -111t5.5 -110t11.5 -109t20.5 -100t31.5 -91.5t45 -76t61 -60.5t80 -37t101 -14q193 0 320 126t134 331h43q-2 -30 -5.5 -57t-7 -47t-10 -42t-10.5 -34t-12.5 -30.5t-11.5 -25t-12.5 -24t-11.5 -20.5q69 -38 69 -140v-37h-41v43 q0 30 -13.5 57t-37.5 40q-96 -103 -191.5 -141.5t-250.5 -38.5q-184 0 -335.5 54t-254 151t-158 232t-55.5 296zM119 715q0 -129 38.5 -240.5t103 -189.5t149 -136.5t175 -89.5t183.5 -39q-132 60 -184 223t-52 486q0 297 49.5 459t176.5 246q-95 -13 -185 -48.5t-173 -97.5 t-145 -142.5t-99 -192t-37 -238.5z" />
<glyph unicode="D" horiz-adv-x="1634" d="M23 1405v41h667q113 0 198 -5.5t181 -23.5t164.5 -49t134 -85t106 -129t65 -183.5t24.5 -245.5q0 -69 -7.5 -129t-27.5 -128.5t-61.5 -135t-102.5 -125.5q-59 -57 -131 -97t-139 -61t-162 -32.5t-168 -14t-189 -2.5h-550v41h43q51 0 75.5 53.5t24.5 179.5v897 q0 125 -25.5 179.5t-76.5 54.5h-43zM143 1405q34 -13 50 -67.5t16 -174.5v-897q0 -187 -51 -225h313q67 24 97 76t30 149v891q0 102 -36.5 173t-98.5 75h-320zM553 1401q48 -22 67 -96t19 -146v-870q0 -44 -5 -86t-25 -91.5t-54 -66.5q-8 -4 0 -4h80q70 0 126 11t98 35 t73.5 55.5t53 78.5t35.5 96.5t21.5 118t10 135t2.5 154.5q0 281 -31 418q-39 149 -135 205.5t-254 56.5h-82q-8 0 0 -4zM842 41q175 18 292.5 62.5t202.5 129.5q99 99 142 231.5t43 260.5q0 165 -35 285t-113.5 208t-208.5 135.5t-317 57.5q31 -13 48 -22t46.5 -30t49 -45.5 t40.5 -66t35 -94.5q29 -124 29 -428q0 -72 -1 -122t-5 -112.5t-11.5 -106.5t-19.5 -93.5t-31 -84.5t-45 -68.5t-61.5 -57.5t-79.5 -39z" />
<glyph unicode="E" horiz-adv-x="1409" d="M23 0v41h43q52 0 77 50.5t25 172.5v907q0 234 -102 234h-43v41h1277v-41h-184q73 -14 128.5 -78t55.5 -176v-59h-40v53q-2 63 -22.5 109.5t-53.5 75t-82.5 46t-100.5 23.5t-116 6h-330q-8 0 0 -4q34 -19 54 -68.5t25 -90.5t5 -83v-403h96q100 0 174 67.5t74 186.5v16h41 v-22q0 -83 -47.5 -163t-130.5 -106q84 -30 131 -110t47 -162v-29h-41v19q0 107 -72 184.5t-176 77.5h-96v-443q0 -180 -80 -229q-2 -2 2 -2h397q26 0 47 1t60 6.5t69 15t64.5 29.5t58 47.5t39 70.5t15.5 96v47h41v-41q0 -210 -176 -272h176v-41h-1329zM145 1405 q64 -35 64 -242v-897q0 -180 -57 -225h297q43 0 74 19.5t46.5 54t22 71t6.5 80.5v891q0 104 -37.5 176t-103.5 72h-312z" />
<glyph unicode="F" horiz-adv-x="1316" d="M25 0v41h45q54 0 76 51t22 174v903q0 118 -27.5 177t-74.5 59h-41v41h1282v-41h-185q77 -23 131 -92t54 -180v-41h-41v30q0 59 -17 104.5t-41 75t-68.5 50.5t-79 31t-95 15.5t-94 6t-97.5 0.5h-221q-8 0 0 -4q30 -17 49.5 -47.5t26.5 -71t8.5 -64.5t1.5 -59v-403h88 q107 0 181.5 67.5t74.5 180.5v22h41v-22q0 -82 -47.5 -160.5t-132.5 -108.5q90 -33 135 -109t45 -163v-29h-41v29q0 105 -69.5 178.5t-186.5 73.5h-88v-426q0 -174 -86 -246q-4 -2 0 -2h154v-41h-682zM143 1405q34 -18 50 -73.5t16 -168.5v-897q0 -193 -59 -225h313 q51 0 93 63t42 162v891q0 102 -35 169t-100 79h-320z" />
<glyph unicode="G" horiz-adv-x="1583" d="M74 713q0 174 63.5 320t172 242.5t253 150t307.5 53.5q137 0 243 -40.5t200 -140.5q51 28 51 97v43h41v-37q0 -100 -68 -137q69 -98 76 -240h-41q-4 117 -72.5 215t-173.5 150q-97 47 -199 47h-20q-50 -2 -92 -19.5t-72.5 -43.5t-55 -67t-40 -80.5t-27 -95.5t-17 -100.5 t-9 -106t-4 -101t-0.5 -97.5q0 -56 0.5 -94.5t2 -96t5 -98t9 -92t14 -88t20.5 -76.5t29 -66.5t37.5 -49t48 -33.5t59.5 -11q115 0 158 88.5t43 292.5q0 330 -166 330h-78v41h760v-41h-35q-45 0 -45 -41v-295q0 -41 7 -83.5t11 -51.5q2 -3 1.5 -8t-3.5 -8 q-264 -264 -653 -264q-143 0 -264.5 39.5t-208 108.5t-148 162t-91 200.5t-29.5 222.5zM115 713q0 -128 38.5 -240.5t100 -190.5t140 -136t157.5 -88.5t154 -37.5q-23 10 -42.5 29t-34 43.5t-26.5 55t-20 65t-14 73t-9.5 78t-6 81t-2.5 82t-1 80.5q-1 20 -1 39.5t1 38.5v40 q0 305 44 466.5t167 242.5q-95 -13 -186 -49t-174.5 -98t-146.5 -143t-100.5 -192.5t-37.5 -238.5zM950 27q161 22 282.5 88t192.5 137q6 6 2 14t-10 56t-6 96v274q0 26 16 39h-471q101 -67 101 -330q0 -307 -107 -374z" />
<glyph unicode="H" horiz-adv-x="1662" d="M23 0v41h43q51 0 76.5 51.5t25.5 165.5v918q0 229 -102 229h-43v41h684v-41h-154q-8 0 0 -4q45 -31 65.5 -102t20.5 -136v-391h383v404q0 229 -109 229h-36v41h684v-41h-150q-8 0 0 -4q84 -67 84 -238v-874q0 -200 -88 -244q-8 -4 0 -4h152v-41h-682v41h43q51 0 76.5 54 t25.5 179v457h-383v-442q0 -39 -1 -57.5t-7.5 -61.5t-25 -74t-48.5 -51q-8 -4 0 -4h148v-41h-682zM143 1405q29 -10 47.5 -69.5t18.5 -172.5v-897q0 -181 -59 -225h315q64 7 98.5 68.5t34.5 156.5v891q0 102 -36.5 173t-98.5 75h-320zM999 1405q34 -21 49 -76t15 -166v-897 q0 -184 -55 -225h319q67 24 97 76t30 149v891q0 108 -40 178t-95 70h-320z" />
<glyph unicode="I" d="M25 0v41h43q51 0 76.5 54t25.5 179v889q0 131 -25.5 186.5t-76.5 55.5h-43v41h673v-41h-143q-8 0 0 -4q48 -26 67 -98t19 -140v-874q0 -175 -86 -244q-4 -4 2 -4h141v-41h-673zM143 1405q68 -36 68 -242v-897q0 -183 -57 -225h317q70 27 99.5 80t29.5 145v891 q0 105 -34 171.5t-103 76.5h-320z" />
<glyph unicode="J" horiz-adv-x="1146" d="M2 289q0 100 60 153.5t145 53.5q90 0 147.5 -59t57.5 -136q0 -54 -17.5 -88t-60.5 -82q-4 -6 -13 -15.5t-13 -15t-8 -15t-5 -19.5q-1 -20 21 -31.5t55 -11.5h3q34 0 60 19q26 20 40 49t22.5 72.5t11 80.5t2.5 82v837q0 138 -23 190t-90 52h-32v41h673v-41h-141q-4 0 0 -4 q13 -10 24.5 -21.5t19.5 -22.5t14.5 -26t11 -25t7 -27t4 -25.5t2.5 -26t1 -23v-22.5v-19v-479q0 -71 -0.5 -109.5t-2.5 -93t-6.5 -85.5t-12.5 -71.5t-20.5 -68t-30.5 -57t-42 -56.5q-66 -73 -174.5 -118t-238.5 -45q-212 0 -331.5 89t-119.5 220zM43 289q0 -173 229 -258 q-18 15 -18 41q0 13 8 28t15.5 24.5t27.5 31.5q35 39 50.5 69.5t15.5 73.5q0 71 -46.5 113.5t-117.5 42.5q-27 0 -53.5 -8t-52.5 -25.5t-42 -52t-16 -80.5zM469 18q471 44 471 471v668q0 101 -28 160.5t-95 87.5h-323q32 -17 44.5 -70.5t12.5 -171.5v-833 q0 -123 -16.5 -198.5t-65.5 -113.5z" />
<glyph unicode="K" horiz-adv-x="1662" d="M23 0v41h43q51 0 76.5 54t25.5 179v889q0 132 -25 187t-77 55h-43v41h684v-41h-152q-3 0 -4 -1.5t2 -2.5q86 -47 86 -238v-420l506 521q30 31 45.5 54t17.5 31t2 19q0 37 -47 37h-194v41h196q47 0 72 -16.5t25 -45.5v-8q28 31 67.5 50.5t77.5 19.5h147v-41h-124 q-59 0 -97 -27t-149 -141l-236 -244q-4 -4 2 -4q31 -8 68.5 -38t68.5 -87l447 -823h129v-41h-803v41h148l-279 528q-29 53 -47.5 72t-42.5 21v-373v-10q0 -24 -0.5 -38t-2.5 -41t-7.5 -46.5t-15 -42t-25.5 -39.5t-37 -29q-2 -2 0 -2h154v-41h-682zM143 1405q34 -18 50 -73.5 t16 -168.5v-897q0 -184 -55 -225h311q76 22 104.5 75.5t28.5 149.5v891q0 105 -33 171.5t-102 76.5h-320zM655 702q58 -11 99 -86l305 -575h426l-434 797q-33 59 -67.5 85t-76.5 33z" />
<glyph unicode="L" horiz-adv-x="1247" d="M23 0v41h51q47 0 70.5 46.5t23.5 162.5v913q0 132 -26 187t-81 55h-38v41h684v-41h-154q-8 0 0 -4q86 -54 86 -238v-899q0 -66 -20.5 -132t-67.5 -87q-8 -4 0 -4h311q345 0 352 274v39h41v-41q0 -106 -47 -175.5t-129 -96.5h176v-41h-1232zM145 1405q64 -33 64 -242v-897 q0 -184 -55 -225h317q127 27 127 225v891q0 105 -33 171.5t-102 76.5h-318z" />
<glyph unicode="M" horiz-adv-x="1878" d="M18 0v41h37q86 0 117 50t31 190v1110q-20 14 -56 14h-92v41h488q187 0 252 -195l184 -542l207 626q41 111 155 111h433v-41h-154q-8 0 0 -4q32 -11 53 -59t27 -93t6 -86v-874q0 -199 -86 -244q-2 0 -2 -2l2 -2h152v-41h-682v41h43q51 0 76.5 54t25.5 179v887 q0 88 -25 113l-422 -1274h-22q-34 0 -61 22.5t-39 61.5l-377 1190q-21 65 -45 80v-1075q0 -36 1 -57t4 -53t11.5 -51.5t22 -39t36 -28.5t52.5 -9h63v-41h-65q-47 0 -87.5 21.5t-62.5 68.5q-15 -40 -56 -65t-106 -25h-39zM258 1405q42 -17 76 -125l366 -1163q12 -40 23 -55.5 t37 -18.5l198 604l-215 608q-54 150 -211 150h-274zM1219 41h311q63 6 99 66.5t36 158.5v891q0 105 -33 171.5t-102 76.5h-189q-39 0 -69.5 -22t-40.5 -60q45 -52 45 -160v-897q0 -183 -57 -225z" />
<glyph unicode="N" horiz-adv-x="1492" d="M10 0v41h37q84 0 116 51.5t32 143.5v1015q0 40 -1.5 62.5t-7 46.5t-17.5 34.5t-32 10.5h-112v41h493q64 0 114.5 -14.5t88.5 -44t63 -59t54 -73.5l436 -675v602q0 90 -18.5 139.5t-50.5 66.5t-87 17h-37v41h39q72 0 112.5 -26.5t63.5 -80.5q18 51 59 79t85 28h61v-41h-51 q-41 0 -69 -18t-42 -52t-19 -70t-5 -83v-1182h-72q-47 0 -86 11t-64.5 25.5t-52 43.5t-41 50t-38.5 60l-678 1092q-25 39 -54 64q7 -21 7 -84v-1026q0 -92 30.5 -141.5t120.5 -53.5h47v-41h-49q-59 0 -107.5 25.5t-64.5 76.5q-13 -44 -55.5 -73t-108.5 -29h-39zM215 1405 q62 -25 123 -125l659 -1065q54 -86 111 -130t129 -44h37v461l-488 745q-58 89 -120.5 123.5t-141.5 34.5h-309z" />
<glyph unicode="O" horiz-adv-x="1720" d="M74 731q0 167 61.5 308.5t168 237t250 149t306.5 53.5q218 0 396.5 -91t284.5 -263t106 -394q0 -165 -56.5 -304.5t-158 -238t-249 -153.5t-323.5 -55q-235 0 -414 95t-275.5 265t-96.5 391zM115 731q0 -127 36 -237t97 -190t142 -140t169.5 -93.5t181.5 -43.5 q-41 16 -72.5 49t-52.5 71.5t-35.5 97.5t-22 108.5t-11.5 124t-5 124.5t-1 129v43q0 98 1 147.5t6 132t18 130t34.5 103t58 91t86.5 56.5q-83 -8 -168.5 -40.5t-169 -92t-148 -139t-104.5 -192t-40 -239.5zM582 731q0 -60 1 -106.5t4 -107t8.5 -107t16 -99t24.5 -91 t35.5 -75.5t48 -60.5t62 -37.5t78.5 -14q55 0 98 23t72 59.5t50 94.5t32 114t17.5 133t8 136t1.5 138v44q0 20 -0.5 41.5t0.5 43.5v23q0 35 -2 71q-3 48 -7 96t-14 94.5t-23 88.5t-34.5 77t-49 60.5t-65.5 40t-84 14.5q-51 0 -93 -18t-70 -49.5t-49.5 -74.5t-33 -92.5 t-20 -103.5t-9.5 -108q-1 -53 -3 -105q-1 -26 -1 -50t1 -47v-46zM975 1434q30 -13 55.5 -31t45 -44.5t34.5 -49.5t26 -62.5t19 -65.5t12.5 -76t7.5 -76.5t4 -85t1 -84v-89.5v-39q0 -78 -1 -129t-5 -125t-11.5 -123.5t-22.5 -108t-36 -97.5t-52.5 -72t-72.5 -49 q117 13 226.5 64t200 136t145.5 216t55 288q0 127 -40 239.5t-105 192t-148.5 139t-169 92t-168.5 40.5z" />
<glyph unicode="P" horiz-adv-x="1449" d="M20 0v41h43q51 0 77 54t26 179v902q0 122 -27 175.5t-86 53.5h-33v41h834q77 0 134.5 -3.5t121 -14t108.5 -29t88.5 -50.5t69.5 -76t42 -108t16 -145q0 -139 -74.5 -233.5t-202 -137.5t-303.5 -43h-217v-317q0 -200 -86 -244q-8 -4 0 -4h151v-41h-682zM141 1405 q34 -18 50 -73.5t16 -168.5v-897q0 -170 -55 -225h313q62 9 96.5 68t34.5 157v891q0 105 -33 171.5t-102 76.5h-320zM549 1401q35 -19 56 -67.5t26.5 -89.5t5.5 -81v-516h63q136 0 185 83.5t49 287.5q0 150 -26 236t-73 118.5t-124 32.5h-162q-8 0 0 -4zM850 1405 q33 -15 56.5 -43.5t36.5 -61.5t20.5 -82t9.5 -93t2 -107q0 -316 -117 -369q78 0 150.5 10.5t144 37t123.5 67t84.5 105t32.5 145.5q0 73 -14.5 131.5t-39 99t-62.5 70t-77.5 47t-93 27.5t-100.5 13t-107 3h-49z" />
<glyph unicode="Q" horiz-adv-x="1720" d="M74 731q0 167 61.5 308.5t168 237t250 149t306.5 53.5q218 0 396.5 -91t284.5 -263t106 -394q0 -178 -64 -324t-182 -247q14 -54 14 -107q0 -130 -77.5 -213.5t-209.5 -83.5q-140 0 -247 80v41q26 -33 92 -33q40 0 69 24t29 64q0 18 -8 38.5t-25 25.5q-88 -16 -178 -16 q-235 0 -414 95t-275.5 265t-96.5 391zM115 731q0 -127 36 -237t97 -190t142 -140t169.5 -93.5t181.5 -43.5q-41 16 -72.5 49t-52.5 71.5t-35.5 97.5t-22 108.5t-11.5 124t-5 124.5t-1 129v43q0 98 1 147.5t6 132t18 130t34.5 103t58 91t86.5 56.5q-83 -8 -168.5 -40.5 t-169 -92t-148 -139t-104.5 -192t-40 -239.5zM582 731q0 -60 1 -106.5t4 -107t8.5 -107t16 -99t24.5 -91t35.5 -75.5t48 -60.5t62 -37.5t78.5 -14q55 0 98 23t72 59.5t50 94.5t32 114t17.5 133t8 136t1.5 138v44q-1 20 -1 41.5t1 43.5v23q0 35 -2 71q-3 48 -7 96t-14 94.5 t-23 88.5t-34.5 77t-49 60.5t-65.5 40t-84 14.5q-51 0 -93 -18t-70 -49.5t-49.5 -74.5t-33 -92.5t-20 -103.5t-9.5 -108t-3 -105q-1 -26 -1 -50t1 -47v-46zM975 1434q30 -13 55.5 -31t45 -44.5t34.5 -49.5t26 -62.5t19 -65.5t12.5 -76t7.5 -76.5t4 -85t1 -84v-89.5v-39 q0 -78 -1 -129t-5 -125t-11.5 -123.5t-22.5 -108t-36 -97.5t-52.5 -72t-72.5 -49q117 13 226.5 64t200 136t145.5 216t55 288q0 127 -40 239.5t-105 192t-148.5 139t-169 92t-168.5 40.5zM999 -184v-2q66 -17 129 -17q67 0 117 24t77 62.5t39.5 80t12.5 83.5q0 50 -10 84 q-121 -88 -274 -125q22 -29 22 -74q0 -43 -26.5 -79.5t-86.5 -36.5z" />
<glyph unicode="R" horiz-adv-x="1542" d="M20 0v41h48q102 0 102 217v913q0 125 -25.5 179.5t-76.5 54.5h-48v41h785q73 0 113 -1t114.5 -7.5t119 -19t101.5 -38t89 -61.5t54.5 -92.5t22.5 -128.5q0 -163 -123 -252q-113 -83 -241 -92q51 -5 96 -15t99.5 -34.5t92.5 -60t64.5 -97t26.5 -139.5v-152q0 -143 63 -143 q4 0 7 0.5t5.5 0.5t5.5 1t5 2t5.5 3t5 3.5t6 5t6.5 5.5t8.5 7.5t9.5 8.5l20 -21q-15 -23 -54 -54.5t-115.5 -63t-158.5 -31.5q-166 0 -241.5 72.5t-75.5 242.5v180q0 256 -211 256h-84v-442q0 -47 -3 -80t-22.5 -82.5t-56.5 -79.5q-3 -1 -3 -3.5t3 -2.5h148v-41h-687z M145 41h306q69 0 109 62.5t40 162.5v891q0 105 -33 171.5t-102 76.5h-320q34 -18 50 -73.5t16 -168.5v-897q0 -88 -19.5 -148.5t-46.5 -76.5zM555 1401q34 -20 54.5 -69t26 -90.5t5.5 -82.5v-387h84q42 0 71.5 5.5t61 24.5t50.5 52t31.5 91.5t12.5 139.5q0 188 -59.5 254 t-220.5 66h-117q-8 0 0 -4zM858 1405q67 -22 101 -93.5t34 -226.5q0 -143 -36 -216.5t-87 -96.5h45q125 0 229 36t169 110t65 174q0 313 -450 313h-70zM860 729q71 -34 94 -94.5t23 -159.5v-180q0 -84 18.5 -139.5t56.5 -84.5t85 -40t116 -11q116 0 222 60v2q-26 3 -43 18.5 t-25 41.5t-11 52.5t-3 61.5v152q0 63 -20.5 113.5t-52.5 83.5t-79 57t-90 36.5t-97 20t-88.5 9t-74.5 1.5h-31z" />
<glyph unicode="S" horiz-adv-x="1249" d="M53 1044q0 78 35.5 154.5t101 139.5t169 102t227.5 39q145 0 241.5 -46t171.5 -135q43 23 43 93v55h41v-49q0 -60 -14 -86.5t-45 -48.5q52 -81 80 -230h-43q-79 406 -475 406q-120 0 -187 -46.5t-67 -123.5q0 -38 13.5 -69t32.5 -51.5t57 -41.5t68.5 -33.5t86.5 -32.5 l194 -71q154 -57 224 -101q193 -126 194 -360q0 -94 -37.5 -186t-106 -169t-179.5 -125t-244 -48q-149 0 -274.5 65.5t-196.5 171.5q-39 -21 -39 -92v-96h-41v90q0 61 12.5 87.5t42.5 47.5q-47 73 -76 229h43q29 -211 178.5 -337t350.5 -126q126 0 213.5 56.5t87.5 159.5 q0 58 -26.5 104.5t-75.5 78.5t-95 51.5t-108 37.5l-137 41q-68 20 -127 47t-118.5 69.5t-101.5 94t-68 125t-26 159.5zM94 1044q0 -317 416 -454l137 -45q139 -46 197 -82q132 -83 133 -227q0 -87 -55 -142q94 60 166.5 170t72.5 242q0 67 -15 122.5t-44 95.5t-62.5 70.5 t-80 54t-85 40t-88.5 34.5q-13 5 -20 7l-195 71q-5 2 -14 5q-128 47 -176 81q-89 65 -90 181q0 80 45 125q-93 -39 -167.5 -133t-74.5 -216z" />
<glyph unicode="T" horiz-adv-x="1292" d="M6 1067v35q0 99 36 180.5t110 122.5h-138v41h1266v-41h-188q90 -27 143 -105t53 -198v-35h-41v18q0 77 -22.5 136.5t-56 93t-79 55t-84 28.5t-77.5 7h-129q-8 0 0 -4q37 -27 57.5 -73t24.5 -82t4 -87v-870q0 -201 -86 -244q-8 -4 0 -4h209v-41h-805v41h108q51 0 77 54 t26 179v928q0 102 -34.5 152.5t-94.5 50.5q-101 0 -169.5 -78t-68.5 -237v-23h-41zM385 1405q35 -25 52.5 -79.5t17.5 -162.5v-897q0 -186 -52 -225h314q67 24 97 76t30 149v891q0 107 -41 177.5t-109 70.5h-309z" />
<glyph unicode="U" horiz-adv-x="1492" d="M10 1405v41h682v-41h-145q-8 0 0 -4q28 -19 46 -47t24.5 -65.5t8 -61.5t1.5 -64v-680q0 -80 12.5 -152t42 -142t88 -112t139.5 -42q183 0 282 118t99 361v694q0 102 -37 149.5t-118 47.5h-37v41h39q65 0 110 -28t60 -68q14 47 62 71.5t110 24.5h43v-41h-31q-55 0 -88 -11 t-48.5 -38t-19.5 -56.5t-4 -82.5v-703q0 -125 -26 -219t-70.5 -153.5t-113 -96t-145.5 -51t-175 -14.5q-175 0 -299.5 39.5t-200 119.5t-110.5 192t-35 265v567q0 132 -25.5 187t-77.5 55h-43zM139 1405q33 -24 45.5 -75.5t12.5 -166.5v-581q0 -159 41 -268t137 -185 q141 -113 430 -113q-31 11 -59 29.5t-58.5 55.5t-52 86t-35.5 125.5t-14 170.5v674q0 71 -13.5 124t-49 88.5t-91.5 35.5h-293z" />
<glyph unicode="V" horiz-adv-x="1568" d="M0 1405v41h803v-41h-195q-6 0 0 -4q26 -18 50 -52t36.5 -59.5t31.5 -70.5t22 -52l190 -522q32 -79 44 -152q9 -52 9 -83q0 -12 -2 -21l307 840q27 80 29 106v9q0 61 -65 61h-105v41h117q85 0 96 -78q51 78 164 78h39v-41h-25q-83 0 -122.5 -34.5t-80.5 -143.5l-409 -1094 q-60 -153 -236 -153q-109 0 -178 55l23 35l35 -23q18 -14 46 -11t38 27q9 23 -7 56l-422 1048q-61 143 -92.5 190.5t-81.5 47.5h-59zM152 1405q22 -12 50 -62.5t81 -175.5l409 -1022q13 -38 13 -61v-6q-1 -18 -11 -33.5t-24 -21.5q15 -3 47 -3q130 0 178 127l37 101 q21 58 21 127q0 107 -50 241l-203 551q-89 238 -200 238h-348z" />
<glyph unicode="W" horiz-adv-x="2256" d="M0 1405v41h713v-41h-138q-8 0 0 -4q74 -46 138 -230l178 -518q42 -123 42 -212q0 -13 -1 -25l182 497l-94 261q-42 116 -80 173.5t-84 57.5h-33v41h707v-41h-137q-8 0 0 -4q75 -34 145 -238l182 -524q31 -83 31 -152q0 -19 -2 -36q0 -4 2 0l252 778q22 74 22 112 q0 64 -69 64h-98v41h116q83 0 94 -78q51 78 173 78h20v-41h-16q-83 0 -124 -37t-75 -141l-354 -1084q-55 -163 -211 -163q-136 0 -215 63l22 37q55 -35 70 -35q35 0 35 46q0 39 -25 112l-231 657l-256 -717q-61 -163 -211 -163q-136 0 -215 63l22 37q42 -33 66 -33 q13 0 21.5 4t13 12t6.5 16.5t0.5 21t-3 22.5t-5.5 24t-7 22t-7 19.5t-5 14.5l-356 971q-45 124 -84 177.5t-88 53.5h-29zM119 1405q31 -20 58.5 -67.5t74.5 -170.5l348 -956q27 -82 27 -119q0 -43 -29 -61q33 -11 61 -11q67 0 107.5 28t64.5 95l39 107q23 71 23 139 q0 122 -35 223l-190 555q-20 58 -46 108t-66 90t-81 40h-356zM944 1405q33 -21 56.5 -65t68.5 -173l342 -956q28 -77 28 -122t-28 -58q22 -11 68 -11q62 0 100.5 27.5t62.5 93.5l35 97q29 87 31 184v12q0 91 -29 178l-190 555q-30 85 -85.5 161.5t-115.5 76.5h-344z" />
<glyph unicode="X" horiz-adv-x="1472" d="M23 1405v41h776v-41h-156q-8 0 0 -4q36 -20 102 -135l185 -326l188 289q62 94 62 123q0 53 -70 53h-98v41h116q83 0 93 -74q60 74 168 74h41v-41h-29q-58 0 -91.5 -14t-64 -49t-82.5 -117l-211 -330l371 -659q17 -30 26 -68q6 -24 6 -47q0 -13 -2 -27q-5 -36 -28 -53h135 v-41h-733v41h72q25 0 36 16t8.5 40t-10.5 48.5t-20 44.5l-235 416l-256 -395q-62 -94 -62 -125q0 -28 16.5 -36.5t51.5 -8.5h94v-41h-113q-82 0 -92 74q-22 -31 -64.5 -52.5t-103.5 -21.5h-18v41h16q52 0 84 15t60 48.5t83 116.5l279 428l-346 615q-41 73 -71 107t-70 34 h-43zM154 1405q35 -19 102 -141l598 -1059q16 -28 25.5 -58.5t8 -60.5t-19.5 -45h359q44 0 65 20.5t19.5 51.5t-10 58.5t-21.5 49.5l-588 1049q-78 135 -137 135h-401z" />
<glyph unicode="Y" horiz-adv-x="1579" d="M0 1405v41h791v-41h-173q-6 0 -2 -4q61 -28 115 -135l207 -416q63 -130 72 -160l262 535q37 78 37 123q0 57 -68 57h-90v41h109q86 0 96 -74q49 74 172 74h51v-41h-43q-84 -3 -125 -37.5t-98 -150.5l-285 -576q16 -91 16 -199v-143q0 -191 -75 -254q-4 -4 2 -4h192v-41 h-805v41h109q106 0 106 240v217q0 67 -45 147l-329 617q-77 143 -162 143h-37zM137 1405q28 -14 50 -44t55 -91l329 -615q43 -82 43 -149v-236q0 -182 -59 -229h313q47 0 79 39.5t44.5 90t12.5 103.5v191q0 38 -2.5 71.5t-10.5 66.5t-12.5 52.5t-19 52.5t-18.5 42t-22 45 t-20 39l-203 411q-20 41 -49 74.5t-55 50.5t-44.5 26t-25.5 9h-385z" />
<glyph unicode="Z" horiz-adv-x="1280" d="M-27 0v41h29q61 0 112 50.5t105 170.5l486 1071q7 20 7 35q0 37 -46 37h-127q-58 0 -113 -9t-109 -30.5t-94 -54t-65 -84t-25 -115.5v-57h-41v53q0 117 66 192.5t166 104.5h-205v41h1040q39 0 57 -17.5t17 -41.5t-14 -54l-490 -1073q-71 -154 -184 -215q-4 -4 0 -4h227 q25 0 56 3.5t74 13.5t83.5 26t82 44t72 64.5t49.5 90.5t19 118v66h41v-80q0 -111 -66.5 -205t-197.5 -141h240v-41h-1252zM109 41h337q67 21 135.5 83t112.5 159l488 1060q9 20 9 33q0 29 -44 29h-402q13 -7 14.5 -28.5t-9.5 -43.5l-486 -1071q-94 -206 -155 -221z" />
<glyph unicode="[" d="M143 -178v1413q0 102 17 163t65 93q9 6 0 6h-80v41h629v-41h-106q-52 0 -77.5 -56t-25.5 -186v-1448q0 -125 26 -179t77 -54h106v-41h-629v41h84q8 0 0 6q-86 73 -86 242zM186 -201q0 -87 43 -156t95 -69h258q-56 42 -56 225v1456q0 113 16 168.5t50 73.5h-254 q-55 0 -90 -35.5t-48.5 -88.5t-13.5 -124v-1450z" />
<glyph unicode="\" horiz-adv-x="854" d="M41 1446h313l461 -1446h-313zM100 1405l437 -1364h219l-437 1364h-219z" />
<glyph unicode="]" d="M37 -426h106q51 0 77 54t26 179v1448q0 130 -25.5 186t-77.5 56h-106v41h629v-41h-80q-9 0 0 -6q48 -32 65 -93t17 -163v-1413q0 -169 -86 -242q-8 -6 0 -6h84v-41h-629v41zM219 1497q34 -18 50 -73.5t16 -168.5v-1456q0 -183 -56 -225h258q53 0 95.5 65.5t42.5 159.5 v1450q0 71 -13.5 124t-48.5 88.5t-90 35.5h-254z" />
<glyph unicode="^" horiz-adv-x="1366" d="M231 664l355 782h211l360 -782h-231l-234 526l-231 -526h-230zM289 700h141l262 586l262 -586h142l-326 709h-156z" />
<glyph unicode="_" horiz-adv-x="1024" d="M-20 -213h1064v-43h-1064v43z" />
<glyph unicode="`" horiz-adv-x="598" d="M29 1384q0 41 61 41h287l190 -342l-45 -26l-436 264q-5 3 -13.5 8.5t-12 7.5t-9.5 6.5t-8.5 7t-6 6.5t-4.5 7.5t-2 8.5t-1 11zM76 1380q0 -5 12 -14l428 -266l-164 291h-260q-16 0 -16 -11z" />
<glyph unicode="a" horiz-adv-x="1228" d="M57 236q0 101 49.5 169.5t165.5 114.5q66 26 168.5 40.5t171.5 14.5q33 0 47 -2v256q0 26 -1 40t-4.5 38.5t-12 38.5t-23.5 29t-39.5 22t-58.5 7q-52 0 -81 -23t-29 -57q0 -22 20 -48.5t39.5 -56t19.5 -59.5q0 -49 -37.5 -84t-85.5 -48.5t-98 -13.5q-74 0 -119 33t-45 92 q0 84 50.5 147t128.5 95.5t153 47.5t144 15q134 0 232 -29.5t156 -85t85.5 -128.5t27.5 -166v-463q0 -78 43 -78q23 0 52 37l24 -25q-56 -67 -118 -94.5t-150 -27.5q-180 0 -260 137q-42 -77 -118.5 -108t-188.5 -31q-143 0 -225.5 72t-82.5 182zM98 236q0 -102 78.5 -159 t188.5 -57q142 0 221 52h-11q-46 0 -77.5 44.5t-43.5 99.5t-12 110q0 176 115 217q-43 -4 -78.5 -9t-84.5 -16t-87.5 -25t-79.5 -38t-67.5 -53.5t-44 -72t-17.5 -93.5zM145 739q0 -38 33 -61t90 -23q70 0 125.5 26.5t55.5 74.5q0 26 -39 82t-39 86q0 35 37 67 q-46 -13 -87 -32.5t-83.5 -49.5t-67.5 -74t-25 -96zM483 326q0 -91 27 -156.5t80 -65.5q16 0 28 5t19.5 18.5t12 28t6.5 41.5t2.5 50.5t0.5 63.5v224q-2 2 -22 2q-75 0 -114.5 -58t-39.5 -153zM627 1008q40 -18 56.5 -60t16.5 -119v-643q0 -63 70 -114.5t162 -51.5 q40 0 90.5 12.5t77.5 33.5q-60 12 -60 106v463q0 168 -101 264.5t-312 108.5z" />
<glyph unicode="b" horiz-adv-x="1323" d="M12 0v41h43q51 0 77 54t26 179v908q0 119 -26 171t-77 52h-30v41q181 0 255 6.5t209 28.5q9 0 11 -2q78 -66 78 -197v-375q65 137 272 137q83 0 156 -32t131 -93.5t91.5 -160.5t33.5 -223q0 -253 -120 -404t-298 -151q-107 0 -180 37t-91 94q-6 -40 -41 -75.5t-96 -35.5 h-424zM141 41h275h6q115 0 115 123v1098q0 46 -12.5 97.5t-39.5 76.5q-2 2 -6 2q-168 -33 -317 -33h-17q30 -25 42 -73t12 -150v-934q0 -78 -16.5 -133.5t-41.5 -73.5zM578 446q0 -62 1.5 -109t8 -100.5t17 -88t30.5 -57.5t47 -23q28 0 49 20t34 58t21.5 79t12.5 96.5t5 97 t1 93.5t-1 93t-5 95.5t-12.5 94t-21.5 76t-34 56t-49 19.5q-14 0 -30.5 -11.5t-33.5 -35t-28.5 -70.5t-11.5 -108v-275zM700 981h2q40 0 70 -34q30 -35 45.5 -102t22 -146.5t6.5 -186.5q0 -228 -29 -346.5t-100 -128.5q57 -17 127 -17q161 0 269 143t108 372 q0 115 -31 206.5t-83.5 147.5t-118 85.5t-138.5 29.5q-107 0 -150 -23z" />
<glyph unicode="c" horiz-adv-x="1148" d="M61 498q0 155 78.5 281t210 195.5t287.5 69.5q83 0 167 -20t155.5 -56t116 -95t44.5 -130q0 -82 -59.5 -128t-149.5 -46q-90 -1 -146 41q-52 39 -52 109v10q1 39 41.5 96.5t40.5 87.5q0 91 -121 91q-38 0 -66.5 -19t-45 -60.5t-27 -78.5t-14.5 -104.5t-4.5 -105 t-0.5 -110.5v-28q0 -50 1 -85.5t6 -88t14.5 -90t27.5 -79t43 -67t64 -42.5t88 -17q97 0 181 64.5t149 178.5l32 -20q-26 -44 -51 -79t-64 -73t-82.5 -62.5t-104 -41t-130.5 -16.5q-158 0 -281.5 43t-197.5 116t-112 164.5t-38 194.5zM102 498q0 -141 73 -251.5t195.5 -169.5 t270.5 -59q-46 19 -78 58t-49 82t-26 107.5t-11 112.5t-2 120q0 248 23 364.5t94 151.5q-69 -14 -133 -37.5t-131 -66t-115.5 -97t-79.5 -136.5t-31 -179zM754 725q0 -54 42.5 -86.5t114.5 -32.5q70 0 119 35t49 98q0 89 -78 154t-190 92q25 -22 25 -72q0 -38 -41 -94.5 t-41 -93.5z" />
<glyph unicode="d" horiz-adv-x="1323" d="M63 543q0 117 35 213.5t94 158.5t133.5 95.5t155.5 33.5q109 0 176 -37t91 -94v265q0 227 -105 227h-33v41h129q144 0 330 35q17 2 27 -4q75 -56 75 -217v-971q0 -46 -4 -79t-23 -80t-54 -85q-4 -4 2 -4h145v-41h-489v94q-67 -114 -269 -114q-178 0 -297 152t-119 411z M104 543q0 -235 107 -379t268 -144q77 0 121 13q-30 1 -52.5 20t-35 60.5t-20.5 76t-11 98.5t-3.5 94.5t-0.5 95.5v34q0 57 0.5 86t2 81.5t5 81.5t9.5 70t16 63.5t24 45.5t33.5 33t44.5 10h11q-43 21 -134 21q-160 0 -272.5 -125t-112.5 -336zM518 423q0 -25 1.5 -71.5 t4.5 -74.5t8 -66.5t14 -61t20.5 -45t28.5 -33t38 -10.5q115 0 115 254v359q0 56 -3.5 95.5t-14.5 85.5t-37 70.5t-66 24.5q-26 0 -46 -17t-31.5 -54t-18.5 -69.5t-9.5 -91t-3 -90t-0.5 -92.5v-8v-7.5v-8.5v-17v-72zM733 1405q33 -30 44 -82.5t11 -140.5v-1141h195 q62 0 104.5 73t42.5 173v958q0 62 -10.5 107t-42.5 84q-2 2 -6 2q-168 -33 -313 -33h-25z" />
<glyph unicode="e" horiz-adv-x="1208" d="M61 502q0 147 73 270.5t205 197.5t294 74q147 0 263 -55t186.5 -167.5t70.5 -266.5v-27h-633v-114q0 -101 8 -152q5 -34 7.5 -49.5t9.5 -45.5t15.5 -45t24 -36t35 -31t48.5 -18t65 -8q65 0 121 20t93.5 48t72 72.5t53.5 78.5t41 80l39 -13q-38 -89 -86 -152.5t-95 -98.5 t-108.5 -54.5t-112 -24.5t-120.5 -5q-122 0 -224 32.5t-180 95.5t-122 164t-44 230zM102 502q0 -224 142 -353t372 -129q-28 9 -50.5 30.5t-36.5 47t-24 64t-15 68t-7.5 74t-3 66.5t-0.5 60v195q0 47 0.5 71.5t4.5 79.5t11.5 90t24 74t39.5 61q-186 -21 -321.5 -164 t-135.5 -335zM520 569h113q61 0 78.5 38.5t17.5 131.5q0 50 -3 88t-12 80.5t-29.5 66t-51.5 23.5q-17 0 -31 -7.5t-24.5 -23t-19 -32t-14 -43.5t-10 -49t-7 -55.5t-4.5 -56t-2.5 -58t-0.5 -53.5v-50zM696 1008q46 -28 60 -93.5t14 -175.5q0 -131 -37 -170h379 q0 172 -104 289t-312 150z" />
<glyph unicode="f" horiz-adv-x="868" d="M10 0v41h43q103 0 103 217v725h-138v41h138v14q0 212 129 326.5t360 114.5q67 0 129.5 -14t117 -42.5t87.5 -79.5t33 -118q0 -77 -46 -122.5t-114 -45.5q-82 0 -126 42.5t-44 106.5q0 35 12 64.5t27 46t27 37t12 39.5q0 45 -68 45q-114 0 -114 -197v-217h186v-41h-186 v-694q0 -35 -1 -55.5t-7 -61t-22.5 -73t-43.5 -54.5q-8 -4 0 -4h139v-41h-633zM139 41h297q101 51 101 248v952q0 165 75 205q-65 -3 -123 -17.5t-112.5 -45.5t-93.5 -76.5t-62.5 -114t-23.5 -154.5v-780q0 -173 -58 -217zM723 1206q0 -45 36.5 -77.5t92.5 -32.5 q54 0 86.5 34.5t32.5 94.5q0 71 -49 128t-129 70q10 -13 10 -32q0 -26 -40 -84t-40 -101z" />
<glyph unicode="g" horiz-adv-x="1323" d="M63 51q0 102 53 179.5t146 121.5q-166 97 -166 310q0 51 17.5 102t58 102t99.5 90t151 63.5t203 24.5q233 0 399 -149q26 32 42.5 50t41.5 39t51.5 30.5t57.5 9.5q60 0 98.5 -39.5t38.5 -95.5q0 -50 -30.5 -82.5t-74.5 -32.5q-35 0 -58 17.5t-32 38t-24 38t-37 17.5 q-31 0 -45 -19q19 -19 37.5 -43.5t37.5 -71t19 -92.5q0 -109 -69.5 -200t-189.5 -144t-263 -53q-91 0 -161.5 14t-109.5 27.5t-51 13.5q-43 0 -65.5 -23.5t-22.5 -66.5q0 -20 9 -35t29.5 -24t42 -14.5t59 -8.5t68 -3.5t79.5 -0.5h393q22 0 40.5 -1t52.5 -6.5t61.5 -15.5 t59.5 -30t53 -47t35.5 -70.5t14.5 -97.5q0 -103 -36.5 -181.5t-94 -125.5t-139.5 -76.5t-162.5 -40t-173.5 -10.5q-56 0 -100 1.5t-103 6.5t-103 14t-90.5 25.5t-76 39.5t-48.5 58t-19 78q0 66 44.5 104.5t110.5 43.5q-158 72 -158 241zM104 51q0 -50 17 -91t45 -67.5 t54.5 -42t53.5 -24.5q52 -16 132 -23q75 -7 135 -7h9q64 1 163.5 4t144.5 3q52 0 88 -4.5t71 -17t52.5 -39.5t17.5 -68q0 -48 -24 -80q12 10 27 28t35 51t33 86t13 114q0 227 -280 227h-389q-68 0 -114 2.5t-89 10t-67.5 21.5t-39 37t-14.5 56q0 15 4 23q-78 -78 -78 -199z M106 -338q0 -54 35.5 -90.5t105 -56t155.5 -27.5t204 -8q441 0 441 194q0 24 -10 40.5t-25 26t-42 14.5t-51.5 6t-62.5 1q-35 0 -160 -2q-57 -2 -106 -2q-59 0 -106 2q-88 3 -195 15q-21 2 -40 2q-59 0 -95 -24q-48 -32 -48 -91zM137 662q0 -29 5 -59.5t18.5 -73.5 t46.5 -83.5t82 -68.5q23 -14 48.5 -25t43 -17.5t48 -13t42.5 -9t48.5 -8t45.5 -7.5q-86 45 -86 316v30q1 65 3.5 109t11 101t27.5 96t48 59q-102 -10 -185.5 -43.5t-136.5 -81.5t-81.5 -105t-28.5 -116zM520 643q0 -334 105 -334q90 0 90 334q0 41 -1 74t-3.5 76.5t-9 75.5 t-16 61.5t-25 45t-35.5 15.5q-30 0 -52 -35t-33 -91.5t-15.5 -111.5t-4.5 -110zM676 297q61 11 116.5 28t114.5 47t101.5 68.5t70 95t27.5 123.5q0 68 -56.5 142t-157.5 132t-216 75q29 -18 46 -52.5t24 -92.5t8.5 -99t1.5 -121q0 -152 -20.5 -243t-59.5 -103zM1090 915 q14 7 22 7q26 0 44 -17t26.5 -37.5t25.5 -37.5t41 -17q32 0 48 23t16 53q0 38 -24.5 67t-78.5 29q-26 0 -50 -12t-36 -23.5t-34 -34.5z" />
<glyph unicode="h" horiz-adv-x="1339" d="M0 0v41h43q51 0 76.5 54t25.5 179v906q0 123 -25 174t-77 51h-31v41q315 2 459 33q17 0 21 -4q38 -38 55.5 -81t17.5 -114v-436q56 94 153.5 147t215.5 53q152 0 210 -87t58 -259v-409q0 -60 -20 -133.5t-60 -110.5q-4 -4 2 -4h144v-41h-635v41h43q51 0 76.5 54t25.5 179 v521q0 22 -1.5 36.5t-7.5 30.5t-19.5 24.5t-34.5 8.5q-43 0 -74 -24.5t-46.5 -62t-22.5 -73t-7 -67.5v-498q0 -170 -151 -170h-414zM125 1405q33 -17 47 -68.5t14 -154.5v-934q0 -78 -16 -133.5t-41 -73.5h293q102 0 102 123v1114q0 52 -10 89.5t-41 68.5q-4 4 -12 2 q-41 -10 -87.5 -16.5t-78 -8.5t-79 -4.5l-66.5 -3.5h-25zM711 934h18q90 0 90 -139v-521q0 -115 -13.5 -160t-41.5 -73h272q48 0 86.5 68.5t38.5 179.5v393q0 178 -54 250t-181 72q-68 0 -130 -23.5t-85 -46.5z" />
<glyph unicode="i" horiz-adv-x="712" d="M10 0v41h43q51 0 77 54t26 179v486q0 101 -8.5 146.5t-28.5 61t-66 15.5h-30v41h86q84 0 151 5t103 10t126 20q7 0 11 -4q75 -75 75 -195v-571q0 -192 -88 -244q-4 -4 2 -4h152v-41h-631zM137 41h240q30 0 55.5 11t50 36.5t38.5 77t14 123.5v571q0 95 -54 156q-2 2 -6 2 q-214 -33 -299 -33h-24q30 -16 37.5 -60.5t7.5 -160.5v-516q0 -79 -18 -136.5t-42 -70.5zM166 1294q0 76 60.5 132.5t140.5 56.5q79 0 137.5 -56t58.5 -133q0 -79 -58 -133.5t-138 -54.5q-81 0 -141 55t-60 133zM211 1294q0 -63 45 -105t111 -42t109.5 42t43.5 105 q0 62 -44 105t-109 43q-66 0 -111 -43t-45 -105z" />
<glyph unicode="j" horiz-adv-x="681" d="M-287 -309q0 -103 102.5 -174.5t241.5 -71.5q238 0 392 190q36 44 60.5 94.5t37 90t18.5 98.5t7 91t1 97v754q0 122 -75 197q-4 5 -17 2q-170 -35 -393 -35h-68v-41h31q40 0 60 -14t31.5 -62.5t11.5 -146.5v-1065q0 -89 -14 -133q-24 -76 -85 -76q-29 0 -47 16t-18 41 q0 12 4 23t8.5 17.5t13.5 19t13 18.5q37 56 37 105q0 67 -49.5 108t-118.5 41q-83 0 -134 -49t-51 -135zM-246 -309q0 66 40 104.5t104 38.5q56 0 91.5 -31.5t35.5 -76.5t-27 -84q-17 -22 -25 -33.5t-16 -30.5t-8 -35q0 -32 24 -53q-80 11 -149.5 69.5t-69.5 131.5z M139 -514q56 53 56 209v1069q0 116 -7.5 159.5t-37.5 59.5h24q155 0 301 35q4 0 6 -2q51 -58 51 -156v-756q0 -161 -23 -256.5t-87 -179.5q-63 -84 -148 -128.5t-135 -53.5zM166 1294q0 76 60.5 132.5t140.5 56.5q79 0 137.5 -56t58.5 -133q0 -79 -58 -133.5t-138 -54.5 q-81 0 -141 55t-60 133zM211 1294q0 -63 45 -106t111 -43t109.5 43t43.5 106q0 62 -44 106t-109 44q-66 0 -111 -44t-45 -106z" />
<glyph unicode="k" horiz-adv-x="1363" d="M10 0v41h43q51 0 77 52.5t26 170.5v914q0 133 -24.5 180t-78.5 47h-33v41q20 0 68 -1t70.5 -0.5t66.5 2t77 5t79 10t94 15.5q21 4 31.5 -2t21.5 -21q52 -67 52 -274v-656l385 326q27 24 37.5 34t23 29.5t12.5 36.5q0 33 -51 33h-135v41h154q39 0 58 -17t19 -44 q0 -15 -2 -19q97 80 199 80h47v-41h-35q-68 0 -117 -27t-161 -120l-205 -172q20 8 39 8q106 -3 149 -82l170 -332q24 -56 24 -103q0 -9 -1 -17q-5 -54 -31 -91q-3 -6 2 -6h139v-41h-583v41h37q37 0 37 38q0 31 -25 89l-111 219q-30 54 -75 68v-183q0 -74 -16.5 -128 t-65.5 -99q-4 -4 0 -4h147v-41h-635zM139 1405q32 -17 45 -67.5t13 -155.5v-924q0 -161 -56 -217h236q68 0 115 58t47 155v926q0 198 -47 250q-9 9 -23 6q-177 -31 -305 -31h-25zM602 492q61 -18 88 -74l123 -250q8 -15 15 -36.5t7.5 -50.5t-16.5 -40h285q37 39 41 97 q1 8 1 15q0 50 -24 95l-157 309q-21 40 -56 57t-90 17q-42 0 -69 -19z" />
<glyph unicode="l" horiz-adv-x="724" d="M10 0v41h43q51 0 77 54t26 179v904q0 90 -12.5 141t-34 68.5t-56.5 17.5h-33v41q92 0 145 1t142 9.5t170 24.5q12 3 17 -2q86 -61 86 -217v-973q0 -40 -6 -83.5t-27 -94t-55 -68.5q-2 -2 2 -2h151v-41h-635zM137 41h273q66 10 97.5 82.5t31.5 185.5v969q0 106 -58 158 q-2 2 -6 2q-244 -33 -315 -33h-15q52 -37 52 -225v-908q0 -194 -60 -231z" />
<glyph unicode="m" horiz-adv-x="2000" d="M6 0v41h43q51 0 77 54t26 179v486q0 95 -13 145t-33 64t-57 14h-31v41h68q105 0 178 6.5t190 23.5q22 3 33 5q7 0 11 -4q32 -32 54.5 -95.5t22.5 -115.5q41 72 136 136t215 64q116 0 187.5 -60t96.5 -146q10 22 37.5 53.5t71.5 67.5t110 60.5t138 24.5q148 0 229 -104 q39 -51 49 -105t10 -151v-391q0 -181 -81 -248q-4 -4 0 -4h143v-41h-631v41h43q51 0 77 53t26 174v463q0 29 -0.5 43.5t-2.5 39t-6.5 37.5t-12.5 27.5t-21 20.5t-31 6q-42 0 -77.5 -41t-49.5 -88q-3 -10 -5 -23t-3.5 -23.5t-2.5 -29t-2 -28.5t-1 -33.5v-33v-38v-37.5v-239 q0 -92 -17.5 -149.5t-66.5 -96.5q-4 -4 0 -4h84v-41h-572v41h43q51 0 77 54t26 179v457q0 39 -0.5 60.5t-4.5 48t-11 39.5t-20.5 22.5t-33.5 9.5q-35 0 -66.5 -31.5t-52.5 -76.5q-27 -60 -27 -248v-281q0 -174 -81 -229q-4 -4 0 -4h81v-41h-569zM139 41h285q63 27 87 86.5 t24 146.5v539q0 113 -54 197q-3 4 -12 4l-10 -2q-10 -1 -27 -4t-39 -6.5t-50.5 -6.5t-57.5 -6t-62 -4.5t-63 -1.5h-10q25 -29 34 -70t9 -125v-507q0 -98 -12 -151t-42 -89zM733 946q53 0 75.5 -35.5t22.5 -115.5v-521q0 -184 -53 -233h254q58 0 101 64t43 165v480 q0 105 -71.5 179.5t-178.5 74.5q-105 0 -193 -58zM1372 946q54 0 77.5 -35.5t23.5 -115.5v-504q0 -86 -10 -142t-20 -74t-26 -34h262q56 0 96 64t40 165v475q0 40 -12 81t-38.5 83t-78 68.5t-121.5 26.5q-105 0 -193 -58z" />
<glyph unicode="n" horiz-adv-x="1343" d="M6 0v41h43q52 0 77.5 51.5t25.5 181.5v486q0 122 -26.5 172.5t-78.5 50.5h-31v41h70q35 0 70 1.5t81 6t71.5 7t88.5 10t86 10.5h4v2l5 -4q37 -31 60 -92t23 -115q130 194 355 194q70 0 121 -19.5t81.5 -51t48 -80t23.5 -97t6 -112.5v-395q0 -191 -82 -244l-4 -4h148v-41 h-629v41h43q51 0 76.5 54t25.5 179v482v8q0 27 -1 43t-6.5 41t-20.5 38t-39 13q-41 0 -77 -34t-54 -97q-15 -53 -15 -256v-223q0 -184 -83 -244l-5 -4h88v-41h-569zM135 41h285q115 49 115 244v559q0 38 -19.5 105t-46.5 67h-2q-60 -12 -160 -22.5t-145 -10.5h-10 q24 -31 32.5 -81.5t8.5 -137.5v-492q0 -197 -58 -231zM725 942q53 0 78.5 -35.5t25.5 -115.5v-517q0 -106 -13.5 -156.5t-39.5 -76.5h260q50 0 91.5 61.5t41.5 171.5v396q0 54 -3.5 94t-17.5 88.5t-38.5 79t-70 51.5t-109.5 21q-127 0 -205 -62z" />
<glyph unicode="o" horiz-adv-x="1318" d="M61 520q0 231 164.5 377.5t436.5 146.5q170 0 303.5 -60t212.5 -179t79 -281q0 -132 -49 -238t-132.5 -171.5t-189 -100t-224.5 -34.5q-97 0 -184.5 20.5t-164 64t-132.5 106t-88 152t-32 197.5zM102 520q0 -209 129.5 -344t339.5 -156q-22 8 -38 31t-26 62.5t-16.5 80 t-9 102t-3.5 107.5t-1 117q0 230 16 335.5t78 148.5q-60 -5 -121.5 -24t-124.5 -58t-112 -92.5t-80 -134t-31 -175.5zM518 520q0 -249 15 -338q26 -151 114 -161q7 -1 15 -1q21 0 38.5 6t30.5 20.5t24 30t18.5 42.5t13 49.5t9 59.5t5.5 64t3 72.5t1 75v80.5q0 61 -0.5 92.5 t-2 86t-5 84t-10 71t-17.5 63.5t-25.5 45t-35.5 32.5t-47 9.5t-47 -9.5t-36 -32.5t-25.5 -45.5t-17 -63t-10.5 -71t-5.5 -84t-2 -86t-0.5 -92.5zM752 20q226 35 345.5 165t119.5 335q0 95 -31 175.5t-80 134t-112 92.5t-123.5 58t-118.5 24q59 -40 76.5 -147.5t17.5 -336.5 q0 -249 -15 -343q-22 -137 -79 -157z" />
<glyph unicode="p" horiz-adv-x="1325" d="M0 -492h43q53 0 77.5 45t24.5 166v1037q0 124 -25 175.5t-77 51.5h-33v41h105q205 6 352 35q12 3 22 -4q39 -26 59 -89q19 -58 19 -97v-7q20 65 70.5 107.5t106.5 58.5t120 16q98 0 175 -42t125 -115t73 -167.5t25 -203.5q0 -236 -111 -391.5t-287 -155.5 q-109 0 -183 42.5t-112 160.5v-438q0 -175 -86 -221q-4 -3 0 -5h152v-40h-635v40zM131 -492h256q80 20 110.5 73.5t30.5 162.5v1075q0 128 -49 191q-6 9 -16 6q-65 -11 -171.5 -22t-156.5 -11q51 -36 51 -225v-1043q0 -182 -55 -207zM569 438q0 -173 42 -277t100 -104 q62 0 76 94.5t14 354.5q0 258 -14 349t-76 91q-38 0 -65.5 -26.5t-42 -64t-22.5 -94t-10 -98.5t-2 -96v-129zM727 981h1q68 0 94 -94q20 -74 20 -277v-20v-84v-56q1 -21 1 -37.5t-1 -28.5q0 -25 -0.5 -68t-3.5 -71.5t-7.5 -65t-12.5 -60.5t-19 -46.5t-26.5 -34t-35.5 -13.5 q33 -15 119 -15q152 0 258.5 139.5t106.5 366.5q0 231 -103 359.5t-254 128.5q-84 0 -137 -23z" />
<glyph unicode="q" horiz-adv-x="1323" d="M57 516q0 110 25.5 204t74.5 167t129.5 115t182.5 42q88 0 173 -47.5t108 -132.5v160h104q120 0 238 15t159 16v-37l-22 -2q-55 -4 -55 -211v-1071q0 -176 -89 -223q-4 -3 0 -5h152v-41h-635v41h43q53 0 79 46t26 167v443q-18 -57 -46.5 -95.5t-68 -59.5t-82 -29.5 t-98.5 -8.5q-176 0 -287 155.5t-111 391.5zM98 516q0 -227 106.5 -366.5t258.5 -139.5q85 0 123 15q-75 24 -92 121t-17 345v15q0 62 1 106t4.5 104t12 101t21 80t33.5 59.5t49 22.5q-58 25 -143 25q-151 0 -254 -128.5t-103 -359.5zM518 506q0 -64 0.5 -104.5t2 -89.5 t4.5 -79t8 -62.5t13 -51t19 -35t26 -23t34 -6.5q54 0 89.5 124t35.5 327q0 63 -1.5 109.5t-5.5 101t-12.5 92.5t-22 71t-34.5 49.5t-49 16.5q-62 0 -84.5 -102.5t-22.5 -337.5zM733 -494h254q83 18 114.5 73.5t31.5 164.5v1061q0 88 6.5 135t29.5 70q-3 0 -95 -13.5 t-185 -13.5h-98v-1268q0 -179 -58 -209z" />
<glyph unicode="r" horiz-adv-x="1034" d="M6 0v41h43q103 0 103 203v536q0 203 -101 203h-31v41h68q233 0 395 33q13 0 17 -4q36 -33 54.5 -91t18.5 -102q9 23 29 51.5t52 60t79.5 52t100.5 20.5q114 0 177.5 -67.5t63.5 -171.5q0 -82 -54 -144.5t-151 -62.5q-83 0 -134.5 49.5t-51.5 112.5q0 40 16 74.5t32 57.5 t16 34q0 12 -8.5 19t-18.5 7q-19 0 -29 -8q-63 -48 -91 -123.5t-28 -146.5v-385v-7q0 -36 -1.5 -59t-8.5 -61.5t-26.5 -68t-49.5 -48.5q-4 -4 0 -4h152v-41h-633zM139 41h281q112 49 112 233v519q0 164 -55 219q-2 2 -8 2q-63 -14 -155.5 -22.5t-153.5 -8.5h-10 q25 -29 34 -70t9 -125v-507q0 -98 -12 -151t-42 -89zM725 770q0 -55 39 -92t110 -37q67 0 113.5 42t46.5 122q0 97 -61 148t-139 51q-57 0 -95 -23q24 0 38 -12t14 -33q0 -28 -33 -77.5t-33 -88.5z" />
<glyph unicode="s" horiz-adv-x="1021" d="M51 705q0 45 13 89.5t45.5 90.5t82 80.5t129.5 56.5t181 22q93 0 180 -30.5t143 -95.5q39 23 39 81v45h41v-34q0 -85 -55 -123q48 -75 55 -131h-43q-16 69 -54 119.5t-90 77.5t-105 39t-111 12q-122 0 -182 -37t-60 -93q0 -31 21.5 -54t66.5 -40t90 -29t117 -30.5 t123 -34.5q174 -55 238.5 -138.5t64.5 -211.5q0 -92 -34 -161.5t-94 -111.5t-135.5 -62.5t-164.5 -20.5q-248 0 -383 131q-43 -25 -43 -97v-34h-41v34q0 87 57 127q-29 37 -46.5 75.5t-22 59.5t-8.5 54h43q4 -97 86 -185q119 -125 358 -125q126 0 180.5 33t54.5 80 q0 19 -4.5 34t-17 26t-25 18.5t-37.5 15.5t-44.5 13t-56 14t-62.5 16q-59 16 -100 28.5t-96.5 34t-93.5 43.5t-78.5 55.5t-65 71.5t-40.5 90t-16 112zM96 709q0 -76 28 -136.5t64 -97.5t107 -71t119 -49.5t139 -41.5q15 -4 43 -12q50 -14 72.5 -20.5t56 -18t48 -21t31 -23.5 t22 -30.5t5.5 -37.5q0 -52 -22 -74q131 82 131 252q0 42 -5.5 74t-22.5 69t-46.5 66t-81 57.5t-122.5 50.5q-47 15 -111.5 31t-107 26t-89 26t-74 33.5t-45.5 46t-18 66.5q0 45 37 87q-65 -29 -111.5 -93t-46.5 -159z" />
<glyph unicode="t" horiz-adv-x="770" d="M6 983v41h25q116 3 227 108.5t152 253.5h47q37 0 69.5 -101.5t32.5 -223.5v-37h211v-41h-211v-786q0 -113 78 -113q40 0 73.5 35t61.5 129l35 -12q-72 -265 -346 -265q-169 0 -242.5 81t-73.5 276v655h-139zM166 1024h20v-696q0 -173 62.5 -246.5t210.5 -73.5 q103 0 170 41q-111 3 -111 148v839q0 122 -23 214.5t-49 92.5h-8q-13 -37 -32.5 -75t-51.5 -85.5t-81 -89.5t-107 -69z" />
<glyph unicode="u" horiz-adv-x="1308" d="M-27 983v41q19 0 67 -1h41h27q20 0 63.5 2t75.5 5.5t80 11t101 17.5q11 3 16 -2q86 -59 86 -217v-588q0 -66 16 -103.5t62 -37.5q38 0 67 20t43 50.5t20.5 58.5t6.5 53v463q0 136 -22.5 181.5t-79.5 45.5h-33v41q334 0 467 35q11 4 17 -2q77 -67 77 -236v-532 q0 -179 -86 -244q-8 -4 0 -4h152v-41h-492v143q-117 -163 -337 -163q-74 0 -128.5 19t-86.5 49.5t-51.5 75.5t-26 89t-6.5 98v445q0 93 -11.5 142.5t-32.5 67t-59 17.5h-33zM106 983q25 -28 35.5 -67t10.5 -111v-490q0 -157 62 -226t194 -69t208 54q-6 -2 -18 -2 q-109 0 -109 184v555q0 144 -57 201q-2 2 -8 2q-63 -12 -158 -21.5t-149 -9.5h-11zM745 983q43 -40 43 -178v-764h228q67 34 89.5 96t22.5 158v516q0 66 -14.5 121.5t-36.5 77.5q-7 6 -14 4q-55 -14 -150 -22.5t-157 -8.5h-11z" />
<glyph unicode="v" horiz-adv-x="1155" d="M-31 983v41h695v-41h-146q-8 0 0 -4q58 -25 100 -135l173 -432l178 395q30 70 30 113q0 63 -69 63h-45v41h63q86 0 90 -78q51 78 142 78h6v-41q-58 0 -92 -35.5t-80 -140.5l-316 -701q-54 -126 -155 -126q-44 0 -87.5 12.5t-62.5 27.5l19 29q39 -20 55 -20q20 0 26 15.5 t2.5 33t-10.5 33.5l-352 733q-13 27 -24 46t-30 43t-42 37t-49 13h-19zM86 983q43 -21 100 -141l338 -709q20 -43 20 -70q0 -29 -22 -40q15 -3 21 -3q21 0 37.5 5.5t39 29t42.5 66.5q3 6 19 44.5t40 94t43 96.5l-195 486q-23 56 -66.5 98.5t-74.5 42.5h-342z" />
<glyph unicode="w" horiz-adv-x="1521" d="M-20 983v41h700v-41h-160q-8 0 0 -4q59 -30 90 -135l107 -359l143 412q9 27 9 51q0 41 -27 72q-2 4 2 4h112q58 0 90 -28t52 -87l145 -442l119 340q22 64 22 104q0 72 -69 72h-41v41h49q50 0 77 -24.5t27 -57.5q18 37 55.5 59.5t86.5 22.5h6v-41q-62 0 -97 -37.5 t-71 -138.5l-242 -690q-26 -72 -63 -104.5t-107 -32.5t-135 47l19 28q40 -24 53 -24q12 0 15 11t0.5 23.5t-7.5 24.5l-168 420l-133 -379q-26 -75 -63.5 -113t-106.5 -38q-72 0 -135 47l18 28q39 -24 54 -24q17 0 17 22q0 14 -7 37l-273 754q-30 80 -50 105q-28 34 -66 34 h-47zM111 983q39 -13 77 -125l265 -743q13 -36 12 -59q0 -24 -14 -33q9 -3 16 -3q19 0 30 2t31 10.5t36 32.5t28 62l102 293l-127 409q-21 66 -62 110t-79 44h-315zM795 575l182 -464q13 -36 13 -57q0 -7 -1 -12q-3 -10 -10 -19q9 -3 18 -3q18 0 32 3t33.5 12.5t35.5 34 t28 61.5l93 266l-168 502q-15 45 -34 64.5t-61 19.5h-43q5 -17 5 -34q0 -26 -11 -52z" />
<glyph unicode="x" horiz-adv-x="1234" d="M0 983v41h745v-41h-170q-2 0 -3.5 -1.5t1.5 -2.5q29 -22 84 -102l162 -259l150 213q1 1 7.5 10.5t10 15.5t10 17.5t10 20.5t6.5 20.5t3 22.5q0 45 -66 45h-35v41h50q47 0 69.5 -20t22.5 -52v-10q54 82 153 82h7v-41h-11q-29 0 -53.5 -10.5t-50.5 -37.5t-43.5 -49.5 t-50.5 -70.5l-164 -235l243 -379q27 -46 27 -80q0 -55 -39 -78q-2 -2 0 -2h170v-41h-670v41h48q19 0 29 12.5t10 26.5q0 17 -27 59l-176 256l-144 -205q-15 -17 -31 -47.5t-16 -56.5q0 -45 64 -45h59v-41h-74q-41 0 -69 21q-24 18 -24 51q0 5 1 10q-54 -82 -153 -82h-56v41 h60q29 0 52.5 10t51 39t42.5 48t52 71l158 225l-287 443q-18 26 -25 36.5t-25 31t-34.5 29.5t-33.5 9h-27zM106 983q15 -9 28.5 -26.5t41.5 -57.5q5 -8 8 -12l490 -733q28 -44 28 -74q0 -15 -7 -26t-13 -13h301q40 1 65 22.5t25 49.5q0 25 -22 63l-435 682q-41 64 -75 94.5 t-72 30.5h-363z" />
<glyph unicode="y" horiz-adv-x="1132" d="M-25 983v41h646v-41h-107q-8 0 0 -4q51 -31 96 -133l166 -361l137 322q12 25 19 52t8.5 56.5t-17 48.5t-55.5 19h-41v41h50q50 0 77 -24.5t27 -57.5q18 37 55 59.5t86 22.5h21v-41h-19q-57 0 -91.5 -38.5t-74.5 -137.5l-483 -1126q-21 -47 -35.5 -75.5t-38.5 -63 t-47.5 -53t-58 -31.5t-76.5 -13q-74 0 -124 49t-50 127q0 75 52.5 135t129.5 60q41 0 78.5 -19.5t68 -39t54.5 -19.5q27 0 41 33l90 215l-432 858l-19.5 37.5t-21 35t-26.5 34.5t-29.5 22t-34.5 10h-21zM88 983q15 -11 32.5 -36t27 -42.5t30.5 -58.5l406 -813l170 401 l-191 408q-28 61 -68 101t-75 40h-332zM90 -379q0 -55 38 -95t97 -40q73 0 123 52t92 165q-8 -4 -22 -4q-29 0 -88.5 38t-102.5 38q-59 0 -98 -45.5t-39 -108.5z" />
<glyph unicode="z" horiz-adv-x="1103" d="M4 0v41h23q16 0 30 4t25 8.5t22.5 16.5t19 20t18.5 26t17 28t19 34t19 35l401 717q13 20 5 36.5t-36 16.5h-94q-66 0 -125.5 -16t-108.5 -48t-79.5 -85.5t-34.5 -122.5l-2 -41h-45v20q0 111 60.5 190t142.5 103h-177v41h883q49 0 65 -31q6 -12 5 -26q0 -22 -15 -49 l-389 -703q-38 -68 -72.5 -105.5t-80.5 -64.5q-8 -4 0 -4h143q82 0 150.5 26t134.5 89q46 42 62 90t22 116l2 25h47l-2 -35q-8 -99 -65 -185t-165 -126h207l-2 -41h-1030zM135 41h232q62 0 124.5 43t114.5 131l400 715q11 12 9.5 32.5t-24.5 20.5h-354q14 -7 15.5 -23.5 t-7.5 -29.5l-399 -717q-9 -16 -24 -43.5t-21 -37.5t-16 -27t-16.5 -25.5t-15 -19t-18.5 -19.5z" />
<glyph unicode="{" horiz-adv-x="724" d="M-94 514v49q24 7 35.5 10.5t31.5 14.5t30 24t23 37t19.5 56t11 79.5t4.5 108.5v270q0 147 14 199t68 106q86 86 299 86h252v-45q-31 -8 -46.5 -12.5t-43.5 -16.5t-48.5 -30.5t-37.5 -44.5q-23 -35 -30 -86t-7 -154v-282q0 -83 -8.5 -144t-21.5 -96.5t-34.5 -59t-40 -33.5 t-46.5 -18v-8q27 -8 46 -18t40.5 -34t34.5 -59.5t21.5 -96.5t8.5 -142v-260q0 -103 7 -154t30 -86q17 -26 37.5 -44.5t48.5 -30.5t43.5 -16.5t46.5 -12.5v-45h-252q-213 0 -299 86q-54 54 -68 106t-14 199v268q0 100 -9.5 163t-34 95.5t-42.5 43t-58 24.5q-7 3 -11 4z M-47 535q27 -8 46 -18t40.5 -34.5t34.5 -60t21.5 -96.5t8.5 -142v-268q0 -126 13.5 -172.5t54.5 -97.5q30 -37 108 -57.5t162 -20.5h148q-80 30 -123 104q-5 8 -9 17t-7 20t-5 20t-3 24.5t-2 24.5t-1 29.5v31v36.5v39v260q0 81 -9 139t-19.5 89t-35 53.5t-38 28.5t-47.5 17 q-5 2 -8 3v49q24 7 35 10.5t31.5 14.5t30.5 24t23.5 37.5t20 56.5t11.5 79.5t5 107.5v282q0 97 9 159.5t30.5 99t45.5 54t65 33.5h-148q-85 0 -161 -19.5t-109 -57.5q-41 -51 -54.5 -98t-13.5 -173v-270q0 -102 -11.5 -170.5t-35.5 -104t-46.5 -50.5t-57.5 -25v-8z" />
<glyph unicode="|" horiz-adv-x="468" d="M213 -512v2048h43v-2048h-43z" />
<glyph unicode="}" horiz-adv-x="724" d="M27 -430q31 8 46.5 12.5t43.5 16.5t48.5 30.5t37.5 44.5q23 35 30 86t7 154v260q0 81 8.5 142t21.5 96.5t34.5 59.5t40.5 34t46 18v8q-28 8 -46.5 18t-40 33.5t-34.5 59t-21.5 96.5t-8.5 144v282q0 103 -7 154t-30 86q-17 26 -37.5 44.5t-48.5 30.5t-43.5 16.5 t-46.5 12.5v45h252q213 0 299 -86q54 -54 67.5 -105.5t13.5 -199.5v-270q0 -61 4.5 -108.5t11 -79.5t20 -56t23.5 -37t30 -24t31.5 -14.5t35.5 -10.5v-49q-61 -21 -80 -36q-62 -46 -73 -199q-3 -43 -3 -95v-268q0 -148 -13.5 -199.5t-67.5 -105.5q-86 -86 -299 -86h-252v45z M131 -432h148q84 0 160.5 20t109.5 58q40 48 53.5 95.5t13.5 174.5v268q0 101 12 169t35.5 104t46.5 52t58 26v8q-28 8 -46.5 17.5t-40.5 33.5t-34.5 59t-21.5 96t-9 144v270q0 127 -13.5 175t-53.5 96q-33 39 -108.5 58t-161.5 19h-148q80 -30 123 -104q5 -8 9 -17t7 -20 t5 -20t3 -24.5t2 -24.5t1 -29.5v-31v-36.5v-39v-282q0 -60 5 -107.5t11.5 -79.5t20 -56.5t23.5 -37.5t30.5 -24t31.5 -14.5t35 -10.5v-49q-61 -20 -83 -38q-66 -53 -73 -235q-1 -27 -1 -57v-260q0 -97 -9 -159.5t-30.5 -99t-45.5 -54t-65 -33.5z" />
<glyph unicode="~" horiz-adv-x="1366" d="M168 604q1 2 11.5 15.5t15.5 20.5t18.5 22.5t23.5 24.5t26.5 23.5t31.5 24t35.5 20t40.5 17t44.5 10.5t49.5 4q53 0 114.5 -22t108 -48.5t106 -48.5t109.5 -22q98 0 201 127l94 -182q-148 -166 -301 -166q-56 0 -115.5 22t-103 48.5t-100.5 48.5t-109 22q-58 0 -94.5 -27 t-108.5 -112zM215 596l57 -100q47 59 88 84.5t109 25.5q51 0 109 -22t102.5 -48.5t104 -48.5t112.5 -22q41 0 77.5 11t73 36t53.5 38.5t52 45.5l-55 111q-83 -103 -195 -103q-53 0 -113.5 22t-106 48.5t-105.5 48.5t-113 22q-33 0 -64 -8.5t-50.5 -17t-45 -30t-34 -29.5 t-32 -35t-24.5 -29z" />
<glyph unicode="&#xa1;" horiz-adv-x="641" d="M158 195q0 55 28 153q7 23 36 117.5t40 133t27.5 113.5t25.5 144l17 133h63q7 -142 42 -287t102 -348q30 -92 30 -151q0 -33 -9 -66.5t-30 -69t-65 -57.5t-105 -22q-63 0 -106.5 22t-62.5 58t-26 66t-7 61zM164 1255q0 86 58.5 144.5t144.5 58.5t144 -58.5t58 -144.5 t-58 -144t-144 -58t-144.5 58t-58.5 144zM199 197q0 -20 2.5 -39t12.5 -43.5t26.5 -42.5t47.5 -30.5t72 -12.5q50 0 85.5 18.5t52 48t23.5 56t7 51.5q0 32 -22 127q-61 165 -101 343.5t-40 284.5l-37 -229q-10 -73 -69.5 -267.5t-59.5 -264.5zM205 1255q0 -69 46.5 -115 t115.5 -46t115 46t46 115t-46 115.5t-115 46.5t-115.5 -46.5t-46.5 -115.5z" />
<glyph unicode="&#xa2;" horiz-adv-x="1148" d="M61 498q0 151 75 275t201.5 195t278.5 76v160h43v-160q82 -3 162.5 -24.5t148 -58t109 -93.5t41.5 -125q0 -77 -62 -125.5t-147 -48.5q-89 0 -143.5 42t-54.5 118q0 60 45 100q39 39 39 84q0 88 -117 91q-15 0 -21 -3v-952q39 -20 101 -20q97 0 181 64.5t149 178.5 l32 -20q-26 -44 -51 -79t-64 -73t-82.5 -62.5t-104 -41t-130.5 -16.5h-31v-187h-43v191q-140 9 -248.5 54.5t-174 117t-99 158t-33.5 184.5zM102 498q0 -141 72.5 -251t194 -168.5t270.5 -58.5q-45 19 -77.5 57t-49 78t-25.5 97t-10.5 94.5t-1.5 89.5v113q0 230 20.5 328.5 t96.5 136.5q-69 -14 -133 -37.5t-131 -66t-115.5 -97t-79.5 -136.5t-31 -179zM515 697.5q-2 -77.5 1 -169.5v-71q0 -43 0.5 -70t6 -78.5t15 -88t30 -76.5t48.5 -66v915q-38 -19 -60 -60t-30.5 -99.5t-10.5 -136zM754 725q0 -54 42.5 -86.5t114.5 -32.5q70 0 119 35t49 98 q0 32 -11.5 61.5t-35 54.5t-37.5 37.5t-39 31.5q-59 44 -149 59q33 -28 33 -74q0 -41 -43 -100.5t-43 -83.5z" />
<glyph unicode="&#xa3;" horiz-adv-x="1236" d="M57 160q0 76 72.5 139t202.5 63q18 0 36 -1.5t29.5 -2.5t37 -6t35 -7t48.5 -11t53 -12v22q0 47 -52.5 126t-86.5 108h-289v40h254q-25 31 -90.5 101.5t-81.5 91.5q-96 128 -96 256q0 90 36 161.5t90 113.5t123.5 69.5t130 37t116.5 9.5q209 0 318.5 -84t109.5 -207 q0 -84 -54 -129t-120 -45q-68 0 -115 40.5t-47 105.5q0 35 17 67t37 51t37 39.5t17 36.5q0 64 -114 64q-65 0 -117.5 -61.5t-52.5 -164.5q0 -78 31 -170t88.5 -215.5t74.5 -167.5h156q159 0 238 -48.5t79 -172.5q0 -84 -15 -152.5t-50 -128.5t-101 -94t-159 -34 q-102 0 -312 90q-122 -98 -266 -98q-108 0 -178 48t-70 132zM96 158q0 -32 19 -60q-4 20 -4 29q0 44 35 68t81 24q97 0 262 -67q307 -123 406 -123q59 0 106.5 19.5t76 47.5t49 67t29.5 70.5t15 65.5q-43 -109 -225 -109q-66 0 -194 40t-181 51q-36 7 -77.5 16t-62.5 13.5 t-47.5 8t-51.5 3.5q-66 0 -115.5 -17t-74 -44t-35.5 -53t-11 -50zM150 123q0 -49 42 -74.5t115 -25.5q14 0 27.5 2t24 4t21.5 7t18.5 8.5t16.5 11t14 11t13 12t10.5 11.5t10 11.5t8.5 9.5q-80 34 -134 50.5t-112 16.5q-75 0 -75 -55zM170 1067q0 -122 96 -238 q24 -29 96 -108t118.5 -134t88 -127t41.5 -122v-25l66 -18q1 2 7 13t9 16t8.5 17t8.5 20.5t7.5 22.5t7 26.5t4 28.5t1.5 32q0 62 -35 154t-77 174t-78.5 186t-38.5 186q0 196 159 252q-53 0 -108.5 -7t-126.5 -30t-125 -60t-91.5 -104t-37.5 -155zM430 33q20 6 49 23.5 t47 35.5l-12 4q-33 -38 -84 -63zM711 285q10 -3 42 -13t43.5 -13.5t37 -10.5t40.5 -9.5t35 -5t37 -2.5q106 0 161.5 45.5t55.5 120.5q0 103 -62.5 142t-211.5 39h-139q14 -58 14 -107q0 -44 -11.5 -86t-18.5 -56t-23 -44zM758 1139q0 -44 35 -74.5t86 -30.5q58 0 95.5 37 t37.5 96q0 70 -50.5 130.5t-138.5 103.5q41 -23 41 -68q0 -23 -16.5 -47t-36.5 -41.5t-36.5 -46t-16.5 -59.5z" />
<glyph unicode="&#xa5;" horiz-adv-x="1579" d="M0 1405v41h791v-41h-173q-6 0 -2 -4q68 -39 117 -135l207 -416q53 -109 68 -160l258 535q43 91 43 123q0 57 -68 57h-90v41h109q86 0 96 -74q49 74 172 74h51v-41h-43q-84 -3 -123.5 -37t-97.5 -151l-230 -465h312v-39h-332l-39 -80q8 -43 12 -115h359v-39h-357v-180 q0 -70 -20.5 -142.5t-65.5 -111.5q-4 -4 2 -4h207v-41h-805v41h109q52 0 79 57.5t27 188.5v192h-385v39h383q-3 51 -43 127l-36 68h-304v39h283l-276 512q-76 141 -158 141h-37zM143 1405q10 -7 18.5 -14.5t15 -13t14 -15.5t11 -14.5t11.5 -17.5t10 -17t11.5 -20.5 t11.5 -20.5l327 -617q41 -78 41 -149v-221q0 -116 -12 -162.5t-47 -81.5h309q35 0 63 26.5t42.5 66t22 79t7.5 72.5v180q0 80 -15.5 150.5t-30.5 106t-45 94.5l-9 18l-203 411q-30 59 -71.5 98.5t-66 50.5t-36.5 11h-379z" />
<glyph unicode="&#xa6;" horiz-adv-x="468" d="M129 385h211v-776h-211v776zM129 631v776h211v-776h-211zM170 344v-694h129v694h-129zM170 672h129v694h-129v-694z" />
<glyph unicode="&#xa7;" horiz-adv-x="1429" d="M66 549q0 52 16.5 101.5t37.5 84t55 70.5t55 53.5t51 40.5q-103 118 -103 254q0 131 109 240q149 143 442 143q83 0 160 -11t147.5 -35t122.5 -59.5t82.5 -88.5t30.5 -117q0 -77 -51 -139t-146 -62q-76 0 -138.5 49.5t-62.5 134.5q0 45 17.5 80.5t38 52.5t38 35t17.5 33 q0 40 -61 63t-158 23q-73 0 -126 -19t-79.5 -50.5t-38.5 -65.5t-12 -72q0 -46 17.5 -82t44.5 -60.5t81 -52t104 -47.5t138.5 -56.5t161.5 -69.5q36 -16 52.5 -24t55 -29t60 -38t52 -46.5t46.5 -59.5t28.5 -71t12.5 -87q0 -72 -23 -134.5t-58 -103t-64.5 -64t-53.5 -34.5 q115 -104 115 -249q0 -96 -37 -179.5t-106.5 -146.5t-178 -99t-243.5 -36q-143 0 -256 30t-180 81.5t-101.5 113.5t-34.5 131q0 82 52.5 137.5t142.5 55.5q92 0 148.5 -56t56.5 -129q0 -37 -12.5 -67t-30 -48.5t-34.5 -33.5t-29.5 -29.5t-12.5 -28.5q0 -50 72 -82t188 -32 q133 0 217 70.5t84 168.5q0 117 -125 187q-3 2 -17.5 10t-19.5 11t-21.5 11.5t-30 14.5t-40 17.5t-56 23.5t-72.5 29.5t-95 37.5q-64 25 -104 41.5t-92 41t-83.5 46t-66 52t-53.5 62.5t-31 73.5t-12 89.5zM106 549q0 -47 10.5 -85t36 -70.5t55.5 -58t82 -52.5t101.5 -48 t126.5 -51q17 -7 64.5 -25t66 -25.5t57.5 -23.5t63.5 -27t58 -28t65.5 -35q73 -41 103 -93.5t30 -123.5q0 -72 -46 -140t-146 -107q90 19 163 53.5t129.5 86t87.5 124t31 160.5q0 59 -24 111t-55.5 86.5t-82.5 67.5t-83.5 49t-79.5 36q-16 7 -23 10l-399 168q-42 17 -74 31 t-73.5 38.5t-68.5 49t-46 58.5t-19 71q0 27 12 51q-123 -111 -123 -258zM184 -125q0 -47 15.5 -88.5t40.5 -71t56 -54t61.5 -40t57.5 -26t43 -15t19 -4.5q-35 12 -65.5 39.5t-30.5 65.5q0 22 19 44.5t41.5 40.5t41.5 49t19 68q0 57 -44.5 102.5t-119.5 45.5q-66 0 -110 -45 t-44 -111zM219 1153q0 -142 119 -250q60 -56 148 -98.5t333 -140.5q179 -71 254 -105t111 -63q61 -49 61 -121q0 -35 -12 -53q28 24 59 95.5t31 147.5q0 54 -19.5 101t-47.5 78.5t-70 59.5t-74 44t-72 34q-8 3 -12 5q-61 28 -133.5 58.5t-116.5 49t-94.5 41.5t-79.5 40 t-58.5 40.5t-44 47.5t-23.5 55t-9 69q0 148 141 209q-33 -3 -71.5 -12.5t-84 -26.5t-86.5 -45t-75 -63.5t-54 -86.5t-20 -110zM256 764q0 -66 57 -112t203 -107l397 -166q168 -72 224 -125q71 38 71 113q0 71 -72 113.5t-372 160.5q-226 89 -307.5 131t-147.5 100 q-53 -44 -53 -108zM915 1208q0 -57 43.5 -102t118.5 -45q66 0 110 46t44 118q0 47 -21.5 89t-52.5 69.5t-67.5 48t-64 30t-44.5 11.5q47 -19 47 -72q0 -16 -11.5 -32t-28 -30.5t-33.5 -32t-28.5 -43t-11.5 -55.5z" />
<glyph unicode="&#xa8;" horiz-adv-x="911" d="M51 1243q0 73 52 123.5t126 50.5q72 0 123 -51t51 -123q0 -73 -50.5 -124.5t-123.5 -51.5q-74 0 -126 51.5t-52 124.5zM94 1243q0 -60 37.5 -97.5t97.5 -37.5q55 0 93 39t38 96q0 56 -38 94.5t-93 38.5q-59 0 -97 -38.5t-38 -94.5zM508 1243q0 73 52 123.5t126 50.5 q72 0 123 -51t51 -123q0 -73 -50.5 -124.5t-123.5 -51.5q-74 0 -126 51.5t-52 124.5zM551 1243q0 -60 37.5 -97.5t97.5 -37.5q55 0 93 39t38 96q0 56 -38 94.5t-93 38.5q-59 0 -97 -38.5t-38 -94.5z" />
<glyph unicode="&#xa9;" horiz-adv-x="1882" d="M74 741q0 121 37 228t101 186t148.5 142t182 102t198.5 59.5t201 20.5q127 0 252 -31t235.5 -94t195 -150.5t134 -207.5t49.5 -257q0 -140 -51 -263.5t-137 -213t-198 -154t-235.5 -96.5t-246.5 -32q-117 0 -236.5 29.5t-233 92t-201.5 150t-141.5 214.5t-53.5 275z M115 741q0 -130 43 -244.5t116 -197.5t159.5 -141t182.5 -90q-167 83 -241 252.5t-74 422.5t77 415.5t251 246.5q-82 -32 -155.5 -75.5t-140 -104t-114.5 -132t-76 -162t-28 -190.5zM342 741q0 -164 34 -293.5t104.5 -226.5t187 -149t272.5 -52q159 0 276 51.5t187 149 t103.5 226t33.5 292.5q0 129 -19.5 233.5t-63.5 192.5t-112 147.5t-169.5 92.5t-231.5 33q-160 0 -277.5 -49.5t-187.5 -143t-103.5 -218.5t-33.5 -286zM477 745q0 74 11.5 135.5t45 126t88 109t148 73t217.5 28.5q74 0 146.5 -17.5t117.5 -38.5q16 -8 37 -8t31 10v-41 q-11 -8 -29 -8q-14 0 -29 5.5t-37.5 15.5t-39.5 16q43 -28 80.5 -77t54.5 -107h-39q-46 100 -108 152t-175 52q-44 0 -79.5 -18t-59 -45.5t-41 -66.5t-26.5 -75.5t-14.5 -78t-7 -68t-1.5 -51.5q0 -134 21.5 -233t59.5 -155.5t84.5 -83t102.5 -26.5q53 2 96 22t71 49.5 t48.5 70t31 78t15.5 77.5h33q-27 -214 -131 -266q12 4 32.5 13t33 12.5t24.5 3.5q21 0 29 -8v-35q-10 10 -31 10t-37 -8q-149 -60 -295 -60q-236 0 -357.5 135t-121.5 381zM518 745q0 -231 112 -354t318 -131q-221 68 -221 508q0 43 3.5 85t16 98.5t33 101t59 82t89.5 51.5 q-212 -17 -311 -126t-99 -315zM1266 68q74 28 143.5 69t135.5 102t114.5 133.5t78 167.5t29.5 199q0 124 -42 233.5t-114 190t-158 138.5t-185 94q167 -84 240 -235t73 -419q0 -253 -74 -421.5t-241 -251.5z" />
<glyph unicode="&#xab;" horiz-adv-x="970" d="M70 541l227 268h252l-230 -268l230 -262h-252zM125 541l197 -228h143l-199 228l199 231h-143zM442 541l228 268h252l-230 -268l230 -262h-252zM498 541l196 -228h144l-199 228l199 231h-144z" />
<glyph unicode="&#xac;" horiz-adv-x="1366" d="M0 496v41h1196v-496h-41v455h-1155zM0 666v41h1366v-666h-41v625h-1325z" />
<glyph unicode="&#xad;" horiz-adv-x="1032" d="M154 393v275h725v-275h-725zM195 434h643v191l-643 2v-193z" />
<glyph unicode="&#xae;" horiz-adv-x="1882" d="M74 741q0 121 37 228t101 186t148.5 142t182 102t198.5 59.5t201 20.5q127 0 252 -31t235.5 -94t195 -150.5t134 -207.5t49.5 -257q0 -140 -51 -263.5t-137 -213t-198 -154t-235.5 -96.5t-246.5 -32q-117 0 -236.5 29.5t-233 92t-201.5 150t-141.5 214.5t-53.5 275z M115 741q0 -130 43 -244.5t116 -197.5t159.5 -141t182.5 -90q-167 83 -241 252.5t-74 422.5t77 415.5t251 246.5q-82 -32 -155.5 -75.5t-140 -104t-114.5 -132t-76 -162t-28 -190.5zM342 741q0 -163 36 -293.5t108 -227t187.5 -148.5t266.5 -52q152 0 268 52t188 148 t108 226.5t36 292.5q0 159 -35 286t-106.5 220t-186.5 143t-268 50q-160 0 -277.5 -49.5t-187.5 -143t-103.5 -218.5t-33.5 -286zM520 264v39q12 1 32 1.5t25.5 1.5t15.5 6t12 17t4.5 32t2.5 53v661q0 43 -11 60.5t-40 17.5h-41v41h486q163 0 247 -54t84 -188 q0 -93 -66 -160t-192 -67q31 -4 48.5 -7t47 -13.5t48.5 -25t38.5 -42t30.5 -64.5l33 -106q9 -25 12.5 -32.5t10.5 -14t18 -6.5t18 9t17 38h41q-41 -209 -211 -209q-43 0 -76 18.5t-55.5 55.5t-37 77.5t-28.5 98.5q-11 46 -21 77t-24.5 61t-34.5 45t-45 15h-32v-290 q0 -37 2.5 -55.5t17 -30t26.5 -14t51 -6.5q5 -1 7 -1v-39h-461zM635 305h227q-17 13 -21.5 34t-4.5 71v634q0 28 0.5 48t2.5 31t3 15.5t4 9.5l2 5h-209q14 -11 14 -78v-661q0 -27 -0.5 -40.5t-2 -31.5t-5.5 -26.5t-10 -10.5zM877 741h24q108 0 146 45.5t38 163.5 q0 213 -137 213q-51 0 -61 -18.5t-10 -89.5v-11v-303zM989 700q48 -24 86 -180q30 -127 65.5 -179t106.5 -52q54 0 90.5 31t46.5 63q-28 -13 -55 4t-43 64l-39 120q-16 50 -55.5 79.5t-87.5 39.5t-115 10zM1057 1157q69 -41 69 -205q0 -165 -65 -200q111 11 173 60.5 t62 139.5q0 205 -239 205zM1266 68q74 28 143.5 69t135.5 102t114.5 133.5t78 167.5t29.5 199q0 124 -42 233.5t-114 190t-158 138.5t-185 94q164 -83 238.5 -240t74.5 -414q0 -253 -74 -421.5t-241 -251.5z" />
<glyph unicode="&#xaf;" horiz-adv-x="702" d="M51 1143v41h600v-41h-600zM51 1276v41h600v-41h-600z" />
<glyph unicode="&#xb0;" horiz-adv-x="724" d="M10 1194q0 146 103 249t249 103t249.5 -103t103.5 -249t-103.5 -249t-249.5 -103t-249 103t-103 249zM53 1194q0 -128 90.5 -218.5t218.5 -90.5q127 0 217.5 90.5t90.5 218.5q0 127 -90 217t-218 90t-218.5 -90t-90.5 -217zM168 1194q0 -82 56 -138.5t138 -56.5 q80 0 136.5 57t56.5 138q0 79 -56.5 135.5t-136.5 56.5q-81 0 -137.5 -56t-56.5 -136zM211 1194q0 62 44 105.5t107 43.5q62 0 106 -44t44 -105q0 -63 -44 -107.5t-106 -44.5q-63 0 -107 44.5t-44 107.5z" />
<glyph unicode="&#xb1;" horiz-adv-x="1259" d="M154 545v211h370v268h211v-268h371v-211h-371v-283h-211v283h-370zM156 0v211h950v-211h-950zM195 586h370v-283h129v283h371v129h-371v268h-129v-268h-370v-129zM197 41h868v129h-868v-129z" />
<glyph unicode="&#xb2;" d="M57 543v157q195 140 262 199q33 31 57 56.5t51 63.5t41.5 82.5t14.5 92.5q0 88 -49.5 146.5t-144.5 58.5q-50 0 -88.5 -27t-34.5 -67q1 -14 17 -18.5t59 -4.5q61 0 89.5 -35.5t28.5 -83.5q0 -61 -39 -100t-100 -39q-65 0 -109 40.5t-44 117.5q0 10 1.5 24t9.5 42.5 t21 54.5t40 55.5t63 51t92.5 36t126.5 14.5q76 0 134.5 -16.5t93.5 -42.5t57 -61.5t30 -68.5t8 -69q0 -79 -31.5 -130.5t-86.5 -92.5q-41 -32 -89.5 -57t-172.5 -80l-129 -62h325q71 0 92 3.5t33 15.5q23 20 31 125h39l-27 -381h-672zM98 584h596l17 196q-16 -28 -41 -33.5 t-109 -7.5h-381l-82 -55v-100zM109 1182q0 -49 28 -84t84 -35q46 0 72 26.5t26 73.5q0 35 -20 56.5t-57 21.5h-20.5h-20t-17 1t-16.5 3t-12.5 6t-11 10t-7 15.5t-4.5 21.5q-24 -51 -24 -116zM328 858q40 22 89 49t76.5 42t61.5 34.5t51 31.5t37.5 29.5t29 32t17.5 34.5 t12 41.5t3 49.5q0 221 -285 221q-26 0 -51 -2q83 -22 119 -79t36 -148q0 -95 -51 -174.5t-145 -161.5z" />
<glyph unicode="&#xb3;" d="M59 756q0 58 36 98.5t104 40.5q57 0 96 -33.5t39 -93.5q0 -38 -19.5 -63t-60.5 -52q-16 -10 -16 -30q0 -24 24.5 -43t54.5 -19q36 0 65 23.5t45 60t24 75.5t8 75q0 42 -9 77.5t-28 66.5t-54 49t-83 18q-17 0 -47 -5.5t-41 -5.5q-35 0 -35 29q0 27 35 27q8 0 44 -3.5 t44 -3.5q78 0 111.5 48.5t33.5 140.5q0 21 -2.5 43.5t-12 57.5t-33.5 57t-60 22q-26 0 -45 -10.5t-19 -32.5q0 -13 18 -31q36 -27 51 -47.5t15 -54.5q0 -54 -35.5 -84.5t-85.5 -30.5q-56 0 -90.5 36t-34.5 91q0 38 16.5 73t51 67t99.5 51.5t151 19.5q136 0 208 -60t72 -157 q0 -57 -25.5 -99t-64.5 -63.5t-70 -31.5t-59 -13l-61 -6l61 -4q22 0 50.5 -5t67.5 -21t70.5 -40.5t53.5 -68t22 -98.5q0 -111 -99.5 -188t-272.5 -77q-149 0 -228.5 68t-79.5 160zM100 758q0 -45 29 -92t80 -70q-12 15 -12 37q0 20 15 37.5t33 28.5t33 29.5t15 39.5 q0 40 -26 63t-68 23q-40 0 -69.5 -26.5t-29.5 -69.5zM137 1249q0 -86 80 -86q42 0 63 21t21 53q0 21 -20.5 43.5t-41 43t-20.5 38.5q0 22 19 41q-51 -23 -76 -66t-25 -88zM375 1430q96 -41 96 -193q0 -149 -55 -174l18 4l20 3q20 4 36 8t41.5 12t44.5 21t38 30.5t29 43.5 t10 58q0 91 -63.5 140t-175.5 49q-25 0 -39 -2zM401 999q31 -12 52.5 -40t30.5 -62t12.5 -59t3.5 -45q0 -72 -26.5 -136.5t-67.5 -93.5h8q38 0 83 11.5t92 36t78 72t31 110.5q0 59 -26 101t-70.5 64t-93.5 31.5t-107 9.5z" />
<glyph unicode="&#xb4;" horiz-adv-x="641" d="M51 1083l191 342h286q62 0 62 -41q0 -7 -1 -12t-4 -10t-5 -8t-9 -7.5t-10.5 -7t-13.5 -9t-15 -9.5l-436 -264zM102 1100l428 266q13 10 13 14q0 11 -17 11h-260z" />
<glyph unicode="&#xb5;" horiz-adv-x="1323" d="M-37 -324h43q103 0 103 218v862q0 93 -11.5 142.5t-32.5 67t-59 17.5h-33v41q287 0 433 31q53 12 83 -33q41 -67 41 -182v-693q3 -118 84 -118q38 0 66 20.5t41 53t18.5 61.5t5.5 55v537q0 136 -22.5 181.5t-79.5 45.5h-33v41q42 -1 78 -1t64 0.5t56 2t45 2t40.5 3 t33.5 3.5t33 5t29.5 5t32 6.5t33.5 6.5q25 5 39.5 -2t31.5 -31q23 -33 34 -87.5t11 -96.5v-551q0 -179 -86 -244q-8 -4 0 -4h152v-41h-492v70q-15 -35 -51 -61.5t-80 -26.5q-64 0 -84 36v-94q0 -169 -84 -243q-5 -5 3 -5h147v-41h-633v41zM94 -324h291q107 68 107 246v889 q0 145 -46 201q-7 10 -30 4q-56 -12 -132.5 -20t-125.5 -10l-49 -3h-3q25 -30 34.5 -70.5t9.5 -124.5v-897q0 -59 -13 -123.5t-43 -91.5zM745 983q25 -29 34 -70t9 -125v-747h228q67 34 90.5 96.5t23.5 157.5v516q0 141 -47 199q-11 14 -36 8q-167 -35 -291 -35h-11z" />
<glyph unicode="&#xb6;" horiz-adv-x="1366" d="M150 1034q0 162 98 281t252 131h811v-41h-191v-1747h-211v1747h-202v-1747h-211v969q-156 39 -251 143.5t-95 263.5zM193 1034q0 -275 303 -368v739q-129 -17 -216 -121.5t-87 -249.5zM537 -301h129v1706h-129v-1706zM950 -301h129v1706h-129v-1706z" />
<glyph unicode="&#xb7;" horiz-adv-x="555" d="M72 530q0 86 58.5 145.5t145.5 59.5q85 0 145 -60t60 -145q0 -87 -59.5 -145.5t-145.5 -58.5q-88 0 -146 58t-58 146zM113 530q0 -69 47 -116t116 -47t116.5 47t47.5 116t-47.5 116.5t-116.5 47.5t-116 -47.5t-47 -116.5z" />
<glyph unicode="&#xb8;" horiz-adv-x="651" d="M92 -225h45q0 -144 142 -144q83 0 83 88q0 45 -18.5 63.5t-56.5 20.5l59 185h39l-37 -119q14 8 51 8q76 0 118 -36.5t42 -94.5q0 -72 -68 -114t-204 -42q-83 0 -139 44t-56 141zM336 -170q67 -3 67 -111q0 -73 -38 -90q64 5 108.5 33t44.5 84q0 43 -32 69.5t-87 26.5h-20 q-29 -4 -43 -12z" />
<glyph unicode="&#xb9;" d="M115 543v41h147v786h-147v41q74 0 216.5 13.5t219.5 29.5v-870h149v-41h-585zM303 584h207v817q-52 -13 -207 -27v-790z" />
<glyph unicode="&#xbb;" horiz-adv-x="970" d="M49 279l230 262l-230 268h252l227 -268l-227 -262h-252zM133 313h143l197 228l-197 231h-143l199 -231zM422 279l229 262l-229 268h252l227 -268l-227 -262h-252zM506 313h143l197 228l-197 231h-143l199 -231z" />
<glyph unicode="&#xbc;" horiz-adv-x="1878" d="M115 543v41h147v786h-147v41q74 0 216.5 13.5t219.5 29.5v-870h149v-41h-585zM303 584h207v817q-52 -13 -207 -27v-790zM555 0l831 1448h48l-832 -1448h-47zM1110 238v47l399 620h183v-626h49q36 0 42.5 14t6.5 86h41v-242h-41v53q0 35 -13 41.5t-85 6.5v-199h123v-39 h-531v39h123v199h-297zM1153 279h254v391zM1448 39h203v827h-115l-88 -135v-692z" />
<glyph unicode="&#xbd;" horiz-adv-x="1878" d="M115 543v41h147v786h-147v41q74 0 216.5 13.5t219.5 29.5v-870h149v-41h-585zM303 584h207v817q-52 -13 -207 -27v-790zM555 0l831 1448h48l-832 -1448h-47zM1120 0v158q201 144 262 198q33 31 57 56.5t51 63.5t41.5 82.5t14.5 92.5q0 88 -49.5 146.5t-144.5 58.5 q-49 0 -87 -27t-38 -67q0 -27 30 -27l48 4h10q52 0 80 -36t28 -82q0 -65 -38.5 -102.5t-100.5 -37.5q-65 0 -109.5 40.5t-44.5 117.5q0 10 1.5 24.5t9.5 42.5t21.5 54.5t40.5 56t63 51t92.5 36t126.5 14.5q94 0 161 -24.5t100.5 -65t47.5 -82t14 -87.5q0 -79 -31.5 -130.5 t-86.5 -92.5q-41 -32 -89.5 -57t-173.5 -80l-129 -61h326q72 0 92.5 3t32.5 15q23 20 31 125h39l-27 -381h-672zM1161 41h596l17 197q-16 -28 -41 -33.5t-109 -7.5h-381l-82 -56v-100zM1171 639q0 -49 28.5 -83t84.5 -34q42 0 70 27.5t28 71.5q0 77 -65 77h-12l-48 -4 q-54 0 -61 59v3q-25 -53 -25 -117zM1391 315q42 24 98.5 54.5t83.5 45.5t64 37t52 35.5t34.5 33t26.5 39t12 44t5 55.5q0 29 -4 53t-20.5 57.5t-45 56t-84 39t-130.5 16.5q-26 0 -51 -2q83 -22 119 -79.5t36 -148.5q0 -95 -51 -174.5t-145 -161.5z" />
<glyph unicode="&#xbe;" horiz-adv-x="1878" d="M59 756q0 58 36 98.5t104 40.5q57 0 96 -33.5t39 -93.5q0 -38 -19.5 -63t-60.5 -52q-16 -10 -16 -30q0 -24 24.5 -43t54.5 -19q36 0 65 23.5t45 60t24 75.5t8 75q0 42 -9 77.5t-28 66.5t-54 49t-83 18q-17 0 -47 -5.5t-41 -5.5q-35 0 -35 29q0 27 35 27q8 0 44 -3.5 t44 -3.5q78 0 111.5 48.5t33.5 140.5q0 21 -2.5 43.5t-12 57.5t-33.5 57t-60 22q-26 0 -45 -10.5t-19 -32.5q0 -13 18 -31q36 -27 51 -47.5t15 -54.5q0 -54 -35.5 -84.5t-85.5 -30.5q-58 0 -93.5 34t-35.5 93q0 38 17 74t52.5 69t101 53.5t151.5 20.5q135 0 207.5 -63 t72.5 -160q0 -57 -25.5 -99t-64.5 -63.5t-70 -31.5t-59 -13l-61 -6l61 -4q22 0 50.5 -5t67.5 -21t70.5 -40.5t53.5 -68t22 -98.5q0 -112 -100 -191.5t-272 -79.5q-149 0 -228.5 70.5t-79.5 163.5zM100 758q0 -45 29 -92t80 -70q-12 15 -12 37q0 20 15 37.5t33 28.5t33 29.5 t15 39.5q0 40 -26 63t-68 23q-40 0 -69.5 -26.5t-29.5 -69.5zM137 1249q0 -86 80 -86q42 0 63 21t21 53q0 21 -20.5 43.5t-41 43t-20.5 38.5q0 22 19 41q-51 -23 -76 -66t-25 -88zM375 1430q96 -41 96 -193q0 -149 -55 -174l18 4l20 3q20 4 36 8t41.5 12t44.5 21t38 30.5 t29 43.5t10 58q0 91 -63.5 140t-175.5 49q-25 0 -39 -2zM401 999q31 -12 52.5 -40t30.5 -62t12.5 -59t3.5 -45q0 -72 -26.5 -136.5t-67.5 -93.5h8q38 0 83 11.5t92 36t78 72t31 110.5q0 59 -26 101t-70.5 64t-93.5 31.5t-107 9.5zM555 0l831 1448h48l-832 -1448h-47z M1110 238v47l399 620h183v-626h49q36 0 42.5 14t6.5 86h41v-242h-41v53q0 35 -13 41.5t-85 6.5v-199h123v-39h-531v39h123v199h-297zM1153 279h254v391zM1448 39h203v827h-115l-88 -135v-692z" />
<glyph unicode="&#xbf;" horiz-adv-x="1110" d="M131 305q0 40 7 76t15.5 63t30 58.5t34.5 49t47 49t49 44t58.5 48t59.5 48.5l119 97q34 28 53 52.5t25 44t7 41.5t-1 46h57q68 -115 68 -191q0 -93 -41.5 -170t-167.5 -208q-62 -67 -87.5 -123.5t-25.5 -132.5q0 -77 54 -122.5t141 -45.5q180 0 180 77q0 20 -21.5 45 t-47 47t-47 60t-21.5 80q0 81 57.5 128.5t132.5 47.5q76 0 134.5 -50t58.5 -145q0 -36 -16.5 -78.5t-52.5 -87.5t-86 -81.5t-125.5 -60t-162.5 -23.5q-114 0 -204 24.5t-141 60t-84 81.5t-44.5 82.5t-11.5 68.5zM176 305q0 -28 9 -58t34 -66t62.5 -66.5t101.5 -56.5t145 -38 q-59 12 -96 62.5t-37 114.5q0 79 27 141.5t92 130.5q123 127 163 201t40 161q0 19 -3 38t-6.5 32.5t-10 30t-10 23.5t-11 20.5t-8.5 15.5q0 -56 -18 -94t-77 -86l-116 -96q-17 -14 -48 -39t-45.5 -37t-40 -34t-37.5 -35.5t-31 -34.5t-28.5 -37.5t-21 -40t-16.5 -45.5 t-9 -49.5t-4 -57.5zM420 1274q0 87 60 146t145 59q88 0 146 -58.5t58 -146.5q0 -86 -58.5 -145.5t-145.5 -59.5q-85 0 -145 60t-60 145zM461 1274q0 -69 47.5 -116.5t116.5 -47.5t116 47.5t47 116.5t-47 116.5t-116 47.5t-116.5 -47.5t-47.5 -116.5zM717 348q0 -45 21.5 -80 t47 -54t47 -46t21.5 -57q0 -24 -18 -45q78 51 130 119.5t52 136.5q0 67 -44.5 109t-107.5 42q-65 0 -107 -36t-42 -89z" />
<glyph unicode="&#xc0;" horiz-adv-x="1624" d="M35 0v41q109 0 154 32t85 146l316 899l-78 191q-21 52 -43.5 74t-69.5 22h-22v41h395q95 0 163 -51t105 -140l457 -1077q14 -32 24 -51t28 -41.5t43 -33.5t57 -11h30v-41h-436q-171 0 -239 160l-101 231h-522l-57 -174q-28 -81 -25 -113q3 -63 66 -63h98v-41h-123 q-38 0 -59 22t-27 50q-61 -72 -168 -72h-51zM301 1901q0 41 61 41h287l191 -343l-45 -26l-437 264q-4 2 -12 7.5t-11 7t-9 6t-8 6.5l-6 6t-5 6.5t-3 6.5t-2.5 8.5t-0.5 9.5zM348 1896q0 -5 12 -14l428 -266l-163 291h-260q-17 0 -17 -11zM393 432h494q-37 90 -141 331 t-130 304zM502 1405q6 -3 12.5 -9.5t11 -13t10.5 -18t8.5 -17.5t8 -19t6.5 -15l479 -1129q38 -88 93 -115.5t143 -27.5h266q-20 11 -39 39.5t-47 93.5l-446 1049q-41 99 -102 140.5t-165 41.5h-239z" />
<glyph unicode="&#xc1;" horiz-adv-x="1624" d="M35 0v41q109 0 154 32t85 146l316 899l-78 191q-21 52 -43.5 74t-69.5 22h-22v41h395q95 0 163 -51t105 -140l457 -1077q14 -32 24 -51t28 -41.5t43 -33.5t57 -11h30v-41h-436q-171 0 -239 160l-101 231h-522l-57 -174q-28 -81 -25 -113q3 -63 66 -63h98v-41h-123 q-38 0 -59 22t-27 50q-61 -72 -168 -72h-51zM393 432h494q-37 90 -141 331t-130 304zM502 1405q6 -3 12.5 -9.5t11 -13t10.5 -18t8.5 -17.5t8 -19t6.5 -15l479 -1129q38 -88 93 -115.5t143 -27.5h266q-20 11 -39 39.5t-47 93.5l-446 1049q-41 99 -102 140.5t-165 41.5h-239z M512 1604l190 342h287q62 0 62 -41q0 -6 -1 -11t-2.5 -8.5t-5 -8t-5.5 -6.5t-8.5 -7t-9.5 -7t-12.5 -7.5t-13.5 -8.5l-436 -264zM563 1620l428 266q13 10 13 15q0 10 -17 10h-260z" />
<glyph unicode="&#xc2;" horiz-adv-x="1624" d="M35 0v41q109 0 154 32t85 146l316 899l-78 191q-21 52 -43.5 74t-69.5 22h-22v41h395q95 0 163 -51t105 -140l457 -1077q14 -32 24 -51t28 -41.5t43 -33.5t57 -11h30v-41h-436q-171 0 -239 160l-101 231h-522l-57 -174q-28 -81 -25 -113q3 -63 66 -63h98v-41h-123 q-38 0 -59 22t-27 50q-61 -72 -168 -72h-51zM211 1599l287 349h217l276 -349l-22 -20l-365 195l-373 -195zM297 1649l307 174l307 -174l-221 260h-170zM393 432h494q-37 90 -141 331t-130 304zM502 1405q6 -3 12.5 -9.5t11 -13t10.5 -18t8.5 -17.5t8 -19t6.5 -15l479 -1129 q38 -88 93 -115.5t143 -27.5h266q-20 11 -39 39.5t-47 93.5l-446 1049q-41 99 -102 140.5t-165 41.5h-239z" />
<glyph unicode="&#xc3;" horiz-adv-x="1624" d="M35 0v41q109 0 154 32t85 146l316 899l-78 191q-21 52 -43.5 74t-69.5 22h-22v41h395q95 0 163 -51t105 -140l457 -1077q14 -32 24 -51t28 -41.5t43 -33.5t57 -11h30v-41h-436q-171 0 -239 160l-101 231h-522l-57 -174q-28 -81 -25 -113q3 -63 66 -63h98v-41h-123 q-38 0 -59 22t-27 50q-61 -72 -168 -72h-51zM229 1622q26 61 52 107.5t61 93.5t79 72.5t93 25.5q64 0 176 -45q62 -25 94.5 -33t73.5 -8q84 0 119 88l45 -18q-23 -60 -47 -107t-58.5 -94.5t-80 -73.5t-97.5 -26q-55 0 -175 43t-171 43q-80 0 -125 -91zM301 1688q36 43 98 43 q55 0 172 -43t168 -43q127 0 217 194q-25 -25 -47 -35t-57 -10q-66 0 -170 41q-112 45 -168 45q-28 0 -55 -12.5t-46 -27.5t-40.5 -41.5t-31 -41.5t-24.5 -41.5t-16 -27.5zM393 432h494q-37 90 -141 331t-130 304zM502 1405q6 -3 12.5 -9.5t11 -13t10.5 -18t8.5 -17.5t8 -19 t6.5 -15l479 -1129q38 -88 93 -115.5t143 -27.5h266q-20 11 -39 39.5t-47 93.5l-446 1049q-41 99 -102 140.5t-165 41.5h-239z" />
<glyph unicode="&#xc4;" horiz-adv-x="1624" d="M35 0v41q109 0 154 32t85 146l316 899l-78 191q-21 52 -43.5 74t-69.5 22h-22v41h395q95 0 163 -51t105 -140l457 -1077q14 -32 24 -51t28 -41.5t43 -33.5t57 -11h30v-41h-436q-171 0 -239 160l-101 231h-522l-57 -174q-28 -81 -25 -113q3 -63 66 -63h98v-41h-123 q-38 0 -59 22t-27 50q-61 -72 -168 -72h-51zM236 1763q0 73 52 123.5t126 50.5q72 0 123 -51t51 -123q0 -73 -50.5 -124.5t-123.5 -51.5q-74 0 -126 51.5t-52 124.5zM279 1763q0 -60 37.5 -97.5t97.5 -37.5q55 0 93 39t38 96q0 56 -38 94.5t-93 38.5q-59 0 -97 -38.5 t-38 -94.5zM393 432h494q-37 90 -141 331t-130 304zM502 1405q6 -3 12.5 -9.5t11 -13t10.5 -18t8.5 -17.5t8 -19t6.5 -15l479 -1129q38 -88 93 -115.5t143 -27.5h266q-20 11 -39 39.5t-47 93.5l-446 1049q-41 99 -102 140.5t-165 41.5h-239zM692 1763q0 73 52 123.5 t126 50.5q72 0 123 -51t51 -123q0 -73 -50.5 -124.5t-123.5 -51.5q-74 0 -126 51.5t-52 124.5zM735 1763q0 -60 37.5 -97.5t97.5 -37.5q55 0 93 39t38 96q0 56 -38 94.5t-93 38.5q-59 0 -97 -38.5t-38 -94.5z" />
<glyph unicode="&#xc5;" horiz-adv-x="1624" d="M35 0v41q109 0 154 32t85 146l316 899l-78 191q-21 52 -43.5 74t-69.5 22h-22v41h395q95 0 163 -51t105 -140l457 -1077q14 -32 24 -51t28 -41.5t43 -33.5t57 -11h30v-41h-436q-171 0 -239 160l-101 231h-522l-57 -174q-28 -81 -25 -113q3 -63 66 -63h98v-41h-123 q-38 0 -59 22t-27 50q-61 -72 -168 -72h-51zM393 432h494q-37 90 -141 331t-130 304zM418 1763q0 92 69.5 157t163.5 65q92 0 156.5 -65t64.5 -157t-65 -157.5t-156 -65.5q-105 0 -169 62.5t-64 160.5zM461 1763q0 -78 54 -131t134 -53q75 0 130 55t55 129q0 75 -55 130 t-130 55q-76 0 -132 -55t-56 -130zM502 1405q6 -3 12.5 -9.5t11 -13t10.5 -18t8.5 -17.5t8 -19t6.5 -15l479 -1129q38 -88 93 -115.5t143 -27.5h266q-20 11 -39 39.5t-47 93.5l-446 1049q-41 99 -102 140.5t-165 41.5h-239zM516 1763q0 51 40 91t93 40q55 0 92 -37.5 t37 -93.5q0 -53 -39 -92t-90 -39q-59 0 -96 36.5t-37 94.5zM559 1763q0 -37 26 -63.5t64 -26.5q37 0 63.5 26.5t26.5 63.5t-26 63.5t-64 26.5t-64 -27t-26 -63z" />
<glyph unicode="&#xc6;" horiz-adv-x="2064" d="M-10 0v41h39q63 0 101 40t103 163l566 1093q2 4 2 9t-1 8l-1 2q-9 23 -30 36t-48 13h-43v41h1278v-41h-184q73 -14 128.5 -78t55.5 -176v-59h-45q0 3 -0.5 25t-0.5 26t-1 23t-2.5 24t-4 21t-5.5 23t-8 20.5t-11 22.5t-14.5 20t-18.5 22q-86 86 -305 86h-332q-9 0 0 -6 q47 -27 66.5 -99.5t19.5 -140.5v-403h109q91 0 163 66t72 177v27h41v-22q0 -84 -44.5 -160t-131.5 -109q85 -32 130.5 -110.5t45.5 -161.5v-29h-41v19q0 115 -66.5 189.5t-178.5 74.5h-99v-428q0 -197 -86 -244q-2 0 -2 -2l2 -2h267h41.5h46t44 1t48 2.5t44 4.5t46 7 t41.5 11t42 15t34.5 19.5t33.5 25.5q24 24 38.5 49t20 59t6.5 53.5t1 65.5h45v-41q0 -117 -50 -185t-126 -87h176v-41h-1329v41h43q51 0 76.5 54t25.5 179v136h-454l-95 -183q-26 -48 -26 -106q0 -80 74 -80h69v-41h-74q-61 0 -85.5 31t-24.5 67v15q-64 -113 -160 -113h-57z M391 457h432v714q0 74 -8 115zM799 1405q34 -12 49.5 -67t15.5 -175v-897q0 -187 -51 -225h301q57 -2 98 59t41 166v891q0 102 -37 173t-100 75h-317z" />
<glyph unicode="&#xc7;" horiz-adv-x="1490" d="M78 713q0 165 58 306.5t162 243t254.5 159t328.5 57.5q155 0 249 -39t193 -142q24 13 37.5 40t13.5 57v43h41v-37q0 -101 -69 -139q22 -40 30.5 -57.5t24.5 -69t22 -111.5h-43q-20 188 -143.5 301t-304.5 113q-68 0 -123 -25.5t-91 -64.5t-62 -100.5t-40 -119t-22 -135 t-10 -134.5t-2 -130q0 -66 1 -111.5t4.5 -109.5t10 -109t19 -100t30 -92t44 -75t60 -61t79 -37t100.5 -14q193 0 320 126t134 331h43q-2 -30 -5.5 -57t-7 -47t-10 -42t-10.5 -34t-12.5 -30.5t-11.5 -25t-12.5 -24t-11.5 -20.5q69 -38 69 -140v-37h-41v43q0 30 -13.5 57 t-37.5 40q-96 -103 -191.5 -141.5t-250.5 -38.5h-13l-34 -111q14 8 51 8q76 0 117.5 -36.5t41.5 -94.5q0 -72 -68 -114t-204 -42q-83 0 -138.5 44t-55.5 141h45q0 -144 141 -144q84 0 84 88q0 45 -19 63.5t-57 20.5l57 179q-173 7 -314.5 63.5t-237 152.5t-147.5 228 t-52 287zM121 715q0 -129 38.5 -240.5t102.5 -189.5t148.5 -136.5t174.5 -89.5t183 -39q-132 60 -182.5 222.5t-50.5 486.5q0 299 48 460t175 245q-95 -13 -185 -48.5t-172.5 -97.5t-144.5 -142.5t-98.5 -192t-36.5 -238.5zM821 -170q34 -1 51 -31.5t17 -79.5q0 -73 -39 -90 q64 5 109 33t45 84q0 43 -32 69.5t-87 26.5h-21q-29 -4 -43 -12z" />
<glyph unicode="&#xc8;" horiz-adv-x="1409" d="M23 0v41h43q52 0 77 50.5t25 172.5v907q0 234 -102 234h-43v41h1277v-41h-184q73 -14 128.5 -78t55.5 -176v-59h-40v53q-2 63 -22.5 109.5t-53.5 75t-82.5 46t-100.5 23.5t-116 6h-330q-8 0 0 -4q34 -19 54 -68.5t25 -90.5t5 -83v-403h96q100 0 174 67.5t74 186.5v16h41 v-22q0 -83 -47.5 -163t-130.5 -106q84 -30 131 -110t47 -162v-29h-41v19q0 107 -72 184.5t-176 77.5h-96v-443q0 -180 -80 -229q-2 -2 2 -2h397q26 0 47 1t60 6.5t69 15t64.5 29.5t58 47.5t39 70.5t15.5 96v47h41v-41q0 -210 -176 -272h176v-41h-1329zM145 1405 q64 -35 64 -242v-897q0 -180 -57 -225h297q43 0 74 19.5t46.5 54t22 71t6.5 80.5v891q0 104 -37.5 176t-103.5 72h-312zM420 1903q0 41 61 41h287l190 -342l-45 -27l-436 264q-4 2 -12 7.5t-11 7t-9 6t-8 6.5l-6 6t-5 6.5t-3 6.5t-2.5 8.5t-0.5 9.5zM467 1898q0 -5 12 -14 l428 -266l-164 291h-260q-16 0 -16 -11z" />
<glyph unicode="&#xc9;" horiz-adv-x="1409" d="M23 0v41h43q52 0 77 50.5t25 172.5v907q0 234 -102 234h-43v41h1277v-41h-184q73 -14 128.5 -78t55.5 -176v-59h-40v53q-2 63 -22.5 109.5t-53.5 75t-82.5 46t-100.5 23.5t-116 6h-330q-8 0 0 -4q34 -19 54 -68.5t25 -90.5t5 -83v-403h96q100 0 174 67.5t74 186.5v16h41 v-22q0 -83 -47.5 -163t-130.5 -106q84 -30 131 -110t47 -162v-29h-41v19q0 107 -72 184.5t-176 77.5h-96v-443q0 -180 -80 -229q-2 -2 2 -2h397q26 0 47 1t60 6.5t69 15t64.5 29.5t58 47.5t39 70.5t15.5 96v47h41v-41q0 -210 -176 -272h176v-41h-1329zM145 1405 q64 -35 64 -242v-897q0 -180 -57 -225h297q43 0 74 19.5t46.5 54t22 71t6.5 80.5v891q0 104 -37.5 176t-103.5 72h-312zM420 1604l190 342h287q61 0 61 -41q0 -5 -0.5 -9.5t-2.5 -8.5t-3 -6.5t-5 -6.5l-6 -6t-8 -6.5t-9 -6t-11 -7t-12 -7.5l-436 -264zM471 1620l428 266 q12 9 12 15q0 10 -16 10h-260z" />
<glyph unicode="&#xca;" horiz-adv-x="1409" d="M23 0v41h43q52 0 77 50.5t25 172.5v907q0 234 -102 234h-43v41h1277v-41h-184q73 -14 128.5 -78t55.5 -176v-59h-40v53q-2 63 -22.5 109.5t-53.5 75t-82.5 46t-100.5 23.5t-116 6h-330q-8 0 0 -4q34 -19 54 -68.5t25 -90.5t5 -83v-403h96q100 0 174 67.5t74 186.5v16h41 v-22q0 -83 -47.5 -163t-130.5 -106q84 -30 131 -110t47 -162v-29h-41v19q0 107 -72 184.5t-176 77.5h-96v-443q0 -180 -80 -229q-2 -2 2 -2h397q26 0 47 1t60 6.5t69 15t64.5 29.5t58 47.5t39 70.5t15.5 96v47h41v-41q0 -210 -176 -272h176v-41h-1329zM145 1405 q64 -35 64 -242v-897q0 -180 -57 -225h297q43 0 74 19.5t46.5 54t22 71t6.5 80.5v891q0 104 -37.5 176t-103.5 72h-312zM297 1599l287 349h217l276 -349l-22 -20l-365 195l-373 -195zM383 1649l307 174l307 -174l-221 260h-170z" />
<glyph unicode="&#xcb;" horiz-adv-x="1409" d="M23 0v41h43q52 0 77 50.5t25 172.5v907q0 234 -102 234h-43v41h1277v-41h-184q73 -14 128.5 -78t55.5 -176v-59h-40v53q-2 63 -22.5 109.5t-53.5 75t-82.5 46t-100.5 23.5t-116 6h-330q-8 0 0 -4q34 -19 54 -68.5t25 -90.5t5 -83v-403h96q100 0 174 67.5t74 186.5v16h41 v-22q0 -83 -47.5 -163t-130.5 -106q84 -30 131 -110t47 -162v-29h-41v19q0 107 -72 184.5t-176 77.5h-96v-443q0 -180 -80 -229q-2 -2 2 -2h397q26 0 47 1t60 6.5t69 15t64.5 29.5t58 47.5t39 70.5t15.5 96v47h41v-41q0 -210 -176 -272h176v-41h-1329zM145 1405 q64 -35 64 -242v-897q0 -180 -57 -225h297q43 0 74 19.5t46.5 54t22 71t6.5 80.5v891q0 104 -37.5 176t-103.5 72h-312zM287 1765q0 73 52 123.5t126 50.5q72 0 123 -51t51 -123q0 -73 -50.5 -124.5t-123.5 -51.5q-74 0 -126 51.5t-52 124.5zM330 1765q0 -60 37.5 -97.5 t97.5 -37.5q55 0 93 39t38 96q0 56 -38 94.5t-93 38.5q-59 0 -97 -38.5t-38 -94.5zM743 1765q0 73 52.5 123.5t126.5 50.5q72 0 123 -51t51 -123q0 -73 -50.5 -124.5t-123.5 -51.5q-74 0 -126.5 51.5t-52.5 124.5zM786 1765q0 -60 38 -97.5t98 -37.5q55 0 93 39t38 96 q0 56 -38 94.5t-93 38.5q-59 0 -97.5 -38.5t-38.5 -94.5z" />
<glyph unicode="&#xcc;" d="M25 0v41h43q51 0 76.5 54t25.5 179v889q0 131 -25.5 186.5t-76.5 55.5h-43v41h673v-41h-143q-8 0 0 -4q48 -26 67 -98t19 -140v-874q0 -175 -86 -244q-4 -4 2 -4h141v-41h-673zM66 1903q0 41 61 41h287l190 -342l-45 -27l-436 264q-4 2 -12 7.5t-11 7t-9 6t-8 6.5l-6 6 t-5 6.5t-3 6.5t-2.5 8.5t-0.5 9.5zM113 1898q0 -5 12 -14l428 -266l-164 291h-260q-16 0 -16 -11zM143 1405q68 -36 68 -242v-897q0 -183 -57 -225h317q70 27 99.5 80t29.5 145v891q0 105 -34 171.5t-103 76.5h-320z" />
<glyph unicode="&#xcd;" d="M25 0v41h43q51 0 76.5 54t25.5 179v889q0 131 -25.5 186.5t-76.5 55.5h-43v41h673v-41h-143q-8 0 0 -4q48 -26 67 -98t19 -140v-874q0 -175 -86 -244q-4 -4 2 -4h141v-41h-673zM135 1604l191 342h286q62 0 62 -41q0 -6 -1 -11t-2.5 -8.5t-5 -8t-5.5 -6.5t-8.5 -7t-9.5 -7 t-12.5 -7.5t-13.5 -8.5l-436 -264zM143 1405q68 -36 68 -242v-897q0 -183 -57 -225h317q70 27 99.5 80t29.5 145v891q0 105 -34 171.5t-103 76.5h-320zM186 1620l428 266q13 10 13 15q0 10 -17 10h-260z" />
<glyph unicode="&#xce;" d="M-25 1599l287 349h217l277 -349l-23 -20l-364 195l-373 -195zM25 0v41h43q51 0 76.5 54t25.5 179v889q0 131 -25.5 186.5t-76.5 55.5h-43v41h673v-41h-143q-8 0 0 -4q48 -26 67 -98t19 -140v-874q0 -175 -86 -244q-4 -4 2 -4h141v-41h-673zM61 1649l308 174l307 -174 l-221 260h-170zM143 1405q68 -36 68 -242v-897q0 -183 -57 -225h317q70 27 99.5 80t29.5 145v891q0 105 -34 171.5t-103 76.5h-320z" />
<glyph unicode="&#xcf;" d="M-31 1765q0 73 52 123.5t126 50.5q72 0 123.5 -51t51.5 -123t-51 -124t-124 -52q-74 0 -126 51.5t-52 124.5zM12 1765q0 -60 37.5 -97.5t97.5 -37.5q56 0 94 39t38 96q0 56 -38.5 94.5t-93.5 38.5q-59 0 -97 -38.5t-38 -94.5zM25 0v41h43q51 0 76.5 54t25.5 179v889 q0 131 -25.5 186.5t-76.5 55.5h-43v41h673v-41h-143q-8 0 0 -4q48 -26 67 -98t19 -140v-874q0 -175 -86 -244q-4 -4 2 -4h141v-41h-673zM143 1405q68 -36 68 -242v-897q0 -183 -57 -225h317q70 27 99.5 80t29.5 145v891q0 105 -34 171.5t-103 76.5h-320zM426 1765 q0 73 52 123.5t126 50.5q72 0 123 -51t51 -123q0 -73 -50.5 -124.5t-123.5 -51.5q-74 0 -126 51.5t-52 124.5zM469 1765q0 -60 37.5 -97.5t97.5 -37.5q55 0 93 39t38 96q0 56 -38 94.5t-93 38.5q-59 0 -97 -38.5t-38 -94.5z" />
<glyph unicode="&#xd0;" horiz-adv-x="1662" d="M8 731v41h160v399q0 125 -25.5 179.5t-76.5 54.5h-43v41h667q113 0 198 -5.5t181 -23.5t164.5 -49t134 -85t106 -129t65 -183.5t24.5 -245.5q0 -69 -7.5 -129t-27.5 -128.5t-61.5 -135t-102.5 -125.5q-59 -57 -131 -97t-139 -61t-162 -32.5t-168 -14t-189 -2.5h-550v41 h43q51 0 75.5 53.5t24.5 179.5v457h-160zM143 1405q34 -13 50 -67.5t16 -174.5v-897q0 -187 -51 -225h313q67 24 97 76t30 149v891q0 102 -36.5 173t-98.5 75h-320zM547 1403q0 -2 2 -2h4q48 -22 67 -96t19 -146v-387h240v-41h-240v-442q0 -44 -5 -85.5t-25 -91t-54 -67.5 q-2 -2 -4 -2q0 -2 4 -2h80q88 0 155 19.5t113 60t76 92.5t46.5 127.5t23 153t6.5 180.5q0 351 -29 479q-20 77 -56.5 128.5t-89.5 77.5t-110 36t-135 10h-82q-2 0 -4 -2h-2zM842 41q175 18 292.5 62.5t202.5 129.5q99 99 142 231.5t43 260.5q0 165 -35 285t-113.5 208 t-208.5 135.5t-317 57.5q31 -13 48 -22t46.5 -30t49 -45.5t40.5 -66t35 -94.5q29 -124 29 -393q0 -92 -1.5 -153.5t-7 -137t-16 -125.5t-29 -104t-45 -89t-65.5 -64.5t-90 -45.5z" />
<glyph unicode="&#xd1;" horiz-adv-x="1492" d="M10 0v41h37q84 0 116 51.5t32 143.5v1015q0 40 -1.5 62.5t-7 46.5t-17.5 34.5t-32 10.5h-112v41h493q64 0 114.5 -14.5t88.5 -44t63 -59t54 -73.5l436 -675v602q0 90 -18.5 139.5t-50.5 66.5t-87 17h-37v41h39q72 0 112.5 -26.5t63.5 -80.5q18 51 59 79t85 28h61v-41h-51 q-41 0 -69 -18t-42 -52t-19 -70t-5 -83v-1182h-72q-47 0 -86 11t-64.5 25.5t-52 43.5t-41 50t-38.5 60l-678 1092q-25 39 -54 64q7 -21 7 -84v-1026q0 -92 30.5 -141.5t120.5 -53.5h47v-41h-49q-59 0 -107.5 25.5t-64.5 76.5q-13 -44 -55.5 -73t-108.5 -29h-39zM215 1405 q62 -25 123 -125l659 -1065q54 -86 111 -130t129 -44h37v461l-488 745q-58 89 -120.5 123.5t-141.5 34.5h-309zM373 1575q27 61 52 107.5t60.5 93.5t79 72.5t92.5 25.5q65 0 177 -45q62 -25 94 -33t73 -8q84 0 119 88l45 -18q-18 -47 -35.5 -85t-44 -80.5t-55 -71t-67 -47 t-80.5 -18.5q-55 0 -175 43t-171 43q-81 0 -125 -90zM444 1640q36 43 99 43q55 0 172 -43t168 -43q127 0 217 195q-24 -24 -47 -34.5t-58 -10.5q-66 0 -170 41q-112 45 -168 45q-28 0 -55 -12.5t-46 -27.5t-40.5 -42t-31 -42t-24.5 -41.5t-16 -27.5z" />
<glyph unicode="&#xd2;" horiz-adv-x="1691" d="M72 731q0 167 61.5 308.5t168 237t250 149t306.5 53.5q218 0 396.5 -91t284.5 -263t106 -394q0 -165 -56.5 -304.5t-158 -238t-249 -153.5t-323.5 -55q-235 0 -414 95t-275.5 265t-96.5 391zM113 731q0 -127 36 -237t97 -190t142 -140t169.5 -93.5t181.5 -43.5 q-41 16 -72.5 49t-52.5 71.5t-35.5 97.5t-22 108.5t-11.5 124t-5 124.5t-1 129v43q0 98 1 147.5t6 132t18 130t34.5 103t58 91t86.5 56.5q-83 -8 -168.5 -40.5t-169 -92t-148 -139t-104.5 -192t-40 -239.5zM520 1903q0 41 62 41h286l191 -342l-45 -27l-436 264 q-4 3 -13.5 8.5t-12.5 7.5t-9.5 7t-8.5 7t-5.5 6.5t-5 8t-2.5 8.5t-1 11zM567 1898q0 -4 13 -14l428 -266l-164 291h-260q-17 0 -17 -11zM580 731q0 -60 1 -106.5t4 -107t8.5 -107t16 -99t24.5 -91t35.5 -75.5t48 -60.5t62 -37.5t78.5 -14q55 0 98 23t72 59.5t50 94.5 t32 114t17.5 133t8 136t1.5 138v44q-1 40 0 85.5t-2 93.5t-7 96t-14 94.5t-23 88.5t-34.5 77t-49 60.5t-65.5 40t-84 14.5q-51 0 -93 -18t-70 -49.5t-49.5 -74.5t-33 -92.5t-20 -103.5t-9.5 -108t-3 -105.5t0 -96.5v-46zM973 1434q30 -13 55.5 -31t45 -44.5t34.5 -49.5 t26 -62.5t19 -65.5t12.5 -76t7.5 -76.5t4 -85t1 -84v-89.5v-39q0 -78 -1 -129t-5 -125t-11.5 -123.5t-22.5 -108t-36 -97.5t-52.5 -72t-72.5 -49q117 13 226.5 64t200 136t145.5 216t55 288q0 127 -40 239.5t-105 192t-148.5 139t-169 92t-168.5 40.5z" />
<glyph unicode="&#xd3;" horiz-adv-x="1691" d="M72 731q0 167 61.5 308.5t168 237t250 149t306.5 53.5q218 0 396.5 -91t284.5 -263t106 -394q0 -165 -56.5 -304.5t-158 -238t-249 -153.5t-323.5 -55q-235 0 -414 95t-275.5 265t-96.5 391zM113 731q0 -127 36 -237t97 -190t142 -140t169.5 -93.5t181.5 -43.5 q-41 16 -72.5 49t-52.5 71.5t-35.5 97.5t-22 108.5t-11.5 124t-5 124.5t-1 129v43q0 98 1 147.5t6 132t18 130t34.5 103t58 91t86.5 56.5q-83 -8 -168.5 -40.5t-169 -92t-148 -139t-104.5 -192t-40 -239.5zM573 1604l191 342h287q61 0 61 -41q0 -5 -0.5 -9.5t-2.5 -8.5 t-3 -6.5t-5 -6.5l-6 -6t-8 -6.5t-9 -6t-11 -7t-12 -7.5l-437 -264zM580 731q0 -60 1 -106.5t4 -107t8.5 -107t16 -99t24.5 -91t35.5 -75.5t48 -60.5t62 -37.5t78.5 -14q55 0 98 23t72 59.5t50 94.5t32 114t17.5 133t8 136t1.5 138v44q-1 40 0 85.5t-2 93.5t-7 96t-14 94.5 t-23 88.5t-34.5 77t-49 60.5t-65.5 40t-84 14.5q-51 0 -93 -18t-70 -49.5t-49.5 -74.5t-33 -92.5t-20 -103.5t-9.5 -108t-3 -105.5t0 -96.5v-46zM625 1620l428 266q12 9 12 15q0 10 -16 10h-261zM973 1434q30 -13 55.5 -31t45 -44.5t34.5 -49.5t26 -62.5t19 -65.5t12.5 -76 t7.5 -76.5t4 -85t1 -84v-89.5v-39q0 -78 -1 -129t-5 -125t-11.5 -123.5t-22.5 -108t-36 -97.5t-52.5 -72t-72.5 -49q117 13 226.5 64t200 136t145.5 216t55 288q0 127 -40 239.5t-105 192t-148.5 139t-169 92t-168.5 40.5z" />
<glyph unicode="&#xd4;" horiz-adv-x="1691" d="M72 731q0 167 61.5 308.5t168 237t250 149t306.5 53.5q218 0 396.5 -91t284.5 -263t106 -394q0 -165 -56.5 -304.5t-158 -238t-249 -153.5t-323.5 -55q-235 0 -414 95t-275.5 265t-96.5 391zM113 731q0 -127 36 -237t97 -190t142 -140t169.5 -93.5t181.5 -43.5 q-41 16 -72.5 49t-52.5 71.5t-35.5 97.5t-22 108.5t-11.5 124t-5 124.5t-1 129v43q0 98 1 147.5t6 132t18 130t34.5 103t58 91t86.5 56.5q-83 -8 -168.5 -40.5t-169 -92t-148 -139t-104.5 -192t-40 -239.5zM467 1599l287 349h217l276 -349l-22 -20l-365 195l-373 -195z M553 1649l307 174l307 -174l-221 260h-170zM580 731q0 -60 1 -106.5t4 -107t8.5 -107t16 -99t24.5 -91t35.5 -75.5t48 -60.5t62 -37.5t78.5 -14q55 0 98 23t72 59.5t50 94.5t32 114t17.5 133t8 136t1.5 138v44q-1 40 0 85.5t-2 93.5t-7 96t-14 94.5t-23 88.5t-34.5 77 t-49 60.5t-65.5 40t-84 14.5q-51 0 -93 -18t-70 -49.5t-49.5 -74.5t-33 -92.5t-20 -103.5t-9.5 -108t-3 -105.5t0 -96.5v-46zM973 1434q30 -13 55.5 -31t45 -44.5t34.5 -49.5t26 -62.5t19 -65.5t12.5 -76t7.5 -76.5t4 -85t1 -84v-89.5v-39q0 -78 -1 -129t-5 -125 t-11.5 -123.5t-22.5 -108t-36 -97.5t-52.5 -72t-72.5 -49q117 13 226.5 64t200 136t145.5 216t55 288q0 127 -40 239.5t-105 192t-148.5 139t-169 92t-168.5 40.5z" />
<glyph unicode="&#xd5;" horiz-adv-x="1691" d="M72 731q0 167 61.5 308.5t168 237t250 149t306.5 53.5q218 0 396.5 -91t284.5 -263t106 -394q0 -165 -56.5 -304.5t-158 -238t-249 -153.5t-323.5 -55q-235 0 -414 95t-275.5 265t-96.5 391zM113 731q0 -127 36 -237t97 -190t142 -140t169.5 -93.5t181.5 -43.5 q-41 16 -72.5 49t-52.5 71.5t-35.5 97.5t-22 108.5t-11.5 124t-5 124.5t-1 129v43q0 98 1 147.5t6 132t18 130t34.5 103t58 91t86.5 56.5q-83 -8 -168.5 -40.5t-169 -92t-148 -139t-104.5 -192t-40 -239.5zM469 1622q26 61 52 107.5t61 93.5t79 72.5t93 25.5q64 0 176 -45 q62 -25 94.5 -33t73.5 -8q84 0 119 88l45 -18q-23 -60 -47 -107t-58.5 -94.5t-80 -73.5t-97.5 -26q-55 0 -175 43t-171 43q-80 0 -125 -91zM541 1688q36 43 98 43q55 0 172 -43t168 -43q127 0 217 194q-25 -25 -47 -35t-57 -10q-66 0 -170 41q-112 45 -168 45 q-28 0 -55 -12.5t-46 -27.5t-40.5 -41.5t-31 -41.5t-24.5 -41.5t-16 -27.5zM580 731q0 -60 1 -106.5t4 -107t8.5 -107t16 -99t24.5 -91t35.5 -75.5t48 -60.5t62 -37.5t78.5 -14q55 0 98 23t72 59.5t50 94.5t32 114t17.5 133t8 136t1.5 138v44q-1 40 0 85.5t-2 93.5t-7 96 t-14 94.5t-23 88.5t-34.5 77t-49 60.5t-65.5 40t-84 14.5q-51 0 -93 -18t-70 -49.5t-49.5 -74.5t-33 -92.5t-20 -103.5t-9.5 -108t-3 -105.5t0 -96.5v-46zM973 1434q30 -13 55.5 -31t45 -44.5t34.5 -49.5t26 -62.5t19 -65.5t12.5 -76t7.5 -76.5t4 -85t1 -84v-89.5v-39 q0 -78 -1 -129t-5 -125t-11.5 -123.5t-22.5 -108t-36 -97.5t-52.5 -72t-72.5 -49q117 13 226.5 64t200 136t145.5 216t55 288q0 127 -40 239.5t-105 192t-148.5 139t-169 92t-168.5 40.5z" />
<glyph unicode="&#xd6;" horiz-adv-x="1691" d="M72 731q0 167 61.5 308.5t168 237t250 149t306.5 53.5q218 0 396.5 -91t284.5 -263t106 -394q0 -165 -56.5 -304.5t-158 -238t-249 -153.5t-323.5 -55q-235 0 -414 95t-275.5 265t-96.5 391zM113 731q0 -127 36 -237t97 -190t142 -140t169.5 -93.5t181.5 -43.5 q-41 16 -72.5 49t-52.5 71.5t-35.5 97.5t-22 108.5t-11.5 124t-5 124.5t-1 129v43q0 98 1 147.5t6 132t18 130t34.5 103t58 91t86.5 56.5q-83 -8 -168.5 -40.5t-169 -92t-148 -139t-104.5 -192t-40 -239.5zM440 1765q0 73 52 123.5t126 50.5q72 0 123.5 -51t51.5 -123 t-51 -124t-124 -52q-74 0 -126 51.5t-52 124.5zM483 1765q0 -60 37.5 -97.5t97.5 -37.5q56 0 94 39t38 96q0 56 -38.5 94.5t-93.5 38.5q-59 0 -97 -38.5t-38 -94.5zM580 731q0 -60 1 -106.5t4 -107t8.5 -107t16 -99t24.5 -91t35.5 -75.5t48 -60.5t62 -37.5t78.5 -14 q55 0 98 23t72 59.5t50 94.5t32 114t17.5 133t8 136t1.5 138v44q-1 40 0 85.5t-2 93.5t-7 96t-14 94.5t-23 88.5t-34.5 77t-49 60.5t-65.5 40t-84 14.5q-51 0 -93 -18t-70 -49.5t-49.5 -74.5t-33 -92.5t-20 -103.5t-9.5 -108t-3 -105.5t0 -96.5v-46zM897 1765q0 73 52 123.5 t126 50.5q72 0 123 -51t51 -123q0 -73 -50.5 -124.5t-123.5 -51.5q-74 0 -126 51.5t-52 124.5zM940 1765q0 -60 37.5 -97.5t97.5 -37.5q55 0 93 39t38 96q0 56 -38 94.5t-93 38.5q-59 0 -97 -38.5t-38 -94.5zM973 1434q30 -13 55.5 -31t45 -44.5t34.5 -49.5t26 -62.5 t19 -65.5t12.5 -76t7.5 -76.5t4 -85t1 -84v-89.5v-39q0 -78 -1 -129t-5 -125t-11.5 -123.5t-22.5 -108t-36 -97.5t-52.5 -72t-72.5 -49q117 13 226.5 64t200 136t145.5 216t55 288q0 127 -40 239.5t-105 192t-148.5 139t-169 92t-168.5 40.5z" />
<glyph unicode="&#xd7;" horiz-adv-x="1366" d="M137 117l395 395l-389 397l150 148l389 -395l391 391l150 -150l-392 -391l396 -393l-150 -150l-395 393l-395 -395zM195 117l92 -90l395 395l395 -395l90 92l-393 393l391 391l-92 92l-391 -391l-389 395l-92 -90l391 -397z" />
<glyph unicode="&#xd8;" horiz-adv-x="1691" d="M14 -45l265 250q-205 205 -205 526q0 162 62.5 302.5t169 237.5t250.5 152.5t304 55.5q157 0 296.5 -56.5t244.5 -158.5v2l239 225h60l-273 -256q193 -212 193 -504q0 -165 -64.5 -307.5t-170.5 -238.5t-243 -150.5t-282 -54.5q-338 0 -553 196l-235 -221h-58zM121 731 q0 -126 36 -236.5t96.5 -190.5t141 -140t168 -93.5t178.5 -43.5q-39 12 -69.5 42.5t-51.5 70.5t-36 97t-23 111t-13 125.5t-6 128t-1 129.5v21v91.5t1.5 87.5t4 88.5t7.5 80.5t12.5 78.5t18.5 68.5t26 64t34 51t44.5 43.5t55.5 28.5q-81 -8 -165.5 -40t-167 -92t-147 -139.5 t-104.5 -192t-40 -239.5zM589.5 922q-3.5 -71 0.5 -132v-59q0 -151 4 -229l510 485q-4 87 -12 151t-25.5 121.5t-44 93.5t-67 56.5t-95.5 20.5q-66 0 -116 -30.5t-77.5 -81.5t-46.5 -117t-23 -137t-7.5 -142zM598 446q8 -90 24 -159t45 -130.5t78 -94.5t115 -33 q45 0 81.5 15t62 49t44 68t29.5 94.5t18 103.5t9.5 120t3 119.5t0.5 124.5v8q0 36 -1 103t-1 96zM971 25q93 15 180 53t164.5 100.5t135 142.5t91 186t33.5 224q0 124 -38.5 235t-100.5 191t-141 141t-160.5 94.5t-157.5 41.5q43 -14 75 -47t51 -91.5t30.5 -106t16 -135.5 t5 -134t0.5 -143v-48q0 -69 -0.5 -113t-3 -111.5t-7.5 -113.5t-13.5 -102.5t-22.5 -95t-32.5 -75.5t-45 -60t-59.5 -33z" />
<glyph unicode="&#xd9;" horiz-adv-x="1492" d="M10 1405v41h682v-41h-145q-8 0 0 -4q28 -19 46 -47t24.5 -65.5t8 -61.5t1.5 -64v-680q0 -80 12.5 -152t42 -142t88 -112t139.5 -42q183 0 282 118t99 361v694q0 102 -37 149.5t-118 47.5h-37v41h39q65 0 110 -28t60 -68q14 47 62 71.5t110 24.5h43v-41h-31q-55 0 -88 -11 t-48.5 -38t-19.5 -56.5t-4 -82.5v-703q0 -125 -26 -219t-70.5 -153.5t-113 -96t-145.5 -51t-175 -14.5q-175 0 -299.5 39.5t-200 119.5t-110.5 192t-35 265v567q0 132 -25.5 187t-77.5 55h-43zM139 1405q33 -24 45.5 -75.5t12.5 -166.5v-581q0 -159 41 -268t137 -185 q141 -113 430 -113q-31 11 -59 29.5t-58.5 55.5t-52 86t-35.5 125.5t-14 170.5v674q0 71 -13.5 124t-49 88.5t-91.5 35.5h-293zM520 1903q0 41 62 41h286l191 -342l-45 -27l-436 264q-4 3 -13.5 8.5t-12.5 7.5t-9.5 7t-8.5 7t-5.5 6.5t-5 8t-2.5 8.5t-1 11zM567 1898 q0 -4 13 -14l428 -266l-164 291h-260q-17 0 -17 -11z" />
<glyph unicode="&#xda;" horiz-adv-x="1492" d="M10 1405v41h682v-41h-145q-8 0 0 -4q28 -19 46 -47t24.5 -65.5t8 -61.5t1.5 -64v-680q0 -80 12.5 -152t42 -142t88 -112t139.5 -42q183 0 282 118t99 361v694q0 102 -37 149.5t-118 47.5h-37v41h39q65 0 110 -28t60 -68q14 47 62 71.5t110 24.5h43v-41h-31q-55 0 -88 -11 t-48.5 -38t-19.5 -56.5t-4 -82.5v-703q0 -125 -26 -219t-70.5 -153.5t-113 -96t-145.5 -51t-175 -14.5q-175 0 -299.5 39.5t-200 119.5t-110.5 192t-35 265v567q0 132 -25.5 187t-77.5 55h-43zM139 1405q33 -24 45.5 -75.5t12.5 -166.5v-581q0 -159 41 -268t137 -185 q141 -113 430 -113q-31 11 -59 29.5t-58.5 55.5t-52 86t-35.5 125.5t-14 170.5v674q0 71 -13.5 124t-49 88.5t-91.5 35.5h-293zM686 1604l191 342h286q62 0 62 -41q0 -6 -1 -11t-2.5 -8.5t-5 -8t-5.5 -6.5t-8.5 -7t-9.5 -7t-12.5 -7.5t-13.5 -8.5l-436 -264zM737 1620 l428 266q13 10 13 15q0 10 -17 10h-260z" />
<glyph unicode="&#xdb;" horiz-adv-x="1492" d="M10 1405v41h682v-41h-145q-8 0 0 -4q28 -19 46 -47t24.5 -65.5t8 -61.5t1.5 -64v-680q0 -80 12.5 -152t42 -142t88 -112t139.5 -42q183 0 282 118t99 361v694q0 102 -37 149.5t-118 47.5h-37v41h39q65 0 110 -28t60 -68q14 47 62 71.5t110 24.5h43v-41h-31q-55 0 -88 -11 t-48.5 -38t-19.5 -56.5t-4 -82.5v-703q0 -125 -26 -219t-70.5 -153.5t-113 -96t-145.5 -51t-175 -14.5q-175 0 -299.5 39.5t-200 119.5t-110.5 192t-35 265v567q0 132 -25.5 187t-77.5 55h-43zM139 1405q33 -24 45.5 -75.5t12.5 -166.5v-581q0 -159 41 -268t137 -185 q141 -113 430 -113q-31 11 -59 29.5t-58.5 55.5t-52 86t-35.5 125.5t-14 170.5v674q0 71 -13.5 124t-49 88.5t-91.5 35.5h-293zM410 1599l286 349h217l277 -349l-23 -20l-364 195l-373 -195zM496 1649l307 174l307 -174l-221 260h-170z" />
<glyph unicode="&#xdc;" horiz-adv-x="1492" d="M10 1405v41h682v-41h-145q-8 0 0 -4q28 -19 46 -47t24.5 -65.5t8 -61.5t1.5 -64v-680q0 -80 12.5 -152t42 -142t88 -112t139.5 -42q183 0 282 118t99 361v694q0 102 -37 149.5t-118 47.5h-37v41h39q65 0 110 -28t60 -68q14 47 62 71.5t110 24.5h43v-41h-31q-55 0 -88 -11 t-48.5 -38t-19.5 -56.5t-4 -82.5v-703q0 -125 -26 -219t-70.5 -153.5t-113 -96t-145.5 -51t-175 -14.5q-175 0 -299.5 39.5t-200 119.5t-110.5 192t-35 265v567q0 132 -25.5 187t-77.5 55h-43zM139 1405q33 -24 45.5 -75.5t12.5 -166.5v-581q0 -159 41 -268t137 -185 q141 -113 430 -113q-31 11 -59 29.5t-58.5 55.5t-52 86t-35.5 125.5t-14 170.5v674q0 71 -13.5 124t-49 88.5t-91.5 35.5h-293zM365 1763q0 73 52 123.5t126 50.5q72 0 123 -51t51 -123q0 -73 -50.5 -124.5t-123.5 -51.5q-74 0 -126 51.5t-52 124.5zM408 1763 q0 -60 37.5 -97.5t97.5 -37.5q55 0 93 39t38 96q0 56 -38 94.5t-93 38.5q-59 0 -97 -38.5t-38 -94.5zM821 1763q0 73 52 123.5t126 50.5q72 0 123.5 -51t51.5 -123t-51 -124t-124 -52q-74 0 -126 51.5t-52 124.5zM864 1763q0 -60 37.5 -97.5t97.5 -37.5q55 0 93 39t38 96 q0 56 -38 94.5t-93 38.5q-59 0 -97 -38.5t-38 -94.5z" />
<glyph unicode="&#xdd;" horiz-adv-x="1579" d="M0 1405v41h791v-41h-173q-6 0 -2 -4q61 -28 115 -135l207 -416q63 -130 72 -160l262 535q37 78 37 123q0 57 -68 57h-90v41h109q86 0 96 -74q49 74 172 74h51v-41h-43q-84 -3 -125 -37.5t-98 -150.5l-285 -576q16 -91 16 -199v-143q0 -191 -75 -254q-4 -4 2 -4h192v-41 h-805v41h109q106 0 106 240v217q0 67 -45 147l-329 617q-77 143 -162 143h-37zM137 1405q28 -14 50 -44t55 -91l329 -615q43 -82 43 -149v-236q0 -182 -59 -229h313q47 0 79 39.5t44.5 90t12.5 103.5v191q0 38 -2.5 71.5t-10.5 66.5t-12.5 52.5t-19 52.5t-18.5 42t-22 45 t-20 39l-203 411q-20 41 -49 74.5t-55 50.5t-44.5 26t-25.5 9h-385zM657 1602l191 342h287q61 0 61 -41q0 -5 -0.5 -9.5t-2.5 -8.5t-3 -6.5t-5 -6.5l-6 -6t-8 -6.5t-9 -6t-11 -7t-12 -7.5l-437 -264zM709 1618l428 266q12 9 12 14q0 11 -16 11h-261z" />
<glyph unicode="&#xde;" horiz-adv-x="1310" d="M12 18v41h31q52 0 77 50.5t25 173.5v899q0 123 -25 173t-77 50h-31v41q187 0 268 6t197 29q16 5 27 -6q61 -56 61 -193v-291q71 131 273 131q84 0 156 -23.5t129.5 -69.5t90.5 -122.5t33 -175.5q0 -107 -32 -184.5t-90.5 -121t-131 -63.5t-162.5 -20q-105 0 -174.5 35 t-91.5 88v-283q0 -50 -17.5 -102t-49.5 -84q-14 -14 -35 -10q-121 20 -200.5 26t-250.5 6zM125 59h25q154 0 317 -32q4 0 6 2q51 47 51 157v1092q0 34 -1 53.5t-10 49.5t-26 53q-6 6 -20 4q-131 -33 -317 -33h-21q32 -22 44.5 -70.5t12.5 -152.5v-899q0 -103 -14 -155 t-47 -69zM565 672q0 -242 121 -242q20 0 35.5 6.5t26.5 21t19 28.5t13 38.5t8 41t4 45.5t1 42v42v14q0 315 -101 315q-19 0 -38.5 -8.5t-41 -29.5t-34.5 -67.5t-13 -111.5v-135zM688 1059h12q134 0 134 -350v-17v-53t-2.5 -54t-7 -57t-13.5 -49.5t-22.5 -43.5t-34 -27 t-47.5 -11q47 -14 124 -14q83 0 148.5 18t117.5 57.5t80.5 108.5t28.5 164q0 90 -30.5 159t-83 109.5t-116.5 61t-138 20.5q-114 0 -150 -22z" />
<glyph unicode="&#xdf;" horiz-adv-x="1449" d="M-4 0v41h43q51 0 76.5 54t25.5 179v764q0 141 78.5 243t212 152t307.5 50q45 0 89 -3.5t97.5 -12.5t97.5 -27t82 -43.5t59.5 -66t21.5 -91.5q0 -82 -55.5 -142.5t-155.5 -60.5q-94 0 -146.5 53t-52.5 130q0 45 17.5 76t54.5 61q20 16 20 37q0 18 -28 31.5t-64 13.5 q-213 0 -213 -219v-424q108 151 410 151q43 0 86.5 -4t98 -17t94.5 -34.5t68 -60t28 -89.5q0 -160 -234 -192q121 -30 192.5 -91t71.5 -171q0 -56 -25 -108.5t-75.5 -98t-137 -73t-198.5 -27.5q-53 0 -103 10.5t-97 33t-76 65.5t-29 101q0 63 37.5 96t85.5 33q50 0 81 -27.5 t31 -68.5q0 -43 -26 -69q-33 -38 -41 -50.5t-8 -31.5q0 -20 19 -34.5t40 -14.5q31 0 51 19.5t28 60t10.5 75.5t2.5 92q0 35 -0.5 53.5t-5.5 50.5t-14 50t-27.5 41t-45.5 35t-68.5 21t-94.5 9v41q138 5 182 36t44 132q0 15 -2 30t-10 37t-21.5 38t-39.5 27.5t-61 11.5 q-48 0 -98.5 -25t-85.5 -80q-19 -26 -27 -64.5t-9 -68t-1 -115.5v-241q0 -191 -84 -246q-2 -2 2 -2h148v-41h-633zM121 41h297q104 46 104 248v952q0 156 135 207q-74 -9 -140 -27t-128.5 -51t-107.5 -77.5t-72 -110t-27 -144.5v-780q0 -171 -61 -217zM678 190 q0 -101 106 -157q-24 24 -24 45q0 22 7.5 35t41.5 55q20 23 20 53q0 25 -17 41.5t-52 16.5t-58.5 -21t-23.5 -68zM817 1219q0 -64 42.5 -103t115.5 -39q76 0 123 44t47 118q0 25 -6.5 47.5t-20.5 40t-27.5 31.5t-36.5 25.5t-37.5 19.5t-41 15.5t-37.5 11t-35 9t-26 5.5 q34 -17 34 -51t-30 -60q-21 -18 -31 -28t-21.5 -34t-11.5 -52zM840 551q42 -14 71 -40t44 -52.5t23 -65t9.5 -63t1.5 -60.5q0 -248 -69 -258q111 0 194 22.5t130.5 62t70 87t22.5 103.5q0 194 -348 264q165 35 212 54q95 37 106 109q2 11 2 23q0 52 -34.5 89t-90 54.5 t-107.5 25t-104 7.5q-25 0 -53.5 -2t-47 -4t-20.5 -2q106 -17 106 -155q0 -165 -118 -199z" />
<glyph unicode="&#xe0;" horiz-adv-x="1236" d="M57 236q0 101 49.5 169.5t165.5 114.5q66 26 168.5 40.5t171.5 14.5q33 0 47 -2v256q0 26 -1 40t-4.5 38.5t-12 38.5t-23.5 29t-39.5 22t-58.5 7q-52 0 -81 -23t-29 -57q0 -22 20 -48.5t39.5 -56t19.5 -59.5q0 -49 -37.5 -84t-85.5 -48.5t-98 -13.5q-74 0 -119 33t-45 92 q0 84 50.5 147t128.5 95.5t153 47.5t144 15q134 0 232 -29.5t156 -85t85.5 -128.5t27.5 -166v-463q0 -78 43 -78q23 0 52 37l24 -25q-56 -67 -118 -94.5t-150 -27.5q-180 0 -260 137q-42 -77 -118.5 -108t-188.5 -31q-143 0 -225.5 72t-82.5 182zM98 236q0 -102 78.5 -159 t188.5 -57q142 0 221 52h-11q-46 0 -77.5 44.5t-43.5 99.5t-12 110q0 176 115 217q-43 -4 -78.5 -9t-84.5 -16t-87.5 -25t-79.5 -38t-67.5 -53.5t-44 -72t-17.5 -93.5zM145 739q0 -38 33 -61t90 -23q70 0 125.5 26.5t55.5 74.5q0 26 -39 82t-39 86q0 35 37 67 q-46 -13 -87 -32.5t-83.5 -49.5t-67.5 -74t-25 -96zM287 1475q0 41 61 41h287l190 -342l-45 -27l-436 264q-4 2 -12 7.5t-11 7t-9 6t-8 6.5l-6 6t-5 6.5t-3 6.5t-2.5 8.5t-0.5 9.5zM334 1470q0 -5 12 -14l428 -266l-164 291h-260q-16 0 -16 -11zM483 326q0 -91 27 -156.5 t80 -65.5q16 0 28 5t19.5 18.5t12 28t6.5 41.5t2.5 50.5t0.5 63.5v224q-2 2 -22 2q-75 0 -114.5 -58t-39.5 -153zM627 1008q40 -18 56.5 -60t16.5 -119v-643q0 -63 70 -114.5t162 -51.5q40 0 90.5 12.5t77.5 33.5q-60 12 -60 106v463q0 168 -101 264.5t-312 108.5z" />
<glyph unicode="&#xe1;" horiz-adv-x="1236" d="M57 236q0 101 49.5 169.5t165.5 114.5q66 26 168.5 40.5t171.5 14.5q33 0 47 -2v256q0 26 -1 40t-4.5 38.5t-12 38.5t-23.5 29t-39.5 22t-58.5 7q-52 0 -81 -23t-29 -57q0 -22 20 -48.5t39.5 -56t19.5 -59.5q0 -49 -37.5 -84t-85.5 -48.5t-98 -13.5q-74 0 -119 33t-45 92 q0 84 50.5 147t128.5 95.5t153 47.5t144 15q134 0 232 -29.5t156 -85t85.5 -128.5t27.5 -166v-463q0 -78 43 -78q23 0 52 37l24 -25q-56 -67 -118 -94.5t-150 -27.5q-180 0 -260 137q-42 -77 -118.5 -108t-188.5 -31q-143 0 -225.5 72t-82.5 182zM98 236q0 -102 78.5 -159 t188.5 -57q142 0 221 52h-11q-46 0 -77.5 44.5t-43.5 99.5t-12 110q0 176 115 217q-43 -4 -78.5 -9t-84.5 -16t-87.5 -25t-79.5 -38t-67.5 -53.5t-44 -72t-17.5 -93.5zM145 739q0 -38 33 -61t90 -23q70 0 125.5 26.5t55.5 74.5q0 26 -39 82t-39 86q0 35 37 67 q-46 -13 -87 -32.5t-83.5 -49.5t-67.5 -74t-25 -96zM360 1174l191 342h287q61 0 61 -41q0 -5 -0.5 -9.5t-2.5 -8.5t-3 -6.5t-5 -6.5l-6 -6t-8 -6.5t-9 -6t-11 -7t-12 -7.5l-436 -264zM412 1190l428 266q12 9 12 14q0 11 -16 11h-261zM483 326q0 -91 27 -156.5t80 -65.5 q16 0 28 5t19.5 18.5t12 28t6.5 41.5t2.5 50.5t0.5 63.5v224q-2 2 -22 2q-75 0 -114.5 -58t-39.5 -153zM627 1008q40 -18 56.5 -60t16.5 -119v-643q0 -63 70 -114.5t162 -51.5q40 0 90.5 12.5t77.5 33.5q-60 12 -60 106v463q0 168 -101 264.5t-312 108.5z" />
<glyph unicode="&#xe2;" horiz-adv-x="1236" d="M57 236q0 101 49.5 169.5t165.5 114.5q66 26 168.5 40.5t171.5 14.5q33 0 47 -2v256q0 26 -1 40t-4.5 38.5t-12 38.5t-23.5 29t-39.5 22t-58.5 7q-52 0 -81 -23t-29 -57q0 -22 20 -48.5t39.5 -56t19.5 -59.5q0 -49 -37.5 -84t-85.5 -48.5t-98 -13.5q-74 0 -119 33t-45 92 q0 84 50.5 147t128.5 95.5t153 47.5t144 15q134 0 232 -29.5t156 -85t85.5 -128.5t27.5 -166v-463q0 -78 43 -78q23 0 52 37l24 -25q-56 -67 -118 -94.5t-150 -27.5q-180 0 -260 137q-42 -77 -118.5 -108t-188.5 -31q-143 0 -225.5 72t-82.5 182zM98 236q0 -102 78.5 -159 t188.5 -57q142 0 221 52h-11q-46 0 -77.5 44.5t-43.5 99.5t-12 110q0 176 115 217q-43 -4 -78.5 -9t-84.5 -16t-87.5 -25t-79.5 -38t-67.5 -53.5t-44 -72t-17.5 -93.5zM145 739q0 -38 33 -61t90 -23q70 0 125.5 26.5t55.5 74.5q0 26 -39 82t-39 86q0 35 37 67 q-46 -13 -87 -32.5t-83.5 -49.5t-67.5 -74t-25 -96zM240 1167l286 349h217l277 -349l-23 -20l-364 194l-373 -194zM326 1217l307 174l307 -174l-221 260h-170zM483 326q0 -91 27 -156.5t80 -65.5q16 0 28 5t19.5 18.5t12 28t6.5 41.5t2.5 50.5t0.5 63.5v224q-2 2 -22 2 q-75 0 -114.5 -58t-39.5 -153zM627 1008q40 -18 56.5 -60t16.5 -119v-643q0 -63 70 -114.5t162 -51.5q40 0 90.5 12.5t77.5 33.5q-60 12 -60 106v463q0 168 -101 264.5t-312 108.5z" />
<glyph unicode="&#xe3;" horiz-adv-x="1228" d="M57 236q0 101 49.5 169.5t165.5 114.5q66 26 168.5 40.5t171.5 14.5q33 0 47 -2v256q0 26 -1 40t-4.5 38.5t-12 38.5t-23.5 29t-39.5 22t-58.5 7q-52 0 -81 -23t-29 -57q0 -22 20 -48.5t39.5 -56t19.5 -59.5q0 -49 -37.5 -84t-85.5 -48.5t-98 -13.5q-74 0 -119 33t-45 92 q0 84 50.5 147t128.5 95.5t153 47.5t144 15q134 0 232 -29.5t156 -85t85.5 -128.5t27.5 -166v-463q0 -78 43 -78q23 0 52 37l24 -25q-56 -67 -118 -94.5t-150 -27.5q-180 0 -260 137q-42 -77 -118.5 -108t-188.5 -31q-143 0 -225.5 72t-82.5 182zM98 236q0 -102 78.5 -159 t188.5 -57q142 0 221 52h-11q-46 0 -77.5 44.5t-43.5 99.5t-12 110q0 176 115 217q-43 -4 -78.5 -9t-84.5 -16t-87.5 -25t-79.5 -38t-67.5 -53.5t-44 -72t-17.5 -93.5zM145 739q0 -38 33 -61t90 -23q70 0 125.5 26.5t55.5 74.5q0 26 -39 82t-39 86q0 35 37 67 q-46 -13 -87 -32.5t-83.5 -49.5t-67.5 -74t-25 -96zM233 1192q26 61 52 107.5t61 93.5t79 72.5t93 25.5q64 0 176 -45q62 -25 94.5 -33t73.5 -8q84 0 119 88l45 -18q-23 -60 -47 -107t-58.5 -94.5t-80 -73.5t-97.5 -26q-55 0 -175 43t-171 43q-80 0 -125 -91zM305 1257 q36 43 98 43q55 0 172 -43t168 -43q128 0 218 195q-24 -24 -47 -34.5t-58 -10.5q-66 0 -170 41q-112 45 -168 45q-28 0 -55 -12.5t-46 -27.5t-40.5 -42t-31 -42t-24.5 -41.5t-16 -27.5zM483 326q0 -91 27 -156.5t80 -65.5q16 0 28 5t19.5 18.5t12 28t6.5 41.5t2.5 50.5 t0.5 63.5v224q-2 2 -22 2q-75 0 -114.5 -58t-39.5 -153zM627 1008q40 -18 56.5 -60t16.5 -119v-643q0 -63 70 -114.5t162 -51.5q40 0 90.5 12.5t77.5 33.5q-60 12 -60 106v463q0 168 -101 264.5t-312 108.5z" />
<glyph unicode="&#xe4;" horiz-adv-x="1228" d="M57 236q0 101 49.5 169.5t165.5 114.5q66 26 168.5 40.5t171.5 14.5q33 0 47 -2v256q0 26 -1 40t-4.5 38.5t-12 38.5t-23.5 29t-39.5 22t-58.5 7q-52 0 -81 -23t-29 -57q0 -22 20 -48.5t39.5 -56t19.5 -59.5q0 -49 -37.5 -84t-85.5 -48.5t-98 -13.5q-74 0 -119 33t-45 92 q0 84 50.5 147t128.5 95.5t153 47.5t144 15q134 0 232 -29.5t156 -85t85.5 -128.5t27.5 -166v-463q0 -78 43 -78q23 0 52 37l24 -25q-56 -67 -118 -94.5t-150 -27.5q-180 0 -260 137q-42 -77 -118.5 -108t-188.5 -31q-143 0 -225.5 72t-82.5 182zM98 236q0 -102 78.5 -159 t188.5 -57q142 0 221 52h-11q-46 0 -77.5 44.5t-43.5 99.5t-12 110q0 176 115 217q-43 -4 -78.5 -9t-84.5 -16t-87.5 -25t-79.5 -38t-67.5 -53.5t-44 -72t-17.5 -93.5zM145 739q0 -38 33 -61t90 -23q70 0 125.5 26.5t55.5 74.5q0 26 -39 82t-39 86q0 35 37 67 q-46 -13 -87 -32.5t-83.5 -49.5t-67.5 -74t-25 -96zM225 1333q0 73 52 123.5t126 50.5q72 0 123.5 -51t51.5 -123t-51 -124t-124 -52q-74 0 -126 51.5t-52 124.5zM268 1333q0 -60 37.5 -97.5t97.5 -37.5q56 0 94 39t38 96q0 56 -38.5 94.5t-93.5 38.5q-59 0 -97 -38.5 t-38 -94.5zM483 326q0 -91 27 -156.5t80 -65.5q16 0 28 5t19.5 18.5t12 28t6.5 41.5t2.5 50.5t0.5 63.5v224q-2 2 -22 2q-75 0 -114.5 -58t-39.5 -153zM627 1008q40 -18 56.5 -60t16.5 -119v-643q0 -63 70 -114.5t162 -51.5q40 0 90.5 12.5t77.5 33.5q-60 12 -60 106v463 q0 168 -101 264.5t-312 108.5zM682 1333q0 73 52 123.5t126 50.5q72 0 123 -51t51 -123q0 -73 -50.5 -124.5t-123.5 -51.5q-74 0 -126 51.5t-52 124.5zM725 1333q0 -60 37.5 -97.5t97.5 -37.5q55 0 93 39t38 96q0 56 -38 94.5t-93 38.5q-59 0 -97 -38.5t-38 -94.5z" />
<glyph unicode="&#xe5;" horiz-adv-x="1228" d="M57 236q0 101 49.5 169.5t165.5 114.5q66 26 168.5 40.5t171.5 14.5q33 0 47 -2v256q0 26 -1 40t-4.5 38.5t-12 38.5t-23.5 29t-39.5 22t-58.5 7q-52 0 -81 -23t-29 -57q0 -22 20 -48.5t39.5 -56t19.5 -59.5q0 -49 -37.5 -84t-85.5 -48.5t-98 -13.5q-74 0 -119 33t-45 92 q0 84 50.5 147t128.5 95.5t153 47.5t144 15q134 0 232 -29.5t156 -85t85.5 -128.5t27.5 -166v-463q0 -78 43 -78q23 0 52 37l24 -25q-56 -67 -118 -94.5t-150 -27.5q-180 0 -260 137q-42 -77 -118.5 -108t-188.5 -31q-143 0 -225.5 72t-82.5 182zM98 236q0 -102 78.5 -159 t188.5 -57q142 0 221 52h-11q-46 0 -77.5 44.5t-43.5 99.5t-12 110q0 176 115 217q-43 -4 -78.5 -9t-84.5 -16t-87.5 -25t-79.5 -38t-67.5 -53.5t-44 -72t-17.5 -93.5zM145 739q0 -38 33 -61t90 -23q70 0 125.5 26.5t55.5 74.5q0 26 -39 82t-39 86q0 35 37 67 q-46 -13 -87 -32.5t-83.5 -49.5t-67.5 -74t-25 -96zM401 1331q0 91 69.5 156t164.5 65q92 0 156.5 -64.5t64.5 -156.5t-65 -157.5t-156 -65.5q-105 0 -169.5 62.5t-64.5 160.5zM444 1331q0 -78 54.5 -131t134.5 -53q75 0 129.5 55t54.5 129q0 75 -54.5 130t-129.5 55 q-77 0 -133 -55t-56 -130zM483 326q0 -91 27 -156.5t80 -65.5q16 0 28 5t19.5 18.5t12 28t6.5 41.5t2.5 50.5t0.5 63.5v224q-2 2 -22 2q-75 0 -114.5 -58t-39.5 -153zM500 1331q0 51 40 91t93 40q55 0 92 -37.5t37 -93.5q0 -53 -39 -92t-90 -39q-59 0 -96 36.5t-37 94.5z M543 1331q0 -37 26 -63.5t64 -26.5q37 0 63.5 26.5t26.5 63.5t-26 63.5t-64 26.5t-64 -27t-26 -63zM627 1008q40 -18 56.5 -60t16.5 -119v-643q0 -63 70 -114.5t162 -51.5q40 0 90.5 12.5t77.5 33.5q-60 12 -60 106v463q0 168 -101 264.5t-312 108.5z" />
<glyph unicode="&#xe6;" horiz-adv-x="1769" d="M57 236q0 101 49.5 169.5t165.5 114.5q66 26 168.5 40.5t171.5 14.5q33 0 47 -2v256q0 29 -1.5 48t-9 45.5t-22 42.5t-43.5 27.5t-69 11.5q-46 0 -75 -23.5t-29 -56.5q0 -28 39.5 -75.5t39.5 -86.5q0 -50 -37.5 -85t-86 -49t-97.5 -14q-74 0 -119 33t-45 92 q0 70 35.5 125.5t88.5 88.5t121 54.5t125.5 29t109.5 7.5q203 0 327 -73q124 73 283 73q219 0 369 -126q39 -33 67.5 -72t43.5 -71t24 -74t11 -65.5t3 -61t2 -46.5h-633v-168q0 -331 213 -331q65 0 121 20t93.5 48t72 72.5t53.5 78.5t41 80l39 -13q-38 -89 -86 -152.5 t-95 -98.5t-108.5 -54.5t-112 -24.5t-120.5 -5h-2q-159 0 -306.5 39t-211.5 100q-51 -78 -124 -107.5t-183 -29.5q-140 0 -224 75.5t-84 178.5zM98 236q0 -102 78.5 -159t188.5 -57q142 0 221 52h-11q-46 0 -77.5 44.5t-43.5 99.5t-12 110q0 176 115 217q-43 -4 -78.5 -9 t-84.5 -16t-87.5 -25t-79.5 -38t-67.5 -53.5t-44 -72t-17.5 -93.5zM145 739q0 -38 33 -61t90 -23q71 0 126 27.5t55 77.5q0 23 -39 78t-39 86q0 39 37 71q-90 -25 -150 -69q-22 -17 -37.5 -32t-35 -38.5t-30 -53.5t-10.5 -63zM483 326q0 -88 25 -155t76 -67q30 0 44.5 14 t22.5 59t8 134v219q-25 5 -26 5q-80 0 -115 -58.5t-35 -150.5zM606 1016q32 -12 52 -30.5t28 -47t10 -50t2 -59.5v-518q0 -118 -10 -151q88 -76 233 -111t253 -35h20q-44 17 -75.5 57t-47 91.5t-22.5 100t-7 97.5v285q0 60 1.5 97.5t8 97t24 102t44.5 66.5 q-115 -21 -211 -80q-64 47 -153.5 67.5t-149.5 20.5zM1081 569h158q19 0 30 10t15.5 36t5 43t0.5 58v23q0 52 -2.5 89.5t-11.5 82t-29.5 69t-52.5 24.5q-113 0 -113 -359v-76zM1253 1014q78 -32 78 -273q0 -132 -16 -163q-2 -2 -2 -5q0 -4 10 -4h350q0 172 -106.5 292 t-313.5 153z" />
<glyph unicode="&#xe7;" horiz-adv-x="1148" d="M61 498q0 155 78.5 281t210 195.5t287.5 69.5q83 0 167 -20t155.5 -56t116 -95t44.5 -130q0 -77 -62 -125.5t-147 -48.5q-89 0 -143.5 42t-54.5 118q0 37 21 66.5t42 57.5t21 60q0 91 -123 91q-27 0 -49.5 -11t-35.5 -24.5t-25 -37t-15.5 -34.5t-9.5 -31 q-8 -47 -15.5 -156t-7.5 -212q0 -41 0.5 -65.5t2.5 -68t6.5 -71.5t13 -66.5t20.5 -63.5t30.5 -53t42 -44t56.5 -26.5t72 -10.5q97 0 181 64.5t149 178.5l32 -20q-26 -44 -51 -79t-64 -73t-82.5 -62.5t-104 -41t-130.5 -16.5h-4l-35 -111q14 8 51 8q76 0 118 -36.5t42 -94.5 q0 -72 -68 -114t-204 -42q-83 0 -139 44t-56 141h45q0 -144 142 -144q84 0 84 88q0 45 -19 63.5t-57 20.5l57 179q-147 5 -262 49.5t-184 116.5t-104.5 161t-35.5 189zM102 498q0 -141 72.5 -251t194 -168.5t270.5 -58.5q-54 22 -89 70.5t-50.5 121.5t-20 136t-4.5 152 q0 266 20 370.5t97 143.5q-69 -14 -133 -37.5t-131 -66t-115.5 -97t-79.5 -136.5t-31 -179zM639 -170q34 -1 51 -31.5t17 -79.5q0 -73 -39 -90q64 5 108.5 33t44.5 84q0 43 -33 69.5t-88 26.5q-40 0 -61 -12zM754 725q0 -54 42.5 -86.5t114.5 -32.5q70 0 119 35t49 98 q0 32 -11.5 61.5t-35 54.5t-37.5 37.5t-39 31.5q-59 44 -149 59q33 -28 33 -74q0 -27 -13.5 -52.5t-29.5 -42t-29.5 -40.5t-13.5 -49z" />
<glyph unicode="&#xe8;" horiz-adv-x="1208" d="M61 502q0 147 73 270.5t205 197.5t294 74q147 0 263 -55t186.5 -167.5t70.5 -266.5v-27h-633v-114q0 -101 8 -152q5 -34 7.5 -49.5t9.5 -45.5t15.5 -45t24 -36t35 -31t48.5 -18t65 -8q65 0 121 20t93.5 48t72 72.5t53.5 78.5t41 80l39 -13q-38 -89 -86 -152.5t-95 -98.5 t-108.5 -54.5t-112 -24.5t-120.5 -5q-122 0 -224 32.5t-180 95.5t-122 164t-44 230zM102 502q0 -224 142 -353t372 -129q-28 9 -50.5 30.5t-36.5 47t-24 64t-15 68t-7.5 74t-3 66.5t-0.5 60v195q0 47 0.5 71.5t4.5 79.5t11.5 90t24 74t39.5 61q-186 -21 -321.5 -164 t-135.5 -335zM344 1475q0 41 62 41h286l191 -342l-45 -27l-437 264q-4 2 -12 7.5t-11 7t-9 6t-8 6.5l-6 6t-5 6.5t-3 6.5t-2.5 8.5t-0.5 9.5zM391 1470q0 -5 12 -14l428 -266l-163 291h-260q-17 0 -17 -11zM520 569h113q61 0 78.5 38.5t17.5 131.5q0 50 -3 88t-12 80.5 t-29.5 66t-51.5 23.5q-17 0 -31 -7.5t-24.5 -23t-19 -32t-14 -43.5t-10 -49t-7 -55.5t-4.5 -56t-2.5 -58t-0.5 -53.5v-50zM696 1008q46 -28 60 -93.5t14 -175.5q0 -131 -37 -170h379q0 172 -104 289t-312 150z" />
<glyph unicode="&#xe9;" horiz-adv-x="1208" d="M61 502q0 147 73 270.5t205 197.5t294 74q147 0 263 -55t186.5 -167.5t70.5 -266.5v-27h-633v-114q0 -101 8 -152q5 -34 7.5 -49.5t9.5 -45.5t15.5 -45t24 -36t35 -31t48.5 -18t65 -8q65 0 121 20t93.5 48t72 72.5t53.5 78.5t41 80l39 -13q-38 -89 -86 -152.5t-95 -98.5 t-108.5 -54.5t-112 -24.5t-120.5 -5q-122 0 -224 32.5t-180 95.5t-122 164t-44 230zM102 502q0 -224 142 -353t372 -129q-28 9 -50.5 30.5t-36.5 47t-24 64t-15 68t-7.5 74t-3 66.5t-0.5 60v195q0 47 0.5 71.5t4.5 79.5t11.5 90t24 74t39.5 61q-186 -21 -321.5 -164 t-135.5 -335zM344 1174l191 342h286q62 0 62 -41q0 -6 -1 -11t-2.5 -8.5t-5 -8t-5.5 -6.5t-8.5 -7t-9.5 -7t-12.5 -7.5t-13.5 -8.5l-436 -264zM395 1190l428 266q13 10 13 14q0 11 -17 11h-260zM520 569h113q61 0 78.5 38.5t17.5 131.5q0 50 -3 88t-12 80.5t-29.5 66 t-51.5 23.5q-17 0 -31 -7.5t-24.5 -23t-19 -32t-14 -43.5t-10 -49t-7 -55.5t-4.5 -56t-2.5 -58t-0.5 -53.5v-50zM696 1008q46 -28 60 -93.5t14 -175.5q0 -131 -37 -170h379q0 172 -104 289t-312 150z" />
<glyph unicode="&#xea;" horiz-adv-x="1208" d="M61 502q0 147 73 270.5t205 197.5t294 74q147 0 263 -55t186.5 -167.5t70.5 -266.5v-27h-633v-114q0 -101 8 -152q5 -34 7.5 -49.5t9.5 -45.5t15.5 -45t24 -36t35 -31t48.5 -18t65 -8q65 0 121 20t93.5 48t72 72.5t53.5 78.5t41 80l39 -13q-38 -89 -86 -152.5t-95 -98.5 t-108.5 -54.5t-112 -24.5t-120.5 -5q-122 0 -224 32.5t-180 95.5t-122 164t-44 230zM102 502q0 -224 142 -353t372 -129q-28 9 -50.5 30.5t-36.5 47t-24 64t-15 68t-7.5 74t-3 66.5t-0.5 60v195q0 47 0.5 71.5t4.5 79.5t11.5 90t24 74t39.5 61q-186 -21 -321.5 -164 t-135.5 -335zM223 1167l287 349h217l277 -349l-23 -20l-365 194l-372 -194zM309 1217l307 174l308 -174l-222 260h-170zM520 569h113q61 0 78.5 38.5t17.5 131.5q0 50 -3 88t-12 80.5t-29.5 66t-51.5 23.5q-17 0 -31 -7.5t-24.5 -23t-19 -32t-14 -43.5t-10 -49t-7 -55.5 t-4.5 -56t-2.5 -58t-0.5 -53.5v-50zM696 1008q46 -28 60 -93.5t14 -175.5q0 -131 -37 -170h379q0 172 -104 289t-312 150z" />
<glyph unicode="&#xeb;" horiz-adv-x="1208" d="M61 502q0 147 73 270.5t205 197.5t294 74q147 0 263 -55t186.5 -167.5t70.5 -266.5v-27h-633v-114q0 -101 8 -152q5 -34 7.5 -49.5t9.5 -45.5t15.5 -45t24 -36t35 -31t48.5 -18t65 -8q65 0 121 20t93.5 48t72 72.5t53.5 78.5t41 80l39 -13q-38 -89 -86 -152.5t-95 -98.5 t-108.5 -54.5t-112 -24.5t-120.5 -5q-122 0 -224 32.5t-180 95.5t-122 164t-44 230zM102 502q0 -224 142 -353t372 -129q-28 9 -50.5 30.5t-36.5 47t-24 64t-15 68t-7.5 74t-3 66.5t-0.5 60v195q0 47 0.5 71.5t4.5 79.5t11.5 90t24 74t39.5 61q-186 -21 -321.5 -164 t-135.5 -335zM209 1333q0 73 52 123.5t126 50.5q72 0 123 -51t51 -123q0 -73 -50.5 -124.5t-123.5 -51.5q-74 0 -126 51.5t-52 124.5zM252 1333q0 -60 37.5 -97.5t97.5 -37.5q55 0 93 39t38 96q0 56 -38 94.5t-93 38.5q-59 0 -97 -38.5t-38 -94.5zM520 569h113 q61 0 78.5 38.5t17.5 131.5q0 50 -3 88t-12 80.5t-29.5 66t-51.5 23.5q-17 0 -31 -7.5t-24.5 -23t-19 -32t-14 -43.5t-10 -49t-7 -55.5t-4.5 -56t-2.5 -58t-0.5 -53.5v-50zM666 1333q0 73 52 123.5t126 50.5q72 0 123 -51t51 -123q0 -73 -50.5 -124.5t-123.5 -51.5 q-74 0 -126 51.5t-52 124.5zM696 1008q46 -28 60 -93.5t14 -175.5q0 -131 -37 -170h379q0 172 -104 289t-312 150zM709 1333q0 -60 37.5 -97.5t97.5 -37.5q55 0 93 39t38 96q0 56 -38 94.5t-93 38.5q-59 0 -97 -38.5t-38 -94.5z" />
<glyph unicode="&#xec;" horiz-adv-x="712" d="M10 0v41h43q51 0 77 54t26 179v486q0 101 -8.5 146.5t-28.5 61t-66 15.5h-30v41h86q84 0 151 5t103 10t126 20q7 0 11 -4q75 -75 75 -195v-571q0 -192 -88 -244q-4 -4 2 -4h152v-41h-631zM10 1475q0 41 62 41h286l191 -342l-45 -27l-436 264q-4 3 -13.5 8.5t-12.5 7.5 t-9.5 7t-8.5 7t-5.5 6.5t-5 8t-2.5 8.5t-1 11zM57 1470q0 -4 13 -14l428 -266l-164 291h-260q-17 0 -17 -11zM137 41h240q30 0 55.5 11t50 36.5t38.5 77t14 123.5v571q0 95 -54 156q-2 2 -6 2q-214 -33 -299 -33h-24q30 -16 37.5 -60.5t7.5 -160.5v-516q0 -79 -18 -136.5 t-42 -70.5z" />
<glyph unicode="&#xed;" horiz-adv-x="712" d="M10 0v41h43q51 0 77 54t26 179v486q0 101 -8.5 146.5t-28.5 61t-66 15.5h-30v41h86q84 0 151 5t103 10t126 20q7 0 11 -4q75 -75 75 -195v-571q0 -192 -88 -244q-4 -4 2 -4h152v-41h-631zM127 1174l190 342h287q62 0 62 -41q0 -6 -1 -11t-2.5 -8.5t-5 -8t-5.5 -6.5 t-8.5 -7t-9.5 -7t-12.5 -7.5t-13.5 -8.5l-436 -264zM137 41h240q30 0 55.5 11t50 36.5t38.5 77t14 123.5v571q0 95 -54 156q-2 2 -6 2q-214 -33 -299 -33h-24q30 -16 37.5 -60.5t7.5 -160.5v-516q0 -79 -18 -136.5t-42 -70.5zM178 1190l428 266q12 9 12 14q0 11 -16 11h-260 z" />
<glyph unicode="&#xee;" horiz-adv-x="712" d="M-51 1167l287 349h217l276 -349l-22 -20l-365 194l-373 -194zM10 0v41h43q51 0 77 54t26 179v486q0 101 -8.5 146.5t-28.5 61t-66 15.5h-30v41h86q84 0 151 5t103 10t126 20q7 0 11 -4q75 -75 75 -195v-571q0 -192 -88 -244q-4 -4 2 -4h152v-41h-631zM35 1217l307 174 l307 -174l-221 260h-170zM137 41h240q30 0 55.5 11t50 36.5t38.5 77t14 123.5v571q0 95 -54 156q-2 2 -6 2q-214 -33 -299 -33h-24q30 -16 37.5 -60.5t7.5 -160.5v-516q0 -79 -18 -136.5t-42 -70.5z" />
<glyph unicode="&#xef;" horiz-adv-x="712" d="M-49 1333q0 73 52 123.5t126 50.5q72 0 123 -51t51 -123q0 -73 -50.5 -124.5t-123.5 -51.5q-74 0 -126 51.5t-52 124.5zM-6 1333q0 -60 37.5 -97.5t97.5 -37.5q55 0 93 39t38 96q0 56 -38 94.5t-93 38.5q-59 0 -97 -38.5t-38 -94.5zM10 0v41h43q51 0 77 54t26 179v486 q0 101 -8.5 146.5t-28.5 61t-66 15.5h-30v41h86q84 0 151 5t103 10t126 20q7 0 11 -4q75 -75 75 -195v-571q0 -192 -88 -244q-4 -4 2 -4h152v-41h-631zM137 41h240q30 0 55.5 11t50 36.5t38.5 77t14 123.5v571q0 95 -54 156q-2 2 -6 2q-214 -33 -299 -33h-24 q30 -16 37.5 -60.5t7.5 -160.5v-516q0 -79 -18 -136.5t-42 -70.5zM408 1333q0 73 52 123.5t126 50.5q72 0 123 -51t51 -123q0 -73 -50.5 -124.5t-123.5 -51.5q-74 0 -126 51.5t-52 124.5zM451 1333q0 -60 37.5 -97.5t97.5 -37.5q55 0 93 39t38 96q0 56 -38 94.5t-93 38.5 q-59 0 -97 -38.5t-38 -94.5z" />
<glyph unicode="&#xf0;" horiz-adv-x="1323" d="M68 453q0 115 46 209t121.5 152.5t167.5 90t189 31.5q147 0 207 -92q0 85 -19.5 179.5t-40.5 129.5l-309 -84l-8 41l301 82q-80 151 -225 242l20 51q90 -24 164 -53t127.5 -62t81 -53.5t63.5 -50.5q9 -7 13 -11l247 68l11 -39l-224 -61q138 -138 198.5 -304t60.5 -335 q0 -294 -179 -467q-91 -86 -198.5 -117t-233.5 -31q-116 0 -213 27.5t-164 74t-114 109t-68.5 131.5t-21.5 142zM109 453q0 -55 16 -111.5t53.5 -114.5t91.5 -104t138 -78t186 -39q-23 15 -40 38.5t-36 72t-29 137t-10 211.5q0 159 11 245.5t36 128t74 58.5h-20 q-21 0 -51.5 -4t-76 -17t-90 -32.5t-90.5 -54.5t-81 -79.5t-57.5 -111t-24.5 -145.5zM518 446q0 -45 0.5 -74.5t4 -87.5t13.5 -97.5t26 -81t44.5 -63.5t65.5 -22q35 0 61 24.5t39.5 59t21 88t9.5 96.5t2 99q0 254 -8 324q-2 17 -3 23.5t-6 27.5t-10 33t-15.5 29.5 t-22.5 27.5t-31 17.5t-41 7.5q-48 0 -79 -27.5t-46 -87t-20 -126t-5 -171.5v-19zM537 1446q97 -63 159 -136t94.5 -166t44 -190t11.5 -237v-330q0 -321 -107 -381q91 6 175 45t153 108t110.5 179t41.5 246q0 150 -45.5 283t-116.5 226t-164 168t-180.5 118.5t-173.5 68.5z " />
<glyph unicode="&#xf1;" horiz-adv-x="1343" d="M6 0v41h43q52 0 77.5 51.5t25.5 181.5v486q0 122 -26.5 172.5t-78.5 50.5h-31v41h70q35 0 70 1.5t81 6t71.5 7t88.5 10t86 10.5h4v2l5 -4q37 -31 60 -92t23 -115q130 194 355 194q70 0 121 -19.5t81.5 -51t48 -80t23.5 -97t6 -112.5v-395q0 -191 -82 -244l-4 -4h148v-41 h-629v41h43q51 0 76.5 54t25.5 179v482v8q0 27 -1 43t-6.5 41t-20.5 38t-39 13q-41 0 -77 -34t-54 -97q-15 -53 -15 -256v-223q0 -184 -83 -244l-5 -4h88v-41h-569zM135 41h285q115 49 115 244v559q0 38 -19.5 105t-46.5 67h-2q-60 -12 -160 -22.5t-145 -10.5h-10 q24 -31 32.5 -81.5t8.5 -137.5v-492q0 -197 -58 -231zM256 1192q26 61 52 107.5t61 93.5t79 72.5t93 25.5q64 0 176 -45q62 -25 94.5 -33t73.5 -8q84 0 119 88l45 -18q-23 -60 -47 -107t-58.5 -94.5t-80 -73.5t-97.5 -26q-55 0 -175 43t-171 43q-80 0 -125 -91zM328 1257 q36 43 98 43q55 0 172 -43t168 -43q127 0 217 195q-25 -25 -47 -35t-57 -10q-66 0 -170 41q-112 45 -168 45q-28 0 -55 -12.5t-46 -27.5t-40.5 -42t-31 -42t-24.5 -41.5t-16 -27.5zM725 942q53 0 78.5 -35.5t25.5 -115.5v-517q0 -106 -13.5 -156.5t-39.5 -76.5h260 q50 0 91.5 61.5t41.5 171.5v396q0 54 -3.5 94t-17.5 88.5t-38.5 79t-70 51.5t-109.5 21q-127 0 -205 -62z" />
<glyph unicode="&#xf2;" horiz-adv-x="1318" d="M61 520q0 231 164.5 377.5t436.5 146.5q170 0 303.5 -60t212.5 -179t79 -281q0 -132 -49 -238t-132.5 -171.5t-189 -100t-224.5 -34.5q-97 0 -184.5 20.5t-164 64t-132.5 106t-88 152t-32 197.5zM102 520q0 -209 129.5 -344t339.5 -156q-22 8 -38 31t-26 62.5t-16.5 80 t-9 102t-3.5 107.5t-1 117q0 230 16 335.5t78 148.5q-60 -5 -121.5 -24t-124.5 -58t-112 -92.5t-80 -134t-31 -175.5zM391 1475q0 41 62 41h286l191 -342l-45 -27l-436 264q-4 3 -13.5 8.5t-12.5 7.5t-9.5 7t-8.5 7t-5.5 6.5t-5 8t-2.5 8.5t-1 11zM438 1470q0 -4 13 -14 l428 -266l-164 291h-260q-17 0 -17 -11zM518 520q0 -249 15 -338q26 -151 114 -161q7 -1 15 -1q21 0 38.5 6t30.5 20.5t24 30t18.5 42.5t13 49.5t9 59.5t5.5 64t3 72.5t1 75v80.5q0 61 -0.5 92.5t-2 86t-5 84t-10 71t-17.5 63.5t-25.5 45t-35.5 32.5t-47 9.5t-47 -9.5 t-36 -32.5t-25.5 -45.5t-17 -63t-10.5 -71t-5.5 -84t-2 -86t-0.5 -92.5zM752 20q226 35 345.5 165t119.5 335q0 95 -31 175.5t-80 134t-112 92.5t-123.5 58t-118.5 24q59 -40 76.5 -147.5t17.5 -336.5q0 -249 -15 -343q-22 -137 -79 -157z" />
<glyph unicode="&#xf3;" horiz-adv-x="1318" d="M61 520q0 231 164.5 377.5t436.5 146.5q170 0 303.5 -60t212.5 -179t79 -281q0 -132 -49 -238t-132.5 -171.5t-189 -100t-224.5 -34.5q-97 0 -184.5 20.5t-164 64t-132.5 106t-88 152t-32 197.5zM102 520q0 -209 129.5 -344t339.5 -156q-22 8 -38 31t-26 62.5t-16.5 80 t-9 102t-3.5 107.5t-1 117q0 230 16 335.5t78 148.5q-60 -5 -121.5 -24t-124.5 -58t-112 -92.5t-80 -134t-31 -175.5zM395 1174l191 342h286q62 0 62 -41q0 -5 -0.5 -9.5t-2.5 -8.5t-3 -6.5t-5 -6.5l-6 -6t-8 -6.5t-9 -6t-11 -7t-12 -7.5l-437 -264zM446 1190l428 266 q13 10 13 14q0 11 -17 11h-260zM518 520q0 -249 15 -338q26 -151 114 -161q7 -1 15 -1q21 0 38.5 6t30.5 20.5t24 30t18.5 42.5t13 49.5t9 59.5t5.5 64t3 72.5t1 75v80.5q0 61 -0.5 92.5t-2 86t-5 84t-10 71t-17.5 63.5t-25.5 45t-35.5 32.5t-47 9.5t-47 -9.5t-36 -32.5 t-25.5 -45.5t-17 -63t-10.5 -71t-5.5 -84t-2 -86t-0.5 -92.5zM752 20q226 35 345.5 165t119.5 335q0 95 -31 175.5t-80 134t-112 92.5t-123.5 58t-118.5 24q59 -40 76.5 -147.5t17.5 -336.5q0 -249 -15 -343q-22 -137 -79 -157z" />
<glyph unicode="&#xf4;" horiz-adv-x="1318" d="M61 520q0 231 164.5 377.5t436.5 146.5q170 0 303.5 -60t212.5 -179t79 -281q0 -132 -49 -238t-132.5 -171.5t-189 -100t-224.5 -34.5q-97 0 -184.5 20.5t-164 64t-132.5 106t-88 152t-32 197.5zM102 520q0 -209 129.5 -344t339.5 -156q-22 8 -38 31t-26 62.5t-16.5 80 t-9 102t-3.5 107.5t-1 117q0 230 16 335.5t78 148.5q-60 -5 -121.5 -24t-124.5 -58t-112 -92.5t-80 -134t-31 -175.5zM274 1167l287 349h217l277 -349l-23 -20l-364 194l-373 -194zM360 1217l308 174l307 -174l-221 260h-170zM518 520q0 -249 15 -338q26 -151 114 -161 q7 -1 15 -1q21 0 38.5 6t30.5 20.5t24 30t18.5 42.5t13 49.5t9 59.5t5.5 64t3 72.5t1 75v80.5q0 61 -0.5 92.5t-2 86t-5 84t-10 71t-17.5 63.5t-25.5 45t-35.5 32.5t-47 9.5t-47 -9.5t-36 -32.5t-25.5 -45.5t-17 -63t-10.5 -71t-5.5 -84t-2 -86t-0.5 -92.5zM752 20 q226 35 345.5 165t119.5 335q0 95 -31 175.5t-80 134t-112 92.5t-123.5 58t-118.5 24q59 -40 76.5 -147.5t17.5 -336.5q0 -249 -15 -343q-22 -137 -79 -157z" />
<glyph unicode="&#xf5;" horiz-adv-x="1318" d="M61 520q0 231 164.5 377.5t436.5 146.5q170 0 303.5 -60t212.5 -179t79 -281q0 -132 -49 -238t-132.5 -171.5t-189 -100t-224.5 -34.5q-97 0 -184.5 20.5t-164 64t-132.5 106t-88 152t-32 197.5zM102 520q0 -209 129.5 -344t339.5 -156q-22 8 -38 31t-26 62.5t-16.5 80 t-9 102t-3.5 107.5t-1 117q0 230 16 335.5t78 148.5q-60 -5 -121.5 -24t-124.5 -58t-112 -92.5t-80 -134t-31 -175.5zM264 1192q26 61 52 107.5t61 93.5t79 72.5t93 25.5q64 0 176 -45q62 -25 94.5 -33t73.5 -8q84 0 119 88l45 -18q-23 -60 -47 -107t-58.5 -94.5t-80 -73.5 t-97.5 -26q-55 0 -175 43t-171 43q-80 0 -125 -91zM336 1257q36 43 98 43q55 0 172 -43t168 -43q127 0 217 195q-25 -25 -47 -35t-57 -10q-66 0 -170 41q-112 45 -168 45q-28 0 -55 -12.5t-46 -27.5t-40.5 -42t-31 -42t-24.5 -41.5t-16 -27.5zM518 520q0 -249 15 -338 q26 -151 114 -161q7 -1 15 -1q21 0 38.5 6t30.5 20.5t24 30t18.5 42.5t13 49.5t9 59.5t5.5 64t3 72.5t1 75v80.5q0 61 -0.5 92.5t-2 86t-5 84t-10 71t-17.5 63.5t-25.5 45t-35.5 32.5t-47 9.5t-47 -9.5t-36 -32.5t-25.5 -45.5t-17 -63t-10.5 -71t-5.5 -84t-2 -86t-0.5 -92.5 zM752 20q226 35 345.5 165t119.5 335q0 95 -31 175.5t-80 134t-112 92.5t-123.5 58t-118.5 24q59 -40 76.5 -147.5t17.5 -336.5q0 -249 -15 -343q-22 -137 -79 -157z" />
<glyph unicode="&#xf6;" horiz-adv-x="1318" d="M61 520q0 231 164.5 377.5t436.5 146.5q170 0 303.5 -60t212.5 -179t79 -281q0 -132 -49 -238t-132.5 -171.5t-189 -100t-224.5 -34.5q-97 0 -184.5 20.5t-164 64t-132.5 106t-88 152t-32 197.5zM102 520q0 -209 129.5 -344t339.5 -156q-22 8 -38 31t-26 62.5t-16.5 80 t-9 102t-3.5 107.5t-1 117q0 230 16 335.5t78 148.5q-60 -5 -121.5 -24t-124.5 -58t-112 -92.5t-80 -134t-31 -175.5zM256 1333q0 73 52 123.5t126 50.5q72 0 123 -51t51 -123q0 -73 -50.5 -124.5t-123.5 -51.5q-74 0 -126 51.5t-52 124.5zM299 1333q0 -60 37.5 -97.5 t97.5 -37.5q55 0 93 39t38 96q0 56 -38 94.5t-93 38.5q-59 0 -97 -38.5t-38 -94.5zM518 520q0 -249 15 -338q26 -151 114 -161q7 -1 15 -1q21 0 38.5 6t30.5 20.5t24 30t18.5 42.5t13 49.5t9 59.5t5.5 64t3 72.5t1 75v80.5q0 61 -0.5 92.5t-2 86t-5 84t-10 71t-17.5 63.5 t-25.5 45t-35.5 32.5t-47 9.5t-47 -9.5t-36 -32.5t-25.5 -45.5t-17 -63t-10.5 -71t-5.5 -84t-2 -86t-0.5 -92.5zM713 1333q0 73 52 123.5t126 50.5q72 0 123 -51t51 -123q0 -73 -50.5 -124.5t-123.5 -51.5q-74 0 -126 51.5t-52 124.5zM752 20q226 35 345.5 165t119.5 335 q0 95 -31 175.5t-80 134t-112 92.5t-123.5 58t-118.5 24q59 -40 76.5 -147.5t17.5 -336.5q0 -249 -15 -343q-22 -137 -79 -157zM756 1333q0 -60 37.5 -97.5t97.5 -37.5q55 0 93 39t38 96q0 56 -38 94.5t-93 38.5q-59 0 -97 -38.5t-38 -94.5z" />
<glyph unicode="&#xf7;" horiz-adv-x="1431" d="M154 408v210h1124v-210h-1124zM195 449h1042v129h-1042v-129zM580 180q0 60 39.5 99.5t99.5 39.5t99.5 -39.5t39.5 -99.5t-39.5 -99.5t-99.5 -39.5t-99.5 39.5t-39.5 99.5zM580 846q0 60 39.5 99.5t99.5 39.5t99.5 -39.5t39.5 -99.5t-39.5 -99.5t-99.5 -39.5t-99.5 39.5 t-39.5 99.5zM618 180q0 -43 29 -71.5t72 -28.5t70.5 28.5t27.5 71.5t-27.5 71t-70.5 28t-72 -28t-29 -71zM618 846q0 -43 29 -72t72 -29q42 0 70 29t28 72t-27.5 70.5t-70.5 27.5t-72 -28t-29 -70z" />
<glyph unicode="&#xf8;" horiz-adv-x="1320" d="M12 -45l197 186q-148 142 -148 379q0 231 164.5 377.5t436.5 146.5q228 0 385 -110v2l167 158h56l-195 -181q87 -70 134.5 -170.5t47.5 -222.5q0 -131 -49 -235.5t-132.5 -170t-189 -100t-224.5 -34.5q-261 0 -424 135l-172 -160h-54zM102 500q0 -195 130.5 -327.5 t338.5 -152.5q-32 10 -52.5 53.5t-28.5 118.5t-10.5 134.5t-2.5 148.5q0 263 16 374t78 155q-60 -5 -121 -24t-125 -59t-112.5 -95.5t-79.5 -140t-31 -185.5zM518 375q1 -83 7 -142t21 -110.5t44 -77t72 -25.5q21 0 38.5 6t30.5 20.5t24 30t18.5 42.5t13 49.5t9 59.5t5.5 64 t3 72.5t1 75v80.5q0 86 -2 129zM518 430l285 272q-3 70 -10.5 120t-23 93.5t-42.5 66t-65 22.5q-26 0 -47 -9.5t-36 -32.5t-25.5 -45.5t-17 -63t-10.5 -71t-5.5 -84t-2 -86t-0.5 -92.5v-90zM752 20q226 35 345.5 165t119.5 335q0 95 -31 175.5t-80 134t-112 92.5t-123.5 58 t-118.5 24q59 -40 76.5 -147.5t17.5 -336.5q0 -249 -15 -343q-22 -137 -79 -157z" />
<glyph unicode="&#xf9;" horiz-adv-x="1308" d="M-27 983v41q18 0 66.5 -0.5t68 0t63.5 2t76 5t80 11t101 17.5q11 3 16 -2q86 -59 86 -217v-588q0 -66 16 -103.5t62 -37.5q38 0 67 20t43 50.5t20.5 58.5t6.5 53v463q0 136 -22.5 181.5t-79.5 45.5h-33v41q334 0 467 35q11 4 17 -2q77 -67 77 -236v-532q0 -179 -86 -244 q-8 -4 0 -4h152v-41h-492v143q-117 -163 -337 -163q-74 0 -128.5 19t-86.5 49.5t-51.5 75.5t-26 89t-6.5 98v445q0 93 -11.5 142.5t-32.5 67t-59 17.5h-33zM106 983q25 -28 35.5 -67t10.5 -111v-490q0 -157 62 -226t194 -69t208 54q-6 -2 -18 -2q-109 0 -109 184v555 q0 144 -57 201q-2 2 -8 2q-63 -12 -158 -21.5t-149 -9.5h-11zM336 1475q0 41 61 41h287l190 -342l-45 -27l-436 264q-4 2 -12 7.5t-11 7t-9 6t-8 6.5l-6 6t-5 6.5t-3 6.5t-2.5 8.5t-0.5 9.5zM383 1470q0 -5 12 -14l428 -266l-164 291h-260q-16 0 -16 -11zM745 983 q43 -40 43 -178v-764h228q67 34 89.5 96t22.5 158v516q0 66 -14.5 121.5t-36.5 77.5q-7 6 -14 4q-55 -14 -150 -22.5t-157 -8.5h-11z" />
<glyph unicode="&#xfa;" horiz-adv-x="1308" d="M-27 983v41q18 0 66.5 -0.5t68 0t63.5 2t76 5t80 11t101 17.5q11 3 16 -2q86 -59 86 -217v-588q0 -66 16 -103.5t62 -37.5q38 0 67 20t43 50.5t20.5 58.5t6.5 53v463q0 136 -22.5 181.5t-79.5 45.5h-33v41q334 0 467 35q11 4 17 -2q77 -67 77 -236v-532q0 -179 -86 -244 q-8 -4 0 -4h152v-41h-492v143q-117 -163 -337 -163q-74 0 -128.5 19t-86.5 49.5t-51.5 75.5t-26 89t-6.5 98v445q0 93 -11.5 142.5t-32.5 67t-59 17.5h-33zM106 983q25 -28 35.5 -67t10.5 -111v-490q0 -157 62 -226t194 -69t208 54q-6 -2 -18 -2q-109 0 -109 184v555 q0 144 -57 201q-2 2 -8 2q-63 -12 -158 -21.5t-149 -9.5h-11zM336 1174l190 342h287q61 0 61 -41q0 -5 -0.5 -9.5t-2.5 -8.5t-3 -6.5t-5 -6.5l-6 -6t-8 -6.5t-9 -6t-11 -7t-12 -7.5l-436 -264zM387 1190l428 266q12 9 12 14q0 11 -16 11h-260zM745 983q43 -40 43 -178v-764 h228q67 34 89.5 96t22.5 158v516q0 66 -14.5 121.5t-36.5 77.5q-7 6 -14 4q-55 -14 -150 -22.5t-157 -8.5h-11z" />
<glyph unicode="&#xfb;" horiz-adv-x="1308" d="M-27 983v41q18 0 66.5 -0.5t68 0t63.5 2t76 5t80 11t101 17.5q11 3 16 -2q86 -59 86 -217v-588q0 -66 16 -103.5t62 -37.5q38 0 67 20t43 50.5t20.5 58.5t6.5 53v463q0 136 -22.5 181.5t-79.5 45.5h-33v41q334 0 467 35q11 4 17 -2q77 -67 77 -236v-532q0 -179 -86 -244 q-8 -4 0 -4h152v-41h-492v143q-117 -163 -337 -163q-74 0 -128.5 19t-86.5 49.5t-51.5 75.5t-26 89t-6.5 98v445q0 93 -11.5 142.5t-32.5 67t-59 17.5h-33zM106 983q25 -28 35.5 -67t10.5 -111v-490q0 -157 62 -226t194 -69t208 54q-6 -2 -18 -2q-109 0 -109 184v555 q0 144 -57 201q-2 2 -8 2q-63 -12 -158 -21.5t-149 -9.5h-11zM233 1167l287 349h217l277 -349l-23 -20l-364 194l-373 -194zM319 1217l308 174l307 -174l-221 260h-170zM745 983q43 -40 43 -178v-764h228q67 34 89.5 96t22.5 158v516q0 66 -14.5 121.5t-36.5 77.5 q-7 6 -14 4q-55 -14 -150 -22.5t-157 -8.5h-11z" />
<glyph unicode="&#xfc;" horiz-adv-x="1308" d="M-27 983v41q18 0 66.5 -0.5t68 0t63.5 2t76 5t80 11t101 17.5q11 3 16 -2q86 -59 86 -217v-588q0 -66 16 -103.5t62 -37.5q38 0 67 20t43 50.5t20.5 58.5t6.5 53v463q0 136 -22.5 181.5t-79.5 45.5h-33v41q334 0 467 35q11 4 17 -2q77 -67 77 -236v-532q0 -179 -86 -244 q-8 -4 0 -4h152v-41h-492v143q-117 -163 -337 -163q-74 0 -128.5 19t-86.5 49.5t-51.5 75.5t-26 89t-6.5 98v445q0 93 -11.5 142.5t-32.5 67t-59 17.5h-33zM106 983q25 -28 35.5 -67t10.5 -111v-490q0 -157 62 -226t194 -69t208 54q-6 -2 -18 -2q-109 0 -109 184v555 q0 144 -57 201q-2 2 -8 2q-63 -12 -158 -21.5t-149 -9.5h-11zM229 1333q0 73 52.5 123.5t126.5 50.5q72 0 123 -51t51 -123q0 -73 -50.5 -124.5t-123.5 -51.5q-74 0 -126.5 51.5t-52.5 124.5zM272 1333q0 -60 38 -97.5t98 -37.5q55 0 93 39t38 96q0 56 -38 94.5t-93 38.5 q-59 0 -97.5 -38.5t-38.5 -94.5zM686 1333q0 73 52 123.5t126 50.5q72 0 123 -51t51 -123q0 -73 -50.5 -124.5t-123.5 -51.5q-74 0 -126 51.5t-52 124.5zM729 1333q0 -60 37.5 -97.5t97.5 -37.5q55 0 93 39t38 96q0 56 -38 94.5t-93 38.5q-59 0 -97 -38.5t-38 -94.5z M745 983q43 -40 43 -178v-764h228q67 34 89.5 96t22.5 158v516q0 66 -14.5 121.5t-36.5 77.5q-7 6 -14 4q-55 -14 -150 -22.5t-157 -8.5h-11z" />
<glyph unicode="&#xfd;" horiz-adv-x="1150" d="M-25 983v41h646v-41h-107q-8 0 0 -4q51 -31 96 -133l166 -361l137 322q12 25 19 52t8.5 56.5t-17 48.5t-55.5 19h-41v41h50q50 0 77 -24.5t27 -57.5q18 37 55 59.5t86 22.5h21v-41h-19q-57 0 -91.5 -38.5t-74.5 -137.5l-483 -1126q-21 -47 -35.5 -75.5t-38.5 -63 t-47.5 -53t-58 -31.5t-76.5 -13q-74 0 -124 49t-50 127q0 75 52.5 135t129.5 60q41 0 78.5 -19.5t68 -39t54.5 -19.5q27 0 41 33l90 215l-432 858l-19.5 37.5t-21 35t-26.5 34.5t-29.5 22t-34.5 10h-21zM88 983q15 -11 32.5 -36t27 -42.5t30.5 -58.5l406 -813l170 401 l-191 408q-28 61 -68 101t-75 40h-332zM90 -379q0 -55 38 -95t97 -40q73 0 123 52t92 165q-8 -4 -22 -4q-29 0 -88.5 38t-102.5 38q-59 0 -98 -45.5t-39 -108.5zM510 1174l190 342h287q62 0 62 -41q0 -6 -1 -11t-2.5 -8.5t-5 -8t-5.5 -6.5t-8.5 -7t-9.5 -7t-12.5 -7.5 t-13.5 -8.5l-436 -264zM561 1190l428 266q12 9 12 14q0 11 -16 11h-260z" />
<glyph unicode="&#xfe;" horiz-adv-x="1323" d="M12 -514h43q51 0 77 54t26 179v1463q0 123 -25.5 173t-77.5 50h-30v41q191 0 268.5 5.5t193.5 29.5q9 2 21 -4q70 -42 70 -195v-381q39 71 100 107t172 36q83 0 156 -32.5t130.5 -96.5t90.5 -168.5t33 -238.5q0 -236 -120 -382t-296 -146q-103 0 -170.5 37.5t-100.5 95.5 v-519q0 -84 -31.5 -116.5t-105.5 -32.5h-424v41zM137 1405q33 -18 47.5 -69t14.5 -154v-1489q0 -78 -16.5 -133.5t-41.5 -73.5h295q60 0 80.5 23t20.5 85v1684q0 124 -41 154q-11 7 -25 4q-158 -31 -309 -31h-25zM571 472.5q0 -47.5 1.5 -112t9 -111.5t21 -91t38 -67 t57.5 -23q39 0 62.5 31t32.5 102t10.5 119t1.5 146v15.5v13.5v15v49q1 43 0 88t-2.5 88t-8.5 81.5t-17 67t-28.5 45.5t-43.5 17q-17 0 -32.5 -5.5t-34 -23t-32 -46.5t-22.5 -81.5t-9 -121.5q0 -25 -2 -86.5t-2 -109zM700 981h11q33 0 57.5 -16t38.5 -54t23 -68t12 -94 t3.5 -94t0.5 -102v-43q0 -69 -1 -116.5t-4 -100t-8.5 -87.5t-14.5 -69t-22.5 -54t-32.5 -33t-44 -15q50 -15 125 -15q159 0 267 139t108 349q0 122 -30.5 218.5t-83 156t-117.5 90.5t-138 31q-112 0 -150 -23z" />
<glyph unicode="&#xff;" horiz-adv-x="1150" d="M-25 983v41h646v-41h-107q-8 0 0 -4q51 -31 96 -133l166 -361l137 322q12 25 19 52t8.5 56.5t-17 48.5t-55.5 19h-41v41h50q50 0 77 -24.5t27 -57.5q18 37 55 59.5t86 22.5h21v-41h-19q-57 0 -91.5 -38.5t-74.5 -137.5l-483 -1126q-21 -47 -35.5 -75.5t-38.5 -63 t-47.5 -53t-58 -31.5t-76.5 -13q-74 0 -124 49t-50 127q0 75 52.5 135t129.5 60q41 0 78.5 -19.5t68 -39t54.5 -19.5q27 0 41 33l90 215l-432 858l-19.5 37.5t-21 35t-26.5 34.5t-29.5 22t-34.5 10h-21zM88 983q15 -11 32.5 -36t27 -42.5t30.5 -58.5l406 -813l170 401 l-191 408q-28 61 -68 101t-75 40h-332zM90 -379q0 -55 38 -95t97 -40q73 0 123 52t92 165q-8 -4 -22 -4q-29 0 -88.5 38t-102.5 38q-59 0 -98 -45.5t-39 -108.5zM197 1331q0 73 52 123.5t126 50.5q72 0 123 -51t51 -123q0 -73 -50.5 -124.5t-123.5 -51.5q-74 0 -126 51.5 t-52 124.5zM240 1331q0 -60 37.5 -97.5t97.5 -37.5q55 0 93 39t38 96q0 56 -38 94.5t-93 38.5q-59 0 -97 -38.5t-38 -94.5zM653 1331q0 73 52 123.5t126 50.5q72 0 123.5 -51t51.5 -123t-51 -124t-124 -52q-74 0 -126 51.5t-52 124.5zM696 1331q0 -60 37.5 -97.5t97.5 -37.5 q56 0 94 39t38 96q0 56 -38.5 94.5t-93.5 38.5q-59 0 -97 -38.5t-38 -94.5z" />
<glyph unicode="&#x131;" horiz-adv-x="724" d="M10 0v41h43q51 0 77 54t26 179v486q0 101 -8.5 146.5t-28.5 61t-66 15.5h-30v41h86q84 0 151 5t103 10t126 20q7 0 11 -4q75 -75 75 -195v-571q0 -192 -88 -244q-4 -4 2 -4h152v-41h-631zM137 41h240q30 0 55.5 11t50 36.5t38.5 77t14 123.5v571q0 95 -54 156q-2 2 -6 2 q-214 -33 -299 -33h-24q30 -16 37.5 -60.5t7.5 -160.5v-516q0 -79 -18 -136.5t-42 -70.5z" />
<glyph unicode="&#x152;" horiz-adv-x="2347" d="M72 731q0 162 62.5 302.5t169 237.5t250.5 152.5t304 55.5q90 0 146 -33h1234v-41h-182q72 -14 127 -78t55 -176v-59h-45q0 5 -0.5 28t-1 28.5t-1.5 25t-2.5 26.5t-5 23t-8 25t-11 22.5t-15.5 25t-20 23.5q-86 86 -305 86h-332q-5 0 -4 -4q1 -1 4 -2q36 -17 57 -66.5 t26 -90.5t5 -83v-403h72q131 0 188 57q14 16 18.5 21.5t20.5 28.5t23 41t14.5 47.5t7.5 58.5v16h41v-22q0 -81 -46.5 -161t-121.5 -108q74 -28 121 -110t47 -162v-29h-41v19q0 108 -71 186t-175 78q-4 0 -13 -1t-13 -1h-72v-426q0 -193 -88 -242q-12 -6 0 -6h266h41.5h46 t44.5 1t48 2.5t44 4.5t46.5 7t41 11t42 15t35 19.5t33.5 25.5q24 24 38.5 49t20 59t6.5 53.5t1 65.5h45v-41q0 -117 -50 -185t-126 -87h176v-41h-1321q-57 -20 -111 -20q-229 0 -408.5 96.5t-278.5 267.5t-99 387zM119 731q0 -127 36 -238t96.5 -191.5t141 -142t168 -95.5 t178.5 -44q-45 14 -79 51t-55 95.5t-34.5 119t-19.5 144.5t-8 148.5t-2 152.5q0 277 15 391q33 262 170 315q9 4 19 7q-82 -12 -166.5 -46t-168 -95t-147.5 -140.5t-104 -192t-40 -239.5zM583.5 620q-0.5 -33 1.5 -84.5t5.5 -96.5t12.5 -99t22 -98t34.5 -86.5t48.5 -71.5 t65.5 -46.5t84.5 -17.5q50 0 89 22.5t64.5 56.5t44 92.5t28 112.5t15 136t6.5 142t1 151q0 96 -0.5 146.5t-3.5 130.5t-9.5 123t-18 100.5t-30 88t-44 61t-61.5 43t-81 12.5q-52 0 -92.5 -15t-69 -41t-48.5 -73.5t-32.5 -99t-19 -131.5t-8.5 -157.5t-2 -189.5q0 -7 -1 -42.5 t-1.5 -68.5zM1016 41h393q67 24 97 76t30 149v891q0 102 -36.5 173t-98.5 75h-361q109 -104 109 -475q0 -41 -1 -109t-1 -90v-34q0 -78 -0.5 -117.5t-2.5 -108.5t-7 -109t-14.5 -95.5t-23 -91t-35 -72.5t-48.5 -62z" />
<glyph unicode="&#x153;" horiz-adv-x="1945" d="M61 508q0 241 163.5 388.5t437.5 147.5q224 0 374 -102q146 102 334 102q219 0 369 -126q49 -41 81 -89t45.5 -98.5t17.5 -84t5 -77.5v-41h-631v-120q0 -132 11 -188q37 -190 202 -191q65 0 121 20t93.5 48t72 72.5t53.5 78.5t41 80l39 -13q-38 -89 -86 -152.5t-95 -98.5 t-108.5 -54.5t-112 -24.5t-120.5 -5q-212 0 -352 92q-152 -92 -354 -92q-97 0 -184.5 20t-164 62.5t-132.5 104t-88 149t-32 192.5zM102 500q0 -195 130.5 -327.5t338.5 -152.5q-32 12 -52.5 55.5t-28.5 117.5t-10.5 133t-2.5 149q0 263 16 374t78 155q-60 -5 -121 -24 t-125 -59t-112.5 -95.5t-79.5 -140t-31 -185.5zM518 522q0 -254 16 -344q26 -147 113 -157q7 -1 15 -1q21 0 38.5 6t30.5 20.5t24 30t18.5 42.5t13 49.5t9 59.5t5.5 64t3 72.5t1 75v80.5q0 61 -0.5 92.5t-2 86t-5 84t-10 71t-17.5 63.5t-25.5 45t-35.5 32.5t-47 9.5 t-47 -9.5t-36 -32t-25.5 -45.5t-17 -63t-10.5 -70t-5.5 -82.5t-2 -84t-0.5 -89.5v-6zM752 20q157 23 270 103q67 -55 144 -79t188 -24q-26 8 -47 26.5t-35 43.5t-25 56t-16.5 64.5t-10 69.5t-5 70t-1.5 66.5t0 59.5v24v80q0 160 19 272q19 118 63 156q-149 -24 -264 -113 q-125 94 -280 109q57 -39 75.5 -137t18.5 -298v-102q0 -90 -2.5 -148.5t-10.5 -130.5t-28.5 -114t-52.5 -54zM1257 569h154q34 0 44.5 44t10.5 126q0 52 -2.5 89.5t-11.5 82t-29.5 69t-52.5 24.5q-21 0 -37.5 -11.5t-28 -35.5t-20 -49t-13.5 -64t-8 -68t-4 -74t-1.5 -68.5 t-0.5 -64.5zM1430 1014q18 -8 32 -22.5t22 -37.5t13 -43.5t7 -54.5t2.5 -56t0.5 -61q0 -126 -16 -161q-2 -3 0 -6t6 -3h352q0 172 -106 292t-313 153z" />
<glyph unicode="&#x160;" horiz-adv-x="1249" d="M53 1044q0 78 35.5 154.5t101 139.5t169 102t227.5 39q145 0 241.5 -46t171.5 -135q43 23 43 93v55h41v-49q0 -60 -14 -86.5t-45 -48.5q52 -81 80 -230h-43q-79 406 -475 406q-120 0 -187 -46.5t-67 -123.5q0 -38 13.5 -69t32.5 -51.5t57 -41.5t68.5 -33.5t86.5 -32.5 l194 -71q154 -57 224 -101q193 -126 194 -360q0 -94 -37.5 -186t-106 -169t-179.5 -125t-244 -48q-149 0 -274.5 65.5t-196.5 171.5q-39 -21 -39 -92v-96h-41v90q0 61 12.5 87.5t42.5 47.5q-47 73 -76 229h43q29 -211 178.5 -337t350.5 -126q126 0 213.5 56.5t87.5 159.5 q0 58 -26.5 104.5t-75.5 78.5t-95 51.5t-108 37.5l-137 41q-68 20 -127 47t-118.5 69.5t-101.5 94t-68 125t-26 159.5zM94 1044q0 -317 416 -454l137 -45q139 -46 197 -82q132 -83 133 -227q0 -87 -55 -142q94 60 166.5 170t72.5 242q0 67 -15 122.5t-44 95.5t-62.5 70.5 t-80 54t-85 40t-88.5 34.5q-13 5 -20 7l-195 71q-5 2 -14 5q-128 47 -176 81q-89 65 -90 181q0 80 45 125q-93 -39 -167.5 -133t-74.5 -216zM215 1927l21 19l372 -199l365 199l22 -19l-274 -350h-219zM311 1866l213 -248h170l209 248l-295 -166z" />
<glyph unicode="&#x161;" horiz-adv-x="980" d="M51 705q0 45 13 89.5t45.5 90.5t82 80.5t129.5 56.5t181 22q93 0 180 -30.5t143 -95.5q39 23 39 81v45h41v-34q0 -85 -55 -123q48 -75 55 -131h-43q-16 69 -54 119.5t-90 77.5t-105 39t-111 12q-122 0 -182 -37t-60 -93q0 -31 21.5 -54t66.5 -40t90 -29t117 -30.5 t123 -34.5q174 -55 238.5 -138.5t64.5 -211.5q0 -92 -34 -161.5t-94 -111.5t-135.5 -62.5t-164.5 -20.5q-248 0 -383 131q-43 -25 -43 -97v-34h-41v34q0 87 57 127q-29 37 -46.5 75.5t-22 59.5t-8.5 54h43q4 -97 86 -185q119 -125 358 -125q126 0 180.5 33t54.5 80 q0 19 -4.5 34t-17 26t-25 18.5t-37.5 15.5t-44.5 13t-56 14t-62.5 16q-59 16 -100 28.5t-96.5 34t-93.5 43.5t-78.5 55.5t-65 71.5t-40.5 90t-16 112zM96 709q0 -76 28 -136.5t64 -97.5t107 -71t119 -49.5t139 -41.5q15 -4 43 -12q50 -14 72.5 -20.5t56 -18t48 -21t31 -23.5 t22 -30.5t5.5 -37.5q0 -52 -22 -74q131 82 131 252q0 42 -5.5 74t-22.5 69t-46.5 66t-81 57.5t-122.5 50.5q-47 15 -111.5 31t-107 26t-89 26t-74 33.5t-45.5 46t-18 66.5q0 45 37 87q-65 -29 -111.5 -93t-46.5 -159zM117 1495l20 18l373 -198l364 198l23 -18l-274 -350 h-220zM213 1434l213 -248h170l209 248l-295 -166z" />
<glyph unicode="&#x178;" horiz-adv-x="1579" d="M0 1405v41h791v-41h-173q-6 0 -2 -4q61 -28 115 -135l207 -416q63 -130 72 -160l262 535q37 78 37 123q0 57 -68 57h-90v41h109q86 0 96 -74q49 74 172 74h51v-41h-43q-84 -3 -125 -37.5t-98 -150.5l-285 -576q16 -91 16 -199v-143q0 -191 -75 -254q-4 -4 2 -4h192v-41 h-805v41h109q106 0 106 240v217q0 67 -45 147l-329 617q-77 143 -162 143h-37zM137 1405q28 -14 50 -44t55 -91l329 -615q43 -82 43 -149v-236q0 -182 -59 -229h313q47 0 79 39.5t44.5 90t12.5 103.5v191q0 38 -2.5 71.5t-10.5 66.5t-12.5 52.5t-19 52.5t-18.5 42t-22 45 t-20 39l-203 411q-20 41 -49 74.5t-55 50.5t-44.5 26t-25.5 9h-385zM438 1765q0 73 52 123.5t126 50.5q72 0 123.5 -51t51.5 -123t-51 -124t-124 -52q-74 0 -126 51.5t-52 124.5zM481 1765q0 -60 37.5 -97.5t97.5 -37.5q56 0 94 39t38 96q0 56 -38.5 94.5t-93.5 38.5 q-59 0 -97 -38.5t-38 -94.5zM895 1765q0 73 52 123.5t126 50.5q72 0 123 -51t51 -123q0 -73 -50.5 -124.5t-123.5 -51.5q-74 0 -126 51.5t-52 124.5zM938 1765q0 -60 37.5 -97.5t97.5 -37.5q55 0 93 39t38 96q0 56 -38 94.5t-93 38.5q-59 0 -97 -38.5t-38 -94.5z" />
<glyph unicode="&#x17d;" horiz-adv-x="1280" d="M-27 0v41h29q61 0 112 50.5t105 170.5l486 1071q25 72 -39 72h-127q-58 0 -113 -9t-109 -30.5t-94 -54t-65 -84t-25 -115.5v-57h-41v53q0 117 66 192.5t166 104.5h-205v41h1040q39 0 57 -17.5t17 -41.5t-14 -54l-490 -1073q-71 -154 -184 -215q-4 -4 0 -4h227 q25 0 56 3.5t74 13.5t83.5 26t82 44t72 64.5t49.5 90.5t19 118v66h41v-80q0 -111 -66.5 -205t-197.5 -141h240v-41h-1252zM109 41h337q67 21 135.5 83t112.5 159l488 1060q30 62 -35 62h-402q13 -7 14.5 -28.5t-9.5 -43.5l-486 -1071q-94 -206 -155 -221zM252 1927l20 19 l373 -199l365 199l22 -19l-274 -350h-219zM348 1866l213 -248h170l209 248l-295 -166z" />
<glyph unicode="&#x17e;" horiz-adv-x="1110" d="M4 0v41h23q16 0 30 4t25 8.5t22.5 16.5t19 20t18.5 26t17 28t19 34t19 35l401 717q13 20 5 36.5t-36 16.5h-94q-66 0 -125.5 -16t-108.5 -48t-79.5 -85.5t-34.5 -122.5l-2 -41h-45v20q0 111 60.5 190t142.5 103h-177v41h883q49 0 64.5 -31t-9.5 -75l-389 -703 q-38 -68 -72.5 -105.5t-80.5 -64.5q-8 -4 0 -4h143q82 0 150.5 26t134.5 89q46 42 62 90t22 116l2 25h47l-2 -35q-8 -99 -65 -185t-165 -126h207l-2 -41h-1030zM135 41h232q62 0 124.5 43t114.5 131l400 715q11 12 9.5 32.5t-24.5 20.5h-354q14 -7 15.5 -23.5t-7.5 -29.5 l-399 -717q-9 -16 -24 -43.5t-21 -37.5t-16 -27t-16.5 -25.5t-15 -19t-18.5 -19.5zM252 1495l20 18l373 -198l365 198l22 -18l-274 -350h-219zM348 1434l213 -248h170l209 248l-295 -166z" />
<glyph unicode="&#x192;" horiz-adv-x="1193" d="M-238 -248q0 87 46.5 146t138.5 59q85 0 135.5 -57t50.5 -119q0 -47 -12.5 -80.5t-29.5 -49.5t-34.5 -26.5t-30 -21t-12.5 -23.5q0 -49 62 -49q30 0 50 10.5t40 38.5q28 39 36 115.5t13 294.5q12 566 59 993h-186v41h197q23 103 55.5 175.5t93.5 135.5q54 56 137 90.5 t146 44t121 9.5q155 0 250.5 -65.5t95.5 -192.5q0 -76 -50 -132.5t-139 -56.5q-72 0 -127 49t-55 125q0 85 68 150q21 19 26.5 27.5t5.5 21.5q0 33 -49 33q-31 0 -54.5 -12.5t-39.5 -40.5t-26.5 -59.5t-17 -84t-9.5 -99t-6 -118.5h194v-41h-200q-13 -162 -23 -269 t-26.5 -249.5t-34 -236t-45 -206t-59.5 -184t-76.5 -145t-98 -114.5t-122.5 -67t-150 -26q-63 0 -116 17.5t-87.5 45.5t-59 63.5t-35 71t-10.5 68.5zM-197 -248q0 -77 55.5 -140.5t153.5 -92.5q-39 26 -39 61q0 37 35 55q84 44 84 146q0 55 -38.5 96t-106.5 41 q-64 0 -104 -41.5t-40 -124.5zM186 -457q18 0 60 19.5t80 60.5q85 89 141.5 210t94 328.5t53.5 350.5t45 467q1 13 2 20q21 231 31 286q24 121 83 155l12 6q-194 -17 -319 -135q-115 -110 -147 -338q-14 -100 -23.5 -187.5t-16.5 -199t-9.5 -165.5t-8.5 -213.5t-8 -217.5 q-9 -275 -20 -338q-13 -78 -50 -109zM854 1208q0 -55 39.5 -95t107.5 -40q60 0 101 43.5t41 106.5q0 83 -53.5 136t-157.5 83q24 -13 24 -37q0 -20 -25.5 -51.5t-51 -69.5t-25.5 -76z" />
<glyph unicode="&#x2c6;" horiz-adv-x="882" d="M51 1075l287 348h217l276 -348l-22 -20l-365 194l-372 -194zM137 1124l307 174l308 -174l-222 260h-170z" />
<glyph unicode="&#x2c7;" horiz-adv-x="598" d="M-90 1405l20 18l373 -198l365 198l22 -18l-274 -350h-219zM6 1343l213 -247h170l209 247l-295 -165z" />
<glyph unicode="&#x2d8;" horiz-adv-x="796" d="M51 1343l55 37q22 -18 36.5 -27.5t51.5 -29t89 -29.5t116 -10q187 0 295 96l51 -37q-83 -150 -162 -206t-186 -56q-55 0 -101 15t-77 35t-64.5 59.5t-52.5 69t-51 83.5zM102 1335q15 -31 38 -63t59.5 -68t89 -59t110.5 -23q50 0 95 16t76 39t58 54.5t41.5 55t26.5 48.5 q-101 -92 -297 -92q-101 0 -177.5 27t-119.5 65z" />
<glyph unicode="&#x2d9;" horiz-adv-x="595" d="M113 1241q0 78 54 132t132 54q75 0 129.5 -54.5t54.5 -131.5t-54 -130.5t-130 -53.5q-78 0 -132 53t-54 131zM154 1241q0 -57 43 -100t102 -43q57 0 100 43t43 100q0 59 -43 102t-100 43q-60 0 -102.5 -42.5t-42.5 -102.5z" />
<glyph unicode="&#x2da;" horiz-adv-x="669" d="M102 1247q0 91 69.5 156t164.5 65q92 0 156.5 -64.5t64.5 -156.5t-65 -157.5t-156 -65.5q-105 0 -169.5 62.5t-64.5 160.5zM145 1247q0 -78 54.5 -131t134.5 -53q75 0 129.5 55t54.5 129q0 75 -54.5 130t-129.5 55q-77 0 -133 -55t-56 -130zM201 1247q0 51 39.5 91 t93.5 40q55 0 92 -37.5t37 -93.5q0 -53 -38.5 -92t-90.5 -39q-59 0 -96 36.5t-37 94.5zM244 1247q0 -37 26 -63.5t64 -26.5q37 0 63.5 26.5t26.5 63.5t-26 63.5t-64 26.5t-64 -27t-26 -63z" />
<glyph unicode="&#x2db;" horiz-adv-x="598" d="M102 -266q0 68 58.5 135t156.5 139l134 25l-45 -41q-113 -113 -113 -189q0 -36 23.5 -57.5t64.5 -21.5q22 0 45 7t32.5 12t35.5 19l-15 -98q-110 -65 -213 -65q-74 0 -119 38.5t-45 96.5zM143 -266q0 -47 39 -70.5t84 -23.5q50 0 100 12.5t74 30.5l4 22q-24 -18 -65 -18 q-55 0 -91 31.5t-36 84.5q0 73 72 148l22 24l10 13l-20 -4q-93 -75 -143 -134t-50 -116z" />
<glyph unicode="&#x2dc;" horiz-adv-x="894" d="M51 1092q26 61 52 107.5t61 93.5t79 72.5t93 25.5q64 0 176 -45q62 -25 94.5 -33t73.5 -8q84 0 119 88l45 -19q-23 -60 -47 -107t-58.5 -94.5t-80 -73.5t-97.5 -26q-55 0 -175 43t-171 43q-81 0 -125 -90zM123 1157q36 43 98 43q55 0 172 -43t168 -43q127 0 217 195 q-25 -25 -47 -35t-57 -10q-66 0 -170 41q-112 45 -168 45q-28 0 -55 -12.5t-46 -27.5t-40.5 -42t-31 -42t-24.5 -41.5t-16 -27.5z" />
<glyph unicode="&#x2dd;" horiz-adv-x="1097" d="M51 1083l191 342h286q62 0 62 -41q0 -7 -1 -12t-4 -10t-5 -8t-9 -7.5t-10.5 -7t-13.5 -9t-15 -9.5l-436 -264zM102 1100l428 266q13 10 13 14q0 11 -17 11h-260zM508 1083l190 342h287q62 0 62 -41q0 -7 -1 -12t-4 -10t-5 -8t-9 -7.5t-10.5 -7t-13.5 -9t-15 -9.5 l-436 -264zM559 1100l428 266q12 9 12 14q0 11 -16 11h-260z" />
<glyph unicode="&#x3c0;" horiz-adv-x="1644" d="M31 1169v41h1474v-41h-139v-964q0 -113 80 -113q37 0 74 40.5t65 121.5l29 -10q-37 -129 -120.5 -196.5t-225.5 -67.5q-169 0 -242.5 81t-73.5 275v833h-368v-964q0 -113 80 -113q37 0 74 40.5t65 121.5l28 -10q-37 -129 -120.5 -196.5t-225.5 -67.5q-169 0 -242 80.5 t-73 275.5v833h-139zM211 336q0 -173 62 -246.5t210 -73.5q101 0 168 41q-55 0 -81.5 39.5t-26.5 108.5v964h-332v-833zM993 336q0 -173 62.5 -246.5t210.5 -73.5q101 0 168 41q-55 0 -82 39.5t-27 108.5v964h-332v-833z" />
<glyph unicode="&#x2000;" horiz-adv-x="992" />
<glyph unicode="&#x2001;" horiz-adv-x="1985" />
<glyph unicode="&#x2002;" horiz-adv-x="992" />
<glyph unicode="&#x2003;" horiz-adv-x="1985" />
<glyph unicode="&#x2004;" horiz-adv-x="661" />
<glyph unicode="&#x2005;" horiz-adv-x="496" />
<glyph unicode="&#x2006;" horiz-adv-x="330" />
<glyph unicode="&#x2007;" horiz-adv-x="330" />
<glyph unicode="&#x2008;" horiz-adv-x="248" />
<glyph unicode="&#x2009;" horiz-adv-x="397" />
<glyph unicode="&#x200a;" horiz-adv-x="110" />
<glyph unicode="&#x2010;" horiz-adv-x="1032" d="M154 393v275h725v-275h-725zM195 434h643v191l-643 2v-193z" />
<glyph unicode="&#x2011;" horiz-adv-x="1032" d="M154 393v275h725v-275h-725zM195 434h643v191l-643 2v-193z" />
<glyph unicode="&#x2012;" horiz-adv-x="1032" d="M154 393v275h725v-275h-725zM195 434h643v191l-643 2v-193z" />
<glyph unicode="&#x2013;" horiz-adv-x="1460" d="M154 393v275h1153v-275h-1153zM195 434h1071v193h-1071v-193z" />
<glyph unicode="&#x2014;" horiz-adv-x="1587" d="M154 393v275h1280v-275h-1280zM195 434h1198v193h-1198v-193z" />
<glyph unicode="&#x2018;" horiz-adv-x="587" d="M92 893q0 73 3.5 124t20 122.5t46.5 125.5t87.5 112t137.5 102l21 -37q-245 -130 -273 -432q25 41 68 64.5t94 23.5q85 0 145 -60t60 -145q0 -87 -60 -146t-145 -59q-88 0 -146.5 56.5t-58.5 148.5zM133 893q0 -69 47.5 -117.5t116.5 -48.5t116.5 48.5t47.5 117.5 t-47.5 117.5t-116.5 48.5t-116.5 -48.5t-47.5 -117.5z" />
<glyph unicode="&#x2019;" horiz-adv-x="587" d="M86 1274q0 87 60 146t145 59q88 0 146.5 -56.5t58.5 -148.5q0 -73 -3.5 -124t-20 -122.5t-46.5 -125.5t-87.5 -112t-137.5 -102l-21 37q245 130 273 432q-25 -41 -68 -64.5t-94 -23.5q-85 0 -145 60t-60 145zM127 1274q0 -69 47.5 -117.5t116.5 -48.5t116.5 48.5 t47.5 117.5t-47.5 117.5t-116.5 48.5t-116.5 -48.5t-47.5 -117.5z" />
<glyph unicode="&#x201a;" horiz-adv-x="598" d="M78 176q0 85 59 145t146 60q88 0 146 -56.5t58 -148.5q0 -60 -2.5 -103t-11.5 -102t-28.5 -106t-51 -97.5t-82.5 -95.5t-118 -82l-21 37q260 129 274 434q-25 -41 -68.5 -65.5t-94.5 -24.5q-86 0 -145.5 59.5t-59.5 145.5zM119 176q0 -69 47.5 -117.5t116.5 -48.5 t116 48.5t47 117.5t-47 117.5t-116 48.5t-116.5 -48.5t-47.5 -117.5z" />
<glyph unicode="&#x201c;" horiz-adv-x="1110" d="M92 893q0 73 3.5 124t20 122.5t46.5 125.5t87.5 112t137.5 102l21 -37q-245 -130 -273 -432q25 41 68 64.5t94 23.5q85 0 145 -60t60 -145q0 -87 -60 -146t-145 -59q-88 0 -146.5 56.5t-58.5 148.5zM133 893q0 -69 47.5 -117.5t116.5 -48.5t116.5 48.5t47.5 117.5 t-47.5 117.5t-116.5 48.5t-116.5 -48.5t-47.5 -117.5zM614 893q0 73 3.5 124t20 122.5t46.5 125.5t87.5 112t137.5 102l21 -37q-245 -130 -273 -432q25 41 68 64.5t94 23.5q85 0 145 -60t60 -145q0 -87 -60 -146t-145 -59q-88 0 -146.5 56.5t-58.5 148.5zM655 893 q0 -69 47.5 -117.5t116.5 -48.5t116.5 48.5t47.5 117.5t-47.5 117.5t-116.5 48.5t-116.5 -48.5t-47.5 -117.5z" />
<glyph unicode="&#x201d;" horiz-adv-x="1110" d="M86 1274q0 87 60 146t145 59q88 0 146.5 -56.5t58.5 -148.5q0 -73 -3.5 -124t-20 -122.5t-46.5 -125.5t-87.5 -112t-137.5 -102l-21 37q245 130 273 432q-25 -41 -68 -64.5t-94 -23.5q-85 0 -145 60t-60 145zM127 1274q0 -69 47.5 -117.5t116.5 -48.5t116.5 48.5 t47.5 117.5t-47.5 117.5t-116.5 48.5t-116.5 -48.5t-47.5 -117.5zM608 1274q0 87 60 146t145 59q88 0 146.5 -56.5t58.5 -148.5q0 -73 -3.5 -124t-20 -122.5t-46.5 -125.5t-87.5 -112t-137.5 -102l-21 37q245 130 273 432q-25 -41 -68 -64.5t-94 -23.5q-85 0 -145 60 t-60 145zM649 1274q0 -69 47.5 -117.5t116.5 -48.5t116.5 48.5t47.5 117.5t-47.5 117.5t-116.5 48.5t-116.5 -48.5t-47.5 -117.5z" />
<glyph unicode="&#x201e;" horiz-adv-x="1067" d="M78 176q0 85 59 145t146 60q88 0 146 -56.5t58 -148.5q0 -60 -2.5 -103t-11.5 -102t-28.5 -106t-51 -97.5t-82.5 -95.5t-118 -82l-21 37q260 129 274 434q-25 -41 -68.5 -65.5t-94.5 -24.5q-86 0 -145.5 59.5t-59.5 145.5zM119 176q0 -69 47.5 -117.5t116.5 -48.5 t116 48.5t47 117.5t-47 117.5t-116 48.5t-116.5 -48.5t-47.5 -117.5zM547 176q0 85 59 145t146 60q88 0 146 -56.5t58 -148.5q0 -60 -2.5 -103t-11.5 -102t-28.5 -106t-51 -97.5t-82.5 -95.5t-118 -82l-21 37q260 129 274 434q-25 -41 -68.5 -65.5t-94.5 -24.5 q-88 0 -146.5 58.5t-58.5 146.5zM588 176q0 -69 47.5 -117.5t116.5 -48.5t116 48.5t47 117.5t-47 117.5t-116 48.5t-116.5 -48.5t-47.5 -117.5z" />
<glyph unicode="&#x2020;" horiz-adv-x="1490" d="M35 809q0 76 46.5 132t139.5 56q18 0 35.5 -2t37.5 -7.5t30 -8.5t33.5 -11.5t27.5 -9.5l340 -122l-115 278q-61 147 -61 242q0 82 52.5 135t152.5 53q93 0 147.5 -46t54.5 -140q0 -85 -65 -244l-115 -278l316 118q119 45 176 45q79 0 133.5 -45.5t54.5 -144.5 q0 -90 -46 -141.5t-136 -51.5q-69 0 -164 35l-334 129q133 -605 170 -784.5t37 -235.5q0 -119 -65.5 -180t-165.5 -61q-23 0 -46 3t-59 17.5t-62 39t-45.5 72.5t-19.5 113q0 78 35.5 262.5t167.5 753.5l-365 -135q-93 -33 -139 -33q-85 0 -134.5 54.5t-49.5 142.5zM76 809 q0 -73 38 -114.5t109 -41.5q34 0 84 15.5t158 56.5l225 84l-225 80q-10 4 -52.5 19.5t-66.5 23.5t-60.5 16t-64.5 8q-72 0 -108.5 -38.5t-36.5 -108.5zM561 -236q0 -95 55 -149.5t136 -54.5q87 0 138.5 53.5t51.5 146.5q0 17 -1.5 34.5t-7.5 53t-13.5 74t-24 118.5 t-34 163.5t-48 233t-61.5 304.5q-88 -405 -132.5 -627t-51.5 -270.5t-7 -79.5zM590 1356q0 -72 65 -242l97 -250l98 250q65 159 65 244q0 71 -44.5 108t-116.5 37q-77 0 -120.5 -39.5t-43.5 -107.5zM801 809l225 -82q188 -72 242 -72q71 0 109 41.5t38 114.5 q0 70 -36.5 108.5t-108.5 38.5q-28 0 -64 -8t-61.5 -17t-65.5 -24t-53 -20z" />
<glyph unicode="&#x2021;" horiz-adv-x="1449" d="M14 256q0 88 50 142.5t135 54.5q45 0 139 -33l364 -135l-57 256l55 237l-362 -133q-94 -33 -139 -33q-85 0 -135 54.5t-50 142.5q0 76 47 132t140 56q18 0 35.5 -2t37.5 -7.5t30 -8.5t33.5 -11.5t27.5 -9.5l340 -122l-115 278q-62 150 -62 242q0 82 52.5 135t152.5 53 q93 0 148 -46t55 -140q0 -83 -66 -244l-114 -278l315 118q119 45 176 45q79 0 134 -45.5t55 -144.5q0 -90 -46.5 -141.5t-136.5 -51.5q-68 0 -163 35l-332 127l55 -237l-57 -256l334 129q95 35 163 35q90 0 136.5 -51.5t46.5 -141.5q0 -99 -55 -144.5t-134 -45.5 q-57 0 -176 45l-315 118l114 -278q66 -161 66 -244q0 -94 -55 -140t-148 -46q-100 0 -152.5 53t-52.5 135q0 92 62 242l115 278l-340 -123q-4 -1 -23.5 -8t-26.5 -9.5t-25 -7.5t-29.5 -7t-28 -4t-31.5 -2q-93 0 -140 56t-47 132zM55 256q0 -70 37 -108.5t109 -38.5 q28 0 64.5 8t60.5 16t65.5 23.5t52.5 19.5l226 80l-226 84q-105 40 -156 56t-85 16q-71 0 -109.5 -41.5t-38.5 -114.5zM55 809q0 -73 38.5 -114.5t109.5 -41.5q34 0 82.5 15.5t158.5 56.5l226 84l-226 80q-11 4 -52.5 19.5t-65.5 23.5t-60.5 16t-64.5 8q-72 0 -109 -38.5 t-37 -108.5zM569 -291q0 -68 43.5 -107.5t120.5 -39.5q72 0 117 37t45 108q0 78 -66 244l-98 250l-96 -250q-66 -173 -66 -242zM569 1356q0 -69 66 -242l96 -250l98 250q66 161 66 244q0 71 -45 108t-117 37q-77 0 -120.5 -39.5t-43.5 -107.5zM684 541l45 -201l43 201 l-43 190zM780 256l226 -80q15 -5 53.5 -20t64 -24t61.5 -17.5t64 -8.5q72 0 109 39t37 109q0 73 -38.5 114.5t-109.5 41.5q-24 0 -61.5 -10t-68.5 -21t-111 -41zM780 809l226 -82q105 -40 156 -56t85 -16q71 0 109.5 41.5t38.5 114.5q0 70 -37 108.5t-109 38.5q-28 0 -64 -8 t-61.5 -17t-64.5 -24t-53 -20z" />
<glyph unicode="&#x2022;" horiz-adv-x="688" d="M51 723q0 123 85 208t208 85t208 -85t85 -208t-85 -208t-208 -85t-208 85t-85 208zM92 723q0 -103 74.5 -177.5t177.5 -74.5t177.5 74.5t74.5 177.5t-74.5 177.5t-177.5 74.5t-177.5 -74.5t-74.5 -177.5z" />
<glyph unicode="&#x2026;" horiz-adv-x="2048" d="M137 193q0 85 59 144.5t146 59.5q86 0 145.5 -59t59.5 -145q0 -87 -60 -146t-145 -59q-88 0 -146.5 58.5t-58.5 146.5zM178 193q0 -69 47.5 -117.5t116.5 -48.5t116.5 48.5t47.5 117.5t-47.5 117t-116.5 48t-116.5 -48t-47.5 -117zM819 193q0 85 59 144.5t146 59.5 q85 0 145 -59.5t60 -144.5q0 -87 -60 -146t-145 -59q-88 0 -146.5 58.5t-58.5 146.5zM860 193q0 -69 47.5 -117.5t116.5 -48.5t116.5 48.5t47.5 117.5t-47.5 117t-116.5 48t-116.5 -48t-47.5 -117zM1501 193q0 85 59 144.5t146 59.5q85 0 145 -59.5t60 -144.5 q0 -87 -60 -146t-145 -59q-88 0 -146.5 58.5t-58.5 146.5zM1542 193q0 -69 47.5 -117.5t116.5 -48.5t116.5 48.5t47.5 117.5t-47.5 117t-116.5 48t-116.5 -48t-47.5 -117z" />
<glyph unicode="&#x202f;" horiz-adv-x="397" />
<glyph unicode="&#x2030;" horiz-adv-x="2586" d="M66 1026q0 110 31.5 200.5t83 147t115.5 87t132 30.5q158 0 258 -129.5t105 -335.5q0 -202 -103.5 -334.5t-257.5 -132.5q-107 0 -191 64t-128.5 170t-44.5 233zM104 1026q0 -152 76.5 -279.5t181.5 -152.5q-19 12 -31 31t-18.5 37.5t-9.5 56t-3.5 64t-0.5 83.5v371 q0 104 15.5 152t47.5 67q-39 -11 -82 -43.5t-83.5 -84t-66.5 -131t-26 -171.5zM342 866q0 -140 18.5 -207t69.5 -67q26 0 44 23t26 66t11 85.5t3 99.5v371q0 219 -86 219q-48 0 -67 -54t-19 -165v-371zM457 0l833 1448h45l-835 -1448h-43zM492 596q83 19 143 84t88.5 154 t28.5 192q0 96 -26 176.5t-67 131t-83 81t-82 41.5q63 -37 63 -217v-371q0 -48 -0.5 -67.5t-2 -55.5t-5.5 -52.5t-11 -38.5t-18.5 -35t-27.5 -23zM1001 438q0 110 31.5 200.5t83.5 147t116 87t132 30.5q158 0 257.5 -129.5t104.5 -335.5q0 -202 -103 -334.5t-257 -132.5 q-107 0 -191 64t-129 170t-45 233zM1040 438q0 -152 76.5 -279.5t181.5 -152.5q-43 28 -53 84t-10 189v370q0 104 15.5 152t47.5 67q-39 -11 -82 -43.5t-83.5 -84t-66.5 -131t-26 -171.5zM1278 279q0 -140 18.5 -207.5t69.5 -67.5q26 0 44 23.5t26 66.5t11 85.5t3 99.5v370 q0 219 -86 219q-48 0 -67 -54t-19 -165v-370zM1427 8q83 19 143.5 84t89 154t28.5 192q0 96 -26 176.5t-67 131t-83 81t-82 41.5q63 -37 63 -217v-370q0 -54 -0.5 -80t-3.5 -64.5t-10 -58t-20 -39.5t-32 -31zM1794 438q0 110 31.5 200.5t83.5 147t116 87t132 30.5 q158 0 257.5 -129.5t104.5 -335.5q0 -202 -103 -334.5t-257 -132.5q-107 0 -191 64t-129 170t-45 233zM1833 438q0 -152 76.5 -279.5t181.5 -152.5q-43 28 -53 84t-10 189v370q0 104 15.5 152t47.5 67q-39 -11 -82 -43.5t-83.5 -84t-66.5 -131t-26 -171.5zM2071 279 q0 -140 18.5 -207.5t69.5 -67.5q26 0 44 23.5t26 66.5t11 85.5t3 99.5v370q0 219 -86 219q-48 0 -67 -54t-19 -165v-370zM2220 8q83 19 143 84t88.5 154t28.5 192q0 96 -26 176.5t-67 131t-83 81t-82 41.5q64 -38 64 -217v-370q0 -54 -0.5 -80t-3.5 -64.5t-10 -58t-20 -39.5 t-32 -31z" />
<glyph unicode="&#x2039;" horiz-adv-x="598" d="M70 541l227 268h252l-230 -268l230 -262h-252zM125 541l197 -228h143l-199 228l199 231h-143z" />
<glyph unicode="&#x203a;" horiz-adv-x="598" d="M49 279l230 262l-230 268h252l227 -268l-227 -262h-252zM133 313h143l197 228l-197 231h-143l199 -231z" />
<glyph unicode="&#x2044;" horiz-adv-x="354" d="M-266 0l833 1446h54l-834 -1446h-53z" />
<glyph unicode="&#x205f;" horiz-adv-x="496" />
<glyph unicode="&#x20ac;" horiz-adv-x="1705" d="M-102 596v41h182q-2 25 -2 76q0 57 6 112h-186v41h192q50 276 263.5 444.5t531.5 168.5q229 0 371 -113.5t167 -341.5h-43q-20 188 -143.5 301t-304.5 113q-81 0 -143.5 -35t-99.5 -89t-62 -133t-35 -152.5t-14 -162.5h399v-41h-402v-96v-92h402v-41h-402 q3 -97 12.5 -172.5t33.5 -154.5t61 -131t100.5 -85t147.5 -33q193 0 320 126t134 331h43q-19 -243 -159.5 -370t-386.5 -127q-335 0 -546.5 168t-248.5 448h-188zM119 715q0 -129 38.5 -240.5t103 -189.5t149 -136.5t175 -89.5t183.5 -39q-132 60 -184 223t-52 486 q0 297 49.5 459t176.5 246q-95 -13 -185 -48.5t-173 -97.5t-145 -142.5t-99 -192t-37 -238.5z" />
<glyph unicode="&#x2122;" horiz-adv-x="1579" d="M55 1296l11 37q17 56 51 76h-54v37h779l225 -473l164 473h217v-37h-18q-15 0 -25 -4.5t-16.5 -14t-10.5 -19t-5.5 -28.5t-2 -33.5t-0.5 -41.5v-371q0 -88 47 -88h19v-41h-285v41h12q14 0 23.5 3.5t15 13t9 17t5 26.5t1.5 29.5v37.5v356l-177 -524h-45l-252 502v-334 q0 -63 14 -95t48 -32h18v-41h-18q-34 0 -55.5 16t-26.5 41q-6 -19 -10 -28t-21.5 -19t-46.5 -10h-20v41h18q34 0 44.5 26t10.5 101v422q-9 51 -45 51h-276v-412q0 -45 4.5 -73.5t18.5 -56t43.5 -42t76.5 -16.5h47v-41h-49q-58 0 -104 25.5t-62 76.5q-13 -44 -57.5 -73 t-110.5 -29h-39v41h37q85 0 116.5 48.5t31.5 139.5v412h-119q-37 0 -67.5 -21.5t-39.5 -58.5l-8 -33h-41zM723 1409l293 -592l33 107l-236 485h-90zM1237 809h113q-23 26 -23 84v428q0 29 8 54t21 34h-92l-4 -14v-473q0 -107 -23 -113z" />
<glyph unicode="&#x2202;" horiz-adv-x="1333" d="M66 414q0 143 65.5 260.5t185.5 186.5t269 69q42 0 71 -2.5t67.5 -11t66.5 -29t43 -53.5q28 149 28 282q0 135 -78.5 227.5t-212.5 92.5q-54 0 -116.5 -22.5t-100.5 -67.5q0 3 -4.5 8.5t-11 12t-8.5 9.5q104 115 309 115q280 0 455.5 -182.5t175.5 -481.5 q0 -182 -59.5 -342.5t-160 -272.5t-236 -176.5t-284.5 -64.5q-202 0 -333 125.5t-131 317.5zM106 416q0 -158 95 -270t278 -146q-31 14 -45 43.5t-14 95.5q0 92 37 310q29 174 59.5 270t61.5 130.5t79 43.5q-12 4 -43 4q-72 0 -141 -16t-136.5 -52.5t-118 -90.5t-81.5 -137 t-31 -185zM461 139q0 -25 3 -44t11 -39.5t27.5 -32t48.5 -11.5q101 0 154 144q25 59 65 288l47 293q8 51 -24.5 94t-85.5 43q-37 0 -66 -20.5t-48.5 -56t-34.5 -83t-26.5 -100t-21.5 -109.5q-6 -38 -10 -56q-39 -217 -39 -310zM639 12q63 10 129 39t133 75.5t125.5 115.5 t104 153t72 194.5t26.5 233.5t-34.5 230.5t-102 193.5t-175 141.5t-245.5 69.5q124 -36 177.5 -127t53.5 -213q0 -28 -2 -62.5t-7.5 -80t-10 -80t-13.5 -93.5t-13 -86t-15 -92t-13 -79q-10 -63 -18 -110.5t-13.5 -81t-11.5 -61t-8.5 -41.5t-8 -30.5l-7 -21t-8.5 -21.5 t-9 -22q-42 -114 -106 -144z" />
<glyph unicode="&#x220f;" horiz-adv-x="1476" d="M25 -612h43q51 0 76.5 54t25.5 179v1542q0 131 -25.5 186.5t-76.5 55.5h-43v41h1427v-41h-143q-8 0 0 -4q48 -26 67 -98t19 -140v-1528q0 -174 -86 -243q-4 -4 2 -4h141v-41h-653v41h22q51 0 77 54t26 179v1542q0 130 -25.5 186t-77.5 56h-266q-8 0 0 -4q48 -26 67 -98 t19 -140v-1528q0 -174 -86 -243q-4 -4 2 -4h84v-41h-616v41zM143 1405q34 -18 50 -73.5t16 -168.5v-1550q0 -184 -55 -225h317q69 27 98 80t29 145v1544q0 105 -33 171.5t-102 76.5h-320zM897 1405q34 -18 50 -73.5t16 -168.5v-1550q0 -183 -56 -225h318q69 27 98 80t29 145 v1544q0 105 -33 171.5t-102 76.5h-320z" />
<glyph unicode="&#x2211;" horiz-adv-x="1185" d="M10.5 -596.5q1.5 24.5 14.5 53.5l315 699q35 76 96.5 143t118.5 98q-58 31 -119 96.5t-96 141.5l-315 698q-13 29 -14.5 54t14 42t49.5 17h1050v-41h-186q100 -19 158.5 -111.5t58.5 -238.5h-45l-6 78q-5 65 -31 114t-64.5 78.5t-93.5 48t-110.5 25t-122.5 6.5h-104 q-64 0 -39 -72l311 -696q54 -120 105 -170.5t112 -50.5h29v-41h-29q-61 0 -112 -50.5t-105 -170.5l-311 -697q-24 -71 39 -71h104q67 0 122.5 6.5t110.5 25t93.5 48t64.5 78.5t31 114l6 78h45q0 -146 -58.5 -238.5t-158.5 -111.5h186v-41h-1050q-34 0 -49.5 17t-14 41.5z M59.5 -593.5q6.5 -20.5 36.5 -20.5h402q-14 8 -16.5 28.5t7.5 42.5l312 697q50 110 103 173t83 70q-31 7 -83.5 69t-102.5 171l-312 696q-10 22 -7.5 43t16.5 29h-402q-30 0 -36.5 -21t6.5 -41l313 -686q37 -81 99 -144t126 -97v-41q-54 -22 -121 -91.5t-104 -150.5 l-313 -686q-13 -20 -6.5 -40.5z" />
<glyph unicode="&#x221e;" horiz-adv-x="2615" d="M61 520q0 231 164.5 377.5t436.5 146.5q177 0 292 -124l353 -377l354 377q115 124 293 124q97 0 184.5 -20.5t163.5 -64t132 -106t88 -152t32 -197.5q0 -232 -164 -378t-436 -146q-178 0 -293 124l-354 375l-353 -375q-115 -124 -292 -124q-97 0 -184.5 20.5t-164 64 t-132.5 106t-88 152t-32 197.5zM102 520q0 -209 129.5 -344t339.5 -156q-32 12 -52.5 56t-29.5 122t-11.5 147t-2.5 175q0 227 17 334t79 150q-60 -5 -121.5 -24t-124.5 -58t-112 -92.5t-80 -134t-31 -175.5zM518 520q0 -249 15 -338q26 -151 114 -161q7 -1 15 -1 q155 0 260 113l356 379l-356 379q-105 113 -260 113q-26 0 -47 -9.5t-36 -32.5t-25.5 -45.5t-17 -63t-10.5 -71t-5.5 -84t-2 -86t-0.5 -92.5zM1337 512l357 -379q105 -113 260 -113q26 0 47 9.5t35.5 32.5t25.5 45t17.5 63.5t10 71t5 84t2 86t0.5 92.5v11q0 246 -16 335 q-27 146 -116 154h-11q-155 0 -260 -113zM2044 20q60 5 121.5 24t124.5 58t112 92.5t80 134t31 175.5q0 209 -129.5 344t-339.5 156q32 -12 52.5 -56t29.5 -122t11.5 -147t2.5 -175q0 -227 -17 -334t-79 -150z" />
<glyph unicode="&#x222b;" horiz-adv-x="1177" d="M-61 -319q0 91 50.5 142.5t137.5 51.5q68 0 116 -41t48 -108q0 -39 -19 -72t-38 -59t-19 -48q0 -29 18 -45t48 -16q18 0 33 5t25 17t17.5 23.5t12 33.5t7 37.5t3.5 44.5t1 45.5t-0.5 50t-0.5 48.5v1026q0 63 1 96.5t7 91.5t18.5 98t37.5 90.5t61 94.5q154 191 391 191 q139 0 241.5 -67t102.5 -169q0 -91 -50.5 -142.5t-137.5 -51.5q-68 0 -116 41t-48 108q0 39 19 72t38 58.5t19 47.5q0 29 -18 45.5t-48 16.5q-18 0 -33 -5t-25 -17t-17.5 -23.5t-12 -33.5t-7 -37.5t-3.5 -44.5t-1 -45.5t0.5 -50t0.5 -48.5v-1027q0 -63 -1 -96.5t-7 -91.5 t-18.5 -98t-37.5 -90.5t-61 -94.5q-154 -190 -391 -190q-139 0 -241.5 67t-102.5 169zM-20 -319q0 -75 69 -129t150 -62q-27 24 -27 61q0 20 19.5 46.5t39 59.5t19.5 69q0 46 -34 77t-89 31q-69 0 -108 -38.5t-39 -114.5zM377 -510q26 5 64 19t100 57t106 102 q64 84 87.5 180t23.5 256v1125q0 175 43 205q-26 -4 -64.5 -19t-100.5 -58t-106 -102q-64 -84 -87 -179.5t-23 -256.5v-1124q0 -175 -43 -205zM928 1198q0 -46 34 -77t89 -31q69 0 108 38.5t39 114.5q0 75 -69 129t-150 62q27 -24 27 -62q0 -20 -19.5 -46.5t-39 -59 t-19.5 -68.5z" />
<glyph unicode="&#x2260;" horiz-adv-x="1357" d="M154 242v211h473l73 129h-546v211h669l133 231h48l-134 -231h334v-211h-456l-74 -129h530v-211h-651l-137 -242h-47l137 242h-352zM195 283h968v129h-968v-129zM195 623h968v129h-968v-129z" />
<glyph unicode="&#x2264;" horiz-adv-x="1239" d="M154 537v151l972 340v-215l-573 -195l-18 -6l18 -6l573 -194v-217zM193 0v43h933v-43h-933zM193 565l897 -313v131l-672 229l672 230v131l-897 -314v-94z" />
<glyph unicode="&#x2265;" horiz-adv-x="1239" d="M113 0v43h934v-43h-934zM113 195v217l573 194l19 6q-7 0 -19 6l-573 195v215l972 -340v-151zM150 252l897 313v94l-897 314v-131l671 -230l-671 -229v-131z" />
<glyph unicode="&#x25fc;" horiz-adv-x="1024" d="M0 0v1024h1024v-1024h-1024z" />
<glyph unicode="&#xf8ff;" horiz-adv-x="0" />
</font>
</defs>
</svg>
