<?xml version="1.0" standalone="no"?>
<!DOCTYPE svg PUBLIC "-//W3C//DTD SVG 1.1//EN" "http://www.w3.org/Graphics/SVG/1.1/DTD/svg11.dtd" >
<svg xmlns="http://www.w3.org/2000/svg" xmlns:xlink="http://www.w3.org/1999/xlink" version="1.1">
<metadata></metadata>
<defs>
<font id="closedheavy" horiz-adv-x="647" >
<font-face units-per-em="2048" ascent="1536" descent="-512" />
<missing-glyph horiz-adv-x="430" />
<glyph unicode="&#xfb01;" horiz-adv-x="645" d="M12 0v1360l156 151h465v-381h-299v82h-23v-106h322v-1106h-299v709h-23v-709h-299z" />
<glyph unicode="&#xfb02;" horiz-adv-x="645" d="M12 0v1360l156 151h223v-381h-80v-22h103v403h219v-1511h-299v709h-23v-709h-299z" />
<glyph horiz-adv-x="0" />
<glyph horiz-adv-x="682" />
<glyph unicode=" "  horiz-adv-x="430" />
<glyph unicode="&#x09;" horiz-adv-x="430" />
<glyph unicode="&#xa0;" horiz-adv-x="430" />
<glyph unicode="!" horiz-adv-x="323" d="M12 0v541h299v-541h-299zM12 565v946h299v-946h-299z" />
<glyph unicode="&#x22;" horiz-adv-x="665" d="M12 860v651h307v-802h-151zM346 709v802h307v-651l-155 -151h-152z" />
<glyph unicode="#" horiz-adv-x="802" d="M12 0v291h156v24h-156v277h156v26h-156v277h156v25h-156v276h156v25h-156v290h299v-317h181v317h299v-290h-156v-25h156v-276h-156v-25h156v-277h-156v-26h156v-277h-156v-24h156v-291h-299v315h-181v-315h-299zM311 592h181v330h-181v-330zM338 0v291h129v-291h-129z M338 618v277h129v-277h-129zM338 1221v290h129v-290h-129z" />
<glyph unicode="$" d="M12 305v291h299v-291h25v316h-324v591l156 152v152h311v-152l156 -152v-288h-299v288h-27v-315h326v-592l-156 -151v-152h-311v152z" />
<glyph unicode="%" d="M12 0v1047h324v464h299v-1046h-324v-465h-299zM12 1071v440h299v-440h-299zM150 1214h24v152h-24v-152zM336 0v440h299v-440h-299zM473 143h25v152h-25v-152z" />
<glyph unicode="&#x26;" d="M12 152v604h156l-156 151v457l154 147h317l152 -147v-457l-156 -139v-25h156v-278h-156v-25h156v-288l-154 -152h-313zM311 301h25v301h-25v-301zM311 915h25v304h-25v-304z" />
<glyph unicode="'" horiz-adv-x="487" d="M12 860v651h463v-651l-156 -151h-151z" />
<glyph unicode="(" horiz-adv-x="323" d="M12 152v1206l154 151h145v-178h-145v-24h145v-1098h-145v-25h145v-184h-145z" />
<glyph unicode=")" horiz-adv-x="323" d="M12 0v184h146v25h-146v1098h146v24h-146v178h146l153 -151v-1206l-153 -152h-146z" />
<glyph unicode="*" d="M12 709v245h156v27h-156v258h156v27h-156v245h144v-106l98 -98l18 16l-92 92v96h287v-96l-90 -92l18 -16l99 98v106h141v-245h-156v-27h156v-258h-156v-27h156v-245h-141v106l-99 98l-18 -16l90 -92v-96h-287v96l92 92l-18 16l-98 -98v-106h-144z" />
<glyph unicode="+" horiz-adv-x="782" d="M12 381v344h221v381h312v-381h225v-344h-225v-381h-312v381h-221z" />
<glyph unicode="," horiz-adv-x="323" d="M12 0v152h146v24h-146v365h299v-389l-153 -152h-146z" />
<glyph unicode="-" horiz-adv-x="487" d="M12 360v388h463v-388h-463z" />
<glyph unicode="." horiz-adv-x="323" d="M12 0v541h299v-541h-299z" />
<glyph unicode="/" horiz-adv-x="483" d="M12 0v797l160 159v555h299v-782l-160 -160v-569h-299z" />
<glyph unicode="0" d="M12 0v1511h623v-1511h-623zM311 453h25v602h-25v-602z" />
<glyph unicode="1" horiz-adv-x="411" d="M12 1071v440h387v-1511h-311v1071h-76z" />
<glyph unicode="2" d="M12 0v895h324v176h-25v-151h-299v440l156 151h311l156 -151v-895h-299v-25h299v-440h-623z" />
<glyph unicode="3" d="M12 152v436h299v-148h25v174h-324v281h324v176h-25v-151h-299v440l156 151h311l156 -151v-1208l-156 -152h-311z" />
<glyph unicode="4" d="M12 152v1208l156 151h467v-895h-156v-24h156v-440h-156v-152h-311v152h-156zM311 592h25v479h-25v-479z" />
<glyph unicode="5" d="M12 152v436h299v-139h25v165h-324v897h623v-440h-324v-24h324v-895l-154 -152h-313z" />
<glyph unicode="6" d="M12 152v1208l156 151h311l156 -151v-440h-299v290h-25v-315h324v-743l-156 -152h-311zM311 301h25v301h-25v-301z" />
<glyph unicode="7" d="M12 920v591h623v-755l-154 -150v-606h-313v756l168 164v292h-25v-292h-299z" />
<glyph unicode="8" d="M12 152v454l154 150l-154 151v457l154 147h315l154 -147v-457l-156 -151l156 -152v-452l-156 -152h-311zM311 295h25v307h-25v-307zM311 915h25v304h-25v-304z" />
<glyph unicode="9" d="M12 152v440h299v-297h25v323h-174l-150 154v588l156 151h311l156 -151v-1208l-156 -152h-311zM311 909h25v303h-25v-303z" />
<glyph unicode=":" horiz-adv-x="323" d="M12 0v541h299v-541h-299zM12 565v541h299v-541h-299z" />
<glyph unicode=";" horiz-adv-x="323" d="M12 0v152h146v24h-146v365h299v-389l-153 -152h-146zM12 565v541h299v-541h-299z" />
<glyph unicode="&#x3c;" horiz-adv-x="483" d="M12 160v786l160 160h299v-393l-160 -160l160 -160v-393h-299z" />
<glyph unicode="=" d="M12 156v385h623v-385h-623zM12 565v385h623v-385h-623z" />
<glyph unicode="&#x3e;" horiz-adv-x="483" d="M12 0v393l160 160l-160 160v393h299l160 -160v-786l-160 -160h-299z" />
<glyph unicode="?" d="M12 977v385l156 149h313l154 -149v-531l-154 -147v-119h-299v387h156v260h-27v-235h-299zM182 0v541h299v-541h-299z" />
<glyph unicode="@" horiz-adv-x="958" d="M12 152v1208l156 151h623l155 -155v-1356h-143v1212h-490l-157 -153v-604l151 -160h182l158 166l-16 16l-152 -155h-160l-139 143v584l144 139h454v-1051l-143 -137h-469zM467 612h25v285h-25v-285z" />
<glyph unicode="A" d="M12 0v1360l156 151h311l156 -151v-1360h-299v440h-25v-440h-299zM311 756h25v315h-25v-315z" />
<glyph unicode="B" d="M12 0v1511h467l156 -149v-594h-156v-25h156v-593l-156 -150h-467zM311 301h25v303h-25v-303zM311 907h25v301h-25v-301z" />
<glyph unicode="C" d="M12 152v1208l154 151h313l156 -151v-592h-299v303h-25v-631h25v303h299v-591l-156 -152h-313z" />
<glyph unicode="D" d="M12 0v1511h467l156 -151v-1208l-156 -152h-467zM311 440h25v631h-25v-631z" />
<glyph unicode="E" d="M12 0v1511h623v-440h-324v-24h324v-582h-324v-25h324v-440h-623z" />
<glyph unicode="F" d="M12 0v1511h623v-440h-326v-24h326v-582h-324v-465h-299z" />
<glyph unicode="G" d="M12 152v1208l156 151h311l156 -151v-592h-299v303h-25v-303h-155v-328h155v-139h25v164h-156v278h455v-591l-156 -152h-311z" />
<glyph unicode="H" d="M12 0v1511h299v-440h25v440h299v-1511h-299v614h-25v-614h-299z" />
<glyph unicode="I" horiz-adv-x="323" d="M12 0v1511h299v-1511h-299z" />
<glyph unicode="J" d="M12 152v593h299v-290h25v1056h299v-1359l-156 -152h-311z" />
<glyph unicode="K" d="M12 0v1511h299v-440h25v440h299v-743h-227v-25h227v-743h-299v440h-25v-440h-299z" />
<glyph unicode="L" horiz-adv-x="491" d="M12 0v1511h299v-1071h168v-440h-467z" />
<glyph unicode="M" horiz-adv-x="958" d="M12 0v1511h312l155 -151l156 151h311v-1511h-299v1071h-24v-1071h-287v1071h-25v-1071h-299z" />
<glyph unicode="N" d="M12 0v1511h156l143 -139v-313l158 -158l18 19l-151 151v440h299v-1511h-156l-143 137v316l-160 159l-18 -18l153 -154v-440h-299z" />
<glyph unicode="O" d="M12 150v1210l156 151h311l156 -151v-1208l-156 -152h-311zM311 440h25v631h-25v-631z" />
<glyph unicode="P" d="M12 0v1511h469l154 -149v-606l-154 -152h-170v-604h-299zM311 909h25v301h-25v-301z" />
<glyph unicode="Q" d="M12 150v1210l158 151h309l156 -151v-1360l-154 152l-155 -152h-158zM311 604l181 -180l16 16l-172 172v459h-25v-467z" />
<glyph unicode="R" d="M12 0v1511h467l156 -151v-655h-156v-25h156v-680h-299v440h-25v-440h-299zM311 907h25v301h-25v-301z" />
<glyph unicode="S" d="M12 152v438h299v-287h25v311h-324v748l156 149h311l156 -149v-442h-299v290h-25v-315h324v-743l-156 -152h-311z" />
<glyph unicode="T" d="M12 1071v440h623v-440h-156v-1071h-311v1071h-156z" />
<glyph unicode="U" d="M12 152v1359h299v-1058h25v1058h299v-1359l-154 -152h-313z" />
<glyph unicode="V" d="M12 303v1208h299v-1058h25v1058h299v-1208l-311 -303z" />
<glyph unicode="W" horiz-adv-x="958" d="M12 303v1208h299v-1058h25v1058h287v-1056h24v1056h299v-1208l-311 -303l-156 152l-155 -152z" />
<glyph unicode="X" d="M12 0v745h154v25h-154v741h158l141 -139v-313h25v313l141 139h158v-741h-158v-25h158v-745h-158l-141 139v316h-25v-314l-143 -141h-156z" />
<glyph unicode="Y" d="M12 758v753h299v-602h25v602h299v-753l-162 -158v-600h-299v600z" />
<glyph unicode="Z" d="M12 0v895l176 176h-176v440h623v-882l-189 -189h189v-440h-623z" />
<glyph unicode="[" horiz-adv-x="323" d="M12 0v1511h299v-178h-145v-24h145v-1100h-145v-25h145v-184h-299z" />
<glyph unicode="\" horiz-adv-x="483" d="M12 729v782h299v-555l160 -159v-797h-299v569z" />
<glyph unicode="]" horiz-adv-x="323" d="M12 0v184h146v25h-146v1098h146v24h-146v178h299v-1509h-299z" />
<glyph unicode="^" d="M12 709v512l312 303l311 -303v-512h-299v503h-25v-503h-299z" />
<glyph unicode="`" horiz-adv-x="378" d="M12 1298v213h199l156 -151v-199h-213z" />
<glyph unicode="a" d="M12 0v684h324v25h-324v397h467l156 -152v-954h-299v113l-119 -113h-205zM311 295h25v194h-25v-194z" />
<glyph unicode="b" d="M12 0v1511h299v-405h205l119 -113v-993h-205l-119 113v-113h-299zM311 295h25v516h-25v-516z" />
<glyph unicode="c" d="M12 152v802l154 152h313l156 -152v-387h-299v244h-25v-516h25v248h299v-391l-156 -152h-313z" />
<glyph unicode="d" d="M12 0v1106h205l119 -113v518h299v-1511h-299v113l-119 -113h-205zM311 295h25v516h-25v-516z" />
<glyph unicode="e" d="M12 152v802l154 152h313l156 -152v-469h-324v-190h25v166h299v-309l-156 -152h-313zM311 668h25v143h-25v-143z" />
<glyph unicode="f" horiz-adv-x="403" d="M12 0v1360l156 151h223v-381h-80v-24h80v-397h-80v-709h-299z" />
<glyph unicode="g" d="M12 0v336h324v24h-324v746h467l156 -152v-802l-156 -152h-467zM311 655h25v156h-25v-156z" />
<glyph unicode="h" d="M12 0v1511h299v-518l119 113h205v-1106h-299v811h-25v-811h-299z" />
<glyph unicode="i" horiz-adv-x="323" d="M12 0v1106h299v-1106h-299zM12 1130v381h299v-381h-299z" />
<glyph unicode="j" horiz-adv-x="323" d="M12 0v336h144v24h-144v746h299v-954l-155 -152h-144zM12 1130v381h299v-381h-299z" />
<glyph unicode="k" d="M12 0v1511h299v-700h25v295h299v-541h-227v-24h227v-541h-299v295h-25v-295h-299z" />
<glyph unicode="l" horiz-adv-x="323" d="M12 0v1360l156 151h143v-1511h-299z" />
<glyph unicode="m" horiz-adv-x="958" d="M12 0v1106h299v-152l156 152h324l155 -152v-954h-299v709h-24v-709h-287v709h-25v-709h-299z" />
<glyph unicode="n" d="M12 0v1106h299v-113l119 113h205v-1106h-299v811h-25v-811h-299z" />
<glyph unicode="o" d="M12 150v804l156 152h311l156 -152v-802l-156 -152h-311zM311 295h25v516h-25v-516z" />
<glyph unicode="p" d="M12 0v1106h299v-113l119 113h205v-633l-119 -113h-205v-360h-299zM311 655h25v156h-25v-156z" />
<glyph unicode="q" d="M12 473v633h205l119 -113v113h299v-1106h-299v360h-205zM311 655h25v156h-25v-156z" />
<glyph unicode="r" d="M12 0v1106h299v-107h25v107h299v-492h-299v95h-25v-709h-299z" />
<glyph unicode="s" d="M12 0v336h299v24h-299v596l156 150h467v-397h-299v-25h299v-532l-156 -152h-467z" />
<glyph unicode="t" horiz-adv-x="403" d="M12 152v532h80v25h-80v397h80v24h-80v381h299v-405h80v-397h-80v-709h-143z" />
<glyph unicode="u" d="M12 0v1106h299v-811h25v811h299v-1106h-299v113l-119 -113h-205z" />
<glyph unicode="v" d="M12 303v803h299v-653h25v653h299v-803l-311 -303z" />
<glyph unicode="w" horiz-adv-x="958" d="M12 303v803h299v-653h25v653h287v-651h24v651h299v-803l-311 -303l-156 152l-155 -152z" />
<glyph unicode="x" d="M12 0v524h154v25h-154v557h299v-268h25v268h299v-557h-158v-25h158v-524h-299v270h-25v-270h-299z" />
<glyph unicode="y" d="M12 0v336h312v24h-312v746h299v-492h25v492h299v-954l-156 -152h-467z" />
<glyph unicode="z" d="M12 0v532l176 177h-176v397h623v-557l-189 -189h189v-360h-623z" />
<glyph unicode="{" horiz-adv-x="477" d="M12 410v694l154 151v107l153 151h146v-749h-146v-25h146v-739h-146l-153 152v106z" />
<glyph unicode="|" horiz-adv-x="323" d="M12 0v1509h299v-1509h-299z" />
<glyph unicode="}" horiz-adv-x="477" d="M12 0v739h146v25h-146v747h146l153 -151v-107l154 -151v-692l-154 -152v-106l-153 -152h-146z" />
<glyph unicode="~" horiz-adv-x="860" d="M12 0v1106h549v-801h25v801h262v-1106h-549v803h-25v-803h-262z" />
<glyph unicode="&#xa2;" d="M12 276v678l154 152v106h313v-106l156 -152v-387h-299v244h-25v-516h25v248h299v-267l-156 -151v-125h-313v125z" />
<glyph unicode="&#xa3;" d="M12 0v440h58v25h-58v430h58v25h-58v440l156 151h311l156 -151v-440h-299v292h-25v-317h324v-430h-324v-25h324v-440h-623z" />
<glyph unicode="&#xa5;" d="M12 25v311h162v24h-162v363l162 -158v35l-162 158v753h299v-602h25v602h299v-753l-162 -158v-35l162 158v-363h-162v-24h162v-311h-162v-25h-299v25h-162z" />
<glyph unicode="&#xa6;" horiz-adv-x="323" d="M12 0v743h299v-743h-299zM12 768v743h299v-743h-299z" />
<glyph unicode="&#xa7;" d="M12 152v288l148 -143h151v-98h25v125h-170l-154 151v883l156 151h311l156 -151v-291l-148 145h-151v99h-25v-125h168l156 -152v-882l-156 -152h-311zM311 608h25v279h-25v-279z" />
<glyph unicode="&#xa8;" horiz-adv-x="487" d="M12 1071v440h219v-440h-219zM256 1071v440h219v-440h-219z" />
<glyph unicode="&#xa9;" horiz-adv-x="921" d="M12 150v1210l164 151h578l155 -151v-1208l-155 -152h-578zM287 152h348v1206h-348v-1206zM311 174v1159h299v-565h-135v303h-24v-631h24v303h135v-569h-299z" />
<glyph unicode="&#xab;" horiz-adv-x="813" d="M12 352v355l160 159h299l-154 -153v-367l154 -153h-299zM342 352v355l160 159h299v-157l-129 -129v-62l129 -129v-196h-299z" />
<glyph unicode="&#xad;" horiz-adv-x="487" d="M12 360v388h463v-388h-463z" />
<glyph unicode="&#xae;" horiz-adv-x="921" d="M12 150v1210l164 151h578l155 -151v-1208l-155 -152h-578zM287 152h348v1206h-348v-1206zM311 174v1159h299v-553h-155v-24h155v-582h-133v436h-24v-436h-142zM453 911h24v226h-24v-226z" />
<glyph unicode="&#xb0;" horiz-adv-x="471" d="M12 1130v259l101 122h235l111 -122v-259l-111 -122h-235zM223 1130h25v259h-25v-259z" />
<glyph unicode="&#xb1;" horiz-adv-x="782" d="M12 0v344h758v-344h-758zM12 565v344h221v197h312v-197h225v-344h-225v-194h-312v194h-221z" />
<glyph unicode="&#xb2;" horiz-adv-x="323" d="M12 1008v256h160v125h-25v-101h-135v223h299v-337h-164v-25h164v-141h-299z" />
<glyph unicode="&#xb3;" horiz-adv-x="323" d="M12 1008v159h164v25h-164v139h164v25h-164v155h299v-503h-299z" />
<glyph unicode="&#xb4;" horiz-adv-x="378" d="M12 1161v199l156 151h199v-213l-142 -137h-213z" />
<glyph unicode="&#xb5;" d="M12 0v1106h299v-811h25v811h299v-1106h-154l-145 147h-25v-147h-299z" />
<glyph unicode="&#xb6;" horiz-adv-x="808" d="M12 756v606l154 149h631v-1511h-219v1071h-25v-1071h-217v604h-170z" />
<glyph unicode="&#xb9;" horiz-adv-x="215" d="M12 1008v503h191v-503h-191z" />
<glyph unicode="&#xbb;" horiz-adv-x="813" d="M12 193v196l129 129v62l-129 129v157h299l160 -159v-355l-160 -159h-299zM342 193l154 153v367l-154 153h299l160 -159v-355l-160 -159h-299z" />
<glyph unicode="&#xbc;" d="M12 0v983h215v528h408v-983h-324v-528h-299zM12 1008v503h191v-503h-191zM336 39v465h299v-299h-49v-25h49v-141h-49v-39h-94v39h-156zM473 180h25v197h-25v-197z" />
<glyph unicode="&#xbd;" d="M12 0v983h215v528h408v-983h-324v-528h-299zM12 1008v503h191v-503h-191zM336 0v256h160v125h-25v-100h-135v223h299v-338h-164v-25h164v-141h-299z" />
<glyph unicode="&#xbe;" d="M12 0v983h324v528h299v-983h-324v-528h-299zM12 1008v159h164v25h-164v139h164v25h-164v155h299v-503h-299zM336 39v465h299v-299h-49v-25h49v-141h-49v-39h-94v39h-156zM473 180h25v197h-25v-197z" />
<glyph unicode="&#xc0;" d="M12 0v1360l156 151h283l-275 -274h37l270 270l152 -147v-1360h-299v440h-25v-440h-299zM311 756h25v315h-25v-315z" />
<glyph unicode="&#xc1;" d="M12 0v1360l152 147l270 -270h37l-274 274h282l156 -151v-1360h-299v440h-25v-440h-299zM311 756h25v315h-25v-315z" />
<glyph unicode="&#xc2;" d="M12 0v1067l312 307l311 -307v-1067h-299v440h-25v-440h-299zM12 1102v258l156 151h311l156 -151v-260l-311 307zM311 756h25v315h-25v-315z" />
<glyph unicode="&#xc3;" d="M12 0v1212h623v-1212h-299v440h-25v-440h-299zM12 1237v123l156 151h250v-131h24v131h37l156 -151v-123h-406v143h-24v-143h-193zM311 756h25v315h-25v-315z" />
<glyph unicode="&#xc4;" d="M12 0v1212h623v-1212h-299v440h-25v-440h-299zM12 1237v123l156 151h143v-274h-299zM311 756h25v315h-25v-315zM336 1237v274h143l156 -151v-123h-299z" />
<glyph unicode="&#xc5;" d="M12 0v1360l156 151v-299h311v299l156 -151v-1360h-299v440h-25v-440h-299zM193 1237v274h262v-274h-262zM311 756h25v315h-25v-315zM311 1307h25v137h-25v-137z" />
<glyph unicode="&#xc6;" horiz-adv-x="970" d="M12 0v1360l156 151h311l156 -151v151h323v-440h-323v-24h323v-582h-323v-25h323v-440h-622v440h-25v-440h-299zM311 756h25v315h-25v-315z" />
<glyph unicode="&#xc7;" d="M12 408v952l154 151h313l156 -151v-490h-299v304h-25v-631h25v303h299v-438l-156 -152h-145v-23h145v-233h-313v106h145v23h-145v127z" />
<glyph unicode="&#xc8;" d="M12 0v1511h391l-274 -274h37l274 274h195v-440h-324v-24h324v-582h-324v-25h324v-440h-623z" />
<glyph unicode="&#xc9;" d="M12 0v1511h240l274 -274h37l-274 274h346v-440h-324v-24h324v-582h-324v-25h324v-440h-623z" />
<glyph unicode="&#xca;" d="M12 0v1071l312 307l311 -307h-324v-24h324v-582h-324v-25h324v-440h-623zM12 1106v405h623v-407l-311 307z" />
<glyph unicode="&#xcb;" d="M12 0v1212h623v-141h-324v-24h324v-582h-324v-25h324v-440h-623zM12 1237v274h303v-274h-303zM340 1237v274h295v-274h-295z" />
<glyph unicode="&#xcc;" horiz-adv-x="323" d="M12 0v1511l152 -151h37l-152 151h262v-1511h-299z" />
<glyph unicode="&#xcd;" horiz-adv-x="323" d="M12 0v1511h262l-151 -151h37l151 151v-1511h-299z" />
<glyph unicode="&#xce;" horiz-adv-x="323" d="M12 0v1235l152 143l147 -143v-1235h-299zM12 1264v188l62 59h176l61 -59v-188l-147 147z" />
<glyph unicode="&#xcf;" horiz-adv-x="323" d="M12 0v1212h299v-1212h-299zM12 1237v274h138v-274h-138zM174 1237v274h137v-274h-137z" />
<glyph unicode="&#xd0;" d="M12 0v551h76v24h-76v361h76v25h-76v550h467l156 -151v-1208l-156 -152h-467zM236 551h75v-111h25v631h-25v-110h-75v-25h75v-361h-75v-24z" />
<glyph unicode="&#xd1;" d="M12 0v1212h299v-153l158 -158l18 19l-151 151v141h299v-1212h-156l-143 137v316l-160 159l-18 -18l153 -154v-440h-299zM12 1237v274h406v-131h24v131h193v-274h-406v143h-24v-143h-193z" />
<glyph unicode="&#xd2;" d="M12 150v1210l156 151l274 -274h35l-274 274h276l156 -151v-1208l-156 -152h-311zM311 440h25v631h-25v-631z" />
<glyph unicode="&#xd3;" d="M12 152v1208l156 151h276l-274 -274h35l274 274l156 -151v-1210l-156 -150h-311zM311 440h25v631h-25v-631z" />
<glyph unicode="&#xd4;" d="M12 152v919l312 307l311 -307v-921l-156 -150h-311zM12 1106v254l156 151h311l156 -151v-256l-311 307zM311 440h25v631h-25v-631z" />
<glyph unicode="&#xd5;" d="M12 150v1062h623v-1060l-156 -152h-311zM12 1237v123l156 151h250v-131h24v131h37l156 -151v-123h-406v143h-24v-143h-193zM311 440h25v631h-25v-631z" />
<glyph unicode="&#xd6;" d="M12 150v1062h623v-1060l-156 -152h-311zM12 1237v123l156 151h147v-274h-303zM311 440h25v631h-25v-631zM340 1237v274h139l156 -151v-123h-295z" />
<glyph unicode="&#xd7;" horiz-adv-x="782" d="M12 0v393l160 160l-160 160v393h219l160 -160l160 160h219v-393l-160 -160l160 -160v-393h-219l-160 160l-160 -160h-219z" />
<glyph unicode="&#xd8;" d="M12 152l146 139l-19 18l-127 -123v1174l156 151h274l-125 -122l19 -19l143 141l156 -151l-146 -139l19 -19l127 123v-1175l-156 -150h-274l125 123l-19 18l-143 -141zM311 440h25v631h-25v-631z" />
<glyph unicode="&#xd9;" d="M12 152v1359l299 -299v-759h25v759h299v-1060l-154 -152h-313zM51 1511h305l279 -274h-309z" />
<glyph unicode="&#xda;" d="M12 152v1060h299v-759h25v759l299 299v-1359l-156 -152h-313zM12 1237l279 274h305l-274 -274h-310z" />
<glyph unicode="&#xdb;" d="M12 152v919l299 295v-913h25v913l299 -295v-919l-154 -152h-313zM12 1106v405h623v-407l-311 307z" />
<glyph unicode="&#xdc;" d="M12 152v1060h299v-759h25v759h299v-1060l-154 -152h-313zM12 1237v274h303v-274h-303zM340 1237v274h295v-274h-295z" />
<glyph unicode="&#xdd;" d="M12 758v454h299v-303h25v303l299 299v-753l-162 -158v-600h-299v600zM12 1237h310l274 274h-305z" />
<glyph unicode="&#xde;" d="M12 0v1511h299v-202h205l119 -113v-881l-119 -112h-205v-203h-299zM311 498h25v516h-25v-516z" />
<glyph unicode="&#xdf;" d="M12 0v1362l156 149h311l156 -149v-469l-156 -150l156 -149v-444l-156 -150h-143v604h-25v-604h-299zM311 907h25v301h-25v-301z" />
<glyph unicode="&#xe0;" d="M12 0v684h324v25h-324v696l291 -299h332v-1106h-299v113l-119 -113h-205zM47 1405h309l273 -275h-310zM311 295h25v194h-25v-194z" />
<glyph unicode="&#xe1;" d="M12 0v684h324v25h-324v397h332l291 299v-1405h-299v113l-119 -113h-205zM18 1130h310l272 275h-309zM311 295h25v194h-25v-194z" />
<glyph unicode="&#xe2;" d="M12 0v684h324v25h-324v252l312 307l311 -307v-961h-299v113l-119 -113h-205zM12 995v258l156 152h311l156 -152v-260l-311 307zM311 295h25v194h-25v-194z" />
<glyph unicode="&#xe3;" d="M12 0v684h324v25h-324v397h623v-1106h-299v113l-119 -113h-205zM12 1130v123l156 152h250v-131h24v131h37l156 -152v-123h-406v144h-24v-144h-193zM311 295h25v194h-25v-194z" />
<glyph unicode="&#xe4;" d="M12 0v684h324v25h-324v397h623v-1106h-299v113l-119 -113h-205zM12 1130v275h303v-275h-303zM311 295h25v194h-25v-194zM340 1130v275h295v-275h-295z" />
<glyph unicode="&#xe5;" d="M12 0v684h324v25h-324v696h156v-299h311v299h156v-1405h-299v113l-119 -113h-205zM193 1130v275h262v-275h-262zM311 295h25v194h-25v-194zM311 1200h25v137h-25v-137z" />
<glyph unicode="&#xe6;" horiz-adv-x="970" d="M12 0v684h324v25h-324v397h303l156 -152l154 152h178l155 -152v-469h-323v-190h24v166h299v-309l-155 -152h-178l-138 133l-135 -133h-340zM311 295h25v194h-25v-194zM635 668h24v143h-24v-143z" />
<glyph unicode="&#xe7;" d="M12 408v546l154 152h313l156 -152v-260h-299v117h-25v-260h25v119h299v-262l-156 -152h-145v-23h145v-233h-313v106h145v23h-145v127z" />
<glyph unicode="&#xe8;" d="M12 152v1253l291 -299h332v-621h-324v-190h25v166h299v-309l-156 -152h-313zM47 1405l272 -275h310l-273 275h-309zM311 668h25v143h-25v-143z" />
<glyph unicode="&#xe9;" d="M12 152v954h332l291 299v-920h-324v-190h25v166h299v-309l-156 -152h-313zM18 1130h310l272 275h-309zM311 668h25v143h-25v-143z" />
<glyph unicode="&#xea;" d="M12 152v809l312 307l311 -307v-476h-324v-190h25v166h299v-309l-156 -152h-313zM12 995v258l156 152h311l156 -152v-260l-311 307zM311 668h25v143h-25v-143z" />
<glyph unicode="&#xeb;" d="M12 152v954h623v-621h-324v-190h25v166h299v-309l-156 -152h-313zM12 1130v275h303v-275h-303zM311 668h25v143h-25v-143zM340 1130v275h295v-275h-295z" />
<glyph unicode="&#xec;" horiz-adv-x="323" d="M12 0v1405l168 -168h37l-168 168h262v-1405h-299z" />
<glyph unicode="&#xed;" horiz-adv-x="323" d="M12 0v1405h262l-168 -168h37l168 168v-1405h-299z" />
<glyph unicode="&#xee;" horiz-adv-x="323" d="M12 0v1128l152 144l147 -144v-1128h-299zM12 1157v189l62 59h176l61 -59v-189l-147 148z" />
<glyph unicode="&#xef;" horiz-adv-x="323" d="M12 0v1106h299v-1106h-299zM12 1130v275h138v-275h-138zM174 1130v275h137v-275h-137z" />
<glyph unicode="&#xf0;" d="M12 152v954h324v24h-156l80 78l-18 19l-99 -97h-131v175l76 71l-18 19l-58 -56v172h172l-43 -41l19 -18l59 59h260l27 -26l-193 -182l19 -19l190 184l113 -108v-1208l-156 -152h-311zM311 301h25v533h-25v-533z" />
<glyph unicode="&#xf1;" d="M12 0v1106h299v-113l119 113h205v-1106h-299v811h-25v-811h-299zM12 1130v275h406v-131h24v131h193v-275h-406v144h-24v-144h-193z" />
<glyph unicode="&#xf2;" d="M12 150v1255l291 -299h332v-954l-156 -152h-311zM47 1405l272 -275h310l-273 275h-309zM311 295h25v516h-25v-516z" />
<glyph unicode="&#xf3;" d="M12 152v954h332l291 299v-1255l-156 -150h-311zM18 1130h310l272 275h-309zM311 295h25v516h-25v-516z" />
<glyph unicode="&#xf4;" d="M12 150v811l312 307l311 -307v-809l-156 -152h-311zM12 995v258l156 152h311l156 -152v-260l-311 307zM311 295h25v516h-25v-516z" />
<glyph unicode="&#xf5;" d="M12 150v956h623v-954l-156 -152h-311zM12 1130v123l156 152h250v-131h24v131h37l156 -152v-123h-406v144h-24v-144h-193zM311 295h25v516h-25v-516z" />
<glyph unicode="&#xf6;" d="M12 150v956h623v-954l-156 -152h-311zM12 1130v275h303v-275h-303zM311 295h25v516h-25v-516zM340 1130v275h295v-275h-295z" />
<glyph unicode="&#xf7;" horiz-adv-x="927" d="M12 295v514h289v-125h352v125h262v-514h-262v125h-352v-125h-289zM326 121v274h303v-274h-303zM326 709v280h303v-280h-303z" />
<glyph unicode="&#xf8;" d="M12 152l146 139l-19 18l-127 -123v768l156 152h274l-125 -123l19 -18l143 141l156 -152l-146 -139l19 -18l127 123v-770l-156 -150h-274l125 123l-19 18l-143 -141zM311 295h25v516h-25v-516z" />
<glyph unicode="&#xf9;" d="M12 0v1405l299 -299v-811h25v811h299v-1106h-299v113l-119 -113h-205zM47 1405l279 -275h303l-273 275h-309z" />
<glyph unicode="&#xfa;" d="M12 0v1106h299v-811h25v811l299 299v-1405h-299v113l-119 -113h-205zM18 1130h301l281 275h-309z" />
<glyph unicode="&#xfb;" d="M12 0v961l299 294v-960h25v960l299 -294v-961h-299v113l-119 -113h-205zM12 995v258l156 152h311l156 -152v-260l-311 307z" />
<glyph unicode="&#xfc;" d="M12 0v1106h299v-811h25v811h299v-1106h-299v113l-119 -113h-205zM12 1130v275h303v-275h-303zM340 1130v275h295v-275h-295z" />
<glyph unicode="&#xfd;" d="M12 0v336h312v24h-312v746h299v-492h25v492l299 299v-1253l-156 -152h-467zM18 1130h301l281 275h-309z" />
<glyph unicode="&#xfe;" d="M12 0v1511h299v-280l-135 -115l17 -16l137 112h186l119 -112v-684l-119 -113h-186l-137 113l-17 -17l135 -114v-285h-299zM311 598h25v320h-25v-320z" />
<glyph unicode="&#xff;" d="M12 0v336h312v24h-312v746h299v-492h25v492h299v-954l-156 -152h-467zM12 1130v275h303v-275h-303zM340 1130v275h295v-275h-295z" />
<glyph unicode="&#x131;" horiz-adv-x="323" d="M12 0v1106h299v-1106h-299z" />
<glyph unicode="&#x152;" horiz-adv-x="970" d="M12 150v1210l156 151h311l156 -151v151h323v-440h-323v-24h323v-582h-323v-25h323v-440h-323v152l-156 -152h-311zM311 440h25v631h-25v-631z" />
<glyph unicode="&#x153;" horiz-adv-x="970" d="M12 150v804l156 152h147l156 -152l154 152h178l155 -152v-469h-323v-190h24v166h299v-309l-155 -152h-178l-138 133l-135 -133h-184zM311 295h25v516h-25v-516zM635 668h24v143h-24v-143z" />
<glyph unicode="&#x160;" d="M12 152v329h299v-215h25v240h-324v721l150 -146h325l148 148v-520h-299v184h-25v-209h324v-532l-156 -152h-311zM12 1262v249l312 -305l311 305v-251l-158 -154h-303z" />
<glyph unicode="&#x161;" d="M12 0v336h299v24h-299v725l150 -145h325l148 147v-378h-299v-25h299v-532l-156 -152h-467zM12 1120v250l312 -305l311 307v-254l-158 -153h-303z" />
<glyph unicode="&#x178;" d="M12 758v454h299v-303h25v303h299v-454l-162 -158v-600h-299v600zM12 1237v274h299v-274h-299zM336 1237v274h299v-274h-299z" />
<glyph unicode="&#x17d;" d="M12 0v573l176 177h-176v477l150 -146h325l148 148v-680l-189 -189h189v-360h-623zM12 1262v249l312 -305l311 305v-251l-158 -154h-303z" />
<glyph unicode="&#x17e;" d="M12 0v532l176 177h-176v411l150 -145h325l148 147v-573l-189 -189h189v-360h-623zM12 1155v250l312 -305l311 305v-252l-158 -154h-303z" />
<glyph unicode="&#x192;" horiz-adv-x="483" d="M12 0v381h80v25h-80v700h80v254l156 151h223v-381h-80v-24h80v-700h-80v-254l-155 -152h-224z" />
<glyph unicode="&#x2c6;" d="M12 1100v260l156 151h311l156 -151v-262l-311 307z" />
<glyph unicode="&#x2c7;" horiz-adv-x="913" d="M12 1511h432v-288h25v288h432l-444 -440z" />
<glyph unicode="&#x2d8;" horiz-adv-x="487" d="M12 1223v288h219v-288h25v288h219v-288l-156 -152h-151z" />
<glyph unicode="&#x2d9;" horiz-adv-x="376" d="M12 1237v199l82 75h189l82 -75v-199l-82 -78h-189z" />
<glyph unicode="&#x2da;" horiz-adv-x="487" d="M12 1223v137l156 151h151l156 -151v-137l-156 -152h-151zM231 1223h25v137h-25v-137z" />
<glyph unicode="&#x2dc;" d="M12 1161v350h406v-186h24v186h193v-350h-406v164h-24v-164h-193z" />
<glyph unicode="&#x3c0;" d="M12 0v684h105v25h-105v397h623v-397h-105v-25h105v-684h-299v709h-25v-709h-299z" />
<glyph unicode="&#x2000;" horiz-adv-x="762" />
<glyph unicode="&#x2001;" horiz-adv-x="1524" />
<glyph unicode="&#x2002;" horiz-adv-x="762" />
<glyph unicode="&#x2003;" horiz-adv-x="1524" />
<glyph unicode="&#x2004;" horiz-adv-x="508" />
<glyph unicode="&#x2005;" horiz-adv-x="381" />
<glyph unicode="&#x2006;" horiz-adv-x="254" />
<glyph unicode="&#x2007;" horiz-adv-x="254" />
<glyph unicode="&#x2008;" horiz-adv-x="190" />
<glyph unicode="&#x2009;" horiz-adv-x="304" />
<glyph unicode="&#x200a;" horiz-adv-x="84" />
<glyph unicode="&#x2010;" horiz-adv-x="487" d="M12 360v388h463v-388h-463z" />
<glyph unicode="&#x2011;" horiz-adv-x="487" d="M12 360v388h463v-388h-463z" />
<glyph unicode="&#x2012;" horiz-adv-x="487" d="M12 360v388h463v-388h-463z" />
<glyph unicode="&#x2013;" horiz-adv-x="722" d="M12 360v388h699v-388h-699z" />
<glyph unicode="&#x2014;" horiz-adv-x="1050" d="M12 360v388h1026v-388h-1026z" />
<glyph unicode="&#x2018;" horiz-adv-x="323" d="M12 971v389l154 151h145v-151h-145v-25h145v-364h-299z" />
<glyph unicode="&#x2019;" horiz-adv-x="323" d="M12 971v151h146v25h-146v364h299v-389l-153 -151h-146z" />
<glyph unicode="&#x201a;" horiz-adv-x="323" d="M12 0v152h146v24h-146v365h299v-389l-153 -152h-146z" />
<glyph unicode="&#x201c;" d="M12 971v389l154 151h145v-151h-145v-25h145v-364h-299zM336 971v540h299v-151h-146v-25h146v-364h-299z" />
<glyph unicode="&#x201d;" d="M12 971v151h146v25h-146v364h299v-540h-299zM336 971v151h145v25h-145v364h299v-389l-154 -151h-145z" />
<glyph unicode="&#x201e;" d="M12 0v152h146v24h-146v365h299v-541h-299zM336 0v152h145v24h-145v365h299v-389l-154 -152h-145z" />
<glyph unicode="&#x2020;" horiz-adv-x="487" d="M12 360v994h76v157h311v-157h76v-994h-76v-360h-311v360h-76z" />
<glyph unicode="&#x2021;" horiz-adv-x="487" d="M12 121v602h76v25h-76v606h76v157h311v-157h76v-606h-76v-25h76v-602h-76v-121h-311v121h-76z" />
<glyph unicode="&#x2022;" horiz-adv-x="643" d="M12 352v355l160 159h299l160 -159v-355l-160 -159h-299z" />
<glyph unicode="&#x2026;" horiz-adv-x="970" d="M12 0v541h299v-541h-299zM336 0v541h299v-541h-299zM659 0v541h299v-541h-299z" />
<glyph unicode="&#x202f;" horiz-adv-x="304" />
<glyph unicode="&#x2030;" horiz-adv-x="970" d="M12 0v1047h324v464h622v-405h-323v-641h-324v-465h-299zM12 1071v440h299v-440h-299zM150 1214h24v152h-24v-152zM336 0v440h299v-440h-299zM473 143h25v152h-25v-152zM659 0v1081h299v-1081h-299zM797 156h24v757h-24v-757z" />
<glyph unicode="&#x2039;" horiz-adv-x="483" d="M12 352v355l160 159h299v-157l-129 -129v-62l129 -129v-196h-299z" />
<glyph unicode="&#x203a;" horiz-adv-x="483" d="M12 193v196l129 129v62l-129 129v157h299l160 -159v-355l-160 -159h-299z" />
<glyph unicode="&#x2044;" horiz-adv-x="802" d="M12 0v227l160 160v410l160 159v396l160 159h299v-227l-160 -160v-395l-160 -160v-409l-160 -160h-299z" />
<glyph unicode="&#x205f;" horiz-adv-x="381" />
<glyph unicode="&#x20ac;" d="M12 152v288h58v25h-58v278h58v25h-58v279h58v24h-58v289l154 151l469 2v-442h-324v-24h324v-279h-324v-25h324v-278h-324v-25h324v-440h-469z" />
<glyph unicode="&#x2122;" horiz-adv-x="1177" d="M12 1071v440h396v-440h-78v-362h-242v362h-76zM432 709v802h211l156 -151l155 151h211v-802h-229v362h-25v-362h-225v362h-24v-362h-230z" />
<glyph unicode="&#x2202;" d="M12 0v1186h324v24h-324v301h467l156 -151v-1208l-156 -152h-467zM311 301h25v592h-25v-592z" />
<glyph unicode="&#x2206;" d="M12 0v440l156 1071h311l156 -1071v-440h-623zM311 440h25v631h-25v-631z" />
<glyph unicode="&#x220f;" d="M12 0v1511h623v-1511h-299v1059h-25v-1059h-299z" />
<glyph unicode="&#x2211;" d="M12 0v606l162 164l-162 166v575h623v-299h-176l176 -176v-557l-176 -176h176v-303h-623z" />
<glyph unicode="&#x221e;" horiz-adv-x="980" d="M12 150v804l156 152h168l153 -152l156 152h168l156 -152v-802l-156 -152h-168l-156 150l-153 -150h-168zM311 295h25v516h-25v-516zM645 295h25v516h-25v-516z" />
<glyph unicode="&#x222b;" horiz-adv-x="323" d="M12 0v270h105v25h-105v684h156l-156 151v230l156 151h143v-274h-104v-25h104v-677h-155l155 -152v-231l-155 -152h-144z" />
<glyph unicode="&#x2260;" d="M12 156v385h166v24h-166v385h99l155 156h299l-155 -156h225v-385h-172v-24h172v-385h-74l-155 -156h-300l156 156h-250z" />
<glyph unicode="&#x2264;" horiz-adv-x="483" d="M12 0h459v344h-459v-344zM12 530v416l160 160h299v-188l-160 -160l160 -160v-227h-299z" />
<glyph unicode="&#x2265;" horiz-adv-x="483" d="M12 0h459v344h-459v-344zM12 371v227l160 160l-160 160v188h299l160 -160v-416l-160 -159h-299z" />
<glyph unicode="&#x25ca;" d="M12 700v111l156 700h311l156 -700v-111l-156 -700h-311zM311 440h25v631h-25v-631z" />
<glyph unicode="&#x25fc;" horiz-adv-x="1105" d="M0 0v1106h1106v-1106h-1106z" />
</font>
</defs>
</svg>
