<?xml version="1.0" standalone="no"?>
<!DOCTYPE svg PUBLIC "-//W3C//DTD SVG 1.1//EN" "http://www.w3.org/Graphics/SVG/1.1/DTD/svg11.dtd" >
<svg xmlns="http://www.w3.org/2000/svg" xmlns:xlink="http://www.w3.org/1999/xlink" version="1.1">
<metadata></metadata>
<defs>
<font id="flutterdimension" horiz-adv-x="710" >
<font-face units-per-em="2048" ascent="1536" descent="-512" />
<missing-glyph horiz-adv-x="870" />
<glyph unicode="&#xfb01;" horiz-adv-x="1437" d="M176 141v1196q0 63 60 88q215 99 215 101q32 16 73 4l647 -303q110 -54 152.5 -124t42.5 -167v-1182q0 -14 -10 -23.5t-23 -9.5q-12 0 -20 9.5t-8 23.5v45q0 44 -33 51q-13 3 -23 -7.5t-10 -24.5v-4q0 -14 -9.5 -23.5t-23.5 -9.5q-13 0 -22.5 9.5t-9.5 23.5v49 q0 40 -33 49q-13 3 -23 -8t-10 -25v-6q0 -14 -8 -23.5t-21 -9.5t-22.5 9.5t-9.5 23.5v907q0 98 -38 149t-116 81l-395 184v-221l481 -225q27 -15 12 -39q-5 -8 -17.5 -10.5t-23.5 3.5l-61 31q-12 6 -28 5.5t-25 -9.5t-5 -22.5t15 -18.5l2 -2q11 -5 14.5 -15.5t-2.5 -21.5 q-6 -10 -18.5 -13t-22.5 3l-57 31q-29 16 -55 0q-11 -7 -9.5 -21t13.5 -20l4 -2q11 -5 14 -17t-4 -24q-12 -18 -39 -6l-188 88l-2 -408q-2 -13 -11 -22t-22 -9t-21 9.5t-8 23.5v6q0 14 -10 25t-23 8q-32 -7 -32 -53v-45q0 -13 -9.5 -23t-23.5 -10t-23.5 10t-9.5 23v4 q0 14 -10 25t-23 8q-32 -7 -32 -50v-49q0 -13 -9.5 -22.5t-21.5 -9.5q-13 0 -22 9t-9 23z" />
<glyph unicode="&#xfb02;" horiz-adv-x="1857" d="M176 141v1196q0 63 60 88q215 99 215 101q32 16 73 4l693 -324q114 -45 114 -164v-1005q0 -35 19 -43l587 -275q33 -14 17 -47q-6 -9 -19.5 -11.5t-25.5 3.5l-76 35q-41 18 -61 -4q-9 -11 -5.5 -23t15.5 -18l12 -6q26 -13 12 -41q-17 -27 -45 -13l-80 39q-37 18 -57 -4 q-8 -11 -3.5 -24t17.5 -19l9 -4q12 -7 16 -19t-4 -26q-13 -21 -43 -8l-486 227q-69 31 -93.5 64t-24.5 96v936q0 96 -89 143q-2 1 -3 2l-422 197v-221l481 -225q25 -14 12 -39q-6 -8 -18 -10.5t-23 3.5l-76 37q-27 13 -40 -10q-6 -9 -2 -23t14 -18l2 -2q10 -4 13.5 -15.5 t-1.5 -21.5q-17 -24 -41 -10l-71 37q-10 7 -26.5 5t-23.5 -13q-6 -9 -2.5 -21t15.5 -18l4 -2q11 -5 14 -17t-4 -24q-14 -20 -39 -6l-188 88l-2 -408q-2 -13 -11 -22t-22 -9t-21 9.5t-8 23.5v10q0 14 -10 23.5t-23 9.5t-22.5 -9.5t-9.5 -23.5v-69q0 -13 -9.5 -23t-23.5 -10 t-23.5 10t-9.5 23v8q0 13 -9.5 23t-23.5 10q-13 0 -22.5 -9.5t-9.5 -23.5v-70q0 -13 -9.5 -22.5t-21.5 -9.5q-13 0 -22 9t-9 23z" />
<glyph horiz-adv-x="0" />
<glyph horiz-adv-x="682" />
<glyph unicode=" "  horiz-adv-x="870" />
<glyph unicode="&#x09;" horiz-adv-x="870" />
<glyph unicode="&#xa0;" horiz-adv-x="870" />
<glyph unicode="!" horiz-adv-x="733" d="M176 1180q-9 198 154 247q94 28 161.5 -16.5t65.5 -101.5l-29 -865q0 -14 -9 -23t-23 -9q-13 0 -21 9t-8 23v9q0 15 -12 25t-29 3q-25 -11 -25 -59v-37q0 -14 -9.5 -23.5t-22.5 -9.5t-23 10t-10 23v6q0 14 -11.5 24.5t-25.5 4.5q-29 -12 -29 -60v-34q0 -14 -8 -23.5 t-20 -9.5q-14 0 -23.5 9.5t-9.5 23.5zM209 102q0 28 7 42.5t26 23.5l245 115q15 8 28 0.5t13 -27.5v-322q0 -14 -9 -23t-23 -9q-13 0 -21 9t-8 23v84q0 14 -9.5 23.5t-23.5 9.5t-23.5 -9.5t-9.5 -23.5v-143q0 -14 -9.5 -23.5t-22.5 -9.5t-23 10t-10 23v82q0 13 -10 23 t-23 10t-23 -10t-10 -23v-141q0 -14 -8 -23.5t-20 -9.5q-14 0 -23.5 9.5t-9.5 23.5v286z" />
<glyph unicode="&#x22;" horiz-adv-x="1130" d="M174 670v534q0 28 7 42.5t26 23.5l250 116q17 8 29 1t12 -27v-561q0 -41 -33 -41q-13 0 -21 9.5t-8 23.5v83q0 16 -11 25.5t-24 7.5q-30 -3 -30 -39v-129q0 -40 -33 -43q-13 -1 -23 9t-10 24v84q0 13 -9.5 23.5t-23.5 9.5q-32 -3 -32 -41v-127q0 -37 -33 -41 q-33 -3 -33 33zM633 883v534q0 28 7 42.5t26 23.5l249 116q17 8 29 1t12 -27v-561q0 -41 -32 -41q-13 0 -21 9.5t-8 23.5v83q0 16 -11 25.5t-24 7.5q-14 -2 -22.5 -12t-8.5 -27v-129q0 -40 -32 -43q-13 -1 -23 9t-10 24v84q0 13 -9.5 23.5t-23.5 9.5q-33 -3 -33 -41v-127 q0 -37 -32 -41q-33 -3 -33 33z" />
<glyph unicode="#" horiz-adv-x="1536" d="M95.5 148q5.5 12 19.5 20l123 59q12 5 18 17t0 24q-6 15 -20 20t-23 -3l-45 -21q-28 -9 -45 17q-5 9 -0.5 22t16.5 19q244 111 250 114l51 328l-252 -119q-28 -14 -38 12q-6 9 -0.5 21.5t18.5 19.5l123 60q12 5 18 17t0 24q-6 15 -20 19.5t-23 -3.5l-45 -20 q-29 -10 -45 16q-5 9 0 22t17 19l280 129l68 430q1 15 14 25t25 8q14 -1 22 -14t6 -23l-14 -100q-3 -29 24 -35q11 -1 21.5 8.5t13.5 22.5l31 178q1 12 12.5 21t22.5 9q15 0 24 -9t7 -23l-64 -398q154 69 275 127l67 426q1 15 14 25t25 8q14 -1 22.5 -14t6.5 -23l-15 -100 q-3 -29 25 -35q11 -1 21.5 8.5t13.5 22.5l30 178q1 12 12.5 21.5t22.5 9.5q15 0 24 -9.5t7 -23.5l-63 -393l227 106q12 6 23.5 3t15.5 -15q6 -9 0.5 -21t-19.5 -20l-123 -59q-12 -5 -18 -17t0 -24q6 -15 20 -20t23 3l45 21q27 9 45 -19q5 -9 0.5 -21t-16.5 -18l-256 -118 l-51 -328l258 123q12 6 23 2.5t15 -15.5q6 -9 0.5 -21.5t-18.5 -19.5l-123 -59q-12 -5 -18 -17t0 -24q6 -15 20 -19.5t23 3.5l45 20q28 9 45 -18q5 -9 0 -21t-17 -18l-288 -133l-56 -363q-8 -41 -38 -37q-11 0 -17 10.5t-4 24.5l8 86q3 34 -24 37q-31 3 -39 -31l-29 -163 q-1 -13 -14 -24t-27 -11q-28 3 -24 37l51 335l-275 -129l-55 -358q-8 -41 -39 -37q-24 0 -20 35l8 86q3 34 -25 37q-31 3 -39 -31l-28 -164q-1 -13 -14 -24t-27 -11q-29 3 -25 37l51 332l-219 -104q-12 -6 -23.5 -3t-15.5 15q-6 9 -0.5 21zM602 535l275 127l51 329 q-56 -27 -149.5 -69.5t-125.5 -57.5z" />
<glyph unicode="$" horiz-adv-x="1220" d="M39 758q-52 319 270 469l242 112v254q0 14 9 23.5t22 9.5t20.5 -9.5t7.5 -23.5v-10q0 -15 8.5 -23t22.5 -4q27 9 27 50v47q0 14 9.5 23.5t22.5 9.5t22 -9.5t9 -23.5v-230l111 54q29 13 43 -9q8 -14 3.5 -26t-16.5 -19l-4 -2q-12 -6 -16.5 -17.5t2.5 -23.5q6 -11 24 -14 t33 6l76 39q26 13 47 -8q9 -9 5.5 -24t-15.5 -21l-8 -4q-12 -6 -15 -18.5t3 -24.5q8 -12 20.5 -16.5t24.5 1.5l86 45q12 5 25.5 1.5t19.5 -13.5q18 -36 -11 -49l-438 -205v-160l10 7q64 30 128.5 36t121 -13t101 -57.5t71.5 -102.5t29 -144q10 -335 -315 -485l-146 -68v-305 q0 -14 -9 -23.5t-22 -9.5t-22.5 9.5t-9.5 23.5v10q0 17 -6.5 26.5t-22.5 6.5q-29 -6 -29 -57v-45q0 -14 -8 -23.5t-20 -9.5q-13 0 -22 9.5t-9 23.5v280l-88 -41q-40 -15 -55 6q-6 14 -1 26t17 17l4 2q28 14 16 41q-14 27 -43 11l-94 -41q-12 -6 -25 -1.5t-18 15.5 q-6 14 -1.5 26.5t16.5 18.5l4 2q13 6 17.5 19t-1.5 26t-19.5 16t-25.5 -4l-100 -45q-15 -5 -27.5 -1t-17.5 14q-6 12 -1.5 23.5t17.5 17.5l426 200v172l-47 -20q-77 -37 -154.5 -31t-141.5 40t-109.5 99t-59.5 146zM381 846q4 -33 35 -47.5t63 0.5l72 32v160l-123 -57 q-55 -26 -47 -88zM731 438l78 37q40 19 57.5 50t10.5 69q-7 35 -39.5 42t-79.5 -15l-27 -13v-170z" />
<glyph unicode="%" horiz-adv-x="1505" d="M53 893q2 69 23.5 133.5t75.5 127t133 95.5q40 17 86 18t90.5 -15.5t80 -48t56 -87t18.5 -125.5q-1 -44 -14.5 -92.5t-40.5 -96t-64 -86t-91 -62t-115 -23.5q-35 0 -73.5 13.5t-78.5 41.5t-64.5 82t-21.5 125zM254 926q-6 -46 18 -75t62 -20q79 19 96 134q7 54 -24 84 t-72 10q-67 -33 -80 -133zM300.5 -55q-3.5 13 2.5 26l649 1465q6 13 19 20t24 2q13 -6 19.5 -20.5t1.5 -22.5l-39 -94q-10 -27 14 -39q10 -6 23 0.5t18 17.5l107 224q13 26 39 18q13 -3 18.5 -15.5t-0.5 -25.5l-651 -1470q-4 -13 -17.5 -17.5t-25.5 0.5q-12 3 -15 16t5 25 l34 78q5 10 0.5 23.5t-14.5 19.5q-13 6 -27 0.5t-20 -18.5l-98 -207q-6 -13 -22 -20.5t-28 -2.5q-13 4 -16.5 17zM889 528q2 51 15 100.5t38.5 99t71.5 91t106 66.5q40 17 86 18t90.5 -15.5t80 -48t56.5 -87t19 -125.5q-2 -56 -23.5 -117t-60.5 -116.5t-102.5 -91.5 t-139.5 -36q-35 0 -73.5 13.5t-78 41.5t-64 82t-21.5 125zM1090 561q-6 -46 17.5 -74.5t61.5 -19.5q80 19 97 133q7 54 -24.5 84t-72.5 10q-66 -32 -79 -133z" />
<glyph unicode="&#x26;" horiz-adv-x="1392" d="M100.5 355.5q-0.5 52.5 11 109.5t35.5 109.5t67 103t101 90.5q-42 13 -83 44.5t-64 82.5q-55 123 28 275t267 233q91 40 185 44t167.5 -22.5t124 -78.5t61.5 -119q44 -267 -233 -432l195 -148q47 118 47 207v80q0 31 26 31q12 0 18.5 -9t6.5 -20v-4q0 -11 6.5 -19.5 t17.5 -5.5q25 6 25 37v41q0 33 25 33q26 0 26 -31v-8q0 -11 5.5 -20.5t17.5 -6.5q22 6 22 43v31q0 33 27 33q13 0 20 -10t7 -23v-102q6 -217 -99 -426l262 -197q9 -8 11.5 -18.5t-4.5 -18.5q-12 -11 -24.5 -10t-19.5 8l-45 33q-10 8 -24.5 12t-28.5 -2q-11 -6 -12 -19t6 -16 l6 -4q21 -21 4 -43q-16 -13 -41 2l-45 41q-7 7 -18.5 10t-26.5 -6q-10 -6 -11 -17t7 -20l10 -10q8 -5 9 -15t-7 -18q-17 -17 -47 5l-108 77q-143 -170 -324 -235q-128 -44 -230 -39t-177 47t-118 96.5t-54 110.5q-10 51 -10.5 103.5zM379 385q2 -18 10.5 -36.5t28.5 -38.5 t48.5 -30.5t76.5 -7t106 26.5q92 36 166 117l-295 213q-157 -88 -141 -244zM446 1008q6 -33 39.5 -55t79.5 -21l43 24q50 30 80 67t37 61t6 44q-3 42 -52.5 55.5t-111.5 -12.5q-67 -28 -99.5 -65t-21.5 -98z" />
<glyph unicode="'" horiz-adv-x="671" d="M174 670v534q0 28 7 42.5t26 23.5l250 116q17 8 29 1t12 -27v-561q0 -41 -33 -41q-13 0 -21 9.5t-8 23.5v83q0 16 -11 25.5t-24 7.5q-30 -3 -30 -39v-129q0 -40 -33 -43q-13 -1 -23 9t-10 24v84q0 13 -9.5 23.5t-23.5 9.5q-32 -3 -32 -41v-127q0 -37 -33 -41 q-33 -3 -33 33z" />
<glyph unicode="(" horiz-adv-x="962" d="M148.5 622.5q-3.5 108.5 19 231t69 235.5t132 219t200.5 177q20 10 29 10.5t18 -8.5q15 -26 -8 -39q-30 -18 -12 -39q15 -18 41 8q27 27 55 37q29 12 41 -6q17 -23 -12 -39l-21 -16q-24 -24 2 -35q16 -8 43 12q41 28 62 39q35 18 51 2q12 -12 8.5 -25.5t-18.5 -21.5 q-43 -22 -85.5 -54t-99.5 -97.5t-99 -146.5t-71.5 -206.5t-29.5 -271.5q0 -117 49 -196.5t139 -104.5q32 -7 37 -27q3 -13 -3 -23.5t-17 -13.5q-16 -4 -54 2q-32 5 -34 -16q-2 -12 7.5 -22t26.5 -13q68 -11 134 23q12 7 27 5.5t22 -12.5q5 -12 1 -24.5t-14 -18.5 q-13 -13 -57 -26q-29 -7 -27 -27q3 -26 45 -22q58 7 125 49q12 6 25.5 3.5t19.5 -11.5q14 -24 -14 -45q-31 -26 -94 -49.5t-119 -26.5q-108 -5 -212.5 44.5t-186.5 150.5t-115 235q-22 92 -25.5 200.5z" />
<glyph unicode=")" horiz-adv-x="950" d="M47 1368q-14 24 14 45q29 24 91.5 46t121.5 30q85 11 171 -12t159.5 -75t125 -141.5t63.5 -201.5q9 -83 9.5 -168t-8.5 -186.5t-37 -198.5t-72 -190.5t-118 -176.5t-170 -143q-35 -18 -49 0q-12 17 10 39q20 19 4 35q-16 13 -38 -7q-20 -18 -50 -32q-31 -18 -45 2 q-13 19 11 37q11 8 14 18t-4 18q-13 13 -39 -4q-34 -21 -59 -30q-42 -15 -48 -2q-19 32 11 47q43 22 85.5 54t99.5 97.5t99 146.5t71.5 206.5t29.5 271.5q0 65 -7.5 119t-26 104t-55.5 72.5t-89 9.5q-36 -10 -48 10q-14 26 13 43q27 16 55 21q13 2 21.5 8t5.5 18 q-6 24 -50 21q-42 -3 -104 -35q-34 -17 -49 6q-5 12 -1.5 24.5t13.5 18.5q14 14 58 27q10 2 15 4.5t8.5 7.5t2.5 14q-1 13 -15 19t-30 4q-58 -7 -125 -49q-12 -6 -25.5 -3.5t-19.5 11.5z" />
<glyph unicode="*" horiz-adv-x="1179" d="M178 1153q-14 29 12 45l207 119l-155 90q-12 6 -15.5 19.5t2.5 25.5q16 22 43 8l74 -43q10 -6 24 -2.5t21 15.5q13 27 -12 45l-125 71q-12 6 -15 19.5t3 25.5q17 27 45 13l207 -121v180q0 14 9.5 23.5t22.5 9.5t21 -9.5t8 -23.5v-84q0 -13 9.5 -23t23.5 -10t23.5 10 t9.5 23v143q0 14 9.5 23.5t22.5 9.5t23 -9.5t10 -23.5v-239l156 90q12 7 24.5 3.5t20.5 -15.5q6 -10 2.5 -24t-15.5 -21l-69 -41q-13 -6 -17 -19.5t3 -23.5q8 -12 20.5 -16t24.5 3l122 70q12 7 24.5 5t18.5 -13q14 -29 -12 -45l-207 -119l156 -90q12 -6 15 -19.5t-3 -25.5 q-19 -26 -45 -13l-71 41q-12 7 -25 4t-21 -14q-6 -12 -2.5 -25.5t15.5 -19.5l123 -72q12 -6 16 -18.5t-2 -22.5q-16 -26 -45 -12l-207 119v-178q0 -13 -10 -23t-23 -10t-22.5 9.5t-9.5 23.5v82q0 13 -9.5 22.5t-23.5 9.5t-23.5 -9.5t-9.5 -22.5v-142q0 -13 -8.5 -22.5 t-20.5 -9.5q-14 0 -23 9.5t-9 22.5v238l-156 -88q-12 -7 -24.5 -3.5t-20.5 15.5q-6 11 -2 22t16 19l74 41q25 18 12 45q-16 26 -45 12l-125 -71q-11 -7 -24 -3.5t-21 15.5z" />
<glyph unicode="+" horiz-adv-x="1611" d="M115.5 689.5q4.5 11.5 17.5 17.5l518 239v377q0 13 9.5 23t23.5 10q13 0 21 -9.5t8 -23.5v-84q0 -14 9.5 -23.5t22.5 -9.5t23 10t10 23v143q0 14 10 23.5t23 9.5t23 -9.5t10 -23.5v-82q0 -13 9.5 -22.5t23.5 -9.5q13 0 22.5 9t9.5 23v142q0 14 8.5 23.5t20.5 9.5 q14 0 23.5 -9t9.5 -22v-350l182 84q29 13 43 -9q8 -14 4 -26t-16 -19l-76 -37q-12 -6 -15.5 -18.5t3.5 -24.5q6 -11 19.5 -15t25.5 3l157 80q29 14 45 -12q14 -28 -12 -41l-76 -39q-12 -6 -15 -18.5t3 -24.5q8 -12 20.5 -16t24.5 2l158 79q12 5 25.5 1.5t19.5 -13.5 q18 -37 -10 -49l-510 -233v-320q0 -14 -9.5 -23.5t-23.5 -9.5q-13 0 -21 9.5t-8 23.5v84q0 14 -9.5 23.5t-22.5 9.5t-23 -9.5t-10 -23.5v-143q0 -13 -10 -23t-23 -10t-23 10t-10 23v82q0 13 -9.5 22.5t-23.5 9.5q-13 0 -22.5 -9.5t-9.5 -22.5v-142q0 -14 -8.5 -23.5 t-20.5 -9.5q-14 0 -23.5 10t-9.5 23v291l-180 -82q-40 -15 -55 6q-6 14 -1 26t17 17l62 31q28 14 16 41q-13 27 -43 10l-152 -69q-12 -6 -25 -1.5t-18 15.5q-6 14 -1.5 26.5t16.5 18.5l53 25q13 6 17.5 19t-1.5 26t-19.5 16t-25.5 -4l-149 -68q-15 -5 -27.5 -1t-17.5 14 q-6 12 -1.5 23.5z" />
<glyph unicode="," horiz-adv-x="667" d="M174 -14v467q0 38 33 53l252 119q13 6 24 -1.5t11 -21.5v-823q0 -13 -10 -23t-23 -10t-21 9.5t-8 23.5v409q0 14 -10 23.5t-23 9.5t-22.5 -9.5t-9.5 -23.5v-469q0 -13 -9.5 -22.5t-23.5 -9.5t-23.5 9.5t-9.5 22.5v408q0 13 -9.5 23t-23.5 10q-13 0 -22.5 -9.5t-9.5 -23.5 v-141q0 -14 -8.5 -23.5t-20.5 -9.5q-13 0 -23 9.5t-10 23.5z" />
<glyph unicode="-" horiz-adv-x="1650" d="M115.5 635.5q4.5 11.5 17.5 17.5l1047 492q40 15 55 -6q6 -14 1 -26t-17 -17l-5 -2q-12 -6 -16.5 -17.5t2.5 -23.5q8 -11 22.5 -13.5t28.5 4.5l84 39q12 6 25 1.5t18 -15.5q6 -14 2 -26.5t-16 -18.5l-4 -2q-15 -7 -21 -19t4 -26q9 -10 27.5 -11.5t30.5 5.5l88 39 q15 5 27.5 1t17.5 -14q6 -12 1.5 -24.5t-17.5 -18.5l-1047 -489q-40 -15 -55 6q-6 14 -1 26t17 17l4 2q13 6 17.5 17.5t-2.5 23.5q-8 11 -23 13t-29 -5l-84 -39q-12 -6 -25 -1t-18 16q-6 14 -1.5 26.5t16.5 18.5l4 2q15 7 20.5 19t-4.5 26q-9 10 -27 11.5t-30 -5.5l-88 -39 q-15 -5 -27.5 -1.5t-17.5 13.5q-6 12 -1.5 23.5z" />
<glyph unicode="." horiz-adv-x="763" d="M174 -90v270q0 33 31 47l340 160q12 6 24.5 3t16.5 -15q6 -12 0.5 -24.5t-17.5 -18.5l-47 -21q-30 -15 -28 -49q1 -13 15.5 -18.5t27.5 0.5l8 4q12 6 25 0t16 -19q7 -30 -19 -43l-45 -20q-35 -18 -28 -51q3 -13 17 -17.5t26 2.5l12 6q12 7 25 2.5t14 -18.5q4 -34 -27 -47 l-354 -166q-13 0 -23 9.5t-10 23.5z" />
<glyph unicode="/" horiz-adv-x="1067" d="M-1 -134.5q-5 11.5 1 25.5l649 1463q6 14 17.5 20t23.5 2q12 -3 16.5 -16.5t-1.5 -26.5l-35 -78q-4 -10 0.5 -22.5t15.5 -18.5q13 -6 26 -1t19 18l92 205q6 13 19 20t24 2q13 -6 19.5 -20.5t1.5 -22.5l-39 -94q-10 -27 14 -39q10 -6 23 0.5t18 17.5l107 224q13 26 39 18 q13 -3 18.5 -15.5t-0.5 -25.5l-651 -1470q-4 -13 -17.5 -17.5t-25.5 0.5q-12 3 -16.5 16t1.5 25l4 8q5 10 1 23.5t-17 17.5q-30 10 -43 -18l-61 -127q-18 -40 -54 -31q-13 3 -17.5 14.5t1.5 24.5l2 4q6 10 3 24.5t-17 18.5q-15 4 -27.5 -2t-17.5 -20l-60 -125 q-6 -12 -17.5 -17.5t-21.5 -1.5q-12 6 -17 17.5z" />
<glyph unicode="0" horiz-adv-x="1523" d="M160 631q3 86 20 170.5t54.5 173t92 164.5t138 143.5t186.5 112.5q72 31 154 37t162.5 -11.5t153.5 -65t128.5 -117.5t86.5 -174.5t28 -229.5q-2 -79 -23 -164.5t-59 -171.5t-97.5 -163t-133 -137.5t-172 -96t-207.5 -35.5q-46 0 -99 12.5t-113 37.5t-114 70.5t-97 105.5 t-67.5 147.5t-21.5 191.5zM502 655q-5 -135 66.5 -220.5t191.5 -57.5q135 32 213 163.5t78 313.5q0 149 -84 222t-207 16q-115 -54 -184 -172.5t-74 -264.5z" />
<glyph unicode="1" horiz-adv-x="972" d="M-48 903q1 11 7 17l471 460q12 12 31 4l235 -110q21 -10 21 -33v-1175q0 -14 -9.5 -23.5t-23.5 -9.5q-13 0 -21 9.5t-8 23.5v8q0 14 -9.5 23t-22.5 9q-14 0 -23.5 -9.5t-9.5 -22.5v-68q0 -14 -10 -23.5t-23 -9.5t-23 9.5t-10 23.5v6q0 14 -9.5 23.5t-22.5 9.5 q-14 0 -23.5 -9.5t-9.5 -23.5v-65q0 -14 -8.5 -23.5t-20.5 -9.5q-14 0 -23.5 10t-9.5 23v948l-129 -131q-9 -10 -23 -10.5t-26 8.5q-11 8 -11.5 20.5t11.5 24.5l4 4q10 10 11 24.5t-11 26.5q-10 9 -24.5 7.5t-26.5 -13.5l-27 -25q-30 -27 -61 -8q-12 8 -12 20.5t8 20.5l4 4 q27 27 6 45q-22 18 -47 -4l-23 -18q-30 -27 -57 -10q-12 11 -11 22z" />
<glyph unicode="2" horiz-adv-x="1341" d="M139 803v92q0 312 371 491q67 32 145 47t157 5.5t145 -42t110 -103t51 -169.5q8 -115 -40 -227t-173 -266l-182 -225l348 165q28 14 39 -8q7 -12 3 -24t-15 -17l-6 -2q-12 -6 -17.5 -18.5t0.5 -24.5q6 -11 18.5 -15t24.5 3l66 29q28 14 43 -9q14 -29 -10 -41l-7 -2 q-13 -6 -16.5 -18.5t2.5 -24.5q8 -12 20.5 -16t24.5 2l59 29q12 6 26 3.5t20 -11.5q17 -30 -15 -46l-901 -426l-190 97v24q0 73 11.5 122.5t43.5 101.5l373 509q64 88 90.5 137.5t27.5 100.5q1 50 -16.5 77.5t-60 27.5t-107.5 -37q-82 -45 -121 -126.5t-39 -179.5v-98 q0 -14 -7.5 -23.5t-20.5 -9.5t-21 9.5t-8 23.5v68q0 12 -9.5 20t-23.5 10q-28 2 -28 -24v-19q0 -11 -10 -19.5t-23 -8.5t-23 8.5t-10 19.5v70q0 13 -8.5 22t-20.5 11q-13 1 -22.5 -7t-9.5 -22v-16q0 -14 -8.5 -23.5t-20.5 -9.5q-13 0 -21 9.5t-8 23.5z" />
<glyph unicode="3" horiz-adv-x="1251" d="M228.5 219.5q5.5 12.5 17.5 18.5l426 196q49 24 73.5 52t24.5 71q0 31 -25 46t-63 3l-354 -162v279l354 172q35 19 51 30t31.5 35t15.5 56q0 35 -25.5 47.5t-72.5 -6.5l-406 -189q-30 -11 -43 15q-6 12 -0.5 23.5t17.5 17.5l61 26q12 6 17 18.5t0 24.5q-6 12 -18.5 17.5 t-26.5 -0.5l-7 -2q-12 -6 -24.5 -1t-18.5 17t-1 24.5t18 18.5l59 27q12 6 17.5 18.5t-0.5 26.5q-6 12 -18.5 16t-24.5 -2l-11 -2q-12 -6 -24.5 -3t-16.5 15q-6 12 -0.5 24.5t17.5 18.5l434 201q63 29 136.5 30.5t139.5 -24t110 -93t44 -165.5q0 -92 -53 -188t-131 -140 q81 -15 140.5 -80t59.5 -163q0 -143 -66 -248t-177 -152l-611 -284q-30 -11 -43 14q-6 12 -0.5 23.5t17.5 17.5l61 27q12 6 17 18.5t0 24.5q-6 12 -18.5 17t-26.5 -1l-7 -2q-12 -6 -24.5 -1t-18.5 17t-1 24.5t18 18.5l59 27q12 6 17.5 18.5t-0.5 26.5q-6 12 -18.5 16 t-24.5 -2l-11 -2q-12 -6 -24.5 -2.5t-16.5 15.5q-6 12 -0.5 24.5z" />
<glyph unicode="4" horiz-adv-x="1437" d="M139 500l418 817q24 47 82 74l322 147q19 8 34 -2t15 -33v-620l137 65q28 14 39 -8q7 -12 3 -23.5t-15 -17.5l-7 -2q-29 -14 -20 -41q9 -25 51 -14l62 28q29 14 43 -8q14 -28 -11 -41l-16 -8q-29 -15 -16 -41q15 -24 49 -10l67 31q12 6 25.5 3t19.5 -12q7 -14 3.5 -26.5 t-17.5 -18.5l-397 -186v-287q0 -14 -10 -23.5t-23 -9.5t-21 9.5t-8 23.5v13q0 14 -10 25t-23 7q-32 -10 -32 -59v-45q0 -13 -9.5 -23t-23.5 -10t-23.5 10t-9.5 23v10q0 15 -10 26t-23 7q-32 -10 -32 -60v-43q0 -13 -8.5 -22.5t-20.5 -9.5q-14 0 -23.5 9.5t-9.5 22.5v259 l-207 -95q-26 -11 -45.5 -13t-26.5 0t-28 9l-225 109q-51 21 -19 84zM487 631l203 102v283z" />
<glyph unicode="5" horiz-adv-x="1216" d="M149.5 195q3.5 13 16.5 20l518 242q53 25 75.5 53t22.5 72q0 36 -23 52t-50.5 14t-51.5 -13l-202 -96l-213 100q-42 20 -54 48t-12 81v375q0 39 37 57l604 279q29 11 39 -9q15 -24 -12 -40l-6 -3q-13 -6 -19 -18t0 -23q13 -23 58 -8l53 23q29 14 43 -8q14 -29 -10 -41 l-9 -4q-28 -17 -16 -41q7 -12 25.5 -14t37.5 7l46 23q12 6 25.5 3.5t19.5 -11.5q16 -29 -15 -45l-622 -287v-131l102 47q102 51 202.5 55.5t176 -31t122 -111t46.5 -175.5q0 -78 -14.5 -142.5t-47.5 -125.5t-93.5 -112.5t-147.5 -92.5q-19 -9 -122 -57.5t-179 -83.5 q-42 -19 -58 8q-6 10 -2 23t17 20l4 2q31 16 16 43q-16 22 -45 10l-74 -35q-41 -18 -57 8q-6 10 -2.5 23t16.5 20l4 2q29 16 17 43q-16 25 -43 13l-84 -39q-41 -18 -57 8q-6 10 -2.5 23z" />
<glyph unicode="6" horiz-adv-x="1226" d="M124.5 521.5q-4.5 98.5 16.5 212t66.5 220t131 208.5t200.5 173q186 116 403 107q36 -2 39 -23q3 -28 -25 -28h-8q-13 0 -23 -6.5t-7 -18.5q6 -23 34 -16q37 8 72 4t39 -23q3 -13 -4.5 -20.5t-22.5 -5.5h-16q-12 0 -19 -9t-4 -22q6 -20 37 -17q35 3 78 -2q36 -3 39 -24 q2 -13 -6.5 -22t-22.5 -9q-251 0 -385 -65q-75 -37 -144 -105t-97 -133h8q15 22 53 45q57 35 126.5 45.5t138 -6.5t127.5 -55.5t100 -107t51 -156.5q14 -118 -16.5 -226t-115 -203t-216.5 -153q-85 -38 -178.5 -40t-175.5 30t-148 102.5t-96 169.5q-25 81 -29.5 179.5z M446 436q17 -71 77 -98.5t134 -3.5q82 27 134 100t38 172q-8 54 -46.5 86.5t-87 35t-99.5 -12.5q-73 -26 -121.5 -103t-28.5 -174v-2z" />
<glyph unicode="7" horiz-adv-x="1214" d="M96 827v375q0 37 33 51l567 267q25 12 46.5 14.5t30 0t22.5 -8.5l274 -131q32 -16 36.5 -65t-9.5 -81l-314 -973q-3 -13 -14 -20t-25 -4q-27 9 -20 39l2 8q3 16 -4.5 27t-22.5 10q-26 -2 -39 -41l-26 -90q-3 -14 -15.5 -21.5t-25.5 -3.5q-12 3 -19.5 16t-3.5 25l2 6 q5 14 -1.5 24.5t-24.5 10.5q-27 0 -37 -39l-29 -90q-3 -12 -14 -19.5t-23 -4.5q-14 5 -20 16.5t-2 24.5l344 1091l-301 -145q-47 -19 -47 -76v-309q0 -13 -10 -23t-23 -10t-21 9.5t-8 23.5v37q0 49 -32 59q-15 4 -23 -5t-8 -28v-4q0 -33 -35 -33q-14 0 -23.5 9.5t-9.5 23.5 v41q0 42 -33 53q-13 4 -21.5 -5t-8.5 -28v-4q0 -32 -31 -32q-14 0 -23.5 9.5t-9.5 22.5z" />
<glyph unicode="8" horiz-adv-x="1259" d="M100 396q-2 43 7.5 94.5t32.5 100t67.5 98.5t107.5 91q-33 7 -76 54.5t-55 105.5q-28 127 53.5 259t262.5 210q147 59 263 51t189 -69.5t76 -153.5q3 -83 -25 -151t-63 -97q81 -7 148 -69t75 -168q8 -95 -10 -174.5t-60.5 -141t-92.5 -106t-119 -88.5q-13 -8 -28 -8.5 t-22 8.5q-8 13 -4.5 23.5t13.5 15.5l16 12q9 6 8 18.5t-10 18.5q-17 13 -37 -4q-11 -11 -47 -35q-25 -16 -45 2q-9 9 -7 21t13 18l19 12q20 20 0 33l-6 2t-5 1.5t-5.5 -0.5t-5 -1t-5.5 -2t-5.5 -3t-6.5 -3.5t-6 -3.5q-32 -17 -60 -23q-32 -6 -41 6q-8 7 -6 21t18 18 q42 12 123 66q70 45 98 97t23 97q-2 17 -15 30t-38 19t-57 4.5t-76 -15.5t-92 -40q-203 -111 -176 -225q18 -73 104 -76q51 -2 82.5 -22t42.5 -70q7 -28 -4.5 -74.5t-46.5 -62.5q-72 -35 -149 -31t-143 32.5t-114.5 80.5t-64.5 114q-11 40 -13 83zM465 1006q2 -23 27 -37 t67.5 -11t85.5 27q66 37 90.5 80.5t22.5 79.5q-3 38 -47.5 48t-106.5 -15q-67 -28 -105.5 -78t-33.5 -94z" />
<glyph unicode="9" horiz-adv-x="1255" d="M160.5 845q-14.5 97 23.5 228q33 114 121 204t191 135.5t198 45.5q209 0 322 -119t114 -348q1 -125 -19 -239.5t-63 -219.5t-116.5 -190t-173.5 -137q-88 -46 -193 -67t-190 -21q-16 0 -31.5 8t-15.5 22q0 25 24 25h10q13 0 21 8.5t2 22.5q-6 16 -35 12q-30 -4 -57 -2 q-36 3 -41 23q-3 11 5 18.5t19 7.5h9q23 0 18 27q-4 16 -31 16q-63 0 -75 2q-26 4 -29 25q-2 11 6.5 19.5t24.5 8.5q7 0 53 -2.5t82.5 -2.5t96.5 9t114 29q98 37 153.5 92.5t61.5 112.5q-25 -23 -68.5 -44.5t-93.5 -29.5q-58 -10 -126 3t-136 50.5t-114.5 104t-61 163.5z M463 928q-3 -71 40 -112.5t113 -35.5q86 8 152 84t66 178q0 75 -51 113t-126 21q-80 -19 -135 -88.5t-59 -159.5z" />
<glyph unicode=":" horiz-adv-x="772" d="M225 -16v454q0 28 7 42.5t26 23.5l246 114q15 8 28 1t13 -27v-490q0 -13 -9.5 -22.5t-23.5 -9.5q-13 0 -21 9t-8 23v84q0 14 -9.5 23.5t-22.5 9.5t-23 -9.5t-10 -23.5v-143q0 -13 -10 -23t-23 -10t-23 10t-10 23v82q0 13 -10 23t-23 10t-22.5 -9.5t-9.5 -23.5v-141 q0 -14 -8.5 -23.5t-20.5 -9.5q-14 0 -23.5 9.5t-9.5 23.5zM225 823v455q0 28 7 42t26 23l246 115q15 8 28 1t13 -27v-490q0 -14 -9.5 -23.5t-23.5 -9.5q-13 0 -21 9.5t-8 23.5v84q0 14 -9.5 23.5t-22.5 9.5t-23 -9.5t-10 -23.5v-143q0 -13 -10 -23t-23 -10t-23 10t-10 23v82 q0 13 -9.5 22.5t-23.5 9.5q-13 0 -22.5 -9.5t-9.5 -22.5v-142q0 -13 -8.5 -22.5t-20.5 -9.5q-14 0 -23.5 9.5t-9.5 22.5z" />
<glyph unicode=";" horiz-adv-x="796" d="M248 827v455q0 28 7 42.5t26 23.5l245 114q15 8 28 1t13 -27v-490q0 -14 -9.5 -23.5t-22.5 -9.5t-21 9.5t-8 23.5v84q0 14 -10 23.5t-23 9.5t-23 -9.5t-10 -23.5v-143q0 -14 -9.5 -23.5t-22.5 -9.5q-14 0 -23.5 10t-9.5 23v82q0 13 -9.5 22.5t-23.5 9.5t-23.5 -9.5 t-9.5 -22.5v-142q0 -14 -8 -23t-20 -9q-14 0 -23.5 9.5t-9.5 22.5zM252 -14q0 -14 10 -23.5t23 -9.5q12 0 20 9.5t8 23.5v141q0 13 9.5 23t23.5 10t23.5 -10t9.5 -23v-408q0 -13 9.5 -22.5t23.5 -9.5t23 9.5t9 22.5v467q0 14 10 23.5t23 9.5t23 -9.5t10 -23.5v-407 q0 -14 8 -23.5t21 -9.5t22.5 9.5t9.5 23.5v823q0 14 -10.5 21.5t-23.5 1.5q-250 -119 -252 -119q-33 -15 -33 -53v-467z" />
<glyph unicode="&#x3c;" horiz-adv-x="983" d="M119 543l293 674q13 33 43 26q12 -3 16 -16.5t-2 -26.5l-35 -78q-4 -10 0 -22.5t15 -18.5q13 -6 26 1.5t19 21.5l90 199q6 13 19 19t24 3q14 -4 19 -19t1 -24l-35 -82q-10 -27 15 -39q10 -6 22 1.5t17 19.5l106 209q13 25 39 18q13 -3 18.5 -15.5t-0.5 -25.5l-348 -702 q-6 -12 -7.5 -21t3 -16.5t6.5 -9t11 -9.5l426 -383q11 -10 11.5 -24.5t-13.5 -24.5q-10 -6 -26.5 -4t-29.5 14l-26 23q-9 11 -25.5 14t-30.5 -6q-12 -7 -12.5 -23t10.5 -26l6 -6q19 -26 0 -45q-23 -23 -53 2l-31 26q-29 29 -57 11q-11 -8 -12 -22t8 -25l10 -11 q11 -10 10.5 -25t-12.5 -24q-23 -17 -49 6l-448 398q-50 40 -31 88z" />
<glyph unicode="=" horiz-adv-x="1681" d="M54 748.5q5 11.5 18 17.5l671 315q41 15 56 -6q6 -14 0.5 -26t-17.5 -17l-4 -2q-12 -6 -16.5 -17.5t2.5 -23.5q8 -11 22.5 -13t28.5 5l84 39q12 6 25 1.5t18 -15.5q6 -14 2 -26.5t-16 -18.5l-4 -3q-15 -7 -21 -19t4 -26q9 -10 27.5 -11.5t30.5 5.5l88 39q15 5 27.5 1.5 t17.5 -13.5q6 -12 1 -24.5t-18 -18.5l-671 -313q-41 -15 -56 6q-6 14 -0.5 26t17.5 17l4 2q12 6 16.5 17.5t-2.5 23.5q-8 11 -22.5 13t-28.5 -5l-84 -39q-12 -6 -25 -1.5t-18 15.5q-6 14 -2 26.5t16 18.5l4 2q15 7 21 19t-4 26q-9 10 -27.5 11.5t-30.5 -4.5l-88 -39 q-15 -5 -27.5 -1.5t-17.5 13.5q-6 12 -1 23.5zM582.5 506.5q4.5 11.5 17.5 17.5l672 316q40 15 55 -6q6 -14 1 -26t-17 -17l-4 -3q-30 -15 -15 -40q8 -11 22.5 -13.5t28.5 4.5l84 39q12 6 25 1.5t18 -15.5q6 -14 2 -26.5t-16 -18.5l-4 -2q-15 -7 -20.5 -19t4.5 -26 q9 -10 27 -11.5t30 5.5l88 39q15 5 27.5 1t17.5 -14q6 -12 1.5 -24.5t-17.5 -18.5l-672 -313q-40 -15 -55 6q-6 14 -1 26t17 17l4 2q13 6 17.5 17.5t-2.5 23.5q-8 11 -23 13t-29 -5l-84 -39q-12 -6 -25 -1t-18 16q-6 14 -1.5 26.5t16.5 18.5l4 2q15 7 20.5 19t-4.5 26 q-9 10 -27 11.5t-30 -5.5l-88 -39q-15 -5 -27.5 -1.5t-17.5 13.5q-6 12 -1.5 23.5z" />
<glyph unicode="&#x3e;" horiz-adv-x="983" d="M52 1252q0 15 14 24q10 7 27 5t30 -13l16 -15q10 -12 28 -15.5t36 5.5q11 8 10 21t-12 24l-2 2q-9 9 -9.5 24.5t13.5 24.5q28 13 57 -12l14 -12q35 -31 66 -12q10 7 10 21t-10 24l-6 6q-11 11 -12 25t12 22q25 14 65 -17l435 -385q49 -40 30 -88l-293 -673 q-14 -34 -43 -27q-12 3 -16 16.5t2 26.5l35 78q5 10 0.5 22.5t-14.5 18.5q-13 6 -26.5 -1.5t-19.5 -21.5l-90 -198q-6 -13 -19 -19.5t-24 -3.5q-14 4 -19 19t-1 24l35 82q10 27 -15 39q-10 6 -22 -1.5t-17 -19.5l-106 -209q-13 -25 -39 -18q-13 3 -18.5 15.5t0.5 25.5 l348 702q6 12 7.5 21t-3 16.5t-6.5 9t-11 9.5l-426 383q-11 10 -11 25z" />
<glyph unicode="?" horiz-adv-x="1091" d="M70 803v53q0 385 370 563q83 40 187.5 50t198.5 -10.5t160.5 -84.5t70.5 -162q5 -148 -62 -243l-151 -217q-47 -67 -47 -148v-57q0 -13 -10.5 -23t-24.5 -10q-13 0 -21 9.5t-8 23.5v6q0 18 -10 27.5t-25 5.5t-22.5 -22t-7.5 -36v-41q0 -13 -9.5 -22.5t-23.5 -9.5 t-23.5 9.5t-9.5 22.5v5q0 20 -9.5 28.5t-23.5 3.5q-32 -10 -32 -55v-41q0 -14 -8.5 -23.5t-20.5 -9.5q-14 0 -23.5 9.5t-9.5 23.5v143q0 109 53 181l154 213q59 82 47 153q-2 17 -16.5 30t-38.5 19t-61.5 -4t-80.5 -37q-78 -49 -118.5 -144t-40.5 -194v-98q0 -14 -8 -23.5 t-21 -9.5t-21 9.5t-8 23.5v45q0 38 -32 45q-12 3 -20.5 -3.5t-8.5 -24.5v-7q0 -11 -10 -19.5t-23 -8.5t-23 8.5t-10 19.5v48q0 40 -28 47q-14 3 -23.5 -5t-9.5 -26v-6q0 -14 -8.5 -23.5t-20.5 -9.5q-13 0 -20.5 9.5t-7.5 23.5zM475 -41v287q0 28 7 42t26 23l246 115 q15 8 28 0.5t13 -27.5v-321q0 -14 -9.5 -23.5t-23.5 -9.5q-13 0 -21 9.5t-8 23.5v84q0 14 -9.5 23.5t-23.5 9.5q-13 0 -22.5 -9.5t-9.5 -23.5v-144q0 -13 -9.5 -22.5t-23.5 -9.5t-23.5 9.5t-9.5 22.5v82q0 14 -10 23.5t-23 9.5t-22.5 -9.5t-9.5 -23.5v-141q0 -14 -8.5 -23.5 t-20.5 -9.5q-14 0 -23.5 10t-9.5 23z" />
<glyph unicode="@" horiz-adv-x="1759" d="M99.5 617q-0.5 112 26.5 224t71.5 215.5t114.5 197.5t154 170t190.5 133.5t224.5 87.5q92 26 186 20t182 -31.5t166 -80t136.5 -124t93.5 -164.5t38 -202q3 -133 -21 -268t-77 -215q-76 -115 -172 -159t-196 3q-56 29 -87.5 88.5t-31.5 130.5v154q3 106 -41.5 159 t-128.5 27q-53 -16 -93.5 -72t-59.5 -119t-21 -124q-2 -22 2 -49.5t14 -57t32 -48t52 -15.5q15 1 41 12q14 6 27.5 3.5t19.5 -11.5q15 -25 -10 -43q-9 -7 -19 -10q-23 -9 -18 -27q3 -12 17.5 -16.5t29.5 2.5q26 10 47 28q30 27 60 8q33 -22 0 -63q-37 -42 -121 -76 q-51 -20 -106.5 -20.5t-106 18.5t-92.5 52.5t-69.5 86t-33.5 115.5q-8 76 4 159t44.5 164.5t81.5 150.5t121.5 120.5t158.5 71.5q161 38 277 -64t116 -285v-182q0 -53 24 -61t50 31q20 29 36.5 103.5t16.5 178.5q0 156 -73 269t-197.5 157t-268.5 6q-142 -38 -256 -133.5 t-181 -218.5t-95.5 -262t-11.5 -268q12 -93 56 -164.5t104.5 -110.5t131 -57.5t140.5 -13t129 29.5q76 31 135 68.5t108 101.5q23 32 50 17q22 -14 8 -43l-8 -15q-20 -28 -11 -43q8 -12 22 -12.5t28 12.5q4 4 18 27q21 34 49 24q13 -5 18 -18.5t-2 -32.5q-44 -104 -162 -189 t-253 -122q-87 -24 -183 -27t-196 22.5t-185 77.5t-151 146.5t-92 220.5q-21 112 -21.5 224z" />
<glyph unicode="A" horiz-adv-x="1132" d="M12 -199l254 1358q10 50 24 75.5t48 41.5l190 88q20 8 38 8q12 0 24 -4q26 -12 43 -45l508 -1001q8 -13 6.5 -29.5t-12.5 -22.5q-8 -6 -25.5 -1t-24.5 22l-8 14q-16 26 -41 14q-23 -12 -12 -38l6 -15q7 -12 4 -27.5t-14 -21.5q-29 -13 -47 19l-8 14q-14 31 -45 16 q-24 -12 -9 -43l7 -12q6 -12 2.5 -26.5t-15.5 -20.5q-32 -16 -47 24l-94 213l-358 -168l-56 -303q-7 -36 -37 -36q-13 0 -19 11t-3 29l2 11q3 14 -4.5 25t-20.5 12q-29 3 -37 -31l-16 -88q-1 -15 -13 -24.5t-26 -6.5q-13 1 -19.5 11.5t-4.5 23.5l2 12q2 14 -5 24t-20 11 q-12 2 -23 -6t-14 -21l-22 -96q-6 -31 -35 -27q-12 2 -19 13t-4 24zM451 512q0 -4 2 -4l215 96q3 3 2 6q-58 119 -142 312q-6 12 -8 0q-10 -67 -33 -198.5t-36 -211.5z" />
<glyph unicode="B" horiz-adv-x="1337" d="M-117 1057q4 13 17 20l753 350q52 24 116 36q44 8 89 8q22 1 42 -1q66 -6 122.5 -28.5t96 -72.5t46.5 -122q3 -28 3 -54q0 -98 -36 -175q-44 -98 -112 -146q28 -3 56 -11.5t60.5 -28t56.5 -46.5q25 -28 39 -72q12 -37 11 -81v-19q-9 -165 -86.5 -265t-253.5 -183 l-551 -256q-13 -7 -35 -4.5t-30 16.5q-6 10 -2.5 23t16.5 20l4 2q32 16 17 43q-16 23 -46 8l-73 -34q-19 -8 -32 -8q-18 0 -26 14q-14 25 15 41l10 6q28 12 16 39q-17 26 -43 10l-90 -41q-13 -7 -34 -5.5t-29 15.5q-14 25 14 41l334 156v680l-92 -43q-19 -9 -33 -9 q-18 0 -29 15q-8 10 -3 26.5t18 22.5l8 4q12 6 16.5 20t-4.5 23q-18 18 -49 2l-72 -35q-19 -8 -33 -8q-18 0 -28 13q-8 9 -4.5 24.5t16.5 22.5l14 6q18 8 22 21t-9 24q-16 13 -51 0l-82 -35q-17 -8 -30 -8q-18 0 -28 16q-6 10 -2 23zM647 870l148 68q96 44 96 143 q-1 46 -33 65q-16 9 -32 9q-18 0 -38 -10l-141 -66v-209zM649 397l182 84q101 47 101 142v6q-1 41 -22.5 61.5t-50.5 18.5t-60 -15l-150 -71v-226z" />
<glyph unicode="C" horiz-adv-x="1388" d="M102 584q-4 41 -4 81q0 205 102 381q122 210 332 306l328 151q10 7 24 5t21 -13q8 -14 3 -27t-17 -18l-4 -2q-12 -6 -16 -18.5t3 -24.5q6 -11 22.5 -12.5t33.5 8.5q69 37 71 37q29 14 43 -8q14 -29 -10 -46l-6 -4q-24 -17 -12 -41q13 -21 57 -4q70 31 72 31q34 17 51 -6 q10 -10 5 -27t-23 -26l-396 -181q-72 -33 -130.5 -78.5t-104 -106t-67.5 -139.5q-16 -58 -15 -121q0 -24 2 -48q12 -135 101 -193q47 -30 103 -30q50 0 107 24q269 125 271 125q31 12 43 -12q7 -12 2.5 -24t-15.5 -17l-6 -2q-14 -6 -19 -18.5t1 -24.5q6 -11 23.5 -13t37.5 7 l82 34q29 14 45 -12q17 -28 -12 -41l-8 -4q-14 -6 -19 -18.5t2 -24.5q7 -13 27 -14.5t37 8.5l76 37q12 6 26.5 3t20.5 -13q17 -30 -17 -45l-407 -189q-133 -63 -261 -77q-40 -4 -77 -4q-83 -1 -155 21q-102 32 -183.5 97t-130.5 161t-60 210z" />
<glyph unicode="D" horiz-adv-x="1394" d="M-94 1057q-14 25 14 41q0 1 290.5 134.5t293.5 133.5q196 90 347 90q39 0 73 -6q174 -28 270 -151.5t100 -307.5q1 -19 1 -38q1 -274 -123 -466q-132 -205 -375 -317l-441 -203q-42 -19 -57 6q-14 25 14 41l11 4q31 16 16 43q-16 23 -45 11l-84 -39q-41 -18 -57 8 q-6 10 -2.5 23t16.5 20l16 6q30 17 17 39q-8 19 -43 10l-97 -43q-41 -18 -57 8q-14 25 14 41l328 154v655l-86 -43q-16 -7 -29 -7q-19 0 -28 16q-6 10 -2.5 23t16.5 20l4 2q32 16 17 43q-16 22 -45 10l-80 -37q-17 -8 -30 -8q-18 0 -28 16q-6 10 -2 23t17 20l16 6 q28 16 16 43q-13 22 -43 13l-96 -43q-42 -19 -57 6zM662 442l77 39q239 114 242 412v7q-1 84 -23 140q-24 58 -62 80q-37 22 -81 22h-3q-46 -1 -95 -24l-55 -28v-648z" />
<glyph unicode="E" horiz-adv-x="1294" d="M102 348q-1 13 -1 25q1 93 47 173q52 92 137 136q-64 29 -109 95t-45 167q0 115 54.5 202.5t140.5 127.5l483 225l5 2q4 2 5.5 2.5l6 2t6.5 2t6.5 1t7.5 0t7 -1.5t7.5 -3t7.5 -5q11 -10 8 -23t-14 -20l-18 -10q-12 -6 -16 -18.5t3 -24.5q6 -10 22 -11t28 7l73 35 q37 19 56 0q10 -10 10 -24.5t-12 -20.5l-19 -11q-24 -12 -12 -37q7 -11 25 -13t30 5l82 37q12 6 27.5 2t19.5 -14q16 -35 -16 -49l-610 -285q-64 -29 -64 -92v-8q2 -36 36 -54q17 -9 35 -9t36 9l243 113q10 5 22.5 3t18.5 -11q16 -25 -10 -41l-14 -8q-9 -4 -13.5 -12 t0.5 -21q7 -11 23 -13t26 5l76 39q10 6 22.5 2.5t18.5 -13.5q12 -20 -12 -36l-10 -7q-25 -17 -13 -34q7 -10 24.5 -11t29.5 6l69 31q11 6 24 3t19 -11q7 -11 3.5 -23t-15.5 -18l-586 -272q-42 -20 -64 -52q-16 -23 -17 -49q0 -11 3 -22q8 -38 47 -59q19 -10 40 -10 q22 0 45 11l305 146q30 13 43 -8q8 -14 3.5 -28t-16.5 -21l-8 -5q-24 -12 -8 -38q15 -22 45 -9l86 41q29 14 45 -12q12 -24 -12 -41l-6 -4q-24 -16 -13 -39q8 -12 20.5 -16t24.5 2l89 41q12 6 25.5 3t19.5 -12q8 -12 3.5 -29t-18.5 -24l-530 -248q-79 -37 -162 -43l-36 -2 q-62 0 -117 18q-70 23 -127 67t-92 109t-40 140z" />
<glyph unicode="F" horiz-adv-x="1185" d="M139 -31v1051q0 100 30 153.5t101 86.5l553 256q29 13 43 -9q8 -14 4 -26t-16 -19l-4 -2q-31 -15 -16 -39q6 -11 19.5 -15t25.5 3l90 41q29 14 45 -12q12 -23 -13 -41l-6 -4q-26 -16 -14 -39q8 -12 20.5 -16.5t24.5 1.5l90 41q12 6 25.5 3t19.5 -11q10 -13 7 -28.5 t-21 -24.5l-561 -262q-79 -36 -103 -73.5t-24 -117.5v-69l323 151q32 14 43 -8q7 -11 0.5 -22.5t-18.5 -16.5l-4 -2q-13 -6 -17 -17.5t2 -21.5q5 -9 15.5 -11.5t21.5 3.5l93 39q25 11 38 -12q5 -10 1.5 -21.5t-13.5 -15.5l-4 -2q-24 -15 -14 -39q15 -25 39 -15l88 37 q10 6 24.5 4t18.5 -12q13 -25 -15 -39l-622 -291v-393q0 -17 -9.5 -26t-23.5 -9q-13 0 -21 9.5t-8 23.5v8q0 14 -9.5 23.5t-22.5 9.5t-23 -9.5t-10 -23.5v-67q0 -13 -10 -23t-23 -10t-23 10t-10 23v6q0 13 -10 23t-23 10t-22.5 -9.5t-9.5 -23.5v-68q0 -13 -9.5 -22.5 t-21.5 -9.5q-13 0 -22 9t-9 23z" />
<glyph unicode="G" horiz-adv-x="1398" d="M76 578q-1 22 -1 44q0 489 500 740l314 147q10 7 24 5t21 -13q17 -25 -14 -43l-5 -2q-27 -13 -14 -39q8 -11 20.5 -15t24.5 3l88 41q29 14 45 -12q14 -28 -12 -41l-4 -2q-26 -16 -14 -41q17 -27 45 -13l88 39q12 6 24.5 3.5t18.5 -11.5q15 -31 -15 -49l-358 -168 q-58 -29 -94 -48t-91 -53t-89 -63.5t-73 -73t-60 -88t-33 -103.5q-8 -40 -8 -84q0 -19 2 -38q6 -80 43.5 -135t91.5 -77t114 -22q1 -1 3 -1q58 0 114 22q184 86 186 88q46 24 46 88v105q-200 -95 -207 -97q-31 -9 -41 13q-8 25 16 37l4 2q12 7 15.5 17.5t-7.5 21.5 q-20 17 -55 0l-53 -25q-38 -12 -53 10q-7 11 -4 21.5t10 13.5l8 4q11 5 16 15.5t-2 23.5q-7 9 -23.5 9t-29.5 -5l-72 -31q-14 -4 -25 -0.5t-16 11.5q-9 20 19 36q375 175 377 177q33 17 69 17q5 0 10 -1q41 -2 76 -25l178 -116q93 -60 93 -183v-131q0 -153 -160 -231 l-160 -78q-116 -57 -231 -79q-76 -14 -143 -14q-36 0 -69 3q-98 12 -183.5 52.5t-146 104.5t-97.5 150.5t-41 186.5z" />
<glyph unicode="H" horiz-adv-x="1198" d="M137 -25v1194q0 13 9.5 23t23.5 10q13 0 21 -9.5t8 -23.5v-10q0 -14 9.5 -23.5t22.5 -9.5t23 10t10 23v70q0 13 10 23t23 10t23 -10t10 -23v-8q0 -14 9.5 -23.5t22.5 -9.5q14 0 23.5 10t9.5 23v67q0 14 8.5 23.5t20.5 9.5q14 0 23.5 -9t9.5 -22v-428l288 135v457 q0 14 9.5 23.5t23.5 9.5q13 0 21 -9.5t8 -23.5v-10q0 -14 9.5 -23.5t23.5 -9.5q13 0 22.5 9.5t9.5 23.5v69q0 13 10 23t23 10t23 -10t10 -23v-8q0 -13 9.5 -22.5t23.5 -9.5t23.5 9.5t9.5 22.5v68q0 14 8 23.5t20 9.5q14 0 23.5 -10t9.5 -23v-1194q0 -13 -9.5 -23t-23.5 -10 q-13 0 -20.5 9.5t-7.5 23.5v10q0 13 -10 23t-23 10t-23 -10t-10 -23v-70q0 -13 -9.5 -22.5t-23.5 -9.5t-23.5 9.5t-9.5 22.5v9q0 14 -9 23t-23 9t-23.5 -9.5t-9.5 -22.5v-68q0 -14 -8.5 -23.5t-20.5 -9.5q-14 0 -23.5 9t-9.5 22v457l-288 -135v-486q0 -14 -9.5 -23.5 t-23.5 -9.5q-13 0 -21 9.5t-8 23.5v10q0 14 -9.5 23.5t-23.5 9.5q-13 0 -22.5 -9.5t-9.5 -23.5v-69q0 -13 -10 -23t-23 -10t-23 10t-10 23v8q0 13 -10 23t-23 10t-22.5 -9.5t-9.5 -23.5v-68q0 -13 -8.5 -22.5t-20.5 -9.5q-14 0 -23.5 9.5t-9.5 22.5z" />
<glyph unicode="I" d="M203 74v1190q0 13 9.5 22.5t23.5 9.5q28 0 28 -32v-7q0 -13 9.5 -22.5t23.5 -9.5t23.5 9.5t9.5 22.5v66q0 14 9.5 23.5t22.5 9.5q14 0 23.5 -10t9.5 -23v-4q0 -13 9.5 -23t23.5 -10t23.5 10t9.5 23v63q0 14 8 23.5t20 9.5q14 0 23.5 -9t9.5 -22v-1191q0 -13 -10 -23 t-23 -10t-20.5 9.5t-7.5 23.5v8q0 13 -9.5 22.5t-23.5 9.5t-23.5 -9.5t-9.5 -22.5v-68q0 -13 -9.5 -23t-23.5 -10q-13 0 -22.5 9.5t-9.5 23.5v6q0 13 -10 23t-23 10t-23 -10t-10 -23v-65q0 -14 -8 -23.5t-20 -9.5q-14 0 -23.5 9.5t-9.5 23.5z" />
<glyph unicode="J" horiz-adv-x="899" d="M18 285v155q0 14 10 23.5t23 9.5t21 -9.5t8 -23.5v-8q0 -14 8 -23.5t21 -9.5t20.5 9.5t7.5 23.5v68q0 13 9.5 22.5t23.5 9.5t23.5 -9.5t9.5 -22.5v-6q0 -14 7.5 -23.5t20.5 -9.5t21 9.5t8 23.5v65q0 14 8.5 23.5t20.5 9.5q13 0 23 -9.5t10 -21.5v-203q0 -17 10.5 -25.5 t25.5 -2.5q27 12 27 59v950q0 13 9.5 23t23.5 10q13 0 20.5 -9.5t7.5 -23.5v-6q0 -13 10 -23t23 -10t23 10t10 23v66q0 13 10 23t23 10t23 -10t10 -23v-4q0 -14 9.5 -23.5t22.5 -9.5q14 0 23.5 10t9.5 23v63q0 14 8.5 23.5t20.5 9.5q14 0 23.5 -9t9.5 -22v-923 q0 -229 -71 -351t-222 -170q-51 -18 -100 -18q-22 0 -44 4q-71 11 -126.5 45t-89.5 97t-34 141z" />
<glyph unicode="K" horiz-adv-x="1181" d="M154 -100v1265q0 14 9.5 23.5t22.5 9.5t21 -9.5t8 -23.5v-8q0 -13 9.5 -23t23.5 -10t23.5 10t9.5 23v68q0 13 9.5 22.5t22.5 9.5q14 0 23.5 -9.5t9.5 -22.5v-6q0 -13 10 -23t23 -10t23 10t10 23v65q0 14 8 23.5t20 9.5q14 0 23.5 -9t9.5 -22v-483l266 639q13 33 43 28 q13 -3 19.5 -15.5t1.5 -24.5l-6 -17q-4 -12 -0.5 -22t14.5 -13t23 4t16 19l53 123q5 13 17.5 19.5t25.5 0.5t17.5 -20.5t-0.5 -26.5l-5 -14q-10 -26 15 -33q22 -6 35 20l65 134q15 29 43 20q13 -4 18 -18.5t-1 -26.5l-342 -715l348 -522q14 -28 -11 -41q-12 -6 -27 -2 t-24 16l-6 9q-17 30 -45 16q-27 -15 -10 -45l4 -8q7 -10 3 -23.5t-17 -19.5q-24 -12 -43 18l-11 12q-17 24 -43 13q-13 -6 -16 -19.5t4 -23.5l6 -8q17 -27 -6 -43q-29 -16 -47 12l-236 346l-141 -285v-248q0 -13 -9.5 -22.5t-23.5 -9.5q-28 0 -28 32v11q0 13 -9.5 22.5 t-23.5 9.5t-23.5 -9.5t-9.5 -22.5v-70q0 -13 -10 -23t-23 -10t-22.5 9.5t-9.5 23.5v8q0 13 -9.5 23t-23.5 10t-23.5 -10t-9.5 -23v-67q0 -14 -8.5 -23.5t-20.5 -9.5q-13 0 -22.5 9.5t-9.5 23.5z" />
<glyph unicode="L" horiz-adv-x="1081" d="M188 141v1229q0 14 10 23.5t23 9.5t21 -9.5t8 -23.5v-6q0 -14 10 -23.5t23 -9.5t22.5 9.5t9.5 23.5v66q0 13 9.5 22.5t23.5 9.5t23.5 -9.5t9.5 -22.5v-5q0 -13 9.5 -22.5t23.5 -9.5t23 9.5t9 22.5v66q0 13 9.5 23t21.5 10q13 0 22 -9.5t9 -23.5v-1137l344 158 q30 13 43 -8q8 -14 4 -26t-16 -19l-4 -2q-26 -13 -17 -39q3 -11 18 -15t27 3l90 40q29 14 45 -12q14 -28 -12 -41l-8 -4q-22 -11 -12 -39q4 -13 18.5 -17t26.5 3l90 41q12 6 25.5 3.5t19.5 -11.5q16 -33 -16 -47l-660 -306q-48 -22 -98 -26q-10 -1 -19 0q-39 0 -75 14 l-89 41q-17 8 -27 19t-13.5 27t-4 24t-0.5 26z" />
<glyph unicode="M" horiz-adv-x="1536" d="M188 -158v1155q0 65 20 102t62 56l113 51q22 9 40.5 9t30 -5.5t22.5 -18t15.5 -22t10.5 -22.5l246 -565q7 -19 19 -16.5t19 28.5l215 782q26 91 44 119.5t71 52.5l131 62q20 9 39 9q20 0 38 -10q36 -20 36 -65l2 -1179q0 -14 -8 -23.5t-21 -9.5t-20.5 9.5t-7.5 23.5v8 q0 14 -9 23.5t-22 9.5q-14 0 -23.5 -10t-9.5 -23v-68q0 -13 -9.5 -23t-23.5 -10q-13 0 -20.5 10.5t-7.5 24.5v6q0 13 -10 23t-23 10t-23 -10t-10 -23v-65q0 -14 -8.5 -23.5t-20.5 -9.5q-13 0 -22.5 9.5t-9.5 23.5v522q0 116 20 229q1 6 -2 6t-4 -6l-203 -718 q-15 -53 -41 -81.5t-52 -29.5t-49.5 16t-35.5 47l-201 494q-2 3 -3.5 2.5t-0.5 -4.5q25 -82 25 -211v-553q0 -14 -9 -23.5t-22 -9.5t-21 9.5t-8 23.5v14q0 14 -9.5 23.5t-22.5 9.5q-14 0 -23.5 -10t-9.5 -23v-73q0 -14 -9.5 -23.5t-23.5 -9.5t-23.5 9.5t-9.5 23.5v12 q0 14 -9.5 23.5t-22.5 9.5t-23 -9.5t-10 -23.5v-72q0 -13 -8.5 -22.5t-20.5 -9.5q-14 0 -23.5 9.5t-9.5 22.5z" />
<glyph unicode="N" horiz-adv-x="1243" d="M176 -4v1178q0 57 13.5 84.5t48.5 44.5l122 57q18 8 36 8q16 0 31 -6q33 -13 52 -49l330 -635q0 -2 3 -3q1 0 1.5 1.5t-0.5 3.5q-31 95 -41 184t-10 219v443q0 14 10 23.5t23 9.5t20.5 -9.5t7.5 -23.5v-8q0 -14 9.5 -23.5t23.5 -9.5t23.5 9.5t9.5 23.5v67q0 13 9.5 23 t23.5 10q13 0 22.5 -9.5t9.5 -23.5v-6q0 -13 10 -23t23 -10t23 10t10 23v66q0 13 8.5 22.5t20.5 9.5q13 0 22.5 -9.5t9.5 -22.5v-1205q0 -45 -13 -66.5t-46 -35.5l-156 -70q-24 -11 -47.5 -2.5t-36.5 35.5l-333 635q0 4 -4 3l-1 -5q27 -104 39.5 -187t12.5 -217v-413 q0 -13 -10 -23t-23 -10t-21 9.5t-8 23.5v10q0 13 -10 23t-23 10t-22.5 -9.5t-9.5 -23.5v-70q0 -13 -9.5 -22.5t-23.5 -9.5t-23.5 9.5t-9.5 22.5v9q0 13 -9.5 22.5t-23.5 9.5t-23 -9t-9 -23v-68q0 -14 -8.5 -23.5t-20.5 -9.5q-13 0 -23 9.5t-10 21.5z" />
<glyph unicode="O" horiz-adv-x="1392" d="M98 580q0 125 28 240.5t85.5 222t154 195t224.5 146.5q83 38 171 47q30 3 59 3q57 0 110 -12q81 -18 153 -65.5t124.5 -118t82.5 -172.5q28 -96 28 -209q0 -8 -1 -15q-3 -155 -61.5 -309.5t-159.5 -241.5q-72 -58 -105 -68q-31 -9 -43 17q-7 19 23 36l6 5q11 8 13.5 19 t-5.5 22q-15 15 -47 -5q-33 -22 -64 -32q-37 -13 -53 6q-6 9 -1 20t18 17l8 4q14 8 17.5 19t-5.5 22q-16 19 -47 2q-29 -18 -74 -33q-15 -6 -27.5 -2.5t-17.5 12.5q-6 12 -0.5 24t19.5 18q268 96 284 435q1 12 1 23q0 84 -32 146q-36 72 -105 94q-26 9 -55 9q-48 0 -106 -24 q-118 -53 -191 -180t-73 -285q0 -70 17.5 -129t58.5 -105.5t102 -62.5q74 -21 100 -76q12 -26 12 -52q0 -29 -15 -59q-29 -56 -99 -79q-26 -10 -56 -10q-6 1 -14 1q-38 2 -80 11t-85 33t-83 54.5t-75.5 76.5t-62 99t-41.5 121.5t-15 144.5z" />
<glyph unicode="P" horiz-adv-x="1280" d="M-47 1014q-12 24 16 41l783 364q78 38 153 38q11 -1 23 -1q86 -6 153.5 -44.5t111 -109.5t48.5 -157q2 -30 2 -59q0 -162 -58 -267q-68 -123 -227 -196l-249 -117v-416q0 -14 -9.5 -23.5t-23.5 -9.5q-13 0 -21 9.5t-8 23.5v14q0 14 -9.5 23.5t-23.5 9.5q-13 0 -22.5 -9.5 t-9.5 -23.5v-73q0 -13 -10 -23t-23 -10t-23 10t-10 23v12q0 13 -10 23t-23 10t-22.5 -9.5t-9.5 -23.5v-72q0 -13 -8.5 -22.5t-20.5 -9.5q-14 0 -23.5 9.5t-9.5 22.5v934q-116 -55 -123 -57q-36 -9 -45 14q-10 25 19 41l10 4q27 14 14 43q-14 27 -43 11l-88 -39 q-12 -6 -25 -1.5t-18 15.5q-6 14 -2 26.5t16 18.5l9 4q11 5 16 16t0 25q-6 13 -19.5 16t-25.5 -4l-86 -34q-15 -6 -27.5 -2.5t-17.5 12.5zM709 803l141 67q106 49 106 174q0 53 -36 72q-15 8 -35 8q-27 0 -62 -16l-114 -53v-252z" />
<glyph unicode="Q" horiz-adv-x="1458" d="M127 557q0 169 47.5 316t160 276t283.5 205q75 33 158 40q23 2 45 2q60 0 118 -14q80 -18 151.5 -66.5t124.5 -119t81 -175.5q24 -87 24 -187q0 -21 -1 -43q-3 -87 -37 -201q53 -24 149.5 -71t118.5 -58q12 -6 17.5 -17.5t-0.5 -23.5q-5 -9 -17.5 -12.5t-27.5 2.5l-84 36 q-12 7 -25.5 4t-19.5 -16q-5 -14 0 -27t16 -18l6 -2q12 -6 16.5 -18.5t-1.5 -26.5q-5 -11 -18.5 -15.5t-25.5 1.5l-86 41q-29 16 -43 -11q-6 -14 -1.5 -26.5t16.5 -18.5l8 -4q30 -17 18 -41q-6 -11 -20.5 -15t-24.5 1l-108 49q-191 -270 -506 -278h-7q-54 0 -114 13 q-63 15 -134 53.5t-127 96.5t-93 154t-37 215zM459 586q0 -76 30.5 -142.5t93.5 -105.5q44 -26 96 -26q23 0 48 5q97 17 170 103l-102 49q-122 56 -122 163q0 28 9 60q10 34 35.5 56.5t57.5 29.5q24 6 49 6h16q33 -3 61 -16l117 -55q9 56 12 116v13q0 145 -86 210 q-47 36 -106 36q-52 0 -111 -27q-120 -55 -194 -184.5t-74 -290.5z" />
<glyph unicode="R" horiz-adv-x="1361" d="M-48.5 1031.5q4.5 11.5 17.5 17.5l738 348q85 41 177 49q24 2 47 2q65 0 122 -18q78 -24 130.5 -89.5t57.5 -164.5q1 -21 1 -42q0 -144 -55 -242q-63 -112 -198 -179l-24 -13l354 -311q10 -10 10.5 -22.5t-6.5 -16.5q-22 -17 -45 2l-41 29q-22 18 -43 0q-11 -11 -9 -23 t13 -22l4 -4q10 -11 9.5 -23t-11.5 -18q-25 -15 -49 6l-33 27q-8 8 -24.5 7t-26.5 -12q-11 -13 12 -36l4 -4q11 -11 10 -24t-12 -19q-9 -5 -18 -5q-19 0 -43 21l-311 289v-457q0 -14 -9.5 -23.5t-23.5 -9.5q-13 0 -21 9.5t-8 23.5v10q0 14 -9.5 23.5t-23.5 9.5 q-13 0 -22.5 -9.5t-9.5 -23.5v-69q0 -13 -10 -23t-23 -10t-23 10t-10 23v8q0 13 -10 23t-23 10t-22.5 -9.5t-9.5 -23.5v-68q0 -14 -8.5 -23.5t-20.5 -9.5q-14 0 -23.5 10t-9.5 23v934q-116 -55 -123 -57q-36 -9 -45 14q-10 26 19 43l4 2q13 6 18.5 19t-0.5 26q-6 12 -20 14 t-27 -6l-82 -36q-35 -10 -45 14q-6 14 -1 25.5t17 17.5l9 4q11 5 15.5 17t-1.5 26q-6 12 -21.5 13.5t-27.5 -5.5l-80 -33q-15 -6 -27.5 -2t-17.5 13q-6 12 -1.5 23.5zM709 827l141 68q58 27 89 63q30 35 30 91q-1 55 -35 71q-11 5 -26 6q-27 0 -66 -18l-133 -59v-222z" />
<glyph unicode="S" horiz-adv-x="1236" d="M78 778q-7 41 -7 80q0 110 54 198q73 120 225 191l424 199q39 17 53 -6q18 -30 -16 -49l-14 -9q-28 -14 -15 -39q6 -10 21 -12t28 4l91 45q32 16 49 -6q9 -12 6 -26t-16 -21l-15 -8q-12 -6 -17 -18.5t1 -24.5q7 -11 22 -14t27 4l92 45q11 7 27.5 6t23.5 -14q8 -13 4 -29 t-22 -25l-621 -288q-62 -30 -62 -82q0 -6 1 -13q6 -34 36 -50q16 -8 31 -8t31 7l238 107q81 36 160 36t140.5 -33t101 -102.5t42.5 -165.5v-14q0 -163 -88 -286q-92 -128 -258 -207l-336 -160q-31 -14 -52 -14q-18 0 -30 10q-11 11 -8 24t16 19l19 10q14 8 15 21t-9 20 q-9 8 -25 8t-30 -8l-45 -23q-28 -15 -49 -15q-17 0 -29 11q-10 11 -6.5 23.5t18.5 21.5l12 8q14 10 15.5 23.5t-8.5 20.5q-22 16 -60 -3l-78 -34q-15 -5 -28.5 -1.5t-18.5 13.5q-6 12 -1 24.5t18 18.5l661 317q65 32 65 93q0 7 -1 14q-3 36 -31 46q-9 3 -21 3q-20 0 -45 -12 l-239 -111q-65 -32 -131 -32q-12 0 -24 1q-78 7 -142.5 42.5t-110 101.5t-59.5 147z" />
<glyph unicode="T" horiz-adv-x="1032" d="M-88 1053q-13 26 16 41q20 11 903 424q37 10 46 -15q10 -23 -21 -41l-6 -4q-22 -16 -12 -39q5 -11 18 -14t27 4l82 37q12 6 25 1.5t18 -15.5q6 -13 0 -26.5t-19 -19.5l-8 -4q-9 -6 -13 -17t3 -26q7 -11 25.5 -12t29.5 6l68 33q34 13 47 -10q6 -12 2.5 -25.5t-15.5 -19.5 l-348 -164v-959q0 -14 -9 -23t-23 -9q-13 0 -21 9t-8 23v7q0 13 -9.5 22.5t-23.5 9.5t-23.5 -12.5t-9.5 -30.5v-55q0 -14 -9.5 -23.5t-22.5 -9.5t-23 10t-10 23v4q0 13 -10 23t-23 10q-14 0 -23.5 -12.5t-9.5 -30.5v-53q0 -14 -8 -23.5t-20 -9.5q-13 0 -23 9.5t-10 21.5v927 l-236 -108q-36 -9 -45 14q-10 25 19 41l4 2q27 14 14 43q-13 27 -43 10l-82 -36q-12 -6 -25 -1.5t-18 15.5q-6 14 -2 26.5t16 18.5l5 2q11 5 16 18t0 27q-6 13 -19.5 16t-25.5 -4l-80 -37q-15 -6 -28.5 -2t-18.5 13z" />
<glyph unicode="U" horiz-adv-x="1253" d="M160 344v786q0 14 10 23.5t23 9.5t20.5 -9.5t7.5 -23.5v-10q0 -14 9.5 -23.5t23.5 -9.5t23.5 9.5t9.5 23.5v70q0 14 9.5 23.5t22.5 9.5t23 -9.5t10 -23.5v-8q0 -14 10 -23.5t23 -9.5t23 9.5t10 23.5v67q0 14 8 23.5t20 9.5q14 0 23.5 -9t9.5 -22v-768q1 -75 49 -113 q28 -21 63 -22q27 0 58 12q65 26 101 92t36 154v819q0 13 10 23t23 10t21 -9.5t8 -23.5v-10q0 -13 10 -23t23 -10t22.5 9.5t9.5 23.5v70q0 13 9.5 23t23.5 10t23.5 -10t9.5 -23v-8q0 -13 9.5 -23t23.5 -10q13 0 22.5 9.5t9.5 23.5v67q0 14 8.5 23.5t20.5 9.5q13 0 23 -9.5 t10 -23.5v-790q0 -564 -432 -715q-72 -25 -146 -28h-18q-62 -1 -120 17q-66 20 -118 60.5t-82 106.5t-30 149z" />
<glyph unicode="V" horiz-adv-x="1064" d="M27.5 1067.5q4.5 16.5 19.5 22.5q14 7 28.5 0t20.5 -23l4 -10q5 -13 16.5 -19t24.5 0q25 10 17 47l-4 13q-9 35 12 47q17 9 32 2.5t21 -25.5l2 -6q5 -14 18.5 -20t26.5 0q27 13 19 49l-2 12q-12 36 14 49q15 7 29.5 1t19.5 -21l219 -780l152 974q3 17 14.5 27.5t26.5 9.5 q29 -3 24 -43l-2 -14q-3 -26 21 -29q12 -1 22.5 9t12.5 24l12 76q2 17 14 27.5t29 9.5q15 -1 21 -12t3 -27l-2 -11q-5 -26 19 -30q28 -2 39 33l16 71q3 17 15.5 29.5t29.5 11.5q31 -3 23 -45l-256 -1311q-10 -49 -28.5 -77.5t-57.5 -47.5l-193 -90q-31 -16 -55 -16 q-7 0 -13 1q-28 6 -42.5 20t-20.5 32l-360 1026q-6 17 -1.5 33.5z" />
<glyph unicode="W" horiz-adv-x="1486" d="M-6 1063q-10 31 16 43q13 6 27 1.5t18 -17.5l2 -7q12 -32 37 -24q33 11 21 47l-4 12q-10 27 14 41q15 8 29 2.5t18 -20.5l2 -8q3 -13 15.5 -18.5t25.5 -0.5q12 4 16.5 18t-0.5 27l-2 15q-8 31 17 40q13 6 26.5 2t16.5 -16l198 -780l80 883q4 41 19.5 61.5t42.5 32.5 l102 49q31 13 50.5 5t27.5 -32l264 -723l62 912q2 14 10.5 22.5t21.5 7.5q30 -3 27 -41v-8q-1 -13 6 -23t19 -12q11 -1 18.5 7.5t9.5 21.5l8 78q2 15 9 24.5t24 8.5q36 -4 31 -37l-2 -15q-5 -26 20 -30q14 -1 23.5 9.5t11.5 23.5l14 73q2 16 11.5 27t25.5 10q29 -3 25 -41 l-131 -1241q-6 -59 -18 -80t-52 -41l-180 -86q-19 -7 -35 -7q-42 0 -61 52l-203 539q-61 -660 -61 -662q-3 -51 -17 -77t-49 -41l-209 -97q-19 -9 -35 -9q-45 0 -67 65z" />
<glyph unicode="X" horiz-adv-x="1142" d="M88.5 1099.5q3.5 16.5 17.5 24.5q10 8 29 4.5t27 -20.5l8 -12q19 -28 45 -17q15 7 17 22t-7 27l-4 7q-9 8 -7 25t19 24q31 12 52 -23l4 -6q9 -13 24 -18.5t27 0.5q26 14 6 47l-4 6q-9 14 -5.5 28.5t17.5 20.5q15 7 31.5 2t24.5 -18l133 -219l125 364q12 36 45 33 q15 -2 22 -16t0 -31l-2 -6q-10 -30 17 -37q27 -9 41 28l36 99q13 41 43 35q36 -6 27 -43l-2 -11q-8 -31 18 -35q27 -3 41 31l43 109q12 35 45 26q20 -5 25.5 -17.5t1.5 -21.5l-301 -761l301 -467q6 -5 5 -23t-17 -24q-31 -13 -53 18l-5 6q-10 15 -25.5 20t-27.5 -1 q-28 -12 -8 -50l2 -4q8 -7 6 -25t-18 -26q-15 -8 -30 -2t-24 23l-4 8q-17 33 -47 18q-26 -18 -10 -49l4 -6q8 -13 4.5 -28t-16.5 -21q-16 -7 -31 -0.5t-22 18.5l-129 213l-103 -348q-5 -14 -17.5 -23t-27.5 -8q-33 5 -26 47l2 7q10 33 -19 40t-39 -28l-35 -105 q-10 -35 -41 -32q-19 3 -25.5 18t-2.5 25l2 6q4 17 -2.5 28t-16.5 13q-31 4 -43 -31l-39 -107q-15 -39 -49 -28q-31 8 -20 47l256 741l-285 463q-7 10 -3.5 26.5z" />
<glyph unicode="Y" horiz-adv-x="1075" d="M31.5 1170q0.5 24 17.5 32q10 4 18 4q21 0 35 -26l2 -4q17 -34 48 -21q13 6 17.5 19.5t-3.5 31.5l-2 4q-7 8 -4.5 25.5t20.5 24.5q33 10 49 -27l2 -4q7 -17 22.5 -21.5t25.5 2.5q26 16 8 52l-2 4q-11 37 16 49q30 12 49 -19l170 -368l131 530q4 11 7.5 17.5t12 11.5 t21.5 4q18 -1 25 -15t2 -32l-2 -6q-8 -31 20 -37q25 -6 37 29l39 102q10 41 43 35q19 -3 26.5 -15.5t2.5 -27.5l-2 -6q-8 -31 14 -37q24 -7 37 26l51 119q13 29 45 21q35 -9 27 -39l-365 -1022v-498q0 -14 -10 -23.5t-23 -9.5t-20.5 9.5t-7.5 23.5v10q0 14 -9.5 23.5 t-23.5 9.5t-23.5 -9.5t-9.5 -23.5v-69q0 -13 -10.5 -23t-24.5 -10q-13 0 -21.5 9.5t-8.5 23.5v8q0 13 -10 23t-23 10t-23 -10t-10 -23v-68q0 -14 -8 -23t-20 -9q-14 0 -23.5 9.5t-9.5 22.5v545l-336 627q-6 5 -5.5 29z" />
<glyph unicode="Z" horiz-adv-x="1394" d="M38 1125.5q4 12.5 17 19.5l682 319q44 21 87 22h7q39 0 69 -10q34 -11 83 -36l170 -86l-434 -879l354 172q31 12 43 -12q8 -12 5 -24.5t-15 -16.5l-10 -4q-12 -4 -15 -14t4 -19q8 -10 26.5 -13t39.5 5l39 16q29 14 45 -12q14 -28 -12 -41l-4 -2q-28 -17 -15 -43 q8 -12 27 -13t39 9l37 18q12 6 25.5 3.5t19.5 -11.5q16 -29 -15 -45l-805 -365l-202 99q-44 20 -56 60q-4 14 -3 27q0 26 14 52l420 815l-332 -155q-10 -7 -28 -6.5t-26 14.5q-6 10 -2 22.5t17 16.5l4 2q31 16 16 43q-15 21 -51 6l-63 -31q-17 -8 -30 -8q-18 0 -28 16 q-6 10 -2 23t17 20l16 8q21 9 12 37q-12 21 -51 6l-80 -32q-38 -17 -53 8q-7 7 -3 19.5z" />
<glyph unicode="[" horiz-adv-x="937" d="M176 -236v1289q0 68 24 110.5t83 69.5l215 96q24 14 43 -8q10 -15 5 -26.5t-18 -18.5l-4 -2q-29 -15 -10 -37q9 -10 26 -12t29 6l74 33q28 14 45 -13q14 -28 -12 -41l-8 -4q-27 -17 -9 -37q10 -11 28.5 -13t29.5 5l74 33q12 6 25.5 3.5t19.5 -11.5q10 -13 6.5 -29.5 t-21.5 -23.5l-243 -111q-55 -26 -68.5 -43.5t-13.5 -75.5v-1016h4q28 16 43 -8q8 -14 3.5 -26t-16.5 -19l-6 -4q-28 -14 -16 -39q8 -11 20.5 -15t24.5 3l92 43q29 14 45 -12q14 -28 -12 -41l-10 -7q-24 -15 -13 -38q8 -12 20.5 -16.5t24.5 1.5l93 43q12 6 25.5 3.5 t19.5 -11.5q10 -13 6.5 -29.5t-21.5 -23.5l-223 -103q-55 -24 -98 -4l-297 137q-29 15 -29 43z" />
<glyph unicode="\" horiz-adv-x="1273" d="M113 1125q-1 16 14 28q31 18 55 -14l58 -80q10 -15 25.5 -20t25.5 1q12 7 13.5 23t-7.5 29l-47 71q-21 35 10 51q29 15 51 -18l58 -84q13 -19 29 -24t24 4q25 22 4 53l-55 80q-9 12 -7 27t15 22q15 7 31 3.5t24 -15.5l733 -1037q4 -5 6.5 -14t-0.5 -20.5t-14 -16.5 q-31 -16 -55 14l-57 78q-25 31 -48 19q-33 -20 -6 -54l43 -67q8 -6 8.5 -22.5t-16.5 -28.5q-30 -18 -53 16l-53 80q-10 16 -28 20t-28 -4q-23 -17 -2 -49l47 -72q8 -10 6.5 -26.5t-14.5 -22.5q-32 -14 -53 15l-729 1030q-7 9 -8 25z" />
<glyph unicode="]" horiz-adv-x="937" d="M93.5 1227.5q3.5 16.5 21.5 23.5l223 103q55 24 98 4l297 -137q29 -15 29 -43v-1289q0 -68 -24 -110.5t-83 -69.5l-215 -96q-24 -14 -43 8q-10 15 -5 26.5t18 18.5l4 2q29 15 10 37q-9 10 -26 12t-29 -6l-74 -33q-28 -14 -45 13q-14 28 12 41l8 4q27 17 9 37 q-10 11 -28.5 13t-29.5 -5l-74 -33q-12 -6 -25.5 -3.5t-19.5 11.5q-10 13 -6.5 30t21.5 24l243 110q55 26 68.5 43.5t13.5 75.5v1016h-4q-28 -16 -43 8q-8 14 -3.5 26t16.5 19l6 4q28 14 16 39q-8 11 -20.5 15t-24.5 -3l-92 -43q-28 -14 -45 13q-14 28 12 41l10 6 q25 15 13 39q-8 12 -20.5 16t-24.5 -2l-93 -43q-12 -6 -25.5 -3.5t-19.5 11.5q-10 13 -6.5 29.5z" />
<glyph unicode="^" horiz-adv-x="1673" d="M414 866l135 482q18 65 76 92l182 84q61 29 117 -15l325 -268q11 -9 12.5 -21t-6.5 -18q-19 -15 -43 2l-84 64q-25 18 -41 2q-8 -8 -6.5 -18.5t11.5 -18.5l47 -41q8 -7 9 -21t-9 -22q-19 -17 -43 4l-70 61q-11 9 -25 10.5t-22 -7.5q-18 -22 2 -39l43 -39q24 -21 8 -41 t-45 2l-180 153l-68 -274q-8 -35 -39 -31q-25 3 -18 33l12 55q7 26 -14 33q-14 5 -26 -2t-15 -20l-39 -136q-3 -13 -13 -20.5t-22 -5.5q-13 2 -19.5 12.5t-2.5 24.5l14 53q6 27 -14 33q-25 6 -35 -25l-41 -133q-5 -14 -15 -22t-22 -5q-26 8 -16 43z" />
<glyph unicode="_" horiz-adv-x="1052" d="M-355.5 -676.5q4.5 11.5 17.5 17.5l1473 692q40 15 55 -6q6 -14 1 -26t-17 -17l-5 -2q-12 -6 -16.5 -17.5t2.5 -23.5q8 -11 22.5 -13.5t28.5 4.5l84 39q12 6 25 1.5t18 -15.5q6 -14 2 -26.5t-16 -18.5l-4 -2q-15 -7 -21 -19t4 -26q9 -10 27.5 -11.5t30.5 5.5l88 39 q15 5 27.5 1t17.5 -14q6 -12 1.5 -24.5t-17.5 -18.5l-1473 -690q-40 -15 -55 6q-6 14 -1 26t17 17l4 2q13 6 17.5 17.5t-2.5 23.5q-8 11 -23 13t-29 -5l-84 -38q-12 -6 -25 -1.5t-18 15.5q-6 14 -1.5 26.5t16.5 18.5l4 2q15 7 20.5 19t-4.5 26q-9 10 -27 11.5t-30 -5.5 l-88 -39q-15 -5 -27.5 -1t-17.5 14q-6 12 -1.5 23.5z" />
<glyph unicode="`" horiz-adv-x="1423" d="M413.5 1335.5q-4.5 14.5 2.5 26.5q13 22 45 8l92 -43q9 -5 20.5 -3t14.5 13q7 21 -17 33l-22 10q-12 6 -14.5 19t6.5 24q14 14 43 0l413 -192q18 -9 14 -30t-20 -27l-129 -60l-432 201q-12 6 -16.5 20.5z" />
<glyph unicode="a" horiz-adv-x="1112" d="M-4 334q-3 13 4 24l506 975q18 34 38 43q7 3 17 3q19 0 49 -11l219 -104l265 -1401q3 -13 -5 -24t-20 -13q-11 -3 -21.5 5.5t-11.5 21.5l-18 94q-3 13 -14 20.5t-23 5.5q-15 -1 -22.5 -12.5t-4.5 -23.5l2 -9q3 -12 -5 -22.5t-21 -11.5q-13 -3 -24 4.5t-13 19.5l-16 96 q-7 30 -39 27q-13 -1 -20.5 -12t-4.5 -25l2 -8q3 -14 -3 -25t-19 -14q-32 -3 -35 29l-47 260l-342 155l-86 -178q-16 -31 -43 -16q-26 15 -11 45l2 4q15 27 -14 41q-28 14 -43 -10l-8 -15q-6 -11 -18.5 -14t-24.5 4q-12 6 -15.5 19t3.5 24l2 4q12 27 -15 43q-26 16 -43 -12 l-8 -12q-6 -12 -17 -15.5t-20 2.5q-11 6 -14 19zM469 612l193 -92l-66 361z" />
<glyph unicode="b" horiz-adv-x="1349" d="M-70 393q-4 13 2 23q9 16 28 16q13 0 30 -8l84 -39q31 -9 43 12q12 27 -17 43l-4 2q-13 7 -16.5 20t2.5 23q10 16 28 16q12 0 29 -7l80 -37q29 -12 45 10q15 27 -16 43l-4 2q-13 7 -17 20t2 23q9 16 28 16q13 0 30 -8l92 -43v651l-336 156q-28 16 -14 41q15 25 57 6 l84 -37q30 -12 43 11q11 26 -16 38l-4 3q-29 16 -15 41q9 14 26 14q13 0 32 -8l71 -35q29 -14 45 8q15 27 -16 43l-2 2q-13 7 -17 20t2 23q9 16 28 16q13 0 30 -8l524 -245q187 -87 262.5 -191.5t75.5 -257.5q0 -93 -41.5 -147t-87.5 -68q89 -76 119 -165q20 -61 21 -132 q0 -33 -5 -68q-12 -89 -51.5 -150t-93 -88.5t-117.5 -34.5q-24 -3 -47 -3q-40 0 -78 8q-60 12 -113 37l-798 373q-13 7 -17 20zM690 375l152 -76q47 -19 74 -19q13 0 22 4q27 14 29 64q1 6 1 12q0 83 -114 136l-164 73v-194zM690 823l115 -55q37 -19 65 -19q14 1 25 5 q35 14 35 67q0 94 -107 144l-133 61v-203z" />
<glyph unicode="c" horiz-adv-x="1308" d="M113 844q17 213 161.5 358t339.5 176q38 6 76 6q64 0 126 -18q98 -29 245 -98l268 -123q29 -13 29 -37q0 -7 -2 -14q-4 -12 -21.5 -17.5t-29.5 0.5l-93 39q-12 6 -26 2.5t-21 -16.5q-7 -12 -2 -23.5t19 -19.5l4 -2q29 -13 12 -41q-16 -26 -45 -12l-102 40q-12 7 -25.5 3 t-19.5 -15q-6 -12 -1 -24.5t19 -18.5l6 -4q11 -6 15 -17.5t-3 -23.5q-12 -24 -43 -12l-223 104q-38 18 -77 18q-17 0 -33 -3q-56 -11 -99.5 -44t-71.5 -94t-28 -135q0 -82 20 -146.5t60 -112.5t89.5 -82.5t119.5 -67.5l346 -162q18 -8 21 -25.5t-7 -25.5q-22 -22 -47 -9 l-84 41q-30 15 -45 -10q-12 -25 10 -41l8 -4q22 -16 9 -43q-16 -26 -45 -12l-84 43q-12 7 -24.5 4t-18.5 -14q-7 -12 -3.5 -24.5t15.5 -18.5l4 -2q11 -5 15.5 -18.5t-3.5 -27.5q-15 -24 -43 -8l-274 129q-204 94 -308 278q-88 156 -88 352q0 36 3 73z" />
<glyph unicode="d" horiz-adv-x="1382" d="M-88 473q15 25 57 6l84 -39q30 -9 43 13q12 27 -16 43l-4 2q-13 7 -17 20t2 23q9 16 28 16q13 0 30 -8l80 -37q29 -12 45 10q15 27 -17 43l-4 2q-13 7 -16.5 20t2.5 23q16 26 57 8l86 -43v656l-327 153q-29 16 -15 41q10 16 29 16q13 0 29 -7l84 -39q35 -9 43 10 q13 22 -17 39l-4 2q-13 7 -16.5 20t2.5 23q16 26 57 8l78 -37q29 -12 45 10q15 27 -16 43l-5 3q-28 16 -14 40q15 26 57 7l467 -215q239 -110 338.5 -241t106.5 -366q1 -22 1 -43q1 -238 -83 -390q-90 -166 -264 -206q-48 -11 -101 -10q-139 0 -317 72q-3 0 -293.5 133.5 t-290.5 134.5q-28 16 -14 41zM666 434l43 -22q37 -18 75 -20q6 0 13 -1q32 0 60 11q34 13 60.5 40t42 72.5t15.5 103.5q0 108 -13 179.5t-44.5 119t-69.5 75t-103 57.5l-79 38v-653z" />
<glyph unicode="e" horiz-adv-x="1284" d="M121 575q4 52 26.5 94.5t54.5 68t63 40t59 17.5q-70 56 -100 138q-26 72 -25 141v18q5 99 58 172q53 74 133 108q79 34 179 33q1 1 3 1q101 0 200 -40l473 -219q12 -6 17 -22.5t-2 -30.5q-6 -9 -20 -12t-26 3l-88 41q-12 6 -24.5 2t-20.5 -16q-12 -24 15 -41l4 -2 q26 -13 12 -41q-16 -26 -45 -12l-88 41q-12 7 -24.5 5t-18.5 -13q-7 -12 -3.5 -25.5t15.5 -19.5l4 -3q30 -17 13 -43q-15 -24 -43 -8l-254 115q-23 10 -45 10q-17 0 -32 -6q-36 -14 -44 -49q-3 -13 -2 -24q0 -24 12 -42q19 -26 68 -49l524 -241q25 -14 12 -41 q-6 -8 -18 -10.5t-23 3.5l-78 39q-12 6 -24.5 2.5t-18.5 -14.5t-1 -22.5t16 -16.5l4 -4q10 -4 13.5 -15.5t-1.5 -21.5q-17 -24 -41 -10l-74 39q-10 6 -27.5 4t-21.5 -12q-11 -27 13 -39l4 -2q11 -5 14 -17t-4 -24q-14 -20 -39 -6l-283 131q-22 10 -42 10q-15 1 -29 -5 q-33 -14 -35 -48q-2 -29 9 -49.5t54 -40.5l656 -306q29 -15 14 -53q-4 -10 -18.5 -12t-26.5 4l-82 41q-30 15 -45 -8q-14 -29 12 -45l4 -4q12 -6 15.5 -17.5t-2.5 -23.5q-17 -27 -45 -13l-86 39q-12 8 -27.5 7t-22.5 -11q-6 -12 -2.5 -24.5t15.5 -18.5l4 -2q12 -7 17 -20 t-3 -27q-15 -24 -43 -8l-547 254q-65 36 -107 76q-42 41 -68 106q-20 51 -21 112q0 17 2 35z" />
<glyph unicode="f" horiz-adv-x="1212" d="M176 -23v1197q0 63 60 88q215 98 215 100q18 9 40 9q15 0 33 -5l693 -324q12 -6 16.5 -22.5t-2.5 -30.5q-6 -9 -19.5 -11.5t-25.5 3.5l-88 41q-12 6 -24.5 2t-20.5 -16q-12 -25 14 -41l4 -2q26 -13 12 -41q-17 -27 -45 -13l-88 41q-26 16 -43 -8q-6 -12 -2.5 -25.5 t15.5 -19.5l4 -2q29 -17 12 -43q-15 -24 -43 -8l-395 184v-221l481 -225q25 -14 12 -39q-6 -8 -18 -10t-23 4l-76 36q-27 13 -40 -10q-6 -9 -2 -23t14 -18l2 -2q10 -4 13.5 -15.5t-1.5 -21.5q-17 -24 -41 -10l-71 37q-10 7 -26.5 5t-23.5 -13q-6 -9 -2.5 -21t15.5 -18l4 -2 q11 -5 14 -17t-4 -24q-14 -20 -39 -6l-188 88l-2 -408q-2 -12 -11 -21t-22 -9t-21 9t-8 23v11q0 13 -9.5 22.5t-23.5 9.5q-13 0 -22.5 -9.5t-9.5 -22.5v-70q0 -13 -9.5 -23t-23.5 -10t-23.5 10t-9.5 23v8q0 13 -9.5 23t-23.5 10q-13 0 -22.5 -9.5t-9.5 -23.5v-70 q0 -13 -9.5 -22.5t-21.5 -9.5q-13 0 -22 9t-9 23z" />
<glyph unicode="g" horiz-adv-x="1347" d="M115 850q6 107 34 191t75.5 142.5t102.5 97t126 67.5q68 28 146 33q18 1 37 1q61 0 126 -12q84 -17 168.5 -46.5t181.5 -74.5l168 -78q12 -6 16.5 -20.5t-2.5 -28.5q-6 -10 -19.5 -13.5t-25.5 1.5l-88 41q-12 6 -24.5 2t-20.5 -16q-14 -28 14 -41l5 -2q26 -13 12 -41 q-17 -27 -45 -13l-88 41q-12 7 -24.5 5t-18.5 -13q-7 -12 -3.5 -25.5t15.5 -19.5l4 -2q11 -5 15.5 -17t-3.5 -26q-15 -24 -43 -8l-202 94q-38 15 -79 15q-1 1 -2 1q-40 0 -79 -17q-41 -16 -73 -48t-52 -87t-20 -126t13 -124.5t38 -97t71 -81.5t103.5 -71t144.5 -73l80 -36 v127q0 73 -51 98l-320 149q-12 8 -17 20.5t1 24.5q7 14 23.5 18t29.5 -3l68 -31q33 -14 53 6q15 21 -10 33l-4 2q-16 7 -19.5 20.5t6.5 22.5q12 12 28 12q15 0 34 -10l45 -22q34 -15 57 2q21 21 -8 38l-2 3q-14 7 -17.5 20t3.5 23q14 23 57 4l293 -138q74 -36 74 -116v-404 q0 -37 -8.5 -52.5t-45.5 -33.5l-237 -112q-34 -17 -67.5 -17t-65.5 17l-310 145q-184 87 -285 273q-90 166 -90 360q0 24 1 47z" />
<glyph unicode="h" horiz-adv-x="1210" d="M139 307v1256q0 13 9.5 22.5t23.5 9.5q12 0 20.5 -9.5t8.5 -22.5v-70q0 -14 9.5 -23.5t22.5 -9.5t23 10t10 23v10q0 13 10 23t23 10t23 -10t10 -23v-71q0 -14 10 -23.5t23 -9.5t22.5 9.5t9.5 23.5v12q0 14 8 23.5t21 9.5q14 0 23.5 -9.5t9.5 -23.5v-518l282 -133v489 q0 13 9.5 22t23.5 9q12 0 20.5 -9.5t8.5 -23.5v-70q0 -13 9.5 -22.5t23.5 -9.5t23 9t9 23v11q0 13 9.5 22.5t23.5 9.5t23.5 -9.5t9.5 -22.5v-72q0 -13 10 -23t23 -10t22.5 9.5t9.5 23.5v12q0 14 8 23.5t21 9.5q14 0 23.5 -10t9.5 -23v-1255q0 -14 -9.5 -23.5t-23.5 -9.5 q-12 0 -20.5 9.5t-8.5 23.5v69q0 14 -9.5 23.5t-22.5 9.5t-23 -10t-10 -23v-10q0 -13 -10 -23t-23 -10t-23 10t-10 23v72q0 14 -9.5 23.5t-22.5 9.5q-14 0 -23.5 -10t-9.5 -23v-12q0 -14 -8 -23.5t-21 -9.5q-14 0 -23.5 10t-9.5 23v485l-282 133v-457q0 -13 -9.5 -21.5 t-23.5 -8.5q-12 0 -20.5 9.5t-8.5 22.5v70q0 14 -9.5 23.5t-22.5 9.5t-23 -9.5t-10 -23.5v-10q0 -14 -10 -23.5t-23 -9.5t-23 9.5t-10 23.5v71q0 13 -10 23t-23 10t-22.5 -9.5t-9.5 -23.5v-12q0 -14 -8 -23.5t-21 -9.5q-14 0 -23.5 10t-9.5 23z" />
<glyph unicode="i" d="M188 102v1330q0 13 9.5 21.5t23.5 8.5q12 0 20.5 -9.5t8.5 -22.5v-66q0 -14 10 -23.5t23 -9.5t22.5 9.5t9.5 23.5v6q0 14 9.5 23.5t23.5 9.5t23.5 -9.5t9.5 -23.5v-67q0 -13 9.5 -23t23.5 -10q13 0 22.5 9.5t9.5 23.5v8q0 14 8 23t21 9q14 0 23.5 -9.5t9.5 -22.5v-1327 q0 -14 -10 -23.5t-23 -9.5q-12 0 -20.5 9.5t-8.5 23.5v71q0 14 -9.5 23.5t-22.5 9.5q-14 0 -23.5 -10t-9.5 -23v-12q0 -13 -9.5 -23t-23.5 -10t-23.5 10t-9.5 23v74q0 14 -9.5 23.5t-22.5 9.5t-23 -10t-10 -23v-15q0 -14 -8 -23t-21 -9q-14 0 -23.5 9.5t-9.5 22.5z" />
<glyph unicode="j" horiz-adv-x="884" d="M4 582v110q0 14 10 23.5t23 9.5t23 -9.5t10 -23.5v-51q0 -34 32 -41q31 -7 31 27v6q0 13 9.5 23t23.5 10t23.5 -10t9.5 -23v-51q0 -34 32 -41q12 -3 21.5 4t9.5 22v6q0 14 8 23.5t21 9.5t23 -10t10 -23v-176q0 -14 8.5 -23t21.5 -9t22 9t9 23v1063q0 13 9.5 22t23.5 9 q12 0 20 -9.5t8 -23.5v-65q0 -13 10 -23t23 -10t23 10t10 23v6q0 13 10 23t23 10t23 -10t10 -23v-68q0 -14 9.5 -23.5t22.5 -9.5q14 0 23.5 10t9.5 23v8q0 14 8 23.5t21 9.5t22 -9.5t11 -23.5v-1063q0 -75 -40.5 -133t-101.5 -86q-58 -27 -129 -27h-8q-75 2 -141 38 q-142 78 -211.5 214t-69.5 300z" />
<glyph unicode="k" horiz-adv-x="1212" d="M170 176v1329q0 13 9.5 22t23.5 9q12 0 20 -9.5t8 -23.5v-49q0 -39 33 -43q16 -1 24.5 8t8.5 21v4q0 14 9.5 23.5t23.5 9.5q13 0 22.5 -9.5t9.5 -23.5v-51q0 -38 33 -43q16 -3 24.5 6.5t8.5 21.5v6q0 14 8 23.5t21 9.5t22.5 -9.5t9.5 -23.5v-589l404 393q20 26 45 8 q23 -20 2 -45l-4 -4q-9 -7 -10 -19t10 -22q11 -7 22 -7q18 0 37 19l17 17q23 23 45 8q12 -9 11.5 -22.5t-11.5 -24.5l-4 -4q-20 -20 -2 -41q10 -8 22 -8q17 0 35 18l18 16q22 22 45 10q14 -9 12 -25.5t-12 -25.5l-378 -362l323 -903q6 -28 -20 -39q-12 -4 -22 2t-15 18 l-37 101q-13 34 -41 34t-20 -32l2 -9q7 -31 -23 -41q-12 -3 -23 4t-16 21l-29 86q-11 37 -43 37q-14 0 -21 -10t-1 -25l2 -6q10 -28 -18 -37q-11 -3 -23 4t-16 19l-195 571l-68 -57v-355q0 -13 -9.5 -22.5t-22.5 -9.5q-12 0 -20.5 9.5t-8.5 22.5v47q0 39 -33 46 q-33 8 -33 -29v-4q0 -14 -9.5 -23.5t-22.5 -9.5q-14 0 -23.5 10t-9.5 23v49q0 37 -33 45t-33 -29v-6q0 -14 -7.5 -23.5t-20.5 -9.5t-23 9.5t-10 23.5z" />
<glyph unicode="l" horiz-adv-x="1024" d="M188 365v991q0 40 31 47q14 3 22.5 -6.5t8.5 -20.5v-12q0 -13 10.5 -20.5t24.5 -4.5q30 8 30 54v24q0 41 33 45q13 1 23 -8.5t10 -21.5v-7q0 -13 9.5 -20t23.5 -4q30 8 30 55v35q0 13 10.5 23t22.5 10q13 0 22 -9.5t9 -23.5v-1006q0 -35 18 -43l588 -274q32 -14 16 -47 q-6 -9 -19.5 -11.5t-25.5 3.5l-75 34q-19 9 -33 9q-18 0 -29 -13q-9 -11 -5.5 -23t15.5 -18l13 -6q26 -13 12 -41q-16 -26 -45 -12l-80 39q-37 18 -57 -4q-8 -11 -3.5 -24t17.5 -19l8 -4q12 -7 16.5 -19t-3.5 -26q-14 -22 -43 -9l-486 228q-69 31 -94 64t-25 96z" />
<glyph unicode="m" horiz-adv-x="1536" d="M174 377v1171q0 46 32 68q17 12 36 12q17 0 37 -10l239 -113l277 -858q3 -12 8 0l231 512q27 58 76 58q23 0 51 -13l187 -86v-1276q0 -13 -9.5 -22.5t-23.5 -9.5q-12 0 -20.5 9.5t-8.5 22.5v23q0 33 -5.5 51t-25.5 23q-17 4 -25.5 -5.5t-8.5 -25.5v-6q0 -14 -9.5 -23.5 t-23.5 -9.5t-23.5 9.5t-9.5 23.5v26q0 63 -31 72q-17 5 -25.5 -5t-8.5 -26v-8q0 -14 -8 -23.5t-21 -9.5t-22 9.5t-9 23.5v709q-13 -28 -256 -576q-3 -6 -6 0l-285 842v-698q0 -29 -32 -23q-29 7 -29 33v33q0 44 -33 57q-29 12 -29 -25v-16q0 -9 -8 -18t-24 -5q-13 3 -22 15 t-9 26v25q0 49 -31 59q-17 5 -22.5 -2.5t-5.5 -23.5v-8q0 -15 -9.5 -25.5t-23.5 -7.5q-31 7 -31 45z" />
<glyph unicode="n" horiz-adv-x="1187" d="M133 391v1186q1 51 27 72q13 10 32 10q21 0 50 -12l200 -95l308 -909q0 -2 3 -3q1 0 1.5 1.5t-0.5 3.5q-12 52 -25.5 189.5t-13.5 242.5v293q0 14 9.5 23.5t23.5 9.5q12 0 20 -9.5t8 -23.5v-49q0 -16 8.5 -31.5t24.5 -19.5q17 -4 25 6.5t8 26.5v8q0 13 9 22.5t23 9.5 t23.5 -9.5t9.5 -22.5v-51q0 -47 33 -52q17 -3 25 7t8 26v10q0 14 7.5 23.5t20.5 9.5t23 -10t10 -23v-1304l-213 96q-80 36 -110 121l-305 885q0 4 -4 3l-1 -5q18 -76 35 -210t17 -219v-348q0 -12 -10 -21t-23 -9q-12 0 -20.5 9.5t-8.5 22.5v39q0 58 -33 64q-16 3 -24 -7.5 t-8 -25.5v-10q0 -14 -10 -23.5t-23 -9.5t-23 9.5t-10 23.5v49q0 49 -33 55q-13 3 -22.5 -8t-9.5 -25v-12q0 -14 -8 -23.5t-21 -9.5q-14 0 -23.5 10t-9.5 23z" />
<glyph unicode="o" horiz-adv-x="1402" d="M76 846v19q0 133 40 241q43 116 118 184q74 70 169 104q78 28 163 28q20 0 38 -2q106 -8 205 -52q170 -77 284 -208t163 -280t49 -317q0 -76 -15.5 -143.5t-42 -119.5t-62 -96t-76.5 -74t-84.5 -51t-86 -30.5t-81 -9.5t-69.5 10q-70 23 -100 80q-16 30 -15 60q0 27 12 53 q26 56 101 73q85 21 132 102.5t47 186.5q0 160 -69.5 280t-195.5 177q-50 24 -95 24q-11 0 -23 -2q-56 -8 -97 -41q-41 -34 -63 -92q-19 -50 -19 -108v-21q8 -165 75.5 -272.5t209.5 -154.5q14 -5 19.5 -17.5t-0.5 -24.5q-5 -9 -17.5 -12.5t-27.5 2.5q-26 9 -44 18 q-40 22 -59 5q-10 -9 -8 -20t16 -19l8 -4q8 -3 11 -11.5t-2 -19.5q-9 -14 -28 -14q-14 0 -34 8q-29 12 -53 28q-29 20 -49 4q-22 -19 2 -36l8 -5q27 -16 19 -38q-9 -21 -41 -15q-32 10 -105 68q-102 85 -163 242.5t-64 312.5z" />
<glyph unicode="p" horiz-adv-x="1171" d="M-86 1368q15 25 57 6l86 -37q30 -12 43 11q11 26 -16 38l-4 3q-32 18 -17 41q9 14 26 14q13 0 32 -8l72 -35q29 -14 45 8q15 27 -17 43l-2 2q-29 16 -14 43q16 26 57 8l567 -266q182 -86 252 -217q47 -86 47 -203q0 -58 -12 -123q-6 -39 -26.5 -81.5t-56.5 -85.5 t-86.5 -68t-116.5 -28h-11q-62 0 -137 34l-102 45v-539q0 -38 -33 -32q-29 5 -29 41v45q0 39 -33 45q-15 3 -23.5 -6t-8.5 -27v-6q0 -36 -33 -33t-33 47v41q0 39 -31 45q-17 3 -24.5 -6t-7.5 -27v-8q0 -17 -8.5 -26t-22.5 -7q-33 3 -33 45v1070l-332 153q-29 16 -14 41z M580 772l118 -57q30 -14 53 -14q19 0 34 9q33 21 38 78q1 11 1 21q0 49 -20 81q-24 40 -87 71l-137 63v-252z" />
<glyph unicode="q" horiz-adv-x="1540" d="M129 776q4 123 36 227t84 176t120.5 122t144.5 71q65 18 132 18q13 0 26 -1q81 -4 159 -35q98 -39 175.5 -95.5t128 -121t86 -139t50 -150.5t19.5 -154q2 -28 2 -55q0 -50 -6 -96l-4 -29l371 -184q29 -15 16 -41q-5 -9 -17.5 -12.5t-27.5 2.5l-100 45q-12 7 -25.5 3.5 t-19.5 -16.5q-5 -14 0 -27t16 -18l4 -2q12 -6 16 -18.5t-2 -26.5q-5 -11 -18 -15.5t-25 1.5l-90 43q-30 17 -43 -10q-13 -29 15 -43l4 -2q30 -17 18 -41q-6 -11 -20.5 -15.5t-24.5 0.5l-168 80q-71 -90 -166.5 -139.5t-183.5 -52.5h-28q-129 0 -237 42q-120 47 -197 125 t-129 180t-73 204q-18 89 -18 175v25zM418 801q-2 -23 -2 -45q0 -149 72 -268q81 -135 235 -177q36 -10 68 -10q65 0 112 39l-125 61q-64 30 -100 89q-21 36 -21 78q0 27 9 57q14 46 50 71q35 23 76 23q2 0 4 -1q44 -1 89 -18l114 -51q-15 334 -272 410q-41 10 -82 11h-2 q-40 0 -78 -18q-39 -19 -70 -49t-51.5 -82.5t-25.5 -119.5z" />
<glyph unicode="r" horiz-adv-x="1183" d="M-106 1362q15 25 57 6l72 -33q35 -14 55 6q9 11 3.5 21.5t-20.5 17.5l-4 2q-29 16 -14 41t57 7l68 -31q29 -14 45 8q7 11 4 22.5t-14 16.5l-4 2q-30 17 -15 43q9 16 28 16q13 0 30 -8l567 -266q301 -142 301 -459q0 -36 -4 -74q-10 -93 -71.5 -154t-141.5 -77l311 -723 q5 -10 0.5 -22.5t-14.5 -16.5t-22 1t-17 16l-45 98q-7 13 -11 18.5t-12.5 12.5t-19.5 8q-13 1 -20.5 -8t-2.5 -21l4 -12q4 -11 0 -23t-18 -16q-12 -3 -24.5 4t-18.5 20l-45 95q-18 36 -43 34q-14 -1 -18 -12t2 -20l4 -8q12 -28 -17 -37q-11 -3 -23 2.5t-16 15.5l-274 649 v-483q0 -15 -10 -24.5t-23 -6.5q-28 6 -28 41v39q0 26 -5.5 35t-23.5 14q-16 4 -24.5 -5.5t-8.5 -27.5v-10q0 -13 -9.5 -22t-23.5 -6q-32 6 -32 43v39q0 44 -33 51q-17 3 -25 -6t-8 -27v-6q0 -16 -9 -25.5t-20 -7.5q-17 3 -24.5 11.5t-7.5 25.5l2 1001l-332 154 q-29 16 -14 41zM553 780l125 -59q29 -15 53 -15q19 0 35 10q36 22 37 81q0 53 -23.5 90.5t-83.5 66.5l-143 66v-240z" />
<glyph unicode="s" horiz-adv-x="1280" d="M-23 242.5q-4 13.5 3 23.5q16 26 57 8l74 -34q39 -15 51 12t-15 39l-4 2q-13 7 -16.5 20t2.5 23q16 26 57 8l80 -37q32 -13 47 12q12 26 -18 41l-4 2q-13 7 -17 20.5t2 23.5q9 16 28 16q13 0 30 -8l364 -170q31 -14 59 -0.5t34 47.5q6 32 -12 58.5t-48 41.5l-336 158 q-103 48 -167 121.5t-83 153.5q-12 50 -12 100q1 30 5 60q12 80 52 151q43 73 121.5 116.5t180.5 46.5h11q97 0 204 -49l561 -265q32 -14 16 -46q-6 -9 -19.5 -11.5t-25.5 3.5l-70 31q-22 10 -37.5 9.5t-25.5 -9.5q-9 -9 -5.5 -23t15.5 -20l8 -5q12 -6 15.5 -17.5 t-2.5 -23.5q-16 -26 -45 -12l-78 37q-36 16 -56 -4q-9 -11 -3.5 -23.5t18.5 -19.5l4 -2q12 -7 16 -19t-4 -26q-13 -21 -43 -8l-334 157q-26 10 -47 10q-16 0 -29 -6q-30 -14 -40 -43q-10 -28 2 -56t47 -44l291 -137q117 -55 188.5 -120t97.5 -137q21 -58 20 -117 q0 -14 -1 -28q-6 -73 -41 -157q-35 -81 -119 -139q-83 -56 -183 -68q-22 -3 -44 -3q-77 0 -154 32l-606 284q-13 6 -17 19.5z" />
<glyph unicode="t" horiz-adv-x="1038" d="M-94 1343q5 9 18.5 13t28.5 -2l59 -27q11 -7 34 -6.5t30 12.5q7 14 2.5 25t-15.5 16l-8 4q-12 6 -15.5 18.5t3.5 24.5q7 10 19.5 15.5t23.5 -0.5l70 -33q13 -8 30 -7.5t25 13.5q7 12 2.5 24.5t-16.5 18.5l-9 4q-27 15 -14 39q12 21 51 12l885 -413q28 -17 16 -41 q-5 -9 -18.5 -13t-28.5 2l-59 27q-11 7 -34 6.5t-30 -12.5q-7 -14 -2.5 -25t15.5 -16l8 -4q12 -6 15.5 -18.5t-3.5 -24.5q-7 -10 -18.5 -14.5t-24.5 0.5l-69 32q-13 8 -30.5 7.5t-25.5 -13.5q-7 -12 -2.5 -24.5t17.5 -18.5l8 -4q27 -15 14 -39q-12 -21 -51 -12l-229 106 v-927q0 -12 -10 -21.5t-23 -9.5q-12 0 -20.5 9.5t-8.5 23.5v47q0 40 -33 49q-17 4 -24.5 -4.5t-7.5 -28.5v-4q0 -13 -9.5 -23t-23.5 -10t-23.5 10t-9.5 23v45q0 44 -29 53q-18 6 -27.5 -3t-9.5 -29v-7q0 -32 -28 -32q-14 0 -23.5 9.5t-9.5 22.5v959l-336 156q-27 17 -16 40z " />
<glyph unicode="u" horiz-adv-x="1222" d="M129 754v790q0 14 9.5 23.5t23.5 9.5q12 0 20 -9.5t8 -23.5v-67q0 -13 10 -23t23 -10t23 10t10 23v8q0 13 10 23t23 10t23 -10t10 -23v-70q0 -14 9.5 -23.5t22.5 -9.5q14 0 23.5 10t9.5 23v10q0 14 8 23.5t21 9.5q14 0 23.5 -10t9.5 -23v-807q0 -163 137 -235 q36 -16 70 -16q5 1 9 1q38 2 64.5 33.5t26.5 81.5v768q0 13 9 22t23 9q12 0 20.5 -9.5t8.5 -23.5v-67q0 -14 9.5 -23.5t23.5 -9.5t23.5 9.5t9.5 23.5v8q0 14 9.5 23.5t22.5 9.5t23 -9.5t10 -23.5v-70q0 -14 10 -23.5t23 -9.5t23 9.5t10 23.5v10q0 14 7.5 23.5t20.5 9.5 q14 0 23.5 -9.5t9.5 -23.5v-786q0 -84 -38 -150t-99 -102q-61 -38 -134 -54q-50 -11 -101 -11q-23 1 -47 3q-74 8 -134 36q-393 188 -393 688z" />
<glyph unicode="v" horiz-adv-x="1064" d="M10 1497q-3 17 3 29.5t22 13.5q18 1 28.5 -10t12.5 -29l20 -76q5 -37 39 -32q24 4 19 32l-2 11q-7 36 26 39q16 1 25.5 -9.5t13.5 -25.5l14 -80q2 -12 11.5 -22t25.5 -9q12 1 18 9.5t3 19.5l-4 18q-8 35 24 39q14 1 25 -9t14 -26l158 -962l215 772q3 13 17.5 17.5 t29.5 -1.5q24 -12 18 -43l-4 -14q-3 -15 1.5 -29t17.5 -18q13 -6 27 -0.5t18 18.5l2 6q5 16 19.5 21.5t31.5 -2.5q22 -12 14 -43l-4 -15q-8 -35 23 -47q30 -10 39 25l2 8q4 15 18 20t29 -3q14 -6 19 -20t1 -28l-393 -1118l-268 125q-50 23 -74.5 60t-36.5 102z" />
<glyph unicode="w" horiz-adv-x="1515" d="M68 1714q-2 16 5 28t21 13q16 1 26.5 -10t12.5 -27l10 -73q4 -36 35 -31q10 2 18 11.5t5 21.5l-2 10q-3 15 5 25t23 12q29 2 33 -31l8 -80q2 -13 10.5 -21.5t22.5 -7.5q11 1 17 10t4 17l-3 16q-3 38 29 41q13 1 22 -7.5t11 -22.5l61 -912l265 723q8 24 27 32t50 -5 l156 -74l88 -952l197 772q4 16 17 21.5t28 0.5q26 -9 18 -40l-4 -21q-8 -36 16 -45q12 -5 24 -1t15 17l4 17q4 15 18.5 20.5t29.5 -2.5q28 -16 18 -43l-6 -16q-12 -36 20 -47q22 -7 35 26l2 6q6 17 19 22.5t26 -1.5q27 -12 17 -43l-365 -1124l-246 112q-50 23 -70.5 51 t-31.5 86q0 -1 -15.5 164.5t-30.5 331.5l-15 166l-234 -614l-199 94q-55 25 -82.5 57t-33.5 86z" />
<glyph unicode="x" horiz-adv-x="1122" d="M63 260q-1 18 5 23l301 467l-301 761q-6 5 0 19.5t26 19.5q33 9 45 -26l43 -113q13 -35 41 -31q10 2 16 12.5t3 24.5l-2 8q-5 16 1.5 30.5t22.5 17.5q32 6 45 -35l37 -99q14 -37 41 -28q12 3 16.5 14t-0.5 23l-2 6q-5 17 1.5 30.5t21.5 16.5q29 3 41 -33l125 -364 l133 219q8 13 24 18t31 -2q28 -12 13 -49l-7 -10q-20 -33 7 -50q10 -9 26 -3t27 26l4 8q19 36 51 23q17 -7 19 -25.5t-7 -23.5l-4 -9q-10 -15 -6 -29t17 -20q9 -5 18 -5q20 0 35 26l4 6q17 24 36 24q9 0 19 -6q12 -9 11.5 -27t-9.5 -30l-280 -455l256 -741q11 -40 -17 -47 q-34 -11 -49 28l-39 105q-15 43 -45 35q-10 -2 -16 -14.5t0 -28.5l2 -6q4 -10 -3 -25t-26 -18q-31 -3 -41 32l-31 99q-11 41 -45 34q-26 -7 -16 -40l2 -7q7 -42 -27 -47q-15 -1 -27.5 8t-17.5 23l-102 348l-129 -213q-7 -12 -22 -18.5t-31 0.5q-13 6 -15 21t6 28l5 6 q17 33 -7 49q-29 14 -51 -20l-4 -6q-25 -35 -53 -21q-17 8 -18.5 26t6.5 25l4 6q18 36 -15 50q-27 13 -49 -21l-4 -6q-22 -31 -53 -18q-16 6 -17 24z" />
<glyph unicode="y" horiz-adv-x="1060" d="M8 1608q-8 30 27 39q30 8 45 -27l53 -117q11 -28 37 -24q28 5 18 34l-4 11q-12 36 23 43q29 3 43 -35l41 -100q13 -35 41 -29q12 3 17 14t-1 23l-2 4q-8 15 0.5 30.5t26.5 16.5q13 1 21.5 -4t12 -11.5t7.5 -17.5l131 -530l170 368q19 31 49 19q13 -6 19 -20t1 -29l-6 -19 q-11 -32 13 -47q27 -15 40 23l5 10q6 17 20 24.5t29 2.5q18 -7 21 -25t-3 -25l-6 -14q-14 -36 18 -49q28 -8 46 29l2 4q14 26 35 26q8 0 18 -4q18 -8 19.5 -28t-7.5 -33l-336 -627v-545q0 -13 -9.5 -22.5t-23.5 -9.5q-12 0 -20 9t-8 23v47q0 16 -8 30t-25 17 q-14 2 -23.5 -6.5t-9.5 -21.5v-6q0 -14 -8.5 -23.5t-21.5 -9.5q-14 0 -24.5 10t-10.5 23v49q0 18 -9 31t-24 14q-14 2 -23.5 -6t-9.5 -21v-8q0 -14 -7.5 -23.5t-20.5 -9.5q-14 0 -23.5 9.5t-9.5 23.5v498z" />
<glyph unicode="z" horiz-adv-x="1173" d="M26 316.5q-2 15.5 7.5 46t29.5 53.5q64 74 213 235.5t266 286.5l117 125l-553 264q-31 15 -14 45q6 9 19.5 11.5t25.5 -3.5l41 -20q11 -7 29.5 -6.5t28.5 10.5q13 12 10 24.5t-17 18.5l-8 4q-26 13 -12 41q16 26 45 12l45 -18q12 -8 28.5 -6t26.5 12q10 11 6.5 22 t-16.5 17l-4 2q-11 5 -15 17t3 24q6 12 18.5 15t24.5 -3l651 -303q37 -18 59.5 -34t30 -27.5t9.5 -23t-1 -21.5q-649 -723 -653 -723l557 -271q13 -6 17 -19t-3 -20q-17 -24 -53 -8l-80 35q-31 9 -43 -12q-10 -29 17 -39l4 -2q13 -7 17.5 -20.5t-3.5 -22.5q-20 -25 -57 -8 l-64 32q-26 11 -41 -10q-16 -28 19 -43l8 -4q8 -3 8.5 -15.5t-6.5 -21.5q-10 -12 -28.5 -12.5t-28.5 6.5l-680 338q1 4 -1 19.5z" />
<glyph unicode="{" horiz-adv-x="1044" d="M154 512v16q44 17 77 79.5t33 127.5v318q0 68 24 110.5t83 69.5l286 131q28 16 43 -8q8 -14 4 -26t-16 -19l-76 -37q-28 -14 -16 -39q8 -11 20.5 -15t24.5 3l162 75q29 14 45 -12q14 -28 -12 -41l-80 -39q-25 -15 -13 -39q8 -12 20.5 -16t24.5 2l162 76q12 6 25.5 3.5 t19.5 -11.5q10 -13 7 -30t-21 -24l-315 -145q-55 -26 -68.5 -43.5t-13.5 -75.5v-311q0 -65 -33.5 -127.5t-77.5 -79.5v-16q51 -22 81 -83t30 -141v-258l73 33q28 16 43 -8q8 -14 4 -26t-16 -19l-76 -37q-28 -14 -16 -39q8 -11 20.5 -15t24.5 3l162 76q28 14 45 -13 q14 -28 -12 -41l-80 -39q-24 -15 -13 -38q8 -12 20.5 -16.5t24.5 1.5l162 76q12 6 25.5 3.5t19.5 -11.5q10 -13 7 -29.5t-21 -23.5l-293 -136q-55 -24 -98 -4l-297 137q-29 15 -29 43v525q0 78 -29.5 136.5t-80.5 86.5z" />
<glyph unicode="|" horiz-adv-x="598" d="M203 -16v1327q0 13 9.5 22.5t23.5 9.5q28 0 28 -32v-84q0 -13 10 -23t23 -10t23 10t10 23v143q0 14 9.5 23.5t22.5 9.5q14 0 23.5 -9.5t9.5 -23.5v-1327q0 -13 -9.5 -23t-23.5 -10q-13 0 -22.5 9.5t-9.5 23.5v82q0 13 -10 23t-23 10t-23 -10t-10 -23v-141q0 -14 -8 -23.5 t-20 -9.5q-14 0 -23.5 9.5t-9.5 23.5z" />
<glyph unicode="}" horiz-adv-x="1044" d="M42 -251q3 17 21 24l316 145q55 26 68.5 43.5t13.5 75.5v311q0 65 33 127.5t77 79.5v16q-51 22 -80.5 83t-29.5 141v258l-74 -33q-28 -16 -43 8q-8 14 -4 26t16 19l76 37q29 15 17 39q-8 11 -21 15t-25 -3l-161 -76q-28 -14 -45 13q-14 28 12 41l80 39q24 15 12 39 q-8 12 -20.5 16t-24.5 -2l-162 -76q-12 -6 -25.5 -3.5t-19.5 11.5q-10 13 -7 30t21 24l293 135q55 24 99 4l297 -137q28 -14 28 -43v-525q0 -78 30 -136t81 -87v-16q-44 -17 -77.5 -79.5t-33.5 -127.5v-318q0 -68 -24 -110.5t-82 -69.5l-287 -131q-28 -16 -43 8q-8 14 -4 26 t16 19l76 37q29 15 17 39q-8 11 -21 15t-25 -3l-161 -75q-29 -14 -45 12q-14 28 12 41l80 39q24 15 12 39q-8 12 -20.5 16t-24.5 -2l-162 -76q-12 -6 -25.5 -3.5t-19.5 11.5q-10 13 -7 30z" />
<glyph unicode="~" horiz-adv-x="1427" d="M61 387v90q0 273 168 375q81 50 157 64t135.5 -2t113.5 -46.5t100.5 -68t88 -68.5t84 -46.5t79.5 -2.5q19 7 33.5 19.5t24 25.5t16 37.5t9.5 42.5t5 52.5t2 55v62.5v98q0 14 8 23.5t21 9.5t21 -9.5t8 -23.5v-155q0 -12 8.5 -21.5t21.5 -9.5q11 0 20 9.5t9 21.5v100 q0 11 8 20t21 9t20.5 -9t7.5 -20v-158q0 -13 9 -23t20 -10q13 0 22 9.5t9 23.5v101q0 14 7 23t19 9q13 0 21 -9t8 -23v-91q0 -112 -34 -212.5t-103 -151.5q-47 -35 -96 -48.5t-92 -7t-88 24t-85 44t-81.5 54t-78.5 54t-76.5 43t-74 22t-72.5 -9.5q-75 -30 -105 -101.5 t-30 -209.5v-99q0 -32 -28 -32q-13 0 -21 9t-8 23v156q0 12 -9 21.5t-22 9.5q-11 0 -20 -9.5t-9 -21.5v-100q0 -11 -7.5 -20t-20.5 -9t-21 9t-8 20v157q0 13 -9 23t-20 10q-13 0 -21.5 -9.5t-8.5 -23.5v-100q0 -14 -7.5 -23.5t-19.5 -9.5q-13 0 -21 9.5t-8 23.5z" />
<glyph unicode="&#xa1;" horiz-adv-x="733" d="M174 -57q-2 -57 65.5 -102t161.5 -17q163 49 154 248l-33 854q0 13 -9.5 22.5t-23.5 9.5q-12 0 -20 -9t-8 -23v-35q0 -48 -29 -60q-14 -6 -25.5 4.5t-11.5 24.5v6q0 14 -9.5 23.5t-23.5 9.5q-13 0 -22.5 -9.5t-9.5 -23.5v-37q0 -48 -25 -59q-17 -7 -29 3.5t-12 25.5v8 q0 14 -7.5 23.5t-20.5 9.5q-14 0 -23.5 -10t-9.5 -23zM203 995v322q0 13 9.5 23t23.5 10q13 0 20.5 -9.5t7.5 -23.5v-84q0 -13 10 -23t23 -10t23 10t10 23v143q0 14 9.5 23.5t22.5 9.5q14 0 23.5 -9.5t9.5 -23.5v-82q0 -13 9.5 -22.5t23.5 -9.5t23.5 9.5t9.5 22.5v142 q0 14 8 23t20 9q14 0 23.5 -9.5t9.5 -22.5v-287q0 -28 -7 -42.5t-26 -23.5l-245 -114q-15 -8 -28 -1t-13 27z" />
<glyph unicode="&#xa2;" horiz-adv-x="1376" d="M113 864q8 107 52 197.5t112 153.5t152.5 104t178.5 57v148q0 13 9.5 22.5t23.5 9.5q13 0 21 -9t8 -23v-4q0 -14 12.5 -23.5t24.5 -3.5q28 12 28 59v31q0 13 9.5 23t23.5 10t23.5 -10t9.5 -23v-213q85 -20 260 -102l381 -178q37 -16 26 -52q-4 -12 -21.5 -17t-29.5 1 l-92 39q-12 6 -26 2.5t-21 -16.5q-16 -25 16 -43l4 -3q30 -13 13 -40t-45 -13l-103 41q-12 7 -25.5 3t-19.5 -15q-6 -12 -0.5 -24.5t19.5 -18.5l6 -4q11 -6 15 -17.5t-3 -23.5q-12 -24 -43 -12q-9 0 -311 147v-637l413 -194q18 -8 21.5 -26t-6.5 -26q-21 -21 -47 -8l-84 41 q-30 15 -45 -10q-12 -25 10 -41l8 -4q22 -16 8 -43q-17 -27 -45 -13l-84 43q-12 7 -24.5 4t-18.5 -14q-7 -12 -3 -24.5t16 -18.5l4 -2q11 -5 15.5 -18t-3.5 -27q-15 -24 -43 -8l-92 43v-104q0 -13 -9.5 -23t-23.5 -10t-23.5 10t-9.5 23v8q0 14 -10 22t-23 4q-32 -11 -32 -63 v-23q0 -36 -29 -41q-13 -3 -23 8t-10 25v256l-102 49q-206 95 -308.5 269t-84.5 413zM467 799q0 -110 35.5 -181t105.5 -124v546q-64 -26 -102.5 -89t-38.5 -152z" />
<glyph unicode="&#xa3;" horiz-adv-x="1081" d="M-77 480.5q5 11.5 18 17.5l247 114v432q0 383 334 472q118 29 209.5 1.5t153.5 -95t93 -152.5t28 -170v-103q0 -14 -8 -23t-21 -9t-21 9t-8 23v129q0 12 -10 21.5t-23 9.5q-11 0 -19.5 -9.5t-8.5 -21.5v-73q0 -11 -10 -20t-23 -9t-23 9t-10 20v131q0 13 -8.5 23t-19.5 10 q-13 0 -23 -9.5t-10 -23.5v-74q0 -14 -8.5 -23.5t-20.5 -9.5q-13 0 -21 9.5t-8 23.5v37q0 59 -35.5 84.5t-70.5 11.5q-21 -8 -37 -24.5t-25 -43.5t-15 -50.5t-8 -62t-2.5 -61t-0.5 -63.5v-176l260 121q29 13 43 -9q8 -14 4 -26t-16 -19l-8 -4q-12 -6 -16 -18.5t3 -24.5 q12 -22 47 -8l88 43q29 14 45 -12q14 -28 -12 -41l-438 -209v-201l344 158q30 13 43 -8q8 -14 4 -26t-16 -19l-76 -37q-31 -15 -16 -39q6 -11 19.5 -15t25.5 3l161 75q29 14 45 -12q14 -28 -12 -41l-80 -39q-25 -13 -12 -39q8 -12 20.5 -16t24.5 2l162 76q12 6 25.5 3.5 t19.5 -11.5q16 -33 -16 -47l-822 -379q-68 -30 -116 -1.5t-48 93.5v366l-65 -30q-12 -6 -25 -1.5t-18 15.5q-6 14 -2 26.5t16 18.5l10 4q13 6 18 19t-1 26t-19.5 16.5t-25.5 -3.5l-107 -48q-15 -5 -27.5 -1t-17.5 14q-6 12 -1 23.5z" />
<glyph unicode="&#xa5;" horiz-adv-x="1075" d="M31.5 1170q0.5 24 17.5 32q34 14 53 -22l43 -84q18 -37 45 -29q34 14 15 51l-41 92q-7 8 -4.5 25.5t20.5 24.5q33 10 49 -27l35 -86q10 -22 25.5 -28.5t25.5 1.5q28 17 13 47l-43 99q-11 37 16 49q30 12 49 -19l158 -354l143 516q4 11 7.5 17.5t12 11.5t21.5 4 q18 -1 25 -15t2 -32l-29 -94q-7 -34 17 -37q32 -4 41 28l65 191q10 41 43 35q21 -1 27 -16t2 -27l-31 -97q-8 -31 20 -36q11 -2 23.5 7.5t15.5 22.5l72 199q5 15 17 23t28 4q35 -9 27 -39l-266 -693l73 35q29 14 45 -12q14 -28 -12 -41l-76 -39q-12 -6 -15 -18.5t3 -24.5 q8 -12 20.5 -16t24.5 2l158 80q12 5 25.5 1t19.5 -14q18 -37 -10 -49l-355 -162v-96l172 82q29 14 45 -12q14 -28 -12 -41l-76 -39q-12 -6 -15 -18.5t3 -24.5q8 -12 20.5 -16t24.5 2l158 79q12 5 25.5 1.5t19.5 -13.5q18 -37 -10 -49l-355 -162v-262q0 -14 -10 -23.5 t-23 -9.5t-20.5 9.5t-7.5 23.5v84q0 14 -9.5 23.5t-23.5 9.5t-23.5 -9.5t-9.5 -23.5v-143q0 -13 -10.5 -23t-24.5 -10q-13 0 -21.5 9.5t-8.5 23.5v82q0 13 -9.5 22.5t-23.5 9.5t-23.5 -9.5t-9.5 -22.5v-142q0 -14 -8 -23t-20 -9q-14 0 -23.5 9.5t-9.5 22.5v234l-119 -53 q-40 -15 -55 6q-6 14 -1 26t17 17l61 30q29 14 17 41q-14 27 -43 11l-152 -70q-12 -6 -25 -1.5t-18 15.5q-6 14 -1.5 26.5t16.5 18.5l303 142v98l-119 -53q-40 -15 -55 6q-6 14 -1 26t17 17l61 31q29 14 17 41q-13 27 -43 10l-152 -70q-12 -6 -25 -1.5t-18 15.5 q-6 14 -1.5 27t16.5 19l215 100l-248 463q-6 5 -5.5 29z" />
<glyph unicode="&#xa8;" horiz-adv-x="1705" d="M485 1022v358q0 14 9.5 23.5t23.5 9.5t23.5 -9.5t9.5 -23.5v-43q0 -14 11 -23.5t24 -6.5q30 8 30 43v90q0 14 8.5 23.5t20.5 9.5q13 0 23 -9.5t10 -23.5v-324q0 -28 -7 -42t-26 -23l-119 -56q-15 -8 -28 -0.5t-13 27.5zM774 1155v358q0 13 10 23t23 10t23 -10t10 -23v-43 q0 -14 10.5 -23.5t23.5 -6.5q14 3 22.5 15.5t8.5 27.5v90q0 14 8.5 23.5t20.5 9.5q14 0 23.5 -10t9.5 -23v-324q0 -28 -7 -42t-26 -23l-119 -56q-15 -8 -28 -0.5t-13 27.5z" />
<glyph unicode="&#xa9;" horiz-adv-x="1775" d="M98.5 653.5q3.5 135.5 35 260.5t99.5 239t159.5 206.5t216 162t268.5 106.5q85 21 171.5 22t165.5 -18t151 -54.5t131.5 -90.5t104 -122.5t70.5 -153.5t29 -181q6 -157 -20.5 -298t-76.5 -250.5t-122 -203t-152 -159.5t-172 -115q-138 -74 -302.5 -84t-310.5 38 t-260.5 159.5t-152.5 265.5q-36 135 -32.5 270.5zM379 496q20 -108 91 -188t166 -116t205.5 -32.5t207.5 51.5q108 53 189.5 135t127.5 177t68.5 192.5t23.5 197.5q1 162 -72.5 281.5t-198.5 167.5t-269 10q-201 -55 -337.5 -192t-186.5 -315t-15 -369zM522 584 q-13 96 14 203.5t84 199.5t148 158t197 78q97 10 191.5 -27.5t121.5 -124.5q11 -36 -12 -45q-3 -1 -6 -1h-5.5t-5 2t-4 3.5t-4 5t-4 5t-4.5 6t-4 6.5q-12 18 -29.5 21t-23.5 -5q-11 -10 -10.5 -24.5t10.5 -24.5q36 -34 36 -72q0 -34 -24 -43q-11 -5 -23.5 2t-19.5 25 q-17 37 -56.5 56t-84.5 16q-61 -4 -110 -36.5t-77 -81t-42.5 -102t-14.5 -106.5q0 -29 5 -56t18.5 -58t42.5 -50t71 -20q63 -1 104 25.5t82 86.5q19 26 43 17q25 -8 9 -41q-1 -4 -13 -21q-16 -21 -4 -31q5 -7 18.5 -6t24.5 15q19 19 35 51q19 37 43 37q22 -3 30.5 -20.5 t0.5 -35.5q-48 -104 -133.5 -177.5t-202.5 -98.5q-91 -20 -179.5 7.5t-153.5 102t-79 179.5z" />
<glyph unicode="&#xad;" horiz-adv-x="1650" d="M115.5 635.5q4.5 11.5 17.5 17.5l1047 492q40 15 55 -6q6 -14 1 -26t-17 -17l-5 -2q-12 -6 -16.5 -17.5t2.5 -23.5q8 -11 22.5 -13.5t28.5 4.5l84 39q12 6 25 1.5t18 -15.5q6 -14 2 -26.5t-16 -18.5l-4 -2q-15 -7 -21 -19t4 -26q9 -10 27.5 -11.5t30.5 5.5l88 39 q15 5 27.5 1t17.5 -14q6 -12 1.5 -24.5t-17.5 -18.5l-1047 -489q-40 -15 -55 6q-6 14 -1 26t17 17l4 2q13 6 17.5 17.5t-2.5 23.5q-8 11 -23 13t-29 -5l-84 -39q-12 -6 -25 -1t-18 16q-6 14 -1.5 26.5t16.5 18.5l4 2q15 7 20.5 19t-4.5 26q-9 10 -27 11.5t-30 -5.5l-88 -39 q-15 -5 -27.5 -1.5t-17.5 13.5q-6 12 -1.5 23.5z" />
<glyph unicode="&#xae;" horiz-adv-x="1775" d="M98.5 659.5q3.5 135.5 35 260.5t99.5 239t159.5 206.5t216 162t268.5 106.5q85 21 171.5 22t165.5 -18t151 -54.5t131.5 -90.5t104 -122.5t70.5 -153.5t29 -181q6 -157 -21 -297t-76.5 -247t-121.5 -198.5t-152 -155.5t-172 -113q-142 -76 -307.5 -88.5t-310 33 t-257.5 155t-151 264.5q-36 135 -32.5 270.5zM379 502q24 -128 109.5 -212.5t207.5 -113.5v707l-53 -31q-15 -8 -30.5 -1.5t-20.5 19.5q-6 14 0.5 28.5t17.5 21.5l4 2q14 7 21 18t0 21q-14 20 -43 4l-82 -37q-35 -10 -45 14q-6 14 -1 26t17 17l465 197q113 52 192.5 35 t122 -74.5t42.5 -136.5q0 -106 -43 -185t-117 -123l-41 -24l174 -135q13 -10 13.5 -24t-9.5 -21q-15 -11 -30 -10t-27 10l-25 18q-25 18 -41 2q-7 -7 -7.5 -17t9.5 -20l17 -14q9 -11 6 -24.5t-13 -20.5q-12 -9 -29.5 -7t-29.5 13l-201 182v-432q67 11 140 47 q111 54 192.5 135.5t127 176.5t67 190.5t22.5 196.5q1 162 -72.5 281.5t-198.5 167t-269 9.5q-201 -55 -337.5 -192t-186.5 -315t-15 -369zM909 768l86 43q58 27 89 63t30 95q-2 53 -34.5 67.5t-92.5 -12.5l-78 -35v-221z" />
<glyph unicode="&#xb0;" horiz-adv-x="958" d="M106 1124q-28 131 7 260.5t129.5 228t228.5 132.5q84 20 154 6t122 -52.5t83 -95t36 -120.5q13 -139 -21 -260t-122.5 -211.5t-220.5 -122.5q-82 -20 -168 6.5t-148.5 88.5t-79.5 140zM334 1233q6 -52 41 -91.5t100 -31.5q58 7 108.5 77.5t49.5 184.5q-1 76 -47.5 115 t-112.5 20q-69 -21 -108 -99.5t-31 -174.5z" />
<glyph unicode="&#xb1;" horiz-adv-x="1705" d="M115.5 132.5q4.5 11.5 17.5 17.5l518 241v213l-180 -84q-40 -15 -55 6q-6 14 -1 26t17 17l62 31q28 14 16 41q-13 27 -43 10l-152 -69q-12 -6 -25 -1.5t-18 15.5q-6 14 -1.5 26.5t16.5 18.5l53 25q13 6 17.5 19t-1.5 26t-19.5 16t-25.5 -4l-149 -68q-15 -5 -27.5 -1 t-17.5 14q-6 12 -1.5 23.5t17.5 17.5l518 241v373q0 13 9.5 23t23.5 10q13 0 21 -9.5t8 -23.5v-84q0 -14 9.5 -23.5t22.5 -9.5t23 10t10 23v143q0 14 10 23.5t23 9.5t23 -9.5t10 -23.5v-82q0 -13 9.5 -22.5t23.5 -9.5q13 0 22.5 9t9.5 23v142q0 14 8.5 23.5t20.5 9.5 q14 0 23.5 -9t9.5 -22v-344l182 86q30 13 43 -8q8 -14 4 -26t-16 -19l-76 -37q-12 -6 -15.5 -18.5t3.5 -24.5q6 -11 19.5 -15.5t25.5 2.5l157 80q29 14 45 -12q14 -28 -12 -41l-76 -39q-12 -6 -15 -18.5t3 -24.5q8 -12 20.5 -16t24.5 2l158 80q12 5 25.5 1t19.5 -14 q18 -37 -10 -49l-510 -237v-211l182 86q29 13 43 -9q8 -14 4 -26t-16 -19l-76 -36q-12 -6 -15.5 -18.5t3.5 -24.5q6 -11 19.5 -15.5t25.5 2.5l157 80q29 14 45 -12q14 -28 -12 -41l-76 -39q-12 -6 -15 -18.5t3 -24.5q8 -12 20.5 -16t24.5 2l158 80q12 5 25.5 1t19.5 -14 q18 -37 -10 -49l-1010 -469q-40 -15 -55 6q-6 14 -1 26t17 17l62 31q28 14 16 41q-13 27 -43 10l-152 -69q-12 -6 -25 -1.5t-18 15.5q-6 14 -1.5 26.5t16.5 18.5l53 24q13 6 17.5 19.5t-1.5 26.5t-19.5 16t-25.5 -4l-149 -68q-15 -5 -27.5 -1t-17.5 14q-6 12 -1.5 23.5z" />
<glyph unicode="&#xb4;" horiz-adv-x="1705" d="M496 1264q-4 21 14 30l414 193q29 14 43 0q9 -11 6 -24t-15 -19l-22 -10q-23 -12 -16 -33q3 -11 14 -13t20 3l93 43q32 14 45 -9q7 -12 2 -26.5t-17 -20.5l-432 -200l-129 59q-16 6 -20 27z" />
<glyph unicode="&#xb5;" horiz-adv-x="1241" d="M147 -209v1753q0 14 9.5 23.5t23.5 9.5q12 0 20.5 -9.5t8.5 -23.5v-67q0 -13 9.5 -23t23.5 -10q13 0 22.5 9.5t9.5 23.5v8q0 13 10 23t23 10t23 -10t10 -23v-70q0 -13 10 -23t23 -10t23 10t10 23v10q0 14 7.5 23.5t20.5 9.5q14 0 23.5 -10t9.5 -23v-807q0 -180 137 -235 q29 -12 58.5 -13t55 9.5t41 37t15.5 66.5v768q0 13 9.5 22t23.5 9q12 0 20.5 -9.5t8.5 -23.5v-67q0 -14 9.5 -23.5t22.5 -9.5q14 0 23.5 9.5t9.5 23.5v8q0 14 9.5 23.5t23.5 9.5t23.5 -9.5t9.5 -23.5v-70q0 -14 9.5 -23.5t22.5 -9.5t23 9.5t10 23.5v10q0 14 8 23.5t21 9.5 t23 -9.5t10 -23.5v-759q0 -92 -35.5 -163t-94 -110.5t-130.5 -57.5t-148.5 -10.5t-144.5 36.5q-32 14 -74 45v-439q0 -13 -9.5 -22.5t-23.5 -9.5q-12 0 -20 9t-8 23v68q0 14 -10 23.5t-23 9.5t-23 -9.5t-10 -23.5v-8q0 -14 -10 -23.5t-23 -9.5t-23 9.5t-10 23.5v69 q0 14 -9.5 23.5t-22.5 9.5q-14 0 -23.5 -10t-9.5 -23v-10q0 -14 -8 -23.5t-21 -9.5q-14 0 -23.5 10t-9.5 23z" />
<glyph unicode="&#xb6;" horiz-adv-x="1456" d="M23 725q13 417 448 618l721 336q42 19 57 -6q14 -25 -14 -41l-4 -2q-34 -17 -17 -43q17 -24 46 -10l77 37q42 19 58 -8q6 -10 2 -23t-17 -20l-4 -2q-29 -16 -16 -39q5 -11 16.5 -14.5t26.5 3.5l84 39q41 18 57 -8q6 -10 2.5 -22.5t-16.5 -18.5l-250 -117v-1564 q0 -14 -10 -23.5t-23 -9.5q-12 0 -20 9.5t-8 23.5v71q0 13 -9.5 23t-23.5 10t-23.5 -10t-9.5 -23v-12q0 -13 -9.5 -23t-23.5 -10t-23.5 10t-9.5 23v74q0 14 -9.5 23.5t-22.5 9.5t-23 -10t-10 -23v-14q0 -14 -8 -23.5t-21 -9.5t-22.5 9.5t-9.5 23.5v1296l-68 -31v-1564 q0 -14 -9.5 -23.5t-23.5 -9.5q-12 0 -20.5 9.5t-8.5 23.5v71q0 14 -9.5 23.5t-22.5 9.5t-23 -10t-10 -23v-12q0 -13 -10 -23t-23 -10t-23 10t-10 23v74q0 13 -9 22.5t-23 9.5t-23.5 -9.5t-9.5 -22.5v-15q0 -14 -8 -23t-21 -9q-14 0 -23.5 9.5t-9.5 22.5v539 q-89 -40 -173.5 -45t-153.5 25.5t-121 89.5t-79 151.5t-23 206.5zM326 713q0 -120 55 -159t149 7l43 23v475l-79 -39q-94 -43 -131 -110.5t-37 -196.5z" />
<glyph unicode="&#xb7;" horiz-adv-x="544" d="M113 457v557q0 14 9.5 23.5t22.5 9.5t21 -9.5t8 -23.5v-84q0 -14 10 -23.5t23 -9.5t23 9.5t10 23.5v143q0 14 9.5 23.5t22.5 9.5q14 0 23.5 -10t9.5 -23v-82q0 -13 9.5 -23t23.5 -10t23.5 10t9.5 23v142q0 14 8 23t20 9q14 0 23.5 -9.5t9.5 -22.5v-558q0 -13 -9.5 -22.5 t-23.5 -9.5q-28 0 -28 32v84q0 13 -9.5 23t-23.5 10t-23.5 -10t-9.5 -23v-143q0 -14 -9.5 -23.5t-23.5 -9.5q-13 0 -22.5 9.5t-9.5 23.5v82q0 14 -10 23.5t-23 9.5t-23 -9.5t-10 -23.5v-141q0 -14 -8.5 -23.5t-20.5 -9.5q-13 0 -22.5 9.5t-9.5 23.5z" />
<glyph unicode="&#xb8;" horiz-adv-x="1705" d="M281 -238q7 11 23.5 13.5t27.5 -2.5l76 -31q11 -8 33 -7.5t32 11.5q10 14 4 25t-22 18l-6 4q-11 6 -15.5 17.5t2.5 23.5q7 11 26 12.5t30 -4.5l153 -71q92 -39 92 57q0 50 -21 74t-77 51l-168 78q-11 6 -10.5 14.5t10.5 13.5l330 154q-1 -1 36.5 -25t74.5 -48l38 -23 l-129 -60l13 -6q74 -36 111.5 -103.5t37.5 -140.5q0 -101 -57 -169t-159.5 -80.5t-244.5 53.5l-225 108l-4 2q-29 13 -12 41z" />
<glyph unicode="&#xbf;" horiz-adv-x="1091" d="M35 240q4 -98 70 -162t160.5 -84.5t198.5 -10.5t187 50q371 179 371 563v53q0 14 -8 23.5t-21 9.5q-12 0 -20 -9.5t-8 -23.5v-6q0 -18 -9.5 -26t-23.5 -5q-29 8 -29 47v48q0 11 -10 19.5t-23 8.5t-22.5 -8.5t-9.5 -19.5v-7q0 -18 -8.5 -24.5t-20.5 -3.5q-33 7 -33 45v45 q0 14 -7.5 23.5t-20.5 9.5t-21 -9.5t-8 -23.5v-98q0 -99 -41 -194t-119 -144q-43 -27 -80.5 -37t-61.5 -4t-38.5 19t-16.5 30q-11 70 48 153l153 213q53 72 53 181v143q0 14 -9.5 23.5t-22.5 9.5q-12 0 -20.5 -9.5t-8.5 -23.5v-41q0 -44 -33 -55q-14 -5 -23.5 4t-9.5 29v4 q0 13 -9.5 22.5t-22.5 9.5q-14 0 -23.5 -9.5t-9.5 -22.5v-41q0 -17 -8 -35.5t-23 -22.5t-25 5.5t-10 27.5v6q0 14 -7.5 23.5t-20.5 9.5q-14 0 -24.5 -10t-10.5 -23v-57q0 -81 -47 -148l-152 -217q-66 -93 -61 -243zM297 1053v321q0 14 9.5 23.5t23.5 9.5q13 0 20.5 -9.5 t7.5 -23.5v-84q0 -14 10 -23.5t23 -9.5t23 9.5t10 23.5v144q0 13 9.5 22.5t23.5 9.5q13 0 22.5 -9t9.5 -23v-82q0 -14 9.5 -23.5t23.5 -9.5t23.5 9.5t9.5 23.5v141q0 14 8.5 23.5t20.5 9.5q13 0 22.5 -9.5t9.5 -23.5v-287q0 -28 -6.5 -42t-25.5 -23l-246 -115 q-15 -8 -28 -0.5t-13 27.5z" />
<glyph unicode="&#xc0;" horiz-adv-x="1132" d="M-211.5 1615.5q-4.5 14.5 2.5 26.5q13 23 45 9l92 -43q9 -5 20.5 -3t14.5 13q7 21 -16 33l-23 10q-12 6 -14.5 19t6.5 24q14 14 43 0l414 -193q18 -9 14 -30t-20 -27l-129 -59l-433 200q-12 6 -16.5 20.5zM12 -199l254 1358q10 50 24 75.5t48 41.5l190 88q36 15 62.5 3.5 t42.5 -44.5l508 -1001q8 -13 6.5 -29.5t-12.5 -22.5q-8 -6 -25.5 -1t-24.5 22l-8 14q-16 26 -41 14q-23 -12 -12 -38l6 -15q7 -12 4 -27.5t-14 -21.5q-29 -13 -47 19l-8 14q-14 31 -45 16q-24 -12 -9 -43l7 -12q6 -12 2.5 -26.5t-15.5 -20.5q-32 -16 -47 24l-94 213 l-358 -168l-56 -303q-7 -36 -37 -36q-13 0 -19 11t-3 29l2 11q3 14 -4.5 25t-20.5 12q-29 3 -37 -31l-16 -88q-1 -15 -13 -24.5t-26 -6.5q-13 1 -19.5 11.5t-4.5 23.5l2 12q2 14 -5 24t-20 11q-12 2 -23 -6t-14 -21l-22 -96q-6 -31 -35 -27q-12 2 -19 13t-4 24zM451 512 q0 -4 2 -4l215 96q3 3 2 6q-58 119 -142 312q-6 12 -8 0q-10 -67 -33 -198.5t-36 -211.5z" />
<glyph unicode="&#xc1;" horiz-adv-x="1132" d="M12 -199l254 1358q10 50 24 75.5t48 41.5l190 88q36 15 62.5 3.5t42.5 -44.5l508 -1001q8 -13 6.5 -29.5t-12.5 -22.5q-8 -6 -25.5 -1t-24.5 22l-8 14q-16 26 -41 14q-23 -12 -12 -38l6 -15q7 -12 4 -27.5t-14 -21.5q-29 -13 -47 19l-8 14q-14 31 -45 16q-24 -12 -9 -43 l7 -12q6 -12 2.5 -26.5t-15.5 -20.5q-32 -16 -47 24l-94 213l-358 -168l-56 -303q-7 -36 -37 -36q-13 0 -19 11t-3 29l2 11q3 14 -4.5 25t-20.5 12q-29 3 -37 -31l-16 -88q-1 -15 -13 -24.5t-26 -6.5q-13 1 -19.5 11.5t-4.5 23.5l2 12q2 14 -5 24t-20 11q-12 2 -23 -6 t-14 -21l-22 -96q-6 -31 -35 -27q-12 2 -19 13t-4 24zM156 1520q-4 21 14 30l414 193q29 14 43 0q9 -11 6 -24t-15 -19l-22 -10q-23 -12 -16 -33q3 -11 14 -13t20 3l93 43q32 14 45 -9q7 -12 2 -26.5t-17 -20.5l-432 -200l-129 59q-16 6 -20 27zM451 512q0 -4 2 -4l215 96 q3 3 2 6q-58 119 -142 312q-6 12 -8 0q-10 -67 -33 -198.5t-36 -211.5z" />
<glyph unicode="&#xc2;" horiz-adv-x="1132" d="M12 -199l254 1358q10 50 24 75.5t48 41.5l190 88q36 15 62.5 3.5t42.5 -44.5l508 -1001q8 -13 6.5 -29.5t-12.5 -22.5q-8 -6 -25.5 -1t-24.5 22l-8 14q-16 26 -41 14q-23 -12 -12 -38l6 -15q7 -12 4 -27.5t-14 -21.5q-29 -13 -47 19l-8 14q-14 31 -45 16q-24 -12 -9 -43 l7 -12q6 -12 2.5 -26.5t-15.5 -20.5q-32 -16 -47 24l-94 213l-358 -168l-56 -303q-7 -36 -37 -36q-13 0 -19 11t-3 29l2 11q3 14 -4.5 25t-20.5 12q-29 3 -37 -31l-16 -88q-1 -15 -13 -24.5t-26 -6.5q-13 1 -19.5 11.5t-4.5 23.5l2 12q2 14 -5 24t-20 11q-12 2 -23 -6 t-14 -21l-22 -96q-6 -31 -35 -27q-12 2 -19 13t-4 24zM45 1305l268 567q22 49 52 61q23 10 49 -20l282 -320q10 -11 10 -23t-8 -18q-21 -15 -43 7l-61 67q-20 23 -39 10q-19 -19 -2 -39l41 -53q10 -8 10.5 -19.5t-10.5 -21.5q-20 -14 -41 10l-150 185l-157 -342 q-14 -32 -39 -29q-13 3 -19 14.5t0 24.5l35 74q10 26 -10 33q-12 4 -22 -2t-15 -19l-80 -168q-14 -30 -39 -24q-28 12 -12 45zM451 512q0 -4 2 -4l215 96q3 3 2 6q-58 119 -142 312q-6 12 -8 0q-10 -67 -33 -198.5t-36 -211.5z" />
<glyph unicode="&#xc3;" horiz-adv-x="1132" d="M12 -199l254 1358q10 50 24 75.5t48 41.5l190 88q36 15 62.5 3.5t42.5 -44.5l508 -1001q8 -13 6.5 -29.5t-12.5 -22.5q-8 -6 -25.5 -1t-24.5 22l-8 14q-16 26 -41 14q-23 -12 -12 -38l6 -15q7 -12 4 -27.5t-14 -21.5q-29 -13 -47 19l-8 14q-14 31 -45 16q-24 -12 -9 -43 l7 -12q6 -12 2.5 -26.5t-15.5 -20.5q-32 -16 -47 24l-94 213l-358 -168l-56 -303q-7 -36 -37 -36q-13 0 -19 11t-3 29l2 11q3 14 -4.5 25t-20.5 12q-29 3 -37 -31l-16 -88q-1 -15 -13 -24.5t-26 -6.5q-13 1 -19.5 11.5t-4.5 23.5l2 12q2 14 -5 24t-20 11q-12 2 -23 -6 t-14 -21l-22 -96q-6 -31 -35 -27q-12 2 -19 13t-4 24zM56 1470.5q-4 12.5 1 24.5q4 11 13.5 39t17.5 47q38 96 100.5 144.5t145.5 41.5q156 -16 158 -16q20 -3 35.5 -3.5t28 3t21.5 6t17 12t12 14t10 19t8.5 21t8.5 24.5l33 95q11 29 36 20q28 -9 17 -41l-27 -72 q-10 -28 19 -41q10 -3 22.5 2.5t16.5 16.5l24 67q3 10 13.5 15.5t23.5 1.5q12 -4 16.5 -15.5t-0.5 -21.5q-7 -21 -36 -96q-40 -102 -89 -135t-122 -31l-142 6q-13 0 -37 1t-33.5 1t-26.5 -1t-25 -5.5t-20 -13t-20 -21.5t-17.5 -32.5t-18.5 -45.5l-27 -78q-5 -11 -15 -15.5 t-22 -0.5t-16.5 15.5t0.5 21.5l24 69q4 12 -0.5 24t-15.5 17q-12 4 -23 -2t-16 -18l-20 -57q-10 -30 -37 -23q-12 4 -16 16.5zM451 512q0 -4 2 -4l215 96q3 3 2 6q-58 119 -142 312q-6 12 -8 0q-10 -67 -33 -198.5t-36 -211.5z" />
<glyph unicode="&#xc4;" horiz-adv-x="1132" d="M12 -199l254 1358q10 50 24 75.5t48 41.5l190 88q36 15 62.5 3.5t42.5 -44.5l508 -1001q8 -13 6.5 -29.5t-12.5 -22.5q-8 -6 -25.5 -1t-24.5 22l-8 14q-16 26 -41 14q-23 -12 -12 -38l6 -15q7 -12 4 -27.5t-14 -21.5q-29 -13 -47 19l-8 14q-14 31 -45 16q-24 -12 -9 -43 l7 -12q6 -12 2.5 -26.5t-15.5 -20.5q-32 -16 -47 24l-94 213l-358 -168l-56 -303q-7 -36 -37 -36q-13 0 -19 11t-3 29l2 11q3 14 -4.5 25t-20.5 12q-29 3 -37 -31l-16 -88q-1 -15 -13 -24.5t-26 -6.5q-13 1 -19.5 11.5t-4.5 23.5l2 12q2 14 -5 24t-20 11q-12 2 -23 -6 t-14 -21l-22 -96q-6 -31 -35 -27q-12 2 -19 13t-4 24zM184 1378v359q0 13 9.5 22.5t23.5 9.5t23.5 -9.5t9.5 -22.5v-43q0 -14 11 -24t24 -7q30 8 30 43v90q0 14 8.5 23.5t20.5 9.5q14 0 23.5 -9.5t9.5 -23.5v-323q0 -28 -7 -42.5t-26 -23.5l-119 -55q-15 -8 -28 -1t-13 27z M451 512q0 -4 2 -4l215 96q3 3 2 6q-58 119 -142 312q-6 12 -8 0q-10 -67 -33 -198.5t-36 -211.5zM473 1511v359q0 14 9.5 23.5t23.5 9.5t23.5 -9.5t9.5 -23.5v-43q0 -14 10.5 -24t23.5 -7q14 3 22.5 15.5t8.5 27.5v90q0 14 8.5 23.5t20.5 9.5q13 0 23 -10t10 -23v-323 q0 -28 -7 -42.5t-26 -23.5l-119 -55q-15 -8 -28 -1t-13 27z" />
<glyph unicode="&#xc5;" horiz-adv-x="1132" d="M12 -199l254 1358q10 50 24 75.5t48 41.5l190 88q36 15 62.5 3.5t42.5 -44.5l508 -1001q8 -13 6.5 -29.5t-12.5 -22.5q-8 -6 -25.5 -1t-24.5 22l-8 14q-16 26 -41 14q-23 -12 -12 -38l6 -15q7 -12 4 -27.5t-14 -21.5q-29 -13 -47 19l-8 14q-14 31 -45 16q-24 -12 -9 -43 l7 -12q6 -12 2.5 -26.5t-15.5 -20.5q-32 -16 -47 24l-94 213l-358 -168l-56 -303q-7 -36 -37 -36q-13 0 -19 11t-3 29l2 11q3 14 -4.5 25t-20.5 12q-29 3 -37 -31l-16 -88q-1 -15 -13 -24.5t-26 -6.5q-13 1 -19.5 11.5t-4.5 23.5l2 12q2 14 -5 24t-20 11q-12 2 -23 -6 t-14 -21l-22 -96q-6 -31 -35 -27q-12 2 -19 13t-4 24zM451 512q0 -4 2 -4l215 96q3 3 2 6q-58 119 -142 312q-6 12 -8 0q-10 -67 -33 -198.5t-36 -211.5z" />
<glyph unicode="&#xc6;" horiz-adv-x="1861" d="M12 -137l287 1413l197 92q46 17 66.5 8t37.5 -43l186 -358q-14 55 -10 117q5 99 59.5 174t135 111t182 35t197.5 -46l473 -219q12 -6 16.5 -22.5t-2.5 -30.5q-6 -9 -19.5 -12t-25.5 3l-82 39q-35 17 -51 -4q-8 -10 -4.5 -25.5t16.5 -21.5l6 -4q12 -6 15.5 -17.5 t-2.5 -23.5q-16 -26 -45 -12l-82 39q-33 15 -50 -2q-10 -11 -6 -26t17 -21l6 -5q11 -5 15.5 -17t-3.5 -26q-13 -21 -43 -8l-254 115q-41 18 -77 4t-44 -49q-9 -40 10 -66t68 -49l524 -241q11 -5 15.5 -17t-2.5 -24q-5 -8 -17.5 -10.5t-23.5 3.5l-78 37q-12 6 -24.5 2.5 t-18.5 -14.5t-1.5 -22.5t15.5 -16.5l4 -2q11 -5 15 -15.5t-2 -21.5q-6 -10 -18.5 -13t-22.5 3l-74 37q-10 6 -24 5.5t-21 -9.5q-8 -9 -6 -22t14 -19l4 -2q11 -5 14 -17t-4 -24q-12 -17 -38 -6l-283 131q-38 19 -71.5 5t-35.5 -48q-2 -29 9.5 -49.5t54.5 -40.5l655 -306 q30 -15 15 -53q-4 -10 -18.5 -12t-26.5 4l-89 43q-30 15 -45 -8q-6 -12 -2.5 -25.5t15.5 -19.5l10 -6q26 -13 12 -41q-17 -27 -45 -13l-92 41q-37 17 -49 -4q-7 -12 -3.5 -24.5t15.5 -18.5l10 -4q12 -5 17.5 -19t-2.5 -28q-13 -21 -43 -8l-535 248q-119 54 -176 159 l-336 -155l-45 -256q-7 -37 -35 -31t-22 39l2 10q6 34 -25 37q-14 3 -25 -5t-14 -26l-16 -94q-2 -12 -13 -19.5t-24 -4.5q-13 1 -20.5 11.5t-5.5 22.5l2 11q3 13 -5 23.5t-22 12.5q-12 1 -22 -8t-13 -24l-20 -90q-3 -13 -12.5 -21t-20.5 -6q-13 3 -20.5 13.5t-4.5 23.5z M451 526l180 84l-121 271z" />
<glyph unicode="&#xc7;" horiz-adv-x="1392" d="M152 590q-24 251 97.5 450t332.5 297l348 164q28 16 43 -8q8 -14 3.5 -27t-15.5 -18l-78 -37q-12 -6 -16 -18.5t3 -24.5q6 -11 18.5 -14t24.5 4q156 78 158 78q28 14 45 -13q14 -28 -12 -41l-76 -41q-26 -13 -12 -41q16 -26 45 -12q156 78 158 78q26 13 47 -8 q10 -8 6.5 -25.5t-21.5 -25.5l-420 -197q-146 -69 -230.5 -174.5t-84.5 -247.5q0 -66 19 -116.5t50 -79t69.5 -42t78.5 -10t76 20.5q287 131 289 131q31 12 43 -12q7 -12 2.5 -24t-15.5 -17l-73 -31q-14 -6 -19.5 -18.5t0.5 -24.5q6 -11 19.5 -15t25.5 3l166 69 q29 14 45 -12q17 -28 -12 -41l-76 -33q-14 -6 -18.5 -18.5t2.5 -24.5q7 -13 21 -16.5t26 2.5l160 74q12 6 26.5 2.5t20.5 -13.5q17 -30 -17 -45l-407 -188h-2l8 -4q121 -62 115 -273q-5 -166 -127.5 -208t-333.5 57l-225 108l-4 2q-13 6 -17 17.5t4 23.5q7 11 23.5 13.5 t27.5 -2.5l76 -31q11 -8 33.5 -7.5t32.5 11.5q10 15 3.5 25.5t-22.5 17.5l-6 4q-11 6 -15 17.5t3 23.5q7 11 25.5 12.5t29.5 -4.5l154 -71q92 -39 92 49q0 49 -14 73.5t-50 42.5l-57 25q-251 -38 -424.5 93t-195.5 366z" />
<glyph unicode="&#xc8;" horiz-adv-x="1335" d="M-59.5 1642.5q-4.5 14.5 2.5 26.5q13 22 45 8l92 -43q9 -5 20.5 -2.5t14.5 13.5q7 20 -17 32l-22 11q-12 6 -14.5 19t6.5 24q14 14 43 0l413 -193q18 -9 14 -30t-20 -27l-129 -60l-432 201q-12 6 -16.5 20.5zM86 348q-7 107 45 198.5t137 135.5q-64 29 -108.5 95 t-44.5 167q0 116 54 203t140 127l484 225l5 2q4 2 5.5 2.5l6 2t6.5 2t6.5 1t7.5 0t7 -1.5t7.5 -3t7.5 -5q11 -10 8 -23t-14 -20l-19 -10q-12 -6 -15.5 -18.5t3.5 -24.5q6 -10 21.5 -11t27.5 7l74 35q37 18 55 0q9 -10 9 -24.5t-11 -20.5l-18 -11q-24 -12 -12 -37 q7 -11 25 -13t30 5l82 37q12 6 27.5 2t19.5 -14q15 -35 -17 -49l-610 -285q-42 -19 -53.5 -44t-9.5 -56q2 -35 35.5 -53.5t70.5 -0.5l244 113q10 5 22.5 3t18.5 -11q16 -25 -10 -41l-15 -8q-8 -4 -12.5 -12t0.5 -21q7 -11 23 -13t26 5l76 39q10 6 22.5 2.5t18.5 -13.5 q12 -20 -12 -36l-11 -7q-25 -16 -12 -34q7 -10 24 -11t29 6l70 31q11 6 24 3t19 -11q7 -11 3.5 -23t-15.5 -18l-586 -272q-42 -20 -64.5 -52t-13.5 -71q8 -38 46.5 -59t84.5 1l305 146q30 13 43 -8q8 -14 3.5 -28t-15.5 -21l-8 -5q-24 -12 -8 -38q15 -22 45 -9l86 41 q29 14 45 -12q12 -23 -13 -41l-6 -4q-24 -16 -12 -39q8 -12 20.5 -16t24.5 2l88 41q12 6 25.5 3t19.5 -12q8 -12 4 -29t-18 -24l-531 -248q-102 -49 -202 -44t-180 45t-132 117t-59 171z" />
<glyph unicode="&#xc9;" horiz-adv-x="1335" d="M-51 1497.5q-4 21.5 14 30.5l414 192q29 14 43 0q9 -11 6.5 -24t-14.5 -19l-23 -10q-23 -12 -16 -33q3 -11 14.5 -13t20.5 3l92 43q32 14 45 -8q7 -12 2 -26.5t-17 -20.5l-432 -201l-129 59q-16 6 -20 27.5zM86 348q-7 107 45 198.5t137 135.5q-64 29 -108.5 95 t-44.5 167q0 116 54 203t140 127l484 225l5 2q4 2 5.5 2.5l6 2t6.5 2t6.5 1t7.5 0t7 -1.5t7.5 -3t7.5 -5q11 -10 8 -23t-14 -20l-19 -10q-12 -6 -15.5 -18.5t3.5 -24.5q6 -10 21.5 -11t27.5 7l74 35q37 18 55 0q9 -10 9 -24.5t-11 -20.5l-18 -11q-24 -12 -12 -37 q7 -11 25 -13t30 5l82 37q12 6 27.5 2t19.5 -14q15 -35 -17 -49l-610 -285q-42 -19 -53.5 -44t-9.5 -56q2 -35 35.5 -53.5t70.5 -0.5l244 113q10 5 22.5 3t18.5 -11q16 -25 -10 -41l-15 -8q-8 -4 -12.5 -12t0.5 -21q7 -11 23 -13t26 5l76 39q10 6 22.5 2.5t18.5 -13.5 q12 -20 -12 -36l-11 -7q-25 -16 -12 -34q7 -10 24 -11t29 6l70 31q11 6 24 3t19 -11q7 -11 3.5 -23t-15.5 -18l-586 -272q-42 -20 -64.5 -52t-13.5 -71q8 -38 46.5 -59t84.5 1l305 146q30 13 43 -8q8 -14 3.5 -28t-15.5 -21l-8 -5q-24 -12 -8 -38q15 -22 45 -9l86 41 q29 14 45 -12q12 -23 -13 -41l-6 -4q-24 -16 -12 -39q8 -12 20.5 -16t24.5 2l88 41q12 6 25.5 3t19.5 -12q8 -12 4 -29t-18 -24l-531 -248q-102 -49 -202 -44t-180 45t-132 117t-59 171z" />
<glyph unicode="&#xca;" horiz-adv-x="1335" d="M86 348q-7 107 45 198.5t137 135.5q-64 29 -108.5 95t-44.5 167q0 116 54 203t140 127l484 225l5 2q4 2 5.5 2.5l6 2t6.5 2t6.5 1t7.5 0t7 -1.5t7.5 -3t7.5 -5q11 -10 8 -23t-14 -20l-19 -10q-12 -6 -15.5 -18.5t3.5 -24.5q6 -10 21.5 -11t27.5 7l74 35q37 18 55 0 q9 -10 9 -24.5t-11 -20.5l-18 -11q-24 -12 -12 -37q7 -11 25 -13t30 5l82 37q12 6 27.5 2t19.5 -14q15 -35 -17 -49l-610 -285q-42 -19 -53.5 -44t-9.5 -56q2 -35 35.5 -53.5t70.5 -0.5l244 113q10 5 22.5 3t18.5 -11q16 -25 -10 -41l-15 -8q-8 -4 -12.5 -12t0.5 -21 q7 -11 23 -13t26 5l76 39q10 6 22.5 2.5t18.5 -13.5q12 -20 -12 -36l-11 -7q-25 -16 -12 -34q7 -10 24 -11t29 6l70 31q11 6 24 3t19 -11q7 -11 3.5 -23t-15.5 -18l-586 -272q-42 -20 -64.5 -52t-13.5 -71q8 -38 46.5 -59t84.5 1l305 146q30 13 43 -8q8 -14 3.5 -28 t-15.5 -21l-8 -5q-24 -12 -8 -38q15 -22 45 -9l86 41q29 14 45 -12q12 -23 -13 -41l-6 -4q-24 -16 -12 -39q8 -12 20.5 -16t24.5 2l88 41q12 6 25.5 3t19.5 -12q8 -12 4 -29t-18 -24l-531 -248q-102 -49 -202 -44t-180 45t-132 117t-59 171zM246 1348l268 567q23 50 51 61 q23 10 49 -20l283 -320q10 -11 10 -23t-8 -18q-21 -15 -43 7l-61 67q-20 23 -39 10q-19 -19 -2 -39l41 -53q10 -8 10.5 -19.5t-10.5 -21.5q-20 -14 -41 10l-150 185l-158 -342q-14 -32 -38 -29q-13 3 -19 14.5t0 24.5l35 74q10 26 -10 33q-12 4 -22 -2t-15 -19l-80 -168 q-13 -30 -39 -24q-28 12 -12 45z" />
<glyph unicode="&#xcb;" horiz-adv-x="1335" d="M86 348q-7 107 45 198.5t137 135.5q-64 29 -108.5 95t-44.5 167q0 116 54 203t140 127l484 225l5 2q4 2 5.5 2.5l6 2t6.5 2t6.5 1t7.5 0t7 -1.5t7.5 -3t7.5 -5q11 -10 8 -23t-14 -20l-19 -10q-12 -6 -15.5 -18.5t3.5 -24.5q6 -10 21.5 -11t27.5 7l74 35q37 18 55 0 q9 -10 9 -24.5t-11 -20.5l-18 -11q-24 -12 -12 -37q7 -11 25 -13t30 5l82 37q12 6 27.5 2t19.5 -14q15 -35 -17 -49l-610 -285q-42 -19 -53.5 -44t-9.5 -56q2 -35 35.5 -53.5t70.5 -0.5l244 113q10 5 22.5 3t18.5 -11q16 -25 -10 -41l-15 -8q-8 -4 -12.5 -12t0.5 -21 q7 -11 23 -13t26 5l76 39q10 6 22.5 2.5t18.5 -13.5q12 -20 -12 -36l-11 -7q-25 -16 -12 -34q7 -10 24 -11t29 6l70 31q11 6 24 3t19 -11q7 -11 3.5 -23t-15.5 -18l-586 -272q-42 -20 -64.5 -52t-13.5 -71q8 -38 46.5 -59t84.5 1l305 146q30 13 43 -8q8 -14 3.5 -28 t-15.5 -21l-8 -5q-24 -12 -8 -38q15 -22 45 -9l86 41q29 14 45 -12q12 -23 -13 -41l-6 -4q-24 -16 -12 -39q8 -12 20.5 -16t24.5 2l88 41q12 6 25.5 3t19.5 -12q8 -12 4 -29t-18 -24l-531 -248q-102 -49 -202 -44t-180 45t-132 117t-59 171zM430 1432v358q0 14 10 23.5 t23 9.5t23 -9.5t10 -23.5v-43q0 -14 10.5 -24t23.5 -7q31 8 31 43v90q0 14 8.5 23.5t20.5 9.5q14 0 23.5 -10t9.5 -23v-323q0 -28 -7 -42.5t-26 -23.5l-119 -55q-15 -8 -28 -0.5t-13 27.5zM719 1565v358q0 13 9.5 23t23.5 10q13 0 22.5 -9.5t9.5 -23.5v-43q0 -14 11 -24 t24 -7q14 3 22.5 15.5t8.5 27.5v90q0 14 8.5 23.5t20.5 9.5q13 0 22.5 -9.5t9.5 -23.5v-323q0 -28 -6.5 -42.5t-25.5 -23.5l-119 -55q-15 -8 -28 -0.5t-13 27.5z" />
<glyph unicode="&#xcc;" d="M-246 1706.5q-5 14.5 2 26.5q13 22 45 8l93 -43q9 -5 20 -3t14 13q7 21 -16 33l-23 10q-12 6 -14.5 19t6.5 24q14 14 43 0l414 -192q18 -9 14 -30.5t-20 -27.5l-129 -59l-432 201q-12 6 -17 20.5zM203 74v1190q0 13 9.5 22.5t23.5 9.5q28 0 28 -32v-7q0 -13 9.5 -22.5 t23.5 -9.5t23.5 9.5t9.5 22.5v66q0 14 9.5 23.5t22.5 9.5q14 0 23.5 -10t9.5 -23v-4q0 -13 9.5 -23t23.5 -10t23.5 10t9.5 23v63q0 14 8 23.5t20 9.5q14 0 23.5 -9t9.5 -22v-1191q0 -13 -10 -23t-23 -10t-20.5 9.5t-7.5 23.5v8q0 13 -9.5 22.5t-23.5 9.5t-23.5 -9.5 t-9.5 -22.5v-68q0 -13 -9.5 -23t-23.5 -10q-13 0 -22.5 9.5t-9.5 23.5v6q0 13 -10 23t-23 10t-23 -10t-10 -23v-65q0 -14 -8 -23.5t-20 -9.5q-14 0 -23.5 9.5t-9.5 23.5z" />
<glyph unicode="&#xcd;" d="M56 1600q-4 21 14 30l413 193q29 14 43 0q9 -11 6.5 -24t-14.5 -19l-22 -11q-24 -12 -17 -32q3 -11 14.5 -13.5t20.5 2.5l92 43q32 14 45 -8q7 -12 2.5 -26.5t-16.5 -20.5l-432 -201l-129 60q-16 6 -20 27zM203 74v1190q0 13 9.5 22.5t23.5 9.5q28 0 28 -32v-7 q0 -13 9.5 -22.5t23.5 -9.5t23.5 9.5t9.5 22.5v66q0 14 9.5 23.5t22.5 9.5q14 0 23.5 -10t9.5 -23v-4q0 -13 9.5 -23t23.5 -10t23.5 10t9.5 23v63q0 14 8 23.5t20 9.5q14 0 23.5 -9t9.5 -22v-1191q0 -13 -10 -23t-23 -10t-20.5 9.5t-7.5 23.5v8q0 13 -9.5 22.5t-23.5 9.5 t-23.5 -9.5t-9.5 -22.5v-68q0 -13 -9.5 -23t-23.5 -10q-13 0 -22.5 9.5t-9.5 23.5v6q0 13 -10 23t-23 10t-23 -10t-10 -23v-65q0 -14 -8 -23.5t-20 -9.5q-14 0 -23.5 9.5t-9.5 23.5z" />
<glyph unicode="&#xce;" d="M-14 1360l268 567q23 51 51 62q22 10 49 -21l283 -319q10 -11 10 -23t-8 -18q-21 -16 -43 6l-61 67q-20 24 -39 11q-19 -19 -2 -39l41 -54q10 -8 10.5 -19t-10.5 -21q-20 -14 -41 10l-150 184l-158 -342q-14 -32 -39 -29q-12 3 -18 14.5t0 24.5l35 74q10 26 -10 33 q-12 4 -22 -2t-15 -19l-80 -168q-13 -30 -39 -24q-28 12 -12 45zM203 74v1190q0 13 9.5 22.5t23.5 9.5q28 0 28 -32v-7q0 -13 9.5 -22.5t23.5 -9.5t23.5 9.5t9.5 22.5v66q0 14 9.5 23.5t22.5 9.5q14 0 23.5 -10t9.5 -23v-4q0 -13 9.5 -23t23.5 -10t23.5 10t9.5 23v63 q0 14 8 23.5t20 9.5q14 0 23.5 -9t9.5 -22v-1191q0 -13 -10 -23t-23 -10t-20.5 9.5t-7.5 23.5v8q0 13 -9.5 22.5t-23.5 9.5t-23.5 -9.5t-9.5 -22.5v-68q0 -13 -9.5 -23t-23.5 -10q-13 0 -22.5 9.5t-9.5 23.5v6q0 13 -10 23t-23 10t-23 -10t-10 -23v-65q0 -14 -8 -23.5 t-20 -9.5q-14 0 -23.5 9.5t-9.5 23.5z" />
<glyph unicode="&#xcf;" d="M117 1432v358q0 14 9.5 23.5t23.5 9.5q13 0 22.5 -9.5t9.5 -23.5v-43q0 -14 11 -24t24 -7q31 8 31 43v90q0 14 8 23.5t20 9.5q14 0 23.5 -10t9.5 -23v-323q0 -28 -7 -42.5t-26 -23.5l-118 -55q-15 -8 -28 -0.5t-13 27.5zM203 74v1190q0 13 9.5 22.5t23.5 9.5q28 0 28 -32 v-7q0 -13 9.5 -22.5t23.5 -9.5t23.5 9.5t9.5 22.5v66q0 14 9.5 23.5t22.5 9.5q14 0 23.5 -10t9.5 -23v-4q0 -13 9.5 -23t23.5 -10t23.5 10t9.5 23v63q0 14 8 23.5t20 9.5q14 0 23.5 -9t9.5 -22v-1191q0 -13 -10 -23t-23 -10t-20.5 9.5t-7.5 23.5v8q0 13 -9.5 22.5t-23.5 9.5 t-23.5 -9.5t-9.5 -22.5v-68q0 -13 -9.5 -23t-23.5 -10q-13 0 -22.5 9.5t-9.5 23.5v6q0 13 -10 23t-23 10t-23 -10t-10 -23v-65q0 -14 -8 -23.5t-20 -9.5q-14 0 -23.5 9.5t-9.5 23.5zM406 1565v358q0 14 9.5 23.5t22.5 9.5q14 0 23.5 -10t9.5 -23v-43q0 -14 11 -24t24 -7 q14 3 22.5 15.5t8.5 27.5v90q0 14 8 23.5t20 9.5q13 0 23 -9.5t10 -23.5v-323q0 -28 -7 -42.5t-26 -23.5l-119 -55q-15 -8 -27.5 -0.5t-12.5 27.5z" />
<glyph unicode="&#xd0;" horiz-adv-x="1394" d="M-68 1038q-14 25 15 41q0 1 290 135t293 134q141 66 264.5 83t212 -11.5t153 -88.5t97 -143.5t35.5 -181.5q20 -628 -469 -854l-440 -203q-42 -19 -57 6q-14 25 14 41l43 20q31 16 16 43q-16 23 -45 11l-116 -56q-42 -18 -58 9q-6 10 -2 23t17 20l49 22q29 16 16 39 q-8 19 -43 10l-129 -59q-41 -18 -57 8q-14 25 14 41l328 154v202l-64 -28q-45 -15 -57 12q-5 14 0 26t16 17l8 4q12 6 14.5 18t-7.5 21q-24 21 -62 0l-69 -31q-12 -6 -25 -1t-18 16q-6 14 -2 26.5t16 18.5l250 116v238l-86 -43q-42 -19 -58 8q-6 10 -2 23t17 20l37 19 q31 16 16 43q-16 22 -45 10l-113 -53q-41 -18 -57 8q-6 10 -2.5 23t16.5 20l49 22q29 16 17 43q-13 22 -43 13l-129 -60q-43 -19 -58 6zM690 426l76 37q57 27 98.5 61t74.5 83t50 118.5t17 157.5t-23 146t-62 80t-84 21t-94 -24l-53 -27v-231l53 26q29 14 45 -12 q14 -28 -12 -41l-8 -4q-9 -3 -12.5 -13.5t4.5 -21.5q20 -23 71 -2l72 31q12 5 25.5 1.5t19.5 -13.5q18 -37 -10 -49l-248 -117v-207z" />
<glyph unicode="&#xd1;" horiz-adv-x="1273" d="M188 -4v1178q0 57 13.5 84.5t48.5 44.5l123 57q34 15 67 2t52 -49l329 -635q0 -2 3 -3q1 0 1.5 1.5t-0.5 3.5q-31 95 -41 184t-10 219v443q0 14 10 23.5t23 9.5t21 -9.5t8 -23.5v-8q0 -14 9.5 -23.5t22.5 -9.5q14 0 23.5 9.5t9.5 23.5v67q0 13 9.5 23t23.5 10t23.5 -10 t9.5 -23v-6q0 -14 9.5 -23.5t22.5 -9.5t23 10t10 23v66q0 13 8.5 22.5t20.5 9.5q14 0 23.5 -9.5t9.5 -22.5v-1205q0 -45 -13.5 -66.5t-46.5 -35.5l-155 -70q-24 -11 -47.5 -2.5t-36.5 35.5l-334 635q0 2 -3 3q-1 0 -1.5 -1.5t0.5 -3.5q27 -102 39 -186t12 -218v-413 q0 -13 -10 -23t-23 -10t-21 9.5t-8 23.5v10q0 14 -9.5 23.5t-22.5 9.5q-14 0 -23.5 -10t-9.5 -23v-70q0 -13 -9.5 -22.5t-23.5 -9.5t-23.5 9.5t-9.5 22.5v9q0 14 -9.5 23t-22.5 9q-14 0 -23.5 -9.5t-9.5 -22.5v-68q0 -14 -8.5 -23.5t-20.5 -9.5q-13 0 -23 9.5t-10 21.5z M228 1593.5q-4 12.5 1 24.5q5 11 14.5 39t16.5 47q38 96 100.5 144.5t145.5 41.5q156 -16 158 -16q20 -3 35.5 -3.5t28 3t21.5 6t17 12t12 14t10 19t8.5 21t8.5 24.5l33 94q11 30 36 21q28 -9 17 -41l-27 -72q-10 -28 19 -41q10 -3 22.5 2.5t16.5 16.5l24 67q3 10 13.5 15.5 t23.5 1.5q12 -4 16.5 -15.5t-0.5 -21.5q-7 -21 -36 -96q-40 -102 -89 -135t-122 -31l-142 6q-13 0 -37 1t-33.5 1t-26.5 -1t-25 -5.5t-20 -13t-20 -21.5t-17.5 -32.5t-18.5 -45.5l-27 -78q-5 -11 -15 -15.5t-22 -0.5t-16.5 15.5t0.5 21.5l24 69q4 12 -0.5 24t-15.5 17 q-12 4 -23 -2t-16 -18l-20 -58q-10 -29 -37 -22q-12 4 -16 16.5z" />
<glyph unicode="&#xd2;" horiz-adv-x="1392" d="M-6.5 1603.5q-4.5 14.5 2.5 26.5q13 22 45 8l92 -43q9 -5 20.5 -2.5t14.5 13.5q7 21 -16 32l-23 11q-12 6 -14.5 19t6.5 24q14 14 43 0l414 -193q18 -9 13.5 -30t-20.5 -27l-129 -60l-432 201q-12 6 -16.5 20.5zM98 580q0 125 28 240.5t85.5 222t154 195t224.5 146.5 q83 38 171 47t169 -8.5t153 -65.5t124.5 -118.5t82 -173t27.5 -223.5q-3 -155 -61.5 -309.5t-159.5 -241.5q-72 -58 -105 -68q-31 -9 -43 17q-7 19 23 36l6 5q11 8 13.5 19t-5.5 22q-15 15 -47 -5q-33 -22 -64 -32q-37 -13 -53 6q-6 9 -1 20t18 17l8 4q14 8 17.5 19t-5.5 22 q-16 19 -47 2q-29 -18 -74 -33q-15 -6 -27.5 -2.5t-17.5 12.5q-6 12 -0.5 24t19.5 17q268 96 284 436q5 97 -31.5 168.5t-104.5 94.5t-161 -15q-118 -53 -191 -180t-73 -285q0 -70 17.5 -129t58.5 -105.5t102 -62.5q74 -21 100 -76t-3 -111t-99 -79q-31 -12 -69.5 -9.5 t-80.5 11.5t-85 33t-83 54.5t-75.5 76.5t-62 99t-41.5 121.5t-15 144.5z" />
<glyph unicode="&#xd3;" horiz-adv-x="1392" d="M98 580q0 125 28 240.5t85.5 222t154 195t224.5 146.5q83 38 171 47t169 -8.5t153 -65.5t124.5 -118.5t82 -173t27.5 -223.5q-3 -155 -61.5 -309.5t-159.5 -241.5q-72 -58 -105 -68q-31 -9 -43 17q-7 19 23 36l6 5q11 8 13.5 19t-5.5 22q-15 15 -47 -5q-33 -22 -64 -32 q-37 -13 -53 6q-6 9 -1 20t18 17l8 4q14 8 17.5 19t-5.5 22q-16 19 -47 2q-29 -18 -74 -33q-15 -6 -27.5 -2.5t-17.5 12.5q-6 12 -0.5 24t19.5 17q268 96 284 436q5 97 -31.5 168.5t-104.5 94.5t-161 -15q-118 -53 -191 -180t-73 -285q0 -70 17.5 -129t58.5 -105.5 t102 -62.5q74 -21 100 -76t-3 -111t-99 -79q-31 -12 -69.5 -9.5t-80.5 11.5t-85 33t-83 54.5t-75.5 76.5t-62 99t-41.5 121.5t-15 144.5zM275 1495.5q-4 21.5 14 30.5l413 192q29 14 43 0q9 -11 6.5 -24t-14.5 -19l-22 -10q-24 -12 -17 -33q3 -11 14.5 -13t20.5 3l92 43 q32 14 45 -8q7 -12 2.5 -26.5t-16.5 -20.5l-432 -201l-129 59q-16 6 -20 27.5z" />
<glyph unicode="&#xd4;" horiz-adv-x="1392" d="M98 580q0 125 28 240.5t85.5 222t154 195t224.5 146.5q83 38 171 47t169 -8.5t153 -65.5t124.5 -118.5t82 -173t27.5 -223.5q-3 -155 -61.5 -309.5t-159.5 -241.5q-72 -58 -105 -68q-31 -9 -43 17q-7 19 23 36l6 5q11 8 13.5 19t-5.5 22q-15 15 -47 -5q-33 -22 -64 -32 q-37 -13 -53 6q-6 9 -1 20t18 17l8 4q14 8 17.5 19t-5.5 22q-16 19 -47 2q-29 -18 -74 -33q-15 -6 -27.5 -2.5t-17.5 12.5q-6 12 -0.5 24t19.5 17q268 96 284 436q5 97 -31.5 168.5t-104.5 94.5t-161 -15q-118 -53 -191 -180t-73 -285q0 -70 17.5 -129t58.5 -105.5 t102 -62.5q74 -21 100 -76t-3 -111t-99 -79q-31 -12 -69.5 -9.5t-80.5 11.5t-85 33t-83 54.5t-75.5 76.5t-62 99t-41.5 121.5t-15 144.5zM279 1339l268 568q23 50 51 61q23 10 49 -20l283 -320q10 -11 10 -23t-8 -18q-21 -16 -43 6l-62 68q-20 23 -39 10q-19 -19 -2 -39 l41 -53q10 -8 10.5 -19.5t-10.5 -21.5q-20 -14 -41 10l-149 185l-158 -342q-14 -32 -39 -29q-12 3 -18 14.5t0 24.5l35 74q9 25 -11 32q-25 9 -36 -20l-80 -168q-14 -31 -39 -25q-28 12 -12 45z" />
<glyph unicode="&#xd5;" horiz-adv-x="1392" d="M98 580q0 125 28 240.5t85.5 222t154 195t224.5 146.5q83 38 171 47t169 -8.5t153 -65.5t124.5 -118.5t82 -173t27.5 -223.5q-3 -155 -61.5 -309.5t-159.5 -241.5q-72 -58 -105 -68q-31 -9 -43 17q-7 19 23 36l6 5q11 8 13.5 19t-5.5 22q-15 15 -47 -5q-33 -22 -64 -32 q-37 -13 -53 6q-6 9 -1 20t18 17l8 4q14 8 17.5 19t-5.5 22q-16 19 -47 2q-29 -18 -74 -33q-15 -6 -27.5 -2.5t-17.5 12.5q-6 12 -0.5 24t19.5 17q268 96 284 436q5 97 -31.5 168.5t-104.5 94.5t-161 -15q-118 -53 -191 -180t-73 -285q0 -70 17.5 -129t58.5 -105.5 t102 -62.5q74 -21 100 -76t-3 -111t-99 -79q-31 -12 -69.5 -9.5t-80.5 11.5t-85 33t-83 54.5t-75.5 76.5t-62 99t-41.5 121.5t-15 144.5zM248.5 1470.5q-3.5 12.5 1.5 24.5q4 11 14 39t17 47q38 96 100 144.5t145 41.5q156 -16 158 -16q20 -3 35.5 -3.5t28 3t21.5 6t17 12 t12 14t10 19t8.5 21t8.5 24.5l33 95q5 12 15 18t22 2q27 -9 16 -41l-26 -72q-11 -28 18 -41q10 -3 22.5 2.5t16.5 16.5l25 67q3 10 13.5 15.5t23.5 1.5q12 -4 16.5 -15.5t-0.5 -21.5q-2 -7 -37 -96q-40 -102 -89 -135t-122 -31l-141 6q-13 0 -37 1t-33.5 1t-27 -1t-25 -5.5 t-20 -13t-20.5 -21.5t-17.5 -32.5t-18.5 -45.5l-26 -78q-5 -11 -15 -15.5t-22 -0.5t-17 15t0 22l25 69q4 12 -1 24t-16 17q-12 4 -22.5 -2t-15.5 -18l-21 -57q-10 -30 -37 -23q-12 4 -15.5 16.5z" />
<glyph unicode="&#xd6;" horiz-adv-x="1392" d="M98 580q0 125 28 240.5t85.5 222t154 195t224.5 146.5q83 38 171 47t169 -8.5t153 -65.5t124.5 -118.5t82 -173t27.5 -223.5q-3 -155 -61.5 -309.5t-159.5 -241.5q-72 -58 -105 -68q-31 -9 -43 17q-7 19 23 36l6 5q11 8 13.5 19t-5.5 22q-15 15 -47 -5q-33 -22 -64 -32 q-37 -13 -53 6q-6 9 -1 20t18 17l8 4q14 8 17.5 19t-5.5 22q-16 19 -47 2q-29 -18 -74 -33q-15 -6 -27.5 -2.5t-17.5 12.5q-6 12 -0.5 24t19.5 17q268 96 284 436q5 97 -31.5 168.5t-104.5 94.5t-161 -15q-118 -53 -191 -180t-73 -285q0 -70 17.5 -129t58.5 -105.5 t102 -62.5q74 -21 100 -76t-3 -111t-99 -79q-31 -12 -69.5 -9.5t-80.5 11.5t-85 33t-83 54.5t-75.5 76.5t-62 99t-41.5 121.5t-15 144.5zM344 1380v359q0 13 10 23t23 10t23 -10t10 -23v-43q0 -14 10.5 -24t23.5 -7q31 8 31 43v90q0 14 8.5 23.5t20.5 9.5q14 0 23.5 -9.5 t9.5 -23.5v-323q0 -28 -7 -42.5t-26 -23.5l-119 -55q-15 -8 -28 -1t-13 27zM633 1513v359q0 14 9.5 23.5t23.5 9.5q13 0 22.5 -9.5t9.5 -23.5v-43q0 -14 11 -24t24 -7q14 3 22.5 15.5t8.5 27.5v90q0 14 8.5 23.5t20.5 9.5q13 0 22.5 -9.5t9.5 -23.5v-323q0 -28 -6.5 -42.5 t-25.5 -23.5l-119 -55q-15 -8 -28 -1t-13 27z" />
<glyph unicode="&#xd7;" horiz-adv-x="813" d="M52.5 1160q2.5 17 19.5 24q30 12 51 -23l4 -6q9 -13 24 -18.5t27 0.5q26 14 6 47l-4 6q-9 14 -5 28.5t18 20.5q15 7 31 2t24 -18l133 -219l125 364q12 36 45 33q15 -2 22 -16t0 -31l-2 -6q-10 -30 17 -37q27 -9 41 28l37 99q13 41 43 35q35 -6 26 -43l-203 -568l224 -346 q6 -5 4.5 -23t-17.5 -24q-31 -13 -53 18l-4 7q-10 15 -25.5 19.5t-27.5 -1.5q-27 -12 -8 -49l2 -4q8 -7 6 -25t-19 -26q-34 -17 -53 20l-129 215l-108 -348q-11 -36 -41 -33q-19 3 -26 18t-3 25l2 6q4 17 -2 28t-16 13q-31 4 -43 -30l-39 -107q-16 -40 -50 -29q-31 8 -20 47 l193 560l-216 335l-4 7q-9 8 -6.5 25z" />
<glyph unicode="&#xd8;" horiz-adv-x="1380" d="M100 614q3 109 31 215.5t83.5 211t152.5 193.5t225 144q160 69 332 21l71 160q6 13 19 19t24 3q12 -3 18.5 -14t4.5 -21l-4 -16q-6 -25 18 -33q32 -10 51 33l56 117q13 25 39 18q13 -3 18.5 -15.5t-0.5 -25.5l-139 -313q98 -77 153.5 -201t51.5 -293q-2 -67 -17 -139.5 t-45 -147.5t-71.5 -144.5t-99.5 -130.5t-125.5 -106.5t-154 -72.5t-180.5 -27q-32 0 -69 6l-72 -164q-4 -13 -17.5 -17t-25.5 1q-12 3 -16 16t2 25l2 4q5 12 -1.5 24t-23.5 15q-29 6 -41 -29l-53 -110q-18 -40 -53 -31q-13 3 -18 14.5t1 24.5l129 293q-75 43 -130.5 104.5 t-92.5 162.5t-33 226zM442 639q-6 -119 54 -205l295 664q-40 0 -91 -23q-115 -54 -184 -172t-74 -264zM676 356q8 0 24 4q135 32 213 164t78 314q0 85 -33 153z" />
<glyph unicode="&#xd9;" horiz-adv-x="1212" d="M65.5 1636.5q-4.5 14.5 2.5 26.5q13 22 45 8l92 -43q9 -5 20.5 -3t14.5 13q7 21 -17 33l-22 10q-12 6 -14.5 19t6.5 24q14 14 43 0l413 -192q18 -9 14 -30t-20 -27l-129 -60l-432 201q-12 6 -16.5 20.5zM139 344q0 -83 30 -149t82 -106t117.5 -60.5t139 -17.5t145.5 28 q432 151 432 715v790q0 14 -9.5 23.5t-22.5 9.5q-12 0 -20.5 -9.5t-8.5 -23.5v-67q0 -13 -10 -23t-23 -10t-23 10t-10 23v8q0 14 -9.5 23.5t-22.5 9.5q-14 0 -23.5 -10t-9.5 -23v-70q0 -13 -9.5 -23t-23.5 -10t-23.5 10t-9.5 23v10q0 14 -7.5 23.5t-20.5 9.5t-23 -10 t-10 -23v-819q0 -88 -36 -154t-101 -92q-73 -28 -121.5 9.5t-48.5 113.5v768q0 13 -9.5 22t-23.5 9q-12 0 -20.5 -9.5t-8.5 -23.5v-67q0 -14 -9.5 -23.5t-22.5 -9.5t-23 9.5t-10 23.5v8q0 14 -10 23.5t-23 9.5t-23 -9.5t-10 -23.5v-70q0 -14 -10 -23.5t-23 -9.5t-22.5 9.5 t-9.5 23.5v10q0 14 -8 23.5t-21 9.5q-14 0 -23.5 -9.5t-9.5 -23.5v-786z" />
<glyph unicode="&#xda;" horiz-adv-x="1212" d="M139 344q0 -83 30 -149t82 -106t117.5 -60.5t139 -17.5t145.5 28q432 151 432 715v790q0 14 -9.5 23.5t-22.5 9.5q-12 0 -20.5 -9.5t-8.5 -23.5v-67q0 -13 -10 -23t-23 -10t-23 10t-10 23v8q0 14 -9.5 23.5t-22.5 9.5q-14 0 -23.5 -10t-9.5 -23v-70q0 -13 -9.5 -23 t-23.5 -10t-23.5 10t-9.5 23v10q0 14 -7.5 23.5t-20.5 9.5t-23 -10t-10 -23v-819q0 -88 -36 -154t-101 -92q-73 -28 -121.5 9.5t-48.5 113.5v768q0 13 -9.5 22t-23.5 9q-12 0 -20.5 -9.5t-8.5 -23.5v-67q0 -14 -9.5 -23.5t-22.5 -9.5t-23 9.5t-10 23.5v8q0 14 -10 23.5 t-23 9.5t-23 -9.5t-10 -23.5v-70q0 -14 -10 -23.5t-23 -9.5t-22.5 9.5t-9.5 23.5v10q0 14 -8 23.5t-21 9.5q-14 0 -23.5 -9.5t-9.5 -23.5v-786zM224 1483q-4 21 14 30l413 193q29 14 43 0q9 -11 6.5 -24t-14.5 -19l-22 -10q-24 -12 -17 -33q3 -11 14.5 -13t20.5 3l92 43 q32 14 45 -8q7 -12 2.5 -27t-16.5 -21l-432 -200l-129 59q-16 6 -20 27z" />
<glyph unicode="&#xdb;" horiz-adv-x="1212" d="M139 344q0 -83 30 -149t82 -106t117.5 -60.5t139 -17.5t145.5 28q432 151 432 715v790q0 14 -9.5 23.5t-22.5 9.5q-12 0 -20.5 -9.5t-8.5 -23.5v-67q0 -13 -10 -23t-23 -10t-23 10t-10 23v8q0 14 -9.5 23.5t-22.5 9.5q-14 0 -23.5 -10t-9.5 -23v-70q0 -13 -9.5 -23 t-23.5 -10t-23.5 10t-9.5 23v10q0 14 -7.5 23.5t-20.5 9.5t-23 -10t-10 -23v-819q0 -88 -36 -154t-101 -92q-73 -28 -121.5 9.5t-48.5 113.5v768q0 13 -9.5 22t-23.5 9q-12 0 -20.5 -9.5t-8.5 -23.5v-67q0 -14 -9.5 -23.5t-22.5 -9.5t-23 9.5t-10 23.5v8q0 14 -10 23.5 t-23 9.5t-23 -9.5t-10 -23.5v-70q0 -14 -10 -23.5t-23 -9.5t-22.5 9.5t-9.5 23.5v10q0 14 -8 23.5t-21 9.5q-14 0 -23.5 -9.5t-9.5 -23.5v-786zM250 1350l268 567q23 50 51 61q23 10 49 -20l283 -320q10 -11 10 -23t-8 -18q-21 -15 -43 7l-61 67q-20 23 -39 10 q-19 -19 -2 -39l41 -53q10 -8 10.5 -19.5t-10.5 -21.5q-19 -14 -41 11l-150 184l-157 -342q-14 -32 -39 -29q-13 3 -19 14.5t0 24.5l35 74q10 26 -10 33q-12 4 -22 -2t-15 -19l-80 -168q-13 -30 -39 -24q-28 12 -12 45z" />
<glyph unicode="&#xdc;" horiz-adv-x="1212" d="M139 344q0 -83 30 -149t82 -106t117.5 -60.5t139 -17.5t145.5 28q432 151 432 715v790q0 14 -9.5 23.5t-22.5 9.5q-12 0 -20.5 -9.5t-8.5 -23.5v-67q0 -13 -10 -23t-23 -10t-23 10t-10 23v8q0 14 -9.5 23.5t-22.5 9.5q-14 0 -23.5 -10t-9.5 -23v-70q0 -13 -9.5 -23 t-23.5 -10t-23.5 10t-9.5 23v10q0 14 -7.5 23.5t-20.5 9.5t-23 -10t-10 -23v-819q0 -88 -36 -154t-101 -92q-73 -28 -121.5 9.5t-48.5 113.5v768q0 13 -9.5 22t-23.5 9q-12 0 -20.5 -9.5t-8.5 -23.5v-67q0 -14 -9.5 -23.5t-22.5 -9.5t-23 9.5t-10 23.5v8q0 14 -10 23.5 t-23 9.5t-23 -9.5t-10 -23.5v-70q0 -14 -10 -23.5t-23 -9.5t-22.5 9.5t-9.5 23.5v10q0 14 -8 23.5t-21 9.5q-14 0 -23.5 -9.5t-9.5 -23.5v-786zM369 1432v358q0 14 9.5 23.5t22.5 9.5t23 -9.5t10 -23.5v-43q0 -14 11 -24t24 -7q31 8 31 43v90q0 14 8 23.5t20 9.5 q14 0 23.5 -10t9.5 -23v-323q0 -28 -7 -42.5t-26 -23.5l-118 -55q-15 -8 -28 -0.5t-13 27.5zM657 1565v358q0 13 9.5 23t23.5 10t23.5 -10t9.5 -23v-43q0 -14 11 -24t24 -7q14 3 22 15.5t8 27.5v90q0 14 8.5 23.5t20.5 9.5q13 0 23 -9.5t10 -23.5v-323q0 -28 -7 -42.5 t-26 -23.5l-119 -55q-15 -8 -28 -0.5t-13 27.5z" />
<glyph unicode="&#xdd;" horiz-adv-x="1075" d="M31.5 1170q0.5 24 17.5 32q34 14 53 -22l2 -4q17 -34 48 -21q13 6 17.5 19.5t-3.5 31.5l-2 4q-7 8 -4.5 25.5t20.5 24.5q33 10 49 -27l2 -4q7 -17 22.5 -21.5t25.5 2.5q26 16 8 52l-2 4q-11 37 16 49q30 12 49 -19l170 -368l131 530q4 11 7.5 17.5t12 11.5t21.5 4 q18 -1 25 -15t2 -32l-2 -6q-8 -31 20 -37q25 -6 37 29l39 102q10 41 43 35q19 -3 26.5 -15.5t2.5 -27.5l-2 -6q-8 -31 14 -37q24 -7 37 26l51 119q13 29 45 21q35 -9 27 -39l-365 -1022v-498q0 -14 -10 -23.5t-23 -9.5t-20.5 9.5t-7.5 23.5v10q0 14 -9.5 23.5t-23.5 9.5 t-23.5 -9.5t-9.5 -23.5v-69q0 -13 -10.5 -23t-24.5 -10q-13 0 -21.5 9.5t-8.5 23.5v8q0 13 -10 23t-23 10t-23 -10t-10 -23v-68q0 -14 -8 -23t-20 -9q-14 0 -23.5 9.5t-9.5 22.5v545l-336 627q-6 5 -5.5 29zM117 1524q-4 21 14 30l414 193q29 14 43 0q9 -11 6.5 -24 t-14.5 -19l-23 -10q-23 -12 -16 -33q3 -11 14 -13t20 3l93 43q32 14 45 -8q7 -12 2 -27t-17 -21l-432 -200l-129 59q-16 6 -20 27z" />
<glyph unicode="&#xde;" horiz-adv-x="1021" d="M20 461q-18 179 58.5 297.5t294.5 228.5l180 90v307q0 14 9.5 23.5t23.5 9.5q13 0 20.5 -9.5t7.5 -23.5v-8q0 -14 10 -23.5t23 -9.5t23 9.5t10 23.5v68q0 14 10 23.5t23 9.5t22.5 -9.5t9.5 -23.5v-6q0 -14 9.5 -23.5t23.5 -9.5t23.5 9.5t9.5 23.5v65q0 14 8.5 23.5 t20.5 9.5q14 0 23 -9t9 -22v-1396q0 -14 -9.5 -23.5t-22.5 -9.5t-21 9.5t-8 23.5v8q0 18 -9.5 26.5t-23.5 6.5q-33 -2 -33 -44v-57q0 -14 -9.5 -23.5t-22.5 -9.5t-23 10t-10 23v6q0 18 -9.5 26.5t-23.5 6.5q-33 -3 -33 -43v-55q0 -14 -8 -23.5t-20 -9.5q-14 0 -23.5 9.5 t-9.5 23.5v332l-90 -41q-71 -33 -142.5 -44t-136.5 3t-110 70.5t-54 150.5zM283 551q5 -48 38.5 -61.5t86.5 12.5l145 71v222l-158 -70q-125 -55 -112 -174z" />
<glyph unicode="&#xdf;" horiz-adv-x="1134" d="M139 -150v1029q0 69 5.5 124t18.5 113t38 106t62.5 93.5t92.5 85t127 72.5q52 24 116.5 34.5t131.5 3t124 -32t95.5 -77.5t44.5 -127q10 -115 -30 -203.5t-88 -116.5q38 2 71.5 -7.5t63.5 -32t47.5 -66.5t17.5 -105q0 -188 -102.5 -322.5t-333.5 -230.5l-49 -22 q-30 -11 -43 14q-13 26 16 41l37 17q35 14 35 49q0 14 -11 18.5t-26 -2.5l-8 -4q-12 -6 -24.5 -1t-18.5 17t-1.5 24.5t17.5 18.5l43 21q35 18 33 47q-1 15 -14.5 18.5t-28.5 -4.5l-10 -4q-12 -6 -24.5 -2.5t-16.5 15.5q-6 12 -0.5 25.5t18.5 19.5l80 39l76 38q80 46 74 142 q-2 39 -33.5 60t-81.5 -1l-59 -31q-40 -22 -70.5 4.5t-30.5 75.5q0 54 18 93t70 67q113 62 109 156q-1 38 -23 56t-53 16t-66 -17q-120 -53 -120 -246v-979q0 -13 -9.5 -22.5t-23.5 -9.5q-27 0 -27 32v17q0 17 -12 25t-25 5q-28 -8 -28 -63v-43q0 -13 -10.5 -23t-24.5 -10 q-13 0 -22 9.5t-9 23.5v16q0 14 -10 25t-23 8q-32 -8 -32 -61v-48q0 -12 -7.5 -21t-19.5 -9q-13 0 -23 9t-10 21z" />
<glyph unicode="&#xe0;" horiz-adv-x="1148" d="M12.5 334q-3.5 13 3.5 24l506 975q17 34 38 43t67 -8l219 -104l264 -1401q3 -13 -5 -24t-20 -13q-11 -3 -21 5.5t-11 21.5l-19 94q-3 13 -14 20.5t-23 5.5q-14 -1 -21.5 -12t-4.5 -24l2 -9q3 -12 -5 -22t-22 -12q-13 -3 -24 4.5t-13 19.5l-16 96q-7 30 -39 27 q-13 -1 -20.5 -12t-4.5 -25l2 -8q3 -14 -3 -25t-19 -14q-32 -3 -35 29l-47 260l-342 155l-86 -178q-16 -31 -43 -16q-25 14 -10 45l2 4q15 26 -15 41q-28 14 -43 -10l-8 -15q-6 -11 -18.5 -14t-24.5 4q-12 6 -15.5 19t3.5 24l2 4q12 28 -14 43q-26 16 -43 -12l-9 -12 q-6 -12 -16.5 -15.5t-19.5 2.5q-11 6 -14.5 19zM399 1638.5q-5 14.5 2 26.5q13 22 45 8l93 -43q9 -5 20 -3t14 13q7 21 -16 33l-22 10q-12 6 -15 19t6 24q14 14 43 0l414 -192q18 -9 14 -30t-20 -27l-129 -60l-432 201q-12 6 -17 20.5zM485 612l193 -92l-66 361z" />
<glyph unicode="&#xe1;" horiz-adv-x="1148" d="M12.5 361q-3.5 13 3.5 24l506 975q17 34 38 43t67 -8l219 -105l264 -1401q3 -13 -5 -23.5t-20 -12.5q-11 -3 -21 5t-11 21l-19 94q-3 13 -14 21t-23 6q-14 -1 -21.5 -12.5t-4.5 -24.5l2 -8q3 -12 -5.5 -23t-21.5 -12q-13 -3 -24 5t-13 20l-16 96q-7 30 -39 27 q-13 -1 -20.5 -12t-4.5 -25l2 -8q3 -14 -3 -25t-19 -14q-32 -3 -35 28l-47 260l-342 156l-86 -178q-16 -32 -43 -17q-26 14 -10 46l2 4q15 26 -15 41q-28 14 -43 -11l-8 -14q-6 -11 -18.5 -14t-24.5 4q-12 6 -15.5 19t3.5 24l2 4q12 28 -14 43q-26 16 -43 -12l-9 -13 q-6 -12 -16.5 -15t-19.5 3q-11 6 -14.5 19zM485 639l193 -92l-66 360zM691 1471q-4 21 14 30l413 193q29 14 43 0q9 -11 6.5 -24t-14.5 -19l-23 -11q-23 -11 -16 -32q3 -11 14.5 -13.5t20.5 2.5l92 43q32 14 45 -8q7 -12 2.5 -26.5t-16.5 -20.5l-432 -201l-129 60 q-16 6 -20 27z" />
<glyph unicode="&#xe2;" horiz-adv-x="1148" d="M12.5 334q-3.5 13 3.5 24l506 975q17 34 38 43t67 -8l219 -104l264 -1401q3 -13 -5 -24t-20 -13q-11 -3 -21 5.5t-11 21.5l-19 94q-3 13 -14 20.5t-23 5.5q-14 -1 -21.5 -12t-4.5 -24l2 -9q3 -12 -5 -22t-22 -12q-13 -3 -24 4.5t-13 19.5l-16 96q-7 30 -39 27 q-13 -1 -20.5 -12t-4.5 -25l2 -8q3 -14 -3 -25t-19 -14q-32 -3 -35 29l-47 260l-342 155l-86 -178q-16 -31 -43 -16q-25 14 -10 45l2 4q15 26 -15 41q-28 14 -43 -10l-8 -15q-6 -11 -18.5 -14t-24.5 4q-12 6 -15.5 19t3.5 24l2 4q12 28 -14 43q-26 16 -43 -12l-9 -12 q-6 -12 -16.5 -15.5t-19.5 2.5q-11 6 -14.5 19zM418 1505q0 12 10 23l283 319q27 31 49 21q28 -11 51 -62l268 -567q16 -33 -12 -45q-25 -6 -39 25l-80 167q-5 13 -15 19t-22 2q-20 -7 -10 -33l35 -74q6 -13 0 -24t-18 -14q-25 -3 -39 28l-158 342l-150 -184 q-21 -24 -41 -10q-11 10 -10.5 21.5t10.5 19.5l41 53q17 20 -2 39q-19 13 -39 -10l-61 -68q-22 -22 -43 -6q-8 6 -8 18zM485 612l193 -92l-66 361z" />
<glyph unicode="&#xe3;" horiz-adv-x="1148" d="M12.5 334q-3.5 13 3.5 24l506 975q17 34 38 43t67 -8l219 -104l264 -1401q3 -13 -5 -24t-20 -13q-11 -3 -21 5.5t-11 21.5l-19 94q-3 13 -14 20.5t-23 5.5q-14 -1 -21.5 -12t-4.5 -24l2 -9q3 -12 -5 -22t-22 -12q-13 -3 -24 4.5t-13 19.5l-16 96q-7 30 -39 27 q-13 -1 -20.5 -12t-4.5 -25l2 -8q3 -14 -3 -25t-19 -14q-32 -3 -35 29l-47 260l-342 155l-86 -178q-16 -31 -43 -16q-25 14 -10 45l2 4q15 26 -15 41q-28 14 -43 -10l-8 -15q-6 -11 -18.5 -14t-24.5 4q-12 6 -15.5 19t3.5 24l2 4q12 28 -14 43q-26 16 -43 -12l-9 -12 q-6 -12 -16.5 -15.5t-19.5 2.5q-11 6 -14.5 19zM327.5 1901.5q4.5 11.5 16.5 15.5q13 4 23.5 -1t13.5 -15l25 -68q4 -11 16 -16t22 -2q29 13 19 40l-27 72q-11 32 17 41q25 9 36 -20l33 -95q6 -17 8.5 -24.5t8.5 -21t10.5 -19t12.5 -14t17 -11.5t21.5 -6t28 -3t35.5 3 l157 17q83 7 145.5 -42t100.5 -145q7 -19 17 -47t14 -39q5 -12 1 -24.5t-16 -16.5q-26 -7 -36 23l-21 57q-5 12 -16 18.5t-23 2.5q-11 -5 -15.5 -17t-0.5 -24l24 -70q5 -10 0.5 -21.5t-16.5 -15.5t-22 1t-15 16l-27 77q-9 26 -18.5 45.5t-17.5 32.5t-20 21.5t-20 13t-25 5.5 t-26.5 1t-33.5 -1t-37 -1q-140 -6 -142 -6q-73 -2 -121.5 31t-88.5 135q-35 89 -37 96q-5 10 -0.5 21.5zM485 612l193 -92l-66 361z" />
<glyph unicode="&#xe4;" horiz-adv-x="1148" d="M12.5 334q-3.5 13 3.5 24l506 975q17 34 38 43t67 -8l219 -104l264 -1401q3 -13 -5 -24t-20 -13q-11 -3 -21 5.5t-11 21.5l-19 94q-3 13 -14 20.5t-23 5.5q-14 -1 -21.5 -12t-4.5 -24l2 -9q3 -12 -5 -22t-22 -12q-13 -3 -24 4.5t-13 19.5l-16 96q-7 30 -39 27 q-13 -1 -20.5 -12t-4.5 -25l2 -8q3 -14 -3 -25t-19 -14q-32 -3 -35 29l-47 260l-342 155l-86 -178q-16 -31 -43 -16q-25 14 -10 45l2 4q15 26 -15 41q-28 14 -43 -10l-8 -15q-6 -11 -18.5 -14t-24.5 4q-12 6 -15.5 19t3.5 24l2 4q12 28 -14 43q-26 16 -43 -12l-9 -12 q-6 -12 -16.5 -15.5t-19.5 2.5q-11 6 -14.5 19zM485 612l193 -92l-66 361zM498 1579v324q0 13 9 22.5t23 9.5q12 0 20.5 -9.5t8.5 -22.5v-91q0 -15 8.5 -27.5t22.5 -15.5q13 -3 24 7t11 24v43q0 14 9.5 23.5t22.5 9.5t23 -10t10 -23v-358q0 -20 -13 -27.5t-28 0.5l-119 55 q-19 9 -25.5 23.5t-6.5 42.5zM786 1446v323q0 13 10 23t23 10q12 0 20.5 -9.5t8.5 -23.5v-90q0 -35 31 -43q13 -3 23.5 7t10.5 24v43q0 14 9.5 23.5t23.5 9.5t23.5 -9.5t9.5 -23.5v-358q0 -20 -13 -27.5t-28 0.5l-119 55q-19 9 -26 23.5t-7 42.5z" />
<glyph unicode="&#xe5;" horiz-adv-x="1148" d="M12.5 334q-3.5 13 3.5 24l506 975q17 34 38 43t67 -8l219 -104l264 -1401q3 -13 -5 -24t-20 -13q-11 -3 -21 5.5t-11 21.5l-19 94q-3 13 -14 20.5t-23 5.5q-14 -1 -21.5 -12t-4.5 -24l2 -9q3 -12 -5 -22t-22 -12q-13 -3 -24 4.5t-13 19.5l-16 96q-7 30 -39 27 q-13 -1 -20.5 -12t-4.5 -25l2 -8q3 -14 -3 -25t-19 -14q-32 -3 -35 29l-47 260l-342 155l-86 -178q-16 -31 -43 -16q-25 14 -10 45l2 4q15 26 -15 41q-28 14 -43 -10l-8 -15q-6 -11 -18.5 -14t-24.5 4q-12 6 -15.5 19t3.5 24l2 4q12 28 -14 43q-26 16 -43 -12l-9 -12 q-6 -12 -16.5 -15.5t-19.5 2.5q-11 6 -14.5 19zM485 612l193 -92l-66 361z" />
<glyph unicode="&#xe6;" horiz-adv-x="1830" d="M12.5 353q-3.5 13 3.5 24l506 975q16 34 37.5 42.5t67.5 -8.5l219 -104q3 -6 8 -15.5t15 -29.5t17 -33t7 -12l498 231q28 16 43 -8q8 -14 2.5 -27t-17.5 -20l-8 -4q-12 -6 -15 -18.5t3 -24.5q7 -10 22 -11t27 7l90 41q29 14 45 -12q14 -28 -12 -41l-8 -5q-27 -17 -13 -45 q15 -23 45 -8l86 41q12 6 26.5 4t18.5 -12q15 -33 -14 -53l-668 -314q-43 -20 -54 -40.5t-9 -49.5q2 -34 35 -47.5t71 4.5l295 140q25 14 39 -7q7 -12 4 -24t-14 -17l-6 -2q-24 -12 -12 -39q4 -10 21.5 -12t27.5 4l76 39q24 14 41 -10q5 -10 1 -21.5t-14 -15.5l-6 -4 q-11 -5 -15.5 -16.5t1.5 -22.5t18.5 -14.5t24.5 2.5l80 39q11 6 23 4t18 -10q13 -23 -13 -41l-581 -271q-49 -23 -68 -48.5t-10 -65.5q8 -35 44 -49t77 4l311 143q28 16 43 -8q17 -26 -12 -43l-4 -2q-12 -6 -15.5 -19.5t2.5 -25.5q16 -22 45 -9l86 41q29 14 45 -12 q14 -28 -12 -41l-4 -2q-26 -16 -14 -41q8 -12 20.5 -16t24.5 2l88 41q12 6 25.5 3.5t19.5 -11.5q8 -12 3.5 -28.5t-17.5 -25.5l-576 -270q-63 -30 -129 -39t-125.5 2.5t-105.5 52t-66 105.5l-45 145l-342 156l-86 -178q-16 -32 -43 -17q-25 14 -10 45l2 4q15 26 -15 41 q-28 14 -43 -10l-8 -14q-6 -11 -18.5 -14t-24.5 4q-12 6 -15.5 19t3.5 24l2 4q12 28 -14 43q-25 16 -43 -13l-9 -12q-6 -12 -16.5 -15t-19.5 3q-11 6 -14.5 19zM485 631l193 -92l-66 360z" />
<glyph unicode="&#xe7;" horiz-adv-x="1308" d="M113 864q8 107 52.5 198.5t114 155t154.5 104.5t180 56q104 17 202.5 -12t244.5 -98l268 -123q38 -17 27 -51q-4 -12 -21.5 -17.5t-29.5 0.5l-93 39q-12 6 -26 2.5t-21 -16.5q-7 -12 -2 -23.5t19 -19.5l4 -2q29 -13 12 -41q-16 -26 -45 -12l-102 40q-12 7 -25.5 3 t-19.5 -15q-6 -12 -1 -24.5t19 -18.5l6 -4q11 -6 15 -17.5t-3 -23.5q-12 -24 -43 -12l-223 104q-54 26 -109.5 18t-99.5 -37t-72 -86.5t-28 -131.5q0 -82 19.5 -143t61 -106t88.5 -75t120 -65l346 -162q18 -8 21 -25.5t-7 -25.5q-22 -22 -47 -9l-84 41q-30 15 -45 -10 q-12 -25 10 -41l13 -8q19 -15 13 -29.5t-26 -23.5l-129 -60l13 -6q80 -38 114.5 -95t34.5 -149q0 -191 -125 -244t-336 48l-225 108l-4 2q-29 13 -12 41q7 11 23.5 13.5t27.5 -2.5l76 -31q11 -8 33 -7.5t32 11.5q10 14 4 25t-22 18l-6 4q-11 6 -15.5 17.5t2.5 23.5 q7 11 26 12.5t30 -4.5l153 -71q92 -39 92 57q0 50 -21 74t-77 51l-168 78q-11 6 -10.5 14.5t10.5 13.5l147 70l-112 53q-206 95 -308.5 269t-84.5 413z" />
<glyph unicode="&#xe8;" horiz-adv-x="1316" d="M121 575q4 52 26.5 94.5t54.5 68t63 40t59 17.5q-70 56 -99.5 138t-25.5 159q5 99 58 172t133.5 107.5t181.5 34t200 -39.5l473 -219q12 -6 17 -22.5t-2 -30.5q-6 -9 -20 -12t-26 3l-88 41q-12 6 -24.5 2t-20.5 -16q-12 -24 15 -41l4 -2q26 -13 12 -41q-16 -26 -45 -12 l-88 41q-12 7 -24.5 5t-18.5 -13q-7 -12 -3.5 -25.5t15.5 -19.5l4 -3q30 -17 13 -43q-15 -24 -43 -8l-254 115q-41 18 -77 4t-44 -49q-9 -40 10 -66t68 -49l524 -241q25 -14 12 -41q-6 -8 -18 -10.5t-23 3.5l-78 39q-12 6 -24.5 2.5t-18.5 -14.5t-1 -22.5t16 -16.5l4 -4 q10 -4 13.5 -15.5t-1.5 -21.5q-17 -24 -41 -10l-74 39q-10 6 -27.5 4t-21.5 -12q-11 -27 13 -39l4 -2q11 -5 14 -17t-4 -24q-14 -20 -39 -6l-283 131q-38 18 -71 4.5t-35 -47.5q-2 -29 9 -49.5t54 -40.5l656 -306q29 -15 14 -53q-4 -10 -18.5 -12t-26.5 4l-82 41 q-30 15 -45 -8q-14 -29 12 -45l4 -4q12 -6 15.5 -17.5t-2.5 -23.5q-17 -27 -45 -13l-86 39q-12 8 -27.5 7t-22.5 -11q-6 -12 -2.5 -24.5t15.5 -18.5l4 -2q12 -7 17 -20t-3 -27q-15 -24 -43 -8l-547 254q-65 36 -107.5 76.5t-68 105.5t-18.5 147zM569 1577q-5 15 2 27 q13 22 45 8l93 -43q9 -5 20 -3t14 13q7 21 -16 33l-22 10q-12 6 -15 19t6 24q14 14 43 0l414 -192q18 -9 14 -30.5t-20 -27.5l-129 -59l-432 200q-12 6 -17 21z" />
<glyph unicode="&#xe9;" horiz-adv-x="1415" d="M121 575q4 52 26.5 94.5t54.5 68t63 40t59 17.5q-70 56 -99.5 138t-25.5 159q5 99 58 172t133.5 107.5t181.5 34t200 -39.5l473 -219q12 -6 17 -22.5t-2 -30.5q-6 -9 -20 -12t-26 3l-88 41q-12 6 -24.5 2t-20.5 -16q-12 -24 15 -41l4 -2q26 -13 12 -41q-16 -26 -45 -12 l-88 41q-12 7 -24.5 5t-18.5 -13q-7 -12 -3.5 -25.5t15.5 -19.5l4 -3q30 -17 13 -43q-15 -24 -43 -8l-254 115q-41 18 -77 4t-44 -49q-9 -40 10 -66t68 -49l524 -241q25 -14 12 -41q-6 -8 -18 -10.5t-23 3.5l-78 39q-12 6 -24.5 2.5t-18.5 -14.5t-1 -22.5t16 -16.5l4 -4 q10 -4 13.5 -15.5t-1.5 -21.5q-17 -24 -41 -10l-74 39q-10 6 -27.5 4t-21.5 -12q-11 -27 13 -39l4 -2q11 -5 14 -17t-4 -24q-14 -20 -39 -6l-283 131q-38 18 -71 4.5t-35 -47.5q-2 -29 9 -49.5t54 -40.5l656 -306q29 -15 14 -53q-4 -10 -18.5 -12t-26.5 4l-82 41 q-30 15 -45 -8q-14 -29 12 -45l4 -4q12 -6 15.5 -17.5t-2.5 -23.5q-17 -27 -45 -13l-86 39q-12 8 -27.5 7t-22.5 -11q-6 -12 -2.5 -24.5t15.5 -18.5l4 -2q12 -7 17 -20t-3 -27q-15 -24 -43 -8l-547 254q-65 36 -107.5 76.5t-68 105.5t-18.5 147zM795 1528.5q-4 21.5 14 30.5 l414 192q29 14 43 0q9 -11 6 -24t-15 -19l-22 -10q-23 -12 -16 -33q3 -11 14 -13t20 3l93 43q32 14 45 -8q7 -12 2 -27t-17 -21l-432 -200l-129 59q-16 6 -20 27.5z" />
<glyph unicode="&#xea;" horiz-adv-x="1316" d="M121 575q4 52 26.5 94.5t54.5 68t63 40t59 17.5q-70 56 -99.5 138t-25.5 159q5 99 58 172t133.5 107.5t181.5 34t200 -39.5l473 -219q12 -6 17 -22.5t-2 -30.5q-6 -9 -20 -12t-26 3l-88 41q-12 6 -24.5 2t-20.5 -16q-12 -24 15 -41l4 -2q26 -13 12 -41q-16 -26 -45 -12 l-88 41q-12 7 -24.5 5t-18.5 -13q-7 -12 -3.5 -25.5t15.5 -19.5l4 -3q30 -17 13 -43q-15 -24 -43 -8l-254 115q-41 18 -77 4t-44 -49q-9 -40 10 -66t68 -49l524 -241q25 -14 12 -41q-6 -8 -18 -10.5t-23 3.5l-78 39q-12 6 -24.5 2.5t-18.5 -14.5t-1 -22.5t16 -16.5l4 -4 q10 -4 13.5 -15.5t-1.5 -21.5q-17 -24 -41 -10l-74 39q-10 6 -27.5 4t-21.5 -12q-11 -27 13 -39l4 -2q11 -5 14 -17t-4 -24q-14 -20 -39 -6l-283 131q-38 18 -71 4.5t-35 -47.5q-2 -29 9 -49.5t54 -40.5l656 -306q29 -15 14 -53q-4 -10 -18.5 -12t-26.5 4l-82 41 q-30 15 -45 -8q-14 -29 12 -45l4 -4q12 -6 15.5 -17.5t-2.5 -23.5q-17 -27 -45 -13l-86 39q-12 8 -27.5 7t-22.5 -11q-6 -12 -2.5 -24.5t15.5 -18.5l4 -2q12 -7 17 -20t-3 -27q-15 -24 -43 -8l-547 254q-65 36 -107.5 76.5t-68 105.5t-18.5 147zM471 1601q0 12 10 23 l283 320q26 30 49 20q28 -11 51 -61l269 -568q16 -33 -13 -45q-25 -6 -39 25l-80 168q-11 29 -36 20q-21 -7 -11 -33l35 -73q6 -13 0 -24.5t-18 -14.5q-25 -3 -39 28l-158 343l-149 -185q-21 -24 -41 -10q-11 10 -10.5 21.5t10.5 19.5l41 53q17 20 -2 39q-19 13 -39 -10 l-62 -68q-22 -22 -43 -6q-8 6 -8 18z" />
<glyph unicode="&#xeb;" horiz-adv-x="1316" d="M121 575q4 52 26.5 94.5t54.5 68t63 40t59 17.5q-70 56 -99.5 138t-25.5 159q5 99 58 172t133.5 107.5t181.5 34t200 -39.5l473 -219q12 -6 17 -22.5t-2 -30.5q-6 -9 -20 -12t-26 3l-88 41q-12 6 -24.5 2t-20.5 -16q-12 -24 15 -41l4 -2q26 -13 12 -41q-16 -26 -45 -12 l-88 41q-12 7 -24.5 5t-18.5 -13q-7 -12 -3.5 -25.5t15.5 -19.5l4 -3q30 -17 13 -43q-15 -24 -43 -8l-254 115q-41 18 -77 4t-44 -49q-9 -40 10 -66t68 -49l524 -241q25 -14 12 -41q-6 -8 -18 -10.5t-23 3.5l-78 39q-12 6 -24.5 2.5t-18.5 -14.5t-1 -22.5t16 -16.5l4 -4 q10 -4 13.5 -15.5t-1.5 -21.5q-17 -24 -41 -10l-74 39q-10 6 -27.5 4t-21.5 -12q-11 -27 13 -39l4 -2q11 -5 14 -17t-4 -24q-14 -20 -39 -6l-283 131q-38 18 -71 4.5t-35 -47.5q-2 -29 9 -49.5t54 -40.5l656 -306q29 -15 14 -53q-4 -10 -18.5 -12t-26.5 4l-82 41 q-30 15 -45 -8q-14 -29 12 -45l4 -4q12 -6 15.5 -17.5t-2.5 -23.5q-17 -27 -45 -13l-86 39q-12 8 -27.5 7t-22.5 -11q-6 -12 -2.5 -24.5t15.5 -18.5l4 -2q12 -7 17 -20t-3 -27q-15 -24 -43 -8l-547 254q-65 36 -107.5 76.5t-68 105.5t-18.5 147zM518 1606v323q0 13 10 23 t23 10q12 0 20.5 -9.5t8.5 -23.5v-90q0 -15 8 -27.5t22 -15.5q13 -3 24 7t11 24v43q0 14 9.5 23.5t23.5 9.5t23.5 -9.5t9.5 -23.5v-359q0 -20 -13 -27t-28 1l-119 55q-19 9 -26 23.5t-7 42.5zM807 1473v323q0 14 9.5 23.5t23.5 9.5q12 0 20 -9.5t8 -23.5v-90q0 -35 31 -43 q13 -3 24 7t11 24v43q0 13 9.5 22.5t23.5 9.5q13 0 22.5 -9.5t9.5 -22.5v-359q0 -20 -13 -27t-28 1l-118 55q-19 9 -26 23.5t-7 42.5z" />
<glyph unicode="&#xec;" d="M61 1706.5q-5 14.5 2 26.5q13 23 46 8l92 -43q9 -5 20.5 -3t14.5 13q7 21 -17 33l-22 10q-12 6 -15 19t6 24q14 14 43 0l414 -192q18 -9 14 -30.5t-20 -27.5l-129 -59l-432 201q-12 6 -17 20.5zM188 102v1330q0 13 9.5 21.5t23.5 8.5q12 0 20.5 -9.5t8.5 -22.5v-66 q0 -14 10 -23.5t23 -9.5t22.5 9.5t9.5 23.5v6q0 14 9.5 23.5t23.5 9.5t23.5 -9.5t9.5 -23.5v-67q0 -13 9.5 -23t23.5 -10q13 0 22.5 9.5t9.5 23.5v8q0 14 8 23t21 9q14 0 23.5 -9.5t9.5 -22.5v-1327q0 -14 -10 -23.5t-23 -9.5q-12 0 -20.5 9.5t-8.5 23.5v71q0 14 -9.5 23.5 t-22.5 9.5q-14 0 -23.5 -10t-9.5 -23v-12q0 -13 -9.5 -23t-23.5 -10t-23.5 10t-9.5 23v74q0 14 -9.5 23.5t-22.5 9.5t-23 -10t-10 -23v-15q0 -14 -8 -23t-21 -9q-14 0 -23.5 9.5t-9.5 22.5z" />
<glyph unicode="&#xed;" d="M188 102v1330q0 13 9.5 21.5t23.5 8.5q12 0 20.5 -9.5t8.5 -22.5v-66q0 -14 10 -23.5t23 -9.5t22.5 9.5t9.5 23.5v6q0 14 9.5 23.5t23.5 9.5t23.5 -9.5t9.5 -23.5v-67q0 -13 9.5 -23t23.5 -10q13 0 22.5 9.5t9.5 23.5v8q0 14 8 23t21 9q14 0 23.5 -9.5t9.5 -22.5v-1327 q0 -14 -10 -23.5t-23 -9.5q-12 0 -20.5 9.5t-8.5 23.5v71q0 14 -9.5 23.5t-22.5 9.5q-14 0 -23.5 -10t-9.5 -23v-12q0 -13 -9.5 -23t-23.5 -10t-23.5 10t-9.5 23v74q0 14 -9.5 23.5t-22.5 9.5t-23 -10t-10 -23v-15q0 -14 -8 -23t-21 -9q-14 0 -23.5 9.5t-9.5 22.5zM228 1635 q-4 21 14 30l413 193q29 14 43 0q9 -11 6.5 -24t-14.5 -19l-22 -11q-24 -12 -17 -32q3 -11 14.5 -13.5t20.5 2.5l92 43q32 14 45 -8q7 -12 2.5 -26.5t-16.5 -20.5l-432 -201l-129 60q-16 6 -20 27z" />
<glyph unicode="&#xee;" d="M45 1579q0 12 10 23l283 319q27 31 49 21q28 -11 51 -62l269 -567q16 -33 -13 -45q-26 -6 -39 24l-80 168q-11 30 -36 21q-21 -7 -11 -33l35 -74q6 -13 0 -24.5t-18 -14.5q-25 -3 -39 29l-158 342l-149 -184q-22 -25 -41 -11q-11 10 -10.5 21.5t10.5 19.5l41 54 q17 20 -2 39q-19 13 -39 -11l-62 -67q-22 -22 -43 -6q-8 6 -8 18zM188 102v1330q0 13 9.5 21.5t23.5 8.5q12 0 20.5 -9.5t8.5 -22.5v-142q0 -14 10 -23.5t23 -9.5t22.5 9.5t9.5 23.5v82q0 14 9.5 23.5t23.5 9.5t23.5 -9.5t9.5 -23.5v-143q0 -13 9.5 -23t23.5 -10 q13 0 22.5 9.5t9.5 23.5v84q0 14 8 23t21 9q14 0 23.5 -9.5t9.5 -22.5v-1327q0 -14 -10 -23.5t-23 -9.5q-12 0 -20.5 9.5t-8.5 23.5v141q0 14 -9.5 23.5t-22.5 9.5q-14 0 -23.5 -10t-9.5 -23v-82q0 -13 -9.5 -23t-23.5 -10t-23.5 10t-9.5 23v143q0 14 -9.5 23.5t-22.5 9.5 t-23 -9.5t-10 -23.5v-84q0 -14 -8 -23t-21 -9q-14 0 -23.5 9.5t-9.5 22.5z" />
<glyph unicode="&#xef;" d="M109 1636v324q0 14 9.5 23.5t22.5 9.5q12 0 20.5 -9.5t8.5 -23.5v-90q0 -15 8.5 -27.5t22.5 -15.5q13 -3 24 7t11 24v43q0 13 9 22.5t23 9.5t23.5 -9.5t9.5 -22.5v-359q0 -20 -13 -27t-28 1l-119 55q-19 9 -25.5 23t-6.5 42zM188 102v1330q0 13 9.5 21.5t23.5 8.5 q12 0 20.5 -9.5t8.5 -22.5v-142q0 -14 10 -23.5t23 -9.5t22.5 9.5t9.5 23.5v82q0 14 9.5 23.5t23.5 9.5t23.5 -9.5t9.5 -23.5v-143q0 -13 9.5 -23t23.5 -10q13 0 22.5 9.5t9.5 23.5v84q0 14 8 23t21 9q14 0 23.5 -9.5t9.5 -22.5v-1327q0 -14 -10 -23.5t-23 -9.5 q-12 0 -20.5 9.5t-8.5 23.5v141q0 14 -9.5 23.5t-22.5 9.5q-14 0 -23.5 -10t-9.5 -23v-82q0 -13 -9.5 -23t-23.5 -10t-23.5 10t-9.5 23v143q0 14 -9.5 23.5t-22.5 9.5t-23 -9.5t-10 -23.5v-84q0 -14 -8 -23t-21 -9q-14 0 -23.5 9.5t-9.5 22.5zM397 1503v324q0 13 9.5 23 t23.5 10q12 0 20.5 -9.5t8.5 -23.5v-90q0 -35 30 -43q13 -3 24 6.5t11 23.5v43q0 13 10 23t23 10t23 -10t10 -23v-358q0 -20 -13 -27.5t-28 0.5l-119 56q-19 9 -26 23t-7 42z" />
<glyph unicode="&#xf0;" horiz-adv-x="1208" d="M105 934q-1 11 8 24l192 211q-87 23 -168 23q-16 0 -24.5 9t-6.5 20q3 20 29 24q12 2 76 2q27 0 31 17q5 26 -19 26h-8q-11 0 -19.5 8t-5.5 19q5 19 41 22q27 2 58 -2q28 -4 35 13q6 14 -2 22t-21 8h-10q-25 0 -25 25q0 14 15 20.5t32 6.5q86 0 195 -41l125 137 q24 20 43 8q25 -18 4 -47l-6 -6q-20 -27 0 -41q21 -21 57 12l62 62q22 22 47 4q22 -22 2 -43l-154 -172q93 -57 167 -142t121 -182t73.5 -198t33.5 -203q17 -255 -109.5 -413t-350.5 -167q-82 -3 -173 35.5t-173.5 122t-120.5 194.5q-54 167 -13.5 291.5t135 197.5t205.5 77 q137 5 244 -78q-14 60 -69.5 128.5t-157.5 125.5l-166 -187q-10 -10 -24 -11t-23 7q-23 26 -2 47l6 8q7 7 5 20.5t-13 20.5q-13 7 -29 2t-27 -16l-57 -57q-26 -26 -57 -10q-7 5 -8 16zM422 506q3 -75 53 -140t127 -83q78 -18 129.5 39.5t38.5 162.5q-9 76 -64.5 131 t-132.5 62q-72 6 -113.5 -39.5t-37.5 -132.5z" />
<glyph unicode="&#xf1;" horiz-adv-x="1269" d="M158 391v1186q0 51 26 71.5t82 -1.5l201 -95l307 -909q0 -2 3 -3q1 0 1.5 1.5t-0.5 3.5q-12 52 -25.5 189.5t-13.5 242.5v293q0 14 9.5 23.5t23.5 9.5q12 0 20.5 -9.5t8.5 -23.5v-49q0 -16 8.5 -31.5t24.5 -19.5q17 -4 24.5 6.5t7.5 26.5v8q0 13 9.5 22.5t23.5 9.5 t23.5 -9.5t9.5 -22.5v-51q0 -47 33 -52q17 -3 24.5 7t7.5 26v10q0 14 8 23.5t21 9.5q14 0 23.5 -10t9.5 -23v-1304l-213 96q-81 37 -111 121l-305 885q0 2 -3 3q-1 0 -1 -1v-4q18 -76 34.5 -209.5t16.5 -219.5v-348q0 -12 -10 -21t-23 -9q-12 0 -20 9t-8 23v39q0 58 -33 64 q-16 3 -24.5 -7.5t-8.5 -25.5v-10q0 -14 -10 -23.5t-23 -9.5t-22.5 9.5t-9.5 23.5v49q0 49 -33 55q-13 3 -23 -8t-10 -25v-12q0 -14 -8 -23.5t-21 -9.5t-22.5 9.5t-9.5 23.5zM298.5 2018.5q4.5 11.5 16.5 15.5q13 4 23.5 -1.5t13.5 -15.5l25 -67q4 -11 16.5 -16.5t22.5 -2.5 q29 13 18 41l-26 72q-11 32 16 41q12 4 22 -2t15 -19l33 -94q6 -18 8.5 -24.5t8.5 -21t10 -19t12 -14t17 -12t21.5 -6t28 -3t35.5 3.5l158 16q83 7 145 -41.5t100 -144.5q8 -19 17.5 -47t13.5 -39q5 -12 1.5 -24.5t-15.5 -16.5q-27 -7 -37 22l-21 58q-5 12 -16 18t-23 2 q-11 -5 -15.5 -17t-0.5 -24l25 -69q5 -11 0 -22t-17 -15t-22 0.5t-15 15.5l-26 78q-9 26 -18.5 45.5t-17.5 32.5t-20.5 21.5t-20 13t-25 5.5t-27 1t-33.5 -1t-37 -1q-139 -6 -141 -6q-73 -2 -122 31t-89 135q-35 89 -37 96q-5 10 -0.5 21.5z" />
<glyph unicode="&#xf2;" horiz-adv-x="1386" d="M70 846q3 -155 64 -312.5t163 -242.5q73 -59 104 -68q32 -6 41 15q9 23 -18 38l-8 5q-24 17 -2 36q20 16 49 -4q24 -16 53 -28q46 -19 62 6q5 11 2 19.5t-11 11.5l-8 4q-14 8 -16 19t8 20q19 17 59 -5q20 -10 43 -18q15 -6 27.5 -2.5t17.5 12.5q6 12 0.5 24.5t-18.5 16.5 q-142 48 -209.5 155.5t-75.5 272.5q-4 71 18.5 129.5t63.5 91.5t96.5 41t118.5 -22q126 -57 195 -177t69 -280q0 -106 -46.5 -187t-131.5 -102q-75 -18 -101 -73.5t3.5 -112.5t99.5 -80q31 -10 69.5 -10t81 9.5t86 30.5t84 51t76 74t62 96t42 119.5t15.5 143.5 q0 125 -28.5 241t-86.5 222.5t-155 195t-225 146.5q-100 45 -205.5 52.5t-200.5 -27t-169.5 -103t-117.5 -184t-40 -260.5zM470.5 1642.5q-4.5 14.5 2.5 26.5q13 22 45 8l92 -43q9 -5 20.5 -2.5t14.5 13.5q7 21 -16 32l-23 11q-12 6 -14.5 19t6.5 24q14 14 43 0l414 -193 q18 -9 14 -30t-20 -27l-129 -60l-433 201q-12 6 -16.5 20.5z" />
<glyph unicode="&#xf3;" horiz-adv-x="1386" d="M70 846q3 -155 64 -312.5t163 -242.5q73 -59 104 -68q32 -6 41 15q9 23 -18 38l-8 5q-24 17 -2 36q20 16 49 -4q24 -16 53 -28q46 -19 62 6q5 11 2 19.5t-11 11.5l-8 4q-14 8 -16 19t8 20q19 17 59 -5q20 -10 43 -18q15 -6 27.5 -2.5t17.5 12.5q6 12 0.5 24.5t-18.5 16.5 q-142 48 -209.5 155.5t-75.5 272.5q-4 71 18.5 129.5t63.5 91.5t96.5 41t118.5 -22q126 -57 195 -177t69 -280q0 -106 -46.5 -187t-131.5 -102q-75 -18 -101 -73.5t3.5 -112.5t99.5 -80q31 -10 69.5 -10t81 9.5t86 30.5t84 51t76 74t62 96t42 119.5t15.5 143.5 q0 125 -28.5 241t-86.5 222.5t-155 195t-225 146.5q-100 45 -205.5 52.5t-200.5 -27t-169.5 -103t-117.5 -184t-40 -260.5zM783 1543q-4 21 14 30l413 192q29 14 43 0q9 -11 6.5 -24t-14.5 -19l-22 -10q-24 -12 -17 -33q3 -11 14.5 -13t20.5 3l92 43q32 14 45 -8 q7 -12 2.5 -26.5t-16.5 -20.5l-432 -201l-129 60q-16 6 -20 27z" />
<glyph unicode="&#xf4;" horiz-adv-x="1386" d="M70 846q-3 145 40 260.5t117.5 184t169.5 103t200.5 27t205.5 -52.5q128 -58 225 -146.5t155 -195t86.5 -222.5t28.5 -241q0 -76 -15.5 -143.5t-42 -119.5t-62 -96t-76 -74t-84 -51t-86 -30.5t-81 -9.5t-69.5 10q-70 23 -99.5 80t-3.5 112.5t101 73.5q85 21 131.5 102 t46.5 187q0 160 -69 280t-195 177q-63 30 -118.5 22t-96.5 -41t-63.5 -91.5t-18.5 -129.5q8 -165 75.5 -272.5t209.5 -155.5q13 -4 18.5 -16.5t-0.5 -24.5q-5 -9 -17.5 -12.5t-27.5 2.5q-23 8 -43 18q-40 22 -59 5q-10 -9 -8 -20t16 -19l8 -4q8 -3 11 -11.5t-2 -19.5 q-16 -25 -62 -6q-29 12 -53 28q-29 20 -49 4q-22 -19 2 -36l8 -5q27 -15 18 -38q-9 -21 -41 -15q-31 9 -104 68q-102 85 -163 242.5t-64 312.5zM445 1587q0 12 10 23l282 319q27 31 49 21q29 -12 52 -62l268 -567q16 -33 -12 -45q-26 -6 -39 24l-80 168q-5 13 -15 19t-22 2 q-20 -7 -10 -33l35 -74q6 -13 0 -24.5t-19 -14.5q-25 -3 -39 29l-157 342l-150 -184q-21 -24 -41 -10q-11 10 -10.5 21.5t10.5 19.5l41 53q17 20 -2 39q-19 13 -39 -11l-61 -67q-22 -22 -43 -6q-8 6 -8 18z" />
<glyph unicode="&#xf5;" horiz-adv-x="1386" d="M70 846q-3 145 40 260.5t117.5 184t169.5 103t200.5 27t205.5 -52.5q128 -58 225 -146.5t155 -195t86.5 -222.5t28.5 -241q0 -76 -15.5 -143.5t-42 -119.5t-62 -96t-76 -74t-84 -51t-86 -30.5t-81 -9.5t-69.5 10q-70 23 -99.5 80t-3.5 112.5t101 73.5q85 21 131.5 102 t46.5 187q0 160 -69 280t-195 177q-63 30 -118.5 22t-96.5 -41t-63.5 -91.5t-18.5 -129.5q8 -165 75.5 -272.5t209.5 -155.5q13 -4 18.5 -16.5t-0.5 -24.5q-5 -9 -17.5 -12.5t-27.5 2.5q-23 8 -43 18q-40 22 -59 5q-10 -9 -8 -20t16 -19l8 -4q8 -3 11 -11.5t-2 -19.5 q-16 -25 -62 -6q-29 12 -53 28q-29 20 -49 4q-22 -19 2 -36l8 -5q27 -15 18 -38q-9 -21 -41 -15q-31 9 -104 68q-102 85 -163 242.5t-64 312.5zM446 1882q-5 11 0 22t17 15q13 4 23.5 -1t13.5 -15l24 -68q4 -11 16.5 -16t22.5 -2q29 13 19 41l-27 71q-11 32 16 41 q12 4 22 -2t15 -18l33 -95q6 -18 8.5 -24.5t8.5 -21t10 -19t12 -14t17 -12t21.5 -6t28 -3t35.5 3.5l158 17q83 7 145.5 -42t100.5 -145q7 -19 16.5 -47t14.5 -39q5 -12 1 -24.5t-16 -16.5q-27 -7 -37 23l-20 57q-5 12 -16 18.5t-23 2.5q-11 -5 -15.5 -17t-0.5 -24l24 -70 q5 -10 0.5 -21.5t-16.5 -15.5t-22 1t-15 16l-27 77q-9 26 -18.5 45.5t-17.5 32.5t-20 21.5t-20 13t-25 5.5t-26.5 1t-33.5 -1t-37 -1q-140 -6 -142 -6q-73 -2 -122 31t-89 135q-35 89 -37 96z" />
<glyph unicode="&#xf6;" horiz-adv-x="1386" d="M70 846q-3 145 40 260.5t117.5 184t169.5 103t200.5 27t205.5 -52.5q128 -58 225 -146.5t155 -195t86.5 -222.5t28.5 -241q0 -76 -15.5 -143.5t-42 -119.5t-62 -96t-76 -74t-84 -51t-86 -30.5t-81 -9.5t-69.5 10q-70 23 -99.5 80t-3.5 112.5t101 73.5q85 21 131.5 102 t46.5 187q0 160 -69 280t-195 177q-63 30 -118.5 22t-96.5 -41t-63.5 -91.5t-18.5 -129.5q8 -165 75.5 -272.5t209.5 -155.5q13 -4 18.5 -16.5t-0.5 -24.5q-5 -9 -17.5 -12.5t-27.5 2.5q-23 8 -43 18q-40 22 -59 5q-10 -9 -8 -20t16 -19l8 -4q8 -3 11 -11.5t-2 -19.5 q-16 -25 -62 -6q-29 12 -53 28q-29 20 -49 4q-22 -19 2 -36l8 -5q27 -15 18 -38q-9 -21 -41 -15q-31 9 -104 68q-102 85 -163 242.5t-64 312.5zM483 1657v323q0 14 9.5 23.5t23.5 9.5q12 0 20.5 -9.5t8.5 -23.5v-90q0 -15 8 -27.5t22 -15.5q13 -3 24 7t11 24v43q0 13 10 23 t23 10t23 -10t10 -23v-358q0 -20 -13 -27.5t-28 0.5l-119 55q-19 9 -26 23.5t-7 42.5zM772 1524v323q0 13 10 23t23 10q12 0 20.5 -9.5t8.5 -23.5v-90q0 -35 30 -43q13 -3 24 7t11 24v43q0 14 9.5 23.5t23.5 9.5t23.5 -9.5t9.5 -23.5v-358q0 -20 -13 -27.5t-28 0.5l-119 55 q-19 9 -26 23.5t-7 42.5z" />
<glyph unicode="&#xf7;" horiz-adv-x="1650" d="M115.5 635.5q4.5 11.5 17.5 17.5l1047 492q40 15 55 -6q6 -14 1 -26t-17 -17l-5 -2q-12 -6 -16.5 -17.5t2.5 -23.5q8 -11 22.5 -13.5t28.5 4.5l84 39q12 6 25 1.5t18 -15.5q6 -14 2 -26.5t-16 -18.5l-4 -2q-15 -7 -21 -19t4 -26q9 -10 27.5 -11.5t30.5 5.5l88 39 q15 5 27.5 1t17.5 -14q6 -12 1.5 -24.5t-17.5 -18.5l-1047 -489q-40 -15 -55 6q-6 14 -1 26t17 17l4 2q13 6 17.5 17.5t-2.5 23.5q-8 11 -23 13t-29 -5l-84 -39q-12 -6 -25 -1t-18 16q-6 14 -1.5 26.5t16.5 18.5l4 2q15 7 20.5 19t-4.5 26q-9 10 -27 11.5t-30 -5.5l-88 -39 q-15 -5 -27.5 -1.5t-17.5 13.5q-6 12 -1.5 23.5zM451 924v290q0 14 9.5 23.5t22.5 9.5t21 -9.5t8 -23.5v-4q0 -39 33 -32t33 53v43q0 14 9.5 23.5t22.5 9.5q14 0 23.5 -9.5t9.5 -23.5v-2q0 -18 9.5 -27t23.5 -6q33 9 33 53v41q0 14 8 23.5t20 9.5q13 0 23 -10t10 -23v-256 q0 -28 -7 -42t-26 -23l-245 -115q-15 -8 -28 -0.5t-13 27.5zM991 328v256q0 28 7 42t26 23l246 115q15 8 28 0.5t13 -27.5v-291q0 -13 -9.5 -22.5t-23.5 -9.5q-13 0 -21 9t-8 23v5q0 19 -9 27t-23 5q-33 -7 -33 -53v-43q0 -13 -10 -23t-23 -10t-23 10t-10 23v2q0 18 -9.5 27 t-23.5 6q-32 -9 -32 -53v-41q0 -14 -8.5 -23.5t-20.5 -9.5q-14 0 -23.5 9.5t-9.5 23.5z" />
<glyph unicode="&#xf8;" horiz-adv-x="1384" d="M80 834q-2 121 27.5 223t82 171.5t124.5 116.5t153 63.5t169 7t171 -47.5l29 -14l90 205q6 13 19 19t24 3q12 -3 18 -14t4 -21l-4 -16q-6 -25 19 -33q32 -10 51 33l55 117q13 25 39 18q13 -3 18.5 -15.5t-0.5 -25.5l-168 -377q151 -124 224 -300t73 -376q0 -67 -12 -129 t-33.5 -111t-50.5 -92t-63 -74.5t-71 -56.5t-75.5 -40t-75 -22.5t-70 -6.5t-61.5 10q-70 23 -99.5 80t-3.5 112.5t101 73.5q85 21 132 102.5t47 186.5q0 197 -101 326l-395 -895q-4 -13 -17.5 -17.5t-25.5 0.5q-12 3 -16 16t2 25l2 4q5 12 -1.5 24t-23.5 15q-29 6 -41 -28 l-53 -111q-18 -40 -53 -31q-13 3 -18 14.5t1 24.5l125 283q-9 5 -18 12t-18 15t-11 10q-102 85 -160 236t-61 307zM403 788q6 -140 84 -221l218 490l-7 4q-126 57 -214 -24t-81 -249z" />
<glyph unicode="&#xf9;" horiz-adv-x="1212" d="M135 754q0 -500 393 -688q60 -29 134.5 -36.5t147.5 9t134 53t99 102.5t38 150v786q0 14 -9.5 23.5t-22.5 9.5t-21 -9.5t-8 -23.5v-10q0 -14 -10 -23.5t-23 -9.5t-23 9.5t-10 23.5v70q0 14 -9.5 23.5t-22.5 9.5q-14 0 -23.5 -9.5t-9.5 -23.5v-8q0 -14 -9.5 -23.5 t-23.5 -9.5t-23.5 9.5t-9.5 23.5v67q0 14 -8 23.5t-20 9.5q-14 0 -23.5 -9t-9.5 -22v-768q0 -50 -26.5 -81.5t-64.5 -34t-79 15.5q-137 72 -137 235v807q0 13 -9.5 23t-23.5 10q-13 0 -21 -9.5t-8 -23.5v-10q0 -13 -9.5 -23t-23.5 -10q-13 0 -22.5 9.5t-9.5 23.5v70 q0 13 -10 23t-23 10t-23 -10t-10 -23v-8q0 -13 -10 -23t-23 -10t-22.5 9.5t-9.5 23.5v67q0 14 -8.5 23.5t-20.5 9.5q-14 0 -23.5 -9.5t-9.5 -23.5v-790zM438 1605.5q-5 14.5 2 26.5q13 22 45 8l93 -43q9 -5 20 -2.5t14 13.5q7 21 -16 32l-23 11q-12 6 -14.5 19t6.5 24 q14 14 43 0l414 -193q18 -9 14 -30t-20 -27l-129 -60l-432 201q-12 6 -17 20.5z" />
<glyph unicode="&#xfa;" horiz-adv-x="1212" d="M121 754q0 -500 393 -688q60 -29 134.5 -36.5t147.5 9t134 53t99 102.5t38 150v786q0 14 -9.5 23.5t-23.5 9.5q-13 0 -20.5 -9.5t-7.5 -23.5v-10q0 -14 -10 -23.5t-23 -9.5t-23 9.5t-10 23.5v70q0 14 -10 23.5t-23 9.5t-23 -9.5t-10 -23.5v-8q0 -14 -9.5 -23.5 t-22.5 -9.5q-14 0 -23.5 9.5t-9.5 23.5v67q0 14 -8.5 23.5t-20.5 9.5q-14 0 -23 -9t-9 -22v-768q0 -50 -26.5 -81.5t-64.5 -34t-79 15.5q-138 73 -138 235v807q0 14 -9.5 23.5t-22.5 9.5t-21 -9.5t-8 -23.5v-10q0 -13 -9.5 -23t-23.5 -10t-23.5 10t-9.5 23v70 q0 14 -9.5 23.5t-22.5 9.5t-23 -10t-10 -23v-8q0 -13 -10 -23t-23 -10t-23 10t-10 23v67q0 14 -8 23.5t-20 9.5q-14 0 -23.5 -9.5t-9.5 -23.5v-790zM580 1504q-4 21 14 30l414 192q29 14 43 0q9 -11 6 -24t-15 -19l-22 -10q-23 -12 -16 -33q3 -11 14 -13t20 3l92 43 q33 15 46 -8q7 -12 2 -26.5t-17 -20.5l-432 -201l-129 60q-16 6 -20 27z" />
<glyph unicode="&#xfb;" horiz-adv-x="1212" d="M137 754v790q0 14 9.5 23.5t23.5 9.5q12 0 20.5 -9.5t8.5 -23.5v-67q0 -14 9.5 -23.5t22.5 -9.5t23 10t10 23v8q0 13 10 23t23 10t23 -10t10 -23v-70q0 -14 9.5 -23.5t22.5 -9.5q14 0 23.5 10t9.5 23v10q0 14 8 23.5t21 9.5q14 0 23.5 -10t9.5 -23v-807q0 -163 137 -235 q41 -18 79 -15.5t64.5 34t26.5 81.5v768q0 13 9.5 22t23.5 9q12 0 20 -9.5t8 -23.5v-67q0 -14 9.5 -23.5t23.5 -9.5t23.5 9.5t9.5 23.5v8q0 14 9.5 23.5t23.5 9.5q13 0 22.5 -9.5t9.5 -23.5v-70q0 -14 10 -23.5t23 -9.5t23 9.5t10 23.5v10q0 14 8 23.5t21 9.5t22.5 -9.5 t9.5 -23.5v-786q0 -84 -38 -150t-99 -102.5t-134 -53t-147.5 -9t-134.5 36.5q-393 188 -393 688zM273 1646q0 12 10 23l282 320q26 30 49 20q30 -12 52 -61l268 -568q16 -33 -12 -45q-25 -6 -39 25l-80 168q-5 12 -15 18t-22 2q-20 -7 -10 -32l35 -74q6 -13 0 -24.5 t-19 -14.5q-25 -3 -39 29l-158 342l-149 -185q-21 -24 -41 -10q-11 10 -10.5 21.5t10.5 19.5l41 53q17 20 -2 39q-19 13 -39 -10l-61 -68q-22 -22 -43 -6q-8 6 -8 18z" />
<glyph unicode="&#xfc;" horiz-adv-x="1222" d="M129 754v790q0 14 9.5 23.5t23.5 9.5q12 0 20 -9.5t8 -23.5v-67q0 -13 10 -23t23 -10t23 10t10 23v8q0 13 10 23t23 10t23 -10t10 -23v-70q0 -14 9.5 -23.5t22.5 -9.5q14 0 23.5 10t9.5 23v10q0 14 8 23.5t21 9.5q14 0 23.5 -10t9.5 -23v-807q0 -163 137 -235 q41 -18 79 -15.5t64.5 34t26.5 81.5v768q0 13 9 22t23 9q12 0 20.5 -9.5t8.5 -23.5v-67q0 -14 9.5 -23.5t23.5 -9.5t23.5 9.5t9.5 23.5v8q0 14 9.5 23.5t22.5 9.5t23 -9.5t10 -23.5v-70q0 -14 10 -23.5t23 -9.5t23 9.5t10 23.5v10q0 14 7.5 23.5t20.5 9.5q14 0 23.5 -9.5 t9.5 -23.5v-786q0 -84 -38 -150t-99 -102.5t-134 -53t-147.5 -9t-134.5 36.5q-393 188 -393 688zM373 1649v323q0 14 9.5 23.5t23.5 9.5q12 0 20 -9.5t8 -23.5v-90q0 -15 8.5 -27.5t22.5 -15.5q13 -3 24 7t11 24v43q0 14 9.5 23.5t22.5 9.5q14 0 23.5 -10t9.5 -23v-359 q0 -20 -13 -27t-28 1l-118 55q-19 9 -26 23.5t-7 42.5zM662 1516v323q0 14 9.5 23.5t22.5 9.5q12 0 20.5 -9.5t8.5 -23.5v-90q0 -35 31 -43q13 -3 23.5 7t10.5 24v43q0 13 9.5 22.5t23.5 9.5t23.5 -9.5t9.5 -22.5v-359q0 -20 -13 -27t-28 1l-119 55q-19 9 -25.5 23.5 t-6.5 42.5z" />
<glyph unicode="&#xfd;" horiz-adv-x="1075" d="M18 1608q-8 30 27 39q30 8 45 -27l53 -117q11 -28 37 -24q29 5 19 34l-4 11q-12 36 22 43q29 3 43 -35l41 -100q13 -35 41 -29q12 3 17 14t-1 23l-2 4q-8 15 0.5 30.5t26.5 16.5q13 1 21.5 -4t12 -11.5t7.5 -17.5l131 -530l170 368q19 31 49 19q14 -6 20 -20t1 -29 l-7 -19q-11 -32 13 -47q28 -16 41 23l4 10q6 17 20 24.5t29 2.5q18 -7 21 -25t-3 -25l-6 -14q-14 -36 19 -49q27 -8 45 29l2 4q19 36 53 22q18 -8 19.5 -28t-7.5 -33l-336 -627v-545q0 -13 -9 -22.5t-23 -9.5q-12 0 -20.5 9.5t-8.5 22.5v47q0 16 -8 30t-25 17 q-14 2 -23.5 -6.5t-9.5 -21.5v-6q0 -14 -8.5 -23.5t-21.5 -9.5q-14 0 -24.5 10t-10.5 23v49q0 18 -9 31t-24 14q-14 2 -23.5 -6t-9.5 -21v-8q0 -14 -7.5 -23.5t-20.5 -9.5q-14 0 -23.5 9.5t-9.5 23.5v498zM541 1506q-4 21 14 30l414 193q29 14 43 0q9 -11 6.5 -24t-14.5 -19 l-23 -11q-23 -12 -16 -33q3 -11 14 -13t20 3l93 43q32 14 45 -8q7 -12 2 -26.5t-17 -20.5l-432 -201l-129 60q-16 6 -20 27z" />
<glyph unicode="&#xfe;" horiz-adv-x="1032" d="M139 106v1397q0 13 9.5 22t23.5 9q12 0 20.5 -9.5t8.5 -23.5v-65q0 -14 9.5 -23.5t22.5 -9.5t23 9.5t10 23.5v6q0 14 10 23.5t23 9.5t23 -9.5t10 -23.5v-68q0 -14 10 -23.5t23 -9.5t22.5 9.5t9.5 23.5v8q0 14 8 23.5t21 9.5q14 0 23.5 -9.5t9.5 -23.5v-307l180 -90 q218 -110 294 -228.5t58 -297.5q-9 -94 -53.5 -150.5t-110 -70.5t-136.5 -3t-142 44l-90 40v-331q0 -14 -9.5 -23.5t-23.5 -9.5q-12 0 -20.5 9.5t-8.5 23.5v55q0 40 -32 43q-14 2 -23.5 -6.5t-9.5 -26.5v-6q0 -13 -10 -23t-23 -10t-23 10t-10 23v57q0 41 -33 43 q-14 2 -23 -6t-9 -26v-9q0 -14 -8 -23t-21 -9q-14 0 -23.5 9.5t-9.5 22.5zM459 571l145 -71q53 -26 86.5 -12.5t38.5 61.5q12 118 -113 174l-157 70v-222z" />
<glyph unicode="&#xff;" horiz-adv-x="1075" d="M18 1608q-8 30 27 39q30 8 45 -27l53 -117q11 -28 37 -24q29 5 19 34l-4 11q-12 36 22 43q29 3 43 -35l41 -100q13 -35 41 -29q12 3 17 14t-1 23l-2 4q-8 15 0.5 30.5t26.5 16.5q13 1 21.5 -4t12 -11.5t7.5 -17.5l131 -530l170 368q19 31 49 19q14 -6 20 -20t1 -29 l-7 -19q-11 -32 13 -47q28 -16 41 23l4 10q6 17 20 24.5t29 2.5q18 -7 21 -25t-3 -25l-6 -14q-14 -36 19 -49q27 -8 45 29l2 4q19 36 53 22q18 -8 19.5 -28t-7.5 -33l-336 -627v-545q0 -13 -9 -22.5t-23 -9.5q-12 0 -20.5 9.5t-8.5 22.5v47q0 16 -8 30t-25 17 q-14 2 -23.5 -6.5t-9.5 -21.5v-6q0 -14 -8.5 -23.5t-21.5 -9.5q-14 0 -24.5 10t-10.5 23v49q0 18 -9 31t-24 14q-14 2 -23.5 -6t-9.5 -21v-8q0 -14 -7.5 -23.5t-20.5 -9.5q-14 0 -23.5 9.5t-9.5 23.5v498zM322 1624v324q0 14 9 23t23 9q12 0 20.5 -9.5t8.5 -22.5v-90 q0 -15 8.5 -27.5t22.5 -15.5q13 -3 24 6.5t11 23.5v43q0 14 9.5 23.5t22.5 9.5t23 -9.5t10 -23.5v-358q0 -20 -13 -27.5t-28 0.5l-119 56q-19 9 -25.5 23t-6.5 42zM610 1491v324q0 13 9.5 22.5t23.5 9.5q12 0 20.5 -9.5t8.5 -22.5v-91q0 -35 30 -43q13 -3 24 7t11 24v43 q0 13 9.5 23t23.5 10t23.5 -10t9.5 -23v-358q0 -20 -13 -27.5t-28 0.5l-119 55q-19 9 -26 23.5t-7 42.5z" />
<glyph unicode="&#x131;" d="M188 102v1330q0 13 9.5 21.5t23.5 8.5q12 0 20.5 -9.5t8.5 -22.5v-142q0 -14 10 -23.5t23 -9.5t22.5 9.5t9.5 23.5v82q0 14 9.5 23.5t23.5 9.5t23.5 -9.5t9.5 -23.5v-143q0 -13 9.5 -23t23.5 -10q13 0 22.5 9.5t9.5 23.5v84q0 14 8 23t21 9q14 0 23.5 -9.5t9.5 -22.5 v-1327q0 -14 -10 -23.5t-23 -9.5q-12 0 -20.5 9.5t-8.5 23.5v141q0 14 -9.5 23.5t-22.5 9.5q-14 0 -23.5 -10t-9.5 -23v-82q0 -13 -9.5 -23t-23.5 -10t-23.5 10t-9.5 23v143q0 14 -9.5 23.5t-22.5 9.5t-23 -9.5t-10 -23.5v-84q0 -14 -8 -23t-21 -9q-14 0 -23.5 9.5 t-9.5 22.5z" />
<glyph unicode="&#x152;" horiz-adv-x="2123" d="M98 571q0 166 52.5 318t165.5 280.5t274 198.5q143 63 301 36t223 -124q67 85 197 114.5t268 -20.5l473 -219q12 -6 16.5 -22.5t-2.5 -30.5q-6 -9 -19.5 -11.5t-25.5 3.5l-131 61q-12 6 -24.5 2t-20.5 -16q-12 -24 15 -41l47 -23q26 -13 12 -41q-16 -26 -45 -12l-131 61 q-26 16 -43 -8q-6 -12 -3 -25.5t15 -19.5l47 -22q30 -17 13 -43q-7 -11 -20 -13.5t-23 4.5l-254 115q-41 18 -77 4t-44 -49q-9 -40 10 -66t68 -49l524 -241q25 -14 12 -41q-6 -8 -18 -10t-23 4l-143 69q-12 6 -24.5 2.5t-18.5 -14.5t-1.5 -22.5t15.5 -16.5l70 -35 q10 -4 13.5 -15.5t-1.5 -21.5q-17 -24 -41 -10l-139 70q-10 6 -27.5 4t-21.5 -12q-12 -27 12 -39l70 -33q11 -5 14 -17t-4 -24q-14 -20 -39 -6l-283 131q-38 18 -71 4.5t-35 -47.5q-2 -29 9 -49.5t54 -40.5l656 -305q13 -6 17 -20.5t-3 -33.5q-4 -10 -18.5 -12t-26.5 4 l-154 74q-30 15 -45 -8q-14 -28 13 -45l75 -37q12 -6 15.5 -17.5t-2.5 -23.5q-16 -26 -45 -12l-158 71q-12 8 -27 7t-22 -11q-6 -12 -3 -24.5t15 -18.5l76 -35q12 -7 17 -20t-3 -27q-15 -24 -43 -8l-510 238q-196 91 -196 264q0 66 16.5 158.5t19.5 170.5q6 146 -85 217 t-216 13q-118 -55 -191 -178t-73 -279q0 -111 44 -193.5t134 -95.5q29 -4 58.5 5t44.5 20q9 7 23 5t20 -13q10 -21 -8 -39q-16 -16 -52 -31q-28 -10 -18 -33q4 -10 18 -13.5t27 1.5q16 5 35.5 15t29.5 16.5t31.5 21t22.5 15.5q10 8 25 7.5t22 -11.5q13 -20 -4 -41 q-7 -11 -51 -39q-22 -15 -15 -31q8 -22 45 -8q50 19 88 59q27 27 45 12q14 -11 14.5 -27t-9.5 -26q-110 -129 -390 -141q-62 -3 -130 14t-137.5 58t-124.5 101t-89.5 153.5t-34.5 205.5z" />
<glyph unicode="&#x153;" horiz-adv-x="2045" d="M100 834q-2 121 27.5 223t82 171.5t124.5 116.5t153 63.5t169 7t171 -47.5q143 -65 236 -158q13 36 45 52l498 231q28 16 43 -8q8 -14 2.5 -27t-17.5 -20l-8 -4q-12 -6 -15 -18.5t3 -24.5q7 -10 22 -11.5t27 6.5l90 41q29 14 45 -12q14 -28 -12 -41l-8 -6 q-27 -17 -13 -45q15 -23 45 -8l86 43q12 6 27 4t19 -12q7 -19 2.5 -33.5t-17.5 -20.5l-606 -282q-43 -20 -54.5 -40.5t-9.5 -49.5v-4q1 -6 4.5 -15t4.5 -12q13 -19 41 -22.5t57 10.5l233 108q25 14 39 -6q7 -12 4 -24t-14 -17l-6 -2q-24 -12 -12 -39q4 -10 21.5 -12t27.5 4 l76 39q24 14 41 -10q5 -10 1 -21.5t-14 -15.5l-6 -4q-11 -5 -15.5 -16.5t1.5 -22.5t18.5 -15t24.5 2l80 39q11 6 23 4t18 -10q13 -26 -13 -41l-495 -231q-69 -30 -80 -72v-6q0 -2 -1 -5.5t-1 -4.5q0 -11 4 -27q8 -35 44 -49t77 4l225 105q10 7 23 4.5t20 -13.5 q17 -26 -12 -43l-4 -2q-12 -6 -15.5 -19.5t2.5 -25.5q17 -24 43 -8l88 41q29 14 45 -12q14 -28 -12 -41l-4 -2q-26 -16 -14 -41q8 -12 20.5 -16.5t24.5 1.5l88 41q12 6 25.5 3.5t19.5 -11.5q8 -12 3.5 -28t-17.5 -25l-502 -234q-111 -40 -198 -29t-159 64 q-79 -66 -168.5 -89t-154.5 -1q-70 23 -99.5 80t-3.5 112.5t101 73.5q85 21 131.5 102t46.5 187q0 160 -69 280t-195 177q-63 30 -118.5 22t-96.5 -41t-63.5 -91.5t-18.5 -129.5q8 -165 75.5 -272.5t209.5 -155.5q13 -4 18.5 -16.5t-0.5 -24.5q-5 -9 -17.5 -12.5t-27.5 2.5 q-61 20 -123 57q-27 15 -43 -4q-8 -11 -3 -23t19 -20l50 -24q13 -6 17.5 -17t-1.5 -20q-16 -19 -53 -6q-47 17 -101 57q-30 21 -47 4q-8 -11 -5.5 -22t13.5 -19q27 -19 43 -29q32 -18 23 -36q-12 -26 -43 -17t-104 68q-102 85 -160.5 236.5t-61.5 306.5z" />
<glyph unicode="&#x160;" horiz-adv-x="1236" d="M78 778q-26 157 47 277.5t225 191.5l424 199q39 17 53 -6q18 -30 -16 -49l-14 -9q-28 -14 -15 -39q6 -10 21 -12t28 4l91 45q32 16 49 -6q9 -12 6 -26t-16 -21l-15 -8q-12 -6 -17 -18.5t1 -24.5q7 -11 22 -14t27 4l92 45q11 7 27.5 5.5t23.5 -13.5q8 -13 4 -29t-22 -25 l-621 -288q-69 -33 -61 -95q5 -34 35.5 -50t62.5 -1l238 107q81 36 160 36t140.5 -33t101 -102.5t42.5 -165.5q4 -172 -87.5 -300t-258.5 -207l-336 -160q-57 -26 -82 -4q-11 11 -8 24t16 19l19 10q14 8 15 21t-9 20q-9 8 -25 8t-30 -8l-45 -23q-52 -27 -78 -4 q-10 11 -6.5 23.5t18.5 21.5l12 8q14 10 15.5 23.5t-8.5 20.5q-22 16 -60 -3l-78 -34q-15 -5 -28.5 -1.5t-18.5 13.5q-6 12 -1 24.5t18 18.5l661 317q72 36 64 107q-4 36 -31.5 46t-65.5 -9l-239 -111q-77 -38 -155 -31t-142.5 42.5t-110 101.5t-59.5 147zM158 1739 q-26 23 0 43q10 8 26 7t29 -11l14 -13q25 -22 45 -8q7 4 8.5 14.5t-4.5 16.5l-4 4q-12 10 -14 22.5t6 18.5q22 18 45 -2l187 -160l61 281q8 34 39 30q26 -3 20 -32l-2 -8q-3 -13 2.5 -20.5t18.5 -6.5q8 1 15.5 5t11.5 8.5t8.5 13t6 12.5t4.5 13.5t3 10.5l12 41q10 30 35 27 q13 -2 20 -12.5t3 -24.5l-127 -498q-14 -54 -47.5 -68.5t-81.5 21.5z" />
<glyph unicode="&#x161;" horiz-adv-x="1288" d="M-15 242.5q-4 13.5 3 23.5q16 26 57 8l74 -34q39 -15 51 12t-14 39l-4 2q-13 7 -17 20t2 23q16 27 58 8l79 -37q32 -13 48 12q11 26 -19 41l-4 2q-13 7 -16.5 20.5t2.5 23.5q16 26 57 8l365 -170q31 -14 58.5 -1t33.5 48q6 32 -12 58.5t-48 41.5l-336 158 q-103 48 -166.5 121.5t-82.5 153.5t-7.5 160.5t52.5 150.5q43 73 121 116.5t180 46.5t215 -49l561 -264q32 -14 16 -47q-6 -9 -19.5 -11.5t-25.5 3.5l-69 31q-45 19 -64 0q-9 -9 -5.5 -23t15.5 -20l9 -5q26 -13 12 -41q-16 -26 -45 -12l-78 37q-35 16 -55 -4 q-9 -11 -4 -23.5t18 -19.5l4 -2q12 -7 16 -19t-4 -26q-13 -21 -43 -8l-333 157q-46 18 -76.5 4.5t-40.5 -43.5q-10 -28 2 -56t47 -44l291 -137q117 -55 188.5 -120t97 -137t19.5 -145t-41 -157q-35 -81 -119 -138.5t-183.5 -69t-197.5 29.5l-606 284q-13 6 -17 19.5z M522 1898q-4 14 3 24.5t20 12.5q25 3 35 -26l12 -41q0 -1 3 -10.5t4.5 -13.5t6 -12.5t8.5 -13.5t11.5 -9t15.5 -5q13 -1 18.5 6.5t2.5 20.5l-3 8q-3 13 3 22t18 11q31 4 39 -31l61 -280l187 159q23 20 45 2q8 -6 6 -18.5t-14 -22.5l-5 -4q-6 -6 -4.5 -15.5t9.5 -14.5 q20 -14 45 8l14 12q13 10 29 11t26 -7q26 -20 0 -43l-340 -274q-48 -36 -81.5 -21.5t-47.5 68.5z" />
<glyph unicode="&#x178;" horiz-adv-x="1075" d="M31.5 1170q0.5 24 17.5 32q34 14 53 -22l2 -4q17 -34 48 -21q13 6 17.5 19.5t-3.5 31.5l-2 4q-7 8 -4.5 25.5t20.5 24.5q33 10 49 -27l2 -4q7 -17 22.5 -21.5t25.5 2.5q26 16 8 52l-2 4q-11 37 16 49q30 12 49 -19l170 -368l131 530q4 11 7.5 17.5t12 11.5t21.5 4 q18 -1 25 -15t2 -32l-2 -6q-8 -31 20 -37q25 -6 37 29l39 102q10 41 43 35q19 -3 26.5 -15.5t2.5 -27.5l-2 -6q-8 -31 14 -37q24 -7 37 26l51 119q13 29 45 21q35 -9 27 -39l-365 -1022v-498q0 -14 -10 -23.5t-23 -9.5t-20.5 9.5t-7.5 23.5v10q0 14 -9.5 23.5t-23.5 9.5 t-23.5 -9.5t-9.5 -23.5v-69q0 -13 -10.5 -23t-24.5 -10q-13 0 -21.5 9.5t-8.5 23.5v8q0 13 -10 23t-23 10t-23 -10t-10 -23v-68q0 -14 -8 -23t-20 -9q-14 0 -23.5 9.5t-9.5 22.5v545l-336 627q-6 5 -5.5 29zM231 1430v358q0 14 9.5 23.5t23.5 9.5t23.5 -9.5t9.5 -23.5v-43 q0 -14 11 -24t24 -7q30 8 30 43v90q0 14 8.5 23.5t20.5 9.5q13 0 23 -10t10 -23v-323q0 -28 -7 -42.5t-26 -23.5l-119 -55q-15 -8 -28 -0.5t-13 27.5zM520 1563v358q0 13 10 23t23 10t23 -10t10 -23v-43q0 -14 11 -24t24 -7q14 3 22 15.5t8 27.5v90q0 14 8.5 23.5t20.5 9.5 q14 0 23.5 -9.5t9.5 -23.5v-323q0 -28 -7 -42.5t-26 -23.5l-119 -55q-15 -8 -28 -0.5t-13 27.5z" />
<glyph unicode="&#x17d;" horiz-adv-x="1394" d="M38 1125.5q4 12.5 17 19.5l682 319q44 21 87 22t76.5 -10t82.5 -36l170 -86l-434 -879l354 172q31 12 43 -12q8 -12 5 -24.5t-15 -16.5l-10 -4q-12 -4 -15 -14t4 -19q8 -10 26.5 -13t39.5 5l39 16q29 14 45 -12q14 -28 -12 -41l-4 -2q-28 -17 -15 -43q8 -12 27 -13t39 9 l37 18q12 6 25.5 3.5t19.5 -11.5q16 -29 -15 -45l-805 -365l-202 99q-44 20 -55.5 60t10.5 79l420 815l-332 -155q-10 -7 -28 -6.5t-26 14.5q-6 10 -2 22.5t17 16.5l4 2q31 16 16 43q-15 21 -51 6l-63 -31q-42 -19 -58 8q-6 10 -2 23t17 20l16 8q21 9 12 37q-12 21 -51 6 l-80 -32q-38 -17 -53 8q-7 7 -3 19.5zM238 1780q-26 23 0 43q10 8 26 7t29 -11l14 -13q25 -22 45 -8q7 4 8.5 14.5t-4.5 16.5l-4 4q-12 10 -14 22.5t6 18.5q22 18 45 -2l186 -160l62 281q8 34 39 30q26 -3 20 -32l-2 -9q-3 -12 2.5 -19.5t18.5 -6.5q8 1 15.5 5t11.5 8.5 t8.5 13t6 12.5t4.5 13.5t3 10.5l12 41q10 30 35 27q13 -2 20 -12.5t3 -24.5l-127 -498q-14 -54 -47.5 -68.5t-81.5 21.5z" />
<glyph unicode="&#x17e;" horiz-adv-x="1183" d="M38.5 316.5q-1.5 15.5 8 46t29.5 53.5q64 74 213 235.5t266 286.5l117 125l-553 264q-31 16 -15 45q6 9 20 11.5t26 -3.5l40 -20q11 -7 29.5 -6.5t28.5 10.5q13 12 10.5 24.5t-16.5 18.5l-9 4q-26 13 -12 41q16 26 45 12l45 -18q12 -8 29 -6t27 12q10 11 6 22t-17 17 l-4 2q-11 5 -15 17t3 24q6 12 18.5 15t24.5 -3l651 -303q49 -24 72.5 -44.5t26.5 -32t0 -29.5q-650 -723 -654 -723l557 -271q13 -6 17.5 -19t-2.5 -20q-17 -24 -54 -8l-79 35q-32 10 -44 -12q-10 -29 17 -39l4 -2q13 -7 17.5 -20.5t-3.5 -22.5q-20 -25 -57 -8l-64 32 q-25 11 -40 -10q-16 -28 18 -43l8 -4q8 -3 8.5 -15.5t-6.5 -21.5q-10 -12 -28.5 -12.5t-28.5 6.5l-680 338q1 4 -0.5 19.5zM453 2054q-4 14 2.5 24.5t19.5 12.5q25 3 35 -27l12 -41q0 -1 3 -10.5t4.5 -13.5t6 -12.5t8.5 -13t11.5 -8.5t15.5 -5q13 -1 18.5 6.5t2.5 20.5l-2 8 q-3 13 2.5 22t17.5 11q31 4 39 -31l62 -281l186 160q23 20 45 2q8 -6 6 -18.5t-14 -22.5l-4 -4q-6 -6 -4.5 -16.5t8.5 -14.5q20 -14 45 8l14 13q13 10 29.5 11t26.5 -7q26 -20 0 -43l-340 -275q-48 -36 -81.5 -21.5t-47.5 68.5z" />
<glyph unicode="&#x192;" horiz-adv-x="1261" d="M19 441.5q5 11.5 18 17.5l418 196v377q0 218 70 335t220 165q57 15 113.5 14.5t108.5 -25.5t92 -64t64 -100t24 -134v-111q0 -14 -9.5 -23.5t-23.5 -9.5q-13 0 -21 9.5t-8 23.5v6q0 16 -7 26t-23 7q-31 -6 -31 -47v-51q0 -13 -10 -23t-23 -10t-23 10t-10 23v4 q0 17 -8.5 27t-25.5 6q-27 -6 -27 -48v-49q0 -13 -8.5 -22.5t-20.5 -9.5q-13 0 -22.5 9t-9.5 21v191q0 20 -11 30t-26 7q-27 -5 -27 -41v-375l311 147q30 13 43 -8q8 -14 4 -26t-16 -19l-10 -4q-12 -6 -15.5 -18.5t3.5 -24.5q6 -11 19.5 -13t25.5 5l92 43q28 14 45 -13 q14 -28 -12 -41l-490 -235v-698q0 -68 -31.5 -126t-84.5 -92.5t-121.5 -44.5t-143.5 19q-51 18 -86.5 47.5t-55 61.5t-30 80t-13.5 89.5t-3 104.5v98q0 13 9.5 23t23.5 10q13 0 22.5 -9.5t9.5 -23.5v-6q0 -16 12 -24t25 -3q27 11 27 58v33q0 32 28 32q14 0 23.5 -9.5 t9.5 -22.5v-189q0 -14 9 -23.5t22 -9.5t22 9.5t9 23.5v440l-236 -112q-12 -6 -25 -1.5t-18 15.5q-6 14 -2 26.5t16 18.5l7 2q13 6 17.5 19t-1.5 26t-19.5 16.5t-25.5 -3.5l-102 -45q-15 -5 -28 -1.5t-18 13.5q-6 12 -1 23.5z" />
<glyph unicode="&#x2c6;" horiz-adv-x="1705" d="M569 850l269 567q23 51 51 62q22 10 49 -21l283 -319q10 -11 10 -23t-8 -18q-21 -16 -43 6l-62 67q-20 24 -39 11q-19 -19 -2 -39l41 -53q10 -8 10.5 -19.5t-10.5 -21.5q-20 -14 -41 10l-149 184l-158 -342q-14 -32 -39 -29q-12 3 -18 14.5t0 24.5l35 74q10 26 -11 33 q-12 4 -22 -2t-15 -19l-79 -168q-13 -30 -39 -24q-29 12 -13 45z" />
<glyph unicode="&#x2c7;" horiz-adv-x="1705" d="M473 1350q-26 23 0 43q10 8 26 7t29 -11l15 -13q25 -22 45 -8q7 4 8.5 14.5t-4.5 16.5l-4 4q-12 10 -14 22.5t6 18.5q22 18 45 -2l186 -160l61 281q8 34 39 30q27 -3 21 -32l-2 -9q-3 -13 2 -20t18 -6q8 1 15.5 5t11.5 8.5t8.5 13t6 12.5t4.5 13.5t3 10.5l13 41 q10 30 35 27q13 -2 19.5 -12.5t2.5 -24.5l-127 -498q-14 -54 -47.5 -68.5t-81.5 21.5z" />
<glyph unicode="&#x2d8;" horiz-adv-x="1705" d="M404 1170.5q2 14.5 12 19.5q11 6 23 1.5t18 -15.5l4 -7q15 -23 37 -16q10 3 13 15t-3 22l-4 6q-7 9 -5 22t15 19q12 5 24.5 0t18.5 -16q12 -20 23 -35t30 -32.5t38.5 -26t47.5 -8t58 13.5q42 18 64.5 65t34.5 116t15 79q5 12 15 18t22 2q23 -8 19 -41l-2 -16 q-4 -32 22 -41q21 -8 29 16l4 15q3 10 13.5 15t23.5 1q22 -8 16 -43q-2 -10 -7 -29q-31 -136 -63 -196q-52 -96 -155 -138q-24 -10 -59 -14t-82.5 3t-93 27t-90 65.5t-74.5 111.5q-4 7 -2 21.5z" />
<glyph unicode="&#x2da;" horiz-adv-x="1705" d="M616 1038q-13 99 17 197.5t104.5 176t177.5 101.5q115 27 197 -49t84 -200q3 -167 -75 -288.5t-208 -146.5q-107 -20 -194 32.5t-103 176.5zM776 1110q0 -20 4.5 -42.5t16 -49t37 -42t61.5 -11.5q53 7 100 64t58 161q9 87 -32.5 136t-105.5 30t-100.5 -91t-38.5 -155z " />
<glyph unicode="&#x2dc;" horiz-adv-x="1705" d="M318 938.5q-4 12.5 1 24.5q4 11 13.5 39t17.5 47q38 96 100.5 144.5t145.5 41.5q156 -16 158 -16q20 -3 35.5 -3.5t28 3t21.5 6t17 12t12 14t10 19t8.5 21t8.5 24.5l33 94q5 13 15 19t22 2q27 -9 16 -41l-27 -72q-10 -28 19 -41q10 -3 22.5 2t16.5 16l24 68q3 10 13.5 15 t23.5 1q12 -4 17 -15t0 -22q-2 -7 -37 -96q-40 -102 -89 -135t-122 -31l-142 6q-14 0 -37.5 1t-33 1.5t-26.5 -1t-25 -6t-20 -12.5t-20 -21t-17.5 -32.5t-18.5 -45.5l-27 -78q-5 -11 -15 -16t-22 -1t-16.5 15.5t0.5 21.5l24 70q4 12 -0.5 24t-15.5 17q-12 4 -23 -2.5 t-16 -18.5l-20 -57q-10 -29 -37 -22q-12 4 -16 16.5z" />
<glyph unicode="&#x3c0;" horiz-adv-x="1447" d="M-37.5 986.5q5.5 11.5 17.5 17.5l1194 557q36 9 45 -15q10 -23 -21 -41l-6 -4q-22 -16 -12 -39q5 -11 18 -14t27 4l82 37q12 6 25 1.5t18 -15.5q6 -13 0 -26t-19 -19l-8 -5q-9 -6 -13 -17t3 -26q7 -11 25.5 -12t29.5 6l68 33q34 13 47 -10q6 -12 2.5 -25.5t-15.5 -19.5 l-196 -92v-971q0 -13 -10 -23t-23 -10t-21 9.5t-8 23.5v6q0 14 -9.5 23.5t-22.5 9.5q-14 0 -23.5 -12.5t-9.5 -30.5v-56q0 -13 -9.5 -22.5t-23.5 -9.5t-23.5 9.5t-9.5 22.5v5q0 14 -9.5 23t-22.5 9q-14 0 -23.5 -12.5t-9.5 -30.5v-53q0 -14 -8.5 -23.5t-20.5 -9.5 q-13 0 -23 9.5t-10 21.5v944l-252 -119v-964q0 -14 -9.5 -23.5t-22.5 -9.5t-21 9.5t-8 23.5v6q0 13 -9.5 23t-23.5 10t-23.5 -12.5t-9.5 -30.5v-56q0 -13 -9.5 -22.5t-22.5 -9.5q-14 0 -23.5 9.5t-9.5 22.5v4q0 13 -10 23t-23 10q-14 0 -23.5 -12.5t-9.5 -30.5v-53 q0 -14 -8 -23.5t-20 -9.5q-13 0 -23 9.5t-10 21.5v936l-107 -49q-36 -9 -45 14q-10 25 19 41l4 2q27 14 14 43q-13 27 -43 10l-82 -37q-12 -6 -25 -1t-18 16q-6 14 -1.5 26.5t16.5 18.5l4 2q11 5 16 18t0 27q-6 13 -19.5 16t-25.5 -4l-80 -37q-15 -6 -28.5 -2t-18.5 13 q-6 12 -0.5 23.5z" />
<glyph unicode="&#x2000;" horiz-adv-x="1045" />
<glyph unicode="&#x2001;" horiz-adv-x="2091" />
<glyph unicode="&#x2002;" horiz-adv-x="1045" />
<glyph unicode="&#x2003;" horiz-adv-x="2091" />
<glyph unicode="&#x2004;" horiz-adv-x="697" />
<glyph unicode="&#x2005;" horiz-adv-x="522" />
<glyph unicode="&#x2006;" horiz-adv-x="348" />
<glyph unicode="&#x2007;" horiz-adv-x="348" />
<glyph unicode="&#x2008;" horiz-adv-x="261" />
<glyph unicode="&#x2009;" horiz-adv-x="418" />
<glyph unicode="&#x200a;" horiz-adv-x="116" />
<glyph unicode="&#x2010;" horiz-adv-x="1650" d="M115.5 635.5q4.5 11.5 17.5 17.5l1047 492q40 15 55 -6q6 -14 1 -26t-17 -17l-5 -2q-12 -6 -16.5 -17.5t2.5 -23.5q8 -11 22.5 -13.5t28.5 4.5l84 39q12 6 25 1.5t18 -15.5q6 -14 2 -26.5t-16 -18.5l-4 -2q-15 -7 -21 -19t4 -26q9 -10 27.5 -11.5t30.5 5.5l88 39 q15 5 27.5 1t17.5 -14q6 -12 1.5 -24.5t-17.5 -18.5l-1047 -489q-40 -15 -55 6q-6 14 -1 26t17 17l4 2q13 6 17.5 17.5t-2.5 23.5q-8 11 -23 13t-29 -5l-84 -39q-12 -6 -25 -1t-18 16q-6 14 -1.5 26.5t16.5 18.5l4 2q15 7 20.5 19t-4.5 26q-9 10 -27 11.5t-30 -5.5l-88 -39 q-15 -5 -27.5 -1.5t-17.5 13.5q-6 12 -1.5 23.5z" />
<glyph unicode="&#x2011;" horiz-adv-x="1650" d="M115.5 635.5q4.5 11.5 17.5 17.5l1047 492q40 15 55 -6q6 -14 1 -26t-17 -17l-5 -2q-12 -6 -16.5 -17.5t2.5 -23.5q8 -11 22.5 -13.5t28.5 4.5l84 39q12 6 25 1.5t18 -15.5q6 -14 2 -26.5t-16 -18.5l-4 -2q-15 -7 -21 -19t4 -26q9 -10 27.5 -11.5t30.5 5.5l88 39 q15 5 27.5 1t17.5 -14q6 -12 1.5 -24.5t-17.5 -18.5l-1047 -489q-40 -15 -55 6q-6 14 -1 26t17 17l4 2q13 6 17.5 17.5t-2.5 23.5q-8 11 -23 13t-29 -5l-84 -39q-12 -6 -25 -1t-18 16q-6 14 -1.5 26.5t16.5 18.5l4 2q15 7 20.5 19t-4.5 26q-9 10 -27 11.5t-30 -5.5l-88 -39 q-15 -5 -27.5 -1.5t-17.5 13.5q-6 12 -1.5 23.5z" />
<glyph unicode="&#x2012;" horiz-adv-x="1650" d="M115.5 635.5q4.5 11.5 17.5 17.5l1047 492q40 15 55 -6q6 -14 1 -26t-17 -17l-5 -2q-12 -6 -16.5 -17.5t2.5 -23.5q8 -11 22.5 -13.5t28.5 4.5l84 39q12 6 25 1.5t18 -15.5q6 -14 2 -26.5t-16 -18.5l-4 -2q-15 -7 -21 -19t4 -26q9 -10 27.5 -11.5t30.5 5.5l88 39 q15 5 27.5 1t17.5 -14q6 -12 1.5 -24.5t-17.5 -18.5l-1047 -489q-40 -15 -55 6q-6 14 -1 26t17 17l4 2q13 6 17.5 17.5t-2.5 23.5q-8 11 -23 13t-29 -5l-84 -39q-12 -6 -25 -1t-18 16q-6 14 -1.5 26.5t16.5 18.5l4 2q15 7 20.5 19t-4.5 26q-9 10 -27 11.5t-30 -5.5l-88 -39 q-15 -5 -27.5 -1.5t-17.5 13.5q-6 12 -1.5 23.5z" />
<glyph unicode="&#x2013;" horiz-adv-x="1544" d="M115.5 635.5q4.5 11.5 17.5 17.5l940 441q40 15 55 -7q6 -14 1 -26t-17 -17l-4 -2q-12 -6 -16.5 -17.5t2.5 -23.5q8 -11 22.5 -13t28.5 5l84 39q12 6 25 1.5t18 -15.5q6 -14 1.5 -26.5t-16.5 -18.5l-4 -2q-15 -7 -20.5 -19t4.5 -26q9 -10 27 -11.5t30 5.5l88 38 q15 5 27.5 1.5t17.5 -13.5q6 -12 1.5 -24.5t-17.5 -18.5l-940 -438q-40 -15 -55 6q-6 14 -1 26t17 17l4 2q13 6 17.5 17.5t-2.5 23.5q-8 11 -23 13t-29 -5l-84 -39q-12 -6 -25 -1t-18 16q-6 14 -1.5 26.5t16.5 18.5l4 2q15 7 20.5 19t-4.5 26q-9 10 -27 11.5t-30 -5.5 l-88 -39q-15 -5 -27.5 -1.5t-17.5 13.5q-6 12 -1.5 23.5z" />
<glyph unicode="&#x2014;" horiz-adv-x="2265" d="M115.5 385.5q4.5 11.5 17.5 17.5l1661 781q40 15 55 -6q6 -14 1 -26t-17 -17l-4 -2q-12 -6 -16.5 -17.5t2.5 -23.5q8 -11 22.5 -13.5t28.5 4.5l84 39q12 6 25 1.5t18 -15.5q6 -14 1.5 -26.5t-16.5 -18.5l-4 -2q-15 -7 -20.5 -19t4.5 -26q9 -10 27 -11.5t30 5.5l88 39 q15 5 27.5 1t17.5 -14q6 -12 1.5 -24.5t-17.5 -18.5l-1661 -778q-40 -15 -55 6q-6 14 -1 26t17 17l4 2q13 6 17.5 17.5t-2.5 23.5q-8 11 -23 13t-29 -5l-84 -39q-12 -6 -25 -1t-18 16q-6 14 -1.5 26.5t16.5 18.5l4 2q15 7 20.5 19t-4.5 26q-9 10 -27 11.5t-30 -5.5l-88 -39 q-15 -5 -27.5 -1.5t-17.5 13.5q-6 12 -1.5 23.5z" />
<glyph unicode="&#x2018;" horiz-adv-x="667" d="M174 893v823q0 14 10 23.5t23 9.5t21 -9.5t8 -23.5v-409q0 -14 9.5 -23.5t22.5 -9.5q14 0 23.5 10t9.5 23v469q0 13 9.5 22.5t23.5 9.5t23.5 -9.5t9.5 -22.5v-408q0 -14 9.5 -23.5t22.5 -9.5t23 9.5t10 23.5v141q0 14 8.5 23.5t20.5 9.5q13 0 23 -10t10 -23v-467 q0 -38 -33 -53l-252 -119q-13 -6 -24 1.5t-11 21.5z" />
<glyph unicode="&#x2019;" horiz-adv-x="667" d="M174 1108v467q0 38 33 53l252 119q13 6 24 -1.5t11 -21.5v-823q0 -13 -10 -23t-23 -10t-21 9.5t-8 23.5v410q0 13 -9.5 22.5t-23.5 9.5q-13 0 -22.5 -9.5t-9.5 -22.5v-469q0 -14 -9.5 -23.5t-23.5 -9.5t-23.5 9.5t-9.5 23.5v407q0 13 -9.5 23t-23.5 10q-13 0 -22.5 -9.5 t-9.5 -23.5v-141q0 -14 -8.5 -23.5t-20.5 -9.5q-13 0 -23 9.5t-10 23.5z" />
<glyph unicode="&#x201c;" horiz-adv-x="1099" d="M174 686v823q0 13 10 23t23 10t21 -9.5t8 -23.5v-409q0 -14 9.5 -23.5t22.5 -9.5q14 0 23.5 9.5t9.5 23.5v469q0 13 9.5 23t23.5 10t23.5 -10t9.5 -23v-408q0 -14 9.5 -23.5t22.5 -9.5t23 10t10 23v142q0 13 8.5 22.5t20.5 9.5q14 0 23.5 -9.5t9.5 -22.5v-467 q0 -39 -33 -54l-252 -118q-13 -6 -24 1t-11 21zM606 889v823q0 14 10 23.5t23 9.5t21 -9.5t8 -23.5v-409q0 -14 9.5 -23.5t22.5 -9.5q14 0 23.5 10t9.5 23v469q0 13 9.5 22.5t23.5 9.5t23.5 -9.5t9.5 -22.5v-408q0 -14 9.5 -23.5t22.5 -9.5t23 9.5t10 23.5v141 q0 14 8.5 23.5t20.5 9.5q13 0 23 -10t10 -23v-467q0 -38 -33 -53l-252 -119q-13 -6 -24 1.5t-11 21.5z" />
<glyph unicode="&#x201d;" horiz-adv-x="1099" d="M174 1016v467q0 38 33 53l252 119q13 6 24 -1.5t11 -21.5v-823q0 -13 -10 -23t-23 -10t-21 9.5t-8 23.5v410q0 13 -9.5 22.5t-23.5 9.5q-13 0 -22.5 -9.5t-9.5 -22.5v-469q0 -14 -9.5 -23.5t-23.5 -9.5t-23.5 9.5t-9.5 23.5v407q0 13 -9.5 23t-23.5 10q-13 0 -22.5 -9.5 t-9.5 -23.5v-141q0 -14 -8.5 -23.5t-20.5 -9.5q-13 0 -23 9.5t-10 23.5zM606 1219v467q0 38 33 53l252 119q13 6 24 -1.5t11 -21.5v-823q0 -14 -10 -23.5t-23 -9.5t-21 9.5t-8 23.5v409q0 13 -10 23t-23 10t-22.5 -9.5t-9.5 -23.5v-469q0 -13 -9.5 -22.5t-23.5 -9.5 t-23.5 9.5t-9.5 22.5v408q0 14 -9.5 23.5t-23.5 9.5q-13 0 -22.5 -9.5t-9.5 -23.5v-141q0 -14 -8.5 -23.5t-20.5 -9.5q-13 0 -23 10t-10 23z" />
<glyph unicode="&#x2020;" horiz-adv-x="1148" d="M23.5 687.5q4.5 11.5 17.5 17.5l389 182v497q0 14 10 23.5t23 9.5t21 -9.5t8 -23.5v-84q0 -14 9 -23t23 -9t23.5 9.5t9.5 22.5v144q0 14 9.5 23.5t23.5 9.5t23.5 -9.5t9.5 -23.5v-82q0 -14 9.5 -23.5t22.5 -9.5t23 9.5t10 23.5v141q0 14 8.5 23.5t20.5 9.5q14 0 23.5 -9 t9.5 -22v-469l184 86q30 13 43 -8q8 -14 4 -26t-16 -19l-41 -20q-29 -15 -13 -41q6 -11 20.5 -14.5t26.5 3.5l121 60q28 14 45 -13q14 -27 -12 -40l-362 -175v-862q0 -13 -10 -23t-23 -10t-21 9.5t-8 23.5v84q0 13 -10 23t-23 10t-22.5 -9.5t-9.5 -23.5v-143 q0 -14 -9.5 -23.5t-23.5 -9.5t-23.5 9.5t-9.5 23.5v82q0 14 -9.5 23.5t-23.5 9.5q-13 0 -22.5 -9.5t-9.5 -23.5v-142q0 -13 -8.5 -22.5t-20.5 -9.5q-14 0 -23.5 9.5t-9.5 22.5v828l-207 -98q-12 -6 -25 -1.5t-18 15.5q-6 14 -1.5 26.5t16.5 18.5l53 25q13 6 17.5 19t-1.5 26 t-19.5 16t-25.5 -4l-149 -68q-15 -5 -27.5 -1t-17.5 14q-6 12 -1.5 23.5z" />
<glyph unicode="&#x2021;" horiz-adv-x="1148" d="M23.5 687.5q4.5 11.5 17.5 17.5l389 182v497q0 14 10 23.5t23 9.5t21 -9.5t8 -23.5v-84q0 -14 9 -23t23 -9t23.5 9.5t9.5 22.5v144q0 14 9.5 23.5t23.5 9.5t23.5 -9.5t9.5 -23.5v-82q0 -14 9.5 -23.5t22.5 -9.5t23 9.5t10 23.5v141q0 14 8.5 23.5t20.5 9.5q14 0 23.5 -9 t9.5 -22v-469l184 86q30 13 43 -8q8 -14 4 -26t-16 -19l-41 -20q-29 -15 -13 -41q6 -11 20.5 -14.5t26.5 3.5l121 60q28 14 45 -13q14 -27 -12 -40l-362 -175v-221l184 86q30 13 43 -8q8 -14 4 -26t-16 -19l-41 -20q-29 -15 -13 -41q6 -11 20.5 -14.5t26.5 3.5l121 60 q28 14 45 -13q14 -28 -12 -41l-362 -174v-434q0 -13 -10 -23t-23 -10t-21 9.5t-8 23.5v84q0 13 -10 23t-23 10t-22.5 -9.5t-9.5 -23.5v-143q0 -14 -9.5 -23.5t-23.5 -9.5t-23.5 9.5t-9.5 23.5v82q0 14 -9.5 23.5t-23.5 9.5q-13 0 -22.5 -9.5t-9.5 -23.5v-142 q0 -13 -8.5 -22.5t-20.5 -9.5q-14 0 -23.5 9.5t-9.5 22.5v400l-207 -98q-12 -6 -25 -1.5t-18 15.5q-6 14 -1.5 26.5t16.5 18.5l53 24q13 6 17.5 19.5t-1.5 26.5t-19.5 16t-25.5 -4l-149 -68q-15 -5 -27.5 -1t-17.5 14q-13 27 16 40l389 183v217l-207 -98q-12 -6 -25 -1.5 t-18 15.5q-6 14 -1.5 26.5t16.5 18.5l53 25q13 6 17.5 19t-1.5 26t-19.5 16t-25.5 -4l-149 -68q-15 -5 -27.5 -1t-17.5 14q-6 12 -1.5 23.5z" />
<glyph unicode="&#x202f;" horiz-adv-x="418" />
<glyph unicode="&#x205f;" horiz-adv-x="522" />
<glyph unicode="&#x20ac;" horiz-adv-x="1308" d="M-144.5 824.5q-4.5 11.5 1.5 23.5q5 10 17.5 13.5t27.5 -1.5l88 -39q12 -7 30 -5.5t27 11.5q10 14 4.5 26t-20.5 19l-4 2q-12 6 -16.5 19t1.5 27q5 11 18 15.5t25 -1.5l70 -33q7 29 25 74l-93 43q-13 6 -17.5 17.5t1.5 23.5q5 10 17.5 13.5t27.5 -1.5l88 -39q18 33 33 55 q-23 13 -10 43q5 11 18 16t25 -1l4 -2q72 94 169 156t201 79q32 5 65.5 5t62 -3t64.5 -12.5t61 -17.5t65 -24.5t62.5 -27t66.5 -30.5l268 -123q38 -17 27 -51q-4 -12 -21.5 -17.5t-29.5 0.5l-93 39q-12 6 -26 2.5t-21 -16.5q-7 -12 -2 -23.5t19 -19.5l4 -2q29 -13 12 -41 q-16 -26 -45 -12l-102 40q-12 7 -25.5 3t-19.5 -15q-12 -24 18 -43l6 -4q11 -6 15 -17.5t-3 -23.5q-12 -24 -43 -12l-223 104q-54 22 -106.5 8t-98.5 -57l482 -229q32 -16 18 -47q-5 -11 -18 -16t-25 1l-84 39q-14 7 -28.5 5t-22.5 -13q-7 -12 -2.5 -23.5t16.5 -17.5l4 -2 q12 -5 18.5 -17.5t-1.5 -25.5q-15 -21 -56 -6l-399 186q-12 -50 -12 -80l346 -163q32 -16 18 -48q-5 -11 -18 -15.5t-25 1.5l-84 39q-14 7 -28.5 5t-22.5 -13q-7 -12 -2.5 -23.5t17.5 -17.5l4 -2q12 -5 18 -17.5t-2 -25.5q-15 -21 -55 -6l-123 57q74 -162 252 -242l346 -161 q18 -8 21 -26t-7 -26q-21 -21 -47 -8l-84 41q-30 15 -45 -10q-14 -29 10 -41l8 -4q24 -12 9 -43q-16 -26 -45 -12l-84 43q-12 7 -24.5 3.5t-18.5 -14.5q-7 -12 -3.5 -24.5t15.5 -18.5l4 -2q11 -5 15.5 -18t-3.5 -27q-15 -24 -43 -8l-274 129q-182 84 -289 260.5t-113 394.5 l-231 109q-13 6 -17.5 17.5z" />
<glyph unicode="&#x2202;" horiz-adv-x="1206" d="M104 1221q3 20 29 24q12 2 76 2q27 0 31 17q5 26 -19 26h-8q-11 0 -19.5 8t-5.5 19q5 19 41 22q27 2 58 -2q28 -4 35 13q6 14 -2 22t-21 8h-10q-25 0 -25 25q0 14 15 20.5t32 6.5q146 0 344 -109q101 -55 181 -141t130.5 -186t79 -205t35.5 -211q17 -255 -109.5 -413 t-350.5 -167q-82 -3 -173 35.5t-173.5 122t-120.5 194.5q-54 167 -13.5 291.5t135 197.5t205.5 77q137 5 244 -78q-14 65 -79.5 140t-186.5 134q-163 78 -324 78q-16 0 -24.5 9t-6.5 20zM420 506q3 -75 53 -140t127 -83q78 -18 129.5 39.5t38.5 162.5q-9 76 -64.5 131 t-132.5 62q-72 6 -113.5 -39.5t-37.5 -132.5z" />
<glyph unicode="&#x220f;" horiz-adv-x="1253" d="M92 -516v1597q0 30 17 37l722 336q25 13 60 -8l254 -141q16 -11 16 -37v-1321q0 -13 -9.5 -23t-23.5 -10q-13 0 -20.5 9.5t-7.5 23.5v6q0 13 -10 23t-23 10q-14 0 -23.5 -12.5t-9.5 -30.5v-56q0 -13 -9.5 -22.5t-23.5 -9.5q-13 0 -22.5 9.5t-9.5 22.5v4q0 13 -9.5 23 t-23.5 10t-23.5 -12.5t-9.5 -30.5v-53q0 -14 -8.5 -23.5t-20.5 -9.5q-13 0 -22.5 9.5t-9.5 21.5v1290l-430 -203v-1308q0 -13 -10 -23t-23 -10t-21 9.5t-8 23.5v6q0 13 -10 23t-23 10q-14 0 -23 -12t-9 -31v-56q0 -13 -9.5 -22.5t-23.5 -9.5t-23.5 9.5t-9.5 22.5v4 q0 13 -9.5 23t-23.5 10t-23 -12t-9 -31v-53q0 -14 -8.5 -23.5t-20.5 -9.5q-13 0 -23 9.5t-10 21.5z" />
<glyph unicode="&#x2211;" horiz-adv-x="1146" d="M42.5 1159q-1.5 6 0 12t5.5 13t14 14t24 14l717 334q12 6 24.5 3t18.5 -15q7 -12 3 -24t-15 -17l-5 -2q-13 -6 -16.5 -17t6.5 -22q10 -10 26.5 -12t28.5 6l46 18q29 14 45 -12q6 -12 2.5 -23.5t-15.5 -17.5l-8 -4q-14 -6 -16.5 -18.5t10.5 -24.5q10 -10 28 -10.5t29 6.5 l41 20q12 6 25.5 3.5t19.5 -11.5q17 -30 -14 -45l-553 -264l281 -305q21 -24 30 -46.5t6.5 -45t-8 -37t-16.5 -37.5l-209 -408l227 107q12 6 24.5 3t18.5 -15q7 -12 3 -24t-15 -17l-4 -2q-13 -6 -16.5 -17t6.5 -22q10 -10 26.5 -12.5t28.5 5.5l45 19q29 14 45 -12 q14 -28 -12 -41l-8 -4q-14 -6 -16.5 -18.5t10.5 -24.5q10 -10 28 -11t29 6l41 21q12 6 25.5 3.5t19.5 -11.5q17 -30 -14 -45l-717 -336l-258 147q-11 5 -13 20t7 29l368 730q-2 0 -108 119t-211 237l-105 119q0 1 -3 5t-4.5 7.5t-3 9.5z" />
<glyph unicode="&#x222b;" horiz-adv-x="1011" d="M-20 -74q0 14 9.5 23.5t22.5 9.5t21 -9.5t8 -23.5v-8q0 -14 8 -23.5t21 -9.5t20.5 9.5t7.5 23.5v68q0 13 9.5 22.5t23.5 9.5t23.5 -9.5t9.5 -22.5v-6q0 -14 8 -23.5t21 -9.5t20.5 9.5t7.5 23.5v65q0 14 8.5 23.5t20.5 9.5q13 0 23 -9.5t10 -21.5v-203q0 -17 10.5 -25.5 t25.5 -2.5q27 12 27 59v1395q0 229 71 350.5t222 169.5q73 26 143.5 14.5t126 -45t89.5 -96.5t34 -141v-156q0 -14 -10 -23.5t-23 -9.5t-20.5 9.5t-7.5 23.5v8q0 14 -8 23.5t-21 9.5t-21 -9.5t-8 -23.5v-67q0 -14 -9.5 -23.5t-22.5 -9.5t-23 10t-10 23v6q0 14 -8 23.5 t-21 9.5t-20.5 -9.5t-7.5 -23.5v-66q0 -14 -8.5 -23.5t-20.5 -9.5q-13 0 -23 9.5t-10 21.5v203q0 17 -11 26t-26 3q-26 -11 -26 -60v-1394q0 -229 -71 -351t-222 -170q-73 -26 -143.5 -14.5t-126 45.5t-89.5 97t-34 141v155z" />
<glyph unicode="&#x2264;" horiz-adv-x="1079" d="M33.5 160.5q4.5 11.5 17.5 17.5l432 197l-250 225q-24 12 -32.5 37t2.5 51l293 674q14 34 43 27q12 -3 16 -16.5t-2 -26.5l-35 -78q-5 -10 -0.5 -22.5t14.5 -18.5q13 -6 26.5 1t19.5 21l90 199q6 13 19 19t24 3q14 -4 19 -19t1 -24l-35 -81q-10 -27 15 -39q10 -6 22 1.5 t17 18.5l106 209q13 26 39 18q13 -3 18.5 -15.5t-0.5 -25.5l-348 -702q-8 -26 -5.5 -34t14.5 -18q3 -2 4 -3l430 -391q20 -18 20 -47.5t-24 -41.5l-615 -286q-40 -15 -55 6q-6 14 -1 26t17 17l4 2q13 6 17.5 17.5t-2.5 23.5q-8 11 -23 13t-29 -5l-84 -39q-12 -6 -25 -1 t-18 16q-6 14 -1.5 26.5t16.5 18.5l4 2q15 7 20.5 19t-4.5 26q-9 10 -27 11.5t-30 -5.5l-88 -39q-15 -5 -27.5 -1.5t-17.5 13.5q-6 12 -1.5 23.5z" />
<glyph unicode="&#x2265;" horiz-adv-x="1282" d="M-7.5 113.5q4.5 11.5 17.5 17.5l600 268q20 10 29 31l145 336q15 31 -12 55l-410 371q-11 10 -11 25t14 24q10 7 27 5t30 -13l72 -64q10 -12 27.5 -15.5t35.5 5.5q11 8 10 21t-12 24l-57 51q-9 9 -9.5 25t13.5 25q27 13 57 -13l70 -61q35 -30 65 -12q10 7 10 21t-10 24 l-61 55q-11 11 -12 25t12 22q26 14 65 -16l435 -385q49 -40 30 -88l-293 -674q-9 -22 -28 -31l-494 -229q-40 -15 -55 6q-6 14 -1 26t17 17l4 2q13 6 17.5 17.5t-2.5 23.5q-8 11 -23 13t-29 -5l-83 -39q-12 -6 -25 -1.5t-18 15.5q-6 14 -2 26.5t16 18.5l4 3q15 7 20.5 19 t-4.5 26q-9 10 -27 11.5t-30 -5.5l-88 -39q-15 -5 -27.5 -1.5t-17.5 13.5q-6 12 -1.5 23.5z" />
<glyph unicode="&#x25fc;" horiz-adv-x="1556" d="M0 0v1556h1556v-1556h-1556z" />
</font>
</defs>
</svg>
