<?xml version="1.0" standalone="no"?>
<!DOCTYPE svg PUBLIC "-//W3C//DTD SVG 1.1//EN" "http://www.w3.org/Graphics/SVG/1.1/DTD/svg11.dtd" >
<svg xmlns="http://www.w3.org/2000/svg" xmlns:xlink="http://www.w3.org/1999/xlink" version="1.1">
<metadata></metadata>
<defs>
<font id="flutterlight" horiz-adv-x="1241" >
<font-face units-per-em="2048" ascent="1536" descent="-512" />
<missing-glyph horiz-adv-x="661" />
<glyph unicode="&#xfb01;" horiz-adv-x="858" d="M6 1012q0 17 11.5 28t27.5 11h111q17 0 29 13t12 30v364q0 116 77 189t187 73q63 0 117 -20.5t89 -52.5t57 -64.5t32 -64.5q14 -40 -11 -56q-12 -8 -27 -4t-22 17q-2 3 -14 27.5t-19.5 37t-27.5 35t-41.5 35t-56.5 22.5t-76 10q-72 0 -129.5 -43.5t-57.5 -125.5v-379 q0 -17 12 -30t29 -13h367q24 0 38.5 -16.5t14.5 -37.5v-1001q0 -14 -11 -25.5t-26 -11.5t-25.5 11.5t-10.5 25.5v954q0 9 -7 16t-16 7h-324q-17 0 -29 -13t-12 -30v-934q0 -14 -10.5 -25.5t-27.5 -11.5q-15 0 -27 11.5t-12 25.5v934q0 17 -12 30t-29 13h-111q-16 0 -27.5 11 t-11.5 28z" />
<glyph unicode="&#xfb02;" horiz-adv-x="858" d="M6 1012q0 17 11.5 28t27.5 11h111q17 0 29 13t12 30v364q0 116 77 189t187 73h221q24 0 38.5 -16t14.5 -37v-1671q0 -14 -11 -25.5t-26 -11.5t-25.5 11.5t-10.5 25.5v954q0 9 -7 16t-16 7h-324q-17 0 -29 -13t-12 -30v-934q0 -14 -10.5 -25.5t-27.5 -11.5q-15 0 -27 11.5 t-12 25.5v934q0 17 -12 30t-29 13h-111q-16 0 -27.5 11t-11.5 28zM274 1094q0 -17 12 -30t29 -13h324q9 0 16 6.5t7 15.5v547q0 9 -7 17t-16 8h-178q-45 0 -86 -17.5t-71 -58t-30 -96.5v-379z" />
<glyph horiz-adv-x="0" />
<glyph horiz-adv-x="682" />
<glyph unicode=" "  horiz-adv-x="661" />
<glyph unicode="&#x09;" horiz-adv-x="661" />
<glyph unicode="&#xa0;" horiz-adv-x="661" />
<glyph unicode="!" horiz-adv-x="526" d="M154 70q0 44 32 76t78 32q44 0 76.5 -32t32.5 -76q0 -46 -32.5 -78.5t-76.5 -32.5q-46 0 -78 32.5t-32 78.5zM160 1481q-3 42 28 73t76 31q43 0 74.5 -31t28.5 -73l-64 -944q-2 -16 -12.5 -27.5t-26.5 -11.5q-17 0 -28 11.5t-13 27.5z" />
<glyph unicode="&#x22;" horiz-adv-x="700" d="M154 897v649q0 15 12 27t29 12t27.5 -11.5t10.5 -27.5v-649q0 -16 -10.5 -27.5t-27.5 -11.5t-29 12t-12 27zM467 897v649q0 15 12 27t29 12t28 -11.5t11 -27.5v-649q0 -16 -11 -27.5t-28 -11.5t-29 12t-12 27z" />
<glyph unicode="#" horiz-adv-x="1564" d="M47 393q0 17 11.5 28t27.5 11h266l115 541h-254q-16 0 -27.5 11t-11.5 28t11.5 28t27.5 11h270q37 179 86 434q3 17 17 27t30 8q18 -1 28 -14t7 -31l-88 -424h570l90 438q7 34 43 31q17 -3 27 -16.5t7 -28.5l-90 -424h269q16 0 27.5 -11t11.5 -28t-11.5 -28t-27.5 -11 h-285l-111 -541h269q16 0 27.5 -11t11.5 -28t-11.5 -28t-27.5 -11h-283l-72 -360q-3 -17 -16.5 -27t-28.5 -8q-18 1 -27.5 14t-6.5 31l71 350h-569l-74 -362q-3 -16 -15 -25t-30 -8q-17 1 -26.5 15t-6.5 32l68 348h-250q-16 0 -27.5 11t-11.5 28zM436 432h570l110 541h-569z " />
<glyph unicode="$" horiz-adv-x="1257" d="M53 270q11 9 26 9.5t34 -15.5q63 -64 143.5 -111.5t156.5 -71t136 -34t106 -10.5q103 0 186.5 23.5t137 61t89 88t50.5 102.5t15 106q0 74 -23.5 130.5t-65 96t-110.5 68.5t-147.5 47.5t-188.5 34.5q-102 15 -186 43t-155 73.5t-111 117t-40 163.5q0 72 30 137.5 t87.5 119t150.5 89t210 45.5q6 0 6 6v215q0 16 11 27.5t28 11.5t28 -11.5t11 -27.5v-213q0 -6 6 -6q136 -3 257.5 -46.5t203.5 -125.5q15 -15 18 -32t-6 -27q-10 -13 -28 -14.5t-36 14.5q-153 153 -426 153q-219 0 -346 -87t-127 -228q0 -129 120 -212.5t329 -111.5 q309 -41 443 -144.5t134 -303.5q0 -201 -148 -328t-388 -133q-6 0 -6 -6v-205q0 -16 -11 -27.5t-28 -11.5t-28 11.5t-11 27.5v207q0 8 -8 8q-157 15 -305 83.5t-220 160.5q-28 39 -4 63z" />
<glyph unicode="%" horiz-adv-x="1873" d="M92 1188q0 -165 118 -280t284 -115t282.5 115t116.5 280q0 166 -116.5 281.5t-282.5 115.5t-284 -116t-118 -281zM170 1188q0 133 95 226t229 93q135 0 228 -92.5t93 -226.5q0 -136 -92.5 -227t-228.5 -91q-135 0 -229.5 91.5t-94.5 226.5zM316 -11.5q-4 15.5 6 29.5 l1167 1547q10 13 24.5 17.5t28.5 -3.5q13 -7 16 -25t-6 -30l-1169 -1547q-22 -30 -49 -12q-14 8 -18 23.5zM981 356q0 -166 116.5 -281.5t282.5 -115.5t284 116t118 281t-118 280.5t-284 115.5t-282.5 -115.5t-116.5 -280.5zM1059 356q0 136 92.5 227t228.5 91 q135 0 229.5 -91.5t94.5 -226.5q0 -133 -95 -226t-229 -93q-135 0 -228 92.5t-93 226.5z" />
<glyph unicode="&#x26;" horiz-adv-x="1474" d="M92 375q0 136 84.5 255.5t276.5 239.5q8 4 2 13l-54 67q-1 1 -21.5 27t-26 33.5t-24.5 34t-26 40.5t-20.5 40.5t-19 47t-10.5 48t-5 53.5q0 49 11.5 93.5t37.5 85t64 69.5t95.5 46t127.5 17q173 0 267.5 -80.5t94.5 -222.5q0 -50 -20 -98.5t-48 -85t-76 -79t-86 -70 t-95 -67.5q-19 -13 -29 -20q-3 -1 -3.5 -4t1.5 -4l459 -586q5 -9 14 0l297 275q25 28 51 6q11 -9 11 -26t-11 -27l-301 -279q-4 -4 0 -8l150 -186q11 -15 8 -31t-13 -25t-29 -7.5t-28 13.5l-149 181q-5 4 -9 0q-195 -195 -444 -195q-124 0 -221.5 33.5t-158.5 91t-92.5 132 t-31.5 159.5zM170 383q0 -86 39.5 -154.5t103.5 -109t136.5 -61.5t146.5 -21q231 0 401 170q5 5 2 10l-485 598q-6 8 -12 2q-163 -104 -247.5 -207.5t-84.5 -226.5zM326 1268q0 -56 31 -109.5t101 -144.5q10 -13 15 -19l57 -73q5 -5 11 -2q66 39 117.5 75t102.5 82t79 97 t28 102q0 112 -77 171.5t-209 59.5q-120 0 -188 -60t-68 -179z" />
<glyph unicode="'" horiz-adv-x="387" d="M154 897v649q0 15 12 27t29 12t27.5 -11.5t10.5 -27.5v-649q0 -16 -10.5 -27.5t-27.5 -11.5t-29 12t-12 27z" />
<glyph unicode="(" horiz-adv-x="677" d="M113 580q0 324 108 609.5t291 496.5q11 13 29 15t32 -9q11 -13 10.5 -30t-10.5 -28q-166 -193 -274.5 -467t-108.5 -587q0 -163 32 -318t90.5 -288t120 -237.5t140.5 -211.5q9 -13 9 -29t-11 -28q-12 -11 -30.5 -9t-28.5 15q-399 516 -399 1106z" />
<glyph unicode=")" horiz-adv-x="677" d="M93.5 1662q-0.5 17 10.5 30q14 11 32.5 9t29.5 -15q183 -211 291 -496.5t108 -609.5q0 -590 -399 -1106q-10 -13 -29 -15t-31 9q-12 12 -12 28t10 29q79 107 140.5 211.5t120 237.5t90.5 288t32 318q0 313 -108.5 587t-274.5 467q-10 11 -10.5 28z" />
<glyph unicode="*" horiz-adv-x="825" d="M94 1070q5 16 17 24l219 123q8 4 0 8l-219 125q-13 8 -17 24t4 31q7 13 24 17.5t30 -3.5l217 -127q6 -3 6 4l-2 250q0 15 12 27t29 12t28 -11.5t11 -27.5l-2 -250q0 -7 6 -4l219 127q12 7 27 2.5t24 -18.5q8 -13 4.5 -30.5t-16.5 -24.5l-219 -123q-8 -4 0 -8l219 -123 q13 -8 16.5 -23.5t-4.5 -30.5q-8 -14 -23.5 -18.5t-29.5 2.5l-217 125q-6 3 -6 -4l2 -248q0 -16 -11 -27.5t-28 -11.5t-29 12t-12 27l2 248q0 7 -6 4l-217 -125q-12 -8 -29.5 -3.5t-26.5 19.5q-7 14 -2 30z" />
<glyph unicode="+" horiz-adv-x="1255" d="M154 717q0 17 11.5 28t27.5 11h368q31 0 31 35v362q0 14 11 25.5t26 11.5q16 0 26.5 -11.5t10.5 -25.5v-362q0 -35 30 -35h367q16 0 27.5 -11t11.5 -28t-11.5 -28t-27.5 -11h-367q-30 0 -30 -35v-364q0 -14 -10.5 -25.5t-26.5 -11.5q-15 0 -26 11.5t-11 25.5v366 q0 33 -31 33h-368q-16 0 -27.5 11t-11.5 28z" />
<glyph unicode="," horiz-adv-x="518" d="M115 -337.5q-3 14.5 2 24.5l121 262q3 5 -2 10q-40 12 -63 39t-23 63q0 46 31 77.5t75 31.5q46 0 77.5 -31.5t31.5 -77.5q0 -23 -13 -49l-180 -352q-5 -11 -18.5 -17.5t-24.5 -0.5t-14 20.5z" />
<glyph unicode="-" horiz-adv-x="968" d="M92 717q0 17 11.5 28t27.5 11h707q16 0 27.5 -11t11.5 -28t-11.5 -28t-27.5 -11h-707q-16 0 -27.5 11t-11.5 28z" />
<glyph unicode="." horiz-adv-x="526" d="M154 70q0 44 32 76t78 32q44 0 76.5 -32t32.5 -76q0 -46 -32.5 -78.5t-76.5 -32.5q-46 0 -78 32.5t-32 78.5z" />
<glyph unicode="/" horiz-adv-x="948" d="M14 12l674 1551q6 15 21 21t30 1q17 -5 23.5 -19.5t-0.5 -31.5l-674 -1550q-6 -14 -20 -20.5t-29 -0.5q-15 5 -23 20.5t-2 28.5z" />
<glyph unicode="0" horiz-adv-x="1437" d="M66 772q0 123 23.5 238.5t75.5 220.5t127 183.5t185.5 124.5t243.5 46t243.5 -46t185.5 -124.5t127 -183.5t75.5 -220.5t23.5 -238.5t-23.5 -238.5t-75 -220.5t-126.5 -183.5t-185.5 -124.5t-244.5 -46t-244.5 46t-185.5 124.5t-126.5 183.5t-75 220.5t-23.5 238.5z M143 772q0 -342 159.5 -538.5t418.5 -196.5t418 196.5t159 538.5q0 336 -158 535.5t-419 199.5t-419.5 -199.5t-158.5 -535.5z" />
<glyph unicode="1" horiz-adv-x="567" d="M20 1505q0 17 11.5 28t27.5 11h269q75 0 75 -78v-1468q0 -16 -10.5 -27.5t-27.5 -11.5t-29 12t-12 27v1464q0 4 -5 4h-260q-16 0 -27.5 11t-11.5 28z" />
<glyph unicode="2" horiz-adv-x="1175" d="M78 45q0 19 12 31l567 499q74 65 125 114.5t100.5 106.5t78.5 107t47 107.5t18 115.5q0 93 -33 167.5t-89 120t-125.5 69.5t-145.5 24q-83 0 -152 -23t-116 -60t-84.5 -91.5t-60 -110.5t-40.5 -124q-4 -18 -17.5 -25t-29.5 -4q-17 4 -25.5 18.5t-5.5 30.5 q20 101 60.5 183.5t104.5 147t158.5 100.5t211.5 36q219 0 344 -128.5t125 -330.5q0 -83 -29.5 -165.5t-85.5 -159t-119.5 -142.5t-148.5 -139l-504 -434q-8 -8 2 -8h846q16 0 27.5 -11t11.5 -28t-11.5 -28t-27.5 -11h-946q-19 0 -31 13t-12 32z" />
<glyph unicode="3" horiz-adv-x="1253" d="M96 350q-5 16 1.5 30.5t23.5 20.5q15 5 32 -1.5t21 -22.5q41 -145 168.5 -242.5t314.5 -97.5q216 0 340.5 103t124.5 302q0 48 -15.5 96t-51 95t-88 82.5t-134 57.5t-180.5 22h-250q-15 0 -26.5 11t-11.5 28t11 27.5t27 10.5h250q177 0 278 92t101 222q0 45 -10 87 t-37.5 85.5t-69.5 75.5t-111.5 52.5t-158.5 20.5q-141 0 -250.5 -84t-130.5 -225q-3 -18 -19 -30t-30 -9q-18 3 -27 16t-6 29q18 93 65 167.5t111.5 120t137.5 69.5t149 24q120 0 211 -31t146 -86t82.5 -126t27.5 -156q0 -119 -64.5 -208t-177.5 -134q-2 -2 0 -4 q169 -51 250.5 -159.5t81.5 -238.5q0 -119 -41.5 -212.5t-115 -152t-171.5 -88.5t-215 -30q-205 0 -356 102t-207 289z" />
<glyph unicode="4" horiz-adv-x="1286" d="M41 354q0 13 4 19l881 1181q22 34 55 31q26 -1 40.5 -18.5t14.5 -44.5v-1119q0 -6 6 -6h238q16 0 27.5 -11t11.5 -28t-11.5 -28t-27.5 -11h-238q-6 0 -6 -6v-317q0 -14 -10.5 -25.5t-26.5 -11.5q-15 0 -25.5 11.5t-10.5 25.5v317q0 6 -7 6h-882q-13 0 -23 10.5t-10 24.5z M166 403q-3 -6 4 -6h786q7 0 7 6v1061q0 3 -2.5 4t-4.5 -2z" />
<glyph unicode="5" horiz-adv-x="1316" d="M125 225q11 14 28 15t31 -11q115 -103 225 -147.5t255 -44.5q242 0 370.5 123t128.5 323q0 73 -28 144t-80 132t-138.5 98.5t-193.5 37.5q-229 0 -410 -135q-20 -16 -43.5 -5.5t-19.5 38.5l110 653q9 54 37 76t80 22h680q16 0 27.5 -11t11.5 -28t-11.5 -28t-27.5 -11 h-694q-20 0 -23 -20l-96 -569q0 -5 4 -3q166 99 375 99q97 0 188 -30.5t166 -89t120.5 -154t45.5 -214.5q0 -247 -157.5 -386.5t-419.5 -139.5q-175 0 -311.5 56.5t-225.5 154.5q-24 28 -4 55z" />
<glyph unicode="6" d="M63 567q0 245 142.5 506.5t394.5 499.5q11 10 26.5 12t28.5 -8q11 -12 9.5 -28t-11.5 -29l-14 -17q-1 -1 -21.5 -20.5t-36.5 -36t-45 -47.5t-54.5 -61t-57.5 -69.5t-60.5 -81.5t-57.5 -88t-54.5 -97.5t-44.5 -102.5q-2 -3 -0.5 -4.5t4.5 2.5q85 100 199 144t225 44 q130 0 238.5 -47.5t177 -125t106 -173t37.5 -196.5q0 -158 -65 -289.5t-194.5 -213t-299.5 -81.5q-83 0 -162.5 21t-154.5 69t-131 117t-90 172.5t-34 228.5zM141 543q0 -143 68.5 -260t181.5 -181.5t244 -64.5q205 0 343 143.5t138 362.5q0 201 -137 333t-344 132 q-108 0 -202 -38.5t-157 -102.5t-99 -148.5t-36 -175.5z" />
<glyph unicode="7" horiz-adv-x="1110" d="M-14 1505q0 17 11.5 28t27.5 11h1019q37 0 54 -28t-2 -60l-848 -1474q-6 -12 -22 -18.5t-31 -0.5q-14 6 -19 22t4 33l830 1442q3 6 -2 6h-983q-16 0 -27.5 11t-11.5 28z" />
<glyph unicode="8" horiz-adv-x="1257" d="M100 436q0 144 97 260.5t223 157.5q2 0 2 2t-2 2q-102 46 -158.5 133t-56.5 199q0 197 116.5 296t307.5 99t307.5 -99t116.5 -296q0 -110 -58 -197.5t-157 -134.5q-2 0 -2 -2t2 -2q126 -41 222.5 -157.5t96.5 -260.5q0 -151 -72 -260.5t-190 -163t-266 -53.5 q-110 0 -205.5 31.5t-168 90t-114 150t-41.5 205.5zM178 436q0 -178 127 -288.5t324 -110.5t323.5 110.5t126.5 288.5q0 109 -64 198t-166.5 137t-219.5 48t-219.5 -48t-167 -137t-64.5 -198zM283 1190q0 -131 94 -216t252 -85q160 0 253 85t93 216q0 145 -90 231t-258 86 q-165 0 -254.5 -86t-89.5 -231z" />
<glyph unicode="9" d="M47 1008q0 118 38.5 223.5t108.5 185.5t177 127t235 47q83 0 162.5 -21t154.5 -69t131 -117t90 -172.5t34 -228.5t-48 -270.5t-135 -286t-222.5 -265t-295.5 -198.5q-13 -7 -29.5 -3t-23.5 17q-8 14 -2 29t20 21q59 22 136 74t162.5 129.5t165.5 189t128 231.5 q2 3 0.5 4.5t-4.5 -2.5q-85 -100 -199 -144t-225 -44q-130 0 -238.5 47.5t-177 125.5t-106 173.5t-37.5 196.5zM125 1008q0 -201 137 -333t344 -132q108 0 202 38.5t157 102.5t99 148.5t36 175.5q0 143 -68.5 259.5t-181.5 181t-244 64.5q-205 0 -343 -143.5t-138 -361.5z " />
<glyph unicode=":" horiz-adv-x="526" d="M154 70q0 44 32 76t78 32q44 0 76.5 -32t32.5 -76q0 -46 -32.5 -78.5t-76.5 -32.5q-46 0 -78 32.5t-32 78.5zM154 926q0 44 32 76t78 32q44 0 76.5 -32t32.5 -76q0 -46 -32.5 -78.5t-76.5 -32.5q-46 0 -78 32.5t-32 78.5z" />
<glyph unicode=";" horiz-adv-x="528" d="M121 -341.5q-3 14.5 2 24.5l123 266q3 5 -2 10q-40 12 -63 39t-23 63q0 46 31 77.5t75 31.5q46 0 77.5 -31.5t31.5 -77.5q0 -23 -13 -49l-182 -356q-5 -11 -18.5 -17.5t-24.5 -0.5t-14 20.5zM156 926q0 44 32 76t78 32q44 0 76.5 -32t32.5 -76q0 -46 -32.5 -78.5 t-76.5 -32.5q-46 0 -78 32.5t-32 78.5z" />
<glyph unicode="&#x3c;" horiz-adv-x="1134" d="M154 768q0 24 24 37l793 461q19 8 35.5 1t21.5 -22q6 -16 -3 -31.5t-24 -23.5l-733 -414q-12 -6 0 -12l733 -414q15 -8 24 -23.5t3 -31.5q-5 -15 -21.5 -22t-35.5 1l-793 455q-24 13 -24 39z" />
<glyph unicode="=" horiz-adv-x="1404" d="M139 578q0 17 11.5 27.5t27.5 10.5h1049q16 0 27.5 -10.5t11.5 -27.5t-11.5 -28t-27.5 -11h-1049q-16 0 -27.5 11t-11.5 28zM139 963q0 17 11.5 27.5t27.5 10.5h1049q16 0 27.5 -10.5t11.5 -27.5t-11.5 -28t-27.5 -11h-1049q-16 0 -27.5 11t-11.5 28z" />
<glyph unicode="&#x3e;" horiz-adv-x="1134" d="M106 295q-6 16 3 31.5t24 23.5l733 414q12 6 0 12l-733 414q-15 8 -24 23.5t-3 31.5q5 15 22 22t36 -1l792 -461q25 -14 25 -37q0 -25 -25 -39l-792 -455q-19 -8 -36 -1t-22 22z" />
<glyph unicode="?" horiz-adv-x="1148" d="M0 1159q14 83 53 157.5t101.5 135.5t156 97t205.5 36q216 0 354 -120t138 -316q0 -171 -114 -307t-306 -219q-18 -7 -23.5 -16.5t-5.5 -26.5v-177q0 -15 -11 -26.5t-28 -11.5t-29 11.5t-12 26.5v185q0 47 18 71t54 39q172 73 267 181t95 268q0 86 -32.5 156t-88.5 113.5 t-126.5 67t-149.5 23.5q-164 0 -281 -98t-157 -270q-4 -18 -17.5 -25t-29.5 -4q-17 4 -25.5 18.5t-5.5 30.5zM410 70q0 44 32 76t78 32q44 0 76.5 -32t32.5 -76q0 -46 -32.5 -78.5t-76.5 -32.5q-46 0 -78 32.5t-32 78.5z" />
<glyph unicode="@" horiz-adv-x="1714" d="M82 772q0 227 109 414t296 293t412 106q163 0 303 -57t235.5 -154t149 -228t53.5 -278q0 -95 -26.5 -186t-74 -164.5t-121.5 -118.5t-161 -45q-55 0 -106 25t-64 65q-3 5 -6 2q-113 -94 -274 -94q-148 0 -250 113t-102 280q0 121 54.5 231t156 180.5t223.5 70.5 q73 0 137 -21.5t116 -65t82.5 -117.5t30.5 -169q0 -171 -90 -313q-26 -41 5 -75t92 -34q72 0 130.5 39t95 102t56 139t19.5 154q0 141 -54.5 262t-146.5 203.5t-212.5 129t-252.5 46.5q-151 0 -287 -56t-235 -152.5t-157 -234t-58 -292.5q0 -163 62 -302.5t166 -233 t239.5 -146.5t281.5 -53q239 0 428 92q41 18 58 -16q7 -13 1.5 -30.5t-22.5 -27.5q-66 -41 -199 -68.5t-276 -27.5q-170 0 -321 61.5t-260 168.5t-172.5 258.5t-63.5 324.5zM532 752q0 -133 75 -225.5t198 -96.5q168 -6 270.5 111t102.5 307q0 146 -79.5 223.5t-215.5 77.5 q-103 0 -185 -60t-124 -150t-42 -187z" />
<glyph unicode="A" horiz-adv-x="1499" d="M10 14l666 1518q22 53 74 53q51 0 73 -53l666 -1518q7 -17 0 -32.5t-23 -20.5q-36 -9 -51 25l-215 493q-2 4 -8 4h-885q-6 0 -8 -4l-215 -493q-15 -34 -51 -25q-16 5 -23 20.5t0 32.5zM338 567q-3 -6 4 -6h815q7 0 4 6l-407 930q-7 7 -9 0z" />
<glyph unicode="B" horiz-adv-x="1349" d="M0 1505q0 17 11.5 28t27.5 11h596q261 0 394.5 -91.5t133.5 -299.5q0 -115 -51.5 -197.5t-136.5 -128.5q-6 -3 0 -6q315 -99 315 -397q0 -199 -118.5 -311.5t-354.5 -112.5h-653q-4 0 -6 -4q-12 -18 -19 -25q-9 -10 -25.5 -12t-25.5 6q-22 18 -2 51q15 26 23.5 53t15 103 t6.5 201v1085q0 8 -8 8h-84q-16 0 -27.5 11t-11.5 28zM190 82q0 -4 5 -4h620q195 0 296 90.5t101 255.5q0 157 -113.5 250.5t-281.5 93.5h-602q-6 0 -6 -8v-365q0 -227 -19 -313zM209 854q0 -8 6 -8h584q35 0 73.5 12t76.5 38t68.5 61t49 86.5t18.5 109.5t-12 103t-42 85.5 t-79 67t-126.5 42t-180.5 15.5h-428q-4 0 -6 -2t-2 -4v-2v-604z" />
<glyph unicode="C" horiz-adv-x="1470" d="M82 770q0 160 61.5 308.5t167.5 260.5t259 179t327 67q119 0 246.5 -26.5t224.5 -90.5q14 -9 18.5 -27t-4.5 -32q-8 -14 -26 -16t-29 6q-100 61 -196.5 84.5t-233.5 23.5q-148 0 -284 -57t-235.5 -154.5t-158.5 -235t-59 -290.5q0 -156 59.5 -293t159.5 -233 t235.5 -151.5t284.5 -55.5q255 0 428 113q12 8 29 5.5t26 -16.5t4.5 -32t-18.5 -27q-97 -63 -224 -92t-245 -29q-175 0 -327.5 63t-259.5 171t-168.5 258t-61.5 319z" />
<glyph unicode="D" horiz-adv-x="1540" d="M2 88q5 29 34 29q11 0 25 -4l66 -19q4 0 4 4v1350q0 4 -4 4l-74 -20q-19 -5 -33.5 2t-17.5 24q-1 3 -1 7q0 26 36 40q59 25 224.5 52.5t307.5 27.5q182 0 332.5 -46t252 -124t171.5 -182.5t101.5 -220t31.5 -238.5q0 -126 -31.5 -242.5t-101.5 -221.5t-171.5 -182.5 t-252 -123t-332.5 -45.5q-120 0 -295.5 28t-236.5 54q-36 14 -36 40q0 4 1 7zM209 84q0 -4 4 -6q116 -34 342 -41h29q104 1 204 19q114 22 222.5 76t189.5 137t130.5 213t49.5 292q0 143 -46.5 264.5t-125 206.5t-182.5 145t-220 88.5t-237 28.5q-220 0 -356 -39q-4 0 -4 -6 v-1378z" />
<glyph unicode="E" horiz-adv-x="1267" d="M61 430q0 117 69.5 216.5t188.5 148.5q6 3 0 6q-104 42 -170.5 136t-66.5 210q0 101 37 178t103 124.5t151.5 71t187.5 23.5h639q18 0 28.5 -10.5t10.5 -28.5q0 -17 -11.5 -28t-27.5 -11h-659q-169 0 -276 -82t-107 -237q0 -128 96 -219.5t223 -91.5h633q16 0 27.5 -11 t11.5 -28t-11.5 -28t-27.5 -11h-641q-93 0 -170 -48.5t-118.5 -123.5t-41.5 -156q0 -87 34.5 -156.5t92.5 -111t128 -63t147 -21.5h659q16 0 27.5 -11t11.5 -28t-11.5 -28t-27.5 -11h-641q-141 0 -252 47.5t-178.5 146.5t-67.5 236z" />
<glyph unicode="F" horiz-adv-x="1228" d="M131 -2v1137q0 186 132 297.5t333 111.5h590q16 0 27.5 -11t11.5 -28t-11.5 -28t-27.5 -11h-596q-158 0 -268.5 -90t-110.5 -241v-291q0 -8 8 -8h877q16 0 27.5 -11t11.5 -28t-11.5 -28t-27.5 -11h-877q-8 0 -8 -6v-754q0 -16 -11 -27.5t-28 -11.5t-29 12t-12 27z" />
<glyph unicode="G" horiz-adv-x="1728" d="M82 770q0 161 59.5 309t164.5 260t259 179t332 67q234 0 417.5 -109.5t258.5 -285.5q7 -18 -1 -34.5t-24 -22.5q-32 -10 -49 24q-76 162 -242.5 256t-359.5 94q-160 0 -300 -61.5t-234.5 -163.5t-148.5 -235.5t-54 -276.5q0 -151 57 -287t155 -233.5t235.5 -155 t291.5 -57.5q198 0 349.5 76.5t238 227t86.5 355.5q0 17 -14 17h-594q-16 0 -27.5 11t-11.5 28t11.5 28t27.5 11h594q40 0 66 -26.5t26 -68.5q0 -116 -29.5 -223t-91 -201t-149.5 -163.5t-212 -109.5t-270 -40q-175 0 -327.5 63t-259.5 171t-168.5 258t-61.5 319z" />
<glyph unicode="H" horiz-adv-x="1527" d="M131 -2v1548q0 16 11 27.5t28 11.5t28 -11.5t11 -27.5v-733q0 -12 10 -12h1090q10 0 10 12v733q0 16 11 27.5t28 11.5t28 -11.5t11 -27.5v-1548q0 -16 -11 -27.5t-28 -11.5t-28 11.5t-11 27.5v713q0 12 -10 12h-1090q-10 0 -10 -10v-715q0 -16 -11 -27.5t-28 -11.5 t-28 11.5t-11 27.5z" />
<glyph unicode="I" horiz-adv-x="342" d="M131 -2v1548q0 15 12 27t29 12t28 -11.5t11 -27.5v-1548q0 -16 -11 -27.5t-28 -11.5t-29 12t-12 27z" />
<glyph unicode="J" horiz-adv-x="1021" d="M7.5 235.5q3.5 17.5 15.5 24.5q13 9 30.5 6t26.5 -18q21 -35 48.5 -66t71 -67t104.5 -57t130 -21q183 0 282 110.5t99 284.5v1114q0 15 12 27t29 12t28 -11.5t11 -27.5v-1089q0 -228 -122.5 -363t-338.5 -135q-78 0 -148.5 22.5t-122.5 60t-89 78.5t-62 85 q-8 13 -4.5 30.5z" />
<glyph unicode="K" horiz-adv-x="1230" d="M131 -2v1548q0 15 12 27t29 12t28 -11.5t11 -27.5v-657q0 -10 8 -2l901 684q12 12 28.5 14t27.5 -8q11 -12 10 -30t-12 -27l-963 -734q-3 -3 0 -6l995 -753q11 -10 13 -27t-9 -31q-9 -10 -27 -9.5t-30 11.5l-934 709q-8 4 -8 -4v-678q0 -16 -11 -27.5t-28 -11.5t-29 12 t-12 27z" />
<glyph unicode="L" horiz-adv-x="1028" d="M131 59v1487q0 15 12 27t29 12t28 -11.5t11 -27.5v-1450q0 -18 18 -18h750q16 0 27.5 -11t11.5 -28t-11.5 -28t-27.5 -11h-789q-26 0 -42.5 17.5t-16.5 41.5z" />
<glyph unicode="M" horiz-adv-x="1933" d="M18 6l328 1501q17 78 78 78q53 0 78 -78l463 -1394q0 -3 2 -3t2 3l463 1394q25 78 77 78q61 0 78 -78l328 -1501q4 -19 -5 -32t-26 -15h-5q-33 0 -40 37l-328 1493q0 3 -2 3t-2 -3l-493 -1493q-12 -37 -47 -37t-47 37l-494 1493q0 3 -2 3t-2 -3l-328 -1493 q-7 -37 -40 -37h-5q-17 2 -26 15t-5 32z" />
<glyph unicode="N" horiz-adv-x="1509" d="M131 -2v1526q0 52 43 59q8 1 16 1q34 0 56 -28l1054 -1488v1478q0 16 11 27.5t28 11.5t28 -11.5t11 -27.5v-1503q0 -35 -22.5 -59.5t-52.5 -24.5q-17 0 -23.5 4.5t-11 18.5t-8.5 20l-1045 1466h-4v-1470q0 -16 -11 -27.5t-28 -11.5t-29 12t-12 27z" />
<glyph unicode="O" horiz-adv-x="1810" d="M82 772q0 221 111 408.5t300.5 296t411.5 108.5q166 0 318.5 -64t263 -172.5t176.5 -259.5t66 -317t-66 -317t-176.5 -259.5t-263 -172.5t-318.5 -64q-222 0 -411.5 108.5t-300.5 296t-111 408.5zM160 772q0 -203 99.5 -372.5t270.5 -266t375 -96.5q122 0 236 36.5 t206 103.5t160.5 157t106 203t37.5 235t-37.5 235t-106 203t-160.5 157t-206 103.5t-236 36.5q-204 0 -375 -96.5t-270.5 -266t-99.5 -372.5z" />
<glyph unicode="P" horiz-adv-x="1333" d="M0 1505q0 17 11.5 28t27.5 11h651q286 0 443 -131t157 -379q0 -112 -38.5 -209t-109 -168.5t-177.5 -112t-238 -40.5h-510q-6 0 -6 -6v-500q0 -16 -11 -27.5t-28 -11.5t-29 12t-12 27v1462q0 3 -1.5 4.5t-3.5 1.5h-1h-86q-16 0 -27.5 11t-11.5 28zM211 588q0 -6 6 -6h510 q124 0 218.5 35.5t152 98t86 143t28.5 175.5q0 202 -127.5 317t-394.5 115h-473q-6 0 -6 -6v-872z" />
<glyph unicode="Q" horiz-adv-x="1810" d="M82 772q0 221 111 408.5t300.5 296t411.5 108.5q166 0 318.5 -64t263 -172.5t176.5 -259.5t66 -317q0 -162 -62.5 -309t-173.5 -260l176 -172q14 -14 15.5 -35t-9.5 -29q-12 -10 -30.5 -6t-32.5 19l-176 172q-109 -92 -245.5 -142.5t-285.5 -50.5q-222 0 -411.5 108.5 t-300.5 296t-111 408.5zM160 772q0 -203 99.5 -372.5t270.5 -266t375 -96.5q271 0 477 166l-221 217q-11 11 -12.5 28.5t8.5 28.5t29.5 10t32.5 -14l221 -217q100 100 155.5 232.5t55.5 283.5q0 122 -37.5 235t-106 203t-160.5 157t-206 103.5t-236 36.5q-204 0 -375 -96.5 t-270.5 -266t-99.5 -372.5z" />
<glyph unicode="R" horiz-adv-x="1353" d="M0 1505q0 17 11.5 28t27.5 11h606q267 0 421.5 -118.5t154.5 -344.5q0 -172 -94 -293t-265 -167l395 -603q6 -13 1.5 -30t-17.5 -23q-17 -7 -32 -2.5t-23 19.5l-414 622q-50 -6 -102 -6h-453q-4 0 -6 -2t-2 -4v-2v-592q0 -16 -10 -27.5t-27 -11.5t-29 12t-12 27v1462 q-1 3 -3 4.5t-4 1.5h-1h-84q-16 0 -27.5 11t-11.5 28zM209 684q0 -8 8 -8h463q228 0 345.5 111.5t117.5 293.5q0 178 -125.5 281.5t-366.5 103.5h-434q-8 0 -8 -8v-774z" />
<glyph unicode="S" horiz-adv-x="1257" d="M42 243.5q-1 17.5 11 26.5q6 10 25 10t35 -16q62 -65 142.5 -112.5t156.5 -70.5t136.5 -33.5t106.5 -10.5q103 0 186.5 23.5t137 61t89 88t50.5 102.5t15 106q0 74 -22 130.5t-62.5 96t-108.5 68.5t-148.5 47.5t-193.5 34.5q-102 14 -186 42t-155 74t-111 117.5 t-40 163.5q0 78 35 148t102.5 125t176 87.5t244.5 32.5q139 0 263 -43.5t208 -128.5q15 -15 18 -32t-6 -27q-10 -13 -28 -14.5t-36 14.5q-153 153 -426 153q-219 0 -346 -87t-127 -228q0 -130 121 -215t328 -109q301 -34 439 -140.5t138 -307.5q0 -205 -153.5 -333 t-401.5 -128q-169 0 -341 72.5t-257 175.5q-14 19 -15 36.5z" />
<glyph unicode="T" horiz-adv-x="1122" d="M-10 1505q0 17 11.5 28t27.5 11h1065q16 0 27.5 -11t11.5 -28t-11.5 -28t-27.5 -11h-500v-1468q0 -16 -11 -27.5t-28 -11.5t-28 11.5t-11 27.5v1468h-487q-16 0 -27.5 11t-11.5 28z" />
<glyph unicode="U" horiz-adv-x="1593" d="M123 676v870q0 15 12 27t29 12t28 -11.5t11 -27.5v-870q0 -91 21.5 -180.5t69 -172.5t115.5 -146.5t168.5 -101.5t219.5 -38t219.5 38t168.5 101.5t115.5 146.5t69 172.5t21.5 180.5v870q0 16 11 27.5t28 11.5t28.5 -12t11.5 -27v-870q0 -153 -46 -284t-130.5 -227.5 t-212.5 -151t-284 -54.5q-208 0 -362.5 94.5t-233 256t-78.5 366.5z" />
<glyph unicode="V" horiz-adv-x="1511" d="M-7.5 1560q5.5 19 19.5 23q15 5 32 -1.5t24 -22.5l684 -1514q1 -3 2.5 -4t3 0t2.5 4l684 1514q7 16 23.5 22.5t31.5 1.5q14 -4 20 -23t-1 -34l-670 -1479q-22 -47 -43 -67.5t-49 -20.5t-49 20.5t-43 67.5l-670 1479q-7 15 -1.5 34z" />
<glyph unicode="W" horiz-adv-x="2162" d="M2 1530q-5 16 2 33.5t25 21.5q14 3 28.5 -6t20.5 -27l506 -1454q0 -8 4 0l463 1463q8 24 30 24q23 0 31 -24l463 -1463q4 -8 4 0l506 1454q6 18 20.5 27t28.5 6q18 -4 25 -21.5t2 -33.5l-537 -1534q-12 -37 -47 -37q-36 0 -49 37l-445 1388q0 3 -2 3t-2 -3l-444 -1388 q-11 -37 -49 -37q-14 0 -28 9t-19 28z" />
<glyph unicode="X" horiz-adv-x="1495" d="M6.5 -4q-0.5 18 9.5 29l672 741q5 5 0 10l-672 744q-10 11 -9.5 28.5t11.5 28.5q13 10 31 6.5t31 -16.5l663 -733q1 -3 4 -3t5 3l663 733q13 13 31 16.5t31 -6.5q11 -11 11.5 -28.5t-9.5 -28.5l-674 -744q-5 -5 0 -10l674 -741q10 -11 9.5 -29t-11.5 -29q-12 -10 -30 -7 t-32 17l-663 732q-2 1 -5 1t-4 -1l-663 -732q-14 -14 -32 -17t-30 7q-11 11 -11.5 29z" />
<glyph unicode="Y" horiz-adv-x="1374" d="M-0.5 1552q2.5 18 14.5 27t30 5t28 -19l614 -789q2 -2 4 0l613 789q10 15 27.5 19t29.5 -5t14.5 -27t-6.5 -30l-639 -815q-4 -5 -4 -13v-696q0 -16 -11 -27.5t-28 -11.5t-28 11.5t-11 27.5v696l-4 13l-637 815q-9 12 -6.5 30z" />
<glyph unicode="Z" horiz-adv-x="1312" d="M33 41q0 19 16 43l1112 1374q4 8 -4 8h-1071q-16 0 -27.5 11t-11.5 28t11.5 28t27.5 11h1137q22 0 36.5 -14.5t14.5 -34.5q0 -16 -8 -27l-1123 -1382q-3 -3 -2 -5.5t6 -2.5h1100q16 0 27.5 -11t11.5 -28t-11.5 -28t-27.5 -11h-1169q-18 0 -31.5 11t-13.5 30z" />
<glyph unicode="[" horiz-adv-x="761" d="M143 -162v1497q0 175 87 270t233 95h168q16 0 27.5 -11t11.5 -28t-11.5 -28t-27.5 -11h-172q-116 0 -177 -72.5t-61 -203.5v-1516q0 -131 61 -203.5t177 -72.5h172q16 0 27.5 -11t11.5 -28t-11.5 -28t-27.5 -11h-168q-149 0 -234.5 90t-85.5 272z" />
<glyph unicode="\" horiz-adv-x="776" d="M14 1534q-6 13 2 28.5t23 20.5q15 6 29 0t20 -20l674 -1551q7 -17 0.5 -31.5t-23.5 -19.5q-15 -5 -30 1.5t-21 21.5z" />
<glyph unicode="]" horiz-adv-x="761" d="M92 -485q0 17 11.5 28t27.5 11h172q116 0 177 72.5t61 203.5v1516q0 131 -61 203.5t-177 72.5h-172q-16 0 -27.5 11t-11.5 28t11.5 28t27.5 11h168q146 0 232.5 -95t86.5 -270v-1497q0 -183 -85 -272.5t-234 -89.5h-168q-16 0 -27.5 11t-11.5 28z" />
<glyph unicode="^" horiz-adv-x="1067" d="M114.5 898.5q-5.5 20.5 2.5 33.5l362 618q21 35 51 35q32 0 50 -35l368 -618q10 -13 5.5 -33.5t-23.5 -24.5q-38 -9 -56 25l-339 600q0 1 -2.5 1t-2.5 -1l-340 -600q-9 -17 -25 -23.5t-30 -1.5q-15 4 -20.5 24.5z" />
<glyph unicode="_" horiz-adv-x="1046" d="M-41 -219q0 17 11.5 28t27.5 11h1049q15 0 26.5 -11t11.5 -28t-11.5 -28t-26.5 -11h-1049q-16 0 -27.5 11t-11.5 28z" />
<glyph unicode="`" horiz-adv-x="802" d="M217.5 1557.5q3.5 16.5 18.5 23.5q31 15 53 -18l207 -303q10 -15 7.5 -33t-16.5 -27q-15 -8 -31.5 -2.5t-25.5 21.5l-205 307q-11 15 -7.5 31.5z" />
<glyph unicode="a" horiz-adv-x="1298" d="M63 526q0 113 37 213t106.5 177.5t177.5 123t241 45.5q241 0 401 -156t160 -403v-530q0 -15 -11 -26t-28 -11t-28 11.5t-11 27.5v240q0 8 -4 0q-67 -123 -187.5 -201t-283.5 -78q-133 0 -242.5 45t-180 122t-109 180t-38.5 220zM141 526q0 -208 140.5 -348.5 t351.5 -140.5q89 0 166.5 28t133 75.5t95.5 110.5t60 133t20 142q0 209 -135 345.5t-348 136.5q-148 0 -259.5 -66t-168 -174.5t-56.5 -241.5z" />
<glyph unicode="b" horiz-adv-x="1288" d="M48 -20.5q-6 13.5 1 32.5q0 1 5 12t8.5 20.5t10 27.5t11.5 36.5t11.5 43t11 52.5t8.5 59t6 68t2 75v1257q0 14 12 25.5t27 11.5q17 0 28 -11.5t11 -25.5v-823q0 -8 6 -2q73 117 198 182t271 65q133 0 239 -44.5t173 -121.5t102 -177t35 -214q0 -111 -37.5 -213 t-106 -181.5t-174 -127t-231.5 -47.5q-171 0 -296 73.5t-187 198.5q-1 3 -3 3t-2 -3q-7 -69 -28 -139.5t-41 -105.5t-49 -25q-16 5 -22 18.5zM197 528q0 -97 31.5 -185t90 -156.5t151 -109t206.5 -40.5q134 0 243 67.5t168.5 179.5t59.5 244q0 91 -34 177t-93.5 153.5 t-149.5 108.5t-194 41q-140 0 -250.5 -65.5t-169.5 -174.5t-59 -240z" />
<glyph unicode="c" horiz-adv-x="1056" d="M63 514q0 166 78 297t212 202.5t298 71.5q209 0 346 -100q12 -9 16 -25t-3 -30q-8 -14 -25 -16t-27 6q-73 52 -144 71q-64 17 -146 17h-17q-148 -3 -265 -69t-181 -178.5t-64 -250.5q0 -204 141 -338.5t355 -134.5q97 0 172 25t149 77q10 8 27 6t25 -16q7 -14 3 -30 t-16 -25q-156 -115 -362 -115q-155 0 -285.5 70t-208.5 198t-78 287z" />
<glyph unicode="d" horiz-adv-x="1288" d="M63 528q0 114 35 214t102 177t173 121.5t239 44.5q146 0 271 -65t198 -182q6 -6 6 2v823q0 14 11 25.5t28 11.5q15 0 27 -11.5t12 -25.5v-1257q0 -38 2 -75t6 -68t8.5 -59t11 -52.5t11.5 -43t11.5 -36.5t10 -27.5t8.5 -20.5t5 -12q7 -19 1 -32.5t-21 -18.5 q-30 -10 -50 25t-41 105.5t-28 139.5q0 8 -4 0q-62 -125 -187.5 -198.5t-296.5 -73.5q-126 0 -231.5 47.5t-174 127t-106 181.5t-37.5 213zM141 528q0 -132 59.5 -244t168.5 -179.5t243 -67.5q114 0 206.5 40.5t151.5 109t90.5 156.5t31.5 185q0 131 -59.5 240t-170 174.5 t-250.5 65.5q-104 0 -194 -41t-149.5 -108.5t-93.5 -153.5t-34 -177z" />
<glyph unicode="e" horiz-adv-x="1236" d="M63 528q0 242 164 399.5t412 157.5q246 0 401.5 -144t155.5 -368v-30q0 -17 -11 -28t-30 -11h-1010q-4 0 -4 -6q4 -82 42 -162.5t104 -147.5t168 -109t221 -42q130 0 216.5 31t184.5 114q36 27 56 2q9 -10 8 -26.5t-13 -28.5q-173 -170 -452 -170q-163 0 -303 72 t-225 203.5t-85 293.5zM141 580q0 -7 6 -7h961q10 0 10 11q0 84 -32 160t-91.5 135.5t-152 94t-205.5 34.5q-105 0 -197 -37t-155 -97.5t-101 -137t-43 -156.5z" />
<glyph unicode="f" horiz-adv-x="456" d="M6 1012q0 17 11.5 28t27.5 11h141q11 0 11 12v412q0 110 54.5 177.5t158.5 67.5q116 0 190 -80q29 -29 8 -55q-12 -14 -27.5 -12t-27.5 14q-59 55 -143 55q-66 0 -101 -37.5t-35 -123.5v-418q0 -12 11 -12h260q16 0 27.5 -11t11.5 -28t-11.5 -28t-27.5 -11h-260 q-11 0 -11 -10v-967q0 -14 -10.5 -25.5t-27.5 -11.5q-15 0 -27 11.5t-12 25.5v967q0 10 -11 10h-141q-16 0 -27.5 11t-11.5 28z" />
<glyph unicode="g" horiz-adv-x="1306" d="M78 516q0 111 37.5 213t106 181.5t174 127t231.5 47.5q165 0 290 -76.5t185 -185.5q4 -8 4 0v226q0 14 12 25t27 11t27 -11t12 -25v-994q0 -311 -148 -467.5t-411 -156.5q-91 0 -172 23t-139.5 61t-99 76t-71.5 81q-11 18 -7.5 34t16.5 24q28 19 53 -9q171 -217 424 -217 q229 0 353 130t124 372v232q0 8 -4 0q-66 -133 -195.5 -206t-279.5 -73q-133 0 -239 44.5t-173 121.5t-102 177t-35 214zM156 516q0 -91 34 -177t93.5 -153t149.5 -108t194 -41q140 0 250.5 65t169.5 174t59 240q0 97 -31.5 185t-90 157t-151 109.5t-206.5 40.5 q-134 0 -243 -68t-168.5 -180t-59.5 -244z" />
<glyph unicode="h" horiz-adv-x="1239" d="M119 -4v1667q0 14 12 25.5t27 11.5t27 -11.5t12 -25.5v-817q0 -8 4 0q62 109 191 174t259 65q203 0 341 -123t138 -319v-647q0 -14 -11.5 -25.5t-26.5 -11.5q-17 0 -28 11.5t-11 25.5v645q0 157 -109.5 262t-292.5 105q-84 0 -165 -29.5t-145.5 -80.5t-104 -126.5 t-39.5 -161.5v-614q0 -14 -12 -25.5t-27 -11.5t-27 11.5t-12 25.5z" />
<glyph unicode="i" horiz-adv-x="323" d="M92 1516q0 29 20.5 49t51.5 20q29 0 49 -20t20 -49q0 -31 -20 -51.5t-49 -20.5q-31 0 -51.5 20.5t-20.5 51.5zM123 -4v1053q0 14 12 25t27 11q17 0 28 -11t11 -25v-1053q0 -14 -12 -25.5t-27 -11.5t-27 11.5t-12 25.5z" />
<glyph unicode="j" horiz-adv-x="468" d="M-221 -336q30 -88 101 -138t155 -50q102 0 169.5 73.5t67.5 227.5v1272q0 14 -12 25t-27 11t-26.5 -11t-11.5 -25v-1280q0 -106 -45 -160.5t-113 -54.5q-70 0 -117 41.5t-67 97.5q-6 17 -20 24t-30 2q-15 -5 -23 -20t-1 -35zM164 1516q0 29 20.5 49t51.5 20q29 0 49 -20 t20 -49q0 -31 -20 -51.5t-49 -20.5q-31 0 -51.5 20.5t-20.5 51.5z" />
<glyph unicode="k" horiz-adv-x="1177" d="M119 -4v1667q0 14 12 25.5t27 11.5t27 -11.5t12 -25.5v-1092q0 -11 10 -6l821 512q12 7 27 7t24 -7q10 -10 12 -26.5t-12 -26.5l-422 -264q-8 -6 -2 -15l469 -735q7 -10 3.5 -25t-17.5 -22q-28 -14 -47 17l-475 725q-6 9 -17 2l-364 -228q-10 -7 -10 -18v-465 q0 -14 -12 -25.5t-27 -11.5t-27 11.5t-12 25.5z" />
<glyph unicode="l" horiz-adv-x="323" d="M123 -4v1667q0 14 12 25.5t27 11.5q17 0 28 -11.5t11 -25.5v-1667q0 -14 -11 -25.5t-28 -11.5q-15 0 -27 11.5t-12 25.5z" />
<glyph unicode="m" horiz-adv-x="1783" d="M123 -4v1053q0 14 12 25t27 11t27 -11t12 -25v-181q1 -5 4 0q23 50 68.5 96.5t126.5 83.5t175 37q115 0 206 -62.5t124 -154.5q3 -3 4 0q46 90 140.5 153.5t218.5 63.5q175 0 289 -100.5t114 -269.5v-719q0 -14 -11 -25.5t-28 -11.5q-15 0 -27 11.5t-12 25.5v719 q0 76 -26.5 133.5t-73 91.5t-104.5 51t-127 17q-144 0 -233 -94.5t-89 -254.5v-663q0 -14 -11 -25.5t-26 -11.5t-26 11.5t-11 25.5v663q0 162 -87.5 255.5t-209.5 93.5q-153 0 -260.5 -107t-107.5 -256v-649q0 -14 -12 -25.5t-27 -11.5t-27 11.5t-12 25.5z" />
<glyph unicode="n" horiz-adv-x="1247" d="M123 -4v1053q0 14 12 25t27 11t27 -11t12 -25v-207q0 -3 2.5 -3t3.5 3q184 243 467 243q202 0 331.5 -122t129.5 -320v-647q0 -14 -12 -25.5t-27 -11.5q-17 0 -28 11.5t-11 25.5v645q0 68 -24.5 132.5t-70.5 117.5t-121 85t-167 32q-95 0 -185.5 -35t-151.5 -86.5 t-98.5 -110t-37.5 -106.5v-674q0 -14 -12 -25.5t-27 -11.5t-27 11.5t-12 25.5z" />
<glyph unicode="o" horiz-adv-x="1245" d="M66 524q0 123 43.5 228.5t118.5 178t177.5 113.5t217.5 41q114 0 216.5 -41t177.5 -113.5t119 -178t44 -228.5q0 -129 -44 -237t-120 -179t-177 -110t-216 -39q-113 0 -215.5 42t-177.5 115t-119.5 179.5t-44.5 228.5zM141 524q0 -210 136 -348.5t346 -138.5 q213 0 347 128.5t134 358.5q0 146 -64 257t-173 169t-244 58q-136 0 -245 -58t-173 -169t-64 -257z" />
<glyph unicode="p" horiz-adv-x="1288" d="M123 -487v1536q0 14 12 25t27 11q17 0 28 -11t11 -25v-222q0 -9 6 0q69 113 191.5 185.5t277.5 72.5q125 0 230 -45.5t174 -122.5t107 -177.5t38 -211.5q0 -114 -37.5 -216t-106 -181t-173.5 -125.5t-232 -46.5q-167 0 -287 73t-184 183q-4 8 -4 0v-702q0 -14 -11 -25.5 t-28 -11.5q-15 0 -27 11.5t-12 25.5zM197 528q0 -97 31.5 -185t90 -156.5t151 -109t206.5 -40.5q134 0 243 67.5t168.5 178.5t59.5 241q0 127 -57 236.5t-166 178.5t-248 69q-140 0 -250.5 -65.5t-169.5 -174.5t-59 -240z" />
<glyph unicode="q" horiz-adv-x="1288" d="M63 528q0 111 38 211.5t107 177.5t174 122.5t230 45.5q155 0 277.5 -72.5t191.5 -185.5q6 -9 6 0v222q0 14 11 25t28 11q15 0 27 -11t12 -25v-1536q0 -14 -12 -25.5t-27 -11.5q-17 0 -28 11.5t-11 25.5v702q0 8 -4 0q-64 -110 -184 -183t-287 -73q-127 0 -232 46.5 t-173.5 125.5t-106 181t-37.5 216zM141 524q0 -130 59.5 -241t168.5 -178.5t243 -67.5q114 0 206.5 40.5t151.5 109t90.5 156.5t31.5 185q0 131 -59.5 240t-170 174.5t-250.5 65.5q-139 0 -248 -69t-166 -178.5t-57 -236.5z" />
<glyph unicode="r" horiz-adv-x="616" d="M123 -4v1053q0 14 11 25t28 11q15 0 27 -11t12 -25v-156q0 -6 4 0q53 87 166.5 139.5t226.5 52.5q16 0 27.5 -10.5t11.5 -27.5t-11.5 -28t-27.5 -11q-102 0 -180.5 -31t-124.5 -83.5t-69 -116.5t-23 -136v-645q0 -14 -12 -25.5t-27 -11.5q-17 0 -28 11.5t-11 25.5z" />
<glyph unicode="s" horiz-adv-x="960" d="M68 207q12 12 29 13t30 -15q64 -80 167 -124t234 -44q156 0 234 71.5t78 174.5q0 44 -14 79.5t-42 60t-61.5 42.5t-82 30.5t-92.5 20t-104 14.5q-376 43 -376 279q0 118 112.5 197t292.5 79q119 0 225.5 -35.5t169.5 -105.5q11 -11 12.5 -26.5t-8.5 -26.5 q-12 -12 -29 -11.5t-30 13.5q-115 115 -340 115q-150 0 -239 -54.5t-89 -144.5q0 -163 330 -201q53 -6 95 -13.5t89.5 -20.5t83.5 -29t70.5 -40.5t56.5 -55t35 -72.5t13 -92q0 -145 -110.5 -235.5t-287.5 -90.5q-138 0 -256.5 47.5t-193.5 143.5q-23 30 -2 57z" />
<glyph unicode="t" horiz-adv-x="475" d="M-14 1012q0 17 11.5 28t27.5 11h161q11 0 11 12v285q0 14 12 25t27 11q17 0 27.5 -11t10.5 -25v-285q0 -12 11 -12h161q16 0 27.5 -11t11.5 -28t-11.5 -28t-27.5 -11h-161q-11 0 -11 -10v-967q0 -14 -10.5 -25.5t-27.5 -11.5q-15 0 -27 11.5t-12 25.5v967q0 10 -11 10 h-161q-16 0 -27.5 11t-11.5 28z" />
<glyph unicode="u" horiz-adv-x="1208" d="M115 455v594q0 14 12 25t27 11q17 0 28 -11t11 -25v-611q0 -164 120 -282.5t291 -118.5t291.5 118.5t120.5 282.5v611q0 14 11 25t28 11q15 0 27 -11t12 -25v-594q0 -221 -142.5 -358.5t-347.5 -137.5q-134 0 -244.5 60t-177.5 174.5t-67 261.5z" />
<glyph unicode="v" horiz-adv-x="1114" d="M-2.5 1064.5q6.5 17.5 22.5 20.5q36 6 50 -28l485 -991q0 -2 2 -2t2 2l485 991q14 34 50 28q16 -3 22.5 -20.5t-0.5 -30.5l-514 -1044q-13 -31 -45 -31t-45 31l-514 1044q-7 13 -0.5 30.5z" />
<glyph unicode="w" horiz-adv-x="1859" d="M7 1061q6 18 20 22q11 6 28.5 1.5t24.5 -21.5l414 -995q0 -3 2 -3t2 3l387 976q16 41 45 41t45 -41l387 -976q0 -3 2 -3t2 3l414 995q7 17 24.5 21.5t28.5 -1.5q14 -4 19.5 -22t-1.5 -31l-436 -1032q-17 -39 -49 -39q-37 0 -53 39l-381 956q0 2 -2 2t-2 -2l-381 -956 q-16 -39 -53 -39q-33 0 -50 39l-436 1032q-7 13 -1 31z" />
<glyph unicode="x" horiz-adv-x="1189" d="M16.5 -5.5q0.5 18.5 12.5 28.5l514 499l-514 502q-12 12 -12.5 27.5t10.5 25.5q9 9 26 8t29 -12l512 -500l514 500q12 11 29 12t26 -8q11 -10 10.5 -25.5t-12.5 -27.5l-514 -502l514 -499q12 -10 12.5 -28.5t-8.5 -27.5q-7 -8 -25 -7.5t-32 13.5l-514 498l-512 -498 q-14 -13 -32 -13.5t-25 7.5q-9 9 -8.5 27.5z" />
<glyph unicode="y" horiz-adv-x="1153" d="M-6.5 1061q5.5 18 22.5 22q32 8 50 -24l483 -932q3 -6 6 0l532 936q8 14 23 19.5t33 -1.5q14 -6 17 -21t-7 -34l-881 -1540q-9 -16 -23 -24t-30 -1q-14 6 -18 21.5t6 34.5l299 524q2 4 0 8l-510 981q-8 13 -2.5 31z" />
<glyph unicode="z" horiz-adv-x="1062" d="M37 41q0 15 10 25l838 901q4 6 -4 6h-787q-16 0 -27.5 11t-11.5 28t11.5 28t27.5 11h879q17 0 29 -12t12 -29q0 -14 -10 -27l-838 -899q-4 -6 4 -6h807q16 0 27.5 -11t11.5 -28t-11.5 -28t-27.5 -11h-899q-17 0 -29 12t-12 29z" />
<glyph unicode="{" horiz-adv-x="778" d="M61 588q0 26 35 35q75 20 107.5 64t32.5 142v738q0 133 126 133h285q16 0 27.5 -11t11.5 -28t-11.5 -28t-27.5 -11h-293q-17 0 -29 -11t-12 -26v-756q0 -208 -131 -239q-8 0 0 -4q131 -36 131 -242v-754q0 -15 12 -25.5t29 -10.5h293q16 0 27.5 -11t11.5 -28t-11.5 -28 t-27.5 -11h-285q-126 0 -126 133v735q0 96 -31.5 138.5t-108.5 68.5q-35 12 -35 37z" />
<glyph unicode="|" horiz-adv-x="319" d="M123 -489v2152q0 14 11 25.5t26 11.5q16 0 26.5 -11.5t10.5 -25.5v-2152q0 -14 -10.5 -25.5t-26.5 -11.5q-15 0 -26 11.5t-11 25.5z" />
<glyph unicode="}" horiz-adv-x="778" d="M92 -485q0 17 11.5 28t27.5 11h293q17 0 29 10.5t12 25.5v754q0 206 131 242q8 4 0 4q-131 31 -131 239v756q0 15 -12 26t-29 11h-293q-16 0 -27.5 11t-11.5 28t11.5 28t27.5 11h285q127 0 127 -133v-738q0 -98 32 -142t107 -64q35 -9 35 -35q0 -25 -35 -37 q-77 -26 -108 -68.5t-31 -138.5v-735q0 -133 -127 -133h-285q-16 0 -27.5 11t-11.5 28z" />
<glyph unicode="~" horiz-adv-x="1570" d="M96 627.5q-6 19.5 2 34.5q56 119 150.5 184t216.5 65q77 0 146.5 -30t123.5 -72.5t106.5 -85t117.5 -72.5t135 -30q43 0 77 6.5t76.5 26.5t82 64.5t73.5 112.5q7 15 23 21.5t30 1.5q14 -6 20 -25t-1 -34q-128 -250 -381 -250q-80 0 -154 30t-131 72.5t-110.5 85.5 t-114 73t-119.5 30q-42 0 -75.5 -7t-74 -27t-77.5 -64.5t-68 -112.5q-6 -14 -22.5 -21t-30.5 -2q-15 6 -21 25.5z" />
<glyph unicode="&#xa1;" horiz-adv-x="786" d="M549 975q0 46 32 78t76 32q46 0 78.5 -32t32.5 -78q0 -44 -32.5 -76.5t-78.5 -32.5q-44 0 -76 32.5t-32 76.5zM555 -436l63 944q2 16 12.5 27.5t26.5 11.5q17 0 28 -11.5t13 -27.5l64 -944q3 -42 -28.5 -73.5t-76.5 -31.5q-43 0 -74 31.5t-28 73.5z" />
<glyph unicode="&#xa2;" horiz-adv-x="1056" d="M63 514q0 234 150.5 391t380.5 176v2q7 0 12.5 4.5t5.5 10.5v219q0 16 11 27.5t28 11.5t29 -12t12 -27v-219q0 -10 8 -15q171 -10 297 -98q12 -9 16 -25t-3 -30q-8 -14 -25 -16t-27 6q-73 52 -144 71t-163 17q-148 -3 -265 -69t-181 -178.5t-64 -250.5q0 -204 141 -338.5 t355 -134.5q97 0 172 25t149 77q10 8 27 6t25 -16q7 -14 3 -30t-16 -25q-130 -95 -299 -111q-6 -6 -6 -14v-219q0 -15 -12 -27t-29 -12t-28 11.5t-11 27.5v217q0 11 -14 14q-110 6 -208 49.5t-170.5 115t-114.5 172.5t-42 216z" />
<glyph unicode="&#xa3;" horiz-adv-x="1173" d="M39 -3q-1 17 8 28q18 23 55.5 46t71.5 35q4 2 4 9v686q0 10 -10 10h-88q-16 0 -27.5 11t-11.5 28t11.5 28t27.5 11h88q10 0 10 12v277q0 100 34.5 180.5t91 128.5t124.5 73t141 25q98 0 176 -39.5t122.5 -102t67.5 -131.5t23 -136q0 -16 -9.5 -28.5t-28.5 -12.5 q-41 0 -41 36q0 57 -17.5 113.5t-52.5 107.5t-97.5 83t-142.5 32q-128 0 -220.5 -83.5t-92.5 -235.5v-287q0 -12 10 -12h461q16 0 27.5 -11t11.5 -28t-11.5 -28t-27.5 -11h-461q-10 0 -10 -10v-680q0 -6 6 -6q43 0 194 -39t220 -39q83 0 132 10.5t106.5 49.5t129.5 120 q26 26 54 2q10 -10 10.5 -25.5t-8.5 -27.5q-32 -44 -68.5 -78t-66.5 -55.5t-69.5 -36.5t-63.5 -22t-63.5 -10.5t-55 -4t-51.5 -0.5q-103 0 -227.5 35t-207.5 35q-60 0 -116 -56q-12 -12 -29 -14t-31 10q-11 11 -12 28z" />
<glyph unicode="&#xa4;" horiz-adv-x="1445" d="M154 532q0 98 37 192t106 169q18 18 0 41l-125 127q-11 11 -11.5 27t11.5 28q12 10 28 10t27 -10l131 -133q13 -11 20.5 -10t22.5 8q142 92 322 92q187 0 330 -94q25 -14 41 4l131 133q11 10 27 10t28 -10q12 -12 11.5 -28t-11.5 -27l-125 -127q-16 -20 -6 -35 q141 -150 141 -367q0 -227 -143 -382q-11 -18 8 -37l125 -127q11 -11 11.5 -27.5t-11.5 -28.5q-12 -10 -28 -10t-27 10l-131 133q-16 16 -41 5q-146 -99 -330 -99q-177 0 -326 99q-23 13 -39 -5l-131 -133q-11 -10 -27 -10t-28 10q-12 12 -11.5 28.5t11.5 27.5l125 127 q20 25 2 43q-145 161 -145 376zM231 530q0 -224 137.5 -353.5t354.5 -129.5q218 0 357 135.5t139 349.5q0 121 -62.5 226.5t-177.5 171t-256 65.5q-108 0 -202 -40.5t-156.5 -106.5t-98 -149t-35.5 -169z" />
<glyph unicode="&#xa5;" horiz-adv-x="1374" d="M-0.5 1552q2.5 18 14.5 27t29 5t29 -19l614 -789q2 -2 4 0l613 789q10 15 27.5 19t29.5 -5t14.5 -27t-6.5 -30l-639 -815q-4 -5 -4 -13v-2q0 -12 10 -12h475q16 0 27.5 -11t11.5 -28t-11.5 -28t-27.5 -11h-475q-10 0 -10 -10v-285q0 -12 10 -12h475q16 0 27.5 -11 t11.5 -28t-11.5 -28t-27.5 -11h-475q-10 0 -10 -10v-209q0 -16 -11 -27.5t-28 -11.5t-28 11.5t-11 27.5v209q0 10 -10 10h-475q-16 0 -27.5 11t-11.5 28t11.5 28t27.5 11h475q10 0 10 12v285q0 10 -10 10h-475q-16 0 -27.5 11t-11.5 28t11.5 28t27.5 11h475q10 0 10 12v2 l-4 13l-637 815q-9 12 -6.5 30z" />
<glyph unicode="&#xa6;" horiz-adv-x="387" d="M154 -2v618q0 16 11 27.5t28 11.5t28.5 -12t11.5 -27v-618q0 -15 -11.5 -27t-28.5 -12t-28 11.5t-11 27.5zM154 928v618q0 16 11 27.5t28 11.5t28.5 -12t11.5 -27v-618q0 -15 -11.5 -27t-28.5 -12t-28 11.5t-11 27.5z" />
<glyph unicode="&#xa7;" horiz-adv-x="1478" d="M260 1487q0 25 17 41t42 16h828q16 0 27.5 -11t11.5 -28t-11.5 -28t-27.5 -11h-774q-10 0 -2 -8l577 -643q176 -194 176 -379q0 -153 -93.5 -249.5t-233.5 -96.5q-32 0 -60 4q-4 0 -2 -2l453 -512q20 -20 20 -47q0 -25 -17 -41t-42 -16h-827q-16 0 -27.5 11t-11.5 28 t11.5 28t27.5 11h774q10 0 2 8l-578 643q-176 194 -176 379q0 154 91 250t231 96q39 0 63 -6q4 0 2 4l-450 512q-21 21 -21 47zM436 584q0 -173 170 -346q70 -70 178 -70q87 0 144.5 39.5t80.5 97.5t23 131q0 166 -172 344q-68 72 -176 72q-87 0 -144.5 -39.5t-80.5 -97.5 t-23 -131z" />
<glyph unicode="&#xa8;" horiz-adv-x="1099" d="M276 1753q0 27 20 47.5t50 20.5t49 -20t19 -46q0 -30 -19 -51t-49 -21q-28 0 -49 21t-21 49zM688 1753q0 27 20 47.5t50 20.5t48.5 -20t18.5 -46q0 -30 -18.5 -51t-48.5 -21q-28 0 -49 21t-21 49z" />
<glyph unicode="&#xa9;" horiz-adv-x="1810" d="M82 772q0 221 111 408.5t300.5 296t411.5 108.5q166 0 318.5 -64t263 -172.5t176.5 -259.5t66 -317t-66 -317t-176.5 -259.5t-263 -172.5t-318.5 -64q-222 0 -411.5 108.5t-300.5 296t-111 408.5zM160 772q0 -203 99.5 -372.5t270.5 -266t375 -96.5q122 0 236 36.5 t206 103.5t160.5 157t106 203t37.5 235t-37.5 235t-106 203t-160.5 157t-206 103.5t-236 36.5q-204 0 -375 -96.5t-270.5 -266t-99.5 -372.5zM377 764q0 -119 43.5 -223.5t116 -176t168.5 -112.5t200 -41q131 0 235.5 48t170.5 138q9 12 5 29.5t-18 26.5q-24 19 -51 -13 q-139 -155 -342 -151q-88 0 -170 36t-144 97.5t-99 150.5t-37 189q0 138 54 251t157.5 181.5t238.5 71.5q202 4 342 -152q27 -31 51 -12q14 9 18 26t-5 29q-66 90 -170.5 138t-235.5 48q-146 0 -266.5 -73.5t-191 -206.5t-70.5 -299z" />
<glyph unicode="&#xab;" horiz-adv-x="1181" d="M154 582q0 45 8.5 91.5t34.5 105.5t67 111t112 103.5t163 87.5q20 7 36 0.5t21 -20.5q6 -17 -2.5 -33t-24.5 -22q-171 -66 -252 -180.5t-81 -243.5t81 -243.5t252 -180.5q16 -6 24.5 -22.5t2.5 -33.5q-5 -14 -21 -20.5t-36 0.5q-92 36 -163 87.5t-112 104t-67 111.5 t-34.5 105.5t-8.5 91.5zM623 584q0 45 8.5 91.5t34.5 105.5t67 111t112 103.5t163 87.5q20 7 36 0.5t21 -20.5q6 -17 -2.5 -33t-24.5 -22q-171 -66 -252 -180.5t-81 -243.5t81 -243.5t252 -180.5q16 -6 24.5 -22.5t2.5 -33.5q-5 -14 -21 -20.5t-36 0.5q-92 36 -163 87.5 t-112 104t-67 111.5t-34.5 105.5t-8.5 91.5z" />
<glyph unicode="&#xac;" horiz-adv-x="1589" d="M113 1012q0 17 11.5 28t27.5 11h1181q50 0 76.5 -26.5t26.5 -74.5v-809q0 -16 -11 -27.5t-28 -11.5t-28 11.5t-11 27.5v809q0 12 -4.5 17.5t-20.5 5.5h-1181q-16 0 -27.5 11t-11.5 28z" />
<glyph unicode="&#xad;" horiz-adv-x="968" d="M92 717q0 17 11.5 28t27.5 11h707q16 0 27.5 -11t11.5 -28t-11.5 -28t-27.5 -11h-707q-16 0 -27.5 11t-11.5 28z" />
<glyph unicode="&#xae;" horiz-adv-x="1810" d="M82 772q0 221 111 408.5t300.5 296t411.5 108.5q166 0 318.5 -64t263 -172.5t176.5 -259.5t66 -317t-66 -317t-176.5 -259.5t-263 -172.5t-318.5 -64q-222 0 -411.5 108.5t-300.5 296t-111 408.5zM160 772q0 -203 99.5 -372.5t270.5 -266t375 -96.5q122 0 236 36.5 t206 103.5t160.5 157t106 203t37.5 235t-37.5 235t-106 203t-160.5 157t-206 103.5t-236 36.5q-204 0 -375 -96.5t-270.5 -266t-99.5 -372.5zM559 315v893q0 74 72 74h334q358 0 358 -305t-358 -305h-9q-8 0 -2 -6l332 -320q30 -27 12 -57q-9 -15 -26 -18.5t-31 8.5 l-401 389q-6 4 -15 4h-180q-8 0 -8 -6v-351q0 -16 -11 -27.5t-28 -11.5t-28 11.5t-11 27.5zM637 760q0 -10 8 -10h320q132 0 206 51t74 176t-74 176t-206 51h-316q-12 0 -12 -14v-430z" />
<glyph unicode="&#xb0;" horiz-adv-x="1007" d="M154 1253q0 63 25.5 123t70 106t111 74.5t143.5 28.5q154 0 252 -95.5t98 -236.5q0 -145 -98 -245.5t-252 -100.5q-148 0 -249 98.5t-101 247.5zM231 1257q0 -122 77.5 -197t195.5 -75q119 0 195.5 77t76.5 195q0 102 -77.5 176t-194.5 74q-119 0 -196 -75.5t-77 -174.5z " />
<glyph unicode="&#xb1;" horiz-adv-x="1255" d="M154 39q0 -17 11.5 -28t27.5 -11h870q16 0 27.5 11t11.5 28t-11.5 28t-27.5 11h-870q-16 0 -27.5 -11t-11.5 -28zM154 653q0 17 11.5 28t27.5 11h368q31 0 31 35v363q0 14 11 25t26 11q17 0 27 -11t10 -25v-363q0 -35 30 -35h367q16 0 27.5 -11t11.5 -28t-11.5 -28 t-27.5 -11h-367q-30 0 -30 -34v-365q0 -14 -10.5 -25.5t-26.5 -11.5q-15 0 -26 11.5t-11 25.5v367q0 32 -31 32h-368q-16 0 -27.5 11t-11.5 28z" />
<glyph unicode="&#xb2;" horiz-adv-x="886" d="M133 1309q9 121 85.5 198.5t197.5 77.5q135 0 206.5 -65.5t71.5 -171.5q0 -143 -159 -279l-218 -192q-1 -1 -1 -3t1 -2h359q15 0 27 -12t12 -29t-11.5 -27.5t-27.5 -10.5h-457q-18 0 -30.5 11.5t-12.5 26.5q0 21 17 35l262 232q86 75 123.5 131.5t37.5 120.5 q0 46 -18.5 78.5t-49 48.5t-61.5 23t-65 7q-91 0 -143.5 -47t-69.5 -157q-7 -46 -45 -41q-17 1 -25 14t-6 33z" />
<glyph unicode="&#xb3;" horiz-adv-x="749" d="M69.5 976q5.5 15 22.5 19q36 7 49 -24q33 -80 86.5 -120t147.5 -40q67 0 114 19.5t68.5 51t30 59t8.5 56.5q0 61 -54.5 105.5t-172.5 44.5h-101q-17 0 -29 9.5t-12 21.5q0 16 10.5 26t30.5 10h101q92 0 138 36t46 114q0 70 -56 106.5t-145 36.5q-81 0 -124 -31.5 t-78 -103.5q-16 -34 -41 -31q-17 2 -25 14t-4 31q23 82 93 140.5t179 58.5q142 0 211.5 -65.5t69.5 -155.5q0 -74 -35.5 -117t-79.5 -59q-2 0 -2 -2t2 -2q65 -17 111.5 -64t46.5 -119q0 -116 -79.5 -192t-221.5 -76q-120 0 -198.5 61t-106.5 148q-6 19 -0.5 34z" />
<glyph unicode="&#xb4;" horiz-adv-x="802" d="M217 1227q-2 18 8 33l207 303q22 33 53 18q15 -7 18 -23.5t-7 -31.5l-205 -307q-9 -16 -26 -21.5t-32 2.5q-14 9 -16 27z" />
<glyph unicode="&#xb5;" horiz-adv-x="1208" d="M117 -428v860v23v594q0 14 11 25t26 11q16 0 26 -11t10 -25v-611q0 -164 121.5 -282.5t292.5 -118.5t292.5 118.5t121.5 282.5v611q0 14 10 25t27 11q15 0 26 -11t11 -25v-594q0 -147 -66.5 -261.5t-177 -174.5t-244.5 -60q-131 0 -240.5 58t-173.5 163v-608 q0 -15 -10 -26t-26 -11q-15 0 -26 11.5t-11 25.5z" />
<glyph unicode="&#xb6;" horiz-adv-x="1245" d="M10 1153q0 180 124 284.5t308 106.5h744q16 0 27.5 -11t11.5 -28t-12 -29t-27 -12h-76q-18 0 -18 -18v-1931q0 -16 -11 -27.5t-28 -11.5q-16 0 -28.5 13t-12.5 26v1929q0 20 -19 20h-489q-19 0 -19 -18v-1931q0 -16 -11 -27.5t-28 -11.5t-27.5 11.5t-10.5 27.5v1233 q0 8 -9 8q-168 16 -278.5 122t-110.5 275z" />
<glyph unicode="&#xb7;" horiz-adv-x="704" d="M160 776q0 80 56.5 136.5t135.5 56.5q80 0 136.5 -56.5t56.5 -136.5q0 -78 -57 -135t-136 -57t-135.5 57t-56.5 135z" />
<glyph unicode="&#xb8;" horiz-adv-x="692" d="M57 -369q19 19 52 0q78 -45 159 -45q68 0 110 23.5t42 73.5q0 92 -139 92q-24 0 -55 -5.5t-50 -11.5l-18 -6q-13 -6 -21.5 3t-3.5 20l64 170q3 13 -7 16l111 4q-18 -5 -22 -18l-35 -99q-2 -4 2 -4q27 9 57 9q85 0 140 -40t55 -124q0 -55 -23 -93.5t-60.5 -56t-72.5 -24.5 t-72 -7q-55 0 -112.5 18.5t-94.5 47.5q-35 28 -6 57z" />
<glyph unicode="&#xb9;" horiz-adv-x="475" d="M51 1546q0 17 11.5 28t27.5 11h170q76 0 76 -78v-702q0 -16 -11 -27.5t-28 -11.5t-29 12t-12 27v698q0 4 -4 4h-162q-16 0 -27.5 11t-11.5 28z" />
<glyph unicode="&#xba;" d="M63 524q0 123 44 228.5t119 178t177.5 113.5t217.5 41q114 0 216.5 -41t177.5 -113.5t119 -178t44 -228.5q0 -129 -44 -237t-120 -179t-177 -110t-216 -39q-152 0 -279 70.5t-203 201t-76 293.5zM139 524q0 -210 136 -348.5t346 -138.5q213 0 347 128.5t134 358.5 q0 146 -64 257t-173 169t-244 58q-136 0 -245 -58t-173 -169t-64 -257z" />
<glyph unicode="&#xbb;" horiz-adv-x="1181" d="M117 104q-6 17 2 33.5t24 22.5q88 34 154.5 83.5t104.5 106t56.5 115t18.5 119.5t-18.5 119.5t-56.5 115t-104.5 106t-154.5 83.5q-16 6 -24 22t-2 33q5 14 21 20.5t36 -0.5q92 -36 163 -87.5t112 -103.5t67 -111t34.5 -105.5t8.5 -91.5t-8.5 -91.5t-34.5 -105.5 t-67 -111.5t-112 -104t-163 -87.5q-20 -7 -36 -0.5t-21 20.5zM586 102q-6 17 2 33.5t24 22.5q88 34 154.5 83.5t104.5 106t56.5 115t18.5 119.5t-18.5 119.5t-56.5 115t-104.5 106t-154.5 83.5q-16 6 -24 22t-2 33q5 14 21 20.5t36 -0.5q92 -36 163 -87.5t112 -103.5 t67 -111t34.5 -105.5t8.5 -91.5t-8.5 -91.5t-34.5 -105.5t-67 -111.5t-112 -104t-163 -87.5q-20 -7 -36 -0.5t-21 20.5z" />
<glyph unicode="&#xbc;" horiz-adv-x="1658" d="M51 1546q0 -17 11.5 -28t27.5 -11h162q4 0 4 -4v-698q0 -15 12 -27t29 -12t28 11.5t11 27.5v702q0 78 -76 78h-170q-16 0 -27.5 -11t-11.5 -28zM182.5 -11.5q-4.5 15.5 5.5 29.5l1168 1547q10 13 24.5 17.5t28.5 -3.5q13 -7 16 -25t-6 -30l-1169 -1547q-22 -30 -49 -12 q-14 8 -18.5 23.5zM924 201q0 23 18 41l449 532q19 23 43 23q20 0 34.5 -13.5t14.5 -33.5v-521q0 -4 4 -4h88q15 0 27 -12t12 -29t-11.5 -28t-27.5 -11h-88q-4 0 -4 -4v-139q0 -43 -39 -43q-17 0 -28 11.5t-11 27.5v143q0 4 -4 4h-420q-25 0 -41 15.5t-16 40.5zM1032 231 q-3 -6 2 -6h367q4 0 4 4v447q0 6 -4 2z" />
<glyph unicode="&#xbd;" horiz-adv-x="1720" d="M51 1546q0 -17 11.5 -28t27.5 -11h162q4 0 4 -4v-698q0 -15 12 -27t29 -12t28 11.5t11 27.5v702q0 78 -76 78h-170q-16 0 -27.5 -11t-11.5 -28zM152 -11.5q-4 15.5 6 29.5l1167 1547q10 13 24.5 17.5t28.5 -3.5q13 -7 16.5 -25t-5.5 -30l-1170 -1547q-22 -30 -49 -12 q-14 8 -18 23.5zM1004 516q9 121 85.5 199t196.5 78q135 0 207 -66t72 -172q0 -142 -160 -279l-217 -192q-4 -4 0 -4h358q15 0 27 -12t12 -29t-11.5 -28t-27.5 -11h-456q-18 0 -30.5 12t-12.5 27q0 22 16 35l262 231q87 75 124.5 131.5t37.5 120.5q0 37 -13 66t-32.5 45.5 t-46.5 27.5t-52 15t-51 4q-91 0 -143.5 -47.5t-69.5 -157.5q-7 -46 -45 -41q-34 3 -30 47z" />
<glyph unicode="&#xbe;" horiz-adv-x="1789" d="M69.5 976q-5.5 -15 0.5 -34q28 -87 106.5 -148t198.5 -61q142 0 221.5 76t79.5 192q0 72 -46.5 119t-111.5 64q-2 0 -2 2t2 2q44 16 79.5 59t35.5 117q0 90 -69.5 155.5t-211.5 65.5q-109 0 -179 -58.5t-93 -140.5q-4 -19 4 -31t25 -14q25 -3 41 31q35 72 78 103.5 t124 31.5q89 0 145 -36.5t56 -106.5q0 -78 -46 -114t-138 -36h-101q-20 0 -30.5 -10t-10.5 -26q0 -12 12 -21.5t29 -9.5h101q118 0 172.5 -44.5t54.5 -105.5q0 -29 -8.5 -56.5t-30 -59t-68.5 -51t-114 -19.5q-94 0 -147.5 40t-86.5 120q-13 31 -49 24q-17 -4 -22.5 -19z M313.5 -7q-4.5 16 5.5 30l1168 1546q10 13 24.5 17.5t28.5 -3.5q13 -7 16 -25t-6 -30l-1169 -1546q-23 -30 -49 -13q-14 8 -18.5 24zM1055 205q0 23 18 41l449 532q19 23 43 23q20 0 34.5 -13.5t14.5 -33.5v-521q0 -4 4 -4h88q15 0 27 -12t12 -29t-11.5 -27.5t-27.5 -10.5 h-88q-4 0 -4 -5v-139q0 -43 -39 -43q-17 0 -28 11.5t-11 27.5v143q0 5 -4 5h-420q-25 0 -41 15t-16 40zM1163 236q-3 -7 2 -7h367q4 0 4 4v447q0 6 -4 2z" />
<glyph unicode="&#xbf;" horiz-adv-x="1218" d="M100 -104q0 171 114 307t306 219q18 7 23.5 16.5t5.5 26.5v176q0 16 11 27.5t28 11.5t29 -12t12 -27v-184q0 -47 -18 -71.5t-54 -39.5q-172 -73 -267 -180.5t-95 -267.5q0 -86 32.5 -156t88.5 -114t126.5 -67.5t149.5 -23.5q164 0 281 98.5t157 270.5q9 36 47 28 q17 -4 25.5 -18.5t5.5 -30.5q-14 -83 -53 -157.5t-101.5 -135.5t-156 -97t-205.5 -36q-216 0 -354 120.5t-138 316.5zM479 975q0 45 32.5 77.5t76.5 32.5q46 0 78 -32t32 -78q0 -45 -32 -77t-78 -32q-44 0 -76.5 32.5t-32.5 76.5z" />
<glyph unicode="&#xc0;" horiz-adv-x="1499" d="M10 14l666 1518q22 53 74 53q51 0 73 -53l666 -1518q7 -17 0 -32.5t-23 -20.5q-36 -9 -51 25l-215 493q-2 4 -8 4h-885q-6 0 -8 -4l-215 -493q-15 -34 -51 -25q-16 5 -23 20.5t0 32.5zM338 567q-3 -6 4 -6h815q7 0 4 6l-407 930q-7 7 -9 0zM402 2081.5q3 16.5 18 23.5 q31 15 53 -18l207 -303q10 -15 8 -33t-16 -27q-15 -8 -32 -2.5t-26 21.5l-204 307q-11 15 -8 31.5z" />
<glyph unicode="&#xc1;" horiz-adv-x="1499" d="M10 14l666 1518q22 53 74 53q51 0 73 -53l666 -1518q7 -17 0 -32.5t-23 -20.5q-36 -9 -51 25l-215 493q-2 4 -8 4h-885q-6 0 -8 -4l-215 -493q-15 -34 -51 -25q-16 5 -23 20.5t0 32.5zM338 567q-3 -6 4 -6h815q7 0 4 6l-407 930q-7 7 -9 0zM740 1710q-2 18 8 33l206 303 q9 14 24 19.5t30 -1.5t18 -23.5t-8 -31.5l-205 -307q-9 -16 -25.5 -21.5t-31.5 2.5q-14 9 -16 27z" />
<glyph unicode="&#xc2;" horiz-adv-x="1499" d="M10 14l666 1518q22 53 74 53q51 0 73 -53l666 -1518q7 -17 0 -32.5t-23 -20.5q-36 -9 -51 25l-215 493q-2 4 -8 4h-885q-6 0 -8 -4l-215 -493q-15 -34 -51 -25q-16 5 -23 20.5t0 32.5zM338 567q-3 -6 4 -6h815q7 0 4 6l-407 930q-7 7 -9 0zM488 1699q-2 16 10 30l266 299 q17 20 39 20q20 0 37 -20l270 -299q12 -14 10 -30t-16 -24q-24 -14 -51 13l-248 274h-4l-246 -274q-27 -27 -51 -13q-14 8 -16 24z" />
<glyph unicode="&#xc3;" horiz-adv-x="1499" d="M10 14l666 1518q22 53 74 53q51 0 73 -53l666 -1518q7 -17 0 -32.5t-23 -20.5q-36 -9 -51 25l-215 493q-2 4 -8 4h-885q-6 0 -8 -4l-215 -493q-15 -34 -51 -25q-16 5 -23 20.5t0 32.5zM338 567q-3 -6 4 -6h815q7 0 4 6l-407 930q-7 7 -9 0zM348 1876q13 67 49 111 t75 59.5t79 15.5q52 0 105.5 -25.5t91 -56.5t85 -56.5t89.5 -25.5q49 0 81 35.5t46 96.5q4 18 18.5 25.5t30.5 2.5q16 -4 22.5 -19t3.5 -32q-18 -97 -77.5 -141.5t-124.5 -44.5q-49 0 -92.5 17t-75.5 41t-62 48t-66 41t-75 17q-99 0 -129 -132q-9 -37 -47 -26 q-16 4 -23 18.5t-4 30.5z" />
<glyph unicode="&#xc4;" horiz-adv-x="1599" d="M61 14l666 1518q22 53 74 53q51 0 73 -53l666 -1518q7 -17 0 -32.5t-22 -20.5q-37 -9 -52 25l-215 493q-2 4 -8 4h-885q-6 0 -8 -4l-215 -493q-15 -34 -51 -25q-16 5 -23 20.5t0 32.5zM389 567q-3 -6 4 -6h815q7 0 4 6l-407 930q-6 6 -8 0zM528 1876q0 27 20 47.5 t50 20.5t49 -20t19 -46q0 -30 -19 -51t-49 -21q-28 0 -49 21t-21 49zM940 1876q0 27 20 47.5t50 20.5t48.5 -20t18.5 -46q0 -30 -18.5 -51t-48.5 -21q-28 0 -49 21t-21 49z" />
<glyph unicode="&#xc5;" horiz-adv-x="1599" d="M61 14l666 1518q22 53 74 53q51 0 73 -53l666 -1518q7 -17 0 -32.5t-22 -20.5q-37 -9 -52 25l-215 493q-2 4 -8 4h-885q-6 0 -8 -4l-215 -493q-15 -34 -51 -25q-16 5 -23 20.5t0 32.5zM389 567q-3 -6 4 -6h815q7 0 4 6l-407 930q-6 6 -8 0zM616 1901q0 78 51.5 132 t133.5 54q81 0 132.5 -53t51.5 -133q0 -77 -50.5 -131t-133.5 -54q-79 0 -132 53.5t-53 131.5zM694 1901q0 -42 32.5 -74.5t74.5 -32.5q45 0 75.5 32.5t30.5 74.5q0 41 -31 74.5t-75 33.5t-75.5 -33.5t-31.5 -74.5z" />
<glyph unicode="&#xc6;" horiz-adv-x="2273" d="M-9.5 -3.5q0.5 17.5 15.5 34.5l1245 1476q17 21 29.5 29t38.5 8h870q16 0 27.5 -11t11.5 -28t-11.5 -28t-27.5 -11h-860q-14 0 -24 -10l-105 -123q-53 -61 -53 -186q0 -128 96 -219.5t223 -91.5h633q16 0 27.5 -11t11.5 -28t-11.5 -28t-27.5 -11h-641q-93 0 -170 -48.5 t-118.5 -123.5t-41.5 -156q0 -87 34.5 -156.5t92.5 -111t128 -63t147 -21.5h659q16 0 27.5 -11t11.5 -28t-11.5 -28t-27.5 -11h-641q-141 0 -251.5 47.5t-178 146.5t-67.5 236q0 31 2 51l-4 2h-560q-4 0 -8 -4l-422 -499q-12 -16 -27.5 -19t-29.5 8q-12 10 -11.5 27.5z M555 567q-2 -4 2 -6h512q5 0 8 6q30 75 90 135t142 93q6 3 0 6q-104 42 -171 136t-67 210q0 13 2 31q0 4 -4 0z" />
<glyph unicode="&#xc7;" horiz-adv-x="1470" d="M82 770q0 160 61.5 308.5t167.5 260.5t259 179t327 67q119 0 246.5 -26.5t224.5 -90.5q14 -9 18.5 -27t-4.5 -32q-8 -14 -26 -16t-29 6q-100 61 -196.5 84.5t-233.5 23.5q-148 0 -284 -57t-235.5 -154.5t-158.5 -235t-59 -290.5q0 -156 59.5 -293t159.5 -233 t235.5 -151.5t284.5 -55.5q255 0 428 113q12 8 29 5.5t26 -16.5t4.5 -32t-18.5 -27q-166 -107 -422 -119q-10 -7 -10 -14l-33 -94q-3 -5 2 -5q20 5 56 5q85 0 139.5 -40t54.5 -124q0 -45 -16 -78.5t-39.5 -52.5t-56 -31t-59.5 -15.5t-56 -3.5q-55 0 -112.5 18.5t-94.5 47.5 q-35 28 -6 57q18 18 51 0q78 -45 160 -45q68 0 109.5 23.5t41.5 73.5q0 92 -139 92q-24 0 -54.5 -4.5t-48.5 -9.5l-18 -5q-14 -4 -21.5 4t-2.5 19l61 166q3 13 -6 16h-4q-220 13 -394 122t-271 289t-97 398z" />
<glyph unicode="&#xc8;" horiz-adv-x="1267" d="M61 430q0 117 69.5 216.5t188.5 148.5q6 3 0 6q-104 42 -170.5 136t-66.5 210q0 101 37 178t103 124.5t151.5 71t187.5 23.5h639q18 0 28.5 -10.5t10.5 -28.5q0 -17 -11.5 -28t-27.5 -11h-659q-169 0 -276 -82t-107 -237q0 -128 96 -219.5t223 -91.5h633q16 0 27.5 -11 t11.5 -28t-11.5 -28t-27.5 -11h-641q-93 0 -170 -48.5t-118.5 -123.5t-41.5 -156q0 -87 34.5 -156.5t92.5 -111t128 -63t147 -21.5h659q16 0 27.5 -11t11.5 -28t-11.5 -28t-27.5 -11h-641q-141 0 -252 47.5t-178.5 146.5t-67.5 236zM508 2042.5q3 16.5 18 23.5t30 1.5 t24 -19.5l206 -303q10 -15 8 -32.5t-16 -26.5q-15 -9 -31.5 -3t-25.5 21l-205 307q-11 15 -8 31.5z" />
<glyph unicode="&#xc9;" horiz-adv-x="1253" d="M47 430q0 117 69.5 216.5t188.5 148.5q6 3 0 6q-104 42 -170.5 136t-66.5 210q0 101 37 178t103 124.5t151.5 71t187.5 23.5h639q18 0 28.5 -10.5t10.5 -28.5q0 -17 -11.5 -28t-27.5 -11h-660q-169 0 -276 -82t-107 -237q0 -128 96.5 -219.5t223.5 -91.5h633 q16 0 27.5 -11t11.5 -28t-11.5 -28t-27.5 -11h-641q-93 0 -170 -48.5t-118.5 -123.5t-41.5 -156q0 -87 34.5 -156.5t92 -111t127.5 -63t147 -21.5h660q16 0 27.5 -11t11.5 -28t-11.5 -28t-27.5 -11h-641q-141 0 -252 47.5t-178.5 146.5t-67.5 236zM600 1728.5 q-2 17.5 8 32.5l207 303q23 34 53 19q15 -7 18.5 -23.5t-7.5 -31.5l-205 -308q-9 -15 -26 -21t-32 3q-14 9 -16 26.5z" />
<glyph unicode="&#xca;" horiz-adv-x="1267" d="M61 430q0 117 69.5 216.5t188.5 148.5q6 3 0 6q-104 42 -170.5 136t-66.5 210q0 101 37 178t103 124.5t151.5 71t187.5 23.5h639q18 0 28.5 -10.5t10.5 -28.5q0 -17 -11.5 -28t-27.5 -11h-659q-169 0 -276 -82t-107 -237q0 -128 96 -219.5t223 -91.5h633q16 0 27.5 -11 t11.5 -28t-11.5 -28t-27.5 -11h-641q-93 0 -170 -48.5t-118.5 -123.5t-41.5 -156q0 -87 34.5 -156.5t92.5 -111t128 -63t147 -21.5h659q16 0 27.5 -11t11.5 -28t-11.5 -28t-27.5 -11h-641q-141 0 -252 47.5t-178.5 146.5t-67.5 236zM445 1717.5q-2 15.5 10 29.5l266 299 q17 20 39 20q20 0 37 -20l270 -299q12 -14 10 -29.5t-16 -23.5q-25 -14 -51 12l-248 274h-4l-246 -274q-26 -26 -51 -12q-14 8 -16 23.5z" />
<glyph unicode="&#xcb;" horiz-adv-x="1267" d="M61 430q0 117 69.5 216.5t188.5 148.5q6 3 0 6q-104 42 -170.5 136t-66.5 210q0 101 37 178t103 124.5t151.5 71t187.5 23.5h639q18 0 28.5 -10.5t10.5 -28.5q0 -17 -11.5 -28t-27.5 -11h-659q-169 0 -276 -82t-107 -237q0 -128 96 -219.5t223 -91.5h633q16 0 27.5 -11 t11.5 -28t-11.5 -28t-27.5 -11h-641q-93 0 -170 -48.5t-118.5 -123.5t-41.5 -156q0 -87 34.5 -156.5t92.5 -111t128 -63t147 -21.5h659q16 0 27.5 -11t11.5 -28t-11.5 -28t-27.5 -11h-641q-141 0 -252 47.5t-178.5 146.5t-67.5 236zM485 1874q0 27 20 47.5t50 20.5t49 -20 t19 -46q0 -30 -19 -51t-49 -21q-28 0 -49 21t-21 49zM897 1874q0 27 20 47.5t50 20.5q29 0 48 -20t19 -46q0 -30 -18.5 -51t-48.5 -21q-28 0 -49 21t-21 49z" />
<glyph unicode="&#xcc;" horiz-adv-x="342" d="M-84 2040.5q3 16.5 18 23.5t30 1.5t24 -19.5l207 -303q10 -15 7.5 -33t-16.5 -27q-15 -8 -31.5 -2.5t-25.5 21.5l-205 307q-11 15 -8 31.5zM131 -2v1548q0 15 12 27t29 12t28 -11.5t11 -27.5v-1548q0 -16 -11 -27.5t-28 -11.5t-29 12t-12 27z" />
<glyph unicode="&#xcd;" horiz-adv-x="342" d="M131 -2v1548q0 15 12 27t29 12t28 -11.5t11 -27.5v-1548q0 -16 -11 -27.5t-28 -11.5t-29 12t-12 27zM150 1710q-2 18 8 33l207 303q22 33 53 18q15 -7 18 -23.5t-8 -31.5l-205 -307q-9 -16 -25.5 -21.5t-31.5 2.5q-14 9 -16 27z" />
<glyph unicode="&#xce;" horiz-adv-x="342" d="M-143 1696.5q-2 15.5 10 29.5l266 299q18 21 39 21q19 0 37 -21l270 -299q12 -14 10 -29.5t-16 -23.5q-24 -14 -51 13l-248 274h-4l-246 -274q-27 -27 -51 -13q-14 8 -16 23.5zM131 -2v1548q0 15 12 27t29 12t28 -11.5t11 -27.5v-1548q0 -16 -11 -27.5t-28 -11.5t-29 12 t-12 27z" />
<glyph unicode="&#xcf;" horiz-adv-x="346" d="M-100 1876q0 27 19.5 47.5t49.5 20.5t49 -20t19 -46q0 -30 -19 -51t-49 -21q-28 0 -48.5 21t-20.5 49zM135 -2v1548q0 15 12 27t29 12t28 -11.5t11 -27.5v-1548q0 -16 -11 -27.5t-28 -11.5t-29 12t-12 27zM311 1876q0 27 20 47.5t50 20.5t49 -20t19 -46q0 -30 -19 -51 t-49 -21q-28 0 -49 21t-21 49z" />
<glyph unicode="&#xd0;" horiz-adv-x="1538" d="M0 88q7 40 59 25l66 -19q4 0 4 4v621q0 10 -10 10h-80q-16 0 -27.5 11t-11.5 28t11.5 28t27.5 11h80q10 0 10 12v629q0 4 -4 4l-74 -20q-19 -5 -33.5 2t-17.5 24q-5 31 35 47q59 25 224.5 52.5t307.5 27.5q182 0 332.5 -46t252 -124t171.5 -182.5t101.5 -220t31.5 -238.5 q0 -126 -31.5 -242.5t-101.5 -221.5t-171.5 -182.5t-252 -123t-332.5 -45.5q-120 0 -295.5 28t-236.5 54q-40 16 -35 47zM207 84q0 -4 4 -6q116 -34 342 -41q119 -3 232.5 18.5t222.5 76t190 137.5t130.5 213t49.5 292q0 143 -46.5 264.5t-125 206.5t-182.5 145t-220 88.5 t-237 28.5q-220 0 -356 -39q-4 0 -4 -6v-643q0 -12 10 -12h426q16 0 27.5 -11t11.5 -28t-11.5 -28t-27.5 -11h-426q-10 0 -10 -10v-635z" />
<glyph unicode="&#xd1;" horiz-adv-x="1509" d="M131 -2v1526q0 52 43 59q45 8 72 -27l1054 -1488v1478q0 16 11 27.5t28 11.5t28 -11.5t11 -27.5v-1503q0 -35 -22.5 -59.5t-52.5 -24.5q-17 0 -23.5 4.5t-11 18.5t-8.5 20l-1045 1466h-4v-1470q0 -16 -11 -27.5t-28 -11.5t-29 12t-12 27zM385 1808q18 97 78 142t125 45 q52 0 105.5 -25.5t90.5 -56.5t84.5 -56.5t89.5 -25.5q97 0 127 131q4 18 19 26t31 3q16 -4 22.5 -19.5t3.5 -32.5q-13 -67 -49 -111t-75 -59.5t-79 -15.5q-49 0 -92.5 17t-75 41t-61.5 48t-66 41t-75 17q-99 0 -129 -131q-4 -18 -17.5 -25t-29.5 -2q-16 4 -23 18.5t-4 30.5z " />
<glyph unicode="&#xd2;" horiz-adv-x="1810" d="M82 772q0 221 111 408.5t300.5 296t411.5 108.5q166 0 318.5 -64t263 -172.5t176.5 -259.5t66 -317t-66 -317t-176.5 -259.5t-263 -172.5t-318.5 -64q-222 0 -411.5 108.5t-300.5 296t-111 408.5zM160 772q0 -203 99.5 -372.5t270.5 -266t375 -96.5q122 0 236 36.5 t206 103.5t160.5 157t106 203t37.5 235t-37.5 235t-106 203t-160.5 157t-206 103.5t-236 36.5q-204 0 -375 -96.5t-270.5 -266t-99.5 -372.5zM658 2040.5q3 16.5 18 23.5q31 15 53 -18l207 -303q10 -15 8 -33t-16 -27q-15 -8 -32 -2.5t-26 21.5l-204 307q-11 15 -8 31.5z " />
<glyph unicode="&#xd3;" horiz-adv-x="1810" d="M82 772q0 221 111 408.5t300.5 296t411.5 108.5q166 0 318.5 -64t263 -172.5t176.5 -259.5t66 -317t-66 -317t-176.5 -259.5t-263 -172.5t-318.5 -64q-222 0 -411.5 108.5t-300.5 296t-111 408.5zM160 772q0 -203 99.5 -372.5t270.5 -266t375 -96.5q122 0 236 36.5 t206 103.5t160.5 157t106 203t37.5 235t-37.5 235t-106 203t-160.5 157t-206 103.5t-236 36.5q-204 0 -375 -96.5t-270.5 -266t-99.5 -372.5zM877 1710q-2 18 8 33l207 303q22 33 53 18q15 -7 18 -23.5t-8 -31.5l-205 -307q-9 -16 -25.5 -21.5t-31.5 2.5q-14 9 -16 27z" />
<glyph unicode="&#xd4;" horiz-adv-x="1810" d="M82 772q0 221 111 408.5t300.5 296t411.5 108.5q166 0 318.5 -64t263 -172.5t176.5 -259.5t66 -317t-66 -317t-176.5 -259.5t-263 -172.5t-318.5 -64q-222 0 -411.5 108.5t-300.5 296t-111 408.5zM160 772q0 -203 99.5 -372.5t270.5 -266t375 -96.5q122 0 236 36.5 t206 103.5t160.5 157t106 203t37.5 235t-37.5 235t-106 203t-160.5 157t-206 103.5t-236 36.5q-204 0 -375 -96.5t-270.5 -266t-99.5 -372.5zM590 1715.5q-2 15.5 10 29.5l266 299q17 20 39 20q20 0 37 -20l270 -299q12 -14 10 -29.5t-16 -23.5q-25 -14 -51 12l-248 274h-4 l-246 -274q-26 -26 -51 -12q-14 8 -16 23.5z" />
<glyph unicode="&#xd5;" horiz-adv-x="1810" d="M82 772q0 221 111 408.5t300.5 296t411.5 108.5q166 0 318.5 -64t263 -172.5t176.5 -259.5t66 -317t-66 -317t-176.5 -259.5t-263 -172.5t-318.5 -64q-222 0 -411.5 108.5t-300.5 296t-111 408.5zM160 772q0 -203 99.5 -372.5t270.5 -266t375 -96.5q122 0 236 36.5 t206 103.5t160.5 157t106 203t37.5 235t-37.5 235t-106 203t-160.5 157t-206 103.5t-236 36.5q-204 0 -375 -96.5t-270.5 -266t-99.5 -372.5zM508 1876q13 67 49 111t75 59.5t79 15.5q52 0 105.5 -25.5t90.5 -56.5t84.5 -56.5t89.5 -25.5q49 0 81 35.5t46 96.5 q4 18 18.5 25.5t30.5 2.5q16 -4 23 -19.5t4 -31.5q-13 -67 -49 -111t-75 -59.5t-79 -15.5q-49 0 -92.5 17t-75 41t-61.5 48t-66 41t-75 17q-99 0 -129 -132q-9 -37 -47 -26q-16 4 -23 18.5t-4 30.5z" />
<glyph unicode="&#xd6;" horiz-adv-x="1810" d="M82 772q0 221 111 408.5t300.5 296t411.5 108.5q166 0 318.5 -64t263 -172.5t176.5 -259.5t66 -317t-66 -317t-176.5 -259.5t-263 -172.5t-318.5 -64q-222 0 -411.5 108.5t-300.5 296t-111 408.5zM160 772q0 -203 99.5 -372.5t270.5 -266t375 -96.5q122 0 236 36.5 t206 103.5t160.5 157t106 203t37.5 235t-37.5 235t-106 203t-160.5 157t-206 103.5t-236 36.5q-204 0 -375 -96.5t-270.5 -266t-99.5 -372.5zM635 1876q0 27 20 47.5t50 20.5q29 0 48 -20t19 -46q0 -30 -18.5 -51t-48.5 -21q-28 0 -49 21t-21 49zM1047 1876q0 27 19.5 47.5 t49.5 20.5t49 -20t19 -46q0 -30 -19 -51t-49 -21q-28 0 -48.5 21t-20.5 49z" />
<glyph unicode="&#xd7;" horiz-adv-x="1148" d="M156 389q0 17 10 27l338 336q22 22 -4 47l-324 323q-9 9 -9.5 25.5t9.5 28.5q12 10 27 9.5t26 -9.5l324 -326q25 -25 45 -2l326 328q10 10 26.5 10t28.5 -10q12 -12 11.5 -28.5t-11.5 -27.5l-326 -327q-22 -22 4 -48l328 -327q9 -11 9.5 -26t-9.5 -27q-12 -10 -28 -9.5 t-25 9.5l-328 331q-25 22 -45 0l-338 -336q-11 -11 -27 -11.5t-28 11.5q-10 12 -10 29z" />
<glyph unicode="&#xd8;" horiz-adv-x="1814" d="M82 772q0 221 111 408.5t300.5 296t411.5 108.5q295 0 525 -188q1 0 2.5 -1t3.5 -1t4 2l129 129q10 11 27.5 10.5t29.5 -12.5t11.5 -28.5t-11.5 -27.5l-127 -127q-4 -4 0 -8q108 -113 169 -257.5t61 -303.5q0 -166 -66 -317t-176.5 -259.5t-263 -172.5t-318.5 -64 q-158 0 -302.5 56.5t-256.5 158.5q-4 4 -8 0l-154 -154q-11 -11 -27 -11.5t-28 11.5t-12.5 30t10.5 28l154 155q5 5 0 9q-95 107 -147 243.5t-52 286.5zM160 772q0 -272 174 -475q0 -2 3 -2.5t5 0.5l1036 1040q4 4 0 8q-207 164 -473 164q-204 0 -375 -96.5t-270.5 -266 t-99.5 -372.5zM397.5 231.5q-0.5 -3.5 1.5 -4.5q102 -91 231.5 -140.5t274.5 -49.5q122 0 236 36.5t206 103.5t160.5 157t106 203t37.5 235q0 147 -53 277.5t-150 230.5q-4 4 -8 0l-1039 -1042q-3 -3 -3.5 -6.5z" />
<glyph unicode="&#xd9;" horiz-adv-x="1593" d="M123 676v870q0 15 12 27t29 12t28 -11.5t11 -27.5v-870q0 -91 21.5 -180.5t69 -172.5t115.5 -146.5t168.5 -101.5t219.5 -38t219.5 38t168.5 101.5t115.5 146.5t69 172.5t21.5 180.5v870q0 16 11 27.5t28 11.5t28.5 -12t11.5 -27v-870q0 -153 -46 -284t-130.5 -227.5 t-212.5 -151t-284 -54.5q-208 0 -362.5 94.5t-233 256t-78.5 366.5zM543 2040.5q3 16.5 18 23.5q31 15 53 -18l207 -303q10 -15 8 -33t-16 -27q-15 -8 -31.5 -2.5t-25.5 21.5l-205 307q-11 15 -8 31.5z" />
<glyph unicode="&#xda;" horiz-adv-x="1593" d="M123 676v870q0 15 12 27t29 12t28 -11.5t11 -27.5v-870q0 -91 21.5 -180.5t69 -172.5t115.5 -146.5t168.5 -101.5t219.5 -38t219.5 38t168.5 101.5t115.5 146.5t69 172.5t21.5 180.5v870q0 16 11 27.5t28 11.5t28.5 -12t11.5 -27v-870q0 -153 -46 -284t-130.5 -227.5 t-212.5 -151t-284 -54.5q-208 0 -362.5 94.5t-233 256t-78.5 366.5zM764 1710q-2 18 8 33l207 303q22 33 53 18q15 -7 18 -23.5t-8 -31.5l-204 -307q-9 -16 -26 -21.5t-32 2.5q-14 9 -16 27z" />
<glyph unicode="&#xdb;" horiz-adv-x="1593" d="M123 676v870q0 15 12 27t29 12t28 -11.5t11 -27.5v-870q0 -91 21.5 -180.5t69 -172.5t115.5 -146.5t168.5 -101.5t219.5 -38t219.5 38t168.5 101.5t115.5 146.5t69 172.5t21.5 180.5v870q0 16 11 27.5t28 11.5t28.5 -12t11.5 -27v-870q0 -153 -46 -284t-130.5 -227.5 t-212.5 -151t-284 -54.5q-208 0 -362.5 94.5t-233 256t-78.5 366.5zM482 1715.5q-2 15.5 10 29.5l266 299q17 20 39 20q20 0 37 -20l270 -299q12 -14 10 -29.5t-16 -23.5q-25 -14 -51 12l-248 274h-4l-246 -274q-26 -26 -51 -12q-14 8 -16 23.5z" />
<glyph unicode="&#xdc;" horiz-adv-x="1593" d="M123 676v870q0 15 12 27t29 12t28 -11.5t11 -27.5v-870q0 -91 21.5 -180.5t69 -172.5t115.5 -146.5t168.5 -101.5t219.5 -38t219.5 38t168.5 101.5t115.5 146.5t69 172.5t21.5 180.5v870q0 16 11 27.5t28 11.5t28.5 -12t11.5 -27v-870q0 -153 -46 -284t-130.5 -227.5 t-212.5 -151t-284 -54.5q-208 0 -362.5 94.5t-233 256t-78.5 366.5zM524 1876q0 27 20 47.5t50 20.5t49 -20t19 -46q0 -30 -19 -51t-49 -21q-28 0 -49 21t-21 49zM936 1876q0 27 20 47.5t50 20.5t48.5 -20t18.5 -46q0 -30 -18.5 -51t-48.5 -21q-28 0 -49 21t-21 49z" />
<glyph unicode="&#xdd;" horiz-adv-x="1374" d="M-0.5 1552q-2.5 -18 6.5 -30l637 -815q4 -5 4 -13v-696q0 -16 11 -27.5t28 -11.5t28 11.5t11 27.5v696l4 13l639 815q9 12 6.5 30t-14.5 27t-29.5 5t-27.5 -19l-613 -789q-2 -2 -4 0l-614 789q-10 15 -28 19t-30 -5t-14.5 -27zM651.5 1728.5q-2.5 17.5 7.5 32.5l207 303 q23 34 54 19q15 -7 18 -23.5t-8 -31.5l-205 -308q-9 -15 -25.5 -21t-31.5 3q-14 9 -16.5 26.5z" />
<glyph unicode="&#xde;" horiz-adv-x="1302" d="M123 -2v1665q0 14 12 25.5t27 11.5q17 0 28 -11.5t11 -25.5v-541q0 -9 6 0q69 113 191.5 185.5t277.5 72.5q125 0 230 -45.5t174 -122.5t107 -177.5t38 -211.5q0 -114 -37.5 -216t-106 -181t-173.5 -125.5t-232 -46.5q-167 0 -287 73t-184 183q-4 8 -4 0v-512 q0 -14 -11 -25.5t-28 -11.5q-15 0 -27 11.5t-12 25.5zM197 823q0 -97 31.5 -185t90 -156.5t151 -109t206.5 -40.5q134 0 243 67.5t168.5 178.5t59.5 241q0 127 -57 236.5t-166 178.5t-248 69q-140 0 -250.5 -65.5t-169.5 -174.5t-59 -240z" />
<glyph unicode="&#xdf;" horiz-adv-x="1259" d="M78 16q31 65 38 146t7 295v626q0 110 27.5 200t83.5 158.5t148 106t214 37.5q84 0 162.5 -25t145 -73.5t107 -130.5t40.5 -185q0 -125 -54.5 -211t-140.5 -118q-6 -3 0 -6q67 -21 122 -54.5t101.5 -82.5t72.5 -119.5t26 -155.5q0 -199 -118.5 -311.5t-354.5 -112.5h-242 q-16 0 -27.5 11t-11.5 28t11.5 28t27.5 11h239q195 0 296.5 90.5t101.5 255.5q0 160 -112.5 263.5t-282.5 103.5h-224q-16 0 -27.5 10.5t-11.5 27.5t11.5 28t27.5 11h224q47 0 93.5 19.5t86 55.5t64 95.5t24.5 132.5q0 140 -105.5 238t-271.5 98q-100 0 -174.5 -27.5 t-115.5 -68.5t-66 -101t-32 -112t-7 -115v-604v-29q0 -82 -1 -134t-7 -134t-21.5 -135.5t-40.5 -75.5q-11 -9 -26.5 -11t-24.5 5q-18 15 -2 51z" />
<glyph unicode="&#xe0;" horiz-adv-x="1298" d="M63 526q0 -117 38.5 -220t109 -180t180 -122t242.5 -45q163 0 283.5 78t187.5 201q4 8 4 0v-240q0 -16 11 -27.5t28 -11.5t28 11t11 26v530q0 247 -160 403t-401 156q-133 0 -241 -45.5t-177.5 -123t-106.5 -177.5t-37 -213zM141 526q0 133 56.5 241.5t168 174.5 t259.5 66q213 0 348 -136.5t135 -345.5q0 -72 -20 -142t-60 -133t-95.5 -110.5t-133 -75.5t-166.5 -28q-211 0 -351.5 140.5t-140.5 348.5zM373 1520.5q3 16.5 18 23.5q31 15 53 -18l207 -303q10 -15 8 -33t-16 -27q-15 -8 -31.5 -2.5t-25.5 21.5l-205 307q-11 15 -8 31.5z " />
<glyph unicode="&#xe1;" horiz-adv-x="1298" d="M63 526q0 -117 38.5 -220t109 -180t180 -122t242.5 -45q163 0 283.5 78t187.5 201q4 8 4 0v-240q0 -16 11 -27.5t28 -11.5t28 11t11 26v530q0 247 -160 403t-401 156q-133 0 -241 -45.5t-177.5 -123t-106.5 -177.5t-37 -213zM141 526q0 133 56.5 241.5t168 174.5 t259.5 66q213 0 348 -136.5t135 -345.5q0 -72 -20 -142t-60 -133t-95.5 -110.5t-133 -75.5t-166.5 -28q-211 0 -351.5 140.5t-140.5 348.5zM590 1194q-2 18 8 33l207 303q22 33 53 18q15 -7 18 -23.5t-8 -31.5l-204 -307q-9 -16 -26 -21.5t-32 2.5q-14 9 -16 27z" />
<glyph unicode="&#xe2;" horiz-adv-x="1298" d="M63 526q0 -117 38.5 -220t109 -180t180 -122t242.5 -45q163 0 283.5 78t187.5 201q4 8 4 0v-240q0 -16 11 -27.5t28 -11.5t28 11t11 26v530q0 247 -160 403t-401 156q-133 0 -241 -45.5t-177.5 -123t-106.5 -177.5t-37 -213zM141 526q0 133 56.5 241.5t168 174.5 t259.5 66q213 0 348 -136.5t135 -345.5q0 -72 -20 -142t-60 -133t-95.5 -110.5t-133 -75.5t-166.5 -28q-211 0 -351.5 140.5t-140.5 348.5zM309.5 1180.5q-2.5 15.5 9.5 29.5l267 299q18 21 39 21q19 0 37 -21l270 -299q12 -14 10 -29.5t-16 -23.5q-26 -14 -52 12l-247 275 h-4l-246 -275q-26 -26 -51 -12q-14 8 -16.5 23.5z" />
<glyph unicode="&#xe3;" horiz-adv-x="1298" d="M63 526q0 113 37 213t106.5 177.5t177.5 123t241 45.5q241 0 401 -156t160 -403v-530q0 -15 -11 -26t-28 -11t-28 11.5t-11 27.5v240q0 8 -4 0q-67 -123 -187.5 -201t-283.5 -78q-133 0 -242.5 45t-180 122t-109 180t-38.5 220zM141 526q0 -208 140.5 -348.5 t351.5 -140.5q89 0 166.5 28t133 75.5t95.5 110.5t60 133t20 142q0 209 -135 345.5t-348 136.5q-148 0 -259.5 -66t-168 -174.5t-56.5 -241.5zM238 1290q18 97 77.5 142t124.5 45q52 0 105.5 -25.5t91 -56.5t85 -56.5t89.5 -25.5q97 0 127 131q4 18 18.5 26t30.5 3 q16 -4 23 -20t4 -32q-13 -67 -49 -111t-75 -59.5t-79 -15.5q-49 0 -92.5 17t-75.5 41t-62 48t-66 41t-75 17q-99 0 -129 -131q-4 -18 -17.5 -25t-29.5 -2q-16 4 -22.5 18.5t-3.5 30.5z" />
<glyph unicode="&#xe4;" horiz-adv-x="1298" d="M63 526q0 -117 38.5 -220t109 -180t180 -122t242.5 -45q163 0 283.5 78t187.5 201q4 8 4 0v-240q0 -16 11 -27.5t28 -11.5t28 11t11 26v530q0 247 -160 403t-401 156q-133 0 -241 -45.5t-177.5 -123t-106.5 -177.5t-37 -213zM141 526q0 133 56.5 241.5t168 174.5 t259.5 66q213 0 348 -136.5t135 -345.5q0 -72 -20 -142t-60 -133t-95.5 -110.5t-133 -75.5t-166.5 -28q-211 0 -351.5 140.5t-140.5 348.5zM350 1358q0 27 20 47t50 20t48.5 -19.5t18.5 -45.5q0 -30 -18.5 -51t-48.5 -21q-28 0 -49 21t-21 49zM762 1358q0 27 19.5 47 t49.5 20t49 -19.5t19 -45.5q0 -30 -19 -51t-49 -21q-28 0 -48.5 21t-20.5 49z" />
<glyph unicode="&#xe5;" horiz-adv-x="1298" d="M63 526q0 113 37 213t106.5 177.5t177.5 123t241 45.5q241 0 401 -156t160 -403v-530q0 -15 -11 -26t-28 -11t-28 11.5t-11 27.5v240q0 8 -4 0q-67 -123 -187.5 -201t-283.5 -78q-133 0 -242.5 45t-180 122t-109 180t-38.5 220zM141 526q0 -208 140.5 -348.5 t351.5 -140.5q89 0 166.5 28t133 75.5t95.5 110.5t60 133t20 142q0 209 -135 345.5t-348 136.5q-148 0 -259.5 -66t-168 -174.5t-56.5 -241.5zM440 1356q0 78 51.5 132t133.5 54q81 0 132.5 -53t51.5 -133q0 -77 -50.5 -131t-133.5 -54q-79 0 -132 53.5t-53 131.5zM518 1356 q0 -42 32.5 -74.5t74.5 -32.5q45 0 75.5 32.5t30.5 74.5q0 41 -31 74.5t-75 33.5t-75.5 -33.5t-31.5 -74.5z" />
<glyph unicode="&#xe6;" horiz-adv-x="2283" d="M66 526q0 113 37 213t106 177.5t177 123t241 45.5q182 0 321 -92.5t199 -251.5q0 -3 2 -3t2 3q62 156 205.5 250t329.5 94q246 0 401.5 -144t155.5 -368v-30q0 -17 -11 -28t-30 -11h-1010q-4 0 -4 -4v-2q0 -81 37.5 -162t104 -148t169.5 -109t223 -42q126 0 212 32 t190 113q35 27 55 2q9 -10 8.5 -26.5t-12.5 -28.5q-173 -170 -453 -170q-167 0 -312 72t-218 207q-4 8 -4 0v-242q0 -15 -11 -26t-28 -11t-28 11.5t-11 27.5v240q0 8 -4 0q-67 -123 -187.5 -201t-283.5 -78q-177 0 -308 77.5t-196 204.5t-65 285zM143 526 q0 -208 140.5 -348.5t351.5 -140.5q111 0 202.5 41t150 109.5t90.5 156t32 182.5q0 209 -135 345.5t-348 136.5q-148 0 -259.5 -66t-168 -174.5t-56.5 -241.5zM1188 580q0 -7 6 -7h960q11 0 11 11q0 84 -32 160t-91.5 135t-152.5 94t-206 35q-105 0 -197 -37t-154.5 -97.5 t-100.5 -137t-43 -156.5z" />
<glyph unicode="&#xe7;" horiz-adv-x="1056" d="M63 514q0 166 78 297t212 202.5t298 71.5q209 0 346 -100q12 -9 16 -25t-3 -30q-8 -14 -25 -16t-27 6q-73 52 -144 71t-163 17q-148 -3 -265 -69t-181 -178.5t-64 -250.5q0 -204 141 -338.5t355 -134.5q97 0 172 25t149 77q10 8 27 6t25 -16q7 -14 3 -30t-16 -25 q-133 -98 -301 -113q-12 -6 -12 -14l-35 -99q-2 -4 2 -4q27 9 58 9q85 0 139.5 -40t54.5 -124q0 -45 -16 -78.5t-39.5 -52.5t-56 -31t-59.5 -15.5t-56 -3.5q-55 0 -112.5 18.5t-94.5 47.5q-35 28 -6 57q18 18 51 0q78 -45 160 -45q68 0 109.5 23.5t41.5 73.5q0 92 -139 92 q-24 0 -55 -5.5t-49 -11.5l-19 -6q-13 -6 -21 3t-3 20l63 170q3 12 -4 16q-110 6 -208 49.5t-170.5 115t-114.5 172.5t-42 216z" />
<glyph unicode="&#xe8;" horiz-adv-x="1236" d="M63 528q0 -162 85 -293.5t225 -203.5t303 -72q279 0 452 170q12 12 13 28.5t-8 26.5q-20 25 -56 -2q-98 -83 -184.5 -114t-216.5 -31q-119 0 -221 42t-168 109t-104 147.5t-42 162.5q0 6 4 6h1010q19 0 30 11t11 28v30q0 224 -155.5 368t-401.5 144q-248 0 -412 -157.5 t-164 -399.5zM141 580q5 80 43 156.5t101 137t155 97.5t197 37q113 0 205.5 -34.5t152 -94t91.5 -135.5t32 -160q0 -11 -10 -11h-961q-6 0 -6 7zM406 1522.5q3 16.5 18 23.5q31 15 53 -18l207 -303q10 -15 8 -33t-16 -27q-15 -8 -32 -2.5t-26 21.5l-204 307q-11 15 -8 31.5z " />
<glyph unicode="&#xe9;" horiz-adv-x="1236" d="M63 528q0 -162 85 -293.5t225 -203.5t303 -72q279 0 452 170q12 12 13 28.5t-8 26.5q-20 25 -56 -2q-98 -83 -184.5 -114t-216.5 -31q-119 0 -221 42t-168 109t-104 147.5t-42 162.5q0 6 4 6h1010q19 0 30 11t11 28v30q0 224 -155.5 368t-401.5 144q-248 0 -412 -157.5 t-164 -399.5zM141 580q5 80 43 156.5t101 137t155 97.5t197 37q113 0 205.5 -34.5t152 -94t91.5 -135.5t32 -160q0 -11 -10 -11h-961q-6 0 -6 7zM623 1192q-2 18 8 33l207 303q22 33 53 18q15 -7 18 -23.5t-8 -31.5l-205 -307q-9 -16 -25.5 -21.5t-31.5 2.5q-14 9 -16 27z " />
<glyph unicode="&#xea;" horiz-adv-x="1236" d="M63 528q0 -162 85 -293.5t225 -203.5t303 -72q279 0 452 170q12 12 13 28.5t-8 26.5q-20 25 -56 -2q-98 -83 -184.5 -114t-216.5 -31q-119 0 -221 42t-168 109t-104 147.5t-42 162.5q0 6 4 6h1010q19 0 30 11t11 28v30q0 224 -155.5 368t-401.5 144q-248 0 -412 -157.5 t-164 -399.5zM141 580q5 80 43 156.5t101 137t155 97.5t197 37q113 0 205.5 -34.5t152 -94t91.5 -135.5t32 -160q0 -11 -10 -11h-961q-6 0 -6 7zM342 1197.5q-2 15.5 10 29.5l266 299q17 20 39 20q20 0 37 -20l271 -299q12 -14 9.5 -29.5t-16.5 -23.5q-25 -14 -51 12 l-248 274h-4l-245 -274q-26 -26 -52 -12q-14 8 -16 23.5z" />
<glyph unicode="&#xeb;" horiz-adv-x="1236" d="M63 528q0 -162 85 -293.5t225 -203.5t303 -72q279 0 452 170q12 12 13 28.5t-8 26.5q-20 25 -56 -2q-98 -83 -184.5 -114t-216.5 -31q-119 0 -221 42t-168 109t-104 147.5t-42 162.5q0 6 4 6h1010q19 0 30 11t11 28v30q0 224 -155.5 368t-401.5 144q-248 0 -412 -157.5 t-164 -399.5zM141 580q5 80 43 156.5t101 137t155 97.5t197 37q113 0 205.5 -34.5t152 -94t91.5 -135.5t32 -160q0 -11 -10 -11h-961q-6 0 -6 7zM383 1358q0 27 20 47t50 20t48.5 -19.5t18.5 -45.5q0 -30 -18.5 -51t-48.5 -21q-28 0 -49 21t-21 49zM795 1358q0 27 19.5 47 t49.5 20t49 -19.5t19 -45.5q0 -30 -19 -51t-49 -21q-28 0 -48.5 21t-20.5 49z" />
<glyph unicode="&#xec;" horiz-adv-x="319" d="M-90 1522.5q3 16.5 18 23.5t30 1.5t24 -19.5l206 -303q10 -15 8 -33t-16 -27q-15 -8 -31.5 -2.5t-25.5 21.5l-205 307q-11 15 -8 31.5zM123 -4v1053q0 14 11 25t26 11q16 0 26.5 -11t10.5 -25v-1053q0 -14 -11 -25.5t-26 -11.5t-26 11.5t-11 25.5z" />
<glyph unicode="&#xed;" horiz-adv-x="321" d="M125 -4v1053q0 14 11 25t26 11q16 0 26.5 -11t10.5 -25v-1053q0 -14 -11 -25.5t-26 -11.5t-26 11.5t-11 25.5zM125 1192q-2 18 8 33l207 303q22 33 53 18q15 -7 18 -23.5t-8 -31.5l-204 -307q-9 -16 -26 -21.5t-32 2.5q-14 9 -16 27z" />
<glyph unicode="&#xee;" horiz-adv-x="319" d="M-155 1197.5q-2 15.5 10 29.5l266 299q17 20 39 20q20 0 37 -20l270 -299q12 -14 10 -29.5t-16 -23.5q-25 -14 -51 12l-248 274h-4l-246 -274q-26 -26 -51 -12q-14 8 -16 23.5zM123 -4v1053q0 14 11 25t26 11q16 0 26.5 -11t10.5 -25v-1053q0 -14 -11 -25.5t-26 -11.5 t-26 11.5t-11 25.5z" />
<glyph unicode="&#xef;" horiz-adv-x="319" d="M-115 1358q0 27 20 47t50 20t49 -19.5t19 -45.5q0 -30 -19 -51t-49 -21q-28 0 -49 21t-21 49zM123 -4v1053q0 14 11 25t26 11q16 0 26.5 -11t10.5 -25v-1053q0 -14 -11 -25.5t-26 -11.5t-26 11.5t-11 25.5zM297 1358q0 27 20 47t50 20t48.5 -19.5t18.5 -45.5 q0 -30 -18.5 -51t-48.5 -21q-28 0 -49 21t-21 49z" />
<glyph unicode="&#xf0;" horiz-adv-x="1277" d="M47 485q0 97 33.5 185.5t96 159.5t162.5 113t224 42q193 0 348 -111q4 -3 5 0.5t-1 6.5q-155 270 -378 454q-5 3 -9 0l-264 -147q-10 -7 -28 -2.5t-25 18.5q-6 13 -2 27t16 20l244 135v5q-43 33 -107 76t-77 53q-12 9 -11.5 26.5t11.5 28.5q11 10 28 8.5t33 -12.5 q8 -5 37.5 -24t42 -27.5t36 -25t42 -32t37.5 -32.5q3 -3 6 0l256 145q10 7 26.5 4t22.5 -14q8 -18 4 -32.5t-16 -21.5l-236 -133q-2 -2 0 -4q222 -195 361 -424t139 -454q0 -147 -68.5 -270t-192 -195t-274.5 -72q-74 0 -147.5 21.5t-141 65.5t-119.5 105.5t-83 148 t-31 185.5zM125 485q0 -191 127 -319.5t317 -128.5q91 0 175 36.5t145.5 97.5t98 146.5t36.5 178.5q0 120 -63.5 215t-168.5 145.5t-229 50.5q-191 0 -314.5 -119t-123.5 -303z" />
<glyph unicode="&#xf1;" horiz-adv-x="1247" d="M123 -4v1053q0 14 12 25t27 11t27 -11t12 -25v-207q0 -3 2.5 -3t3.5 3q184 243 467 243q202 0 331.5 -122t129.5 -320v-647q0 -14 -12 -25.5t-27 -11.5q-17 0 -28 11.5t-11 25.5v645q0 68 -24.5 132.5t-70.5 117.5t-121 85t-167 32q-95 0 -185.5 -35t-151.5 -86.5 t-98.5 -110t-37.5 -106.5v-674q0 -14 -12 -25.5t-27 -11.5t-27 11.5t-12 25.5zM242 1288q18 97 77.5 142t124.5 45q52 0 105.5 -25.5t91 -56.5t85 -56.5t89.5 -25.5q97 0 127 131q4 18 18.5 25.5t30.5 2.5q16 -4 23 -19.5t4 -31.5q-13 -67 -49 -111t-75 -59.5t-79 -15.5 q-49 0 -92.5 17t-75.5 41t-62 48t-66 41t-75 17q-99 0 -129 -131q-4 -18 -17.5 -25t-29.5 -2q-16 4 -22.5 18.5t-3.5 30.5z" />
<glyph unicode="&#xf2;" d="M63 524q0 123 44 228.5t119 178t177.5 113.5t217.5 41q114 0 216.5 -41t177.5 -113.5t119 -178t44 -228.5q0 -129 -44 -237t-120 -179t-177 -110t-216 -39q-152 0 -279 70.5t-203 201t-76 293.5zM139 524q0 -210 136 -348.5t346 -138.5q213 0 347 128.5t134 358.5 q0 146 -64 257t-173 169t-244 58q-136 0 -245 -58t-173 -169t-64 -257zM367 1524.5q3 16.5 18 23.5q31 15 53 -18l207 -303q10 -15 8 -33t-16 -27q-15 -8 -31.5 -2.5t-25.5 21.5l-205 307q-11 15 -8 31.5z" />
<glyph unicode="&#xf3;" d="M63 524q0 123 44 228.5t119 178t177.5 113.5t217.5 41q114 0 216.5 -41t177.5 -113.5t119 -178t44 -228.5q0 -129 -44 -237t-120 -179t-177 -110t-216 -39q-152 0 -279 70.5t-203 201t-76 293.5zM139 524q0 -210 136 -348.5t346 -138.5q213 0 347 128.5t134 358.5 q0 146 -64 257t-173 169t-244 58q-136 0 -245 -58t-173 -169t-64 -257zM586 1192q-2 18 8 33l207 303q22 33 53 18q15 -7 18 -23.5t-8 -31.5l-205 -307q-9 -16 -25.5 -21.5t-31.5 2.5q-14 9 -16 27z" />
<glyph unicode="&#xf4;" d="M63 524q0 123 44 228.5t119 178t177.5 113.5t217.5 41q114 0 216.5 -41t177.5 -113.5t119 -178t44 -228.5q0 -129 -44 -237t-120 -179t-177 -110t-216 -39q-152 0 -279 70.5t-203 201t-76 293.5zM139 524q0 -210 136 -348.5t346 -138.5q213 0 347 128.5t134 358.5 q0 146 -64 257t-173 169t-244 58q-136 0 -245 -58t-173 -169t-64 -257zM305.5 1197.5q-2.5 15.5 9.5 29.5l267 299q17 20 39 20q19 0 36 -20l271 -299q12 -14 10 -29.5t-16 -23.5q-26 -14 -52 12l-247 274h-5l-245 -274q-26 -26 -51 -12q-14 8 -16.5 23.5z" />
<glyph unicode="&#xf5;" d="M63 524q0 123 44 228.5t119 178t177.5 113.5t217.5 41q114 0 216.5 -41t177.5 -113.5t119 -178t44 -228.5q0 -129 -44 -237t-120 -179t-177 -110t-216 -39q-152 0 -279 70.5t-203 201t-76 293.5zM139 524q0 -210 136 -348.5t346 -138.5q213 0 347 128.5t134 358.5 q0 146 -64 257t-173 169t-244 58q-136 0 -245 -58t-173 -169t-64 -257zM233 1288q18 97 78 142t125 45q52 0 105.5 -25.5t91 -56.5t85 -56.5t89.5 -25.5q97 0 127 131q4 18 18.5 25.5t30.5 2.5q16 -4 23 -19.5t4 -31.5q-13 -67 -49 -111t-75 -59.5t-79 -15.5q-49 0 -92.5 17 t-75.5 41t-62 48t-66 41t-75 17q-99 0 -129 -131q-4 -18 -17.5 -25t-29.5 -2q-16 4 -23 18.5t-4 30.5z" />
<glyph unicode="&#xf6;" d="M63 524q0 123 44 228.5t119 178t177.5 113.5t217.5 41q114 0 216.5 -41t177.5 -113.5t119 -178t44 -228.5q0 -129 -44 -237t-120 -179t-177 -110t-216 -39q-152 0 -279 70.5t-203 201t-76 293.5zM139 524q0 -210 136 -348.5t346 -138.5q213 0 347 128.5t134 358.5 q0 146 -64 257t-173 169t-244 58q-136 0 -245 -58t-173 -169t-64 -257zM346 1356q0 27 20 47t50 20t48.5 -19.5t18.5 -45.5q0 -30 -18.5 -51t-48.5 -21q-28 0 -49 21t-21 49zM758 1356q0 27 19.5 47t49.5 20t49 -19.5t19 -45.5q0 -30 -19 -51t-49 -21q-28 0 -48.5 21 t-20.5 49z" />
<glyph unicode="&#xf7;" horiz-adv-x="1415" d="M154 768q0 -17 12 -29t27 -12h1030q15 0 27 12t12 29t-11.5 28t-27.5 11h-1030q-16 0 -27.5 -11t-11.5 -28zM596 362q0 44 32.5 76.5t78.5 32.5q44 0 76 -32.5t32 -76.5q0 -46 -32 -78t-76 -32q-46 0 -78.5 32t-32.5 78zM596 1161q0 44 32.5 76.5t78.5 32.5 q44 0 76 -32.5t32 -76.5q0 -46 -32 -78t-76 -32q-46 0 -78.5 32t-32.5 78z" />
<glyph unicode="&#xf8;" horiz-adv-x="1284" d="M66.5 0.5q0.5 17.5 11.5 28.5l125 123q4 4 0 8q-123 151 -123 364q0 123 43.5 228.5t118.5 178t177.5 113.5t217.5 41q214 0 373 -137q6 -6 12 0l129 127q10 11 26.5 10.5t28.5 -12.5q11 -13 10 -28.5t-12 -26.5l-129 -125q-6 -6 0 -12q119 -151 119 -357 q0 -129 -44 -237t-120 -179t-177 -110t-216 -39q-217 0 -371 135q-4 4 -8 0l-127 -123q-11 -11 -26 -11.5t-27 11.5t-11.5 29.5zM156 524q0 -210 135.5 -348.5t345.5 -138.5q213 0 347 128.5t134 358.5q0 146 -64 257t-173 169t-244 58q-136 0 -245 -58t-172.5 -169 t-63.5 -257z" />
<glyph unicode="&#xf9;" horiz-adv-x="1208" d="M115 455v594q0 14 12 25t27 11q17 0 28 -11t11 -25v-611q0 -164 120 -282.5t291 -118.5t291.5 118.5t120.5 282.5v611q0 14 11 25t28 11q15 0 27 -11t12 -25v-594q0 -221 -142.5 -358.5t-347.5 -137.5q-134 0 -244.5 60t-177.5 174.5t-67 261.5zM353 1522q3 16 18 24 q31 15 53 -18l207 -303q10 -15 8 -33t-16 -27q-15 -8 -32 -2.5t-26 21.5l-205 307q-10 15 -7 31z" />
<glyph unicode="&#xfa;" horiz-adv-x="1208" d="M115 455v594q0 14 12 25t27 11q17 0 28 -11t11 -25v-611q0 -164 120 -282.5t291 -118.5t291.5 118.5t120.5 282.5v611q0 14 11 25t28 11q15 0 27 -11t12 -25v-594q0 -221 -142.5 -358.5t-347.5 -137.5q-134 0 -244.5 60t-177.5 174.5t-67 261.5zM586 1192q-2 18 8 33 l207 303q22 33 53 18q15 -7 18 -23.5t-8 -31.5l-205 -307q-9 -16 -25.5 -21.5t-31.5 2.5q-14 9 -16 27z" />
<glyph unicode="&#xfb;" horiz-adv-x="1208" d="M115 455v594q0 14 12 25t27 11q17 0 28 -11t11 -25v-611q0 -164 120 -282.5t291 -118.5t291.5 118.5t120.5 282.5v611q0 14 11 25t28 11q15 0 27 -11t12 -25v-594q0 -221 -142.5 -358.5t-347.5 -137.5q-134 0 -244.5 60t-177.5 174.5t-67 261.5zM289 1197.5 q-2 15.5 10 29.5l266 299q17 20 39 20q20 0 37 -20l270 -299q12 -14 10 -29.5t-16 -23.5q-25 -14 -51 12l-248 274h-4l-246 -274q-26 -26 -51 -12q-14 8 -16 23.5z" />
<glyph unicode="&#xfc;" horiz-adv-x="1208" d="M115 455v594q0 14 12 25t27 11q17 0 28 -11t11 -25v-611q0 -164 120 -282.5t291 -118.5t291.5 118.5t120.5 282.5v611q0 14 11 25t28 11q15 0 27 -11t12 -25v-594q0 -221 -142.5 -358.5t-347.5 -137.5q-134 0 -244.5 60t-177.5 174.5t-67 261.5zM330 1358q0 27 19.5 47 t49.5 20t49 -19.5t19 -45.5q0 -30 -19 -51t-49 -21q-28 0 -48.5 21t-20.5 49zM741 1358q0 27 20 47t50 20t49 -19.5t19 -45.5q0 -30 -19 -51t-49 -21q-28 0 -49 21t-21 49z" />
<glyph unicode="&#xfd;" horiz-adv-x="1153" d="M-6.5 1061q5.5 18 22.5 22q32 8 50 -24l483 -932q3 -6 6 0l532 936q8 14 23 19.5t33 -1.5q14 -6 17 -21t-7 -34l-881 -1540q-9 -16 -23 -24t-30 -1q-14 6 -18 21.5t6 34.5l299 524q2 4 0 8l-510 981q-8 13 -2.5 31zM557 1210.5q-2 17.5 8 32.5l207 303q23 34 53 19 q15 -7 18.5 -24t-7.5 -32l-205 -307q-9 -15 -26 -21t-32 3q-14 9 -16 26.5z" />
<glyph unicode="&#xfe;" horiz-adv-x="1302" d="M123 -487v2150q0 14 12 25.5t27 11.5q17 0 28 -11.5t11 -25.5v-836q0 -9 6 0q69 113 191.5 185.5t277.5 72.5q125 0 230 -45.5t174 -122.5t107 -177.5t38 -211.5q0 -114 -37.5 -216t-106 -181t-173.5 -125.5t-232 -46.5q-167 0 -287 73t-184 183q-4 8 -4 0v-702 q0 -14 -11 -25.5t-28 -11.5q-15 0 -27 11.5t-12 25.5zM197 528q0 -97 31.5 -185t90 -156.5t151 -109t206.5 -40.5q134 0 243 67.5t168.5 178.5t59.5 241q0 127 -57 236.5t-166 178.5t-248 69q-140 0 -250.5 -65.5t-169.5 -174.5t-59 -240z" />
<glyph unicode="&#xff;" horiz-adv-x="1153" d="M-6.5 1061q5.5 18 22.5 22q32 8 50 -24l483 -932q3 -6 6 0l532 936q8 14 23 19.5t33 -1.5q14 -6 17 -21t-7 -34l-881 -1540q-9 -16 -23 -24t-30 -1q-14 6 -18 21.5t6 34.5l299 524q2 4 0 8l-510 981q-8 13 -2.5 31zM279 1354q0 27 19.5 47t49.5 20t49 -19.5t19 -45.5 q0 -30 -19 -51t-49 -21q-28 0 -48.5 21t-20.5 49zM690 1354q0 27 20 47t50 20t48.5 -19.5t18.5 -45.5q0 -30 -18.5 -51t-48.5 -21q-28 0 -49 21t-21 49z" />
<glyph unicode="&#x131;" horiz-adv-x="319" d="M123 -4v1053q0 14 11 25t26 11q16 0 26.5 -11t10.5 -25v-1053q0 -14 -11 -25.5t-26 -11.5t-26 11.5t-11 25.5z" />
<glyph unicode="&#x152;" horiz-adv-x="2617" d="M82 772q0 221 111 408.5t300.5 296t411.5 108.5q210 0 391 -98.5t293 -267.5q17 109 85 183.5t166.5 108t223.5 33.5h639q16 0 27.5 -11t11.5 -28t-11.5 -28t-27.5 -11h-659q-169 0 -276 -82t-107 -237q0 -128 96 -219.5t223 -91.5h633q16 0 27.5 -11t11.5 -28t-11.5 -28 t-27.5 -11h-641q-93 0 -170 -48.5t-118.5 -123.5t-41.5 -156q0 -87 34.5 -156.5t92.5 -111t128 -63t147 -21.5h659q16 0 27.5 -11t11.5 -28t-11.5 -28t-27.5 -11h-641q-181 0 -312 79.5t-171 227.5q-114 -161 -292 -254.5t-382 -93.5q-222 0 -411.5 108.5t-300.5 296 t-111 408.5zM160 772q0 -203 99.5 -372.5t270.5 -266t375 -96.5q212 0 388.5 105.5t271.5 281.5v6q0 117 69.5 216.5t188.5 148.5q6 3 0 6q-78 31 -136.5 92.5t-84.5 142.5q-83 210 -272.5 340.5t-424.5 130.5q-204 0 -375 -96.5t-270.5 -266t-99.5 -372.5z" />
<glyph unicode="&#x153;" horiz-adv-x="2275" d="M63 524q0 123 44 228.5t119 178t177.5 113.5t217.5 41q177 0 316.5 -94.5t199.5 -255.5h2q62 159 206.5 254.5t331.5 95.5q246 0 401.5 -144t155.5 -368v-30q0 -17 -11 -28t-30 -11h-1009q-4 0 -4 -6q4 -82 42 -162.5t103.5 -147.5t167.5 -109t221 -42q126 0 212 32 t190 113q35 27 55 2q9 -10 8.5 -26.5t-12.5 -28.5q-173 -170 -453 -170q-190 0 -345 96t-222 258h-2q-59 -166 -201 -260t-323 -94q-152 0 -279 70.5t-203 201t-76 293.5zM139 524q0 -210 136 -348.5t346 -138.5q213 0 347 128.5t134 358.5q0 146 -64 257t-173 169t-244 58 q-136 0 -245 -58t-173 -169t-64 -257zM1180 580q0 -7 6 -7h960q11 0 11 11q0 84 -32 160t-91.5 135t-152.5 94t-206 35q-105 0 -197 -37t-154.5 -97.5t-100.5 -137t-43 -156.5z" />
<glyph unicode="&#x160;" horiz-adv-x="1257" d="M42 243.5q-1 17.5 11 26.5q6 10 25 10t35 -16q62 -65 142.5 -112.5t156.5 -70.5t136.5 -33.5t106.5 -10.5q103 0 186.5 23.5t137 61t89 88t50.5 102.5t15 106q0 74 -22 130.5t-62.5 96t-108.5 68.5t-148.5 47.5t-193.5 34.5q-102 14 -186 42t-155 74t-111 117.5 t-40 163.5q0 78 35 148t102.5 125t176 87.5t244.5 32.5q139 0 263 -43.5t208 -128.5q15 -15 18 -32t-6 -27q-10 -13 -28 -14.5t-36 14.5q-153 153 -426 153q-219 0 -346 -87t-127 -228q0 -130 121 -215t328 -109q301 -34 439 -140.5t138 -307.5q0 -205 -153.5 -333 t-401.5 -128q-169 0 -341 72.5t-257 175.5q-14 19 -15 36.5zM408 2006q2 16 16 24q24 14 51 -13l246 -274q2 -4 4 0l248 274q27 27 51 13q14 -8 16 -24t-10 -30l-270 -299q-17 -20 -37 -20q-22 0 -39 20l-266 299q-12 14 -10 30z" />
<glyph unicode="&#x161;" horiz-adv-x="960" d="M68 207q12 12 29 13t30 -15q64 -80 167 -124t234 -44q156 0 234 71.5t78 174.5q0 44 -14 79.5t-42 60t-61.5 42.5t-82 30.5t-92.5 20t-104 14.5q-376 43 -376 279q0 118 112.5 197t292.5 79q119 0 225.5 -35.5t169.5 -105.5q11 -11 12.5 -26.5t-8.5 -26.5 q-12 -12 -29 -11.5t-30 13.5q-115 115 -340 115q-150 0 -239 -54.5t-89 -144.5q0 -163 330 -201q53 -6 95 -13.5t89.5 -20.5t83.5 -29t70.5 -40.5t56.5 -55t35 -72.5t13 -92q0 -145 -110.5 -235.5t-287.5 -90.5q-138 0 -256.5 47.5t-193.5 143.5q-23 30 -2 57zM236 1561.5 q2 15.5 16 23.5q25 14 51 -12l246 -275q2 -4 4 0l248 275q26 26 51 12q14 -8 16 -23.5t-10 -29.5l-270 -299q-18 -21 -37 -21q-21 0 -39 21l-266 299q-12 14 -10 29.5z" />
<glyph unicode="&#x178;" horiz-adv-x="1374" d="M-0.5 1552q-2.5 -18 6.5 -30l637 -815q4 -5 4 -13v-696q0 -16 11 -27.5t28 -11.5t28 11.5t11 27.5v696l4 13l639 815q9 12 6.5 30t-14.5 27t-29.5 5t-27.5 -19l-613 -789q-2 -2 -4 0l-614 789q-10 15 -28 19t-30 -5t-14.5 -27zM414 1878q0 27 19.5 47.5t49.5 20.5t49 -20 t19 -46q0 -30 -19 -51t-49 -21q-28 0 -48.5 21t-20.5 49zM825 1878q0 27 20 47.5t50 20.5t49 -20t19 -46q0 -30 -19 -51t-49 -21q-28 0 -49 21t-21 49z" />
<glyph unicode="&#x17d;" horiz-adv-x="1312" d="M33 41q0 19 16 43l1112 1374q4 8 -4 8h-1071q-16 0 -27.5 11t-11.5 28t11.5 28t27.5 11h1137q22 0 36.5 -14.5t14.5 -34.5q0 -16 -8 -27l-1123 -1382q-3 -3 -2 -5.5t6 -2.5h1100q16 0 27.5 -11t11.5 -28t-11.5 -28t-27.5 -11h-1169q-18 0 -31.5 11t-13.5 30zM344 2032.5 q2 15.5 16 23.5q26 14 52 -12l245 -275q3 -4 5 0l247 275q26 26 52 12q14 -8 16 -23.5t-10 -29.5l-271 -299q-18 -21 -37 -21q-20 0 -38 21l-267 299q-12 14 -10 29.5z" />
<glyph unicode="&#x17e;" horiz-adv-x="1136" d="M63 41q0 -17 12 -29t29 -12h900q15 0 26.5 11t11.5 28t-11.5 28t-26.5 11h-807q-8 0 -4 6l837 899q10 13 10 27q0 17 -12 29t-29 12h-878q-16 0 -27.5 -11t-11.5 -28t11.5 -28t27.5 -11h786q8 0 4 -6l-837 -901q-11 -11 -11 -25zM238 1512.5q2 15.5 16 23.5q25 14 51 -12 l246 -275q2 -4 4 0l248 275q26 26 51 12q14 -8 16 -23.5t-10 -29.5l-270 -299q-18 -21 -37 -21q-21 0 -39 21l-266 299q-12 14 -10 29.5z" />
<glyph unicode="&#x192;" horiz-adv-x="956" d="M26.5 -430.5q-0.5 17.5 10.5 31.5q12 11 28.5 11.5t30.5 -11.5q48 -45 133 -45q96 0 142.5 54t46.5 150v1170q0 17 -12 30t-29 13h-178q-16 0 -27.5 11t-11.5 28t11.5 28t27.5 11h178q17 0 29 13t12 30v282q0 152 79 238t205 86q139 0 218 -98q10 -11 10.5 -30t-12.5 -32 q-11 -12 -31 -11t-33 19q-24 31 -63 52.5t-89 21.5q-99 0 -152.5 -62t-53.5 -176v-290q0 -17 12 -30t29 -13h229q16 0 27.5 -11t11.5 -28t-11.5 -28t-27.5 -11h-229q-17 0 -29 -13t-12 -30v-1161q0 -143 -70.5 -217t-196.5 -74q-127 0 -192 63q-10 11 -10.5 28.5z" />
<glyph unicode="&#x2c6;" horiz-adv-x="1705" d="M330 1201.5q-2 15.5 10 29.5l266 299q17 20 39 20q20 0 37 -20l270 -299q12 -14 10 -29.5t-16 -23.5q-25 -14 -51 12l-248 274h-4l-246 -274q-26 -26 -51 -12q-14 8 -16 23.5z" />
<glyph unicode="&#x2c7;" horiz-adv-x="1183" d="M330 1516.5q2 15.5 16 23.5q25 14 51 -12l246 -275q2 -4 4 0l248 275q26 26 51 12q14 -8 16 -23.5t-10 -29.5l-270 -299q-18 -21 -37 -21q-21 0 -39 21l-266 299q-12 14 -10 29.5z" />
<glyph unicode="&#x2d8;" horiz-adv-x="1159" d="M246 1442q0 15 12 27t29 12t28 -11.5t11 -27.5q0 -92 65.5 -160t190.5 -68t190.5 68t65.5 160q0 16 11 27.5t28 11.5t29 -12t12 -27q0 -127 -91.5 -218t-244.5 -91t-244.5 91t-91.5 218z" />
<glyph unicode="&#x2d9;" horiz-adv-x="1705" d="M223 1346q0 33 25 58.5t61 25.5t60 -25t24 -57q0 -36 -24 -62t-60 -26q-34 0 -60 26t-26 60z" />
<glyph unicode="&#x2da;" horiz-adv-x="929" d="M281 1339q0 78 51.5 132.5t132.5 54.5t132.5 -53.5t51.5 -133.5q0 -77 -50.5 -130.5t-133.5 -53.5q-79 0 -131.5 53t-52.5 131zM358 1339q0 -41 32 -73.5t75 -32.5q45 0 75.5 32t30.5 74q0 41 -31 75t-75 34t-75.5 -34t-31.5 -75z" />
<glyph unicode="&#x2db;" horiz-adv-x="708" d="M174 -223q0 98 96 157q17 10 17 25h94q0 -18 -13.5 -33t-32.5 -26.5t-37.5 -26t-32 -39t-13.5 -57.5q0 -43 37.5 -68.5t116.5 -25.5q90 0 165 61q34 27 60 10q6 -5 9.5 -13.5t1 -21.5t-14.5 -24q-38 -39 -98 -64.5t-123 -25.5q-122 0 -177 48.5t-55 123.5z" />
<glyph unicode="&#x2dc;" horiz-adv-x="1112" d="M156 1233q18 97 77.5 141.5t124.5 44.5q52 0 105.5 -25.5t91 -56.5t85 -56.5t89.5 -25.5q97 0 127 131q4 18 18.5 26t30.5 3q16 -4 23 -19.5t4 -31.5q-13 -67 -49 -111t-75 -59.5t-79 -15.5q-60 0 -113 25.5t-86.5 56t-79 56t-92.5 25.5q-99 0 -129 -131q-9 -37 -47 -26 q-16 4 -22.5 18.5t-3.5 30.5z" />
<glyph unicode="&#x2dd;" horiz-adv-x="1001" d="M217 1227q-2 18 8 33l207 303q22 33 53 18q15 -7 18 -23.5t-7 -31.5l-205 -307q-9 -16 -26 -21.5t-32 2.5q-14 9 -16 27zM498 1227q-2 18 8 33l207 303q22 33 53 18q15 -7 18 -23.5t-8 -31.5l-205 -307q-9 -16 -25.5 -21.5t-31.5 2.5q-14 9 -16 27z" />
<glyph unicode="&#x3c0;" horiz-adv-x="1474" d="M113 1251q0 17 11.5 28t27.5 11h1171q16 0 27.5 -11t11.5 -28t-12 -29t-27 -12h-143q-19 0 -19 -18v-1192q0 -16 -11 -27.5t-28 -11.5t-28 11.5t-11 27.5v1190q0 20 -18 20h-651q-19 0 -19 -18v-1192q0 -16 -11 -27.5t-28 -11.5t-28 11.5t-11 27.5v1190q0 20 -18 20h-147 q-15 0 -27 12t-12 29z" />
<glyph unicode="&#x2000;" horiz-adv-x="1054" />
<glyph unicode="&#x2001;" horiz-adv-x="2109" />
<glyph unicode="&#x2002;" horiz-adv-x="1054" />
<glyph unicode="&#x2003;" horiz-adv-x="2109" />
<glyph unicode="&#x2004;" horiz-adv-x="703" />
<glyph unicode="&#x2005;" horiz-adv-x="527" />
<glyph unicode="&#x2006;" horiz-adv-x="351" />
<glyph unicode="&#x2007;" horiz-adv-x="351" />
<glyph unicode="&#x2008;" horiz-adv-x="263" />
<glyph unicode="&#x2009;" horiz-adv-x="421" />
<glyph unicode="&#x200a;" horiz-adv-x="117" />
<glyph unicode="&#x2010;" horiz-adv-x="968" d="M92 717q0 17 11.5 28t27.5 11h707q16 0 27.5 -11t11.5 -28t-11.5 -28t-27.5 -11h-707q-16 0 -27.5 11t-11.5 28z" />
<glyph unicode="&#x2011;" horiz-adv-x="968" d="M92 717q0 17 11.5 28t27.5 11h707q16 0 27.5 -11t11.5 -28t-11.5 -28t-27.5 -11h-707q-16 0 -27.5 11t-11.5 28z" />
<glyph unicode="&#x2012;" horiz-adv-x="968" d="M92 717q0 17 11.5 28t27.5 11h707q16 0 27.5 -11t11.5 -28t-11.5 -28t-27.5 -11h-707q-16 0 -27.5 11t-11.5 28z" />
<glyph unicode="&#x2013;" horiz-adv-x="1392" d="M86 637q0 17 11.5 28t27.5 11h1143q16 0 27.5 -11t11.5 -28t-12 -29t-27 -12h-1143q-15 0 -27 12t-12 29z" />
<glyph unicode="&#x2014;" horiz-adv-x="1746" d="M86 637q0 17 11.5 28t27.5 11h1497q16 0 27.5 -11t11.5 -28t-12 -29t-27 -12h-1497q-15 0 -27 12t-12 29z" />
<glyph unicode="&#x2018;" horiz-adv-x="526" d="M154 1159q0 25 12 49l186 357q5 11 18.5 17.5t24.5 0.5t14.5 -20.5t-1.5 -24.5l-127 -266q-3 -5 2 -10q40 -12 63 -39.5t23 -63.5q0 -45 -31.5 -76.5t-75.5 -31.5q-46 0 -77 31t-31 77z" />
<glyph unicode="&#x2019;" horiz-adv-x="526" d="M117 1073.5q-3 14.5 2 24.5l127 266q3 5 -2 10q-40 12 -63 39.5t-23 63.5q0 46 31 77t75 31q46 0 77.5 -31t31.5 -77q0 -24 -13 -50l-186 -356q-7 -11 -19.5 -17.5t-23.5 -0.5t-14 20.5z" />
<glyph unicode="&#x201a;" horiz-adv-x="524" d="M115 -341.5q-3 14.5 2 24.5l127 266q3 5 -2 10q-40 12 -63 39t-23 63q0 46 31 77.5t75 31.5q46 0 77.5 -31.5t31.5 -77.5q0 -23 -13 -49l-186 -356q-7 -11 -19.5 -17.5t-23.5 -0.5t-14 20.5z" />
<glyph unicode="&#x201c;" horiz-adv-x="841" d="M154 1159q0 25 12 49l186 357q7 11 19.5 17.5t23.5 0.5t14.5 -20.5t-1.5 -24.5l-127 -266q-3 -5 2 -10q40 -12 63 -39.5t23 -63.5q0 -45 -31.5 -76.5t-75.5 -31.5q-46 0 -77 31t-31 77zM469 1159q0 25 12 49l187 357q7 11 19.5 17.5t23.5 0.5t14 -20.5t-2 -24.5 l-127 -266q-3 -5 2 -10q40 -12 63 -39.5t23 -63.5q0 -46 -31 -77t-75 -31q-46 0 -77.5 31t-31.5 77z" />
<glyph unicode="&#x201d;" horiz-adv-x="841" d="M117 1073.5q-3 14.5 2 24.5l127 266q3 5 -2 10q-40 12 -63 39.5t-23 63.5q0 46 31 77t75 31q46 0 77.5 -31t31.5 -77q0 -24 -13 -50l-186 -356q-7 -11 -19.5 -17.5t-23.5 -0.5t-14 20.5zM432 1073.5q-3 14.5 2 24.5l127 266q3 5 -2 10q-40 12 -63 39.5t-23 63.5 q0 45 31.5 76.5t75.5 31.5q46 0 77 -31t31 -77q0 -26 -12 -50l-187 -356q-7 -11 -19.5 -17.5t-23.5 -0.5t-14 20.5z" />
<glyph unicode="&#x201e;" horiz-adv-x="839" d="M115 -341.5q-3 14.5 2 24.5l127 266q3 5 -2 10q-40 12 -63 39t-23 63q0 46 31 77.5t75 31.5q46 0 77.5 -31.5t31.5 -77.5q0 -23 -13 -49l-186 -356q-7 -11 -19.5 -17.5t-23.5 -0.5t-14 20.5zM430 -341.5q-3 14.5 2 24.5l127 266q3 5 -2 10q-40 12 -63 39t-23 63 q0 46 31.5 77.5t75.5 31.5q46 0 77 -31.5t31 -77.5q0 -25 -12 -49l-187 -356q-7 -11 -19.5 -17.5t-23.5 -0.5t-14 20.5z" />
<glyph unicode="&#x2020;" d="M104 1137q0 17 11.5 28t27.5 11h428q11 0 11 12v475q0 16 11 27.5t28 11.5t29 -12t12 -27v-475q0 -12 10 -12h426q16 0 27.5 -11t11.5 -28t-11.5 -28t-27.5 -11h-426q-10 0 -10 -11v-1570q0 -15 -12 -27t-29 -12t-28 11.5t-11 27.5v1570q0 11 -11 11h-428q-16 0 -27.5 11 t-11.5 28z" />
<glyph unicode="&#x2021;" d="M104 39q0 17 11.5 28t27.5 11h428q11 0 11 12v997q0 11 -11 11h-428q-16 0 -27.5 11t-11.5 28t11.5 28t27.5 11h428q11 0 11 12v475q0 16 11 27.5t28 11.5t29 -12t12 -27v-475q0 -12 10 -12h426q16 0 27.5 -11t11.5 -28t-11.5 -28t-27.5 -11h-426q-10 0 -10 -11v-997 q0 -12 10 -12h426q16 0 27.5 -11t11.5 -28t-11.5 -28t-27.5 -11h-426q-10 0 -10 -10v-473q0 -15 -12 -27t-29 -12t-28 11.5t-11 27.5v473q0 10 -11 10h-428q-16 0 -27.5 11t-11.5 28z" />
<glyph unicode="&#x2022;" horiz-adv-x="546" d="M154 635q0 50 34.5 84.5t85.5 34.5q50 0 84.5 -35t34.5 -84q0 -50 -35 -85.5t-84 -35.5q-51 0 -85.5 35.5t-34.5 85.5z" />
<glyph unicode="&#x2026;" horiz-adv-x="1882" d="M154 70q0 44 32 76t78 32q44 0 76.5 -32t32.5 -76q0 -46 -32.5 -78.5t-76.5 -32.5q-46 0 -78 32.5t-32 78.5zM831 70q0 44 32.5 76t78.5 32q44 0 76.5 -32t32.5 -76q0 -46 -32.5 -78.5t-76.5 -32.5q-46 0 -78.5 32.5t-32.5 78.5zM1509 70q0 44 32.5 76t78.5 32 q44 0 76.5 -32t32.5 -76q0 -46 -32.5 -78.5t-76.5 -32.5q-46 0 -78.5 32.5t-32.5 78.5z" />
<glyph unicode="&#x202f;" horiz-adv-x="421" />
<glyph unicode="&#x2030;" horiz-adv-x="2596" d="M92 1188q0 -165 118 -280t284 -115t282.5 115t116.5 280q0 166 -116.5 281.5t-282.5 115.5t-284 -116t-118 -281zM170 1188q0 133 95 226t229 93q135 0 228 -92.5t93 -226.5q0 -136 -92.5 -227t-228.5 -91q-135 0 -229.5 91.5t-94.5 226.5zM316 -11.5q-4 15.5 6 29.5 l1167 1547q10 13 24.5 17.5t28.5 -3.5q13 -7 16 -25t-6 -30l-1169 -1547q-22 -30 -49 -12q-14 8 -18 23.5zM981 356q0 -166 116.5 -281.5t282.5 -115.5q119 0 215 59.5t146 161.5q0 3 2 3t2 -3q50 -100 146 -160.5t212 -60.5q166 0 284 116t118 281t-118 280.5t-284 115.5 q-118 0 -214 -62t-144 -162q0 -3 -2 -3t-2 3q-50 102 -146.5 163t-214.5 61q-166 0 -282.5 -115.5t-116.5 -280.5zM1059 356q0 136 92.5 227t228.5 91q135 0 229.5 -91.5t94.5 -226.5q0 -133 -95 -226t-229 -93q-135 0 -228 92.5t-93 226.5zM1782 356q0 136 92.5 227 t228.5 91q135 0 229.5 -91.5t94.5 -226.5q0 -133 -95 -226t-229 -93t-227.5 90.5t-93.5 228.5z" />
<glyph unicode="&#x2039;" horiz-adv-x="712" d="M154 582q0 45 8.5 91.5t34.5 105.5t67 111t112 103.5t163 87.5q20 7 36 0.5t21 -20.5q6 -17 -2.5 -33t-24.5 -22q-171 -66 -252 -180.5t-81 -243.5t81 -243.5t252 -180.5q16 -6 24.5 -22.5t2.5 -33.5q-5 -14 -21 -20.5t-36 0.5q-92 36 -163 87.5t-112 104t-67 111.5 t-34.5 105.5t-8.5 91.5z" />
<glyph unicode="&#x203a;" horiz-adv-x="712" d="M117 102q-6 17 2 33.5t24 22.5q88 34 154.5 83.5t104.5 106t56.5 115t18.5 119.5t-18.5 119.5t-56.5 115t-104.5 106t-154.5 83.5q-16 6 -24 22t-2 33q5 14 21 20.5t36 -0.5q92 -36 163 -87.5t112 -103.5t67 -111t34.5 -105.5t8.5 -91.5t-8.5 -91.5t-34.5 -105.5 t-67 -111.5t-112 -104t-163 -87.5q-20 -7 -36 -0.5t-21 20.5z" />
<glyph unicode="&#x2044;" horiz-adv-x="847" d="M-37 -383l850 1944q6 15 20 21.5t29 0.5q17 -6 23 -20t-2 -31l-850 -1944q-6 -14 -19 -20t-28 0q-15 4 -22 19.5t-1 29.5z" />
<glyph unicode="&#x205f;" horiz-adv-x="527" />
<glyph unicode="&#x20ac;" horiz-adv-x="1294" d="M-23 575q0 17 11.5 28t27.5 11h121q4 0 4 7q-10 59 -10 147q0 89 10 150q0 4 -4 4h-121q-16 0 -27.5 11t-11.5 28t11.5 27.5t27.5 10.5h136q4 0 4 5q29 124 85.5 228.5t137.5 184t191 124t237 44.5q108 0 215.5 -35.5t177.5 -109.5q11 -12 11.5 -29.5t-9.5 -28.5 q-13 -12 -27 -11t-26 11q-79 68 -161.5 96.5t-180.5 28.5q-215 0 -368 -134.5t-206 -368.5q0 -5 5 -5h329q16 0 27.5 -10.5t11.5 -27.5t-11.5 -28t-27.5 -11h-344q-4 0 -4 -4q-10 -59 -10 -150q0 -88 10 -147q0 -7 6 -7h342q16 0 27.5 -11t11.5 -28t-11.5 -27.5t-27.5 -10.5 h-327q-4 0 -4 -7q54 -234 205.5 -367.5t365.5 -133.5q98 0 180.5 28.5t161.5 96.5q12 10 26 11t27 -11q10 -11 9.5 -28.5t-11.5 -29.5q-70 -74 -177.5 -109.5t-215.5 -35.5q-127 0 -237 44t-190.5 122.5t-136.5 183t-85 229.5q0 7 -6 7h-136q-16 0 -27.5 10.5t-11.5 27.5z " />
<glyph unicode="&#x2122;" horiz-adv-x="2242" d="M74 1505q0 17 11.5 28t27.5 11h737q16 0 27.5 -11t11.5 -28t-11.5 -28t-27.5 -11h-330v-651q0 -16 -11 -27.5t-28 -11.5t-28 11.5t-11 27.5v651h-329q-16 0 -27.5 11t-11.5 28zM809 834l178 682q7 24 25 40.5t45 16.5q46 0 67 -60l232 -657q0 -2 2 -2l2 2l231 657 q21 60 68 60q26 0 44.5 -16.5t25.5 -40.5l178 -682q5 -17 -1.5 -33.5t-25.5 -22.5q-16 -5 -31.5 4t-19.5 27l-168 657q0 3 -2 3t-2 -3l-221 -637q-19 -53 -78 -53t-78 53l-221 637q0 3 -2 3t-2 -3l-168 -657q-4 -18 -19.5 -27t-31.5 -4q-19 6 -25.5 22.5t-1.5 33.5z" />
<glyph unicode="&#x2202;" horiz-adv-x="1331" d="M100 432q-3 105 35.5 207.5t109 185t179 133t235.5 50.5q94 0 177.5 -26t139.5 -64.5t101 -87.5t68.5 -90t34.5 -76q4 -10 6 2q12 85 12.5 173t-13.5 184.5t-43 183t-81 167t-123 137.5q-12 10 -16.5 27t4.5 33q12 13 30 13t27 -7q180 -164 242 -378.5t43 -487.5 q-6 -78 -21 -153t-42.5 -150.5t-65.5 -141t-92.5 -122.5t-120.5 -98t-152 -64t-184 -23q-138 0 -245.5 51.5t-173.5 160t-71 261.5zM178 432q0 -96 36.5 -173.5t98 -124.5t136.5 -72t157 -25q185 0 321 107.5t179 256.5q32 114 3 211t-97 167.5t-162.5 110.5t-192.5 40 q-110 0 -202 -42.5t-151.5 -113t-92.5 -159t-33 -183.5z" />
<glyph unicode="&#x220f;" horiz-adv-x="1540" d="M154 -485v1992q0 17 9.5 27t24.5 10h1160q15 0 26.5 -11t11.5 -28v-1990q0 -16 -10.5 -27.5t-27.5 -11.5t-28 11.5t-11 27.5v1929q0 20 -19 20h-1040q-19 0 -19 -18v-1931q0 -16 -10.5 -27.5t-27.5 -11.5t-28 11.5t-11 27.5z" />
<glyph unicode="&#x2211;" horiz-adv-x="1263" d="M121 -465q0 21 10 33l698 930q9 12 0 24l-698 930q-10 12 -10 33q0 25 17.5 42t43.5 17h977q16 0 27.5 -11t11.5 -28t-12 -29t-27 -12h-915q-11 0 -11 -10q0 -3 3 -6l663 -875q53 -62 0 -127l-663 -874q-3 -6 -3 -8q0 -8 11 -8h915q15 0 27 -12t12 -29t-11.5 -28 t-27.5 -11h-977q-26 0 -43.5 17t-17.5 42z" />
<glyph unicode="&#x221a;" horiz-adv-x="1449" d="M12 6l262 701q17 45 56 45q47 0 59 -45l340 -1170q1 -3 2.5 -4t3 0t2.5 4l621 2022q6 14 20 21t29 3q15 -5 24 -21t3 -28l-672 -2159q-9 -26 -33 -26q-10 0 -20 7.5t-13 18.5l-362 1250q-1 3 -2.5 4t-3 0t-2.5 -4l-242 -641q-5 -14 -16.5 -21t-26.5 -4q-17 4 -25.5 18.5 t-3.5 28.5z" />
<glyph unicode="&#x222b;" horiz-adv-x="921" d="M-61 -211q0 15 11.5 28t29.5 13t30.5 -11.5t12.5 -29.5q0 -122 48 -178.5t144 -56.5q100 0 153.5 61.5t53.5 175.5v1585q0 152 79.5 238t205.5 86q129 0 202.5 -80t73.5 -234q0 -15 -11.5 -27.5t-29.5 -12.5t-30.5 11t-12.5 29q0 122 -48 179t-144 57q-100 0 -153.5 -62 t-53.5 -176v-1585q0 -152 -79.5 -237.5t-205.5 -85.5q-129 0 -202.5 80t-73.5 233z" />
<glyph unicode="&#x2248;" horiz-adv-x="1576" d="M96 627q-6 19 2 32q54 114 150 183t215 69q77 0 146.5 -30t123.5 -72.5t106.5 -85t117.5 -72.5t135 -30q206 0 311 210q7 13 22 19.5t29 1.5q13 -4 18 -23t-2 -32q-41 -89 -107.5 -148t-133 -81.5t-137.5 -22.5q-80 0 -154 30t-131 72.5t-110.5 85.5t-114 73t-119.5 30 q-199 0 -297 -211q-6 -13 -21.5 -19.5t-29.5 -1.5q-13 4 -19 23zM106.5 267q-5.5 19 2.5 32q55 114 150 183t214 69q77 0 146.5 -30t123.5 -72.5t106.5 -85.5t117.5 -73t135 -30q206 0 311 211q7 13 22 19.5t29 1.5q13 -4 18 -23.5t-1 -32.5q-41 -89 -107.5 -148 t-133.5 -81.5t-138 -22.5q-80 0 -154 30t-131 72.5t-110.5 85.5t-114 73t-119.5 30q-199 0 -297 -211q-6 -13 -21.5 -19t-29.5 -1q-13 4 -18.5 23z" />
<glyph unicode="&#x2260;" horiz-adv-x="1404" d="M139 578q0 17 11.5 27.5t27.5 10.5h379l203 308h-582q-16 0 -27.5 11t-11.5 28t11.5 27.5t27.5 10.5h633l147 222q9 12 23.5 15.5t28.5 -3.5q15 -7 20 -24t-4 -29l-119 -181h320q16 0 27.5 -10.5t11.5 -27.5t-11.5 -28t-27.5 -11h-371l-205 -308h576q16 0 27.5 -10.5 t11.5 -27.5t-11.5 -28t-27.5 -11h-627l-172 -263q-19 -28 -55 -14q-15 8 -19 24t6 31l146 222h-328q-16 0 -27.5 11t-11.5 28z" />
<glyph unicode="&#x2264;" horiz-adv-x="1198" d="M154 39q0 -17 11.5 -28t27.5 -11h813q15 0 26.5 11t11.5 28t-11.5 28t-26.5 11h-813q-16 0 -27.5 -11t-11.5 -28zM156 653q0 34 37 47l794 308q18 5 33.5 -1.5t19.5 -23.5t-3.5 -31.5t-22.5 -17.5l-746 -279q-2 0 -2 -2t2 -2l746 -274q15 -3 22.5 -17.5t3.5 -31.5 t-19.5 -23.5t-33.5 -1.5l-794 299q-37 13 -37 51z" />
<glyph unicode="&#x2265;" horiz-adv-x="1198" d="M154 39q0 -17 11.5 -28t27.5 -11h813q15 0 26.5 11t11.5 28t-11.5 28t-26.5 11h-813q-16 0 -27.5 -11t-11.5 -28zM158 328q-4 17 3.5 31.5t22.5 17.5l746 274q2 0 2 2t-2 2l-746 279q-15 3 -22.5 17.5t-3.5 31.5t19.5 23.5t33.5 1.5l795 -308q36 -13 36 -47 q0 -39 -36 -51l-795 -299q-18 -5 -33.5 1.5t-19.5 23.5z" />
<glyph unicode="&#x25ca;" horiz-adv-x="1286" d="M217 733q-19 39 2 82l377 739q13 31 45 31t45 -31l377 -739q21 -43 2 -82l-379 -743q-13 -31 -45 -31t-45 31zM285 760l354 -694q0 -2 2 -2t2 2l354 694q7 13 0 24l-354 695q0 1 -2 1t-2 -1l-354 -695q-7 -11 0 -24z" />
<glyph unicode="&#x25fc;" horiz-adv-x="1085" d="M0 0v1085h1085v-1085h-1085z" />
</font>
</defs>
</svg>
