<?xml version="1.0" standalone="no"?>
<!DOCTYPE svg PUBLIC "-//W3C//DTD SVG 1.1//EN" "http://www.w3.org/Graphics/SVG/1.1/DTD/svg11.dtd" >
<svg xmlns="http://www.w3.org/2000/svg" xmlns:xlink="http://www.w3.org/1999/xlink" version="1.1">
<metadata></metadata>
<defs>
<font id="fraktur_jmposter" horiz-adv-x="1239" >
<font-face units-per-em="2048" ascent="1624" descent="-424" />
<missing-glyph horiz-adv-x="624" />
<glyph unicode="&#xfb01;" horiz-adv-x="931" d="M-74 877l180 180v129l318 317l162 -170q12 45 49.5 73t87.5 28q61 0 102 -41t41 -103t-41 -102.5t-102 -40.5q-58 0 -98 37t-45 94l-162 -162l-154 158l-92 -92l166 -166l502 -90v-709l67 -70l-176 -178l-135 135v644l-246 47v-578l68 -70l-176 -178l-136 135v738z" />
<glyph unicode="&#xfb02;" horiz-adv-x="942" d="M-74 877l180 180v129l318 317l416 -209v-1079l65 -68l-176 -178l-133 133v1051l-301 152l-123 -123l168 -168l192 -35l-182 -182v-580l68 -70l-176 -178l-136 135v738z" />
<glyph horiz-adv-x="0" />
<glyph horiz-adv-x="682" />
<glyph unicode=" "  horiz-adv-x="624" />
<glyph unicode="&#x09;" horiz-adv-x="624" />
<glyph unicode="&#xa0;" horiz-adv-x="624" />
<glyph unicode="!" horiz-adv-x="540" d="M119 121q0 66 43 108.5t108 42.5t108.5 -42.5t43.5 -108.5q0 -65 -44 -108.5t-108 -43.5t-107.5 43.5t-43.5 108.5zM152 360v900l241 243v-899z" />
<glyph unicode="&#x22;" horiz-adv-x="890" d="M158 799v450l254 254v-452zM479 799v450l254 254v-452z" />
<glyph unicode="#" horiz-adv-x="1091" d="M-10 408l14 51h217l146 516h-215l14 51h215l117 408h55l-115 -408h391l117 408h55l-114 -408h215l-15 -51h-215l-147 -516h217l-14 -51h-217l-115 -408h-55l114 408h-393l-115 -408h-55l115 408h-217zM276 459h394l145 516h-391z" />
<glyph unicode="$" horiz-adv-x="1302" d="M100 297l199 174l168 -246l133 -24v403l-453 158v268l453 453v141h51v-143l428 -320l-180 -178l-248 186v-292l412 -142v-342l-412 -409v-177h-51v168l-317 58zM381 971l219 -76v313l-115 86l-104 -104v-219zM651 193l117 -21l61 61v293l-178 62v-395z" />
<glyph unicode="%" horiz-adv-x="1499" d="M51 893v141l430 430l277 -276v-141l-430 -431zM295 995l168 -170l51 52v208l-168 170l-51 -51v-209zM381 0l680 1434h57l-680 -1434h-57zM741 246v141l430 430l277 -276v-142l-430 -430zM985 348l168 -170l51 51v209l-168 170l-51 -51v-209z" />
<glyph unicode="&#x26;" horiz-adv-x="1044" d="M66 276v62l325 326l-262 284v107l449 448l368 -368l-342 -342l338 -371l188 188l39 -37l-192 -190l215 -236l-170 -172l-217 236l-96 -96q-91 -89 -167 -117.5t-155 -28.5q-138 0 -229.5 92.5t-91.5 214.5zM299 410q0 -121 68.5 -184.5t156.5 -63.5q135 0 244 90 l-338 366l-131 -131v-77zM383 1036l180 -200l142 141v35l-271 272l-51 -49v-199z" />
<glyph unicode="'" horiz-adv-x="569" d="M158 799v450l254 254v-452z" />
<glyph unicode="(" horiz-adv-x="604" d="M147 117v766q0 94 27 193.5t94 166.5l260 260l37 -37l-110 -110q-29 -29 -44.5 -90.5t-17.5 -105t-2 -107.5v-817q0 -129 8.5 -216.5t24.5 -131t34 -60t42 -16.5q37 0 73 45l37 -35q-84 -84 -192 -84q-82 0 -145.5 57.5t-94.5 142.5t-31 179z" />
<glyph unicode=")" horiz-adv-x="559" d="M-6 -225l110 110q29 29 44.5 90.5t17.5 105t2 107.5v818q0 100 -10.5 153.5t-46.5 89.5l-78 78l178 178l96 -98q105 -105 105 -283v-766q0 -94 -27 -193.5t-94 -166.5l-260 -260z" />
<glyph unicode="*" horiz-adv-x="794" d="M51 1294q51 13 80 11q49 -2 113 -43l110 -74l4 61q5 67 -4 108t-45 77l86 63q76 -72 66 -184l-8 -133l57 28q32 17 49 27.5t36.5 26.5t31 35.5t18.5 45.5l94 -43q-19 -101 -123 -149l-120 -59l53 -35q76 -53 127 -58q25 0 55 9l12 -105q-41 -13 -79 -10q-56 2 -113 43 l-111 72l-4 -60q-5 -67 4 -107.5t45 -76.5l-86 -64q-75 72 -65 185l8 131l-57 -27q-60 -29 -90.5 -57.5t-44.5 -77.5l-95 43q21 105 123 150l119 57l-51 37q-70 49 -127 55q-36 0 -56 -6z" />
<glyph unicode="+" horiz-adv-x="931" d="M-23 401l195 197h168v190l242 244v-434h372l-196 -197h-176v-170l-242 -243v413h-363z" />
<glyph unicode="," horiz-adv-x="430" d="M59 123q0 63 42.5 106t105.5 43q62 0 106.5 -43.5t44.5 -103.5q0 -117 -54.5 -226.5t-190.5 -252.5l-43 43q75 89 107 146.5t32 101.5q0 35 -41 47q-45 13 -77 51t-32 88z" />
<glyph unicode="-" horiz-adv-x="1011" d="M10 442l195 197h796l-196 -197h-795z" />
<glyph unicode="." horiz-adv-x="434" d="M59 121q0 66 43.5 108.5t108.5 42.5t108 -42.5t43 -108.5q0 -65 -43.5 -108.5t-107.5 -43.5q-65 0 -108.5 43.5t-43.5 108.5z" />
<glyph unicode="/" horiz-adv-x="608" d="M31 0l493 1434h54l-494 -1434h-53z" />
<glyph unicode="0" horiz-adv-x="1218" d="M119 248v790l465 465l321 -51l213 -213l2 -813l-454 -455l-322 52zM373 385l168 -166l258 -41l67 68l-2 858l-155 151l-258 41l-78 -77v-834z" />
<glyph unicode="1" horiz-adv-x="663" d="M-16 27l221 221v952l-47 37l-125 -123l-31 41l348 348l109 -82v-993l-211 -211l336 -49l-201 -199z" />
<glyph unicode="2" horiz-adv-x="1038" d="M66 657v398l448 448l424 -248v-282l-549 -567v-158l639 -82l-197 -197l-747 101v120l600 619v297l-315 178l-50 -49v-324z" />
<glyph unicode="3" horiz-adv-x="1089" d="M66 178l221 230q0 -94 76 -170t165 -76q133 0 213 80l9 10v309l-289 111l-133 -133l-39 32l411 410v123l-321 180l-49 -49v-258l-254 -254v332l448 448l430 -250v-96l-286 -287l336 -159v-281l-365 -362q-64 -62 -123 -80.5t-135 -18.5q-67 0 -126.5 22t-97 55 t-61.5 67.5t-30 64.5z" />
<glyph unicode="4" horiz-adv-x="1005" d="M-20 457v61l634 985l205 -100v-852l299 -49l-198 -197l-101 19v-101l-254 -254v393zM233 645l332 -53v719l-332 -531v-135z" />
<glyph unicode="5" horiz-adv-x="1052" d="M66 178l221 230q0 -96 74.5 -171t170.5 -75q111 0 170 59l62 62v370l-332 176l-332 -331v587l418 418l545 -86l-197 -196l-473 84l-39 -39v-443l211 213l453 -235v-338l-410 -408q-41 -41 -105.5 -63.5t-129.5 -22.5q-67 0 -125 22t-94.5 55.5t-58.5 67.5t-29 64z" />
<glyph unicode="6" horiz-adv-x="1075" d="M66 369v577l557 557l407 -235l-188 -189l-365 205l-158 -158v-430l256 256l441 -221v-412l-240 -235q-115 -115 -280 -115q-87 0 -163 24t-136.5 71.5t-95.5 126t-35 178.5zM319 510q0 -440 273 -440q56 0 92 14.5t78 56.5v449l-307 168l-136 -135v-113z" />
<glyph unicode="7" horiz-adv-x="1001" d="M25 657v398l448 448l463 -268v-272l-281 -371v-365l-254 -258v455l281 367v294l-354 199l-49 -49v-324z" />
<glyph unicode="8" horiz-adv-x="1064" d="M55 221v162l338 322l-301 147v178l440 440l27 -4q99 -15 182.5 -48.5t139 -89t55.5 -120.5v-67l-272 -262l350 -164v-322l-322 -319q-64 -62 -129.5 -83.5t-140.5 -21.5q-94 0 -178.5 34t-136.5 92.5t-52 125.5zM289 401q0 -96 84.5 -167.5t195.5 -71.5q44 0 69 2t67 19 t75 50v285l-327 158l-164 -156v-119zM326 1038l278 -131l98 94v27q0 93 -72.5 149.5t-215.5 92.5l-8 2l-80 -82v-152z" />
<glyph unicode="9" horiz-adv-x="1056" d="M45 178l221 230q0 -100 51.5 -173t135.5 -73q129 0 198 69l62 62v387l-45 -45q-141 -141 -297 -141q-143 0 -222 64.5t-79 186.5v291l467 467l430 -186v-844l-418 -416q-88 -88 -234 -88q-57 0 -103.5 15t-74 36.5t-48 52t-29.5 54.5t-15 51zM324 860q0 -127 39 -196.5 t108 -69.5q50 0 88 21t94 77l60 60v393l-332 129l-57 -57v-357z" />
<glyph unicode=":" horiz-adv-x="434" d="M59 121q0 66 43.5 108.5t108.5 42.5t108 -42.5t43 -108.5q0 -65 -43.5 -108.5t-107.5 -43.5q-65 0 -108.5 43.5t-43.5 108.5zM59 829q0 65 43.5 108.5t108.5 43.5q64 0 107.5 -43.5t43.5 -108.5q0 -66 -43 -108.5t-108 -42.5t-108.5 42.5t-43.5 108.5z" />
<glyph unicode=";" horiz-adv-x="434" d="M59 123q0 -50 32 -88t77 -51q41 -12 41 -47q0 -44 -32 -101.5t-107 -146.5l43 -43q136 143 190.5 252.5t54.5 226.5q0 60 -44.5 103.5t-106.5 43.5q-63 0 -105.5 -43t-42.5 -106zM59 829q0 65 43.5 108.5t108.5 43.5q64 0 107.5 -43.5t43.5 -108.5q0 -66 -43 -108.5 t-108 -42.5t-108.5 42.5t-43.5 108.5z" />
<glyph unicode="&#x3c;" horiz-adv-x="972" d="M90 459v98l684 395l193 -192l-623 -352v-21l563 -299l-43 -45z" />
<glyph unicode="=" horiz-adv-x="978" d="M59 588l142 141q2 4 8 4h706q7 0 3 -4l-144 -141q-4 -4 -8 -4h-705q-6 0 -2 4zM61 250l142 141q2 4 8 4h707q6 0 2 -4l-144 -141q-4 -4 -8 -4h-705q-6 0 -2 4z" />
<glyph unicode="&#x3e;" horiz-adv-x="972" d="M6 236l623 352v20l-563 299l43 45l774 -415v-99l-684 -395z" />
<glyph unicode="?" horiz-adv-x="888" d="M31 668v221q0 86 29.5 137t101.5 123l354 354l385 -252v-161l-287 -287v-240l-266 -266v313l299 297v221l-272 160l-27 -26q-29 -29 -40 -73t-11 -149v-106zM313 121q0 66 43.5 108.5t108.5 42.5t108 -42.5t43 -108.5q0 -65 -43.5 -108.5t-107.5 -43.5q-65 0 -108.5 43.5 t-43.5 108.5z" />
<glyph unicode="@" horiz-adv-x="1654" d="M88 686q0 126 38.5 247t112.5 223.5t173.5 180.5t229 122t271.5 44q127 0 237 -33t189 -90t136 -131.5t84.5 -158.5t27.5 -170q0 -273 -297 -560l-145 -145l-174 174v82l-258 -258l-250 289v405l430 430l321 -321v-537l64 -63q98 102 98 397q0 286 -142.5 449t-397.5 163 q-82 0 -157.5 -24t-142.5 -76.5t-116 -129t-78 -188.5t-29 -249q0 -312 171.5 -502t449.5 -190q68 0 128.5 13t102.5 31t86.5 49t69 53.5t61.5 59.5q4 4 9 0l28 -24q4 -4 0 -8q-112 -131 -241.5 -201t-313.5 -70q-156 0 -297.5 52t-247.5 144.5t-168.5 228t-62.5 292.5z M707 655l163 -211l101 101v368l-213 215l-51 -51v-422z" />
<glyph unicode="A" d="M147 -31v889l365 365v10l-80 80l189 190l458 -446v-801l109 -106l-178 -181l-185 185v479l-127 -127l-278 49l-19 -18v-306zM401 635l123 123l281 -45l20 20v193l-268 260h-8l-148 -148v-403z" />
<glyph unicode="B" horiz-adv-x="1140" d="M61 1327l179 178l178 -180v-135l311 311l213 -362l-186 -187q56 0 116 -29.5t110 -79t82 -123.5t32 -155q0 -85 -29.5 -170.5t-88.5 -162t-140 -135.5t-193 -93.5t-239 -34.5l-338 156l96 96v1004zM297 281l395 -203q97 18 151 107t54 212q0 107 -53.5 193.5t-128 130 t-148.5 43.5l-149 -150v-208zM418 688l295 293l-162 268l-133 -133v-428z" />
<glyph unicode="C" horiz-adv-x="1167" d="M119 408v516l579 579l469 -420l-186 -186l-424 391l-184 -184v-574q0 -201 91.5 -306t252.5 -105q123 0 237 114l160 160l39 -35l-244 -243q-148 -146 -319 -146q-109 0 -200 39t-149 102.5t-90 140.5t-32 157z" />
<glyph unicode="D" horiz-adv-x="1226" d="M90 150l70 69v727l291 291l-273 86l178 180l291 -82q140 -40 246 -112t168.5 -164t92.5 -194q28 -96 28 -197v-13q-4 -160 -64 -297.5t-159 -233t-223 -157.5t-261 -84zM328 313l413 -194q49 20 94 55t87.5 92t68 147t25.5 201q0 464 -510 605l-92 -93v-727z" />
<glyph unicode="E" horiz-adv-x="1144" d="M115 1319l184 184l797 -125l-197 -196l-418 71l-67 -67v-475l161 161l379 -61l-188 -188l-311 55l-41 -41v-113q0 -226 64 -315.5t227 -89.5q64 0 113 16.5t104 71.5l159 160l39 -35l-246 -246q-42 -42 -84.5 -67.5t-87.5 -35.5t-72 -12t-73 -2q-177 0 -287 113t-110 309 v615l260 260z" />
<glyph unicode="F" horiz-adv-x="1019" d="M117 1307l196 196l793 -125l-197 -196l-417 65l-64 -63v-447l176 176l381 -59l-186 -186l-318 49l-53 -53v-408l109 -106l-179 -181l-184 185v850l254 253z" />
<glyph unicode="G" horiz-adv-x="1232" d="M119 387v533l579 581l447 -319l-189 -189l-403 289l-180 -180v-572q0 -234 89 -347t238 -113q71 0 132 22t126 84l19 17l-90 88v321l-166 70l-80 -80l-45 26l246 246l299 -121v-397l30 -31l-172 -170q-95 -95 -182.5 -135.5t-208.5 -40.5q-95 0 -182 27t-156 78t-110 132 t-41 181z" />
<glyph unicode="H" horiz-adv-x="1253" d="M18 1325l179 178l221 -223v-510l119 113l299 -52v410l254 262v-1247l108 -106l-178 -181l-184 185v602l-127 -119l-291 49v-367l-352 -350l-37 35l135 135v1041z" />
<glyph unicode="I" horiz-adv-x="581" d="M-57 27l221 221v835l168 168l-389 60l192 192l451 -71l-168 -168v-836l-211 -211l336 -49l-201 -199z" />
<glyph unicode="J" horiz-adv-x="686" d="M-113 12l199 197l193 -29v826l229 229l-492 74l197 194l555 -82l-236 -233v-858l-362 -361z" />
<glyph unicode="K" horiz-adv-x="1146" d="M82 2l82 82v1163l-78 78l178 178l154 -155v-594l78 -78l270 270v305l254 254v-381l-242 -239l242 -242v-403l92 -90l-178 -181l-168 168v406l-166 164l-182 -181v-262l-297 -295z" />
<glyph unicode="L" horiz-adv-x="964" d="M12 94l197 197l170 -27q-38 27 -73 60t-74.5 83t-63 116.5t-23.5 138.5v366l476 475l342 -297l-181 -180l-307 258l-76 -72v-743q0 -78 25.5 -128.5t73.5 -94.5l503 -80l-196 -197z" />
<glyph unicode="M" horiz-adv-x="1585" d="M0 1307l199 196l217 -215l215 215l256 -248l248 248l333 -325l-43 -43v-879l109 -106l-178 -181l-185 185v800l70 70l-254 260l-65 -65v-887l-365 -363l-37 35l148 148v942l-185 188l-65 -63v-887l-352 -363l-37 33l135 141v1000z" />
<glyph unicode="N" horiz-adv-x="1304" d="M119 1337l166 166l329 -182l277 -1149v1069l254 262v-1222l-314 -312l-157 154l-240 999l-37 -37v-854l-254 -262v936l277 277z" />
<glyph unicode="O" horiz-adv-x="1232" d="M119 324v712l467 467l540 -215v-852l-376 -377q-90 -90 -267 -90q-64 0 -125 20t-116 60t-89 111.5t-34 163.5zM373 438q0 -144 72.5 -223.5t199.5 -79.5q61 0 98.5 14t67.5 44l61 61v860l-423 176l-76 -73v-779z" />
<glyph unicode="P" horiz-adv-x="1118" d="M12 1325l178 178l228 -229v-131l360 360l279 -268v-356l-479 -478l-160 37v-184l78 -78l-205 -207l-127 127v1078zM418 680l299 -68l86 86v418l-172 166l-213 -211v-391z" />
<glyph unicode="Q" horiz-adv-x="1232" d="M119 324v712l467 467l540 -215v-852l-122 -123l192 -166l-180 -180l-195 164l-71 -72q-90 -90 -267 -90q-64 0 -125 20t-116 60t-89 111.5t-34 163.5zM373 438q0 -144 72.5 -223.5t199.5 -79.5q85 0 133 31l-254 215l187 184l161 -139v688l-423 176l-76 -73v-779z" />
<glyph unicode="R" horiz-adv-x="1136" d="M12 1325l178 178l228 -229v-96l327 325l240 -373l-225 -223l264 -264v-385l111 -108l-179 -181l-186 187v387l-188 188l-164 -164v-282l-318 -316l-39 33l103 102v1070zM418 639l344 342l-172 293l-172 -168v-467z" />
<glyph unicode="S" horiz-adv-x="1077" d="M41 297l199 174l168 -246l301 -53l61 61v293l-682 236v268l473 473l459 -342l-180 -178l-414 311l-84 -84v-245l682 -238v-311l-446 -447l-355 64z" />
<glyph unicode="T" horiz-adv-x="901" d="M-31 1307l197 196l792 -125l-196 -196l-221 35l-41 -41v-920l108 -106l-178 -181l-184 185v841l231 232z" />
<glyph unicode="U" d="M41 1325l178 178l199 -200v-965l151 -150l252 252v801l254 262v-1245l111 -108l-178 -181l-187 187v211l-399 -400l-258 246v989z" />
<glyph unicode="V" horiz-adv-x="1220" d="M41 1325l178 178l199 -200v-838l276 -270l146 145v901l254 262v-983l-553 -553l-377 367v868z" />
<glyph unicode="W" horiz-adv-x="1613" d="M41 1282l178 178l199 -200v-885l182 -174h8l90 90v950l254 262v-1128l185 -178l96 96v948l254 262v-1030l-504 -504l-272 262l-262 -262l-285 275v915z" />
<glyph unicode="X" horiz-adv-x="1140" d="M20 1337l166 166l240 -180l299 -637l94 94v422l-123 123l178 178l199 -200v-345l-325 -321l176 -371l213 -119l-176 -178l-234 131l-317 686l-88 -88v-424l122 -122l-178 -179l-198 201v344l317 318l-168 366z" />
<glyph unicode="Y" horiz-adv-x="1144" d="M20 1325l179 178l198 -200v-472l189 -186l178 178v418l254 262v-944q0 -114 -39 -153l-320 -322q-115 -115 -276 -115q-82 0 -173.5 52.5t-125.5 117.5l221 230q9 -41 30.5 -81.5t53 -75t76 -56t94.5 -21.5q49 0 83.5 19t68.5 53l53 53v494l-328 -328l-293 281v495z" />
<glyph unicode="Z" horiz-adv-x="921" d="M-57 94l618 1127l-543 86l197 196l793 -125l-197 -196l-504 -918l625 -98l-197 -197z" />
<glyph unicode="[" horiz-adv-x="671" d="M147 -78v1204l377 377l162 -26l-197 -197l-98 16v-1282l205 -202l-168 -170z" />
<glyph unicode="\" horiz-adv-x="833" d="M-10 1434h57l797 -1678h-58z" />
<glyph unicode="]" horiz-adv-x="671" d="M-14 -332l196 197l99 -17v1282l-205 203l168 170l280 -280v-1205l-377 -376z" />
<glyph unicode="^" horiz-adv-x="1011" d="M150 944l401 559h72l325 -485l-196 -197l-291 461l-268 -381z" />
<glyph unicode="_" horiz-adv-x="1024" d="M0 -158q0 4 4 4h1016q4 0 4 -4v-141q0 -4 -4 -4h-1016q-4 0 -4 4v141z" />
<glyph unicode="`" horiz-adv-x="493" d="M109 1458q-6 6 0 6h301q6 0 8 -4l78 -301q2 -4 -4 -4h-39q-7 0 -11 4z" />
<glyph unicode="a" horiz-adv-x="931" d="M78 205v457l430 430l321 -322v-537l99 -96l-168 -168l-174 174v99l-273 -273zM322 358l149 -157l115 114v353l-213 215l-51 -52v-473z" />
<glyph unicode="b" horiz-adv-x="878" d="M18 4l84 84v1161l-77 78l178 178l143 -145v-537l268 269l244 -242v-422l-459 -459l-166 178l-176 -178zM346 438l217 -233l51 51v457l-155 153l-113 -112v-316z" />
<glyph unicode="c" horiz-adv-x="856" d="M76 340v285l467 467l305 -326l-191 -191l-272 285l-66 -65v-351q0 -161 56 -242t160 -81q63 0 109 24.5t101 79.5l52 49l39 -34l-140 -136q-72 -72 -132.5 -103.5t-137.5 -31.5q-63 0 -111 7.5t-95 31t-77 63.5t-48.5 108t-18.5 161z" />
<glyph unicode="d" horiz-adv-x="864" d="M88 242v430l219 221l-219 221v148l244 241v-270l512 -514v-270l-486 -482zM332 410l190 -203l78 76v317l-258 258l-10 -12v-436z" />
<glyph unicode="e" horiz-adv-x="831" d="M82 315v303l473 474l223 -334l-432 -432q51 -205 232 -205q51 0 93 24.5t97 79.5l51 49l39 -34l-139 -136q-135 -135 -270 -135q-52 0 -100 9t-98 33.5t-86.5 62t-59.5 100t-23 141.5zM326 463q0 -54 6 -78l219 219l-156 258l-69 -71v-328z" />
<glyph unicode="f" horiz-adv-x="483" d="M-72 881l178 176v129l318 317l186 -194l-192 -193l-154 158l-92 -92l168 -168l248 -45l-180 -178l-58 10v-584l68 -70l-176 -178l-136 135v742z" />
<glyph unicode="g" horiz-adv-x="935" d="M74 -293l213 221q10 -70 51.5 -121t103.5 -51q65 0 127 68l21 22v342l-260 -221l-248 248v447l430 430l322 -322v-752l-316 -317q-67 -67 -116.5 -89t-120.5 -22q-58 0 -119 33t-88 84zM326 369l153 -199l111 94v422l-207 207l-57 -57v-467z" />
<glyph unicode="h" horiz-adv-x="940" d="M20 2l82 82v1165l-77 78l178 178l143 -145v-537l268 269l244 -256v-621l66 -68l-176 -178l-134 133v596l-159 164l-109 -110v-494l-289 -289z" />
<glyph unicode="i" horiz-adv-x="428" d="M25 913l176 179l135 -136v-739l67 -70l-176 -178l-135 135v740zM76 1290q0 62 41 103t102 41t102 -41t41 -103t-41 -102.5t-102 -40.5t-102 40.5t-41 102.5z" />
<glyph unicode="j" horiz-adv-x="477" d="M-188 -188l202 211q0 -50 1.5 -80.5t7.5 -66.5t19.5 -53.5t35.5 -17.5q24 0 43 19l20 20v1000l-67 69l176 179l135 -136v-938l-315 -317q-61 -61 -127 -61q-49 0 -90 55t-41 117zM125 1290q0 62 41 103t102 41q62 0 103 -41t41 -103q0 -61 -41 -102t-103 -41t-102.5 40.5 t-40.5 102.5z" />
<glyph unicode="k" horiz-adv-x="894" d="M25 1327l178 178l143 -145v-940l238 237v189l243 246v-269l-204 -205l204 -202v-203l66 -68l-176 -178l-133 133v179l-156 145l-82 -82v-106l-266 -267l-41 37l63 64v1179z" />
<glyph unicode="l" horiz-adv-x="448" d="M25 1327l178 178l143 -145v-1145l66 -68l-176 -178l-134 133v1147z" />
<glyph unicode="m" horiz-adv-x="1312" d="M20 2l82 82v752l-77 77l178 179l143 -144v-76l219 220l221 -222l222 222l206 -207v-662l66 -67l-176 -179l-133 134v677l-99 99l-92 -94v-535l-288 -289l-37 33l82 82v696l-107 107l-84 -86v-543l-289 -289z" />
<glyph unicode="n" horiz-adv-x="956" d="M20 2l82 82v752l-77 77l178 179l143 -146v-123l268 269l244 -256v-621l66 -68l-176 -178l-134 133v596l-159 164l-109 -110v-494l-289 -289z" />
<glyph unicode="o" horiz-adv-x="931" d="M102 256v406l430 430l322 -322v-334q0 -78 -15.5 -117t-45.5 -69l-203 -197q-42 -40 -89.5 -62t-119.5 -22q-122 0 -200.5 73t-78.5 214zM346 346q0 -130 42 -182.5t116 -52.5q55 0 80.5 23.5t25.5 74.5v459l-213 215l-51 -52v-485z" />
<glyph unicode="p" horiz-adv-x="935" d="M20 -406l82 82v1166l-71 71l178 179l137 -140v-129l268 269l244 -242v-549l-338 -332l-174 174v-293l-289 -288zM346 451l268 -269v531l-155 153l-113 -114v-301z" />
<glyph unicode="q" horiz-adv-x="956" d="M102 256v406l430 430l322 -322v-889l-287 -291l-37 37l80 82v479l-223 -221zM346 410l199 -209l65 63v422l-207 207l-57 -57v-426z" />
<glyph unicode="r" horiz-adv-x="665" d="M25 913l178 179l143 -146v-123l217 217l164 -176l-190 -190l-134 137l-57 -59v-537l66 -68l-176 -178l-134 133v734z" />
<glyph unicode="s" horiz-adv-x="804" d="M27 190l178 177q12 -23 26.5 -44t41 -49t56 -48.5t73 -35t90.5 -14.5q112 0 167 55l-598 287v207l367 367l399 -189l-196 -198l-348 163l-99 -98l586 -281v-233l-235 -236q-73 -51 -185 -51q-101 0 -196 67.5t-127 153.5z" />
<glyph unicode="t" horiz-adv-x="569" d="M-37 881l418 419v-288l254 -45l-180 -181l-74 15v-520l131 -134l-176 -178l-197 197v680z" />
<glyph unicode="u" horiz-adv-x="960" d="M37 913l176 179l133 -134v-596l160 -163l108 110v539l244 244v-867l78 -78l-178 -178l-144 146v123l-268 -269l-244 256v621z" />
<glyph unicode="v" horiz-adv-x="935" d="M37 913l176 179l133 -134v-536l219 -223l49 51v598l244 244v-666l-452 -457l-304 316v561z" />
<glyph unicode="w" horiz-adv-x="1316" d="M37 913l176 179l133 -134v-677l107 -107l108 111v561l-65 67l176 179l133 -134v-708l145 -107l45 47v658l244 244v-730l-391 -393l-301 230l-230 -230l-215 215v662z" />
<glyph unicode="x" horiz-adv-x="843" d="M27 -31v348l225 226l-225 352l192 197l346 -543l8 8v256l244 244v-328l-223 -223l217 -340l-193 -197l-339 529l-9 -9v-276z" />
<glyph unicode="y" horiz-adv-x="946" d="M27 913l176 179l133 -134v-620l147 -139l121 123v526l244 244v-945q0 -78 -16 -119t-46 -71l-254 -256q-67 -67 -116.5 -89t-120.5 -22q-61 0 -121 27t-86 76l213 221q2 -65 46.5 -111.5t109.5 -46.5t127 68l20 22v406l-280 -283l-232 232v645z" />
<glyph unicode="z" horiz-adv-x="714" d="M-16 911l184 185l620 -99l-198 -196l-285 -572l430 -63l-196 -197l-529 97l387 772z" />
<glyph unicode="{" horiz-adv-x="501" d="M-76 530v50q0 4 4 4q87 0 123.5 49.5t36.5 167.5v82q0 92 28 192.5t95 167.5l260 260l37 -37l-111 -110q-65 -65 -65 -303v-273q0 -89 -44 -142.5t-138 -76.5v-2q93 -21 137.5 -70t44.5 -145v-186q0 -84 3.5 -145.5t11.5 -98.5t15.5 -59t22.5 -31t24 -10.5t27 -1.5h6 q38 0 74 45l37 -35q-84 -84 -193 -84q-126 0 -199 90.5t-73 230.5v222q0 245 -160 245q-4 0 -4 4z" />
<glyph unicode="|" horiz-adv-x="454" d="M172 -438v2048h111v-2048h-111z" />
<glyph unicode="}" horiz-adv-x="501" d="M-31 -225l111 110q65 65 65 303v273q0 89 44.5 142.5t138.5 76.5v2q-94 21 -138.5 70t-44.5 145v109q0 100 -10.5 153.5t-46.5 89.5l-78 78l178 178l97 -98q53 -53 78.5 -120.5t25.5 -162.5v-174q0 -118 37.5 -176.5t122.5 -58.5q4 0 4 -4v-49q0 -5 -4 -5 q-87 0 -123.5 -49.5t-36.5 -167.5v-82q0 -92 -28 -192.5t-95 -167.5l-260 -260z" />
<glyph unicode="~" horiz-adv-x="1177" d="M92 358l174 185q105 112 277 47l235 -111q57 -22 85 -28.5t49.5 -1t45.5 27.5l86 76l41 -41l-172 -176q-110 -110 -270 -49l-235 110q-14 5 -42 16.5t-36.5 14.5t-26.5 7t-26.5 1t-21.5 -9t-26 -19l-96 -91z" />
<glyph unicode="&#xa2;" horiz-adv-x="894" d="M76 340v285l440 440v125q0 4 4 4h49q4 0 4 -6v-127l314 -318l-191 -190l-123 121v-551q46 6 85.5 30.5t86.5 71.5l52 49l39 -34l-140 -136q-62 -62 -123 -98v-164q0 -4 -4 -4h-49q-4 0 -4 4v142q-54 -15 -90 -15q-44 0 -86.5 7.5t-92 31.5t-86 63t-61 108.5t-24.5 160.5z M319 444q0 -307 197 -323v610l-131 129l-66 -65v-351z" />
<glyph unicode="&#xa3;" horiz-adv-x="960" d="M-39 670l184 184v174l476 475l288 -250v-211l-460 -460l-37 6v-109q0 -153 86 -233l503 -80l-196 -197l-793 125l197 197l170 -27q-37 26 -70.5 57t-71.5 77.5t-63 108t-29 128.5zM412 813l170 -25l61 62v293l-168 141l-63 -61v-410z" />
<glyph unicode="&#xa5;" horiz-adv-x="1032" d="M63 500l181 180l110 -21l-284 277v311l254 256v-436l245 -238h9l127 127v287l253 262v-368l-350 -351v-176l310 -57l-183 -182l-127 24v-170l-254 -256v473z" />
<glyph unicode="&#xa6;" horiz-adv-x="331" d="M131 6v529q0 6 4 6h62q4 0 4 -6v-529q0 -6 -4 -6h-62q-4 0 -4 6zM131 899v528q0 7 4 7h62q4 0 4 -7v-528q0 -6 -4 -6h-62q-4 0 -4 6z" />
<glyph unicode="&#xa7;" horiz-adv-x="927" d="M-31 557l301 301v328l318 317l373 -381l-193 -192l-340 344l-92 -92l643 -652l-301 -301v-327l-318 -318l-372 381l192 193l340 -344l92 92zM197 715l446 -451l109 109l-447 450z" />
<glyph unicode="&#xa8;" horiz-adv-x="552" d="M-51 1386q0 56 39 95t94 39q57 0 96 -38.5t39 -95.5t-39 -96t-96 -39q-54 0 -93.5 39.5t-39.5 95.5zM336 1389q0 57 39 96t96 39q55 0 94 -39t39 -96q0 -56 -39 -95t-94 -39q-57 0 -96 38.5t-39 95.5z" />
<glyph unicode="&#xa9;" horiz-adv-x="1734" d="M88 686q0 158 58 305.5t160.5 261t255 182t329.5 68.5q209 0 380.5 -88.5t273.5 -253.5t102 -375q0 -158 -58.5 -305.5t-161.5 -261t-255.5 -182t-329.5 -68.5q-209 0 -380 88.5t-272.5 253.5t-101.5 375zM313 758q0 -208 74 -369t212.5 -251.5t320.5 -90.5q82 0 155 24 t137 76.5t110 129.5t72.5 189t26.5 249q0 208 -74.5 369t-213 251t-320.5 90q-103 0 -191.5 -39t-158.5 -117.5t-110 -209.5t-40 -301zM457 600v246l495 495l348 -368l-190 -191l-315 328l-95 -94v-311q0 -163 62 -248.5t182 -85.5q66 0 116 22.5t101 73.5l51 49l39 -35 l-139 -135q-69 -69 -132.5 -98t-143.5 -29q-74 0 -141 23.5t-120.5 69t-85.5 120t-32 168.5z" />
<glyph unicode="&#xab;" horiz-adv-x="753" d="M51 483l322 404l73 -72l-266 -332l266 -331l-73 -72zM307 483l322 404l73 -72l-266 -332l266 -331l-73 -72z" />
<glyph unicode="&#xad;" horiz-adv-x="1011" d="M10 442l195 197h796l-196 -197h-795z" />
<glyph unicode="&#xae;" horiz-adv-x="1734" d="M88 686q0 158 58 305.5t160.5 261t255 182t329.5 68.5q209 0 380.5 -88.5t273.5 -253.5t102 -375q0 -158 -58.5 -305.5t-161.5 -261t-255.5 -182t-329.5 -68.5q-209 0 -380 88.5t-272.5 253.5t-101.5 375zM313 758q0 -178 54.5 -322.5t156.5 -238.5v847l-100 101l178 178 l176 -178v-62l240 238l194 -301l-153 -152l192 -192v-270l66 -64l-178 -180l-142 141v272l-116 117l-103 -102v-254l-192 -191q143 -98 334 -98q82 0 155 24t137 76.5t110 129.5t72.5 189t26.5 249q0 208 -74.5 369t-213 251t-320.5 90q-103 0 -191.5 -39t-158.5 -117.5 t-110 -209.5t-40 -301zM778 662l211 208l-127 222l-84 -80v-350z" />
<glyph unicode="&#xaf;" horiz-adv-x="538" d="M6 1235v94h526v-94h-526z" />
<glyph unicode="&#xb0;" horiz-adv-x="823" d="M84 893v141l430 430l277 -276v-141l-431 -431zM328 995l168 -170l51 52v208l-168 170l-51 -51v-209z" />
<glyph unicode="&#xb1;" horiz-adv-x="983" d="M61 4v141q0 5 5 5h852q4 0 4 -5v-141q0 -4 -4 -4h-852q-5 0 -5 4zM61 539v141q0 4 5 4h340q6 0 6 6v266q0 7 4 7h147q4 0 4 -7v-266q0 -2 2.5 -4t3.5 -2h345q4 0 4 -4v-141q0 -4 -4 -4h-345q-6 0 -6 -7v-278q0 -6 -4 -6h-147q-4 0 -4 6v278q0 7 -6 7h-340q-5 0 -5 4z" />
<glyph unicode="&#xb2;" horiz-adv-x="833" d="M102 897v252l316 315l274 -182v-129l-411 -414l428 -65l-138 -139l-462 73v33l405 408v129l-199 133l-34 -35v-203z" />
<glyph unicode="&#xb3;" horiz-adv-x="845" d="M98 707l154 159q0 -74 42 -134t118 -60q92 0 127 35v206l-127 64l-66 -64l-27 23l187 184v105l-225 90v-185l-179 -178v232l279 280l301 -129v-92l-145 -145l180 -80v-187l-215 -215q-79 -79 -193 -79q-46 0 -83 13t-58.5 31.5t-37.5 44t-22 44t-10 37.5z" />
<glyph unicode="&#xb4;" horiz-adv-x="589" d="M109 1159l77 301q2 4 9 4h301q6 0 0 -6l-334 -299q-4 -4 -10 -4h-39q-6 0 -4 4z" />
<glyph unicode="&#xb5;" horiz-adv-x="929" d="M-78 -381l180 178v1049l-65 67l176 179l133 -134v-596l160 -163l108 110v539l244 244v-867l78 -78l-178 -178l-144 146v123l-268 -269l-82 86v-168l-303 -301z" />
<glyph unicode="&#xb6;" horiz-adv-x="1259" d="M76 1012v295l196 196l983 -153l-159 -160v-1315l108 -106l-178 -181l-184 185v1237l151 153l-426 68l-41 -41v-1315l109 -106l-178 -181l-185 185v1026z" />
<glyph unicode="&#xb7;" horiz-adv-x="454" d="M74 659q0 60 42 103t101 43q61 0 103 -42t42 -104q0 -59 -42.5 -101t-102.5 -42q-59 0 -101 42t-42 101z" />
<glyph unicode="&#xb8;" horiz-adv-x="493" d="M57 -166l219 219l64 -39q-58 -31 -113 -82l-41 -41q24 19 61.5 18t57.5 -22q29 -34 16 -86.5t-55 -95.5q-5 -5 -51.5 -53.5t-64.5 -65.5l-44 41l78 84q19 20 32 41t17.5 41.5t-8.5 32.5q-28 30 -108 -21l-19 -12z" />
<glyph unicode="&#xb9;" horiz-adv-x="671" d="M145 1182l289 288v-811l-178 -180v744l-76 -74z" />
<glyph unicode="&#xbb;" horiz-adv-x="753" d="M51 152l266 331l-266 332l74 72l321 -404l-321 -403zM307 152l266 331l-266 332l74 72l321 -404l-321 -403z" />
<glyph unicode="&#xbc;" horiz-adv-x="1476" d="M139 1178l289 288v-811l-178 -180v744l-76 -74zM303 0l680 1434h57l-680 -1434h-57zM698 305l387 -61v-277l177 178v70l71 -12l140 137l-211 35v450l-144 72l-420 -549v-43zM838 440l247 322v-359z" />
<glyph unicode="&#xbd;" horiz-adv-x="1474" d="M139 1178l289 288v-811l-178 -180v744l-76 -74zM303 0l680 1434h57l-680 -1434h-57zM782 332l179 176v203l34 34l199 -133v-129l-406 -407v-33l463 -74l138 140l-428 65l411 414v129l-274 182l-316 -315v-252z" />
<glyph unicode="&#xbe;" horiz-adv-x="1726" d="M98 707l154 159q0 -74 42 -134t118 -60q92 0 127 35v206l-127 64l-66 -64l-27 23l187 184v105l-225 90v-185l-179 -178v232l279 280l301 -129v-92l-145 -145l180 -80v-187l-215 -215q-79 -79 -193 -79q-46 0 -83 13t-58.5 31.5t-37.5 44t-22 44t-10 37.5zM469 0l680 1434 h57l-680 -1434h-57zM864 305v43l420 549l143 -72v-450l211 -35l-139 -137l-72 12v-70l-176 -178v277zM1004 440l247 -37v359z" />
<glyph unicode="&#xc0;" d="M147 -31v889l365 365v10l-80 80l189 190l458 -446v-801l109 -106l-178 -181l-185 185v479l-127 -127l-278 49l-19 -18v-306zM401 635l123 123l281 -45l20 20v193l-268 260h-8l-148 -148v-403zM479 1847q-6 6 0 6h301q6 0 8 -4l78 -301q2 -4 -4 -4h-39q-6 0 -10 4z" />
<glyph unicode="&#xc1;" d="M147 -31v889l365 365v10l-80 80l189 190l458 -446v-801l109 -106l-178 -181l-185 185v479l-127 -127l-278 49l-19 -18v-306zM401 635l123 123l281 -45l20 20v193l-268 260h-8l-148 -148v-403zM604 1561l78 301q2 4 8 4h301q6 0 0 -6l-334 -299q-5 -5 -10 -5h-39 q-6 0 -4 5z" />
<glyph unicode="&#xc2;" d="M147 -31v889l365 365v10l-80 80l189 190l458 -446v-801l109 -106l-178 -181l-185 185v479l-127 -127l-278 49l-19 -18v-306zM348 1561l123 301h299l123 -301h-55l-217 194l-218 -194h-55zM401 635l123 123l281 -45l20 20v193l-268 260h-8l-148 -148v-403z" />
<glyph unicode="&#xc3;" d="M147 -31v889l365 365v10l-80 80l189 190l458 -446v-801l109 -106l-178 -181l-185 185v479l-127 -127l-278 49l-19 -18v-306zM360 1669l156 156q22 22 56 27.5t63 -7.5l207 -100q34 -15 65 14l43 37l37 -35l-153 -155q-22 -22 -56 -28t-63 7l-203 96q-40 17 -70 -10 l-45 -37zM401 635l123 123l281 -45l20 20v193l-268 260h-8l-148 -148v-403z" />
<glyph unicode="&#xc4;" d="M147 -31v889l365 365v10l-80 80l189 190l458 -446v-801l109 -106l-178 -181l-185 185v479l-127 -127l-278 49l-19 -18v-306zM293 1710q0 56 39 94.5t94 38.5q57 0 96 -38t39 -95t-39 -96t-96 -39q-54 0 -93.5 39.5t-39.5 95.5zM401 635l123 123l281 -45l20 20v193 l-268 260h-8l-148 -148v-403zM680 1712q0 57 39 96t96 39q55 0 94 -39.5t39 -95.5t-39 -94.5t-94 -38.5q-57 0 -96 38t-39 95z" />
<glyph unicode="&#xc5;" d="M147 -31v889l365 365v10l-80 80l189 190l458 -446v-801l109 -106l-178 -181l-185 185v479l-127 -127l-278 49l-19 -18v-306zM401 635l123 123l281 -45l20 20v193l-268 260h-8l-148 -148v-403zM422 1712q0 72 57 120t139 48t139.5 -48.5t57.5 -119.5t-57.5 -119.5 t-139.5 -48.5t-139 48t-57 120zM565 1712q0 -50 15.5 -86.5t37.5 -36.5t38 36.5t16 86.5q0 48 -16 85.5t-38 37.5q-21 0 -37 -37.5t-16 -85.5z" />
<glyph unicode="&#xc6;" horiz-adv-x="1810" d="M147 -43v901l373 371l-82 84l189 190l256 -239l241 239l615 -96l-197 -197l-463 82v-581l162 161l379 -61l-188 -188l-312 55l-41 -41v-135q5 -383 279 -383q60 0 122.5 22t106.5 66l160 160l39 -35l-209 -207q-89 -89 -173 -122.5t-181 -33.5q-177 0 -287.5 113 t-110.5 309v242l-127 -127l-278 49l-19 -18v-318zM401 635l123 123l281 -45l20 20v217l-264 248l-160 -160v-403z" />
<glyph unicode="&#xc7;" horiz-adv-x="1142" d="M82 408v374q0 46 6 79t24.5 63t37 51.5t57.5 60.5l467 467l469 -420l-187 -186l-424 391l-100 -100q-48 -48 -66 -98.5t-18 -155.5v-404q0 -201 91.5 -306t252.5 -105q124 0 238 114l160 160l38 -35l-432 -430q-2 -2 2 -2h99q21 -21 27 -51.5t-9.5 -70.5t-54.5 -78 l-203 -197q-4 -4 -8 0l-29 25q-4 4 0 8l86 84q33 33 45 63t9.5 46.5t-11.5 41.5h-84l-47 -47q-4 -4 -8 0l-31 25q-4 4 0 8l203 203q2 2 1 3t-3 -1q-39 -19 -115 -19q-109 0 -202 39t-153 102t-94 141t-34 157z" />
<glyph unicode="&#xc8;" horiz-adv-x="1159" d="M129 1319l184 184l797 -125l-197 -196l-417 71l-68 -67v-475l162 161l379 -61l-189 -188l-311 55l-41 -41v-113q0 -226 64 -315.5t227 -89.5q64 0 113 16.5t104 71.5l160 160l39 -35l-246 -246q-34 -34 -71 -57t-65.5 -34.5t-66 -17.5t-58 -7t-57.5 -1q-177 0 -287 113 t-110 309v615l260 260zM451 1860q-6 6 0 6h301q6 0 8 -4l78 -301q2 -5 -4 -5h-39q-6 0 -11 5z" />
<glyph unicode="&#xc9;" horiz-adv-x="1144" d="M115 1319l184 184l797 -125l-197 -196l-418 71l-67 -67v-475l161 161l379 -61l-188 -188l-311 55l-41 -41v-113q0 -226 64 -315.5t227 -89.5q64 0 113 16.5t104 71.5l159 160l39 -35l-246 -246q-42 -42 -84.5 -67.5t-87.5 -35.5t-72 -12t-73 -2q-177 0 -287 113t-110 309 v615l260 260zM539 1561l77 301q2 4 9 4h301q6 0 0 -6l-334 -299q-5 -5 -10 -5h-39q-7 0 -4 5z" />
<glyph unicode="&#xca;" horiz-adv-x="1159" d="M129 1319l184 184l797 -125l-197 -196l-417 71l-68 -67v-475l162 161l379 -61l-189 -188l-311 55l-41 -41v-113q0 -226 64 -315.5t227 -89.5q64 0 113 16.5t104 71.5l160 160l39 -35l-246 -246q-34 -34 -71 -57t-65.5 -34.5t-66 -17.5t-58 -7t-57.5 -1q-177 0 -287 113 t-110 309v615l260 260zM381 1561l123 301h299l123 -301h-56l-217 194l-217 -194h-55z" />
<glyph unicode="&#xcb;" horiz-adv-x="1159" d="M129 1319l305 -53l-260 -260v-615q0 -196 110 -309t287 -113q37 0 57.5 1t58 7t66 17.5t65.5 34.5t71 57l246 246l-39 35l-160 -160q-55 -55 -104 -71.5t-113 -16.5q-163 0 -227 89.5t-64 315.5v113l41 41l311 -55l189 188l-379 61l-162 -161v475l68 67l417 -71l197 196 l-797 125zM326 1710q0 56 39 94.5t94 38.5q57 0 96 -38t39 -95t-39 -96t-96 -39q-55 0 -94 39.5t-39 95.5zM713 1712q0 57 39 96t96 39q54 0 93.5 -39.5t39.5 -95.5t-39 -94.5t-94 -38.5q-57 0 -96 38t-39 95z" />
<glyph unicode="&#xcc;" horiz-adv-x="581" d="M-57 27l221 221v835l168 168l-389 60l192 192l451 -71l-168 -168v-836l-211 -211l336 -49l-201 -199zM66 1860q-6 6 0 6h301q6 0 8 -4l78 -301q3 -5 -4 -5h-39q-6 0 -11 5z" />
<glyph unicode="&#xcd;" horiz-adv-x="581" d="M-57 27l221 221v835l168 168l-389 60l192 192l451 -71l-168 -168v-836l-211 -211l336 -49l-201 -199zM172 1561l78 301q2 4 8 4h301q6 0 0 -6l-334 -299q-5 -5 -10 -5h-39q-6 0 -4 5z" />
<glyph unicode="&#xce;" horiz-adv-x="581" d="M-57 27l221 221v835l168 168l-389 60l192 192l451 -71l-168 -168v-836l-211 -211l336 -49l-201 -199zM-8 1561l123 301h299l123 -301h-56l-217 194l-217 -194h-55z" />
<glyph unicode="&#xcf;" horiz-adv-x="581" d="M-57 27l399 -58l201 199l-336 49l211 211v836l168 168l-451 71l-192 -192l389 -60l-168 -168v-835zM-47 1710q0 56 39 94.5t94 38.5q57 0 96 -38t39 -95t-39 -96t-96 -39q-54 0 -93.5 39.5t-39.5 95.5zM340 1712q0 57 39 96t96 39q55 0 94 -39.5t39 -95.5t-39 -94.5 t-94 -38.5q-57 0 -96 38t-39 95z" />
<glyph unicode="&#xd0;" horiz-adv-x="1214" d="M-25 604l185 184v158l291 291l-273 86l178 180l291 -82q140 -40 246 -112t168.5 -164t92.5 -194t28 -210q-4 -160 -64 -297.5t-159 -233t-223 -157.5t-261 -84l-385 181l70 69v352zM328 313l413 -194q49 20 94 55t87.5 92t68 147t25.5 201q0 464 -510 605l-92 -93v-376 l295 -43l-197 -197l-98 16v-127z" />
<glyph unicode="&#xd1;" horiz-adv-x="1304" d="M119 1337l166 166l329 -182l277 -1149v1069l254 262v-1222l-314 -312l-157 154l-240 999l-37 -37v-854l-254 -262v936l277 277zM317 1665l156 156q22 22 56 27.5t63 -7.5l207 -100q34 -15 65 14l43 37l37 -35l-153 -155q-22 -22 -56 -28t-63 7l-203 96q-40 17 -70 -10 l-45 -37z" />
<glyph unicode="&#xd2;" horiz-adv-x="1232" d="M119 324v712l467 467l540 -215v-852l-376 -377q-90 -90 -267 -90q-64 0 -125 20t-116 60t-89 111.5t-34 163.5zM373 438q0 -144 72.5 -223.5t199.5 -79.5q61 0 98.5 14t67.5 44l61 61v860l-423 176l-76 -73v-779zM393 1860q-6 6 0 6h301q6 0 8 -4l78 -301q2 -5 -4 -5h-39 q-5 0 -10 5z" />
<glyph unicode="&#xd3;" horiz-adv-x="1232" d="M119 324v712l467 467l540 -215v-852l-376 -377q-90 -90 -267 -90q-64 0 -125 20t-116 60t-89 111.5t-34 163.5zM373 438q0 -144 72.5 -223.5t199.5 -79.5q61 0 98.5 14t67.5 44l61 61v860l-423 176l-76 -73v-779zM389 1561l78 301q2 4 8 4h301q6 0 0 -6l-334 -299 q-5 -5 -10 -5h-39q-7 0 -4 5z" />
<glyph unicode="&#xd4;" horiz-adv-x="1232" d="M119 324v712l467 467l540 -215v-852l-376 -377q-90 -90 -267 -90q-64 0 -125 20t-116 60t-89 111.5t-34 163.5zM313 1563l123 301h299l123 -301h-55l-217 194l-217 -194h-56zM373 438q0 -144 72.5 -223.5t199.5 -79.5q61 0 98.5 14t67.5 44l61 61v860l-423 176l-76 -73 v-779z" />
<glyph unicode="&#xd5;" horiz-adv-x="1232" d="M119 324v712l467 467l540 -215v-852l-376 -377q-90 -90 -267 -90q-64 0 -125 20t-116 60t-89 111.5t-34 163.5zM373 438q0 -144 72.5 -223.5t199.5 -79.5q61 0 98.5 14t67.5 44l61 61v860l-423 176l-76 -73v-779zM428 1669l156 156q22 22 55.5 27.5t62.5 -7.5l207 -100 q34 -15 66 14l43 37l37 -35l-154 -155q-22 -22 -56 -28t-63 7l-202 96q-40 17 -70 -10l-45 -37z" />
<glyph unicode="&#xd6;" horiz-adv-x="1314" d="M164 324q0 -92 34 -163.5t89 -111.5t116 -60t125 -20q177 0 267 90l376 377v852l-540 215l-467 -467v-712zM303 1710q0 56 39 94.5t94 38.5q57 0 96 -38t39 -95t-39 -96t-96 -39q-54 0 -93.5 39.5t-39.5 95.5zM418 438v779l76 73l424 -176v-860l-62 -61 q-30 -30 -67.5 -44t-98.5 -14q-127 0 -199.5 79.5t-72.5 223.5zM690 1712q0 57 39 96t96 39q55 0 94 -39.5t39 -95.5t-39 -94.5t-94 -38.5q-57 0 -96 38t-39 95z" />
<glyph unicode="&#xd7;" horiz-adv-x="933" d="M154 45v301l161 162l-161 164v303l313 -316l313 316v-303l-164 -164l164 -162v-301l-313 313z" />
<glyph unicode="&#xd8;" horiz-adv-x="1314" d="M68 -31l133 183q-37 76 -37 172v712l467 467l434 -174l129 174h61l-141 -192l57 -23v-852l-376 -377q-90 -90 -267 -90q-84 0 -165 34.5t-134 102.5l-100 -137h-61zM418 446l491 670l-415 174l-76 -73v-771zM422 369q17 -112 87 -173t181 -61q61 0 98.5 14t67.5 44l62 61 v788z" />
<glyph unicode="&#xd9;" d="M41 1325l178 178l199 -200v-965l151 -150l252 252v801l254 262v-1245l111 -108l-178 -181l-187 187v211l-399 -400l-258 246v989zM438 1860q-6 6 0 6h301q7 0 9 -4l77 -301q3 -5 -4 -5h-39q-5 0 -10 5z" />
<glyph unicode="&#xda;" d="M41 1325l178 178l199 -200v-965l151 -150l252 252v801l254 262v-1245l111 -108l-178 -181l-187 187v211l-399 -400l-258 246v989zM430 1561l78 301q2 4 8 4h301q6 0 0 -6l-334 -299q-5 -5 -10 -5h-39q-6 0 -4 5z" />
<glyph unicode="&#xdb;" d="M41 1325l178 178l199 -200v-965l151 -150l252 252v801l254 262v-1245l111 -108l-178 -181l-187 187v211l-399 -400l-258 246v989zM358 1559l123 301h299l123 -301h-55l-217 194l-217 -194h-56z" />
<glyph unicode="&#xdc;" d="M41 1325l178 178l199 -200v-965l151 -150l252 252v801l254 262v-1245l111 -108l-178 -181l-187 187v211l-399 -400l-258 246v989zM295 1710q0 56 39 94.5t94 38.5q57 0 96 -38t39 -95t-39 -96t-96 -39q-54 0 -93.5 39.5t-39.5 95.5zM682 1712q0 57 39 96t96 39 q55 0 94 -39.5t39 -95.5t-39 -94.5t-94 -38.5q-57 0 -96 38t-39 95z" />
<glyph unicode="&#xdd;" horiz-adv-x="1148" d="M20 1325l179 178l198 -200v-472l189 -186l178 178v418l254 262v-944q0 -114 -39 -153l-320 -322q-115 -115 -276 -115q-82 0 -173.5 52.5t-125.5 117.5l221 230q9 -41 30.5 -81.5t53 -75t76 -56t94.5 -21.5q49 0 83.5 19t68.5 53l53 53v494l-328 -328l-293 281v495z M559 1561l78 301q2 4 8 4h301q6 0 0 -6l-334 -299q-5 -5 -10 -5h-39q-7 0 -4 5z" />
<glyph unicode="&#xde;" horiz-adv-x="940" d="M86 1327l178 178l144 -145v-320l268 269l244 -242v-330l-398 -393l-114 113v-256l67 -70l-176 -178l-135 135v1161zM408 791l241 -242l27 29v352l-156 153l-112 -114v-178z" />
<glyph unicode="&#xdf;" horiz-adv-x="1124" d="M68 6l96 96v871l530 530l246 -416l-176 -176q60 0 116 -23t104.5 -69.5t75 -129.5t19.5 -191q-5 -72 -25.5 -145.5t-58 -142.5t-87.5 -122.5t-119.5 -86t-147.5 -32.5q-53 0 -100.5 17.5t-65.5 33.5l47 48q67 -42 140 -37q98 6 158 99.5t65 242.5q2 68 -9 128 t-30.5 103.5t-45.5 77.5t-56 51.5t-60 23.5t-59 -3.5t-52 -32.5l-55 -55l-33 36l228 226l-197 323l-98 -98v-866l-314 -318z" />
<glyph unicode="&#xe0;" horiz-adv-x="956" d="M102 205v457l430 430l322 -322v-537l98 -96l-168 -168l-174 174v99l-272 -273zM338 1427q-7 7 0 7h301q6 0 8 -4l78 -302q2 -4 -4 -4h-39q-6 0 -10 4zM346 358l150 -157l114 114v353l-213 215l-51 -52v-473z" />
<glyph unicode="&#xe1;" horiz-adv-x="956" d="M102 205v457l430 430l322 -322v-537l98 -96l-168 -168l-174 174v99l-272 -273zM338 1128l78 302q2 4 8 4h301q7 0 0 -7l-334 -299q-4 -4 -10 -4h-39q-6 0 -4 4zM346 358l150 -157l114 114v353l-213 215l-51 -52v-473z" />
<glyph unicode="&#xe2;" horiz-adv-x="956" d="M102 205v457l430 430l322 -322v-537l98 -96l-168 -168l-174 174v99l-272 -273zM256 1135l123 301h299l123 -301h-56l-217 194l-217 -194h-55zM346 358l150 -157l114 114v353l-213 215l-51 -52v-473z" />
<glyph unicode="&#xe3;" horiz-adv-x="892" d="M102 205v457l430 430l322 -322v-537l98 -96l-168 -168l-174 174v99l-272 -273zM219 1233l156 156q22 22 56 27.5t63 -7.5l206 -100q34 -15 66 14l43 37l37 -35l-154 -156q-22 -22 -56 -27.5t-63 7.5l-202 96q-40 17 -70 -10l-45 -37zM346 358l150 -157l114 114v353 l-213 215l-51 -52v-473z" />
<glyph unicode="&#xe4;" horiz-adv-x="956" d="M102 205l236 -236l272 273v-99l174 -174l168 168l-98 96v537l-322 322l-430 -430v-457zM205 1278q0 56 39 94.5t94 38.5q57 0 96 -38t39 -95t-39 -96t-96 -39q-54 0 -93.5 39.5t-39.5 95.5zM346 358v473l51 52l213 -215v-353l-114 -114zM592 1280q0 57 39 96t96 39 q55 0 94 -39.5t39 -95.5t-39 -94.5t-94 -38.5q-57 0 -96 38t-39 95z" />
<glyph unicode="&#xe5;" horiz-adv-x="956" d="M102 205l236 -236l272 273v-99l174 -174l168 168l-98 96v537l-322 322l-430 -430v-457zM338 1280q0 71 57.5 119.5t139.5 48.5t139 -48t57 -120t-57 -120t-139 -48t-139.5 48.5t-57.5 119.5zM346 358v473l51 52l213 -215v-353l-114 -114zM481 1280q0 -50 16 -86.5 t38 -36.5t37.5 36.5t15.5 86.5q0 48 -16 85.5t-37 37.5q-22 0 -38 -37.5t-16 -85.5z" />
<glyph unicode="&#xe6;" horiz-adv-x="1366" d="M102 205v457l430 430l271 -273l272 273l264 -281l-467 -467q26 -96 84.5 -159.5t149.5 -63.5q51 0 93 24.5t97 79.5l52 49l38 -34l-139 -136q-135 -135 -270 -135q-59 0 -113.5 14t-107.5 44.5t-90 87t-50 133.5l-278 -279zM346 358l150 -157l114 114v353l-213 215 l-51 -52v-473zM854 471q0 -44 4 -68l254 254l-197 205l-61 -63v-328z" />
<glyph unicode="&#xe7;" horiz-adv-x="856" d="M76 340v285l467 467l305 -326l-191 -191l-272 285l-66 -65v-351q0 -161 56 -242t160 -81q63 0 109 24.5t101 79.5l54 54l37 -37l-316 -314q-2 -2 2 -2h99q21 -21 27 -51.5t-9.5 -70.5t-54.5 -78l-203 -197q-4 -4 -8 0l-29 25q-4 4 0 8l86 84q33 33 45 63t9.5 46.5 t-11.5 41.5h-84l-47 -47q-4 -4 -8 0l-31 25q-4 4 0 8l203 203q2 2 1 3t-3 -1q-39 -19 -115 -19q-79 0 -131.5 13.5t-96.5 52t-64.5 113.5t-20.5 192z" />
<glyph unicode="&#xe8;" horiz-adv-x="837" d="M82 315v303l473 474l223 -334l-432 -432q51 -205 232 -205q51 0 93 24.5t97 79.5l51 49l39 -34l-139 -136q-135 -135 -270 -135q-52 0 -100 9t-98 33.5t-86.5 62t-59.5 100t-23 141.5zM326 463q0 -54 6 -78l219 219l-156 258l-69 -71v-328zM356 1427q-7 7 0 7h301 q7 0 9 -4l77 -302q2 -4 -4 -4h-39q-6 0 -10 4z" />
<glyph unicode="&#xe9;" horiz-adv-x="837" d="M82 315v303l473 474l223 -334l-432 -432q51 -205 232 -205q51 0 93 24.5t97 79.5l51 49l39 -34l-139 -136q-135 -135 -270 -135q-52 0 -100 9t-98 33.5t-86.5 62t-59.5 100t-23 141.5zM326 463q0 -54 6 -78l219 219l-156 258l-69 -71v-328zM352 1128l78 302q2 4 8 4h301 q7 0 0 -7l-333 -299q-4 -4 -11 -4h-39q-6 0 -4 4z" />
<glyph unicode="&#xea;" horiz-adv-x="837" d="M82 315v303l473 474l223 -334l-432 -432q51 -205 232 -205q51 0 93 24.5t97 79.5l51 49l39 -34l-139 -136q-135 -135 -270 -135q-52 0 -100 9t-98 33.5t-86.5 62t-59.5 100t-23 141.5zM276 1128l123 302h299l123 -302h-55l-217 195l-217 -195h-56zM326 463q0 -54 6 -78 l219 219l-156 258l-69 -71v-328z" />
<glyph unicode="&#xeb;" horiz-adv-x="837" d="M82 315q0 -79 23 -141.5t59.5 -100t86.5 -62t98 -33.5t100 -9q135 0 270 135l139 136l-39 34l-51 -49q-55 -55 -97 -79.5t-93 -24.5q-181 0 -232 205l432 432l-223 334l-473 -474v-303zM219 1278q0 56 39 94.5t94 38.5q57 0 96 -38t39 -95t-39 -96t-96 -39 q-54 0 -93.5 39.5t-39.5 95.5zM326 463v328l69 71l156 -258l-219 -219q-6 24 -6 78zM606 1280q0 57 39 96t96 39q55 0 94 -39.5t39 -95.5t-39 -94.5t-94 -38.5q-57 0 -96 38t-39 95z" />
<glyph unicode="&#xec;" horiz-adv-x="428" d="M6 1427q-7 7 0 7h303q6 0 8 -4l80 -304q2 -4 -4 -4h-39q-6 0 -10 4zM25 913l176 179l135 -136v-739l67 -70l-176 -178l-135 135v740z" />
<glyph unicode="&#xed;" horiz-adv-x="428" d="M6 1128l78 302q2 4 8 4h301q7 0 0 -7l-334 -299q-4 -4 -10 -4h-39q-6 0 -4 4zM25 913l176 179l135 -136v-739l67 -70l-176 -178l-135 135v740z" />
<glyph unicode="&#xee;" horiz-adv-x="428" d="M-72 1128l123 302h299l123 -302h-55l-217 195l-217 -195h-56zM25 913l176 179l135 -136v-739l67 -70l-176 -178l-135 135v740z" />
<glyph unicode="&#xef;" horiz-adv-x="428" d="M-127 1278q0 56 39 94.5t94 38.5q57 0 96 -38t39 -95t-39 -96t-96 -39q-54 0 -93.5 39.5t-39.5 95.5zM25 913l176 179l135 -136v-739l67 -70l-176 -178l-135 135v740zM260 1280q0 57 39 96t96 39q55 0 94 -39.5t39 -95.5t-39 -94.5t-94 -38.5q-57 0 -96 38t-39 95z" />
<glyph unicode="&#xf0;" horiz-adv-x="1144" d="M96 936l195 194l-172 170l200 203l175 -170l170 170l36 -37l-170 -168l586 -567v-412l-239 -235q-115 -115 -281 -115q-87 0 -163 24t-136.5 71.5t-95.5 126t-35 178.5v71l412 414l-250 242l-197 -197zM420 510q0 -440 272 -440q56 0 92 14.5t78 56.5v437l-248 239 l-194 -194v-113z" />
<glyph unicode="&#xf1;" horiz-adv-x="886" d="M14 2l82 82v752l-78 77l179 179l143 -146v-123l268 269l244 -256v-621l66 -68l-177 -178l-133 133v596l-159 164l-109 -110v-494l-289 -289zM152 1233l155 156q22 22 56 27.5t63 -7.5l207 -100q34 -15 65 14l43 37l37 -35l-153 -156q-22 -22 -56 -27.5t-63 7.5l-203 96 q-40 17 -70 -10l-45 -37z" />
<glyph unicode="&#xf2;" horiz-adv-x="931" d="M102 256v406l430 430l322 -322v-334q0 -78 -15.5 -117t-45.5 -69l-203 -197q-42 -40 -89.5 -62t-119.5 -22q-122 0 -200.5 73t-78.5 214zM338 1427q-7 7 0 7h301q6 0 8 -4l78 -302q2 -4 -4 -4h-39q-6 0 -10 4zM346 346q0 -130 42 -182.5t116 -52.5q55 0 80.5 23.5 t25.5 74.5v459l-213 215l-51 -52v-485z" />
<glyph unicode="&#xf3;" horiz-adv-x="931" d="M102 256v406l430 430l322 -322v-334q0 -78 -15.5 -117t-45.5 -69l-203 -197q-42 -40 -89.5 -62t-119.5 -22q-122 0 -200.5 73t-78.5 214zM336 1128l78 302q2 4 8 4h301q7 0 0 -7l-334 -299q-4 -4 -10 -4h-39q-6 0 -4 4zM346 346q0 -130 42 -182.5t116 -52.5 q55 0 80.5 23.5t25.5 74.5v459l-213 215l-51 -52v-485z" />
<glyph unicode="&#xf4;" horiz-adv-x="931" d="M102 256v406l430 430l322 -322v-334q0 -78 -15.5 -117t-45.5 -69l-203 -197q-42 -40 -89.5 -62t-119.5 -22q-122 0 -200.5 73t-78.5 214zM258 1128l123 302h299l123 -302h-55l-218 195l-217 -195h-55zM346 346q0 -130 42 -182.5t116 -52.5q55 0 80.5 23.5t25.5 74.5v459 l-213 215l-51 -52v-485z" />
<glyph unicode="&#xf5;" horiz-adv-x="931" d="M102 256v406l430 430l322 -322v-334q0 -78 -15.5 -117t-45.5 -69l-203 -197q-42 -40 -89.5 -62t-119.5 -22q-122 0 -200.5 73t-78.5 214zM217 1233l156 156q22 22 56 27.5t63 -7.5l206 -100q34 -15 66 14l43 37l37 -35l-154 -156q-22 -22 -56 -27.5t-63 7.5l-202 96 q-40 17 -70 -10l-45 -37zM346 346q0 -130 42 -182.5t116 -52.5q55 0 80.5 23.5t25.5 74.5v459l-213 215l-51 -52v-485z" />
<glyph unicode="&#xf6;" horiz-adv-x="935" d="M102 256q0 -141 78.5 -214t200.5 -73q72 0 119.5 22t89.5 62l203 197q30 30 45.5 69t15.5 117v334l-322 322l-430 -430v-406zM203 1278q0 56 39 94.5t94 38.5q57 0 96 -38t39 -95t-39 -96t-96 -39q-54 0 -93.5 39.5t-39.5 95.5zM346 346v485l51 52l213 -215v-459 q0 -51 -25.5 -74.5t-80.5 -23.5q-74 0 -116 52.5t-42 182.5zM590 1280q0 57 39 96t96 39q55 0 94 -39.5t39 -95.5t-39 -94.5t-94 -38.5q-57 0 -96 38t-39 95z" />
<glyph unicode="&#xf7;" horiz-adv-x="960" d="M10 442l195 197h796l-196 -197h-795zM360 199q0 66 43.5 108.5t108.5 42.5t108.5 -42.5t43.5 -108.5q0 -65 -44 -108.5t-108 -43.5t-108 43.5t-44 108.5zM360 883q0 66 43.5 108.5t108.5 42.5t108.5 -42.5t43.5 -108.5q0 -65 -44 -108.5t-108 -43.5t-108 43.5t-44 108.5z " />
<glyph unicode="&#xf8;" horiz-adv-x="931" d="M49 -31l92 125q-39 67 -39 162v406l430 430l197 -197l96 131h62l-123 -168l90 -88v-334q0 -78 -15.5 -117t-45.5 -69l-203 -197q-42 -40 -89.5 -62t-119.5 -22q-133 0 -209 82l-61 -82h-62zM346 373l236 321l-185 189l-51 -52v-458zM348 293q8 -100 49 -141t107 -41 q55 0 80.5 23.5t25.5 74.5v440z" />
<glyph unicode="&#xf9;" horiz-adv-x="960" d="M37 913l176 179l133 -134v-596l160 -163l108 110v539l244 244v-867l78 -78l-178 -178l-144 146v123l-268 -269l-244 256v621zM293 1430q-6 6 0 6h301q6 0 8 -4l78 -302q2 -4 -4 -4h-39q-6 0 -10 4z" />
<glyph unicode="&#xfa;" horiz-adv-x="960" d="M37 913l176 179l133 -134v-596l160 -163l108 110v539l244 244v-867l78 -78l-178 -178l-144 146v123l-268 -269l-244 256v621zM291 1128l78 302q2 4 8 4h301q7 0 0 -7l-334 -299q-4 -4 -10 -4h-39q-6 0 -4 4z" />
<glyph unicode="&#xfb;" horiz-adv-x="960" d="M37 913l176 179l133 -134v-596l160 -163l108 110v539l244 244v-867l78 -78l-178 -178l-144 146v123l-268 -269l-244 256v621zM213 1130l123 302h299l123 -302h-56l-217 195l-217 -195h-55z" />
<glyph unicode="&#xfc;" horiz-adv-x="960" d="M37 913l176 179l133 -134v-596l160 -163l108 110v539l244 244v-867l78 -78l-178 -178l-144 146v123l-268 -269l-244 256v621zM158 1278q0 56 39 94.5t94 38.5q57 0 96 -38t39 -95t-39 -96t-96 -39q-55 0 -94 39.5t-39 95.5zM545 1280q0 57 39 96t96 39q54 0 93.5 -39.5 t39.5 -95.5t-39 -94.5t-94 -38.5q-57 0 -96 38t-39 95z" />
<glyph unicode="&#xfd;" horiz-adv-x="866" d="M27 913l176 179l133 -134v-620l147 -139l121 123v526l244 244v-945q0 -78 -16 -119t-46 -71l-254 -256q-67 -67 -116.5 -89t-120.5 -22q-61 0 -121 27t-86 76l213 221q2 -65 46.5 -111.5t109.5 -46.5t127 68l20 22v406l-280 -283l-232 232v645zM455 1128l77 302q2 4 9 4 h301q7 0 0 -7l-334 -299q-4 -4 -10 -4h-39q-6 0 -4 4z" />
<glyph unicode="&#xfe;" horiz-adv-x="940" d="M86 1327l178 178l144 -145v-572l268 269l244 -242v-453l-398 -393l-114 113v-256l67 -70l-176 -178l-135 135v1536zM408 416l241 -242l27 29v475l-156 153l-112 -114v-301z" />
<glyph unicode="&#xff;" horiz-adv-x="946" d="M27 913l176 179l133 -134v-620l147 -139l121 123v526l244 244v-945q0 -78 -16 -119t-46 -71l-254 -256q-67 -67 -116.5 -89t-120.5 -22q-61 0 -121 27t-86 76l213 221q2 -65 46.5 -111.5t109.5 -46.5t127 68l20 22v406l-280 -283l-232 232v645zM156 1278q0 56 39 94.5 t94 38.5q57 0 96 -38t39 -95t-39 -96t-96 -39q-55 0 -94 39.5t-39 95.5zM543 1280q0 57 39 96t96 39q54 0 93.5 -39.5t39.5 -95.5t-39 -94.5t-94 -38.5q-57 0 -96 38t-39 95z" />
<glyph unicode="&#x131;" horiz-adv-x="428" d="M25 913l176 179l135 -136v-739l67 -70l-176 -178l-135 135v740z" />
<glyph unicode="&#x152;" horiz-adv-x="1857" d="M119 324v712l467 467l508 -203l202 203l512 -76l-196 -196l-438 76l-48 -47v-549l162 161l379 -61l-188 -188l-312 55l-41 -41v-113q0 -226 64 -315.5t227 -89.5q64 0 113 16.5t104 71.5l160 160l39 -35l-246 -246q-42 -42 -84.5 -67.5t-87.5 -35.5t-72 -12t-73 -2 q-132 0 -229.5 63t-139.5 179l-151 -152q-90 -90 -267 -90q-64 0 -125 20t-116 60t-89 111.5t-34 163.5zM373 438q0 -144 72.5 -223.5t199.5 -79.5q61 0 98.5 14t67.5 44l61 61v860l-423 176l-76 -73v-779z" />
<glyph unicode="&#x153;" horiz-adv-x="1366" d="M102 256v406l430 430l271 -273l272 273l264 -281l-467 -467q26 -96 84.5 -159.5t149.5 -63.5q51 0 93 24.5t97 79.5l52 49l38 -34l-139 -136q-135 -135 -270 -135q-94 0 -179.5 36t-135.5 116l-72 -68q-42 -40 -89.5 -62t-119.5 -22q-122 0 -200.5 73t-78.5 214zM346 346 q0 -130 42 -182.5t116 -52.5q55 0 80.5 23.5t25.5 74.5v459l-213 215l-51 -52v-485zM854 440q0 -21 4 -37l254 254l-197 205l-61 -63v-359z" />
<glyph unicode="&#x160;" horiz-adv-x="1120" d="M57 297l199 174l168 -246l301 -53l61 61v293l-682 236v268l474 473l458 -342l-180 -178l-414 311l-84 -84v-245l682 -238v-311l-446 -447l-354 64zM303 1862h55l217 -195l218 195h55l-123 -301h-299z" />
<glyph unicode="&#x161;" horiz-adv-x="741" d="M31 190l178 177q12 -23 26.5 -44t41 -49t56 -48.5t73 -35t90.5 -14.5q113 0 168 55l-598 287v207l366 367l399 -189l-196 -198l-348 163l-99 -98l586 -281v-233l-235 -236q-73 -51 -185 -51q-101 0 -196 67.5t-127 153.5zM160 1432h55l217 -195l217 195h56l-123 -302 h-299z" />
<glyph unicode="&#x178;" horiz-adv-x="1144" d="M20 1325l123 -123v-495l293 -281l328 328v-494l-53 -53q-34 -34 -68.5 -53t-83.5 -19q-50 0 -94.5 21.5t-76 56t-53 75t-30.5 81.5l-221 -230q34 -65 125.5 -117.5t173.5 -52.5q161 0 276 115l320 322q39 39 39 153v944l-254 -262v-418l-178 -178l-189 186v472l-198 200z M258 1710q0 56 39 94.5t94 38.5q57 0 96 -38t39 -95t-39 -96t-96 -39q-55 0 -94 39.5t-39 95.5zM645 1712q0 57 39 96t96 39q54 0 93.5 -39.5t39.5 -95.5t-39 -94.5t-94 -38.5q-57 0 -96 38t-39 95z" />
<glyph unicode="&#x17d;" horiz-adv-x="962" d="M-20 94l618 1127l-543 86l197 196l792 -125l-196 -196l-504 -918l625 -98l-197 -197zM334 1862h55l217 -195l217 195h56l-123 -301h-299z" />
<glyph unicode="&#x17e;" horiz-adv-x="698" d="M4 911l184 185l621 -99l-199 -196l-284 -572l430 -63l-197 -197l-528 97l387 772zM211 1430h55l217 -195l217 195h56l-123 -302h-299z" />
<glyph unicode="&#x192;" horiz-adv-x="733" d="M-16 877l180 180l69 -13l21 142l362 317l160 -194l-219 -193l-133 158l-105 -92l154 -178l240 -41l-183 -183l-88 15l-127 -906l-116 -135l-201 178l96 117l111 789z" />
<glyph unicode="&#x2c6;" horiz-adv-x="540" d="M-6 1163l123 301h299l123 -301h-56l-217 195l-217 -195h-55z" />
<glyph unicode="&#x2c7;" horiz-adv-x="528" d="M-6 1456h55l217 -194l217 194h56l-123 -301h-299z" />
<glyph unicode="&#x2d8;" horiz-adv-x="495" d="M10 1397q0 18 2 30h37q8 -79 58.5 -121t140.5 -42t140 42t58 121h37q2 -12 2 -30q0 -115 -65 -184.5t-172 -69.5t-172.5 69.5t-65.5 184.5z" />
<glyph unicode="&#x2d9;" horiz-adv-x="493" d="M170 1278q0 46 33.5 79.5t79.5 33.5t79 -33.5t33 -79.5t-33 -79.5t-79 -33.5t-79.5 33.5t-33.5 79.5z" />
<glyph unicode="&#x2da;" horiz-adv-x="909" d="M270 1317q0 71 57.5 119.5t139.5 48.5t139.5 -48.5t57.5 -119.5t-57.5 -119.5t-139.5 -48.5t-139.5 48.5t-57.5 119.5zM414 1317q0 -50 15.5 -86.5t37.5 -36.5t37.5 36.5t15.5 86.5q0 48 -16 85.5t-37 37.5t-37 -37.5t-16 -85.5z" />
<glyph unicode="&#x2db;" horiz-adv-x="493" d="M127 -236q0 75 70 165.5t188 168.5v-45q-69 -59 -112.5 -130t-43.5 -128q0 -43 35.5 -76.5t81.5 -33.5q33 0 96 32l17 -24q-93 -84 -172 -84q-66 0 -113 45.5t-47 109.5z" />
<glyph unicode="&#x2dc;" horiz-adv-x="655" d="M14 1235l156 156q22 22 56 27.5t63 -7.5l207 -100q34 -15 65 14l43 37l37 -35l-154 -156q-22 -22 -55.5 -27.5t-62.5 7.5l-203 96q-40 17 -70 -10l-45 -37z" />
<glyph unicode="&#x2dd;" horiz-adv-x="493" d="M4 1386q0 45 31 76t76 31q46 0 76 -30.5t30 -76.5t-30 -76t-76 -30q-45 0 -76 30.5t-31 75.5zM272 1389q0 46 30.5 76t76.5 30q45 0 75.5 -30.5t30.5 -75.5t-30.5 -76t-75.5 -31q-46 0 -76.5 30.5t-30.5 76.5z" />
<glyph unicode="&#x3c0;" horiz-adv-x="1157" d="M23 907l184 185l1036 -166l-182 -183l-100 15v-543l65 -68l-176 -178l-133 133v695l-295 47v-586l-289 -289l-37 33l82 82v799z" />
<glyph unicode="&#x2000;" horiz-adv-x="940" />
<glyph unicode="&#x2001;" horiz-adv-x="1880" />
<glyph unicode="&#x2002;" horiz-adv-x="940" />
<glyph unicode="&#x2003;" horiz-adv-x="1880" />
<glyph unicode="&#x2004;" horiz-adv-x="626" />
<glyph unicode="&#x2005;" horiz-adv-x="470" />
<glyph unicode="&#x2006;" horiz-adv-x="313" />
<glyph unicode="&#x2007;" horiz-adv-x="313" />
<glyph unicode="&#x2008;" horiz-adv-x="235" />
<glyph unicode="&#x2009;" horiz-adv-x="376" />
<glyph unicode="&#x200a;" horiz-adv-x="104" />
<glyph unicode="&#x2010;" horiz-adv-x="1011" d="M10 442l195 197h796l-196 -197h-795z" />
<glyph unicode="&#x2011;" horiz-adv-x="1011" d="M10 442l195 197h796l-196 -197h-795z" />
<glyph unicode="&#x2012;" horiz-adv-x="1011" d="M10 442l195 197h796l-196 -197h-795z" />
<glyph unicode="&#x2013;" horiz-adv-x="1087" d="M10 442l195 197h872l-196 -197h-871z" />
<glyph unicode="&#x2014;" horiz-adv-x="1568" d="M10 442l195 197h1354l-197 -197h-1352z" />
<glyph unicode="&#x2018;" horiz-adv-x="430" d="M72 1292q0 118 54.5 228t190.5 252l43 -43q-75 -89 -107 -146.5t-32 -101.5q0 -35 41 -47q45 -13 77 -51.5t32 -88.5q0 -63 -42.5 -106t-105.5 -43q-62 0 -106.5 43.5t-44.5 103.5z" />
<glyph unicode="&#x2019;" horiz-adv-x="430" d="M59 1354q0 63 42.5 106t105.5 43q62 0 106.5 -43.5t44.5 -103.5q0 -117 -54.5 -226.5t-190.5 -252.5l-43 43q75 89 107 146t32 101q0 35 -41 47q-45 13 -77 51.5t-32 88.5z" />
<glyph unicode="&#x201a;" horiz-adv-x="528" d="M33 -387q17 77 44 205q68 320 93.5 381t95.5 61q34 0 57 -22t23 -54q0 -9 -25.5 -74.5t-86 -193.5t-132.5 -256l-24 -47h-45z" />
<glyph unicode="&#x201c;" horiz-adv-x="780" d="M72 1292q0 118 54.5 228t190.5 252l43 -43q-75 -89 -107 -146.5t-32 -101.5q0 -35 41 -47q45 -13 77 -51.5t32 -88.5q0 -63 -42.5 -106t-105.5 -43q-62 0 -106.5 43.5t-44.5 103.5zM422 1292q0 117 55 227t191 253l43 -43q-75 -90 -107.5 -147t-32.5 -101q0 -35 41 -47 q45 -13 77 -51.5t32 -88.5q0 -63 -42.5 -106t-105.5 -43q-62 0 -106.5 43.5t-44.5 103.5z" />
<glyph unicode="&#x201d;" horiz-adv-x="780" d="M59 1354q0 63 42.5 106t105.5 43q62 0 106.5 -43.5t44.5 -103.5q0 -117 -54.5 -226.5t-190.5 -252.5l-43 43q75 89 107 146t32 101q0 35 -41 47q-45 13 -77 51.5t-32 88.5zM410 1354q0 63 42 106t105 43q62 0 107 -43.5t45 -103.5q0 -117 -55 -226.5t-191 -252.5l-43 43 q75 89 107 146t32 101q0 35 -41 47q-45 13 -76.5 51.5t-31.5 88.5z" />
<glyph unicode="&#x201e;" horiz-adv-x="833" d="M33 -387q17 77 44 205q68 320 93.5 381t95.5 61q34 0 57 -22t23 -54q0 -9 -25.5 -74.5t-86 -193.5t-132.5 -256l-24 -47h-45zM385 -387q18 84 47 221q65 308 90 367t96 59q34 0 57 -22t23 -54q0 -9 -24 -74t-84 -193.5t-135 -256.5l-25 -47h-45z" />
<glyph unicode="&#x2020;" horiz-adv-x="858" d="M-27 907l185 185l94 -15v172l254 254v-467l356 -55l-196 -197l-160 29v-805l-254 -252v1102z" />
<glyph unicode="&#x2021;" horiz-adv-x="858" d="M-27 248l185 184l94 -14v440l-279 49l185 185l94 -15v172l254 254v-467l356 -55l-196 -197l-160 29v-436l356 -55l-196 -197l-160 29v-146l-254 -252v443z" />
<glyph unicode="&#x2022;" horiz-adv-x="1024" d="M147 729q0 151 107 258t258 107t258 -107t107 -258t-107 -257.5t-258 -106.5t-258 106.5t-107 257.5z" />
<glyph unicode="&#x2026;" horiz-adv-x="1425" d="M61 88q0 51 34 85t85 34t85 -34t34 -85t-34 -85t-85 -34t-85 34t-34 85zM594 88q0 51 34 85t85 34t84.5 -34t33.5 -85t-33.5 -85t-84.5 -34t-85 34t-34 85zM1126 88q0 51 34 85t85 34t85 -34t34 -85t-34 -85t-85 -34t-85 34t-34 85z" />
<glyph unicode="&#x202f;" horiz-adv-x="376" />
<glyph unicode="&#x2030;" horiz-adv-x="2246" d="M51 893v141l430 430l277 -276v-141l-430 -431zM295 995l168 -170l51 52v208l-168 170l-51 -51v-209zM381 0l680 1434h57l-680 -1434h-57zM741 246v141l430 430l277 -276v-142l-430 -430zM985 348l168 -170l51 51v209l-168 170l-51 -51v-209zM1489 246v141l430 430 l276 -276v-142l-430 -430zM1733 348l168 -170l51 51v209l-168 170l-51 -51v-209z" />
<glyph unicode="&#x2039;" horiz-adv-x="497" d="M51 483l322 404l73 -72l-266 -332l266 -331l-73 -72z" />
<glyph unicode="&#x203a;" horiz-adv-x="497" d="M51 152l266 331l-266 332l74 72l321 -404l-321 -403z" />
<glyph unicode="&#x2044;" horiz-adv-x="1007" d="M-10 -41l915 1518h113l-912 -1518h-116z" />
<glyph unicode="&#x205f;" horiz-adv-x="470" />
<glyph unicode="&#x20ac;" horiz-adv-x="1179" d="M82 408v503l592 592l469 -420l-187 -186l-424 391l-184 -184v-574q0 -201 91.5 -306t252.5 -105q124 0 238 114l160 160l38 -35l-243 -243q-148 -146 -320 -146q-109 0 -202 39t-153 102t-94 141t-34 157z" />
<glyph unicode="&#x2122;" horiz-adv-x="2168" d="M47 1307l197 196l659 -104l-196 -197l-175 27v-420l-253 -256v561l135 135zM879 1307l198 196l123 -121v-92l213 213l201 -211l213 213l233 -223l-43 -43v-399l109 -107l-178 -180l-185 184v322l70 69l-154 158l-65 -65v-387l-285 -283l-37 35l68 67v533l-94 96l-66 -63 v-377l-282 -289l-37 33l65 67v586z" />
<glyph unicode="&#x2202;" horiz-adv-x="1255" d="M166 369v71l534 535l162 -146v191l-282 262l-263 -262l-34 37l446 446l387 -356v-828l-239 -235q-115 -115 -281 -115q-87 0 -163 24t-136.5 71.5t-95.5 126t-35 178.5zM420 510q0 -440 272 -440q56 0 92 14.5t78 56.5v336l-311 277l-131 -131v-113z" />
<glyph unicode="&#x2206;" horiz-adv-x="1236" d="M10 150l580 1353l637 -1337l-197 -197zM195 334l737 -121l-402 895z" />
<glyph unicode="&#x220f;" horiz-adv-x="1230" d="M82 -211l82 82v1370l-78 78l184 184l881 -139l-84 -84v-1278l66 -68l-177 -178l-133 133v1301l-415 72v-1217l-289 -289z" />
<glyph unicode="&#x2211;" horiz-adv-x="1105" d="M59 -109l578 576l-567 571l239 238l-192 31l196 196l793 -125l-197 -196l-534 84l-56 -56l572 -571l-172 -164l-397 -399l784 -123l-197 -197z" />
<glyph unicode="&#x221a;" horiz-adv-x="925" d="M10 4l113 395h57l193 -690l487 1725h55l-514 -1823h-55l-194 694l-86 -301h-56z" />
<glyph unicode="&#x221e;" horiz-adv-x="1548" d="M84 371v141l430 430l348 -348l326 328l276 -277v-141l-430 -430l-346 346l-328 -326zM328 473l168 -170l51 51v209l-168 170l-51 -51v-209zM1001 453l168 -170l52 51v209l-168 170l-52 -51v-209z" />
<glyph unicode="&#x222b;" horiz-adv-x="641" d="M-61 -215l192 192l154 -157l92 92l-178 178v1096l317 317l186 -194l-192 -193l-154 158l-92 -92l178 -178v-1096l-317 -318z" />
<glyph unicode="&#x2248;" horiz-adv-x="1214" d="M68 449l174 184q25 27 49 46t59.5 36.5t78.5 16.5t89 -23l236 -111q48 -23 89 -24t66 11.5t52 37.5l86 75l40 -41l-172 -176q-31 -31 -61.5 -44.5t-78 -8t-109.5 34.5l-236 110q-27 12 -54.5 13t-49.5 -5.5t-46.5 -22t-39.5 -28.5t-35 -32l-96 -90zM92 211l174 184 q30 32 60.5 46t78.5 9t111 -34l236 -111q17 -8 33 -12t32 -2t29.5 4t29 11t25 14t24.5 17.5l21 17.5t20.5 18.5t16.5 15.5l86 76l41 -41l-172 -176q-28 -28 -50 -45.5t-58 -36.5t-78 -18.5t-88 22.5l-236 111q-72 31 -114.5 25t-84.5 -46l-96 -90z" />
<glyph unicode="&#x2260;" horiz-adv-x="1214" d="M59 588l142 141q2 4 8 4h461l184 217q2 4 6 4h74q4 0 2 -4l-184 -217h163q7 0 3 -4l-144 -141q-4 -4 -8 -4h-141l-160 -189h453q6 0 2 -4l-144 -141q-4 -4 -8 -4h-428l-193 -228q-2 -4 -6 -4h-71q-4 0 -2 4l190 228h-195q-6 0 -2 4l142 141q2 4 8 4h174l158 189h-482 q-6 0 -2 4z" />
<glyph unicode="&#x2264;" horiz-adv-x="999" d="M92 70l197 196l459 -71l-635 340v98l684 395l192 -192l-622 -353v-20l557 -293v-10l-191 -191z" />
<glyph unicode="&#x2265;" horiz-adv-x="927" d="M10 156l613 450v21l-594 348l32 51l779 -451v-75l-408 -277l381 -57l-197 -197l-565 88z" />
<glyph unicode="&#x25ca;" horiz-adv-x="1214" d="M209 729l342 801h108l347 -801l-347 -801h-108zM317 729l246 -579l248 573l-250 580z" />
<glyph unicode="&#x25fc;" horiz-adv-x="1095" d="M0 0v1096h1096v-1096h-1096z" />
</font>
</defs>
</svg>
