<?xml version="1.0" standalone="no"?>
<!DOCTYPE svg PUBLIC "-//W3C//DTD SVG 1.1//EN" "http://www.w3.org/Graphics/SVG/1.1/DTD/svg11.dtd" >
<svg xmlns="http://www.w3.org/2000/svg" xmlns:xlink="http://www.w3.org/1999/xlink" version="1.1">
<metadata></metadata>
<defs>
<font id="fraktur_jmmedium" horiz-adv-x="1175" >
<font-face units-per-em="2048" ascent="1624" descent="-424" />
<missing-glyph horiz-adv-x="593" />
<glyph unicode="&#xfb01;" horiz-adv-x="849" d="M14 852l107 106q5 5 8 5q4 0 4 4v133q0 142 93.5 253t236.5 111q163 0 260 -112q31 -34 31 -80q0 -50 -33 -82.5t-82 -32.5q-37 0 -65 17.5t-42 48.5q-26 56 -67 99.5t-84 43.5q-37 0 -59.5 -27.5t-22.5 -76.5v-295q0 -4 4 -4h303q61 0 94 -26t33 -97v-592q0 -94 35 -125 q4 -4 8 0l62 61q4 4 8 0l28 -26q4 -4 0 -8l-180 -179q-2 -2 -4 -2t-3.5 1t-2.5 1q-64 42 -91.5 95.5t-27.5 128.5v573q0 47 -17 63.5t-54 16.5h-191q-4 0 -4 -4v-582q0 -66 6.5 -91.5t26.5 -43.5q2 -2 6 2l61 61q5 4 9 0l28 -26q4 -4 0 -8l-186 -185q-3 -3 -6 0 q-65 50 -88 98t-23 152v623q0 4 -4 4h-113q-6 0 -2 4z" />
<glyph unicode="&#xfb02;" horiz-adv-x="880" d="M14 852l107 106q5 5 8 5q4 0 4 4v133q0 76 24 143t68 111q110 110 242 110q114 0 190 -66t76 -194v-956q0 -94 35 -125q4 -4 8 0l70 70q4 4 8 0l29 -27q4 -4 0 -8l-189 -187q-2 -2 -4 -2t-3.5 1t-2.5 1q-64 42 -91.5 95.5t-27.5 128.5v931q0 263 -137 263 q-60 0 -94.5 -39.5t-34.5 -102.5v-280q0 -4 4 -4h221q4 -1 2 -5l-106 -106q-4 -4 -8 -4h-109q-4 0 -4 -4v-582q0 -66 6.5 -91.5t26.5 -43.5q2 -2 6 2l61 61q5 4 9 0l28 -26q4 -4 0 -8l-186 -185q-3 -3 -6 0q-65 50 -88 98t-23 152v623q0 4 -4 4h-113q-6 0 -2 4z" />
<glyph horiz-adv-x="0" />
<glyph horiz-adv-x="682" />
<glyph unicode=" "  horiz-adv-x="593" />
<glyph unicode="&#x09;" horiz-adv-x="593" />
<glyph unicode="&#xa0;" horiz-adv-x="593" />
<glyph unicode="!" horiz-adv-x="530" d="M125 88q0 51 34 85t85 34t84.5 -34t33.5 -85t-33.5 -85t-84.5 -34t-85 34t-34 85zM139 1307q0 55 27.5 85.5t73.5 30.5q112 0 112 -116q0 -155 -41 -432t-49 -426h-33q-8 149 -49 426t-41 432z" />
<glyph unicode="&#x22;" horiz-adv-x="757" d="M135 1307q0 116 90 116q56 0 79.5 -28t23.5 -88q0 -84 -34.5 -232t-41.5 -276h-41q0 106 -19 197t-38 166t-19 145zM430 1307q0 116 90 116q56 0 79.5 -28t23.5 -88q0 -84 -34.5 -232t-41.5 -276h-41q0 106 -19 197t-38 166t-19 145z" />
<glyph unicode="#" horiz-adv-x="1214" d="M-14 467l20 82q2 4 8 4h224l92 367h-240q-6 0 -2 4l21 82q2 4 8 4h235l117 450q2 4 6 4h92q4 0 2 -4l-116 -450h383l116 450q2 4 6 4h93q4 0 2 -4l-115 -450h238q6 0 2 -4l-23 -82q-4 -4 -8 -4h-234l-92 -367h252q6 0 2 -4l-22 -82q-4 -4 -9 -4h-245l-117 -459 q-2 -4 -6 -4h-90q-6 0 -4 4l116 459h-383l-116 -459q-2 -4 -6 -4h-91q-6 0 -4 4l117 459h-227q-6 0 -2 4zM338 553h383l92 367h-383z" />
<glyph unicode="$" horiz-adv-x="1302" d="M59 428l285 285l35 -33l-39 -39q-49 -49 -49 -174q0 -140 81.5 -247.5t211.5 -141.5q4 0 4 4v641q0 7 -6 10l-11 4q-143 49 -205 87q-164 101 -165 290q0 137 109.5 243.5t256.5 106.5h17q4 0 4 4v152q0 4 4 4h70q4 0 4 -4v-158q0 -4 4 -4q138 -15 239 -119 q4 -5 15 -17.5t17 -19t16.5 -17t18 -14.5t16.5 -7.5t17 -1t15 9.5l25 24l30 -36l-184 -187q-25 -25 -33 6q-59 190 -192 267q-4 0 -4 -5v-403q0 -6 4 -6q4 -1 17.5 -6.5t21.5 -7.5q95 -34 165.5 -75.5t114 -85t69.5 -96t35.5 -103t8.5 -112.5q-2 -176 -120.5 -314 t-309.5 -161q-6 0 -6 -6v-162q0 -4 -4 -4h-70q-4 0 -4 4v160q0 6 -6 6q-91 4 -167 33t-125.5 74t-80 94t-43.5 100q-24 93 -10 156q3 12 -3.5 16.5t-15.5 -4.5l-45 -45zM315 1214q0 -45 13 -79.5t31.5 -58t57 -45t72 -35.5t93.5 -35q6 0 6 4v409q0 6 -4 6q-45 9 -68 9 q-95 0 -148 -47.5t-53 -127.5zM666 72q0 -6 4 -6h12q76 0 135.5 20.5t93.5 51t56 71t30 73.5t9 66q3 119 -71.5 198t-262.5 154q-5 -3 -6 -6v-622z" />
<glyph unicode="%" horiz-adv-x="1431" d="M127 1077q0 107 46 198t113 140t134 49q119 0 203 -94.5t84 -232.5q0 -164 -90.5 -273.5t-213.5 -109.5q-83 0 -147.5 48.5t-96.5 121t-32 153.5zM279 1143q0 -71 17.5 -144.5t54.5 -127.5t83 -54q52 0 83.5 69.5t31.5 178.5q0 129 -46.5 231.5t-103.5 102.5 q-55 0 -87.5 -71t-32.5 -185zM334 4l667 1426q2 4 7 4h94q4 0 2 -4l-668 -1426q-2 -4 -6 -4h-92q-6 0 -4 4zM725 293q0 107 46 198t113 140t134 49q119 0 203 -94.5t84 -233.5q0 -164 -90.5 -273.5t-213.5 -109.5q-83 0 -147.5 48.5t-96.5 121.5t-32 154zM877 358 q0 -71 17.5 -144t54.5 -127t83 -54q52 0 83.5 69.5t31.5 178.5q0 128 -46.5 230.5t-103.5 102.5q-55 0 -87.5 -71t-32.5 -185z" />
<glyph unicode="&#x26;" horiz-adv-x="1155" d="M86 287q0 117 64.5 220t226.5 204q2 2 0 4l-47 73q-63 99 -90 161.5t-27 129.5q0 111 90 194t217 83q74 0 141.5 -23t114.5 -74t47 -120q0 -98 -47 -167.5t-147 -146.5l-64 -49q-2 -2 0 -4l234 -364l57 122q70 149 160 146q100 -3 149 -125q0 -2 -2 -4l-139 -139 q-4 -4 -8 0l-29 24q-4 4 0 8q21 16 21 45q0 20 -15.5 37t-40.5 17q-23 0 -36.5 -13.5t-26.5 -42.5l-60 -118l166 -273q22 -33 47 -33t45.5 32t20.5 102q0 4 4 4h43q4 0 4 -4q0 -99 -50.5 -161.5t-131.5 -62.5q-117 0 -182 103l-64 96q-38 -65 -79 -106.5t-101 -67 t-135 -25.5q-133 0 -231.5 88.5t-98.5 229.5zM264 360q0 -126 66 -213.5t162 -87.5q129 0 208 154l-290 455h-4q-78 -57 -110 -122t-32 -186zM379 1143q0 -31 5 -57t17.5 -53t20.5 -42t29.5 -47t29.5 -45l49 -78h5l20 15q59 40 86 92.5t27 152.5q0 97 -39.5 158t-112.5 61 q-61 0 -99 -41.5t-38 -115.5z" />
<glyph unicode="'" horiz-adv-x="569" d="M184 1307q0 55 27.5 85.5t73.5 30.5q112 0 112 -116q0 -71 -18.5 -145t-40 -166t-27.5 -197h-41q0 84 -13.5 160.5t-29.5 123t-29.5 107t-13.5 117.5z" />
<glyph unicode="(" horiz-adv-x="546" d="M78 588q0 301 123 541.5t338 375.5q4 4 4 -2v-51q0 -4 -4 -8q-96 -98 -161 -238t-91.5 -273.5t-26.5 -264.5q0 -298 63 -509.5t216 -369.5q4 -4 4 -8v-53q0 -6 -4 -2q-217 109 -339 337.5t-122 524.5z" />
<glyph unicode=")" horiz-adv-x="546" d="M4 -219q0 4 4 8q153 158 216 369.5t63 509.5q0 131 -26.5 264.5t-91.5 273.5t-161 238q-4 4 -4 8v51q0 6 4 2q215 -135 338 -375.5t123 -541.5q0 -296 -122 -524.5t-339 -337.5q-4 -4 -4 2v53z" />
<glyph unicode="*" horiz-adv-x="794" d="M51 1294q51 13 80 11q49 -2 113 -43l110 -74l4 61q5 67 -4 108t-45 77l86 63q76 -72 66 -184l-8 -133l57 28q32 17 49 27.5t36.5 26.5t31 35.5t18.5 45.5l94 -43q-19 -101 -123 -149l-120 -59l53 -35q76 -53 127 -58q25 0 55 9l12 -105q-41 -13 -79 -10q-56 2 -113 43 l-111 72l-4 -60q-5 -67 4 -107.5t45 -76.5l-86 -64q-75 72 -65 185l8 131l-57 -27q-60 -29 -90.5 -57.5t-44.5 -77.5l-95 43q21 105 123 150l119 57l-51 37q-70 49 -127 55q-36 0 -56 -6z" />
<glyph unicode="+" horiz-adv-x="974" d="M57 414v141q0 4 4 4h340q7 0 7 6v377q0 6 4 6h147q4 0 4 -6v-377q0 -1 2.5 -3.5t3.5 -2.5h344q5 0 5 -4v-141q0 -4 -5 -4h-344q-6 0 -6 -7v-385q0 -6 -4 -6h-147q-4 0 -4 6v385q0 7 -7 7h-340q-4 0 -4 4z" />
<glyph unicode="," horiz-adv-x="399" d="M78 76q0 49 32 81.5t80 32.5q47 0 82 -33t35 -79q0 -90 -42.5 -174.5t-147.5 -194.5q-4 -4 -8 0l-25 23q-4 4 0 8q109 129 109 192q0 28 -31 37q-35 9 -59.5 39t-24.5 68z" />
<glyph unicode="-" horiz-adv-x="976" d="M59 414l142 141q2 4 8 4h706q7 0 3 -4l-144 -141q-4 -4 -8 -4h-705q-6 0 -2 4z" />
<glyph unicode="." horiz-adv-x="391" d="M61 88q0 51 34 85t85 34t85 -34t34 -85t-34 -85t-85 -34t-85 34t-34 85z" />
<glyph unicode="/" horiz-adv-x="610" d="M-39 -203l586 1694q2 4 6 4h94q4 0 2 -4l-586 -1694q-2 -4 -6 -4h-92q-6 0 -4 4z" />
<glyph unicode="0" horiz-adv-x="1249" d="M63 657q0 118 26 234.5t78 219.5t122 182t165.5 125t202.5 46q100 0 187.5 -42t148.5 -111t105.5 -156.5t66 -179.5t21.5 -180q0 -133 -24.5 -255t-74.5 -226t-120.5 -181t-168.5 -120.5t-212 -43.5q-143 0 -262 87t-190 245.5t-71 355.5zM266 795q0 -148 21 -274.5 t56 -213.5t81 -148.5t96 -90.5t101 -29q86 0 152.5 35.5t106 91.5t64.5 136.5t34 160.5t9 172q0 758 -364 758q-92 0 -163 -52.5t-112 -140t-61.5 -190.5t-20.5 -215z" />
<glyph unicode="1" horiz-adv-x="729" d="M90 1227q-4 4 0 8l223 223q2 2 9 2q72 -19 102.5 -69t30.5 -150v-985q0 -96 43 -125q5 -3 7 -1q0 1 1 1l63 64q5 5 9 0l26 -25q4 -4 0 -8l-194 -191q-2 -2 -4 -2t-4 1l-1 1q-125 81 -125 226v1040q0 36 -26 48.5t-51 -11.5l-74 -72q-4 -4 -8 0z" />
<glyph unicode="2" horiz-adv-x="1085" d="M0 4l166 170q50 53 90 53q11 0 23 -2q9 0 12 2q76 68 221 256q130 171 176.5 298.5t46.5 273.5t-77.5 246t-190.5 100q-97 0 -161 -70.5t-64 -177.5q0 -74 33.5 -124.5t78.5 -55.5q41 -4 70 16q14 10 37 33q4 4 8 0l27 -25q4 -4 0 -8l-222 -221q-4 -2 -8 0 q-71 37 -120.5 107.5t-49.5 158.5q0 115 59.5 215t158.5 157.5t212 57.5q181 0 291.5 -113.5t110.5 -275.5q0 -42 -5.5 -83t-13.5 -75t-23.5 -71.5t-27 -63.5t-33.5 -60t-34.5 -52.5t-38 -50t-35.5 -43t-35.5 -40.5t-30.5 -34q-48 -54 -157 -157t-158 -140l350 -74 q54 -14 109 -14q68 0 117 48.5t67 147.5q0 3 2.5 4t5.5 -2l29 -20q4 -2 4 -12q-4 -87 -31 -150.5t-70.5 -98t-91.5 -50t-104 -15.5q-49 0 -135 21l-359 71q-41 12 -71 8t-58 -32l-65 -66q-4 -4 -8 0l-27 25q-4 4 0 8z" />
<glyph unicode="3" horiz-adv-x="1081" d="M84 289q0 8 6 14l207 205q4 4 8 0l27 -25q4 -4 0 -8q-18 -22 -27 -37q-33 -48 -20 -159q13 -109 76 -178.5t176 -69.5q117 0 194.5 98.5t83.5 255.5q4 103 -16.5 176t-59 110.5t-80.5 53.5t-92 16q-72 0 -141 -69l-12 -13q-4 -4 -8 0l-27 25q-4 4 0 8l61 62 q140 140 192 231t52 197q0 105 -54 159t-149 48q-92 -6 -145 -67t-47 -155q1 -16 11 -19.5t19 3.5l27 20q5 3 8 0l25 -26q4 -4 0 -8l-242 -240q-3 -2 -5.5 0t-2.5 4q-28 140 19 271t151.5 211.5t235.5 80.5q165 0 246 -61.5t81 -169.5q0 -26 -5 -51.5t-10 -46t-20 -46.5 t-22 -40.5t-30 -41t-31 -36.5t-37 -38t-35.5 -34t-40 -36t-37.5 -34q-3 -1 -1.5 -3.5t3.5 -0.5q50 29 109 29q52 0 102.5 -23.5t93 -68t68.5 -117.5t26 -162q0 -98 -34 -190t-96 -164.5t-158 -116t-211 -43.5q-93 0 -178 36.5t-149.5 110.5t-84.5 173z" />
<glyph unicode="4" horiz-adv-x="1017" d="M-43 301q-4 4 0 8q157 159 289.5 327.5t213 304t125 241t44.5 161.5q0 27 -8.5 45t-26 27t-29.5 12.5t-33 6.5q-8 0 -2 6l15 22q2 2 8 2q110 0 179 -32.5t69 -100.5q0 -53 -27 -104q-4 -8 -4 -13v-759q0 -4 4 -6q9 -3 41 -3q41 0 72 8t51.5 24t32 30t24.5 35q5 5 9 0 l26 -25q3 -3 0 -8q-18 -36 -34.5 -61t-47 -56.5t-74.5 -48.5t-100 -18q-4 0 -4 -9v-149q0 -84 68 -84q22 0 39.5 8.5t42.5 34.5q4 4 8 0l28 -25q4 -4 0 -8l-38 -39q-50 -50 -82.5 -68t-81.5 -18q-25 0 -49 10.5t-48.5 34.5t-39.5 72t-15 115v127q0 4 -4 4q-241 24 -377 24 q-55 0 -114 -16.5t-93 -44.5l-22 -19q-4 -4 -8 0zM190 459q-2 -2 1 -3l2 1q48 26 122 26q31 0 283 -20q4 0 4 4v133q0 111 9 266.5t18 194.5q2 8 -4 2q-83 -144 -210 -324t-225 -280z" />
<glyph unicode="5" horiz-adv-x="1060" d="M59 240q0 10 4 14l216 207q4 4 8 0l26 -23q5 -5 2 -8q-30 -47 -42 -112t-2.5 -127.5t57.5 -107.5t129 -48q127 -5 203.5 89t76.5 308q0 173 -81 277t-201 104q-41 0 -78 -16t-72.5 -50.5t-57 -60t-56.5 -72.5q-4 -5 -5.5 -7.5t-4.5 -6t-5 -6.5q-4 -4 -8 0l-27 24 q-3 3 0 9q21 49 29 118l70 682q0 7 6 7h67q2 0 6 -4q28 -28 75.5 -44t69.5 -18t36 -2q211 0 327 96q5 4 9 0l26 -22q5 -5 2 -8q-102 -122 -184.5 -172t-204.5 -50q-90 0 -174 43q-6 3 -6 -2l-49 -481q0 -6 4 -2q43 58 117 104t161 46q80 0 153.5 -32t129 -88t88.5 -138.5 t33 -176.5q0 -229 -139.5 -375t-370.5 -139q-126 3 -228 77.5t-135 193.5z" />
<glyph unicode="6" horiz-adv-x="1085" d="M96 647q0 133 41 277t109.5 264t170.5 198t212 78q123 0 195 -52t110 -150q2 -3 1.5 -9.5t-3.5 -9.5l-162 -151q-4 -4 -8 0l-27 22q-5 5 -2 8q48 68 41 148q-2 20 -11.5 42t-27 44t-48.5 36.5t-69 14.5q-67 0 -124 -43t-96.5 -114.5t-67.5 -164t-41 -191.5t-13 -198 q0 -26 5 -41q0 -2 1 -2l1 2q24 99 115 177.5t218 78.5q76 0 143.5 -26t120.5 -75.5t84.5 -130t32.5 -181.5q2 -144 -54 -265.5t-158 -192.5t-226 -71q-100 0 -180 38t-132 102t-86.5 152t-49.5 183.5t-15 202.5zM303 393q0 -140 77.5 -252t186.5 -112q118 0 187 97.5 t69 246.5q0 226 -75 334t-199 108q-101 0 -173.5 -113.5t-72.5 -308.5z" />
<glyph unicode="7" horiz-adv-x="858" d="M-20 1069l100 404q0 4 4 4h45q4 0 4 -4q0 -2 -1 -10.5t-1 -10.5q-2 -14 10.5 -25t39 -17.5t56.5 -11t75 -6.5t81.5 -2.5t87.5 -0.5h31h41t44.5 0.5t52 2t51.5 4t54.5 6t50 9t49.5 13t42 16.5q3 1 6 -2l29 -25q4 -4 0 -8l-279 -352q-78 -99 -110.5 -237t-32.5 -335v-319 q0 -6 -6 -12l-180 -181q-3 -3 -6 0q-1 0 -1 2v383q0 234 58 388.5t190 310.5l176 209q2 3 1 4t-5 0q-161 -41 -469 -41q-87 0 -140.5 -29.5t-94.5 -126.5q0 -4 -4 -4h-45q-4 0 -4 4z" />
<glyph unicode="8" horiz-adv-x="1052" d="M94 342q0 276 285 410q3 1 -2 6q-118 84 -167.5 163.5t-49.5 188.5q0 159 108 256.5t281 97.5q138 0 241 -82.5t103 -203.5q0 -66 -19.5 -122t-56.5 -99.5t-77 -75t-93 -62.5q-4 -4 -2 -6q161 -94 236 -191t75 -229q0 -76 -31.5 -151t-87.5 -136t-140.5 -99t-182.5 -38 q-86 0 -161 23.5t-133 68.5t-92 117.5t-34 163.5zM227 360q0 -142 82.5 -238.5t194.5 -96.5q133 0 205.5 80.5t72.5 187.5q0 93 -34.5 161.5t-103 126t-198.5 132.5q-8 6 -14 0q-97 -48 -151 -139.5t-54 -213.5zM307 1204q0 -112 60 -185.5t211 -166.5q3 -2 5 -2t3 1t2 1 q91 49 125.5 119t34.5 168q0 108 -63 185t-163 77q-94 0 -154.5 -59t-60.5 -138z" />
<glyph unicode="9" horiz-adv-x="1056" d="M84 958q0 218 120 362t310 144q215 0 331 -152t116 -429q0 -132 -16 -257.5t-54.5 -248t-95 -212.5t-145.5 -144.5t-199 -51.5q-112 3 -210.5 52t-146.5 143q-3 5 0 8l219 211q5 5 9 0l26 -23q5 -5 2 -8q-24 -28 -41.5 -76t-9.5 -100q6 -45 54.5 -96t123.5 -51 q276 0 301 610q2 49 0 90q0 3 -2 3t-4 -3q-45 -90 -130.5 -152.5t-178.5 -62.5q-168 0 -273.5 129t-105.5 315zM258 1069q0 -206 75 -332.5t199 -126.5q71 0 128 59t86.5 150t29.5 193q0 174 -72.5 281.5t-191.5 107.5q-107 0 -180.5 -96t-73.5 -236z" />
<glyph unicode=":" horiz-adv-x="421" d="M94 94q0 51 33.5 84t83.5 33t83.5 -33t33.5 -84q0 -50 -34 -83.5t-83 -33.5t-83 33.5t-34 83.5zM94 756q0 49 33.5 82.5t83.5 33.5t83.5 -33.5t33.5 -82.5q0 -51 -33.5 -84t-83.5 -33t-83.5 33t-33.5 84z" />
<glyph unicode=";" horiz-adv-x="407" d="M78 760q0 51 34 85t85 34t84.5 -34t33.5 -85t-33.5 -85t-84.5 -34t-85 34t-34 85zM82 76q0 -38 24.5 -68t59.5 -39q31 -9 31 -37q0 -63 -109 -192q-4 -4 0 -8l25 -23q4 -4 8 0q105 110 147.5 194.5t42.5 174.5q0 46 -34.5 79t-81.5 33q-48 0 -80.5 -32.5t-32.5 -81.5z " />
<glyph unicode="&#x3c;" horiz-adv-x="972" d="M14 485v45q0 9 6 7l37 -17q32 -13 66 4l780 410q4 4 4 -2v-170q0 -2 -4 -4l-655 -324q-2 0 -2 -2t2 -2l657 -340l2 -4v-59q0 -6 -4 -2l-885 454q-4 2 -4 6z" />
<glyph unicode="=" horiz-adv-x="978" d="M59 588l142 141q2 4 8 4h706q7 0 3 -4l-144 -141q-4 -4 -8 -4h-705q-6 0 -2 4zM61 250l142 141q2 4 8 4h707q6 0 2 -4l-144 -141q-4 -4 -8 -4h-705q-6 0 -2 4z" />
<glyph unicode="&#x3e;" horiz-adv-x="972" d="M66 27v170q0 2 4 4l655 323q1 0 1 2t-1 2l-657 340l-2 4v60q0 6 4 2l884 -455q4 -2 4 -6v-45q0 -8 -6 -6l-37 16q-32 13 -65 -4l-780 -409q-4 -4 -4 2z" />
<glyph unicode="?" horiz-adv-x="888" d="M80 1063q-7 71 18 141.5t76.5 128.5t137 94.5t190.5 36.5q92 0 164.5 -29.5t116.5 -79.5t66.5 -111.5t22.5 -129.5q0 -78 -22 -145t-56.5 -114.5t-77 -89t-84.5 -77.5t-76.5 -70.5t-56.5 -77t-22 -89.5q0 -45 8 -66h-39q-38 63 -38 162q0 71 19 129t50 98t68 75t74 69 t68 70.5t50 88t19 113.5q0 87 -63 149t-181 62q-65 0 -121.5 -44.5t-88 -104t-38.5 -117.5q-19 -147 35 -201l25 -25l-41 -43q-201 195 -203 197zM338 88q0 51 34 85t85 34t84.5 -34t33.5 -85t-33.5 -85t-84.5 -34t-85 34t-34 85z" />
<glyph unicode="@" horiz-adv-x="1654" d="M98 653q0 170 60 324t165 269.5t259 184t331 68.5q127 0 235.5 -33t186 -91t132.5 -135.5t81.5 -166.5t26.5 -184q0 -89 -21.5 -170.5t-50.5 -137t-72.5 -108.5t-74 -80t-68.5 -57l-123 -96l-3 -3q-3 -3 -6.5 -4t-9.5 -1.5t-14 3.5t-18 13q-39 34 -77.5 100t-49.5 137 q0 6 -4 2l-233 -233q-6 -6 -11 0q-88 69 -153.5 185t-65.5 255q0 81 19.5 152t59 132t78.5 105.5t97 100.5l109 104q5 5 10 0l233 -233q7 -7 7 -15v-458q0 -149 88 -226q5 -5 10 -2q24 16 45 37q70 64 107.5 162.5t37.5 259.5q0 280 -163.5 444t-426.5 164 q-82 0 -160.5 -23.5t-152.5 -75.5t-129.5 -127.5t-89 -188t-33.5 -248.5q0 -153 52.5 -283.5t143 -219.5t212.5 -139t260 -50q68 0 128.5 13t102.5 31t86.5 49t69 53.5t61.5 59.5q4 4 9 0l28 -24q4 -4 0 -8q-112 -131 -241.5 -201t-313.5 -70q-155 0 -295.5 51.5t-244.5 141 t-165 217.5t-61 274zM653 782q6 -241 170 -374q5 -6 11 0l139 135q6 6 6 18v404q0 8 -6 14l-160 166q-5 5 -10 0q-154 -139 -150 -363z" />
<glyph unicode="A" d="M29 -4q-4 4 0 8l67 68q48 48 63 104.5t15 163.5v451q0 46 13 70.5t40 51.5l293 293q3 3 0 6q-39 41 -39 85v6q3 47 47 92l101 102q4 4 8 0l29 -24q4 -5 0 -9l-33 -34q-13 -14 -13 -36t13 -36l336 -328q19 -19 25.5 -34t6.5 -46v-594q0 -137 21 -204.5t80 -67.5q7 0 14 1 t13.5 3.5t11 4t11.5 6.5l10.5 7.5t11.5 10t11 10.5l12 12l13 13t9 0l28 -25q4 -4 0 -8l-63 -64q-86 -86 -170 -86q-31 0 -61 11t-61 38.5t-50 84.5t-19 137v338l-55 -52q-26 -24 -62 -28q-10 -1 -21 -1q-27 0 -58 7l-217 39q-5 1 -9 1q-30 0 -49 -30v-68q0 -103 -37 -181.5 t-108 -149.5l-141 -144q-4 -5 -9 0zM352 578l76 75q31 31 77 31q11 0 23 -2l263 -49q32 -6 32 14v207q0 26 -0.5 36t-6 24t-17.5 26l-236 227q-4 4 -8 0l-190 -190q-13 -13 -13 -43v-356z" />
<glyph unicode="B" horiz-adv-x="1193" d="M-43 35q-4 4 0 8l260 262q27 27 39.5 62t14 59.5t1.5 81.5v711q0 57 -23.5 104t-72.5 47q-37 0 -70 -33l-57 -55q-4 -4 -8 0l-29 25q-4 4 0 8l72 69q41 41 78 60.5t84 19.5q57 0 99 -20.5t64 -55.5t32 -74t10 -83v-41q0 -6 4 -2l274 274q4 4 8 0l29 -24q4 -4 0 -8 l-10 -13q-18 -20 -16 -49.5t12.5 -53.5t25.5 -44q31 -42 82 -66q27 -13 46 -13q18 0 30 11l14 12q4 4 8 0l29 -24q4 -4 0 -8l-289 -285q-2 -2 -1.5 -2.5t3.5 0.5q37 14 88 14q59 0 121 -26t117 -74.5t89 -130.5q30 -74 30 -163v-21q-4 -102 -53.5 -200t-125.5 -168.5 t-171 -113.5t-187 -43q-60 0 -127 23.5t-154 66.5t-124 58q-23 8 -44 8q-50 0 -96 -45l-69 -70q-4 -4 -8 0zM244 260q-2 -2 2 -2q16 6 33 6q39 0 90 -28q28 -14 85.5 -47t93.5 -52t88 -36t97 -17q114 0 178.5 78t73.5 219q1 24 1 46q0 157 -74 241q-86 96 -246 96 q-65 0 -127 -38.5t-86 -66.5q-2 -2 -2 -6q0 -98 -20 -161.5t-73 -116.5zM451 731l4 -2l350 344q4 4 -2 4q-70 20 -125 92q-42 53 -49 121q0 6 -4 2l-172 -172q-2 -2 -2 -6v-383z" />
<glyph unicode="C" horiz-adv-x="1214" d="M47 541q0 133 41 247.5t106 200.5t171 187l131 124q4 4 0 9l-15 14q-47 47 -90 47q-28 0 -63 -35l-39 -39q-4 -4 -8 0l-29 25q-4 4 0 8l47 47q88 88 193 88q115 0 225 -98l254 -231q71 -63 124 -63q38 0 66 32l19 20q4 4 8 0l29 -24q4 -4 0 -8l-31 -37 q-53 -62 -89.5 -84.5t-86.5 -22.5q-65 0 -117.5 26.5t-122.5 88.5l-229 205q-5 4 -9 0l-36 -37q-140 -140 -208.5 -273t-68.5 -294q0 -134 37.5 -244.5t103 -183.5t153 -112.5t187.5 -39.5q146 0 263 110.5t174 323.5q3 9 8 4l35 -18q4 -4 2 -10q-64 -263 -199 -394 t-352 -131q-88 0 -172 22.5t-158.5 70t-131 114t-89.5 161t-33 204.5z" />
<glyph unicode="D" horiz-adv-x="1232" d="M-66 59q-4 5 0 9l170 170q26 26 56 14l8 -4q4 -1 5 0.5t1 5.5v776q0 56 53 109l168 161q5 5 0 5q-65 15 -113 15q-13 0 -24 -1q-63 -4 -106 -24.5t-86 -63.5l-64 -62q-4 -4 -8 0l-29 25q-4 4 0 8l121 123q52 52 129 95.5t164 43.5q168 0 321 -64t262 -170t171 -250 q57 -134 57 -277v-23q-5 -160 -59.5 -296t-141.5 -225.5t-198 -139.5t-230 -50q-130 0 -231.5 26.5t-223.5 88.5q-25 12 -45 12q-27 0 -47 -20l-45 -43q-4 -4 -8 0zM223 227q7 -3 45 -21.5t57.5 -27t60 -26t70 -27t67.5 -20.5t74 -16t69 -5q177 0 292 131t115 360 q0 149 -50.5 274.5t-137.5 212t-195 144t-233 86.5q-4 0 -8 -4l-66 -67q-21 -21 -26 -34.5t-5 -45.5v-717q0 -42 -12.5 -64.5t-48.5 -58.5l-68 -68q-4 -4 0 -6z" />
<glyph unicode="E" d="M61 1235q-4 4 0 8l154 154q37 37 66 52t67 15q96 0 325 -52t296 -52q55 0 94 39l33 33q4 4 8 0l29 -25q4 -4 0 -8l-99 -101q-90 -90 -188 -90q-30 0 -80.5 8t-90.5 16.5t-114 25.5t-106 24q-4 0 -6 -2q-60 -67 -95 -100q-2 -2 -2 -6v-500q0 -6 6 0l203 203q4 3 8 2 l260 -64q30 -9 57 -6t50 27l33 32q4 4 8 0l29 -24q4 -4 0 -8l-134 -136q-36 -36 -89 -36q-25 0 -54 8l-237 61q-5 2 -9 -2l-125 -125q-6 -6 -6 -14v-96q0 -412 363 -412q134 0 234 75t163 199q3 5 6 2l31 -22q3 -3 0 -8q-42 -74 -84 -130t-104 -112.5t-144 -87.5t-178 -31 q-100 0 -183.5 27.5t-147 82t-99 144t-35.5 205.5v664q0 4 6 10q145 95 215 190q4 4 -2 4q-83 17 -129 17q-55 0 -96 -35q-9 -7 -70 -68q-4 -4 -8 0z" />
<glyph unicode="F" horiz-adv-x="1038" d="M12 1237q-4 4 0 8l152 152q37 37 66 52t67 15q97 0 324 -52t290 -52q39 0 60 18l57 54q4 4 8 0l29 -25q4 -4 0 -8l-92 -90q-6 -5 -25 -24.5t-25 -24.5t-22.5 -19t-26.5 -18t-26.5 -11.5t-33.5 -9.5t-38 -2q-26 0 -70 9t-131.5 31.5t-119.5 29.5q-4 0 -6 -2 q-67 -74 -95 -101q-2 -2 -2 -6v-434q0 -6 6 0l172 172q4 4 9 2l227 -59q22 -5 41 -6q43 0 70 28l32 33q5 5 9 0l28 -25q4 -4 0 -8l-133 -135l-11.5 -11.5t-17.5 -11.5t-27.5 -11t-36.5 -2.5t-50 7.5l-209 56q-4 2 -8 -2l-95 -95q-6 -6 -6 -14v-338q0 -128 19.5 -175.5 t77.5 -47.5q28 0 55 18t63 54q4 4 8 0l29 -25q4 -4 0 -8l-69 -68q-86 -86 -170 -86q-32 0 -61 8.5t-60.5 30t-50.5 68.5t-19 114v891q0 5 4 9q56 35 118 87.5t99 102.5q4 4 -2 4q-96 29 -180 29q-55 0 -96 -35q-9 -7 -68 -66q-4 -4 -8 0z" />
<glyph unicode="G" horiz-adv-x="1271" d="M49 612q-1 17 -1 34q0 82 16 167q20 102 59.5 196.5t101.5 177.5t138 144.5t172.5 97t201.5 35.5q155 0 281.5 -74t150.5 -200q2 -9 2 -18q0 -47 -43 -93l-159 -161q-4 -4 -8 0l-29 24q-4 4 0 8q67 67 67 158q0 49 -22 99t-60 90.5t-94.5 66t-120.5 25.5q-119 0 -213 -57 t-149.5 -151t-84 -206t-28.5 -232q0 -136 30.5 -250t82 -191.5t119 -131t140.5 -78t149 -24.5q94 0 163.5 35.5t110.5 86.5q6 6 0 9q-53 33 -53 88v145q0 84 59 143q5 5 0 7l-180 67q-33 13 -63 13q-53 0 -97 -39q-9 -8 -28.5 -28.5t-24.5 -25.5q-4 -4 -8 0l-29 25q-4 4 0 8 l147 143q60 60 127 60q32 0 66 -14l190 -76q25 -10 41 6l54 49q4 4 8 0l29 -25q4 -4 0 -8l-78 -80q-22 -23 -33 -47t-12.5 -40t-1.5 -46v-147q0 -40 10.5 -60t36.5 -41q3 -3 0 -6l-164 -164q-63 -61 -155 -99t-195 -38q-123 0 -231.5 42.5t-193 121.5t-136.5 202.5 t-58 276.5z" />
<glyph unicode="H" horiz-adv-x="1323" d="M0 1329q-4 4 0 8l33 33q45 45 85 69.5t85 24.5q56 0 97 -24t60.5 -62.5t28 -74t8.5 -70.5v-453l66 62q30 30 75 30q12 0 25 -2l330 -55q28 -5 41 12v365q0 50 10 75t31 46l182 184q4 4 8 0l29 -24q4 -5 0 -9l-53 -55q-29 -29 -29 -100v-1127q0 -40 16.5 -71t45.5 -37 q4 -1 8 -1q26 0 61 33l39 39q4 4 8 0l29 -24q4 -4 0 -8l-84 -84q-60 -60 -129 -60q-30 0 -57 11t-54.5 36.5t-44 77.5t-16.5 125v531l-57 -54q-27 -25 -53 -28q-6 -1 -13 -1q-23 0 -57 7l-281 45q-27 5 -42.5 3t-33.5 -15v-267q0 -53 -9 -93.5t-31 -76t-42.5 -59.5 t-60.5 -64l-174 -176q-4 -4 -8 0l-29 25q-4 4 0 8l74 74q55 55 78.5 108.5t23.5 126.5v938q1 51 -27 79q-25 26 -60 26h-8q-40 -3 -71 -35l-16 -16q-4 -4 -8 0z" />
<glyph unicode="I" horiz-adv-x="622" d="M-53 1262q-4 4 0 8l164 162q28 28 70 32q10 1 20 0q32 0 63 -8l250 -47q28 -5 43.5 1.5t30.5 21.5l30 30q4 4 9 0l28 -24q4 -4 0 -8l-202 -203q-50 -50 -50 -117v-618q0 -47 -17 -89.5t-34 -64.5t-47 -53l-88 -88l289 -78q28 -8 43.5 -4.5t32.5 20.5l41 41q4 4 8 0 l28 -24q5 -4 0 -9l-112 -114q-37 -37 -76 -53q-19 -8 -42 -8q-24 0 -52 9l-234 68q-31 11 -50 8t-42 -26l-53 -54q-4 -4 -8 0l-29 25q-4 4 0 8l186 187q42 42 60 80.5t18 105.5v612q0 52 11.5 76t44.5 57l122 125l-307 56q-17 5 -30 1.5t-17.5 -6.5t-13.5 -12l-51 -51 q-4 -5 -9 0z" />
<glyph unicode="J" horiz-adv-x="806" d="M47 102q-4 20 -4 39q0 52 31 103q43 71 149 170l78 75q4 4 8 0l29 -24q4 -4 0 -8l-39 -41q-82 -91 -82 -234q0 -79 32.5 -117t80.5 -38q125 0 125 204v723q0 42 1.5 61t14 50.5t39.5 58.5l133 133q1 1 1 3t-1 2q-65 1 -187 27t-202 26q-64 0 -117 -53l-47 -48q-4 -4 -8 0 l-29 25q-4 4 0 8l150 150q32 32 68 49.5t91 17.5q62 0 187 -27.5t201 -27.5q38 0 65 27l29 26q4 4 8 0l29 -24q4 -4 0 -8l-211 -213q-18 -18 -26.5 -44.5t-9.5 -42t-1 -53.5v-596q0 -98 -21.5 -187.5t-63.5 -163t-112.5 -117.5t-159.5 -44q-200 0 -229 133z" />
<glyph unicode="K" horiz-adv-x="1128" d="M-39 1333q-4 4 0 8l45 45q42 41 75.5 59.5t80.5 18.5q46 0 81.5 -15.5t56 -39t34 -56t18 -62.5t4.5 -62v-602q0 -20 14 -34.5t36 -14.5q16 0 34 18l295 289q49 49 49 127v180q0 80 31 111l195 194q4 4 8 0l29 -24q5 -5 0 -9l-56 -57q-17 -17 -22.5 -37.5t-5.5 -60.5v-211 q0 -14 -5 -28.5t-9.5 -24.5t-18.5 -26.5t-20 -23t-27 -27t-27 -26.5l-180 -178q-2 -2 -1.5 -2.5t3.5 0.5q40 17 79 17q9 0 19 -1q88 -11 148.5 -77t60.5 -164v-371q0 -50 35 -63q10 -4 20 -4q25 0 47 24l58 57q4 4 8 0l29 -24q4 -4 0 -9l-135 -137q-41 -41 -105 -41 q-53 0 -94 35t-41 117v354q0 76 -44 134.5t-124 58.5q-52 0 -125 -68l-59 -57q-23 -23 -58 -23q-25 0 -37 12q-4 4 -4 0v-92q0 -69 -20 -123.5t-46 -86.5t-79 -85l-172 -174q-4 -4 -8 0l-29 25q-4 4 0 8l59 59q66 66 91.5 120t25.5 130v959q0 41 -21 69.5t-57 28.5 q-40 0 -67 -27l-35 -34q-4 -4 -8 0z" />
<glyph unicode="L" horiz-adv-x="931" d="M4 -4q-4 4 0 8l174 172q19 19 29 27.5t28 16t39 7.5q2 0 64 -8l2 4q-211 162 -211 369v383q0 131 52.5 243.5t144 179t198.5 66.5q152 0 228 -90q67 -79 66 -188q0 -14 -1 -29q-10 -144 -90 -297q-13 -26 -13 -49q0 -32 25 -57l35 -35q4 -4 0 -8l-29 -25q-4 -4 -8 0 l-190 193q-14 14 -2 30q102 136 102 289q0 81 -40 136t-115 55q-69 0 -127 -67t-58 -194v-624q0 -74 25.5 -135t68 -100.5t89.5 -64.5t98 -38l186 -45q30 -11 62.5 -11t56.5 25l55 55q4 4 8 0l29 -24q4 -4 0 -8l-133 -135q-40 -43 -78 -51q-15 -3 -32 -3q-26 0 -56 8 l-448 93q-26 5 -46 5q-16 0 -29 -3q-29 -7 -57 -35l-65 -66q-4 -4 -8 0z" />
<glyph unicode="M" horiz-adv-x="1452" d="M-51 1319q-4 4 0 8l41 41q52 52 93.5 74t90.5 22q178 0 178 -204l178 178q26 26 56 26q29 0 57 -28l145 -146q14 -14 21 -30q2 -4 6 0l176 176q28 28 49 28t47 -26l185 -185q18 -18 44 -28t44 2l12 12q4 4 8 0l29 -25q4 -4 0 -8l-88 -88q-43 -43 -43 -139v-731 q0 -195 100 -195q24 0 45 21l23 22q4 4 8 0l29 -24q5 -4 0 -9l-37 -36q-58 -58 -139 -58q-26 0 -50 5t-54 21.5t-51.5 44.5t-36.5 79t-15 119v618q0 62 15 101.5t52 76.5l84 84q1 2 0 3t-2 -1q-8 -4 -22 -4q-60 0 -103 45l-161 166q-7 7 -15 -2l-104 -106l-4 -11v-768 q0 -53 -9 -93.5t-32 -77t-44 -60.5t-61 -64l-172 -174q-4 -4 -8 0l-29 25q-4 4 0 8l43 45q138 144 138 299v754q0 53 -31 84l-137 141q-4 4 -11 0l-135 -137v-750q0 -53 -9.5 -93.5t-32.5 -77t-43.5 -60t-61.5 -64.5l-172 -174q-4 -4 -8 0l-29 25q-4 4 0 8l47 47 q79 79 105 144.5t26 152.5v866v6q0 22 -0.5 34.5t-4.5 35t-12 35.5t-24.5 23t-40.5 10q-43 0 -80 -37l-26 -27q-4 -4 -9 0z" />
<glyph unicode="N" horiz-adv-x="1353" d="M33 1274q-4 4 0 8l94 92q90 90 184 90q96 0 167.5 -52t119.5 -181l406 -1024v993q0 81 32 113l185 184q4 4 8 0l26 -27q4 -4 0 -8l-51 -53q-17 -17 -22.5 -38.5t-5.5 -61.5v-936q0 -8 -7 -15l-53 -53q-65 -65 -65 -143q0 -50 31.5 -79.5t66.5 -29.5q59 0 86 62q3 7 8 2 l29 -25q4 -4 2 -8q-63 -115 -193 -115q-166 0 -235 178l-432 1070q-2 4 -4 0q-19 -27 -54 -62q-4 -4 -4 -10v-758q0 -107 -24 -165.5t-101 -137.5l-110 -113q-4 -4 -8 0l-29 25q-4 4 0 8l49 49q33 33 42 66t9 98v850q0 2 6 8q53 35 110 87.5t89 94.5q3 3 0 9 q-25 49 -67 68.5t-80 19.5q-63 0 -123 -60l-45 -45q-4 -5 -9 0z" />
<glyph unicode="O" horiz-adv-x="1355" d="M59 559q0 113 29.5 211t87 179.5t131.5 148t174 131.5q4 4 8 0l25 -23q4 -4 0 -8q-65 -50 -110.5 -99.5t-83 -116t-56 -152.5t-18.5 -193q0 -163 55 -293t161.5 -206.5t246.5 -76.5q206 0 322 149.5t116 391.5q0 334 -168 527.5t-438 193.5q-114 0 -216 -49.5 t-165 -134.5q-4 -4 -8 0l-29 24q-4 4 0 8q82 120 217.5 206.5t286.5 86.5q123 0 232 -37t191.5 -103t142.5 -153.5t91 -191.5t31 -215q0 -161 -52 -307.5t-140 -253.5t-212 -170.5t-262 -63.5q-141 0 -255.5 50.5t-186 134.5t-110 188t-38.5 217z" />
<glyph unicode="P" horiz-adv-x="1069" d="M-78 1305q-4 4 0 8l47 47q35 35 54.5 52t57.5 34.5t79 17.5q57 0 96 -24.5t57.5 -66t25.5 -80t7 -81.5v-112q0 -8 6 -2l367 364q4 4 8 0l29 -24q4 -4 0 -8l-39 -41q-8 -8 2 -11q105 -35 176.5 -90t106 -121.5t46.5 -132.5q8 -44 7 -91q0 -24 -2 -50 q-12 -129 -79.5 -231.5t-164.5 -156.5t-203 -54q-145 0 -256 81q-4 -1 -4 -2v-344q0 -46 19 -79t53 -39q8 -1 16 -1q42 0 78 35l70 70q4 4 8 0l28 -25q4 -4 0 -8l-81 -82q-88 -88 -177 -88q-25 0 -48 5.5t-50 22.5t-46.5 44.5t-32.5 77t-13 114.5v385q0 5 -2 7 q-28 28 -59 28q-26 0 -54 -28l-18 -19q-4 -4 -8 0l-29 25q-4 4 0 8l170 168v440q0 50 -20 83.5t-60 33.5q-47 0 -98 -51l-33 -33q-4 -4 -8 0zM346 733q0 -6 4 -10q185 -178 361 -178q75 0 139.5 59.5t83.5 165.5q6 33 6 66q0 56 -18 109q-28 85 -83.5 145t-129 98t-146.5 43 q-8 0 -12 -4l-201 -201q-4 -4 -4 -8v-285z" />
<glyph unicode="Q" horiz-adv-x="1378" d="M47 641q0 171 50 322t139 262t219 175t282 64q119 0 231.5 -44t202 -124t142.5 -206q49 -117 49 -256v-21q-4 -170 -70 -301.5t-135 -165.5q-30 -15 -55 -18q-6 0 -4 -4l133 -211q18 -29 41 -35.5t49 16.5l12 12q4 4 8 0l29 -24q4 -4 0 -8l-43 -41q-33 -33 -72 -50 q-26 -11 -53 -11q-14 0 -28 2q-41 9 -70 51l-205 323q-18 27 -36.5 41t-49.5 14q-44 0 -69 -22.5t-25 -61.5q0 -24 21 -49t61 -45q7 -3 4 -6l-31 -26q-3 -3 -8 -3q-52 15 -81.5 53t-29.5 91q0 79 52.5 124t119.5 48q14 1 26 1q119 0 181 -91l25 -37q9 -14 21 -14q15 0 34 24 q52 63 73 208q9 63 9 130q0 166 -37.5 294t-104.5 207.5t-156.5 120t-197.5 40.5q-68 0 -131.5 -19.5t-126 -67t-108.5 -118.5t-74.5 -182.5t-28.5 -249.5q0 -149 38.5 -279t101.5 -218t146 -138.5t171 -50.5q73 0 126.5 22.5t98.5 79.5q5 4 9 0l28 -25q4 -4 0 -8 q-57 -74 -143.5 -120t-185.5 -46q-124 0 -225.5 45.5t-164.5 116.5t-106 162.5t-60.5 178t-17.5 169.5z" />
<glyph unicode="R" horiz-adv-x="1101" d="M-63 1315q-4 4 0 8l45 45q34 34 52 49.5t53.5 31t76.5 15.5q57 0 96.5 -24.5t58 -65t26 -79t7.5 -81.5v-106q0 -6 4 -2l357 356q4 4 8 0l29 -24q4 -4 0 -8l-15 -15q-21 -21 -25 -63q-1 -14 -1 -27q-1 -29 5 -57q8 -40 23 -68q27 -54 81 -86q31 -18 54 -18q18 0 31 10 l12 10q5 4 9 0l28 -24q4 -4 0 -9l-297 -299q-1 -2 0 -3t2 1q35 17 70 17h10q242 -16 242 -326v-326q0 -81 61 -81q29 0 47 18l19 18q4 4 8 0l29 -24q4 -4 0 -8l-49 -52q-49 -49 -123 -49q-80 0 -125 51.5t-45 178.5v307q0 86 -49 130t-125 44q-75 0 -138 -66l-133 -135 q-4 -4 -4 -10v-29q0 -69 -19 -122t-44 -84t-78 -84l-176 -179q-4 -4 -8 0l-29 25q-4 4 0 8l76 76q54 54 77 113t23 141v883q0 58 -25 96t-67 41h-6q-39 0 -76 -37l-27 -27q-4 -4 -8 0zM352 551q0 -6 4 -2l408 412q4 4 -2 4q-94 23 -148 112q-36 59 -36 140q0 18 2 38 q0 4 -2 2l-222 -221q-4 -4 -4 -10v-475z" />
<glyph unicode="S" horiz-adv-x="1120" d="M43 381q-4 4 0 8l285 285q4 4 8 0l29 -25q4 -4 0 -8l-35 -37q-49 -54 -49 -184q0 -82 32.5 -150.5t85 -112t117.5 -67.5t133 -24q157 0 237 81t83 197v11q-1 37 -13 73q-14 40 -45 75t-66.5 64t-89 58.5t-98.5 51t-108 48.5q-124 53 -167 78q-200 116 -200 317 q0 143 105.5 243.5t269.5 100.5q109 0 195.5 -35t175.5 -124q6 -6 17.5 -19t17 -17.5t14 -9.5t16.5 -2.5t17 11.5l16 16q4 4 8 0l27 -22q5 -4 0 -9l-184 -186l-1 -1q-2 -2 -3 -3.5t-3.5 -3t-4.5 -2.5t-4.5 -1t-5 1t-5 4.5t-4.5 9.5q-53 142 -145 230t-193 88 q-97 0 -154 -50.5t-57 -130.5q0 -30 9 -56t22.5 -46.5t38.5 -40.5t48 -34.5t59.5 -32t64.5 -29.5t72.5 -31.5t74.5 -32.5q114 -52 191.5 -108.5t118.5 -117.5t57 -121q14 -54 14 -116v-16q-2 -78 -40 -159.5t-100 -147.5t-152.5 -108t-188.5 -42q-169 0 -281.5 71.5 t-159.5 199.5q-7 19 -11 39.5t-5.5 39.5t-1.5 33.5t1 28.5t1 16q0 8 -6 2l-43 -43q-4 -4 -8 0z" />
<glyph unicode="T" horiz-adv-x="962" d="M-31 1208q0 121 84.5 188.5t204.5 67.5q41 0 88 -8q329 -62 412.5 -76t118.5 -14q44 0 71 27l39 39q4 4 8 0l29 -25q4 -4 0 -8l-125 -131q-33 -36 -59.5 -49t-69.5 -13q-10 0 -149 21q-7 0 -9 -2l-41 -43q-20 -20 -20 -82v-864q0 -81 20 -116.5t70 -35.5q37 0 76 39 l31 31q4 4 8 0l28 -25q4 -4 0 -8l-63 -64q-48 -48 -87 -68t-89 -20q-23 0 -48.5 8.5t-55 29t-49 65t-19.5 106.5v791q0 43 6.5 67.5t14.5 35t34 36.5l123 127q6 6 -2 6l-254 47q-75 15 -100 15q-67 0 -109.5 -31.5t-42.5 -93.5q0 -55 40 -87.5t97 -37.5q8 0 2 -6l-30 -27 q-2 -2 -11 -2q-73 5 -122.5 53t-49.5 137z" />
<glyph unicode="U" horiz-adv-x="1290" d="M10 1327q-4 4 0 8l41 41q32 32 49.5 47t46.5 28t62 13q24 0 43.5 -6t33.5 -14t24.5 -23.5t17.5 -28t12 -34.5t7 -35t3.5 -38.5t1.5 -36v-34.5v-903q0 -115 66 -171t164 -56q114 0 204.5 78.5t149.5 193.5q2 4 2 11v825q0 77 31 108l190 195q4 4 8 0l29 -25q4 -4 0 -8 l-51 -53q-29 -29 -29 -100v-1065q0 -129 72 -135h6q28 0 53 24l25 25q4 4 8 0l29 -25q4 -4 0 -8l-37 -37q-49 -49 -86 -68.5t-78 -19.5q-73 0 -121.5 57t-48.5 144v53q-1 4 -4 0q-74 -128 -184 -206.5t-234 -78.5q-158 0 -250 101t-92 292v908q0 47 -7.5 71t-29.5 25h-2 q-24 0 -67 -43l-21 -20q-4 -4 -8 0z" />
<glyph unicode="V" horiz-adv-x="1181" d="M-37 1329q-4 4 0 8l33 33q3 3 16 16.5t16.5 16.5t15 14t16 14t14.5 10.5t16.5 10t16.5 6.5t19 5t19 1q77 0 120 -42t67 -130l289 -1085l290 946q5 17 14.5 33t16 24t23.5 24.5t22 22.5l205 205q4 4 8 0l29 -24q4 -4 0 -8l-25 -25q-69 -69 -90 -143l-366 -1123 q-24 -81 -78 -125.5t-119 -44.5q-34 0 -59.5 6t-44 20t-28 24t-26.5 32q-4 4 0 8l31 27q4 4 8 0q33 -41 66 -41q25 0 41 19t16 49q0 41 -35.5 71.5t-62.5 34.5q-3 0 -4.5 1.5t-1.5 3.5v1l-318 1088q-7 25 -18.5 39t-34.5 14q-18 0 -49 -31l-31 -30q-4 -4 -8 0z" />
<glyph unicode="W" horiz-adv-x="1486" d="M-49 1331q-4 4 0 8l35 35q90 90 172 90q67 0 118.5 -28t81.5 -71t49.5 -101.5t26 -112t6.5 -109.5q0 -255 -51 -420.5t-135 -207.5q43 -26 112 -101t138 -178q3 -5 8 0l106 107q43 43 61.5 88.5t18.5 113.5v795q0 96 33 146.5t100 76.5q6 3 9 0l110 -104q4 -4 -4 -8 q-48 -20 -63 -56.5t-15 -128.5v-579q0 -75 -12 -119.5t-49 -93.5q73 -67 207 -236q5 -7 10 -2l82 84q19 19 24 39.5t5 58.5v875q0 78 30 108l191 195q4 4 8 0l29 -25q4 -4 0 -8l-47 -51q-33 -33 -33 -102v-799q0 -109 -16 -150.5t-74 -97.5l-295 -293q-8 -8 -15 2 q-34 49 -114 144.5t-111 126.5l-268 -271q-8 -4 -10 0q-58 117 -138 206.5t-135 109.5q-17 6 -30 6q-21 0 -35 -14l-54 -54q-4 -4 -8 0l-28 25q-4 4 0 8l131 133q25 25 45.5 34.5t48.5 6.5q17 -2 25.5 12.5t15 66.5t8.5 143t2 253q0 60 -2 107t-7 104t-16.5 98t-29 77.5 t-45.5 55.5t-64 19q-29 0 -46 -9t-42 -34l-18 -18q-4 -4 -8 0z" />
<glyph unicode="X" horiz-adv-x="1132" d="M14 121q-3 28 -3 55q0 52 13 96q20 66 54 101l166 166q4 4 8 0l29 -25q4 -4 0 -8l-39 -39q-63 -63 -74 -193q-1 -11 -1 -21q0 -47 19 -85q23 -46 76 -47q32 0 82 53q21 22 38 46.5t29.5 46t22.5 49.5t16.5 46.5t11 48.5t7 44.5t3.5 45t1 39.5v39v33v146q0 194 -60 343.5 t-153 211.5q-44 -68 -43 -167q0 -33 4 -69q0 -12 -4 -16l-149 -146q-3 -3 -6 -0.5t-3 5.5q-14 62 -14 128q1 46 7 92q16 114 71 169l149 147q8 8 25 8q58 0 116.5 -50t100 -121t69 -144.5t31.5 -124.5q24 210 170 358q82 82 152 82q55 0 99 -37t59 -96q7 -30 7 -66 q1 -23 -3 -51q-8 -68 -23 -81l-180 -179q-4 -4 -8 0l-29 25q-4 4 0 8l37 37q25 24 39 76q11 41 11 88q0 13 -1 26q-3 43 -23.5 79t-50.5 48q-9 4 -18 4q-22 0 -47 -20q-74 -65 -114 -191t-40 -282v-96q0 -415 275 -623q35 92 35 232q0 10 8 18l141 143q8 8 8 -2 q7 -50 7 -119v-17q-1 -80 -20 -166.5t-48 -117.5l-125 -127q-6 -8 -23 -8q-74 11 -163 97.5t-152.5 200t-71.5 200.5q-22 -225 -194 -385q-123 -113 -195 -113q-102 0 -119 152z" />
<glyph unicode="Y" horiz-adv-x="1148" d="M2 1343q-4 5 0 9l51 53q29 29 58 44t75 15q166 0 166 -264v-418q0 -95 43.5 -141.5t118.5 -46.5q113 0 219 106q8 8 25 24.5t31 30.5t24 25l2 6v406q0 77 31 108l190 195q4 4 8 0l29 -25q4 -4 0 -8l-47 -51q-33 -33 -33 -102v-654q0 -65 -15 -139.5t-42.5 -151.5 t-72 -147.5t-99 -126t-127.5 -88.5t-154 -33q-110 0 -200 46t-144 126q-4 7 2 13l246 243q4 4 8 0l29 -24q4 -4 0 -8l-35 -39q-39 -45 -39 -103q0 -23 6 -47q11 -48 51 -81.5t117 -33.5q140 0 215.5 94t75.5 265v285l-4 2q-12 -13 -26 -27t-31 -30.5t-25 -24.5 q-70 -70 -138 -109t-157 -39q-116 0 -188 86t-72 240v454q0 24 -1.5 40.5t-7 34.5t-17.5 27t-31 9q-29 0 -49 -20l-29 -29q-4 -4 -8 0z" />
<glyph unicode="Z" horiz-adv-x="1024" d="M-37 0l203 219q73 77 106 152l371 854q7 19 27 30q-347 27 -434 27h-16.5h-19t-17 -1.5t-19.5 -5t-17.5 -9.5t-19.5 -15l-57 -57q-4 -4 -9 0l-28 25q-4 4 0 8l137 139q37 37 68.5 52.5t80.5 15.5q87 0 298 -16.5t282 -16.5q45 0 78 26l39 35q4 4 8 0l29 -24q4 -4 0 -8 l-88 -91q-43 -45 -72 -67t-62 -29l-323 -741q-3 -8 -7.5 -16t-11.5 -17.5t-12 -16t-16 -19t-17 -19t-21 -22t-22 -23.5q-16 -17 -81 -81.5t-70 -70.5l504 -51q23 -2 43 -2q33 0 58 6q39 10 73 41l65 59q4 4 8 0l29 -24q4 -4 0 -8l-168 -170q-24 -26 -37 -37t-45 -22 q-23 -8 -50 -8q-10 0 -21 1l-523 49q-32 6 -56 6q-10 1 -18 -1q-28 -4 -51 -25l-59 -60q-1 -3 -4 -3.5t-4 1.5l-31 23q-4 4 0 8z" />
<glyph unicode="[" horiz-adv-x="604" d="M94 -240q62 62 82.5 110t20.5 136v1254q0 96 -22 135t-71 45q-6 0 -2 4l54 53q4 4 8 4h426q6 0 2 -4l-53 -53q-4 -4 -9 -4h-208q-2 0 -3 -1.5t0 -2.5q56 -56 56 -260v-1102q0 -175 -56 -252q-4 -4 3 -4h268q6 0 2 -4l-53 -54q-4 -4 -9 -4h-434q-6 0 -2 4z" />
<glyph unicode="\" horiz-adv-x="610" d="M-39 1491q-2 4 2 4h94q4 0 6 -4l586 -1694q2 -4 -4 -4h-92q-4 0 -6 4z" />
<glyph unicode="]" horiz-adv-x="604" d="M12 -240l54 54q4 4 8 4h209q6 0 2 4q-56 56 -56 260v1102q0 175 56 252q4 4 -2 4h-269q-6 0 -2 4l54 53q4 4 8 4h434q6 0 2 -4q-62 -62 -82 -109.5t-20 -136.5v-1253q0 -96 21.5 -135t70.5 -45q6 0 2 -4l-53 -54q-4 -4 -9 -4h-426q-6 0 -2 4z" />
<glyph unicode="^" horiz-adv-x="1011" d="M58 698q-1 2 1 4l379 564q20 31 -2 59l-35 47q-6 6 2 6h72q4 0 8 -4l484 -674q4 -4 -2 -4h-64q-6 0 -8 4l-322 457q-3 3 -6 0l-286 -455q-3 -6 -11 -6h-205q-4 0 -5 2z" />
<glyph unicode="_" horiz-adv-x="1024" d="M0 -158q0 4 4 4h1016q4 0 4 -4v-141q0 -4 -4 -4h-1016q-4 0 -4 4v141z" />
<glyph unicode="`" horiz-adv-x="493" d="M111 1456q-8 8 2 8h215q5 0 8 -6l158 -295q5 -8 -2 -8h-39q-7 0 -13 6z" />
<glyph unicode="a" horiz-adv-x="823" d="M59 406q0 59 16 116t38.5 101t63 96t72 86t81.5 84l121 121q3 3 6 0l239 -254q4 -4 4 -8v-529q0 -73 29 -98q2 -2 6 2l68 67q4 4 8 0l29 -26q4 -4 0 -8l-187 -185q-3 -3 -6 0q-57 44 -82.5 99.5t-25.5 136.5q0 6 -4 2l-238 -238q-6 -6 -14 0q-31 19 -60 44.5t-59.5 65.5 t-53 86t-37 108.5t-14.5 130.5zM211 522q0 -256 160 -393q5 -5 10 0l149 150q5 5 5 8v381q0 3 -5 8l-163 174q-3 4 -7 0l-26 -29q-123 -148 -123 -299z" />
<glyph unicode="b" horiz-adv-x="856" d="M41 1358l113 104q3 3 10 0q61 -31 93 -77t32 -125v-541q0 -6 4 -2l264 264q4 4 8 0l45 -39q102 -89 144.5 -176t42.5 -199q0 -104 -45 -227t-154 -234l-178 -180q-4 -4 -8 0l-29 27q-4 4 0 8l8 10q16 16 0 25l-266 164q-2 2 -2 6v1022q0 56 -9.5 88t-24.5 46t-46 28 q-9 4 -2 8zM289 248l4 -6l215 -144q6 -4 10 0q117 115 117 334q0 124 -38 202t-138 169q-4 4 -8 0l-158 -158q-4 -4 -4 -10v-387z" />
<glyph unicode="c" horiz-adv-x="747" d="M94 281v235q0 98 62 160l333 334q5 4 9 0l202 -238q29 -35 29 -64q0 -24 -20 -44l-146 -148q-4 -4 -8 0l-29 27q-4 4 0 8l41 43q14 14 14 31q0 19 -18 41l-153 182q-6 6 -11 0l-110 -111q-29 -29 -29 -94v-248q0 -149 62 -230t157 -81q37 0 71 20.5t52 40.5l100 107 q4 4 9 0l28 -27q4 -4 0 -8l-123 -129q-61 -64 -113 -91.5t-116 -27.5q-117 0 -205 85.5t-88 226.5z" />
<glyph unicode="d" horiz-adv-x="843" d="M72 1253q0 90 61.5 149t167.5 62h16q5 0 5 -4v-45q0 -4 -5 -4h-16q-48 0 -80.5 -22.5t-34.5 -53.5q-1 -34 18 -59t62 -57l303 -230q120 -91 166.5 -199t46.5 -251q0 -151 -53.5 -265t-171.5 -225q-23 -22 -62.5 -62.5t-60.5 -60.5q-4 -4 -8 0l-29 27q-4 4 0 8l9 10 q15 15 0 25l-279 170q-4 4 -4 8v549q0 4 4 8l203 209q4 4 0 6l-150 113q-57 43 -82.5 88t-25.5 106zM289 258q0 -4 4 -8l223 -148q11 -9 16 -4q55 63 81 145t26 222q0 106 -47 211t-152 188l-61 49q-4 2 -8 -2l-64 -69q-18 -18 -18 -49v-535z" />
<glyph unicode="e" horiz-adv-x="759" d="M94 307v283q0 61 23 84l334 334q2 2 8 2q40 -5 82 -25t80.5 -54.5t63.5 -90.5t26 -123v-9q-1 -94 -41 -178q-42 -88 -125 -142q-76 -49 -169 -48h-18q-28 1 -55 9.5t-37 17.5q-6 4 -6 -5v-55q0 -98 57.5 -160.5t151.5 -62.5q43 0 76.5 13t51.5 28t50 47l62 64q4 4 8 0 l28 -27q4 -4 0 -8q-129 -131 -131 -133q-96 -99 -231 -99q-129 0 -209 83.5t-80 254.5zM260 465q0 -27 24.5 -44.5t51.5 -19.5q9 -1 17 0q79 -1 133 49q60 56 67 160q1 11 1 22q0 88 -52 152q-58 70 -121 78q-4 0 -6 -2l-99 -98q-16 -16 -16 -74v-223z" />
<glyph unicode="f" horiz-adv-x="432" d="M8 852l107 106q5 5 8 5q4 0 4 4v133q0 162 96 258l62 61q45 45 102 45q49 0 73.5 -27.5t24.5 -74.5v-57q0 -7 -4 -11l-92 -92q-4 -2 -6 2v92q0 25 -1 38.5t-5 28t-13 20.5t-24 6q-23 0 -35 -19.5t-12 -52.5v-350q0 -4 4 -4h221q4 -1 2 -5l-106 -106q-4 -4 -8 -4h-109 q-4 0 -4 -4v-582q0 -66 6.5 -91.5t26.5 -43.5q2 -2 6 2l61 61q4 4 8 0l29 -26q4 -4 0 -8l-186 -185q-3 -3 -6 0q-65 50 -88 98t-23 152v623q0 4 -4 4h-113q-6 0 -2 4z" />
<glyph unicode="g" horiz-adv-x="817" d="M61 424q0 127 61.5 233.5t186.5 231.5l121 121q4 4 8 0l281 -281q4 -4 4 -8v-637q0 -135 -53 -249.5t-136.5 -178.5t-175.5 -66h-9q-150 0 -240 101q-2 4 0 6l202 203q4 4 8 0l29 -27q4 -4 0 -8l-14 -15q-34 -34 -34 -83q0 -6 1 -13q2 -40 29 -73t71 -33q69 0 112.5 85 t43.5 212v272q0 6 -4 2l-246 -246q-5 -5 -10 0q-107 79 -171.5 198.5t-64.5 252.5zM205 524q0 -100 49 -217t131 -176q6 -4 12 2l156 158q4 4 4 8v340q0 4 -4 8l-203 203q-3 3 -6 0l-16 -16q-69 -71 -96 -140t-27 -170z" />
<glyph unicode="h" horiz-adv-x="886" d="M20 -2q-4 4 0 8l62 62q45 45 45 122v967q0 129 -94 182q-7 3 0 7l125 116q3 3 10 0q61 -31 93 -77t32 -125v-488q0 -4 0.5 -5t3.5 1l211 211q5 5 10 2q120 -41 183 -130.5t63 -221.5v-381q0 -94 35 -125q4 -4 8 0l57 57q4 4 8 0l29 -26q5 -4 0 -9l-176 -174q-2 -2 -4 -2 t-3.5 1t-2.5 1q-55 26 -86 81t-31 104v389q0 138 -30 199t-122 94q-5 3 -8 0l-141 -140q-4 -4 -4 -8v-323q0 -47 -7.5 -85.5t-17.5 -65t-34.5 -58.5t-42 -51t-56.5 -58l-78 -78q-4 -4 -8 0z" />
<glyph unicode="i" horiz-adv-x="419" d="M66 852l131 129q4 4 8 2q45 -33 66.5 -78.5t21.5 -126.5v-530q0 -94 35 -125q4 -4 8 0l70 70q4 4 8 0l28 -27q4 -4 0 -8l-188 -187q-2 -2 -4 -2t-3.5 1t-2.5 1q-64 41 -90.5 95t-26.5 129v512q0 64 -14.5 91.5t-44.5 45.5q-7 3 -2 8zM84 1274q0 50 33 82.5t82 32.5 t81.5 -32.5t32.5 -82.5t-32.5 -82.5t-81.5 -32.5t-82 32.5t-33 82.5z" />
<glyph unicode="j" horiz-adv-x="415" d="M-29 -373l84 82q41 40 56.5 80.5t15.5 97.5v820q0 64 -14.5 91.5t-44.5 45.5q-7 3 -2 8l131 129q4 4 8 2q45 -33 66.5 -78.5t21.5 -126.5v-749q0 -55 -9 -96.5t-33.5 -79.5t-44.5 -60.5t-65 -67.5l-14 -14l-119 -119q-4 -4 -8 0l-29 27q-4 4 0 8zM84 1274q0 50 33 82.5 t82 32.5t81.5 -32.5t32.5 -82.5t-32.5 -82.5t-81.5 -32.5t-82 32.5t-33 82.5z" />
<glyph unicode="k" horiz-adv-x="833" d="M31 -2q-4 4 0 8l43 43q32 32 42.5 57t10.5 64v1020q0 56 -10 85.5t-23.5 40t-46.5 25.5q-10 5 -2 9l113 114q3 3 10 0q61 -31 93 -77t32 -125v-897q0 -7 4 -3l197 197q61 61 61 156v123q0 8 4 12l156 158q4 2 6 -2v-172q0 -117 -74 -191l-131 -131q-2 -2 -1 -3t3 1 q33 14 64 14h8q50 -4 90.5 -35t40.5 -94v-205q0 -45 18 -51q8 -3 17 6l47 48q4 4 8 0l29 -27q4 -4 0 -8l-189 -187q-2 -2 -8 -2q-32 0 -60 33t-28 94v199q0 54 -30.5 83.5t-69.5 29.5q-43 0 -80 -37l-80 -80l-2 -8v-33q-1 -22 -8.5 -40t-34 -49.5t-46 -51.5t-79.5 -80 l-57 -58q-4 -5 -9 0z" />
<glyph unicode="l" horiz-adv-x="419" d="M43 1339q-6 3 0 9l113 114q3 3 10 0q62 -31 94.5 -76t32.5 -124v-1014q0 -94 35 -125q4 -4 8 0l53 53q4 4 8 0l29 -26q4 -4 0 -9l-172 -170q-2 -2 -4 -2t-3.5 1t-2.5 1q-64 41 -90.5 95t-26.5 129v981q0 75 -19.5 109t-64.5 54z" />
<glyph unicode="m" horiz-adv-x="1208" d="M27 -2q-4 4 0 8l49 47q32 32 41.5 61t9.5 79v505q0 71 -11.5 107.5t-52.5 52.5q-5 3 0 8l113 115q4 4 8 2q53 -21 80 -72.5t29 -105.5q0 -4 2 -2l178 178q2 2 6 2q42 -10 78 -28.5t71 -63t44 -107.5q0 -6 4 -2l198 199q2 2 7 2q32 -6 64 -20.5t64 -39.5t52 -67.5 t20 -95.5v-527q0 -51 5.5 -73.5t23.5 -42.5q3 -3 6 0l70 69q4 4 8 0l29 -26q4 -4 0 -8l-183 -181q-3 -3 -8 0q-56 29 -86.5 78t-30.5 135v504q0 144 -102 156q-4 0 -8 -4l-123 -121q-4 -4 -4 -10v-340q0 -118 -25.5 -179t-103.5 -139l-80 -80q-4 -4 -8 0l-29 27q-4 4 0 8 l47 45q29 29 40 59.5t11 82.5v503q0 142 -106 158q-6 0 -10 -4l-117 -115q-4 -4 -4 -10v-356q0 -59 -8 -101.5t-30 -80.5t-44.5 -64.5t-67.5 -71.5l-80 -80q-4 -4 -8 0z" />
<glyph unicode="n" horiz-adv-x="886" d="M29 -2q-4 4 0 8l67 68q12 12 19 24t9 31t2.5 27.5t0.5 36.5v460q0 83 -12 121t-54 78q-3 3 0 6l119 123q4 4 8 2q61 -42 83 -102t22 -158q0 -4 2 -2l260 260q3 3 8 0q102 -40 151.5 -116t49.5 -199v-363q0 -138 24 -168q3 -6 7 -2l77 78q4 5 9 0l28 -27q4 -4 0 -8 l-207 -205q-5 -3 -8 0q-59 48 -77.5 97t-18.5 122v379q0 130 -15.5 186.5t-80.5 94.5q-3 3 -8 -2l-197 -195q-4 -4 -4 -10v-274q0 -59 -8 -101t-31 -80.5t-44 -63.5t-67 -73l-77 -80q-4 -5 -9 0z" />
<glyph unicode="o" horiz-adv-x="884" d="M61 412q0 118 33.5 225.5t88.5 182.5t127 119t147 44q86 0 157 -41t115.5 -106.5t69 -143.5t24.5 -157q0 -155 -53.5 -286t-144.5 -205.5t-197 -74.5q-110 0 -195.5 66.5t-128.5 166.5t-43 210zM244 522q-1 -22 -1 -44q1 -106 17 -196q20 -109 66 -180t114 -71 q50 0 89 31.5t62.5 87.5t36.5 125.5t15 152.5q1 20 1 39q0 107 -20 201q-22 110 -71 180t-115 70q-83 0 -136 -116t-58 -280z" />
<glyph unicode="p" horiz-adv-x="860" d="M10 -373l66 64q32 32 41.5 68.5t9.5 113.5v786q0 65 -10.5 101.5t-25 51.5t-52.5 44q-5 3 0 8l113 115q4 4 8 2q60 -23 96.5 -84t36.5 -137v-6q0 -6 4 -2l254 256q3 3 8 0q40 -36 45 -41q105 -103 151 -205t46 -219q0 -113 -57.5 -237t-168.5 -238l-114 -117q-4 -4 -8 0 l-29 26q-4 5 0 9q10 13 10 24q0 10 -18 21l-119 78q-4 2 -4 -3v-47q0 -81 -10 -138.5t-35.5 -103.5t-50 -74.5t-72.5 -74.5l-78 -76q-4 -4 -8 0l-29 27q-4 4 0 8zM293 297q0 -4 2 -6l256 -168q3 -1 6 2q113 122 113 285q0 29 -3.5 61t-16.5 83t-34 97t-61.5 97.5t-93.5 89.5 q-4 2 -6 0l-160 -158q-2 -2 -2 -8v-375z" />
<glyph unicode="q" horiz-adv-x="837" d="M59 391q0 78 15.5 142.5t50.5 123.5t73.5 105t102.5 112l129 132q4 4 8 0l29 -27q4 -4 0 -8l-8 -8q-5 -4 -2.5 -14.5t12.5 -20.5l240 -244q2 -2 2 -6v-797q0 -92 34 -131q3 -2 5 0l67 68q4 4 8 0l29 -27q4 -4 0 -8l-192 -191q-4 -4 -7 0q-54 41 -82 93.5t-28 152.5v402 q0 4 -4 2l-271 -271q-4 -4 -8 0q-203 186 -203 420zM195 483q0 -230 167 -338q6 -3 9 0l172 172q2 2 2 7v282q0 4 -2 6l-215 213q-2 2 -4 0q-129 -129 -129 -342z" />
<glyph unicode="r" horiz-adv-x="565" d="M51 852q-4 4 0 8l119 121q4 4 8 2q49 -34 78 -108t29 -138q11 31 39 60l184 184q3 3 6 0l104 -174q5 -7 0 -12l-110 -113q-1 -2 -4 -1.5t-4 3.5l-74 127q-3 3 -6 0l-64 -55q-67 -56 -67 -193v-350q0 -6 2 -8l84 -80q2 -2 4 0l86 86q4 4 8 0l29 -27q4 -4 0 -8l-230 -229 q-4 -4 -8 0l-28 26q-4 5 0 9q12 12 12 20q0 11 -10 21l-113 104q-2 2 -2 8v502q0 165 -72 215z" />
<glyph unicode="s" horiz-adv-x="727" d="M43 141q-2 5 2 9l211 212q4 4 8 0l29 -26q4 -4 0 -8q-19 -19 -31 -39q-23 -38 -23 -82q0 -7 1 -14q5 -63 44 -109t105 -47h4q73 -1 117 35q45 36 45 96q0 46 -21.5 83.5t-82.5 80.5l-254 178q-68 54 -87 126q-8 31 -8 62q0 39 14 77q24 67 81 124q84 84 225 84 q144 0 264 -145q4 -4 0 -9l-192 -196q-4 -5 -9 0l-26 24q-3 3 0 9q14 18 19.5 26.5t12 33.5t3.5 56q-4 43 -44 84t-104 41q-56 0 -88.5 -32t-32.5 -74q0 -75 94 -152l259 -182q69 -50 95.5 -97.5t26.5 -117.5q0 -108 -99.5 -195.5t-229.5 -87.5q-116 0 -198 52t-130 120z " />
<glyph unicode="t" horiz-adv-x="425" d="M12 852l41 41q76 76 76 172q0 57 -27 92q-3 3 0 6l117 117q3 3 6 2q27 -24 42 -59.5t17.5 -61t2.5 -61.5v-133q0 -4 4 -4h178q4 -1 2 -5l-113 -106q-4 -4 -8 -4h-59q-4 0 -4 -4v-682q0 -31 16 -43.5t35.5 -8.5t32.5 17l53 53q4 4 8 0l31 -28q5 -4 0 -9l-141 -139 q-35 -35 -90 -35h-9q-51 3 -76.5 38t-25.5 91v750h-107q-6 0 -2 4z" />
<glyph unicode="u" horiz-adv-x="901" d="M45 874l115 107q2 2 6 2q67 -20 97 -71.5t30 -143.5v-557q0 -81 24 -113t70 -32q48 0 119 71l100 99q2 2 2 6v391q0 91 28 147t81 105l96 96q4 4 8 0l29 -27q4 -4 0 -8l-31 -31q-31 -31 -38 -65.5t-7 -106.5v-501q0 -94 31 -125h4l76 78q4 4 8 0l29 -27q4 -4 0 -8 l-189 -189q-2 -2 -4 0q-115 74 -115 199q0 4 -2 2l-59 -59q-77 -77 -128.5 -110.5t-113.5 -33.5q-83 0 -133.5 56.5t-50.5 138.5v534q0 86 -16 119.5t-64 52.5q-6 0 -2 4z" />
<glyph unicode="v" horiz-adv-x="835" d="M39 868l113 113q2 2 6 2q116 -35 116 -215v-293q0 -17 9 -41l139 -407q2 -7 14 -2q32 12 68 74q34 62 62 158q26 91 27 223q-1 7 -1 15q-2 142 -43 287q-3 10 0 13l186 186q4 4 8 0l29 -27q4 -4 0 -8l-6 -6q-24 -24 -30 -42.5t1 -51.5q31 -135 31 -253q0 -103 -24 -194 q-50 -195 -154 -312.5t-211 -117.5q-76 0 -111 21l-2 2q-3 2 -4 4l-141 375q-8 19 -8 39v288q0 143 -72 166q-6 0 -2 4z" />
<glyph unicode="w" horiz-adv-x="1226" d="M38 873q0 3 1 4l113 104q2 2 6 2q143 -43 143 -215v-578q0 -4 4 -8q121 -80 125 -82h6q68 51 121 109q4 4 4 10v481q0 81 -26.5 117t-79.5 53q-1 0 -1 3t1 4l112 104q2 2 6 2q144 -43 144 -215v-578l127 -92l10 -2q14 7 26.5 17t29.5 26t18 17q94 87 94 262 q0 99 -24.5 182t-100.5 166q-13 14 4 31l184 184q5 5 9 0l28 -27q4 -4 0 -8l-32 -33q-16 -16 -16 -37q0 -16 9 -34q43 -89 60.5 -156.5t17.5 -150.5q0 -129 -43.5 -224t-140.5 -182q-89 -83 -209 -158q-5 -3 -8 0q-22 25 -78 60l-143 88q-3 3 -7 0q-34 -31 -95 -79t-93 -69 q-4 -4 -8 0q-30 26 -92 60l-176 96q-3 2 0 8l20 33q2 5 8 2q39 -14 39 20v508q0 83 -22.5 119.5t-73.5 52.5q-1 0 -1 3z" />
<glyph unicode="x" horiz-adv-x="845" d="M20 836q-4 4 0 8l103 104q35 35 78 35q65 0 96 -57l166 -318q2 -4 4 0l170 371q4 7 12 2q55 -29 105.5 -85.5t62.5 -135.5q0 -4 -2 -6l-115 -115q-4 -4 -4 2q-7 38 -31.5 80t-58.5 59q-5 0 -6 -2l-102 -225q-2 -4 0 -8l202 -387q11 -19 20 -30t20.5 -18.5t24.5 -3.5 t28 19l32 33q5 4 9 0l28 -27q4 -4 2 -8l-114 -117q-35 -35 -84 -35q-53 0 -86 56l-177 329q-4 4 -4 0l-180 -379q-6 -12 -20 -6q-61 30 -114.5 94t-61.5 132l108 141q8 8 8 0q3 -49 33.5 -103t69.5 -79q5 0 6 2l119 250v8l-209 399q-19 35 -42 35q-14 0 -30 -14l-27 -27 q-4 -4 -8 0z" />
<glyph unicode="y" horiz-adv-x="866" d="M14 873q0 3 2 4l113 104q2 2 6 2q148 -44 148 -215v-473q0 -98 51 -119q26 -9 50 -9q57 0 105 48l101 100q4 4 4 11v264q0 60 8.5 104.5t30.5 81t39.5 56.5t55.5 58l15 15l76 76q4 4 8 0l29 -27q4 -4 0 -8l-33 -35q-34 -37 -48.5 -73.5t-14.5 -94.5v-690 q0 -113 -33 -203.5t-88.5 -146t-123 -84.5t-140.5 -29q-69 0 -134.5 21t-99.5 63q-2 5 0 7l174 172q5 5 9 0l28 -27q4 -4 0 -8l-14 -15q-27 -27 -27 -64q0 -19 8 -42q6 -17 30.5 -34t60.5 -17q75 0 129.5 71t54.5 191v332q0 8 -6 2l-68 -68q-55 -55 -100 -79 q-43 -23 -104 -23h-5q-86 2 -140 53t-54 141v432q0 82 -24.5 119t-76.5 53q-2 0 -2 3z" />
<glyph unicode="z" horiz-adv-x="698" d="M-12 -2q-4 4 0 8l78 78q41 41 57 78l307 663l-213 23q-8 1 -16 1q-65 0 -109 -44l-53 -55q-4 -4 -8 0l-29 26q-4 4 0 8l113 113q66 66 142 67q6 0 13 -1l330 -27q8 -1 14 -1.5t11.5 0.5t8 1t7 2.5t5.5 3t6.5 5t6.5 5.5l29 29q4 4 8 0l29 -27q4 -4 0 -8l-90 -106 q-14 -16 -21.5 -19.5t-19.5 -3.5l-207 -461q-29 -58 -104 -127l-129 -127q-3 -3 -0.5 -4.5t4.5 0.5q78 58 147 57q11 0 23 -1l204 -29q30 -3 43 1t33 24l45 45q5 5 9 0l28 -27q4 -4 0 -8l-119 -119q-31 -29 -55 -37q-14 -4 -36 -5q-19 0 -44 3l-282 31h-11q-27 -1 -53 -13 q-32 -16 -51 -34l-14 -15q-5 -5 -9 0z" />
<glyph unicode="{" horiz-adv-x="501" d="M10 602v49q0 4 4 4q87 0 123.5 49.5t36.5 167.5v275q0 73 16.5 133t52.5 110t99.5 79t149.5 32q4 0 4 -4v-53q0 -4 -4 -4q-67 -5 -103.5 -48.5t-36.5 -154.5v-389q0 -89 -44 -142.5t-138 -76.5v-2q93 -21 137.5 -70t44.5 -145v-383q0 -23 7.5 -54t22.5 -66t44 -61t66 -30 q4 0 4 -4v-54q0 -4 -4 -4q-87 1 -150.5 30t-99 80.5t-52 112t-16.5 132.5v251q0 118 -37.5 177t-122.5 59q-4 0 -4 4z" />
<glyph unicode="|" horiz-adv-x="454" d="M172 -438v2048h111v-2048h-111z" />
<glyph unicode="}" horiz-adv-x="501" d="M6 -186q0 4 4 4q37 4 66 30t44 61t22.5 66t7.5 54v383q0 96 44.5 145t137.5 70v2q-94 23 -138 76.5t-44 142.5v389q0 111 -36.5 154.5t-103.5 48.5q-4 0 -4 4v53q0 4 4 4q86 -3 149.5 -32t99.5 -79t52.5 -110t16.5 -133v-275q0 -118 36 -167.5t123 -49.5q5 0 5 -4v-49 q0 -4 -5 -4q-85 0 -122 -59t-37 -177v-251q0 -72 -16.5 -132.5t-52 -112t-99 -80.5t-150.5 -30q-4 0 -4 4v54z" />
<glyph unicode="~" horiz-adv-x="1177" d="M92 358l174 185q43 46 95 51.5t155 -31.5l236 -110q51 -20 90.5 -21t64.5 10t51 35l86 76l41 -41l-172 -176q-45 -45 -96 -50t-153 31l-236 111q-72 28 -115.5 23t-83.5 -43l-96 -91z" />
<glyph unicode="&#xa2;" horiz-adv-x="804" d="M113 268v250q0 85 73 158l254 254v180q0 4 4 4h70q4 0 4 -6v-78q0 -10 10 -20l238 -283q5 -5 0 -10l-115 -115q-4 -4 -8 0l-125 154v-664q59 23 131 98l68 72q4 4 8 0l29 -26q4 -4 0 -9l-129 -135q-60 -63 -107 -90v-160q0 -4 -4 -4h-70q-4 0 -4 4v133q-27 -6 -57 -6 q-110 0 -190 79.5t-80 219.5zM281 383q0 -143 39.5 -215.5t119.5 -81.5v764q-4 4 -8 0l-113 -113q-22 -22 -30 -41t-8 -51v-262z" />
<glyph unicode="&#xa3;" horiz-adv-x="960" d="M4 573q-4 5 0 9l137 133q44 44 70 53v190q0 216 109.5 361t257.5 145q109 0 182.5 -79t73.5 -193q0 -97 -26 -184t-63.5 -145t-85 -104.5t-86.5 -70.5t-71 -35q-69 -21 -113 -18v-105q0 -74 22.5 -138t58 -106.5t75 -69.5t78.5 -38q32 -9 77.5 -22t61 -16.5t42 -7 t58.5 -3.5q35 0 64 21l51 40q4 4 8 0l29 -24q4 -4 0 -8l-86 -90q-96 -99 -172 -99q-65 0 -157.5 27t-189.5 54.5t-173 27.5q-49 0 -97 -41q-23 -18 -71 -66q-4 -5 -9 0l-28 25q-4 4 0 8l153 154q33 33 44 43.5t34.5 22.5t48.5 12q37 0 60 -3q-94 79 -126 179.5t-34 232.5 q-55 6 -98 -31q-32 -25 -72 -65q-4 -4 -8 0zM389 762q28 -14 80 -14q52 -2 87.5 9.5t57.5 33t34 62.5t16 88t4 120q0 172 -36.5 250t-113.5 78q-56 0 -92.5 -47t-36.5 -128v-452z" />
<glyph unicode="&#xa5;" horiz-adv-x="993" d="M-16 1325q-4 4 0 8l32 35q43 47 82 71.5t90 24.5t89 -19.5t61.5 -47.5t52.5 -78l227 -387q4 -7 9 0l243 373q13 18 16 39t-12 38q-9 8 -23.5 5.5t-27.5 -15.5q-4 -4 -6 -2l-31 27q-4 4 -2 8q44 59 105 59t86 -39q48 -65 -29 -182l-348 -516q-37 -53 -43 -92q0 -4 2 -4 q28 -9 101 -19t116 -10q44 0 74 27l22 18q4 5 9 0l28 -24q5 -5 0 -9l-61 -61q-29 -29 -56 -43t-38.5 -15t-40.5 -1q-13 0 -154 18q-4 0 -4 -4v-117q0 -4 4 -4q104 -22 182 -22q41 0 78 26l27 19q4 4 8 0l29 -25q4 -4 0 -8l-62 -62q-10 -10 -19.5 -18.5t-19.5 -14t-16.5 -10 t-16.5 -7t-14.5 -4.5t-14.5 -2.5t-12.5 -0.5h-13.5h-12q-55 0 -125 12q-2 0 -2 -2v-84q0 -38 20 -68t70 -30q32 0 53.5 13.5t57.5 50.5q4 4 8 0l29 -25q4 -4 0 -8l-68 -68q-46 -46 -80.5 -63t-77.5 -17q-30 0 -60 11t-59.5 34.5t-48 70.5t-18.5 110v102q0 10 -6 10 q-4 1 -24.5 6.5t-26 7t-23 5t-28.5 4.5t-28.5 2.5t-35.5 1.5q-34 0 -72 -33l-55 -53q-4 -4 -8 0l-29 24q-5 4 0 9l104 104q59 59 119 59q43 0 109 -16q4 0 4 2v119q0 6 -4 6q-90 16 -125 16q-51 0 -92 -41l-62 -61q-4 -4 -8 0l-29 25q-4 4 0 8l105 104q39 39 65.5 54.5 t63.5 15.5q54 0 147 -19q4 0 6 2l60 78q3 3 0 8l-318 533q-48 76 -94 76q-20 0 -41 -21l-33 -33q-4 -4 -8 0z" />
<glyph unicode="&#xa6;" horiz-adv-x="331" d="M131 6v529q0 6 4 6h62q4 0 4 -6v-529q0 -6 -4 -6h-62q-4 0 -4 6zM131 899v528q0 7 4 7h62q4 0 4 -7v-528q0 -6 -4 -6h-62q-4 0 -4 6z" />
<glyph unicode="&#xa7;" horiz-adv-x="796" d="M43 -348l94 94l17.5 17.5l15.5 15.5t13.5 13t13 12t11 9t12 7.5t12 5t13.5 4.5t14 2.5t17 1.5q28 1 72.5 -13.5t78.5 -28.5t73 -18t55 17q14 14 19 34.5t0 50t-12.5 57t-25 69t-30 70.5t-35.5 78.5t-35 76.5l-219 492q-6 13 -24.5 52.5t-25 55t-21.5 52.5t-20 55.5 t-13 53t-7 55.5t3.5 52t13 54.5t27 51t40.5 52.5l64 70q39 39 67.5 55.5t65.5 16.5q39 0 113.5 -35t107.5 -35q36 0 62 23l47 41l37 -35l-95 -94q-6 -6 -21 -21.5t-19 -19t-15.5 -14t-16 -13t-14 -8.5t-16.5 -7.5t-16.5 -3.5t-20.5 -2q-29 -1 -70.5 14.5t-72 32t-64.5 24.5 t-47 -7q-17 -15 -22 -31.5t5.5 -55t27 -77.5t55.5 -127l282 -631q41 -91 62 -154.5t29.5 -138t-16.5 -141t-83 -127.5l-63 -69q-39 -39 -67.5 -55.5t-65.5 -16.5q-39 0 -114 35t-108 35q-35 0 -61 -23l-47 -41z" />
<glyph unicode="&#xa8;" horiz-adv-x="491" d="M-8 1386q0 46 31 76.5t75 30.5q46 0 76.5 -30.5t30.5 -76.5t-30.5 -76t-76.5 -30q-45 0 -75.5 30.5t-30.5 75.5zM289 1391q0 46 30 76t76 30q45 0 76 -30.5t31 -75.5t-31 -76t-76 -31q-46 0 -76 30.5t-30 76.5z" />
<glyph unicode="&#xa9;" horiz-adv-x="1419" d="M61 657q0 159 55 307.5t147.5 258t220.5 175.5t266 66q164 0 305 -94.5t222 -248.5t81 -326q0 -162 -53 -314t-142.5 -264.5t-214 -180t-260.5 -67.5q-118 0 -228 44t-200 127t-144.5 217t-54.5 300zM215 760q0 -117 18.5 -217.5t49 -173t72.5 -130.5t86.5 -94.5t93 -61 t90.5 -34.5t80 -10q143 0 258.5 96.5t176 244t60.5 308.5q-1 161 -31 286.5t-78 203t-115 127.5t-135 69t-143 19q-122 0 -234.5 -91.5t-180.5 -238.5t-68 -303zM350 647q0 -174 101 -300.5t235 -123.5q104 2 194 70t139.5 169.5t49.5 205.5q0 10 -6 4l-154 -156 q-6 -6 -6 -14q-5 -73 -39.5 -122t-97.5 -56q-72 -9 -128 49t-83 147t-27 187q0 53 9 117.5t29.5 136.5t62 119.5t96.5 47.5q66 0 110.5 -74.5t55.5 -195.5q0 -4 2.5 -5.5t5.5 1.5l143 147q5 5 5 11q-12 76 -82.5 137t-173.5 61q-125 0 -227 -76t-158 -205t-56 -282z" />
<glyph unicode="&#xab;" horiz-adv-x="753" d="M51 483l322 404l73 -72l-266 -332l266 -331l-73 -72zM307 483l322 404l73 -72l-266 -332l266 -331l-73 -72z" />
<glyph unicode="&#xad;" horiz-adv-x="976" d="M59 414l142 141q2 4 8 4h706q7 0 3 -4l-144 -141q-4 -4 -8 -4h-705q-6 0 -2 4z" />
<glyph unicode="&#xae;" horiz-adv-x="1419" d="M61 657q0 159 55 307.5t147.5 258t220.5 175.5t266 66q164 0 305 -94.5t222 -248.5t81 -326q0 -162 -53 -314t-142.5 -264.5t-214 -180t-260.5 -67.5q-118 0 -228 44t-200 127t-144.5 217t-54.5 300zM223 786q0 -361 162 -567l2 2q6 -2 8 0q42 43 56 84.5t14 93.5v654 q0 50 -23 81t-59 31q-47 0 -90 -75q-70 -143 -70 -304zM383 1229q0 -1 2.5 -1t3.5 1q42 37 84 37q63 0 105.5 -49t42.5 -152v-43q0 -6 4 -2l229 235h8l27 -22v-8l-15 -17q-15 -18 -17.5 -48.5t3 -54.5t12.5 -38q18 -35 57 -62t68 -4l11 9q4 4 8 0l26 -23q3 0 0 -6l-239 -242 q-2 -2 -1.5 -2.5t3.5 0.5q38 17 72 17q87 0 129.5 -60.5t42.5 -146.5v-195q0 -31 5.5 -44t22.5 -13q19 0 48 57l3 6q64 147 64 312q-1 161 -30 288.5t-76.5 207.5t-112.5 132.5t-132.5 73.5t-142.5 21q-86 0 -167.5 -43.5t-147.5 -120.5zM421 180.5q0 -2.5 1 -3.5l2 -1h-2 q66 -69 142.5 -103t140.5 -34q109 0 201 53.5t157 147.5q0 4 -4 0q-15 -13 -22 -18t-20 -10t-30 -5q-98 0 -98 131v172q0 137 -121 137q-59 0 -115 -59l-28 -33q-4 -4 -4 -8v-58q0 -47 -23.5 -94.5t-50 -78t-76.5 -80.5l-47 -50q-3 -3 -3 -5.5zM621 616q0 -6 4 -2l247 256 q4 4 -2 4q-65 11 -106 74q-11 17 -21.5 52.5t-7.5 66.5q0 4 -2 2l-108 -113q-4 -2 -4 -8v-332z" />
<glyph unicode="&#xaf;" horiz-adv-x="538" d="M6 1235v94h526v-94h-526z" />
<glyph unicode="&#xb0;" horiz-adv-x="823" d="M113 1098q0 80 28.5 150.5t73 116.5t98 72.5t103.5 26.5q120 0 207.5 -89t87.5 -218q0 -161 -93 -261.5t-219 -100.5t-206 90t-80 213zM264 1163q0 -124 47 -214.5t119 -90.5q54 0 89.5 61.5t35.5 165.5q0 136 -49.5 225t-110.5 89q-57 0 -94 -63t-37 -173z" />
<glyph unicode="&#xb1;" horiz-adv-x="983" d="M61 4v141q0 5 5 5h852q4 0 4 -5v-141q0 -4 -4 -4h-852q-5 0 -5 4zM61 539v141q0 4 5 4h340q6 0 6 6v266q0 7 4 7h147q4 0 4 -7v-266q0 -2 2.5 -4t3.5 -2h345q4 0 4 -4v-141q0 -4 -4 -4h-345q-6 0 -6 -7v-278q0 -6 -4 -6h-147q-4 0 -4 6v278q0 7 -6 7h-340q-5 0 -5 4z" />
<glyph unicode="&#xb2;" horiz-adv-x="833" d="M61 573q-5 5 0 9l105 110q50 53 82 53q7 0 15 -2t9 -2q10 0 13 2l63 62q42 40 69 70.5t59 78.5t48.5 104.5t16.5 121.5q0 96 -44.5 158.5t-109.5 62.5q-57 0 -88 -41.5t-31 -108.5q0 -68 41 -96.5t82 12.5q4 4 8 0l27 -24q4 -4 0 -8l-141 -142q-5 -2 -9 0 q-82 40 -114.5 87.5t-32.5 129.5q0 101 81.5 177.5t207.5 76.5q55 0 106 -13.5t97 -42t74 -80.5t28 -122q0 -54 -22 -109.5t-52.5 -98t-78 -88t-84 -74t-83.5 -62.5l-73 -53l127 -27q54 -14 108 -14q125 0 150 139q0 3 2.5 4t5.5 -2l29 -20q4 -2 4 -13q-3 -58 -21 -103.5 t-44.5 -71t-58.5 -44.5t-63 -24t-58.5 -9t-43.5 1q-66 8 -238 43q-42 12 -68 9.5t-48 -24.5l-17 -16q-4 -4 -8 0z" />
<glyph unicode="&#xb3;" horiz-adv-x="845" d="M82 692v8l192 177q4 5 9 0l26 -25q4 -4 0 -8q-24 -30 -32 -55t-5 -64q3 -49 42 -83t87 -34q70 0 113 55.5t43 153.5q0 43 -19 85t-63.5 74t-105.5 32h-68q-8 0 -8 6v37q0 10 6 10h47q75 0 116.5 55t41.5 137t-38 116t-91 34q-55 0 -92 -38t-31 -89q1 -17 10.5 -23.5 t18.5 0.5l18 13q5 3 8 0l25 -27q4 -4 0 -8l-193 -150q-3 -2 -5.5 0t-2.5 4q-21 82 -5.5 151.5t55 120t99.5 79t128 28.5q120 0 202 -50.5t82 -153.5q0 -73 -47 -132t-129 -79q-4 -3 0 -5q104 -5 172.5 -58.5t69.5 -158.5q2 -112 -95.5 -201t-254.5 -89q-231 0 -326 155z" />
<glyph unicode="&#xb4;" horiz-adv-x="589" d="M111 1163l157 295q3 6 8 6h216q10 0 2 -8l-330 -295q-6 -6 -12 -6h-39q-7 0 -2 8z" />
<glyph unicode="&#xb5;" horiz-adv-x="929" d="M47 -279l62 66q47 51 47 168v743q0 83 -22 119.5t-73 52.5q-1 0 -1 3t1 4l113 104q2 2 6 2q144 -43 144 -215v-590q0 -112 84 -112q56 0 127 71l98 99q2 2 2 6v317q0 64 11 115t35.5 93t47.5 69.5t62 66.5l77 78q4 5 9 0l28 -27q4 -4 0 -8l-57 -59q-31 -31 -38 -65.5 t-7 -106.5v-473q0 -94 31 -125h4l75 78q5 5 9 0l28 -27q4 -4 0 -8l-188 -189q-2 -2 -4 0q-115 74 -115 199q0 4 -2 2l-59 -59q-59 -59 -81.5 -80t-62 -42t-80.5 -22q-30 0 -51 13q-4 4 -4 -2q-32 -101 -137 -211l-82 -82q-4 -4 -8 0l-29 26q-4 4 0 8z" />
<glyph unicode="&#xb6;" horiz-adv-x="1359" d="M51 1055q0 169 120.5 289t289.5 120q61 0 127 -10l596 -96q45 0 71 26l74 74q4 4 8 0l29 -24q4 -4 0 -9l-246 -264q-33 -33 -33 -94l3 -1171q0 -86 19 -130.5t67 -44.5q36 0 65 29l41 41q4 4 8 0l29 -24q5 -5 0 -9l-64 -63q-48 -48 -87 -68t-89 -20q-21 0 -37 2t-43 14.5 t-45 35t-31.5 69t-13.5 110.5v1112q0 92 74 166l94 94q7 7 -2 7l-411 69q-144 23 -144 -123v-1282q0 -86 19 -130t67 -44q37 0 66 29l41 41q4 4 8 0l29 -25q4 -4 0 -8l-64 -63q-49 -49 -87 -69t-87 -20q-21 0 -37 2t-42.5 14.5t-44 35.5t-31 69.5t-13.5 110.5v809 q0 27 -18 35q-121 42 -198 148.5t-77 238.5z" />
<glyph unicode="&#xb7;" horiz-adv-x="454" d="M74 659q0 60 42 103t101 43q61 0 103 -42t42 -104q0 -59 -42.5 -101t-102.5 -42q-59 0 -101 42t-42 101z" />
<glyph unicode="&#xb8;" horiz-adv-x="493" d="M57 -166l219 219l64 -39q-58 -31 -113 -82l-41 -41q24 19 61.5 18t57.5 -22q29 -34 16 -86.5t-55 -95.5q-5 -5 -51.5 -53.5t-64.5 -65.5l-44 41l78 84q19 20 32 41t17.5 41.5t-8.5 32.5q-28 30 -108 -21l-19 -12z" />
<glyph unicode="&#xb9;" horiz-adv-x="667" d="M66 1229q-4 4 0 8l223 223q2 2 8 2q72 -19 102.5 -69t30.5 -150v-436q0 -110 -47 -160q-6 -6 0 -6h149q5 0 6.5 -2.5t-1.5 -5.5l-72 -72q-10 -10 -25 -10h-358q-12 0 -4 8q31 12 58.5 28.5t55 42.5t44 65t16.5 85v459q0 36 -26.5 48.5t-51.5 -11.5l-74 -72q-4 -4 -8 0z " />
<glyph unicode="&#xbb;" horiz-adv-x="753" d="M51 152l266 331l-266 332l74 72l321 -404l-321 -403zM307 152l266 331l-266 332l74 72l321 -404l-321 -403z" />
<glyph unicode="&#xbc;" horiz-adv-x="1609" d="M66 1229q-4 4 0 8l223 223q2 2 8 2q72 -19 102.5 -69t30.5 -150v-436q0 -110 -47 -160q-6 -6 0 -6h149q5 0 6.5 -2.5t-1.5 -5.5l-72 -72q-10 -10 -25 -10h-358q-12 0 -4 8q31 12 58.5 28.5t55 42.5t44 65t16.5 85v459q0 36 -26.5 48.5t-51.5 -11.5l-74 -72q-4 -4 -8 0z M406 4l675 1426q2 4 6 4h95q4 0 2 -4l-676 -1426q-2 -4 -6 -4h-92q-6 0 -4 4zM821 203q-4 4 0 8l277 494q30 54 50.5 106t16.5 72q-2 13 -37 10q-6 0 -6 6v39q0 2 4 4q18 8 55.5 14.5t67.5 6.5q77 0 121.5 -44.5t44.5 -123.5v-473q0 -5 4 -7h35q20 0 33.5 12.5t30.5 41.5 q4 4 8 0l26 -25q3 -3 0 -8q-21 -53 -56.5 -86t-76.5 -33q-4 0 -4 -4q2 -25 -10 -65t-25 -52q-6 -6 0 -6h125q5 0 6 -2.5t-2 -5.5l-71 -72q-10 -10 -25 -10h-295q-7 0 -9 4t3 8q25 14 44 28t42.5 38t36 58.5t12.5 76.5q0 4 -4 4h-215q-126 0 -172 -39q-4 -4 -8 0zM977 295 q1 -1 2 0q36 20 119 20h145q4 0 4 4v508q-2 6 -4 0q-6 -23 -14 -45.5t-20 -48t-19.5 -41t-24.5 -46t-22 -40.5l-166 -309q-1 -1 0 -2z" />
<glyph unicode="&#xbd;" horiz-adv-x="1705" d="M66 1229q-4 4 0 8l223 223q2 2 8 2q72 -19 102.5 -69t30.5 -150v-436q0 -110 -47 -160q-6 -6 0 -6h149q5 0 6.5 -2.5t-1.5 -5.5l-72 -72q-10 -10 -25 -10h-358q-12 0 -4 8q31 12 58.5 28.5t55 42.5t44 65t16.5 85v459q0 36 -26.5 48.5t-51.5 -11.5l-74 -72q-4 -4 -8 0z M406 4l675 1426q2 4 6 4h95q4 0 2 -4l-676 -1426q-2 -4 -6 -4h-92q-6 0 -4 4zM913 6q-4 4 0 8l105 111q50 53 82 53q7 0 15 -2t9 -2q10 0 13 2l63 62q42 40 69 70t59 78t48.5 104.5t16.5 121.5q0 96 -44.5 159t-109.5 63q-57 0 -88 -41.5t-31 -108.5q0 -68 41 -96.5t82 12.5 q4 4 8 0l27 -25q4 -4 0 -8l-141 -141q-5 -2 -9 0q-82 40 -114.5 87.5t-32.5 129.5q0 101 81.5 177.5t207.5 76.5q55 0 106 -13.5t97 -42t74 -80.5t28 -122q0 -54 -22 -109.5t-52.5 -98t-78 -88t-84 -74t-83.5 -62.5l-73 -53l127 -27q54 -14 108 -14q125 0 150 139q0 3 2.5 4 t5.5 -2l29 -21q4 -2 4 -12q-3 -58 -21 -103.5t-44.5 -71.5t-58.5 -45t-63 -24t-58.5 -9t-43.5 1q-66 8 -238 43q-41 12 -67.5 10t-48.5 -24l-17 -16q-4 -4 -8 0z" />
<glyph unicode="&#xbe;" horiz-adv-x="1787" d="M82 692v8l192 177q4 5 9 0l26 -25q4 -4 0 -8q-24 -30 -32 -55t-5 -64q3 -49 42 -83t87 -34q70 0 113 55.5t43 153.5q0 43 -19 85t-63.5 74t-105.5 32h-68q-8 0 -8 6v37q0 10 6 10h47q75 0 116.5 55t41.5 137t-38 116t-91 34q-55 0 -92 -38t-31 -89q1 -17 10.5 -23.5 t18.5 0.5l18 13q5 3 8 0l25 -27q4 -4 0 -8l-193 -150q-3 -2 -5.5 0t-2.5 4q-21 82 -5.5 151.5t55 120t99.5 79t128 28.5q120 0 202 -50.5t82 -153.5q0 -73 -47 -132t-129 -79q-4 -3 0 -5q104 -5 172.5 -58.5t69.5 -158.5q2 -112 -95.5 -201t-254.5 -89q-231 0 -326 155z M571 4l676 1426q2 4 6 4h95q4 0 2 -4l-676 -1426q-2 -4 -6 -4h-93q-6 0 -4 4zM987 203q-4 4 0 8l277 494q30 54 50.5 106t16.5 72q-2 13 -37 10q-6 0 -6 6v39q0 2 4 4q18 8 55.5 14.5t67.5 6.5q77 0 121.5 -44.5t44.5 -123.5v-473q0 -5 4 -7h35q20 0 33 12.5t30 41.5 q5 5 9 0l26 -25q3 -3 0 -8q-21 -53 -56.5 -86t-76.5 -33q-4 0 -4 -4q2 -25 -10 -65t-25 -52q-6 -6 0 -6h125q5 0 6 -2.5t-2 -5.5l-71 -72q-10 -10 -25 -10h-295q-7 0 -9 4t3 8q25 14 44 28t42.5 38t36 58.5t12.5 76.5q0 4 -4 4h-215q-126 0 -172 -39q-4 -4 -8 0zM1143 295 q1 -1 2 0q36 20 119 20h145q4 0 4 4v508q-2 6 -4 0q-6 -23 -14 -45.5t-20 -48t-19.5 -41t-24.5 -46t-22 -40.5l-166 -309q-1 -1 0 -2z" />
<glyph unicode="&#xc0;" d="M29 -4q-4 4 0 8l67 68q48 48 63 104.5t15 163.5v451q0 46 13 70.5t40 51.5l293 293q3 3 0 6q-42 44 -39 91t47 92l101 102q4 4 8 0l29 -24q4 -5 0 -9l-33 -34q-13 -14 -13 -36t13 -36l336 -328q19 -19 25.5 -34t6.5 -46v-594q0 -137 21 -204.5t80 -67.5q7 0 14 1 t13.5 3.5t11 4t11.5 6.5l10.5 7.5t11.5 10t11 10.5l12 12l13 13t9 0l28 -25q4 -4 0 -8l-63 -64q-86 -86 -170 -86q-31 0 -61 11t-61 38.5t-50 84.5t-19 137v338l-55 -52q-27 -24 -62.5 -28t-78.5 6l-217 39q-37 5 -58 -29v-68q0 -103 -37 -181.5t-108 -149.5l-141 -144 q-4 -5 -9 0zM352 578l76 75q38 38 100 29l263 -49q32 -6 32 14v207q0 26 -0.5 36t-6 24t-17.5 26l-236 227q-4 4 -8 0l-190 -190q-13 -13 -13 -43v-356zM453 1845q-8 8 2 8h215q5 0 8 -6l158 -295q5 -8 -2 -8h-39q-7 0 -13 6z" />
<glyph unicode="&#xc1;" d="M29 -4q-4 4 0 8l67 68q48 48 63 104.5t15 163.5v451q0 46 13 70.5t40 51.5l293 293q3 3 0 6q-42 44 -39 91t47 92l101 102q4 4 8 0l29 -24q4 -5 0 -9l-33 -34q-13 -14 -13 -36t13 -36l336 -328q19 -19 25.5 -34t6.5 -46v-594q0 -137 21 -204.5t80 -67.5q7 0 14 1 t13.5 3.5t11 4t11.5 6.5l10.5 7.5t11.5 10t11 10.5l12 12l13 13t9 0l28 -25q4 -4 0 -8l-63 -64q-86 -86 -170 -86q-31 0 -61 11t-61 38.5t-50 84.5t-19 137v338l-55 -52q-27 -24 -62.5 -28t-78.5 6l-217 39q-37 5 -58 -29v-68q0 -103 -37 -181.5t-108 -149.5l-141 -144 q-4 -5 -9 0zM352 578l76 75q38 38 100 29l263 -49q32 -6 32 14v207q0 26 -0.5 36t-6 24t-17.5 26l-236 227q-4 4 -8 0l-190 -190q-13 -13 -13 -43v-356zM645 1550l158 295q3 6 8 6h215q10 0 2 -8l-330 -295q-6 -6 -12 -6h-39q-7 0 -2 8z" />
<glyph unicode="&#xc2;" d="M29 -4q-4 4 0 8l67 68q48 48 63 104.5t15 163.5v451q0 46 13 70.5t40 51.5l293 293q3 3 0 6q-42 44 -39 91t47 92l101 102q4 4 8 0l29 -24q4 -5 0 -9l-33 -34q-13 -14 -13 -36t13 -36l336 -328q19 -19 25.5 -34t6.5 -46v-594q0 -137 21 -204.5t80 -67.5q7 0 14 1 t13.5 3.5t11 4t11.5 6.5l10.5 7.5t11.5 10t11 10.5l12 12l13 13t9 0l28 -25q4 -4 0 -8l-63 -64q-86 -86 -170 -86q-31 0 -61 11t-61 38.5t-50 84.5t-19 137v338l-55 -52q-27 -24 -62.5 -28t-78.5 6l-217 39q-37 5 -58 -29v-68q0 -103 -37 -181.5t-108 -149.5l-141 -144 q-4 -5 -9 0zM352 578l76 75q38 38 100 29l263 -49q32 -6 32 14v207q0 26 -0.5 36t-6 24t-17.5 26l-236 227q-4 4 -8 0l-190 -190q-13 -13 -13 -43v-356zM365 1581l157 295q3 6 8 6h181q5 0 8 -6l158 -295q5 -8 -3 -8h-38q-7 0 -13 6l-198 197q-5 4 -9 0l-198 -197 q-6 -6 -12 -6h-39q-7 0 -2 8z" />
<glyph unicode="&#xc3;" d="M29 -4q-4 4 0 8l67 68q48 48 63 104.5t15 163.5v451q0 46 13 70.5t40 51.5l293 293q3 3 0 6q-42 44 -39 91t47 92l101 102q4 4 8 0l29 -24q4 -5 0 -9l-33 -34q-13 -14 -13 -36t13 -36l336 -328q19 -19 25.5 -34t6.5 -46v-594q0 -137 21 -204.5t80 -67.5q7 0 14 1 t13.5 3.5t11 4t11.5 6.5l10.5 7.5t11.5 10t11 10.5l12 12l13 13t9 0l28 -25q4 -4 0 -8l-63 -64q-86 -86 -170 -86q-31 0 -61 11t-61 38.5t-50 84.5t-19 137v338l-55 -52q-27 -24 -62.5 -28t-78.5 6l-217 39q-37 5 -58 -29v-68q0 -103 -37 -181.5t-108 -149.5l-141 -144 q-4 -5 -9 0zM332 1661q-4 4 0 8l139 139q22 22 56 28t63 -7l207 -100q34 -15 65 14l60 53q4 4 8 0l28 -27q4 -4 0 -8l-139 -139q-22 -22 -56 -27.5t-63 7.5l-202 96q-40 17 -70 -10l-59 -54q-5 -4 -9 0zM352 578l76 75q38 38 100 29l263 -49q32 -6 32 14v207q0 26 -0.5 36 t-6 24t-17.5 26l-236 227q-4 4 -8 0l-190 -190q-13 -13 -13 -43v-356z" />
<glyph unicode="&#xc4;" d="M29 4q-4 -4 0 -8l28 -25q5 -5 9 0l141 144q71 71 108 149.5t37 181.5v68q21 34 58 29l217 -39q43 -10 78.5 -6t62.5 28l55 52v-338q0 -80 19 -137t50 -84.5t61 -38.5t61 -11q84 0 170 86l63 64q4 4 0 8l-28 25q-5 4 -9 0l-13 -13l-12 -12t-11 -10.5t-11.5 -10l-10.5 -7.5 t-11.5 -6.5t-11 -4t-13.5 -3.5t-14 -1q-59 0 -80 67.5t-21 204.5v594q0 31 -6.5 46t-25.5 34l-336 328q-13 14 -13 36t13 36l33 34q4 4 0 9l-29 24q-4 4 -8 0l-101 -102q-44 -45 -47 -92t39 -91q3 -3 0 -6l-293 -293q-18 -18 -27.5 -30t-17.5 -36t-8 -56v-451 q0 -107 -15 -163.5t-63 -104.5zM352 578v356q0 30 13 43l190 190q4 4 8 0l236 -227q12 -12 17.5 -26t6 -24t0.5 -36v-207q0 -20 -32 -14l-263 49q-62 9 -100 -29zM371 1706q0 45 30.5 75.5t75.5 30.5q46 0 76.5 -30t30.5 -76t-30.5 -76.5t-76.5 -30.5q-45 0 -75.5 30.5 t-30.5 76.5zM668 1710q0 46 30 76.5t76 30.5q45 0 76 -31t31 -76t-31 -75.5t-76 -30.5q-46 0 -76 30t-30 76z" />
<glyph unicode="&#xc5;" d="M29 4q-4 -4 0 -8l28 -25q5 -5 9 0l141 144q71 71 108 149.5t37 181.5v68q21 34 58 29l217 -39q43 -10 78.5 -6t62.5 28l55 52v-338q0 -80 19 -137t50 -84.5t61 -38.5t61 -11q84 0 170 86l63 64q4 4 0 8l-28 25q-5 4 -9 0l-13 -13l-12 -12t-11 -10.5t-11.5 -10l-10.5 -7.5 t-11.5 -6.5t-11 -4t-13.5 -3.5t-14 -1q-59 0 -80 67.5t-21 204.5v594q0 31 -6.5 46t-25.5 34l-336 328q-13 14 -13 36t13 36l33 34q4 4 0 9l-29 24q-4 4 -8 0l-101 -102q-44 -45 -47 -92t39 -91q3 -3 0 -6l-293 -293q-18 -18 -27.5 -30t-17.5 -36t-8 -56v-451 q0 -107 -15 -163.5t-63 -104.5zM352 578v356q0 30 13 43l190 190q4 4 8 0l236 -227q12 -12 17.5 -26t6 -24t0.5 -36v-207q0 -20 -32 -14l-263 49q-62 9 -100 -29zM477 1712q0 62 43.5 105t104.5 43t104 -43t43 -105t-43 -104.5t-104 -42.5q-62 0 -105 43t-43 104zM575 1712 q0 -44 15 -75t35 -31t34.5 31t14.5 75q0 43 -14.5 75t-34.5 32t-35 -32t-15 -75z" />
<glyph unicode="&#xc6;" horiz-adv-x="1843" d="M29 -4q-4 4 0 8l67 68q48 48 63 104.5t15 163.5v459q0 32 8 56.5t17.5 36.5t27.5 30l293 286q-42 44 -39 93t47 94l101 102q4 4 8 0l29 -24q4 -5 0 -9l-35 -37q-13 -13 -13 -33t13 -34l233 -230q75 62 168.5 151t116.5 116q34 37 63.5 52t69.5 15q52 0 117 -20 q24 -8 72 -30.5t91.5 -36t88.5 -13.5q55 0 94 39l33 33q4 4 8 0l29 -25q4 -4 0 -8l-99 -100q-30 -30 -56 -48.5t-55.5 -30.5t-61.5 -10.5t-66 15.5l-181 76q-117 48 -194 -29l-98 -96q-3 -3 -3 -6v-500q0 -7 7 0l202 203q4 4 9 2l231 -58q30 -9 56.5 -5.5t49.5 26.5l33 32 q4 4 8 0l29 -24q4 -4 0 -8l-133 -135l-11.5 -11.5t-17.5 -11.5t-27.5 -11t-36.5 -2.5t-50 7.5l-209 55q-4 2 -8 -2l-125 -125q-7 -7 -7 -14v-96q0 -215 99 -313.5t272 -98.5q67 0 127.5 23.5t110.5 67t87.5 89.5t76.5 107q4 4 8 0l26 -23q5 -5 2 -10q-33 -58 -64.5 -104.5 t-80 -98t-100 -86t-121.5 -57.5t-148 -23q-100 0 -184.5 27.5t-150 82t-102 144t-36.5 205.5v150l-55 -52q-27 -24 -62.5 -28t-78.5 6l-217 39q-37 5 -58 -29v-68q0 -103 -37 -181.5t-108 -149.5l-141 -144q-4 -5 -9 0zM352 578l82 81q38 38 101 29l272 -51q16 -2 16 12v205 q0 35 -4.5 52t-21.5 34l-240 231q-4 4 -8 0l-184 -186q-13 -13 -13 -43v-364z" />
<glyph unicode="&#xc7;" horiz-adv-x="1214" d="M47 541q0 133 41 247.5t106 200.5t171 187l131 124q4 4 0 9l-15 14q-47 47 -90 47q-28 0 -63 -35l-39 -39q-4 -4 -8 0l-29 25q-4 4 0 8l47 47q88 88 193 88q115 0 225 -98l254 -231q121 -108 190 -31l19 20q4 4 8 0l29 -24q4 -4 0 -8l-31 -37q-53 -62 -89.5 -84.5 t-86.5 -22.5q-65 0 -117.5 26.5t-122.5 88.5l-229 205q-5 4 -9 0l-36 -37q-140 -140 -208.5 -273t-68.5 -294q0 -134 37.5 -244.5t103 -183.5t153 -112.5t187.5 -39.5q146 0 263 110.5t174 323.5q3 9 8 4l35 -18q4 -4 2 -10q-96 -392 -351 -492q-51 -20 -92 -61l-92 -91 q-3 -3 -1.5 -3.5t3.5 1.5q23 16 62 16t61 -22q35 -36 24.5 -86t-63.5 -104l-125 -119q-4 -4 -8 0l-29 25q-4 4 0 8l86 84q39 37 45.5 77t-14.5 58q-19 18 -50.5 14t-62.5 -24l-18 -13q-4 -4 -8 0l-29 25q-4 4 0 8l172 170q3 5 0 8q-40 -4 -61 -4q-88 0 -172 22.5t-158.5 70 t-131 114t-89.5 161t-33 204.5z" />
<glyph unicode="&#xc8;" d="M61 1235q-4 4 0 8l154 154q37 37 66 52t67 15q96 0 325 -52t296 -52q55 0 94 39l33 33q4 4 8 0l29 -25q4 -4 0 -8l-99 -101q-90 -90 -188 -90q-30 0 -80.5 8t-90.5 16.5t-114 25.5t-106 24q-4 0 -6 -2q-60 -67 -95 -100q-2 -2 -2 -6v-500q0 -6 6 0l203 203q4 3 8 2 l260 -64q30 -9 57 -5.5t50 26.5l33 32q4 4 8 0l29 -24q4 -4 0 -8l-134 -136q-52 -52 -143 -28l-237 61q-5 2 -9 -2l-125 -125q-6 -6 -6 -14v-96q0 -412 363 -412q134 0 234 75t163 199q3 5 6 2l31 -22q3 -3 0 -8q-42 -74 -84 -130t-104 -112.5t-144 -87.5t-178 -31 q-100 0 -183.5 27.5t-147 82t-99 144t-35.5 205.5v664q0 4 6 10q145 95 215 190q4 4 -2 4q-83 17 -129 17q-55 0 -96 -35q-9 -7 -70 -68q-4 -4 -8 0zM467 1843q-8 8 2 8h215q5 0 8 -6l158 -295q5 -8 -2 -8h-39q-6 0 -12 6z" />
<glyph unicode="&#xc9;" d="M61 1235q-4 4 0 8l154 154q37 37 66 52t67 15q96 0 325 -52t296 -52q55 0 94 39l33 33q4 4 8 0l29 -25q4 -4 0 -8l-99 -101q-90 -90 -188 -90q-30 0 -80.5 8t-90.5 16.5t-114 25.5t-106 24q-4 0 -6 -2q-60 -67 -95 -100q-2 -2 -2 -6v-500q0 -6 6 0l203 203q4 3 8 2 l260 -64q30 -9 57 -5.5t50 26.5l33 32q4 4 8 0l29 -24q4 -4 0 -8l-134 -136q-52 -52 -143 -28l-237 61q-5 2 -9 -2l-125 -125q-6 -6 -6 -14v-96q0 -412 363 -412q134 0 234 75t163 199q3 5 6 2l31 -22q3 -3 0 -8q-42 -74 -84 -130t-104 -112.5t-144 -87.5t-178 -31 q-100 0 -183.5 27.5t-147 82t-99 144t-35.5 205.5v664q0 4 6 10q145 95 215 190q4 4 -2 4q-83 17 -129 17q-55 0 -96 -35q-9 -7 -70 -68q-4 -4 -8 0zM485 1548l158 295q3 6 8 6h215q10 0 2 -8l-329 -295q-6 -6 -13 -6h-39q-7 0 -2 8z" />
<glyph unicode="&#xca;" d="M61 1235q-4 4 0 8l154 154q37 37 66 52t67 15q96 0 325 -52t296 -52q55 0 94 39l33 33q4 4 8 0l29 -25q4 -4 0 -8l-99 -101q-90 -90 -188 -90q-30 0 -80.5 8t-90.5 16.5t-114 25.5t-106 24q-4 0 -6 -2q-60 -67 -95 -100q-2 -2 -2 -6v-500q0 -6 6 0l203 203q4 3 8 2 l260 -64q30 -9 57 -5.5t50 26.5l33 32q4 4 8 0l29 -24q4 -4 0 -8l-134 -136q-52 -52 -143 -28l-237 61q-5 2 -9 -2l-125 -125q-6 -6 -6 -14v-96q0 -412 363 -412q134 0 234 75t163 199q3 5 6 2l31 -22q3 -3 0 -8q-42 -74 -84 -130t-104 -112.5t-144 -87.5t-178 -31 q-100 0 -183.5 27.5t-147 82t-99 144t-35.5 205.5v664q0 4 6 10q145 95 215 190q4 4 -2 4q-83 17 -129 17q-55 0 -96 -35q-9 -7 -70 -68q-4 -4 -8 0zM362 1585l158 295q3 6 8 6h181q5 0 8 -6l157 -295q5 -8 -2 -8h-38q-7 0 -13 6l-198 197q-5 4 -9 0l-198 -197q-6 -6 -13 -6 h-38q-8 0 -3 8z" />
<glyph unicode="&#xcb;" d="M61 1235l29 -25q4 -4 8 0q61 61 70 68q41 35 96 35q46 0 129 -17q6 0 2 -4q-70 -95 -215 -190q-6 -6 -6 -10v-664q0 -116 35.5 -205.5t99 -144t147 -82t183.5 -27.5q96 0 178 31t144 87.5t104 112.5t84 130q3 5 0 8l-31 22q-3 3 -6 -2q-63 -124 -163 -199t-234 -75 q-363 0 -363 412v96q0 8 6 14l125 125q4 4 9 2l237 -61q91 -24 143 28l134 136q4 4 0 8l-29 24q-4 4 -8 0l-33 -32q-23 -23 -50 -26.5t-57 5.5l-260 64q-4 1 -8 -2l-203 -203q-6 -6 -6 0v500q0 4 2 6q35 33 95 100q2 2 6 2q32 -7 106 -24t114 -25.5t90.5 -16.5t80.5 -8 q98 0 188 90l99 101q4 4 0 8l-29 25q-4 4 -8 0l-33 -33q-39 -39 -94 -39q-67 0 -296 52t-325 52q-38 0 -67 -15t-66 -52l-154 -154q-4 -4 0 -8zM389 1710q0 45 31 76t76 31q46 0 76 -30.5t30 -76.5t-30 -76t-76 -30q-45 0 -76 30.5t-31 75.5zM686 1714q0 46 30.5 76.5 t76.5 30.5q45 0 75.5 -30.5t30.5 -76.5q0 -45 -30.5 -75.5t-75.5 -30.5q-46 0 -76.5 30t-30.5 76z" />
<glyph unicode="&#xcc;" horiz-adv-x="622" d="M-53 1262q-4 4 0 8l164 162q28 28 70 31.5t83 -7.5l250 -47q28 -5 43.5 1.5t30.5 21.5l30 30q4 4 9 0l28 -24q4 -4 0 -8l-202 -203q-50 -50 -50 -117v-618q0 -47 -17 -89.5t-34 -64.5t-47 -53l-88 -88l289 -78q28 -8 43.5 -4.5t32.5 20.5l41 41q4 4 8 0l28 -24q5 -4 0 -9 l-112 -114q-37 -37 -76 -53t-94 1l-234 68q-31 11 -50 8t-42 -26l-53 -54q-4 -4 -8 0l-29 25q-4 4 0 8l186 187q42 42 60 80.5t18 105.5v612q0 52 11.5 76t44.5 57l122 125l-307 56q-17 5 -30 1.5t-17.5 -6.5t-13.5 -12l-51 -51q-4 -5 -9 0zM193 1845q-8 8 2 8h215q5 0 8 -6 l157 -295q5 -8 -2 -8h-38q-7 0 -13 6z" />
<glyph unicode="&#xcd;" horiz-adv-x="622" d="M-53 1262q-4 4 0 8l164 162q28 28 70 31.5t83 -7.5l250 -47q28 -5 43.5 1.5t30.5 21.5l30 30q4 4 9 0l28 -24q4 -4 0 -8l-202 -203q-50 -50 -50 -117v-618q0 -47 -17 -89.5t-34 -64.5t-47 -53l-88 -88l289 -78q28 -8 43.5 -4.5t32.5 20.5l41 41q4 4 8 0l28 -24q5 -4 0 -9 l-112 -114q-37 -37 -76 -53t-94 1l-234 68q-31 11 -50 8t-42 -26l-53 -54q-4 -4 -8 0l-29 25q-4 4 0 8l186 187q42 42 60 80.5t18 105.5v612q0 52 11.5 76t44.5 57l122 125l-307 56q-17 5 -30 1.5t-17.5 -6.5t-13.5 -12l-51 -51q-4 -5 -9 0zM193 1550l157 295q3 6 8 6h215 q10 0 2 -8l-329 -295q-6 -6 -13 -6h-38q-7 0 -2 8z" />
<glyph unicode="&#xce;" horiz-adv-x="622" d="M-53 1262q-4 4 0 8l164 162q28 28 70 31.5t83 -7.5l250 -47q28 -5 43.5 1.5t30.5 21.5l30 30q4 4 9 0l28 -24q4 -4 0 -8l-202 -203q-50 -50 -50 -117v-618q0 -47 -17 -89.5t-34 -64.5t-47 -53l-88 -88l289 -78q28 -8 43.5 -4.5t32.5 20.5l41 41q4 4 8 0l28 -24q5 -4 0 -9 l-112 -114q-37 -37 -76 -53t-94 1l-234 68q-31 11 -50 8t-42 -26l-53 -54q-4 -4 -8 0l-29 25q-4 4 0 8l186 187q42 42 60 80.5t18 105.5v612q0 52 11.5 76t44.5 57l122 125l-307 56q-17 5 -30 1.5t-17.5 -6.5t-13.5 -12l-51 -51q-4 -5 -9 0zM70 1583l157 295q3 6 9 6h180 q5 0 8 -6l158 -295q5 -8 -2 -8h-39q-7 0 -13 6l-198 197q-4 4 -8 0l-199 -197q-6 -6 -12 -6h-39q-7 0 -2 8z" />
<glyph unicode="&#xcf;" horiz-adv-x="622" d="M-53 1262q-4 4 0 8l164 162q28 28 70 31.5t83 -7.5l250 -47q28 -5 43.5 1.5t30.5 21.5l30 30q4 4 9 0l28 -24q4 -4 0 -8l-202 -203q-50 -50 -50 -117v-618q0 -47 -17 -89.5t-34 -64.5t-47 -53l-88 -88l289 -78q28 -8 43.5 -4.5t32.5 20.5l41 41q4 4 8 0l28 -24q5 -4 0 -9 l-112 -114q-37 -37 -76 -53t-94 1l-234 68q-31 11 -50 8t-42 -26l-53 -54q-4 -4 -8 0l-29 25q-4 4 0 8l186 187q42 42 60 80.5t18 105.5v612q0 52 11.5 76t44.5 57l122 125l-307 56q-17 5 -30 1.5t-17.5 -6.5t-13.5 -12l-51 -51q-4 -5 -9 0zM70 1712q0 46 31 76.5t75 30.5 q46 0 76.5 -30.5t30.5 -76.5t-30.5 -76t-76.5 -30q-45 0 -75.5 30.5t-30.5 75.5zM367 1716q0 46 30 76.5t76 30.5q45 0 76 -31t31 -76t-31 -75.5t-76 -30.5q-46 0 -76 30t-30 76z" />
<glyph unicode="&#xd0;" horiz-adv-x="1466" d="M-35 573q-5 5 0 9l152 147q34 34 63 46.5t70 12.5q23 0 39 -2q2 0 2 2v242q0 56 53 109l168 161q5 5 0 5q-82 19 -137 14q-63 -4 -107 -25t-86 -63l-63 -62q-4 -4 -8 0l-29 25q-4 4 0 8l121 123q52 52 129 95.5t164 43.5q168 0 321 -64t262 -170t171 -250.5t57 -299.5 q-5 -161 -60 -296t-144 -225t-205.5 -140t-244.5 -50q-124 0 -229 31.5t-221 87.5q-53 27 -90 -10l-39 -39q-4 -4 -8 0l-29 24q-5 5 0 9l162 161q26 26 53 15l31 -12q6 -2 7 -1t1 7v389q0 4 -4 4q-86 12 -133 12q-45 0 -95 -43l-57 -55q-4 -4 -8 0zM332.5 221q0.5 -3 3.5 -4 q15 -6 97.5 -41.5t117.5 -48t103 -28t128 -15.5q177 0 292.5 131t115.5 360q0 120 -33.5 225.5t-91 184t-136.5 141.5t-168 103t-188 63q-4 0 -8 -4l-65 -67q-22 -22 -28.5 -36t-6.5 -44v-383q0 -4 4 -4q134 -21 178 -21q51 0 94 43l15 15q4 4 8 0l29 -25q4 -4 0 -8 l-109 -107q-34 -34 -63 -46.5t-70 -12.5q-44 0 -82 6h-4v-174q0 -44 -10.5 -66.5t-44.5 -56.5l-76 -76q-2 -1 -1.5 -4z" />
<glyph unicode="&#xd1;" horiz-adv-x="1353" d="M33 1274q-4 4 0 8l94 92q90 90 184 90q96 0 167.5 -52t119.5 -181l406 -1024v993q0 81 32 113l185 184q4 4 8 0l26 -27q4 -4 0 -8l-51 -53q-17 -17 -22.5 -38.5t-5.5 -61.5v-936q0 -8 -7 -15l-53 -53q-65 -65 -65 -143q0 -50 31.5 -79.5t66.5 -29.5q59 0 86 62q3 7 8 2 l29 -25q4 -4 2 -8q-63 -115 -193 -115q-166 0 -235 178l-432 1070q-2 4 -4 0q-19 -27 -54 -62q-4 -4 -4 -10v-758q0 -107 -24 -165.5t-101 -137.5l-110 -113q-4 -4 -8 0l-29 25q-4 4 0 8l49 49q33 33 42 66t9 98v850q0 2 6 8q53 35 110 87.5t89 94.5q3 3 0 9 q-25 49 -67 68.5t-80 19.5q-63 0 -123 -60l-45 -45q-4 -5 -9 0zM369 1653q-4 4 0 8l139 139q22 22 56 28t63 -7l207 -101q33 -14 65 15l59 53q4 4 9 0l28 -27q4 -4 0 -8l-139 -139q-22 -22 -56 -28t-63 7l-202 97q-39 17 -70 -11l-59 -53q-4 -4 -9 0z" />
<glyph unicode="&#xd2;" horiz-adv-x="1355" d="M59 559q0 113 29.5 211t87 179.5t131.5 148t174 131.5q4 4 8 0l25 -23q4 -4 0 -8q-65 -50 -110.5 -99.5t-83 -116t-56 -152.5t-18.5 -193q0 -163 55 -293t161.5 -206.5t246.5 -76.5q206 0 322 149.5t116 391.5q0 334 -168 527.5t-438 193.5q-114 0 -216 -49.5 t-165 -134.5q-4 -4 -8 0l-29 24q-4 4 0 8q82 120 217.5 206.5t286.5 86.5q123 0 232 -37t191.5 -103t142.5 -153.5t91 -191.5t31 -215q0 -161 -52 -307.5t-140 -253.5t-212 -170.5t-262 -63.5q-141 0 -255.5 50.5t-186 134.5t-110 188t-38.5 217zM481 1845q-8 8 2 8h215 q6 0 9 -6l157 -295q5 -8 -2 -8h-39q-6 0 -12 6z" />
<glyph unicode="&#xd3;" horiz-adv-x="1355" d="M59 559q0 113 29.5 211t87 179.5t131.5 148t174 131.5q4 4 8 0l25 -23q4 -4 0 -8q-65 -50 -110.5 -99.5t-83 -116t-56 -152.5t-18.5 -193q0 -163 55 -293t161.5 -206.5t246.5 -76.5q206 0 322 149.5t116 391.5q0 334 -168 527.5t-438 193.5q-114 0 -216 -49.5 t-165 -134.5q-4 -4 -8 0l-29 24q-4 4 0 8q82 120 217.5 206.5t286.5 86.5q123 0 232 -37t191.5 -103t142.5 -153.5t91 -191.5t31 -215q0 -161 -52 -307.5t-140 -253.5t-212 -170.5t-262 -63.5q-141 0 -255.5 50.5t-186 134.5t-110 188t-38.5 217zM520 1550l158 295q3 6 8 6 h215q10 0 2 -8l-330 -295q-6 -6 -12 -6h-39q-7 0 -2 8z" />
<glyph unicode="&#xd4;" horiz-adv-x="1355" d="M59 559q0 113 29.5 211t87 179.5t131.5 148t174 131.5q4 4 8 0l25 -23q4 -4 0 -8q-65 -50 -110.5 -99.5t-83 -116t-56 -152.5t-18.5 -193q0 -163 55 -293t161.5 -206.5t246.5 -76.5q206 0 322 149.5t116 391.5q0 334 -168 527.5t-438 193.5q-114 0 -216 -49.5 t-165 -134.5q-4 -4 -8 0l-29 24q-4 4 0 8q82 120 217.5 206.5t286.5 86.5q123 0 232 -37t191.5 -103t142.5 -153.5t91 -191.5t31 -215q0 -161 -52 -307.5t-140 -253.5t-212 -170.5t-262 -63.5q-141 0 -255.5 50.5t-186 134.5t-110 188t-38.5 217zM432 1583l158 295q3 6 8 6 h180q5 0 8 -6l158 -295q5 -8 -2 -8h-39q-6 0 -12 6l-199 197q-4 4 -8 0l-199 -197q-6 -6 -12 -6h-39q-7 0 -2 8z" />
<glyph unicode="&#xd5;" horiz-adv-x="1355" d="M59 559q0 113 29.5 211t87 179.5t131.5 148t174 131.5q4 4 8 0l25 -23q4 -4 0 -8q-65 -50 -110.5 -99.5t-83 -116t-56 -152.5t-18.5 -193q0 -163 55 -293t161.5 -206.5t246.5 -76.5q206 0 322 149.5t116 391.5q0 334 -168 527.5t-438 193.5q-114 0 -216 -49.5 t-165 -134.5q-4 -4 -8 0l-29 24q-4 4 0 8q82 120 217.5 206.5t286.5 86.5q123 0 232 -37t191.5 -103t142.5 -153.5t91 -191.5t31 -215q0 -161 -52 -307.5t-140 -253.5t-212 -170.5t-262 -63.5q-141 0 -255.5 50.5t-186 134.5t-110 188t-38.5 217zM352 1661q-4 4 0 8l140 139 q22 22 55.5 28t62.5 -7l207 -100q34 -15 66 14l59 53q4 4 8 0l29 -27q4 -4 0 -8l-139 -139q-22 -22 -56 -27.5t-63 7.5l-203 96q-39 17 -69 -10l-60 -54q-4 -4 -8 0z" />
<glyph unicode="&#xd6;" horiz-adv-x="1355" d="M59 559q0 -113 38.5 -217t110 -188t186 -134.5t255.5 -50.5q138 0 262 63.5t212 170.5t140 253.5t52 307.5q0 111 -31 215t-91 191.5t-142.5 153.5t-191.5 103t-232 37q-151 0 -286.5 -86.5t-217.5 -206.5q-4 -4 0 -8l29 -24q4 -4 8 0q63 85 165 134.5t216 49.5 q270 0 438 -193.5t168 -527.5q0 -242 -116 -391.5t-322 -149.5q-140 0 -246.5 76.5t-161.5 206.5t-55 293q0 107 18.5 193t56 152.5t83 116t110.5 99.5q4 4 0 8l-25 23q-4 4 -8 0q-100 -65 -174 -131.5t-131.5 -148t-87 -179.5t-29.5 -211zM420 1706q0 45 30.5 75.5 t75.5 30.5q46 0 76.5 -30t30.5 -76t-30.5 -76.5t-76.5 -30.5q-44 0 -75 30.5t-31 76.5zM717 1710q0 46 30 76.5t76 30.5q45 0 76 -31t31 -76t-31 -75.5t-76 -30.5q-46 0 -76 30t-30 76z" />
<glyph unicode="&#xd7;" horiz-adv-x="1071" d="M121 178q-7 6 2 15l297 296q6 5 0 11l-295 299q-8 8 0 16l90 92q6 6 14 -2l301 -297q5 -6 11 0l301 297q6 6 12 0l92 -96q5 -5 0 -10l-293 -297q-7 -8 0 -15l295 -297q6 -6 -2 -14l-86 -92q-9 -9 -18 0l-297 297q-6 9 -15 0l-303 -297q-6 -6 -12 0z" />
<glyph unicode="&#xd8;" horiz-adv-x="1355" d="M59 559q0 113 29.5 211t87 179.5t131.5 148t174 131.5q4 4 8 0l25 -23q4 -4 0 -8q-65 -50 -110.5 -99.5t-83 -116t-56 -152.5t-18.5 -193q0 -194 73 -334l652 834q-163 186 -430 186q-114 0 -216 -49.5t-165 -134.5q-4 -4 -8 0l-29 24q-4 4 0 8q82 120 217.5 206.5 t286.5 86.5q274 0 463 -176l135 172q2 4 6 4h74q4 0 2 -4l-170 -217q85 -97 131.5 -221t46.5 -258q0 -161 -52 -307.5t-140 -253.5t-212 -170.5t-262 -63.5q-237 0 -399 142l-107 -138q-2 -4 -6 -4h-74q-4 0 -2 4l144 183q-71 82 -108.5 187.5t-37.5 215.5zM356 246 q129 -185 353 -185q206 0 322 149.5t116 391.5q0 291 -133 483z" />
<glyph unicode="&#xd9;" horiz-adv-x="1290" d="M10 1327q-4 4 0 8l41 41q32 32 49.5 47t46.5 28t62 13q24 0 43.5 -6t33.5 -14t24.5 -23.5t17.5 -28t12 -34.5t7 -35t3.5 -38.5t1.5 -36v-34.5v-903q0 -115 66 -171t164 -56q114 0 204.5 78.5t149.5 193.5q2 4 2 11v825q0 77 31 108l190 195q4 4 8 0l29 -25q4 -4 0 -8 l-51 -53q-29 -29 -29 -100v-1065q0 -129 72 -135q32 -3 59 24l25 25q4 4 8 0l29 -25q4 -4 0 -8l-37 -37q-49 -49 -86 -68.5t-78 -19.5q-73 0 -121.5 57t-48.5 144v53q-1 4 -4 0q-74 -128 -184 -206.5t-234 -78.5q-158 0 -250 101t-92 292v908q0 47 -7.5 71t-29.5 25 q-24 2 -69 -43l-21 -20q-4 -4 -8 0zM426 1845q-8 8 2 8h215q5 0 8 -6l158 -295q5 -8 -2 -8h-39q-6 0 -12 6z" />
<glyph unicode="&#xda;" horiz-adv-x="1290" d="M10 1327q-4 4 0 8l41 41q32 32 49.5 47t46.5 28t62 13q24 0 43.5 -6t33.5 -14t24.5 -23.5t17.5 -28t12 -34.5t7 -35t3.5 -38.5t1.5 -36v-34.5v-903q0 -115 66 -171t164 -56q114 0 204.5 78.5t149.5 193.5q2 4 2 11v825q0 77 31 108l190 195q4 4 8 0l29 -25q4 -4 0 -8 l-51 -53q-29 -29 -29 -100v-1065q0 -129 72 -135q32 -3 59 24l25 25q4 4 8 0l29 -25q4 -4 0 -8l-37 -37q-49 -49 -86 -68.5t-78 -19.5q-73 0 -121.5 57t-48.5 144v53q-1 4 -4 0q-74 -128 -184 -206.5t-234 -78.5q-158 0 -250 101t-92 292v908q0 47 -7.5 71t-29.5 25 q-24 2 -69 -43l-21 -20q-4 -4 -8 0zM498 1550l157 295q3 6 9 6h215q10 0 2 -8l-330 -295q-6 -6 -12 -6h-39q-7 0 -2 8z" />
<glyph unicode="&#xdb;" horiz-adv-x="1290" d="M10 1327q-4 4 0 8l41 41q32 32 49.5 47t46.5 28t62 13q24 0 43.5 -6t33.5 -14t24.5 -23.5t17.5 -28t12 -34.5t7 -35t3.5 -38.5t1.5 -36v-34.5v-903q0 -115 66 -171t164 -56q114 0 204.5 78.5t149.5 193.5q2 4 2 11v825q0 77 31 108l190 195q4 4 8 0l29 -25q4 -4 0 -8 l-51 -53q-29 -29 -29 -100v-1065q0 -129 72 -135q32 -3 59 24l25 25q4 4 8 0l29 -25q4 -4 0 -8l-37 -37q-49 -49 -86 -68.5t-78 -19.5q-73 0 -121.5 57t-48.5 144v53q-1 4 -4 0q-74 -128 -184 -206.5t-234 -78.5q-158 0 -250 101t-92 292v908q0 47 -7.5 71t-29.5 25 q-24 2 -69 -43l-21 -20q-4 -4 -8 0zM412 1581l157 295q3 6 9 6h180q5 0 8 -6l158 -295q5 -8 -2 -8h-39q-7 0 -13 6l-198 197q-4 4 -8 0l-199 -197q-6 -6 -12 -6h-39q-7 0 -2 8z" />
<glyph unicode="&#xdc;" horiz-adv-x="1290" d="M10 1327l29 -24q4 -4 8 0l21 20q45 45 69 43q22 -1 29.5 -25t7.5 -71v-908q0 -191 92 -292t250 -101q124 0 234 78.5t184 206.5q1 1 1 2q3 4 3 -2v-53q0 -87 48.5 -144t121.5 -57q41 0 78 19.5t86 68.5l37 37q4 4 0 8l-29 25q-4 4 -8 0l-25 -25q-27 -27 -59 -24 q-72 6 -72 135v1065q0 71 29 100l51 53q4 4 0 8l-29 25q-4 4 -8 0l-190 -195q-31 -31 -31 -108v-825q0 -7 -2 -11q-59 -115 -149.5 -193.5t-204.5 -78.5q-98 0 -164 56t-66 171v903v34.5t-1.5 36t-3.5 38.5t-7 35t-12 34.5t-17.5 28t-24.5 23.5t-33.5 14t-43.5 6 q-33 0 -62 -13t-46.5 -28t-49.5 -47l-41 -41q-4 -4 0 -8zM389 1710q0 45 31 76t76 31q46 0 76 -30.5t30 -76.5t-30 -76t-76 -30q-45 0 -76 30.5t-31 75.5zM686 1714q0 46 30.5 76.5t76.5 30.5q45 0 75.5 -30.5t30.5 -76.5q0 -45 -30.5 -75.5t-75.5 -30.5q-46 0 -76.5 30 t-30.5 76z" />
<glyph unicode="&#xdd;" horiz-adv-x="1148" d="M2 1343q-4 5 0 9l51 53q29 29 58 44t75 15q166 0 166 -264v-418q0 -95 43.5 -141.5t118.5 -46.5q113 0 219 106q8 8 25 24.5t31 30.5t24 25l2 6v406q0 77 31 108l190 195q4 4 8 0l29 -25q4 -4 0 -8l-47 -51q-33 -33 -33 -102v-654q0 -65 -15 -139.5t-42.5 -151.5 t-72 -147.5t-99 -126t-127.5 -88.5t-154 -33q-110 0 -200 46t-144 126q-4 7 2 13l246 243q4 4 8 0l29 -24q4 -4 0 -8l-35 -39q-54 -63 -33 -150q11 -48 51 -81.5t117 -33.5q140 0 215.5 94t75.5 265v285l-4 2q-12 -13 -26 -27t-31 -30.5t-25 -24.5q-70 -70 -138 -109 t-157 -39q-116 0 -188 86t-72 240v454q0 24 -1.5 40.5t-7 34.5t-17.5 27t-31 9q-29 0 -49 -20l-29 -29q-4 -4 -8 0zM461 1548l157 295q3 6 9 6h215q10 0 2 -8l-330 -295q-6 -6 -12 -6h-39q-7 0 -2 8z" />
<glyph unicode="&#xde;" horiz-adv-x="856" d="M37 1360l113 104q3 3 10 0q61 -31 93 -77t32 -125v-289q0 -6 4 -2l264 264q4 4 8 0l45 -39q102 -89 144.5 -176t42.5 -199q0 -64 -14.5 -129.5t-61.5 -153.5t-123 -165l-178 -180q-4 -4 -8 0l-29 26q-4 4 0 8l10 13q15 15 0 24l-100 66q-1 1 -2 -2q-1 -2 -2 0v-82 q0 -82 16 -112t61 -50q10 -5 3 -8l-113 -105q-3 -3 -10 0q-61 31 -93 77.5t-32 125.5v1016q0 81 -16.5 111.5t-61.5 50.5q-9 4 -2 8zM285 514l4 -6l215 -143q6 -4 10 0q117 115 117 321q0 124 -38 202t-138 169q-5 5 -9 0l-157 -158q-4 -4 -4 -8v-377z" />
<glyph unicode="&#xdf;" horiz-adv-x="1075" d="M88 -4q-4 4 0 8l41 43q45 45 45 131v656q0 135 2 153q8 91 70 179q53 75 170 192q41 41 86.5 67t93 35t91 -17t71.5 -89q19 -43 22.5 -99t-8.5 -119.5t-51.5 -132.5t-102.5 -126q-3 -3 -1.5 -5t4.5 0q47 19 106 19q125 0 209 -110t90 -263q4 -111 -32 -216t-95.5 -178 t-135 -116t-147.5 -39q-66 3 -108.5 30t-56.5 73q-21 71 13.5 143.5t98.5 132.5l55 53q4 5 9 0l28 -24q4 -4 0 -8l-41 -43q-72 -78 -55 -172q6 -40 41 -64t78 -24q48 0 82.5 15t54.5 38t32 62.5t16.5 78t6.5 94.5q6 193 -71.5 303.5t-190.5 110.5q-62 0 -129 -37q-4 -4 -8 0 l-29 25q-4 4 0 8l68 78q68 79 94.5 185.5t-0.5 201.5q-13 44 -45.5 65t-68 17t-60.5 -29q-49 -47 -63.5 -96.5t-14.5 -145.5v-690q0 -88 -29 -148.5t-90 -121.5l-108 -109q-4 -4 -8 0z" />
<glyph unicode="&#xe0;" horiz-adv-x="823" d="M59 406q0 59 16 116t38.5 101t63 96t72 86t81.5 84l121 121q3 3 6 0l239 -254q4 -4 4 -8v-529q0 -73 29 -98q2 -2 6 2l68 67q4 4 8 0l29 -26q4 -4 0 -8l-187 -185q-3 -3 -6 0q-57 44 -82.5 99.5t-25.5 136.5q0 6 -4 2l-238 -238q-6 -6 -14 0q-31 19 -60 44.5t-59.5 65.5 t-53 86t-37 108.5t-14.5 130.5zM211 522q0 -256 160 -393q5 -5 10 0l149 150q5 5 5 8v381q0 3 -5 8l-163 174q-3 4 -7 0l-26 -29q-123 -148 -123 -299zM254 1348q-8 8 2 8h215q5 0 8 -6l158 -295q5 -8 -2 -8h-39q-6 0 -12 6z" />
<glyph unicode="&#xe1;" horiz-adv-x="823" d="M59 406q0 59 16 116t38.5 101t63 96t72 86t81.5 84l121 121q3 3 6 0l239 -254q4 -4 4 -8v-529q0 -73 29 -98q2 -2 6 2l68 67q4 4 8 0l29 -26q4 -4 0 -8l-187 -185q-3 -3 -6 0q-57 44 -82.5 99.5t-25.5 136.5q0 6 -4 2l-238 -238q-6 -6 -14 0q-31 19 -60 44.5t-59.5 65.5 t-53 86t-37 108.5t-14.5 130.5zM211 522q0 -256 160 -393q5 -5 10 0l149 150q5 5 5 8v381q0 3 -5 8l-163 174q-3 4 -7 0l-26 -29q-123 -148 -123 -299zM252 1053l158 295q3 6 8 6h215q10 0 2 -8l-330 -295q-7 -7 -12 -7h-39q-8 0 -2 9z" />
<glyph unicode="&#xe2;" horiz-adv-x="823" d="M59 406q0 59 16 116t38.5 101t63 96t72 86t81.5 84l121 121q3 3 6 0l239 -254q4 -4 4 -8v-529q0 -73 29 -98q2 -2 6 2l68 67q4 4 8 0l29 -26q4 -4 0 -8l-187 -185q-3 -3 -6 0q-57 44 -82.5 99.5t-25.5 136.5q0 6 -4 2l-238 -238q-6 -6 -14 0q-31 19 -60 44.5t-59.5 65.5 t-53 86t-37 108.5t-14.5 130.5zM188 1087l158 295q4 7 8 7h181q5 0 8 -7l157 -295q5 -8 -2 -8h-39q-6 0 -12 6l-198 197q-5 4 -9 0l-198 -197q-6 -6 -13 -6h-39q-7 0 -2 8zM211 522q0 -256 160 -393q5 -5 10 0l149 150q5 5 5 8v381q0 3 -5 8l-163 174q-3 4 -7 0l-26 -29 q-123 -148 -123 -299z" />
<glyph unicode="&#xe3;" horiz-adv-x="823" d="M59 406q0 59 16 116t38.5 101t63 96t72 86t81.5 84l121 121q3 3 6 0l239 -254q4 -4 4 -8v-529q0 -73 29 -98q2 -2 6 2l68 67q4 4 8 0l29 -26q4 -4 0 -8l-187 -185q-3 -3 -6 0q-57 44 -82.5 99.5t-25.5 136.5q0 6 -4 2l-238 -238q-6 -6 -14 0q-31 19 -60 44.5t-59.5 65.5 t-53 86t-37 108.5t-14.5 130.5zM131 1145q-4 4 0 8l139 139q22 22 56 28t63 -7l207 -101q34 -15 66 15l59 53q4 4 8 0l29 -27q4 -4 0 -8l-140 -139q-22 -22 -55.5 -28t-62.5 7l-203 97q-39 17 -70 -11l-59 -53q-4 -4 -8 0zM211 522q0 -256 160 -393q5 -5 10 0l149 150 q5 5 5 8v381q0 3 -5 8l-163 174q-3 4 -7 0l-26 -29q-123 -148 -123 -299z" />
<glyph unicode="&#xe4;" horiz-adv-x="823" d="M59 406q0 59 16 116t38.5 101t63 96t72 86t81.5 84l121 121q3 3 6 0l239 -254q4 -4 4 -8v-529q0 -73 29 -98q2 -2 6 2l68 67q4 4 8 0l29 -26q4 -4 0 -8l-187 -185q-3 -3 -6 0q-57 44 -82.5 99.5t-25.5 136.5q0 6 -4 2l-238 -238q-6 -6 -14 0q-31 19 -60 44.5t-59.5 65.5 t-53 86t-37 108.5t-14.5 130.5zM190 1196q0 45 31 76t76 31q46 0 76 -30.5t30 -76.5t-30 -76t-76 -30q-45 0 -76 30.5t-31 75.5zM211 522q0 -256 160 -393q5 -5 10 0l149 150q5 5 5 8v381q0 3 -5 8l-163 174q-3 4 -7 0l-26 -29q-123 -148 -123 -299zM487 1200 q0 46 30.5 76.5t76.5 30.5q44 0 75 -30.5t31 -76.5q0 -45 -30.5 -75.5t-75.5 -30.5q-46 0 -76.5 30t-30.5 76z" />
<glyph unicode="&#xe5;" horiz-adv-x="823" d="M59 406q0 59 16 116t38.5 101t63 96t72 86t81.5 84l121 121q3 3 6 0l239 -254q4 -4 4 -8v-529q0 -73 29 -98q2 -2 6 2l68 67q4 4 8 0l29 -26q4 -4 0 -8l-187 -185q-3 -3 -6 0q-57 44 -82.5 99.5t-25.5 136.5q0 6 -4 2l-238 -238q-6 -6 -14 0q-31 19 -60 44.5t-59.5 65.5 t-53 86t-37 108.5t-14.5 130.5zM211 522q0 -256 160 -393q5 -5 10 0l149 150q5 5 5 8v381q0 3 -5 8l-163 174q-3 4 -7 0l-26 -29q-123 -148 -123 -299zM295 1200q0 62 43 105t104 43q62 0 105 -43t43 -105q0 -61 -43 -104t-105 -43t-104.5 42.5t-42.5 104.5zM393 1200 q0 -44 14.5 -75t34.5 -31t35 31t15 75q0 43 -15 75t-35 32t-34.5 -32t-14.5 -75z" />
<glyph unicode="&#xe6;" horiz-adv-x="1236" d="M66 381q3 83 23.5 155.5t58.5 135.5t77.5 110.5t98.5 106.5l120 121q4 4 7 0l221 -226l223 224q2 2 8 2q40 -5 82 -25t80.5 -54.5t63.5 -90.5t26 -123q3 -155 -96.5 -268t-255.5 -109q-52 2 -92 27h-4v-107q8 -86 61.5 -131t120.5 -45q32 0 59 7.5t52.5 25.5t38.5 30 t40 39l80 80q4 4 8 0l29 -26q4 -4 0 -9q-164 -166 -166 -168q-94 -94 -223 -94q-202 0 -262 238q-2 6 -6 2l-242 -238q-5 -5 -10 -2q-39 22 -76.5 58.5t-72.5 87.5t-55 120.5t-17 145.5zM217 539q-6 -147 35 -245.5t121 -166.5q5 -5 10 0l152 149l2 3v391q0 3 -5 8l-174 170 q-3 3 -6 0l-24 -27q-55 -66 -82 -143t-29 -139zM707 446q0 -2 2 -2l3 -3q2 -3 3.5 -5t4.5 -5.5t6 -6.5t7 -6t9 -5.5t10.5 -5t12.5 -4t15 -2.5q91 -6 150.5 49.5t66.5 159.5t-50.5 174.5t-121.5 77.5q-4 0 -6 -2l-98 -98q-14 -14 -14 -43v-273z" />
<glyph unicode="&#xe7;" horiz-adv-x="733" d="M94 268v250q0 84 74 158l334 334q4 4 8 0l188 -226q53 -64 9 -108l-146 -148q-4 -4 -8 0l-29 27q-4 4 0 8l41 43q30 30 -4 72l-137 172q-5 5 -10 0l-113 -113q-22 -22 -30.5 -41t-8.5 -51v-262q0 -299 174 -299q19 0 38.5 6t32 11t33.5 21.5t27 22t29.5 28.5t26.5 26 l65 63q4 4 8 0l29 -26q5 -4 0 -9l-379 -379q-3 -3 -1.5 -3.5t3.5 1.5q23 16 62 16t61 -22q35 -36 24.5 -86t-63.5 -104l-125 -119q-4 -4 -8 0l-29 25q-4 4 0 8l86 84q39 37 45.5 77t-14.5 58q-19 18 -50.5 14t-62.5 -24l-18 -13q-4 -4 -8 0l-29 25q-4 4 0 8l176 174q6 4 3 6 q-1 1 -3 0q-8 -4 -30 -4q-110 0 -190.5 79.5t-80.5 219.5z" />
<glyph unicode="&#xe8;" horiz-adv-x="759" d="M94 307v283q0 61 23 84l334 334q2 2 8 2q40 -5 82 -25t80.5 -54.5t63.5 -90.5t26 -123q2 -100 -40.5 -187.5t-125.5 -141t-187 -48.5q-28 1 -55 9.5t-37 17.5q-6 4 -6 -5v-55q0 -98 57.5 -160.5t151.5 -62.5q43 0 76.5 13t51.5 28t50 47l62 64q4 4 8 0l28 -27q4 -4 0 -8 q-129 -131 -131 -133q-96 -99 -231 -99q-129 0 -209 83.5t-80 254.5zM260 465q0 -27 24.5 -44.5t51.5 -19.5q91 -6 150.5 49.5t66.5 159.5t-50.5 174.5t-121.5 77.5q-4 0 -6 -2l-99 -98q-16 -16 -16 -74v-223zM264 1348q-8 8 2 8h215q5 0 8 -6l158 -295q5 -8 -2 -8h-39 q-6 0 -12 6z" />
<glyph unicode="&#xe9;" horiz-adv-x="759" d="M94 307v283q0 61 23 84l334 334q2 2 8 2q40 -5 82 -25t80.5 -54.5t63.5 -90.5t26 -123q2 -100 -40.5 -187.5t-125.5 -141t-187 -48.5q-28 1 -55 9.5t-37 17.5q-6 4 -6 -5v-55q0 -98 57.5 -160.5t151.5 -62.5q43 0 76.5 13t51.5 28t50 47l62 64q4 4 8 0l28 -27q4 -4 0 -8 q-129 -131 -131 -133q-96 -99 -231 -99q-129 0 -209 83.5t-80 254.5zM260 465q0 -27 24.5 -44.5t51.5 -19.5q91 -6 150.5 49.5t66.5 159.5t-50.5 174.5t-121.5 77.5q-4 0 -6 -2l-99 -98q-16 -16 -16 -74v-223zM262 1055l158 295q3 6 8 6h215q10 0 2 -8l-330 -295 q-6 -6 -12 -6h-39q-7 0 -2 8z" />
<glyph unicode="&#xea;" horiz-adv-x="759" d="M94 307v283q0 61 23 84l334 334q2 2 8 2q40 -5 82 -25t80.5 -54.5t63.5 -90.5t26 -123q2 -100 -40.5 -187.5t-125.5 -141t-187 -48.5q-28 1 -55 9.5t-37 17.5q-6 4 -6 -5v-55q0 -98 57.5 -160.5t151.5 -62.5q43 0 76.5 13t51.5 28t50 47l62 64q4 4 8 0l28 -27q4 -4 0 -8 q-129 -131 -131 -133q-96 -99 -231 -99q-129 0 -209 83.5t-80 254.5zM201 1094l157 295q3 6 9 6h180q5 0 8 -6l158 -295q6 -9 -2 -9h-39q-6 0 -13 7l-198 196q-4 4 -8 0l-199 -196q-7 -7 -12 -7h-39q-8 0 -2 9zM260 465q0 -27 24.5 -44.5t51.5 -19.5q91 -6 150.5 49.5 t66.5 159.5t-50.5 174.5t-121.5 77.5q-4 0 -6 -2l-99 -98q-16 -16 -16 -74v-223z" />
<glyph unicode="&#xeb;" horiz-adv-x="759" d="M94 307q0 -171 80 -254.5t209 -83.5q135 0 231 99l131 133q4 4 0 8l-28 27q-4 4 -8 0l-62 -64q-32 -32 -50 -47t-51.5 -28t-76.5 -13q-94 0 -151.5 62.5t-57.5 160.5v55q0 9 6 5q10 -9 37 -17.5t55 -9.5q104 -5 187 48.5t125.5 141t40.5 187.5q-1 67 -26 123t-63.5 90.5 t-80.5 54.5t-82 25q-6 0 -8 -2l-334 -334q-23 -23 -23 -84v-283zM201 1208q0 46 30.5 76.5t75.5 30.5q46 0 76.5 -30.5t30.5 -76.5t-30.5 -76t-76.5 -30q-45 0 -75.5 30.5t-30.5 75.5zM260 465v223q0 58 16 74l99 98q2 2 6 2q64 -7 121.5 -77.5t50.5 -174.5t-66.5 -159.5 t-150.5 -49.5q-27 2 -51.5 19.5t-24.5 44.5zM498 1212q0 46 30 76.5t76 30.5q45 0 76 -31t31 -76t-31 -75.5t-76 -30.5q-46 0 -76 30t-30 76z" />
<glyph unicode="&#xec;" horiz-adv-x="421" d="M18 1346q-8 8 2 8h218q5 0 8 -6l160 -297q6 -9 -3 -9h-38q-6 0 -13 7zM31 862l133 123q65 -25 98 -76t33 -147v-537q0 -28 1 -41.5t9.5 -31t24.5 -29.5l73 72l29 -31l-196 -195q-64 40 -86.5 93t-22.5 133v491q0 85 -23 123.5t-73 52.5z" />
<glyph unicode="&#xed;" horiz-adv-x="421" d="M16 1053l158 295q3 6 8 6h215q10 0 2 -8l-329 -295q-7 -7 -13 -7h-39q-8 0 -2 9zM31 862l133 123q65 -25 98 -76t33 -147v-537q0 -28 1 -41.5t9.5 -31t24.5 -29.5l73 72l29 -31l-196 -195q-64 40 -86.5 93t-22.5 133v491q0 85 -23 123.5t-73 52.5z" />
<glyph unicode="&#xee;" horiz-adv-x="421" d="M-43 1083l158 295q3 6 8 6h180q5 0 8 -6l158 -295q5 -8 -2 -8h-39q-6 0 -12 6l-199 197q-4 4 -8 0l-199 -197q-6 -6 -12 -6h-39q-7 0 -2 8zM31 862l133 123q65 -25 98 -76t33 -147v-537q0 -28 1 -41.5t9.5 -31t24.5 -29.5l73 72l29 -31l-196 -195q-64 40 -86.5 93 t-22.5 133v491q0 85 -23 123.5t-73 52.5z" />
<glyph unicode="&#xef;" horiz-adv-x="421" d="M-45 1212q0 46 30.5 76.5t75.5 30.5q46 0 76.5 -30.5t30.5 -76.5t-30.5 -76t-76.5 -30q-45 0 -75.5 30.5t-30.5 75.5zM31 862l133 123q65 -25 98 -76t33 -147v-537q0 -28 1 -41.5t9.5 -31t24.5 -29.5l73 72l29 -31l-196 -195q-64 40 -86.5 93t-22.5 133v491 q0 85 -23 123.5t-73 52.5zM252 1217q0 46 30 76t76 30q45 0 76 -30.5t31 -75.5t-31 -76t-76 -31q-46 0 -76 30.5t-30 76.5z" />
<glyph unicode="&#xf0;" horiz-adv-x="1144" d="M78 332q0 66 18.5 120t59.5 103t96 91.5t139 92.5q48 29 103.5 61.5t86 50t64.5 38.5t50.5 34.5t32.5 30t21.5 32.5t6.5 36q2 69 -162 209q-3 3 -6 0l-129 -131q-4 -4 -8 0l-31 30q-4 4 0 9l117 121q3 3 0 6q-33 25 -63.5 46.5t-60.5 39.5t-45.5 27t-45 25t-31.5 17 q-4 1 -4 5t2 6l39 59q2 5 10 2q109 -38 291 -147q2 -2 6 2l113 112q4 4 8 0l28 -26q4 -4 0 -9l-106 -106q-4 -4 -2 -6q101 -66 171.5 -157.5t70.5 -174.5q0 -94 -115 -182q-4 -4 0 -8l327 -328q4 -4 0 -8l-30 -31q-4 -4 -8 0q-39 31 -68 49q-16 11 -24 6.5t-7.5 -17 t0.5 -22.5q8 -100 -14 -176q-43 -142 -156 -218.5t-280 -76.5q-93 0 -171.5 23.5t-131.5 61t-90.5 86t-54.5 97t-17 95.5zM276 328q0 -100 90.5 -170t211.5 -70q143 0 242.5 88t99.5 209q0 55 -14.5 108t-31.5 87.5t-48 74t-45 54t-42 41.5q-3 3 -8 0l-196 -119 q-110 -66 -166.5 -117t-74.5 -91t-18 -95z" />
<glyph unicode="&#xf1;" horiz-adv-x="886" d="M29 -2q-4 4 0 8l67 68q12 12 19 24t9 31t2.5 27.5t0.5 36.5v460q0 83 -12 121t-54 78q-3 3 0 6l119 123q4 4 8 2q61 -42 83 -102t22 -158q0 -4 2 -2l260 260q3 3 8 0q102 -40 151.5 -116t49.5 -199v-363q0 -138 24 -168q3 -6 7 -2l77 78q4 5 9 0l28 -27q4 -4 0 -8 l-207 -205q-5 -3 -8 0q-59 48 -77.5 97t-18.5 122v379q0 130 -15.5 186.5t-80.5 94.5q-3 3 -8 -2l-197 -195q-4 -4 -4 -10v-274q0 -59 -8 -101t-31 -80.5t-44 -63.5t-67 -73l-77 -80q-4 -5 -9 0zM166 1163q-4 4 0 8l139 140q22 22 56 27.5t63 -7.5l207 -100q34 -15 65 14 l60 53q4 4 8 0l29 -26q4 -4 0 -8l-140 -140q-22 -22 -55.5 -27.5t-62.5 7.5l-203 96q-40 17 -70 -10l-59 -53q-4 -4 -8 0z" />
<glyph unicode="&#xf2;" horiz-adv-x="884" d="M61 412q0 118 33.5 225.5t88.5 182.5t127 119t147 44q86 0 157 -41t115.5 -106.5t69 -143.5t24.5 -157q0 -155 -53.5 -286t-144.5 -205.5t-197 -74.5q-110 0 -195.5 66.5t-128.5 166.5t-43 210zM244 522q-4 -131 15.5 -240t66 -180t114.5 -71q50 0 89 31.5t62.5 87.5 t36.5 125.5t15 152.5q4 130 -18.5 240.5t-71.5 180t-115 69.5q-83 0 -136 -116t-58 -280zM250 1350q-8 8 2 8h215q5 0 8 -6l158 -295q5 -8 -2 -8h-39q-6 0 -12 6z" />
<glyph unicode="&#xf3;" horiz-adv-x="884" d="M61 412q0 118 33.5 225.5t88.5 182.5t127 119t147 44q86 0 157 -41t115.5 -106.5t69 -143.5t24.5 -157q0 -155 -53.5 -286t-144.5 -205.5t-197 -74.5q-110 0 -195.5 66.5t-128.5 166.5t-43 210zM244 522q-4 -131 15.5 -240t66 -180t114.5 -71q50 0 89 31.5t62.5 87.5 t36.5 125.5t15 152.5q4 130 -18.5 240.5t-71.5 180t-115 69.5q-83 0 -136 -116t-58 -280zM250 1051l158 295q3 6 8 6h215q4 0 4.5 -3t-2.5 -6l-330 -294q-7 -7 -12 -7h-39q-8 0 -2 9z" />
<glyph unicode="&#xf4;" horiz-adv-x="884" d="M61 412q0 118 33.5 225.5t88.5 182.5t127 119t147 44q86 0 157 -41t115.5 -106.5t69 -143.5t24.5 -157q0 -155 -53.5 -286t-144.5 -205.5t-197 -74.5q-110 0 -195.5 66.5t-128.5 166.5t-43 210zM184 1053l158 295q3 6 8 6h180q6 0 9 -6l157 -295q6 -9 -2 -9h-39 q-5 0 -12 7l-199 196q-4 4 -8 0l-198 -196q-7 -7 -13 -7h-39q-8 0 -2 9zM244 522q-4 -131 15.5 -240t66 -180t114.5 -71q50 0 89 31.5t62.5 87.5t36.5 125.5t15 152.5q4 130 -18.5 240.5t-71.5 180t-115 69.5q-83 0 -136 -116t-58 -280z" />
<glyph unicode="&#xf5;" horiz-adv-x="884" d="M61 412q0 118 33.5 225.5t88.5 182.5t127 119t147 44q86 0 157 -41t115.5 -106.5t69 -143.5t24.5 -157q0 -155 -53.5 -286t-144.5 -205.5t-197 -74.5q-110 0 -195.5 66.5t-128.5 166.5t-43 210zM127 1145q-4 4 0 8l139 139q22 22 56 28t63 -7l207 -101q33 -14 65 15 l60 53q4 4 8 0l29 -27q4 -4 0 -8l-140 -139q-22 -22 -55.5 -28t-62.5 7l-203 97q-39 17 -70 -11l-59 -53q-4 -4 -8 0zM244 522q-4 -131 15.5 -240t66 -180t114.5 -71q50 0 89 31.5t62.5 87.5t36.5 125.5t15 152.5q4 130 -18.5 240.5t-71.5 180t-115 69.5q-83 0 -136 -116 t-58 -280z" />
<glyph unicode="&#xf6;" horiz-adv-x="884" d="M61 412q0 -110 43 -210t128.5 -166.5t195.5 -66.5q106 0 197 74.5t144.5 205.5t53.5 286q0 79 -24.5 157t-69 143.5t-115.5 106.5t-157 41q-75 0 -147 -44t-127 -119t-88.5 -182.5t-33.5 -225.5zM186 1198q0 45 31 76t76 31q46 0 76 -30.5t30 -76.5t-30 -76t-76 -30 q-45 0 -76 30.5t-31 75.5zM244 522q5 164 58 280t136 116q66 0 115 -69.5t71.5 -180t18.5 -240.5q-2 -83 -15 -152.5t-36.5 -125.5t-62.5 -87.5t-89 -31.5q-68 0 -114.5 71t-66 180t-15.5 240zM483 1202q0 46 30.5 76.5t76.5 30.5q44 0 75 -30.5t31 -76.5q0 -45 -30.5 -75.5 t-75.5 -30.5q-46 0 -76.5 30t-30.5 76z" />
<glyph unicode="&#xf7;" horiz-adv-x="1210" d="M94 414l142 141q2 4 8 4h874q6 0 2 -4l-143 -141q-4 -4 -8 -4h-873q-6 0 -2 4zM487 162q0 51 34 85t85 34t85 -34t34 -85t-34 -85t-85 -34t-85 34t-34 85zM487 809q0 51 34 85t85 34t85 -34t34 -85t-34 -85t-85 -34t-85 34t-34 85z" />
<glyph unicode="&#xf8;" horiz-adv-x="874" d="M10 -27l127 162q-80 121 -80 277q0 118 33.5 225.5t88.5 182.5t127 119t147 44q149 0 252 -121l92 117q2 4 6 4h74q4 0 2 -4l-136 -172q76 -127 76 -272q0 -155 -53.5 -286t-144.5 -205.5t-197 -74.5q-150 0 -248 113l-84 -109q-2 -4 -6 -4h-74q-4 0 -2 4zM240 522 q-6 -117 14 -235l348 444q-26 87 -69 137t-99 50q-83 0 -136 -116t-58 -280zM272 205q55 -174 164 -174q50 0 89 31.5t62.5 87.5t36.5 125.5t15 152.5q3 129 -16 225z" />
<glyph unicode="&#xf9;" horiz-adv-x="901" d="M45 874l115 107q2 2 6 2q67 -20 97 -71.5t30 -143.5v-557q0 -81 24 -113t70 -32q48 0 119 71l100 99q2 2 2 6v391q0 91 28 147t81 105l96 96q4 4 8 0l29 -27q4 -4 0 -8l-31 -31q-31 -31 -38 -65.5t-7 -106.5v-501q0 -94 31 -125h4l76 78q4 4 8 0l29 -27q4 -4 0 -8 l-189 -189q-2 -2 -4 0q-115 74 -115 199q0 4 -2 2l-59 -59q-77 -77 -128.5 -110.5t-113.5 -33.5q-83 0 -133.5 56.5t-50.5 138.5v534q0 86 -16 119.5t-64 52.5q-6 0 -2 4zM272 1348q-8 8 2 8h215q6 0 9 -6l157 -295q5 -8 -2 -8h-39q-6 0 -12 6z" />
<glyph unicode="&#xfa;" horiz-adv-x="901" d="M45 874l115 107q2 2 6 2q67 -20 97 -71.5t30 -143.5v-557q0 -81 24 -113t70 -32q48 0 119 71l100 99q2 2 2 6v391q0 91 28 147t81 105l96 96q4 4 8 0l29 -27q4 -4 0 -8l-31 -31q-31 -31 -38 -65.5t-7 -106.5v-501q0 -94 31 -125h4l76 78q4 4 8 0l29 -27q4 -4 0 -8 l-189 -189q-2 -2 -4 0q-115 74 -115 199q0 4 -2 2l-59 -59q-77 -77 -128.5 -110.5t-113.5 -33.5q-83 0 -133.5 56.5t-50.5 138.5v534q0 86 -16 119.5t-64 52.5q-6 0 -2 4zM279 1055l157 295q3 6 8 6h215q11 0 3 -8l-330 -295q-6 -6 -13 -6h-38q-7 0 -2 8z" />
<glyph unicode="&#xfb;" horiz-adv-x="901" d="M45 874l115 107q2 2 6 2q67 -20 97 -71.5t30 -143.5v-557q0 -81 24 -113t70 -32q48 0 119 71l100 99q2 2 2 6v391q0 91 28 147t81 105l96 96q4 4 8 0l29 -27q4 -4 0 -8l-31 -31q-31 -31 -38 -65.5t-7 -106.5v-501q0 -94 31 -125h4l76 78q4 4 8 0l29 -27q4 -4 0 -8 l-189 -189q-2 -2 -4 0q-115 74 -115 199q0 4 -2 2l-59 -59q-77 -77 -128.5 -110.5t-113.5 -33.5q-83 0 -133.5 56.5t-50.5 138.5v534q0 86 -16 119.5t-64 52.5q-6 0 -2 4zM205 1085l157 295q3 6 9 6h180q5 0 8 -6l158 -295q5 -8 -2 -8h-39q-6 0 -12 6l-199 197q-4 4 -8 0 l-199 -197q-6 -6 -12 -6h-39q-7 0 -2 8z" />
<glyph unicode="&#xfc;" horiz-adv-x="901" d="M45 874q-4 -4 2 -4q48 -19 64 -52.5t16 -119.5v-534q0 -82 50.5 -138.5t133.5 -56.5q62 0 113.5 33.5t128.5 110.5l59 59q2 2 2 -2q0 -125 115 -199h4l189 189q4 4 0 8l-29 27q-4 4 -8 0l-76 -78q-2 -2 -4 0q-31 31 -31 125v501q0 50 1.5 72.5t12 50.5t31.5 49l31 31 q4 4 0 8l-29 27q-4 4 -8 0l-96 -96q-53 -49 -81 -105t-28 -147v-391q0 -4 -2 -6l-100 -99q-71 -71 -119 -71q-46 0 -70 32t-24 113v557q0 92 -30 143.5t-97 71.5q-4 0 -6 -2zM209 1198q0 46 30.5 76.5t75.5 30.5q46 0 76.5 -30.5t30.5 -76.5t-30.5 -76t-76.5 -30 q-45 0 -75.5 30.5t-30.5 75.5zM506 1202q0 46 30 76.5t76 30.5q45 0 76 -31t31 -76t-31 -75.5t-76 -30.5q-46 0 -76 30t-30 76z" />
<glyph unicode="&#xfd;" horiz-adv-x="866" d="M14 873q0 3 2 4l113 104q2 2 6 2q148 -44 148 -215v-473q0 -98 51 -119q87 -29 155 39l101 100q4 4 4 11v264q0 60 8.5 104.5t30.5 81t39.5 56.5t55.5 58l15 15l76 76q4 4 8 0l29 -27q4 -4 0 -8l-33 -35q-34 -37 -48.5 -73.5t-14.5 -94.5v-690q0 -113 -33 -203.5 t-88.5 -146t-123 -84.5t-140.5 -29q-69 0 -134.5 21t-99.5 63q-2 5 0 7l174 172q5 5 9 0l28 -27q4 -4 0 -8l-14 -15q-41 -41 -19 -106q6 -17 30.5 -34t60.5 -17q75 0 129.5 71t54.5 191v332q0 8 -6 2l-68 -68q-55 -55 -100 -79t-109 -23q-86 2 -140 53t-54 141v432 q0 82 -24.5 119t-76.5 53q-2 0 -2 3zM362 1053l158 295q3 6 8 6h215q10 0 2 -8l-329 -295q-7 -7 -13 -7h-38q-9 0 -3 9z" />
<glyph unicode="&#xfe;" horiz-adv-x="856" d="M37 1360l113 104q3 3 10 0q61 -31 93 -77t32 -125v-541q0 -6 4 -2l264 264q4 4 8 0l45 -39q102 -89 144.5 -176t42.5 -199q0 -64 -14.5 -129.5t-61.5 -153.5t-123 -165l-178 -180q-4 -4 -8 0l-29 26q-4 4 0 8l10 13q15 15 0 24l-100 66q-1 1 -2 -2q-1 -2 -2 0v-211 q0 -82 16 -112t61 -50q10 -5 3 -8l-113 -105q-3 -3 -10 0q-61 31 -93 77.5t-32 125.5v1397q0 81 -16.5 111.5t-61.5 50.5q-9 4 -2 8zM285 262l4 -6l215 -143q6 -4 10 0q117 115 117 321q0 124 -38 202t-138 169q-5 5 -9 0l-157 -158q-4 -4 -4 -8v-377z" />
<glyph unicode="&#xff;" horiz-adv-x="866" d="M14 873q0 3 2 4l113 104q2 2 6 2q148 -44 148 -215v-473q0 -98 51 -119q87 -29 155 39l101 100q4 4 4 11v264q0 60 8.5 104.5t30.5 81t39.5 56.5t55.5 58l15 15l76 76q4 4 8 0l29 -27q4 -4 0 -8l-33 -35q-34 -37 -48.5 -73.5t-14.5 -94.5v-690q0 -113 -33 -203.5 t-88.5 -146t-123 -84.5t-140.5 -29q-69 0 -134.5 21t-99.5 63q-2 5 0 7l174 172q5 5 9 0l28 -27q4 -4 0 -8l-14 -15q-41 -41 -19 -106q6 -17 30.5 -34t60.5 -17q75 0 129.5 71t54.5 191v332q0 8 -6 2l-68 -68q-55 -55 -100 -79t-109 -23q-86 2 -140 53t-54 141v432 q0 82 -24.5 119t-76.5 53q-2 0 -2 3zM213 1210q0 46 30.5 76.5t75.5 30.5q46 0 76.5 -30.5t30.5 -76.5t-30.5 -76t-76.5 -30q-45 0 -75.5 30.5t-30.5 75.5zM510 1214q0 46 30 76.5t76 30.5q45 0 76 -31t31 -76t-31 -75.5t-76 -30.5q-46 0 -76 30t-30 76z" />
<glyph unicode="&#x131;" horiz-adv-x="475" d="M57 862l133 123q65 -25 98.5 -76t33.5 -147v-537q0 -29 1 -41.5t9 -30.5t24 -30l74 72l29 -31l-197 -195q-63 40 -85.5 92.5t-22.5 133.5v491q0 85 -23.5 123.5t-73.5 52.5z" />
<glyph unicode="&#x152;" horiz-adv-x="1998" d="M47 657q0 75 11 152t34.5 156.5t58.5 152t86 136t112.5 110t143 73.5t173.5 27q198 0 342 -170q4 -4 10 2l207 138q82 54 207 16q89 -27 132.5 -39.5t110 -26.5t111.5 -14q43 0 74 27l41 37q4 4 8 0l28 -25q4 -4 0 -8l-88 -88q-65 -65 -86 -78q-31 -21 -67 -21 q-50 0 -111.5 15.5t-135.5 40.5t-106 33q-29 8 -46.5 6.5t-34.5 -13.5l-164 -116v-4q98 -180 98 -400q0 -44 -4 -94q0 -6 6 0l195 195q3 3 8 2l231 -58q30 -9 57 -5.5t50 26.5l33 32q4 4 8 0l28 -24q4 -4 0 -8l-133 -135l-11.5 -11.5t-17.5 -11.5t-27.5 -11t-36.5 -2.5 t-50 7.5l-209 55q-4 2 -8 -2l-123 -123q-6 -6 -8 -16l-10 -60q-16 -91 9.5 -175t78.5 -143t127.5 -94.5t154.5 -35.5q64 0 119.5 21t103.5 63t85 87t81 110q5 5 9 0l28 -25q4 -4 0 -8q-30 -55 -61 -100t-78.5 -96t-99.5 -86t-123 -58t-150 -23q-131 0 -241 64.5t-166 181.5 q-5 5 -7 0q-162 -246 -440 -246q-115 0 -216.5 49t-177 136.5t-119.5 217.5t-44 285zM250 823q0 -167 22.5 -303t59.5 -223.5t86 -147t99.5 -85t103.5 -25.5q107 0 195.5 88.5t135 224.5t45.5 283q-1 388 -100.5 573t-282.5 185q-80 0 -150.5 -57t-116 -143.5t-71.5 -184.5 t-26 -185z" />
<glyph unicode="&#x153;" horiz-adv-x="1378" d="M66 434q0 111 35.5 214.5t91 175.5t125 115.5t135.5 43.5q103 0 180 -56t123 -149q1 -3 4 -3.5t4 1.5l231 232q2 2 9 2q32 -4 66 -16t69 -35t62.5 -54.5t45.5 -77.5t19 -100q1 -74 -25.5 -145.5t-73.5 -126t-116.5 -86.5t-147.5 -29q-63 3 -108 31h-7q-7 -29 -14 -78 q-13 -89 45 -149t146 -60q42 0 71.5 6t58 24.5t43.5 32t52 50.5l80 79q4 4 8 0l29 -26q4 -4 0 -8q-164 -166 -166 -168q-105 -105 -250 -105q-64 0 -124.5 38.5t-92.5 101.5q-3 5 -6 0q-49 -67 -114 -103.5t-130 -36.5q-83 0 -152 39t-113.5 104t-68.5 148t-24 174zM244 551 q-3 -98 7.5 -188.5t34 -166t66 -120.5t97.5 -45q169 0 180 401q4 139 -16.5 246.5t-70.5 173.5t-124 66q-73 0 -121 -104t-53 -263zM785.5 714q-3.5 -16 2.5 -24q29 -106 15 -235q-3 -27 19.5 -37.5t60.5 -14.5q90 -9 154 52t71 166q4 54 -13.5 100t-47 75t-61 46t-60.5 20 q-4 0 -6 -2l-111 -110q-20 -20 -23.5 -36z" />
<glyph unicode="&#x160;" horiz-adv-x="1120" d="M43 381q-4 4 0 8l285 285q4 4 8 0l29 -25q4 -4 0 -8l-35 -37q-49 -54 -49 -184q0 -82 32.5 -150.5t85 -112t117.5 -67.5t133 -24q157 0 237 81t83 197q2 44 -12.5 84.5t-45.5 75t-66.5 63.5t-89 58.5t-98.5 51t-108 48.5q-124 53 -167 78q-200 116 -200 317 q0 143 105.5 243.5t269.5 100.5q109 0 195.5 -35t175.5 -124q6 -6 17.5 -19t17 -17.5t14 -9.5t16.5 -2.5t17 11.5l16 16q4 4 8 0l27 -22q5 -4 0 -9l-184 -186l-1 -1q-2 -2 -3 -3.5t-3.5 -3t-4.5 -2.5t-4.5 -1t-5 1t-5 4.5t-4.5 9.5q-53 142 -145 230t-193 88 q-97 0 -154 -50.5t-57 -130.5q0 -30 9 -56t22.5 -46.5t38.5 -40.5t48 -34.5t59.5 -32t64.5 -29.5t72.5 -31.5t74.5 -32.5q114 -52 191.5 -108.5t118.5 -117.5t57 -121.5t14 -131.5q-2 -78 -40 -159.5t-100 -147.5t-152.5 -108t-188.5 -42q-169 0 -281.5 71.5t-159.5 199.5 q-7 19 -11 39.5t-5.5 39.5t-1.5 33.5t1 28.5t1 16q0 8 -6 2l-43 -43q-4 -4 -8 0zM346 1878q-5 8 2 8h39q6 0 12 -6l199 -197q4 -4 8 0l199 197q6 6 12 6h39q7 0 2 -8l-158 -295q-3 -6 -8 -6h-180q-5 0 -8 6z" />
<glyph unicode="&#x161;" horiz-adv-x="741" d="M41 141q-2 5 2 9l211 212q4 4 8 0l29 -26q4 -4 0 -8q-19 -19 -31 -39q-26 -44 -22 -96q5 -63 44 -109t105 -47q76 -1 121 35.5t45 95.5q0 46 -21.5 83.5t-82.5 80.5l-254 178q-68 55 -87 126.5t5.5 138.5t81.5 124q84 84 225 84q144 0 264 -145q4 -4 0 -9l-192 -196 q-4 -5 -9 0l-26 24q-3 3 0 9q14 18 19.5 26.5t12 33.5t3.5 56q-4 43 -44 84t-104 41q-56 0 -88.5 -32t-32.5 -74q0 -75 94 -152l258 -182q70 -50 96.5 -97.5t26.5 -117.5q0 -108 -99.5 -195.5t-229.5 -87.5q-116 0 -198 52t-130 120zM152 1427q-6 9 2 9h39q6 0 12 -6 l198 -197q5 -5 9 0l198 197q6 6 13 6h39q8 0 2 -9l-158 -294q-4 -7 -8 -7h-181q-5 0 -8 7z" />
<glyph unicode="&#x178;" horiz-adv-x="1148" d="M2 1343q-4 5 0 9l51 53q29 29 58 44t75 15q166 0 166 -264v-418q0 -95 43.5 -141.5t118.5 -46.5q113 0 219 106q8 8 25 24.5t31 30.5t24 25l2 6v406q0 77 31 108l190 195q4 4 8 0l29 -25q4 -4 0 -8l-47 -51q-33 -33 -33 -102v-654q0 -65 -15 -139.5t-42.5 -151.5 t-72 -147.5t-99 -126t-127.5 -88.5t-154 -33q-110 0 -200 46t-144 126q-4 7 2 13l246 243q4 4 8 0l29 -24q4 -4 0 -8l-35 -39q-54 -63 -33 -150q11 -48 51 -81.5t117 -33.5q140 0 215.5 94t75.5 265v285l-4 2q-12 -13 -26 -27t-31 -30.5t-25 -24.5q-70 -70 -138 -109 t-157 -39q-116 0 -188 86t-72 240v454q0 24 -1.5 40.5t-7 34.5t-17.5 27t-31 9q-29 0 -49 -20l-29 -29q-4 -4 -8 0zM315 1710q0 45 31 76t76 31q46 0 76 -30.5t30 -76.5t-30 -76t-76 -30q-45 0 -76 30.5t-31 75.5zM612 1714q0 46 30.5 76.5t76.5 30.5q45 0 75.5 -30.5 t30.5 -76.5q0 -45 -30.5 -75.5t-75.5 -30.5q-46 0 -76.5 30t-30.5 76z" />
<glyph unicode="&#x17d;" horiz-adv-x="1024" d="M-37 0l203 219q73 77 106 152l371 854q7 19 27 30q-347 27 -434 27h-16.5h-19t-17 -1.5t-19.5 -5t-17.5 -9.5t-19.5 -15l-57 -57q-4 -4 -9 0l-28 25q-4 4 0 8l137 139q37 37 68.5 52.5t80.5 15.5q87 0 298 -16.5t282 -16.5q45 0 78 26l39 35q4 4 8 0l29 -24q4 -4 0 -8 l-88 -91q-43 -45 -72 -67t-62 -29l-323 -741q-3 -8 -7.5 -16t-11.5 -17.5t-12 -16t-16 -19t-17 -19t-21 -22t-22 -23.5q-16 -17 -81 -81.5t-70 -70.5l504 -51q62 -6 101 4t73 41l65 59q4 4 8 0l29 -24q4 -4 0 -8l-168 -170q-24 -26 -37 -37t-44.5 -22t-71.5 -7l-523 49 q-46 8 -74.5 4.5t-50.5 -24.5l-59 -60q-1 -3 -4 -3.5t-4 1.5l-31 23q-4 4 0 8zM334 1878q-5 8 2 8h39q6 0 12 -6l199 -197q4 -4 8 0l199 197q6 6 12 6h39q7 0 2 -8l-158 -295q-3 -6 -8 -6h-180q-5 0 -8 6z" />
<glyph unicode="&#x17e;" horiz-adv-x="698" d="M-12 -2q-4 4 0 8l78 78q41 41 57 78l307 663l-213 23q-76 6 -125 -43l-53 -55q-4 -4 -8 0l-29 26q-4 4 0 8l113 113q72 72 155 66l330 -27q8 -1 14 -1.5t11.5 0.5t8 1t7 2.5t5.5 3t6.5 5t6.5 5.5l29 29q4 4 8 0l29 -27q4 -4 0 -8l-90 -106q-14 -16 -21.5 -19.5 t-19.5 -3.5l-207 -461q-29 -58 -104 -127l-129 -127q-3 -3 -0.5 -4.5t4.5 0.5q91 67 170 56l204 -29q30 -3 43 1t33 24l45 45q5 5 9 0l28 -27q4 -4 0 -8l-119 -119q-30 -30 -54.5 -37.5t-80.5 -1.5l-282 31q-33 3 -64.5 -12.5t-50.5 -34.5l-14 -15q-5 -5 -9 0zM145 1421 q-6 9 2 9h39q6 0 13 -7l198 -196q5 -5 9 0l198 196q7 7 12 7h39q8 0 2 -9l-157 -295q-3 -6 -8 -6h-181q-5 0 -8 6z" />
<glyph unicode="&#x192;" horiz-adv-x="1062" d="M-57 -263q-6 53 7.5 111.5t45.5 104.5q4 4 8 0l29 -25q4 -4 0 -8q-27 -60 -31 -110t10.5 -79.5t35.5 -46t44 -18.5q61 -7 101.5 54t54.5 143l147 833q0 4 -4 6q-74 21 -162 21q-49 0 -90 -35q-28 -22 -71 -65q-4 -5 -9 0l-28 24q-4 4 0 8l151 148q34 34 63 46.5t70 12.5 q51 0 103 -10q4 0 4 6l41 225q17 95 58 179.5t107.5 143t141.5 58.5q49 0 85 -21.5t53.5 -51t27 -70t11 -69.5t-0.5 -58q2 -13 -10 -25l-145 -133q-5 -4 -9 0l-28 25q-4 4 0 8q23 30 34.5 47t24.5 51.5t18 75.5q1 28 2 62.5t-15.5 64t-49.5 29.5q-24 0 -42 -16.5t-41 -78 t-42 -171.5l-55 -314q0 -6 2 -6q100 -27 162 -27q75 0 127 52l32 32q5 4 9 0l28 -24q4 -4 0 -8l-96 -101q-50 -50 -88 -72t-80 -22q-54 0 -119 14q-5 0 -6 -4l-117 -676q-36 -217 -138 -310t-232 -73q-57 9 -90 49.5t-39 93.5z" />
<glyph unicode="&#x2c6;" horiz-adv-x="540" d="M14 1163l158 295q3 6 8 6h180q6 0 9 -6l157 -295q5 -8 -2 -8h-39q-6 0 -12 6l-199 197q-4 4 -8 0l-198 -197q-6 -6 -13 -6h-39q-7 0 -2 8z" />
<glyph unicode="&#x2c7;" horiz-adv-x="528" d="M8 1456q-5 8 2 8h39q6 0 12 -6l199 -196q4 -4 8 0l199 196q6 6 12 6h39q7 0 2 -8l-158 -295q-3 -6 -8 -6h-180q-5 0 -8 6z" />
<glyph unicode="&#x2d8;" horiz-adv-x="495" d="M10 1397q0 18 2 30h37q8 -79 58.5 -121t140.5 -42t140 42t58 121h37q2 -12 2 -30q0 -115 -65 -184.5t-172 -69.5t-172.5 69.5t-65.5 184.5z" />
<glyph unicode="&#x2d9;" horiz-adv-x="493" d="M170 1278q0 46 33.5 79.5t79.5 33.5t79 -33.5t33 -79.5t-33 -79.5t-79 -33.5t-79.5 33.5t-33.5 79.5z" />
<glyph unicode="&#x2da;" horiz-adv-x="909" d="M319 1317q0 61 43 104t105 43q61 0 104 -43t43 -104q0 -62 -43 -105t-104 -43t-104.5 43.5t-43.5 104.5zM418 1317q0 -44 14.5 -75.5t34.5 -31.5t34.5 31.5t14.5 75.5q0 43 -14.5 74.5t-34.5 31.5t-34.5 -31.5t-14.5 -74.5z" />
<glyph unicode="&#x2db;" horiz-adv-x="493" d="M127 -236q0 75 70 165.5t188 168.5v-45q-69 -59 -112.5 -130t-43.5 -128q0 -43 35.5 -76.5t81.5 -33.5q33 0 96 32l17 -24q-93 -84 -172 -84q-66 0 -113 45.5t-47 109.5z" />
<glyph unicode="&#x2dc;" horiz-adv-x="655" d="M14 1227q-4 4 0 8l140 139q22 22 55.5 28t62.5 -7l207 -101q34 -15 66 15l59 53q4 4 8 0l29 -27q4 -4 0 -8l-139 -139q-22 -22 -56 -28t-63 7l-203 97q-39 17 -69 -11l-60 -53q-4 -4 -8 0z" />
<glyph unicode="&#x2dd;" horiz-adv-x="493" d="M4 1386q0 45 31 76t76 31q46 0 76 -30.5t30 -76.5t-30 -76t-76 -30q-45 0 -76 30.5t-31 75.5zM272 1389q0 46 30.5 76t76.5 30q45 0 75.5 -30.5t30.5 -75.5t-30.5 -76t-75.5 -31q-46 0 -76.5 30.5t-30.5 76.5z" />
<glyph unicode="&#x3c0;" horiz-adv-x="1249" d="M68 748q-4 4 0 8l137 139q37 37 68.5 52.5t80.5 15.5q87 0 369.5 -16.5t353.5 -16.5q45 0 78 26l39 35q4 4 8 0l29 -24q5 -5 0 -9l-88 -90q-44 -46 -79.5 -69t-84.5 -27q-8 0 -10 -2l-25 -25q-33 -33 -33 -112v-375q0 -85 20 -129.5t68 -44.5q37 0 66 29l14 14q4 4 8 0 l29 -25q4 -4 0 -8l-37 -37q-48 -48 -87 -68t-89 -20q-21 0 -37 2t-43 14.5t-45 35.5t-31.5 69.5t-13.5 110.5v315q0 92 74 166l84 86q6 6 -2 6q-405 27 -443 27q-4 0 -8 -4l-10 -13q-31 -39 -31 -79v-447q0 -86 19 -130t67 -44q37 0 66 29l14 14q4 4 8 0l29 -25q4 -4 0 -8 l-37 -37q-49 -49 -86.5 -68.5t-87.5 -19.5q-21 0 -37 2t-43 14.5t-45 35.5t-31.5 69.5t-13.5 110.5v307q0 78 11 122.5t53 86.5l92 90q-70 4 -105 4h-16h-19t-17 -1.5t-19.5 -5t-17.5 -9.5t-19 -15l-58 -57q-4 -4 -8 0z" />
<glyph unicode="&#x2000;" horiz-adv-x="943" />
<glyph unicode="&#x2001;" horiz-adv-x="1886" />
<glyph unicode="&#x2002;" horiz-adv-x="943" />
<glyph unicode="&#x2003;" horiz-adv-x="1886" />
<glyph unicode="&#x2004;" horiz-adv-x="628" />
<glyph unicode="&#x2005;" horiz-adv-x="471" />
<glyph unicode="&#x2006;" horiz-adv-x="314" />
<glyph unicode="&#x2007;" horiz-adv-x="314" />
<glyph unicode="&#x2008;" horiz-adv-x="235" />
<glyph unicode="&#x2009;" horiz-adv-x="377" />
<glyph unicode="&#x200a;" horiz-adv-x="104" />
<glyph unicode="&#x2010;" horiz-adv-x="976" d="M59 414l142 141q2 4 8 4h706q7 0 3 -4l-144 -141q-4 -4 -8 -4h-705q-6 0 -2 4z" />
<glyph unicode="&#x2011;" horiz-adv-x="976" d="M59 414l142 141q2 4 8 4h706q7 0 3 -4l-144 -141q-4 -4 -8 -4h-705q-6 0 -2 4z" />
<glyph unicode="&#x2012;" horiz-adv-x="976" d="M59 414l142 141q2 4 8 4h706q7 0 3 -4l-144 -141q-4 -4 -8 -4h-705q-6 0 -2 4z" />
<glyph unicode="&#x2013;" horiz-adv-x="1015" d="M59 414l142 141q2 4 8 4h745q6 0 2 -4l-143 -141q-4 -4 -8 -4h-744q-6 0 -2 4z" />
<glyph unicode="&#x2014;" horiz-adv-x="1912" d="M59 414l142 141q2 4 8 4h1642q6 0 2 -4l-143 -141q-4 -4 -8 -4h-1641q-6 0 -2 4z" />
<glyph unicode="&#x2018;" horiz-adv-x="399" d="M92 1266q0 89 43 173t148 195q4 4 8 0l24 -22q4 -4 0 -8q-108 -127 -108 -193q0 -28 31 -37q35 -9 59.5 -38.5t24.5 -67.5q0 -49 -32.5 -82t-80.5 -33q-47 0 -82 33.5t-35 79.5z" />
<glyph unicode="&#x2019;" horiz-adv-x="399" d="M78 1380q0 49 32.5 82t79.5 33t82 -33.5t35 -79.5q0 -90 -42.5 -174t-147.5 -194q-4 -4 -8 0l-25 22q-4 4 0 8q109 129 109 193q0 28 -31 37q-35 9 -59.5 38.5t-24.5 67.5z" />
<glyph unicode="&#x201a;" horiz-adv-x="528" d="M33 -387q17 77 44 205q68 320 93.5 381t95.5 61q34 0 57 -22t23 -54q0 -9 -25.5 -74.5t-86 -193.5t-132.5 -256l-24 -47h-45z" />
<glyph unicode="&#x201c;" horiz-adv-x="688" d="M92 1266q0 89 43 173t148 195q4 4 8 0l24 -22q4 -4 0 -8q-108 -127 -108 -193q0 -28 31 -37q35 -9 59.5 -38.5t24.5 -67.5q0 -49 -32.5 -82t-80.5 -33q-47 0 -82 33.5t-35 79.5zM381 1266q0 90 42.5 174t147.5 194q5 4 9 0l24 -22q4 -4 0 -8q-108 -127 -108 -193 q0 -28 30 -37q35 -9 59.5 -38.5t24.5 -67.5q0 -49 -32.5 -82t-79.5 -33t-82 33.5t-35 79.5z" />
<glyph unicode="&#x201d;" horiz-adv-x="688" d="M78 1380q0 49 32.5 82t79.5 33t82 -33.5t35 -79.5q0 -90 -42.5 -174t-147.5 -194q-4 -4 -8 0l-25 22q-4 4 0 8q109 129 109 193q0 28 -31 37q-35 9 -59.5 38.5t-24.5 67.5zM367 1380q0 49 32.5 82t79.5 33t82 -33.5t35 -79.5q0 -90 -42.5 -174t-147.5 -194q-4 -4 -9 0 l-24 22q-4 4 0 8q108 127 108 193q0 28 -30 37q-35 9 -59.5 38.5t-24.5 67.5z" />
<glyph unicode="&#x201e;" horiz-adv-x="833" d="M33 -387q17 77 44 205q68 320 93.5 381t95.5 61q34 0 57 -22t23 -54q0 -9 -25.5 -74.5t-86 -193.5t-132.5 -256l-24 -47h-45zM385 -387q18 84 47 221q65 308 90 367t96 59q34 0 57 -22t23 -54q0 -9 -24 -74t-84 -193.5t-135 -256.5l-25 -47h-45z" />
<glyph unicode="&#x2020;" horiz-adv-x="1705" d="M109 817l141 141q2 5 8 5h217q6 0 6 8v459q0 4 4 4h95q4 0 4 -4v-459q0 -8 8 -8h373q4 -1 2 -5l-144 -141q-4 -4 -8 -4h-223q-8 0 -8 -8v-1135q0 -4 -4 -4h-95q-4 0 -4 4v1137q-3 6 -8 6h-362q-6 0 -2 4z" />
<glyph unicode="&#x2021;" horiz-adv-x="1062" d="M109 49l141 141q2 5 8 5h217q6 0 6 8v700q-3 6 -8 6h-362q-6 0 -2 4l141 142q2 4 8 4h217q6 0 6 8v363q0 4 4 4h95q4 0 4 -4v-363q0 -8 8 -8h373q6 0 2 -4l-144 -142q-4 -4 -8 -4h-223q-8 0 -8 -8v-698q0 -8 8 -8h373q4 -1 2 -5l-144 -141q-4 -4 -8 -4h-223q-8 0 -8 -8 v-367q0 -4 -4 -4h-95q-4 0 -4 4v369q-3 6 -8 6h-362q-6 0 -2 4z" />
<glyph unicode="&#x2022;" horiz-adv-x="1024" d="M147 729q0 151 107 258t258 107t258 -107t107 -258t-107 -257.5t-258 -106.5t-258 106.5t-107 257.5z" />
<glyph unicode="&#x2026;" horiz-adv-x="1425" d="M61 88q0 51 34 85t85 34t85 -34t34 -85t-34 -85t-85 -34t-85 34t-34 85zM594 88q0 51 34 85t85 34t84.5 -34t33.5 -85t-33.5 -85t-84.5 -34t-85 34t-34 85zM1126 88q0 51 34 85t85 34t85 -34t34 -85t-34 -85t-85 -34t-85 34t-34 85z" />
<glyph unicode="&#x202f;" horiz-adv-x="377" />
<glyph unicode="&#x2030;" horiz-adv-x="2082" d="M127 1077q0 107 46 198t113 140t134 49q119 0 203 -94.5t84 -232.5q0 -164 -90.5 -273.5t-213.5 -109.5q-83 0 -147.5 48.5t-96.5 121t-32 153.5zM279 1143q0 -71 17.5 -144.5t54.5 -127.5t83 -54q52 0 83.5 69.5t31.5 178.5q0 129 -46.5 231.5t-103.5 102.5 q-55 0 -87.5 -71t-32.5 -185zM334 4l667 1426q2 4 7 4h94q4 0 2 -4l-668 -1426q-2 -4 -6 -4h-92q-6 0 -4 4zM725 293q0 107 46 198t113 140t134 49q119 0 203 -94.5t84 -233.5q0 -164 -90.5 -273.5t-213.5 -109.5q-83 0 -147.5 48.5t-96.5 121.5t-32 154zM877 358 q0 -71 17.5 -144t54.5 -127t83 -54q52 0 83.5 69.5t31.5 178.5q0 128 -46.5 230.5t-103.5 102.5q-55 0 -87.5 -71t-32.5 -185zM1376 293q0 107 46 198t113 140t134 49q119 0 203 -94.5t84 -233.5q0 -164 -90 -273.5t-213 -109.5q-83 0 -148 48.5t-97 121.5t-32 154z M1528 358q0 -71 17.5 -144t54.5 -127t83 -54q52 0 83.5 69.5t31.5 178.5q0 129 -46 231t-103 102q-55 0 -88 -71t-33 -185z" />
<glyph unicode="&#x2039;" horiz-adv-x="497" d="M51 483l322 404l73 -72l-266 -332l266 -331l-73 -72z" />
<glyph unicode="&#x203a;" horiz-adv-x="497" d="M51 152l266 331l-266 332l74 72l321 -404l-321 -403z" />
<glyph unicode="&#x2044;" horiz-adv-x="1007" d="M-10 -41l915 1518h113l-912 -1518h-116z" />
<glyph unicode="&#x205f;" horiz-adv-x="471" />
<glyph unicode="&#x20ac;" horiz-adv-x="1179" d="M-100 508q-4 4 0 8l67 68q59 59 119 59q24 0 41 -4q4 0 4 2q0 1 -2.5 34.5t0.5 59.5t14 49q3 7 -4 7q-58 9 -73 8q-46 -5 -107 -66q-4 -4 -8 0l-29 25q-4 4 0 8l68 68q41 41 65.5 57t57.5 16q25 0 49 -8q6 -3 6 2q36 157 113.5 285.5t182.5 203t214 74.5q126 0 207 -102 l108 -137q52 -55 109 -8l43 36q4 4 8 0l29 -24q4 -4 0 -8l-49 -47q-3 -3 -28 -28.5t-39 -37t-41 -25t-54 -14.5q-85 -4 -156 70l-104 135q-31 34 -54.5 48.5t-54.5 14.5q-108 0 -192.5 -136t-102.5 -327q0 -4 4 -6q42 -11 107.5 -19.5t103.5 -8.5q49 0 78 26l23 19q4 4 8 0 l28 -25q4 -4 0 -8l-61 -61q-23 -23 -41 -36t-37 -18t-27 -5.5t-30 -0.5q-17 0 -44 3t-62.5 8.5t-49.5 7.5q-6 0 -6 -5q0 -34 6 -127q2 -2 4 -2q105 -22 172 -22q40 0 64 12q11 6 24 15l27 18q4 4 8 0l29 -25q4 -4 0 -8l-62 -61q-37 -37 -70 -47.5t-75 -10.5q-26 0 -100 11 q-2 0 -2 -2q25 -175 146.5 -293.5t270.5 -118.5q44 0 89.5 18t95.5 58.5t95 119.5t73 187q3 6 6 4l37 -14q4 -4 2 -11q-39 -166 -100 -270t-159 -157t-237 -50q-213 5 -359.5 152t-158.5 391l-4 6q-53 14 -78 14q-32 0 -52.5 -9t-55.5 -40q-5 -5 -9 0z" />
<glyph unicode="&#x2122;" horiz-adv-x="1728" d="M33 1276q0 86 55.5 137t134.5 51q41 0 66 -4q87 -15 167.5 -34.5t111 -27t57 -6.5t47.5 17l35 27q35 28 98 28q64 0 98.5 -41t36.5 -90q0 -6 4 -2l113 117q21 17 33.5 16t31.5 -16l92 -82q6 -5 11 -14l96 96q34 34 68 0l98 -98q16 -16 30.5 -16.5t32.5 12.5q4 4 9 0 l22 -23q4 -4 0 -8l-47 -47q-6 -6 -10 -11t-6.5 -11t-4 -9.5t-2 -11.5t-0.5 -11v-13.5v-14.5v-209q0 -132 11.5 -177.5t52.5 -45.5q17 0 31 15.5t18 29.5q3 5 8 0l19 -17q3 -3 0 -8q-21 -41 -55 -63.5t-68 -22.5q-152 0 -152 199v198q0 44 7.5 68.5t31.5 48.5l53 51q4 4 -1 5 q-1 0 -3 -1q-35 -11 -71 25l-82 80q-4 4 -8 0l-60 -57q-2 -2 -2 -5v-323q0 -96 -113 -209l-112 -113q-4 -4 -8 0l-19 17q-2 2 0 6l31 33q86 92 86 180v340q0 47 -16 63l-56 56q-3 3 -6 0l-82 -84q-2 -2 -2 -4v-285q0 -44 -19 -85.5t-39 -65t-57 -60.5l-108 -111q-4 -4 -8 0 l-19 17q-2 2 0 6l31 33q82 85 82 178v414q0 86 -59 86q-13 0 -25 -9l-66 -55q-21 -16 -30 -23t-26.5 -14.5t-33.5 -7.5q-21 0 -80 10q-4 0 -6 -2l-20 -20q-19 -19 -19 -60v-309q0 -14 -0.5 -34t-0.5 -30.5t0.5 -25t1.5 -22t3.5 -17t6.5 -14.5t9.5 -9.5t14 -6t19.5 -1.5 q17 0 32 10.5t39 34.5q4 4 8 0l19 -16q3 -3 0 -8l-74 -74q-37 -37 -94 -37q-20 0 -39.5 7.5t-40 25t-33 54.5t-12.5 89v316q0 39 7 54.5t30 37.5l72 63q5 5 0 7l-154 30q-55 10 -76 10q-41 0 -67.5 -20.5t-26.5 -58.5q0 -30 23.5 -49.5t60.5 -22.5q8 0 0 -8l-20 -19 q-5 -4 -13 -4q-45 0 -74.5 33.5t-29.5 81.5z" />
<glyph unicode="&#x2202;" horiz-adv-x="1110" d="M71 294q-16 96 15 204q42 157 152.5 253.5t257.5 96.5q117 0 197 -71.5t106 -178.5l1 -2q1 0 1 2l12 51q48 207 42.5 351.5t-48.5 224t-117 96.5q-67 15 -122.5 -7t-91 -70.5t-56 -109t-25.5 -126.5q0 -9 -4 -13l-39 -39q-5 -3 -8 0l-29 226q-2 17 7 26q98 92 186.5 137 t196.5 33q138 -16 217 -133t87.5 -304.5t-46.5 -432.5q-125 -539 -533 -539q-94 0 -172 42.5t-124.5 114.5t-62.5 168zM238 397q-27 -151 25 -259.5t169 -108.5q112 0 201 85.5t117 219.5q26 126 2 216t-74.5 140.5t-114.5 59.5q-127 19 -209 -70t-116 -283z" />
<glyph unicode="&#x2206;" horiz-adv-x="1366" d="M35 0l575 1286q12 30 -4 62l-45 79q-7 7 2 7h191q4 0 8 -4l620 -1573q-4 -4 -8 -4h-262q-8 0 -2 6l39 69q15 27 6 49q-9 23 -37 23h-1083zM160 84h946l-449 1128z" />
<glyph unicode="&#x220f;" horiz-adv-x="1153" d="M119 967q0 81 14 141.5t57 101.5l162 162q50 48 84 70t76 22q41 0 88 -8q340 -63 395 -63q46 0 72 26l39 39q4 4 8 0l29 -24q5 -4 0 -9l-246 -264q-33 -33 -33 -94l2 -795q0 -86 19 -130t67 -44q37 0 66 29l41 41q4 4 8 0l29 -25q4 -4 0 -8l-64 -63q-48 -48 -87 -68 t-89 -20q-21 0 -37 2t-43 14.5t-45 35t-31.5 69t-13.5 110.5v735q0 92 74 166l110 113q6 6 -2 6l-411 76q-72 13 -116 -31.5t-44 -116.5v-905q0 -86 19 -130t67 -44q37 0 66 29l40 41q5 4 9 0l28 -25q4 -4 0 -8l-63 -64q-49 -49 -86.5 -68.5t-87.5 -19.5q-21 0 -37 2 t-42.5 14.5t-44 35.5t-31 69.5t-13.5 110.5z" />
<glyph unicode="&#x2211;" horiz-adv-x="860" d="M14 1296q-4 4 0 9l103 102q32 32 71 27l375 -45q43 -5 66.5 1.5t50.5 30.5l61 58q5 5 9 0l28 -27q4 -4 0 -8l-112 -113q-39 -39 -75 -55t-81 -10l-162 26q-2 0 -2.5 -2t0.5 -4l266 -424q9 -15 22 -31t35 -35t54 -31.5t68 -12.5q9 0 2 -7l-41 -40q-5 -5 -9 -5 q-48 0 -76.5 -21.5t-52.5 -78.5l-208 -485q-2 -5 2 -9l176 -14q42 -4 65.5 3.5t52.5 33.5l60 53q4 4 8 0l29 -26q5 -4 0 -9l-113 -112q-39 -39 -75 -55.5t-81 -10.5l-346 31q-48 5 -86 -25l-28 -24q-4 -5 -9 0l-28 26q-5 5 0 9l102 102q36 36 76 31h4l231 512q14 29 40.5 47 t50.5 22q3 0 2.5 2.5t-2.5 2.5q-38 3 -68 55l-328 557q-29 0 -61 -23l-29 -24q-4 -4 -8 0z" />
<glyph unicode="&#x221a;" horiz-adv-x="1030" d="M45 479q-2 4 2 4h100q5 0 7 -4l219 -721l536 1862q2 4 6 4h95q4 0 2 -4l-588 -2026q-2 0 -2 -2t-4 -2h-92h-2q-5 0 -5 4z" />
<glyph unicode="&#x221e;" horiz-adv-x="1478" d="M94 526q0 118 88 201.5t205 83.5q96 0 169 -45t163 -164q85 102 168.5 151.5t181.5 49.5q135 0 225 -86.5t90 -216.5q0 -129 -85 -220.5t-201 -91.5q-49 0 -82 6t-74.5 26t-85.5 63t-96 112q-66 -82 -159.5 -140t-194.5 -58q-140 0 -226 90t-86 239zM168 524 q0 -103 57 -157t146 -54q60 0 104.5 23.5t112.5 105.5l82 101q-75 107 -143 153.5t-142 46.5q-97 0 -157 -60.5t-60 -158.5zM809 455q64 -86 112.5 -129.5t85 -55.5t91.5 -12q93 0 154 66t61 168q0 87 -65.5 150t-135.5 63q-41 0 -73.5 -11t-61 -36t-53 -54.5t-60.5 -76.5 q-4 -6 -6.5 -9.5t-6.5 -8.5t-7 -9z" />
<glyph unicode="&#x222b;" horiz-adv-x="774" d="M-8 -182q-3 48 8 94t23.5 72.5t35.5 64.5l164 -174l-35 -33q-3 2 -8.5 7.5t-11 9.5t-12.5 8q-34 17 -57.5 -5t-20.5 -69q3 -50 31 -79t69 -29q112 0 115 221v1145q1 125 44.5 221t109 144t139.5 48q85 0 135.5 -46t60.5 -115q2 -13 -10 -25l-174 -164l-33 35q2 3 14 18 t15 19t12 17.5t12.5 22t9.5 22.5t9 28.5t6 32.5q4 32 -13.5 61t-54.5 29q-44 0 -70 -60.5t-26 -171.5v-1147q0 -104 -25.5 -185.5t-67 -128.5t-90.5 -71t-101 -24q-93 0 -145.5 58.5t-57.5 148.5z" />
<glyph unicode="&#x2248;" horiz-adv-x="1214" d="M68 449l174 184q25 27 49 46t59.5 36.5t78.5 16.5t89 -23l236 -111q48 -23 89 -24t66 11.5t52 37.5l86 75l40 -41l-172 -176q-31 -31 -61.5 -44.5t-78 -8t-109.5 34.5l-236 110q-27 12 -54.5 13t-49.5 -5.5t-46.5 -22t-39.5 -28.5t-35 -32l-96 -90zM92 211l174 184 q30 32 60.5 46t78.5 9t111 -34l236 -111q17 -8 33 -12t32 -2t29.5 4t29 11t25 14t24.5 17.5l21 17.5t20.5 18.5t16.5 15.5l86 76l41 -41l-172 -176q-28 -28 -50 -45.5t-58 -36.5t-78 -18.5t-88 22.5l-236 111q-72 31 -114.5 25t-84.5 -46l-96 -90z" />
<glyph unicode="&#x2260;" horiz-adv-x="1214" d="M59 588l142 141q2 4 8 4h461l184 217q2 4 6 4h74q4 0 2 -4l-184 -217h163q7 0 3 -4l-144 -141q-4 -4 -8 -4h-141l-160 -189h453q6 0 2 -4l-144 -141q-4 -4 -8 -4h-428l-193 -228q-2 -4 -6 -4h-71q-4 0 -2 4l190 228h-195q-6 0 -2 4l142 141q2 4 8 4h174l158 189h-482 q-6 0 -2 4z" />
<glyph unicode="&#x2264;" horiz-adv-x="972" d="M31 551v37q0 4 4 6h16q37 0 107 31l745 321q4 4 4 -2v-170q0 -2 -4 -4l-622 -246q-1 0 -1 -2t1 -2l624 -268l2 -4v-60q0 -6 -4 -2l-745 324q-1 0 -15 7t-27.5 12.5t-32.5 10.5t-34 5h-14q-4 2 -4 6zM49 4v141q0 5 4 5h850q4 0 4 -5v-141q0 -4 -4 -4h-850q-4 0 -4 4z" />
<glyph unicode="&#x2265;" horiz-adv-x="972" d="M66 0v2v2v141q0 5 2 5h2h821h2h27q4 0 4 -5v-141q0 -4 -4 -4h-27h-2h-821h-2h-2zM66 188v170q0 2 4 4l622 246q2 0 2 2t-2 2l-624 269l-2 4v59q0 6 4 2l745 -323q1 0 15 -7t27.5 -12.5t32.5 -10.5t34 -5h14q4 -2 4 -6v-37q0 -4 -4 -6h-16q-37 0 -107 -31l-745 -322 q-4 -4 -4 2z" />
<glyph unicode="&#x25ca;" horiz-adv-x="1214" d="M209 729l342 801h108l347 -801l-347 -801h-108zM317 729l246 -579l248 573l-250 580z" />
<glyph unicode="&#x25fc;" horiz-adv-x="983" d="M0 0v983h983v-983h-983z" />
</font>
</defs>
</svg>
