<?xml version="1.0" standalone="no"?>
<!DOCTYPE svg PUBLIC "-//W3C//DTD SVG 1.1//EN" "http://www.w3.org/Graphics/SVG/1.1/DTD/svg11.dtd" >
<svg xmlns="http://www.w3.org/2000/svg" xmlns:xlink="http://www.w3.org/1999/xlink" version="1.1">
<metadata></metadata>
<defs>
<font id="futulabyrinthsquare" horiz-adv-x="1421" >
<font-face units-per-em="2048" ascent="1536" descent="-512" />
<missing-glyph horiz-adv-x="500" />
<glyph horiz-adv-x="0" />
<glyph horiz-adv-x="682" />
<glyph unicode=" " d="M31 0v92h1360v-92h-1360zM31 150v92h1360v-92h-1360zM31 299v92h1360v-92h-1360zM31 449v92h1360v-92h-1360zM31 598v92h1360v-92h-1360zM31 748v92h1360v-92h-1360zM31 897v92h1360v-92h-1360zM31 1047v92h1360v-92h-1360zM31 1196v92h1360v-92h-1360zM31 1346v92h1360 v-92h-1360zM31 1495v92h1360v-92h-1360z" />
<glyph unicode="!" d="M31 195v1392h98v-1048q26 42 59 75v973h99v-1005q-72 -63 -112.5 -157.5t-45.5 -207.5v-22q0 -104 39 -195h-100q-37 101 -37 195zM188 195q0 224 158 364v1028h729v-1028q158 -140 158 -364q0 -100 -43 -195h-107q52 92 52 195q0 107 -45 186.5t-113 126.5v987h-533 v-987q-68 -46 -112.5 -126t-44.5 -187q0 -105 51 -195h-107q-43 95 -43 195zM346 195q0 189 158 292v951h414v-951q157 -103 157 -292q0 -58 -20.5 -112.5t-48.5 -82.5h-123q94 76 94 195q0 93 -47.5 153t-110.5 84v914h-217v-914q-64 -24 -111 -83.5t-47 -153.5 q0 -119 95 -195h-123q-28 28 -49 82.5t-21 112.5zM504 195q0 81 61 138.5t144 57.5t146 -57.5t63 -138.5t-63 -138t-146 -57t-144 57t-61 138zM602 195q0 -42 30.5 -71.5t72.5 -31.5q-43 43 -43 103q0 59 45 104q-43 -2 -74 -32.5t-31 -71.5zM662 449v839h98v-839h-98z M760 195q0 -42 28 -70q31 31 31 70q0 38 -31 69q-28 -24 -28 -69zM1135 582v1005h98v-973q1 -1 24 -29.5t35 -45.5v1048h99v-1392q0 -94 -37 -195h-101q39 98 39 195v22q-4 111 -45.5 206t-111.5 159z" />
<glyph unicode="&#x22;" d="M31 0v92h1360v-92h-1360zM31 143v93h1360v-93h-1360zM31 299v92h1360v-92h-1360zM31 449v92h1360v-92h-1360zM31 598v989h98v-897h1163v897h99v-989h-1360zM188 748v92h474v747h98v-747h473v-92h-1045zM188 897v690h414v-690h-414zM287 989h217v506h-217v-506zM346 1047 v391h98v-391h-98zM819 897v690h414v-690h-414zM918 989h217v506h-217v-506zM977 1047v391h98v-391h-98z" />
<glyph unicode="#" d="M31 0v242h98v-242h-98zM31 299v92h256v-391h-99v299h-157zM31 449v92h413v-541h-98v449h-315zM31 598v92h315v207h-315v92h413v-391h-413zM31 748v92h256v-92h-256zM31 1047v92h315v448h98v-540h-413zM31 1196v92h157v299h99v-391h-256zM31 1346v241h98v-241h-98zM504 0 v541h414v-541h-99v449h-217v-449h-98zM504 598v391h414v-391h-414zM504 1047v540h98v-448h217v448h99v-540h-414zM602 690h217v207h-217v-207zM662 0v391h98v-391h-98zM662 748v92h98v-92h-98zM662 1196v391h98v-391h-98zM977 0v541h414v-92h-316v-449h-98zM977 598v391h414 v-92h-316v-207h316v-92h-414zM977 1047v540h98v-448h316v-92h-414zM1135 0v391h256v-92h-158v-299h-98zM1135 748v92h256v-92h-256zM1135 1196v391h98v-299h158v-92h-256zM1292 0v242h99v-242h-99zM1292 1346v241h99v-241h-99z" />
<glyph unicode="$" d="M31 0v170q38 -92 125 -170h-125zM31 461v770q0 97 40.5 179.5t121.5 176.5h98q-162 -149 -162 -356q0 -316 277 -467l290 -158q136 -72 179 -117.5t43 -111.5v-111q59 52 59 142q0 56 -56.5 113t-144.5 104l-332 178q-256 137 -256 428q0 97 47.5 193t135.5 163h133 q-98 -57 -157.5 -149.5t-59.5 -206.5q0 -127 54 -208.5t175 -145.5l328 -179q231 -132 231 -288q0 -111 -74 -182.5t-182 -90.5v258q-8 31 -59 62v-326h-10q-179 0 -291.5 90.5t-112.5 239.5v223l-12 6l-47 29v-258q0 -88 27 -156.5t71.5 -111.5t106 -71t124.5 -39t134 -11 h10v-72h-199q-176 39 -274.5 156.5t-98.5 304.5v348q-31 36 -59 94v-442q0 -167 86.5 -297.5t208.5 -163.5h-172q-103 68 -162 186.5t-59 274.5zM31 1444v143h94q-66 -60 -94 -143zM346 1231q0 136 75 228t206 128h133v-71q-137 -8 -226.5 -85.5t-89.5 -199.5 q0 -30 5.5 -56.5t13.5 -46t23 -38.5t27 -30.5t34 -26t34 -21t37.5 -20t36.5 -19.5l336 -185q130 -72 186 -164t56 -214q0 -158 -95 -264.5t-241 -145.5h-78v76q133 18 224.5 106.5t91.5 227.5q0 109 -60 182.5t-180 140.5l-340 189q-102 59 -155.5 131t-53.5 178zM444 461 q0 -126 103 -193q-43 73 -43 181v151l-60 31v-170zM504 1233q0 98 75 159t181 66v-377l59 -30v405q105 -12 180.5 -88t75.5 -172v-285l41 -20q2 -2 19 -10v327q0 83 -47 151t-118 106t-151 46v76h84q135 -17 232.5 -120t97.5 -228v-430q41 -41 59 -64v494q0 71 -22 131 t-59 101.5t-73.5 69t-76.5 46.5h145q71 -40 128 -135t57 -197v-849q-1 -127 -52.5 -236.5t-136.5 -169.5h-141q108 60 169.5 170t61.5 240v14q-5 137 -64 234.5t-186 168.5l-340 185q-44 23 -62 33.5t-51 33.5t-47 41.5t-26 48.5t-12 64zM602 449q0 -138 60 -201v266l-60 33 v-98zM602 1233q0 -53 60 -98v206q-60 -38 -60 -108zM918 997l59 -32v225q0 83 -59 133v-326zM1276 1587h115v-143q-28 57 -52.5 87t-62.5 56zM1286 0q73 80 105 156v-156h-105z" />
<glyph unicode="%" d="M31 0v45l63 115l-63 22v99q79 -32 108 -39l37 67q-84 20 -145 51v101q89 -52 188 -72l39 68q-126 24 -227 88v108q122 -91 272 -112l37 65q-175 12 -309 139v132q62 -82 152.5 -131.5t193.5 -49.5h12l39 70q-11 -4 -51 -4q-120 0 -218.5 76t-127.5 192v176 q28 117 125.5 194t220.5 77q109 0 197.5 -58.5t130.5 -156.5l38 69q-56 98 -152.5 154.5t-213.5 56.5q-106 0 -195 -47t-151 -131v133q58 53 141 90h412q130 -62 209 -168l38 72q-49 56 -100 96h129l14 -16l11 16h108l-880 -1587h-82zM113 1120q0 -106 79 -185t185 -79 q61 0 117 29l143 258q-8 102 -82 170.5t-178 68.5q-107 0 -185.5 -76.5t-78.5 -185.5zM176 0l881 1587h104l-878 -1587h-107zM178 1120q0 79 60 138t139 59t137.5 -58.5t58.5 -138.5q0 -79 -58.5 -138.5t-137.5 -59.5q-78 0 -138.5 60t-60.5 138zM266 1120q0 -41 35 -75.5 t76 -34.5h4q-49 38 -49 110q0 69 39 111q-42 -5 -73.5 -37.5t-31.5 -73.5zM348 0l881 1587h104q38 -10 58 -24v-93q-45 23 -103 33l-37 -63q77 -20 140 -43v-99q-11 4 -37.5 14.5t-36.5 13.5t-30 10t-38.5 11t-42.5 9l-39 -68q132 -22 224 -74v-100q-135 75 -269 92l-39 -69 q80 -7 151 -35t157 -78v-109q-176 128 -355 136l-39 -72q3 0 9.5 1t9.5 1q107 0 211.5 -44.5t163.5 -131.5v-137q-51 93 -156.5 158t-218.5 65q-41 0 -72 -8l-43 -78q56 20 115 20q145 0 252.5 -110t107.5 -248q0 -148 -108 -252t-252 -104q-127 0 -222.5 77t-125.5 199 l-45 -82q48 -118 153.5 -189t239.5 -71q115 0 221 59.5t154 161.5v-141q-23 -28 -78 -71t-92 -54h-412q-155 67 -238 211l-41 -74q49 -77 132 -137h-130q-35 35 -49 53l-30 -53h-105zM422 1120q0 -45 29 -78q36 33 36 78q0 42 -43 82q-22 -28 -22 -82zM754 467 q0 -110 76 -186t186 -76q106 0 185 76.5t79 185.5q0 106 -79 185t-185 79q-109 0 -185.5 -78.5t-76.5 -185.5zM819 467q0 79 59 139t138 60q78 0 138 -60.5t60 -138.5q0 -79 -60 -138t-138 -59q-80 0 -138.5 59t-58.5 138zM905 467q0 -41 35 -76t76 -35q-49 38 -49 111 q0 69 39 111q-38 -5 -69.5 -39t-31.5 -72zM1057 467q0 -50 30 -80q39 39 39 80q0 46 -45 84q-24 -21 -24 -84z" />
<glyph unicode="&#x26;" d="M31 0v150q30 -74 98 -150h-98zM31 406q0 -116 50.5 -224t137.5 -182h150q-114 59 -177 171.5t-63 234.5q0 145 56 245t165 178l72 52q-71 92 -103 163t-32 164q0 117 54.5 218t150.5 161h-132q-79 -73 -125.5 -170.5t-46.5 -208.5q0 -94 25.5 -162t77.5 -149l-45 -37 q-117 169 -117 348q0 118 35.5 203.5t122.5 175.5h-111q-75 -91 -110 -179t-35 -200q0 -114 43 -228t104 -185q-79 -86 -113 -176.5t-34 -212.5zM31 688v232q4 -8 12.5 -27t13 -27.5t12 -22.5t15.5 -25.5t18 -22.5q-12 -12 -22.5 -27t-16 -24t-16.5 -28.5t-16 -27.5z M31 1438v149h86q-47 -52 -86 -149zM188 408q0 75 18.5 138.5t54 113.5t76 87.5t95.5 75.5l62 45q-73 92 -110.5 170t-37.5 172q0 170 105.5 284t257.5 114q114 0 198.5 -55.5t126 -145t41.5 -197.5q0 -195 -219 -368l-39 -31l205 -276l369 376v-120l-381 -381l-312 419 q54 40 79.5 59t62.5 49t53 48.5t36.5 46t28 52.5t13.5 56.5t6 69.5q0 124 -73.5 215t-192.5 91q-120 0 -193.5 -82.5t-73.5 -223.5q0 -81 27.5 -143t101.5 -149l41 28l-28 39q-82 113 -82 225q0 116 61.5 182t145.5 66t145.5 -65t61.5 -183q0 -33 -6 -61.5t-23 -65.5 t-54.5 -76.5t-93.5 -78.5l-172 -119q-66 -44 -107.5 -77t-86 -82.5t-66.5 -109.5t-22 -132q0 -127 94 -231.5t221 -104.5q46 0 84.5 11.5t76.5 38.5t66.5 52t78.5 72.5t87 79.5l250 -326h-106l-154 193l-106 -91q-88 -76 -162 -102h-242q-127 41 -207 156t-80 252zM346 408 q0 -104 81.5 -194.5t174.5 -90.5q21 0 41.5 4.5t36.5 9t37.5 18.5t33.5 22t38 31t37.5 34t44 42.5t47.5 45.5l45 41l-312 426q-23 -18 -59.5 -44.5t-58 -42t-50.5 -39.5t-46.5 -42.5t-37 -44.5t-29.5 -51t-17 -57t-7 -68zM444 424q0 40 9.5 71.5t32 58t43 44t59.5 45.5 l45 33l29 -41q-110 -77 -155.5 -140.5t-45.5 -136.5q0 -3 1 -9t1 -9q-19 21 -19 84zM547 346q0 25 8 48.5t17.5 40t28.5 36.5t30.5 29t34 26.5t28.5 22.5l21 14l28 -41l-26 -20q-63 -48 -89 -85t-26 -100q0 -30 23 -81q0 -6 -13 -9q-6 -2 -8 -2q-57 0 -57 121zM602 1210 q0 -67 29 -123q31 51 31 123q0 91 -25 127q-35 -35 -35 -127zM678 1018l14 -17q63 42 95 98.5t32 110.5q0 70 -30.5 110.5t-71.5 45.5q19 -26 31 -69.5t12 -84.5q0 -102 -82 -194zM690 317q0 39 17.5 63.5t58.5 53.5l29 21l49 -66l-25 -22q-82 -79 -114 -101q-15 34 -15 51z M846 0h221l-90 119q-30 -25 -77 -68.5t-54 -50.5zM881 805q254 200 254 405q0 124 -51.5 222t-147.5 155h139q83 -76 120.5 -163t37.5 -214q0 -94 -58.5 -207t-175.5 -217l39 -53l72 72q67 67 124.5 178.5t57.5 226.5q0 121 -28 204t-107 173h111q70 -94 96.5 -175 t26.5 -189q0 -43 -12 -99t-29 -84l41 43v-114l-363 -363zM1044 365l269 -365h78v43l-74 98l74 82v117l-125 -131l-31 39l156 168v116l-207 -215l-29 39l236 248v117z" />
<glyph unicode="'" d="M31 0v92h1360v-92h-1360zM31 143v93h1360v-93h-1360zM31 299v92h1360v-92h-1360zM31 449v1138h98v-1046h1163v1046h99v-1138h-1360zM188 598v989h99v-897h848v897h98v-989h-1045zM346 748v839h98v-747h533v747h98v-839h-729zM504 897v690h414v-690h-414zM602 989h217v506 h-217v-506zM662 1047v391h98v-391h-98z" />
<glyph unicode="(" d="M31 0v119q81 -102 98 -119h-98zM31 203v223q88 -271 256 -426h-99q-86 94 -157 203zM31 795q0 496 315 792h98q-147 -141 -231 -340t-84 -452q0 -250 84.5 -452.5t230.5 -342.5h-98q-83 76 -143.5 166.5t-92.5 170t-51 170.5t-23.5 153.5t-4.5 134.5zM31 1167v215 q51 104 157 205h99q-171 -163 -256 -420zM31 1462v125h98q-68 -64 -98 -125zM188 795q0 495 316 792h98q-147 -141 -231 -340t-84 -452q0 -250 84.5 -452.5t230.5 -342.5h-98q-83 76 -143.5 166.5t-93 170t-51.5 170.5t-23.5 153.5t-4.5 134.5zM346 795q0 495 316 792h98 q-148 -141 -232 -340t-84 -452q0 -250 85 -452.5t231 -342.5h-98q-83 76 -143.5 166.5t-93 170t-51.5 170.5t-23.5 153.5t-4.5 134.5zM504 795q0 496 315 792h99q-148 -141 -232 -340t-84 -452q0 -250 85 -452.5t231 -342.5h-99q-83 76 -143.5 166.5t-92.5 170t-51 170.5 t-23.5 153.5t-4.5 134.5zM662 795q0 496 315 792h98q-147 -141 -231 -340t-84 -452q0 -250 84.5 -452.5t230.5 -342.5h-98q-83 76 -143.5 166.5t-92.5 170t-51 170.5t-23.5 153.5t-4.5 134.5zM819 795q0 495 316 792h98q-147 -141 -231 -340t-84 -452q0 -250 84.5 -452.5 t230.5 -342.5h-98q-83 76 -143.5 166.5t-93 170t-51.5 170.5t-23.5 153.5t-4.5 134.5zM977 795q0 496 315 792h99q-148 -141 -232 -340t-84 -452q0 -250 85 -452.5t231 -342.5h-99q-83 76 -143.5 166.5t-92.5 170t-51 170.5t-23.5 153.5t-4.5 134.5zM1135 795 q0 -67 3.5 -124t19 -140t41.5 -155.5t75 -157t117 -157.5v134q-158 264 -158 600q0 334 158 594v139q-256 -278 -256 -733zM1292 793q0 -291 99 -500v991q-99 -212 -99 -491z" />
<glyph unicode=")" d="M31 0q146 140 230.5 342.5t84.5 452.5q0 253 -84 452t-231 340h98q315 -303 315 -792q0 -72 -5 -135t-24 -153t-51 -169t-92.5 -170t-142.5 -168h-98zM31 61q82 90 137 192.5t79 204.5t32 177t8 160q0 452 -256 733v-139q157 -258 157 -594q0 -337 -157 -600v-134z M31 293q98 207 98 500q0 282 -98 491v-991zM188 0q146 140 231 342.5t85 452.5q0 253 -84 452t-232 340h99q315 -303 315 -792q0 -72 -5 -135t-24 -153t-51 -169t-92.5 -170t-142.5 -168h-99zM346 0q146 140 231 342.5t85 452.5q0 253 -84 452t-232 340h98 q316 -304 316 -792q0 -72 -5 -135t-24 -153t-51.5 -169t-93 -170t-142.5 -168h-98zM504 0q146 140 230.5 342.5t84.5 452.5q0 253 -84 452t-231 340h98q316 -304 316 -792q0 -72 -5 -135t-24 -153t-51.5 -169t-93 -170t-142.5 -168h-98zM662 0q146 140 230.5 342.5 t84.5 452.5q0 253 -84 452t-231 340h98q315 -303 315 -792q0 -72 -5 -135t-24 -153t-51 -169t-92.5 -170t-142.5 -168h-98zM819 0q146 140 231 342.5t85 452.5q0 253 -84 452t-232 340h99q315 -303 315 -792q0 -72 -5 -135t-24 -153t-51 -169t-92.5 -170t-142.5 -168h-99z M977 0q146 140 230.5 342.5t84.5 452.5q0 253 -84 452t-231 340h98q316 -304 316 -792q0 -72 -5 -135t-24 -153t-51.5 -169t-93 -170t-142.5 -168h-98zM1135 0q168 155 256 426v-223q-69 -106 -158 -203h-98zM1135 1587h98q108 -103 158 -205v-215q-85 257 -256 420zM1292 0 q22 22 99 119v-119h-99zM1292 1587h99v-125q-29 59 -99 125z" />
<glyph unicode="*" d="M31 0v66l688 684l672 -674v-76h-66l-610 606l-604 -606h-80zM31 150v149l504 489l-504 494v150l647 -644zM31 381v139l147 144h-147v98h391zM31 821v99h145l-145 141v147l389 -387h-389zM31 1516v71h80l571 -586v-145zM190 1587h140l254 -260v260h98v-504zM195 0l487 500 v-500h-98v256l-250 -256h-139zM406 0l126 131v-131h-126zM406 1587h126v-131zM741 0v498l496 -498h-147l-250 254v-254h-99zM741 856v148l584 583h66v-82zM741 1085v502h99v-258l254 258h147zM760 791l631 636v-139l-492 -500l492 -495v-139zM893 0v131l127 -131h-127z M893 1456v131h127zM999 762h392v-98h-148l148 -144v-139zM1001 821l390 387v-147l-146 -141h146v-99h-390z" />
<glyph unicode="+" d="M31 0v242h98v-242h-98zM31 299v92h256v-391h-99v299h-157zM31 449v92h413v-541h-98v449h-315zM31 598v92h571v-690h-98v598h-473zM31 748v92h631v747h98v-747h631v-92h-631v-748h-98v748h-631zM31 897v92h473v598h98v-690h-571zM31 1047v92h315v448h98v-540h-413z M31 1196v92h157v299h99v-391h-256zM31 1346v241h98v-241h-98zM819 0v690h572v-92h-473v-598h-99zM819 897v690h99v-598h473v-92h-572zM977 0v541h414v-92h-316v-449h-98zM977 1047v540h98v-448h316v-92h-414zM1135 0v391h256v-92h-158v-299h-98zM1135 1196v391h98v-299h158 v-92h-256zM1292 0v242h99v-242h-99zM1292 1346v241h99v-241h-99z" />
<glyph unicode="," d="M31 0h174q-46 31 -96 94.5t-78 132.5v-227zM31 498q0 131 46 246.5t130.5 203.5t216 139.5t291.5 51.5q97 0 193.5 -26t183.5 -78.5t153.5 -125t106 -174t39.5 -217.5v-518h-99v508q0 102 -40.5 198.5t-112.5 172.5t-182.5 122t-241.5 46q-258 0 -422 -153t-164 -396 q0 -168 94 -299t250 -199h-172q-127 86 -198.5 220.5t-71.5 277.5zM31 811v152q115 144 287 234.5t397 90.5q207 0 384.5 -85.5t291.5 -221.5v-164q-82 165 -272 272t-404 107q-243 0 -420.5 -106t-263.5 -279zM31 1055v135q124 115 308 181.5t376 66.5q193 0 372.5 -65.5 t303.5 -182.5v-135q-123 135 -305.5 213t-370.5 78q-211 0 -383.5 -75.5t-300.5 -215.5zM31 1257v119q273 211 684 211q185 0 369.5 -54t306.5 -157v-119q-260 238 -676 238q-196 0 -375 -55.5t-309 -182.5zM31 1434q45 37 102 68.5t97.5 47.5t101.5 37h-213 q-41 -13 -88 -41v-112zM190 500q0 -135 74.5 -251.5t194.5 -182.5t252 -66q97 0 152 62.5t55 168.5v265q0 85 -59 139.5t-146 54.5t-148 -55t-61 -139q0 -76 49 -130.5t117 -62.5v-61q-100 17 -162 87.5t-62 168.5q0 105 81.5 177.5t189.5 72.5q109 0 184.5 -75t75.5 -198 v-475h98v487q0 55 -23.5 115t-66.5 114t-114 89t-156 35q-86 0 -158 -32.5t-116 -83.5t-68.5 -110t-24.5 -116q0 -94 53 -178t131.5 -130.5t155.5 -46.5q35 0 53.5 18.5t18.5 49.5v276q0 67 -33 109q36 -5 64 -31t28 -69v-279q0 -66 -26 -95.5t-78 -29.5q-105 0 -203 55 t-160.5 150.5t-62.5 202.5q0 74 27 143.5t78.5 127t134.5 92t186 34.5q126 0 224 -60t147 -152t49 -196v-489h98v498q0 142 -73.5 256t-191 174.5t-253.5 60.5q-122 0 -223 -41.5t-166 -111t-100.5 -156.5t-35.5 -180zM602 496q0 50 41 77q27 -21 27 -104v-76 q-34 13 -51 41.5t-17 61.5zM1090 1587q61 -21 101.5 -37t97.5 -47.5t102 -68.5v112q-47 28 -88 41h-213z" />
<glyph unicode="-" d="M31 0v92h413v-92h-413zM31 150v92h98v-92h-98zM31 299v92h256v-92h-256zM31 449v92h413v-92h-413zM31 598v92h98v-92h-98zM31 748v92h256v-92h-256zM31 897v92h413v-92h-413zM31 1047v92h98v-92h-98zM31 1196v92h256v-92h-256zM31 1346v92h413v-92h-413zM31 1495v92h98 v-92h-98zM188 150v92h414v-92h-414zM188 598v92h414v-92h-414zM188 1047v92h414v-92h-414zM188 1495v92h414v-92h-414zM346 299v92h414v-92h-414zM346 748v92h414v-92h-414zM346 1196v92h414v-92h-414zM504 0v92h414v-92h-414zM504 449v92h414v-92h-414zM504 897v92h414v-92 h-414zM504 1346v92h414v-92h-414zM662 150v92h413v-92h-413zM662 598v92h413v-92h-413zM662 1047v92h413v-92h-413zM662 1495v92h413v-92h-413zM819 299v92h414v-92h-414zM819 748v92h414v-92h-414zM819 1196v92h414v-92h-414zM977 0v92h414v-92h-414zM977 449v92h414v-92 h-414zM977 897v92h414v-92h-414zM977 1346v92h414v-92h-414zM1135 150v92h256v-92h-256zM1135 598v92h256v-92h-256zM1135 1047v92h256v-92h-256zM1135 1495v92h256v-92h-256zM1292 299v92h99v-92h-99zM1292 748v92h99v-92h-99zM1292 1196v92h99v-92h-99z" />
<glyph unicode="." horiz-adv-x="1425" d="M31 0v100q24 -52 55 -100h-55zM31 707v180q117 162 296 254t386 92q210 0 386.5 -90t291.5 -248v-170q-92 192 -273 307t-405 115q-223 0 -406.5 -120t-275.5 -320zM31 1008v127q139 125 313 193.5t369 68.5q194 0 367 -66.5t311 -187.5v-121q-127 137 -302 214t-376 77 q-200 0 -376.5 -80t-305.5 -225zM31 1217v110q307 219 682 219q378 0 678 -209v-104q-286 231 -678 231q-191 0 -365.5 -64t-316.5 -183zM31 1407v106q79 55 123 74h350q-292 -42 -473 -180zM33 397q0 141 54.5 267t146 216t217 142.5t262.5 52.5q188 0 343 -89t244 -244.5 t89 -344.5q0 -217 -125 -397h-127q75 79 116 182t41 217q0 163 -76 296t-209 208.5t-296 75.5q-156 0 -290 -75.5t-214 -209.5t-80 -295q0 -113 42.5 -216t119.5 -183h-129q-129 181 -129 397zM193 399q0 141 71 260t190.5 186.5t258.5 67.5q107 0 202 -40t163.5 -108.5 t108.5 -163.5t40 -202q0 -119 -48.5 -222.5t-134.5 -176.5h-190q125 45 203 154t78 245q0 177 -122.5 299.5t-299.5 122.5q-174 0 -299 -123t-125 -299q0 -136 78.5 -245t203.5 -154h-188q-89 74 -139.5 177t-50.5 222zM354 399q0 148 106.5 252.5t252.5 104.5 q149 0 252.5 -104t103.5 -253q0 -146 -104 -252t-252 -106q-145 0 -252 106.5t-107 251.5zM449 399q0 -106 79 -185t185 -79q109 0 185.5 78.5t76.5 185.5q0 110 -76 186.5t-186 76.5q-107 0 -185.5 -77t-78.5 -186zM514 399q0 79 60 138t139 59t137.5 -58.5t58.5 -138.5 q0 -79 -58.5 -138.5t-137.5 -59.5q-78 0 -138.5 60t-60.5 138zM600 399q0 -42 33.5 -76t75.5 -36q-52 37 -52 112q0 72 39 111q-38 -6 -67 -39.5t-29 -71.5zM748 399q0 -55 36 -84q41 38 41 84q0 52 -49 88q-28 -22 -28 -88zM932 1587h340q16 -5 55.5 -25.5t63.5 -37.5v-101 q-202 128 -459 164zM1346 0q28 48 45 80v-80h-45z" />
<glyph unicode="/" d="M31 0v45l854 1542h108l-880 -1587h-82zM31 162v188l682 1237h106zM31 471v188l516 928h104zM31 780v187l346 620h104zM31 1092v188l172 307h102zM31 1397v190h106zM176 0l881 1587h104l-878 -1587h-107zM348 0l881 1587h104l-880 -1587h-105zM518 0l873 1571v-189 l-768 -1382h-105zM690 0l701 1262v-189l-596 -1073h-105zM862 0l529 954v-188l-424 -766h-105zM1034 0l357 645v-190l-252 -455h-105zM1206 0l185 332v-189l-80 -143h-105z" />
<glyph unicode="0" d="M31 160v237q81 -273 237 -397h-125q-22 16 -57.5 65.5t-54.5 94.5zM31 797q0 -150 32.5 -297t105 -282.5t175.5 -217.5h145q-79 42 -143 116t-103.5 158t-66 180.5t-37 181t-10.5 161.5q0 76 10.5 159t36 177.5t64 177.5t100.5 157.5t139 118.5h-141 q-149 -121 -228 -339.5t-79 -450.5zM31 1190v237q19 45 54.5 94.5t57.5 65.5h125q-156 -124 -237 -397zM188 797q0 109 17 216t57 212t99 184.5t149.5 128.5t200.5 49t200.5 -49t149 -128.5t98.5 -184.5t57 -212t17 -216t-16 -215.5t-55 -213.5t-97 -187t-149.5 -130.5 t-204.5 -50.5t-204.5 50.5t-149.5 131t-97.5 187t-55.5 213t-16 215.5zM287 797q0 -74 9 -149.5t27.5 -157t52 -151t78.5 -126t111.5 -89t145.5 -32.5t145.5 32.5t111.5 89t78.5 126t52 151t27.5 157t9 149.5q0 80 -12 167t-43 183.5t-77 172.5t-122 125.5t-170 49.5 t-170 -49.5t-122 -125.5t-77 -172.5t-43 -183.5t-12 -167zM346 795q0 82 10 164t36 170.5t66 155.5t105.5 110t147.5 43t147.5 -43t105 -110t65.5 -155.5t36 -170.5t10 -164q0 -83 -9 -164.5t-34.5 -172t-64.5 -158.5t-105 -112.5t-151 -44.5t-151 44.5t-105.5 112.5 t-65 158.5t-34.5 172.5t-9 164zM444 795q0 -86 13.5 -175t42 -177.5t83.5 -144.5t128 -56t128 56t83.5 144.5t41.5 177.5t13 175q0 77 -13 163.5t-41.5 177.5t-83.5 150.5t-128 59.5q-59 0 -107 -40.5t-77 -101.5t-48.5 -138t-27 -144.5t-7.5 -126.5zM504 797 q0 88 11.5 171.5t35 157t65 118t95.5 44.5t95.5 -44.5t65 -118t35 -157t11.5 -171.5q0 -217 -62 -357.5t-145 -140.5t-145 140.5t-62 357.5zM602 797q0 -165 30 -285.5t79 -120.5q13 0 28 12q-77 144 -77 394q0 261 73 391q-13 8 -24 8q-52 0 -80.5 -113t-28.5 -286z M760 797q0 -167 28 -285q31 102 31 285q0 193 -31 290q-28 -115 -28 -290zM932 0h145q103 83 176 219t105.5 282.5t32.5 295.5q0 150 -32.5 297.5t-104 281.5t-171.5 211h-141q77 -44 139 -118.5t100.5 -157.5t64 -177.5t36 -177.5t10.5 -159q0 -77 -10.5 -161.5t-37 -181 t-66 -180.5t-103.5 -158t-143 -116zM1153 0q157 126 238 397v-237q-33 -80 -113 -160h-125zM1153 1587h125q80 -80 113 -160v-237q-81 271 -238 397z" />
<glyph unicode="1" d="M31 0v840h98v-840h-98zM31 897v92h256v-989h-99v897h-157zM31 1047v92h413v-1139h-98v1047h-315zM31 1196v92h571v-1288h-98v1196h-473zM31 1346v92h729v-1438h-98v1346h-631zM31 1495v92h887v-1587h-99v1495h-788zM977 0v1587h98v-1587h-98zM1135 0v1587h98v-1587h-98z M1292 0v1587h99v-1587h-99z" />
<glyph unicode="2" d="M31 0v1110q0 292 211 477h159q-130 -59 -201 -187.5t-71 -279.5v-927l59 88v829q0 215 121.5 346t321.5 131q195 0 319.5 -137t124.5 -346q0 -119 -41.5 -246.5t-118.5 -243.5l-354 -522h830v-92h-1010l444 655q77 111 114.5 215.5t37.5 233.5q0 173 -96 282t-250 109 q-160 0 -252 -104t-92 -271v-694l55 80v604q0 146 81.5 237t207.5 91q122 0 204.5 -92t82.5 -242q0 -202 -138 -402l-475 -702h-117l500 743q131 200 131 361q0 125 -55.5 183.5t-132.5 58.5q-81 0 -134 -56t-53 -170v-463l60 88v375q0 168 127 168q55 0 92 -42t37 -140 q0 -90 -27 -161t-98 -177l-518 -768h-86zM31 1384v203h139q-40 -32 -80 -88.5t-59 -114.5zM602 897q60 105 60 209q0 41 -6.5 62.5t-11.5 24.5t-13 3q-17 0 -23 -17t-6 -65v-217zM670 150l301 440q164 241 164 514q0 161 -75 291.5t-208 191.5h174q103 -84 155 -210t52 -273 q0 -133 -43.5 -284t-140.5 -290l-199 -288h541v-92h-721zM969 299l151 229q87 129 129.5 280.5t42.5 295.5q0 138 -46 265.5t-140 217.5h141q144 -190 144 -483q0 -143 -45 -311.5t-150 -329.5l-47 -72h242v-92h-422zM1262 449q38 57 80 144.5t49 131.5v-276h-129z M1309 1587q11 -12 21.5 -28t18 -29.5t15.5 -32t11.5 -28t9 -25t6.5 -17.5v160h-82z" />
<glyph unicode="3" d="M31 0h121q-94 80 -121 180v-180zM31 428q0 -135 52.5 -247.5t149.5 -180.5h164q-111 34 -189.5 157t-78.5 287v246h-98v-262zM31 748v92h618q138 5 233 98.5t95 232.5q0 145 -99.5 245t-246.5 100q-152 0 -248 -108t-96 -265v-246h-99v262q0 153 82 269t222 159h274 q138 -42 223.5 -156.5t85.5 -263.5q0 -117 -68.5 -219.5t-175.5 -152.5q244 -119 244 -371q0 -155 -80 -269t-217 -155h-282q-136 42 -222 153.5t-86 270.5v266h99v-287q0 -135 103.5 -233t244.5 -98q147 0 244.5 101t97.5 251q0 76 -32 138t-86 101t-120 61t-137 24h-571z M31 897h98v246q0 163 81 286t187 158h-151q-100 -70 -157.5 -183t-57.5 -245v-262zM31 1384v152q13 23 41 51h102q-95 -83 -143 -203zM342 424q0 -114 82.5 -204.5t212.5 -90.5q118 0 199.5 83.5t81.5 205.5t-98.5 197t-252.5 75h-225v-266zM342 897v262q0 29 10 66.5 t33 78.5t55.5 75t82.5 56.5t108 22.5q129 0 208 -86.5t79 -200.5q0 -119 -95.5 -196.5t-232.5 -77.5h-248zM444 403v195h54q40 0 68.5 -4t46.5 -14.5t28 -21t14.5 -33t5.5 -39t1 -50.5q0 -22 -5.5 -32.5t-10.5 -11.5t-15 -1q-29 0 -29 45v105h-98v-111q0 -56 35.5 -93.5 t91.5 -37.5q51 0 90 30.5t39 92.5q0 87 -25 129q84 -51 84 -133q0 -197 -184 -197q-67 0 -129 53.5t-62 128.5zM444 989h54q57 0 88 2q28 7 46.5 39t24 60t5.5 49q0 39 -9.5 58.5t-21.5 19.5q-29 0 -29 -66v-104h-98v110q0 62 36 107t91 45q49 0 89 -38t40 -102 q0 -105 -41 -151q100 42 100 153q0 49 -17.5 91t-61.5 73t-109 31q-82 0 -134.5 -66t-52.5 -157v-154zM864 1587h160q97 -79 154 -187t57 -233q0 -241 -154 -364q52 -42 84.5 -89.5t46 -100.5t17.5 -92t4 -97q0 -263 -170 -424h-148q108 62 164 172t56 252q0 140 -45 228 t-144 149v4q84 44 137.5 143t53.5 223q0 288 -273 416zM1104 1587h131q88 -95 122 -193t34 -227q0 -241 -115 -364q64 -64 89.5 -155t25.5 -224q0 -129 -38 -247t-108 -177h-110q157 147 157 424q0 147 -28.5 229.5t-108.5 149.5q77 68 107 158.5t30 209.5q0 138 -47 238.5 t-141 177.5zM1298 1587q65 -57 93 -139v139h-93zM1313 0h78v141q-9 -35 -32.5 -81t-45.5 -60z" />
<glyph unicode="4" d="M31 0v92h256v-92h-256zM31 150v92h413v-242h-98v150h-315zM31 299v12l874 1297h13v-1067h473v-92h-631v-449h-98v449h-334v12l420 622h12v-542h59v747h-8l-600 -887v-10h391v-391h-98v299h-473zM31 422v176l667 989h117zM31 709l592 878h-117l-475 -702v-176zM31 995 l399 592h-119l-280 -416v-176zM31 1274l213 313h-115l-98 -137v-176zM500 541h162v239h-7zM819 0v391h572v-92h-473v-299h-99zM977 0v242h414v-92h-316v-150h-98zM977 598v989h98v-897h316v-92h-414zM1135 0v92h256v-92h-256zM1135 748v839h98v-747h158v-92h-256zM1292 897 v690h99v-690h-99z" />
<glyph unicode="5" d="M31 74v151q23 -57 73 -123t91 -102h-101q-13 11 -35 37t-28 37zM31 541v57l329 989h101l-303 -897h424q178 0 178 -149q0 -110 -82 -164q15 -6 33 -6q108 0 108 194q0 183 -264 183h-322l281 839h100l-254 -747h238q155 0 237.5 -78.5t82.5 -196.5q0 -117 -57.5 -201.5 t-149.5 -84.5q-96 0 -151.5 73.5t-55.5 188.5v57h-60v-57q0 -30 7.5 -67.5t27 -83t48.5 -82.5t77 -62t107 -25q121 0 193.5 99.5t72.5 244.5q0 149 -100.5 240.5t-247.5 91.5h-191l232 690h721v-92h-650l-186 -506h117q161 0 282 -123.5t121 -300.5q0 -78 -27 -155.5 t-74 -140t-116 -101.5t-147 -39q-76 0 -139 28.5t-104 73t-69.5 100.5t-40.5 109t-12 101v57h-59v-76q0 -98 36 -183t95 -143t135.5 -91t157.5 -33q94 0 174.5 42t134.5 111.5t84.5 158t30.5 181.5q0 203 -129.5 342.5t-313.5 139.5h-55l149 391h605v-92h-545l-78 -211 q196 -18 330.5 -177t134.5 -393q0 -147 -66 -280.5t-187.5 -219t-266.5 -85.5q-99 0 -185.5 34t-147.5 90.5t-105 129.5t-65.5 151.5t-21.5 155.5v57h-59v-80q0 -163 84 -301.5t231 -216.5h-161q-124 85 -188 232t-64 309zM31 764v287l174 536h100zM31 1235v287l18 65h101z M602 541q0 -61 21 -105q39 30 39 84q0 40 -10 56t-50 20v-55zM846 1176l43 112h502v-92h-349q43 -20 97 -57h252v-92h-154q4 -10 11.5 -20t17.5 -21.5t14 -16.5h111v-92h-62q62 -144 62 -332q0 -153 -72.5 -307t-196.5 -258h-157q101 50 176.5 144.5t113 203.5t37.5 217 q0 226 -115.5 394.5t-330.5 216.5zM1204 0h113q17 17 41.5 50t32.5 54v177q-27 -73 -76.5 -152t-110.5 -129z" />
<glyph unicode="6" d="M31 0v233q51 -127 149 -233h-149zM31 514q0 117 47 229.5t135 249.5l387 594h117l-434 -663q-154 -233 -154 -410q0 -156 76.5 -296.5t206.5 -217.5h-152q-107 100 -168 234.5t-61 279.5zM31 786v205l387 596h117l-435 -663q-46 -67 -69 -138zM31 1108v174l198 305h117z M188 514q0 93 32.5 175.5t103.5 193.5l460 704h117l-508 -774q-54 -82 -80 -146.5t-26 -152.5q0 -188 119 -315t303 -127t305 125.5t121 316.5q0 122 -54.5 226t-153 166.5t-218.5 62.5q-17 0 -35 -11l-49 -75h2q35 14 82 14q151 0 258.5 -113.5t107.5 -269.5 q0 -155 -105.5 -265t-260.5 -110t-259 107.5t-104 267.5q0 114 70 215l551 858h118l-360 -540q116 0 212.5 -43t160.5 -116.5t99.5 -170t35.5 -203.5q0 -108 -43.5 -207.5t-115 -170.5t-167.5 -113.5t-198 -42.5q-225 0 -373 153t-148 381zM444 514q0 -120 74.5 -200.5 t190.5 -80.5q119 0 193.5 76t74.5 205q0 119 -76.5 205t-191.5 86q-116 0 -190.5 -84t-74.5 -207zM504 514q0 87 61.5 155t143.5 68q89 0 149 -68.5t60 -154.5q0 -85 -65 -153t-144 -68q-88 0 -146.5 63t-58.5 158zM602 514q0 -54 34 -92.5t73 -38.5q18 0 26 2 q-73 52 -73 129q0 76 77 131q-15 6 -30 6q-41 0 -74 -35.5t-33 -101.5zM760 514q0 -54 39 -76q20 33 20 76q0 35 -18 76q-41 -18 -41 -76zM840 1102l311 485h119l-293 -434q87 -32 158 -86t118 -118t78.5 -139.5t45.5 -149t14 -146.5q0 -145 -65.5 -280t-178.5 -234h-158 q135 74 219 215t84 299q0 67 -13.5 134.5t-47 140t-83.5 132t-129.5 108.5t-178.5 73zM1073 1184l260 403h58v-92l-187 -274q103 -60 187 -168v-187q-94 199 -318 318zM1235 0q99 87 156 197v-197h-156zM1282 1231l109 168v-260q-59 59 -109 92z" />
<glyph unicode="7" d="M31 59v193l524 944h-524v92h688zM31 367v196l266 484h-266v92h430zM31 680v197l8 20h-8v92h172zM31 1346v92h948l-807 -1438h-106l749 1346h-784zM31 1495v92h1212l-891 -1587h-110l833 1495h-1044zM420 0h110l861 1532v55h-86zM596 0h111l684 1219v206zM772 0h111 l508 905v205zM948 0h111l332 592v201zM1124 0h111l156 276v199zM1294 0h97v170z" />
<glyph unicode="8" d="M31 90v158q64 -145 194 -248h-125q-42 42 -69 90zM31 489q0 145 61.5 274t188.5 212q-52 64 -72.5 125t-20.5 139q0 193 158 348h143q-96 -54 -149 -147.5t-53 -200.5q0 -96 27 -158t92 -127q-277 -144 -277 -465q0 -155 95 -288.5t249 -200.5h-172q-125 83 -197.5 220.5 t-72.5 268.5zM31 748v165q14 28 59 76q-34 67 -46.5 121t-12.5 129q0 206 131 348h114q-71 -68 -109 -159t-38 -189q0 -86 17.5 -140.5t54.5 -117.5q-57 -42 -105 -107.5t-65 -125.5zM188 494q0 155 96.5 285t233.5 175q-76 36 -124 112.5t-48 172.5q0 151 107 249.5 t258 98.5t257.5 -98.5t106.5 -249.5q0 -96 -48 -172.5t-124 -112.5q137 -45 233.5 -175t96.5 -285q0 -136 -72 -250.5t-192 -179t-258 -64.5t-258 64.5t-192.5 179t-72.5 250.5zM287 494q0 -107 60.5 -200.5t158.5 -147.5t205 -54t205 54t158.5 147.5t60.5 200.5 q0 108 -60.5 202t-158 147.5t-205.5 53.5t-205.5 -53.5t-158 -147.5t-60.5 -202zM346 496q0 139 111 241.5t254 102.5t253.5 -102.5t110.5 -241.5t-111 -242.5t-253 -103.5t-253.5 103.5t-111.5 242.5zM444 494q0 -101 84.5 -176.5t182.5 -75.5q97 0 181.5 75.5t84.5 176.5 q0 109 -80 181.5t-186 72.5q-109 0 -188 -72t-79 -182zM444 1239q0 -105 79.5 -177.5t187.5 -72.5t187 72.5t79 177.5q0 111 -75 183.5t-191 72.5q-117 0 -192 -72.5t-75 -183.5zM504 494q0 82 60 139t147 57t147 -57t60 -139q0 -85 -59.5 -140t-147.5 -55t-147.5 55 t-59.5 140zM504 1241q0 82 60 139.5t147 57.5t147 -57.5t60 -139.5q0 -85 -59.5 -139.5t-147.5 -54.5t-147.5 54.5t-59.5 139.5zM602 494q0 -50 30 -75.5t70 -27.5q-40 40 -40 103q0 61 43 104q-48 -5 -75.5 -31.5t-27.5 -72.5zM602 1241q0 -50 29.5 -75t70.5 -27 q-40 40 -40 102t43 105q-48 -5 -75.5 -32t-27.5 -73zM760 494q0 -48 26 -74q33 26 33 74q0 44 -31 75q-28 -25 -28 -75zM760 1241q0 -48 26 -74q33 26 33 74q0 45 -31 76q-28 -25 -28 -76zM932 1587h143q158 -155 158 -348q0 -79 -20 -140t-72 -124q127 -83 188.5 -212 t61.5 -274q0 -131 -73 -267.5t-198 -221.5h-172q154 67 249 200.5t95 288.5q0 321 -276 465q65 65 92 127t27 158q0 106 -53.5 200t-149.5 148zM1145 1587h115q131 -142 131 -348q0 -75 -12.5 -128.5t-47.5 -121.5q47 -51 60 -76v-165q-17 60 -65 125.5t-105 107.5 q37 62 54 117t17 141q0 98 -38 189t-109 159zM1196 0q132 104 195 248v-158q-25 -45 -70 -90h-125z" />
<glyph unicode="9" d="M31 0v72l186 274q-101 59 -186 168v186q93 -198 317 -317l-248 -383h-69zM31 180v221q42 -42 98 -75zM31 1053q0 145 65 280t178 234h158q-137 -76 -220 -215t-83 -299q0 -67 13.5 -134.5t47 -140t84 -132.5t130 -108.5t178.5 -72.5l-299 -465h-119l280 414 q-110 39 -192.5 111.5t-129 161.5t-69 181t-22.5 185zM31 1370v164l30 33h125q-98 -85 -155 -197zM188 1053q0 144 73.5 268t194.5 195t257 71q148 0 267.5 -70t186 -192t66.5 -272q0 -93 -32 -176t-103 -193l-449 -684h-117l496 754q54 83 80.5 147.5t26.5 151.5 q0 188 -119 315t-303 127t-305 -125.5t-121 -316.5q0 -122 54.5 -226t153 -166.5t218.5 -62.5q18 0 35 10l49 76h-2q-35 -14 -82 -14q-151 0 -259 113.5t-108 269.5q0 155 106 264.5t261 109.5t258.5 -107t103.5 -267q0 -116 -69 -215l-539 -838h-119l348 520 q-116 0 -212.5 43t-160.5 116.5t-99.5 170t-35.5 203.5zM444 1053q0 -119 77 -205t192 -86t189.5 84t74.5 207q0 120 -74 200t-190 80q-119 0 -194 -76t-75 -204zM504 1053q0 85 65 153t144 68q86 0 145.5 -63.5t59.5 -157.5q0 -87 -61.5 -155.5t-143.5 -68.5q-89 0 -149 69 t-60 155zM602 1053q0 -63 33 -100.5t78 -37.5q18 -1 28 5q-79 52 -79 133q0 73 71 127q-16 4 -20 4q-47 0 -79 -37t-32 -94zM717 0l422 643q153 223 153 410q0 155 -81.5 302t-221.5 232h152q117 -99 183.5 -242.5t66.5 -291.5q0 -117 -47.5 -229.5t-135.5 -250.5l-374 -573 h-117zM760 1053q0 -59 43 -78q16 37 16 78q0 40 -20 73q-39 -17 -39 -73zM899 0l422 643q47 72 70 137v-205l-375 -575h-117zM1087 0l304 459v-174l-187 -285h-117zM1233 1587h158v-241q-13 45 -56.5 113.5t-101.5 127.5zM1294 0l97 170v-170h-97z" />
<glyph unicode=":" d="M31 0v233q27 -68 80 -136t98 -97h-178zM31 498q0 198 88 293q-88 144 -88 296q0 148 64 282t188 218h172q-154 -66 -240 -197.5t-86 -302.5q0 -52 8.5 -96t28.5 -84.5t30 -56.5t34 -50l6 -9q-20 -16 -33 -31t-33 -48.5t-30.5 -88t-10.5 -125.5q0 -168 94 -299t250 -199 h-172q-127 86 -198.5 220.5t-71.5 277.5zM31 1378v209h141q-34 -27 -81.5 -97.5t-59.5 -111.5zM190 500q0 75 37.5 160t85.5 133q-49 39 -86 120.5t-37 178.5q0 210 149.5 352.5t375.5 142.5q111 0 208 -39t165 -106t106.5 -159t38.5 -196q0 -86 -35.5 -166t-81.5 -126 q117 -96 117 -297q0 -144 -75 -259.5t-193.5 -177t-253.5 -61.5q-132 0 -252 66t-194.5 182.5t-74.5 251.5zM289 500q0 -107 61 -202.5t158.5 -150.5t202.5 -55q108 0 203.5 47.5t158 142t62.5 216.5q0 193 -138 295q61 51 99.5 133.5t38.5 160.5q0 170 -117 289t-303 119 q-184 0 -305 -117t-121 -286q0 -185 147 -299q-147 -114 -147 -293zM348 498q0 96 50.5 178.5t125.5 118.5q-75 36 -123.5 117t-48.5 178q0 151 107 249.5t258 98.5t256.5 -98.5t105.5 -249.5q0 -97 -47.5 -178t-122.5 -117q74 -35 120 -117t46 -180q0 -151 -104 -249.5 t-254 -98.5q-151 0 -260 99t-109 249zM446 498q0 -110 77 -183t194 -73q116 0 188 71.5t72 184.5q0 106 -76.5 178t-183.5 72q-108 0 -189.5 -72.5t-81.5 -177.5zM451 1090q0 -105 79 -177.5t187 -72.5t186 72t78 178q0 113 -73.5 184.5t-190.5 71.5q-116 0 -191 -72.5 t-75 -183.5zM506 496q0 85 59.5 139.5t147.5 54.5q87 0 146 -54.5t59 -139.5q0 -82 -59 -139.5t-146 -57.5t-147 57.5t-60 139.5zM510 1092q0 82 60 139t147 57t146 -57t59 -139q0 -85 -59 -140t-146 -55q-88 0 -147.5 55t-59.5 140zM604 496q0 -47 28 -75t75 -30 q-43 43 -43 105q0 61 41 102q-41 -5 -71 -30t-30 -72zM608 1092q0 -50 30.5 -75.5t70.5 -27.5q-41 41 -41 103q0 61 43 104q-48 -5 -75.5 -31.5t-27.5 -72.5zM762 496q0 -51 29 -76q30 30 30 76q0 47 -33 73q-26 -26 -26 -73zM766 1092q0 -47 27 -74q30 24 30 74 q0 47 -28 75q-29 -29 -29 -75zM950 0q157 67 249.5 198.5t92.5 299.5q0 71 -10.5 125.5t-29.5 87.5t-32 48.5t-32 31.5q23 32 34 50t31 58t29.5 87t9.5 101q0 172 -84.5 303t-238.5 197h172q124 -84 187 -218t63 -282q0 -156 -86 -296q86 -93 86 -293q0 -143 -71 -277.5 t-198 -220.5h-172zM1227 0q121 113 164 221v-221h-164zM1241 1587h150v-192q-19 46 -67 105.5t-83 86.5z" />
<glyph unicode=";" d="M31 0v233q27 -68 80 -136t98 -97h-178zM31 498q0 198 88 293q-88 144 -88 296q0 148 64 282t188 218h172q-154 -66 -240 -197.5t-86 -302.5q0 -52 8.5 -96t28.5 -84.5t30 -56.5t34 -50l6 -9q-20 -16 -33 -31t-33 -48.5t-30.5 -88t-10.5 -125.5q0 -168 94 -299t250 -199 h-172q-127 86 -198.5 220.5t-71.5 277.5zM31 1378v209h141q-34 -27 -81.5 -97.5t-59.5 -111.5zM190 500q0 75 37.5 160t85.5 133q-49 39 -86 120.5t-37 178.5q0 210 149.5 352.5t375.5 142.5q111 0 208 -39t165 -106t106.5 -159t38.5 -196q0 -86 -35.5 -166t-81.5 -126 q117 -102 117 -297v-498h-98v498q0 193 -138 295q61 51 99.5 133.5t38.5 160.5q0 170 -117 289t-303 119q-184 0 -305 -117t-121 -286q0 -185 147 -299q-147 -114 -147 -293q0 -107 62 -202.5t159.5 -150.5t202.5 -55q106 0 106 125v279q0 43 -28 69t-64 31q33 -42 33 -109 v-276q0 -31 -18.5 -49.5t-53.5 -18.5q-144 12 -242 111t-98 244q0 96 50.5 178.5t125.5 118.5q-75 36 -123.5 117t-48.5 178q0 151 107 249.5t258 98.5q150 0 255 -98.5t105 -249.5q0 -97 -47 -178t-121 -117q74 -35 120 -117t46 -180v-498h-98v498q0 106 -76.5 178 t-183.5 72q-108 0 -189.5 -72.5t-81.5 -177.5q0 -97 63 -168t161 -88v61q-68 8 -117 62.5t-49 130.5q0 84 61 139t148 55t146 -54.5t59 -139.5v-265q0 -106 -55 -168.5t-152 -62.5q-132 0 -252 66t-194.5 182.5t-74.5 251.5zM451 1090q0 -105 79 -177.5t187 -72.5t185 72 t77 178q0 113 -72.5 184.5t-189.5 71.5q-116 0 -191 -72.5t-75 -183.5zM510 1092q0 82 60 139t147 57t145 -57t58 -139q0 -85 -58 -140t-145 -55q-88 0 -147.5 55t-59.5 140zM602 496q0 -33 17 -61.5t51 -41.5v76q0 83 -27 104q-41 -27 -41 -77zM602 1094q0 -47 30 -77 t75 -32q-48 38 -48 111q0 58 27 96q-36 -8 -60 -34.5t-24 -63.5zM750 1096q0 -54 36 -82q33 36 33 80q0 24 -13 47t-34 37q-22 -22 -22 -82zM969 1587h172q124 -84 187 -218t63 -282q0 -156 -86 -296q86 -96 86 -293v-498h-99v498q0 71 -10.5 125.5t-29.5 87.5t-32 48.5 t-32 31.5q23 32 34 50t31 58t29.5 87t9.5 101q0 172 -84.5 303t-238.5 197zM1241 1587h150v-192q-19 46 -67 105.5t-83 86.5z" />
<glyph unicode="&#x3c;" d="M31 0v104l252 -104h-252zM31 168v98l571 -266h-213zM31 322v98l899 -420h-205zM31 475v98l1231 -573h-205zM31 629v98l1360 -633v-94zM31 786v144l1360 592v-95l-1301 -569l1301 -606v-94zM31 981v98l1140 508h220zM31 1135v98l805 354h204zM31 1288v98l473 201h205z M31 1442v98l137 47h213zM231 858l1160 510v-94l-942 -418l942 -440v-94zM586 856l805 350v-94l-570 -256l570 -270v-94zM965 856l426 184v-98l-207 -86l207 -92v-98z" />
<glyph unicode="=" d="M31 0v92h1360v-92h-1360zM31 150v92h1360v-92h-1360zM31 299v989h1360v-989h-1360zM31 1346v92h1360v-92h-1360zM31 1495v92h1360v-92h-1360zM129 391h1163v357h-1163v-357zM129 840h1163v356h-1163v-356zM188 449v241h1045v-241h-1045zM188 897v242h1045v-242h-1045z M287 541h848v57h-848v-57zM287 989h848v58h-848v-58z" />
<glyph unicode="&#x3e;" d="M31 0v94l1360 633v-98zM31 158v94l1300 606l-1300 569v95l1360 -592v-144zM31 322v94l942 440l-942 418v94l1159 -510zM31 492v94l569 270l-569 256v94l805 -350zM31 666v98l207 92l-207 86v98l426 -184zM31 1587h219l1141 -508v-98zM160 0l1231 573v-98l-1026 -475h-205 zM381 1587h205l805 -354v-98zM492 0l899 420v-98l-695 -322h-204zM713 1587h205l473 -201v-98zM819 0l572 266v-98l-359 -168h-213zM1040 1587h213l138 -47v-98zM1139 0l252 104v-104h-252z" />
<glyph unicode="?" d="M31 195q0 -33 8.5 -72t14.5 -56.5t24 -66.5h100q-49 123 -49 195q0 120 41.5 220t116.5 167v571q0 305 252 434h-150q-103 -91 -152 -188.5t-49 -245.5v-539q-157 -167 -157 -419zM31 512q41 84 98 135v506q0 149 42 245.5t134 188.5h-115q-88 -90 -123.5 -193 t-35.5 -241v-641zM188 195q0 224 158 364v594q0 197 123 315.5t324 118.5q194 0 317 -117t123 -319q0 -129 -51 -216.5t-160 -170.5q-32 -25 -40.5 -31.5t-27 -24.5t-22.5 -30t-9 -32.5t-5 -47.5v-111q157 -103 157 -292q0 -56 -24.5 -110t-55.5 -85h-123q43 26 74 78.5 t31 116.5q0 93 -49 162t-109 92v149q0 23 3 42.5t5.5 34t12.5 29.5t14.5 23.5t21 23t23.5 20.5t30.5 24t33.5 26q93 70 132.5 139.5t39.5 190.5q0 170 -95.5 257t-248.5 87q-157 0 -252 -94t-95 -248v-645q-68 -46 -112.5 -126t-44.5 -187q0 -87 61 -195h-106 q-54 119 -54 195zM346 195q0 189 158 292v666q0 125 78 205t211 80q123 0 202.5 -77.5t79.5 -209.5q0 -99 -32 -162t-121 -127q-71 -53 -100.5 -82t-45.5 -71t-16 -111v-149h-98v153q0 65 9.5 109t35 81t58.5 64.5t93 67.5q69 47 94 94.5t25 132.5q0 88 -49.5 141.5 t-139.5 53.5q-88 0 -137 -49t-49 -144v-250q19 19 60 51v199q0 59 35 97t96 38q51 0 88 -40t37 -97q0 -71 -21.5 -107.5t-77.5 -78.5q-133 -95 -175 -164.5t-42 -202.5v-166q-64 -24 -111 -83.5t-47 -153.5q0 -111 105 -195h-123q-31 31 -55.5 85t-24.5 110zM510 199 q0 -78 60.5 -138.5t138.5 -60.5q79 0 137.5 60t58.5 139t-58.5 137.5t-137.5 58.5t-139 -58.5t-60 -137.5zM596 199q0 38 29 71t67 39q-39 -39 -39 -110q0 -76 52 -113q-42 2 -75.5 36.5t-33.5 76.5zM743 199q0 65 29 88q49 -36 49 -88q0 -46 -41 -84q-37 30 -37 84z M760 1026q26 18 35 27t16.5 32.5t7.5 65.5q0 45 -31 45q-28 0 -28 -45v-125zM977 508q68 -47 113 -126.5t45 -186.5q0 -85 -62 -195h107q53 117 53 195q0 224 -158 364v39q0 19 7.5 33.5t13 20t22.5 18.5q138 113 205.5 225t67.5 258q0 132 -47.5 243.5t-139.5 190.5h-170 q123 -55 190.5 -166.5t67.5 -267.5q0 -76 -18.5 -140.5t-56 -116.5t-73 -88t-89.5 -79q-4 -3 -10 -8q-27 -22 -38.5 -33.5t-20.5 -34t-9 -55.5v-90zM1135 582q75 -67 116 -167t41 -220q0 -72 -49 -195h100q2 4 8.5 23t8.5 24.5t8 22.5t8 25t5.5 23t5 25.5t3 24.5t1.5 27 q0 248 -148 405q65 54 148 152v163q-30 -69 -93.5 -140t-136.5 -128q-15 -11 -20.5 -24t-5.5 -41zM1307 596q46 -51 84 -129v215q-41 -51 -84 -86z" />
<glyph unicode="@" d="M31 0v129q60 -91 125 -129h-125zM31 221v209q36 -148 144 -263.5t247 -166.5h-178q-65 30 -125.5 96t-87.5 125zM31 768q0 221 84.5 406.5t244 298t361.5 112.5q197 0 351 -93.5t236.5 -253.5t82.5 -357v-258q0 -80 -26.5 -144.5t-69 -102.5t-90.5 -57.5t-95 -19.5 q-92 0 -142.5 21.5t-80.5 70.5q-37 -47 -79 -69.5t-101 -22.5q-92 0 -163 37.5t-113.5 103t-63.5 148.5t-21 180q0 75 12 145.5t40 139t70 119.5t107 82.5t146 31.5q177 0 265.5 -127.5t88.5 -361.5v-209q0 -47 33 -47q17 0 22 10.5t5 36.5v231q0 149 -44.5 265.5 t-139 187.5t-228.5 71q-88 0 -161 -31.5t-123.5 -86t-85 -128t-50.5 -156.5t-16 -173q0 -112 27.5 -207t80 -166.5t136.5 -112t190 -40.5q39 0 84 17.5t78 51.5q22 -29 91.5 -49t131.5 -20q115 0 187 53t98 117v-131q-66 -66 -128 -98.5t-157 -32.5q-68 0 -134 15t-89 44 q-57 -59 -162 -59q-128 0 -230.5 49t-168 133.5t-100 196t-34.5 239.5q0 179 65.5 331t189.5 244.5t280 92.5q231 0 370.5 -164t139.5 -426v-254q0 -59 -34.5 -101t-88.5 -42q-60 0 -96.5 42t-36.5 101v176q0 432 -256 432q-66 0 -117 -28t-80.5 -71.5t-48 -103.5 t-25 -114.5t-6.5 -114.5q0 -62 6.5 -112.5t25 -101.5t48 -85.5t80 -56t117.5 -21.5q88 0 129 80q-6 6 -10 55q-38 -77 -119 -77q-52 0 -91.5 18t-63 47t-38 72t-19.5 86t-5 96q0 66 12 129t36.5 118.5t67.5 89.5t99 34q50 0 86.5 -21.5t58 -55t34 -84.5t16.5 -99.5t4 -110.5 v-162q0 -114 56.5 -164.5t135.5 -50.5q27 0 56.5 11t59 34.5t48 67.5t18.5 102v262q0 141 -45 259.5t-122.5 198t-180.5 123.5t-219 44q-111 0 -207.5 -39.5t-166.5 -108t-121 -160t-76 -198t-25 -219.5q0 -192 70.5 -344.5t207 -242t316.5 -89.5q106 0 162 58 q23 -29 89 -43.5t134 -14.5q85 0 168 38t115 93v-110q-105 -113 -287 -113q-150 0 -219 47q-76 -47 -162 -47q-174 0 -308 59t-217 163.5t-125 242.5t-42 303zM31 1122v209q32 60 107.5 143t137.5 113h179q-137 -50 -256 -179.5t-168 -285.5zM31 1438v149h139 q-32 -24 -71.5 -66t-67.5 -83zM602 768q0 -99 30.5 -163t88.5 -64q-59 89 -59 227q0 177 63 279h-4q-42 0 -69.5 -42.5t-38.5 -102.5t-11 -134zM760 768q0 -93 31 -174q28 64 28 174q0 188 -28 238q-31 -68 -31 -238zM997 1587h179q64 -33 124 -93t91 -116v-209 q-46 153 -150 260t-244 158zM1272 1587h119v-117q-32 56 -119 117z" />
<glyph unicode="A" d="M31 137v248l487 1202h172l641 -1587h-100l-25 59h-559l-22 -59h-101l60 152h585l-24 57h-598l-84 -209h-101l121 301h625l-23 57h-639l-143 -358h-100l180 451h666l-25 57h-678l-207 -508h-100l244 598h704l-22 59h-660l332 811l-35 88zM31 528l422 1059h-99l-323 -794 v-265zM31 938l258 649h-99l-159 -395v-254zM31 1339l98 248h-98v-248zM444 750h70l205 516l-33 82zM614 750h70l121 305l-37 90zM752 1587l639 -1581v252l-539 1329h-100zM784 750h144l-74 182zM913 1587l478 -1181v247l-377 934h-101zM1075 1587l316 -782v250l-215 532 h-101zM1237 1587l154 -383v250l-54 133h-100z" />
<glyph unicode="B" d="M31 0v1587h98v-1587h-98zM188 0v1587h99v-747h463q182 0 277 90t95 248q0 159 -109.5 238t-293.5 79h-275v-57h275q149 0 241.5 -68.5t92.5 -189.5q0 -136 -83.5 -209.5t-250.5 -73.5h-373v690h414q208 0 334.5 -104t126.5 -305q0 -122 -61.5 -224.5t-180.5 -160.5 q117 -58 179.5 -148.5t62.5 -234.5q0 -184 -130 -297t-331 -113h-414v690h373q164 0 249 -73.5t85 -208.5q0 -121 -92.5 -189.5t-241.5 -68.5h-275v-58h275q184 0 293.5 79.5t109.5 238.5q0 87 -40 164.5t-105 115.5q-36 21 -68.5 33.5t-75 17.5t-70.5 6t-91 1h-385v-748 h-99zM444 242h275q105 0 172 47.5t67 140.5q0 57 -24.5 98.5t-63.5 59.5q16 -16 30.5 -50t14.5 -71q0 -79 -64 -123.5t-161 -44.5h-246v-57zM444 391h246q57 0 94 23t37 73q0 55 -41 84q6 -15 6 -36q0 -86 -176 -86h-166v-58zM444 541h166q24 0 36.5 0.5t24.5 3t16.5 8 t4.5 14.5q0 22 -20 31h-228v-57zM444 989h228q20 9 20 31q0 17 -18 22t-64 5h-166v-58zM444 1139h166q176 0 176 -86q0 -22 -6 -37q41 29 41 84q0 50 -37 73t-94 23h-246v-57zM444 1288h246q97 0 161 -44.5t64 -123.5q0 -37 -14.5 -71t-30.5 -50q39 18 63.5 59.5t24.5 98.5 q0 94 -67 141.5t-172 47.5h-275v-58zM1047 0q109 53 177 160t68 248q0 144 -42.5 223t-143.5 162q186 149 186 385q0 141 -68 248.5t-177 160.5h145q81 -55 140 -161t59 -248q0 -220 -160 -385q89 -78 124.5 -165t35.5 -220q0 -143 -59 -247t-140 -161h-145zM1286 0 q29 26 61.5 70t43.5 80v-150h-105zM1286 1587h105v-149q-11 35 -43 79t-62 70zM1315 793q50 53 76 118v-237q-33 74 -76 119z" />
<glyph unicode="C" d="M31 61v117q17 -32 89 -97.5t107 -80.5h-125q-9 5 -38 29.5t-33 31.5zM31 281v188q58 -162 188 -281.5t309 -187.5h-182q-94 43 -180 119.5t-135 161.5zM31 1112v188q56 98 124 165t171 122h182q-357 -135 -477 -475zM31 1403v119q9 13 34 35.5t41 29.5h123 q-46 -17 -108.5 -74.5t-89.5 -109.5zM33 793q0 194 82.5 360.5t224 274.5t317.5 143q72 16 226 16h508v-92h-508q-221 0 -392.5 -88t-266.5 -247.5t-95 -366.5q0 -147 58 -277.5t158 -223t240 -146.5t298 -54h508v-92h-508q-175 0 -331 58.5t-270.5 161t-181.5 251.5 t-67 322zM188 793q0 176 92.5 324.5t252.5 234.5t350 86h508v-92h-508q-174 0 -311 -73.5t-211 -199t-74 -280.5q0 -150 77 -276t214.5 -200.5t304.5 -74.5h508v-92h-508q-140 0 -269 51.5t-222 137.5t-148.5 205t-55.5 249zM346 791q0 134 73.5 249t197.5 181.5t266 66.5 h508v-92h-508q-189 0 -314 -111.5t-125 -293.5q0 -173 124.5 -286.5t314.5 -113.5h508v-92h-508q-142 0 -266 68t-197.5 181.5t-73.5 242.5zM504 791q0 147 112 247.5t267 100.5h508v-92h-508q-114 0 -197.5 -72t-83.5 -184q0 -106 83.5 -178t197.5 -72h508v-92h-508 q-152 0 -265.5 102t-113.5 240zM662 791q0 86 62 142t159 56h508v-92h-463q-29 -3 -29 -29q0 -13 9 -20.5t22 -7.5h461v-92h-473q-48 0 -79.5 25t-31.5 67q0 26 12 47q-61 -21 -61 -94q0 -52 34 -77.5t91 -25.5h508v-92h-508q-97 0 -159 53.5t-62 139.5z" />
<glyph unicode="D" d="M31 0v1587h436q435 0 657 -194q133 -121 200 -274t67 -322q0 -278 -211 -533q-121 -146 -293.5 -205t-419.5 -59h-279v1438h279q170 0 313 -38t228 -116q225 -206 225 -487q0 -222 -174 -422q-192 -225 -551 -225h-162v1138h176q245 0 371 -108q182 -156 182 -383 q0 -141 -77.5 -256t-206 -178.5t-279.5 -63.5h-68v-57h64q315 0 481 192q146 178 146 363q0 121 -54 233t-147 191q-74 64 -191.5 94.5t-248.5 30.5h-207v-1254h180q213 0 372 50.5t271 185.5q101 123 141.5 234t40.5 235q0 154 -55.5 280.5t-187.5 249.5q-101 90 -258 129 t-326 39h-336v-1495h-98zM444 391h70q126 0 233 55.5t168.5 149t61.5 201.5t-47.5 197t-145 145.5t-227.5 56.5h-113v-805zM504 449v690h65q74 0 134.5 -21t99.5 -55t65.5 -79.5t38 -92t11.5 -94.5q0 -102 -56.5 -183t-147.5 -123t-198 -42h-12zM602 541q72 0 144.5 79 t72.5 177q0 66 -24 117.5t-59.5 78.5t-70 40.5t-63.5 13.5v-58q67 -6 112.5 -62t45.5 -130q0 -71 -46.5 -133t-111.5 -66v-57zM602 690q25 8 42.5 39t17.5 68q0 40 -17 66.5t-43 31.5v-205zM893 1587h192q68 -32 126.5 -78t94.5 -90t57 -79t28 -58v-219q-25 161 -167.5 312 t-330.5 212zM899 0q150 33 293 179.5t199 336.5v-219q-16 -34 -60 -92.5t-112.5 -121.5t-126.5 -83h-193zM1198 1587h158l35 -28v-152q-28 45 -83.5 101.5t-109.5 78.5zM1204 0q53 24 107.5 84t79.5 102v-147q-20 -24 -45 -39h-142z" />
<glyph unicode="E" d="M31 0h98v1587h-98v-1587zM188 0h1203v92h-1104v506h1104v92h-1203v-690zM188 748v92h1203v-92h-1203zM188 897v690h1203v-92h-1104v-506h1104v-92h-1203zM346 150v391h1045v-92h-947v-207h947v-92h-1045zM346 1047v391h1045v-92h-947v-207h947v-92h-1045zM504 299v92h887 v-92h-887zM504 1196v92h887v-92h-887z" />
<glyph unicode="F" d="M31 0h98v1587h-98v-1587zM188 0v1587h1203v-92h-1104v-1495h-99zM346 0v840h1045v-92h-947v-748h-98zM346 897v541h1045v-92h-947v-357h947v-92h-1045zM504 0v690h887v-92h-789v-598h-98zM504 1047v241h887v-92h-789v-57h789v-92h-887zM662 0v541h729v-92h-631v-449h-98z M819 0v391h572v-92h-473v-299h-99zM977 0v242h414v-92h-316v-150h-98zM1135 0v92h256v-92h-256z" />
<glyph unicode="G" d="M31 49v133q24 -50 76.5 -101t107.5 -81h-131q-32 22 -53 49zM31 281v180q60 -161 185 -277t298 -184h-178q-216 122 -305 281zM31 784q0 169 63.5 317.5t175 255t271 168.5t342.5 62q168 0 290 -40.5t218 -121.5v-120q-96 102 -219.5 146t-288.5 44q-158 0 -299.5 -59.5 t-240 -157.5t-156.5 -227.5t-58 -266.5q0 -144 53.5 -271t148 -220t231 -147t296.5 -54q176 0 314.5 64.5t218.5 191.5v-147q-179 -201 -533 -201q-178 0 -332.5 59.5t-262.5 163t-170 249t-62 312.5zM31 1110v193q90 160 305 284h192q-377 -142 -497 -477zM31 1405v123 q20 34 55 59h129q-55 -30 -107.5 -81t-76.5 -101zM186 784q0 125 55.5 244.5t148.5 209.5t223 145t270 55q164 0 273 -41t235 -160v-127q-124 135 -241 185.5t-267 50.5q-123 0 -235.5 -47.5t-191 -125t-125 -180t-46.5 -209.5q0 -110 40.5 -209t113.5 -173t181.5 -117 t237.5 -43q188 0 305.5 86.5t167.5 269.5h-839q20 -38 36 -57h709q-18 -51 -43.5 -90.5t-68 -76t-110.5 -56t-157 -19.5q-110 0 -206.5 40t-163 106.5t-104.5 155t-38 183.5q0 127 73 243.5t198 188.5t266 72q156 0 276 -56.5t232 -203.5v-131q-88 114 -156 175t-152.5 92.5 t-199.5 31.5q-162 0 -288 -104t-146 -252h65q21 118 127.5 208.5t241.5 90.5q143 0 244 -60t182 -182h-115q-61 77 -135 113.5t-176 36.5t-178.5 -62t-94.5 -145h64q14 65 69.5 107t139.5 42q87 0 155 -40.5t88 -108.5h265v-92h-947q3 -34 11 -58h936v-203 q-62 -161 -195 -249t-338 -88q-146 0 -272.5 51.5t-213.5 138t-136.5 202t-49.5 242.5zM637 449q98 -58 221 -58q169 0 223 58h-444zM778 840h238q-37 57 -133 57q-79 0 -105 -57zM1225 0q82 27 166 104v-104h-166zM1225 1587h166v-90q-65 57 -166 90z" />
<glyph unicode="H" d="M31 0v1587h98v-1587h-98zM188 0v1587h99v-598h690v58h-631v540h98v-448h533v57h-473v391h98v-299h375v58h-315v241h98v-149h217v57h-158v92h256v-690h-788v-897h-99zM346 0v840h729v-92h-631v-58h691v897h98v-1587h-98v598h-691v-57h631v-541h-98v449h-533v-58h474v-391 h-99v299h-375v-57h316v-242h-98v150h-218v-58h158v-92h-256zM1292 0v1587h99v-1587h-99z" />
<glyph unicode="I" d="M31 0v1587h98v-1587h-98zM188 0v92h474v1403h-474v92h1045v-92h-473v-1403h473v-92h-1045zM188 150v1288h99v-1288h-99zM346 150v92h158v1104h-158v92h256v-1288h-256zM346 299v989h98v-989h-98zM819 150v1288h256v-92h-157v-1104h157v-92h-256zM977 299v989h98v-989h-98 zM1135 150v1288h98v-1288h-98zM1292 0v1587h99v-1587h-99z" />
<glyph unicode="J" d="M31 92v160q82 -170 254 -252h-160q-20 14 -48.5 41.5t-45.5 50.5zM31 541v747h473v58h-473v92h473v57h-473v92h571v-1009q0 -77 -24.5 -117t-79.5 -58q21 -12 55 -12q54 0 82.5 40.5t28.5 109.5v1046h98v-1044q0 -109 -58.5 -176.5t-150.5 -67.5q-102 0 -154.5 65 t-52.5 177v448h158v58h-217v-506q0 -139 67.5 -219t198.5 -80q121 0 193.5 84t72.5 217v1044h99v-1046q0 -101 -48.5 -191t-133 -145t-183.5 -55q-165 0 -265 108t-100 283v598h316v57h-375v-655q0 -70 16.5 -135t51.5 -122t84.5 -100t119.5 -67.5t152 -24.5q98 0 180.5 40 t134.5 105t80.5 144t28.5 160v1046h98v-1046q0 -93 -36.5 -188t-101.5 -174t-166 -129t-218 -50q-124 0 -224.5 43t-164.5 117t-98.5 171.5t-34.5 209.5zM444 541q0 -41 5 -54q29 8 42 29t13 62v319h-60v-356zM791 0q146 54 245 208t99 333v1046h98v-1046q0 -164 -80 -310.5 t-195 -230.5h-167zM1059 0q105 92 169 231t64 310v1046h99v-1046q0 -158 -64.5 -309t-150.5 -232h-117zM1260 0q31 35 69.5 97t61.5 122v-194q-5 -15 -15 -25h-116z" />
<glyph unicode="K" d="M31 0v1587h98v-1587h-98zM188 0v1587h99v-727l868 727h143l-946 -794l946 -793h-143l-868 727v-727h-99zM346 0v598l717 -598h-143l-476 389v-389h-98zM346 989v598h98v-389l476 389h143zM451 793l940 792v-119l-809 -673l809 -672v-121zM504 0v274l325 -274h-143l-84 70 v-70h-98zM504 1313v274h98v-69l84 69h143zM678 793l713 598v-119l-582 -479l582 -478v-118zM903 793l488 401v-117l-357 -284l357 -283v-117zM1128 793l263 206v-106l-129 -100l129 -99v-106z" />
<glyph unicode="L" d="M31 0v1587h98v-1495h1262v-92h-1360zM188 150v1437h99v-1345h1104v-92h-1203zM346 299v1288h98v-1196h947v-92h-1045zM504 449v1138h98v-1046h789v-92h-887zM662 598v989h98v-897h631v-92h-729zM819 748v839h99v-747h473v-92h-572zM977 897v690h98v-598h316v-92h-414z M1135 1047v540h98v-448h158v-92h-256zM1292 1196v391h99v-391h-99z" />
<glyph unicode="M" d="M31 -6v1593h145l535 -862l532 862h148v-1593h-99v1474l-581 -931l-582 931v-1474h-98zM188 0v1251l523 -825l522 825v-1251h-98v918l-424 -687l-424 687v-918h-99zM233 1587h123l355 -571l350 571h123l-473 -753zM346 0v702l365 -579l364 579v-702h-98v371l-59 -90v-281 h-95v137l-90 -137h-47l-88 135v-135h-94v279l-60 92v-371h-98zM422 1587h119l170 -272l166 272h118l-284 -454zM608 1587h84l19 -26l16 26h86l-102 -162z" />
<glyph unicode="N" d="M31 0v1587h137l967 -1030v1030h98v-1268l-1104 1166v-1485h-98zM188 0v1116l1053 -1116h-127l-827 879v-879h-99zM188 1204v133l1104 -1163v1413h99v-1587h-70zM254 1587l821 -885v885h-98v-647l-594 647h-129zM346 0v735l690 -735h-125l-467 498v-498h-98zM461 1587 l457 -500v500h-99v-262l-233 262h-125zM504 0h98v115l100 -115h127l-325 352v-352zM666 1587h94v-112z" />
<glyph unicode="O" d="M31 129v123q71 -81 167.5 -150t196.5 -102h-184q-71 35 -180 129zM31 348v184q91 -202 274.5 -321t403.5 -119q226 0 406 114t276 320v-176q-133 -185 -299.5 -267.5t-382.5 -82.5q-207 0 -380.5 90t-297.5 258zM31 809q0 183 85 335.5t241 243.5t352 91 q139 0 265.5 -53.5t217.5 -143.5t145 -214t54 -259q0 -142 -57 -266.5t-151.5 -209.5t-218.5 -134t-255 -49q-130 0 -254 52t-217.5 140t-150 211t-56.5 256zM31 1081v193q169 234 413 313h525q273 -99 422 -309v-197q-89 202 -272 328.5t-410 126.5q-232 0 -410.5 -124 t-267.5 -331zM31 1370v121q19 23 52 51t62 45h162q-88 -43 -149 -93.5t-127 -123.5zM129 809q0 -150 82 -281.5t216 -208.5t282 -77q111 0 216.5 41.5t186.5 114.5t130.5 180.5t49.5 230.5q0 114 -43.5 219t-118.5 184t-185 126.5t-236 47.5q-127 0 -237 -47.5t-184 -126.5 t-116.5 -184t-42.5 -219zM188 809q0 104 39 199t107 166t166 113t209 42q148 0 269 -71.5t188 -190.5t67 -258q0 -108 -44.5 -204.5t-117 -162.5t-167.5 -104.5t-195 -38.5q-132 0 -252 68.5t-194.5 187t-74.5 254.5zM287 809q0 -109 61 -206t158.5 -154.5t202.5 -57.5 q107 0 203.5 50.5t159.5 148t63 219.5q0 111 -52.5 208.5t-151.5 158.5t-222 61q-120 0 -218 -61t-151 -158.5t-53 -208.5zM346 809q0 142 92 248l4 2q106 121 267 121q156 0 261 -107.5t105 -263.5q0 -81 -33.5 -151t-86.5 -115.5t-117.5 -71t-128.5 -25.5q-96 0 -181 55 t-133.5 138.5t-48.5 169.5zM444 809q0 -64 31 -121q29 56 29 121q0 78 -35 125q-25 -58 -25 -125zM522 1014q80 -95 80 -205q0 -118 -67 -199l8 -6q119 54 119 205q0 153 -127 215zM616 557l19 -6q80 22 132 87t52 171q0 99 -50.5 171t-137.5 97l-13 -4q142 -89 142 -264 q0 -96 -37.5 -154.5t-106.5 -97.5zM786 549q84 22 137.5 87.5t53.5 172.5q0 97 -48 167.5t-130 96.5q119 -92 119 -264q0 -164 -132 -260zM1034 0q91 24 197 103.5t160 158.5v-123q-36 -39 -89.5 -80t-95.5 -59h-172zM1120 1587h158q56 -37 113 -94v-119 q-42 53 -117.5 114.5t-153.5 98.5z" />
<glyph unicode="P" d="M31 0v1587h98v-1587h-98zM188 0v1587h562q98 0 184.5 -27t153.5 -78.5t106 -133t39 -183.5q0 -182 -137.5 -297t-335.5 -120v-748h-98v840h53q195 0 307.5 83.5t112.5 241.5q0 91 -33 156.5t-92.5 102.5t-132.5 54t-162 17h-428v-1495h-99zM346 0v1438h369 q158 0 259 -73.5t101 -199.5q0 -72 -28 -125t-78.5 -83.5t-113.5 -45t-140 -14.5h-113v-897h-98v989h229q10 7 10 25t-14.5 25.5t-54.5 7.5h-230v-1047h-98zM444 1139h242q88 0 124 -25.5t38 -75.5q12 24 12 54q0 46 -35.5 75t-109.5 29h-271v-57zM444 1288h271 q118 0 179.5 -48t61.5 -124q0 -31 -12 -55q33 39 33 104q0 50 -22 86.5t-60.5 56.5t-83 29t-96.5 9h-271v-58zM819 0h99v614q205 44 339 199.5t134 351.5q0 129 -60.5 245.5t-150.5 176.5h-170q125 -46 203.5 -158.5t78.5 -263.5q0 -191 -136 -323t-337 -150v-692zM977 0h98 v504q183 81 316 254v174q-58 -137 -166 -228.5t-248 -134.5v-569zM1135 0h98v416q92 63 158 137v135q-106 -141 -256 -219v-469zM1262 1587q36 -20 76 -76t53 -96v172h-129zM1292 0h99v479q-18 -28 -99 -88v-391z" />
<glyph unicode="Q" d="M31 109v122q77 -81 152 -137t171 -94h-178q-24 14 -44.5 28t-31 22.5t-33.5 28t-36 30.5zM31 328v184q91 -202 274.5 -321t403.5 -119q178 0 327 73l66 -69q-178 -96 -393 -96q-207 0 -380.5 90t-297.5 258zM31 788q0 183 85 335.5t241 243.5t352 91q139 0 265.5 -53.5 t217.5 -143.5t145 -214t54 -259q0 -216 -129 -387l-64 76q94 140 94 311q0 153 -73 284.5t-208 212.5t-302 81q-127 0 -237 -47.5t-184 -127t-116.5 -184.5t-42.5 -219q0 -150 82 -281.5t216 -208.5t282 -77q118 0 223 45l65 -73q-144 -64 -288 -64q-130 0 -254 52 t-217.5 140t-150 211t-56.5 256zM31 1061v192q260 355 678 355q205 0 385 -95.5t297 -255.5v-196q-89 202 -272 328.5t-410 126.5q-232 0 -410.5 -124t-267.5 -331zM31 1348v120q70 70 147 119h176q-95 -38 -169 -96t-154 -143zM188 788q0 139 66 258t186.5 191t268.5 72 t269 -72t188 -191t67 -258q0 -141 -76 -264l-67 76q45 83 45 188q0 111 -52.5 208.5t-151.5 159t-222 61.5q-120 0 -218 -61.5t-151 -159t-53 -208.5q0 -109 61 -206t158.5 -154t202.5 -57q52 0 114 16l68 -76q-68 -32 -182 -32q-98 0 -193 40.5t-167.5 108.5t-116.5 163 t-44 197zM346 788q0 147 104 259t259 112q156 0 261 -107.5t105 -263.5q0 -74 -28 -141l-76 86q6 18 6 55q0 85 -43 160q4 -46 4 -59q0 -65 -16 -103l-74 82q8 31 8 64q0 53 -25 108l-22 9q4 -32 4 -50q0 -72 -35 -122l613 -691v-137l-738 823q62 68 62 162q0 27 -2 33h-4 q-15 0 -43 -4v-23q0 -93 -65 -148.5t-155 -60.5q-2 -14 -2 -43v-6h15q70 0 155 52l746 -834h-129l-635 711q-68 -21 -117 -21h-14l8 -18q55 -25 102 -25q3 0 9.5 1t9.5 1l68 -78q-32 -4 -46 -4q-31 0 -61 6q68 -52 147 -55h5l75 -84q-31 -8 -73 -8q-96 0 -181 54.5 t-133.5 138t-48.5 169.5zM473 922q48 7 76 39.5t33 74.5q-77 -42 -109 -114zM1067 1587h176q79 -50 148 -119v-120q-80 85 -154.5 143t-169.5 96zM1298 362q45 54 93 156v-176q-25 -35 -35 -45z" />
<glyph unicode="R" d="M31 0v1587h725q91 0 176 -27t152.5 -77.5t108 -130.5t40.5 -178q0 -187 -138.5 -306.5t-338.5 -119.5h-244l442 -748h-116l-496 840h373q192 0 305 87.5t113 246.5q0 321 -422 321h-582v-1495h-98zM188 0v1438h527q155 0 250.5 -71.5t95.5 -192.5q0 -133 -96.5 -205 t-249.5 -72h-369v391h369q118 0 179.5 -48t61.5 -124q0 -10 -2 -12q15 27 15 70q0 88 -72 130t-182 42h-428v-1346h-99zM346 0v731l414 -731h-113l-203 365v-365h-98zM444 989h289q10 7 10 25t-14.5 25.5t-54.5 7.5h-230v-58zM444 1139h242q88 0 124 -25.5t38 -75.5 q12 24 12 54q0 46 -35.5 75t-109.5 29h-271v-57zM504 0v152l82 -152h-82zM616 690h144q145 0 266 59t193.5 168.5t72.5 247.5q0 151 -78.5 263.5t-203.5 158.5h170q90 -60 150.5 -176.5t60.5 -245.5q0 -112 -48 -216t-128.5 -181t-193.5 -123.5t-237 -46.5l359 -598h-119z M891 549q166 25 301.5 126.5t198.5 256.5v-174q-157 -201 -353 -269l291 -489h-115zM1128 469q84 44 146.5 94t116.5 125v-135q-47 -54 -134 -115l134 -225v-190zM1272 1587h119v-143q-44 82 -119 143zM1333 422q39 28 58 47v-141z" />
<glyph unicode="S" d="M31 0h125q-78 70 -125 184v-184zM31 461v770q0 91 47.5 186.5t124.5 169.5h106q-81 -61 -130.5 -157t-49.5 -199q0 -316 277 -467l290 -158q128 -68 181 -122t53 -140q0 -31 -19 -82q66 52 66 144q0 56 -57 114t-144 105l-332 178q-256 137 -256 428q0 95 55 193t146 163 h133q-235 -117 -235 -356q0 -127 54 -208.5t175 -145.5l328 -179q231 -132 231 -288q0 -87 -49.5 -152t-122 -96t-153.5 -31q-179 0 -291.5 90.5t-112.5 239.5v223l-12 6l-47 29v-258q0 -84 27 -151.5t72 -111t106 -73t125 -41.5t133 -12q72 0 139.5 22t123 63t89 106.5 t33.5 146.5q0 109 -60 182.5t-180 140.5l-340 189q-102 59 -155.5 131t-53.5 178q0 108 62 191t160 124t212 41q112 0 215.5 -47t170.5 -135t67 -193v-403q43 -43 59 -74v484q0 80 -26 145.5t-70.5 108t-88.5 69.5t-95 45h143q36 -10 76 -42t76 -78.5t60 -111.5t24 -132 v-813q0 -114 -53 -227t-136 -183h-141q108 60 169.5 170t61.5 240q0 146 -61 247t-189 170l-340 185q-44 23 -62 33.5t-51 33.5t-47 41.5t-26 48.5t-12 64q0 90 83 147.5t189 57.5q120 0 209.5 -77t89.5 -185v-265l41 -20q2 -2 19 -10v307q0 97 -54 168.5t-134.5 105 t-172.5 33.5q-130 0 -230 -74t-100 -190q0 -30 5.5 -56.5t13.5 -46t23 -38.5t27 -30.5t34 -26t34 -21t37.5 -20t36.5 -19.5l336 -185q130 -72 186 -164t56 -214q0 -101 -42.5 -185t-112.5 -136t-156 -80.5t-177 -28.5q-253 0 -405 124.5t-152 356.5v348q-44 52 -59 92v-440 q0 -167 86.5 -297.5t208.5 -163.5h-172q-93 64 -157 192.5t-64 268.5zM31 1444v143h98q-72 -66 -98 -143zM444 461q0 -62 28 -114t79 -83q-47 74 -47 185v151l-60 31v-170zM602 449q0 -174 103 -228q-43 67 -43 148v145l-60 33v-98zM602 1233q0 -37 25 -68q7 49 45 76t98 27 q71 0 109.5 -39.5t38.5 -102.5v-129l59 -32v192q0 87 -54 138t-147 51q-75 0 -124.5 -30.5t-49.5 -82.5zM700 1112l74 -37l45 -24v63q0 26 -14.5 44t-44.5 18q-32 0 -46 -19.5t-14 -44.5zM760 369q0 -74 45 -144h2q27 41 27 109q0 71 -74 123v-88zM1272 1587h119v-143 q-27 56 -53 85.5t-66 57.5zM1286 0h105v156q-32 -76 -105 -156z" />
<glyph unicode="T" d="M31 0v1288h98v-1288h-98zM31 1346v92h571v-1438h-98v1346h-473zM31 1495v92h1360v-92h-631v-1495h-98v1495h-631zM188 0v1139h99v-1139h-99zM188 1196v92h256v-1288h-98v1196h-158zM819 0v1438h572v-92h-473v-1346h-99zM977 0v1288h256v-92h-158v-1196h-98zM1135 0v1139 h98v-1139h-98zM1292 0v1288h99v-1288h-99z" />
<glyph unicode="U" d="M31 78q28 -49 57 -78h100q-95 100 -157 260v-182zM31 596v1012h98v-1016q0 -135 37 -256.5t106.5 -210t159.5 -125.5h-164q-111 94 -174 248t-63 348zM188 596v1012h99v-1016q0 -110 25 -199.5t75.5 -157.5t134 -105.5t193.5 -37.5q211 0 315.5 130.5t104.5 369.5v1016 h98v-1012q0 -170 -58.5 -303.5t-177.5 -213t-282 -79.5q-252 0 -389.5 154.5t-137.5 441.5zM346 590v1018h98v-1026q0 -74 12 -131.5t41 -106.5t84 -75.5t134 -26.5q131 0 196.5 92.5t65.5 247.5v1026h98v-1022q0 -195 -90.5 -315.5t-269.5 -120.5q-181 0 -275 116t-94 324z M504 569v1039h98v-1047q0 -76 25 -121q35 27 35 123v1045h98v-1041q0 -125 -51 -176h6q104 0 104 172v1045h99v-1041q0 -55 -10 -101t-32.5 -84.5t-63.5 -60.5t-97 -22q-106 0 -158.5 71t-52.5 199zM985 0q144 75 225.5 228.5t81.5 363.5v1016h99v-1012q0 -180 -66 -342.5 t-176 -253.5h-164zM1233 0h100q31 31 58 78v182q-62 -158 -158 -260z" />
<glyph unicode="V" d="M29 1587h100l502 -1378h4l502 1378h98l-588 -1587h-37zM31 0v150l55 -150h-55zM31 317v258l213 -575h-90zM31 741v260l370 -1001h-90zM31 1167v260l528 -1427h-90zM188 1587h101l348 -948h4l27 80l-322 868h100l271 -731l28 82l-239 649h100l189 -512l30 82l-159 430h100 l106 -293l27 78l-78 215h101l24 -82l31 82h100l-442 -1210zM707 0l587 1587h99l-596 -1587h-90zM864 0l527 1423v-260l-437 -1163h-90zM1022 0l369 999v-251l-279 -748h-90zM1180 0l211 571v-256l-121 -315h-90zM1335 0l56 150v-150h-56z" />
<glyph unicode="W" d="M31 166v283l153 -449h-96zM31 633v282l233 -671l443 1134l-31 76l-410 -1075l-235 704v283l245 -723l355 944h98l528 -1370l134 416v-295l-111 -338h-37l-489 1264l-490 -1264h-22zM31 1544v43h84l176 -520l198 520h91l-299 -784zM162 1587h98l41 -119l45 117h90 l-145 -381zM324 0h100l328 864l327 -864h101l-428 1112zM483 0h101l168 455l172 -455h100l-272 702zM633 0h100l19 59l22 -59h100l-122 307zM791 1587l460 -1198l142 432l-2 283l-144 -451l-350 934h-106zM948 1587l299 -778l139 432v283l-143 -451l-192 514h-103z M1106 1587l137 -356l117 356h-92l-29 -92l-35 92h-98zM1329 0l62 176v-176h-62z" />
<glyph unicode="X" d="M31 102v201l280 518l-280 520v203l385 -723zM31 408v194l116 219l-116 217v197l221 -414zM31 723l57 98l-57 97v-195zM37 0l442 821l-411 766h108l408 -766l-441 -821h-106zM213 0l438 821l-409 766h108l96 -186l101 186h108l-153 -289l33 -61l186 350h108l-239 -452 l33 -60l272 512h109l-326 -616l31 -58l360 674h109l-410 -766l440 -821h-106l-45 82l-43 -82h-109l96 186l-32 62l-131 -248h-109l184 350l-32 62l-217 -412h-109l270 514l-32 59l-304 -573h-108l356 676l-28 55l-390 -731h-106zM834 821l409 766h109l-412 -766l442 -821 h-106zM1004 821l387 725v-200l-281 -525l281 -518v-199zM1171 821l220 416v-209l-113 -207l113 -211v-196zM1333 821l58 -98v195z" />
<glyph unicode="Y" d="M31 0v768l98 -207v-561h-98zM31 891v190l256 -493v-588h-99v569zM31 1192v184l413 -755v-621h-98v602zM31 1487v100h51l520 -936v-651h-98v633zM147 1587h109l455 -825l30 57l-419 768h108l365 -672l32 60l-331 612h108l277 -514l32 55l-243 459h108l189 -360l30 57 l-153 303h108l101 -205l112 205h109l-514 -928v-659h-98v659zM819 0v651l518 936h54v-94l-473 -860v-633h-99zM977 0v621l414 755v-184l-316 -590v-602h-98zM1135 0v588l256 493v-190l-158 -322v-569h-98zM1292 0v561l99 207v-768h-99z" />
<glyph unicode="Z" d="M29 0l731 1346h-729v92h901l-739 -1346h1198v-92h-1362zM31 150v208l454 838h-454v92h626zM31 496v204l186 347h-186v92h352zM31 829v160h86zM31 1495v92h1175l-743 -1345h72l735 1345h116l-741 -1345h746v-92h-1098l743 1345h-1005zM748 299l643 1171v-210l-471 -869 h471v-92h-643zM1022 449l369 667v-209l-197 -366h197v-92h-369zM1305 598l86 160v-160h-86z" />
<glyph unicode="[" d="M31 0v1587h98v-1587h-98zM188 0v1587h99v-1587h-99zM346 0v1587h98v-1587h-98zM504 0v1587h887v-92h-789v-1403h789v-92h-887zM662 150v1288h729v-92h-631v-1104h631v-92h-729zM819 299v989h572v-92h-473v-805h473v-92h-572zM977 449v690h414v-92h-316v-506h316v-92h-414 zM1135 598v391h256v-92h-158v-207h158v-92h-256zM1292 748v92h99v-92h-99z" />
<glyph unicode="\" d="M31 0v45l854 1542h108l-880 -1587h-82zM31 162v188l682 1237h106zM31 471v188l516 928h104zM31 780v187l346 620h104zM31 1092v188l172 307h102zM31 1397v190h106zM176 0l881 1587h104l-878 -1587h-107zM348 0l881 1587h104l-880 -1587h-105zM518 0l873 1571v-189 l-768 -1382h-105zM690 0l701 1262v-189l-596 -1073h-105zM862 0l529 954v-188l-424 -766h-105zM1034 0l357 645v-190l-252 -455h-105zM1206 0l185 332v-189l-80 -143h-105z" />
<glyph unicode="]" d="M31 0v92h788v1403h-788v92h887v-1587h-887zM31 150v92h631v1104h-631v92h729v-1288h-729zM31 299v92h473v805h-473v92h571v-989h-571zM31 449v92h315v506h-315v92h413v-690h-413zM31 598v92h157v207h-157v92h256v-391h-256zM31 748v92h98v-92h-98zM977 0v1587h98v-1587 h-98zM1135 0v1587h98v-1587h-98zM1292 0v1587h99v-1587h-99z" />
<glyph unicode="^" d="M31 0v117l680 1470l680 -1470v-117h-39l-641 1378l-641 -1378h-39zM31 256v205l522 1126h98zM31 590v205l368 792h99zM31 922v204l215 461h98zM31 1249v213l61 125h98zM139 0l572 1237l571 -1237h-94l-477 1024l-478 -1024h-94zM309 0l402 887l401 -887h-94l-307 651 l-308 -651h-94zM483 0l228 510l227 -510h-98l-129 291l-129 -291h-99zM647 0l64 141l63 -141h-127zM770 1587h98l523 -1126v-205zM924 1587h98l369 -792v-205zM1077 1587h99l215 -461v-204zM1231 1587h98l62 -125v-213z" />
<glyph unicode="_" d="M31 0v242h1360v-242h-1360zM31 299v92h1360v-92h-1360zM31 449v92h1360v-92h-1360zM31 598v92h1360v-92h-1360zM31 748v92h1360v-92h-1360zM31 897v92h1360v-92h-1360zM31 1047v92h1360v-92h-1360zM31 1196v92h1360v-92h-1360zM31 1346v92h1360v-92h-1360zM31 1495v92 h1360v-92h-1360zM129 92h1163v58h-1163v-58z" />
<glyph unicode="a" d="M31 137v248l487 1202h172l641 -1587h-100l-25 59h-559l-22 -59h-101l60 152h585l-24 57h-598l-84 -209h-101l121 301h625l-23 57h-639l-143 -358h-100l180 451h666l-25 57h-678l-207 -508h-100l244 598h704l-22 59h-660l332 811l-35 88zM31 528l422 1059h-99l-323 -794 v-265zM31 938l258 649h-99l-159 -395v-254zM31 1339l98 248h-98v-248zM444 750h70l205 516l-33 82zM614 750h70l121 305l-37 90zM752 1587l639 -1581v252l-539 1329h-100zM784 750h144l-74 182zM913 1587l478 -1181v247l-377 934h-101zM1075 1587l316 -782v250l-215 532 h-101zM1237 1587l154 -383v250l-54 133h-100z" />
<glyph unicode="b" d="M31 0v1587h98v-1587h-98zM188 0v1587h99v-747h463q182 0 277 90t95 248q0 159 -109.5 238t-293.5 79h-275v-57h275q149 0 241.5 -68.5t92.5 -189.5q0 -136 -83.5 -209.5t-250.5 -73.5h-373v690h414q208 0 334.5 -104t126.5 -305q0 -122 -61.5 -224.5t-180.5 -160.5 q117 -58 179.5 -148.5t62.5 -234.5q0 -184 -130 -297t-331 -113h-414v690h373q164 0 249 -73.5t85 -208.5q0 -121 -92.5 -189.5t-241.5 -68.5h-275v-58h275q184 0 293.5 79.5t109.5 238.5q0 87 -40 164.5t-105 115.5q-36 21 -68.5 33.5t-75 17.5t-70.5 6t-91 1h-385v-748 h-99zM444 242h275q105 0 172 47.5t67 140.5q0 57 -24.5 98.5t-63.5 59.5q16 -16 30.5 -50t14.5 -71q0 -79 -64 -123.5t-161 -44.5h-246v-57zM444 391h246q57 0 94 23t37 73q0 55 -41 84q6 -15 6 -36q0 -86 -176 -86h-166v-58zM444 541h166q24 0 36.5 0.5t24.5 3t16.5 8 t4.5 14.5q0 22 -20 31h-228v-57zM444 989h228q20 9 20 31q0 17 -18 22t-64 5h-166v-58zM444 1139h166q176 0 176 -86q0 -22 -6 -37q41 29 41 84q0 50 -37 73t-94 23h-246v-57zM444 1288h246q97 0 161 -44.5t64 -123.5q0 -37 -14.5 -71t-30.5 -50q39 18 63.5 59.5t24.5 98.5 q0 94 -67 141.5t-172 47.5h-275v-58zM1047 0q109 53 177 160t68 248q0 144 -42.5 223t-143.5 162q186 149 186 385q0 141 -68 248.5t-177 160.5h145q81 -55 140 -161t59 -248q0 -220 -160 -385q89 -78 124.5 -165t35.5 -220q0 -143 -59 -247t-140 -161h-145zM1286 0 q29 26 61.5 70t43.5 80v-150h-105zM1286 1587h105v-149q-11 35 -43 79t-62 70zM1315 793q50 53 76 118v-237q-33 74 -76 119z" />
<glyph unicode="c" d="M31 61v117q17 -32 89 -97.5t107 -80.5h-125q-9 5 -38 29.5t-33 31.5zM31 281v188q58 -162 188 -281.5t309 -187.5h-182q-94 43 -180 119.5t-135 161.5zM31 1112v188q56 98 124 165t171 122h182q-357 -135 -477 -475zM31 1403v119q9 13 34 35.5t41 29.5h123 q-46 -17 -108.5 -74.5t-89.5 -109.5zM33 793q0 194 82.5 360.5t224 274.5t317.5 143q72 16 226 16h508v-92h-508q-221 0 -392.5 -88t-266.5 -247.5t-95 -366.5q0 -147 58 -277.5t158 -223t240 -146.5t298 -54h508v-92h-508q-175 0 -331 58.5t-270.5 161t-181.5 251.5 t-67 322zM188 793q0 176 92.5 324.5t252.5 234.5t350 86h508v-92h-508q-174 0 -311 -73.5t-211 -199t-74 -280.5q0 -150 77 -276t214.5 -200.5t304.5 -74.5h508v-92h-508q-140 0 -269 51.5t-222 137.5t-148.5 205t-55.5 249zM346 791q0 134 73.5 249t197.5 181.5t266 66.5 h508v-92h-508q-189 0 -314 -111.5t-125 -293.5q0 -173 124.5 -286.5t314.5 -113.5h508v-92h-508q-142 0 -266 68t-197.5 181.5t-73.5 242.5zM504 791q0 147 112 247.5t267 100.5h508v-92h-508q-114 0 -197.5 -72t-83.5 -184q0 -106 83.5 -178t197.5 -72h508v-92h-508 q-152 0 -265.5 102t-113.5 240zM662 791q0 86 62 142t159 56h508v-92h-463q-29 -3 -29 -29q0 -13 9 -20.5t22 -7.5h461v-92h-473q-48 0 -79.5 25t-31.5 67q0 26 12 47q-61 -21 -61 -94q0 -52 34 -77.5t91 -25.5h508v-92h-508q-97 0 -159 53.5t-62 139.5z" />
<glyph unicode="d" d="M31 0v1587h436q435 0 657 -194q133 -121 200 -274t67 -322q0 -278 -211 -533q-121 -146 -293.5 -205t-419.5 -59h-279v1438h279q170 0 313 -38t228 -116q225 -206 225 -487q0 -222 -174 -422q-192 -225 -551 -225h-162v1138h176q245 0 371 -108q182 -156 182 -383 q0 -141 -77.5 -256t-206 -178.5t-279.5 -63.5h-68v-57h64q315 0 481 192q146 178 146 363q0 121 -54 233t-147 191q-74 64 -191.5 94.5t-248.5 30.5h-207v-1254h180q213 0 372 50.5t271 185.5q101 123 141.5 234t40.5 235q0 154 -55.5 280.5t-187.5 249.5q-101 90 -258 129 t-326 39h-336v-1495h-98zM444 391h70q126 0 233 55.5t168.5 149t61.5 201.5t-47.5 197t-145 145.5t-227.5 56.5h-113v-805zM504 449v690h65q74 0 134.5 -21t99.5 -55t65.5 -79.5t38 -92t11.5 -94.5q0 -102 -56.5 -183t-147.5 -123t-198 -42h-12zM602 541q72 0 144.5 79 t72.5 177q0 66 -24 117.5t-59.5 78.5t-70 40.5t-63.5 13.5v-58q67 -6 112.5 -62t45.5 -130q0 -71 -46.5 -133t-111.5 -66v-57zM602 690q25 8 42.5 39t17.5 68q0 40 -17 66.5t-43 31.5v-205zM893 1587h192q68 -32 126.5 -78t94.5 -90t57 -79t28 -58v-219q-25 161 -167.5 312 t-330.5 212zM899 0q150 33 293 179.5t199 336.5v-219q-16 -34 -60 -92.5t-112.5 -121.5t-126.5 -83h-193zM1198 1587h158l35 -28v-152q-28 45 -83.5 101.5t-109.5 78.5zM1204 0q53 24 107.5 84t79.5 102v-147q-20 -24 -45 -39h-142z" />
<glyph unicode="e" d="M31 0h98v1587h-98v-1587zM188 0h1203v92h-1104v506h1104v92h-1203v-690zM188 748v92h1203v-92h-1203zM188 897v690h1203v-92h-1104v-506h1104v-92h-1203zM346 150v391h1045v-92h-947v-207h947v-92h-1045zM346 1047v391h1045v-92h-947v-207h947v-92h-1045zM504 299v92h887 v-92h-887zM504 1196v92h887v-92h-887z" />
<glyph unicode="f" d="M31 0h98v1587h-98v-1587zM188 0v1587h1203v-92h-1104v-1495h-99zM346 0v840h1045v-92h-947v-748h-98zM346 897v541h1045v-92h-947v-357h947v-92h-1045zM504 0v690h887v-92h-789v-598h-98zM504 1047v241h887v-92h-789v-57h789v-92h-887zM662 0v541h729v-92h-631v-449h-98z M819 0v391h572v-92h-473v-299h-99zM977 0v242h414v-92h-316v-150h-98zM1135 0v92h256v-92h-256z" />
<glyph unicode="g" d="M31 49v133q24 -50 76.5 -101t107.5 -81h-131q-32 22 -53 49zM31 281v180q60 -161 185 -277t298 -184h-178q-216 122 -305 281zM31 784q0 169 63.5 317.5t175 255t271 168.5t342.5 62q168 0 290 -40.5t218 -121.5v-120q-96 102 -219.5 146t-288.5 44q-158 0 -299.5 -59.5 t-240 -157.5t-156.5 -227.5t-58 -266.5q0 -144 53.5 -271t148 -220t231 -147t296.5 -54q176 0 314.5 64.5t218.5 191.5v-147q-179 -201 -533 -201q-178 0 -332.5 59.5t-262.5 163t-170 249t-62 312.5zM31 1110v193q90 160 305 284h192q-377 -142 -497 -477zM31 1405v123 q20 34 55 59h129q-55 -30 -107.5 -81t-76.5 -101zM186 784q0 125 55.5 244.5t148.5 209.5t223 145t270 55q164 0 273 -41t235 -160v-127q-124 135 -241 185.5t-267 50.5q-123 0 -235.5 -47.5t-191 -125t-125 -180t-46.5 -209.5q0 -110 40.5 -209t113.5 -173t181.5 -117 t237.5 -43q188 0 305.5 86.5t167.5 269.5h-839q20 -38 36 -57h709q-18 -51 -43.5 -90.5t-68 -76t-110.5 -56t-157 -19.5q-110 0 -206.5 40t-163 106.5t-104.5 155t-38 183.5q0 127 73 243.5t198 188.5t266 72q156 0 276 -56.5t232 -203.5v-131q-88 114 -156 175t-152.5 92.5 t-199.5 31.5q-162 0 -288 -104t-146 -252h65q21 118 127.5 208.5t241.5 90.5q143 0 244 -60t182 -182h-115q-61 77 -135 113.5t-176 36.5t-178.5 -62t-94.5 -145h64q14 65 69.5 107t139.5 42q87 0 155 -40.5t88 -108.5h265v-92h-947q3 -34 11 -58h936v-203 q-62 -161 -195 -249t-338 -88q-146 0 -272.5 51.5t-213.5 138t-136.5 202t-49.5 242.5zM637 449q98 -58 221 -58q169 0 223 58h-444zM778 840h238q-37 57 -133 57q-79 0 -105 -57zM1225 0q82 27 166 104v-104h-166zM1225 1587h166v-90q-65 57 -166 90z" />
<glyph unicode="h" d="M31 0v1587h98v-1587h-98zM188 0v1587h99v-598h690v58h-631v540h98v-448h533v57h-473v391h98v-299h375v58h-315v241h98v-149h217v57h-158v92h256v-690h-788v-897h-99zM346 0v840h789v747h98v-1587h-98v598h-691v-57h631v-541h-98v449h-533v-58h474v-391h-99v299h-375v-57 h316v-242h-98v150h-218v-58h158v-92h-256zM444 690h691v58h-691v-58zM1292 0v1587h99v-1587h-99z" />
<glyph unicode="i" d="M31 0v1587h98v-1587h-98zM188 0v92h474v1403h-474v92h1045v-92h-473v-1403h473v-92h-1045zM188 150v1288h99v-1288h-99zM346 150v92h158v1104h-158v92h256v-1288h-256zM346 299v989h98v-989h-98zM819 150v1288h256v-92h-157v-1104h157v-92h-256zM977 299v989h98v-989h-98 zM1135 150v1288h98v-1288h-98zM1292 0v1587h99v-1587h-99z" />
<glyph unicode="j" d="M31 92v160q82 -170 254 -252h-160q-20 14 -48.5 41.5t-45.5 50.5zM31 541v747h473v58h-473v92h473v57h-473v92h571v-1009q0 -77 -24.5 -117t-79.5 -58q21 -12 55 -12q54 0 82.5 40.5t28.5 109.5v1046h98v-1044q0 -109 -58.5 -176.5t-150.5 -67.5q-102 0 -154.5 65 t-52.5 177v448h158v58h-217v-506q0 -139 67.5 -219t198.5 -80q121 0 193.5 84t72.5 217v1044h99v-1046q0 -101 -48.5 -191t-133 -145t-183.5 -55q-165 0 -265 108t-100 283v598h316v57h-375v-655q0 -70 16.5 -135t51.5 -122t84.5 -100t119.5 -67.5t152 -24.5q98 0 180.5 40 t134.5 105t80.5 144t28.5 160v1046h98v-1046q0 -93 -36.5 -188t-101.5 -174t-166 -129t-218 -50q-124 0 -224.5 43t-164.5 117t-98.5 171.5t-34.5 209.5zM444 541q0 -41 5 -54q29 8 42 29t13 62v319h-60v-356zM791 0q146 54 245 208t99 333v1046h98v-1046q0 -164 -80 -310.5 t-195 -230.5h-167zM1059 0q105 92 169 231t64 310v1046h99v-1046q0 -158 -64.5 -309t-150.5 -232h-117zM1260 0q31 35 69.5 97t61.5 122v-194q-5 -15 -15 -25h-116z" />
<glyph unicode="k" d="M31 0v1587h98v-1587h-98zM188 0v1587h99v-727l868 727h143l-946 -794l946 -793h-143l-868 727v-727h-99zM346 0v598l717 -598h-143l-476 389v-389h-98zM346 989v598h98v-389l476 389h143zM451 793l940 792v-119l-809 -673l809 -672v-121zM504 0v274l325 -274h-143l-84 70 v-70h-98zM504 1313v274h98v-69l84 69h143zM678 793l713 598v-119l-582 -479l582 -478v-118zM903 793l488 401v-117l-357 -284l357 -283v-117zM1128 793l263 206v-106l-129 -100l129 -99v-106z" />
<glyph unicode="l" d="M31 0v1587h98v-1495h1262v-92h-1360zM188 150v1437h99v-1345h1104v-92h-1203zM346 299v1288h98v-1196h947v-92h-1045zM504 449v1138h98v-1046h789v-92h-887zM662 598v989h98v-897h631v-92h-729zM819 748v839h99v-747h473v-92h-572zM977 897v690h98v-598h316v-92h-414z M1135 1047v540h98v-448h158v-92h-256zM1292 1196v391h99v-391h-99z" />
<glyph unicode="m" d="M31 -6v1593h145l535 -862l532 862h148v-1593h-99v1474l-581 -931l-582 931v-1474h-98zM188 0v1251l523 -825l522 825v-1251h-98v918l-424 -687l-424 687v-918h-99zM233 1587h123l355 -571l350 571h123l-473 -753zM346 0v702l365 -579l364 579v-702h-98v371l-59 -90v-281 h-95v137l-90 -137h-47l-88 135v-135h-94v279l-60 92v-371h-98zM422 1587h119l170 -272l166 272h118l-284 -454zM608 1587h84l19 -26l16 26h86l-102 -162z" />
<glyph unicode="n" d="M31 0v1587h137l967 -1030v1030h98v-1268l-1104 1166v-1485h-98zM188 0v1116l1053 -1116h-127l-827 879v-879h-99zM188 1204v133l1104 -1163v1413h99v-1587h-70zM254 1587l821 -885v885h-98v-647l-594 647h-129zM346 0v735l690 -735h-125l-467 498v-498h-98zM461 1587 l457 -500v500h-99v-262l-233 262h-125zM504 0h98v115l100 -115h127l-325 352v-352zM666 1587h94v-112z" />
<glyph unicode="o" d="M31 129v123q70 -79 169.5 -148.5t200.5 -103.5h-178q-90 41 -192 129zM31 348v184q91 -202 274.5 -321t403.5 -119q226 0 406 114t276 320v-176q-133 -185 -299.5 -267.5t-382.5 -82.5q-207 0 -380.5 90t-297.5 258zM31 809q0 183 85 335.5t241 243.5t352 91 q139 0 265.5 -53.5t217.5 -143.5t145 -214t54 -259q0 -142 -57 -266.5t-151.5 -209.5t-218.5 -134t-255 -49q-130 0 -254 52t-217.5 140t-150 211t-56.5 256zM31 1081v193q169 234 413 313h525q273 -99 422 -309v-197q-89 202 -272 328.5t-410 126.5q-232 0 -410.5 -124 t-267.5 -331zM31 1368v121q59 59 114 98h162q-78 -37 -140 -89t-136 -130zM129 809q0 -150 82 -281.5t216 -208.5t282 -77q111 0 216.5 41.5t186.5 114.5t130.5 180.5t49.5 230.5q0 114 -43.5 219t-118.5 184t-185 126.5t-236 47.5q-127 0 -237 -47.5t-184 -126.5 t-116.5 -184t-42.5 -219zM188 809q0 104 39 199t107 166t166 113t209 42q148 0 269 -71.5t188 -190.5t67 -258q0 -108 -44.5 -204.5t-117 -162.5t-167.5 -104.5t-195 -38.5q-132 0 -252 68.5t-194.5 187t-74.5 254.5zM287 809q0 -109 61 -206t158.5 -154.5t202.5 -57.5 q107 0 203.5 50.5t159.5 148t63 219.5q0 111 -52.5 208.5t-151.5 158.5t-222 61q-120 0 -218 -61t-151 -158.5t-53 -208.5zM346 809q0 142 92 248l4 2q106 121 267 121q156 0 261 -107.5t105 -263.5q0 -81 -33.5 -151t-86.5 -115.5t-117.5 -71t-128.5 -25.5q-96 0 -181 55 t-133.5 138.5t-48.5 169.5zM444 809q0 -64 31 -121q29 56 29 121q0 78 -35 125q-25 -58 -25 -125zM522 1014q80 -95 80 -205q0 -118 -67 -199l8 -6q119 54 119 205q0 153 -127 215zM616 557l19 -6q80 22 132 87t52 171q0 99 -50.5 171t-137.5 97l-13 -4q142 -89 142 -264 q0 -96 -37.5 -154.5t-106.5 -97.5zM786 549q84 22 137.5 87.5t53.5 172.5q0 97 -48 167.5t-130 96.5q119 -92 119 -264q0 -164 -132 -260zM1034 0q91 24 197 103.5t160 158.5v-123q-36 -39 -89.5 -80t-95.5 -59h-172zM1114 1587h158q72 -51 119 -98v-121q-73 77 -136 129.5 t-141 89.5z" />
<glyph unicode="p" d="M31 0v1587h98v-1587h-98zM188 0v1587h562q98 0 184.5 -27t153.5 -78.5t106 -133t39 -183.5q0 -182 -137.5 -297t-335.5 -120v-748h-98v840h53q195 0 307.5 83.5t112.5 241.5q0 91 -33 156.5t-92.5 102.5t-132.5 54t-162 17h-428v-1495h-99zM346 0v1438h369 q158 0 259 -73.5t101 -199.5q0 -72 -28 -125t-78.5 -83.5t-113.5 -45t-140 -14.5h-113v-897h-98v989h229q10 7 10 25t-14.5 25.5t-54.5 7.5h-230v-1047h-98zM444 1139h242q88 0 124 -25.5t38 -75.5q12 24 12 54q0 46 -35.5 75t-109.5 29h-271v-57zM444 1288h271 q118 0 179.5 -48t61.5 -124q0 -31 -12 -55q33 39 33 104q0 50 -22 86.5t-60.5 56.5t-83 29t-96.5 9h-271v-58zM819 0h99v614q205 44 339 199.5t134 351.5q0 129 -60.5 245.5t-150.5 176.5h-170q125 -46 203.5 -158.5t78.5 -263.5q0 -191 -136 -323t-337 -150v-692zM977 0h98 v504q183 81 316 254v174q-58 -137 -166 -228.5t-248 -134.5v-569zM1135 0h98v416q92 63 158 137v135q-106 -141 -256 -219v-469zM1262 1587q36 -20 76 -76t53 -96v172h-129zM1292 0h99v479q-18 -28 -99 -88v-391z" />
<glyph unicode="q" d="M31 109v122q77 -81 152 -137t171 -94h-178q-24 14 -44.5 28t-31 22.5t-33.5 28t-36 30.5zM31 328v184q91 -202 274.5 -321t403.5 -119q178 0 327 73l66 -69q-178 -96 -393 -96q-207 0 -380.5 90t-297.5 258zM31 788q0 183 85 335.5t241 243.5t352 91q139 0 265.5 -53.5 t217.5 -143.5t145 -214t54 -259q0 -216 -129 -387l-64 76q94 140 94 311q0 153 -73 284.5t-208 212.5t-302 81q-127 0 -237 -47.5t-184 -127t-116.5 -184.5t-42.5 -219q0 -150 82 -281.5t216 -208.5t282 -77q118 0 223 45l65 -73q-144 -64 -288 -64q-130 0 -254 52 t-217.5 140t-150 211t-56.5 256zM31 1061v192q260 355 678 355q205 0 385 -95.5t297 -255.5v-196q-89 202 -272 328.5t-410 126.5q-232 0 -410.5 -124t-267.5 -331zM31 1348v120q70 70 147 119h176q-95 -38 -169 -96t-154 -143zM188 788q0 139 66 258t186.5 191t268.5 72 t269 -72t188 -191t67 -258q0 -141 -76 -264l-67 76q45 83 45 188q0 111 -52.5 208.5t-151.5 159t-222 61.5q-120 0 -218 -61.5t-151 -159t-53 -208.5q0 -109 61 -206t158.5 -154t202.5 -57q52 0 114 16l68 -76q-68 -32 -182 -32q-98 0 -193 40.5t-167.5 108.5t-116.5 163 t-44 197zM346 788q0 147 104 259t259 112q156 0 261 -107.5t105 -263.5q0 -74 -28 -141l-76 86q6 18 6 55q0 85 -43 160q4 -46 4 -59q0 -65 -16 -103l-74 82q8 31 8 64q0 53 -25 108l-22 9q4 -32 4 -50q0 -72 -35 -122l613 -691v-137l-738 823q62 68 62 162q0 27 -2 33h-4 q-15 0 -43 -4v-23q0 -93 -65 -148.5t-155 -60.5q-2 -14 -2 -43v-6h15q70 0 155 52l746 -834h-129l-635 711q-68 -21 -117 -21h-14l8 -18q55 -25 102 -25q3 0 9.5 1t9.5 1l68 -78q-32 -4 -46 -4q-31 0 -61 6q68 -52 147 -55h5l75 -84q-31 -8 -73 -8q-96 0 -181 54.5 t-133.5 138t-48.5 169.5zM473 922q48 7 76 39.5t33 74.5q-77 -42 -109 -114zM1067 1587h176q79 -50 148 -119v-120q-80 85 -154.5 143t-169.5 96zM1298 362q45 54 93 156v-176q-25 -35 -35 -45z" />
<glyph unicode="r" d="M31 0v1587h725q91 0 176 -27t152.5 -77.5t108 -130.5t40.5 -178q0 -187 -138.5 -306.5t-338.5 -119.5h-244l442 -748h-116l-496 840h373q192 0 305 87.5t113 246.5q0 321 -422 321h-582v-1495h-98zM188 0v1438h527q155 0 250.5 -71.5t95.5 -192.5q0 -133 -96.5 -205 t-249.5 -72h-369v391h369q118 0 179.5 -48t61.5 -124q0 -10 -2 -12q15 27 15 70q0 88 -72 130t-182 42h-428v-1346h-99zM346 0v731l414 -731h-113l-203 365v-365h-98zM444 989h289q10 7 10 25t-14.5 25.5t-54.5 7.5h-230v-58zM444 1139h242q88 0 124 -25.5t38 -75.5 q12 24 12 54q0 46 -35.5 75t-109.5 29h-271v-57zM504 0v152l82 -152h-82zM616 690h144q145 0 266 59t193.5 168.5t72.5 247.5q0 151 -78.5 263.5t-203.5 158.5h170q90 -60 150.5 -176.5t60.5 -245.5q0 -112 -48 -216t-128.5 -181t-193.5 -123.5t-237 -46.5l359 -598h-119z M891 549q166 25 301.5 126.5t198.5 256.5v-174q-157 -201 -353 -269l291 -489h-115zM1128 469q84 44 146.5 94t116.5 125v-135q-47 -54 -134 -115l134 -225v-190zM1272 1587h119v-143q-44 82 -119 143zM1333 422q39 28 58 47v-141z" />
<glyph unicode="s" d="M31 0h125q-78 70 -125 184v-184zM31 461v770q0 91 47.5 186.5t124.5 169.5h106q-81 -61 -130.5 -157t-49.5 -199q0 -316 277 -467l290 -158q128 -68 181 -122t53 -140q0 -31 -19 -82q66 52 66 144q0 56 -57 114t-144 105l-332 178q-256 137 -256 428q0 95 55 193t146 163 h133q-235 -117 -235 -356q0 -127 54 -208.5t175 -145.5l328 -179q231 -132 231 -288q0 -87 -49.5 -152t-122 -96t-153.5 -31q-179 0 -291.5 90.5t-112.5 239.5v223l-12 6l-47 29v-258q0 -84 27 -151.5t72 -111t106 -73t125 -41.5t133 -12q72 0 139.5 22t123 63t89 106.5 t33.5 146.5q0 109 -60 182.5t-180 140.5l-340 189q-102 59 -155.5 131t-53.5 178q0 108 62 191t160 124t212 41q112 0 215.5 -47t170.5 -135t67 -193v-403q43 -43 59 -74v484q0 80 -26 145.5t-70.5 108t-88.5 69.5t-95 45h143q36 -10 76 -42t76 -78.5t60 -111.5t24 -132 v-813q0 -114 -53 -227t-136 -183h-141q108 60 169.5 170t61.5 240q0 146 -61 247t-189 170l-340 185q-44 23 -62 33.5t-51 33.5t-47 41.5t-26 48.5t-12 64q0 90 83 147.5t189 57.5q120 0 209.5 -77t89.5 -185v-265l41 -20q2 -2 19 -10v307q0 97 -54 168.5t-134.5 105 t-172.5 33.5q-130 0 -230 -74t-100 -190q0 -30 5.5 -56.5t13.5 -46t23 -38.5t27 -30.5t34 -26t34 -21t37.5 -20t36.5 -19.5l336 -185q130 -72 186 -164t56 -214q0 -101 -42.5 -185t-112.5 -136t-156 -80.5t-177 -28.5q-253 0 -405 124.5t-152 356.5v348q-44 52 -59 92v-440 q0 -167 86.5 -297.5t208.5 -163.5h-172q-93 64 -157 192.5t-64 268.5zM31 1444v143h98q-72 -66 -98 -143zM444 461q0 -62 28 -114t79 -83q-47 74 -47 185v151l-60 31v-170zM602 449q0 -174 103 -228q-43 67 -43 148v145l-60 33v-98zM602 1233q0 -37 25 -68q7 49 45 76t98 27 q71 0 109.5 -39.5t38.5 -102.5v-129l59 -32v192q0 87 -54 138t-147 51q-75 0 -124.5 -30.5t-49.5 -82.5zM700 1112l74 -37l45 -24v63q0 26 -14.5 44t-44.5 18q-32 0 -46 -19.5t-14 -44.5zM760 369q0 -74 45 -144h2q27 41 27 109q0 71 -74 123v-88zM1272 1587h119v-143 q-27 56 -53 85.5t-66 57.5zM1286 0h105v156q-32 -76 -105 -156z" />
<glyph unicode="t" d="M31 0v1288h98v-1288h-98zM31 1346v92h571v-1438h-98v1346h-473zM31 1495v92h1360v-92h-631v-1495h-98v1495h-631zM188 0v1139h99v-1139h-99zM188 1196v92h256v-1288h-98v1196h-158zM819 0v1438h572v-92h-473v-1346h-99zM977 0v1288h256v-92h-158v-1196h-98zM1135 0v1139 h98v-1139h-98zM1292 0v1288h99v-1288h-99z" />
<glyph unicode="u" d="M31 78q28 -49 57 -78h100q-95 100 -157 260v-182zM31 596v1012h98v-1016q0 -135 37 -256.5t106.5 -210t159.5 -125.5h-164q-111 94 -174 248t-63 348zM188 596v1012h99v-1016q0 -110 25 -199.5t75.5 -157.5t134 -105.5t193.5 -37.5q211 0 315.5 130.5t104.5 369.5v1016 h98v-1012q0 -170 -58.5 -303.5t-177.5 -213t-282 -79.5q-252 0 -389.5 154.5t-137.5 441.5zM346 590v1018h98v-1026q0 -74 12 -131.5t41 -106.5t84 -75.5t134 -26.5q131 0 196.5 92.5t65.5 247.5v1026h98v-1022q0 -195 -90.5 -315.5t-269.5 -120.5q-181 0 -275 116t-94 324z M504 569v1039h98v-1047q0 -76 25 -121q35 27 35 123v1045h98v-1041q0 -125 -51 -176h6q104 0 104 172v1045h99v-1041q0 -55 -10 -101t-32.5 -84.5t-63.5 -60.5t-97 -22q-106 0 -158.5 71t-52.5 199zM985 0q144 75 225.5 228.5t81.5 363.5v1016h99v-1012q0 -180 -66 -342.5 t-176 -253.5h-164zM1233 0h100q31 31 58 78v182q-62 -158 -158 -260z" />
<glyph unicode="v" d="M29 1587h100l502 -1378h4l502 1378h98l-588 -1587h-37zM31 0v150l55 -150h-55zM31 317v258l213 -575h-90zM31 741v260l370 -1001h-90zM31 1167v260l528 -1427h-90zM188 1587h101l348 -948h4l27 80l-322 868h100l271 -731l28 82l-239 649h100l189 -512l30 82l-159 430h100 l106 -293l27 78l-78 215h101l24 -82l31 82h100l-442 -1210zM707 0l587 1587h99l-596 -1587h-90zM864 0l527 1423v-260l-437 -1163h-90zM1022 0l369 999v-251l-279 -748h-90zM1180 0l211 571v-256l-121 -315h-90zM1335 0l56 150v-150h-56z" />
<glyph unicode="w" d="M31 166v283l153 -449h-96zM31 633v282l233 -671l443 1134l-31 76l-410 -1075l-235 704v283l245 -723l355 944h98l528 -1370l134 416v-295l-111 -338h-37l-489 1264l-490 -1264h-22zM31 1544v43h84l176 -520l198 520h91l-299 -784zM162 1587h98l41 -119l45 117h90 l-145 -381zM324 0h100l328 864l327 -864h101l-428 1112zM483 0h101l168 455l172 -455h100l-272 702zM633 0h100l19 59l22 -59h100l-122 307zM791 1587l460 -1198l142 432l-2 283l-144 -451l-350 934h-106zM948 1587l299 -778l139 432v283l-143 -451l-192 514h-103z M1106 1587l137 -356l117 356h-92l-29 -92l-35 92h-98zM1329 0l62 176v-176h-62z" />
<glyph unicode="x" d="M31 102v201l280 518l-280 520v203l385 -723zM31 408v194l116 219l-116 217v197l221 -414zM31 723l57 98l-57 97v-195zM37 0l442 821l-411 766h108l408 -766l-441 -821h-106zM213 0l438 821l-409 766h108l12 -26l17 26h108l-69 -131l28 -55l101 186h108l-153 -289l33 -61 l186 350h108l-239 -452l33 -60l272 512h109l-326 -616l31 -58l360 674h109l-410 -766l440 -821h-106l-45 82l-43 -82h-109l96 186l-32 62l-131 -248h-109l184 350l-32 62l-217 -412h-109l270 514l-32 59l-304 -573h-108l356 676l-28 55l-390 -731h-106zM834 821l409 766h109 l-412 -766l442 -821h-106zM1004 821l387 725v-200l-281 -525l281 -518v-199zM1171 821l220 416v-209l-113 -207l113 -211v-196zM1333 821l58 -98v195z" />
<glyph unicode="y" d="M31 0v768l98 -207v-561h-98zM31 891v190l256 -493v-588h-99v569zM31 1192v184l413 -755v-621h-98v602zM31 1487v100h51l520 -936v-651h-98v633zM147 1587h109l455 -825l30 57l-419 768h108l365 -672l32 60l-331 612h108l277 -514l32 55l-243 459h108l189 -360l30 57 l-153 303h108l101 -205l34 62l-71 143h108l19 -39l22 39h109l-514 -928v-659h-98v659zM819 0v651l518 936h54v-94l-473 -860v-633h-99zM977 0v621l414 755v-184l-316 -590v-602h-98zM1135 0v588l256 493v-190l-158 -322v-569h-98zM1292 0v561l99 207v-768h-99z" />
<glyph unicode="z" d="M29 0l731 1346h-729v92h901l-739 -1346h1198v-92h-1362zM31 150v208l454 838h-454v92h626zM31 496v217l180 334h-180v92h352zM31 823v166h88zM31 1495v92h1175l-743 -1345h72l735 1345h116l-741 -1345h746v-92h-1098l743 1345h-1005zM748 299l643 1171v-210l-471 -869 h471v-92h-643zM1022 449l369 667v-209l-197 -366h197v-92h-369zM1292 598h99v182z" />
<glyph unicode="{" d="M31 340q0 -279 112 -340h117q-49 33 -74.5 63.5t-41 87.5t-15.5 148v217q0 16 -0.5 28.5t-4 24t-4.5 18.5t-9 17.5t-9.5 14t-14 14.5t-15 13t-20 15.5t-21.5 16.5v-338zM31 760v90q44 32 66 50t46.5 47t34.5 62t10 76v166q0 182 65.5 259t238.5 77h899v-92h-899 q-111 0 -158 -46.5t-47 -156.5v-149q0 -76 -10 -129.5t-33 -91t-48 -61.5t-67 -52v-10q42 -28 67 -52t48 -63t33 -94.5t10 -134.5v-160q0 -110 47 -156.5t158 -46.5h899v-92h-899q-173 0 -238.5 77t-65.5 259v182q0 57 -21.5 102t-51 72.5t-84.5 67.5zM31 924q6 5 21.5 17 t19.5 15t15 13t14 14t10 14t8.5 17t5 18.5t4 24t0.5 28.5v203q0 91 15.5 148t41 87.5t74.5 63.5h-117q-112 -61 -112 -340v-323zM223 797v8q69 47 96 113t27 163v201q0 156 148 156h897v-92h-897q-23 0 -36.5 -16t-13.5 -40v-151q0 -148 -25.5 -222.5t-80.5 -115.5v-2 q54 -37 80 -116t26 -232v-160q0 -24 13.5 -39.5t36.5 -15.5h897v-93h-897q-148 0 -148 156v213q0 98 -27.5 167.5t-95.5 117.5zM414 799q26 19 44.5 47.5t27 53t13 66t5 61.5t0.5 65v125q0 48 14.5 59.5t65.5 11.5h807v-92h-754q-35 0 -35 -37v-80q0 -110 -7 -159.5 t-21 -71.5t-52 -49q38 -27 52 -49t21 -72t7 -160v-90q0 -37 35 -37h754v-92h-807q-51 0 -65.5 12t-14.5 60v135q0 49 -0.5 70t-5 62t-13 64t-26.5 50.5t-45 46.5zM602 799q36 29 48 69.5t12 106.5v119q0 28 9 36.5t34 8.5h686v-92h-605q-17 0 -21.5 -5.5t-4.5 -23.5v-86 q0 -50 -11 -78t-49 -55q39 -27 49.5 -55t10.5 -80v-95q0 -18 4.5 -23t21.5 -5h605v-92h-686q-25 0 -34 8.5t-9 36.5v129q0 66 -12 106.5t-48 69.5zM772 799q27 8 37 26.5t10 71.5v47q0 28 9 36.5t34 8.5h529v-92h-447q-17 0 -21.5 -4t-4.5 -21l-2 -12q-1 -11 -3.5 -24 t-10.5 -24.5t-21 -12.5q13 -3 21 -15t10.5 -24t3.5 -24l2 -11q0 -19 5 -27t21 -8h447v-92h-529q-25 0 -34 8.5t-9 36.5v57q0 53 -10 72t-37 27zM977 748v92h414v-92h-414z" />
<glyph unicode="|" d="M31 0v1587h98v-1587h-98zM188 0v1587h99v-1587h-99zM346 0v1587h98v-1587h-98zM504 0v1587h98v-1587h-98zM662 0v1587h98v-1587h-98zM819 0v1587h99v-1587h-99zM977 0v1587h98v-1587h-98zM1135 0v1587h98v-1587h-98zM1292 0v1587h99v-1587h-99z" />
<glyph unicode="}" d="M31 0v92h899q111 0 158 46.5t47 156.5v160q0 79 10 134.5t32.5 94t48 63t66.5 52.5v10q-42 28 -67 52t-47.5 61.5t-32.5 91t-10 129.5v149q0 110 -47 156.5t-158 46.5h-899v92h899q173 0 238 -77t65 -259v-166q0 -43 10 -76t35 -62t47 -47t66 -50v-90 q-83 -60 -120.5 -110t-37.5 -132v-182q0 -182 -65 -259t-238 -77h-899zM31 143v93h897q23 0 36 15.5t13 39.5v160q0 153 26 232t80 116v2q-55 41 -80.5 115.5t-25.5 222.5v151q0 24 -13 40t-36 16h-897v92h897q147 0 147 -156v-201q0 -97 27 -163t96 -113v-8 q-68 -48 -95.5 -117.5t-27.5 -167.5v-213q0 -156 -147 -156h-897zM31 299v92h753q35 0 35 37v90q0 110 7 160t21 72t52 49q-38 27 -52 49t-21 71.5t-7 159.5v80q0 37 -35 37h-753v92h807q51 0 65.5 -11.5t14.5 -59.5v-125q0 -45 0.5 -65t5 -61.5t13 -66t27 -53t44.5 -47.5 q-27 -19 -45 -46.5t-26.5 -50.5t-13 -64t-5 -62t-0.5 -70v-135q0 -48 -14.5 -60t-65.5 -12h-807zM31 449v92h604q17 0 22 5.5t5 22.5v95q0 53 10.5 80.5t48.5 54.5q-38 27 -48.5 55t-10.5 78v86q0 18 -5 23.5t-22 5.5h-604v92h686q25 0 34 -8.5t9 -36.5v-119 q0 -67 11.5 -107t47.5 -69q-36 -29 -47.5 -69t-11.5 -107v-129q0 -28 -9 -36.5t-34 -8.5h-686zM31 598v92h446q16 0 21.5 8t5.5 27q0 7 1.5 19.5t10 31.5t23.5 23q-24 3 -31.5 19.5t-4 33.5t-1.5 31t-25 14h-446v92h528q25 0 34 -8.5t9 -36.5v-47q0 -53 10 -71.5t37 -26.5 q-27 -8 -37 -27t-10 -72v-57q0 -28 -9 -36.5t-34 -8.5h-528zM31 748v92h413v-92h-413zM1161 0h117q113 64 113 340v338q-6 -4 -21.5 -16.5t-19.5 -15.5t-15.5 -13t-14 -14.5t-10 -14t-9 -17t-5 -19t-4 -24t-0.5 -28.5v-217q0 -91 -15.5 -148t-41 -87.5t-74.5 -63.5z M1161 1587q49 -33 74.5 -63.5t41 -87.5t15.5 -148v-203q0 -18 2 -32.5t3 -24.5t8.5 -21.5t9.5 -16.5t14.5 -16t16 -14t21.5 -17.5t24 -18.5v323q0 276 -113 340h-117z" />
<glyph unicode="~" d="M31 16v109q111 106 297 106q127 0 356 -84q85 -31 151.5 -47t99 -19t75.5 -3q94 0 198.5 43t182.5 115v-103q-57 -57 -174 -105t-236 -48q-82 0 -157.5 18.5t-198.5 67.5q-102 40 -164.5 51.5t-157.5 11.5q-73 0 -147 -28t-125 -85zM31 184v109q111 106 297 106 q127 0 356 -84q85 -31 151.5 -47t99 -19t75.5 -3q94 0 199 43t182 114v-102q-57 -57 -174.5 -105.5t-235.5 -48.5q-82 0 -157.5 18.5t-198.5 67.5q-103 40 -165.5 52t-156.5 12q-73 0 -147 -28t-125 -85zM31 350v109q111 106 297 106q127 0 356 -84q85 -31 151.5 -47t99 -19 t75.5 -3q94 0 199 43t182 114v-102q-57 -57 -174.5 -105.5t-235.5 -48.5q-82 0 -157.5 18.5t-198.5 67.5q-103 40 -165.5 52t-156.5 12q-73 0 -147 -28t-125 -85zM31 518v109q111 106 297 106q127 0 356 -84q85 -31 151.5 -47t99 -19t75.5 -3q94 0 199 43t182 114v-102 q-57 -57 -174.5 -105.5t-235.5 -48.5q-82 0 -157.5 18.5t-198.5 67.5q-103 40 -165.5 52t-156.5 12q-73 0 -147 -28t-125 -85zM31 684v109q111 106 297 106q127 0 356 -84q123 -44 192 -57t134 -13q94 0 198.5 43t182.5 115v-102q-57 -57 -174.5 -105.5t-235.5 -48.5 q-82 0 -157.5 18.5t-198.5 67.5q-103 40 -165.5 52t-156.5 12q-73 0 -147 -28t-125 -85zM31 852v109q111 106 297 106q127 0 356 -84q123 -44 192 -57t134 -13q94 0 198.5 43t182.5 115v-102q-57 -57 -174.5 -105.5t-235.5 -48.5q-82 0 -157.5 18.5t-198.5 67.5 q-103 40 -165.5 52t-156.5 12q-73 0 -147 -28t-125 -85zM31 1018v108q112 107 297 107q127 0 356 -84q123 -44 192 -57t134 -13q94 0 198.5 43t182.5 115v-102q-57 -57 -174.5 -105.5t-235.5 -48.5q-82 0 -157.5 18.5t-198.5 67.5q-102 40 -164.5 51.5t-157.5 11.5 q-74 0 -147.5 -28t-124.5 -84zM31 1186v108q112 107 297 107q127 0 356 -84q123 -44 192 -57t134 -13q94 0 198.5 43t182.5 115v-102q-57 -57 -174.5 -105.5t-235.5 -48.5q-82 0 -157.5 18.5t-198.5 67.5q-102 40 -164.5 51.5t-157.5 11.5q-74 0 -147.5 -28t-124.5 -84z M31 1352v108q112 107 297 107q127 0 356 -84q123 -44 192 -57t134 -13q94 0 198.5 43t182.5 115v-103q-57 -57 -174 -105t-236 -48q-82 0 -157.5 18.5t-198.5 67.5q-102 40 -164.5 51.5t-157.5 11.5q-74 0 -147.5 -28t-124.5 -84zM31 1518v69h94q-61 -32 -94 -69zM86 0 q98 63 242 63q112 0 301 -63h-543zM569 1587h764q-69 -45 -163.5 -75.5t-188.5 -30.5q-55 0 -110.5 11t-98.5 25t-147 50zM1300 0q60 39 91 68v-68h-91z" />
<glyph unicode="&#xa0;" d="M31 0v92h1360v-92h-1360zM31 150v92h1360v-92h-1360zM31 299v92h1360v-92h-1360zM31 449v92h1360v-92h-1360zM31 598v92h1360v-92h-1360zM31 748v92h1360v-92h-1360zM31 897v92h1360v-92h-1360zM31 1047v92h1360v-92h-1360zM31 1196v92h1360v-92h-1360zM31 1346v92h1360 v-92h-1360zM31 1495v92h1360v-92h-1360z" />
<glyph unicode="&#xa6;" d="M31 0v840h98v-840h-98zM31 897v690h98v-690h-98zM188 0v840h99v-840h-99zM188 897v690h99v-690h-99zM346 0v840h98v-840h-98zM346 897v690h98v-690h-98zM504 0v840h98v-840h-98zM504 897v690h98v-690h-98zM662 0v840h98v-840h-98zM662 897v690h98v-690h-98zM819 0v840h99 v-840h-99zM819 897v690h99v-690h-99zM977 0v840h98v-840h-98zM977 897v690h98v-690h-98zM1135 0v840h98v-840h-98zM1135 897v690h98v-690h-98zM1292 0v840h99v-840h-99zM1292 897v690h99v-690h-99z" />
<glyph unicode="&#xad;" d="M31 0v92h413v-92h-413zM31 150v92h98v-92h-98zM31 299v92h256v-92h-256zM31 449v92h413v-92h-413zM31 598v92h98v-92h-98zM31 748v92h256v-92h-256zM31 897v92h413v-92h-413zM31 1047v92h98v-92h-98zM31 1196v92h256v-92h-256zM31 1346v92h413v-92h-413zM31 1495v92h98 v-92h-98zM188 150v92h414v-92h-414zM188 598v92h414v-92h-414zM188 1047v92h414v-92h-414zM188 1495v92h414v-92h-414zM346 299v92h414v-92h-414zM346 748v92h414v-92h-414zM346 1196v92h414v-92h-414zM504 0v92h414v-92h-414zM504 449v92h414v-92h-414zM504 897v92h414v-92 h-414zM504 1346v92h414v-92h-414zM662 150v92h413v-92h-413zM662 598v92h413v-92h-413zM662 1047v92h413v-92h-413zM662 1495v92h413v-92h-413zM819 299v92h414v-92h-414zM819 748v92h414v-92h-414zM819 1196v92h414v-92h-414zM977 0v92h414v-92h-414zM977 449v92h414v-92 h-414zM977 897v92h414v-92h-414zM977 1346v92h414v-92h-414zM1135 150v92h256v-92h-256zM1135 598v92h256v-92h-256zM1135 1047v92h256v-92h-256zM1135 1495v92h256v-92h-256zM1292 299v92h99v-92h-99zM1292 748v92h99v-92h-99zM1292 1196v92h99v-92h-99z" />
<glyph unicode="&#xd7;" d="M31 0v66l682 684l678 -674v-76h-72l-610 606l-605 -606h-73zM31 150v149l497 489l-497 494v150l641 -644zM31 375v139l274 274l-274 277v139l413 -413zM31 602v139l47 47l-47 50v139l186 -186zM31 1516v71h67l611 -612l616 612h66v-82l-678 -674zM178 1587h139l388 -387 l389 387h149l-534 -530zM184 0l525 524l526 -524h-148l-382 381l-381 -381h-140zM397 1587h140l168 -170l169 170h148l-313 -313zM403 0l306 307l307 -307h-148l-163 164l-162 -164h-140zM614 0h183l-92 92zM614 1587l91 -92l92 92h-183zM754 791l637 636v-139l-498 -500 l498 -495v-139zM977 791l414 413v-139l-275 -277l275 -274v-139zM1204 791l187 186v-139l-48 -50l48 -47v-139z" />
<glyph unicode="&#x2000;" horiz-adv-x="804" />
<glyph unicode="&#x2001;" horiz-adv-x="1608" />
<glyph unicode="&#x2002;" horiz-adv-x="804" />
<glyph unicode="&#x2003;" horiz-adv-x="1608" />
<glyph unicode="&#x2004;" horiz-adv-x="536" />
<glyph unicode="&#x2005;" horiz-adv-x="402" />
<glyph unicode="&#x2006;" horiz-adv-x="268" />
<glyph unicode="&#x2007;" horiz-adv-x="268" />
<glyph unicode="&#x2008;" horiz-adv-x="201" />
<glyph unicode="&#x2009;" horiz-adv-x="321" />
<glyph unicode="&#x200a;" horiz-adv-x="89" />
<glyph unicode="&#x2010;" d="M31 0v92h413v-92h-413zM31 150v92h98v-92h-98zM31 299v92h256v-92h-256zM31 449v92h413v-92h-413zM31 598v92h98v-92h-98zM31 748v92h256v-92h-256zM31 897v92h413v-92h-413zM31 1047v92h98v-92h-98zM31 1196v92h256v-92h-256zM31 1346v92h413v-92h-413zM31 1495v92h98 v-92h-98zM188 150v92h414v-92h-414zM188 598v92h414v-92h-414zM188 1047v92h414v-92h-414zM188 1495v92h414v-92h-414zM346 299v92h414v-92h-414zM346 748v92h414v-92h-414zM346 1196v92h414v-92h-414zM504 0v92h414v-92h-414zM504 449v92h414v-92h-414zM504 897v92h414v-92 h-414zM504 1346v92h414v-92h-414zM662 150v92h413v-92h-413zM662 598v92h413v-92h-413zM662 1047v92h413v-92h-413zM662 1495v92h413v-92h-413zM819 299v92h414v-92h-414zM819 748v92h414v-92h-414zM819 1196v92h414v-92h-414zM977 0v92h414v-92h-414zM977 449v92h414v-92 h-414zM977 897v92h414v-92h-414zM977 1346v92h414v-92h-414zM1135 150v92h256v-92h-256zM1135 598v92h256v-92h-256zM1135 1047v92h256v-92h-256zM1135 1495v92h256v-92h-256zM1292 299v92h99v-92h-99zM1292 748v92h99v-92h-99zM1292 1196v92h99v-92h-99z" />
<glyph unicode="&#x2011;" d="M31 0v92h413v-92h-413zM31 150v92h98v-92h-98zM31 299v92h256v-92h-256zM31 449v92h413v-92h-413zM31 598v92h98v-92h-98zM31 748v92h256v-92h-256zM31 897v92h413v-92h-413zM31 1047v92h98v-92h-98zM31 1196v92h256v-92h-256zM31 1346v92h413v-92h-413zM31 1495v92h98 v-92h-98zM188 150v92h414v-92h-414zM188 598v92h414v-92h-414zM188 1047v92h414v-92h-414zM188 1495v92h414v-92h-414zM346 299v92h414v-92h-414zM346 748v92h414v-92h-414zM346 1196v92h414v-92h-414zM504 0v92h414v-92h-414zM504 449v92h414v-92h-414zM504 897v92h414v-92 h-414zM504 1346v92h414v-92h-414zM662 150v92h413v-92h-413zM662 598v92h413v-92h-413zM662 1047v92h413v-92h-413zM662 1495v92h413v-92h-413zM819 299v92h414v-92h-414zM819 748v92h414v-92h-414zM819 1196v92h414v-92h-414zM977 0v92h414v-92h-414zM977 449v92h414v-92 h-414zM977 897v92h414v-92h-414zM977 1346v92h414v-92h-414zM1135 150v92h256v-92h-256zM1135 598v92h256v-92h-256zM1135 1047v92h256v-92h-256zM1135 1495v92h256v-92h-256zM1292 299v92h99v-92h-99zM1292 748v92h99v-92h-99zM1292 1196v92h99v-92h-99z" />
<glyph unicode="&#x2012;" d="M31 0v92h413v-92h-413zM31 150v92h98v-92h-98zM31 299v92h256v-92h-256zM31 449v92h413v-92h-413zM31 598v92h98v-92h-98zM31 748v92h256v-92h-256zM31 897v92h413v-92h-413zM31 1047v92h98v-92h-98zM31 1196v92h256v-92h-256zM31 1346v92h413v-92h-413zM31 1495v92h98 v-92h-98zM188 150v92h414v-92h-414zM188 598v92h414v-92h-414zM188 1047v92h414v-92h-414zM188 1495v92h414v-92h-414zM346 299v92h414v-92h-414zM346 748v92h414v-92h-414zM346 1196v92h414v-92h-414zM504 0v92h414v-92h-414zM504 449v92h414v-92h-414zM504 897v92h414v-92 h-414zM504 1346v92h414v-92h-414zM662 150v92h413v-92h-413zM662 598v92h413v-92h-413zM662 1047v92h413v-92h-413zM662 1495v92h413v-92h-413zM819 299v92h414v-92h-414zM819 748v92h414v-92h-414zM819 1196v92h414v-92h-414zM977 0v92h414v-92h-414zM977 449v92h414v-92 h-414zM977 897v92h414v-92h-414zM977 1346v92h414v-92h-414zM1135 150v92h256v-92h-256zM1135 598v92h256v-92h-256zM1135 1047v92h256v-92h-256zM1135 1495v92h256v-92h-256zM1292 299v92h99v-92h-99zM1292 748v92h99v-92h-99zM1292 1196v92h99v-92h-99z" />
<glyph unicode="&#x2013;" horiz-adv-x="1085" d="M31 0v92h311v-92h-311zM31 150v92h74v-92h-74zM31 299v92h193v-92h-193zM31 449v92h311v-92h-311zM31 598v92h74v-92h-74zM31 748v92h193v-92h-193zM31 897v92h311v-92h-311zM31 1047v92h74v-92h-74zM31 1196v92h193v-92h-193zM31 1346v92h311v-92h-311zM31 1495v92h74 v-92h-74zM149 150v92h312v-92h-312zM149 598v92h312v-92h-312zM149 1047v92h312v-92h-312zM149 1495v92h312v-92h-312zM268 299v92h312v-92h-312zM268 748v92h312v-92h-312zM268 1196v92h312v-92h-312zM387 0v92h312v-92h-312zM387 449v92h312v-92h-312zM387 897v92h312v-92 h-312zM387 1346v92h312v-92h-312zM506 150v92h311v-92h-311zM506 598v92h311v-92h-311zM506 1047v92h311v-92h-311zM506 1495v92h311v-92h-311zM624 299v92h312v-92h-312zM624 748v92h312v-92h-312zM624 1196v92h312v-92h-312zM743 0v92h312v-92h-312zM743 449v92h312v-92 h-312zM743 897v92h312v-92h-312zM743 1346v92h312v-92h-312zM862 150v92h193v-92h-193zM862 598v92h193v-92h-193zM862 1047v92h193v-92h-193zM862 1495v92h193v-92h-193zM980 299v92h75v-92h-75zM980 748v92h75v-92h-75zM980 1196v92h75v-92h-75z" />
<glyph unicode="&#x2014;" horiz-adv-x="2109" d="M31 0v92h622v-92h-622zM31 150v92h148v-92h-148zM31 299v92h386v-92h-386zM31 449v92h622v-92h-622zM31 598v92h148v-92h-148zM31 748v92h386v-92h-386zM31 897v92h622v-92h-622zM31 1047v92h148v-92h-148zM31 1196v92h386v-92h-386zM31 1346v92h622v-92h-622zM31 1495 v92h148v-92h-148zM267 150v92h624v-92h-624zM267 598v92h624v-92h-624zM267 1047v92h624v-92h-624zM267 1495v92h624v-92h-624zM505 299v92h624v-92h-624zM505 748v92h624v-92h-624zM505 1196v92h624v-92h-624zM743 0v92h624v-92h-624zM743 449v92h624v-92h-624zM743 897v92 h624v-92h-624zM743 1346v92h624v-92h-624zM981 150v92h622v-92h-622zM981 598v92h622v-92h-622zM981 1047v92h622v-92h-622zM981 1495v92h622v-92h-622zM1218 299v92h623v-92h-623zM1218 748v92h623v-92h-623zM1218 1196v92h623v-92h-623zM1456 0v92h623v-92h-623zM1456 449 v92h623v-92h-623zM1456 897v92h623v-92h-623zM1456 1346v92h623v-92h-623zM1693 150v92h386v-92h-386zM1693 598v92h386v-92h-386zM1693 1047v92h386v-92h-386zM1693 1495v92h386v-92h-386zM1930 299v92h149v-92h-149zM1930 748v92h149v-92h-149zM1930 1196v92h149v-92h-149 z" />
<glyph unicode="&#x202f;" horiz-adv-x="321" />
<glyph unicode="&#x205f;" horiz-adv-x="402" />
<glyph unicode="&#x25fc;" horiz-adv-x="1587" d="M0 0v1587h1587v-1587h-1587z" />
</font>
</defs>
</svg>
