<?xml version="1.0" standalone="no"?>
<!DOCTYPE svg PUBLIC "-//W3C//DTD SVG 1.1//EN" "http://www.w3.org/Graphics/SVG/1.1/DTD/svg11.dtd" >
<svg xmlns="http://www.w3.org/2000/svg" xmlns:xlink="http://www.w3.org/1999/xlink" version="1.1">
<metadata></metadata>
<defs>
<font id="futulabyrinthcircuit" horiz-adv-x="1269" >
<font-face units-per-em="2048" ascent="1638" descent="-410" />
<missing-glyph horiz-adv-x="634" />
<glyph unicode="&#xfb01;" horiz-adv-x="1153" d="M57 860v86h105v424q0 168 37 232q31 55 87.5 84.5t123.5 29.5q44 0 82 -14v-84q-8 1 -23.5 4.5t-28 5.5t-24.5 2q-33 0 -59 -10t-43 -24t-29 -38.5t-18 -45.5t-9 -53.5t-3.5 -53t-0.5 -53.5v-406h573v-86h-573v-860h-92v860h-105zM313 0v803h514v-803h-92v717h-329v-717 h-93zM313 1004v339q0 118 17 164q26 65 88 66q45 0 74 -10v-76q-16 4 -48 4q-24 0 -31 -30.5t-7 -133.5v-323h-93zM676 1221q0 73 53 125.5t127 52.5q73 0 125.5 -53t52.5 -125q0 -75 -52 -128t-126 -53q-75 0 -127.5 53t-52.5 128zM770 1221q0 -35 25.5 -60.5t60.5 -25.5 t60.5 25.5t25.5 60.5q0 34 -25.5 60t-60.5 26t-60.5 -26t-25.5 -60zM887 0v946h92v-946h-92z" />
<glyph unicode="&#xfb02;" horiz-adv-x="1067" d="M57 860v86h105v424q0 168 37 232q31 55 87.5 84.5t123.5 29.5q44 0 82 -14v-84q-8 1 -23.5 4.5t-28 5.5t-24.5 2q-33 0 -59 -10t-43 -24t-29 -38.5t-18 -45.5t-9 -53.5t-3.5 -53t-0.5 -53.5v-406h436v744h92v-830h-528v-860h-92v860h-105zM313 0v803h469v-803h-92v717 h-284v-717h-93zM313 1004v339q0 118 17 164q26 65 88 66q45 0 74 -10v-76q-16 4 -48 4q-24 0 -31 -30.5t-7 -133.5v-323h-93zM842 0v1690h92v-1690h-92z" />
<glyph horiz-adv-x="0" />
<glyph horiz-adv-x="682" />
<glyph unicode=" "  horiz-adv-x="634" />
<glyph unicode="&#x09;" horiz-adv-x="634" />
<glyph unicode="&#xa0;" horiz-adv-x="634" />
<glyph unicode="!" horiz-adv-x="655" d="M147 160q0 72 53 125t128 53q73 0 125.5 -53t52.5 -125q0 -75 -52 -127.5t-126 -52.5q-75 0 -128 52.5t-53 127.5zM201 453v1089h98v-1089h-98zM240 160q0 -37 25.5 -62.5t62.5 -25.5t62.5 25.5t25.5 62.5q0 36 -26 62t-62 26t-62 -26t-26 -62zM358 453v1089h99v-1089 h-99z" />
<glyph unicode="&#x22;" horiz-adv-x="569" d="M-66 1303v241h283v-241l-37 -250h-86l31 250v143h-98v-143l30 -250h-86zM352 1303v241h283v-241l-37 -250h-86l31 250v143h-99v-143l31 -250h-86z" />
<glyph unicode="#" horiz-adv-x="1273" d="M86 385v104h295v-491h-98v387h-197zM86 547v98h197v252h-197v98h295v-448h-295zM86 1053v104h197v387h98v-491h-295zM440 -2v491h394v-491h-99v387h-196v-387h-99zM440 547v448h394v-448h-394zM440 1053v491h99v-387h196v387h99v-491h-394zM539 645h196v252h-196v-252z M893 -2v491h295v-104h-197v-387h-98zM893 547v448h295v-98h-197v-252h197v-98h-295zM893 1053v491h98v-387h197v-104h-295z" />
<glyph unicode="$" d="M47 1198h98q5 -135 51 -226.5t156 -148.5l248 -121q33 -17 51.5 -27.5t60.5 -41.5t67 -60t46 -75t21 -95q0 -114 -83 -193t-204 -79q-125 0 -213.5 69t-130.5 183l82 37q41 -96 103.5 -146.5t162.5 -50.5q90 0 137.5 46t47.5 130q0 40 -16.5 74.5t-50 62.5t-62 46 t-72.5 41l-256 129q-244 131 -244 446zM76 317l86 39q52 -130 153 -207t244 -77h10v-238h-98v152q-143 21 -244.5 109t-150.5 222zM205 1198q0 133 72 226t194 126v140h98v-217q-120 -6 -193 -80.5t-73 -194.5q0 -48 11.5 -88t28.5 -67t46 -52.5t53.5 -40.5t61.5 -35 l266 -135q119 -62 176.5 -152t57.5 -220q0 -136 -77 -242.5t-200 -153.5v-178h-98v244q45 8 98 35q82 42 130 119.5t48 175.5q0 32 -6 62t-13.5 53t-25 47.5t-28.5 39.5t-37 35.5t-38.5 30t-44 28t-42.5 24.5t-45 24l-222 112q-198 109 -198 334zM362 1200q0 98 70 156.5 t162 58.5q83 0 151 -39t113 -108l-70 -60q-32 53 -82.5 85t-111.5 32q-56 2 -94.5 -29t-38.5 -96q0 -57 39.5 -98.5t113.5 -79.5l277 -133q139 -70 209 -193.5t61 -283.5h-98q0 157 -61 253t-187 160l-264 129q-96 49 -142.5 105t-46.5 141zM629 1470v220h98v-140 q79 -21 144 -68.5t104 -117.5l-70 -57q-95 151 -276 163z" />
<glyph unicode="%" horiz-adv-x="1386" d="M41 1255q0 138 101.5 239t240.5 101q138 0 239 -101t101 -239q0 -139 -101 -240.5t-239 -101.5q-139 0 -240.5 101.5t-101.5 240.5zM133 1255q0 -106 72 -177.5t178 -71.5q105 0 177.5 72t72.5 177q0 104 -73 177t-177 73q-105 0 -177.5 -72.5t-72.5 -177.5zM172 88 l842 1483l71 -37l-837 -1485zM205 1255q0 74 52.5 126.5t125.5 52.5t125.5 -52.5t52.5 -126.5q0 -73 -52.5 -125.5t-125.5 -52.5t-125.5 52.5t-52.5 125.5zM287 1255q0 -40 28 -68t68 -28t68 28t28 68t-28 68.5t-68 28.5t-68 -28.5t-28 -68.5zM297 25l842 1482l71 -37 l-837 -1484zM664 289q0 138 101.5 239t240.5 101q138 0 239 -101t101 -239q0 -139 -101 -240.5t-239 -101.5q-140 0 -241 101.5t-101 240.5zM756 289q0 -106 72 -178t178 -72q104 0 176.5 72.5t72.5 177.5q0 104 -72.5 177t-176.5 73q-105 0 -177.5 -72.5t-72.5 -177.5z M827 289q0 73 52.5 125.5t126.5 52.5t126 -52.5t52 -125.5t-52 -125.5t-126 -52.5t-126.5 52.5t-52.5 125.5zM909 289q0 -40 28.5 -68t68.5 -28t68 28t28 68t-28 68t-68 28t-68.5 -28t-28.5 -68z" />
<glyph unicode="&#x26;" horiz-adv-x="1314" d="M45 377q0 244 287 440l61 45q-74 92 -111.5 167t-37.5 167q0 153 108.5 265t255.5 112q111 0 196 -54t128 -140.5t43 -188.5q0 -188 -219 -354l-39 -31l223 -301l160 162l74 -39l-244 -248l-332 444l119 86q87 69 123.5 128.5t36.5 152.5q0 123 -74 207t-193 84 q-113 0 -190.5 -78t-77.5 -207q0 -80 27.5 -137t103.5 -148l41 29l-29 39q-84 115 -84 217q0 110 63.5 170.5t145.5 60.5q81 0 144 -62.5t63 -174.5q0 -70 -34 -131.5t-142 -136.5l-172 -119q-46 -32 -65 -45.5t-62 -46.5t-63.5 -54t-51.5 -57t-46 -67t-26.5 -72t-11.5 -84 q0 -128 85 -222t221 -94q111 0 218.5 58.5t245.5 175.5l220 -295h-107l-123 162q-141 -103 -241 -148t-213 -45q-174 0 -289 119t-115 289zM201 377q0 32 8 63t19 55.5t33 52t38.5 45.5t48 44.5t49.5 40.5t54.5 41t52.5 39l47 33l328 -451l-41 -33q-119 -96 -202.5 -138 t-178.5 -42q-112 0 -184 70.5t-72 179.5zM293 381q0 -72 46.5 -119t123.5 -47q79 0 144 32.5t155 110.5l-232 316l-45 -33q-85 -55 -138.5 -117t-53.5 -143zM500 1196q0 -33 9 -62.5t18.5 -46t29.5 -47.5l35 -45q127 85 127 195q0 67 -34.5 103t-74.5 36q-41 0 -75.5 -33 t-34.5 -100zM963 334l260 266l71 -39l-221 -235l246 -326h-107z" />
<glyph unicode="'" horiz-adv-x="454" d="M86 1303v241h283v-241l-37 -250h-86l30 250v143h-98v-143l31 -250h-86z" />
<glyph unicode="(" horiz-adv-x="653" d="M133 614q0 462 191 981l86 -51q-38 -118 -51.5 -161t-45 -158.5t-44.5 -192t-25.5 -191.5t-12.5 -227q0 -139 14 -265t47.5 -260.5t52 -197t65.5 -206.5l-86 -52q-191 519 -191 981zM291 614q0 378 170 897l90 -59q-58 -158 -110 -390.5t-52 -447.5t52 -447t110 -390 l-90 -60q-170 519 -170 897z" />
<glyph unicode=")" horiz-adv-x="653" d="M102 -223q58 158 110 390t52 447t-52 447.5t-110 390.5l91 59q169 -516 169 -897t-169 -897zM244 -315q45 141 64.5 206.5t52.5 198t47 259t14 265.5t-14 266t-46.5 259t-52.5 198.5t-65 206.5l86 51q190 -516 190 -981t-190 -981z" />
<glyph unicode="*" horiz-adv-x="1267" d="M94 1169l76 230l217 -72v229h242v-229l219 70l74 -230l-220 -69l136 -187l-197 -141l-133 186l-135 -186l-195 143l135 185zM217 1225l246 -74l-154 -215l49 -31l150 211l154 -213l43 37l-150 205l246 82l-23 53l-241 -80v258h-58v-258l-246 80z" />
<glyph unicode="+" d="M111 395v99h495v-494h-98v395h-397zM111 551v104h397v396h98v-500h-495zM666 0v494h493v-99h-395v-395h-98zM666 551v500h98v-396h395v-104h-493z" />
<glyph unicode="," horiz-adv-x="634" d="M150 66q0 72 53 125t127 53q73 0 125.5 -53t52.5 -125q0 -32 -8 -56l-152 -413l-61 22l80 270q-24 -4 -37 -4q-75 0 -127.5 53t-52.5 128zM242 66q0 -37 25.5 -63t62.5 -26t62.5 24.5t25.5 64.5q0 36 -26 62t-62 26t-62 -26t-26 -62z" />
<glyph unicode="-" horiz-adv-x="389" d="M-98 535v92h585v-92h-585zM-98 684v92h585v-92h-585z" />
<glyph unicode="." horiz-adv-x="634" d="M135 61q0 73 53 126t127 53q73 0 126 -53.5t53 -125.5q0 -75 -52.5 -127.5t-126.5 -52.5q-75 0 -127.5 52.5t-52.5 127.5zM227 61q0 -37 25.5 -62.5t62.5 -25.5t62.5 25.5t25.5 62.5q0 36 -26 62.5t-62 26.5t-62 -26.5t-26 -62.5z" />
<glyph unicode="/" horiz-adv-x="1236" d="M-10 -188l1061 1878l71 -37l-1056 -1880zM115 -252l1061 1878l71 -37l-1057 -1880z" />
<glyph unicode="0" d="M74 782q0 100 21 206t66.5 209.5t110 185t159 132t204.5 50.5t204.5 -50.5t159 -132t110 -185t66.5 -209.5t21 -206q0 -99 -20 -206t-65 -214t-108.5 -191.5t-159 -137.5t-208.5 -53t-208.5 53t-159 137.5t-108.5 191.5t-65 214t-20 206zM172 782q0 -72 11.5 -149.5 t34.5 -158t62 -152t88 -128t118 -89.5t149 -33t149 33t118 89.5t88 128t62 152t34.5 158t11.5 149.5q0 63 -11.5 136t-34.5 151.5t-62 150t-88 128.5t-118.5 91t-148.5 34t-148.5 -34t-118.5 -91t-88 -128.5t-62 -150t-34.5 -151.5t-11.5 -136zM231 780q0 79 14 163t46 169 t77.5 152t115 109t151.5 42t151.5 -42t115 -109t77 -152t45.5 -169t14 -163q0 -65 -9.5 -135t-29 -144.5t-52.5 -140t-76 -118t-104 -83t-132 -30.5q-85 0 -155 44t-115 113t-76.5 157t-44.5 173t-13 164zM324 780q0 -67 9.5 -138t33 -146.5t58 -134.5t89 -96.5t121.5 -37.5 t121.5 37.5t89 96.5t58 134.5t33 146.5t9.5 138q0 58 -9.5 125t-33 141.5t-58 133.5t-89 98t-121.5 39t-121.5 -39t-89 -98t-58 -133.5t-33 -141.5t-9.5 -125z" />
<glyph unicode="1" d="M500 1303v92h229v-1395h-98v1303h-131zM500 1452v92h387v-1544h-99v1452h-288z" />
<glyph unicode="2" d="M174 1085q0 103 37 193t99.5 152.5t147.5 98.5t179 36q196 0 329.5 -134.5t133.5 -328.5q0 -137 -43.5 -240.5t-141.5 -247.5l-253 -372h432v-92h-494l-39 -58h533v-92h-713l444 655q59 89 85.5 131.5t51.5 97.5t32 102.5t7 115.5q0 159 -105 265t-259 106 q-157 0 -263.5 -114.5t-101.5 -273.5h-98zM186 0h119l475 702q99 147 130.5 227t31.5 173q0 135 -91 224t-214 89q-77 0 -147.5 -41.5t-115 -118.5t-42.5 -170h98q-4 113 60 175.5t147 62.5q35 0 69.5 -12t66.5 -36.5t51.5 -69.5t19.5 -103q0 -51 -7 -85t-41.5 -100.5 t-107.5 -173.5z" />
<glyph unicode="3" d="M182 389h99q6 -136 98.5 -226.5t232.5 -90.5q146 0 251.5 105.5t105.5 250.5q0 143 -96.5 234t-239.5 96h-162v92h147q139 3 233.5 92.5t94.5 228.5q0 130 -87.5 216t-217.5 86q-131 0 -213 -85t-90 -219h-98q12 178 119 287t284 109q171 0 286 -113.5t115 -284.5 q0 -119 -62 -215t-169 -143q116 -44 185 -148t69 -227q0 -192 -130 -323t-323 -131q-116 0 -214 50t-158 145t-60 214zM317 614h150q63 0 111 -4.5t93.5 -16.5t75 -32t47 -53.5t17.5 -79.5q0 -99 -52.5 -153t-146.5 -54q-66 0 -120 47t-54 121h-98q0 -44 17.5 -88.5 t50.5 -83.5t87 -63.5t119 -24.5q120 0 207.5 88.5t87.5 210.5q0 127 -98 199.5t-252 72.5h-147v207h147q139 0 233.5 72.5t94.5 191.5q0 103 -66.5 173.5t-181.5 70.5q-64 0 -114 -26.5t-76 -66.5t-39 -79.5t-13 -73.5h99q0 65 40 109.5t101 44.5q151 0 151 -152 q0 -36 -10.5 -64t-26.5 -46.5t-43.5 -31.5t-52 -20t-61.5 -10.5t-62.5 -4.5t-64.5 -1h-150v-379z" />
<glyph unicode="4" d="M25 293v12l919 1292h12v-1062h220v-93h-318v856h-12l-641 -901v-12h493v57h-376v13l462 667h13v-1122h-99v293h-673zM494 535h204v299h-6l-198 -295v-4zM858 0v385h316v-92h-218v-293h-98z" />
<glyph unicode="5" d="M80 219l86 45q60 -88 158 -140t204 -52q199 0 328 126t129 324q0 120 -61.5 221t-164.5 158t-224 57q-22 0 -54 -4l29 95l106 346h471v-92h-399l-78 -256q203 -19 338 -169.5t135 -355.5q0 -155 -74 -280t-201.5 -193.5t-281.5 -68.5q-135 0 -253 63t-193 176zM231 299 l93 49q35 -60 90 -93.5t116 -33.5q136 0 216.5 83.5t80.5 217.5q0 121 -102 204t-236 83q-65 0 -116 -18.5t-121 -59.5l248 813h587v-92h-516l-174 -571q58 20 117 20q105 0 199.5 -50.5t153.5 -138.5t59 -190q0 -167 -113 -280t-285 -113q-84 0 -165.5 45t-131.5 125z" />
<glyph unicode="6" d="M86 518q0 182 113 340l497 707l80 -60l-516 -729q-76 -109 -76 -256q0 -186 132.5 -317t318.5 -131q185 0 317.5 131.5t132.5 316.5q0 121 -60.5 224.5t-164.5 164t-225 60.5h-25l-53 -76v-4q33 8 78 8q153 0 268 -112.5t115 -266.5q0 -139 -107 -258 q-111 -117 -278 -117q-158 0 -269.5 108.5t-111.5 266.5q0 113 67 209l519 735l80 -59l-244 -344q140 -7 257.5 -82t185 -197t67.5 -262q0 -100 -41.5 -197t-112.5 -174q-154 -167 -397 -167q-148 0 -273.5 70.5t-199.5 194.5t-74 273zM348 520q0 -118 84 -202.5t203 -84.5 q117 0 202 84.5t85 202.5q0 117 -85 201t-202 84t-202 -84t-85 -201z" />
<glyph unicode="7" horiz-adv-x="1249" d="M139 133l672 1170h-666v92h830l-758 -1319zM143 1452v92h1100l-899 -1560l-78 57l809 1411h-932z" />
<glyph unicode="8" d="M186 403q0 281 252 402q-99 49 -158 145.5t-59 206.5q0 174 119.5 291t294.5 117t294.5 -117t119.5 -291q0 -109 -59.5 -206t-158.5 -146q252 -121 252 -402q0 -120 -61.5 -217.5t-164 -151.5t-222.5 -54q-185 0 -317 121t-132 302zM285 414q0 -142 103.5 -242 t246.5 -100q142 0 246 100.5t104 241.5q0 133 -93.5 231.5t-225.5 110.5v92q119 12 201.5 101t82.5 210q0 129 -93.5 221.5t-221.5 92.5q-129 0 -222.5 -92.5t-93.5 -221.5q0 -121 83.5 -210.5t203.5 -100.5v-92q-134 -11 -227.5 -109.5t-93.5 -232.5zM344 414 q0 119 85 201.5t206 82.5t206 -82t85 -202q0 -117 -89 -201t-202 -84q-112 0 -201.5 85t-89.5 200zM379 1159q0 107 74.5 181.5t181.5 74.5t181.5 -74.5t74.5 -183.5q0 -105 -77.5 -178.5t-178.5 -73.5q-100 0 -178 75.5t-78 178.5zM442 414q0 -81 59 -137t134 -56 q74 0 133 55.5t59 137.5q0 88 -54 140t-138 52q-87 0 -140 -51t-53 -141zM477 1159q0 -69 47 -115.5t111 -46.5q63 0 110.5 45.5t47.5 114.5q0 75 -43.5 120.5t-114.5 45.5q-72 0 -115 -44.5t-43 -119.5z" />
<glyph unicode="9" d="M86 1026q0 100 41.5 197t112.5 174q155 168 397 168q148 0 273.5 -71t199.5 -195t74 -273q0 -182 -113 -340l-498 -706l-79 59l516 729q75 107 75 256q0 186 -132 317.5t-318 131.5q-185 0 -318 -132t-133 -317q0 -184 133 -316.5t318 -132.5h24l54 76v4q-33 -8 -78 -8 q-153 0 -268 112.5t-115 266.5q0 140 106 258q111 117 279 117q158 0 269.5 -108.5t111.5 -266.5q0 -111 -68 -209l-518 -735l-80 59l242 342q-139 8 -256 83t-184.5 197.5t-67.5 262.5zM348 1024q0 -117 85 -201t202 -84t202 84t85 201q0 118 -84 202.5t-203 84.5 q-117 0 -202 -84.5t-85 -202.5z" />
<glyph unicode=":" horiz-adv-x="634" d="M135 66q0 72 52.5 125t127.5 53q73 0 126 -53t53 -125q0 -75 -52.5 -128t-126.5 -53q-75 0 -127.5 53t-52.5 128zM135 885q0 73 52.5 125.5t127.5 52.5q73 0 126 -53t53 -125q0 -75 -52.5 -127.5t-126.5 -52.5q-75 0 -127.5 52.5t-52.5 127.5zM229 66q0 -35 25.5 -60.5 t60.5 -25.5t60.5 25.5t25.5 60.5q0 34 -25.5 60t-60.5 26t-60.5 -26t-25.5 -60zM229 885q0 -35 25.5 -60.5t60.5 -25.5t60.5 25.5t25.5 60.5q0 34 -25.5 60t-60.5 26t-60.5 -26t-25.5 -60z" />
<glyph unicode=";" horiz-adv-x="634" d="M150 66q0 72 53 125t127 53q73 0 125.5 -53t52.5 -125q0 -32 -8 -56l-152 -413l-61 22l80 270q-24 -4 -37 -4q-75 0 -127.5 53t-52.5 128zM150 885q0 73 53 125.5t127 52.5q73 0 125.5 -53t52.5 -125q0 -75 -52 -127.5t-126 -52.5q-75 0 -127.5 52.5t-52.5 127.5zM244 66 q0 -35 25.5 -60.5t60.5 -25.5t60.5 24t25.5 62q0 34 -25.5 60t-60.5 26t-60.5 -26t-25.5 -60zM244 885q0 -35 25.5 -60.5t60.5 -25.5t60.5 25.5t25.5 60.5q0 34 -25.5 60t-60.5 26t-60.5 -26t-25.5 -60z" />
<glyph unicode="&#x3c;" d="M111 514v109l1048 456v-94l-942 -418l942 -440v-94zM354 567l805 351v-95l-569 -256l569 -270v-94z" />
<glyph unicode="=" d="M111 221v260h1048v-260h-1048zM111 571v260h1048v-260h-1048zM203 319h864v58h-864v-58zM203 670h864v57h-864v-57z" />
<glyph unicode="&#x3e;" d="M111 33v94l942 440l-942 418v94l1048 -456v-109zM111 203v94l569 270l-569 256v95l804 -351z" />
<glyph unicode="?" horiz-adv-x="1005" d="M86 1186q0 104 59.5 192.5t156 137.5t204.5 49q111 0 208 -51t157.5 -146t60.5 -211q0 -128 -70 -234.5t-203 -211.5q-47 -37 -64 -57.5t-17 -51.5v-149h-99v143q0 14 2 27t4.5 23t9 21.5t10 18.5t13.5 17.5t14 15t17.5 15t17.5 13.5t20 14.5t19 14.5q83 62 129 111 t72.5 114.5t26.5 151.5q0 141 -100.5 230.5t-229.5 89.5q-134 0 -228.5 -90t-93.5 -216q0 -41 11 -92h-95q-12 55 -12 111zM242 1157q0 104 76.5 181t187.5 77q105 0 186.5 -74t81.5 -184q0 -99 -44 -177t-159 -159q-98 -68 -124.5 -109.5t-26.5 -129.5v-129h-98v114 q0 65 9 108.5t35 81t57.5 64t92.5 68.5q89 62 128.5 122t39.5 142q0 78 -53 128t-127 50q-69 0 -120.5 -51t-51.5 -127q0 -38 12 -78h-90q-12 40 -12 82zM285 160q0 72 52.5 125t127.5 53q73 0 125.5 -53t52.5 -125q0 -75 -52 -127.5t-126 -52.5q-75 0 -127.5 52.5 t-52.5 127.5zM377 160q0 -37 25.5 -62.5t62.5 -25.5t62.5 25.5t25.5 62.5q0 36 -26 62t-62 26t-62 -26t-26 -62z" />
<glyph unicode="@" horiz-adv-x="1638" d="M82 778q0 128 39.5 248.5t111.5 217t166.5 169.5t211 112.5t239.5 39.5q145 0 282 -53.5t239 -143.5t164 -217.5t62 -267.5v-275q0 -69 -26.5 -128t-68 -96.5t-90.5 -58t-95 -20.5q-84 0 -149.5 40t-82.5 79q-36 -53 -99.5 -84t-133.5 -31q-129 0 -228 63.5t-149.5 167 t-50.5 228.5q0 91 28 172t80 143.5t135 99t185 36.5q179 0 297.5 -118t118.5 -317v-194q0 -23 15 -38t34 -15t33 15t14 38v262q0 128 -70 239.5t-188 177.5t-254 66q-111 0 -211.5 -47t-172 -125t-113.5 -181.5t-42 -213.5q0 -152 64 -278t188.5 -203.5t286.5 -77.5v-86 q-141 0 -260 52.5t-198 141.5t-123 206t-44 245q0 132 52.5 253.5t139 208.5t200.5 139t233 52q111 0 219 -45t191 -120.5t134.5 -183t51.5 -224.5v-254q0 -58 -38 -100.5t-93 -42.5q-60 0 -96.5 42t-36.5 101v192q0 73 -21 132.5t-55 98.5t-78.5 66t-89 38.5t-88.5 11.5 q-83 0 -150 -31.5t-108 -84t-62.5 -116.5t-21.5 -133q0 -73 21.5 -139t62.5 -118.5t107.5 -84t150.5 -31.5q62 0 115 25.5t86 68.5q-7 11 -11 56q-38 -51 -91.5 -71.5t-98.5 -20.5q-129 0 -204 93t-75 222q0 128 81.5 218t197.5 89q124 -1 196 -77t72 -189v-201 q0 -59 17.5 -103.5t47.5 -68t63 -34.5t69 -11q28 0 59.5 11.5t62.5 35t51.5 68t20.5 102.5v283q0 123 -59 234.5t-153.5 187.5t-211.5 121t-233 45q-139 0 -266.5 -58.5t-219 -156t-146 -228t-54.5 -268.5q0 -188 93.5 -350t251 -257t339.5 -95v-86q-161 0 -304.5 63 t-245.5 170.5t-161 254.5t-59 310zM657 768q-3 -97 49.5 -165t145.5 -68q73 0 128.5 51t55.5 125v106q0 74 -49.5 123t-134.5 49q-93 0 -141.5 -60t-53.5 -161z" />
<glyph unicode="A" horiz-adv-x="1462" d="M4 0l244 600h645l37 -92h-619l-207 -508h-100zM168 0l180 451h606l37 -93h-579l-144 -358h-100zM270 657l301 742l50 -123l-211 -526h63l178 446l49 -125l-127 -321h258l39 -93h-600zM600 1470l51 125l645 -1595h-100zM713 1595h100l645 -1595h-100z" />
<glyph unicode="B" horiz-adv-x="1304" d="M166 0v1544h98v-1544h-98zM324 0v694h98v-602h246q57 0 85 1t75 6t84 19t71 36q152 102 152 272q0 88 -42 163.5t-118 112.5q-100 50 -326 50h-325v92h278h36.5h36t31 0.5t33 2.5t28 4.5t31 7t27 10t30.5 14t28 18.5q64 46 92.5 106t28.5 142q0 81 -29.5 140.5 t-84.5 94.5t-126.5 51.5t-161.5 16.5h-180v-459h180q113 0 175.5 34t62.5 122q0 154 -238 154h-121v92h121q330 0 330 -246q0 -120 -87 -184t-243 -64h-278v643h319q101 0 183.5 -23t145 -69.5t96.5 -123.5t34 -179q0 -227 -191 -332q144 -30 233 -135.5t89 -251.5 q0 -195 -143 -317q-77 -65 -162.5 -89t-198.5 -24h-405zM481 150h224q158 0 243 59q50 34 80.5 96t30.5 121q0 86 -42.5 149.5t-125.5 92.5q-79 26 -189 26h-221v-395h99v303h112q46 0 80.5 -3t73 -13.5t63.5 -29t41.5 -51.5t16.5 -79q0 -98 -70 -145q-59 -39 -192 -39h-224 v-92z" />
<glyph unicode="C" horiz-adv-x="1515" d="M74 772q0 166 63 313.5t171 252.5t257 166t316 61q140 0 275.5 -53t238.5 -148l-49 -84l-33 -55l-43 -76q-163 174 -408 174q-107 0 -205.5 -45.5t-169 -121t-112 -176.5t-41.5 -208t41 -207.5t110.5 -176.5t168.5 -121.5t208 -45.5q190 0 338 111l-33 55 q-143 -108 -311 -108q-119 0 -225.5 69t-170 183t-63.5 241t65 241.5t172.5 183.5t227.5 69v-90q-153 0 -259.5 -118t-106.5 -286q0 -169 101 -285t253 -116q107 0 186 38t158 117l119 -207q-80 -85 -199 -137.5t-244 -52.5q-128 0 -246 53t-202.5 140.5t-135 205.5 t-50.5 244t50.5 244t135 205.5t202.5 140.5t246 53q99 0 196.5 -35.5t176.5 -95.5l33 55q-87 65 -191.5 99.5t-210.5 34.5q-144 0 -274.5 -57t-224 -152t-148.5 -224t-55 -268q0 -186 93 -347t255.5 -257t353.5 -96q131 0 256 49t216 143l49 -84q-102 -95 -238 -147.5 t-276 -52.5q-167 0 -316 61t-257 165.5t-171 252t-63 313.5z" />
<glyph unicode="D" horiz-adv-x="1492" d="M166 0v1544h436q184 0 319 -41t255 -153q120 -113 182.5 -262.5t62.5 -317.5q0 -161 -60.5 -307.5t-176.5 -257.5q-121 -116 -258.5 -160.5t-323.5 -44.5h-278v1395h98v-1303h180q165 0 285.5 38.5t224.5 141.5q99 99 155 230t56 268q0 149 -57.5 282t-165.5 232 q-104 94 -224 131t-276 37h-336v-1452h-98zM481 150v92h121q135 0 227.5 34t163.5 101q160 152 160 393q0 120 -45.5 223.5t-122.5 173.5q-81 73 -164.5 104.5t-218.5 31.5h-22v-1004h-99v1096h121q152 0 261 -42t196 -122q192 -179 192 -461q0 -276 -190 -455 q-97 -91 -204.5 -128t-254.5 -37h-121z" />
<glyph unicode="E" horiz-adv-x="1144" d="M166 0v1544h844v-92h-746v-1360h746v-92h-844zM324 150v591h686v-92h-588v-407h588v-92h-686zM324 799v92h686v-92h-686zM324 948v447h686v-92h-588v-263h588v-92h-686zM481 299v293h99v-201h430v-92h-529z" />
<glyph unicode="F" horiz-adv-x="1130" d="M166 0v1544h98v-1544h-98zM324 0v1544h686v-92h-588v-561h573v-92h-573v-799h-98zM481 649v92h514v-92h-514zM481 948v447h529v-92h-430v-263h415v-92h-514z" />
<glyph unicode="G" horiz-adv-x="1656" d="M74 772q0 163 64 310t172 252.5t257 168t312 62.5q149 0 286 -51t244 -144l-49 -86q-96 90 -223.5 139.5t-264.5 49.5q-138 0 -267.5 -58t-224 -153t-151.5 -224t-57 -266q0 -188 94 -349t255.5 -256t350.5 -95q241 0 409 141t208 381h90q-53 -297 -245 -455.5 t-468 -158.5q-162 0 -309 64.5t-252.5 171.5t-168 253t-62.5 303zM236 772q0 126 50.5 244t135 205.5t202.5 140.5t246 53q127 0 253 -51.5t204 -134.5l-43 -76q-72 77 -180.5 123.5t-241.5 46.5q-107 0 -205.5 -45.5t-169 -121t-112 -176.5t-41.5 -208q0 -150 66.5 -275.5 t188 -200.5t273.5 -75q193 0 311 92.5t168 280.5h91q-24 -101 -68.5 -183t-112.5 -146.5t-165 -100t-216 -35.5q-132 0 -251 53t-202.5 141t-132 205.5t-48.5 243.5zM397 772q0 127 65 241.5t172.5 183.5t227.5 69v-90q-154 -3 -260 -120t-106 -284q0 -168 102.5 -284.5 t251.5 -116.5q208 0 285 131h-287v92h426q-9 -54 -36.5 -106t-75.5 -100.5t-127.5 -78.5t-178.5 -30q-125 0 -231.5 68t-167 181.5t-60.5 243.5zM848 651v92h737v-92h-737z" />
<glyph unicode="H" horiz-adv-x="1466" d="M166 0v1544h98v-655h879v-92h-879v-797h-98zM324 0v739h878v805h98v-1544h-98v647h-780v-647h-98zM324 946v598h98v-506h622v506h99v-598h-819zM481 498v92h662v-590h-99v498h-563z" />
<glyph unicode="I" horiz-adv-x="745" d="M166 0v1544h98v-1544h-98zM324 0v1544h98v-1452h59v1452h99v-1544h-256z" />
<glyph unicode="J" horiz-adv-x="839" d="M-92 129v233h98v-233q0 -89 58 -150t145 -61q89 0 149 58t60 155v1413h98v-1415q0 -129 -90 -216t-217 -87q-121 0 -211 87t-90 216zM66 129v233h98v-233q0 -30 13.5 -45.5t35.5 -15.5q21 0 35 16t14 45v1415h98v-1413q0 -73 -41.5 -114.5t-105.5 -41.5 q-62 0 -104.5 43.5t-42.5 110.5zM211 -231q85 0 156 32.5t115 85t68.5 115.5t24.5 127v1415h99v-1415q0 -78 -32 -157t-89 -145.5t-147 -108.5t-195 -42v93z" />
<glyph unicode="K" horiz-adv-x="1355" d="M166 0v1544h98v-1544h-98zM324 0v1544h98v-721l868 721v-119l-868 -729v-696h-98zM465 657l74 60l624 -717h-129zM481 0v535l457 -535h-127l-231 279v-279h-99zM481 948v596h99v-514zM582 756l708 592v-119l-577 -473l671 -756h-133z" />
<glyph unicode="L" horiz-adv-x="991" d="M166 0v1544h98v-1452h715v-92h-813zM324 150v1394h98v-1302h557v-92h-655zM481 299v92h498v-92h-498z" />
<glyph unicode="M" horiz-adv-x="1837" d="M18 0l277 1331l61 -151l-243 -1180h-95zM176 0l223 1071l432 -1071h-96l-305 754h-4l-156 -754h-94zM317 1436l33 159l565 -1402l572 1402l332 -1595h-95l-264 1278h-4l-538 -1329zM414 395l32 162l224 -557h-97zM1001 0l369 913l51 127l13 31l223 -1071h-94l-160 754 l-305 -754h-97z" />
<glyph unicode="N" horiz-adv-x="1685" d="M166 0v1544h98v-1544h-98zM324 0v1096l1073 -1096h-133l-842 858v-858h-98zM324 1184v133l1097 -1120v1347h99v-1544h-50zM324 1401v143l940 -964v964h98v-1202z" />
<glyph unicode="O" horiz-adv-x="1748" d="M74 772q0 213 108.5 396t293 290t398.5 107q160 0 308 -63.5t256 -170t172.5 -253t64.5 -306.5q0 -158 -61.5 -301.5t-171.5 -253.5l-66 70q94 98 147.5 223t53.5 262q0 140 -56.5 269.5t-151 224t-224.5 151t-271 56.5q-142 0 -272 -56.5t-224 -151t-150 -224 t-56 -269.5q0 -187 94.5 -348.5t256.5 -256.5t351 -95q254 0 457 172l70 -66q-108 -94 -244 -146t-283 -52q-160 0 -307.5 63t-255.5 169.5t-172.5 253t-64.5 306.5zM231 772q0 130 51.5 249t137.5 205t205 137.5t249 51.5t249 -51.5t205.5 -137.5t138 -205t51.5 -249 t-51.5 -249t-138 -205t-205.5 -137.5t-249 -51.5t-249 51.5t-205 137.5t-137.5 205t-51.5 249zM330 772q0 -145 73 -272t199 -203t272 -76q109 0 210 45t174 119.5t117 176t44 210.5t-44 210.5t-117 176t-174 119.5t-210 45q-146 0 -272 -76t-199 -203t-73 -272zM389 772 q0 -131 65 -244.5t177.5 -181t242.5 -67.5v92q-103 0 -193 56t-142 148.5t-52 196.5t52 197t142 149t193 56v92q-130 0 -242.5 -67.5t-177.5 -181.5t-65 -245z" />
<glyph unicode="P" horiz-adv-x="1265" d="M166 0v1544h98v-1544h-98zM324 0v1395h98v-1395h-98zM324 1452v92h444q98 0 184.5 -28.5t153.5 -81.5t106 -135.5t39 -184.5q0 -124 -66 -224.5t-177 -156t-242 -55.5h-127v92h94q191 0 304.5 92t113.5 252q0 91 -33.5 158t-93 105.5t-133 56.5t-162.5 18h-405zM481 0 v1395h252q155 0 250.5 -76t95.5 -205q0 -142 -96 -214.5t-250 -72.5h-94v93h94q53 0 96.5 9.5t80 31t57 60.5t20.5 93q0 97 -72 143t-182 46h-153v-1303h-99z" />
<glyph unicode="Q" horiz-adv-x="1728" d="M74 772q0 213 108.5 396t293 290t398.5 107q160 0 308 -63.5t256 -170t172.5 -253t64.5 -306.5q0 -275 -172 -485l266 -287h-122l-269 289l39 43q78 87 119 201t41 239q0 140 -56.5 269.5t-151 224t-224.5 151t-271 56.5q-142 0 -272 -56.5t-224 -151t-150 -224 t-56 -269.5q0 -187 94.5 -348.5t256.5 -256.5t351 -95q128 0 249 46t208 126l232 -244h-123l-113 119q-204 -139 -453 -139q-160 0 -307.5 63t-255.5 169.5t-172.5 253t-64.5 306.5zM231 772q0 171 88 319.5t236.5 236t318.5 87.5q127 0 246 -52t206 -138.5t139.5 -205.5 t52.5 -247q0 -174 -86 -321l-72 75q59 118 59 246q0 146 -73.5 273t-199.5 202.5t-272 75.5t-271.5 -75.5t-199 -202.5t-73.5 -273q0 -145 73 -272t199 -203t272 -76q116 0 219 47t179 131l-219 234h129l217 -232q-89 -125 -228 -198.5t-297 -73.5q-130 0 -249 51.5 t-205 137.5t-137.5 205t-51.5 249zM389 772q0 131 65 245t177.5 181.5t242.5 67.5v-92q-103 0 -193 -56t-142 -149t-52 -197q0 -169 112 -285t275 -116q50 0 99.5 11.5t75.5 33.5l-203 217h129l215 -234q-136 -120 -316 -120q-102 0 -192 38t-154.5 103.5t-101.5 157 t-37 194.5z" />
<glyph unicode="R" horiz-adv-x="1345" d="M166 0v1544h631q92 0 176.5 -27t152 -77.5t108 -131t40.5 -178.5q0 -124 -64.5 -220.5t-172.5 -147.5t-240 -51h-150l443 -711h-117l-496 803h279q193 0 305.5 84.5t112.5 242.5q0 322 -422 322h-488v-1452h-98zM324 0v1395h432q155 0 250.5 -72t95.5 -193 q0 -132 -96 -201t-250 -69h-275v385h99v-293h176q254 0 254 178q0 89 -72 131t-182 42h-334v-1303h-98zM756 659h112l416 -659h-125z" />
<glyph unicode="S" horiz-adv-x="1220" d="M47 1194h98q5 -139 51.5 -228t165.5 -147l252 -123q232 -114 232 -293q0 -113 -84.5 -192.5t-202.5 -79.5q-122 0 -213.5 71t-132.5 185l82 37q86 -201 268 -201q87 0 136 46.5t49 129.5q0 40 -17 75t-49.5 62.5t-62.5 46.5t-72 40l-246 118q-254 130 -254 453zM74 322 l86 38q52 -129 156 -208.5t243 -79.5q144 0 245 96.5t101 239.5q0 57 -15.5 105t-36 78.5t-57.5 60t-62 43.5t-68 36l-254 129q-207 106 -207 334q0 167 111 269t286 102q120 0 219.5 -52t153.5 -149l-70 -57q-53 85 -127.5 125.5t-181.5 40.5q-130 0 -211.5 -77t-81.5 -202 q0 -48 12.5 -88.5t30.5 -67.5t48.5 -52.5t55.5 -40.5t62 -34l250 -125q242 -123 242 -378q0 -122 -62.5 -221t-165 -153t-221.5 -54q-170 0 -297.5 94t-183.5 248zM362 1196q0 -84 49.5 -141t147.5 -105l256 -125q129 -63 188.5 -158.5t59.5 -254.5h98q1 19 1 38 q0 140 -60 248q-68 122 -213 191l-258 125q-87 42 -128.5 83t-41.5 99q0 64 40 96.5t97 32.5q119 0 190 -117l70 60q-96 147 -260 147q-92 0 -164 -60.5t-72 -158.5z" />
<glyph unicode="T" horiz-adv-x="937" d="M20 1303v92h340v-1395h-98v1303h-242zM20 1452v92h898v-92h-400v-1452h-98v1452h-400zM578 0v1395h340v-92h-242v-1303h-98z" />
<glyph unicode="U" horiz-adv-x="1382" d="M152 575v820h98v-824q0 -109 26.5 -199t79 -157.5t136.5 -105t194 -37.5q214 0 330.5 132t116.5 367v973h98v-969q0 -169 -65 -303.5t-190 -213t-290 -78.5q-252 0 -393 155.5t-141 439.5zM152 1452h315v-897q0 -126 48.5 -198t170.5 -78v90q-77 10 -99 50t-22 136v989 h-413v-92zM309 569v826h99v-834q0 -340 278 -340q134 0 211.5 94t77.5 246v983h98v-979q0 -192 -102.5 -314t-284.5 -122q-181 0 -279 117t-98 323z" />
<glyph unicode="V" horiz-adv-x="1277" d="M0 1544h100l459 -1319h4l457 1319h98l-543 -1544h-36zM160 1544h100l305 -874h4l291 874h101l-398 -1147zM643 0l535 1544h98l-543 -1544h-90z" />
<glyph unicode="W" horiz-adv-x="2224" d="M6 1544h98l431 -1327l32 82l-401 1245h98l404 -1237l-127 -307h-39zM465 1098h98l152 -432l350 837h98l529 -1286l428 1327h98l-504 -1544h-37l-491 1186l-488 -1186h-94l535 1300l-31 76l-408 -981zM1135 905l374 -905h105l-428 1038zM1225 1503l461 -1114l376 1155h-98 l-283 -891l-350 850h-106z" />
<glyph unicode="X" horiz-adv-x="1349" d="M18 0l426 788l-407 756h108l404 -756l-424 -788h-107zM195 0l421 788l-405 756h108l355 -663l354 663h109l-404 -756l424 -788h-106l-377 698l-373 -698h-106zM367 0h106l254 477l-53 96zM621 1104l235 440h109l-289 -543zM799 788l403 756h109l-406 -756l426 -788h-106z " />
<glyph unicode="Y" horiz-adv-x="1400" d="M-20 1544h108l520 -893v-651h-98v633zM154 1544h108l455 -782l454 782h109l-514 -885v-659h-98v659zM328 1544h108l334 -575l-53 -97zM825 0v651l518 893h109l-528 -911v-633h-99z" />
<glyph unicode="Z" horiz-adv-x="1390" d="M20 0l719 1303h-553v92h725l-727 -1303h1080v-92h-1244zM186 1452v92h1000l-731 -1302h71l723 1302h117l-729 -1302h633v-92h-985l731 1302h-830z" />
<glyph unicode="[" horiz-adv-x="614" d="M133 -416v1960h506v-92h-408v-1776h408v-92h-506zM291 -266v1661h348v-92h-250v-1477h250v-92h-348z" />
<glyph unicode="\" horiz-adv-x="1310" d="M33 1589l71 37l1053 -1587l-76 -39zM158 1653l71 37l1053 -1588l-76 -39z" />
<glyph unicode="]" horiz-adv-x="614" d="M-25 -174h250v1477h-250v92h349v-1661h-349v92zM-25 -324h408v1776h-408v92h506v-1960h-506v92z" />
<glyph unicode="^" d="M111 616l471 928h106l471 -928h-94l-430 836l-428 -836h-96zM274 616l361 713l360 -713h-94l-266 517l-264 -517h-97z" />
<glyph unicode="_" horiz-adv-x="1024" d="M0 -231h1024v-105h-1024v105zM0 -393h1024v-99h-1024v99z" />
<glyph unicode="`" horiz-adv-x="641" d="M88 1462h117l241 -336h-116zM289 1462h117l241 -336h-117z" />
<glyph unicode="a" horiz-adv-x="1273" d="M66 479q0 211 127 349.5t337 138.5q228 0 367 -187v166h92v-440h-92q-9 164 -109.5 269.5t-257.5 105.5q-108 0 -194.5 -58t-132 -149.5t-45.5 -194.5q0 -169 103 -291t269 -122q157 0 257.5 107.5t109.5 275.5h92v-449h-92v188q-150 -208 -367 -208q-140 0 -246.5 67.5 t-162 180t-55.5 251.5zM217 479q0 147 92.5 245.5t220.5 98.5q127 0 216.5 -99t89.5 -247q0 -159 -88 -256.5t-218 -97.5q-129 0 -221 100.5t-92 255.5zM309 479q0 -121 63 -195.5t158 -74.5q94 0 153.5 73.5t59.5 194.5q0 114 -60 187t-153 73q-95 0 -158 -72.5t-63 -185.5 zM1049 0v946h92v-946h-92z" />
<glyph unicode="b" horiz-adv-x="1155" d="M133 0v1690h92v-1217q0 -168 108.5 -287.5t278.5 -119.5q168 0 276.5 122.5t108.5 290.5q0 103 -50 195t-139.5 149.5t-195.5 57.5q-108 0 -198 -56t-129 -133v998h92v-801q35 32 99 55t136 23q210 0 344 -139.5t134 -348.5q0 -137 -60 -251t-170.5 -181t-247.5 -67 q-125 0 -234 61t-153 156v-197h-92zM285 479q0 146 98.5 245t228.5 99q129 0 227.5 -101t98.5 -243q0 -157 -97 -256.5t-229 -99.5q-84 0 -158.5 44t-121.5 127t-47 185zM377 479q0 -120 69 -195t166 -75q96 0 165 75.5t69 194.5q0 107 -70 182.5t-164 75.5 q-96 0 -165.5 -73.5t-69.5 -184.5z" />
<glyph unicode="c" horiz-adv-x="995" d="M68 475q0 217 138.5 354.5t364.5 137.5q204 0 351 -125l-48 -80q-67 58 -137 88.5t-166 30.5q-183 0 -297 -116.5t-114 -289.5t116 -291t295 -118q85 0 171 32.5t147 89.5l47 -75q-71 -62 -169.5 -97.5t-195.5 -35.5q-227 0 -365 138t-138 357zM219 477q0 147 98.5 246.5 t253.5 99.5q83 0 146.5 -28t128.5 -80l-45 -78q-103 100 -230 100q-125 0 -192.5 -71t-67.5 -189q0 -120 67.5 -194t192.5 -74q144 0 250 96l41 -72q-47 -47 -123.5 -78.5t-167.5 -31.5q-158 0 -255 100t-97 254z" />
<glyph unicode="d" horiz-adv-x="1122" d="M33 479q0 209 133.5 348.5t343.5 139.5q72 0 136 -23t99 -55v801h93v-998q-39 77 -129.5 133t-198.5 56q-106 0 -195.5 -57.5t-139.5 -149.5t-50 -195q0 -168 108.5 -290.5t276.5 -122.5q170 0 278.5 119.5t108.5 287.5v1217h92v-1690h-92v197q-44 -95 -153 -156 t-234 -61q-137 0 -247 67t-170 181t-60 251zM184 479q0 142 98.5 243t227.5 101q130 0 229 -99.5t99 -244.5q0 -153 -98.5 -254.5t-229.5 -101.5q-132 0 -229 99.5t-97 256.5zM276 479q0 -119 69 -194.5t165 -75.5q97 0 166 75t69 195q0 111 -69.5 184.5t-165.5 73.5 q-94 0 -164 -75.5t-70 -182.5z" />
<glyph unicode="e" horiz-adv-x="1060" d="M66 475q0 132 59 244t167.5 180t242.5 68q105 0 193 -40t146 -109t90 -160q31 -88 31 -187v-6h-684v-11q-1 -95 67 -167q72 -76 169 -76q81 0 134.5 40t80.5 103l78 -45q-48 -96 -126 -141t-167 -45q-139 0 -234.5 104.5t-95.5 247.5q0 138 90.5 243t227.5 105 q105 0 181.5 -59.5t106.5 -155.5h-100q-20 60 -70 94.5t-116 34.5q-86 0 -146.5 -51t-66.5 -135h579q-18 135 -121 232.5t-245 97.5q-73 0 -141 -29t-121 -80.5t-85 -129t-32 -167.5q0 -178 111.5 -293.5t277.5 -115.5q108 0 198 58.5t142 156.5l78 -45q-64 -122 -177 -189 t-253 -67q-137 0 -245 68t-166 180.5t-58 246.5z" />
<glyph unicode="f" horiz-adv-x="557" d="M57 860v86h105v424q0 164 39 232q31 56 87 85t122 29q44 0 82 -14v-84q-8 1 -23.5 4.5t-28 5.5t-24.5 2q-33 0 -59 -10t-43 -24t-29 -38.5t-18 -45.5t-9 -53.5t-3.5 -53t-0.5 -53.5v-406h313v-86h-313v-860h-92v860h-105zM313 0v803h254v-86h-161v-717h-93zM313 1004v339 q0 118 17 164q26 65 88 66q45 0 74 -10v-76q-16 4 -48 4q-24 0 -31 -30.5t-7 -133.5v-323h-93z" />
<glyph unicode="g" horiz-adv-x="1146" d="M66 479q0 133 62 244.5t171.5 177.5t241.5 66q130 0 230 -59.5t147 -151.5h4v190h92v-889q0 -113 -14.5 -203t-48 -165t-86 -124.5t-130 -76.5t-178.5 -27q-189 0 -307 117.5t-129 312.5h92q8 -152 99.5 -248t244.5 -96q201 0 283 116t82 370v456q0 105 -46.5 194 t-134.5 143.5t-200 54.5q-161 0 -272 -122t-111 -280q0 -109 47 -203t136 -152t200 -58q69 0 131 25.5t102 68.5v84q-32 -51 -97 -86t-136 -35q-130 0 -227 101t-97 255q0 146 97.5 245t226.5 99q132 0 226.5 -100t94.5 -264v-457q0 -397 -305 -397q-117 0 -197 77t-84 209 h93q0 -90 52.5 -145t135.5 -55q112 0 164.5 63.5t52.5 206.5v107q-35 -35 -102 -61.5t-131 -26.5q-207 0 -341 145t-134 354zM309 479q0 -120 67.5 -195t164.5 -75t163 67.5t70 186.5v29q-1 109 -70 177t-163 68q-96 0 -164 -73t-68 -185z" />
<glyph unicode="h" horiz-adv-x="1130" d="M133 0v1690h92v-1690h-92zM285 0v492q0 98 47.5 175.5t115.5 116.5t140 39q95 0 163 -62.5t68 -189.5v-571h-92v588q0 71 -41.5 110t-97.5 39q-83 0 -148 -62.5t-65 -180.5v-494h-90zM285 690v1000h92v-793h4q93 70 207 70q190 0 287.5 -108.5t97.5 -321.5v-537h-92v555 q0 148 -72.5 237t-220.5 89q-105 0 -185.5 -59t-117.5 -132z" />
<glyph unicode="i" horiz-adv-x="595" d="M119 1221q0 73 52.5 125.5t127.5 52.5q73 0 125.5 -53t52.5 -125q0 -75 -52 -128t-126 -53q-75 0 -127.5 53t-52.5 128zM178 0v946h92v-946h-92zM211 1221q0 -37 25.5 -62.5t62.5 -25.5t62.5 25.5t25.5 62.5q0 36 -26 62t-62 26t-62 -26t-26 -62zM330 0v946h92v-946h-92z " />
<glyph unicode="j" horiz-adv-x="606" d="M-172 -109h92v-102q0 -123 60.5 -182.5t150.5 -59.5q116 0 162.5 78t46.5 221v1100h92v-1075q0 -87 -15.5 -157.5t-49 -129t-93.5 -91t-143 -32.5q-141 0 -222 85.5t-81 256.5v88zM-16 -109h92v-131q0 -32 15 -50.5t40 -18.5q57 0 57 84v1171h93v-1136q0 -41 -7.5 -75.5 t-23.5 -65t-46.5 -47.5t-72.5 -17q-56 0 -101.5 42t-45.5 126v118zM129 1221q0 73 52.5 125.5t127.5 52.5q73 0 125.5 -53t52.5 -125q0 -75 -52 -128t-126 -53q-75 0 -127.5 53t-52.5 128zM221 1221q0 -37 25.5 -62.5t62.5 -25.5t62.5 25.5t25.5 62.5q0 36 -26 62t-62 26 t-62 -26t-26 -62z" />
<glyph unicode="k" horiz-adv-x="1064" d="M133 0v1690h92v-1690h-92zM285 0v1690h92v-1145l389 401h119l-508 -526v-420h-92zM461 424l61 63l379 -487h-121zM563 528l404 418h118l-401 -418l397 -528h-102z" />
<glyph unicode="l" horiz-adv-x="509" d="M133 0v1690h92v-1690h-92zM285 0v1690h92v-1690h-92z" />
<glyph unicode="m" horiz-adv-x="1445" d="M133 0h92v543q0 163 69.5 250.5t203.5 87.5q89 0 137 -39q21 33 55 67q-33 27 -88 42.5t-104 15.5q-96 0 -160.5 -35t-108.5 -111h-4v125h-92v-946zM285 0v541q0 143 57 212.5t156 69.5q44 0 90 -22t67 -56q27 99 114.5 160.5t193.5 61.5q168 0 259 -88.5t91 -231.5v-647 h-92v633q0 116 -65.5 182t-188.5 66q-115 0 -183.5 -74t-68.5 -199v-608h-92v559q0 84 -32 131t-93 47q-26 0 -45.5 -7.5t-38.5 -27.5t-29 -61t-10 -102v-539h-90zM774 0v596q0 109 54 168t139 59q82 0 138 -50.5t56 -147.5v-625h-92v612q0 65 -29.5 95t-72.5 30 q-46 0 -74.5 -34.5t-28.5 -106.5v-596h-90z" />
<glyph unicode="n" horiz-adv-x="1132" d="M135 0v946h92v-946h-92zM287 0v946h92v-145h4q38 78 116 122t175 44q172 0 248.5 -96.5t76.5 -282.5v-588h-92v588q0 67 -10 116t-35 91t-74 64t-122 22q-79 0 -136 -31t-89 -87.5t-47 -124.5t-15 -151v-487h-92zM438 0v504q0 166 64 242.5t157 76.5t141 -53t48 -182 v-588h-92v588q0 90 -28 119.5t-75 29.5q-50 0 -87.5 -46.5t-37.5 -145.5v-545h-90z" />
<glyph unicode="o" horiz-adv-x="1130" d="M74 471q0 134 66.5 248.5t179.5 181t245 66.5q213 0 352.5 -141t139.5 -353q0 -206 -142 -349.5t-350 -143.5q-136 0 -247.5 59.5t-177.5 172.5t-66 259zM166 471q0 -182 112.5 -293.5t286.5 -111.5q169 0 284.5 116.5t115.5 288.5q0 176 -113 293t-287 117 q-167 0 -283 -122t-116 -288zM225 471q0 151 101 251.5t239 100.5q139 0 239.5 -99t100.5 -253q0 -101 -50.5 -182.5t-127.5 -123.5t-162 -42q-141 0 -240.5 95.5t-99.5 252.5zM317 471q0 -126 70.5 -194t177.5 -68q99 0 173.5 72t74.5 190q0 120 -71 193t-177 73 q-103 0 -175.5 -75t-72.5 -191z" />
<glyph unicode="p" horiz-adv-x="1155" d="M133 -510v1456h92v-201q56 106 158.5 164t228.5 58q137 0 247.5 -67.5t170.5 -181.5t60 -251q0 -209 -134 -348t-344 -139q-72 0 -136 22.5t-99 54.5v-567h-92v764q39 -77 129 -132.5t198 -55.5q106 0 195.5 57t139.5 149t50 195q0 168 -108.5 291t-276.5 123 q-170 0 -278.5 -120t-108.5 -288v-983h-92zM285 467q0 102 47 185t121.5 127t158.5 44q132 0 229 -99.5t97 -256.5q0 -142 -98.5 -243t-227.5 -101q-130 0 -228.5 99t-98.5 245zM377 467q0 -111 69.5 -184.5t165.5 -73.5q94 0 164 75.5t70 182.5q0 119 -69 194.5t-165 75.5 q-97 0 -166 -75t-69 -195z" />
<glyph unicode="q" horiz-adv-x="1155" d="M66 467q0 137 60 251t170 181.5t247 67.5q126 0 228.5 -58t158.5 -164v201h92v-1456h-92v983q0 168 -108.5 288t-278.5 120q-168 0 -276.5 -123t-108.5 -291q0 -103 50 -195t139.5 -149t195.5 -57q108 0 198 55.5t129 132.5v-764h-92v567q-35 -32 -99 -54.5t-136 -22.5 q-210 0 -343.5 139t-133.5 348zM217 467q0 157 97 256.5t229 99.5q84 0 158.5 -44t121.5 -127t47 -185q0 -146 -98.5 -245t-228.5 -99q-129 0 -227.5 101t-98.5 243zM309 467q0 -107 70 -182.5t164 -75.5q96 0 165.5 73.5t69.5 184.5q0 120 -69 195t-166 75 q-96 0 -165 -75.5t-69 -194.5z" />
<glyph unicode="r" horiz-adv-x="638" d="M133 0v946h92v-123h4q29 67 82.5 105.5t126.5 38.5q65 0 126.5 -24t103.5 -58l-50 -82q-28 22 -46 34.5t-56 28t-74 15.5q-217 0 -217 -363v-518h-92zM285 0v504q0 175 38 247t123 72q79 0 144 -69l-37 -74q-52 61 -104 61q-28 0 -42.5 -17t-23 -73t-8.5 -164l2 -487h-92 z" />
<glyph unicode="s" horiz-adv-x="829" d="M57 727h95q0 -87 47 -152t159 -112q15 -6 48.5 -19t49 -19.5t42 -19.5t40 -24.5t29 -27.5t22 -35.5t7.5 -43.5v-7q0 -61 -48 -101q-52 -42 -122 -43q-74 0 -130.5 47t-74.5 113l88 28q8 -39 38.5 -72.5t80.5 -33.5q30 0 53 15.5t23 43.5q0 23 -21 41.5t-47.5 28.5t-71 26 t-71.5 29q-236 112 -236 338zM76 233l90 29q27 -87 97.5 -141.5t162.5 -54.5t164 65q65 59 66 142q0 8 -1 16q-6 70 -54.5 113.5t-135.5 76.5q-119 43 -162 72q-92 62 -92 176q0 106 69 173t173 67q75 0 141.5 -39.5t107.5 -114.5l29 -51l-76 -51l-28 55q-28 55 -76.5 85 t-101.5 30q-50 0 -87 -25.5t-51 -67.5q45 39 111 39q48 0 91 -24.5t69 -75.5l22 -43l-76 -51l-22 43q-19 35 -43.5 50t-63.5 15q-29 0 -56.5 -15.5t-37.5 -33.5q7 -22 20 -38.5t35.5 -29t41.5 -20.5t52.5 -20.5t53.5 -20.5q119 -51 175.5 -106.5t64.5 -155.5q1 -14 2 -27 q0 -77 -40 -141q-46 -75 -122 -114t-162 -39q-121 0 -221 70t-129 183z" />
<glyph unicode="t" horiz-adv-x="626" d="M63 860v86h105v338h92v-338h303v-86h-303v-860h-92v860h-105zM319 0v803h244v-86h-151v-717h-93zM319 1004h93v280h-93v-280z" />
<glyph unicode="u" horiz-adv-x="987" d="M113 385v561h92v-551q0 -57 8 -104t28.5 -90t52.5 -72t83 -46t117 -17q82 0 140 25t89.5 72t45 103t13.5 129v551h92v-561q0 -192 -103.5 -298.5t-276.5 -106.5q-170 0 -275.5 104.5t-105.5 300.5zM264 362v584h92v-624q0 -47 43 -80t93 -33q52 0 95.5 31t43.5 82v624h92 v-584q0 -64 -21.5 -112t-57 -74.5t-74 -39.5t-78.5 -13q-41 0 -79.5 13t-73 39.5t-55 74.5t-20.5 112z" />
<glyph unicode="v" horiz-adv-x="1026" d="M2 946h94l342 -780l336 780h94l-409 -946h-45zM160 946h94l231 -524l-51 -113zM522 0l408 946h94l-410 -946h-92z" />
<glyph unicode="w" horiz-adv-x="1523" d="M2 946h94l334 -776l313 776h41l316 -776l327 776h95l-406 -946h-43l-233 571l-240 -571h-92l285 684l-33 82l-311 -766h-43zM160 946h94l217 -526l-51 -113zM840 946h94l166 -403l166 403h94l-260 -639z" />
<glyph unicode="x" horiz-adv-x="1050" d="M0 0l373 500l-342 446h110l340 -446l-372 -500h-109zM184 0l373 500l-342 446h111l290 -383l291 383h111l-340 -446l373 -500h-109l-326 434l-43 -57l281 -377h-109l-225 305l-227 -305h-109zM561 725l164 221h111l-220 -291z" />
<glyph unicode="y" horiz-adv-x="942" d="M-14 946h96l324 -678l284 678h96l-628 -1485h-95l295 699zM145 946h95l209 -414l-52 -112zM219 -539l629 1485h94l-629 -1485h-94z" />
<glyph unicode="z" horiz-adv-x="929" d="M2 0l451 717h-367v86h535l-517 -803h-102zM86 860v86h815l-465 -717h488v-86h-543l-37 -57h580v-86h-748l559 860h-649z" />
<glyph unicode="{" horiz-adv-x="614" d="M84 522v90q80 56 114.5 104.5t34.5 131.5v360q0 181 66.5 258.5t237.5 77.5h149v-92h-149q-111 0 -158 -46.5t-47 -156.5v-344q0 -100 -18.5 -164.5t-47.5 -98.5t-84 -71v-10q40 -26 65.5 -51t46 -64t29.5 -94.5t9 -134.5v-338q0 -110 47 -156.5t158 -46.5h149v-92h-149 q-171 0 -237.5 77.5t-66.5 258.5v361q0 83 -35 133.5t-114 107.5zM276 559v8q66 46 90.5 112.5t24.5 164.5v395q0 156 148 156h149v-92h-149q-23 0 -36.5 -16t-13.5 -40v-346q0 -151 -22.5 -224.5t-75.5 -113.5v-2q52 -36 75 -114t23 -234v-332q0 -24 13.5 -39.5t36.5 -15.5 h149v-92h-149q-148 0 -148 155v385q0 99 -24.5 168t-90.5 117z" />
<glyph unicode="|" horiz-adv-x="813" d="M279 0v1595h98v-1595h-98zM436 0v1595h99v-1595h-99z" />
<glyph unicode="}" horiz-adv-x="614" d="M-74 -174h150q23 0 36 15.5t13 39.5v332q0 156 23 234t75 114v2q-53 40 -75.5 113.5t-22.5 224.5v346q0 24 -13 40t-36 16h-150v92h150q147 0 147 -156v-395q0 -98 24.5 -164.5t90.5 -112.5v-8q-66 -48 -90.5 -117t-24.5 -168v-385q0 -80 -37 -117.5t-110 -37.5h-150v92z M-72 -324h150q111 0 158 46.5t47 156.5v338q0 104 18 170.5t47.5 103t83.5 70.5v10q-54 37 -83.5 71t-47.5 98.5t-18 164.5v344q0 110 -47 156.5t-158 46.5h-150v92h150q171 0 237 -77t66 -259v-360q0 -83 34.5 -131.5t114.5 -104.5v-90q-79 -57 -114 -107.5t-35 -133.5 v-361q0 -182 -66 -259t-237 -77h-150v92z" />
<glyph unicode="~" horiz-adv-x="1212" d="M133 367v139q42 43 80 65.5t90 22.5q71 0 135 -27l250 -106q67 -33 156 -33q22 0 42 4t33.5 9t29.5 15t23.5 16t23 19t20.5 17v-123q-90 -63 -172 -63q-110 0 -197 40l-248 107q-47 20 -96 20q-46 0 -91.5 -32t-78.5 -90zM133 573v115q74 70 170 70q103 0 199 -41 l250 -103q57 -24 92 -24q102 0 172 125v-140q-29 -30 -48 -46.5t-52 -30t-72 -13.5q-63 0 -133 31l-248 105q-73 30 -160 30q-22 0 -41.5 -4t-33 -8.5t-29.5 -14.5t-23 -15.5t-22.5 -18.5t-20.5 -17z" />
<glyph unicode="&#xa2;" d="M199 791q0 178 99 305.5t267 167.5v256h99v-326q-167 -13 -270 -126.5t-103 -276.5t104.5 -279t268.5 -129v-352h-99v280q-170 40 -268 168.5t-98 311.5zM350 793q0 146 100.5 246t251.5 100q83 0 146 -28.5t129 -80.5l-45 -78q-104 101 -230 101q-121 0 -190.5 -73.5 t-69.5 -186.5q0 -115 69 -192t189 -77q145 0 252 97l41 -72q-47 -47 -123.5 -79t-167.5 -32q-153 0 -252.5 102.5t-99.5 252.5zM723 31v350q81 5 161 37.5t136 85.5l45 -78q-99 -86 -244 -119v-276h-98zM723 1196v324h98v-250q121 -25 230 -113l-47 -80q-64 56 -129 86 t-152 33z" />
<glyph unicode="&#xa3;" d="M131 59q51 59 126.5 97t148.5 37q57 48 93 120t29 142h-223v92h322v-103q0 -72 -29.5 -148t-79.5 -126l21 -6q13 -4 86.5 -32t127 -44t85.5 -16q68 0 124 48.5t93 119.5l84 -50q-48 -88 -124.5 -149t-164.5 -61q-79 0 -232 61q-148 59 -208 59q-62 0 -115 -32t-109 -88z M236 1188q0 165 119 271t286 106q169 0 283.5 -120.5t109.5 -287.5h-98q2 136 -84 226t-223 90q-123 0 -209 -85.5t-86 -205.5q0 -43 15 -92t31 -81t44 -81l180 -324h-299v92h139l-102 174q-53 91 -79.5 162t-26.5 156zM393 1178q0 102 68.5 169.5t167.5 67.5q60 0 106 -18 t73 -45t44 -63t22.5 -68t4.5 -64h-99q0 166 -151 166q-140 0 -140 -149q0 -57 64 -158q41 -65 101.5 -178t76.5 -142h295v-92h-354l-197 354q-50 87 -66 127.5t-16 92.5zM621 203q65 84 65 241v103h340v-92h-246q0 -132 -28 -197q36 -20 86 -20q29 0 52 22.5t32 56.5l84 -49 q-37 -67 -77 -96t-91 -31q-66 -2 -217 62z" />
<glyph unicode="&#xa5;" horiz-adv-x="1400" d="M-20 1544h108l426 -731h-330v92h168zM154 1544h108l455 -782l454 782h109l-514 -885v-659h-98v659zM184 367v92h424v-459h-98v367h-326zM184 516v92h326v25l-16 31h-310v92h363l61 -105v-135h-424zM328 1544h108l334 -575l-53 -97zM825 0v459h424v-92h-325v-367h-99z M825 516v135l60 105h364v-92h-307l-18 -31v-25h325v-92h-424zM920 813l423 731h109l-369 -639h166v-92h-329z" />
<glyph unicode="&#xa6;" horiz-adv-x="655" d="M201 0v672h98v-672h-98zM201 1018v672h98v-672h-98zM358 0v672h99v-672h-99zM358 1018v672h99v-672h-99z" />
<glyph unicode="&#xa7;" d="M260 578q0 123 62 225t170 147q-105 52 -151 116t-46 175q0 153 101 238.5t257 85.5q327 0 342 -371h-98q-2 135 -61.5 207t-192.5 72q-109 0 -179.5 -65t-70.5 -169q0 -154 117 -201l321 -127q54 -20 54 -77q0 -30 -29 -72q-37 55 -95 86t-126 31q-115 0 -196 -84 t-81 -211q0 -82 43 -150l-10 -10l-13.5 -13.5t-12 -14.5t-12.5 -19t-7.5 -20.5t-3.5 -24.5q0 -75 57 -103q46 -23 161 -66.5t163 -64.5q63 -28 91 -66t28 -110q0 -69 -49 -121.5t-160 -52.5q-187 0 -187 209v20h99v-26q0 -61 19.5 -86t70.5 -25q57 0 82.5 21.5t25.5 75.5 q0 24 -16 43.5t-49 36t-64.5 28.5t-83 29.5t-84.5 31.5q-139 57 -182.5 141.5t23.5 190.5q-27 69 -27 140zM295 -23h98v-26q2 -129 57.5 -191.5t182.5 -62.5q121 0 192.5 58.5t71.5 181.5q0 80 -40 126t-114 78q-41 19 -145.5 59t-161.5 68q-39 19 -39 66q0 34 33 63 q86 -96 205 -96q110 0 192 85t82 198q0 74 -28 135q48 59 55 115q7 44 -10 74t-74 53l-315 124q-91 37 -91 154q0 30 10 59t31 56.5t61.5 44t94.5 16.5q106 0 152.5 -58t46.5 -143v-20h-99v27q0 58 -23.5 80t-78.5 22q-51 0 -73.5 -21t-22.5 -67q0 -17 8.5 -33t26.5 -30 t38 -25t50.5 -24t55 -22t61.5 -22.5t61 -23.5q144 -58 174.5 -131.5t-31.5 -208.5q19 -62 19 -137q0 -116 -63 -209.5t-169 -145.5q219 -84 219 -301q0 -105 -50 -178t-130 -106t-184 -33q-181 0 -260 87.5t-76 264.5v20zM418 584q0 103 64.5 170t152.5 67q87 0 151 -66 t64 -171q0 -92 -65 -159t-150 -67q-87 0 -152 65t-65 161zM516 584q0 -56 35.5 -93.5t83.5 -37.5q47 0 82 38t35 93q0 64 -34.5 102.5t-82.5 38.5q-49 0 -84 -38.5t-35 -102.5z" />
<glyph unicode="&#xa8;" horiz-adv-x="862" d="M47 1294q0 72 51.5 124t126.5 52q73 0 124.5 -52t51.5 -124q0 -75 -51 -126.5t-125 -51.5q-75 0 -126.5 51.5t-51.5 126.5zM137 1294q0 -35 26.5 -61.5t61.5 -26.5t61.5 26.5t26.5 61.5q0 34 -26.5 61t-61.5 27t-61.5 -27t-26.5 -61zM459 1294q0 72 51.5 124t126.5 52 q73 0 124.5 -52t51.5 -124q0 -75 -51 -126.5t-125 -51.5q-75 0 -126.5 51.5t-51.5 126.5zM549 1294q0 -35 26.5 -61.5t61.5 -26.5t61.5 26.5t26.5 61.5q0 34 -26.5 61t-61.5 27t-61.5 -27t-26.5 -61z" />
<glyph unicode="&#xa9;" horiz-adv-x="1638" d="M27 772q0 161 63.5 307.5t170 253t254 169.5t308.5 63t307 -63t251.5 -169t168 -252t62.5 -307t-62.5 -308t-168 -253.5t-251.5 -169.5t-307 -63q-216 0 -399 106t-290 288.5t-107 397.5zM125 772q0 -143 55 -272t148.5 -221.5t222.5 -146.5t272 -54q142 0 270 54.5 t220 147.5t146 222t54 272q0 142 -54 270t-146 220.5t-220 147t-270 54.5q-143 0 -272 -54.5t-222.5 -147.5t-148.5 -221.5t-55 -270.5zM180 772q0 130 51.5 249t137.5 205t205 137.5t249 51.5t249 -51.5t205 -137.5t137.5 -205t51.5 -249t-51.5 -249t-137.5 -205 t-205 -137.5t-249 -51.5t-249 51.5t-205 137.5t-137.5 205t-51.5 249zM279 772q0 -147 73 -272.5t198.5 -199t272.5 -73.5t272.5 73.5t199 199t73.5 272.5t-73.5 272.5t-199 199t-272.5 73.5t-272.5 -73.5t-198.5 -199t-73 -272.5zM338 772q0 130 62.5 242t174.5 179t248 67 q191 0 340 -127l-47 -80q-70 61 -134.5 91t-158.5 30q-177 0 -285 -115.5t-108 -286.5q0 -104 49.5 -196t141 -148.5t202.5 -56.5q91 0 172.5 40t141.5 103l45 -78q-62 -62 -160 -106.5t-199 -44.5q-140 0 -252 66.5t-172.5 177.5t-60.5 243zM489 772q0 147 94 245.5 t240 98.5q82 0 140 -27.5t127 -82.5l-46 -78q-105 102 -221 102t-178.5 -72t-62.5 -186q0 -107 65 -182.5t176 -75.5q133 0 246 117l41 -72q-124 -131 -287 -131q-143 0 -238.5 101.5t-95.5 242.5z" />
<glyph unicode="&#xab;" horiz-adv-x="1204" d="M86 655l242 336h116l-241 -336l241 -336h-116zM287 655l241 336h117l-242 -336l242 -336h-117zM557 655l242 336h116l-241 -336l241 -336h-116zM758 655l241 336h117l-242 -336l242 -336h-117z" />
<glyph unicode="&#xad;" horiz-adv-x="389" d="M-98 535v92h585v-92h-585zM-98 684v92h585v-92h-585z" />
<glyph unicode="&#xae;" horiz-adv-x="1638" d="M23 772q0 213 108.5 396t293 290t398.5 107q160 0 306.5 -63.5t253 -170t170 -253t63.5 -306.5t-63.5 -306.5t-170 -253t-253 -169.5t-306.5 -63t-307.5 63t-255.5 169.5t-172.5 253t-64.5 306.5zM121 772q0 -187 94.5 -348.5t256.5 -256.5t351 -95q141 0 271 56 t224.5 150.5t151 224t56.5 269.5t-56.5 269.5t-151 224t-224.5 151t-271 56.5q-142 0 -272 -56.5t-224 -151t-150 -224t-56 -269.5zM180 772q0 164 79.5 306.5t213.5 230.5v-1076q-135 89 -214 232t-79 307zM279 772q0 -167 96 -309v616q-96 -138 -96 -307zM532 199v884h316 q71 0 124.5 -44t53.5 -105q0 -74 -54 -114t-120 -40h-221v-57h239l330 -471q-167 -123 -377 -123q-157 0 -291 70zM532 1141v202q138 72 291 72q130 0 249 -51.5t205 -137.5t137.5 -205t51.5 -249q0 -142 -58.5 -267t-162.5 -216l-309 448q63 15 106 66t43 131 q0 97 -63.5 152t-171.5 55h-318zM631 258q87 -37 192 -37q77 0 130 10.5t108 42.5l-242 351h-188v-367zM631 879h221q32 0 53 15t21 40q0 21 -21.5 36t-54.5 15h-219v-106zM631 1239h243q131 0 221.5 -91.5t90.5 -213.5q0 -75 -33 -133t-78 -84l191 -271q50 60 76 149 t26 177q0 109 -44 210.5t-117 176t-174 119.5t-210 45q-105 0 -192 -37v-47z" />
<glyph unicode="&#xaf;" horiz-adv-x="933" d="M55 1196v277h822v-277h-822zM154 1288h624v92h-624v-92z" />
<glyph unicode="&#xb0;" horiz-adv-x="819" d="M66 1260q0 138 101.5 238.5t240.5 100.5q138 0 239 -100.5t101 -238.5q0 -139 -101 -240.5t-239 -101.5q-140 0 -241 101t-101 241zM158 1260q0 -106 72 -178t178 -72q104 0 176.5 72t72.5 178q0 104 -72.5 176.5t-176.5 72.5q-106 0 -178 -72.5t-72 -176.5zM229 1260 q0 73 52.5 125.5t126.5 52.5t126 -52t52 -126t-52.5 -126.5t-125.5 -52.5q-74 0 -126.5 52.5t-52.5 126.5zM311 1260q0 -40 28.5 -68.5t68.5 -28.5t68 28.5t28 68.5t-28 68t-68 28t-68.5 -28t-28.5 -68z" />
<glyph unicode="&#xb1;" d="M111 0v104h1048v-104h-1048zM111 162v104h1048v-104h-1048zM111 555v104h495v-344h-98v240h-397zM111 717v104h397v230h98v-334h-495zM666 315v344h493v-104h-395v-240h-98zM666 717v334h98v-230h395v-104h-493z" />
<glyph unicode="&#xb2;" horiz-adv-x="761" d="M16 1157q0 184 92 296t250 112q159 0 248.5 -96.5t89.5 -247.5q0 -156 -139 -316l-33 -37h219v-92h-407l137 160q125 144 125 285q0 115 -62.5 183.5t-177.5 68.5q-125 0 -186.5 -87t-56.5 -229h-99zM25 627h718v92h-536l221 264q111 132 111 238q0 85 -45.5 139.5 t-135.5 54.5q-94 0 -140.5 -68.5t-43.5 -189.5h98q-3 85 17 125.5t69 40.5q42 0 62 -30t20 -72q0 -40 -17.5 -84t-74.5 -113z" />
<glyph unicode="&#xb4;" horiz-adv-x="641" d="M88 1126l242 336h116l-241 -336h-117zM289 1126l241 336h117l-241 -336h-117z" />
<glyph unicode="&#xb5;" horiz-adv-x="966" d="M113 -539v1485h92v-1485h-92zM264 174q79 -108 230 -108q82 0 140 25t89.5 72t45 103t13.5 129v551h92v-561q0 -192 -103.5 -298.5t-276.5 -106.5q-91 0 -138 28v-547h-92v713zM264 362v584h92v-624q0 -47 43 -80t93 -33q52 0 95.5 31t43.5 82v624h92v-584 q0 -64 -21.5 -112t-57 -74.5t-74 -39.5t-78.5 -13q-41 0 -79.5 13t-73 39.5t-55 74.5t-20.5 112z" />
<glyph unicode="&#xb6;" horiz-adv-x="1366" d="M47 1124q0 95 36 175t96.5 133t139.5 82.5t164 29.5h750v-92h-705q-173 0 -277 -79.5t-104 -248.5q0 -154 99.5 -243.5t277.5 -89.5h47v-1156h-98v1063q-185 3 -305.5 124t-120.5 302zM219 1124q0 123 81 197t224 74h205v-1760h-98v1668h-107q-97 0 -155 -44t-58 -135 q0 -101 56.5 -142.5t156.5 -41.5h47v-92h-47q-140 0 -222.5 70.5t-82.5 205.5zM868 -365v1760h99v-1760h-99zM1026 -365v1760h98v-1760h-98z" />
<glyph unicode="&#xb7;" horiz-adv-x="634" d="M135 524q0 72 52.5 125t127.5 53q73 0 126 -53t53 -125q0 -75 -52.5 -127.5t-126.5 -52.5q-75 0 -127.5 52.5t-52.5 127.5zM229 524q0 -35 25.5 -60.5t60.5 -25.5t60.5 25.5t25.5 60.5q0 34 -25.5 60t-60.5 26t-60.5 -26t-25.5 -60z" />
<glyph unicode="&#xb8;" horiz-adv-x="612" d="M154 -336l190 295l115 -45l-228 -289z" />
<glyph unicode="&#xb9;" horiz-adv-x="761" d="M205 1303v92h229v-768h-98v676h-131zM205 1452v92h387v-917h-98v825h-289z" />
<glyph unicode="&#xbb;" horiz-adv-x="1204" d="M88 319l242 336l-242 336h117l241 -336l-241 -336h-117zM289 319l241 336l-241 336h117l241 -336l-241 -336h-117zM559 319l242 336l-242 336h117l242 -336l-242 -336h-117zM760 319l241 336l-241 336h117l241 -336l-241 -336h-117z" />
<glyph unicode="&#xbc;" horiz-adv-x="1701" d="M92 1303v92h230v-768h-99v676h-131zM92 1452v92h387v-917h-98v825h-289zM324 68l880 1515l72 -37l-877 -1517zM449 4l880 1516l72 -37l-877 -1518zM834 86v10l505 822h199v-594h92v-91h-184v605h-60l-403 -662h401v-176h-92v86h-458zM1100 233l272 455h12v-455h-284z M1239 324h53v98zM1446 0v176h182v-90h-90v-86h-92z" />
<glyph unicode="&#xbd;" horiz-adv-x="1861" d="M92 1303v92h230v-768h-99v676h-131zM92 1452v92h387v-917h-98v825h-289zM324 68l880 1515l72 -37l-877 -1517zM449 4l880 1516l72 -37l-877 -1518zM1053 0h719v92h-537l221 264q129 153 129 252q0 78 -45 129t-135 51q-94 0 -140.5 -68.5t-43.5 -189.5h98q-3 85 17 125.5 t69 40.5q42 0 62 -25.5t20 -62.5q0 -76 -111 -211zM1063 530q0 184 92 296t250 112q160 0 249 -90.5t89 -239.5q0 -87 -43 -166.5t-115 -162.5l-33 -37h220v-92h-408l137 159q144 166 144 299q0 105 -63 171.5t-177 66.5q-125 0 -187 -87t-57 -229h-98z" />
<glyph unicode="&#xc0;" horiz-adv-x="1312" d="M10 0l244 600h645l37 -92h-619l-206 -508h-101zM174 0l180 451h607l36 -93h-579l-144 -358h-100zM276 657l302 742l49 -123l-211 -526h63l178 446l50 -125l-127 -321h258l39 -93h-601zM424 2060h117l241 -336h-116zM606 1470l51 125l646 -1595h-101zM625 2060h116 l242 -336h-117zM719 1595h100l645 -1595h-100z" />
<glyph unicode="&#xc1;" horiz-adv-x="1462" d="M4 0l244 600h645l37 -92h-619l-207 -508h-100zM168 0l180 451h606l37 -93h-579l-144 -358h-100zM270 657l301 742l50 -123l-211 -526h63l178 446l49 -125l-127 -321h258l39 -93h-600zM453 1724l241 336h117l-242 -336h-116zM600 1470l51 125l645 -1595h-100zM653 1724 l242 336h117l-242 -336h-117zM713 1595h100l645 -1595h-100z" />
<glyph unicode="&#xc2;" horiz-adv-x="1462" d="M4 0l244 600h645l37 -92h-619l-207 -508h-100zM168 0l180 451h606l37 -93h-579l-144 -358h-100zM270 657h600l-39 93h-258l127 321l-49 125l-178 -446h-63l211 526l-50 123zM449 1610v104l282 162l283 -162v-104l-283 162zM449 1790v106l282 164l283 -164v-106l-283 164z M600 1470l51 125l645 -1595h-100zM713 1595l645 -1595h100l-645 1595h-100z" />
<glyph unicode="&#xc3;" horiz-adv-x="1462" d="M4 0l244 600h645l37 -92h-619l-207 -508h-100zM168 0l180 451h606l37 -93h-579l-144 -358h-100zM231 1776q93 194 263 194q52 0 148 -41t142 -39q36 1 56.5 23t42.5 65l67 -53q-23 -48 -55 -78t-55.5 -38.5t-44.5 -8.5q-55 0 -148 41t-143 41q-59 0 -113 -44t-90 -126z M270 657h600l-39 93h-258l127 321l-49 125l-178 -446h-63l211 526l-50 123zM348 1671q60 137 168 137q53 0 146.5 -41t140.5 -41q103 0 196 160l72 -57q-124 -193 -256 -193q-58 0 -155 41t-142 41q-54 0 -102 -104zM600 1470l51 125l645 -1595h-100zM713 1595l645 -1595 h100l-645 1595h-100z" />
<glyph unicode="&#xc4;" horiz-adv-x="1462" d="M4 0l244 600h645l37 -92h-619l-207 -508h-100zM168 0l180 451h606l37 -93h-579l-144 -358h-100zM266 1892q0 72 52 124t126 52q73 0 125 -52t52 -124q0 -75 -51.5 -126.5t-125.5 -51.5q-75 0 -126.5 51.5t-51.5 126.5zM270 657h600l-39 93h-258l127 321l-49 125 l-178 -446h-63l211 526l-50 123zM356 1892q0 -35 26.5 -61.5t61.5 -26.5t61.5 26.5t26.5 61.5q0 34 -26.5 61t-61.5 27t-61.5 -27t-26.5 -61zM600 1470l51 125l645 -1595h-100zM678 1892q0 72 52 124t126 52q73 0 124.5 -52t51.5 -124q0 -75 -51 -126.5t-125 -51.5 q-75 0 -126.5 51.5t-51.5 126.5zM713 1595l645 -1595h100l-645 1595h-100zM768 1892q0 -35 26.5 -61.5t61.5 -26.5t61.5 26.5t26.5 61.5q0 34 -26.5 61t-61.5 27t-61.5 -27t-26.5 -61z" />
<glyph unicode="&#xc5;" horiz-adv-x="1462" d="M4 0l244 600h645l37 -92h-619l-207 -508h-100zM168 0l180 451h606l37 -93h-579l-144 -358h-100zM270 657h600l-39 93h-258l127 321l-49 125l-178 -446h-63l211 526l-50 123zM449 1882q0 78 61.5 139.5t140.5 61.5q78 0 139.5 -61.5t61.5 -139.5q0 -79 -61.5 -141 t-139.5 -62q-79 0 -140.5 61.5t-61.5 141.5zM545 1882q0 -46 30 -76t76 -30q45 0 75 30t30 76q0 44 -30.5 74.5t-74.5 30.5q-45 0 -75.5 -30.5t-30.5 -74.5zM600 1470l51 125l645 -1595h-100zM713 1595l645 -1595h100l-645 1595h-100z" />
<glyph unicode="&#xc6;" horiz-adv-x="2209" d="M4 0l244 600h645l37 -92h-619l-207 -508h-100zM168 0l180 451h604l39 -93l-579 2l-144 -360h-100zM270 657l361 887h41l624 -1544h-100l-545 1346l-30 -76l247 -613h-598zM410 750h321l-162 393zM733 1544h850l37 -92h-750l166 -412h750l37 -92h-750l25 -57h747l39 -92 h-749l286 -707h746l39 -92h-848zM956 1395h686l39 -92h-686zM1221 741h686l37 -92h-588l164 -407h587l37 -92h-686zM1438 592h98l82 -201h430l37 -92h-529z" />
<glyph unicode="&#xc7;" horiz-adv-x="1513" d="M74 772q0 166 63 313.5t171 252.5t257 166t316 61q140 0 275.5 -53t238.5 -148l-49 -84l-33 -55l-43 -76q-163 174 -408 174q-107 0 -205.5 -45.5t-169 -121t-112 -176.5t-41.5 -208t41 -207.5t110.5 -176.5t168.5 -121.5t208 -45.5q190 0 338 111l-33 55 q-143 -108 -311 -108q-119 0 -225.5 69t-170 183t-63.5 241t65 241.5t172.5 183.5t227.5 69v-90q-153 0 -259.5 -118t-106.5 -286q0 -169 101 -285t253 -116q107 0 186 38t158 117l119 -207q-80 -85 -199 -137.5t-244 -52.5q-128 0 -246 53t-202.5 140.5t-135 205.5 t-50.5 244t50.5 244t135 205.5t202.5 140.5t246 53q99 0 196.5 -35.5t176.5 -95.5l33 55q-87 65 -191.5 99.5t-210.5 34.5q-144 0 -274.5 -57t-224 -152t-148.5 -224t-55 -268q0 -186 93 -347t255.5 -257t353.5 -96h9q41 -24 73.5 -80t32.5 -119q0 -81 -61.5 -143 t-141.5 -62q-82 0 -151 76l74 66q9 -19 30.5 -31t46.5 -12q44 0 74.5 30.5t30.5 75.5q0 44 -30 77t-73 36q-201 14 -364.5 121.5t-256.5 282.5t-93 382zM512 -358l76 63q80 -94 198 -94q119 0 193 71.5t74 190.5q0 135 -88 205q106 14 206 62t175 124l49 -84 q-117 -109 -279 -164q35 -65 35 -143q0 -144 -111 -252t-254 -108q-78 0 -149 34.5t-125 94.5z" />
<glyph unicode="&#xc8;" horiz-adv-x="1144" d="M166 0v1544h844v-92h-746v-1360h746v-92h-844zM309 2025h117l242 -335h-117zM324 150v591h686v-92h-588v-407h588v-92h-686zM324 799v92h686v-92h-686zM324 948v447h686v-92h-588v-263h588v-92h-686zM481 299v293h99v-201h430v-92h-529zM510 2025h117l241 -335h-116z" />
<glyph unicode="&#xc9;" horiz-adv-x="1144" d="M166 0v1544h844v-92h-746v-1360h746v-92h-844zM287 1724l241 336h117l-242 -336h-116zM324 150v591h686v-92h-588v-407h588v-92h-686zM324 799v92h686v-92h-686zM324 948v447h686v-92h-588v-263h588v-92h-686zM481 299v293h99v-201h430v-92h-529zM487 1724l242 336h117 l-242 -336h-117z" />
<glyph unicode="&#xca;" horiz-adv-x="1144" d="M166 0v1544h844v-92h-746v-1360h746v-92h-844zM305 1612v104l283 162l282 -162v-104l-282 162zM305 1792v106l283 164l282 -164v-106l-282 164zM324 150v591h686v-92h-588v-407h588v-92h-686zM324 799v92h686v-92h-686zM324 948v447h686v-92h-588v-263h588v-92h-686z M481 299v293h99v-201h430v-92h-529z" />
<glyph unicode="&#xcb;" horiz-adv-x="1144" d="M166 0v1544h844v-92h-746v-1360h746v-92h-844zM205 1868q0 72 51.5 124t126.5 52q73 0 124.5 -52t51.5 -124q0 -75 -51 -126.5t-125 -51.5q-75 0 -126.5 51.5t-51.5 126.5zM295 1868q0 -35 26.5 -61.5t61.5 -26.5t61.5 26.5t26.5 61.5q0 34 -26.5 61t-61.5 27t-61.5 -27 t-26.5 -61zM324 150v591h686v-92h-588v-407h588v-92h-686zM324 799v92h686v-92h-686zM324 948v447h686v-92h-588v-263h588v-92h-686zM481 299v293h99v-201h430v-92h-529zM616 1868q0 72 52 124t127 52q73 0 124.5 -52t51.5 -124q0 -75 -51 -126.5t-125 -51.5 q-75 0 -127 51.5t-52 126.5zM707 1868q0 -35 26.5 -61.5t61.5 -26.5t61.5 26.5t26.5 61.5q0 34 -26.5 61t-61.5 27t-61.5 -27t-26.5 -61z" />
<glyph unicode="&#xcc;" horiz-adv-x="745" d="M31 2025h116l242 -335h-117zM166 0v1544h98v-1544h-98zM231 2025h117l242 -335h-117zM324 0v1544h98v-1452h59v1452h99v-1544h-256z" />
<glyph unicode="&#xcd;" horiz-adv-x="745" d="M156 1690l241 335h117l-242 -335h-116zM166 0v1544h98v-1544h-98zM324 0v1544h98v-1452h59v1452h99v-1544h-256zM356 1690l242 335h117l-242 -335h-117z" />
<glyph unicode="&#xce;" horiz-adv-x="745" d="M90 1612v104l283 162l282 -162v-104l-282 162zM90 1792v106l283 164l282 -164v-106l-282 164zM166 0v1544h98v-1544h-98zM324 0v1544h98v-1452h59v1452h99v-1544h-256z" />
<glyph unicode="&#xcf;" horiz-adv-x="745" d="M-10 1868q0 72 52 124t126 52q73 0 124.5 -52t51.5 -124q0 -75 -51 -126.5t-125 -51.5q-75 0 -126.5 51.5t-51.5 126.5zM80 1868q0 -35 26.5 -61.5t61.5 -26.5t61.5 26.5t26.5 61.5q0 34 -26.5 61t-61.5 27t-61.5 -27t-26.5 -61zM166 0v1544h98v-1544h-98zM324 0v1544h98 v-1452h59v1452h99v-1544h-256zM401 1868q0 72 52 124t127 52q73 0 124.5 -52t51.5 -124q0 -75 -51 -126.5t-125 -51.5q-75 0 -127 51.5t-52 126.5zM492 1868q0 -35 26.5 -61.5t61.5 -26.5t61.5 26.5t26.5 61.5q0 34 -26.5 61t-61.5 27t-61.5 -27t-26.5 -61z" />
<glyph unicode="&#xd0;" horiz-adv-x="1335" d="M0 715v98h264v-813h-98v715h-166zM0 870v105h166v569h436q184 0 319 -41t255 -153q120 -113 182.5 -262.5t62.5 -317.5q0 -161 -60.5 -307.5t-176.5 -257.5q-121 -116 -258.5 -160.5t-323.5 -44.5h-278v1395h98v-1303h180q165 0 285.5 38.5t224.5 141.5q99 99 155 230 t56 268q0 149 -57.5 282t-165.5 232q-104 94 -224 131t-276 37h-336v-582h-264zM481 150v94h121q135 0 228 33t163 100q164 156 164 393q0 119 -47 223t-125 174q-80 72 -163.5 102.5t-219.5 30.5h-22v-325h165v-105h-264v525h121q152 0 261 -42t196 -122q192 -179 192 -461 q0 -276 -190 -455q-97 -91 -204.5 -128t-254.5 -37h-121zM481 311v502h264v-98h-165v-404h-99z" />
<glyph unicode="&#xd1;" horiz-adv-x="1726" d="M166 0v1544h98v-1544h-98zM324 0v1096l1073 -1096h-133l-842 858v-858h-98zM324 1184v133l1097 -1120v1347h99v-1544h-50zM324 1401v143l940 -964v964h98v-1202zM444 1776q93 194 263 194q52 0 148 -41t142 -39q36 1 56.5 23t42.5 65l67 -53q-23 -48 -55 -78t-55.5 -38.5 t-44.5 -8.5q-55 0 -148 41t-143 41q-59 0 -113 -44t-90 -126zM561 1671q60 137 168 137q53 0 146.5 -41t140.5 -41q103 0 196 160l72 -57q-124 -193 -256 -193q-58 0 -155 41t-142 41q-54 0 -102 -104z" />
<glyph unicode="&#xd2;" horiz-adv-x="1748" d="M74 772q0 213 108.5 396t293 290t398.5 107q160 0 308 -63.5t256 -170t172.5 -253t64.5 -306.5q0 -158 -61.5 -301.5t-171.5 -253.5l-66 70q94 98 147.5 223t53.5 262q0 140 -56.5 269.5t-151 224t-224.5 151t-271 56.5q-142 0 -272 -56.5t-224 -151t-150 -224 t-56 -269.5q0 -187 94.5 -348.5t256.5 -256.5t351 -95q254 0 457 172l70 -66q-108 -94 -244 -146t-283 -52q-160 0 -307.5 63t-255.5 169.5t-172.5 253t-64.5 306.5zM231 772q0 130 51.5 249t137.5 205t205 137.5t249 51.5t249 -51.5t205.5 -137.5t138 -205t51.5 -249 t-51.5 -249t-138 -205t-205.5 -137.5t-249 -51.5t-249 51.5t-205 137.5t-137.5 205t-51.5 249zM330 772q0 -145 73 -272t199 -203t272 -76q109 0 210 45t174 119.5t117 176t44 210.5t-44 210.5t-117 176t-174 119.5t-210 45q-146 0 -272 -76t-199 -203t-73 -272zM389 772 q0 131 65 245t177.5 181.5t242.5 67.5v-92q-103 0 -193 -56t-142 -149t-52 -197t52 -196.5t142 -148.5t193 -56v-92q-130 0 -242.5 67.5t-177.5 181t-65 244.5zM596 2025h117l241 -335h-116zM797 2025h116l242 -335h-117z" />
<glyph unicode="&#xd3;" horiz-adv-x="1748" d="M74 772q0 213 108.5 396t293 290t398.5 107q160 0 308 -63.5t256 -170t172.5 -253t64.5 -306.5q0 -158 -61.5 -301.5t-171.5 -253.5l-66 70q94 98 147.5 223t53.5 262q0 140 -56.5 269.5t-151 224t-224.5 151t-271 56.5q-142 0 -272 -56.5t-224 -151t-150 -224 t-56 -269.5q0 -187 94.5 -348.5t256.5 -256.5t351 -95q254 0 457 172l70 -66q-108 -94 -244 -146t-283 -52q-160 0 -307.5 63t-255.5 169.5t-172.5 253t-64.5 306.5zM231 772q0 130 51.5 249t137.5 205t205 137.5t249 51.5t249 -51.5t205.5 -137.5t138 -205t51.5 -249 t-51.5 -249t-138 -205t-205.5 -137.5t-249 -51.5t-249 51.5t-205 137.5t-137.5 205t-51.5 249zM330 772q0 -145 73 -272t199 -203t272 -76q109 0 210 45t174 119.5t117 176t44 210.5t-44 210.5t-117 176t-174 119.5t-210 45q-146 0 -272 -76t-199 -203t-73 -272zM389 772 q0 131 65 245t177.5 181.5t242.5 67.5v-92q-103 0 -193 -56t-142 -149t-52 -197t52 -196.5t142 -148.5t193 -56v-92q-130 0 -242.5 67.5t-177.5 181t-65 244.5zM596 1690l242 335h116l-241 -335h-117zM797 1690l241 335h117l-242 -335h-116z" />
<glyph unicode="&#xd4;" horiz-adv-x="1748" d="M74 772q0 213 108.5 396t293 290t398.5 107q160 0 308 -63.5t256 -170t172.5 -253t64.5 -306.5q0 -158 -61.5 -301.5t-171.5 -253.5l-66 70q94 98 147.5 223t53.5 262q0 140 -56.5 269.5t-151 224t-224.5 151t-271 56.5q-142 0 -272 -56.5t-224 -151t-150 -224 t-56 -269.5q0 -187 94.5 -348.5t256.5 -256.5t351 -95q254 0 457 172l70 -66q-108 -94 -244 -146t-283 -52q-160 0 -307.5 63t-255.5 169.5t-172.5 253t-64.5 306.5zM231 772q0 130 51.5 249t137.5 205t205 137.5t249 51.5t249 -51.5t205.5 -137.5t138 -205t51.5 -249 t-51.5 -249t-138 -205t-205.5 -137.5t-249 -51.5t-249 51.5t-205 137.5t-137.5 205t-51.5 249zM330 772q0 -145 73 -272t199 -203t272 -76q109 0 210 45t174 119.5t117 176t44 210.5t-44 210.5t-117 176t-174 119.5t-210 45q-146 0 -272 -76t-199 -203t-73 -272zM389 772 q0 -131 65 -244.5t177.5 -181t242.5 -67.5v92q-103 0 -193 56t-142 148.5t-52 196.5t52 197t142 149t193 56v92q-130 0 -242.5 -67.5t-177.5 -181.5t-65 -245zM592 1612v104l282 162l283 -162v-104l-283 162zM592 1792v106l282 164l283 -164v-106l-283 164z" />
<glyph unicode="&#xd5;" horiz-adv-x="1748" d="M74 772q0 213 108.5 396t293 290t398.5 107q160 0 308 -63.5t256 -170t172.5 -253t64.5 -306.5q0 -158 -61.5 -301.5t-171.5 -253.5l-66 70q94 98 147.5 223t53.5 262q0 140 -56.5 269.5t-151 224t-224.5 151t-271 56.5q-142 0 -272 -56.5t-224 -151t-150 -224 t-56 -269.5q0 -187 94.5 -348.5t256.5 -256.5t351 -95q254 0 457 172l70 -66q-108 -94 -244 -146t-283 -52q-160 0 -307.5 63t-255.5 169.5t-172.5 253t-64.5 306.5zM231 772q0 130 51.5 249t137.5 205t205 137.5t249 51.5t249 -51.5t205.5 -137.5t138 -205t51.5 -249 t-51.5 -249t-138 -205t-205.5 -137.5t-249 -51.5t-249 51.5t-205 137.5t-137.5 205t-51.5 249zM330 772q0 -145 73 -272t199 -203t272 -76q109 0 210 45t174 119.5t117 176t44 210.5t-44 210.5t-117 176t-174 119.5t-210 45q-146 0 -272 -76t-199 -203t-73 -272zM389 772 q0 -131 65 -244.5t177.5 -181t242.5 -67.5v92q-103 0 -193 56t-142 148.5t-52 196.5t52 197t142 149t193 56v92q-130 0 -242.5 -67.5t-177.5 -181.5t-65 -245zM455 1829q93 194 262 194q52 0 148.5 -40.5t142.5 -38.5q25 1 44.5 15t29 29t24.5 44l68 -54q-23 -48 -55.5 -78 t-56 -38.5t-44.5 -8.5q-55 0 -148 41t-143 41q-59 0 -113 -44t-90 -126zM571 1724q60 138 168 138q53 0 146.5 -41t140.5 -41q105 0 197 159l71 -57q-123 -192 -256 -192q-58 0 -155 41t-142 41q-53 0 -102 -105z" />
<glyph unicode="&#xd6;" horiz-adv-x="1748" d="M74 772q0 213 108.5 396t293 290t398.5 107q160 0 308 -63.5t256 -170t172.5 -253t64.5 -306.5q0 -158 -61.5 -301.5t-171.5 -253.5l-66 70q94 98 147.5 223t53.5 262q0 140 -56.5 269.5t-151 224t-224.5 151t-271 56.5q-142 0 -272 -56.5t-224 -151t-150 -224 t-56 -269.5q0 -187 94.5 -348.5t256.5 -256.5t351 -95q254 0 457 172l70 -66q-108 -94 -244 -146t-283 -52q-160 0 -307.5 63t-255.5 169.5t-172.5 253t-64.5 306.5zM231 772q0 130 51.5 249t137.5 205t205 137.5t249 51.5t249 -51.5t205.5 -137.5t138 -205t51.5 -249 t-51.5 -249t-138 -205t-205.5 -137.5t-249 -51.5t-249 51.5t-205 137.5t-137.5 205t-51.5 249zM330 772q0 -145 73 -272t199 -203t272 -76q109 0 210 45t174 119.5t117 176t44 210.5t-44 210.5t-117 176t-174 119.5t-210 45q-146 0 -272 -76t-199 -203t-73 -272zM389 772 q0 -131 65 -244.5t177.5 -181t242.5 -67.5v92q-103 0 -193 56t-142 148.5t-52 196.5t52 197t142 149t193 56v92q-130 0 -242.5 -67.5t-177.5 -181.5t-65 -245zM492 1868q0 72 52 124t126 52q73 0 124.5 -52t51.5 -124q0 -75 -51 -126.5t-125 -51.5q-75 0 -126.5 51.5 t-51.5 126.5zM582 1868q0 -35 26.5 -61.5t61.5 -26.5t61.5 26.5t26.5 61.5q0 34 -26.5 61t-61.5 27t-61.5 -27t-26.5 -61zM903 1868q0 72 51.5 124t126.5 52q73 0 124.5 -52t51.5 -124q0 -75 -51 -126.5t-125 -51.5q-75 0 -126.5 51.5t-51.5 126.5zM993 1868 q0 -35 26.5 -61.5t61.5 -26.5t61.5 26.5t26.5 61.5q0 34 -26.5 61t-61.5 27t-61.5 -27t-26.5 -61z" />
<glyph unicode="&#xd7;" d="M104 184l345 342l-340 342l69 70l414 -416l-414 -411zM219 70l414 411l411 -411l-69 -70l-342 342l-344 -342zM221 979l70 70l338 -340l344 340l74 -74l-414 -410zM674 524l413 412l70 -70l-344 -342l344 -344l-70 -69z" />
<glyph unicode="&#xd8;" horiz-adv-x="1748" d="M33 127l194 186q-71 99 -112 218t-41 241q0 213 108.5 396t293 290t398.5 107q299 0 488 -166l188 182l58 -59l-252 -244q-84 76 -145 114.5t-142 59.5t-195 21q-142 0 -272 -56.5t-224 -151t-150 -224t-56 -269.5q0 -129 45.5 -248.5t128.5 -212.5l-258 -248zM139 27 l250 239q119 -107 221 -150.5t264 -43.5q254 0 457 172l70 -66q-108 -94 -244 -146t-283 -52q-308 0 -489 167l-188 -184zM231 772q0 130 51.5 249t137.5 205t205 137.5t249 51.5q135 0 240 -39.5t199 -136.5q-140 -136 -811 -780q-113 139 -113 313q0 131 65 245 t177.5 181.5t242.5 67.5v-92q-103 0 -193 -56t-142 -149t-52 -197q0 -89 39 -172l654 625q-98 98 -306 98q-146 0 -272 -76t-199 -203t-73 -272t73 -272t199 -203t272 -76q109 0 210 45t174 119.5t117 176t44 210.5q0 150 -82 285l-657 -629q88 -57 194 -57v-92 q-184 0 -329 135l811 780q77 -87 119.5 -195.5t42.5 -226.5q0 -130 -51.5 -249t-138 -205t-205.5 -137.5t-249 -51.5t-249 51.5t-205 137.5t-137.5 205t-51.5 249zM1376 287q94 98 147.5 223t53.5 262q0 128 -46.5 247.5t-129.5 213.5l254 246l59 -60l-192 -184 q70 -99 111.5 -220t41.5 -243q0 -158 -61.5 -301.5t-171.5 -253.5z" />
<glyph unicode="&#xd9;" horiz-adv-x="1382" d="M152 575v820h98v-824q0 -109 26.5 -199t79 -157.5t136.5 -105t194 -37.5q214 0 330.5 132t116.5 367v973h98v-969q0 -169 -65 -303.5t-190 -213t-290 -78.5q-252 0 -393 155.5t-141 439.5zM152 1452v92h413v-989q0 -96 22 -136t99 -50v-90q-122 6 -170.5 78t-48.5 198 v897h-315zM309 569v826h99v-834q0 -340 278 -340q134 0 211.5 94t77.5 246v983h98v-979q0 -192 -102.5 -314t-284.5 -122q-181 0 -279 117t-98 323zM412 2028h116l242 -336h-117zM612 2028h117l242 -336h-117z" />
<glyph unicode="&#xda;" horiz-adv-x="1382" d="M152 575v820h98v-824q0 -109 26.5 -199t79 -157.5t136.5 -105t194 -37.5q214 0 330.5 132t116.5 367v973h98v-969q0 -169 -65 -303.5t-190 -213t-290 -78.5q-252 0 -393 155.5t-141 439.5zM152 1452v92h413v-989q0 -96 22 -136t99 -50v-90q-122 6 -170.5 78t-48.5 198 v897h-315zM309 569v826h99v-834q0 -340 278 -340q134 0 211.5 94t77.5 246v983h98v-979q0 -192 -102.5 -314t-284.5 -122q-181 0 -279 117t-98 323zM412 1690l241 335h117l-242 -335h-116zM612 1690l242 335h117l-242 -335h-117z" />
<glyph unicode="&#xdb;" horiz-adv-x="1382" d="M152 575v820h98v-824q0 -109 26.5 -199t79 -157.5t136.5 -105t194 -37.5q214 0 330.5 132t116.5 367v973h98v-969q0 -169 -65 -303.5t-190 -213t-290 -78.5q-252 0 -393 155.5t-141 439.5zM152 1452h315v-897q0 -126 48.5 -198t170.5 -78v90q-77 10 -99 50t-22 136v989 h-413v-92zM309 569v826h99v-834q0 -340 278 -340q134 0 211.5 94t77.5 246v983h98v-979q0 -192 -102.5 -314t-284.5 -122q-181 0 -279 117t-98 323zM408 1612v104l282 162l283 -162v-104l-283 162zM408 1792v106l282 164l283 -164v-106l-283 164z" />
<glyph unicode="&#xdc;" horiz-adv-x="1382" d="M152 575v820h98v-824q0 -109 26.5 -199t79 -157.5t136.5 -105t194 -37.5q214 0 330.5 132t116.5 367v973h98v-969q0 -169 -65 -303.5t-190 -213t-290 -78.5q-252 0 -393 155.5t-141 439.5zM152 1452h315v-897q0 -126 48.5 -198t170.5 -78v90q-77 10 -99 50t-22 136v989 h-413v-92zM307 1866q0 72 51.5 124t126.5 52q73 0 125 -52t52 -124q0 -75 -51.5 -126.5t-125.5 -51.5q-75 0 -126.5 51.5t-51.5 126.5zM309 569v826h99v-834q0 -340 278 -340q134 0 211.5 94t77.5 246v983h98v-979q0 -192 -102.5 -314t-284.5 -122q-181 0 -279 117t-98 323z M397 1866q0 -35 26.5 -61.5t61.5 -26.5t61.5 26.5t26.5 61.5q0 34 -26.5 61t-61.5 27t-61.5 -27t-26.5 -61zM719 1866q0 72 51.5 124t126.5 52q73 0 124.5 -52t51.5 -124q0 -75 -51 -126.5t-125 -51.5q-75 0 -126.5 51.5t-51.5 126.5zM809 1866q0 -35 26.5 -61.5t61.5 -26.5 t61.5 26.5t26.5 61.5q0 34 -26.5 61t-61.5 27t-61.5 -27t-26.5 -61z" />
<glyph unicode="&#xdd;" horiz-adv-x="1400" d="M-20 1544h108l520 -893v-651h-98v633zM154 1544h108l455 -782l454 782h109l-514 -885v-659h-98v659zM328 1544h108l334 -575l-53 -97zM438 1688l242 335h117l-242 -335h-117zM639 1688l242 335h116l-241 -335h-117zM825 0v651l518 893h109l-528 -911v-633h-99z" />
<glyph unicode="&#xde;" horiz-adv-x="966" d="M166 0v635h352q203 0 203 182q0 84 -54 127t-149 43h-352v557h92v-471h260q129 0 212 -68.5t83 -187.5q0 -134 -81 -201t-214 -67h-260v-549h-92zM317 0v492h201q165 0 259.5 86t94.5 239q0 144 -98 228.5t-256 84.5h-201v414h93v-327h108q207 0 327 -103t120 -297 q0 -195 -121 -303t-326 -108h-108v-406h-93z" />
<glyph unicode="&#xdf;" horiz-adv-x="1093" d="M57 977v86h193v-1063h-92v977h-101zM57 1128v86h101v123q0 85 13.5 148.5t55.5 113.5q92 117 273 117q141 0 233 -95t92 -237q0 -92 -54.5 -170t-141.5 -110v-4q172 -47 285.5 -200t113.5 -331q0 -151 -79 -280.5t-208.5 -208t-279.5 -92.5v86q196 29 335.5 167 t139.5 328q0 199 -135.5 331t-339.5 153v86q118 2 195 71.5t77 184.5q0 104 -71 169.5t-177 65.5q-57 0 -111.5 -26.5t-84.5 -71.5q-39 -58 -39 -201v-203h-193zM309 0v1346q0 109 50.5 168t140.5 59q78 0 126 -54.5t48 -123.5q0 -88 -65.5 -143.5t-147.5 -55.5v86 q20 0 38.5 4.5t38.5 15.5t32 35t12 58q0 41 -25 66.5t-59 25.5q-54 0 -75.5 -36t-21.5 -103v-1348h-92zM461 131v864q181 -13 298.5 -134t117.5 -292q0 -168 -124 -294t-292 -144zM547 236q103 30 175.5 125t72.5 208q0 117 -73.5 213t-174.5 111v-657z" />
<glyph unicode="&#xe0;" horiz-adv-x="1273" d="M66 479q0 211 127 349.5t337 138.5q228 0 367 -187v166h92v-440h-92q-9 164 -109.5 269.5t-257.5 105.5q-108 0 -194.5 -58t-132 -149.5t-45.5 -194.5q0 -169 103 -291t269 -122q157 0 257.5 107.5t109.5 275.5h92v-449h-92v188q-150 -208 -367 -208q-140 0 -246.5 67.5 t-162 180t-55.5 251.5zM217 479q0 147 92.5 245.5t220.5 98.5q127 0 216.5 -99t89.5 -247q0 -159 -88 -256.5t-218 -97.5q-129 0 -221 100.5t-92 255.5zM309 479q0 -121 63 -195.5t158 -74.5q94 0 153.5 73.5t59.5 194.5q0 114 -60 187t-153 73q-95 0 -158 -72.5t-63 -185.5 zM342 1434h117l241 -336h-116zM543 1434h116l242 -336h-117zM1049 0v946h92v-946h-92z" />
<glyph unicode="&#xe1;" horiz-adv-x="1273" d="M66 479q0 211 127 349.5t337 138.5q228 0 367 -187v166h92v-440h-92q-9 164 -109.5 269.5t-257.5 105.5q-108 0 -194.5 -58t-132 -149.5t-45.5 -194.5q0 -169 103 -291t269 -122q157 0 257.5 107.5t109.5 275.5h92v-449h-92v188q-150 -208 -367 -208q-140 0 -246.5 67.5 t-162 180t-55.5 251.5zM217 479q0 147 92.5 245.5t220.5 98.5q127 0 216.5 -99t89.5 -247q0 -159 -88 -256.5t-218 -97.5q-129 0 -221 100.5t-92 255.5zM309 479q0 -121 63 -195.5t158 -74.5q94 0 153.5 73.5t59.5 194.5q0 114 -60 187t-153 73q-95 0 -158 -72.5t-63 -185.5 zM342 1098l242 336h116l-241 -336h-117zM543 1098l241 336h117l-242 -336h-116zM1049 0v946h92v-946h-92z" />
<glyph unicode="&#xe2;" horiz-adv-x="1273" d="M66 479q0 -139 55.5 -251.5t162 -180t246.5 -67.5q217 0 367 208v-188h92v449h-92q-9 -168 -109.5 -275.5t-257.5 -107.5q-166 0 -269 122t-103 291q0 103 45.5 194.5t132 149.5t194.5 58q157 0 257.5 -105.5t109.5 -269.5h92v440h-92v-166q-139 187 -367 187 q-210 0 -337 -138.5t-127 -349.5zM217 479q0 147 92.5 245.5t220.5 98.5q127 0 216.5 -99t89.5 -247q0 -159 -88 -256.5t-218 -97.5q-129 0 -221 100.5t-92 255.5zM291 1044v105l282 162l283 -162v-105l-283 162zM291 1225v106l282 164l283 -164v-106l-283 164zM309 479 q0 -121 63 -195.5t158 -74.5q94 0 153.5 73.5t59.5 194.5q0 114 -60 187t-153 73q-95 0 -158 -72.5t-63 -185.5zM1049 0v946h92v-946h-92z" />
<glyph unicode="&#xe3;" horiz-adv-x="1273" d="M66 479q0 -139 55.5 -251.5t162 -180t246.5 -67.5q217 0 367 208v-188h92v449h-92q-9 -168 -109.5 -275.5t-257.5 -107.5q-166 0 -269 122t-103 291q0 103 45.5 194.5t132 149.5t194.5 58q157 0 257.5 -105.5t109.5 -269.5h92v440h-92v-166q-139 187 -367 187 q-210 0 -337 -138.5t-127 -349.5zM156 1225q93 194 262 194q52 0 148.5 -41t142.5 -39q25 1 44.5 15t29 29t24.5 44l67 -53q-23 -48 -55 -78t-55.5 -38.5t-44.5 -8.5q-55 0 -148 41t-143 41q-59 0 -113 -44t-90 -126zM217 479q0 147 92.5 245.5t220.5 98.5q127 0 216.5 -99 t89.5 -247q0 -159 -88 -256.5t-218 -97.5q-129 0 -221 100.5t-92 255.5zM272 1120q60 137 168 137q53 0 146.5 -40.5t140.5 -40.5q105 0 197 159l71 -57q-124 -193 -256 -193q-58 0 -155 41t-142 41q-54 0 -102 -104zM309 479q0 -121 63 -195.5t158 -74.5q94 0 153.5 73.5 t59.5 194.5q0 114 -60 187t-153 73q-95 0 -158 -72.5t-63 -185.5zM1049 0v946h92v-946h-92z" />
<glyph unicode="&#xe4;" horiz-adv-x="1273" d="M66 479q0 -139 55.5 -251.5t162 -180t246.5 -67.5q217 0 367 208v-188h92v449h-92q-9 -168 -109.5 -275.5t-257.5 -107.5q-166 0 -269 122t-103 291q0 103 45.5 194.5t132 149.5t194.5 58q157 0 257.5 -105.5t109.5 -269.5h92v440h-92v-166q-139 187 -367 187 q-210 0 -337 -138.5t-127 -349.5zM190 1278q0 72 52 124t127 52q73 0 124.5 -52t51.5 -124q0 -75 -51 -126.5t-125 -51.5q-75 0 -127 51.5t-52 126.5zM217 479q0 147 92.5 245.5t220.5 98.5q127 0 216.5 -99t89.5 -247q0 -159 -88 -256.5t-218 -97.5q-129 0 -221 100.5 t-92 255.5zM281 1278q0 -35 26.5 -61.5t61.5 -26.5t61.5 26.5t26.5 61.5q0 34 -26.5 61t-61.5 27t-61.5 -27t-26.5 -61zM309 479q0 -121 63 -195.5t158 -74.5q94 0 153.5 73.5t59.5 194.5q0 114 -60 187t-153 73q-95 0 -158 -72.5t-63 -185.5zM602 1278q0 72 52 124t126 52 q73 0 124.5 -52t51.5 -124q0 -75 -51 -126.5t-125 -51.5q-75 0 -126.5 51.5t-51.5 126.5zM692 1278q0 -35 26.5 -61.5t61.5 -26.5t61.5 26.5t26.5 61.5q0 34 -26.5 61t-61.5 27t-61.5 -27t-26.5 -61zM1049 0v946h92v-946h-92z" />
<glyph unicode="&#xe5;" horiz-adv-x="1273" d="M66 479q0 -139 55.5 -251.5t162 -180t246.5 -67.5q217 0 367 208v-188h92v449h-92q-9 -168 -109.5 -275.5t-257.5 -107.5q-166 0 -269 122t-103 291q0 103 45.5 194.5t132 149.5t194.5 58q157 0 257.5 -105.5t109.5 -269.5h92v440h-92v-166q-139 187 -367 187 q-210 0 -337 -138.5t-127 -349.5zM217 479q0 147 92.5 245.5t220.5 98.5q127 0 216.5 -99t89.5 -247q0 -159 -88 -256.5t-218 -97.5q-129 0 -221 100.5t-92 255.5zM309 479q0 -121 63 -195.5t158 -74.5q94 0 153.5 73.5t59.5 194.5q0 114 -60 187t-153 73q-95 0 -158 -72.5 t-63 -185.5zM371 1270q0 78 61.5 139t140.5 61q78 0 139.5 -61t61.5 -139q0 -79 -61.5 -141t-139.5 -62q-79 0 -140.5 61.5t-61.5 141.5zM467 1270q0 -46 30 -76.5t76 -30.5q44 0 74.5 30.5t30.5 76.5q0 44 -30.5 74t-74.5 30q-46 0 -76 -30t-30 -74zM1049 0v946h92v-946 h-92z" />
<glyph unicode="&#xe6;" horiz-adv-x="2043" d="M66 479q0 -139 55.5 -251.5t162 -180t246.5 -67.5q217 0 367 208v-188h92v449h-92q-9 -168 -109.5 -275.5t-257.5 -107.5q-166 0 -269 122t-103 291q0 103 45.5 194.5t132 149.5t194.5 58q157 0 257.5 -105.5t109.5 -269.5h92v440h-92v-166q-139 187 -367 187 q-210 0 -337 -138.5t-127 -349.5zM217 479q0 147 92.5 245.5t220.5 98.5q127 0 216.5 -99t89.5 -247q0 -159 -88 -256.5t-218 -97.5q-129 0 -221 100.5t-92 255.5zM309 479q0 -121 63 -195.5t158 -74.5q94 0 153.5 73.5t59.5 194.5q0 114 -60 187t-153 73q-95 0 -158 -72.5 t-63 -185.5zM1049 0v475q0 132 59 244t167.5 180t242.5 68q105 0 193 -40t146 -109t90 -160t31 -193h-684q-4 -102 67.5 -179t168.5 -77q80 0 133.5 40.5t81.5 104.5l78 -45q-48 -96 -126.5 -142t-166.5 -46q-139 0 -234.5 105.5t-95.5 248.5q0 138 90.5 243t227.5 105 q105 0 181.5 -59.5t106.5 -155.5h-100q-20 60 -70 94.5t-116 34.5q-86 0 -146.5 -51t-66.5 -135h579q-18 135 -121 232.5t-245 97.5q-73 0 -141 -29t-121 -80.5t-85 -129t-32 -167.5v-18q6 -171 116.5 -281t272.5 -110q108 0 198 58.5t142 156.5l78 -45q-64 -122 -177 -189 t-253 -67q-120 0 -217 51t-160 141v-172h-92z" />
<glyph unicode="&#xe7;" horiz-adv-x="976" d="M66 475q0 217 138.5 354.5t364.5 137.5q204 0 351 -125l-48 -80q-67 58 -137 88.5t-166 30.5q-183 0 -297 -116.5t-114 -289.5t116 -291t295 -118q63 -55 84 -95t21 -100q0 -90 -60.5 -147.5t-142.5 -57.5q-87 0 -152 72l70 61q27 -35 82 -35q44 0 74 30.5t30 76.5 q0 101 -81 113q-196 31 -312 162.5t-116 328.5zM197 -360l65 55q73 -86 209 -86q119 0 192.5 71.5t73.5 190.5q0 60 -17 107.5t-65 95.5q137 26 232 114l47 -75q-58 -49 -139 -86q41 -68 41 -156q0 -144 -111 -252t-254 -108q-78 0 -149 34.5t-125 94.5zM217 477 q0 147 98.5 246.5t253.5 99.5q83 0 146.5 -28t128.5 -80l-45 -78q-103 100 -230 100q-125 0 -192.5 -71t-67.5 -189q0 -120 67.5 -194t192.5 -74q144 0 250 96l41 -72q-47 -47 -123.5 -78.5t-167.5 -31.5q-158 0 -255 100t-97 254z" />
<glyph unicode="&#xe8;" horiz-adv-x="1060" d="M66 475q0 132 59 244t167.5 180t242.5 68q105 0 193 -40t146 -109t90 -160t31 -193h-684q-4 -102 67.5 -178t168.5 -76q81 0 134.5 40t80.5 103l78 -45q-48 -96 -126 -141t-167 -45q-139 0 -234.5 104.5t-95.5 247.5q0 138 90.5 243t227.5 105q105 0 181.5 -59.5 t106.5 -155.5h-100q-20 60 -70 94.5t-116 34.5q-86 0 -146.5 -51t-66.5 -135h579q-18 135 -121 232.5t-245 97.5q-73 0 -141 -29t-121 -80.5t-85 -129t-32 -167.5q0 -178 111.5 -293.5t277.5 -115.5q108 0 198 58.5t142 156.5l78 -45q-64 -122 -177 -189t-253 -67 q-137 0 -245 68t-166 180.5t-58 246.5zM252 1434h117l241 -336h-116zM453 1434h116l242 -336h-117z" />
<glyph unicode="&#xe9;" horiz-adv-x="1060" d="M66 475q0 132 59 244t167.5 180t242.5 68q105 0 193 -40t146 -109t90 -160t31 -193h-684q-4 -102 67.5 -178t168.5 -76q81 0 134.5 40t80.5 103l78 -45q-48 -96 -126 -141t-167 -45q-139 0 -234.5 104.5t-95.5 247.5q0 138 90.5 243t227.5 105q105 0 181.5 -59.5 t106.5 -155.5h-100q-20 60 -70 94.5t-116 34.5q-86 0 -146.5 -51t-66.5 -135h579q-18 135 -121 232.5t-245 97.5q-73 0 -141 -29t-121 -80.5t-85 -129t-32 -167.5q0 -178 111.5 -293.5t277.5 -115.5q108 0 198 58.5t142 156.5l78 -45q-64 -122 -177 -189t-253 -67 q-137 0 -245 68t-166 180.5t-58 246.5zM291 1126l241 336h117l-241 -336h-117zM492 1126l241 336h117l-242 -336h-116z" />
<glyph unicode="&#xea;" horiz-adv-x="1060" d="M66 475q0 132 59 244t167.5 180t242.5 68q105 0 193 -40t146 -109t90 -160t31 -193h-684q-4 -102 67.5 -178t168.5 -76q81 0 134.5 40t80.5 103l78 -45q-48 -96 -126 -141t-167 -45q-139 0 -234.5 104.5t-95.5 247.5q0 138 90.5 243t227.5 105q105 0 181.5 -59.5 t106.5 -155.5h-100q-20 60 -70 94.5t-116 34.5q-86 0 -146.5 -51t-66.5 -135h579q-18 135 -121 232.5t-245 97.5q-73 0 -141 -29t-121 -80.5t-85 -129t-32 -167.5q0 -178 111.5 -293.5t277.5 -115.5q108 0 198 58.5t142 156.5l78 -45q-64 -122 -177 -189t-253 -67 q-137 0 -245 68t-166 180.5t-58 246.5zM240 1053v104l282 162l283 -162v-104l-283 161zM240 1233v106l282 164l283 -164v-106l-283 164z" />
<glyph unicode="&#xeb;" horiz-adv-x="1060" d="M66 475q0 132 59 244t167.5 180t242.5 68q105 0 193 -40t146 -109t90 -160t31 -193h-684q-4 -102 67.5 -178t168.5 -76q81 0 134.5 40t80.5 103l78 -45q-48 -96 -126 -141t-167 -45q-139 0 -234.5 104.5t-95.5 247.5q0 138 90.5 243t227.5 105q105 0 181.5 -59.5 t106.5 -155.5h-100q-20 60 -70 94.5t-116 34.5q-86 0 -146.5 -51t-66.5 -135h579q-18 135 -121 232.5t-245 97.5q-73 0 -141 -29t-121 -80.5t-85 -129t-32 -167.5q0 -178 111.5 -293.5t277.5 -115.5q108 0 198 58.5t142 156.5l78 -45q-64 -122 -177 -189t-253 -67 q-137 0 -245 68t-166 180.5t-58 246.5zM147 1294q0 72 52 124t127 52q73 0 124.5 -52t51.5 -124q0 -75 -51 -126.5t-125 -51.5q-75 0 -127 51.5t-52 126.5zM238 1294q0 -35 26.5 -61.5t61.5 -26.5t61.5 26.5t26.5 61.5q0 34 -26.5 61t-61.5 27t-61.5 -27t-26.5 -61z M559 1294q0 72 51.5 124t126.5 52q73 0 124.5 -52t51.5 -124q0 -75 -51 -126.5t-125 -51.5q-75 0 -126.5 51.5t-51.5 126.5zM649 1294q0 -35 26.5 -61.5t61.5 -26.5t61.5 26.5t26.5 61.5q0 34 -26.5 61t-61.5 27t-61.5 -27t-26.5 -61z" />
<glyph unicode="&#xec;" horiz-adv-x="591" d="M-104 1436h116l242 -336h-117zM96 1436h117l242 -336h-117zM174 0v946h92v-946h-92zM326 0v946h92v-946h-92z" />
<glyph unicode="&#xed;" horiz-adv-x="591" d="M139 1098l242 336h117l-242 -336h-117zM174 0v946h92v-946h-92zM326 0v946h92v-946h-92zM340 1098l242 336h116l-241 -336h-117z" />
<glyph unicode="&#xee;" horiz-adv-x="591" d="M14 1044v105l283 162l283 -162v-105l-283 162zM14 1225v106l283 164l283 -164v-106l-283 164zM174 0v946h92v-946h-92zM326 0v946h92v-946h-92z" />
<glyph unicode="&#xef;" horiz-adv-x="591" d="M-88 1294q0 72 52 124t126 52q73 0 124.5 -52t51.5 -124q0 -75 -51 -126.5t-125 -51.5q-75 0 -126.5 51.5t-51.5 126.5zM2 1294q0 -35 26.5 -61.5t61.5 -26.5t61.5 26.5t26.5 61.5q0 34 -26.5 61t-61.5 27t-61.5 -27t-26.5 -61zM174 0v946h92v-946h-92zM324 1294 q0 72 52 124t126 52q73 0 124.5 -52t51.5 -124q0 -75 -51 -126.5t-125 -51.5q-75 0 -126.5 51.5t-51.5 126.5zM326 0v946h92v-946h-92zM414 1294q0 -35 26.5 -61.5t61.5 -26.5t61.5 26.5t26.5 61.5q0 34 -26.5 61t-61.5 27t-61.5 -27t-26.5 -61z" />
<glyph unicode="&#xf0;" horiz-adv-x="1120" d="M18 522q0 141 69 263.5t188 196.5t260 79l-115 162l-176 -127l-54 75l254 181l287 -404q-3 1 -20 5.5t-33 8t-45.5 6.5t-61.5 3q-122 0 -226 -60t-165.5 -163.5t-62.5 -225.5q-1 -184 131 -316t317 -132q91 0 175 35t145.5 94.5t98 142t36.5 172.5q0 146 -76 258 l-434 617l254 178l53 -74l-178 -127l367 -514q110 -158 110 -340q0 -148 -74.5 -272t-200.5 -194t-274 -70q-242 0 -395 172q-71 77 -112.5 173.5t-41.5 196.5zM109 1294l172 123l-84 119l75 57l142 -196l-254 -176zM186 520q0 154 115.5 266.5t267.5 112.5q157 0 268 -107 t111 -276q0 -157 -110.5 -264t-268.5 -107q-170 0 -278 117q-50 53 -77.5 120.5t-27.5 137.5zM281 524q0 -119 84 -203.5t200 -84.5q121 0 209.5 84t79.5 200q-11 122 -90 203.5t-195 81.5q-117 0 -202.5 -83t-85.5 -198zM336 1634l76 56l88 -125l182 131l53 -78l-260 -178z " />
<glyph unicode="&#xf1;" horiz-adv-x="1132" d="M135 0v946h92v-946h-92zM139 1237q94 195 262 195q52 0 148.5 -41t142.5 -39q36 1 56.5 23t42.5 65l67 -54q-17 -37 -39.5 -63t-45 -38.5t-39.5 -17.5t-32 -5q-55 0 -147.5 40.5t-142.5 40.5q-59 0 -113 -43.5t-90 -125.5zM256 1133q60 137 168 137q53 0 146.5 -41 t140.5 -41q103 0 196 160l72 -58q-123 -192 -256 -192q-58 0 -155 41t-142 41q-53 0 -102 -105zM287 0v946h92v-145h4q38 78 116 122t175 44q172 0 248.5 -96.5t76.5 -282.5v-588h-92v588q0 67 -10 116t-35 91t-74 64t-122 22q-79 0 -136 -31t-89 -87.5t-47 -124.5t-15 -151 v-487h-92zM438 0v504q0 166 64 242.5t157 76.5t141 -53t48 -182v-588h-92v588q0 90 -28 119.5t-75 29.5q-50 0 -87.5 -46.5t-37.5 -145.5v-545h-90z" />
<glyph unicode="&#xf2;" horiz-adv-x="1120" d="M59 471q0 100 39.5 192t105.5 158.5t157 106t190 39.5q213 0 352 -141t139 -353q0 -135 -64 -248t-177 -179t-250 -66q-209 0 -350.5 136t-141.5 355zM152 471q0 -182 112.5 -293.5t286.5 -111.5q169 0 284 116.5t115 288.5q0 176 -112.5 293t-286.5 117 q-167 0 -283 -122t-116 -288zM193 1434h116l242 -336h-117zM211 471q0 151 101 251.5t239 100.5q139 0 239.5 -99t100.5 -253q0 -101 -50.5 -182.5t-127.5 -123.5t-162 -42q-141 0 -240.5 95.5t-99.5 252.5zM303 471q0 -126 70.5 -194t177.5 -68q99 0 173.5 72t74.5 190 q0 120 -71 193t-177 73q-103 0 -175.5 -75t-72.5 -191zM393 1434h117l242 -336h-117z" />
<glyph unicode="&#xf3;" horiz-adv-x="1120" d="M59 471q0 100 39.5 192t105.5 158.5t157 106t190 39.5q213 0 352 -141t139 -353q0 -135 -64 -248t-177 -179t-250 -66q-209 0 -350.5 136t-141.5 355zM152 471q0 -182 112.5 -293.5t286.5 -111.5q169 0 284 116.5t115 288.5q0 176 -112.5 293t-286.5 117 q-167 0 -283 -122t-116 -288zM211 471q0 151 101 251.5t239 100.5q139 0 239.5 -99t100.5 -253q0 -101 -50.5 -182.5t-127.5 -123.5t-162 -42q-141 0 -240.5 95.5t-99.5 252.5zM303 471q0 -126 70.5 -194t177.5 -68q99 0 173.5 72t74.5 190q0 120 -71 193t-177 73 q-103 0 -175.5 -75t-72.5 -191zM373 1098l241 336h117l-242 -336h-116zM573 1098l242 336h117l-242 -336h-117z" />
<glyph unicode="&#xf4;" horiz-adv-x="1120" d="M59 471q0 100 39.5 192t105.5 158.5t157 106t190 39.5q213 0 352 -141t139 -353q0 -135 -64 -248t-177 -179t-250 -66q-209 0 -350.5 136t-141.5 355zM152 471q0 -182 112.5 -293.5t286.5 -111.5q169 0 284 116.5t115 288.5q0 176 -112.5 293t-286.5 117 q-167 0 -283 -122t-116 -288zM211 471q0 151 101 251.5t239 100.5q139 0 239.5 -99t100.5 -253q0 -101 -50.5 -182.5t-127.5 -123.5t-162 -42q-141 0 -240.5 95.5t-99.5 252.5zM279 1044v105l282 162l283 -162v-105l-283 162zM279 1225v106l282 164l283 -164v-106l-283 164z M303 471q0 -126 70.5 -194t177.5 -68q99 0 173.5 72t74.5 190q0 120 -71 193t-177 73q-103 0 -175.5 -75t-72.5 -191z" />
<glyph unicode="&#xf5;" horiz-adv-x="1120" d="M59 471q0 100 39.5 192t105.5 158.5t157 106t190 39.5q213 0 352 -141t139 -353q0 -135 -64 -248t-177 -179t-250 -66q-209 0 -350.5 136t-141.5 355zM141 1237q94 195 262 195q52 0 148.5 -41t142.5 -39q36 1 56.5 23t42.5 65l67 -54q-23 -48 -55 -77.5t-55.5 -38 t-44.5 -8.5q-55 0 -148 40.5t-143 40.5q-59 0 -113 -43.5t-90 -125.5zM152 471q0 -182 112.5 -293.5t286.5 -111.5q169 0 284 116.5t115 288.5q0 176 -112.5 293t-286.5 117q-167 0 -283 -122t-116 -288zM211 471q0 151 101 251.5t239 100.5q139 0 239.5 -99t100.5 -253 q0 -101 -50.5 -182.5t-127.5 -123.5t-162 -42q-141 0 -240.5 95.5t-99.5 252.5zM258 1133q60 137 168 137q53 0 146.5 -41t140.5 -41q103 0 196 160l72 -58q-123 -192 -256 -192q-58 0 -155 41t-142 41q-53 0 -102 -105zM303 471q0 -126 70.5 -194t177.5 -68q99 0 173.5 72 t74.5 190q0 120 -71 193t-177 73q-103 0 -175.5 -75t-72.5 -191z" />
<glyph unicode="&#xf6;" horiz-adv-x="1120" d="M59 471q0 100 39.5 192t105.5 158.5t157 106t190 39.5q213 0 352 -141t139 -353q0 -135 -64 -248t-177 -179t-250 -66q-209 0 -350.5 136t-141.5 355zM152 471q0 -182 112.5 -293.5t286.5 -111.5q169 0 284 116.5t115 288.5q0 176 -112.5 293t-286.5 117 q-167 0 -283 -122t-116 -288zM176 1276q0 72 52 124t126 52q73 0 124.5 -52t51.5 -124q0 -75 -51 -126.5t-125 -51.5q-75 0 -126.5 51.5t-51.5 126.5zM211 471q0 151 101 251.5t239 100.5q139 0 239.5 -99t100.5 -253q0 -101 -50.5 -182.5t-127.5 -123.5t-162 -42 q-141 0 -240.5 95.5t-99.5 252.5zM266 1276q0 -35 26.5 -61.5t61.5 -26.5t61.5 26.5t26.5 61.5q0 34 -26.5 61t-61.5 27t-61.5 -27t-26.5 -61zM303 471q0 -126 70.5 -194t177.5 -68q99 0 173.5 72t74.5 190q0 120 -71 193t-177 73q-103 0 -175.5 -75t-72.5 -191zM588 1276 q0 72 52 124t126 52q73 0 124.5 -52t51.5 -124q0 -75 -51 -126.5t-125 -51.5q-75 0 -126.5 51.5t-51.5 126.5zM678 1276q0 -35 26.5 -61.5t61.5 -26.5t61.5 26.5t26.5 61.5q0 34 -26.5 61t-61.5 27t-61.5 -27t-26.5 -61z" />
<glyph unicode="&#xf7;" d="M111 403v242h1048v-242h-1048zM209 496h852v57h-852v-57zM455 86q0 72 52.5 125t127.5 53q73 0 125.5 -53t52.5 -125q0 -75 -52 -127.5t-126 -52.5q-75 0 -127.5 52.5t-52.5 127.5zM457 965q0 73 52.5 125.5t127.5 52.5q73 0 125.5 -53t52.5 -125q0 -75 -52 -128 t-126 -53q-75 0 -127.5 53t-52.5 128zM549 86q0 -35 25.5 -60.5t60.5 -25.5t60.5 25.5t25.5 60.5q0 34 -25.5 60t-60.5 26t-60.5 -26t-25.5 -60zM551 965q0 -35 25.5 -60.5t60.5 -25.5t60.5 25.5t25.5 60.5q0 34 -25.5 60t-60.5 26t-60.5 -26t-25.5 -60z" />
<glyph unicode="&#xf8;" horiz-adv-x="1120" d="M45 117l98 96q-71 120 -71 258q0 134 65 248t176.5 181t243.5 67q151 0 272 -76l86 84l58 -60l-139 -137q-115 103 -277 103q-166 0 -279.5 -121.5t-113.5 -288.5q0 -155 94 -262l-154 -152zM152 14l149 148q110 -96 256 -96q174 0 293 117t119 288q0 140 -90 260 l141 141l59 -59l-88 -86q70 -115 70 -254q0 -210 -145 -351.5t-359 -141.5q-136 0 -250 71l-98 -96zM223 471q0 151 98 251.5t236 100.5q125 0 234 -88l-496 -489q-72 97 -72 225zM315 471q0 -45 9 -82l331 330q-47 18 -98 18q-103 0 -172.5 -74.5t-69.5 -191.5zM340 199 q85 -76 217 -76q86 0 165.5 42t133 123.5t53.5 182.5q0 116 -75 217zM477 219l330 326q10 -38 10 -74q0 -117 -79.5 -189.5t-180.5 -72.5q-38 0 -80 10z" />
<glyph unicode="&#xf9;" horiz-adv-x="987" d="M113 385v561h92v-551q0 -57 8 -104t28.5 -90t52.5 -72t83 -46t117 -17q82 0 140 25t89.5 72t45 103t13.5 129v551h92v-561q0 -192 -103.5 -298.5t-276.5 -106.5q-170 0 -275.5 104.5t-105.5 300.5zM209 1462h117l241 -336h-116zM264 362v584h92v-624q0 -47 43 -80t93 -33 q52 0 95.5 31t43.5 82v624h92v-584q0 -64 -21.5 -112t-57 -74.5t-74 -39.5t-78.5 -13q-41 0 -79.5 13t-73 39.5t-55 74.5t-20.5 112zM410 1462h116l242 -336h-117z" />
<glyph unicode="&#xfa;" horiz-adv-x="987" d="M113 385v561h92v-551q0 -57 8 -104t28.5 -90t52.5 -72t83 -46t117 -17q82 0 140 25t89.5 72t45 103t13.5 129v551h92v-561q0 -192 -103.5 -298.5t-276.5 -106.5q-170 0 -275.5 104.5t-105.5 300.5zM262 1126l242 336h117l-242 -336h-117zM264 362v584h92v-624 q0 -47 43 -80t93 -33q52 0 95.5 31t43.5 82v624h92v-584q0 -64 -21.5 -112t-57 -74.5t-74 -39.5t-78.5 -13q-41 0 -79.5 13t-73 39.5t-55 74.5t-20.5 112zM463 1126l242 336h116l-241 -336h-117z" />
<glyph unicode="&#xfb;" horiz-adv-x="987" d="M113 385v561h92v-551q0 -57 8 -104t28.5 -90t52.5 -72t83 -46t117 -17q82 0 140 25t89.5 72t45 103t13.5 129v551h92v-561q0 -192 -103.5 -298.5t-276.5 -106.5q-170 0 -275.5 104.5t-105.5 300.5zM211 1044v105l283 162l282 -162v-105l-282 162zM211 1225v106l283 164 l282 -164v-106l-282 164zM264 362v584h92v-624q0 -47 43 -80t93 -33q52 0 95.5 31t43.5 82v624h92v-584q0 -64 -21.5 -112t-57 -74.5t-74 -39.5t-78.5 -13q-41 0 -79.5 13t-73 39.5t-55 74.5t-20.5 112z" />
<glyph unicode="&#xfc;" horiz-adv-x="987" d="M111 1278q0 72 51.5 124t126.5 52q73 0 124.5 -52t51.5 -124q0 -75 -51 -126.5t-125 -51.5q-75 0 -126.5 51.5t-51.5 126.5zM113 385v561h92v-551q0 -57 8 -104t28.5 -90t52.5 -72t83 -46t117 -17q82 0 140 25t89.5 72t45 103t13.5 129v551h92v-561q0 -192 -103.5 -298.5 t-276.5 -106.5q-170 0 -275.5 104.5t-105.5 300.5zM201 1278q0 -35 26.5 -61.5t61.5 -26.5t61.5 26.5t26.5 61.5q0 34 -26.5 61t-61.5 27t-61.5 -27t-26.5 -61zM264 362v584h92v-624q0 -47 43 -80t93 -33q52 0 95.5 31t43.5 82v624h92v-584q0 -64 -21.5 -112t-57 -74.5 t-74 -39.5t-78.5 -13q-41 0 -79.5 13t-73 39.5t-55 74.5t-20.5 112zM522 1278q0 72 52 124t126 52q73 0 125 -52t52 -124q0 -75 -51.5 -126.5t-125.5 -51.5q-75 0 -126.5 51.5t-51.5 126.5zM612 1278q0 -35 26.5 -61.5t61.5 -26.5t61.5 26.5t26.5 61.5q0 34 -26.5 61 t-61.5 27t-61.5 -27t-26.5 -61z" />
<glyph unicode="&#xfd;" horiz-adv-x="942" d="M-14 946h96l324 -678l284 678h96l-628 -1485h-95l295 699zM145 946h95l209 -414l-52 -112zM219 -539l629 1485h94l-629 -1485h-94zM291 1100l241 336h117l-241 -336h-117zM492 1100l241 336h117l-242 -336h-116z" />
<glyph unicode="&#xfe;" horiz-adv-x="1146" d="M158 -510h92v2200h-92v-2200zM309 254q39 -77 129.5 -132.5t198.5 -55.5q168 0 276.5 122.5t108.5 290.5q0 103 -50 195t-139.5 149.5t-195.5 57.5q-108 0 -198.5 -56t-129.5 -133v998h92v-801q35 32 99.5 55t136.5 23q210 0 343.5 -139.5t133.5 -348.5q0 -137 -60 -251 t-170 -181t-247 -67q-72 0 -136.5 22.5t-99.5 54.5v-567h-92v764zM309 479q0 145 99 244.5t229 99.5q129 0 227.5 -101t98.5 -243q0 -157 -97 -256.5t-229 -99.5q-131 0 -229.5 101.5t-98.5 254.5zM401 479q0 -119 69.5 -194.5t166.5 -75.5q96 0 164.5 75.5t68.5 194.5 q0 107 -69.5 182.5t-163.5 75.5q-96 0 -166 -73.5t-70 -184.5z" />
<glyph unicode="&#xff;" horiz-adv-x="942" d="M-14 946h96l324 -678l284 678h96l-628 -1485h-95l295 699zM88 1276q0 72 52 124t126 52q73 0 124.5 -52t51.5 -124q0 -75 -51 -126.5t-125 -51.5q-75 0 -126.5 51.5t-51.5 126.5zM145 946h95l209 -414l-52 -112zM178 1276q0 -35 26.5 -61.5t61.5 -26.5t61.5 26.5 t26.5 61.5q0 34 -26.5 61t-61.5 27t-61.5 -27t-26.5 -61zM219 -539l629 1485h94l-629 -1485h-94zM500 1276q0 72 52 124t126 52q73 0 124.5 -52t51.5 -124q0 -75 -51 -126.5t-125 -51.5q-75 0 -126.5 51.5t-51.5 126.5zM590 1276q0 -35 26.5 -61.5t61.5 -26.5t61.5 26.5 t26.5 61.5q0 34 -26.5 61t-61.5 27t-61.5 -27t-26.5 -61z" />
<glyph unicode="&#x131;" horiz-adv-x="479" d="M117 0v946h92v-946h-92zM268 0v946h92v-946h-92z" />
<glyph unicode="&#x152;" horiz-adv-x="2555" d="M74 772q0 213 108.5 396t293 290t398.5 107q220 0 409.5 -114.5t293.5 -303.5v397h844v-92h-746v-653h-98q-5 136 -63.5 260.5t-152.5 215t-221.5 144.5t-265.5 54q-142 0 -272 -56.5t-224 -151t-150 -224t-56 -269.5q0 -187 94.5 -348.5t256.5 -256.5t351 -95 q254 0 457 172l70 -66q-108 -94 -244 -146t-283 -52q-160 0 -307.5 63t-255.5 169.5t-172.5 253t-64.5 306.5zM231 772q0 130 51.5 249t137.5 205t205 137.5t249 51.5t249 -51.5t205.5 -137.5t138 -205t51.5 -249t-51.5 -249t-138 -205t-205.5 -137.5t-249 -51.5t-249 51.5 t-205 137.5t-137.5 205t-51.5 249zM330 772q0 -145 73 -272t199 -203t272 -76q109 0 210 45t174 119.5t117 176t44 210.5t-44 210.5t-117 176t-174 119.5t-210 45q-146 0 -272 -76t-199 -203t-73 -272zM389 772q0 -131 65 -244.5t177.5 -181t242.5 -67.5v92q-103 0 -193 56 t-142 148.5t-52 196.5t52 197t142 149t193 56v92q-130 0 -242.5 -67.5t-177.5 -181.5t-65 -245zM1376 287l66 -70q80 80 135 178v-395h844v92h-746v649h-98q-12 -258 -201 -454zM1735 150v591h686v-92h-588v-407h588v-92h-686zM1735 799v92h686v-92h-686zM1735 948v447h686 v-92h-588v-263h588v-92h-686zM1892 299v293h99v-201h430v-92h-529z" />
<glyph unicode="&#x153;" horiz-adv-x="1957" d="M66 471q0 134 65 248t176.5 181t243.5 67q152 0 274 -75.5t183 -203.5q56 125 168 202t256 77q105 0 193 -40t146 -109t90 -160t31 -193h-684q-4 -102 67.5 -179t168.5 -77q80 0 133.5 40.5t81.5 104.5l78 -45q-48 -96 -126.5 -142t-166.5 -46q-139 0 -234.5 105.5 t-95.5 248.5q0 138 90.5 243t227.5 105q105 0 181.5 -59.5t106.5 -155.5h-100q-20 60 -70 94.5t-116 34.5q-86 0 -146.5 -51t-66.5 -135h579q-18 135 -121 232.5t-245 97.5q-96 0 -181.5 -45.5t-141.5 -135.5t-56 -204h-92q-9 166 -126 275.5t-286 109.5 q-166 0 -279.5 -121.5t-113.5 -288.5q0 -107 51 -199.5t142 -149t200 -56.5q164 0 282 106t130 266h92q12 -163 122.5 -267.5t266.5 -104.5q108 0 198 58.5t142 156.5l78 -45q-64 -122 -177 -189t-253 -67q-147 0 -257.5 75.5t-166.5 202.5q-61 -127 -183 -202.5t-274 -75.5 q-199 0 -342 145t-143 346zM217 471q0 151 98 251.5t236 100.5q91 0 171 -43t130.5 -125t50.5 -184q0 -101 -53.5 -182.5t-133 -123.5t-165.5 -42q-140 0 -237 95t-97 253zM309 471q0 -127 68 -194.5t174 -67.5q101 0 180.5 72.5t79.5 189.5q0 119 -76.5 192.5t-183.5 73.5 q-103 0 -172.5 -74.5t-69.5 -191.5z" />
<glyph unicode="&#x160;" horiz-adv-x="1114" d="M39 1194h98q5 -139 51.5 -228t165.5 -147l252 -123q232 -114 232 -293q0 -113 -84.5 -192.5t-202.5 -79.5q-122 0 -213.5 71t-132.5 185l82 37q86 -201 268 -201q86 0 135 46.5t49 129.5q0 40 -17 75t-49 62.5t-62 46.5t-72 40l-246 118q-254 130 -254 453zM66 322l86 38 q52 -129 156 -208.5t243 -79.5q144 0 245 96.5t101 239.5q0 48 -9.5 88.5t-29.5 72t-39.5 54.5t-52 44.5t-53 33.5t-56.5 30l-254 129q-206 105 -206 334q0 167 111 269t286 102q120 0 219.5 -52t153.5 -149l-70 -57q-53 85 -127.5 125.5t-181.5 40.5q-130 0 -211.5 -77 t-81.5 -202q0 -48 12.5 -88.5t30.5 -67.5t48.5 -52.5t55.5 -40.5t62 -34l250 -125q241 -122 241 -378q0 -122 -62.5 -221t-164.5 -153t-221 -54q-170 0 -297.5 94t-183.5 248zM319 1776v106l283 -164l283 164v-106l-283 -164zM319 1958v104l283 -161l283 161v-104l-283 -162 zM354 1196q0 -84 49.5 -141t147.5 -105l256 -125q129 -63 188.5 -158.5t59.5 -254.5h98q9 163 -59 285.5t-213 191.5l-258 125q-87 42 -128.5 83t-41.5 99q0 64 40 96.5t97 32.5q119 0 190 -117l70 60q-96 147 -260 147q-92 0 -164 -60.5t-72 -158.5z" />
<glyph unicode="&#x161;" horiz-adv-x="829" d="M57 727h95q0 -87 47 -152t159 -112q15 -6 48.5 -19t49 -19.5t42 -19.5t40 -24.5t29 -27.5t22 -35.5t7.5 -43.5q3 -66 -48.5 -108.5t-121.5 -42.5q-74 0 -130.5 47t-74.5 113l88 28q8 -39 38.5 -72.5t80.5 -33.5q30 0 53 15.5t23 43.5q0 23 -21 41.5t-47.5 28.5t-71 26 t-71.5 29q-236 112 -236 338zM76 233l90 29q27 -87 97.5 -141.5t162.5 -54.5q93 0 164.5 65t64.5 158q-6 70 -54.5 113.5t-135.5 76.5q-119 43 -162 72q-92 62 -92 176q0 106 69 173t173 67q75 0 141.5 -39.5t107.5 -114.5l29 -51l-76 -51l-28 55q-28 55 -76.5 85t-101.5 30 q-50 0 -87 -25.5t-51 -67.5q45 39 111 39q48 0 91 -24.5t69 -75.5l22 -43l-76 -51l-22 43q-19 35 -43.5 50t-63.5 15q-29 0 -56.5 -15.5t-37.5 -33.5q7 -22 20 -38.5t35.5 -29t41.5 -20.5t52.5 -20.5t53.5 -20.5q119 -51 175.5 -106.5t64.5 -155.5q8 -93 -38 -168t-122 -114 t-162 -39q-121 0 -221 70t-129 183zM125 1208v107l283 -164l282 164v-107l-282 -164zM125 1391v104l283 -162l282 162v-104l-282 -162z" />
<glyph unicode="&#x178;" horiz-adv-x="1400" d="M-20 1544h108l520 -893v-651h-98v633zM154 1544h108l455 -782l454 782h109l-514 -885v-659h-98v659zM328 1544h108l334 -575l-53 -97zM330 1868q0 72 52 124t126 52q73 0 124.5 -52t51.5 -124q0 -75 -51 -126.5t-125 -51.5q-75 0 -126.5 51.5t-51.5 126.5zM420 1868 q0 -35 26.5 -61.5t61.5 -26.5t61.5 26.5t26.5 61.5q0 34 -26.5 61t-61.5 27t-61.5 -27t-26.5 -61zM741 1868q0 72 52 124t127 52q73 0 124.5 -52t51.5 -124q0 -75 -51 -126.5t-125 -51.5q-75 0 -127 51.5t-52 126.5zM825 0v651l518 893h109l-528 -911v-633h-99zM831 1868 q0 -35 27 -61.5t62 -26.5t61.5 26.5t26.5 61.5q0 34 -26.5 61t-61.5 27t-62 -27t-27 -61z" />
<glyph unicode="&#x17d;" horiz-adv-x="1390" d="M20 0l719 1303h-553v92h725l-727 -1303h1080v-92h-1244zM186 1452v92h1000l-731 -1302h71l723 1302h117l-729 -1302h633v-92h-985l731 1302h-830zM412 1776v106l282 -164l283 164v-106l-283 -164zM412 1958v104l282 -161l283 161v-104l-283 -162z" />
<glyph unicode="&#x17e;" horiz-adv-x="929" d="M2 0l451 717h-367v86h535l-517 -803h-102zM86 860v86h815l-465 -717h488v-86h-543l-37 -57h580v-86h-748l559 860h-649zM180 1208v107l283 -164l282 164v-107l-282 -164zM180 1391v104l283 -162l282 162v-104l-282 -162z" />
<glyph unicode="&#x192;" d="M283 -279l16 89q36 -9 74 -9q39 0 70 11.5t52.5 35t36 46.5t26 60.5t17 60.5t13.5 63l133 725h254l-14 -86h-164l-121 -658q-29 -168 -88 -245q-76 -101 -226 -101q-46 0 -79 8zM309 -139l15 80q16 -4 43 -4q24 0 37 31t32 134l142 758h-103l14 86h103l80 424 q28 165 80 232q41 55 103.5 84.5t129.5 29.5q47 0 82 -14l-14 -84q-8 1 -24 4.5t-29 5.5t-25 2q-33 0 -61 -10t-47.5 -24t-36 -39t-26.5 -45t-19.5 -53.5t-13.5 -53t-11 -53.5l-76 -406h317l-14 -86h-317l-146 -774q-1 -5 -3 -16q-6 -30 -9.5 -46.5t-11.5 -46.5t-18 -47.5 t-24 -37t-34 -28.5t-45 -9q-33 0 -70 6zM760 1004l63 339q4 27 6.5 40t9.5 41.5t13.5 45t18 39t24.5 34.5t32 21t42 9q44 0 73 -10l-14 -76q-16 4 -47 4q-25 0 -38 -31t-32 -133l-59 -323h-92z" />
<glyph unicode="&#x2c6;" horiz-adv-x="872" d="M154 971v104l282 162l283 -162v-104l-283 162zM154 1151v106l282 164l283 -164v-106l-283 164z" />
<glyph unicode="&#x2c7;" horiz-adv-x="872" d="M154 1114v107l282 -164l283 164v-107l-283 -164zM154 1296v105l282 -162l283 162v-105l-283 -161z" />
<glyph unicode="&#x2d8;" horiz-adv-x="888" d="M0 1380h94q0 -45 25.5 -93t70 -88.5t113 -66.5t146.5 -26t145 26t109 66.5t66 88t24 93.5h94q-5 -71 -35 -132t-75.5 -103.5t-102 -72.5t-114 -44t-111.5 -14q-75 0 -150 23.5t-140.5 67t-109 115.5t-49.5 160zM154 1380h92q21 -64 73.5 -94.5t124.5 -30.5t125 30.5 t74 94.5h90q-8 -69 -52 -119.5t-105.5 -74t-131.5 -23.5q-108 0 -192.5 57.5t-97.5 159.5z" />
<glyph unicode="&#x2d9;" horiz-adv-x="641" d="M240 1298q0 34 24 58t58 24t57.5 -24t23.5 -58t-23.5 -57.5t-57.5 -23.5t-58 23.5t-24 57.5z" />
<glyph unicode="&#x2da;" horiz-adv-x="663" d="M129 1284q0 78 62 139.5t141 61.5q78 0 139 -61.5t61 -139.5q0 -79 -61 -141t-139 -62q-80 0 -141.5 61.5t-61.5 141.5zM225 1284q0 -46 30.5 -76t76.5 -30q44 0 74 30t30 76q0 44 -30 74.5t-74 30.5q-46 0 -76.5 -30.5t-30.5 -74.5z" />
<glyph unicode="&#x2db;" horiz-adv-x="657" d="M154 -223q0 68 45.5 126.5t113.5 100.5h88v-4q-61 -45 -109 -102t-48 -113q0 -59 39.5 -90t99.5 -31q38 0 119 25l-21 -90q-66 -19 -106 -19q-89 0 -155 55t-66 142z" />
<glyph unicode="&#x2dc;" horiz-adv-x="899" d="M31 1178q93 194 262 194q52 0 148.5 -41t142.5 -39q25 1 44.5 15t29 29t24.5 44l68 -53q-23 -48 -55.5 -78t-56 -38.5t-44.5 -8.5q-55 0 -148 41t-143 41q-59 0 -113 -44t-90 -126zM147 1073q60 137 168 137q53 0 146.5 -41t140.5 -41q104 0 197 160l71 -57 q-124 -193 -256 -193q-58 0 -155 41t-142 41q-54 0 -102 -104z" />
<glyph unicode="&#x2dd;" horiz-adv-x="913" d="M156 1161l206 301l125 -39l-254 -297zM428 1161l207 301l125 -39l-254 -297z" />
<glyph unicode="&#x3c0;" horiz-adv-x="1067" d="M123 670v92h190v-762h-92v670h-98zM123 854v92h821v-92h-821zM373 0v762h321v-762h-92v670h-137v-670h-92zM754 0v762h190v-92h-98v-670h-92z" />
<glyph unicode="&#x2000;" horiz-adv-x="1041" />
<glyph unicode="&#x2001;" horiz-adv-x="2083" />
<glyph unicode="&#x2002;" horiz-adv-x="1041" />
<glyph unicode="&#x2003;" horiz-adv-x="2083" />
<glyph unicode="&#x2004;" horiz-adv-x="694" />
<glyph unicode="&#x2005;" horiz-adv-x="520" />
<glyph unicode="&#x2006;" horiz-adv-x="347" />
<glyph unicode="&#x2007;" horiz-adv-x="347" />
<glyph unicode="&#x2008;" horiz-adv-x="260" />
<glyph unicode="&#x2009;" horiz-adv-x="416" />
<glyph unicode="&#x200a;" horiz-adv-x="115" />
<glyph unicode="&#x2010;" horiz-adv-x="389" d="M-98 535v92h585v-92h-585zM-98 684v92h585v-92h-585z" />
<glyph unicode="&#x2011;" horiz-adv-x="389" d="M-98 535v92h585v-92h-585zM-98 684v92h585v-92h-585z" />
<glyph unicode="&#x2012;" horiz-adv-x="389" d="M-98 535v92h585v-92h-585zM-98 684v92h585v-92h-585z" />
<glyph unicode="&#x2013;" horiz-adv-x="1241" d="M10 535v241h1221v-241h-1221zM109 627h1024v57h-1024v-57z" />
<glyph unicode="&#x2014;" horiz-adv-x="2265" d="M10 535v241h2245v-241h-2245zM109 627h2048v57h-2048v-57z" />
<glyph unicode="&#x2018;" horiz-adv-x="530" d="M150 1251q0 32 8 56l151 413l62 -22l-80 -271q30 5 37 5q75 0 127.5 -53t52.5 -128q0 -73 -53 -125.5t-127 -52.5q-73 0 -125.5 53t-52.5 125zM240 1251q0 -36 26 -62t62 -26t62 26t26 62q0 37 -25.5 62.5t-62.5 25.5t-62.5 -24t-25.5 -64z" />
<glyph unicode="&#x2019;" horiz-adv-x="530" d="M150 1386q0 73 53 126t127 53q73 0 125.5 -53.5t52.5 -125.5q0 -31 -8 -55l-152 -413l-61 22l80 270q-24 -4 -37 -4q-75 0 -127.5 52.5t-52.5 127.5zM242 1386q0 -37 25.5 -62.5t62.5 -25.5t62.5 24t25.5 64q0 36 -26 62.5t-62 26.5t-62 -26.5t-26 -62.5z" />
<glyph unicode="&#x201a;" horiz-adv-x="530" d="M150 -317l139 469l92 -29l-170 -463z" />
<glyph unicode="&#x201c;" horiz-adv-x="1009" d="M133 1251q0 32 8 56l152 413l61 -22l-80 -271q30 5 37 5q75 0 128 -53t53 -128q0 -72 -53 -125t-128 -53q-73 0 -125.5 53t-52.5 125zM223 1251q0 -36 26 -62t62 -26t62 26t26 62q0 37 -25.5 62.5t-62.5 25.5t-62.5 -24t-25.5 -64zM559 1251q0 32 8 56l152 413l61 -22 l-80 -271q30 5 37 5q75 0 128 -53t53 -128q0 -72 -53 -125t-128 -53q-73 0 -125.5 53t-52.5 125zM649 1251q0 -36 26 -62t62 -26t62 26t26 62q0 37 -25.5 62.5t-62.5 25.5t-62.5 -24t-25.5 -64z" />
<glyph unicode="&#x201d;" horiz-adv-x="1009" d="M92 1386q0 73 53 126t127 53q73 0 126 -53.5t53 -125.5q0 -28 -9 -55l-151 -413l-62 22l80 270q-24 -4 -37 -4q-75 0 -127.5 52.5t-52.5 127.5zM184 1386q0 -37 25.5 -62.5t62.5 -25.5t62.5 24t25.5 64q0 36 -26 62.5t-62 26.5t-62 -26.5t-26 -62.5zM518 1386 q0 73 53 126t127 53q73 0 126 -53.5t53 -125.5q0 -28 -9 -55l-151 -413l-62 22l80 270q-24 -4 -37 -4q-75 0 -127.5 52.5t-52.5 127.5zM610 1386q0 -37 25.5 -62.5t62.5 -25.5t62.5 24t25.5 64q0 36 -26 62.5t-62 26.5t-62 -26.5t-26 -62.5z" />
<glyph unicode="&#x201e;" horiz-adv-x="798" d="M150 -317l139 469l92 -29l-170 -463zM418 -317l139 469l92 -29l-170 -463z" />
<glyph unicode="&#x2020;" horiz-adv-x="1062" d="M113 963v98h387v-1426h-99v1328h-288zM113 1118v105h288v321h99v-426h-387zM559 -365v1426h391v-98h-293v-1328h-98zM559 1118v426h98v-321h293v-105h-391z" />
<glyph unicode="&#x2021;" horiz-adv-x="1062" d="M113 -4v98h387v-459h-99v361h-288zM113 152v104h288v707h-288v98h387v-909h-387zM113 1118v105h288v321h99v-426h-387zM559 94h391v-98h-293v-361h-98v459zM559 152v909h391v-98h-293v-707h293v-104h-391zM559 1118v426h98v-321h293v-105h-391z" />
<glyph unicode="&#x2022;" d="M295 772q0 138 101.5 239t240.5 101q138 0 239 -101t101 -239q0 -139 -101 -240.5t-239 -101.5q-139 0 -240.5 101t-101.5 241zM387 772q0 -106 72 -178t178 -72q105 0 177.5 72.5t72.5 177.5q0 104 -73 177t-177 73q-105 0 -177.5 -72.5t-72.5 -177.5zM459 772 q0 74 52.5 126t125.5 52t125.5 -52t52.5 -126t-52.5 -126t-125.5 -52t-125.5 52t-52.5 126zM541 772q0 -40 28 -68t68 -28t68 28t28 68t-28 68t-68 28t-68 -28t-28 -68z" />
<glyph unicode="&#x2026;" horiz-adv-x="2048" d="M162 70q0 72 53 125t127 53q73 0 125.5 -53t52.5 -125q0 -75 -52 -128t-126 -53q-75 0 -127.5 53t-52.5 128zM254 70q0 -37 25.5 -62.5t62.5 -25.5t62.5 25.5t25.5 62.5q0 36 -26 62t-62 26t-62 -26t-26 -62zM844 70q0 72 53 125t127 53q73 0 125.5 -53t52.5 -125 q0 -75 -52 -128t-126 -53q-75 0 -127.5 53t-52.5 128zM936 70q0 -37 25.5 -62.5t62.5 -25.5t62.5 25.5t25.5 62.5q0 36 -26 62t-62 26t-62 -26t-26 -62zM1526 70q0 72 53 125t127 53q73 0 125.5 -53t52.5 -125q0 -75 -52 -128t-126 -53q-75 0 -127.5 53t-52.5 128zM1618 70 q0 -37 25.5 -62.5t62.5 -25.5t62.5 25.5t25.5 62.5q0 36 -26 62t-62 26t-62 -26t-26 -62z" />
<glyph unicode="&#x202f;" horiz-adv-x="416" />
<glyph unicode="&#x2030;" horiz-adv-x="1728" d="M41 1255q0 138 101.5 239t240.5 101q138 0 239 -101t101 -239q0 -139 -101 -240.5t-239 -101.5q-139 0 -240.5 101.5t-101.5 240.5zM133 1255q0 -106 72 -177.5t178 -71.5q105 0 177.5 72t72.5 177q0 104 -73 177t-177 73q-105 0 -177.5 -72.5t-72.5 -177.5zM172 88 l842 1483l71 -37l-837 -1485zM205 1255q0 74 52.5 126.5t125.5 52.5t125.5 -52.5t52.5 -126.5q0 -73 -52.5 -125.5t-125.5 -52.5t-125.5 52.5t-52.5 125.5zM287 1255q0 -40 28 -68t68 -28t68 28t28 68t-28 68.5t-68 28.5t-68 -28.5t-28 -68.5zM297 25l842 1482l71 -37 l-837 -1484zM664 311q0 138 101.5 239t240.5 101q138 0 239 -101t101 -239q0 -139 -101 -240.5t-239 -101.5q-140 0 -241 101.5t-101 240.5zM756 311q0 -106 72 -178t178 -72q104 0 176.5 72.5t72.5 177.5q0 104 -72.5 177t-176.5 73q-105 0 -177.5 -72.5t-72.5 -177.5z M827 311q0 73 52.5 125.5t126.5 52.5t126 -52.5t52 -125.5t-52 -125.5t-126 -52.5t-126.5 52.5t-52.5 125.5zM909 311q0 -40 28.5 -68t68.5 -28t68 28t28 68t-28 68.5t-68 28.5t-68.5 -28.5t-28.5 -68.5zM1026 954q0 138 101.5 239t240.5 101q138 0 239 -101t101 -239 q0 -139 -101 -240.5t-239 -101.5q-140 0 -241 101t-101 241zM1118 954q0 -106 72 -177.5t178 -71.5q105 0 177.5 72t72.5 177q0 104 -73 177t-177 73q-105 0 -177.5 -72.5t-72.5 -177.5zM1190 954q0 74 52.5 126.5t125.5 52.5t125.5 -52.5t52.5 -126.5t-52 -126t-126 -52 t-126 52t-52 126zM1272 954q0 -40 28 -68t68 -28t68 28t28 68t-28 68.5t-68 28.5t-68 -28.5t-28 -68.5z" />
<glyph unicode="&#x2039;" horiz-adv-x="628" d="M31 655l506 588v-125l-396 -463l396 -462v-125zM217 655l320 377v-125l-209 -252l209 -252v-124z" />
<glyph unicode="&#x203a;" horiz-adv-x="628" d="M92 68v125l395 462l-395 463v125l506 -588zM92 279v124l209 252l-209 252v125l320 -377z" />
<glyph unicode="&#x2044;" horiz-adv-x="851" d="M-113 68l881 1513l72 -37l-877 -1515zM12 4l881 1514l72 -37l-877 -1516z" />
<glyph unicode="&#x205f;" horiz-adv-x="520" />
<glyph unicode="&#x20ac;" horiz-adv-x="1339" d="M10 432v98h262q15 -62 29 -98q29 -76 65.5 -138t85.5 -113.5t113.5 -80t139.5 -28.5q234 0 364 270h105q-71 -163 -189.5 -262.5t-279.5 -99.5q-96 0 -178.5 36t-144 100.5t-106 143t-75.5 172.5h-191zM10 588v104h137q-4 31 -4 90h-133v99h238q-6 -49 -6 -136 q0 -71 18 -157h-250zM10 938v104h166q27 104 71.5 194t109 165.5t154.5 119.5t194 44q158 0 276 -98t190 -257h-108q-61 119 -150.5 191t-207.5 72q-82 0 -152 -36t-117 -90t-85 -129t-59 -141t-36 -139h-246zM301 745q0 99 4 136h402v-99h-314q0 -59 4 -90h310v-104h-388 q-18 71 -18 157zM313 938q10 59 23 104q22 76 54 140.5t76.5 118t106 84t132.5 30.5q185 0 299 -205h-107q-76 107 -192 107q-99 0 -167 -77t-106 -198h275v-104h-394zM332 530h375v-98h-250q86 -205 248 -205q119 0 196 115h105q-109 -213 -301 -213q-123 0 -210 83.5 t-135 219.5q-17 53 -28 98z" />
<glyph unicode="&#x2122;" horiz-adv-x="1925" d="M90 1315v86h268v-86h-268zM90 1458v86h930l280 -670h5l284 670h148v-862h-86v776h-9l-337 -776h-5l-333 776h-457v-774h-92v774h-328zM569 684v717h349l40 -96v-623h-86v633h-210v-631h-93zM1018 682v496h4l217 -498h-86l-45 125h-4v-123h-86zM1370 680l217 498h4v-496 h-86v123h-4l-45 -125h-86z" />
<glyph unicode="&#x2202;" horiz-adv-x="1318" d="M98 440q-30 228 84 394q122 175 334.5 219.5t394.5 -68.5v279q0 35 -16 43q-11 7 -22.5 1t-28.5 -28l-125 -180l-82 55l127 182q35 51 83 64t97 -15q68 -38 68 -145v-702q0 -144 -66 -236q-90 -130 -242.5 -156t-281.5 64q-138 95 -162 254q-20 159 59 272q57 83 151 125 t196 34t184 -65q35 -24 59 -59l2 2v100l-20 17q-100 68 -219.5 77.5t-229 -40.5t-178.5 -150t-78 -219.5t42 -228t151 -176.5q152 -106 336.5 -74t290.5 184q84 122 84 254v705q0 73 -28.5 127.5t-74.5 85.5q-74 48 -150.5 24.5t-129.5 -100.5l-119 -170l-80 55l115 164 q75 107 192 137.5t225 -35.5q62 -39 104 -112.5t42 -179.5v-668q0 -101 -23.5 -182.5t-79.5 -161.5q-84 -122 -215.5 -182t-274.5 -46.5t-265 97.5q-200 138 -230 364zM353.5 470q21.5 -117 117.5 -183q96 -69 219 -49.5t180 120.5q61 103 41.5 217t-114.5 181 q-95 66 -213.5 45.5t-184.5 -115.5q-67 -99 -45.5 -216z" />
<glyph unicode="&#x2206;" horiz-adv-x="1357" d="M41 0l539 1544h36l543 -1544h-1118zM174 98h852l-422 1221h-4zM256 156l348 991l344 -991h-692zM391 260h422l-203 614h-4zM684 1544h90l543 -1544h-98z" />
<glyph unicode="&#x220f;" horiz-adv-x="1400" d="M133 0v1544h977v-92h-879v-1452h-98zM291 0v1395h878v149h99v-1544h-99v1303h-780v-1303h-98zM449 1153v92h663v-1245h-98v1153h-565z" />
<glyph unicode="&#x2211;" horiz-adv-x="1056" d="M10 -350l615 944l-615 948h934v-86h-768l559 -860l-559 -860h768v-86h-934zM291 -207l516 803l-516 803h653v-86h-485l450 -717l-450 -717h485v-86h-653z" />
<glyph unicode="&#x221e;" horiz-adv-x="2027" d="M72 471q0 134 65 248t176.5 181t243.5 67q152 0 274 -75.5t183 -203.5q61 128 182.5 203.5t273.5 75.5q132 0 244 -67t177 -181t65 -248q0 -201 -143.5 -346t-342.5 -145q-152 0 -273.5 75.5t-182.5 202.5q-61 -127 -183 -202.5t-274 -75.5q-199 0 -342 145t-143 346z M164 471q0 -107 51 -199.5t142 -149t200 -56.5q164 0 282 106t130 266h92q10 -160 127.5 -266t281.5 -106q109 0 200 56t142.5 149t51.5 200q0 167 -114 288.5t-280 121.5q-169 0 -285.5 -109.5t-125.5 -275.5h-90q-9 166 -126 275.5t-286 109.5q-166 0 -279.5 -121.5 t-113.5 -288.5zM223 471q0 151 98 251.5t236 100.5q91 0 171 -43t130.5 -125t50.5 -184q0 -101 -53.5 -182.5t-133 -123.5t-165.5 -42q-140 0 -237 95t-97 253zM315 471q0 -127 68 -194.5t174 -67.5q101 0 180.5 72.5t79.5 189.5q0 119 -76.5 192.5t-183.5 73.5 q-103 0 -172.5 -74.5t-69.5 -191.5zM1118 471q0 102 50.5 184t130.5 125t171 43q138 0 236 -100.5t98 -251.5q0 -158 -97 -253t-237 -95q-86 0 -165.5 42t-133 123.5t-53.5 182.5zM1210 471q0 -117 79.5 -189.5t180.5 -72.5q106 0 174 67.5t68 194.5q0 117 -69.5 191.5 t-172.5 74.5q-107 0 -183.5 -73.5t-76.5 -192.5z" />
<glyph unicode="&#x222b;" horiz-adv-x="985" d="M10 -23v89h92v-103q0 -123 60.5 -182.5t150.5 -59.5q116 0 162.5 78t46.5 221v1188q0 41 7.5 75.5t23.5 65t46.5 47.5t72.5 17q56 0 101.5 -42t45.5 -126v-119h-92v131q0 32 -15 51t-40 19q-58 0 -58 -84v-1198q0 -87 -15.5 -157.5t-49 -129t-93.5 -91t-143 -32.5 q-141 0 -222 85.5t-81 256.5zM166 -53v119h92v-132q0 -32 15 -50.5t40 -18.5q58 0 58 84v1198q0 87 15.5 157.5t49 128.5t93.5 90.5t143 32.5q141 0 222 -85.5t81 -256.5v-88h-92v103q0 123 -60 182t-151 59q-116 0 -162.5 -78t-46.5 -221v-1187q0 -41 -7.5 -75.5t-23.5 -65 t-46.5 -47.5t-72.5 -17q-56 0 -101.5 42t-45.5 126z" />
<glyph unicode="&#x2260;" d="M111 221v260h393l51 90h-444v260h591l121 213h92l-178 -317h-534v-57h502l-164 -293h-338v-58h305l-178 -319h-99l125 221h-245zM393 2l178 317h496v58h-463l166 293h297v57h-264l180 317h94l-121 -213h203v-260h-350l-51 -90h401v-260h-549l-123 -219h-94z" />
<glyph unicode="&#x2264;" d="M111 0v90h1048v-90h-1048zM111 147v91h843l-843 387v108l1048 457v-94l-942 -418l942 -440v-91h-1048zM354 678l805 350v-94l-569 -256l569 -270v-95z" />
<glyph unicode="&#x2265;" horiz-adv-x="634" d="M-207 0v90h1049v-90h-1049zM-207 147v91l942 440l-942 418v94l1049 -457v-108l-844 -387h844v-91h-1049zM-207 313v95l569 270l-569 256v94l805 -350z" />
<glyph unicode="&#x25ca;" horiz-adv-x="1118" d="M90 772l301 772h90l-293 -772h-98zM248 772l301 772h37l284 -772l-301 -772h-37zM346 772l207 -551h4l213 551l-205 551h-4zM406 772l155 369l150 -369l-154 -369zM508 772l51 -145h4l47 145l-51 146h-4zM637 0l291 772h98l-299 -772h-90z" />
<glyph unicode="&#x25fc;" horiz-adv-x="942" d="M0 0v942h942v-942h-942z" />
</font>
</defs>
</svg>
