<?xml version="1.0" standalone="no"?>
<!DOCTYPE svg PUBLIC "-//W3C//DTD SVG 1.1//EN" "http://www.w3.org/Graphics/SVG/1.1/DTD/svg11.dtd" >
<svg xmlns="http://www.w3.org/2000/svg" xmlns:xlink="http://www.w3.org/1999/xlink" version="1.1">
<metadata></metadata>
<defs>
<font id="knedgelight" horiz-adv-x="1634" >
<font-face units-per-em="2048" ascent="1536" descent="-512" />
<missing-glyph horiz-adv-x="753" />
<glyph horiz-adv-x="0" />
<glyph horiz-adv-x="682" />
<glyph unicode=" "  horiz-adv-x="753" />
<glyph unicode="&#x09;" horiz-adv-x="753" />
<glyph unicode="&#xa0;" horiz-adv-x="753" />
<glyph unicode="!" horiz-adv-x="483" d="M160 43q0 32 25 57t57 25t57 -25t25 -57q0 -31 -25 -55.5t-57 -24.5t-57 24.5t-25 55.5zM166 1341q-3 35 19.5 62t56.5 27q31 0 53.5 -27t19.5 -62l-51 -974q0 -7 -4 -7h-39q-4 0 -4 7z" />
<glyph unicode="&#x22;" horiz-adv-x="679" d="M162 1405q-3 32 16.5 56t50.5 24q28 0 48.5 -24t17.5 -56l-45 -549q0 -6 -4 -6h-35q-4 0 -4 6zM385 1405q-3 32 17 56t51 24q28 0 48 -24t17 -56l-45 -549q0 -6 -4 -6h-35q-4 0 -4 6z" />
<glyph unicode="#" horiz-adv-x="1585" d="M92 446l17 60q0 4 6 4h338l127 428h-344q-7 0 -7 4l17 59q0 5 6 5h346l123 417q0 7 8 7h64q6 0 4 -7l-123 -417h407l123 417q0 7 8 7h64q6 0 4 -7l-123 -417h330q6 0 6 -5l-16 -59q0 -4 -7 -4h-331l-125 -428h336q6 0 6 -4l-17 -60q0 -4 -6 -4h-340l-127 -436q0 -6 -8 -6 h-63q-6 0 -4 6l127 436h-408l-127 -436q0 -6 -8 -6h-64q-6 0 -4 6l127 436h-336q-6 0 -6 4zM530 510h406l127 428h-408z" />
<glyph unicode="$" horiz-adv-x="1144" d="M104 6v510q0 3 2.5 4.5t5 0.5t3.5 -5q124 -450 413 -496q4 0 4 5v677q0 7 -4 9l-137 57q-279 118 -276 342q1 143 114 231.5t279 88.5h20q4 0 4 4v165q0 7 7 7h41q6 0 6 -7v-172q0 -4 4 -4q132 -23 229 -112q5 -5 10 0l95 82q14 9 14 -4v-420q0 -4 -3.5 -7t-6.5 5 q-55 162 -135.5 266t-200.5 133q-6 0 -6 -4v-574q0 -4 4 -8l92 -37q183 -73 259.5 -170t76.5 -223q0 -67 -27 -133.5t-78 -123.5t-135 -93t-188 -37q-4 0 -4 -4v-180q0 -6 -6 -6h-41q-7 0 -7 6v184q0 4 -4 4q-142 17 -301 137q-6 4 -10 0l-106 -100q-7 -7 -7 2zM215 1116 q-2 -87 48.5 -153.5t176.5 -120.5l86 -37q4 0 6 2v563q0 4 -4 4q-6 2 -20 2q-54 0 -103.5 -14.5t-92.5 -44.5t-69.5 -81.5t-27.5 -119.5zM586 20q0 -4 4 -4q147 0 238.5 84t91.5 238q0 122 -61 195.5t-216 134.5l-51 20q-3 1 -4.5 -1t-1.5 -5v-662z" />
<glyph unicode="%" horiz-adv-x="1679" d="M66 1053q0 156 103 266.5t255 110.5t255 -110.5t103 -266.5q0 -163 -107 -269t-251 -106q-94 0 -175 46t-132 133t-51 196zM158 1053q0 -129 75 -224.5t191 -95.5q115 0 190.5 95.5t75.5 224.5q0 144 -80 232.5t-186 88.5t-186 -88.5t-80 -232.5zM332 6q-4 -6 4 -6h70 q8 0 8 6q115 176 289.5 430.5t381.5 553t275 396.5q5 7 -4 7h-70q-8 0 -8 -7q-41 -61 -946 -1380zM897 338q0 156 103 266.5t255 110.5t255.5 -110.5t103.5 -266.5q0 -163 -107.5 -269t-251.5 -106q-94 0 -175 46t-132 133t-51 196zM989 338q0 -129 75 -224.5t191 -95.5 q115 0 191 95.5t76 224.5q0 144 -80.5 232.5t-186.5 88.5t-186 -88.5t-80 -232.5z" />
<glyph unicode="&#x26;" horiz-adv-x="1376" d="M82 365q0 144 81.5 246t239.5 196l-22 33q-4 5 -20.5 28.5t-22.5 32.5t-21.5 32.5t-22.5 36.5t-19.5 35.5t-18.5 40t-12.5 39t-9.5 42.5t-3 42q0 106 89.5 183.5t230.5 77.5q135 0 225 -69t90 -177q0 -95 -67 -177t-156 -133l-123 -69l387 -553q39 62 88 168l121 262 q4 4 0 8l-127 125q-4 4 2 4h357q8 0 0 -4q-134 -53 -191 -180l-113 -246q-56 -118 -102 -188l25 -33q52 -74 92 -108.5t92 -34.5q38 0 71 19.5t49 39t34 47.5q3 7 6 4l30 -26q2 -2 0 -7q-47 -70 -95 -104.5t-122 -34.5q-70 0 -121 29t-94 92l-26 39q-73 -84 -162 -122 t-207 -38q-58 0 -116.5 13.5t-116 45t-101.5 77t-71 114.5t-27 152zM176 365q0 -141 94 -240.5t246 -99.5q108 0 188 36t144 111l-410 584q-55 -33 -95.5 -65t-81.5 -79t-63 -109.5t-22 -137.5zM330 1180q0 -45 24.5 -104t47.5 -95.5t63 -93.5l22 -33l117 66q51 29 85 59.5 t59.5 83.5t25.5 121q0 50 -20.5 88.5t-54 60t-71 32.5t-77.5 11q-107 0 -164 -51t-57 -145z" />
<glyph unicode="'" horiz-adv-x="456" d="M162 1405q-3 32 16.5 56t50.5 24q28 0 48.5 -24t17.5 -56l-45 -549q0 -6 -4 -6h-35q-4 0 -4 6z" />
<glyph unicode="(" horiz-adv-x="616" d="M119 600q0 282 111 514.5t284 368.5q5 5 10 0l23 -21q5 -5 0 -10q-24 -20 -45.5 -40t-57.5 -62.5t-65 -88t-62 -116t-55 -147t-36.5 -180.5t-14.5 -218t14.5 -218t36.5 -180.5t55 -147t62 -116t65 -88t57.5 -62.5t45.5 -40q5 -5 0 -10l-23 -21q-5 -5 -10 0 q-173 136 -284 368.5t-111 514.5z" />
<glyph unicode=")" horiz-adv-x="616" d="M70 -252q24 20 45.5 40t57.5 62.5t65 88t62 116t55 147t36.5 180.5t14.5 218t-14.5 218t-36.5 180.5t-55 147t-62 116t-65 88t-57.5 62.5t-45.5 40q-5 5 0 10l22 21q5 5 10 0q173 -136 284.5 -368.5t111.5 -514.5t-111.5 -514.5t-284.5 -368.5q-5 -5 -10 0l-22 21 q-5 5 0 10z" />
<glyph unicode="*" horiz-adv-x="843" d="M88.5 887.5q6.5 16.5 26.5 25.5l254 125q5 2 5 6t-5 5l-252 122q-20 9 -26.5 27t3.5 37q22 38 66 10l233 -158q6 -3 6 5l-20 284q-2 23 10 38.5t33 15.5t33 -15.5t10 -38.5l-21 -284q0 -8 7 -5l233 158q44 28 66 -10q10 -19 3.5 -37t-26.5 -27l-252 -122q-5 -1 -5 -5 t5 -6l254 -125q20 -9 26.5 -25.5t-3.5 -35.5q-10 -20 -29 -22.5t-37 10.5l-233 159q-9 6 -9 -4l21 -280q3 -49 -45 -49q-20 0 -31 13t-10 36l20 280q0 9 -8 4l-233 -159q-18 -13 -37 -10.5t-29 22.5q-10 19 -3.5 35.5z" />
<glyph unicode="+" horiz-adv-x="956" d="M51 496v47q0 4 6 4h389q5 0 5 4v407q0 7 6 7h43q6 0 6 -7v-407q0 -4 4 -4h389q6 0 6 -4v-47q0 -4 -6 -4h-389q-4 0 -4 -5v-407q0 -6 -6 -6h-43q-6 0 -6 6v407q0 5 -5 5h-389q-6 0 -6 4z" />
<glyph unicode="," horiz-adv-x="593" d="M177.5 -323.5q-2.5 5.5 0.5 8.5q123 117 123 266q0 4 -6 4q-43 0 -72.5 30t-29.5 68q0 43 29 74t73 31q45 0 73.5 -31.5t28.5 -75.5q0 -249 -211 -377q-6 -3 -8.5 2.5z" />
<glyph unicode="-" horiz-adv-x="559" d="M51 496v47q0 4 6 4h445q6 0 6 -4v-47q0 -4 -6 -4h-445q-6 0 -6 4z" />
<glyph unicode="." horiz-adv-x="573" d="M197 59q0 38 30 68.5t68 30.5t68 -30.5t30 -68.5q0 -37 -30 -66.5t-68 -29.5t-68 29.5t-30 66.5z" />
<glyph unicode="/" horiz-adv-x="671" d="M61 -279l498 1702q0 7 8 7h41q6 0 4 -7l-497 -1702q0 -6 -9 -6h-40q-7 0 -5 6z" />
<glyph unicode="0" horiz-adv-x="1478" d="M106 692q0 141 46.5 274.5t127 236t200.5 165t257 62.5t257.5 -61.5t202 -163.5t128.5 -236t47 -277q0 -116 -27 -224t-81 -200t-129 -160t-177 -106.5t-219 -38.5t-219 38.5t-177 106.5t-129 160t-81 200t-27 224zM199 692q5 -195 76.5 -349.5t192.5 -239.5t269 -85 t270 85t195 239.5t78 349.5q2 103 -24 205t-76 187t-117 150.5t-152 102.5t-174 37q-148 0 -274.5 -97t-197 -254.5t-66.5 -330.5z" />
<glyph unicode="1" horiz-adv-x="471" d="M66.5 1286q0.5 2 3.5 4l219 119q6 2 6 -4v-1251q0 -11 6 -17l88 -129q8 -8 -2 -8h-285q-10 0 -2 8l97 129q6 6 6 17v1122q0 6 -4 6h-129q-2 0 -3 1t-0.5 3z" />
<glyph unicode="2" horiz-adv-x="1015" d="M66 948q1 220 119 351t296 131q102 0 184 -29.5t133 -78.5t78 -111t27 -130q0 -77 -17.5 -144t-61.5 -140t-94.5 -137.5t-139.5 -165.5l-375 -439q-2 -4 2 -6h307q27 0 50 1t43 5.5t34 6.5t31 11t25 12.5t24.5 17l22 18t25 22t26.5 23.5q36 31 69.5 64.5t49.5 51.5l16 17 q4 4 7 2.5t1 -6.5l-92 -289q-2 -6 -8 -6h-754q-4 1 -2 6l455 533q156 178 211 299.5t53 238.5q-1 75 -29 134t-74.5 94t-102.5 53t-118 18q-129 0 -220 -91t-91 -228q0 -6 2 -8l119 -142q4 -8 -6 -8l-219 41q-6 0 -6 8z" />
<glyph unicode="3" horiz-adv-x="1132" d="M86 422q0 8 6 8l178 47q4 1 4 0.5t-2 -4.5l-86 -141q-2 -4 -2 -8q10 -82 50 -144t95.5 -95.5t113.5 -50t116 -16.5q92 0 176 42t141 125.5t60 189.5q2 83 -29 152t-85 113.5t-122.5 68.5t-142.5 24h-121q-4 0 -4 4v47q0 4 4 4h113q59 0 115.5 20.5t103.5 58.5t75 101 t25 140q-4 127 -81 197.5t-203 70.5q-101 0 -181 -47t-114 -135v-8l65 -154q2 -4 -2 -4l-182 51q-6 2 -6 8q41 161 151.5 252t266.5 91q172 0 275.5 -87.5t103.5 -228.5q0 -65 -19.5 -121t-48.5 -93t-66 -65.5t-68 -43t-59 -21.5q-5 -3 0 -6q147 -34 237.5 -129.5 t90.5 -243.5q0 -84 -32.5 -161t-91.5 -136.5t-149.5 -95t-199.5 -35.5q-209 0 -335.5 117t-133.5 342z" />
<glyph unicode="4" horiz-adv-x="1120" d="M70 344v55l4 11l688 976q5 7 10 7h82q6 0 6 -7v-985q0 -6 6 -6h74q34 0 52 6t36 27l53 59q6 9 6 -2v-233q0 -11 -6 -2l-53 57q-19 21 -36.5 27t-51.5 6h-74q-6 0 -6 -6v-180q0 -8 6 -17l76 -129q3 -3 2 -5.5t-4 -2.5h-256q-7 0 -2 8l78 129q6 9 6 17v180q0 6 -6 6h-686 q-4 0 -4 4zM135 401q-3 -6 2 -6h623q6 0 6 6v889q0 3 -2 4t-4 -2z" />
<glyph unicode="5" horiz-adv-x="1179" d="M88 276q-4 9 2 9l213 47q4 1 4 -0.5t-2 -5.5l-61 -138q-4 -7 0 -14q27 -64 116.5 -110t202.5 -46q80 0 153.5 26.5t136 80.5t99.5 147t37 215q0 102 -32 184.5t-87 136t-126 82t-152 28.5q-101 0 -181.5 -46.5t-148.5 -146.5q-3 -3 -6 0l-47 25q-2 2 -2 6l100 633 q0 4 6 4h475q28 0 52 1.5t38.5 3t34 6.5t26 7t27.5 9.5t27 9.5q4 0 4 -5l-20 -112q0 -6 -6 -6h-619q-6 0 -6 -4l-80 -488q0 -6 4 0q17 24 43 48.5t66 50.5t97.5 42.5t121.5 16.5q152 0 263 -65.5t165.5 -174t54.5 -244.5q0 -229 -147 -377.5t-377 -148.5q-166 0 -291.5 85.5 t-177.5 227.5z" />
<glyph unicode="6" horiz-adv-x="1222" d="M121 539q0 190 62 355.5t170.5 283t262 185t330.5 67.5q4 0 4 -5l-10 -45q-2 -4 -6 -4q-76 0 -158.5 -20t-170 -67.5t-160.5 -115.5t-129 -173.5t-76 -233.5q0 -6 4 0q140 215 418 215q99 0 180.5 -29.5t135 -77t90 -110t52 -126.5t15.5 -128q0 -239 -144.5 -393 t-357.5 -154q-157 0 -275 79t-177.5 208.5t-59.5 288.5zM213 512q0 -103 27.5 -188.5t71 -140.5t100 -93.5t112.5 -55t111 -16.5q50 0 104 16.5t108.5 54t97.5 91t70 135t27 179.5q0 185 -109 308.5t-298 123.5q-117 0 -215.5 -60.5t-152.5 -155t-54 -198.5z" />
<glyph unicode="7" horiz-adv-x="962" d="M63 1196l29 190q0 7 6 7h865q3 0 4.5 -3t-0.5 -6l-697 -1378q-2 -6 -6 -6h-57q-4 0 -4 6l643 1327q2 4 -4 4h-561q-19 0 -30.5 -1.5t-31 -11t-39.5 -28.5l-108 -102q-9 -9 -9 2z" />
<glyph unicode="8" horiz-adv-x="1142" d="M82 350q0 68 28 129.5t79.5 111.5t106.5 88.5t126 74.5l65 34l-26 15q-33 16 -62.5 34t-70 50.5t-69 68t-49 86.5t-20.5 107q0 116 111 198.5t281 82.5t275.5 -81.5t105.5 -199.5q0 -54 -26 -106t-70.5 -94t-89 -73t-93.5 -57l-37 -20l119 -60q295 -147 295 -368 q0 -113 -69.5 -208t-181 -147.5t-237.5 -52.5q-211 0 -351 109t-140 278zM174 354q3 -157 118.5 -246.5t280.5 -89.5q156 0 273 88.5t123 235.5q4 117 -57.5 188.5t-231.5 161.5l-125 62l-82 -43q-53 -26 -101.5 -59.5t-96 -78.5t-75 -102t-26.5 -117zM283 1151 q-3 -95 59 -166t207 -135l37 -21l41 25q56 30 95.5 57.5t76.5 63.5t54.5 79.5t16.5 94.5q-3 100 -92.5 163.5t-197.5 63.5q-70 0 -135 -23.5t-112.5 -76.5t-49.5 -125z" />
<glyph unicode="9" horiz-adv-x="1183" d="M88 934q0 136 62.5 249.5t174.5 180t250 66.5q118 0 212.5 -38.5t154 -105t90.5 -154t31 -188.5q0 -215 -61 -399.5t-166.5 -311.5t-249.5 -198.5t-307 -71.5q-5 0 -5 4v47q2 4 7 4q79 0 161 24t163 75.5t148.5 125.5t118 182t70.5 237q0 6 -4 0q-59 -85 -157.5 -142 t-233.5 -57q-86 0 -161 28t-128.5 75t-92.5 107.5t-58 127.5t-19 133zM180 934q0 -76 30 -151t80 -133.5t122 -95t151 -36.5q102 0 195 53t153 151.5t60 217.5q0 93 -25 169t-65 124t-93 81t-106.5 46.5t-108.5 13.5q-54 0 -109 -19t-106 -57t-91 -89.5t-63.5 -123 t-23.5 -151.5z" />
<glyph unicode=":" horiz-adv-x="573" d="M190 223q0 40 31.5 71.5t71.5 31.5t71 -31.5t31 -71.5q0 -38 -31 -69t-71 -31t-71.5 31t-31.5 69zM190 784q0 40 31.5 71.5t71.5 31.5t71 -31.5t31 -71.5q0 -38 -31 -69t-71 -31t-71.5 31t-31.5 69z" />
<glyph unicode=";" horiz-adv-x="579" d="M175.5 -153.5q-2.5 5.5 0.5 8.5q123 117 123 266q0 4 -6 4q-43 0 -73 30t-30 68q0 43 29 74t74 31t73.5 -31.5t28.5 -75.5q0 -249 -211 -377q-6 -3 -8.5 2.5zM190 784q0 40 31.5 71.5t71.5 31.5t71 -31.5t31 -71.5q0 -38 -31 -69t-71 -31t-71.5 31t-31.5 69z" />
<glyph unicode="&#x3c;" horiz-adv-x="1105" d="M92 487v48q0 4 4 6l965 446q4 -3 4 -4v-51q0 -8 -4 -10l-891 -410q-2 0 -2 -2t2 -2l891 -416q4 -2 4 -10v-51q-3 -4 -4 -4l-965 454q-4 2 -4 6z" />
<glyph unicode="=" horiz-adv-x="991" d="M113 328v53q0 6 6 6h753q7 0 7 -6v-53q0 -6 -7 -6h-753q-6 0 -6 6zM113 643v53q0 6 6 6h753q7 0 7 -6v-53q0 -6 -7 -6h-753q-6 0 -6 6z" />
<glyph unicode="&#x3e;" horiz-adv-x="1105" d="M41 31v51q0 8 4 10l891 416q2 0 2 2t-2 2l-891 410q-4 2 -4 10v51q0 3 0.5 3.5t2.5 0.5h1l965 -446q4 -2 4 -6v-48q0 -4 -4 -6l-965 -454q-4 3 -4 4z" />
<glyph unicode="?" horiz-adv-x="985" d="M80 997q-2 84 24 161.5t76.5 138.5t129 97t173.5 36q183 0 294.5 -107.5t111.5 -271.5q0 -239 -254 -412l-131 -82q-23 -16 -23 -43v-176l-4 -4h-57q-4 0 -4 4v199q0 29 5.5 41t20.5 22l95 57q144 96 195.5 179.5t51.5 216.5q0 149 -85.5 236t-221.5 87 q-119 0 -205 -74.5t-86 -173.5q0 -8 4 -12l111 -119q4 -8 -6 -8h-209q-6 0 -6 8zM365 43q0 32 24.5 57t56.5 25t57 -25t25 -57q0 -31 -25 -55.5t-57 -24.5t-56.5 24.5t-24.5 55.5z" />
<glyph unicode="@" horiz-adv-x="1728" d="M117 686q9 134 76.5 267t175 239t261.5 172t322 66q165 0 302.5 -61t224 -162.5t122.5 -239t9 -285.5q-32 -182 -140 -294t-235 -107q-68 3 -103.5 48.5t-25.5 100.5q0 6 -4 2q-49 -81 -137 -137.5t-215 -56.5q-167 0 -241.5 121.5t-25.5 318.5q36 144 122.5 254 t194.5 164.5t220 54.5q91 0 158 -59.5t79 -122.5l5 -4l120 75h4q1 -1 0 -4l-196 -534q-56 -153 63 -160q95 -6 179.5 91.5t111.5 252.5q35 193 -30.5 350.5t-216 247.5t-357.5 90q-130 0 -255 -51.5t-223.5 -141.5t-163.5 -219t-77 -276q-11 -129 18.5 -239t89.5 -187.5 t142.5 -133t178.5 -82t198 -26.5q101 0 204 32t165 75q4 2 8 -2l24 -35v-6q-100 -57 -196.5 -88t-223.5 -31q-157 0 -289.5 45t-232 132t-151 227.5t-39.5 318.5zM590 678q-41 -165 12.5 -266t165.5 -101q68 0 126.5 24.5t101.5 66.5t73.5 91.5t50.5 106.5l66 184 q45 129 -9 218.5t-171 91.5q-134 2 -250.5 -109t-165.5 -307z" />
<glyph unicode="A" horiz-adv-x="1308" d="M8 7q1 3 4 5q40 21 75 64t54 92l432 1081q0 4 -2 6l-102 68q-5 5 0 10l127 111q6 6 8 -2q36 -109 88 -228l447 -981q29 -65 77.5 -128.5t104.5 -94.5q4 -3 3.5 -6.5t-5.5 -3.5h-297q-6 0 -6.5 3.5t2.5 6.5l67 115q4 7 2 12l-157 350q-16 33 -60 33h-518q-8 0 -10 -6 l-147 -379q-5 -9 2 -16l104 -109q2 -2 2.5 -4.5t-0.5 -4t-4 -1.5h-285q-4 0 -5.5 2t-0.5 5zM369 582q-3 -7 4 -7h475q18 0 25 11t-1 26l-262 584z" />
<glyph unicode="B" horiz-adv-x="1251" d="M100 8l90 131q7 11 7 17v1083q0 9 -7 16l-90 129q-4 9 4 9h629q162 0 269.5 -88.5t107.5 -233.5q0 -105 -65.5 -193.5t-172.5 -111.5q-3 0 -3 -2t3 -2q132 -23 227 -118t95 -232q0 -128 -61.5 -223.5t-159.5 -142t-217 -46.5h-654q-10 0 -2 8zM289 70q0 -15 14 -15h408 q196 0 288.5 88t92.5 250q0 172 -107 255t-283 83h-387q-26 0 -26 -24v-637zM289 811q0 -25 26 -25h375q168 0 244 72q74 69 74 199v10q-3 126 -78 198t-207 72h-420q-14 0 -14 -14v-512z" />
<glyph unicode="C" horiz-adv-x="1536" d="M113 692q0 205 90 373.5t252 266.5t362 98q269 0 459 -187q7 -7 12 -2l92 74q3 3 6 2t3 -4v-432q0 -3 -2.5 -5t-5 -1t-3.5 6q-27 102 -74.5 189t-116 157t-164 109.5t-206.5 39.5q-170 0 -308.5 -94t-215 -250t-76.5 -340q0 -191 77.5 -345.5t215 -242.5t307.5 -88 q111 0 206.5 39.5t164 109t116 157t74.5 190.5q1 5 3.5 6t5 -1t2.5 -5v-432q0 -3 -3 -4t-6 2l-92 74q-5 5 -12 -2q-190 -187 -459 -187q-199 0 -359.5 91.5t-252.5 258.5t-92 379z" />
<glyph unicode="D" horiz-adv-x="1431" d="M100 8l90 131q7 11 7 17v1083q0 9 -7 16l-90 129q-4 9 4 9h428q378 0 582.5 -181t204.5 -507q0 -316 -212 -510.5t-550 -194.5h-455q-10 0 -2 8zM289 86q0 -13 8 -22t20 -9h220q308 0 491 173.5t189 476.5v13q1 116 -33 214q-36 104 -100 177.5t-152.5 125.5t-191.5 77 t-216 25h-207q-12 0 -20 -8.5t-8 -21.5v-1221z" />
<glyph unicode="E" horiz-adv-x="1239" d="M100 8l90 131q7 11 7 17v1083q0 9 -7 16l-90 129q-4 9 4 9h787h19h17.5h15.5t16.5 1t15 2t16.5 2.5t17 3.5t20 5t21.5 7t25.5 9q6 3 6 -2v-354q0 -3 -1.5 -4t-3.5 0t-3 4l-108 209q-17 36 -37 48.5t-60 12.5h-563q-14 0 -14 -14v-539q0 -24 26 -24h398q37 0 54 9t44 38 l76 98q3 4 5.5 2.5t2.5 -4.5v-358q0 -12 -8 -4l-82 116q-26 32 -40 40t-52 8h-398q-26 0 -26 -25v-610q0 -15 14 -15h440q78 0 123 17.5t86 56.5l207 203q4 4 7 2.5t1 -6.5l-112 -322q-2 -6 -8 -6h-947q-10 0 -2 8z" />
<glyph unicode="F" horiz-adv-x="1083" d="M100 8l90 131q7 11 7 17v1083q0 9 -7 16l-90 129q-4 9 4 9h764h18.5h18.5h16t16 1t15 2t17 2.5t17 3.5t20 5t21.5 7t25.5 9q6 3 6 -2v-354q0 -3 -1.5 -4t-3.5 0t-3 4l-109 209q-17 37 -36.5 49t-59.5 12h-541q-14 0 -14 -14v-535q0 -24 26 -24h390q63 0 106 47l72 78 q3 4 5.5 2.5t2.5 -4.5v-320q0 -12 -8 -4l-78 99q-23 28 -43.5 37.5t-56.5 9.5h-390q-26 0 -26 -25v-528q0 -8 6 -17l90 -131q8 -8 -2 -8h-283q-10 0 -2 8z" />
<glyph unicode="G" horiz-adv-x="1593" d="M113 692q0 205 90 373.5t252 266.5t362 98q251 0 445 -148q7 -7 12 -2l92 74q3 3 5.5 2t2.5 -4v-426q0 -3 -2 -5t-4.5 -1t-3.5 6q-25 104 -70.5 184t-99.5 129.5t-120 81t-128 43.5t-129 12q-170 0 -308.5 -94t-215 -250t-76.5 -340q0 -191 77.5 -345.5t215 -242.5 t307.5 -88q305 0 475 215q8 11 8 25v262q0 14 -14 21l-250 118q-4 1 -4 6t4 5h461q4 0 4.5 -4t-2.5 -7l-61 -49q-25 -20 -35 -37.5t-10 -46.5v-520q0 -4 -2 -5t-4 0t-3 3l-75 127q-5 8 -11 2q-190 -168 -481 -168q-199 0 -359.5 91.5t-252.5 258.5t-92 379z" />
<glyph unicode="H" horiz-adv-x="1423" d="M97.5 1388q-0.5 2 0.5 3.5t4 1.5h304q4 0 4.5 -3t-2.5 -6l-111 -129q-6 -6 -6 -16v-424q0 -29 16.5 -46t44.5 -17h719q28 0 45 17t17 46v424q0 9 -7 16l-92 129q-2 2 -2.5 4t0.5 3.5t4 1.5h285q4 0 4.5 -3t-2.5 -6l-92 -129q-6 -6 -6 -16v-1085q0 -8 6 -17l92 -129 q8 -8 -2 -8h-285q-10 0 -2 8l92 129q7 10 7 17v479q0 29 -17 46t-45 17h-719q-28 0 -44.5 -17t-16.5 -46v-479q0 -11 6 -17l111 -129q8 -8 -2 -8h-304q-10 0 -2 8l93 129q6 6 6 17v1085q0 10 -6 16l-93 129q-2 2 -2.5 4z" />
<glyph unicode="I" horiz-adv-x="487" d="M95.5 1388q-0.5 2 0.5 3.5t4 1.5h285q4 0 4.5 -3t-2.5 -6l-92 -129q-6 -8 -6 -16v-1067q0 -10 6 -16l92 -148q8 -8 -2 -8h-285q-10 0 -2 8l92 148q7 7 7 16v1067q0 7 -7 16l-92 129q-2 2 -2.5 4z" />
<glyph unicode="J" horiz-adv-x="534" d="M-33 -139q0 9 6 0l101 -189q43 -82 102 -82q80 0 80 134v1515q0 10 -6 16l-111 129q-2 2 -2.5 4t0.5 3.5t4 1.5h301q8 0 4 -9l-92 -129q-6 -9 -6 -16v-1448q0 -262 -178 -262q-119 0 -197 68q-6 6 -6 12v252z" />
<glyph unicode="K" horiz-adv-x="1300" d="M97.5 1388q-0.5 2 0.5 3.5t4 1.5h285q4 0 4.5 -3t-2.5 -6l-92 -147q-6 -6 -6 -16v-736v-4q0 -14 12 -2l701 772q4 5 0 9l-103 124q-1 1 -1.5 3t0.5 4t5 2h344q3 0 4 -2.5t-2 -4.5q-106 -73 -190 -167l-326 -357q-3 -3 0 -10l299 -559q37 -71 105 -152t141 -133q3 -2 2 -5 t-4 -3h-350q-5 0 -2 6l90 121q2 4 0 8l-350 643q-2 5 -7 0l-352 -389q-16 -16 -16 -43v-16q0 -168 6 -174l92 -148q8 -8 -2 -8h-285q-10 0 -2 8l93 148q6 6 6 16v1049q0 10 -6 16l-93 147q-2 2 -2.5 4z" />
<glyph unicode="L" horiz-adv-x="1038" d="M100 8l90 131q7 11 7 17v1083q0 9 -7 16l-90 129q-4 9 4 9h302q4 0 4.5 -3t-2.5 -6l-111 -129q-6 -6 -6 -16v-1169q0 -15 14 -15h363q56 0 92 11t71 43l193 186q4 4 7 2.5t1 -6.5l-78 -285q-2 -6 -8 -6h-844q-10 0 -2 8z" />
<glyph unicode="M" horiz-adv-x="1722" d="M100 8l111 148q6 6 6 16v1067q0 13 -8 21l-98 126q-7 7 2 7h178q4 0 4 -4q2 -51 78 -203l450 -910q36 -74 39 -96q0 -8 4 0l473 1028q46 102 54 181q0 4 6 4h194l2 -4l-69 -93q-21 -26 -21 -57v-1067q0 -10 6 -16l111 -148q8 -8 -2 -8h-324q-10 0 -2 8l111 148q6 6 6 16 v1038l-553 -1206q-2 -4 -6 -4h-43q-4 0 -4 6q1 8 1 17q0 68 -61 196l-458 932q0 -3 -2 -4v-975q0 -10 6 -16l110 -148q8 -8 -2 -8h-297q-10 0 -2 8z" />
<glyph unicode="N" horiz-adv-x="1505" d="M100 1386q-7 7 2 7h174q5 0 7 -4q10 -32 33 -74t42 -66l859 -1099q4 -4 4 2v1071q0 7 -7 16l-110 145q-2 2 -2.5 4t0.5 3.5t4 1.5h297q4 0 4.5 -3t-2.5 -6l-111 -145q-6 -9 -6 -16v-1135q0 -10 6 -16l49 -64q3 -3 2 -5.5t-4 -2.5h-159q-6 0 -6 6q-6 36 -31 75.5 t-88 119.5l-750 956q-4 4 -4 -2v-983q0 -10 6 -16l111 -148q8 -8 -2 -8h-297q-10 0 -2 8l110 148q7 7 7 16v1069q-1 6 -7 12z" />
<glyph unicode="O" d="M113 692q0 205 90 373.5t252 266.5t362 98t362 -97.5t252.5 -266.5t90.5 -374q0 -212 -92.5 -379t-253 -258.5t-359.5 -91.5t-359.5 91.5t-252.5 258.5t-92 379zM217 692q0 -191 77.5 -345.5t215 -242.5t307.5 -88q173 0 311 88q140 88 216 242q74 149 73 332v14 q-2 140 -49 266.5t-125.5 218t-189.5 145.5t-236 54q-170 0 -308.5 -94t-215 -250t-76.5 -340z" />
<glyph unicode="P" horiz-adv-x="1157" d="M98 2.5q-1 2.5 2 5.5l90 129q7 11 7 17v1085q0 9 -7 16l-90 131q-4 7 4 7h541q214 0 341.5 -119t127.5 -299q0 -209 -129.5 -324.5t-339.5 -115.5h-309q-20 0 -32.5 -15.5t-12.5 -36.5v-329q0 -9 6 -15l111 -131q8 -8 -2 -8h-304q-3 0 -4 2.5zM291 641q0 -27 13.5 -39 t31.5 -12h328q76 0 136.5 22.5t99 59t64 87t36 103.5t10.5 111q0 155 -93.5 259.5t-252.5 104.5h-365q-8 0 -8 -8v-688z" />
<glyph unicode="Q" d="M113 692q0 205 90 373.5t252 266.5t362 98t362 -97.5t252.5 -266.5t90.5 -374q0 -177 -62.5 -320.5t-177.5 -242.5q-5 -5 -2 -12q15 -43 28.5 -73.5t39.5 -72t66 -79t93 -68.5q5 -2 2 -5l-4 -1q-70 13 -124.5 35.5t-94 55.5t-64.5 62.5t-53 71.5q-5 5 -10 2 q-155 -82 -342 -82q-199 0 -359.5 91.5t-252.5 258.5t-92 379zM217 692q0 -191 77.5 -345.5t215 -242.5t307.5 -88q173 0 311.5 88t215.5 242q73 149 73 332v14q-2 140 -49 266.5t-125.5 218t-189.5 145.5t-236 54q-170 0 -308.5 -94t-215 -250t-76.5 -340z" />
<glyph unicode="R" horiz-adv-x="1271" d="M98 1389q-2 4 2 4h596q85 0 159 -23t131.5 -66t90.5 -111t33 -153q0 -113 -73.5 -204.5t-198.5 -124.5q-2 0 -2 -2t2 -2q141 -42 211.5 -133.5t70.5 -243.5v-160q0 -5 6 -14l107 -146q7 -10 -2 -10h-162q-43 0 -43 47v309q0 104 -54.5 179t-142 111t-196.5 36h-281 q-18 0 -31.5 -12t-13.5 -39v-477q0 -9 6 -15l111 -131q8 -8 -2 -8h-303q-3 0 -4 2.5t2 5.5l90 129q6 9 6 17v1063q0 9 -6 18zM307 788q0 -27 13.5 -39t31.5 -12h281q188 0 280.5 82.5t92.5 220.5q0 55 -19.5 107t-57 95t-100 69t-141.5 26h-373q-8 0 -8 -8v-541z" />
<glyph unicode="S" horiz-adv-x="1071" d="M94 6v477q0 3 2 4.5t4.5 0.5t3.5 -5q31 -103 74 -185.5t101 -147t134.5 -99.5t166.5 -35q146 0 237.5 87.5t91.5 238.5q0 111 -58 188.5t-206 137.5l-252 100q-127 51 -202 138q-74 86 -74 207q-1 142 111 230q110 87 276 87q183 0 317 -119q5 -5 10 0l95 82q3 5 8.5 4 t5.5 -8v-420q0 -4 -3.5 -7t-6.5 5q-136 409 -426 409q-72 0 -134.5 -25.5t-106.5 -84.5t-46 -144v-7q1 -85 49 -152q50 -70 176 -121l242 -99q94 -38 159 -82.5t100 -95t50 -102t15 -113.5q0 -67 -27 -133.5t-78 -124t-136 -93.5t-189 -36q-188 0 -361 141q-6 4 -10 0 l-107 -100q-6 -6 -6 2z" />
<glyph unicode="T" horiz-adv-x="1097" d="M-4 1079l43 342q0 5 6 2q15 -5 29.5 -9.5t31.5 -7.5t28 -5.5t32 -3.5t28.5 -2t32 -1.5t29 -0.5h32h29.5h500h23h23.5t22 0.5t23.5 1t22 1.5t24 2.5t23 3.5t25.5 5t25 7t26.5 9q6 3 6 -2l41 -342q0 -3 -1 -4t-3 0t-4 4l-111 170q-33 49 -61.5 68.5t-79.5 19.5h-193 q-47 0 -47 -45v-1138q0 -11 6 -17l97 -131q2 -2 1 -4t-4 -2h-292q-4 1 -2 6l96 131q6 6 6 17v1138q0 45 -47 45h-197q-51 0 -84.5 -22t-64.5 -66l-113 -170q-2 -3 -4 -4t-3 0t-1 4z" />
<glyph unicode="U" horiz-adv-x="1439" d="M73.5 1388q-0.5 2 0.5 3.5t4 1.5h303q4 0 4.5 -3t-2.5 -6l-111 -129q-6 -6 -6 -16v-739q0 -211 130 -341t337 -130q86 0 165 29.5t144 86.5t103.5 152.5t38.5 216.5v707q0 10 -6 16l-111 147q-2 2 -2.5 4t0.5 3.5t4 1.5h297q4 0 4.5 -3t-2.5 -6l-111 -147q-6 -6 -6 -16 v-684q0 -265 -146.5 -419.5t-391.5 -154.5q-242 0 -390.5 148.5t-148.5 406.5v721q0 10 -6 16l-92 129q-2 2 -2.5 4z" />
<glyph unicode="V" horiz-adv-x="1314" d="M4 1386q-3 3 0 6q0 1 2 1h328q5 -1 2 -7l-96 -129v-6l360 -938q19 -47 32 -91t17 -64.5t4 -28.5t4 0l473 1122q2 7 0 9l-81 126q-3 3 0 6q0 1 2 1h276q5 -1 2 -7q-69 -64 -106.5 -118t-75.5 -150l-477 -1112q-2 -6 -8 -6h-60q-8 0 -8 8q-11 104 -78 273l-326 858 q-60 141 -186 247z" />
<glyph unicode="W" horiz-adv-x="1835" d="M4 1386q-3 3 0 6q0 1 2 1h318q5 -1 2 -7l-88 -129v-6l286 -919q43 -139 43 -197q0 -8 4 0l322 903q3 10 0 21q-1 3 -27 76t-38 101.5t-40 77t-57 72.5q-3 3 0 6q0 1 2 1h268q7 0 3 -7l-78 -114l-2 -10l268 -912q41 -139 41 -213q0 -8 4 0l389 1090q2 6 0 8l-82 151 q-3 3 0 6q0 1 2 1h293q5 -1 2 -7q-71 -66 -115 -130.5t-73 -155.5l-396 -1094q-2 -6 -8 -6h-71q-9 0 -9 8q0 112 -49 277l-190 645q-4 8 -4 0l-336 -924q-2 -6 -8 -6h-72q-8 0 -8 8q-5 112 -49 248l-248 815q-34 115 -81.5 185t-119.5 130z" />
<glyph unicode="X" horiz-adv-x="1390" d="M49 6q1 3 4 6q13 11 54 43t55.5 45t47.5 47.5t69 79.5l372 469l-370 488q-13 17 -28 34.5t-27.5 31.5t-29 30.5t-26.5 27t-26.5 25.5t-23 20.5t-21 18.5t-15.5 14q-7 7 4 7h332q5 -1 2 -7l-86 -124q-4 -4 0 -9l371 -487l387 485q5 8 -2 15l-129 116q-2 2 -2.5 4.5 t0.5 4.5t4 2h344q4 0 5.5 -2.5t0.5 -5.5t-4 -5q-11 -10 -38.5 -33t-42.5 -37t-42.5 -43t-57.5 -65l-387 -485l381 -498q33 -40 105 -115t100 -96q3 -3 2 -5.5t-4 -2.5h-330q-4 1 -2 6l86 125v6l-393 512l-397 -502q-6 -10 0 -16l133 -121q2 -2 2.5 -4.5t-0.5 -4t-4 -1.5 h-367q-4 0 -5.5 1.5t-0.5 4.5z" />
<glyph unicode="Y" horiz-adv-x="1177" d="M4 1386q-3 3 0 6q0 1 2 1h316q5 -1 2 -7l-93 -120v-6l340 -574q34 -61 35 -63q2 -4 4 -2l377 618q3 7 -2 12l-100 135q-3 3 0 6q0 1 2 1h299q5 -1 2 -7q-18 -19 -47 -47t-49.5 -51.5t-44.5 -58.5l-365 -600q-31 -46 -31 -109v-366q0 -8 6 -17l80 -129q8 -8 -2 -8h-260 q-10 0 -2 8l80 129q6 9 6 17v309q0 74 -41 145l-340 568q-33 55 -83.5 118t-90.5 92z" />
<glyph unicode="Z" horiz-adv-x="1105" d="M41 8q36 23 79 70.5t75 103.5l708 1125q16 30 -18 30h-586q-41 0 -66.5 -19t-48.5 -67l-86 -176q-3 -6 -6.5 -6t-3.5 6v346q0 5 6 2l28.5 -9.5t28 -7.5t24.5 -5.5t25 -3.5t21.5 -2t22 -1.5t19 -0.5h19.5h17h770q6 0 2 -4q-61 -61 -113 -152l-737 -1159q-6 -9 -1 -16 t16 -7h512q49 0 86 37l215 207q4 4 7 2.5t1 -6.5l-99 -289q-2 -6 -8 -6h-907q-10 0 -2 8z" />
<glyph unicode="[" horiz-adv-x="419" d="M154 -242v1684q0 43 43 43h176q6 0 6 -4v-47q0 -4 -6 -4h-109q-11 0 -14.5 -3.5t-3.5 -15.5v-1622q0 -12 3.5 -15t14.5 -3h109q6 0 6 -4v-48q0 -4 -6 -4h-176q-43 0 -43 43z" />
<glyph unicode="\" horiz-adv-x="598" d="M66 1386q-2 7 4 7h51q8 0 8 -7l403 -1380q2 -6 -4 -6h-51q-8 0 -8 6z" />
<glyph unicode="]" horiz-adv-x="419" d="M41 -233q0 4 6 4h109q11 0 14.5 3t3.5 15v1622q0 12 -3.5 15.5t-14.5 3.5h-109q-6 0 -6 4v47q0 4 6 4h176q43 0 43 -43v-1684q0 -43 -43 -43h-176q-6 0 -6 4v48z" />
<glyph unicode="^" horiz-adv-x="1103" d="M90 815l422 664q3 6 8 6h62q7 0 10 -6l422 -664q4 -6 -4 -6h-72q-4 0 -8 6l-375 598q-4 8 -8 0l-373 -598q-3 -6 -8 -6h-72q-8 0 -4 6z" />
<glyph unicode="_" horiz-adv-x="1769" d="M-10 -221q0 4 6 4h1778q6 0 6 -4v-60q0 -4 -6 -4h-1778q-6 0 -6 4v60z" />
<glyph unicode="`" horiz-adv-x="630" d="M193 1331q0 24 16 38.5t41 14.5q40 0 65 -43l187 -282q4 -4 -2 -4h-41q-7 0 -13 4l-215 203q-38 33 -38 69z" />
<glyph unicode="a" horiz-adv-x="1001" d="M66 242q0 55 17.5 101t55.5 85.5t105 66.5t159 37l195 21q58 6 96 21t56.5 38.5t25 48t6.5 58.5q0 146 -78.5 214t-199.5 68q-108 0 -175.5 -57t-84.5 -135q-2 -6 2 -10l100 -107q4 -8 -6 -8h-225q-6 0 -6 8q26 155 130.5 257t264.5 102q368 0 368 -402v-293 q0 -87 12.5 -164.5t53.5 -187.5q2 -3 0.5 -4.5t-4.5 0.5q-106 71 -152 152q-3 6 -6 0q-123 -189 -352 -189q-91 0 -162 24.5t-112.5 65.5t-62.5 89t-21 100zM168 258q0 -109 72.5 -177.5t201.5 -68.5q162 0 251 103.5t89 263.5v190q0 2 -4 0l-10 -7q-11 -7 -14 -9t-15.5 -9 t-20 -10t-23 -8.5t-29.5 -9t-33.5 -7t-40.5 -5.5l-199 -23q-109 -13 -167 -71.5t-58 -151.5z" />
<glyph unicode="b" horiz-adv-x="1157" d="M59 1393q-10 5 0 8l197 84q6 2 6 -4v-682q0 -8 4 0q19 45 50 87t75 80t104.5 61.5t127.5 23.5q221 0 338.5 -150t117.5 -401q0 -235 -130 -386t-331 -151q-112 0 -203.5 61.5t-133.5 135.5q-3 4 -7 0l-165 -158q-4 -3 -6.5 -2t-0.5 6l54 174q16 57 16 127v1010q0 6 -4 8z M260 500q0 -236 101 -362t251 -126q166 0 265.5 136t99.5 352q0 122 -30 219.5t-81.5 158t-116 92t-137.5 31.5q-66 0 -128 -32.5t-112.5 -93t-81 -158t-30.5 -217.5z" />
<glyph unicode="c" horiz-adv-x="1095" d="M78 498q0 149 67.5 275t190.5 202t274 76q166 0 286.5 -101.5t133.5 -253.5q0 -8 -6 -8h-209q-4 1 -2 6l109 88q4 4 2 9q-24 94 -114.5 152t-201.5 58q-179 0 -303.5 -139.5t-124.5 -361.5q0 -137 53 -248.5t149 -175.5t216 -64q113 0 206 60t150 180q4 9 9 4l57 -41 q3 -3 -2 -8q-84 -125 -185.5 -184.5t-234.5 -59.5q-238 0 -379 147t-141 388z" />
<glyph unicode="d" horiz-adv-x="1112" d="M78 500q0 251 118 401t339 150q128 0 221 -76.5t135 -175.5q4 -8 4 0v518q0 6 -4 8l-109 68q-10 5 0 8l197 84q6 2 6 -4v-1174q0 -70 16 -127l54 -174q3 -10 -6 -4l-168 158q-3 4 -7 0q-126 -197 -339 -197q-198 0 -327.5 151.5t-129.5 385.5zM180 500q0 -216 99.5 -352 t265.5 -136q155 0 253.5 123.5t98.5 364.5q0 120 -30.5 217.5t-81 158t-112.5 93t-128 32.5q-73 0 -137.5 -31.5t-116 -92t-81.5 -158t-30 -219.5z" />
<glyph unicode="e" horiz-adv-x="1077" d="M140 776q60 120 173.5 197.5t255.5 77.5q208 0 326.5 -133t120.5 -336q0 -7 -4 -7h-828q-6 0 -6 -8q-2 -27 -2 -53q0 -120 41 -226q50 -128 145 -202t211 -74q123 0 218.5 66t128.5 155q4 9 8 5l53 -41q3 -3 -2 -9q-152 -225 -410 -225q-218 0 -354 152 q-135 151 -135 401q-1 137 60 260zM186 629q0 -4 4 -4h725q9 0 9 10q0 157 -108 261.5t-247 104.5q-86 0 -167.5 -45t-141 -131.5t-74.5 -195.5z" />
<glyph unicode="f" horiz-adv-x="483" d="M29 969v41q0 4 6 4h115q4 0 4 4q0 72 8 136.5t28.5 126t51 106t78 71.5t108.5 27h74q70 0 88 6q5 2 5 0q0 -1 -1 -2l-121 -219q-3 -3 -4 0l-39 114q-10 30 -22 41t-31 11q-51 0 -92 -89.5t-41 -248.5v-80q0 -4 4 -4h258q6 0 6 -4v-41q0 -4 -6 -4h-236q-11 0 -18.5 -6.5 t-7.5 -16.5v-788q0 -9 6 -15l125 -131q8 -8 -2 -8h-305q-6 0 -2 8l84 129q4 8 4 17v788q0 10 -8 16.5t-19 6.5h-92q-6 0 -6 4z" />
<glyph unicode="g" horiz-adv-x="970" d="M41 -168q0 96 54.5 168.5t123.5 105.5q7 4 0 7q-46 16 -83.5 60t-37.5 108q0 41 28 84t81 69q3 1 3.5 4t-1.5 4q-55 41 -94 104.5t-39 147.5q0 160 114 258.5t283 98.5q50 0 118.5 -17t110.5 -43q4 -2 7 0q41 23 102 23l121 -2q8 0 2 -6l-129 -111q-4 -4 -2 -8 q53 -87 53 -182q0 -165 -107 -259t-276 -94q-115 0 -211 39q-4 2 -10 2q-24 -7 -41.5 -31t-17.5 -65q0 -57 37.5 -92t107.5 -35h324q130 0 211 -69t81 -187q0 -165 -138.5 -275t-383.5 -110q-180 0 -285.5 86t-105.5 217zM135 -156q0 -114 79.5 -184t234.5 -70 q97 0 172 19.5t118.5 49t71 70t36.5 76t9 72.5q0 115 -61 165t-189 50h-287q-72 0 -128 -74t-56 -174zM174 694q0 -137 81.5 -215t217.5 -78q138 0 211.5 77t73.5 218q0 140 -71.5 222.5t-213.5 82.5q-141 0 -220 -83t-79 -224z" />
<glyph unicode="h" horiz-adv-x="1150" d="M59 1393q-10 5 0 8l197 84q6 2 6 -4v-693q0 -8 4 0q19 45 51.5 88.5t78 84t107.5 65.5t130 25q178 0 268 -99.5t90 -259.5v-538q0 -11 4 -19l72 -127q4 -8 -2 -8h-258q-10 0 -2 8l92 127q6 8 6 19v546q0 140 -77.5 220.5t-204.5 80.5q-63 0 -125.5 -32.5t-115.5 -92.5 t-86.5 -158.5t-33.5 -217.5v-346q0 -11 6 -19l92 -127q8 -8 -2 -8h-258q-6 0 -2 8l72 127q4 6 4 19v1163q0 6 -4 8z" />
<glyph unicode="i" horiz-adv-x="468" d="M88 961l109 -68q4 -2 4 -8v-731q0 -10 -6 -19l-93 -127q-8 -8 2 -8h281q10 0 2 8l-92 127q-6 9 -6 19v893q0 6 -6 4l-195 -82q-10 -3 0 -8zM162 1346q0 34 25 59t59 25t59 -25t25 -59t-25 -59t-59 -25t-59 25t-25 59z" />
<glyph unicode="j" horiz-adv-x="462" d="M-109 -373q-3 -3 0 -6q83 -92 187 -92q211 0 211 324v1194q0 6 -6 4l-195 -82q-10 -3 0 -8l109 -68q4 -2 4 -8v-1129q0 -86 -23 -130t-61 -44q-23 0 -41.5 17.5t-24.5 46.5l-35 153q-1 4 -6 2zM162 1346q0 34 25 59t59 25t59 -25t25 -59t-25 -59t-59 -25t-59 25t-25 59z " />
<glyph unicode="k" horiz-adv-x="1085" d="M59 1393q-10 5 0 8l197 84q6 2 6 -4v-1018q0 -12 8 -15t15 5l524 458q1 1 1 4t-1 5l-78 86q-1 1 -1.5 3t0.5 3.5t5 1.5h301q3 0 4 -2t-2 -4q-118 -67 -250 -183l-151 -133q-3 -3 0 -8l258 -489q30 -57 79 -107t103 -82q3 -2 2 -4t-4 -2h-313q-6 0 -2 8l80 109q2 4 0 8 l-273 502q-2 4 -6 0l-282 -248q-17 -14 -17 -35v-190q0 -9 4 -15l101 -131q8 -8 -2 -8h-267q-6 0 -2 8l72 131q4 8 4 15v1163q0 6 -4 8z" />
<glyph unicode="l" horiz-adv-x="428" d="M57 1395q-10 5 0 8l195 82q6 2 6 -4v-1327q0 -10 6 -19l92 -127q8 -8 -2 -8h-280q-10 0 -2 8l92 127q6 9 6 19v1165q0 6 -4 8z" />
<glyph unicode="m" horiz-adv-x="1492" d="M59 973q-10 5 0 8l195 84q6 2 6 -4v-174q0 -8 4 0q29 62 94 113t156 51q209 0 270 -183q3 -8 7 0q12 32 30 60.5t47.5 58t75 47t100.5 17.5q151 0 228.5 -92.5t77.5 -251.5v-553q0 -11 4 -19l71 -127q4 -8 -2 -8h-258q-10 0 -2 8l92 127q7 9 7 19v532q0 315 -232 315 q-105 0 -166 -81t-61 -234v-532q0 -11 4 -19l72 -127q4 -8 -2 -8h-236q-6 0 -2 8l72 127q4 4 4 19v532q0 155 -51 235t-164 80q-101 0 -170.5 -89t-69.5 -207v-551q0 -11 6 -19l92 -127q8 -8 -2 -8h-258q-6 0 -2 8l72 127q4 6 4 19v743q0 6 -4 8z" />
<glyph unicode="n" horiz-adv-x="1118" d="M59 973q-10 5 0 8l195 84q6 2 6 -4v-199q0 -8 4 0q20 35 47 65t67 59.5t97.5 47t124.5 17.5q175 0 275 -94t100 -250v-553q0 -11 4 -19l72 -127q4 -8 -2 -8h-258q-11 0 -3 8l93 127q6 8 6 19v532q0 146 -83 230.5t-214 84.5q-60 0 -115.5 -20.5t-105 -63t-79.5 -118.5 t-30 -176v-469q0 -11 6 -19l92 -127q8 -8 -2 -8h-258q-6 0 -2 8l72 127q4 6 4 19v743q0 6 -4 8z" />
<glyph unicode="o" horiz-adv-x="1204" d="M70 498q0 149 67.5 275t190.5 202t274 76q113 0 213 -44.5t169.5 -119.5t110 -176.5t40.5 -212.5q0 -156 -71 -279t-192.5 -189.5t-271.5 -66.5t-270.5 66.5t-190 189.5t-69.5 279zM172 500q0 -128 55.5 -240t154.5 -180t218 -68t219 68t156.5 180t56.5 240 q0 111 -34 205.5t-92.5 159t-137.5 100.5t-168 36q-179 0 -303.5 -139.5t-124.5 -361.5z" />
<glyph unicode="p" horiz-adv-x="1146" d="M59 975q-10 5 0 8l195 82q6 2 6 -4v-262q0 -8 4 0q19 45 50 87t75 80t104.5 61.5t127.5 23.5q221 0 338.5 -150t117.5 -401q0 -235 -130 -386t-331 -151q-116 0 -212 64t-138 157q-6 12 -6 0v-501q0 -11 6 -19l92 -127q5 -8 -2 -8h-258q-6 0 -2 8l72 127q4 8 4 19v1216 q0 6 -4 8zM258 500q0 -236 101 -362t251 -126q166 0 265.5 136t99.5 352q0 122 -30 219.5t-81.5 158t-116 92t-137.5 31.5q-66 0 -128 -32.5t-112.5 -93t-81 -158t-30.5 -217.5z" />
<glyph unicode="q" horiz-adv-x="1122" d="M70 500q0 160 51 283.5t155.5 195.5t249.5 72q70 0 131 -22t103.5 -60t72 -78.5t48.5 -85.5q1 -3 3.5 -3t2.5 3v158q0 8 -4 14l-35 65q-4 9 4 9h117q6 0 6 -7v-1361q0 -11 4 -19l72 -127q4 -8 -2 -8h-258q-8 0 -3 8l93 127q6 8 6 19v510q0 12 -6 0 q-57 -107 -145.5 -168.5t-205.5 -61.5q-202 0 -331 149.5t-129 387.5zM172 500q0 -216 99.5 -352t265.5 -136q150 0 251 126t101 362q0 125 -30.5 223.5t-81.5 157.5t-112 89.5t-128 30.5q-73 0 -137.5 -31.5t-116 -92t-81.5 -158t-30 -219.5z" />
<glyph unicode="r" horiz-adv-x="649" d="M59 973q-10 5 0 8l195 84q6 2 6 -4v-205q0 -8 4 0q52 97 132.5 146t168.5 49q62 0 99 -13q3 -1 4 -3t0 -3v-2l-35 -246q0 -3 -2.5 -4t-3.5 2l-129 209q-2 4 -9 4q-32 -2 -70.5 -27t-74.5 -67t-60 -109t-24 -143v-495q0 -11 6 -19l92 -127q8 -8 -2 -8h-258q-6 0 -2 8 l72 127q4 6 4 19v743q0 6 -4 8z" />
<glyph unicode="s" horiz-adv-x="909" d="M57 307q0 6 4 8l201 56q5 2 5 -1q0 -2 -1 -3l-76 -134q-2 -2 -2 -8q19 -84 100 -148.5t195 -64.5q127 0 201 69.5t76 172.5v7q0 91 -48 145q-50 56 -169 90l-199 55q-96 27 -158.5 92.5t-62.5 161.5q0 101 98.5 173.5t235.5 72.5q138 0 232 -63.5t124 -186.5q0 -5 -6 -8 l-172 -48q-3 -1 -4.5 0.5t0.5 4.5l57 118q3 6 0 11q-27 53 -86.5 87.5t-142.5 34.5q-35 0 -68.5 -6t-66.5 -20.5t-58 -36t-40 -53.5t-15 -72q0 -145 197 -197l184 -49q131 -35 193.5 -113.5t62.5 -181.5q0 -130 -105.5 -219.5t-279.5 -89.5q-151 0 -260.5 84.5t-145.5 259.5 z" />
<glyph unicode="t" horiz-adv-x="397" d="M4 969v41q0 4 6 4h117q4 0 4 4v194q0 7 -4 9l-66 34q-3 2 -3.5 4.5t3.5 4.5l166 71q6 2 6 -4v-313q0 -4 3 -4h161q6 0 6 -4v-41q0 -4 -6 -4h-139q-11 0 -18 -6.5t-7 -16.5v-883q0 -22 11 -34.5t26 -12.5q47 0 58 78q0 6 6 0l59 -45q4 -4 0 -8q-64 -74 -143 -74 q-48 0 -83.5 31t-35.5 94v854q0 10 -8 16.5t-19 6.5h-94q-6 0 -6 4z" />
<glyph unicode="u" horiz-adv-x="1054" d="M45 977q-10 5 0 8l152 66q6 2 6 -4v-719q0 -146 81.5 -231t211.5 -85q50 0 96.5 11.5t90.5 38t76 66.5t51 101t19 136v569q0 6 -4 8l-65 35q-10 5 0 8l151 66q7 2 7 -4v-740q0 -70 16 -127l53 -174q3 -10 -6 -4l-152 141q-3 3 -6 0q-115 -180 -350 -180q-166 0 -262 94.5 t-96 249.5v627q0 6 -4 8z" />
<glyph unicode="v" horiz-adv-x="960" d="M0 1008q-2 4 2 6h236q4 -1 2 -6l-58 -95v-6l271 -667q2 -6 13 -33t17 -46.5t9 -37.5q0 -8 4 0l313 784q2 6 0 8l-78 93q-2 4 2 6h230q4 -1 2 -6q-87 -75 -140 -203l-329 -799q-2 -6 -9 -6h-41q-8 0 -8 8q-9 62 -51 164l-266 659q-47 109 -121 177z" />
<glyph unicode="w" horiz-adv-x="1384" d="M0 1008q-2 4 2 6h270q4 -1 2 -6l-69 -109v-6l217 -694q23 -76 24 -86q0 -3 2 -3t3 3l229 639l-31 90q-17 51 -39 88.5t-65 77.5q-2 4 2 6h225q5 0 2 -6l-51 -115v-10l217 -684q16 -63 18 -72q0 -3 2 -3t3 3l270 780q2 4 -2 8l-74 93q-2 4 2 6h225q4 -1 2 -6 q-5 -4 -24 -20t-25 -22t-19.5 -22t-23 -35.5t-20.5 -46.5l-301 -856q-2 -6 -8 -6h-50q-8 0 -8 8q-4 59 -24 121l-176 547l-242 -670q-2 -6 -8 -6h-58q-8 0 -8 8q0 2 -0.5 16t-1.5 19.5t-3.5 19t-7 29.5t-11.5 37l-222 676q-15 44 -39.5 83t-46 62t-59.5 58z" />
<glyph unicode="x" horiz-adv-x="1038" d="M18.5 2q-1.5 2 1.5 4q70 37 183 170l274 338l-264 336q-58 67 -160 158q-6 6 4 6h273q4 -1 2 -6l-74 -93q-4 -4 0 -8l264 -336l275 336q5 5 0 11l-78 90q-6 6 2 6h260q6 0 0 -6q-2 -2 -16.5 -11.5t-33 -23.5t-50.5 -45.5t-66 -73.5l-262 -322l289 -364q25 -30 47 -53 t42.5 -41t30.5 -26t31 -23t23 -17q3 -3 2 -5.5t-4 -2.5h-287q-4 1 -2 6l63 109v6l-280 354l-279 -344q-5 -5 0 -10l99 -115q6 -6 -2 -6h-303q-3 0 -4.5 2z" />
<glyph unicode="y" horiz-adv-x="948" d="M4 1008q-2 4 2 6h244q4 -1 2 -6l-74 -97v-6l279 -618q35 -78 39 -101q0 -8 4 0l284 699q2 6 0 8l-71 115q-2 4 2 6h239q4 -1 2 -6q-90 -78 -141 -199l-459 -1104q-41 -99 -83 -137q-38 -33 -101 -33h-14q-95 4 -133 72q-3 5 0 8l139 170q6 3 6 -2v-129q0 -53 49 -53 q38 0 60 53l163 391q6 14 6 32q0 32 -20 77l-309 684q-7 16 -14.5 30t-16 28t-14 23t-17 23.5t-16 20t-19 23t-18.5 22.5z" />
<glyph unicode="z" horiz-adv-x="901" d="M41 8q41 27 91 75.5t89 109.5l475 745q14 27 -18 27h-389q-58 0 -83.5 -13.5t-51.5 -60.5l-76 -139q-3 -6 -6.5 -6t-3.5 6v295q0 5 6 2q95 -35 229 -35h553q4 -1 2 -6q-4 -5 -29 -30.5t-47.5 -53.5t-46.5 -66l-512 -795q-8 -14 6 -14h334q109 0 170 68l131 151q4 4 7 2.5 t1 -6.5l-79 -258q-2 -6 -9 -6h-741q-10 0 -2 8z" />
<glyph unicode="{" horiz-adv-x="489" d="M94 598.5q-1 1.5 0 3t4 2.5q81 29 115 72.5t31 124.5l-21 553q-3 72 30.5 101.5t96.5 29.5h92q7 0 7 -4v-47q0 -4 -7 -4h-92q-35 0 -35 -33v-596q0 -162 -94 -197q-5 -3 0 -8q94 -47 94 -197v-596q0 -32 35 -32h92q7 0 7 -4v-48q0 -4 -7 -4h-92q-63 0 -96.5 29.5 t-30.5 101.5l21 553q3 83 -31.5 128t-114.5 69q-3 1 -4 2.5z" />
<glyph unicode="|" horiz-adv-x="382" d="M154 -221v1644q0 7 6 7h63q6 0 6 -7v-1644q0 -6 -6 -6h-63q-6 0 -6 6z" />
<glyph unicode="}" horiz-adv-x="489" d="M41 -233q0 4 6 4h92q35 0 35 32v596q0 150 94 197q3 0 3 5q0 2 -3 3q-94 35 -94 197v596q0 33 -35 33h-92q-6 0 -6 4v47q0 4 6 4h92q63 0 96.5 -29.5t30.5 -101.5l-20 -553q-3 -81 31 -124.5t114 -72.5q3 -1 4 -2.5t0 -3t-4 -2.5q-80 -24 -114 -69t-31 -128l20 -553 q3 -72 -30.5 -101.5t-96.5 -29.5h-92q-6 0 -6 4v48z" />
<glyph unicode="~" horiz-adv-x="1105" d="M63 451q86 176 238 176q59 0 132 -25.5t129 -56.5t117.5 -56.5t100.5 -25.5q78 0 122 38.5t77 108.5q2 4 6 2l43 -28l2 -6q-87 -177 -239 -177q-56 0 -126.5 25.5t-125.5 56.5t-118.5 56.5t-107.5 25.5q-127 0 -198 -147q-2 -4 -6 -2l-43 28z" />
<glyph unicode="&#xa1;" horiz-adv-x="483" d="M160 971q0 31 25 55.5t57 24.5t57 -24.5t25 -55.5q0 -32 -25 -57t-57 -25t-57 25t-25 57zM168 -328l51 975q0 6 4 6h39q4 0 4 -6l51 -975q3 -35 -19 -61.5t-56 -26.5q-31 0 -54 26.5t-20 61.5z" />
<glyph unicode="&#xa2;" horiz-adv-x="1095" d="M78 498q0 140 60 260.5t170 198.5t249 92q4 0 4 4v174q0 6 6 6h41q6 0 6 -6v-172q0 -4 4 -4q163 -3 281 -104.5t131 -250.5q0 -8 -6 -8h-209q-4 1 -2 6l109 88q4 4 2 9q-24 91 -111.5 149t-194.5 61q-4 0 -4 -4v-981q0 -4 4 -4q106 5 193.5 65t142.5 175q4 9 9 4l57 -41 q3 -3 -2 -8q-82 -121 -178.5 -180.5t-221.5 -63.5q-4 0 -4 -6v-176q0 -6 -6 -6h-41q-6 0 -6 6v178q0 6 -6 6q-220 13 -348.5 158t-128.5 375zM180 500q0 -196 105 -332.5t272 -153.5q4 0 4 4v977q0 4 -4 4q-163 -21 -270 -157t-107 -342z" />
<glyph unicode="&#xa3;" horiz-adv-x="1130" d="M162 8q94 128 129 223t35 228v155q0 10 -8 16.5t-19 6.5h-92q-6 0 -6 4v47q0 4 6 4h115q4 0 4 4v287q0 230 97.5 338.5t256.5 108.5q116 0 195 -57t115 -152.5t36 -223.5q0 -8 -6 -8h-203q-10 0 -6 8l119 113q2 2 2 8q0 118 -77 187t-175 69q-260 0 -260 -373v-305 q0 -4 4 -4h379q6 0 6 -4v-47q0 -4 -6 -4h-357q-11 0 -18.5 -6.5t-7.5 -16.5v-155q0 -245 -117 -396q-5 -8 2 -8h393q91 0 133 29l248 178q5 3 7 1.5t1 -5.5l-88 -252q-2 -6 -8 -6h-827q-10 0 -2 8z" />
<glyph unicode="&#xa5;" horiz-adv-x="1112" d="M-41 1386q-3 3 0 6q0 1 2 1h315q3 0 4 -2.5t-1 -4.5l-93 -120v-6l340 -574q34 -61 35 -63q2 -4 4 -2l377 618q3 7 -2 12l-100 135q-3 3 0 6q0 1 2 1h299q5 -1 2 -7q-19 -20 -48.5 -47t-50.5 -50.5t-43 -59.5l-364 -600q-26 -44 -31 -74q0 -6 4 -6h328q6 0 6 -6v-43 q0 -6 -6 -6h-328q-4 0 -4 -5v-145q0 -4 4 -4h328q6 0 6 -6v-43q0 -6 -6 -6h-328q-4 0 -4 -4v-127q0 -8 6 -17l80 -129q8 -8 -2 -8h-260q-10 0 -2 8l80 129q6 9 6 17v127q0 4 -4 4h-326q-6 0 -6 6v43q0 6 6 6h326q4 0 4 4v119q0 20 -2 26q0 5 -4 5h-324q-6 0 -6 6v43q0 6 6 6 h312q5 0 2 6q-10 31 -25 53l-340 568q-33 55 -83.5 118t-90.5 92z" />
<glyph unicode="&#xa6;" horiz-adv-x="382" d="M164 6v567q0 7 6 7h41q6 0 6 -7v-567q0 -6 -6 -6h-41q-6 0 -6 6zM164 819v567q0 7 6 7h41q6 0 6 -7v-567q0 -6 -6 -6h-41q-6 0 -6 6z" />
<glyph unicode="&#xa7;" horiz-adv-x="1122" d="M135 696q1 30 11.5 62.5t34 71t71 70.5t113.5 48q3 0 4 1.5t-2 4.5q-57 45 -90 111.5t-29 140.5q6 98 82 161t190 63q135 0 234 -103q3 -5 8 0l86 74q3 4 7.5 3.5t4.5 -7.5v-404q0 -2 -2 -5t-5.5 -2t-6.5 7q-10 22 -29 65t-29 64.5t-28 57.5t-30.5 55t-31 45.5t-36.5 40 t-40 28t-47.5 20t-54.5 5.5q-79 0 -129.5 -48.5t-50.5 -123.5q0 -65 40.5 -118t141.5 -117l277 -174q103 -65 146.5 -131t39.5 -162q-2 -31 -12 -64t-32.5 -73.5t-70 -73.5t-112.5 -49q-4 0 -5 -3t1 -4q68 -55 95.5 -114t22.5 -137q-6 -91 -85.5 -157.5t-186.5 -66.5 q-66 0 -121.5 25t-111.5 78q-5 4 -9 0l-86 -74q-3 -4 -7.5 -3.5t-4.5 7.5v404q0 2 2 5t5.5 2t6.5 -7q10 -22 29 -65t29 -64.5t28 -57.5t30.5 -55t31 -45.5t36.5 -40t40 -28t47.5 -20t54.5 -5.5q79 0 129.5 48.5t50.5 123.5q0 65 -40.5 118t-141.5 117l-276 174 q-101 64 -145.5 134.5t-41.5 166.5zM227 690q-6 -132 135 -217l310 -188q4 -2 10 -2q96 10 153.5 63.5t57.5 151.5q0 66 -27 116.5t-108 100.5l-309 188q-4 2 -11 2q-95 -9 -151 -62.5t-60 -152.5z" />
<glyph unicode="&#xa8;" horiz-adv-x="878" d="M186 1143q0 30 26 56t56 26q32 0 57 -26t25 -56q0 -31 -25 -56.5t-57 -25.5t-57 25.5t-25 56.5zM528 1143q0 30 25 56t57 26q30 0 56 -26t26 -56q0 -31 -25.5 -56.5t-56.5 -25.5q-33 0 -57.5 25.5t-24.5 56.5z" />
<glyph unicode="&#xa9;" horiz-adv-x="1675" d="M113 700q0 198 96.5 366.5t263.5 267t365 98.5q149 0 284 -58t231.5 -156.5t153 -233.5t56.5 -284t-56.5 -285t-153 -235t-231.5 -158t-284 -59q-148 0 -282.5 59t-231.5 158t-154 235t-57 285zM184 698q0 -136 54 -263t143 -219.5t209.5 -148t247.5 -55.5 q128 0 249.5 55.5t211 148t144 219.5t54.5 263q0 182 -91.5 339t-243 248t-324.5 91q-128 0 -248.5 -54.5t-209.5 -145t-142.5 -216.5t-53.5 -262zM383 698q0 141 58.5 257.5t165.5 185.5t241 69q152 0 258 -84.5t121 -220.5q0 -8 -6 -8h-166q-5 0 -2 6l67 78q4 4 2 8 q-22 76 -100.5 120t-173.5 44q-153 0 -260 -128t-107 -327q0 -112 44 -213.5t130 -168t193 -66.5q109 0 184.5 58.5t89.5 125.5q0 6 -2 8l-71 74q-3 6 2 6h176q6 0 6 -8q-15 -60 -43 -113t-73 -102t-114 -77.5t-153 -28.5q-200 0 -333.5 138.5t-133.5 366.5z" />
<glyph unicode="&#xab;" horiz-adv-x="821" d="M45 465v37q0 2 4 6l365 221q4 -3 4 -4v-63q0 -7 -4 -9l-285 -170q-3 -3 0 -6l285 -172q4 -2 4 -8v-61q0 -4 -1 -4.5t-3 -0.5l-365 228q-4 4 -4 6zM336 465v37q0 2 4 6l365 221q4 -3 4 -4v-63q0 -7 -4 -9l-285 -170q-3 -3 0 -6l285 -172q4 -2 4 -8v-61q0 -4 -1 -4.5 t-3 -0.5l-365 228q-4 4 -4 6z" />
<glyph unicode="&#xac;" horiz-adv-x="1230" d="M41 963v47q0 4 6 4h885q43 0 43 -43v-811q0 -6 -6 -6h-41q-6 0 -6 6v780q0 18 -19 18h-856q-6 0 -6 5z" />
<glyph unicode="&#xad;" horiz-adv-x="559" d="M51 496v47q0 4 6 4h445q6 0 6 -4v-47q0 -4 -6 -4h-445q-6 0 -6 4z" />
<glyph unicode="&#xae;" horiz-adv-x="1675" d="M113 700q0 198 96.5 366.5t263.5 267t365 98.5q149 0 284 -58t231.5 -156.5t153 -233.5t56.5 -284t-56.5 -285t-153 -235t-231.5 -158t-284 -59q-148 0 -282.5 59t-231.5 158t-154 235t-57 285zM184 698q0 -136 54 -263t143 -219.5t209.5 -148t247.5 -55.5 q128 0 249.5 55.5t211 148t144 219.5t54.5 263q0 182 -91.5 339t-243 248t-324.5 91q-128 0 -248.5 -54.5t-209.5 -145t-142.5 -216.5t-53.5 -262zM502 256q-2 -4 2 -6h231q4 0 4.5 2t-2.5 4l-67 90q-4 4 -4 14v277q0 26 13.5 40.5t37.5 14.5h168q93 0 146.5 -50.5 t53.5 -156.5v-227q0 -8 7 -8h153q7 0 2 8l-63 88q-6 9 -6 12v148q0 160 -162 213q-6 3 0 6q66 17 114 73t48 140q0 75 -44.5 130.5t-112 81.5t-144.5 26h-369q-8 0 -4 -7l65 -92q4 -6 4 -12v-705q0 -8 -6 -14zM666 799v317q0 8 6 8h219q81 0 135.5 -51.5t54.5 -136.5 q0 -98 -54 -145.5t-142 -47.5h-168q-23 0 -37 15t-14 41z" />
<glyph unicode="&#xaf;" horiz-adv-x="763" d="M154 1174v47q0 4 6 4h444q6 0 6 -4v-47q0 -5 -6 -5h-444q-6 0 -6 5z" />
<glyph unicode="&#xb0;" horiz-adv-x="708" d="M102 1178q0 103 75.5 177.5t178.5 74.5t176.5 -74.5t73.5 -177.5q0 -105 -73.5 -178.5t-176.5 -73.5q-104 0 -179 73.5t-75 178.5zM162 1178q0 -85 57.5 -142t136.5 -57q78 0 134.5 57t56.5 142q0 86 -56.5 142t-134.5 56q-80 0 -137 -56t-57 -142z" />
<glyph unicode="&#xb1;" horiz-adv-x="997" d="M72 4v47q0 4 6 4h842q6 0 6 -4v-47q0 -4 -6 -4h-842q-6 0 -6 4zM72 580v47q0 4 6 4h389q4 0 4 4v373q0 6 6 6h43q6 0 6 -6v-373q0 -4 4 -4h390q6 0 6 -4v-47q0 -5 -6 -5h-390q-4 0 -4 -4v-372q0 -6 -6 -6h-43q-6 0 -6 6v372q0 4 -4 4h-389q-6 0 -6 5z" />
<glyph unicode="&#xb2;" horiz-adv-x="888" d="M205 616l297 338q71 82 98 137.5t27 116.5q0 72 -46.5 119t-111.5 47q-93 0 -138 -68.5t-9 -164.5q1 -3 0.5 -3.5t-5.5 -0.5l-100 16q-6 0 -6 8q0 44 15 89t45 86.5t82.5 67.5t119.5 26q110 0 179 -66.5t69 -153.5q0 -57 -30 -113t-124 -167l-241 -258q-2 -4 2 -6h194 q77 0 109 32l102 103q4 4 7 2.5t1 -6.5l-51 -181q-2 -6 -8 -6h-471q-9 0 -6 6z" />
<glyph unicode="&#xb3;" horiz-adv-x="935" d="M197 838q0 6 4 6l82 22q2 0 2 -2q4 -96 55.5 -147t130.5 -51q81 0 127.5 52.5t48.5 127.5q1 94 -49.5 139t-126.5 45h-115q-2 0 -2 2v51q0 2 2 2h105q68 0 104.5 38t36.5 112q0 70 -43.5 104.5t-99.5 34.5q-62 0 -102 -41t-54 -110q0 -4 -4 -4l-82 22q-2 0 -2 6 q11 33 28 61.5t46 58t75.5 46.5t104.5 17q90 0 158.5 -51t68.5 -140q0 -58 -34.5 -104t-77.5 -68q-8 -4 0 -4q72 -25 114.5 -77.5t42.5 -131.5q0 -106 -80.5 -175t-185.5 -69q-121 0 -185.5 54t-92.5 174z" />
<glyph unicode="&#xb4;" horiz-adv-x="630" d="M164 1059l186 282q25 43 66 43q25 0 41 -14.5t16 -38.5q0 -35 -39 -69l-215 -203q-6 -4 -12 -4h-41z" />
<glyph unicode="&#xb5;" horiz-adv-x="1239" d="M66.5 -465.5q-0.5 1.5 0.5 3.5t3 3l108 105q4 2 4 8v1280q0 6 -4 8l-65 35q-10 5 0 8l151 66q6 2 6 -4v-711q0 -152 81 -238t212 -86q64 0 121 19.5t106 60t78 113t29 168.5v561q0 6 -4 8l-66 35q-10 5 0 8l152 66q6 2 6 -4v-740q0 -70 16 -127l54 -174q3 -10 -6 -4 l-152 141q-3 3 -6 0q-115 -180 -350 -180q-178 0 -265 103q-6 6 -6 0v-529q0 -4 -6 -4h-194q-3 0 -3.5 1.5z" />
<glyph unicode="&#xb6;" horiz-adv-x="1181" d="M51 1081q0 131 86 220.5t209 91.5h733q4 0 4.5 -3t-2.5 -6l-110 -129q-6 -6 -6 -16v-1085q0 -11 6 -17l110 -129q8 -8 -2 -8h-303q-10 0 -2 8l92 129q6 6 6 17v1120q0 29 -16.5 46t-44.5 17h-322q-28 0 -44.5 -17t-16.5 -46v-1120q0 -11 6 -17l111 -129q8 -8 -2 -8h-303 q-10 0 -2 8l92 129q6 6 6 17v632q0 7 -4 7q-120 6 -200.5 80.5t-80.5 207.5z" />
<glyph unicode="&#xb7;" horiz-adv-x="503" d="M154 508q0 38 30 68t68 30t68 -30t30 -68q0 -37 -30 -66.5t-68 -29.5t-68 29.5t-30 66.5z" />
<glyph unicode="&#xb8;" horiz-adv-x="1705" d="M563 -352l17 37q3 5 6 2q19 -13 60 -26t83 -13q58 0 84.5 26t26.5 58q0 40 -29.5 60t-75.5 20q-39 0 -76 -9h-8l-10 7l-2 6l66 159h59l-47 -118q-2 -4 2 -4q27 6 55 6q71 0 112.5 -33.5t41.5 -93.5q0 -64 -57.5 -98.5t-141.5 -34.5q-47 0 -95 14t-69 29q-3 3 -2 6z" />
<glyph unicode="&#xb9;" horiz-adv-x="794" d="M256 1305q-7 3 0 8l203 117q6 4 6 -5v-710q0 -11 6 -17l90 -75q2 -2 2.5 -4t-0.5 -3.5t-4 -1.5h-283q-4 0 -4.5 3t2.5 6l93 75q6 6 6 17v581q0 7 -4 9h-113z" />
<glyph unicode="&#xbb;" horiz-adv-x="821" d="M113 236v61q0 6 4 8l284 172q3 3 0 6l-284 170q-4 2 -4 9v63q0 3 0.5 3.5t2.5 0.5h1l364 -221q4 -4 4 -6v-37q0 -2 -4 -6l-364 -228q-4 3 -4 5zM403 236v61q0 5 5 8l284 172q3 3 0 6l-284 170q-5 3 -5 9v63q0 4 5 4l364 -221q4 -4 4 -6v-37q0 -2 -4 -6l-364 -228 q-4 3 -5 5z" />
<glyph unicode="&#xbc;" horiz-adv-x="1599" d="M254 6q-4 -6 4 -6h66q8 0 8 6q604 778 1075 1380q5 7 -4 7h-66q-8 0 -8 -7q-151 -202 -500 -649.5t-575 -730.5zM279 1305q-7 3 0 8l202 117q6 4 6 -5v-710q0 -10 7 -17l90 -75q2 -2 2.5 -4t-0.5 -3.5t-4 -1.5h-283q-4 0 -4.5 3t2.5 6l92 75q6 6 6 17v581q0 7 -4 9h-112z M913 190v56l5 10l395 553q4 6 10 6h59q7 0 7 -6v-561q0 -6 6 -6h32q24 0 43 24l35 43q6 9 6 -2v-178q0 -11 -6 -2l-35 39q-20 20 -43 20h-32q-6 0 -6 -6v-78q0 -8 4 -16l45 -78q4 -8 -2 -8h-168q-5 0 -2 8l41 78q4 6 4 16v78q0 6 -6 6h-387q-5 0 -5 4zM975 248q-3 -6 2 -6 h328q6 0 6 6v452q0 4 -2.5 5t-5.5 -3z" />
<glyph unicode="&#xbd;" horiz-adv-x="1624" d="M254 6q-4 -6 4 -6h66q8 0 8 6q604 778 1075 1380q5 7 -4 7h-66q-8 0 -8 -7q-151 -202 -500 -649.5t-575 -730.5zM279 1305q-7 3 0 8l202 117q6 4 6 -5v-710q0 -10 7 -17l90 -75q2 -2 2.5 -4t-0.5 -3.5t-4 -1.5h-283q-4 0 -4.5 3t2.5 6l92 75q6 6 6 17v581q0 7 -4 9h-112z M991 6l297 338q71 82 98 137.5t27 116.5q0 72 -46.5 119t-111.5 47q-93 0 -138 -68.5t-9 -165.5q2 -3 1 -3.5t-5 -0.5l-100 17q-7 0 -7 8q0 44 15 89t45 86t83 67t120 26q110 0 178.5 -66t68.5 -153q0 -58 -30 -114.5t-123 -166.5l-242 -258q-2 -4 2 -6h195q75 0 108 33 l103 102q4 4 7 2.5t1 -6.5l-51 -180q-2 -6 -9 -6h-471q-9 0 -6 6z" />
<glyph unicode="&#xbe;" horiz-adv-x="1703" d="M197 838q0 6 4 6l82 22q2 0 2 -2q4 -96 55.5 -147t130.5 -51q81 0 127.5 52.5t48.5 127.5q1 94 -49.5 139t-126.5 45h-115q-2 0 -2 2v51q0 2 2 2h105q68 0 104.5 38t36.5 112q0 70 -43.5 104.5t-99.5 34.5q-62 0 -102 -41t-54 -110q0 -4 -4 -4l-82 22q-2 0 -2 6 q11 33 28 61.5t46 58t75.5 46.5t104.5 17q90 0 158.5 -51t68.5 -140q0 -58 -34.5 -104t-77.5 -68q-8 -4 0 -4q72 -25 114.5 -77.5t42.5 -131.5q0 -106 -80.5 -175t-185.5 -69q-121 0 -185.5 54t-92.5 174zM346 6q-4 -6 4 -6h66q8 0 8 6q604 778 1075 1380q5 7 -4 7h-65 q-9 0 -9 -7q-151 -202 -500 -649.5t-575 -730.5zM1006 190v56l4 10l395 553q4 6 10 6h60q6 0 6 -6v-561q0 -6 6 -6h33q24 0 43 24l34 43q3 4 5 3t2 -5v-178q0 -4 -2 -5t-5 3l-34 39q-20 20 -43 20h-33q-6 0 -6 -6v-78q0 -8 4 -16l45 -78q4 -8 -2 -8h-168q-5 0 -2 8l41 78 q4 6 4 16v78q0 6 -6 6h-387q-4 0 -4 4zM1067 248q-3 -6 2 -6h328q6 0 6 6v452q0 4 -2.5 5t-5.5 -3z" />
<glyph unicode="&#xbf;" horiz-adv-x="985" d="M96 -37q0 239 254 412l131 82q23 16 23 43v176l4 4h57q4 0 4 -4v-199q0 -29 -5.5 -41t-20.5 -22l-94 -58q-144 -96 -196 -179.5t-52 -215.5q0 -149 85.5 -236t221.5 -87q119 0 205 74t86 173q0 9 -4 13l-111 118q-4 9 6 9h209q6 0 6 -9q2 -84 -24 -161.5t-76.5 -138 t-129 -96.5t-173.5 -36q-183 0 -294.5 107.5t-111.5 271.5zM457 971q0 31 25 55.5t57 24.5t57 -24.5t25 -55.5q0 -32 -25 -57t-57 -25t-57 25t-25 57z" />
<glyph unicode="&#xc0;" horiz-adv-x="1398" d="M27 7q1 3 4 5q40 21 75 64t54 92l432 1081q0 4 -2 6l-103 68q-5 5 0 10l127 111q6 6 9 -2q36 -109 88 -228l446 -981q29 -65 77.5 -128.5t104.5 -94.5q4 -3 3.5 -6.5t-5.5 -3.5h-297q-6 0 -6.5 3.5t2.5 6.5l68 115q4 7 2 12l-158 350q-5 10 -8 14.5t-16.5 11.5t-34.5 7 h-518q-9 0 -11 -6l-147 -379q-5 -9 2 -16l104 -109q2 -2 2.5 -4.5t-0.5 -4t-4 -1.5h-284q-4 0 -5.5 2t-0.5 5zM297 1749q0 24 16 38.5t41 14.5q41 0 66 -43l186 -282q4 -4 -2 -4h-41q-6 0 -12 4l-215 202q-39 34 -39 70zM387 582q-3 -7 4 -7h475q18 0 25.5 11t-0.5 26 l-262 584z" />
<glyph unicode="&#xc1;" horiz-adv-x="1308" d="M8 7q1 3 4 5q40 21 75 64t54 92l432 1081q0 4 -2 6l-102 68q-5 5 0 10l127 111q6 6 8 -2q36 -109 88 -228l447 -981q29 -65 77.5 -128.5t104.5 -94.5q4 -3 3.5 -6.5t-5.5 -3.5h-297q-6 0 -6.5 3.5t2.5 6.5l67 115q4 7 2 12l-157 350q-16 33 -60 33h-518q-8 0 -10 -6 l-147 -379q-5 -9 2 -16l104 -109q2 -2 2.5 -4.5t-0.5 -4t-4 -1.5h-285q-4 0 -5.5 2t-0.5 5zM369 582q-3 -7 4 -7h475q18 0 25 11t-1 26l-262 584zM616 1473l187 282q25 43 65 43q25 0 41.5 -14.5t16.5 -38.5q0 -36 -39 -70l-215 -202q-8 -5 -13 -5h-41z" />
<glyph unicode="&#xc2;" horiz-adv-x="1308" d="M8 7q1 3 4 5q40 21 75 64t54 92l432 1081q0 4 -2 6l-102 68q-5 5 0 10l127 111q6 6 8 -2q36 -109 88 -228l447 -981q29 -65 77.5 -128.5t104.5 -94.5q4 -3 3.5 -6.5t-5.5 -3.5h-297q-6 0 -6.5 3.5t2.5 6.5l67 115q4 7 2 12l-157 350q-16 33 -60 33h-518q-8 0 -10 -6 l-147 -379q-5 -9 2 -16l104 -109q2 -2 2.5 -4.5t-0.5 -4t-4 -1.5h-285q-4 0 -5.5 2t-0.5 5zM317 1505l228 258q4 4 8 4h117q4 0 8 -4l227 -258q2 -4 -2 -4h-39q-4 0 -8 4l-244 185q-3 3 -6 0l-239 -185q-4 -4 -9 -4h-39zM369 582q-3 -7 4 -7h475q18 0 25 11t-1 26l-262 584z " />
<glyph unicode="&#xc3;" horiz-adv-x="1308" d="M8 7q1 3 4 5q40 21 75 64t54 92l432 1081q0 4 -2 6l-102 68q-5 5 0 10l127 111q6 6 8 -2q36 -109 88 -228l447 -981q29 -65 77.5 -128.5t104.5 -94.5q4 -3 3.5 -6.5t-5.5 -3.5h-297q-6 0 -6.5 3.5t2.5 6.5l67 115q4 7 2 12l-157 350q-16 33 -60 33h-518q-8 0 -10 -6 l-147 -379q-5 -9 2 -16l104 -109q2 -2 2.5 -4.5t-0.5 -4t-4 -1.5h-285q-4 0 -5.5 2t-0.5 5zM303 1552q19 90 62 134.5t116 44.5q41 0 81.5 -18.5t67.5 -40t61.5 -40t66.5 -18.5q70 0 104 104q2 4 6 4h31l2 -4q-37 -180 -180 -180q-41 0 -83 18.5t-70 41t-60.5 41t-56.5 18.5 q-42 0 -69.5 -30.5t-37.5 -74.5q-2 -4 -6 -4h-33zM369 582q-3 -7 4 -7h475q18 0 25 11t-1 26l-262 584z" />
<glyph unicode="&#xc4;" horiz-adv-x="1308" d="M8 7q1 3 4 5q40 21 75 64t54 92l432 1081q0 4 -2 6l-102 68q-5 5 0 10l127 111q6 6 8 -2q36 -109 88 -228l447 -981q29 -65 77.5 -128.5t104.5 -94.5q4 -3 3.5 -6.5t-5.5 -3.5h-297q-6 0 -6.5 3.5t2.5 6.5l67 115q4 7 2 12l-157 350q-16 33 -60 33h-518q-8 0 -10 -6 l-147 -379q-5 -9 2 -16l104 -109q2 -2 2.5 -4.5t-0.5 -4t-4 -1.5h-285q-4 0 -5.5 2t-0.5 5zM358 1634q0 30 26 56t56 26q32 0 57 -26t25 -56q0 -31 -25 -56.5t-57 -25.5t-57 25.5t-25 56.5zM369 582q-3 -7 4 -7h475q18 0 25 11t-1 26l-262 584zM700 1634q0 30 25 56t57 26 q30 0 56 -26t26 -56q0 -31 -25.5 -56.5t-56.5 -25.5q-33 0 -57.5 25.5t-24.5 56.5z" />
<glyph unicode="&#xc5;" horiz-adv-x="1308" d="M8 7q1 3 4 5q40 21 75 64t54 92l432 1081q0 4 -2 6l-102 68q-5 5 0 10l127 111q6 6 8 -2q36 -109 88 -228l447 -981q29 -65 77.5 -128.5t104.5 -94.5q4 -3 3.5 -6.5t-5.5 -3.5h-297q-6 0 -6.5 3.5t2.5 6.5l67 115q4 7 2 12l-157 350q-16 33 -60 33h-518q-8 0 -10 -6 l-147 -379q-5 -9 2 -16l104 -109q2 -2 2.5 -4.5t-0.5 -4t-4 -1.5h-285q-4 0 -5.5 2t-0.5 5zM369 582q-3 -7 4 -7h475q18 0 25 11t-1 26l-262 584zM432 1681q0 69 49.5 118.5t118.5 49.5t117.5 -49.5t48.5 -118.5t-48.5 -117t-117.5 -48t-118.5 48t-49.5 117zM489 1681 q0 -51 33 -84.5t78 -33.5q44 0 76.5 33.5t32.5 84.5q0 53 -32.5 87t-76.5 34q-46 0 -78.5 -34t-32.5 -87z" />
<glyph unicode="&#xc6;" horiz-adv-x="2121" d="M1 5q0 2 3 3q46 20 76.5 36t72.5 50t74 78l805 1131q3 6 -2 14l-47 67q-2 3 -0.5 6t4.5 3h787h19h17.5h15.5t16.5 1t15 2t16.5 2.5t17 3.5t20 5t21.5 7t25.5 9q6 3 6 -2v-354q0 -3 -1.5 -4t-3.5 0t-3 4l-109 209q-17 37 -36.5 49t-59.5 12h-563q-14 0 -14 -14v-539 q0 -24 26 -24h397q37 0 54.5 9t44.5 38l76 98q3 4 5.5 2.5t2.5 -4.5v-358q0 -12 -8 -4l-82 116q-26 32 -40.5 40t-52.5 8h-397q-26 0 -26 -25v-610q0 -15 14 -15h440q78 0 123 17.5t86 56.5l207 203q4 4 7 2.5t1 -6.5l-113 -322q-2 -6 -8 -6h-946q-10 0 -2 8l90 131 q6 9 6 17v358q-4 12 -18 12h-494q-9 0 -16 -10l-256 -360q-8 -10 0 -23l78 -123q3 -3 1 -6.5t-7 -3.5h-359q-8 0 -7 5zM604.5 586.5q1.5 -4.5 5.5 -4.5h420q49 0 49 51v608q0 4 -2 5t-5 -0.5t-5 -4.5l-461 -647q-3 -3 -1.5 -7.5z" />
<glyph unicode="&#xc7;" horiz-adv-x="1536" d="M113 692q0 205 90 373.5t252 266.5t362 98q269 0 459 -187q7 -7 12 -2l92 74q3 3 6 2t3 -4v-432q0 -3 -2.5 -5t-5 -1t-3.5 6q-27 102 -74.5 189t-116 157t-164 109.5t-206.5 39.5q-170 0 -308.5 -94t-215 -250t-76.5 -340q0 -191 77.5 -345.5t215 -242.5t307.5 -88 q111 0 206.5 39.5t164 109t116 157t74.5 190.5q1 5 3.5 6t5 -1t2.5 -5v-432q0 -3 -3 -4t-6 2l-92 74q-5 5 -12 -2q-179 -176 -422 -187q-6 0 -8 -4l-41 -106q-3 -5 2 -5q31 7 55 7q71 0 112.5 -33t41.5 -88q0 -68 -57.5 -104t-141.5 -36q-47 0 -94.5 14t-69.5 30q-3 3 -2 6 l17 37q3 5 6 2q19 -13 60 -26t83 -13q58 0 84.5 26t26.5 58q0 40 -29.5 59.5t-75.5 19.5q-42 0 -75 -8h-9l-10 6l-2 7l59 147q3 6 -2 6q-191 7 -344 100t-240 257t-87 370z" />
<glyph unicode="&#xc8;" horiz-adv-x="1239" d="M100 8l90 131q7 11 7 17v1083q0 9 -7 16l-90 129q-4 9 4 9h787h19h17.5h15.5t16.5 1t15 2t16.5 2.5t17 3.5t20 5t21.5 7t25.5 9q6 3 6 -2v-354q0 -3 -1.5 -4t-3.5 0t-3 4l-108 209q-17 36 -37 48.5t-60 12.5h-563q-14 0 -14 -14v-539q0 -24 26 -24h398q37 0 54 9t44 38 l76 98q3 4 5.5 2.5t2.5 -4.5v-358q0 -12 -8 -4l-82 116q-26 32 -40 40t-52 8h-398q-26 0 -26 -25v-610q0 -15 14 -15h440q78 0 123 17.5t86 56.5l207 203q4 4 7 2.5t1 -6.5l-112 -322q-2 -6 -8 -6h-947q-10 0 -2 8zM383 1747q0 24 16 38.5t41 14.5q41 0 66 -43l186 -282 q4 -5 -2 -5h-41q-5 0 -12 5l-215 202q-39 34 -39 70z" />
<glyph unicode="&#xc9;" horiz-adv-x="1239" d="M100 8l90 131q7 11 7 17v1083q0 9 -7 16l-90 129q-4 9 4 9h787h19h17.5h15.5t16.5 1t15 2t16.5 2.5t17 3.5t20 5t21.5 7t25.5 9q6 3 6 -2v-354q0 -3 -1.5 -4t-3.5 0t-3 4l-108 209q-17 36 -37 48.5t-60 12.5h-563q-14 0 -14 -14v-539q0 -24 26 -24h398q37 0 54 9t44 38 l76 98q3 4 5.5 2.5t2.5 -4.5v-358q0 -12 -8 -4l-82 116q-26 32 -40 40t-52 8h-398q-26 0 -26 -25v-610q0 -15 14 -15h440q78 0 123 17.5t86 56.5l207 203q4 4 7 2.5t1 -6.5l-112 -322q-2 -6 -8 -6h-947q-10 0 -2 8zM442 1475l187 282q25 43 65 43q25 0 41.5 -14.5 t16.5 -38.5q0 -36 -39 -70l-215 -202q-8 -5 -13 -5h-41z" />
<glyph unicode="&#xca;" horiz-adv-x="1239" d="M100 8l90 131q7 11 7 17v1083q0 9 -7 16l-90 129q-4 9 4 9h787h19h17.5h15.5t16.5 1t15 2t16.5 2.5t17 3.5t20 5t21.5 7t25.5 9q6 3 6 -2v-354q0 -3 -1.5 -4t-3.5 0t-3 4l-108 209q-17 36 -37 48.5t-60 12.5h-563q-14 0 -14 -14v-539q0 -24 26 -24h398q37 0 54 9t44 38 l76 98q3 4 5.5 2.5t2.5 -4.5v-358q0 -12 -8 -4l-82 116q-26 32 -40 40t-52 8h-398q-26 0 -26 -25v-610q0 -15 14 -15h440q78 0 123 17.5t86 56.5l207 203q4 4 7 2.5t1 -6.5l-112 -322q-2 -6 -8 -6h-947q-10 0 -2 8zM317 1505l228 258q4 4 8 4h117q4 0 8 -4l227 -258 q2 -4 -2 -4h-39q-4 0 -8 4l-244 185q-3 3 -6 0l-239 -185q-4 -4 -9 -4h-39z" />
<glyph unicode="&#xcb;" horiz-adv-x="1239" d="M100 8l90 131q7 11 7 17v1083q0 9 -7 16l-90 129q-4 9 4 9h787h19h17.5h15.5t16.5 1t15 2t16.5 2.5t17 3.5t20 5t21.5 7t25.5 9q6 3 6 -2v-354q0 -3 -1.5 -4t-3.5 0t-3 4l-108 209q-17 36 -37 48.5t-60 12.5h-563q-14 0 -14 -14v-539q0 -24 26 -24h398q37 0 54 9t44 38 l76 98q3 4 5.5 2.5t2.5 -4.5v-358q0 -12 -8 -4l-82 116q-26 32 -40 40t-52 8h-398q-26 0 -26 -25v-610q0 -15 14 -15h440q78 0 123 17.5t86 56.5l207 203q4 4 7 2.5t1 -6.5l-112 -322q-2 -6 -8 -6h-947q-10 0 -2 8zM326 1634q0 30 26 56t56 26q32 0 56.5 -26t24.5 -56 q0 -31 -24.5 -56.5t-56.5 -25.5t-57 25.5t-25 56.5zM668 1634q0 30 25 56t57 26q30 0 55.5 -26t25.5 -56q0 -31 -25 -56.5t-56 -25.5q-33 0 -57.5 25.5t-24.5 56.5z" />
<glyph unicode="&#xcc;" horiz-adv-x="489" d="M47 1745q0 24 16 38.5t41 14.5q41 0 66 -43l186 -282q4 -5 -2 -5h-41q-5 0 -12 5l-215 202q-39 34 -39 70zM97.5 1388q-0.5 2 0.5 3.5t4 1.5h285q4 0 4.5 -3t-2.5 -6l-92 -129q-6 -8 -6 -16v-1067q0 -10 6 -16l92 -148q8 -8 -2 -8h-285q-10 0 -2 8l93 148q6 6 6 16v1067 q0 8 -6 16l-93 129q-2 2 -2.5 4z" />
<glyph unicode="&#xcd;" horiz-adv-x="489" d="M97.5 1388q-0.5 2 0.5 3.5t4 1.5h285q4 0 4.5 -3t-2.5 -6l-92 -129q-6 -8 -6 -16v-1067q0 -10 6 -16l92 -148q8 -8 -2 -8h-285q-10 0 -2 8l93 148q6 6 6 16v1067q0 8 -6 16l-93 129q-2 2 -2.5 4zM131 1473l186 282q25 43 66 43q25 0 41 -14.5t16 -38.5q0 -36 -39 -70 l-215 -202q-8 -5 -12 -5h-41z" />
<glyph unicode="&#xce;" horiz-adv-x="489" d="M-49 1505l227 258q4 4 8 4h117q4 0 8 -4l228 -258q2 -4 -2 -4h-39q-5 0 -9 4l-243 185q-3 3 -6 0l-240 -185q-4 -4 -8 -4h-39zM97.5 1388q-0.5 2 0.5 3.5t4 1.5h285q4 0 4.5 -3t-2.5 -6l-92 -129q-6 -8 -6 -16v-1067q0 -10 6 -16l92 -148q8 -8 -2 -8h-285q-10 0 -2 8 l93 148q6 6 6 16v1067q0 8 -6 16l-93 129q-2 2 -2.5 4z" />
<glyph unicode="&#xcf;" horiz-adv-x="489" d="M-8 1634q0 30 26 56t56 26q32 0 57 -26t25 -56q0 -31 -25 -56.5t-57 -25.5t-57 25.5t-25 56.5zM97.5 1388q-0.5 2 0.5 3.5t4 1.5h285q4 0 4.5 -3t-2.5 -6l-92 -129q-6 -8 -6 -16v-1067q0 -10 6 -16l92 -148q8 -8 -2 -8h-285q-10 0 -2 8l93 148q6 6 6 16v1067q0 8 -6 16 l-93 129q-2 2 -2.5 4zM334 1634q0 30 25 56t57 26q30 0 56 -26t26 -56q0 -31 -25.5 -56.5t-56.5 -25.5q-33 0 -57.5 25.5t-24.5 56.5z" />
<glyph unicode="&#xd0;" horiz-adv-x="1433" d="M53 682v59q0 4 4 4h138q4 0 4 5v489q0 10 -6 16l-91 129q-4 9 4 9h429q378 0 582 -181t204 -507q0 -316 -212 -510.5t-550 -194.5h-455q-10 0 -2 8l91 131q6 9 6 17v518q0 4 -4 4h-138q-4 0 -4 4zM291 86q0 -13 8 -22t20 -9h220q140 0 262.5 45t214.5 127t146 205.5 t57 272.5q2 123 -33.5 226.5t-99.5 177.5t-152.5 126t-191.5 77t-216 25h-207q-12 0 -20 -8.5t-8 -21.5v-557q0 -5 4 -5h262q4 0 4 -4v-59q0 -4 -4 -4h-262q-4 0 -4 -4v-588z" />
<glyph unicode="&#xd1;" horiz-adv-x="1507" d="M100 1386l129 -133l7 -12v-1069q0 -9 -7 -16l-110 -148q-8 -8 2 -8h297q10 0 2 8l-111 148q-6 6 -6 16v983l4 2l750 -956q63 -80 88 -119.5t31 -75.5q0 -6 6 -6h159q3 0 4 2.5t-2 5.5l-49 64q-3 3 -4.5 7t-1.5 7v2v1135q0 7 6 16l111 145q2 2 2.5 4t-0.5 3.5t-4 1.5h-297 q-4 0 -4.5 -3t2.5 -6l110 -145q7 -9 7 -16v-1071q0 -6 -4 -2l-859 1099q-19 24 -42 66t-33 74q-2 4 -7 4h-174q-9 0 -2 -7zM479 1552q19 90 62 134.5t116 44.5q41 0 81.5 -18.5t67.5 -40t61.5 -40t66.5 -18.5q70 0 104 104q2 4 6 4h31l2 -4q-37 -180 -180 -180 q-41 0 -83 18.5t-70 41t-60.5 41t-56.5 18.5q-42 0 -69.5 -30.5t-37.5 -74.5q-2 -4 -6 -4h-33z" />
<glyph unicode="&#xd2;" d="M113 692q0 205 90 373.5t252 266.5t362 98t362 -97.5t252.5 -266.5t90.5 -374q0 -212 -92.5 -379t-253 -258.5t-359.5 -91.5t-359.5 91.5t-252.5 258.5t-92 379zM217 692q0 -191 77.5 -345.5t215 -242.5t307.5 -88q173 0 311.5 88t215 242.5t73.5 345.5q-2 140 -49 266.5 t-125.5 218t-189.5 145.5t-236 54q-170 0 -308.5 -94t-215 -250t-76.5 -340zM532 1747q0 24 16.5 38.5t41.5 14.5q40 0 65 -43l187 -282q4 -5 -2 -5h-41q-5 0 -13 5l-215 202q-39 34 -39 70z" />
<glyph unicode="&#xd3;" d="M113 692q0 205 90 373.5t252 266.5t362 98t362 -97.5t252.5 -266.5t90.5 -374q0 -212 -92.5 -379t-253 -258.5t-359.5 -91.5t-359.5 91.5t-252.5 258.5t-92 379zM217 692q0 -191 77.5 -345.5t215 -242.5t307.5 -88q173 0 311.5 88t215 242.5t73.5 345.5q-2 140 -49 266.5 t-125.5 218t-189.5 145.5t-236 54q-170 0 -308.5 -94t-215 -250t-76.5 -340zM793 1473l186 282q25 43 65 43q25 0 41.5 -14.5t16.5 -38.5q0 -36 -39 -70l-215 -202q-8 -5 -12 -5h-41z" />
<glyph unicode="&#xd4;" d="M113 692q0 205 90 373.5t252 266.5t362 98t362 -97.5t252.5 -266.5t90.5 -374q0 -212 -92.5 -379t-253 -258.5t-359.5 -91.5t-359.5 91.5t-252.5 258.5t-92 379zM217 692q0 -191 77.5 -345.5t215 -242.5t307.5 -88q173 0 311.5 88t215 242.5t73.5 345.5q-2 140 -49 266.5 t-125.5 218t-189.5 145.5t-236 54q-170 0 -308.5 -94t-215 -250t-76.5 -340zM528 1505l228 258q4 4 8 4h117q4 0 8 -4l227 -258q2 -4 -2 -4h-39q-4 0 -8 4l-244 185q-3 3 -6 0l-239 -185q-4 -4 -9 -4h-39z" />
<glyph unicode="&#xd5;" d="M113 692q0 205 90 373.5t252 266.5t362 98t362 -97.5t252.5 -266.5t90.5 -374q0 -212 -92.5 -379t-253 -258.5t-359.5 -91.5t-359.5 91.5t-252.5 258.5t-92 379zM217 692q0 -191 77.5 -345.5t215 -242.5t307.5 -88q173 0 311.5 88t215 242.5t73.5 345.5q-2 140 -49 266.5 t-125.5 218t-189.5 145.5t-236 54q-170 0 -308.5 -94t-215 -250t-76.5 -340zM504 1552q19 90 62 134.5t116 44.5q41 0 81.5 -18.5t67 -40t61 -40t66.5 -18.5q71 0 105 104q2 4 6 4h31l2 -4q-37 -180 -180 -180q-52 0 -104 30t-94.5 59.5t-72.5 29.5q-42 0 -69 -30.5 t-37 -74.5q-2 -4 -6 -4h-33z" />
<glyph unicode="&#xd6;" d="M113 692q0 205 90 373.5t252 266.5t362 98t362 -97.5t252.5 -266.5t90.5 -374q0 -212 -92.5 -379t-253 -258.5t-359.5 -91.5t-359.5 91.5t-252.5 258.5t-92 379zM217 692q0 -191 77.5 -345.5t215 -242.5t307.5 -88q173 0 311.5 88t215 242.5t73.5 345.5q-2 140 -49 266.5 t-125.5 218t-189.5 145.5t-236 54q-170 0 -308.5 -94t-215 -250t-76.5 -340zM565 1636q0 30 26 56t56 26q32 0 57 -26t25 -56q0 -31 -25 -56.5t-57 -25.5t-57 25.5t-25 56.5zM907 1636q0 30 25 56t57 26q30 0 56 -26t26 -56q0 -31 -25.5 -56.5t-56.5 -25.5q-33 0 -57.5 25.5 t-24.5 56.5z" />
<glyph unicode="&#xd7;" horiz-adv-x="917" d="M104 188q-4 4 0 9l314 313q4 4 0 8l-309 309q-2 2 0 4l32 33q3 3 6 0l310 -307q3 -3 6 0l309 307h6l33 -33q2 -4 -2 -8l-305 -305q-4 -4 0 -8l311 -313q1 -1 1 -4t-1 -5l-29 -28q-4 -4 -8 0l-311 309q-5 5 -10 0l-314 -311q-4 -4 -6 -2z" />
<glyph unicode="&#xd8;" horiz-adv-x="1658" d="M115 -31l196 213q6 9 0 15q-174 203 -174 495q0 205 90.5 374t252.5 266.5t362 97.5q261 0 454 -166q4 -4 9 0l147 159q7 7 8 7h70q9 0 4 -7l-184 -202q-3 -6 0 -9q94 -101 145 -234.5t51 -285.5q0 -212 -92 -379t-252.5 -258.5t-359.5 -91.5q-279 0 -475 174 q-7 7 -15 -2l-151 -166q-6 -6 -11 -6h-73q-8 0 -2 6zM242 692q0 -249 127 -432q7 -7 14 0l856 932q5 7 0 12q-169 172 -397 172q-170 0 -308.5 -94t-215 -250t-76.5 -340zM420 207q-3 -5 2 -10q170 -181 420 -181q174 0 312.5 87.5t215 242.5t72.5 346q-6 260 -152 455 q-5 5 -10 0z" />
<glyph unicode="&#xd9;" horiz-adv-x="1439" d="M73.5 1388q-0.5 2 0.5 3.5t4 1.5h303q4 0 4.5 -3t-2.5 -6l-111 -129q-6 -6 -6 -16v-739q0 -211 130 -341t337 -130q86 0 165 29.5t144 86.5t103.5 152.5t38.5 216.5v707q0 10 -6 16l-111 147q-2 2 -2.5 4t0.5 3.5t4 1.5h297q4 0 4.5 -3t-2.5 -6l-111 -147q-6 -6 -6 -16 v-684q0 -265 -146.5 -419.5t-391.5 -154.5q-242 0 -390.5 148.5t-148.5 406.5v721q0 10 -6 16l-92 129q-2 2 -2.5 4zM467 1745q0 24 16 38.5t41 14.5q41 0 66 -43l186 -282q4 -5 -2 -5h-41q-5 0 -12 5l-215 202q-39 34 -39 70z" />
<glyph unicode="&#xda;" horiz-adv-x="1439" d="M73.5 1388q-0.5 2 0.5 3.5t4 1.5h303q4 0 4.5 -3t-2.5 -6l-111 -129q-6 -6 -6 -16v-739q0 -211 130 -341t337 -130q86 0 165 29.5t144 86.5t103.5 152.5t38.5 216.5v707q0 10 -6 16l-111 147q-2 2 -2.5 4t0.5 3.5t4 1.5h297q4 0 4.5 -3t-2.5 -6l-111 -147q-6 -6 -6 -16 v-684q0 -265 -146.5 -419.5t-391.5 -154.5q-242 0 -390.5 148.5t-148.5 406.5v721q0 10 -6 16l-92 129q-2 2 -2.5 4zM674 1473l186 282q25 43 66 43q25 0 41 -14.5t16 -38.5q0 -36 -39 -70l-215 -202q-7 -5 -12 -5h-41z" />
<glyph unicode="&#xdb;" horiz-adv-x="1439" d="M73.5 1388q-0.5 2 0.5 3.5t4 1.5h303q4 0 4.5 -3t-2.5 -6l-111 -129q-6 -6 -6 -16v-739q0 -211 130 -341t337 -130q86 0 165 29.5t144 86.5t103.5 152.5t38.5 216.5v707q0 10 -6 16l-111 147q-2 2 -2.5 4t0.5 3.5t4 1.5h297q4 0 4.5 -3t-2.5 -6l-111 -147q-6 -6 -6 -16 v-684q0 -265 -146.5 -419.5t-391.5 -154.5q-242 0 -390.5 148.5t-148.5 406.5v721q0 10 -6 16l-92 129q-2 2 -2.5 4zM446 1505l228 258q4 4 8 4h117q4 0 8 -4l227 -258q2 -4 -2 -4h-39q-4 0 -8 4l-244 185q-3 3 -6 0l-239 -185q-4 -4 -9 -4h-38z" />
<glyph unicode="&#xdc;" horiz-adv-x="1439" d="M73.5 1388q-0.5 2 0.5 3.5t4 1.5h303q4 0 4.5 -3t-2.5 -6l-111 -129q-6 -6 -6 -16v-739q0 -211 130 -341t337 -130q86 0 165 29.5t144 86.5t103.5 152.5t38.5 216.5v707q0 10 -6 16l-111 147q-2 2 -2.5 4t0.5 3.5t4 1.5h297q4 0 4.5 -3t-2.5 -6l-111 -147q-6 -6 -6 -16 v-684q0 -265 -146.5 -419.5t-391.5 -154.5q-242 0 -390.5 148.5t-148.5 406.5v721q0 10 -6 16l-92 129q-2 2 -2.5 4zM498 1634q0 30 26 56t56 26q32 0 57 -26t25 -56q0 -31 -25 -56.5t-57 -25.5t-57 25.5t-25 56.5zM840 1634q0 30 25 56t57 26q30 0 56 -26t26 -56 q0 -31 -25.5 -56.5t-56.5 -25.5q-33 0 -57.5 25.5t-24.5 56.5z" />
<glyph unicode="&#xdd;" horiz-adv-x="1177" d="M4 1386q-3 3 0 6q0 1 2 1h316q5 -1 2 -7l-93 -120v-6l340 -574q34 -61 35 -63q2 -4 4 -2l377 618q3 7 -2 12l-100 135q-3 3 0 6q0 1 2 1h299q5 -1 2 -7q-18 -19 -47 -47t-49.5 -51.5t-44.5 -58.5l-365 -600q-31 -46 -31 -109v-366q0 -8 6 -17l80 -129q8 -8 -2 -8h-260 q-10 0 -2 8l80 129q6 9 6 17v309q0 74 -41 145l-340 568q-33 55 -83.5 118t-90.5 92zM565 1475l187 282q25 43 65 43q25 0 41 -14.5t16 -38.5q0 -37 -38 -70l-215 -202q-7 -5 -13 -5h-41z" />
<glyph unicode="&#xde;" horiz-adv-x="1034" d="M55 3q0 3 2 5l97 148q4 6 4 14v1053q0 8 -4 14l-97 147q-2 2 -2 5.5t4 3.5h183q6 0 6 -7v-460q0 -8 4 0q43 81 123.5 140.5t177.5 59.5q194 0 298.5 -122t104.5 -310q0 -185 -105 -308.5t-298 -123.5q-98 0 -178 57.5t-123 137.5q-4 8 -4 0v-451q0 -6 -6 -6h-183 q-4 0 -4 3zM244 694q0 -174 91.5 -278.5t211.5 -104.5q60 0 113.5 21.5t98.5 65t71 119.5t26 177t-24.5 177t-68 120t-97.5 65t-119 21q-120 0 -211.5 -104.5t-91.5 -278.5z" />
<glyph unicode="&#xdf;" horiz-adv-x="1103" d="M94 8l84 121q8 10 8 25v747q0 111 21 203.5t65.5 167t121 116.5t179.5 42q176 0 268.5 -88.5t92.5 -227.5q0 -107 -71.5 -198.5t-168.5 -120.5q-4 -2 0 -4q158 -49 251 -153.5t93 -264.5q0 -76 -25 -138.5t-68.5 -105.5t-103.5 -72.5t-129 -43t-145 -13.5h-133q-4 0 -4 4 v47l4 4h123q75 0 141.5 18.5t120.5 55.5t85.5 99t31.5 141q0 78 -21.5 143.5t-64.5 119t-116 86t-169 38.5q-4 0 -4 4v53l4 4q152 16 212 90t54 205q-5 120 -74 192t-188 72q-81 0 -139.5 -37.5t-90 -103t-46 -140t-14.5 -161.5v-928q0 -6 -7 -6h-176q-7 0 -2 8z" />
<glyph unicode="&#xe0;" horiz-adv-x="1001" d="M66 242q0 55 17.5 101t55.5 85.5t105 66.5t159 37l195 21q58 6 96 21t56.5 38.5t25 48t6.5 58.5q0 146 -78.5 214t-199.5 68q-108 0 -175.5 -57t-84.5 -135q-2 -6 2 -10l100 -107q4 -8 -6 -8h-225q-6 0 -6 8q26 155 130.5 257t264.5 102q368 0 368 -402v-293 q0 -87 12.5 -164.5t53.5 -187.5q2 -3 0.5 -4.5t-4.5 0.5q-106 71 -152 152q-3 6 -6 0q-123 -189 -352 -189q-91 0 -162 24.5t-112.5 65.5t-62.5 89t-21 100zM168 258q0 -109 72.5 -177.5t201.5 -68.5q162 0 251 103.5t89 263.5v190q0 2 -4 0l-10 -7q-11 -7 -14 -9t-15.5 -9 t-20 -10t-23 -8.5t-29.5 -9t-33.5 -7t-40.5 -5.5l-199 -23q-109 -13 -167 -71.5t-58 -151.5zM389 1382q0 24 16 39t41 15q41 0 66 -43l186 -283q4 -4 -2 -4h-41q-6 0 -12 4l-215 203q-39 34 -39 69z" />
<glyph unicode="&#xe1;" horiz-adv-x="1001" d="M66 242q0 55 17.5 101t55.5 85.5t105 66.5t159 37l195 21q58 6 96 21t56.5 38.5t25 48t6.5 58.5q0 146 -78.5 214t-199.5 68q-108 0 -175.5 -57t-84.5 -135q-2 -6 2 -10l100 -107q4 -8 -6 -8h-225q-6 0 -6 8q26 155 130.5 257t264.5 102q368 0 368 -402v-293 q0 -87 12.5 -164.5t53.5 -187.5q2 -3 0.5 -4.5t-4.5 0.5q-106 71 -152 152q-3 6 -6 0q-123 -189 -352 -189q-91 0 -162 24.5t-112.5 65.5t-62.5 89t-21 100zM168 258q0 -109 72.5 -177.5t201.5 -68.5q162 0 251 103.5t89 263.5v190q0 2 -4 0l-10 -7q-11 -7 -14 -9t-15.5 -9 t-20 -10t-23 -8.5t-29.5 -9t-33.5 -7t-40.5 -5.5l-199 -23q-109 -13 -167 -71.5t-58 -151.5zM428 1108l186 283q25 43 66 43q25 0 41 -15t16 -39q0 -35 -39 -69l-215 -203q-6 -4 -12 -4h-41z" />
<glyph unicode="&#xe2;" horiz-adv-x="1001" d="M66 242q0 55 17.5 101t55.5 85.5t105 66.5t159 37l195 21q58 6 96 21t56.5 38.5t25 48t6.5 58.5q0 146 -78.5 214t-199.5 68q-108 0 -175.5 -57t-84.5 -135q-2 -6 2 -10l100 -107q4 -8 -6 -8h-225q-6 0 -6 8q26 155 130.5 257t264.5 102q368 0 368 -402v-293 q0 -87 12.5 -164.5t53.5 -187.5q2 -3 0.5 -4.5t-4.5 0.5q-106 71 -152 152q-3 6 -6 0q-123 -189 -352 -189q-91 0 -162 24.5t-112.5 65.5t-62.5 89t-21 100zM168 258q0 -109 72.5 -177.5t201.5 -68.5q162 0 251 103.5t89 263.5v190q0 2 -4 0l-10 -7q-11 -7 -14 -9t-15.5 -9 t-20 -10t-23 -8.5t-29.5 -9t-33.5 -7t-40.5 -5.5l-199 -23q-109 -13 -167 -71.5t-58 -151.5zM236 1139l227 258q4 4 8 4h117q4 0 8 -4l227 -258q2 -4 -2 -4h-39q-4 0 -8 4l-244 184q-3 3 -6 0l-239 -184q-4 -4 -9 -4h-38z" />
<glyph unicode="&#xe3;" horiz-adv-x="1001" d="M66 242q0 55 17.5 101t55.5 85.5t105 66.5t159 37l195 21q58 6 96 21t56.5 38.5t25 48t6.5 58.5q0 146 -78.5 214t-199.5 68q-108 0 -175.5 -57t-84.5 -135q-2 -6 2 -10l100 -107q4 -8 -6 -8h-225q-6 0 -6 8q26 155 130.5 257t264.5 102q368 0 368 -402v-293 q0 -87 12.5 -164.5t53.5 -187.5q2 -3 0.5 -4.5t-4.5 0.5q-106 71 -152 152q-3 6 -6 0q-123 -189 -352 -189q-91 0 -162 24.5t-112.5 65.5t-62.5 89t-21 100zM168 258q0 -109 72.5 -177.5t201.5 -68.5q162 0 251 103.5t89 263.5v190q0 2 -4 0l-10 -7q-11 -7 -14 -9t-15.5 -9 t-20 -10t-23 -8.5t-29.5 -9t-33.5 -7t-40.5 -5.5l-199 -23q-109 -13 -167 -71.5t-58 -151.5zM233 1186q37 178 179 178q41 0 81.5 -18.5t67 -40t61 -40t66.5 -18.5q71 0 105 105q2 4 6 4h30l2 -4q-37 -181 -180 -181q-41 0 -83 18.5t-70 41t-60.5 41t-56.5 18.5 q-42 0 -69.5 -30.5t-37.5 -73.5q-2 -4 -6 -4h-32z" />
<glyph unicode="&#xe4;" horiz-adv-x="1001" d="M66 242q0 55 17.5 101t55.5 85.5t105 66.5t159 37l195 21q58 6 96 21t56.5 38.5t25 48t6.5 58.5q0 146 -78.5 214t-199.5 68q-108 0 -175.5 -57t-84.5 -135q-2 -6 2 -10l100 -107q4 -8 -6 -8h-225q-6 0 -6 8q26 155 130.5 257t264.5 102q368 0 368 -402v-293 q0 -87 12.5 -164.5t53.5 -187.5q2 -3 0.5 -4.5t-4.5 0.5q-106 71 -152 152q-3 6 -6 0q-123 -189 -352 -189q-91 0 -162 24.5t-112.5 65.5t-62.5 89t-21 100zM168 258q0 -109 72.5 -177.5t201.5 -68.5q162 0 251 103.5t89 263.5v190q0 2 -4 0l-10 -7q-11 -7 -14 -9t-15.5 -9 t-20 -10t-23 -8.5t-29.5 -9t-33.5 -7t-40.5 -5.5l-199 -23q-109 -13 -167 -71.5t-58 -151.5zM274 1268q0 30 26 56t56 26q32 0 57 -26t25 -56q0 -31 -25 -56.5t-57 -25.5t-57 25.5t-25 56.5zM616 1268q0 30 25 56t57 26q30 0 56 -26t26 -56q0 -31 -25.5 -56.5t-56.5 -25.5 q-33 0 -57.5 25.5t-24.5 56.5z" />
<glyph unicode="&#xe5;" horiz-adv-x="1001" d="M66 242q0 55 17.5 101t55.5 85.5t105 66.5t159 37l195 21q58 6 96 21t56.5 38.5t25 48t6.5 58.5q0 146 -78.5 214t-199.5 68q-108 0 -175.5 -57t-84.5 -135q-2 -6 2 -10l100 -107q4 -8 -6 -8h-225q-6 0 -6 8q26 155 130.5 257t264.5 102q368 0 368 -402v-293 q0 -87 12.5 -164.5t53.5 -187.5q2 -3 0.5 -4.5t-4.5 0.5q-106 71 -152 152q-3 6 -6 0q-123 -189 -352 -189q-91 0 -162 24.5t-112.5 65.5t-62.5 89t-21 100zM168 258q0 -109 72.5 -177.5t201.5 -68.5q162 0 251 103.5t89 263.5v190q0 2 -4 0l-10 -7q-11 -7 -14 -9t-15.5 -9 t-20 -10t-23 -8.5t-29.5 -9t-33.5 -7t-40.5 -5.5l-199 -23q-109 -13 -167 -71.5t-58 -151.5zM371 1317q0 69 49.5 118.5t118.5 49.5t117.5 -49.5t48.5 -118.5t-48.5 -117.5t-117.5 -48.5t-118.5 48.5t-49.5 117.5zM428 1317q0 -51 33 -85t78 -34q44 0 76 34t32 85 q0 53 -32 87t-76 34q-46 0 -78.5 -34t-32.5 -87z" />
<glyph unicode="&#xe6;" horiz-adv-x="1773" d="M66 242q0 55 17.5 101t55.5 85.5t105 66.5t159 37l201 21q111 11 152 54t41 112q0 75 -25 131.5t-67.5 88.5t-93 47t-107.5 15q-108 0 -175.5 -57t-84.5 -135q-2 -6 2 -10l100 -107q4 -8 -6 -8h-225q-6 0 -6 8q26 155 130.5 257t264.5 102q145 0 239.5 -61.5 t126.5 -186.5q1 -3 4 0q65 113 163.5 180.5t228.5 67.5q208 0 326 -133t120 -336q0 -7 -4 -7h-813q-6 0 -6 -8q-11 -151 37 -279t141 -202t209 -74q123 0 214.5 66t125.5 155q4 9 8 5l53 -41q3 -3 -2 -9q-72 -106 -168 -165.5t-235 -59.5t-242 66t-166 190q-3 6 -6 0 q-48 -119 -170.5 -187.5t-263.5 -68.5q-91 0 -162 24.5t-112.5 65.5t-62.5 89t-21 100zM168 258q0 -109 72.5 -177.5t201.5 -68.5q163 0 259 104.5t96 262.5v190q0 2 -4 0q-80 -53 -195 -65l-205 -23q-109 -13 -167 -71.5t-58 -151.5zM897 629q0 -4 4 -4h711q8 0 8 10 q0 157 -107.5 261.5t-246.5 104.5q-131 0 -238.5 -104t-130.5 -268z" />
<glyph unicode="&#xe7;" horiz-adv-x="1095" d="M78 498q0 149 67.5 275t190.5 202t274 76q166 0 286.5 -101.5t133.5 -253.5q0 -8 -6 -8h-209q-4 1 -2 6l109 88q4 4 2 9q-24 94 -114.5 152t-201.5 58q-179 0 -303.5 -139.5t-124.5 -361.5q0 -137 53 -248.5t149 -175.5t216 -64q113 0 206 60t150 180q4 9 9 4l57 -41 q3 -3 -2 -8q-78 -118 -172 -177.5t-215 -66.5q-6 0 -8 -4l-39 -102q-2 -4 2 -4q27 6 55 6q71 0 112.5 -33t41.5 -88q0 -68 -57.5 -103.5t-141.5 -35.5q-47 0 -95 14t-69 29q-3 3 -2 6l16 37q3 6 7 2q19 -13 60 -26t83 -13q58 0 84.5 26t26.5 58q0 40 -29.5 60t-75.5 20 q-38 0 -76 -9h-8l-10 7l-2 6l57 141q3 6 -2 6q-222 12 -352.5 158t-130.5 377z" />
<glyph unicode="&#xe8;" horiz-adv-x="1077" d="M80 520q1 136 60.5 256.5t173 197.5t255.5 77q208 0 326.5 -133t120.5 -336q0 -7 -4 -7h-828q-6 0 -6 -8q-11 -150 39 -278.5t145 -202.5t211 -74q123 0 218.5 66t128.5 155q4 9 8 5l53 -41q3 -3 -2 -9q-152 -225 -410 -225q-218 0 -354 152t-135 405zM186 629q0 -4 4 -4 h725q9 0 9 10q0 157 -108 261.5t-247 104.5q-86 0 -167.5 -45t-141 -131.5t-74.5 -195.5zM383 1378q0 24 16 39t41 15q41 0 66 -43l186 -283q4 -4 -2 -4h-41q-6 0 -12 4l-215 203q-39 34 -39 69z" />
<glyph unicode="&#xe9;" horiz-adv-x="1077" d="M80 520q1 136 60.5 256.5t173 197.5t255.5 77q208 0 326.5 -133t120.5 -336q0 -7 -4 -7h-828q-6 0 -6 -8q-11 -150 39 -278.5t145 -202.5t211 -74q123 0 218.5 66t128.5 155q4 9 8 5l53 -41q3 -3 -2 -9q-152 -225 -410 -225q-218 0 -354 152t-135 405zM186 629q0 -4 4 -4 h725q9 0 9 10q0 157 -108 261.5t-247 104.5q-86 0 -167.5 -45t-141 -131.5t-74.5 -195.5zM489 1106l187 283q25 43 65 43q25 0 41.5 -15t16.5 -39q0 -35 -39 -69l-215 -203q-6 -4 -13 -4h-40z" />
<glyph unicode="&#xea;" horiz-adv-x="1077" d="M80 520q1 136 60.5 256.5t173 197.5t255.5 77q208 0 326.5 -133t120.5 -336q0 -7 -4 -7h-828q-6 0 -6 -8q-11 -150 39 -278.5t145 -202.5t211 -74q123 0 218.5 66t128.5 155q4 9 8 5l53 -41q3 -3 -2 -9q-152 -225 -410 -225q-218 0 -354 152t-135 405zM186 629q0 -4 4 -4 h725q9 0 9 10q0 157 -108 261.5t-247 104.5q-86 0 -167.5 -45t-141 -131.5t-74.5 -195.5zM291 1139l227 258q4 4 8 4h117q4 0 8 -4l228 -258q2 -4 -2 -4h-39q-5 0 -9 4l-243 184q-3 3 -6 0l-240 -184q-4 -4 -8 -4h-39z" />
<glyph unicode="&#xeb;" horiz-adv-x="1077" d="M80 520q1 136 60.5 256.5t173 197.5t255.5 77q208 0 326.5 -133t120.5 -336q0 -7 -4 -7h-828q-6 0 -6 -8q-11 -150 39 -278.5t145 -202.5t211 -74q123 0 218.5 66t128.5 155q4 9 8 5l53 -41q3 -3 -2 -9q-152 -225 -410 -225q-218 0 -354 152t-135 405zM186 629q0 -4 4 -4 h725q9 0 9 10q0 157 -108 261.5t-247 104.5q-86 0 -167.5 -45t-141 -131.5t-74.5 -195.5zM334 1268q0 30 26 56t56 26q32 0 57 -26t25 -56q0 -31 -25 -56.5t-57 -25.5t-57 25.5t-25 56.5zM676 1268q0 30 25 56t57 26q30 0 56 -26t26 -56q0 -31 -25.5 -56.5t-56.5 -25.5 q-33 0 -57.5 25.5t-24.5 56.5z" />
<glyph unicode="&#xec;" horiz-adv-x="468" d="M-12 1380q0 24 16 39t41 15q41 0 66 -43l186 -283q4 -4 -2 -4h-41q-6 0 -12 4l-215 203q-39 34 -39 69zM88 961l109 -68q4 -2 4 -8v-731q0 -10 -6 -19l-93 -127q-8 -8 2 -8h281q10 0 2 8l-92 127q-6 9 -6 19v893q0 6 -6 4l-195 -82q-10 -3 0 -8z" />
<glyph unicode="&#xed;" horiz-adv-x="468" d="M88 961l109 -68q4 -2 4 -8v-731q0 -10 -6 -19l-93 -127q-8 -8 2 -8h281q10 0 2 8l-92 127q-6 9 -6 19v893q0 6 -6 4l-195 -82q-10 -3 0 -8zM109 1108l186 283q25 43 65 43q25 0 41.5 -15t16.5 -39q0 -35 -39 -69l-215 -203q-6 -4 -12 -4h-41z" />
<glyph unicode="&#xee;" horiz-adv-x="468" d="M-53 1139l227 258q4 4 8 4h117q4 0 8 -4l228 -258q1 -4 -3 -4h-38q-5 0 -9 4l-243 184q-3 3 -6 0l-240 -184q-4 -4 -8 -4h-39zM88 961q-10 5 0 8l195 82q6 2 6 -4v-893q0 -10 6 -19l92 -127q8 -8 -2 -8h-281q-10 0 -2 8l93 127q6 9 6 19v731q0 6 -4 8z" />
<glyph unicode="&#xef;" horiz-adv-x="468" d="M-14 1268q0 30 26 56t56 26q32 0 57 -26t25 -56q0 -31 -25 -56.5t-57 -25.5t-57 25.5t-25 56.5zM84 963l2 -2h2l109 -68q4 -4 4 -6v-2v-731v-7q-2 -2 -2 -4q0 -4 -4 -8l-93 -127q-5 -5 -2 -8h2h2h281h2q2 0 2 2q2 2 -2 6l-92 127q-6 6 -6 12v7v893q0 4 -2 4h-2h-2 l-195 -82q-4 -2 -4 -4v-2zM328 1268q0 30 25 56t57 26q30 0 56 -26t26 -56q0 -31 -25.5 -56.5t-56.5 -25.5q-33 0 -57.5 25.5t-24.5 56.5z" />
<glyph unicode="&#xf0;" horiz-adv-x="1198" d="M88 442q0 86 34 167.5t94.5 145t151 102t195.5 38.5q122 0 221.5 -46t165.5 -134h4q-30 175 -130.5 313.5t-248.5 228.5q-6 0 -8 -2l-125 -155q-6 -6 -10 -6h-63q-8 0 -2 6l149 184q5 5 0 8q-138 69 -309 92q-7 0 -4 7l22 34q3 5 8 5q69 -4 166 -32t158 -59q4 -2 8 2 l111 138q6 6 8 6h64q8 0 4 -6l-134 -164q-1 -1 0 -3.5t3 -2.5q213 -119 334.5 -329.5t121.5 -475.5q0 -146 -59.5 -268.5t-175 -197.5t-264.5 -75q-215 0 -352.5 130t-137.5 349zM193 442q0 -95 26.5 -171.5t66.5 -122.5t93 -77t101.5 -43t94.5 -12q67 0 136 28t128 79 t96.5 134.5t37.5 184.5q0 96 -36 174t-95.5 126.5t-131 74t-147.5 25.5q-161 0 -265.5 -115.5t-104.5 -284.5z" />
<glyph unicode="&#xf1;" horiz-adv-x="1118" d="M59 973q-10 5 0 8l195 84q6 2 6 -4v-199q0 -8 4 0q20 35 47 65t67 59.5t97.5 47t124.5 17.5q175 0 275 -94t100 -250v-553q0 -11 4 -19l72 -127q4 -8 -2 -8h-258q-11 0 -3 8l93 127q6 8 6 19v532q0 146 -83 230.5t-214 84.5q-60 0 -115.5 -20.5t-105 -63t-79.5 -118.5 t-30 -176v-469q0 -11 6 -19l92 -127q8 -8 -2 -8h-258q-6 0 -2 8l72 127q4 6 4 19v743q0 6 -4 8zM281 1186q19 90 62 134t116 44q41 0 81.5 -18.5t67 -40t61 -40t66.5 -18.5q71 0 105 105q2 4 6 4h31l2 -4q-37 -181 -181 -181q-41 0 -83 18.5t-70 41t-60.5 41t-56.5 18.5 q-42 0 -69 -30t-37 -74q-2 -4 -7 -4h-32z" />
<glyph unicode="&#xf2;" horiz-adv-x="1204" d="M70 498q0 149 67.5 275t190.5 202t274 76q113 0 213 -44.5t169.5 -119.5t110 -176.5t40.5 -212.5q0 -156 -71 -279t-192.5 -189.5t-271.5 -66.5t-270.5 66.5t-190 189.5t-69.5 279zM172 500q0 -128 55.5 -240t154.5 -180t218 -68t219 68t156.5 180t56.5 240 q0 111 -34 205.5t-92.5 159t-137.5 100.5t-168 36q-179 0 -303.5 -139.5t-124.5 -361.5zM315 1378q0 24 16.5 39t41.5 15q40 0 65 -43l187 -283q4 -4 -2 -4h-41q-7 0 -13 4l-215 203q-39 34 -39 69z" />
<glyph unicode="&#xf3;" horiz-adv-x="1204" d="M70 498q0 149 67.5 275t190.5 202t274 76q113 0 213 -44.5t169.5 -119.5t110 -176.5t40.5 -212.5q0 -156 -71 -279t-192.5 -189.5t-271.5 -66.5t-270.5 66.5t-190 189.5t-69.5 279zM172 500q0 -128 55.5 -240t154.5 -180t218 -68t219 68t156.5 180t56.5 240 q0 111 -34 205.5t-92.5 159t-137.5 100.5t-168 36q-179 0 -303.5 -139.5t-124.5 -361.5zM586 1106l186 283q25 43 66 43q25 0 41 -15t16 -39q0 -35 -39 -69l-215 -203q-6 -4 -12 -4h-41z" />
<glyph unicode="&#xf4;" horiz-adv-x="1204" d="M70 498q0 149 67.5 275t190.5 202t274 76q113 0 213 -44.5t169.5 -119.5t110 -176.5t40.5 -212.5q0 -156 -71 -279t-192.5 -189.5t-271.5 -66.5t-270.5 66.5t-190 189.5t-69.5 279zM172 500q0 -128 55.5 -240t154.5 -180t218 -68t219 68t156.5 180t56.5 240 q0 111 -34 205.5t-92.5 159t-137.5 100.5t-168 36q-179 0 -303.5 -139.5t-124.5 -361.5zM313 1139l228 258q4 4 8 4h117q4 0 8 -4l227 -258q2 -4 -2 -4h-39q-4 0 -8 4l-244 184q-3 3 -6 0l-240 -184q-4 -4 -8 -4h-39z" />
<glyph unicode="&#xf5;" horiz-adv-x="1204" d="M70 498q0 149 67.5 275t190.5 202t274 76q113 0 213 -44.5t169.5 -119.5t110 -176.5t40.5 -212.5q0 -156 -71 -279t-192.5 -189.5t-271.5 -66.5t-270.5 66.5t-190 189.5t-69.5 279zM172 500q0 -128 55.5 -240t154.5 -180t218 -68t219 68t156.5 180t56.5 240 q0 111 -34 205.5t-92.5 159t-137.5 100.5t-168 36q-179 0 -303.5 -139.5t-124.5 -361.5zM322 1186q19 90 62 134t116 44q41 0 81.5 -18.5t67 -40t61 -40t66.5 -18.5q71 0 105 105q2 4 6 4h31l2 -4q-37 -181 -181 -181q-41 0 -83 18.5t-70 41t-60.5 41t-56.5 18.5 q-42 0 -69.5 -30.5t-37.5 -73.5q-2 -4 -6 -4h-32z" />
<glyph unicode="&#xf6;" horiz-adv-x="1204" d="M70 498q0 149 67.5 275t190.5 202t274 76q113 0 213 -44.5t169.5 -119.5t110 -176.5t40.5 -212.5q0 -156 -71 -279t-192.5 -189.5t-271.5 -66.5t-270.5 66.5t-190 189.5t-69.5 279zM172 500q0 -128 55.5 -240t154.5 -180t218 -68t219 68t156.5 180t56.5 240 q0 111 -34 205.5t-92.5 159t-137.5 100.5t-168 36q-179 0 -303.5 -139.5t-124.5 -361.5zM354 1268q0 30 26 56t56 26q32 0 57 -26t25 -56q0 -31 -25 -56.5t-57 -25.5t-57 25.5t-25 56.5zM696 1268q0 30 25 56t57 26q30 0 56 -26t26 -56q0 -31 -25.5 -56.5t-56.5 -25.5 q-33 0 -57.5 25.5t-24.5 56.5z" />
<glyph unicode="&#xf7;" horiz-adv-x="897" d="M51 489v48q0 4 6 4h721q6 0 6 -4v-48q0 -4 -6 -4h-721q-6 0 -6 4zM328 246q0 35 26.5 61.5t63.5 26.5q35 0 61.5 -26.5t26.5 -61.5q0 -37 -26.5 -63.5t-61.5 -26.5q-37 0 -63.5 26.5t-26.5 63.5zM328 786q0 35 26.5 61.5t63.5 26.5q35 0 61.5 -26.5t26.5 -61.5 q0 -37 -26.5 -63.5t-61.5 -26.5q-37 0 -63.5 26.5t-26.5 63.5z" />
<glyph unicode="&#xf8;" horiz-adv-x="1204" d="M70 498q0 149 67.5 275t190.5 202t274 76q182 0 320 -107q2 -2 4 0l82 100q7 7 8 7h59q9 0 4 -7l-110 -135q-4 -4 0 -8q79 -77 122.5 -182t43.5 -221q0 -156 -71 -279t-192.5 -189.5t-271.5 -66.5q-177 0 -317 94q-5 5 -9 0l-71 -88q-6 -6 -10 -6h-60q-8 0 -2 6l102 125 q2 4 -2 8q-161 148 -161 396zM172 500q0 -98 30 -189t85 -143q3 -3 6 0l584 717q4 4 0 8q-117 108 -277 108q-179 0 -303.5 -139.5t-124.5 -361.5zM330 121q119 -109 270 -109q119 0 219 68t156.5 180t56.5 240q0 206 -110 344q-4 4 -9 0l-583 -719q-2 -2 0 -4z" />
<glyph unicode="&#xf9;" horiz-adv-x="1054" d="M45 977l66 -35q4 -2 4 -8v-627q0 -155 96 -249.5t262 -94.5q235 0 350 180q3 3 6 0l152 -141q9 -6 6 4l-53 174q-16 57 -16 127v740q0 6 -7 4l-151 -66q-10 -3 0 -8l65 -35q4 -2 4 -8v-569q0 -75 -19 -136t-51 -101t-76 -66.5t-90.5 -38t-96.5 -11.5q-130 0 -211.5 85 t-81.5 231v719q0 6 -6 4l-152 -66q-10 -3 0 -8zM268 1378q0 24 16.5 39t41.5 15q40 0 65 -43l187 -283q3 -4 -3 -4h-40q-7 0 -13 4l-215 203q-39 34 -39 69z" />
<glyph unicode="&#xfa;" horiz-adv-x="1054" d="M45 977l66 -35q4 -2 4 -8v-627q0 -155 96 -249.5t262 -94.5q235 0 350 180q3 3 6 0l152 -141q9 -6 6 4l-53 174q-16 57 -16 127v740q0 6 -7 4l-151 -66q-10 -3 0 -8l65 -35q4 -2 4 -8v-569q0 -75 -19 -136t-51 -101t-76 -66.5t-90.5 -38t-96.5 -11.5q-130 0 -211.5 85 t-81.5 231v719q0 6 -6 4l-152 -66q-10 -3 0 -8zM436 1108l187 283q25 43 65 43q25 0 41 -15t16 -39q0 -36 -38 -69l-215 -203q-6 -4 -13 -4h-41z" />
<glyph unicode="&#xfb;" horiz-adv-x="1054" d="M45 977q-10 5 0 8l152 66q6 2 6 -4v-719q0 -146 81.5 -231t211.5 -85q50 0 96.5 11.5t90.5 38t76 66.5t51 101t19 136v569q0 6 -4 8l-65 35q-10 5 0 8l151 66q7 2 7 -4v-740q0 -70 16 -127l53 -174q3 -10 -6 -4l-152 141q-3 3 -6 0q-115 -180 -350 -180q-166 0 -262 94.5 t-96 249.5v627q0 6 -4 8zM221 1139l228 258q4 4 8 4h116q5 0 9 -4l227 -258q2 -4 -2 -4h-39q-4 0 -8 4l-244 184q-3 3 -6 0l-240 -184q-4 -4 -8 -4h-39z" />
<glyph unicode="&#xfc;" horiz-adv-x="1054" d="M45 977l66 -35q4 -2 4 -8v-627q0 -155 96 -249.5t262 -94.5q235 0 350 180q3 3 6 0l152 -141q9 -6 6 4l-53 174q-16 57 -16 127v740q0 6 -7 4l-151 -66q-10 -3 0 -8l65 -35q4 -2 4 -8v-569q0 -75 -19 -136t-51 -101t-76 -66.5t-90.5 -38t-96.5 -11.5q-130 0 -211.5 85 t-81.5 231v719q0 6 -6 4l-152 -66q-10 -3 0 -8zM287 1268q0 30 26 56t56 26q32 0 57 -26t25 -56q0 -31 -25 -56.5t-57 -25.5t-57 25.5t-25 56.5zM629 1268q0 30 25 56t57 26q30 0 56 -26t26 -56q0 -31 -25.5 -56.5t-56.5 -25.5q-33 0 -57.5 25.5t-24.5 56.5z" />
<glyph unicode="&#xfd;" horiz-adv-x="948" d="M4 1008q-2 4 2 6h244q4 -1 2 -6l-74 -97v-6l279 -618q35 -78 39 -101q0 -8 4 0l284 699q2 6 0 8l-71 115q-2 4 2 6h239q4 -1 2 -6q-90 -78 -141 -199l-459 -1104q-41 -99 -83 -136.5t-115 -33.5q-95 4 -133 72q-3 5 0 8l139 170q6 3 6 -2v-129q0 -53 49 -53q38 0 60 53 l163 391q17 40 -14 109l-309 684q-7 16 -14.5 30t-16 28t-14 23t-17 23.5t-16 20t-19 23t-18.5 22.5zM467 1079l186 283q25 43 66 43q25 0 41 -14.5t16 -38.5q0 -36 -39 -70l-215 -203q-6 -4 -12 -4h-41z" />
<glyph unicode="&#xfe;" horiz-adv-x="1157" d="M59 -395l109 67q4 2 4 9v1636q0 6 -4 8l-109 68q-10 5 0 8l197 84q6 2 6 -4v-682q0 -8 4 0q17 41 48 82.5t75 81t105.5 64t128.5 24.5q221 0 338.5 -150t117.5 -401q0 -235 -130 -386t-331 -151q-119 0 -211.5 65.5t-140.5 172.5q-4 8 -4 0v-684q0 -6 -6 -4l-197 84 q-10 3 0 8zM260 500q0 -236 101 -362t251 -126q166 0 265.5 136t99.5 352q0 122 -30 219.5t-81.5 158t-116 92t-137.5 31.5q-66 0 -128 -32.5t-112.5 -93t-81 -158t-30.5 -217.5z" />
<glyph unicode="&#xff;" horiz-adv-x="980" d="M37 1008q-2 4 2 6h244q4 -1 2 -6l-74 -97v-6l278 -618q35 -78 39 -101q0 -8 4 0l285 699q2 6 0 8l-72 115q-2 2 -1 4t4 2h239q4 -1 2 -6q-90 -78 -141 -199l-459 -1104q-41 -99 -83.5 -136.5t-115.5 -33.5q-95 4 -133 72q-3 5 0 8l140 170q6 3 6 -2v-129q0 -53 49 -53 q37 0 59 53l164 391q17 40 -14 109l-309 684q-7 16 -14.5 30t-16 28t-14 23t-17 23.5t-16 20t-19 23t-18.5 22.5zM279 1268q0 30 25.5 56t55.5 26q32 0 57 -26t25 -56q0 -31 -25 -56.5t-57 -25.5t-56.5 25.5t-24.5 56.5zM621 1268q0 30 24.5 56t56.5 26q30 0 56 -26t26 -56 q0 -31 -25.5 -56.5t-56.5 -25.5q-33 0 -57 25t-24 57z" />
<glyph unicode="&#x131;" horiz-adv-x="540" d="M129 961q-10 5 0 8l195 82q6 2 6 -4v-893q0 -10 6 -19l92 -127q8 -8 -2 -8h-281q-10 0 -2 8l93 127q6 9 6 19v731q0 6 -4 8z" />
<glyph unicode="&#x152;" horiz-adv-x="2447" d="M113 692q0 205 90 373.5t252 266.5t362 98t351 -96.5t239 -270.5q4 -8 4 0v176q0 10 -6 16l-90 129q-2 3 -0.5 6t4.5 3h786h18.5h18.5h16t16 1t15 2t17 2.5t17 3.5t20 5t21.5 7t25.5 9q6 3 6 -2v-354q0 -3 -1.5 -4t-3.5 0t-3 4l-109 209q-17 37 -36.5 49t-59.5 12h-563 q-15 0 -15 -14v-539q0 -24 27 -24h397q37 0 54.5 9t44.5 38l75 98q3 4 5.5 2.5t2.5 -4.5v-358q0 -12 -8 -4l-82 116q-26 32 -40 40t-52 8h-397q-27 0 -27 -25v-610q0 -15 15 -15h440q78 0 123 17.5t86 56.5l207 203q4 4 7 2.5t1 -6.5l-113 -322q-2 -6 -8 -6h-946q-10 0 -2 8 l90 131q6 9 6 17v151q0 12 -6 0q-206 -344 -588 -344q-199 0 -359.5 91.5t-252.5 258.5t-92 379zM217 692q0 -191 77.5 -345.5t215 -242.5t307.5 -88q173 0 311.5 88t215 242.5t73.5 345.5q-2 140 -49 266.5t-125.5 218t-189.5 145.5t-236 54q-170 0 -308.5 -94t-215 -250 t-76.5 -340z" />
<glyph unicode="&#x153;" horiz-adv-x="2035" d="M70 498q0 149 67.5 275t190.5 202t274 76q164 0 293.5 -88.5t181.5 -231.5q3 -9 6 0q52 144 171 232t274 88q208 0 326 -133t120 -336q0 -7 -4 -7h-827q-6 0 -6 -8q-11 -150 39 -278.5t145 -202.5t211 -74q123 0 218 66t128 155q4 9 8 5l53 -41q3 -3 -2 -9 q-152 -225 -409 -225q-148 0 -261.5 77.5t-181.5 213.5q-3 7 -8 0q-76 -137 -197.5 -214t-279.5 -77q-150 0 -270.5 66.5t-190 189.5t-69.5 279zM172 500q0 -128 55.5 -240t154.5 -180t218 -68t219 68t156.5 180t56.5 240q0 111 -34 205.5t-92.5 159t-137.5 100.5t-168 36 q-179 0 -303.5 -139.5t-124.5 -361.5zM1145 629q0 -4 4 -4h729q8 0 8 10q0 159 -106 262.5t-252 103.5q-140 0 -250 -103.5t-133 -268.5z" />
<glyph unicode="&#x160;" horiz-adv-x="1071" d="M94 6v477q0 3 2 4.5t4.5 0.5t3.5 -5q31 -103 74 -185.5t101 -147t134.5 -99.5t166.5 -35q146 0 237.5 87.5t91.5 238.5q0 111 -58 188.5t-206 137.5l-252 100q-127 51 -202 138t-74 210q1 140 111.5 227t275.5 87q183 0 317 -119q5 -5 10 0l95 82q3 5 8.5 4t5.5 -8v-420 q0 -4 -3.5 -7t-6.5 5q-136 409 -426 409q-72 0 -134.5 -25.5t-106.5 -84.5t-46 -144q-2 -89 48.5 -159t176.5 -121l242 -99q94 -38 159 -82.5t100 -95t50 -102t15 -113.5q0 -67 -27 -133.5t-78 -124t-136 -93.5t-189 -36q-188 0 -361 141q-6 4 -10 0l-107 -100q-6 -6 -6 2z M217 1765q-2 4 2 4h39q4 0 8 -4l240 -184q3 -3 6 0l244 184q4 4 8 4h39l2 -4l-227 -258q-4 -4 -9 -4h-116q-5 0 -9 4z" />
<glyph unicode="&#x161;" horiz-adv-x="919" d="M172 1421q-2 4 2 4h39q4 0 8 -4l240 -184q3 -3 6 0l244 184q4 4 8 4h39l2 -4l-228 -258q-4 -4 -8 -4h-116q-5 0 -9 4zM193 307q0 6 4 8l200 56q5 2 5 -1q0 -2 -1 -3l-75 -134q-2 -2 -2 -8q19 -84 99.5 -148.5t194.5 -64.5q127 0 201 69.5t76 172.5q2 96 -48.5 152 t-168.5 90l-199 55q-96 27 -158.5 92.5t-62.5 161.5q0 101 98.5 173.5t235.5 72.5q138 0 232 -63.5t124 -186.5q0 -5 -6 -8l-172 -48q-3 -1 -4.5 0.5t0.5 4.5l57 118q3 6 0 11q-27 53 -86.5 87.5t-142.5 34.5q-35 0 -68.5 -6t-66.5 -20.5t-58 -36t-40 -53.5t-15 -72 q0 -145 197 -197l184 -49q131 -35 193.5 -113.5t62.5 -181.5q0 -130 -105.5 -219.5t-279.5 -89.5q-151 0 -260 84.5t-145 259.5z" />
<glyph unicode="&#x178;" horiz-adv-x="1177" d="M4 1386q-3 3 0 6q0 1 2 1h316q5 -1 2 -7l-93 -120v-6l340 -574q34 -61 35 -63q2 -4 4 -2l377 618q3 7 -2 12l-100 135q-3 3 0 6q0 1 2 1h299q5 -1 2 -7q-18 -19 -47 -47t-49.5 -51.5t-44.5 -58.5l-365 -600q-31 -46 -31 -109v-366q0 -8 6 -17l80 -129q8 -8 -2 -8h-260 q-10 0 -2 8l80 129q6 9 6 17v309q0 74 -41 145l-340 568q-33 55 -83.5 118t-90.5 92zM362 1634q0 30 26 56t56 26q32 0 57 -26t25 -56q0 -31 -25 -56.5t-57 -25.5t-57 25.5t-25 56.5zM705 1634q0 30 24.5 56t56.5 26q30 0 56 -26t26 -56q0 -31 -25.5 -56.5t-56.5 -25.5 q-33 0 -57 25t-24 57z" />
<glyph unicode="&#x17d;" horiz-adv-x="1183" d="M41 8q36 23 79 70.5t75 103.5l708 1125q16 30 -18 30h-586q-41 0 -66.5 -19t-48.5 -67l-86 -176q-3 -6 -6.5 -6t-3.5 6v346q0 5 6 2l28.5 -9.5t28 -7.5t24.5 -5.5t25 -3.5t21.5 -2t22 -1.5t19 -0.5h19.5h17h770q6 0 2 -4q-61 -61 -113 -152l-737 -1159q-6 -9 -1 -16 t16 -7h512q49 0 86 37l215 207q4 4 7 2.5t1 -6.5l-99 -289q-2 -6 -8 -6h-907q-10 0 -2 8zM266 1761q-2 4 2 4h39q4 0 8 -4l240 -184q3 -3 6 0l244 184q4 4 8 4h39l2 -4l-227 -258q-4 -4 -9 -4h-116q-4 0 -8 4z" />
<glyph unicode="&#x17e;" horiz-adv-x="946" d="M57 8q42 27 92 75.5t89 109.5l475 745q14 27 -19 27h-389q-58 0 -83.5 -13.5t-51.5 -60.5l-76 -139q-3 -6 -6.5 -6t-3.5 6v295q0 5 6 2q95 -35 229 -35h553q4 -1 2 -6q-3 -4 -28.5 -30.5t-47.5 -54t-46 -65.5l-512 -795q-8 -14 6 -14h334q109 0 170 68l131 151q4 4 7 2.5 t1 -6.5l-80 -258q-2 -6 -8 -6h-742q-10 0 -2 8zM182 1368q-2 4 2 4h39q4 0 8 -4l240 -184q3 -3 6 0l244 184q4 4 8 4h39l2 -4l-227 -258q-4 -4 -8 -4h-117q-4 0 -8 4z" />
<glyph unicode="&#x192;" horiz-adv-x="831" d="M-106 -254l124 172q5 5 7 -2l22 -109q8 -30 39 -30q48 0 96.5 80t79.5 256l144 815q1 10 -5.5 16t-17.5 6h-238q-6 0 -4 4l9 56q2 4 8 4h260q4 0 4 4q108 467 340 467h172q5 0 2 -6l-117 -179q-2 -2 -4 3l-59 104q-17 27 -37 27q-45 0 -104 -104.5t-85 -254.5l-10 -57 q0 -4 4 -4h264q5 0 5.5 -0.5t-0.5 -3.5l-9 -56q-2 -4 -8 -4h-241q-11 0 -20.5 -6t-10.5 -16l-133 -758q-36 -206 -130 -336.5t-221 -130.5q-41 0 -76.5 10.5t-49.5 24.5q-3 3 0 8z" />
<glyph unicode="&#x2c6;" horiz-adv-x="878" d="M145 1055l228 258q4 4 8 4h117q4 0 8 -4l227 -258q2 -4 -2 -4h-39q-4 0 -8 4l-244 184q-3 3 -6 0l-239 -184q-4 -4 -9 -4h-39z" />
<glyph unicode="&#x2c7;" horiz-adv-x="878" d="M145 1313q-2 4 2 4h39q5 0 9 -4l239 -185q3 -3 6 0l244 185q4 4 8 4h39l2 -4l-227 -258q-4 -4 -8 -4h-117q-4 0 -8 4z" />
<glyph unicode="&#x2d8;" horiz-adv-x="835" d="M166 1323q0 4 4 4h35q4 0 4 -4q36 -186 209 -186q91 0 141 47t68 139q0 4 4 4h35l4 -4q6 -115 -64 -189.5t-188 -74.5t-188 74.5t-64 189.5z" />
<glyph unicode="&#x2d9;" horiz-adv-x="649" d="M154 1225q0 69 51.5 120.5t120.5 51.5q68 0 119 -51.5t51 -120.5q0 -67 -51 -118.5t-119 -51.5q-69 0 -120.5 51t-51.5 119z" />
<glyph unicode="&#x2da;" horiz-adv-x="657" d="M162 1225q0 69 49.5 118.5t118.5 49.5t117.5 -49.5t48.5 -118.5t-48.5 -117.5t-117.5 -48.5t-118.5 48.5t-49.5 117.5zM219 1225q0 -51 33 -85t78 -34q44 0 76 34t32 85q0 53 -32 87t-76 34q-46 0 -78.5 -34t-32.5 -87z" />
<glyph unicode="&#x2db;" horiz-adv-x="1413" d="M514 -276q0 49 43 102t100.5 91.5t120.5 66.5h60q-236 -145 -236 -260q0 -70 94 -70q73 0 150 37q6 3 6 -2v-35q0 -2 -4 -6q-28 -18 -72 -33.5t-84 -15.5q-178 0 -178 125z" />
<glyph unicode="&#x2dc;" horiz-adv-x="909" d="M156 1081q19 90 62 134.5t116 44.5q41 0 81.5 -18.5t67 -40t61 -40t66.5 -18.5q71 0 105 104q2 4 6 4h31l2 -4q-37 -180 -181 -180q-41 0 -83 18.5t-70 41t-60.5 41t-56.5 18.5q-42 0 -69 -30.5t-37 -74.5q-2 -4 -7 -4h-32z" />
<glyph unicode="&#x2dd;" horiz-adv-x="917" d="M164 1059l186 282q25 43 66 43q25 0 41 -14.5t16 -38.5q0 -35 -39 -69l-215 -203q-6 -4 -12 -4h-41zM451 1059l186 282q25 43 65 43q25 0 41.5 -14.5t16.5 -38.5q0 -35 -39 -69l-215 -203q-6 -4 -12 -4h-41z" />
<glyph unicode="&#x3c0;" horiz-adv-x="1271" d="M100 1006q-8 8 2 8h1067q10 0 2 -8l-110 -132q-6 -6 -6 -16v-704q0 -8 6 -17l90 -129q8 -8 -2 -8h-281q-10 0 -2 8l90 129q7 11 7 17v747q0 29 -17 46.5t-45 17.5h-530q-28 0 -45 -17.5t-17 -46.5v-747q0 -8 6 -17l91 -129q8 -8 -3 -8h-280q-10 0 -2 8l90 129q6 9 6 17 v704q0 10 -6 16z" />
<glyph unicode="&#x2000;" horiz-adv-x="924" />
<glyph unicode="&#x2001;" horiz-adv-x="1849" />
<glyph unicode="&#x2002;" horiz-adv-x="924" />
<glyph unicode="&#x2003;" horiz-adv-x="1849" />
<glyph unicode="&#x2004;" horiz-adv-x="616" />
<glyph unicode="&#x2005;" horiz-adv-x="462" />
<glyph unicode="&#x2006;" horiz-adv-x="308" />
<glyph unicode="&#x2007;" horiz-adv-x="308" />
<glyph unicode="&#x2008;" horiz-adv-x="231" />
<glyph unicode="&#x2009;" horiz-adv-x="369" />
<glyph unicode="&#x200a;" horiz-adv-x="102" />
<glyph unicode="&#x2010;" horiz-adv-x="559" d="M51 496v47q0 4 6 4h445q6 0 6 -4v-47q0 -4 -6 -4h-445q-6 0 -6 4z" />
<glyph unicode="&#x2011;" horiz-adv-x="559" d="M51 496v47q0 4 6 4h445q6 0 6 -4v-47q0 -4 -6 -4h-445q-6 0 -6 4z" />
<glyph unicode="&#x2012;" horiz-adv-x="559" d="M51 496v47q0 4 6 4h445q6 0 6 -4v-47q0 -4 -6 -4h-445q-6 0 -6 4z" />
<glyph unicode="&#x2013;" horiz-adv-x="999" d="M51 489v48q0 4 6 4h885q6 0 6 -4v-48q0 -4 -6 -4h-885q-6 0 -6 4z" />
<glyph unicode="&#x2014;" horiz-adv-x="1243" d="M51 489v48q0 4 6 4h1129q6 0 6 -4v-48q0 -4 -6 -4h-1129q-6 0 -6 4z" />
<glyph unicode="&#x2018;" horiz-adv-x="462" d="M154 1151q0 249 211 377q6 3 8.5 -2t-0.5 -8q-123 -117 -123 -267q0 -4 6 -4q43 0 72.5 -30t29.5 -68q0 -43 -29 -74t-73 -31q-45 0 -73.5 31.5t-28.5 75.5z" />
<glyph unicode="&#x2019;" horiz-adv-x="462" d="M89.5 948q-2.5 5 0.5 8q123 117 123 267q0 4 -6 4q-43 0 -73 30t-30 68q0 43 29 74t74 31t73.5 -31.5t28.5 -75.5q0 -249 -211 -377q-6 -3 -8.5 2z" />
<glyph unicode="&#x201a;" horiz-adv-x="524" d="M108.5 -315q-2.5 5 0.5 8q122 116 122 266q0 4 -6 4q-43 0 -72.5 30t-29.5 68q0 43 29 74t73 31q45 0 74 -31.5t29 -75.5q0 -248 -211 -376q-6 -3 -8.5 2z" />
<glyph unicode="&#x201c;" horiz-adv-x="720" d="M154 1151q0 249 211 377q6 3 8.5 -2t-0.5 -8q-123 -117 -123 -267q0 -4 6 -4q43 0 72.5 -30t29.5 -68q0 -43 -29 -74t-73 -31q-45 0 -73.5 31.5t-28.5 75.5zM412 1151q0 249 211 377q6 3 8.5 -2t-0.5 -8q-123 -117 -123 -267q0 -4 6 -4q43 0 72.5 -30t29.5 -68 q0 -43 -29 -74t-73 -31q-45 0 -73.5 31.5t-28.5 75.5z" />
<glyph unicode="&#x201d;" horiz-adv-x="720" d="M89.5 948q-2.5 5 0.5 8q123 117 123 267q0 4 -6 4q-43 0 -73 30t-30 68q0 43 29 74t74 31t73.5 -31.5t28.5 -75.5q0 -249 -211 -377q-6 -3 -8.5 2zM347.5 948q-2.5 5 0.5 8q123 117 123 267q0 4 -6 4q-43 0 -73 30t-30 68q0 43 29 74t74 31t73.5 -31.5t28.5 -75.5 q0 -249 -211 -377q-6 -3 -8.5 2z" />
<glyph unicode="&#x201e;" horiz-adv-x="880" d="M100 -307q123 117 123 266q0 4 -6 4q-43 0 -72.5 30t-29.5 68q0 43 29 74t73 31q45 0 73.5 -31.5t28.5 -75.5q0 -249 -210 -376q-6 -3 -9 2t0 8zM358 -307q123 117 123 266q0 4 -6 4q-43 0 -72.5 30t-29.5 68q0 43 29 74t73 31q45 0 74 -31.5t29 -75.5q0 -248 -211 -376 q-6 -3 -9 2t0 8z" />
<glyph unicode="&#x2020;" horiz-adv-x="874" d="M10 950v56q0 4 6 4h379q4 0 4 4v409q0 7 7 7h63q6 0 6 -7v-409q0 -4 4 -4h379q6 0 6 -4v-56q0 -4 -6 -4h-379q-4 0 -4 -4v-1221q0 -6 -6 -6h-63q-7 0 -7 6v1221q0 4 -4 4h-379q-6 0 -6 4z" />
<glyph unicode="&#x2021;" horiz-adv-x="874" d="M10 139v56q0 4 6 4h379q4 0 4 4v739q0 4 -4 4h-379q-6 0 -6 4v56q0 4 6 4h379q4 0 4 4v413q1 0 3 1.5t4 1.5h65l4 -5v-411q0 -4 4 -4h379q6 0 6 -4v-56q0 -4 -6 -4h-379q-4 0 -4 -4v-739q0 -4 4 -4h379q6 0 6 -4v-56q0 -4 -6 -4h-379q-4 0 -4 -4v-412q-2 -4 -6 -4h-63 q-2 0 -4 1t-3 1v414q0 4 -4 4h-379q-6 0 -6 4z" />
<glyph unicode="&#x2022;" horiz-adv-x="948" d="M250 571q0 89 67 156.5t158 67.5q89 0 156 -67.5t67 -156.5q0 -91 -67 -158t-156 -67q-91 0 -158 67t-67 158z" />
<glyph unicode="&#x2026;" horiz-adv-x="1622" d="M197 59q0 38 30 68.5t68 30.5t68 -30.5t30 -68.5q0 -37 -30 -66.5t-68 -29.5t-68 29.5t-30 66.5zM668 59q0 38 30 68.5t68 30.5t68 -30.5t30 -68.5q0 -37 -30 -66.5t-68 -29.5t-68 29.5t-30 66.5zM1139 59q0 38 30 68.5t68 30.5t68 -30.5t30 -68.5q0 -37 -30 -66.5 t-68 -29.5t-68 29.5t-30 66.5z" />
<glyph unicode="&#x202f;" horiz-adv-x="369" />
<glyph unicode="&#x2030;" horiz-adv-x="2488" d="M66 1053q0 156 103 266.5t255 110.5t255 -110.5t103 -266.5q0 -163 -107 -269t-251 -106q-94 0 -175 46t-132 133t-51 196zM158 1053q0 -129 75 -224.5t191 -95.5q115 0 190.5 95.5t75.5 224.5q0 144 -80 232.5t-186 88.5t-186 -88.5t-80 -232.5zM332 6q-4 -6 4 -6h70 q8 0 8 6q115 176 289.5 430.5t381.5 553t275 396.5q5 7 -4 7h-70q-8 0 -8 -7q-41 -61 -946 -1380zM897 338q0 156 103 266.5t255 110.5t255.5 -110.5t103.5 -266.5q0 -163 -107.5 -269t-251.5 -106q-94 0 -175 46t-132 133t-51 196zM989 338q0 -129 75 -224.5t191 -95.5 q115 0 191 95.5t76 224.5q0 144 -80.5 232.5t-186.5 88.5t-186 -88.5t-80 -232.5zM1706 340q0 156 103 266.5t255 110.5t255.5 -110.5t103.5 -266.5q0 -163 -107.5 -269t-251.5 -106q-94 0 -175 46t-132 133t-51 196zM1798 340q0 -129 75 -224.5t191 -95.5q115 0 191 95.5 t76 224.5q0 144 -80.5 233t-186.5 89t-186 -89t-80 -233z" />
<glyph unicode="&#x2039;" horiz-adv-x="530" d="M45 465v37q0 2 4 6l365 221q4 -3 4 -4v-63q0 -7 -4 -9l-285 -170q-3 -3 0 -6l285 -172q4 -2 4 -8v-61q0 -4 -1 -4.5t-3 -0.5l-365 228q-4 4 -4 6z" />
<glyph unicode="&#x203a;" horiz-adv-x="530" d="M113 236v61q0 6 4 8l284 172q3 3 0 6l-284 170q-4 2 -4 9v63q0 3 0.5 3.5t2.5 0.5h1l364 -221q4 -4 4 -6v-37q0 -2 -4 -6l-364 -228q-4 3 -4 5z" />
<glyph unicode="&#x2044;" horiz-adv-x="968" d="M8 6q624 975 875 1380q0 7 8 7h65q10 0 5 -7q-365 -571 -875 -1380q0 -6 -8 -6h-66q-8 0 -4 6z" />
<glyph unicode="&#x205f;" horiz-adv-x="462" />
<glyph unicode="&#x20ac;" horiz-adv-x="1423" d="M-29 500v47q0 4 6 4h144q2 0 2 6q-8 70 -8 131q0 47 8 129q0 4 -2 4h-144q-6 0 -6 4v47q0 5 6 5h150q4 0 4 4q32 161 113 283t213 194t299 72q240 0 407 -187q7 -7 13 -2l92 74q3 3 5.5 2t2.5 -4v-432q0 -3 -2 -5t-4.5 -1t-3.5 6q-114 495 -510 495q-138 0 -248 -66 t-177 -175.5t-95 -253.5q0 -4 2 -4h460q7 0 7 -5v-47q0 -4 -7 -4h-467q-4 0 -4 -4q-8 -55 -8 -129q0 -49 8 -131q0 -6 4 -6h467q7 0 7 -4v-47q0 -4 -7 -4h-456q-4 0 -4 -7q44 -218 177 -345.5t341 -127.5q397 0 510 496q1 5 3.5 6t4.5 -1t2 -5v-432q0 -3 -2.5 -4t-5.5 2 l-92 74q-6 6 -13 -2q-88 -93 -180.5 -140t-226.5 -47q-249 0 -413 141.5t-212 387.5q0 4 -4 4h-150q-6 0 -6 4z" />
<glyph unicode="&#x2122;" horiz-adv-x="1669" d="M47 1157l37 250q0 2 2 2q45 -16 117 -16h340q71 0 116 16q3 0 3 -2l36 -250q0 -3 -1 -4t-3 2l-112 154q0 1 -7 11t-11 14t-12 11t-16.5 10t-19.5 3h-67q-15 0 -24 -10t-9 -25v-602q0 -8 2 -10l61 -80q4 -4 0 -4h-213q-4 0 0 4l62 80q2 2 2 10v602q0 15 -9 25t-24 10h-68 q-9 0 -17 -3t-14 -6t-12.5 -9.5t-9 -10t-8 -11.5t-6.5 -9l-111 -154l-2 -3q-2 1 -2 5zM737 627h168q6 0 2 4l-51 80q-4 4 -4 10v520l2 2l211 -493q34 -87 29 -119q0 -4 4 -4h59q1 0 3.5 2.5t2.5 3.5l258 622l4 -534q0 -8 -2 -10l-61 -80q-4 -4 2 -4h211q4 0 0 4l-59 80 q-5 3 -5 10v569q0 32 9 45l41 54q2 4 0 4h-150q-4 0 -4 -4q0 -28 -25 -93l-225 -546q-2 -4 -2 0q-5 19 -16 47l-207 485q-4 10 -11 29t-11 30.5t-8 25t-5 22.5q0 4 -2 4h-152q-1 0 -1 -2t1 -2l56 -72l2 -8v-588q0 -8 -2 -10l-62 -80q-4 -4 0 -4z" />
<glyph unicode="&#x2202;" horiz-adv-x="1173" d="M90 244.5q-38 130.5 4 308.5q21 82 66.5 157.5t113.5 138t166.5 96t210.5 24.5q245 -20 334 -287h4q12 165 -25.5 298t-114 219t-183 131.5t-234.5 45.5q-4 0 -6 4v45q2 5 6 5q122 0 226.5 -32.5t181 -91t133.5 -141t83.5 -182.5t32 -214.5t-21.5 -238.5 q-25 -126 -74 -228.5t-122 -179.5t-174.5 -118.5t-223.5 -40.5q-141 2 -243 76.5t-140 205zM181.5 326q7.5 -79 33.5 -137t69 -96.5t90 -58t97 -22.5q54 -3 108 8.5t108 40.5t99.5 73t82.5 110t57 147q27 101 16 194.5t-47.5 166t-102.5 117.5t-149 49q-81 4 -157 -30 t-133 -94t-98 -134.5t-58 -153.5q-23 -101 -15.5 -180z" />
<glyph unicode="&#x2206;" horiz-adv-x="1251" d="M90 4l531 1045q0 1 2 1t2 -1l536 -1045q0 -4 -4 -4h-1063q-6 0 -4 4zM195 68q-3 -5 4 -5h852q4 0 4 5l-430 831q0 1 -2 1t-2 -1z" />
<glyph unicode="&#x220f;" horiz-adv-x="1271" d="M121 -276l90 131q6 9 6 16v1513q0 9 6 9h828q4 0 4 -9v-1513q0 -7 6 -16l90 -131q6 -9 -2 -9h-281q-8 0 -2 9l90 131q7 10 7 16v1403q0 29 -17 46t-45 17h-530q-28 0 -45 -17t-17 -46v-1403q0 -7 6 -16l91 -131q6 -9 -3 -9h-280q-8 0 -2 9z" />
<glyph unicode="&#x2211;" horiz-adv-x="1024" d="M47 1386q-3 3 0 6q0 1 2 1h684q60 0 100.5 5.5t102.5 28.5q6 3 6 -2v-309q0 -6 -3.5 -6t-6.5 6l-109 180q-12 22 -30.5 31.5t-51.5 9.5h-473q-14 0 -21 -8.5t3 -21.5l467 -572q105 -128 172 -178q6 -3 0 -6q-59 -42 -170 -178l-467 -572q-10 -13 -3 -21.5t21 -8.5h471 q59 0 82 45l111 178q3 6 6.5 6t3.5 -6v-311q0 -5 -6 -2q-62 23 -102.5 28.5t-100.5 5.5h-684q-4 1 -2 6q95 82 150 150l469 561q65 79 108 113q3 3 0 6q-39 31 -108 115l-471 571q-55 67 -150 149z" />
<glyph unicode="&#x221a;" horiz-adv-x="823" d="M-8 -31l92 318q3 6 8 6h64q5 0 8 -6l129 -451l463 1587q0 7 8 7h53q6 0 4 -7l-497 -1702q-3 -6 -9 -6h-45q-5 0 -8 6l-137 478l-66 -230q0 -6 -8 -6h-55q-6 0 -4 6z" />
<glyph unicode="&#x221e;" horiz-adv-x="1685" d="M70 530q0 135 97 236.5t245 101.5q103 0 200.5 -55t169.5 -182q162 301 412 301q184 0 299 -113.5t115 -292.5q0 -93 -38 -170.5t-98.5 -125t-130 -73.5t-137.5 -26q-50 0 -89.5 5t-90 24t-92.5 52t-87.5 93t-84.5 144q-64 -122 -158 -187t-190 -65q-141 0 -241.5 95.5 t-100.5 237.5zM162 530q0 -128 71 -203t179 -75q96 0 179.5 72.5t137.5 193.5q-132 295 -317 295q-109 0 -179.5 -77.5t-70.5 -205.5zM813 567q171 -381 393 -381q124 0 217 100t93 240q0 159 -94 255t-228 96q-227 0 -381 -310z" />
<glyph unicode="&#x222b;" horiz-adv-x="671" d="M-10 -279l106 191q4 4 6 0l54 -92q27 -49 47 -49q39 0 63.5 98.5t24.5 255.5v893q0 86 6 151t22.5 127t44.5 101.5t75 63.5t110 24h133q5 0 2 -6l-106 -191q-5 -5 -7 0l-53 92q-14 26 -24.5 38t-22.5 12q-38 0 -63 -99t-25 -256v-893q0 -86 -6 -151t-22.5 -127 t-44.5 -101.5t-75 -63.5t-110 -24h-133q-5 0 -2 6z" />
<glyph unicode="&#x2248;" horiz-adv-x="1095" d="M63 289q86 176 238 176q59 0 132 -25.5t129 -56.5t117.5 -56.5t100.5 -25.5q78 0 121.5 38.5t77.5 109.5q2 4 6 2l43 -29l2 -6q-86 -176 -239 -176q-56 0 -126.5 25.5t-125.5 56t-118.5 56t-107.5 25.5q-127 0 -198 -147q-2 -4 -6 -2l-43 29zM63 616q87 177 238 177 q59 0 132 -25.5t129 -56.5t117.5 -56.5t100.5 -25.5q78 0 122 38.5t77 108.5q2 4 6 2l43 -28l2 -7q-86 -176 -239 -176q-56 0 -126.5 25.5t-125.5 56.5t-118.5 56.5t-107.5 25.5q-127 0 -198 -147q-2 -4 -6 -2l-43 28z" />
<glyph unicode="&#x2260;" horiz-adv-x="991" d="M113 328v53q0 6 6 6h301l78 250h-379q-6 0 -6 6v53q0 6 6 6h399l98 306q0 6 9 6h53q6 0 4 -6l-96 -306h286q7 0 7 -6v-53q0 -6 -7 -6h-307l-80 -250h387q7 0 7 -6v-53q0 -6 -7 -6h-407l-100 -316q0 -6 -9 -6h-53q-6 0 -4 6l100 316h-280q-6 0 -6 6z" />
<glyph unicode="&#x2264;" horiz-adv-x="1105" d="M92 571v45q0 5 4 7l965 428q4 -3 4 -4v-48q0 -6 -4 -8l-905 -395q-2 0 -2 -2t2 -2l905 -402q4 -2 4 -8v-47q-3 -4 -4 -4l-965 434q-4 2 -4 6zM129 4v47q0 4 6 4h924q6 0 6 -4v-47q0 -4 -6 -4h-924q-6 0 -6 4z" />
<glyph unicode="&#x2265;" horiz-adv-x="1105" d="M41 4v47q0 4 6 4h924q6 0 6 -4v-47q0 -4 -6 -4h-924q-6 0 -6 4zM41 135v47q0 6 4 8l905 402q2 0 2 2t-2 2l-905 395q-4 2 -4 8v48q0 3 0.5 3.5t2.5 0.5h1l965 -428q4 -2 4 -7v-45q0 -4 -4 -6l-965 -434q-4 3 -4 4z" />
<glyph unicode="&#x25ca;" horiz-adv-x="1036" d="M92 686q-5 10 0 21l424 708q0 1 2 1t2 -1l424 -708q5 -11 0 -21l-424 -711q0 -1 -2 -1t-2 1zM168 686l348 -594q0 -2 2 -2t2 2l348 594q5 8 0 19l-348 593q0 2 -2 2t-2 -2l-348 -593q-5 -11 0 -19z" />
<glyph unicode="&#x25fc;" horiz-adv-x="1013" d="M0 0v1014h1014v-1014h-1014z" />
<glyph unicode="&#xfb01;" horiz-adv-x="911" d="M29 969v41q0 4 6 4h115q4 0 4 4q0 206 93.5 336.5t254.5 130.5q64 0 126 -18t103 -50t41 -74q0 -32 -25 -56.5t-59 -24.5q-51 0 -78 49q-42 74 -78.5 98.5t-87.5 24.5q-23 0 -47.5 -8.5t-52.5 -32t-49.5 -59.5t-36 -97t-14.5 -139v-80q0 -4 4 -4h477q6 0 6 -6v-854 q0 -10 6 -19l92 -127q8 -8 -2 -8h-280q-10 0 -2 8l92 127q6 9 6 19v804q0 7 -6 7h-367q-11 0 -18.5 -6.5t-7.5 -16.5v-788q0 -9 6 -15l125 -131q8 -8 -2 -8h-305q-6 0 -2 8l84 129q4 8 4 17v788q0 10 -8 16.5t-19 6.5h-92q-6 0 -6 4z" />
<glyph unicode="&#xfb02;" horiz-adv-x="909" d="M29 969v41q0 4 6 4h115q4 0 4 4q0 77 10 143.5t35 127t62.5 103.5t95.5 68t132 25q90 0 166 -39q6 -3 9 0l61 39q6 4 6 -4v-1334q0 -4 2 -6q0 -2 4 -6l92 -127q0 -1 1 -2t1 -2v-2l-2 -2h-286l-2 2q0 2 4 6l92 127l4 6v2l2 4v809q0 7 -4 9h-369q-11 0 -18.5 -6.5 t-7.5 -16.5v-788q0 -9 6 -15l125 -131q8 -8 -2 -8h-305q-6 0 -2 8l84 129q4 8 4 17v788q0 10 -8 16.5t-19 6.5h-92q-6 0 -6 4zM244 1018q0 -4 4 -4h395v203q0 102 -50.5 159.5t-131.5 57.5q-217 0 -217 -336v-80z" />
</font>
</defs>
</svg>
