<?xml version="1.0" standalone="no"?>
<!DOCTYPE svg PUBLIC "-//W3C//DTD SVG 1.1//EN" "http://www.w3.org/Graphics/SVG/1.1/DTD/svg11.dtd" >
<svg xmlns="http://www.w3.org/2000/svg" xmlns:xlink="http://www.w3.org/1999/xlink" version="1.1">
<metadata></metadata>
<defs>
<font id="knedgeregular" horiz-adv-x="1398" >
<font-face units-per-em="2048" ascent="1536" descent="-512" />
<missing-glyph horiz-adv-x="692" />
<glyph unicode="&#xfb01;" horiz-adv-x="1044" d="M29 954v56q0 4 6 4h115q4 0 4 4q11 201 116.5 334t264.5 133q51 0 108 -12.5t112 -37t92 -68t40 -97.5q3 -49 -34 -85t-87 -36q-54 0 -86 37q-28 34 -54.5 81.5t-41 77t-41 52t-62.5 22.5q-79 0 -123.5 -92.5t-44.5 -251.5v-57q0 -4 4 -4h541q6 0 6 -4v-836q0 -9 6 -18 l93 -148q8 -8 -2 -8h-353q-10 0 -2 8l92 148q7 10 7 18v768q0 8 -7 8h-358q-11 0 -19 -6t-8 -16v-758q0 -8 6 -14l125 -148q8 -8 -2 -8h-387q-10 0 -2 8l97 148q4 6 4 14v758q0 10 -8 16t-19 6h-92q-6 0 -6 4z" />
<glyph unicode="&#xfb02;" horiz-adv-x="1044" d="M29 954v56q0 4 6 4h115q4 0 4 4q11 199 117 333t255 134q45 0 110 -10.5t116 -10.5q40 0 108 21q4 2 4 -4v-1307q0 -6 6 -18l93 -148q8 -8 -2 -8h-353q-10 0 -2 8l92 148q7 14 7 18v1051q0 93 -47 143.5t-126 50.5q-100 0 -159.5 -94t-59.5 -250v-57q0 -4 4 -4h287 q6 0 6 -4v-56q0 -4 -6 -4h-264q-11 0 -19 -6t-8 -16v-758q0 -8 6 -14l125 -148q8 -8 -2 -8h-387q-10 0 -2 8l97 148q4 6 4 14v758q0 10 -8 16t-19 6h-92q-6 0 -6 4z" />
<glyph unicode="gj" horiz-adv-x="1443" d="M43 -162q0 164 180 248q6 3 0 6q-58 29 -91.5 73.5t-33.5 90.5q0 60 29 109.5t84 68.5q3 1 3.5 4t-1.5 4q-55 41 -94 104.5t-39 147.5q0 80 35.5 148t94.5 113t135.5 70.5t158.5 25.5q50 0 118.5 -17t110.5 -43q3 -1 6 0q41 23 103 23h178q8 0 2 -6l-158 -129 q-5 -5 -2 -11q51 -81 51 -161q0 -109 -57 -191t-149 -123t-203 -41q-115 0 -211 39q-4 2 -10 2q-18 -2 -34.5 -29.5t-17.5 -60.5q-1 -49 31 -75.5t82 -26.5h305q70 0 132 -15t114 -46.5t82.5 -86.5t30.5 -127q0 -78 -25 -188q-16 -72 10.5 -108.5t75.5 -39.5q107 -6 107 166 v1100q0 6 -5 8l-108 68q-10 5 0 8l266 111q6 2 6 -4v-1098q0 -212 -68 -316t-196 -104q-71 0 -118.5 29.5t-88.5 76.5q-6 6 -14 0q-79 -59 -170 -82.5t-217 -23.5q-184 0 -302 87.5t-118 221.5zM193 -168q0 -100 87 -171t207 -71q95 0 166.5 19.5t111 49t63.5 70.5t31 75 t7 73q0 95 -62.5 142t-174.5 47h-250q-73 0 -129.5 -65.5t-56.5 -168.5zM242 694q0 -133 77 -207.5t185 -74.5q107 0 177.5 74.5t70.5 209.5q0 130 -72 211.5t-176 81.5q-107 0 -184.5 -80.5t-77.5 -214.5zM1124 1364q0 50 36 85.5t85 35.5t85 -35.5t36 -85.5t-36 -85.5 t-85 -35.5t-85 35.5t-36 85.5z" />
<glyph unicode="qj" horiz-adv-x="1933" d="M66 500q0 -249 125 -393t339 -144q103 0 194 51.5t150 147.5q3 6 6 3q1 -1 1 -3v-459q0 -9 -7 -18l-106 -148q-8 -8 2 -8h66q43 0 100 6t84 16q5 3 10 0q59 -22 121 -22q152 0 224.5 102.5t72.5 317.5v1098q0 6 -6 4l-266 -111q-10 -3 0 -8l108 -68q4 -2 4 -8v-1089 q0 -87 -33 -130t-90 -43q-125 0 -125 173v1296q0 4 -1.5 6t-4.5 -2l-153 -188q-7 -7 -13 0q-52 81 -134.5 126.5t-176.5 45.5q-227 0 -359 -152t-132 -399zM250 500q-4 241 81.5 365t225.5 124q69 0 126.5 -26.5t104 -83t73 -155t26.5 -232.5q0 -206 -99.5 -336.5 t-238.5 -130.5q-145 0 -219.5 123.5t-79.5 351.5zM1237 1364q0 50 35.5 85.5t85.5 35.5t85.5 -35.5t35.5 -85.5t-35.5 -85.5t-85.5 -35.5t-85.5 35.5t-35.5 85.5z" />
<glyph horiz-adv-x="0" />
<glyph horiz-adv-x="682" />
<glyph unicode=" "  horiz-adv-x="692" />
<glyph unicode="&#x09;" horiz-adv-x="692" />
<glyph unicode="&#xa0;" horiz-adv-x="692" />
<glyph unicode="!" horiz-adv-x="589" d="M162 96q0 54 39.5 93.5t93.5 39.5t93.5 -39.5t39.5 -93.5t-39.5 -93.5t-93.5 -39.5t-93.5 39.5t-39.5 93.5zM182 1300q-3 53 30.5 91.5t82.5 38.5q46 0 80 -39t31 -91l-74 -931q0 -9 -6 -9h-64q-6 0 -6 9z" />
<glyph unicode="&#x22;" horiz-adv-x="825" d="M156 1358q-8 56 25 91.5t77 35.5t77 -35.5t25 -91.5q-67 -440 -67 -522q0 -9 -4 -9h-62q-4 0 -4 9q0 82 -67 522zM465 1358q-8 56 25 91.5t77 35.5t77.5 -35.5t25.5 -91.5q-68 -447 -68 -522q0 -9 -4 -9h-61q-5 0 -5 9q0 82 -67 522z" />
<glyph unicode="#" horiz-adv-x="1585" d="M92 446l17 60q0 4 6 4h338l127 428h-344q-7 0 -7 4l17 59q0 5 6 5h346l123 417q0 7 8 7h64q6 0 4 -7l-123 -417h407l123 417q0 7 8 7h64q6 0 4 -7l-123 -417h330q6 0 6 -5l-16 -59q0 -4 -7 -4h-331l-125 -428h336q6 0 6 -4l-17 -60q0 -4 -6 -4h-340l-127 -436q0 -6 -8 -6 h-63q-6 0 -4 6l127 436h-408l-127 -436q0 -6 -8 -6h-64q-6 0 -4 6l127 436h-336q-6 0 -6 4zM530 510h406l127 428h-408z" />
<glyph unicode="$" horiz-adv-x="1144" d="M102 6v539q0 3 3 4.5t6 0.5t4 -5q53 -189 159.5 -317t262.5 -183q6 -3 6 4v600q0 15 -8 19l-156 75q-123 61 -185.5 153.5t-62.5 195.5q0 152 119 245t285 93h4q4 0 4 4v165q0 7 6 7h63q6 0 6 -7v-167q0 -7 5 -7q59 -8 112 -32.5t127 -81.5q5 -5 10 0l95 82q14 9 14 -4 v-449q0 -1 -1 -3t-2.5 -3.5t-3.5 -1.5t-4.5 1.5t-4.5 6.5q-30 64 -55 112t-59.5 102t-67 90.5t-74.5 65.5t-86 40q-5 0 -5 -4v-498q0 -8 5 -10l219 -107q120 -58 186 -148t66 -206q0 -79 -29 -151.5t-84 -132t-145.5 -95t-204.5 -35.5h-6q-7 0 -7 -6v-178q0 -6 -6 -6h-63 q-6 0 -6 6v188q0 6 -6 6q-162 25 -310 131q-6 4 -10 0l-108 -100q-7 -7 -7 2zM270 1153q-3 -139 187 -235l78 -39q8 -5 8 4v475q0 4 -4 4h-17q-47 0 -88.5 -10.5t-79.5 -33t-60.5 -65t-23.5 -100.5zM618 37q0 -6 7 -6h14q133 0 220 70.5t87 193.5q0 179 -196 270l-123 58 q-9 6 -9 -5v-581z" />
<glyph unicode="%" horiz-adv-x="1783" d="M96 1053q0 153 114.5 265t268.5 112q101 0 191 -51t144 -138.5t54 -187.5q0 -169 -112 -272t-277 -103q-163 0 -273 104.5t-110 270.5zM246 1053q0 -126 67.5 -217t165.5 -91q99 0 169.5 91.5t70.5 216.5q0 142 -68.5 225.5t-171.5 83.5t-168 -81.5t-65 -227.5zM373 6 q-4 -6 4 -6h82q8 0 8 6q115 176 289.5 430.5t381.5 553t275 396.5q5 7 -4 7h-82q-8 0 -8 -7q-41 -61 -946 -1380zM915 338q0 153 114.5 265t268.5 112q101 0 191 -51t144.5 -138.5t54.5 -187.5q0 -169 -112.5 -272t-277.5 -103q-163 0 -273 104.5t-110 270.5zM1065 338 q0 -126 67 -216.5t166 -90.5t169.5 91t70.5 216q0 142 -68.5 225.5t-171.5 83.5t-168 -81.5t-65 -227.5z" />
<glyph unicode="&#x26;" horiz-adv-x="1574" d="M88 373q0 54 14.5 102.5t44 90t62.5 76t83 70t91 61t100 58.5l-10 15q-66 74 -106.5 144.5t-40.5 150.5q0 93 50 160t130.5 98t181.5 31q142 0 229 -65.5t87 -158.5q0 -56 -24 -104.5t-76.5 -91t-80 -61t-89.5 -53.5l-15 -9l-27 -15l385 -481l195 254q4 4 0 8l-152 166 q-4 4 2 4h437q8 0 0 -4q-81 -53 -148 -114.5t-131 -145.5l-164 -215l111 -139q56 -71 95.5 -107.5t76.5 -36.5q11 0 21.5 1.5t19.5 6t15.5 7.5t14.5 11t12 11.5t11.5 14.5t9.5 13.5t10 15t9 14.5q3 7 6 4l35 -21q2 -2 0 -6q-24 -35 -34.5 -50.5t-36 -43.5t-47 -41t-55.5 -24 t-73 -11q-75 0 -120 19.5t-93 78.5l-105 129q-99 -121 -198.5 -174t-229.5 -53q-93 0 -177 24t-154 72t-111 129t-41 185zM268 381q0 -42 10.5 -88t35 -94.5t60.5 -86.5t93.5 -62.5t126.5 -24.5q184 0 364 215l-432 538q-39 -23 -56.5 -33.5t-51 -34.5t-50 -42t-39.5 -49 t-33.5 -63.5t-19 -77.5t-8.5 -97zM492 1204q0 -30 8 -59t26.5 -58.5t32.5 -48t42 -52t38 -46.5l12 -16l29 16q77 43 119.5 100.5t42.5 145.5q0 87 -51 131.5t-127 44.5q-82 0 -127 -43.5t-45 -114.5z" />
<glyph unicode="'" horiz-adv-x="516" d="M156 1358q-8 56 25 91.5t77 35.5t77 -35.5t25 -91.5q-67 -440 -67 -522q0 -9 -4 -9h-62q-4 0 -4 9q0 82 -67 522z" />
<glyph unicode="(" horiz-adv-x="589" d="M72 600q0 152 33 283.5t96 239t139 193t178 169.5l31 -29q-295 -329 -295 -856t295 -856l-31 -29q-102 84 -178 170t-139 194t-96 239.5t-33 281.5z" />
<glyph unicode=")" horiz-adv-x="589" d="M41 -256q295 329 295 856t-295 856l31 29q102 -84 178 -169.5t139 -193t96 -239t33 -283.5q0 -150 -33 -281.5t-96 -239.5t-139 -194t-178 -170z" />
<glyph unicode="*" horiz-adv-x="876" d="M89.5 897q9.5 25 39.5 39l242 100q6 3 6 7.5t-6 7.5l-240 98q-30 14 -40 40t7 54q15 27 43 31.5t56 -14.5l204 -162q9 -3 9 6l-37 246q-2 34 16 57t49 23t49 -23.5t15 -56.5l-35 -246q0 -6 1.5 -7t4.5 1l207 162q28 19 55.5 14.5t42.5 -31.5q17 -28 7 -54t-40 -40 l-241 -98q-11 -7 0 -15l244 -100q30 -14 39.5 -39t-7.5 -53q-15 -30 -43 -34.5t-55 15.5l-205 164q-10 5 -10 -6l35 -256q3 -35 -15 -54.5t-53 -19.5q-30 0 -46 19.5t-15 54.5l37 256q0 11 -11 6l-204 -164q-27 -20 -55.5 -15.5t-43.5 34.5q-16 28 -6.5 53z" />
<glyph unicode="+" horiz-adv-x="956" d="M51 483v60q0 4 6 4h375q4 0 4 4v407q0 7 6 7h72q6 0 6 -7v-407q0 -4 4 -4h375q6 0 6 -4v-60q0 -4 -6 -4h-375q-4 0 -4 -4v-407q0 -7 -6 -7h-72q-6 0 -6 7v407q0 4 -4 4h-375q-6 0 -6 4z" />
<glyph unicode="," horiz-adv-x="593" d="M160 94q0 55 39.5 92t95.5 37q67 0 102 -44.5t35 -100.5q0 -140 -76.5 -239t-165.5 -99q-3 0 -4 2t2 4q58 34 96 95.5t38 123.5q0 7 -7 4q-18 -6 -30 -6q-56 0 -90.5 36.5t-34.5 94.5z" />
<glyph unicode="-" horiz-adv-x="559" d="M51 483v60q0 4 6 4h445q6 0 6 -4v-60q0 -4 -6 -4h-445q-6 0 -6 4z" />
<glyph unicode="." horiz-adv-x="573" d="M154 96q0 54 39.5 93.5t93.5 39.5t93.5 -39.5t39.5 -93.5t-39.5 -93.5t-93.5 -39.5t-93.5 39.5t-39.5 93.5z" />
<glyph unicode="/" horiz-adv-x="671" d="M49 -279l498 1702q0 7 8 7h63q7 0 5 -7l-498 -1702q0 -6 -8 -6h-64q-6 0 -4 6z" />
<glyph unicode="0" horiz-adv-x="1478" d="M106 692q0 143 42.5 274.5t120.5 235.5t200 166t270 62t270 -61t200 -164.5t120.5 -235.5t42.5 -277q0 -151 -43 -283t-122.5 -231.5t-200 -157t-267.5 -57.5t-267.5 57.5t-200 157t-122.5 231.5t-43 283zM291 692q4 -142 32.5 -259.5t81.5 -208.5t138 -142t194 -51 t194 51t138.5 142t82 209t32.5 259q3 129 -24.5 247.5t-81 213.5t-142.5 152t-199 57t-198.5 -57t-142.5 -152t-81 -213.5t-24 -247.5z" />
<glyph unicode="1" horiz-adv-x="634" d="M70 1239q-10 5 0 8l340 183q6 2 6 -5v-1253q0 -10 6 -16l110 -148q8 -8 -2 -8h-395q-10 0 -2 8l113 148q6 6 6 16v1059q0 6 -4 8h-178z" />
<glyph unicode="2" horiz-adv-x="1087" d="M63 930q1 229 126 364.5t329 135.5q198 0 316 -96.5t118 -252.5q0 -52 -8.5 -98t-32 -95.5t-44.5 -87t-67.5 -96t-79 -96.5t-99.5 -114l-381 -426q-2 -2 -0.5 -4.5t4.5 -2.5h260q117 0 197.5 31.5t150.5 93.5q32 27 72 64t64 60l24 24q4 4 7 2.5t1 -6.5l-102 -324 q-2 -6 -9 -6h-837q-4 1 -2 6l475 533q108 123 166.5 220t76 166t15.5 152q-3 133 -91.5 209t-197.5 76q-131 0 -218 -90t-87 -240q0 -6 2 -8l119 -141q4 -9 -6 -9l-254 48q-7 0 -7 8z" />
<glyph unicode="3" horiz-adv-x="1179" d="M86 430q0 8 6 8l195 43q5 0 2 -6l-103 -143q-2 -2 -2 -8q8 -66 37.5 -119t68.5 -85.5t88.5 -54.5t96 -31t92.5 -9q145 0 233.5 87.5t92.5 276.5q2 83 -27 149.5t-79.5 107t-113 62t-130.5 21.5h-105q-6 0 -6 4v55q0 5 6 5h97q124 0 208 81.5t80 233.5q-4 129 -74 191.5 t-178 62.5q-217 0 -282 -168v-8l57 -154q2 -4 -2 -4l-178 37q-6 2 -6 8q43 166 146.5 261.5t262.5 95.5q205 0 314.5 -86t109.5 -230q0 -65 -21.5 -119.5t-52 -88.5t-70.5 -61t-71 -39.5t-61 -19.5q-5 -3 0 -6q68 -9 130.5 -36.5t114 -72t82.5 -113.5t31 -152 q0 -189 -145 -316t-367 -127q-209 0 -339.5 121t-137.5 346z" />
<glyph unicode="4" horiz-adv-x="1167" d="M70 344v55l4 11l653 976q5 7 10 7h154q6 0 6 -7v-985h80q33 0 50 6.5t34 26.5l65 80q3 4 6 2.5t3 -4.5v-283q0 -3 -3 -4.5t-6 2.5l-65 80q-17 20 -34 26.5t-50 6.5h-80v-184q0 -11 6 -17l111 -147q8 -8 -2 -8h-396q-10 0 -2 8l111 147q6 6 6 17v184h-657q-4 0 -4 4z M137 408q-3 -7 2 -7h592v893z" />
<glyph unicode="5" horiz-adv-x="1179" d="M88 276q-4 9 2 9l213 47q4 1 4 -0.5t-2 -5.5l-61 -138q-4 -7 0 -14q28 -64 109.5 -106.5t197.5 -42.5q45 0 93 15t97 50.5t87 87t62.5 132t24.5 177.5q0 180 -93 305.5t-244 125.5q-95 0 -171.5 -46.5t-144.5 -146.5q-3 -3 -6 0l-57 35q-2 2 -2 6l98 623q0 4 6 4h487 q28 0 52 1.5t38.5 3t34 6.5t26 7t27.5 9.5t27 9.5q4 0 4 -5l-30 -161q0 -7 -6 -7h-619q-6 0 -6 -4l-70 -438q0 -6 4 0q44 67 124.5 115.5t203.5 48.5q152 0 263 -67t165.5 -177t54.5 -246q0 -147 -77 -269t-201 -189.5t-264 -67.5q-164 0 -281.5 84.5t-169.5 228.5z" />
<glyph unicode="6" horiz-adv-x="1222" d="M121 539q0 188 71 355.5t188.5 283.5t271.5 184t317 68q4 0 4 -5l-10 -51q-2 -4 -7 -4q-39 0 -93 -13t-122 -39t-136 -73t-128.5 -108t-105.5 -152t-62 -197q0 -6 4 0q57 83 147.5 138t201.5 55q99 0 180.5 -29.5t135 -77t90 -110t52 -126.5t15.5 -128 q0 -239 -144.5 -393t-357.5 -154q-241 0 -376.5 155.5t-135.5 420.5zM272 485q0 -101 21.5 -181t56 -131.5t82.5 -85.5t98 -48t105 -14q63 0 121 26.5t107.5 79.5t79.5 147t30 216q0 58 -10 113.5t-34.5 113t-62 100.5t-97 70t-134.5 27q-64 0 -128 -31t-116.5 -85 t-85.5 -137.5t-33 -179.5z" />
<glyph unicode="7" horiz-adv-x="1058" d="M63 1116l54 270q0 7 6 7h936q3 0 4.5 -3t-0.5 -6l-768 -1378q-2 -6 -6 -6h-70q-4 0 -4 6l631 1247q2 4 -4 4h-561q-20 0 -30.5 -1t-30.5 -10.5t-40 -28.5l-108 -103q-9 -9 -9 2z" />
<glyph unicode="8" horiz-adv-x="1150" d="M86 350q0 68 28.5 129.5t78.5 109t103 82.5t116 64l63 31l-14 8q-106 52 -156 93q-121 100 -121 249q0 137 114 225.5t288 88.5q171 0 281 -82t110 -199q0 -182 -240 -307l-41 -23l76 -39q89 -44 148 -89.5t90 -95t43 -97.5t12 -109q0 -123 -67 -221.5t-178 -151.5 t-242 -53q-222 0 -357 107.5t-135 279.5zM244 352q1 -78 30.5 -142t77.5 -103.5t106 -60.5t120 -21q150 0 246 81t102 220q2 67 -12.5 117t-49.5 89.5t-76 68t-108 63.5l-137 67l-84 -43q-220 -109 -215 -336zM313 1169q-2 -47 16 -89t42 -69t63 -53.5t62.5 -38.5t58.5 -28 l78 -41l47 27q85 45 121 106.5t33 165.5q-3 101 -74 157t-176 56q-70 0 -128.5 -20t-99 -65t-43.5 -108z" />
<glyph unicode="9" horiz-adv-x="1222" d="M88 934q0 225 143 360.5t359 135.5q237 0 371.5 -135.5t134.5 -350.5q0 -214 -68.5 -399.5t-183 -311.5t-265.5 -198t-315 -72q-4 0 -4 4v51q2 5 6 5q68 0 144.5 22t158 72.5t150.5 121.5t122.5 178.5t73.5 235.5q0 6 -4 0q-58 -84 -148.5 -141t-201.5 -57 q-99 0 -180.5 29t-135 76.5t-90 110.5t-52 129t-15.5 134zM250 936q0 -80 19.5 -152.5t58.5 -133t106 -96.5t154 -36q63 0 126.5 32t114.5 86.5t83 134.5t32 169q0 105 -21 183.5t-54 124t-81.5 73.5t-95.5 37.5t-104 9.5q-69 0 -128.5 -25.5t-107 -76t-75 -135.5 t-27.5 -195z" />
<glyph unicode=":" horiz-adv-x="573" d="M154 221q0 54 39.5 93.5t93.5 39.5t93.5 -39.5t39.5 -93.5t-39.5 -93.5t-93.5 -39.5t-93.5 39.5t-39.5 93.5zM154 786q0 54 39.5 94t93.5 40t93.5 -40t39.5 -94t-39.5 -93.5t-93.5 -39.5t-93.5 39.5t-39.5 93.5z" />
<glyph unicode=";" horiz-adv-x="579" d="M154 223q0 55 39.5 92t95.5 37q67 0 102 -44.5t35 -100.5q0 -140 -76.5 -239t-165.5 -99q-3 0 -4 2.5t2 3.5q58 34 95.5 95.5t37.5 123.5q0 7 -6 4q-18 -6 -30 -6q-56 0 -90.5 36.5t-34.5 94.5zM156 786q0 54 39.5 94t93.5 40t93.5 -40t39.5 -94t-39.5 -93.5t-93.5 -39.5 t-93.5 39.5t-39.5 93.5z" />
<glyph unicode="&#x3c;" horiz-adv-x="1105" d="M92 467v90q0 4 4 6l965 424q4 -3 4 -4v-76q0 -6 -4 -8l-893 -387q-2 0 -2 -2t2 -2l893 -393q4 -2 4 -9v-75q-3 -4 -4 -4l-965 434q-4 2 -4 6z" />
<glyph unicode="=" horiz-adv-x="991" d="M113 328v53q0 6 6 6h753q7 0 7 -6v-53q0 -6 -7 -6h-753q-6 0 -6 6zM113 643v53q0 6 6 6h753q7 0 7 -6v-53q0 -6 -7 -6h-753q-6 0 -6 6z" />
<glyph unicode="&#x3e;" horiz-adv-x="1105" d="M41 31v75q0 7 4 9l893 393q2 0 2 2t-2 2l-893 387q-4 2 -4 8v76q0 3 0.5 3.5t2.5 0.5h1l965 -424q4 -2 4 -6v-90q0 -4 -4 -6l-965 -434q-4 3 -4 4z" />
<glyph unicode="?" horiz-adv-x="1017" d="M61 997q0 81 28.5 157t82.5 138.5t142.5 100t199.5 37.5q201 0 322.5 -95.5t121.5 -255.5q0 -132 -75.5 -242t-251.5 -231q-83 -57 -98.5 -75t-18.5 -56l-12 -137q0 -4 -4 -4h-64q-6 0 -6 4l-27 256q-2 19 3.5 28.5t25.5 24.5l174 131q91 68 132.5 142t41.5 172 q0 116 -75 193t-197 77q-111 0 -176.5 -65.5t-65.5 -168.5q0 -8 4 -12l111 -119q4 -8 -6 -8h-305q-7 0 -7 8zM334 96q0 54 39.5 93.5t93.5 39.5t93.5 -39.5t39.5 -93.5t-39.5 -93.5t-93.5 -39.5t-93.5 39.5t-39.5 93.5z" />
<glyph unicode="@" horiz-adv-x="1794" d="M113 696q22 156 99 291t194 233t275.5 154t336.5 56q166 0 303 -59t223 -159.5t122 -238.5t9 -291q-31 -180 -145 -297t-240 -117q-82 0 -119 47.5t-30 114.5q0 6 -4 2q-48 -79 -135.5 -138.5t-188.5 -55.5q-124 5 -200.5 65t-99 155.5t0.5 219.5q23 125 77 220.5 t126.5 150.5t155.5 79.5t171 18.5q92 -6 164.5 -63.5t79.5 -141.5q2 -4 4 -4l174 102h4q1 -1 0 -4l-196 -534q-11 -31 -16 -54.5t-4 -49.5t20.5 -41.5t56.5 -16.5q79 -3 162.5 98t108.5 244q25 142 -7.5 268t-111.5 216.5t-202.5 143t-274.5 52.5q-268 0 -463.5 -178.5 t-245.5 -487.5q-26 -158 11 -286t122.5 -210t206.5 -125.5t266 -43.5q179 0 348 104q5 2 9 -2l36 -45q3 -3 -2 -6q-203 -117 -446 -119q-132 -1 -250.5 28.5t-216 90.5t-164.5 147.5t-95.5 206.5t-8.5 260zM690 678q-27 -169 17 -265.5t139 -101.5q68 -4 130.5 39.5 t104.5 108t68 141.5l65 197q42 123 -12.5 205.5t-171.5 87.5q-116 5 -213 -110t-127 -302z" />
<glyph unicode="A" d="M8 7q1 3 4 5l56 43q89 70 116 135l408 1020q0 4 -2 4l-170 70q-5 2 -5.5 5.5t3.5 6.5l233 148q9 9 13 -2q47 -110 114 -252l400 -903q16 -36 31.5 -65t33.5 -53.5t29.5 -39.5t33.5 -34.5t31.5 -27.5t37 -29t36.5 -28q4 -3 3.5 -6.5t-5.5 -3.5h-428q-9 0 -4 10l76 131 q4 8 2 13l-144 323q-6 15 -11.5 22.5t-19 14t-34.5 6.5h-455q-9 0 -12 -10l-137 -354q-5 -10 2 -17l127 -129q2 -2 2.5 -4.5t-0.5 -4t-4 -1.5h-355q-4 0 -5.5 2t-0.5 5zM410 590q-4 -8 4 -8h411q18 0 24.5 14t-1.5 29l-223 512z" />
<glyph unicode="B" horiz-adv-x="1341" d="M100 8l111 148q6 6 6 16v1049q0 10 -6 16l-111 147q-6 9 2 9h725q171 0 272 -86t101 -222q0 -114 -73 -204t-177 -111q-3 0 -3 -2t3 -2q63 -16 121 -46t106.5 -73.5t77.5 -104.5t29 -130q0 -193 -121 -302.5t-307 -109.5h-754q-7 0 -2 8zM383 92q0 -13 8.5 -22t20.5 -9 h338q178 0 270 88t92 250q0 159 -103.5 244.5t-297.5 85.5h-267q-28 0 -44.5 -17t-16.5 -46v-574zM383 854q0 -29 16.5 -46t44.5 -17h267q76 0 134 17.5t93 45.5t56.5 67t28.5 79q5 31 5 64v19q-2 57 -16.5 99.5t-45.5 77.5t-87 53t-136 18h-331q-12 0 -20.5 -9t-8.5 -22 v-446z" />
<glyph unicode="C" horiz-adv-x="1566" d="M113 692q0 150 58 287t156 235.5t234.5 157t286.5 58.5q247 0 442 -162q6 -6 13 2l100 94q5 5 9.5 4t4.5 -8v-520q0 -7 -5 -8q-6 -1 -9 10q-150 520 -555 520q-150 0 -276.5 -90t-198.5 -244q-68 -146 -68 -317v-19q5 -182 77.5 -333.5t195.5 -239.5t270 -88 q366 0 557 473q2 5 4.5 5.5t4 -1.5t1.5 -4v-500q0 -10 -8 -2l-109 100q-6 6 -12 2q-214 -141 -440 -141q-148 0 -283 56t-234 152.5t-157.5 232.5t-58.5 288z" />
<glyph unicode="D" horiz-adv-x="1525" d="M97.5 1388q-0.5 2 0.5 3.5t4 1.5h525q378 0 582 -181t204 -507q0 -316 -212 -510.5t-550 -194.5h-549q-10 0 -2 8l111 148q6 6 6 16v1049q0 10 -6 16l-111 147q-2 2 -2.5 4zM383 92q0 -13 8.5 -22t20.5 -9h219q283 0 440.5 169t163.5 475v19q0 142 -42 256 q-45 120 -128.5 196t-196.5 115.5t-250 39.5h-206q-12 0 -20.5 -9t-8.5 -22v-1208z" />
<glyph unicode="E" horiz-adv-x="1347" d="M97.5 1388q-0.5 2 0.5 3.5t4 1.5h822h20.5h22t21.5 0.5t23.5 1t23 1.5t25.5 2.5t24.5 3.5t26 5t25.5 7t27 9q6 3 6 -2v-383q0 -6 -3.5 -6t-6.5 6l-127 215q-31 53 -53.5 65.5t-75.5 12.5h-491q-12 0 -20.5 -9t-8.5 -22v-471q0 -29 16.5 -46t44.5 -17h336q39 0 63 10 t50 39l117 125q3 4 5.5 3t2.5 -5v-426q0 -6 -3.5 -7t-6.5 5l-121 149q-37 46 -107 46h-336q-28 0 -44.5 -17.5t-16.5 -46.5v-557q0 -23 18 -23h406q125 0 211 68l252 203q4 3 7 1.5t1 -5.5l-113 -322q-2 -6 -8 -6h-1055q-10 0 -2 8l111 148q6 6 6 16v1049q0 10 -6 16 l-111 147q-2 2 -2.5 4z" />
<glyph unicode="F" horiz-adv-x="1138" d="M97.5 1388q-0.5 2 0.5 3.5t4 1.5h824h19h18.5h16t17 1t16 2t18 2.5t17.5 3.5t20.5 5t22 7t25.5 9q6 3 6 -2v-383q0 -6 -3.5 -6t-6.5 6l-127 215q-33 55 -47 66.5t-51 11.5h-475q-12 0 -20.5 -9t-8.5 -22v-469q0 -29 16.5 -46t44.5 -17h271q39 0 62.5 10t49.5 39l117 125 q3 4 5.5 3t2.5 -5v-426q0 -6 -3.5 -7t-6.5 5l-121 150q-36 45 -106 45h-271q-28 0 -44.5 -17.5t-16.5 -46.5v-471q0 -10 6 -16l111 -148q8 -8 -2 -8h-396q-10 0 -2 8l111 148q6 6 6 16v1049q0 10 -6 16l-111 147q-2 2 -2.5 4z" />
<glyph unicode="G" horiz-adv-x="1642" d="M113 682q0 158 57.5 297.5t155.5 238t233.5 155.5t286.5 57q257 0 448 -154q6 -6 11 0l116 88q5 3 10 2.5t5 -6.5v-522q0 -2 -3 -5.5t-7 -2.5t-7 8q-46 111 -102.5 201.5t-128 165t-161.5 116t-189 41.5q-110 0 -212 -52t-177 -140.5t-119 -215.5q-41 -120 -41 -252v-18 q4 -151 49 -274.5t122 -205.5t181.5 -126.5t226.5 -44.5q113 0 210 52t155.5 145t58.5 206v68q0 8 -4 10l-330 143q-4 1 -3 6t6 5h585q3 0 5 -3t-1 -6l-63 -51q-45 -36 -45 -108v-494q0 -12 -8 -4l-121 135q-5 7 -10 2q-54 -48 -94 -76t-92.5 -53.5t-113.5 -36t-141 -10.5 q-160 0 -297 49.5t-237.5 140.5t-157.5 227t-57 302z" />
<glyph unicode="H" horiz-adv-x="1570" d="M97.5 1388q-0.5 2 0.5 3.5t4 1.5h396q4 0 4.5 -3t-2.5 -6l-111 -147q-6 -6 -6 -16v-404q0 -29 16.5 -46t44.5 -17h682q28 0 45 17t17 46v404q0 10 -6 16l-111 147q-2 2 -2.5 4t0.5 3.5t4 1.5h395q4 0 4.5 -3t-2.5 -6l-110 -147q-6 -6 -6 -16v-1049q0 -10 6 -16l110 -148 q8 -8 -2 -8h-395q-10 0 -2 8l111 148q6 6 6 16v457q0 29 -17 46t-45 17h-682q-28 0 -44.5 -17t-16.5 -46v-457q0 -10 6 -16l111 -148q8 -8 -2 -8h-396q-10 0 -2 8l111 148q6 6 6 16v1049q0 10 -6 16l-111 147q-2 2 -2.5 4z" />
<glyph unicode="I" horiz-adv-x="600" d="M97.5 1388q-0.5 2 0.5 3.5t4 1.5h396q4 0 4.5 -3t-2.5 -6l-111 -147q-6 -6 -6 -16v-1049q0 -10 6 -16l111 -148q8 -8 -2 -8h-396q-10 0 -2 8l111 148q6 6 6 16v1049q0 10 -6 16l-111 147q-2 2 -2.5 4z" />
<glyph unicode="J" horiz-adv-x="692" d="M-4 -86q0 8 4 0l160 -264q29 -51 73 -51q76 0 76 96v1526q0 10 -6 16l-110 147q-2 2 -2.5 4t0.5 3.5t4 1.5h395q4 0 4.5 -3t-2.5 -6l-111 -147q-6 -6 -6 -16v-1325q0 -54 -3.5 -97t-18 -95t-38.5 -87t-68 -60t-105 -28h-16q-123 0 -224 70q-6 6 -6 12v303z" />
<glyph unicode="K" horiz-adv-x="1386" d="M97.5 1388q-0.5 2 0.5 3.5t4 1.5h396q4 0 4.5 -3t-2.5 -6l-111 -147q-6 -6 -6 -16v-697q0 -15 8.5 -18t18.5 8l612 700q4 4 0 9l-154 161q-1 1 -1.5 3t0.5 4t5 2h435q3 0 4 -2.5t-2 -4.5q-83 -62 -145.5 -119t-133.5 -139l-192 -219q-6 -6 -2 -14l274 -557 q116 -230 256 -330q3 -2 2 -5t-4 -3h-426q-6 0 -2 8l84 119q2 4 0 8l-318 617q-2 4 -6 0l-274 -318q-22 -24 -30.5 -42t-8.5 -48v-172q0 -10 6 -16l111 -148q8 -8 -2 -8h-396q-10 0 -2 8l111 148q6 6 6 16v1049q0 10 -6 16l-111 147q-2 2 -2.5 4z" />
<glyph unicode="L" horiz-adv-x="1128" d="M97.5 1388q-0.5 2 0.5 3.5t4 1.5h396q4 0 4.5 -3t-2.5 -6l-111 -147q-6 -6 -6 -16v-1137q0 -23 18 -23h250q125 0 211 68l252 203q4 3 7 1.5t1 -5.5l-112 -322q-2 -6 -9 -6h-899q-10 0 -2 8l111 148q6 6 6 16v1049q0 10 -6 16l-111 147q-2 2 -2.5 4z" />
<glyph unicode="M" horiz-adv-x="1732" d="M100 8l111 148q6 6 6 16v1069q0 8 -6 14l-100 131q-7 7 2 7h272q4 0 4 -4q2 -49 64 -197l385 -907q16 -37 30 -95q0 -8 4 0l404 1018q44 113 51 181q0 4 6 4h271l2 -4l-74 -101q-16 -20 -16 -80v-1036q0 -10 6 -16l110 -148q8 -8 -2 -8h-395q-10 0 -2 8l110 148q7 7 7 16 v1038l-482 -1206q-2 -4 -6 -4h-119q-7 0 -4 6q4 11 4 26q0 60 -57 193l-399 926q0 -3 -2 -4v-975q0 -10 6 -16l110 -148q8 -8 -2 -8h-297q-10 0 -2 8z" />
<glyph unicode="N" horiz-adv-x="1507" d="M100 1386q-7 7 4 7h263q6 0 8 -4q37 -77 131 -215l713 -1024q4 -4 4 2v1069q0 10 -6 16l-111 147q-2 2 -2.5 4t0.5 3.5t4 1.5h297q4 0 4.5 -3t-2.5 -6l-111 -147q-6 -6 -6 -16v-1133q0 -10 6 -16l50 -64q3 -3 1.5 -5.5t-4.5 -2.5h-258q-6 0 -6 6q-20 81 -190 324 l-567 807q-5 4 -5 -2v-963q0 -9 7 -16l110 -148q8 -8 -2 -8h-297q-10 0 -2 8l111 148q6 6 6 16v1057q0 10 -6 16z" />
<glyph unicode="O" horiz-adv-x="1695" d="M113 692q0 150 58 287t156 235.5t234.5 157t286.5 58.5q201 0 370 -97.5t267 -267.5t98 -373q0 -158 -58.5 -295.5t-158.5 -231.5t-234.5 -148t-283.5 -54t-283.5 54t-234.5 148t-158.5 231.5t-58.5 295.5zM299 692q0 -134 47 -258t123.5 -211.5t176.5 -139.5t202 -52 q158 0 284 88t195.5 239t69.5 334q0 178 -78.5 333.5t-205 246t-265.5 90.5q-161 0 -287.5 -89.5t-194 -241.5t-67.5 -339z" />
<glyph unicode="P" horiz-adv-x="1236" d="M100 8l111 148q6 6 6 16v1049q0 10 -6 16l-109 149q-4 7 4 7h596q217 0 354.5 -120t137.5 -298q0 -138 -67 -239.5t-177 -151t-248 -49.5h-258q-28 0 -44.5 -17.5t-16.5 -46.5v-299q0 -10 6 -16l111 -148q8 -8 -2 -8h-396q-10 0 -2 8zM383 659q0 -29 16.5 -46t44.5 -17 h277q75 0 132 27t89.5 66.5t52.5 93t26.5 99t6.5 91.5q0 57 -18 117t-53 115t-96.5 90.5t-139.5 35.5h-330q-8 0 -8 -8v-664z" />
<glyph unicode="Q" horiz-adv-x="1693" d="M113 692q0 150 58 287t156 235.5t234.5 157t286.5 58.5q200 0 368 -99t264.5 -268.5t96.5 -370.5q0 -139 -57.5 -275.5t-165.5 -244.5q-6 -6 -4 -16q9 -38 12.5 -50.5t21 -61t36.5 -81t56.5 -81.5t84.5 -93q6 -6 -2 -6q-134 12 -242.5 89t-145.5 157q-4 4 -8 2 q-85 -41 -153 -54.5t-162 -13.5q-148 0 -283.5 56t-234.5 152.5t-158 232.5t-59 288zM293 692q0 -181 76 -333.5t203.5 -240t275.5 -87.5q242 0 405 185q162 184 162 472q0 140 -51 269q-49 126 -128.5 213.5t-181.5 139.5t-206 52q-161 0 -289 -91t-197 -243.5t-69 -335.5z " />
<glyph unicode="R" horiz-adv-x="1396" d="M99 3q-1 3 1 5l111 148q6 6 6 16v1045q0 9 -6 18l-109 154q-2 4 2 4h668q115 0 211 -38.5t158.5 -120.5t62.5 -194q0 -114 -68.5 -195t-187.5 -122q-2 0 -2 -2t2 -2q143 -35 220 -135t77 -254v-160q0 -5 6 -14l107 -146q8 -10 -2 -10h-228q-28 0 -44.5 17t-16.5 46v293 q0 155 -104 240.5t-281 85.5h-238q-28 0 -44.5 -17.5t-16.5 -46.5v-446q0 -10 6 -16l111 -148q8 -8 -2 -8h-394q-4 0 -5 3zM383 807q0 -29 16.5 -46.5t44.5 -17.5h238q76 0 135.5 18t96.5 47.5t61 69t33.5 79.5t9.5 83q0 45 -8 85t-28 78.5t-51 66t-81 44.5t-113 17h-346 q-8 0 -8 -8v-516z" />
<glyph unicode="S" horiz-adv-x="1144" d="M106 6v539q0 3 3 4.5t6 0.5t4 -5q43 -111 94.5 -200.5t115.5 -161.5t143.5 -112t166.5 -40q143 0 225 68t82 194q0 173 -196 272l-390 187q-108 53 -168.5 149.5t-60.5 190.5q0 102 55.5 180.5t145 118t196.5 39.5q181 0 334 -119q5 -5 10 0l95 82q3 5 8.5 4t5.5 -8v-449 q0 -1 -1 -3t-2.5 -3.5t-3.5 -1.5t-4.5 1.5t-4.5 6.5q-43 91 -87 160.5t-100 132t-122.5 96t-139.5 33.5q-46 0 -87 -10.5t-78 -33t-58.5 -65t-22.5 -100.5v-6q0 -65 42 -119q44 -56 145 -106l401 -203q119 -61 177.5 -144t58.5 -200q0 -79 -29 -151.5t-84 -131.5t-145.5 -94 t-204.5 -35q-98 0 -207.5 37t-192.5 104q-6 4 -10 0l-108 -100q-7 -7 -7 2z" />
<glyph unicode="T" horiz-adv-x="1165" d="M0 1073l51 348q0 5 6 2q15 -5 28 -9.5t27.5 -7.5t23.5 -5.5t24 -3.5t21 -2t23 -1.5t20 -0.5h22.5h21.5h629h21.5h22.5t20 0.5t23 1.5t21 2t24 3.5t23.5 5.5t27.5 7.5t28 9.5q6 3 6 -2l51 -348q1 -6 -2 -7.5t-8 3.5l-166 174q-41 44 -76.5 66t-83.5 22h-102 q-28 0 -44.5 -17t-16.5 -46v-1096q0 -10 6 -16l110 -148q8 -8 -2 -8h-395q-10 0 -2 8l111 148q6 6 6 16v1096q0 29 -17 46t-45 17h-102q-77 0 -160 -88l-166 -174q-3 -5 -7 -3.5t-3 7.5z" />
<glyph unicode="U" horiz-adv-x="1482" d="M79.5 1388q-0.5 2 0.5 3.5t4 1.5h395q4 0 4.5 -3t-2.5 -6l-110 -147q-6 -6 -6 -16v-748q0 -179 118 -295.5t308 -116.5q65 0 125.5 14.5t118 48.5t99.5 85t67.5 129.5t25.5 175.5v707q0 10 -6 16l-111 147q-2 2 -2.5 4t0.5 3.5t4 1.5h297q4 0 4.5 -3t-2.5 -6l-111 -147 q-6 -6 -6 -16v-684q0 -265 -146.5 -419.5t-391.5 -154.5q-160 0 -285 65t-198.5 194t-73.5 304v695q0 10 -6 16l-111 147q-2 2 -2.5 4z" />
<glyph unicode="V" horiz-adv-x="1380" d="M4 1386q-3 3 0 6q0 1 2 1h416q5 -1 2 -7l-102 -135v-6l372 -932q49 -121 49 -176q0 -3 1.5 -3t3.5 3l432 1090q2 6 0 8l-90 151q-3 3 0 6q0 1 2 1h301q5 -1 2 -7q-69 -65 -107 -118.5t-76 -149.5l-448 -1112q-2 -6 -8 -6h-131q-9 0 -9 8q-3 39 -22.5 112t-46.5 140 l-330 811q-87 209 -213 315z" />
<glyph unicode="W" horiz-adv-x="1861" d="M4 1386q-3 3 0 6q0 1 2 1h418q5 -1 2 -7l-102 -135v-6l292 -913q39 -129 39 -187q0 -8 4 0l234 920q3 10 0 20q-3 7 -15.5 41.5t-18 48t-18 45t-22.5 49.5t-24 42t-29.5 42.5t-32.5 32.5q-3 3 0 6q0 1 2 1h363q5 -1 2 -7l-90 -114l-2 -10l266 -924q41 -139 41 -195 q0 -8 4 0l326 1084q2 6 0 8l-82 151q-3 3 0 6q0 1 2 1h301q5 -1 2 -7q-71 -66 -115.5 -131t-73.5 -155l-333 -1094q-2 -6 -9 -6h-143q-8 0 -8 8q-9 87 -56 248l-190 682q-4 8 -4 -2l-246 -930q-2 -6 -8 -6h-156q-8 0 -8 8q-6 106 -49 248l-264 815q-34 115 -81.5 185 t-119.5 130z" />
<glyph unicode="X" horiz-adv-x="1413" d="M51 6q1 3 4 6q131 107 264 271l304 389l-334 469q-61 86 -126.5 157t-99.5 88q-5 3 -2.5 5t5.5 2h428q5 -1 2 -7l-78 -124q-4 -4 0 -9l313 -442l346 440q5 8 -2 15l-127 116q-2 2 -2.5 4.5t0.5 4.5t4 2h348q4 0 5.5 -2.5t0.5 -5.5t-4 -5q-130 -116 -198 -200l-330 -424 l334 -471q65 -92 136.5 -172t105.5 -105q3 -3 2 -5.5t-4 -2.5h-420q-4 1 -2 6l82 125v6l-342 479l-365 -469q-6 -10 0 -16l127 -121q2 -2 2.5 -4.5t-0.5 -4t-4 -1.5h-367q-4 0 -5.5 1.5t-0.5 4.5z" />
<glyph unicode="Y" horiz-adv-x="1310" d="M4 1386q-3 3 0 6q0 1 2 1h404q5 -1 2 -7l-93 -120v-6l340 -574q23 -39 29 -65q0 -4 4 0l418 618q2 6 0 8l-94 139q-3 3 0 6q0 1 2 1h301q5 -1 2 -7q-15 -16 -37 -38.5t-34 -34.5t-29.5 -34t-36.5 -50l-428 -627q-17 -24 -17 -74v-356q0 -10 6 -16l111 -148q8 -8 -2 -8 h-395q-10 0 -2 8l110 148q6 6 6 16v291q0 29 -7.5 55t-16 42t-27.5 48l-340 568q-31 53 -84 117t-94 93z" />
<glyph unicode="Z" horiz-adv-x="1183" d="M41 8q34 22 79.5 74.5t78.5 110.5l632 1107q7 17 1.5 24t-19.5 7h-459q-53 0 -75.5 -12.5t-53.5 -65.5l-127 -215q-3 -6 -6.5 -6t-3.5 6v383q0 5 6 2q13 -5 27 -9t25.5 -7t26.5 -5t24.5 -3.5t25 -2.5t23 -1.5t24 -1t22 -0.5h22h20.5h760q5 -1 2 -7q-69 -79 -109 -149 l-661 -1153q-6 -9 -1.5 -16t15.5 -7h330q89 0 143 19.5t100 62.5l226 205q5 3 7 1.5t1 -5.5l-117 -338q-2 -6 -8 -6h-979q-10 0 -2 8z" />
<glyph unicode="[" horiz-adv-x="493" d="M154 -242v1684q0 43 43 43h249q7 0 7 -4v-56q0 -4 -7 -4h-108q-11 0 -15 -3.5t-4 -14.5v-1606q0 -11 4 -14.5t15 -3.5h108q7 0 7 -4v-56q0 -4 -7 -4h-249q-43 0 -43 43z" />
<glyph unicode="\" horiz-adv-x="598" d="M59 1386q-2 7 4 7h64q8 0 8 -7l404 -1380q2 -6 -4 -6h-64q-8 0 -8 6z" />
<glyph unicode="]" horiz-adv-x="493" d="M41 -225q0 4 6 4h109q11 0 14.5 3t3.5 15v1606q0 12 -3.5 15t-14.5 3h-109q-6 0 -6 4v56q0 4 6 4h250q43 0 43 -43v-1684q0 -43 -43 -43h-250q-6 0 -6 4v56z" />
<glyph unicode="^" horiz-adv-x="1153" d="M115 815l422 664q3 6 8 6h61q7 0 10 -6l422 -664q4 -6 -4 -6h-86q-6 0 -8 6l-365 594l-362 -594q-3 -6 -8 -6h-86q-8 0 -4 6z" />
<glyph unicode="_" horiz-adv-x="993" d="M-10 -221q0 4 6 4h1001q7 0 7 -4v-60q0 -4 -7 -4h-1001q-6 0 -6 4v60z" />
<glyph unicode="`" horiz-adv-x="630" d="M123 1321q0 30 21 51t57 21q48 0 92 -56l213 -282q4 -4 -2 -4h-68q-6 0 -12 4l-238 166q-35 27 -49 47.5t-14 52.5z" />
<glyph unicode="a" horiz-adv-x="1060" d="M66 242q0 135 97.5 211t301.5 98l158 16q74 7 104.5 55.5t30.5 137.5q0 62 -24.5 108.5t-63.5 71.5t-79.5 37t-80.5 12q-92 0 -153 -49t-76 -117q-2 -6 2 -10l104 -121q4 -8 -6 -8h-266q-6 0 -6 8q26 154 138 256.5t283 102.5q86 0 156.5 -23t125 -70t84.5 -125.5 t30 -183.5v-293q0 -60 2.5 -99.5t17 -108t43.5 -144.5q2 -5 -1 -5q-2 0 -3 1q-63 24 -118 65.5t-79 73.5q-2 2 -4 0q-116 -176 -372 -176q-176 0 -261 77.5t-85 201.5zM250 258q0 -103 53.5 -168t149.5 -65q81 0 142 28.5t96.5 80.5t53 118.5t17.5 148.5v154q0 4 -4 2 q-17 -12 -27 -18t-51 -17.5t-100 -17.5l-125 -15q-105 -12 -155 -66t-50 -165z" />
<glyph unicode="b" horiz-adv-x="1208" d="M59 1366q-10 5 0 8l267 111q6 2 6 -4v-678q0 -8 4 0q50 101 142 174.5t210 73.5q214 0 328 -150t114 -401q0 -233 -135.5 -385t-337.5 -152q-95 0 -167.5 37t-139.5 117q-4 4 -8 2q-63 -49 -145.5 -82t-120.5 -37q-8 0 -4 6q54 86 77 170.5t23 208.5v905q0 6 -4 8z M322 492q0 -210 87.5 -338.5t225.5 -128.5q149 0 232.5 128.5t88.5 346.5v21q0 224 -82 343q-86 125 -221 125q-57 0 -115 -36t-106.5 -99t-79 -158.5t-30.5 -203.5z" />
<glyph unicode="c" horiz-adv-x="1116" d="M86 498q0 148 72 275t199 202.5t278 75.5q168 0 290 -102.5t126 -256.5q0 -8 -7 -8h-290q-4 0 -5.5 2.5t1.5 5.5l116 113q2 2 2 8q-15 82 -76.5 129t-156.5 47q-161 0 -262 -129.5t-101 -343.5q0 -102 21.5 -189t63 -153.5t108.5 -104.5t153 -38q105 0 198 70t132 165 q3 6 10 2l86 -59q5 -3 0 -10q-86 -121 -192 -178.5t-244 -57.5q-234 0 -378 147.5t-144 387.5z" />
<glyph unicode="d" horiz-adv-x="1191" d="M78 487q0 250 120 407t334 157q119 0 206.5 -71t131.5 -171q4 -8 4 0v481q0 6 -4 8l-108 68q-10 5 0 8l266 111q6 2 6 -4v-1096q0 -131 26 -216.5t73 -162.5q4 -6 -5 -6q-41 6 -123 44t-141 91q-6 4 -10 0q-53 -79 -135.5 -125.5t-171.5 -46.5q-220 0 -344.5 132 t-124.5 392zM254 487q4 -214 88 -335t227 -121q135 0 225.5 124.5t90.5 336.5q0 220 -97 358.5t-221 138.5q-133 1 -225 -131q-88 -126 -88 -351v-20z" />
<glyph unicode="e" horiz-adv-x="1079" d="M66 502q0 237 144 393t372 156q113 0 200 -37.5t139.5 -103.5t78.5 -151t26 -186q0 -6 -4 -6h-746q-19 0 -22 -22q-5 -46 -5 -88q-1 -165 77 -281q98 -146 286 -145q108 0 194.5 63.5t115.5 141.5q3 6 10 2l74 -56q4 -4 0 -10q-58 -91 -171.5 -150t-252.5 -59 q-238 0 -377 147t-139 392zM260 635q0 -4 4 -4h557q8 0 8 10q0 55 -8.5 104t-28 94.5t-48.5 78t-73.5 52t-99.5 19.5q-132 0 -211 -95t-100 -259z" />
<glyph unicode="f" horiz-adv-x="565" d="M33 954v56q0 4 6 4h111q4 0 4 4q11 205 89 336t206 131h219q5 0 2 -6l-138 -248q-3 -3 -6 2l-88 145q-18 33 -41 33q-41 0 -62.5 -89t-21.5 -247v-57q0 -4 4 -4h281q6 0 6 -4v-56q0 -4 -6 -4h-258q-11 0 -19 -6t-8 -16v-758q0 -8 6 -14l125 -148q2 -2 2 -5t-4 -3h-387 q-7 0 -2 8l97 148q4 6 4 14v758q0 10 -8 16t-19 6h-88q-6 0 -6 4z" />
<glyph unicode="g" horiz-adv-x="1042" d="M43 -162q0 164 180 248q6 3 0 6q-59 30 -92 75.5t-33 100.5q0 102 113 166q3 1 3.5 4t-1.5 4q-55 41 -94 104.5t-39 147.5q0 80 35.5 148t94.5 113t135.5 70.5t158.5 25.5q50 0 118.5 -17t110.5 -43q3 -1 6 0q41 23 103 23h178q8 0 2 -6l-158 -129q-5 -5 -2 -11 q51 -81 51 -161q0 -109 -57 -191t-149 -123t-203 -41q-115 0 -211 39q-4 2 -10 2q-18 -2 -35 -29q-17 -30 -17 -64q0 -47 31 -72q32 -27 82 -27h303q74 0 137.5 -15t115.5 -46.5t82 -86t30 -127.5q0 -169 -149 -283t-390 -114q-191 0 -310.5 87t-119.5 222zM193 -168 q0 -101 85 -171.5t211 -70.5q94 0 165.5 19.5t111.5 49t64.5 70t32 75.5t7.5 73q0 100 -59.5 144.5t-181.5 44.5h-250q-73 0 -129.5 -65.5t-56.5 -168.5zM242 694q0 -133 77 -207.5t185 -74.5q107 0 177.5 74.5t70.5 209.5q0 130 -72 211.5t-176 81.5q-107 0 -184.5 -80.5 t-77.5 -214.5z" />
<glyph unicode="h" horiz-adv-x="1191" d="M59 1366q-10 5 0 8l267 111q6 2 6 -4v-654q0 -4 1.5 -5.5t3.5 -0.5t3 4q42 96 136.5 161t211.5 65q162 0 255 -89.5t93 -263.5v-524q0 -6 6 -18l78 -148q8 -8 -2 -8h-354q-7 0 -2 8l106 148q6 8 6 18v576q0 111 -64 174t-159 63q-42 0 -85.5 -17t-86 -55t-75 -92 t-52.5 -133.5t-20 -173.5v-342q0 -10 6 -18l104 -148q8 -8 -2 -8h-350q-9 0 -4 8l80 148q6 12 6 18v1116q0 6 -4 8z" />
<glyph unicode="i" horiz-adv-x="540" d="M88 932l109 -68q4 -2 4 -8v-682q0 -9 -6 -18l-93 -148q-4 -8 2 -8h353q6 0 2 8l-92 148q-7 10 -7 18v873q0 6 -6 4l-266 -111q-10 -3 0 -8zM147 1309q0 49 35.5 85t85.5 36t85.5 -36t35.5 -85t-35.5 -85t-85.5 -36t-85.5 36t-35.5 85z" />
<glyph unicode="j" horiz-adv-x="425" d="M-158 -375q-4 -4 0 -8q32 -36 82 -62t105 -26q129 0 208.5 106.5t79.5 313.5v1098q0 6 -6 4l-266 -111q-10 -3 0 -8l109 -68q4 -2 4 -8v-1100q0 -80 -25 -121t-65 -41q-43 0 -54 50l-34 168q-1 4 -4.5 4.5t-4.5 -2.5zM106 1364q0 50 36 85.5t85 35.5t85 -35.5t36 -85.5 t-36 -85.5t-85 -35.5t-85 35.5t-36 85.5z" />
<glyph unicode="k" horiz-adv-x="1110" d="M59 1366q-10 5 0 8l267 111q6 2 6 -4v-965q0 -15 8 -18t18 8l428 379q4 4 0 8l-112 113q-1 1 -1.5 3t0.5 3.5t5 1.5h381q3 0 4 -2t-2 -4q-5 -3 -45.5 -31t-68 -47.5t-70.5 -52.5t-76 -62l-103 -90q-3 -3 0 -8l172 -375q62 -119 110.5 -190t121.5 -144q3 -3 2 -5.5 t-4 -2.5h-414q-6 0 -2 8l96 125q2 4 0 8l-217 459q-2 4 -6 0l-184 -164q-23 -21 -32 -40t-9 -50v-176q0 -10 4 -14l139 -148q8 -8 -2 -8h-385q-6 0 -2 8l82 148q4 4 4 14v1120q0 6 -4 8z" />
<glyph unicode="l" horiz-adv-x="491" d="M59 1366q-10 5 0 8l267 111q6 2 6 -4v-1307q0 -6 6 -18l92 -148q4 -8 -4 -8h-348q-8 0 -4 8l92 148q6 12 6 18v1116q0 6 -4 8z" />
<glyph unicode="m" horiz-adv-x="1568" d="M59 948q-10 5 0 8l267 111q6 2 6 -4v-160q0 -4 2 -4.5t4 2.5q26 51 91.5 100.5t156.5 49.5q100 0 162.5 -39t97.5 -125q2 -7 6 0q36 71 104 117.5t164 46.5q62 0 112 -14.5t91 -45.5t63.5 -86.5t22.5 -132.5v-598q0 -8 6 -20l72 -146q4 -8 -2 -8h-340q-6 0 -2 8l100 148 q6 9 6 18v629q0 90 -42.5 138t-119.5 48q-86 0 -153.5 -75.5t-67.5 -178.5v-561q0 -12 6 -20l86 -146q5 -8 -2 -8h-333q-6 0 -2 8l86 146q6 12 6 20v629q0 79 -47.5 132.5t-120.5 53.5q-87 0 -150 -86.5t-63 -179.5v-549q0 -11 6 -20l96 -146q5 -8 -2 -8h-330q-8 0 -4 8 l70 146q4 8 4 20v690q0 6 -4 8z" />
<glyph unicode="n" horiz-adv-x="1189" d="M55 948q-10 5 0 8l267 111q6 2 6 -4v-176q0 -11 6 -2q118 166 346 166q168 0 259 -96.5t91 -274.5v-506q0 -6 6 -18l78 -148q4 -8 -4 -8h-350q-7 0 -2 8l106 148q6 12 6 18v539q0 120 -60 197t-167 77q-55 0 -109 -20.5t-100 -58.5t-74 -100.5t-28 -139.5v-494 q0 -6 6 -18l106 -148q5 -8 -2 -8h-352q-7 0 -2 8l78 148q6 12 6 18v682q0 8 -4 12z" />
<glyph unicode="o" horiz-adv-x="1187" d="M66 506q0 147 69 272t190.5 199t266.5 74q146 0 268 -74t192 -199t70 -272q0 -247 -147.5 -395t-382.5 -148q-233 0 -379.5 149.5t-146.5 393.5zM254 506q0 -132 39.5 -240t117.5 -174.5t181 -66.5q102 0 181 66.5t120 175t41 239.5q0 224 -92 353.5t-250 129.5 q-159 0 -248.5 -129t-89.5 -354z" />
<glyph unicode="p" horiz-adv-x="1210" d="M59 946q-10 5 0 8l267 111q6 2 6 -4v-248q0 -8 4 0q49 98 143 168t217 70q143 0 245.5 -70.5t153 -193.5t50.5 -287q0 -153 -63.5 -276.5t-173 -192t-242.5 -68.5q-97 0 -183 51t-145 148q-6 12 -6 0v-459q0 -6 6 -18l106 -148q5 -8 -2 -8h-352q-6 0 -2 8l78 148 q6 12 6 18v1167q0 7 -4 9zM322 492q0 -207 97 -337t236 -130q140 0 220.5 129t85.5 346v21q0 225 -81 343q-85 125 -218 125q-60 0 -119 -32.5t-109 -92.5t-81 -157.5t-31 -214.5z" />
<glyph unicode="q" horiz-adv-x="1200" d="M66 500q0 246 133 398.5t360 152.5q97 0 178.5 -43.5t132.5 -130.5q3 -6 9 0l155 188q3 4 5.5 2.5t2.5 -4.5v-1360q0 -4 7 -18l77 -148q4 -8 -2 -8h-352q-7 0 -2 8l107 148q6 8 6 18v461q0 12 -6 0q-59 -97 -150.5 -149t-194.5 -52q-214 0 -340 144.5t-126 392.5z M250 500q5 -227 80.5 -351t220.5 -124q139 0 237.5 130t98.5 337q0 134 -26 232.5t-72.5 155t-103.5 83t-126 26.5q-140 0 -227 -124q-82 -119 -82 -344v-21z" />
<glyph unicode="r" horiz-adv-x="690" d="M59 1006q-8 8 2 8h261q4 0 4 -6v-138q0 -3 1 -4t3 2q24 67 95 125t167 58q58 0 113 -19q3 -1 4.5 -3t1.5 -3v-2l-37 -289q0 -11 -6 -2l-162 250q-2 2 -6 2t-20.5 -8.5t-43.5 -34.5t-51 -64.5t-41.5 -110t-17.5 -159.5v-434q0 -6 6 -18l92 -148q5 -8 -2 -8h-348q-6 0 -2 8 l88 148q6 12 6 18v686q0 8 -4 12z" />
<glyph unicode="s" horiz-adv-x="958" d="M57 307q0 6 4 8l279 78q10 3 4 -6l-113 -160q-3 -3 0 -10q71 -192 289 -192q104 0 164 53q61 54 61 158q0 132 -159 188l-234 82q-103 37 -172 107t-69 169q0 108 105.5 188.5t260.5 80.5q144 0 250 -68t133 -182q0 -6 -4 -8l-252 -70q-3 -2 -5 -0.5t-1 4.5l82 145 q4 7 0 11q-56 106 -203 106q-56 0 -104 -15.5t-81.5 -52.5t-33.5 -90q0 -115 178 -180l207 -73q137 -50 195.5 -116t58.5 -171q0 -146 -114 -237t-289 -91q-184 0 -297 85t-140 259z" />
<glyph unicode="t" horiz-adv-x="446" d="M4 956v52q0 6 6 6h117q4 0 4 4v153q0 7 -4 9l-76 51q-4 4 0 6l234 98q6 2 6 -4v-313q0 -4 2 -4h162q6 0 6 -6v-52q0 -6 -6 -6h-140q-24 0 -24 -22v-819q0 -68 41 -68q18 0 32.5 11t30.5 46q2 4 6 0l50 -49q5 -5 0 -10q-66 -76 -154 -76q-85 0 -125.5 51.5t-40.5 141.5 v772q0 10 -8 16t-19 6h-94q-6 0 -6 6z" />
<glyph unicode="u" horiz-adv-x="1161" d="M45 948q-10 5 0 8l264 111l6 -4v-776q0 -118 62.5 -190t167.5 -72q74 0 143 36t116.5 111.5t47.5 173.5v518q0 6 -4 8l-109 76q-10 5 0 8l265 111l6 -4v-639q0 -114 18.5 -206t65.5 -212q1 -4 -1.5 -6t-5.5 0q-146 55 -221 133q-4 4 -8 0q-63 -79 -154 -124.5t-196 -45.5 q-170 0 -260 82t-90 246v573q0 6 -4 8z" />
<glyph unicode="v" horiz-adv-x="1060" d="M0 1008q-2 4 2 6h352q5 0 2 -6l-73 -117v-6l262 -682q18 -52 22 -76q0 -8 4 0l322 758q2 4 0 8l-70 115q-3 6 2 6h238q4 -1 2 -6q-69 -76 -125 -203l-348 -799q-3 -6 -8 -6h-138q-8 0 -8 8q-6 66 -39 146l-260 630q-64 154 -139 224z" />
<glyph unicode="w" horiz-adv-x="1521" d="M0 1008q-2 4 2 6h352q5 0 2 -6l-73 -117v-6l213 -684q7 -21 20 -74q0 -8 4 0l205 637q3 9 0 18l-20 60q-32 98 -105 166q-2 4 2 6h307q5 0 2 -6l-51 -115v-8l215 -686q0 -1 8.5 -29.5t10.5 -42.5q0 -8 4 0l252 758q2 6 0 8l-70 115q-2 4 2 6h238q4 -1 2 -6 q-68 -59 -125 -203l-279 -799q-2 -6 -8 -6h-135q-8 0 -8 8q-4 56 -25 121l-176 539q-3 6 -6 0l-219 -662q-2 -6 -9 -6h-139q-8 0 -8 8q-6 62 -27 121l-227 676q-42 120 -131 203z" />
<glyph unicode="x" horiz-adv-x="1077" d="M20 6l27 22.5t28.5 24t26 22t29 26t26.5 26t31 32t31 34.5l252 292q5 5 0 11l-192 256q-56 76 -124 150t-104 106q-6 6 4 6h377q4 -1 2 -6l-84 -107q-4 -4 0 -8l215 -287q4 -4 8 0l244 281q4 6 0 10l-117 111q-6 6 2 6h324q6 0 0 -6q-15 -15 -53.5 -51t-75.5 -73t-74 -81 l-213 -248q-5 -5 0 -10l207 -275q67 -90 135.5 -163.5t102.5 -98.5q3 -3 2 -5.5t-4 -2.5h-396q-4 1 -2 6l86 127v6l-225 295q-4 4 -8 0l-254 -293v-6l125 -129q2 -4 -2 -6h-354q-9 0 -3 6z" />
<glyph unicode="y" horiz-adv-x="980" d="M4 1008q-6 6 2 6h350q5 0 2 -6l-79 -121v-6l247 -572q25 -57 27 -63q1 -3 4 2l260 637q2 6 0 8l-72 115q-2 2 -1 4t4 2h239q4 -1 2 -6q-65 -56 -127 -203l-467 -1118q-36 -88 -84 -125q-43 -33 -110 -33h-15q-58 3 -103.5 35.5t-59.5 58.5q-3 5 2 10l172 240q6 9 6 -2 v-193q0 -59 45 -63h5q45 0 69 61l122 297q14 33 14 64t-14 59l-301 692q-78 159 -139 220z" />
<glyph unicode="z" horiz-adv-x="931" d="M41 8q34 22 79.5 74.5t78.5 110.5l432 729q7 17 1 23.5t-20 6.5h-288q-42 0 -64.5 -14.5t-44.5 -50.5l-121 -201q-3 -6 -6.5 -6t-3.5 6v361q0 5 6 2q95 -35 240 -35h551q4 -1 2 -6q-62 -71 -109 -150l-465 -782q-9 -15 6 -15h205q45 0 80.5 9.5t67.5 33t49.5 40.5 t50.5 53l127 137q4 4 7 2.5t1 -6.5l-88 -324q-2 -6 -8 -6h-764q-10 0 -2 8z" />
<glyph unicode="{" horiz-adv-x="561" d="M94 598.5q-1 1.5 0 3t4 2.5q81 29 115.5 73t30.5 124l-21 493q-3 87 41 139t125 52h125q6 0 6 -4v-56q0 -4 -6 -4h-74q-28 0 -40.5 -12.5t-12.5 -46.5v-526q0 -77 -23.5 -146t-70.5 -86q-5 -3 0 -8q47 -23 70.5 -88t23.5 -141v-529q0 -34 12.5 -46.5t40.5 -12.5h74 q6 0 6 -4v-56q0 -4 -6 -4h-125q-81 0 -125 50.5t-41 140.5l21 493q4 83 -31 128t-115 69q-3 1 -4 2.5z" />
<glyph unicode="|" horiz-adv-x="382" d="M154 -221v1644q0 7 6 7h63q6 0 6 -7v-1644q0 -6 -6 -6h-63q-6 0 -6 6z" />
<glyph unicode="}" horiz-adv-x="561" d="M41 -225q0 4 6 4h74q28 0 40.5 12.5t12.5 46.5v529q0 76 23.5 141t70.5 88q3 0 3 5q0 2 -3 3q-47 17 -70.5 86t-23.5 146v526q0 34 -12.5 46.5t-40.5 12.5h-74q-6 0 -6 4v56q0 4 6 4h125q81 0 125 -52t41 -139l-21 -493q-4 -80 30.5 -124t115.5 -73q3 -1 4 -2.5t0 -3 t-4 -2.5q-80 -24 -115 -69t-31 -128l21 -493q3 -90 -41 -140.5t-125 -50.5h-125q-6 0 -6 4v56z" />
<glyph unicode="~" horiz-adv-x="1105" d="M63 438q41 95 114 153t161 58q44 0 112 -24t127.5 -52.5t124.5 -52.5t103 -24q110 0 186 125q2 4 6 4l43 -33l2 -4q-48 -104 -115 -155.5t-143 -51.5q-57 0 -127.5 24.5t-125 53.5t-117 53.5t-105.5 24.5q-66 0 -110.5 -33t-83.5 -96q-3 -5 -6 -5l-43 31z" />
<glyph unicode="&#xa1;" horiz-adv-x="589" d="M162 918q0 54 39.5 93.5t93.5 39.5t93.5 -39.5t39.5 -93.5t-39.5 -94t-93.5 -40t-93.5 40t-39.5 94zM182 -287l74 932q0 8 6 8h64q6 0 6 -8l74 -932q3 -52 -31 -90.5t-80 -38.5q-49 0 -82.5 38t-30.5 91z" />
<glyph unicode="&#xa2;" horiz-adv-x="1130" d="M86 498q0 205 135 362.5t338 186.5q4 0 4 6v174q0 6 6 6h64q6 0 6 -6v-170q0 -6 4 -6q108 -2 202 -48t152.5 -128.5t61.5 -182.5q0 -8 -6 -8h-291q-10 0 -6 8l118 113q3 3 3 8q-15 78 -78.5 125.5t-155.5 50.5q-4 0 -4 -4v-954q0 -6 6 -6q100 3 182 69t117 164q3 6 10 2 l84 -59q6 -6 2 -11q-75 -115 -172 -168t-223 -59q-6 0 -6 -8v-170q0 -6 -6 -6h-64q-6 0 -6 6v174q0 6 -6 6q-215 20 -343 164.5t-128 368.5zM272 516q0 -186 75 -319t212 -164q4 0 4 4v938q0 4 -4 4q-131 -30 -209 -154t-78 -309z" />
<glyph unicode="&#xa3;" horiz-adv-x="1130" d="M96 8q94 128 128 223t34 228v151q0 10 -8 16.5t-19 6.5h-92q-6 0 -6 4v55q0 4 6 4h115q4 0 4 4v197q0 533 377 533q161 0 250.5 -109t89.5 -324q0 -8 -6 -8h-291q-10 0 -6 8l119 113q2 2 2 8q0 122 -44 183t-122 61q-46 0 -80 -14t-57 -43.5t-37.5 -66.5t-22 -93.5 t-10 -112.5t-2.5 -135v-197q0 -4 4 -4h379q6 0 6 -4v-55q0 -4 -6 -4h-357q-11 0 -18.5 -6.5t-7.5 -16.5v-151q0 -251 -107 -389q-6 -9 4 -9h326q125 0 211 68l252 203q4 3 7 1.5t1 -5.5l-113 -322q-2 -6 -8 -6h-893q-10 0 -2 8z" />
<glyph unicode="&#xa5;" horiz-adv-x="1308" d="M-4 1386q-3 3 0 6q0 1 2 1h403q5 -1 2 -7l-92 -120v-6l340 -574q23 -39 29 -65q0 -4 4 0l418 618q2 6 0 8l-94 139q-3 3 0 6q0 1 2 1h301q5 -1 2 -7q-15 -16 -37 -38.5t-34 -34.5t-29.5 -34t-36.5 -50l-428 -627q-17 -23 -17 -53h295q6 0 6 -6v-54q0 -6 -6 -6h-295v-143 h295q6 0 6 -6v-53q0 -7 -6 -7h-295v-102q0 -10 6 -16l111 -148q8 -8 -2 -8h-395q-10 0 -2 8l110 148q6 6 6 16v102h-293q-6 0 -6 7v53q0 6 6 6h293v123q0 14 -2 20h-291q-6 0 -6 6v54q0 6 6 6h275q-4 10 -16 29.5t-17 29.5l-340 568q-31 53 -84 117t-94 93z" />
<glyph unicode="&#xa6;" horiz-adv-x="391" d="M154 6v604q0 6 6 6h71q7 0 7 -6v-604q0 -6 -7 -6h-71q-6 0 -6 6zM154 819v604q0 7 6 7h71q7 0 7 -7v-604q0 -6 -7 -6h-71q-6 0 -6 6z" />
<glyph unicode="&#xa7;" horiz-adv-x="1122" d="M113 602q0 44 14 90t42 90.5t79 77.5t117 45q6 0 2 4q-77 62 -111 124t-31 143q3 118 80.5 186t214.5 68q151 0 234 -103q3 -5 8 0l86 74q3 4 7.5 3.5t4.5 -7.5v-404q0 -2 -2 -5t-5.5 -2t-6.5 7q-9 21 -29 65t-29.5 64.5t-27.5 57t-30 54t-31.5 44.5t-37 40t-40 27 t-47.5 19.5t-54 5.5q-69 0 -115 -41.5t-49 -97.5q-2 -35 6 -61.5t33 -52t50 -43.5t77 -50l277 -174q107 -67 159 -138t52 -169q0 -60 -23 -118t-82 -111t-147 -74q-7 0 0 -7q142 -103 139 -258q-3 -119 -81 -189.5t-214 -70.5q-150 0 -233 103q-4 5 -9 0l-86 -74 q-3 -4 -7.5 -3.5t-4.5 7.5v404q0 2 2 5t5.5 2t6.5 -7q9 -21 29 -65t29.5 -64.5t27.5 -57t30 -54t31.5 -44.5t37 -40t40 -27t47.5 -19.5t54 -5.5q69 0 115 41.5t49 97.5q2 35 -6 61.5t-33 52t-50 43.5t-77 50l-276 174q-107 67 -159 138t-52 169zM254 674q0 -73 44.5 -129.5 t133.5 -110.5l242 -147q4 -2 12 -2q182 18 182 186q0 73 -44.5 129.5t-133.5 110.5l-241 147q-2 2 -9 2q-89 0 -137.5 -50.5t-48.5 -135.5z" />
<glyph unicode="&#xa8;" horiz-adv-x="878" d="M123 1143q0 42 34.5 77t78.5 35t78 -35t34 -77q0 -45 -33.5 -79t-78.5 -34t-79 34t-34 79zM530 1143q0 42 34.5 77t78.5 35t78.5 -35t34.5 -77q0 -45 -34 -79t-79 -34t-79 34t-34 79z" />
<glyph unicode="&#xa9;" horiz-adv-x="1675" d="M113 700q0 198 96.5 366.5t263.5 267t365 98.5q149 0 284 -58t231.5 -156.5t153 -233.5t56.5 -284q0 -199 -96 -366.5t-263 -265t-366 -97.5q-148 0 -282.5 57.5t-231.5 155.5t-154 232.5t-57 283.5zM193 698q0 -136 52.5 -260t140 -213t206 -141.5t246.5 -52.5 q129 0 248.5 52.5t208 141.5t141.5 213t53 260q0 183 -89.5 337.5t-239 243.5t-322.5 89q-128 0 -247 -53t-206.5 -142.5t-139.5 -214t-52 -260.5zM383 698q0 141 61.5 257.5t175.5 185.5t259 69q154 0 257.5 -84.5t120.5 -234.5q0 -8 -6 -8h-213q-8 0 -4 8l74 98q2 2 2 8 q-12 70 -76 113t-155 43q-149 0 -239.5 -126t-90.5 -329q0 -67 13.5 -131.5t41 -122t66.5 -100.5t94.5 -68.5t120.5 -25.5q93 0 151 54t72 122q0 6 -2 8l-62 84q-4 8 5 8h213q6 0 6 -8q-15 -60 -44 -113.5t-76 -103t-119 -79t-161 -29.5q-229 0 -357 135t-128 370z" />
<glyph unicode="&#xab;" horiz-adv-x="866" d="M92 424v119q0 4 4 6l318 180q4 -3 4 -4v-82q0 -6 -4 -8l-238 -133q-4 -2 -4 -6v-29q0 -4 4 -6l238 -135q4 -2 4 -9v-81q0 -4 -1 -4.5t-3 -0.5l-318 187q-4 2 -4 6zM428 424v119q0 4 4 6l318 180q4 -3 4 -4v-82q0 -6 -4 -8l-238 -133q-4 -2 -4 -6v-29q0 -4 4 -6l238 -135 q4 -2 4 -9v-81q0 -4 -1 -4.5t-3 -0.5l-318 187q-4 2 -4 6z" />
<glyph unicode="&#xac;" horiz-adv-x="1282" d="M41 950v60q0 4 6 4h940q43 0 43 -43v-811q0 -6 -6 -6h-72q-6 0 -6 6v768q0 18 -18 18h-881q-6 0 -6 4z" />
<glyph unicode="&#xad;" horiz-adv-x="559" d="M51 483v60q0 4 6 4h445q6 0 6 -4v-60q0 -4 -6 -4h-445q-6 0 -6 4z" />
<glyph unicode="&#xae;" horiz-adv-x="1675" d="M113 700q0 198 96.5 366.5t263.5 267t365 98.5q149 0 284 -58t231.5 -156.5t153 -233.5t56.5 -284q0 -199 -96 -366.5t-263 -265t-366 -97.5q-148 0 -282.5 57.5t-231.5 155.5t-154 232.5t-57 283.5zM193 698q0 -136 52.5 -260t140 -213t206 -141.5t246.5 -52.5 q129 0 248.5 52.5t208 141.5t141.5 213t53 260q0 183 -89.5 337.5t-239 243.5t-322.5 89q-128 0 -247 -53t-206.5 -142.5t-139.5 -214t-52 -260.5zM444 256l66 90q6 6 6 14v678q0 3 -6 15l-64 116q-4 7 5 7h417q61 0 115 -12t101 -37t74.5 -70.5t27.5 -106.5q0 -90 -57 -150 t-119 -71v-4q92 -17 142 -74t50 -145v-148q0 -3 6 -12l64 -88q5 -8 -2 -8h-213q-6 0 -6 8v227q0 106 -54 156.5t-147 50.5h-141q-24 0 -38 -14.5t-14 -40.5v-277q0 -9 5 -14l67 -90q5 -2 2 -5l-4 -1h-281q-4 1 -2 6zM657 799q0 -26 14 -41t38 -15h141q73 0 125.5 54 t52.5 153q0 83 -53 128.5t-135 45.5h-176q-7 0 -7 -8v-317z" />
<glyph unicode="&#xaf;" horiz-adv-x="837" d="M154 1171v60q0 4 6 4h518q6 0 6 -4v-60q0 -4 -6 -4h-518q-6 0 -6 4z" />
<glyph unicode="&#xb0;" horiz-adv-x="708" d="M102 1178q0 103 75.5 177.5t178.5 74.5t176.5 -74.5t73.5 -177.5q0 -105 -73.5 -178.5t-176.5 -73.5q-104 0 -179 73.5t-75 178.5zM170 1178q0 -74 55.5 -129.5t130.5 -55.5q73 0 128 55.5t55 129.5q0 75 -54.5 129.5t-128.5 54.5q-75 0 -130.5 -54.5t-55.5 -129.5z" />
<glyph unicode="&#xb1;" horiz-adv-x="997" d="M72 4v59q0 5 6 5h842q6 0 6 -5v-59q0 -4 -6 -4h-842q-6 0 -6 4zM72 573v60q0 4 6 4h375q4 0 4 4v367q0 6 6 6h72q6 0 6 -6v-367q0 -4 4 -4h375q6 0 6 -4v-60q0 -4 -6 -4h-375q-4 0 -4 -4v-366q0 -6 -6 -6h-72q-6 0 -6 6v366q0 4 -4 4h-375q-6 0 -6 4z" />
<glyph unicode="&#xb2;" horiz-adv-x="888" d="M141 616l295 353q74 88 102.5 142t28.5 112q0 67 -40 100t-93 33q-72 0 -103.5 -65t1.5 -156q2 -5 -4 -5l-146 23q-6 0 -6 8q0 44 15 89t45 86.5t82.5 67.5t119.5 26q118 0 188 -53.5t70 -151.5q0 -34 -3.5 -57.5t-15.5 -59.5t-41 -79.5t-75 -98.5l-215 -252q-2 -4 2 -6 h101q59 0 86.5 12t62.5 47l115 117q4 4 7 2.5t1 -6.5l-66 -228q-2 -6 -8 -6h-500q-6 0 -6 6z" />
<glyph unicode="&#xb3;" horiz-adv-x="935" d="M174 831q0 7 4 7l144 39q2 0 2 -3q0 -88 41.5 -138t105.5 -50q55 0 93.5 45t39.5 115q1 87 -45 129.5t-119 42.5h-84q-2 0 -2 2v65q0 2 2 2h86q54 0 88.5 41t34.5 111q0 62 -33.5 92.5t-72.5 30.5q-52 0 -82.5 -43.5t-32.5 -110.5q0 -4 -4 -4l-139 39q-2 0 -2 6 q56 181 268 181q64 0 119.5 -18.5t95 -63.5t39.5 -109q0 -59 -36 -103t-93 -69q-8 -4 0 -4q75 -26 122.5 -78.5t47.5 -130.5q0 -107 -86 -175.5t-207 -68.5q-122 0 -195 52.5t-100 168.5z" />
<glyph unicode="&#xb4;" horiz-adv-x="630" d="M125 1055l213 282q44 56 92 56q36 0 57 -21t21 -51q0 -32 -14.5 -52.5t-49.5 -47.5l-237 -166q-6 -4 -12 -4h-68z" />
<glyph unicode="&#xb5;" horiz-adv-x="1239" d="M96.5 -465.5q-0.5 1.5 0.5 3.5t3 3l109 105q4 2 4 8v1210q0 6 -4 8l-109 76q-10 5 0 8l265 111l6 -4v-739q0 -133 59.5 -216t169.5 -83q74 0 143 36t116.5 111.5t47.5 173.5v518q0 6 -4 8l-108 76q-10 5 0 8l264 111l6 -4v-639q0 -120 16 -206t68 -212q3 -10 -6 -4 l-232 123q-3 3 -6 0q-139 -162 -342 -162q-124 0 -188 55q-4 4 -4 0v-481q0 -4 -6 -4h-265q-3 0 -3.5 1.5z" />
<glyph unicode="&#xb6;" horiz-adv-x="1181" d="M51 1081q0 131 86 220.5t209 91.5h733q4 0 4.5 -3t-2.5 -6l-110 -147q-6 -6 -6 -16v-1049q0 -10 6 -16l110 -148q8 -8 -2 -8h-395q-10 0 -2 8l111 148q6 6 6 16v1096q0 29 -17 46t-45 17h-174q-28 0 -44.5 -17t-16.5 -46v-1096q0 -10 6 -16l110 -148q8 -8 -2 -8h-395 q-10 0 -2 8l111 148q6 6 6 16v614q0 7 -4 7q-120 6 -200.5 80.5t-80.5 207.5z" />
<glyph unicode="&#xb7;" horiz-adv-x="573" d="M154 510q0 54 39.5 93.5t93.5 39.5t93.5 -39.5t39.5 -93.5t-39.5 -93.5t-93.5 -39.5t-93.5 39.5t-39.5 93.5z" />
<glyph unicode="&#xb8;" horiz-adv-x="1705" d="M541 -395l28 53q2 4 9 2q63 -29 129 -29q106 0 106 88q0 34 -25 55t-59 21q-43 0 -76 -8h-8l-10 6l-2 6l69 162q3 6 -4 6h82q-4 0 -4 -4l-37 -94q-2 -4 2 -4q27 6 56 6q72 0 121 -35.5t49 -99.5q0 -48 -23.5 -84t-61.5 -55t-77 -28t-78 -9q-114 0 -184 39q-2 1 -2 6z" />
<glyph unicode="&#xb9;" horiz-adv-x="817" d="M210.5 617q-0.5 3 2.5 6l113 75q6 6 6 17v547q0 6 -4 8h-113q-7 3 0 8l266 152q6 4 6 -5v-710q0 -10 7 -17l110 -75q2 -2 2.5 -4t-0.5 -3.5t-4 -1.5h-387q-4 0 -4.5 3z" />
<glyph unicode="&#xbb;" horiz-adv-x="866" d="M113 236v81q0 7 4 9l237 135q4 2 4 6v29q0 4 -4 6l-237 133q-4 2 -4 8v82q0 3 0.5 3.5t2.5 0.5h1l317 -180q4 -2 4 -6v-119q0 -4 -4 -6l-317 -187q-4 3 -4 5zM449 236v81q0 7 4 9l237 135q4 2 4 6v29q0 4 -4 6l-237 133q-4 2 -4 8v82q0 3 0.5 3.5t2.5 0.5h1l317 -180 q4 -2 4 -6v-119q0 -4 -4 -6l-317 -187q-4 3 -4 5z" />
<glyph unicode="&#xbc;" horiz-adv-x="1599" d="M210.5 617q-0.5 3 2.5 6l113 75q6 6 6 17v547q0 6 -4 8h-113q-7 3 0 8l266 152q6 4 6 -5v-710q0 -10 7 -17l110 -75q2 -2 2.5 -4t-0.5 -3.5t-4 -1.5h-387q-4 0 -4.5 3zM231 6q-4 -6 5 -6h81q9 0 9 6q604 778 1075 1380q5 7 -4 7h-82q-8 0 -8 -7q-150 -200 -497.5 -645 t-578.5 -735zM922 229v56l4 10l301 491q5 7 10 7h160q6 0 6 -7v-499h24q20 0 33 10l70 55q8 5 8 -2v-184q0 -7 -8 -2l-70 51q-17 10 -33 10h-24v-123q0 -8 4 -16l45 -78q4 -8 -2 -8h-256q-5 0 -2 8l41 78q4 6 4 16v123h-311q-4 0 -4 4zM989 293q-3 -6 2 -6h246v407z" />
<glyph unicode="&#xbd;" horiz-adv-x="1624" d="M210.5 617q-0.5 3 2.5 6l113 75q6 6 6 17v547q0 6 -4 8h-113q-7 3 0 8l266 152q6 4 6 -5v-710q0 -10 7 -17l110 -75q2 -2 2.5 -4t-0.5 -3.5t-4 -1.5h-387q-4 0 -4.5 3zM231 6q-4 -6 5 -6h81q9 0 9 6q604 778 1075 1380q5 7 -4 7h-82q-8 0 -8 -7q-150 -200 -497.5 -645 t-578.5 -735zM963 6l294 352q74 89 103 142.5t29 111.5q0 67 -40.5 100t-93.5 33q-72 0 -103.5 -65t1.5 -156q1 -3 1 -3.5t-5 -0.5l-145 23q-7 0 -7 8q0 44 15 89t45 86t83 67t120 26q118 0 188 -53.5t70 -151.5q0 -68 -24.5 -130t-111.5 -165l-215 -251q-3 -3 0 -6 q0 -1 2 -1h101q59 0 86.5 12.5t62.5 47.5l115 117q4 4 7 2t1 -7l-65 -227q-2 -6 -9 -6h-499q-6 0 -6 6z" />
<glyph unicode="&#xbe;" horiz-adv-x="1703" d="M174 831q0 7 4 7l144 39q2 0 2 -3q0 -88 41.5 -138t105.5 -50q55 0 93.5 45t39.5 115q1 87 -45 129.5t-119 42.5h-84q-2 0 -2 2v65q0 2 2 2h86q54 0 88.5 41t34.5 111q0 62 -33.5 92.5t-72.5 30.5q-52 0 -82.5 -43.5t-32.5 -110.5q0 -4 -4 -4l-139 39q-2 0 -2 6 q56 181 268 181q64 0 119.5 -18.5t95 -63.5t39.5 -109q0 -59 -36 -103t-93 -69q-8 -4 0 -4q75 -26 122.5 -78.5t47.5 -130.5q0 -107 -86 -175.5t-207 -68.5q-122 0 -195 52.5t-100 168.5zM336 6q-4 -6 4 -6h82q8 0 8 6q604 778 1075 1380q5 7 -4 7h-82q-8 0 -8 -7 q-151 -202 -500 -649.5t-575 -730.5zM1026 229v56l4 10l301 491q5 7 10 7h160q6 0 6 -7v-499h25q20 0 33 10l69 55q8 5 8 -2v-184q0 -7 -8 -2l-69 51q-17 10 -33 10h-25v-123q0 -8 4 -16l45 -78q4 -8 -2 -8h-256q-5 0 -2 8l41 78q4 6 4 16v123h-311q-4 0 -4 4zM1094 293 q-3 -6 2 -6h245v407z" />
<glyph unicode="&#xbf;" horiz-adv-x="1017" d="M61 -66q0 131 76 242t252 232q83 57 98.5 75t18.5 56l12 137q0 4 4 4h64q6 0 6 -4l26 -256q2 -19 -3 -28.5t-25 -24.5l-174 -131q-91 -68 -132.5 -142t-41.5 -172q0 -116 75 -193t197 -77q111 0 176.5 65t65.5 168q0 9 -4 13l-111 118q-2 3 0 6t6 3h305q6 0 6 -9 q0 -81 -28 -156.5t-82 -138t-142.5 -100t-199.5 -37.5q-201 0 -323 95t-122 255zM420 918q0 54 39.5 93.5t93.5 39.5t93.5 -39.5t39.5 -93.5t-39.5 -94t-93.5 -40t-93.5 40t-39.5 94z" />
<glyph unicode="&#xc0;" d="M8 7q1 3 4 5l56 43q89 70 116 135l408 1020q0 4 -2 4l-170 70q-5 2 -5.5 5.5t3.5 6.5l233 148q9 9 13 -2q47 -110 114 -252l400 -903q16 -36 31.5 -65t33.5 -53.5t29.5 -39.5t33.5 -34.5t31.5 -27.5t37 -29t36.5 -28q4 -3 3.5 -6.5t-5.5 -3.5h-428q-9 0 -4 10l76 131 q4 8 2 13l-144 323q-6 15 -11.5 22.5t-19 14t-34.5 6.5h-455q-9 0 -12 -10l-137 -354q-5 -10 2 -17l127 -129q2 -2 2.5 -4.5t-0.5 -4t-4 -1.5h-355q-4 0 -5.5 2t-0.5 5zM246 1782q0 30 21 50.5t57 20.5q49 0 92 -55l213 -282q4 -5 -2 -5h-68q-5 0 -12 5l-238 165 q-35 27 -49 48t-14 53zM410 590q-4 -8 4 -8h411q18 0 24.5 14t-1.5 29l-223 512z" />
<glyph unicode="&#xc1;" d="M8 7q1 3 4 5l56 43q89 70 116 135l408 1020q0 4 -2 4l-170 70q-5 2 -5.5 5.5t3.5 6.5l233 148q9 9 13 -2q47 -110 114 -252l400 -903q16 -36 31.5 -65t33.5 -53.5t29.5 -39.5t33.5 -34.5t31.5 -27.5t37 -29t36.5 -28q4 -3 3.5 -6.5t-5.5 -3.5h-428q-9 0 -4 10l76 131 q4 8 2 13l-144 323q-6 15 -11.5 22.5t-19 14t-34.5 6.5h-455q-9 0 -12 -10l-137 -354q-5 -10 2 -17l127 -129q2 -2 2.5 -4.5t-0.5 -4t-4 -1.5h-355q-4 0 -5.5 2t-0.5 5zM410 590q-4 -8 4 -8h411q18 0 24.5 14t-1.5 29l-223 512zM535 1516l213 282q43 55 92 55q36 0 57 -20.5 t21 -50.5q0 -32 -14.5 -53t-49.5 -48l-238 -165q-8 -5 -12 -5h-67z" />
<glyph unicode="&#xc2;" d="M8 7q1 3 4 5l56 43q89 70 116 135l408 1020q0 4 -2 4l-170 70q-5 2 -5.5 5.5t3.5 6.5l233 148q9 9 13 -2q47 -110 114 -252l400 -903q16 -36 31.5 -65t33.5 -53.5t29.5 -39.5t33.5 -34.5t31.5 -27.5t37 -29t36.5 -28q4 -3 3.5 -6.5t-5.5 -3.5h-428q-9 0 -4 10l76 131 q4 8 2 13l-144 323q-6 15 -11.5 22.5t-19 14t-34.5 6.5h-455q-9 0 -12 -10l-137 -354q-5 -10 2 -17l127 -129q2 -2 2.5 -4.5t-0.5 -4t-4 -1.5h-355q-4 0 -5.5 2t-0.5 5zM346 1511l250 334q4 4 8 4h117q4 0 8 -4l246 -334q2 -4 -2 -4h-60q-4 0 -8 4l-241 205q-4 4 -7 0 l-241 -205q-4 -4 -8 -4h-60zM410 590q-4 -8 4 -8h411q18 0 24.5 14t-1.5 29l-223 512z" />
<glyph unicode="&#xc3;" d="M8 7q1 3 4 5l56 43q89 70 116 135l408 1020q0 4 -2 4l-170 70q-5 2 -5.5 5.5t3.5 6.5l233 148q9 9 13 -2q47 -110 114 -252l400 -903q16 -36 31.5 -65t33.5 -53.5t29.5 -39.5t33.5 -34.5t31.5 -27.5t37 -29t36.5 -28q4 -3 3.5 -6.5t-5.5 -3.5h-428q-9 0 -4 10l76 131 q4 8 2 13l-144 323q-6 15 -11.5 22.5t-19 14t-34.5 6.5h-455q-9 0 -12 -10l-137 -354q-5 -10 2 -17l127 -129q2 -2 2.5 -4.5t-0.5 -4t-4 -1.5h-355q-4 0 -5.5 2t-0.5 5zM289 1575q21 99 75 161t144 62q35 0 71 -18.5t61 -41t59.5 -41t66.5 -18.5q66 0 102 111q2 4 6 4h52 l2 -4q-20 -96 -73.5 -160.5t-141.5 -64.5q-40 0 -80 19t-67 41.5t-58 41.5t-55 19q-38 0 -66.5 -34t-38.5 -77q-2 -4 -6 -4h-51zM410 590q-4 -8 4 -8h411q18 0 24.5 14t-1.5 29l-223 512z" />
<glyph unicode="&#xc4;" d="M8 7q1 3 4 5l56 43q89 70 116 135l408 1020q0 4 -2 4l-170 70q-5 2 -5.5 5.5t3.5 6.5l233 148q9 9 13 -2q47 -110 114 -252l400 -903q16 -36 31.5 -65t33.5 -53.5t29.5 -39.5t33.5 -34.5t31.5 -27.5t37 -29t36.5 -28q4 -3 3.5 -6.5t-5.5 -3.5h-428q-9 0 -4 10l76 131 q4 8 2 13l-144 323q-6 15 -11.5 22.5t-19 14t-34.5 6.5h-455q-9 0 -12 -10l-137 -354q-5 -10 2 -17l127 -129q2 -2 2.5 -4.5t-0.5 -4t-4 -1.5h-355q-4 0 -5.5 2t-0.5 5zM330 1681q0 42 34 77.5t78 35.5t78.5 -35.5t34.5 -77.5q0 -45 -33.5 -78.5t-79.5 -33.5 q-45 0 -78.5 33.5t-33.5 78.5zM410 590q-4 -8 4 -8h411q18 0 24.5 14t-1.5 29l-223 512zM737 1681q0 42 34.5 77.5t78.5 35.5t78.5 -35.5t34.5 -77.5q0 -45 -33.5 -78.5t-79.5 -33.5t-79.5 33.5t-33.5 78.5z" />
<glyph unicode="&#xc5;" d="M8 7q1 3 4 5l56 43q89 70 116 135l408 1020q0 4 -2 4l-170 70q-5 2 -5.5 5.5t3.5 6.5l233 148q9 9 13 -2q47 -110 114 -252l400 -903q16 -36 31.5 -65t33.5 -53.5t29.5 -39.5t33.5 -34.5t31.5 -27.5t37 -29t36.5 -28q4 -3 3.5 -6.5t-5.5 -3.5h-428q-9 0 -4 10l76 131 q4 8 2 13l-144 323q-6 15 -11.5 22.5t-19 14t-34.5 6.5h-455q-9 0 -12 -10l-137 -354q-5 -10 2 -17l127 -129q2 -2 2.5 -4.5t-0.5 -4t-4 -1.5h-355q-4 0 -5.5 2t-0.5 5zM410 590q-4 -8 4 -8h411q18 0 24.5 14t-1.5 29l-223 512zM442 1681q0 72 52 124.5t124 52.5 t123.5 -52.5t51.5 -124.5t-51.5 -123t-123.5 -51t-124 51t-52 123zM508 1681q0 -43 33 -75.5t77 -32.5q43 0 76 32.5t33 75.5q0 44 -33 77.5t-76 33.5q-44 0 -77 -33.5t-33 -77.5z" />
<glyph unicode="&#xc6;" horiz-adv-x="2232" d="M-15.5 4q0.5 2 3.5 4l37 25q142 93 221 196l778 1045q8 10 -4 16l-133 94q-2 2 -2.5 4t0.5 3.5t4 1.5h919h20.5h22t22 0.5t24 1t23 1.5t25 2.5t24.5 3.5t26.5 5t25.5 7t27 9q6 3 6 -2v-383q0 -6 -3.5 -6t-6.5 6l-127 215q-31 53 -53.5 65.5t-75.5 12.5h-492q-12 0 -20 -9 t-8 -22v-471q0 -29 16.5 -46t44.5 -17h336q39 0 63 10t50 39l116 125q3 4 6 2.5t3 -4.5v-426q0 -6 -4 -7t-7 5l-120 149q-37 46 -107 46h-336q-28 0 -44.5 -17.5t-16.5 -46.5v-557q0 -23 18 -23h406q125 0 211 68l251 203q5 3 7.5 1.5t1.5 -5.5l-113 -322q-2 -6 -8 -6h-1055 q-10 0 -2 8l111 148q6 6 6 16v305q-1 11 -2.5 17t-6 13t-14.5 10t-26 3h-496q-9 0 -16 -10l-260 -354q-9 -12 -2 -23l77 -123q3 -3 1 -6.5t-7 -3.5h-358q-4 0 -6 1t-1.5 3zM600 582h453q49 0 49 51v602q0 14 -8 14t-13 -8l-481 -651q-4 -8 0 -8z" />
<glyph unicode="&#xc7;" horiz-adv-x="1574" d="M121 692q0 150 58 287t156 235.5t234.5 157t286.5 58.5q272 0 442 -162q6 -4 11 2l102 94q14 9 14 -4v-522q0 -2 -2 -5.5t-5 -2.5t-5 8q-40 152 -129.5 273t-202 186t-225.5 65q-150 0 -276.5 -90t-198.5 -244.5t-68 -335.5q5 -182 77.5 -333.5t195.5 -239.5t270 -88 q79 0 153.5 28t134 74.5t112.5 109t91 128t66 135.5q3 6 6.5 4t3.5 -6v-496q0 -11 -10 -4l-108 100q-5 6 -11 0q-173 -129 -385 -139q-4 0 -6 -4l-37 -94q-2 -4 2 -4q27 6 56 6q72 0 121 -35.5t49 -99.5q0 -48 -23.5 -84t-61.5 -55t-77 -28t-78 -9q-114 0 -184 39q-2 1 -2 6 l28 53q2 4 9 2q63 -29 129 -29q106 0 106 88q0 34 -25 55t-59 21q-43 0 -76 -8h-8l-10 6l-2 6l69 162q3 6 -4 6q-143 5 -273 63t-224.5 153t-150.5 228.5t-56 282.5z" />
<glyph unicode="&#xc8;" horiz-adv-x="1347" d="M97.5 1388q-0.5 2 0.5 3.5t4 1.5h822h20.5h22t21.5 0.5t23.5 1t23 1.5t25.5 2.5t24.5 3.5t26 5t25.5 7t27 9q6 3 6 -2v-383q0 -6 -3.5 -6t-6.5 6l-127 215q-31 53 -53.5 65.5t-75.5 12.5h-491q-12 0 -20.5 -9t-8.5 -22v-471q0 -29 16.5 -46t44.5 -17h336q39 0 63 10 t50 39l117 125q3 4 5.5 3t2.5 -5v-426q0 -6 -3.5 -7t-6.5 5l-121 149q-37 46 -107 46h-336q-28 0 -44.5 -17.5t-16.5 -46.5v-557q0 -23 18 -23h406q125 0 211 68l252 203q4 3 7 1.5t1 -5.5l-113 -322q-2 -6 -8 -6h-1055q-10 0 -2 8l111 148q6 6 6 16v1049q0 10 -6 16 l-111 147q-2 2 -2.5 4zM408 1782q0 30 20.5 50.5t56.5 20.5q50 0 93 -55l213 -282q3 -5 -3 -5h-67q-5 0 -12 5l-238 165q-35 27 -49 48t-14 53z" />
<glyph unicode="&#xc9;" horiz-adv-x="1347" d="M97.5 1388q-0.5 2 0.5 3.5t4 1.5h822h20.5h22t21.5 0.5t23.5 1t23 1.5t25.5 2.5t24.5 3.5t26 5t25.5 7t27 9q6 3 6 -2v-383q0 -6 -3.5 -6t-6.5 6l-127 215q-31 53 -53.5 65.5t-75.5 12.5h-491q-12 0 -20.5 -9t-8.5 -22v-471q0 -29 16.5 -46t44.5 -17h336q39 0 63 10 t50 39l117 125q3 4 5.5 3t2.5 -5v-426q0 -6 -3.5 -7t-6.5 5l-121 149q-37 46 -107 46h-336q-28 0 -44.5 -17.5t-16.5 -46.5v-557q0 -23 18 -23h406q125 0 211 68l252 203q4 3 7 1.5t1 -5.5l-113 -322q-2 -6 -8 -6h-1055q-10 0 -2 8l111 148q6 6 6 16v1049q0 10 -6 16 l-111 147q-2 2 -2.5 4zM475 1516l213 282q43 55 92 55q36 0 57 -20.5t21 -50.5q0 -32 -14 -53t-49 -48l-238 -165q-8 -5 -12 -5h-68z" />
<glyph unicode="&#xca;" horiz-adv-x="1347" d="M97.5 1388q-0.5 2 0.5 3.5t4 1.5h822h20.5h22t21.5 0.5t23.5 1t23 1.5t25.5 2.5t24.5 3.5t26 5t25.5 7t27 9q6 3 6 -2v-383q0 -6 -3.5 -6t-6.5 6l-127 215q-31 53 -53.5 65.5t-75.5 12.5h-491q-12 0 -20.5 -9t-8.5 -22v-471q0 -29 16.5 -46t44.5 -17h336q39 0 63 10 t50 39l117 125q3 4 5.5 3t2.5 -5v-426q0 -6 -3.5 -7t-6.5 5l-121 149q-37 46 -107 46h-336q-28 0 -44.5 -17.5t-16.5 -46.5v-557q0 -23 18 -23h406q125 0 211 68l252 203q4 3 7 1.5t1 -5.5l-113 -322q-2 -6 -8 -6h-1055q-10 0 -2 8l111 148q6 6 6 16v1049q0 10 -6 16 l-111 147q-2 2 -2.5 4zM352 1516l250 333q4 4 8 4h117q4 0 8 -4l246 -333q2 -5 -2 -5h-59q-4 0 -9 5l-241 204q-3 3 -6 0l-242 -204q-5 -5 -8 -5h-60z" />
<glyph unicode="&#xcb;" horiz-adv-x="1347" d="M97.5 1388q-0.5 2 0.5 3.5t4 1.5h822h20.5h22t21.5 0.5t23.5 1t23 1.5t25.5 2.5t24.5 3.5t26 5t25.5 7t27 9q6 3 6 -2v-383q0 -6 -3.5 -6t-6.5 6l-127 215q-31 53 -53.5 65.5t-75.5 12.5h-491q-12 0 -20.5 -9t-8.5 -22v-471q0 -29 16.5 -46t44.5 -17h336q39 0 63 10 t50 39l117 125q3 4 5.5 3t2.5 -5v-426q0 -6 -3.5 -7t-6.5 5l-121 149q-37 46 -107 46h-336q-28 0 -44.5 -17.5t-16.5 -46.5v-557q0 -23 18 -23h406q125 0 211 68l252 203q4 3 7 1.5t1 -5.5l-113 -322q-2 -6 -8 -6h-1055q-10 0 -2 8l111 148q6 6 6 16v1049q0 10 -6 16 l-111 147q-2 2 -2.5 4zM356 1683q0 42 34.5 77.5t78.5 35.5t78.5 -35.5t34.5 -77.5q0 -45 -34 -78.5t-79 -33.5t-79 33.5t-34 78.5zM764 1683q0 42 34.5 77.5t78.5 35.5t78 -35.5t34 -77.5q0 -45 -33.5 -78.5t-78.5 -33.5t-79 33.5t-34 78.5z" />
<glyph unicode="&#xcc;" horiz-adv-x="600" d="M-43 1782q0 30 21 50.5t57 20.5q49 0 92 -55l213 -282q4 -5 -2 -5h-68q-4 0 -12 5l-238 165q-35 27 -49 48t-14 53zM97.5 1388q-0.5 2 0.5 3.5t4 1.5h396q4 0 4.5 -3t-2.5 -6l-111 -147q-6 -6 -6 -16v-1049q0 -10 6 -16l111 -148q8 -8 -2 -8h-396q-10 0 -2 8l111 148 q6 6 6 16v1049q0 10 -6 16l-111 147q-2 2 -2.5 4z" />
<glyph unicode="&#xcd;" horiz-adv-x="600" d="M97.5 1388q-0.5 2 0.5 3.5t4 1.5h396q4 0 4.5 -3t-2.5 -6l-111 -147q-6 -6 -6 -16v-1049q0 -10 6 -16l111 -148q8 -8 -2 -8h-396q-10 0 -2 8l111 148q6 6 6 16v1049q0 10 -6 16l-111 147q-2 2 -2.5 4zM266 1516l213 282q43 55 92 55q36 0 57 -20.5t21 -50.5 q0 -32 -14 -53t-49 -48l-238 -165q-8 -5 -12 -5h-68z" />
<glyph unicode="&#xce;" horiz-adv-x="600" d="M-12 1516l250 333q4 4 8 4h116q5 0 9 -4l245 -333q2 -5 -2 -5h-59q-3 0 -8 5l-242 204q-3 3 -6 0l-242 -204q-5 -5 -8 -5h-59zM97.5 1388q-0.5 2 0.5 3.5t4 1.5h396q4 0 4.5 -3t-2.5 -6l-111 -147q-6 -6 -6 -16v-1049q0 -10 6 -16l111 -148q8 -8 -2 -8h-396q-10 0 -2 8 l111 148q6 6 6 16v1049q0 10 -6 16l-111 147q-2 2 -2.5 4z" />
<glyph unicode="&#xcf;" horiz-adv-x="600" d="M-14 1683q0 42 34 77.5t78 35.5t78.5 -35.5t34.5 -77.5q0 -45 -33.5 -78.5t-79.5 -33.5q-45 0 -78.5 33.5t-33.5 78.5zM97.5 1388q-0.5 2 0.5 3.5t4 1.5h396q4 0 4.5 -3t-2.5 -6l-111 -147q-6 -6 -6 -16v-1049q0 -10 6 -16l111 -148q8 -8 -2 -8h-396q-10 0 -2 8l111 148 q6 6 6 16v1049q0 10 -6 16l-111 147q-2 2 -2.5 4zM393 1683q0 42 34.5 77.5t78.5 35.5t78 -35.5t34 -77.5q0 -45 -33.5 -78.5t-78.5 -33.5q-46 0 -79.5 33.5t-33.5 78.5z" />
<glyph unicode="&#xd0;" horiz-adv-x="1525" d="M97.5 1388q-0.5 2 0.5 3.5t4 1.5h525q378 0 582 -181t204 -507q0 -316 -212 -510.5t-550 -194.5h-549q-10 0 -2 8l111 148q6 6 6 16v500q0 6 -6 6h-102q-7 0 -7 6v55q0 6 7 6h102q6 0 6 7v469q0 10 -6 16l-111 147q-2 2 -2.5 4zM383 92q0 -13 8.5 -22t20.5 -9h219 q283 0 440.5 169t163.5 475q3 154 -42 274.5t-128.5 196.5t-196.5 115.5t-250 39.5h-206q-12 0 -20.5 -9t-8.5 -22v-548q0 -7 6 -7h215q6 0 6 -6v-55q0 -6 -6 -6h-215q-6 0 -6 -6v-580z" />
<glyph unicode="&#xd1;" horiz-adv-x="1507" d="M100 1386l144 -141q3 -3 4.5 -7t1.5 -6v-3v-1057q0 -10 -6 -16l-111 -148q-8 -8 2 -8h297q10 0 2 8l-110 148q-7 7 -7 16v963l5 2l567 -807q170 -243 190 -324q0 -6 6 -6h258q3 0 4.5 2.5t-1.5 5.5l-50 64q-3 3 -4.5 7t-1.5 7v2v1133q0 10 6 16l111 147q2 2 2.5 4 t-0.5 3.5t-4 1.5h-297q-4 0 -4.5 -3t2.5 -6l111 -147q6 -6 6 -16v-1069q0 -6 -4 -2l-713 1024q-94 138 -131 215q-2 4 -8 4h-263q-11 0 -4 -7zM479 1575q21 99 75 161t144 62q35 0 71 -18.5t61 -41t59.5 -41t66.5 -18.5q67 0 103 111q2 4 6 4h51l2 -4q-20 -96 -73.5 -160.5 t-141.5 -64.5q-40 0 -80 19t-67 41.5t-58 41.5t-55 19q-38 0 -66 -33.5t-38 -77.5q-2 -4 -7 -4h-51z" />
<glyph unicode="&#xd2;" horiz-adv-x="1695" d="M113 692q0 150 58 287t156 235.5t234.5 157t286.5 58.5q201 0 370 -97.5t267 -267.5t98 -373q0 -158 -58.5 -295.5t-158.5 -231.5t-234.5 -148t-283.5 -54t-283.5 54t-234.5 148t-158.5 231.5t-58.5 295.5zM299 692q0 -134 47 -258t123.5 -211.5t176.5 -139.5t202 -52 q158 0 284 88t195.5 239t69.5 334q0 178 -78.5 333.5t-205 246t-265.5 90.5q-161 0 -287.5 -89.5t-194 -241.5t-67.5 -339zM512 1782q0 30 21 50.5t57 20.5q49 0 92 -55l213 -282q4 -5 -2 -5h-68q-5 0 -12 5l-238 165q-35 27 -49 48t-14 53z" />
<glyph unicode="&#xd3;" horiz-adv-x="1695" d="M113 692q0 150 58 287t156 235.5t234.5 157t286.5 58.5q201 0 370 -97.5t267 -267.5t98 -373q0 -158 -58.5 -295.5t-158.5 -231.5t-234.5 -148t-283.5 -54t-283.5 54t-234.5 148t-158.5 231.5t-58.5 295.5zM299 692q0 -134 47 -258t123.5 -211.5t176.5 -139.5t202 -52 q158 0 284 88t195.5 239t69.5 334q0 178 -78.5 333.5t-205 246t-265.5 90.5q-161 0 -287.5 -89.5t-194 -241.5t-67.5 -339zM817 1518l213 282q43 55 92 55q36 0 57 -20.5t21 -50.5q0 -32 -14 -53t-49 -48l-238 -165q-8 -5 -12 -5h-68z" />
<glyph unicode="&#xd4;" horiz-adv-x="1695" d="M113 692q0 150 58 287t156 235.5t234.5 157t286.5 58.5q201 0 370 -97.5t267 -267.5t98 -373q0 -158 -58.5 -295.5t-158.5 -231.5t-234.5 -148t-283.5 -54t-283.5 54t-234.5 148t-158.5 231.5t-58.5 295.5zM299 692q0 -134 47 -258t123.5 -211.5t176.5 -139.5t202 -52 q158 0 284 88t195.5 239t69.5 334q0 178 -78.5 333.5t-205 246t-265.5 90.5q-161 0 -287.5 -89.5t-194 -241.5t-67.5 -339zM512 1511l250 334q4 4 8 4h117q4 0 8 -4l246 -334q2 -4 -2 -4h-60q-4 0 -8 4l-242 205q-3 3 -6 0l-241 -205q-4 -4 -9 -4h-59z" />
<glyph unicode="&#xd5;" horiz-adv-x="1695" d="M113 692q0 150 58 287t156 235.5t234.5 157t286.5 58.5q201 0 370 -97.5t267 -267.5t98 -373q0 -158 -58.5 -295.5t-158.5 -231.5t-234.5 -148t-283.5 -54t-283.5 54t-234.5 148t-158.5 231.5t-58.5 295.5zM299 692q0 -134 47 -258t123.5 -211.5t176.5 -139.5t202 -52 q158 0 284 88t195.5 239t69.5 334q0 178 -78.5 333.5t-205 246t-265.5 90.5q-161 0 -287.5 -89.5t-194 -241.5t-67.5 -339zM502 1575q21 99 75 161t144 62q35 0 71 -18.5t61 -41t59.5 -41t66.5 -18.5q66 0 102 111q2 4 6 4h52l2 -4q-20 -96 -73.5 -160.5t-141.5 -64.5 q-40 0 -80 19t-67 41.5t-58 41.5t-55 19q-38 0 -66.5 -34t-38.5 -77q-2 -4 -6 -4h-51z" />
<glyph unicode="&#xd6;" horiz-adv-x="1712" d="M121 692q0 150 58 287t156 235.5t234.5 157t286.5 58.5q201 0 370 -97.5t267 -267.5t98 -373q0 -158 -58.5 -295.5t-158.5 -231.5t-234.5 -148t-283.5 -54t-283.5 54t-234.5 148t-158.5 231.5t-58.5 295.5zM307 692q0 -134 47 -258t123.5 -211.5t176.5 -139.5t202 -52 q158 0 284 88t195.5 239t69.5 334q0 178 -78.5 333.5t-205 246t-265.5 90.5q-161 0 -287.5 -89.5t-194 -241.5t-67.5 -339zM539 1681q0 42 34 77.5t78 35.5t78.5 -35.5t34.5 -77.5q0 -45 -34 -78.5t-79 -33.5t-78.5 33.5t-33.5 78.5zM946 1681q0 42 34.5 77.5t78.5 35.5 t78 -35.5t34 -77.5q0 -45 -33.5 -78.5t-78.5 -33.5t-79 33.5t-34 78.5z" />
<glyph unicode="&#xd7;" horiz-adv-x="913" d="M95 200l3 3l305 307q4 4 0 8l-301 305q-3 3 0 6l41 41q3 4 9 -2l301 -301q3 -3 6 0l305 301q3 3 6 0l41 -41q3 -3 -2 -8l-299 -301q-4 -4 0 -8l305 -305q5 -5 2 -8l-41 -41q-3 -3 -5 -1l-3 3l-305 303q-5 5 -10 0l-308 -305q-5 -5 -8 -2l-41 41q-3 3 -1 5z" />
<glyph unicode="&#xd8;" horiz-adv-x="1695" d="M113 -31l194 209q5 5 -2 12q-192 205 -192 502q0 150 58 287t156 235.5t234.5 157t286.5 58.5q255 0 457 -156q4 -4 8 0l137 149q7 7 8 7h84q9 0 4 -7l-180 -194q-5 -5 0 -10q102 -102 159.5 -238.5t57.5 -288.5q0 -158 -58.5 -295.5t-158.5 -231.5t-234.5 -148 t-283.5 -54q-273 0 -475 166q-7 7 -15 0l-145 -160q-6 -6 -10 -6h-88q-8 0 -2 6zM299 692q0 -210 109 -385q5 -9 12 -2l794 864q6 5 0 11q-75 87 -171 134.5t-195 47.5q-161 0 -287.5 -89.5t-194 -241.5t-67.5 -339zM463 242q-5 -4 2 -11q78 -94 178.5 -147t204.5 -53 q158 0 284 88t195.5 239t69.5 334q0 126 -29 226t-102 192q-4 4 -6 2z" />
<glyph unicode="&#xd9;" horiz-adv-x="1521" d="M93.5 1388q-0.5 2 0.5 3.5t4 1.5h396q4 0 4.5 -3t-2.5 -6l-111 -147q-6 -6 -6 -16v-748q0 -179 118 -295.5t308 -116.5q65 0 125.5 14.5t118 48.5t99.5 85t67.5 129.5t25.5 175.5v707q0 10 -6 16l-111 147q-2 2 -2.5 4t0.5 3.5t4 1.5h297q4 0 4.5 -3t-2.5 -6l-110 -147 q-6 -6 -6 -16v-684q0 -265 -147 -419.5t-392 -154.5q-160 0 -285 65t-198.5 194t-73.5 304v695q0 10 -6 16l-111 147q-2 2 -2.5 4zM588 1782q0 30 21 50.5t57 20.5q49 0 92 -55l213 -282q4 -5 -2 -5h-68q-5 0 -12 5l-238 165q-35 27 -49 48t-14 53z" />
<glyph unicode="&#xda;" horiz-adv-x="1521" d="M93.5 1388q-0.5 2 0.5 3.5t4 1.5h396q4 0 4.5 -3t-2.5 -6l-111 -147q-6 -6 -6 -16v-748q0 -179 118 -295.5t308 -116.5q65 0 125.5 14.5t118 48.5t99.5 85t67.5 129.5t25.5 175.5v707q0 10 -6 16l-111 147q-2 2 -2.5 4t0.5 3.5t4 1.5h297q4 0 4.5 -3t-2.5 -6l-110 -147 q-6 -6 -6 -16v-684q0 -265 -147 -419.5t-392 -154.5q-160 0 -285 65t-198.5 194t-73.5 304v695q0 10 -6 16l-111 147q-2 2 -2.5 4zM659 1518l213 282q43 55 93 55q36 0 56.5 -20.5t20.5 -50.5q0 -32 -14 -53t-49 -48l-238 -165q-7 -5 -12 -5h-67z" />
<glyph unicode="&#xdb;" horiz-adv-x="1521" d="M93.5 1388q-0.5 2 0.5 3.5t4 1.5h396q4 0 4.5 -3t-2.5 -6l-111 -147q-6 -6 -6 -16v-748q0 -179 118 -295.5t308 -116.5q65 0 125.5 14.5t118 48.5t99.5 85t67.5 129.5t25.5 175.5v707q0 10 -6 16l-111 147q-2 2 -2.5 4t0.5 3.5t4 1.5h297q4 0 4.5 -3t-2.5 -6l-110 -147 q-6 -6 -6 -16v-684q0 -265 -147 -419.5t-392 -154.5q-160 0 -285 65t-198.5 194t-73.5 304v695q0 10 -6 16l-111 147q-2 2 -2.5 4zM483 1511l250 334q4 4 8 4h117q4 0 8 -4l246 -334q2 -4 -2 -4h-59q-5 0 -9 4l-241 205q-3 3 -6 0l-242 -205q-4 -4 -8 -4h-60z" />
<glyph unicode="&#xdc;" horiz-adv-x="1521" d="M93.5 1388q-0.5 2 0.5 3.5t4 1.5h396q4 0 4.5 -3t-2.5 -6l-111 -147q-6 -6 -6 -16v-748q0 -179 118 -295.5t308 -116.5q65 0 125.5 14.5t118 48.5t99.5 85t67.5 129.5t25.5 175.5v707q0 10 -6 16l-111 147q-2 2 -2.5 4t0.5 3.5t4 1.5h297q4 0 4.5 -3t-2.5 -6l-110 -147 q-6 -6 -6 -16v-684q0 -265 -147 -419.5t-392 -154.5q-160 0 -285 65t-198.5 194t-73.5 304v695q0 10 -6 16l-111 147q-2 2 -2.5 4zM492 1681q0 42 34 77.5t78 35.5t78.5 -35.5t34.5 -77.5q0 -45 -33.5 -78.5t-79.5 -33.5q-45 0 -78.5 33.5t-33.5 78.5zM899 1681 q0 42 34.5 77.5t78.5 35.5t78 -35.5t34 -77.5q0 -45 -33.5 -78.5t-78.5 -33.5q-46 0 -79.5 33.5t-33.5 78.5z" />
<glyph unicode="&#xdd;" horiz-adv-x="1308" d="M-4 1386q-3 3 0 6q0 1 2 1h403q5 -1 2 -7l-92 -120v-6l340 -574q23 -39 29 -65q0 -4 4 0l418 618q2 6 0 8l-94 139q-3 3 0 6q0 1 2 1h301q5 -1 2 -7q-15 -16 -37 -38.5t-34 -34.5t-29.5 -34t-36.5 -50l-428 -627q-17 -24 -17 -74v-356q0 -10 6 -16l111 -148q8 -8 -2 -8 h-395q-10 0 -2 8l110 148q6 6 6 16v291q0 29 -7.5 55t-16 42t-27.5 48l-340 568q-31 53 -84 117t-94 93zM655 1516l213 282q43 55 93 55q36 0 56.5 -20.5t20.5 -50.5q0 -32 -14 -53t-49 -48l-238 -165q-8 -5 -12 -5h-68z" />
<glyph unicode="&#xde;" horiz-adv-x="1261" d="M98 3q0 3 2 5l97 148q4 6 4 14v1053q0 8 -4 14l-97 147q-2 2 -2 5.5t4 3.5h252q6 0 6 -7v-450q0 -10 5 0q42 79 135 134.5t213 55.5q207 0 335 -118.5t128 -313.5t-128 -313.5t-335 -118.5q-122 0 -214.5 53t-133.5 131q-5 10 -5 0v-440q0 -6 -6 -6h-252q-4 0 -4 3z M356 694q0 -88 28.5 -160.5t75.5 -117.5t102.5 -69.5t113.5 -24.5q66 0 121.5 19.5t102.5 61t74 116t27 175.5t-27 175.5t-74 116.5t-102.5 61.5t-121.5 19.5q-57 0 -113 -24.5t-103 -70t-75.5 -118t-28.5 -160.5z" />
<glyph unicode="&#xdf;" horiz-adv-x="1187" d="M47 8l111 148q6 6 6 16v729q0 110 25.5 203.5t78 167.5t141 116t205.5 42q184 0 276.5 -83.5t92.5 -211.5q0 -114 -71.5 -207.5t-194.5 -124.5q-8 -4 0 -4q116 -15 211 -64t154 -131.5t59 -183.5q0 -132 -67 -229t-175.5 -144t-243.5 -47h-170q-4 0 -4 4v53l4 4h129 q155 0 255 92.5t100 252.5q0 156 -108 250t-300 94q-4 0 -4 4v53l4 4q258 54 250 313q-7 238 -205 238q-54 0 -97 -13.5t-71.5 -35t-49 -56t-31.5 -68t-17.5 -81.5t-8 -85t-1.5 -89v-928q0 -6 -6 -6h-275q-10 0 -2 8z" />
<glyph unicode="&#xe0;" horiz-adv-x="1081" d="M82 242q0 135 97.5 211t301.5 98l158 16q74 7 104.5 55.5t30.5 137.5q0 62 -24.5 108.5t-63.5 71.5t-79.5 37t-80.5 12q-92 0 -153 -49t-76 -117q-2 -6 2 -10l104 -121q4 -8 -6 -8h-266q-6 0 -6 8q26 154 138.5 256.5t283.5 102.5q86 0 156 -23t124.5 -70t84.5 -125.5 t30 -183.5v-293q0 -59 3 -99t17.5 -108.5t43.5 -144.5q1 -3 -0.5 -4.5t-4.5 0.5q-63 24 -117.5 65t-78.5 74q-2 2 -4 0q-116 -176 -373 -176q-176 0 -261 77.5t-85 201.5zM266 258q0 -103 53.5 -168t149.5 -65q81 0 142 28.5t96.5 80.5t53 118.5t17.5 148.5v154q0 4 -4 2 q-17 -12 -27 -18t-51 -17.5t-100 -17.5l-125 -15q-105 -12 -155 -66t-50 -165zM332 1430q0 30 21 50.5t57 20.5q49 0 92 -55l213 -283q4 -4 -2 -4h-68q-6 0 -12 4l-238 166q-35 27 -49 48t-14 53z" />
<glyph unicode="&#xe1;" horiz-adv-x="1081" d="M82 242q0 135 97.5 211t301.5 98l158 16q74 7 104.5 55.5t30.5 137.5q0 62 -24.5 108.5t-63.5 71.5t-79.5 37t-80.5 12q-92 0 -153 -49t-76 -117q-2 -6 2 -10l104 -121q4 -8 -6 -8h-266q-6 0 -6 8q26 154 138.5 256.5t283.5 102.5q86 0 156 -23t124.5 -70t84.5 -125.5 t30 -183.5v-293q0 -59 3 -99t17.5 -108.5t43.5 -144.5q1 -3 -0.5 -4.5t-4.5 0.5q-63 24 -117.5 65t-78.5 74q-2 2 -4 0q-116 -176 -373 -176q-176 0 -261 77.5t-85 201.5zM266 258q0 -103 53.5 -168t149.5 -65q81 0 142 28.5t96.5 80.5t53 118.5t17.5 148.5v154q0 4 -4 2 q-17 -12 -27 -18t-51 -17.5t-100 -17.5l-125 -15q-105 -12 -155 -66t-50 -165zM401 1165l213 283q43 55 93 55q36 0 56.5 -20.5t20.5 -50.5q0 -32 -14 -53t-49 -48l-238 -166q-6 -4 -12 -4h-68z" />
<glyph unicode="&#xe2;" horiz-adv-x="1081" d="M82 242q0 135 97.5 211t301.5 98l158 16q74 7 104.5 55.5t30.5 137.5q0 62 -24.5 108.5t-63.5 71.5t-79.5 37t-80.5 12q-92 0 -153 -49t-76 -117q-2 -6 2 -10l104 -121q4 -8 -6 -8h-266q-6 0 -6 8q26 154 138.5 256.5t283.5 102.5q86 0 156 -23t124.5 -70t84.5 -125.5 t30 -183.5v-293q0 -59 3 -99t17.5 -108.5t43.5 -144.5q1 -3 -0.5 -4.5t-4.5 0.5q-63 24 -117.5 65t-78.5 74q-2 2 -4 0q-116 -176 -373 -176q-176 0 -261 77.5t-85 201.5zM227 1163l250 334q4 4 8 4h117q4 0 8 -4l246 -334q2 -4 -2 -4h-59q-5 0 -9 4l-241 205q-3 3 -6 0 l-242 -205q-4 -4 -8 -4h-60zM266 258q0 -103 53.5 -168t149.5 -65q81 0 142 28.5t96.5 80.5t53 118.5t17.5 148.5v154q0 4 -4 2q-17 -12 -27 -18t-51 -17.5t-100 -17.5l-125 -15q-105 -12 -155 -66t-50 -165z" />
<glyph unicode="&#xe3;" horiz-adv-x="1081" d="M82 242q0 135 97.5 211t301.5 98l158 16q74 7 104.5 55.5t30.5 137.5q0 62 -24.5 108.5t-63.5 71.5t-79.5 37t-80.5 12q-92 0 -153 -49t-76 -117q-2 -6 2 -10l104 -121q4 -8 -6 -8h-266q-6 0 -6 8q26 154 138.5 256.5t283.5 102.5q86 0 156 -23t124.5 -70t84.5 -125.5 t30 -183.5v-293q0 -59 3 -99t17.5 -108.5t43.5 -144.5q1 -3 -0.5 -4.5t-4.5 0.5q-63 24 -117.5 65t-78.5 74q-2 2 -4 0q-116 -176 -373 -176q-176 0 -261 77.5t-85 201.5zM213 1223q21 99 75 161t144 62q35 0 71 -18.5t61 -41t59.5 -41t66.5 -18.5q67 0 103 111q2 4 6 4h51 l2 -4q-20 -96 -73.5 -161t-141.5 -65q-40 0 -80 19t-67 41.5t-58 41.5t-55 19q-38 0 -66.5 -33.5t-38.5 -76.5q-2 -4 -6 -4h-51zM266 258q0 -103 53.5 -168t149.5 -65q81 0 142 28.5t96.5 80.5t53 118.5t17.5 148.5v154q0 4 -4 2q-17 -12 -27 -18t-51 -17.5t-100 -17.5 l-125 -15q-105 -12 -155 -66t-50 -165z" />
<glyph unicode="&#xe4;" horiz-adv-x="1081" d="M82 242q0 135 97.5 211t301.5 98l158 16q74 7 104.5 55.5t30.5 137.5q0 62 -24.5 108.5t-63.5 71.5t-79.5 37t-80.5 12q-92 0 -153 -49t-76 -117q-2 -6 2 -10l104 -121q4 -8 -6 -8h-266q-6 0 -6 8q26 154 138.5 256.5t283.5 102.5q86 0 156 -23t124.5 -70t84.5 -125.5 t30 -183.5v-293q0 -59 3 -99t17.5 -108.5t43.5 -144.5q1 -3 -0.5 -4.5t-4.5 0.5q-63 24 -117.5 65t-78.5 74q-2 2 -4 0q-116 -176 -373 -176q-176 0 -261 77.5t-85 201.5zM223 1329q0 42 34.5 77.5t78.5 35.5t78.5 -35.5t34.5 -77.5q0 -45 -33.5 -78.5t-79.5 -33.5 t-79.5 33.5t-33.5 78.5zM266 258q0 -103 53.5 -168t149.5 -65q81 0 142 28.5t96.5 80.5t53 118.5t17.5 148.5v154q0 4 -4 2q-17 -12 -27 -18t-51 -17.5t-100 -17.5l-125 -15q-105 -12 -155 -66t-50 -165zM631 1329q0 42 34 77.5t78 35.5t78.5 -35.5t34.5 -77.5 q0 -45 -34 -78.5t-79 -33.5t-78.5 33.5t-33.5 78.5z" />
<glyph unicode="&#xe5;" horiz-adv-x="1081" d="M82 242q0 135 97.5 211t301.5 98l158 16q74 7 104.5 55.5t30.5 137.5q0 62 -24.5 108.5t-63.5 71.5t-79.5 37t-80.5 12q-92 0 -153 -49t-76 -117q-2 -6 2 -10l104 -121q4 -8 -6 -8h-266q-6 0 -6 8q26 154 138.5 256.5t283.5 102.5q86 0 156 -23t124.5 -70t84.5 -125.5 t30 -183.5v-293q0 -59 3 -99t17.5 -108.5t43.5 -144.5q1 -3 -0.5 -4.5t-4.5 0.5q-63 24 -117.5 65t-78.5 74q-2 2 -4 0q-116 -176 -373 -176q-176 0 -261 77.5t-85 201.5zM266 258q0 -103 53.5 -168t149.5 -65q81 0 142 28.5t96.5 80.5t53 118.5t17.5 148.5v154q0 4 -4 2 q-17 -12 -27 -18t-51 -17.5t-100 -17.5l-125 -15q-105 -12 -155 -66t-50 -165zM375 1329q0 72 52 124t124 52t123 -52t51 -124t-51 -123t-123 -51t-124 51t-52 123zM440 1329q0 -43 33.5 -75.5t77.5 -32.5q43 0 75.5 32.5t32.5 75.5q0 44 -32.5 77.5t-75.5 33.5 q-44 0 -77.5 -33.5t-33.5 -77.5z" />
<glyph unicode="&#xe6;" horiz-adv-x="1841" d="M72 252q0 54 16.5 105t57 101.5t102 88t158.5 61t219 23.5h176q4 0 4 8v98q0 56 -18.5 101.5t-47 72.5t-65 45.5t-70 25.5t-65.5 7q-93 0 -164.5 -47.5t-89.5 -112.5q-2 -6 2 -10l104 -121q4 -8 -6 -8h-266q-6 0 -6 8q25 150 148.5 251.5t297.5 101.5q115 0 210 -55 t146 -150q4 -4 7 0q68 102 156.5 153.5t219.5 51.5q213 0 334 -132.5t127 -345.5q0 -6 -4 -6h-745q-20 0 -23 -22q-16 -145 24.5 -263t133.5 -187.5t221 -69.5q98 0 170 61.5t102 142.5q4 9 9 4l77 -59q3 -3 -2 -8q-72 -99 -163 -151t-216 -52q-316 0 -436 236q-3 6 -6 0 q-33 -55 -71 -95.5t-91.5 -73.5t-125.5 -50t-162 -17q-189 0 -284 79.5t-95 209.5zM256 264q0 -107 64.5 -173t177.5 -66q148 0 224.5 100t76.5 276v162q0 4 -4 4h-193q-175 0 -260.5 -79t-85.5 -224zM993 635q0 -4 4 -4h557q9 0 9 10q0 55 -8.5 104t-28 94.5t-48.5 78 t-73.5 52t-99.5 19.5q-263 0 -312 -354z" />
<glyph unicode="&#xe7;" horiz-adv-x="1130" d="M86 498q0 148 72 275t199 202.5t278 75.5q168 0 290 -102.5t126 -256.5q0 -8 -7 -8h-290q-10 0 -6 8l118 113q2 2 2 8q-15 82 -76.5 129t-156.5 47q-161 0 -262 -129.5t-101 -343.5q0 -137 39.5 -246.5t122.5 -177t197 -67.5q104 0 189.5 68.5t127.5 172.5q4 8 8 4 l91 -63q3 -3 -3 -8q-79 -109 -169 -166.5t-203 -67.5q-4 0 -6 -4l-35 -92q-2 -4 2 -4q27 6 55 6q72 0 121 -35.5t49 -99.5q0 -48 -23.5 -84t-61.5 -55t-77 -28t-78 -9q-114 0 -184 39q-2 1 -2 6l29 53q2 4 8 2q73 -29 129 -29q107 0 107 88q0 34 -25 55t-59 21q-43 0 -76 -8 h-8l-11 6l-2 6l68 158q3 6 -4 6q-226 11 -364 157.5t-138 377.5z" />
<glyph unicode="&#xe8;" horiz-adv-x="1128" d="M86 502q0 237 144 393t372 156q113 0 200 -37.5t139.5 -103.5t79 -151t26.5 -186q0 -6 -5 -6h-745q-20 0 -23 -22q-17 -146 20.5 -262t125.5 -184t213 -68q108 0 194 63.5t115 141.5q3 6 10 2l74 -56q4 -4 0 -10q-58 -91 -171.5 -150t-252.5 -59q-238 0 -377 147 t-139 392zM281 635q0 -4 4 -4h557q8 0 8 10q0 55 -8.5 104t-28 94.5t-48.5 78t-73.5 52t-99.5 19.5q-132 0 -211 -95t-100 -259zM332 1430q0 30 21 50.5t57 20.5q49 0 92 -55l213 -283q4 -4 -2 -4h-68q-6 0 -12 4l-238 166q-35 27 -49 48t-14 53z" />
<glyph unicode="&#xe9;" horiz-adv-x="1128" d="M86 502q0 237 144 393t372 156q113 0 200 -37.5t139.5 -103.5t79 -151t26.5 -186q0 -6 -5 -6h-745q-20 0 -23 -22q-17 -146 20.5 -262t125.5 -184t213 -68q108 0 194 63.5t115 141.5q3 6 10 2l74 -56q4 -4 0 -10q-58 -91 -171.5 -150t-252.5 -59q-238 0 -377 147 t-139 392zM281 635q0 -4 4 -4h557q8 0 8 10q0 55 -8.5 104t-28 94.5t-48.5 78t-73.5 52t-99.5 19.5q-132 0 -211 -95t-100 -259zM469 1165l213 283q43 55 92 55q36 0 57 -20.5t21 -50.5q0 -32 -14.5 -53t-49.5 -48l-237 -166q-6 -4 -12 -4h-68z" />
<glyph unicode="&#xea;" horiz-adv-x="1128" d="M86 502q0 237 144 393t372 156q113 0 200 -37.5t139.5 -103.5t79 -151t26.5 -186q0 -6 -5 -6h-745q-20 0 -23 -22q-17 -146 20.5 -262t125.5 -184t213 -68q108 0 194 63.5t115 141.5q3 6 10 2l74 -56q4 -4 0 -10q-58 -91 -171.5 -150t-252.5 -59q-238 0 -377 147 t-139 392zM281 635q0 -4 4 -4h557q8 0 8 10q0 55 -8.5 104t-28 94.5t-48.5 78t-73.5 52t-99.5 19.5q-132 0 -211 -95t-100 -259zM289 1163l250 334q4 4 8 4h117q4 0 8 -4l246 -334q1 -4 -3 -4h-59q-4 0 -8 4l-242 205q-3 3 -6 0l-242 -205q-4 -4 -8 -4h-59z" />
<glyph unicode="&#xeb;" horiz-adv-x="1128" d="M86 502q0 237 144 393t372 156q113 0 200 -37.5t139.5 -103.5t79 -151t26.5 -186q0 -6 -5 -6h-745q-20 0 -23 -22q-17 -146 20.5 -262t125.5 -184t213 -68q108 0 194 63.5t115 141.5q3 6 10 2l74 -56q4 -4 0 -10q-58 -91 -171.5 -150t-252.5 -59q-238 0 -377 147 t-139 392zM281 635q0 -4 4 -4h557q8 0 8 10q0 55 -8.5 104t-28 94.5t-48.5 78t-73.5 52t-99.5 19.5q-132 0 -211 -95t-100 -259zM289 1329q0 42 34 77.5t78 35.5t78.5 -35.5t34.5 -77.5q0 -45 -34 -78.5t-79 -33.5t-78.5 33.5t-33.5 78.5zM696 1329q0 42 34.5 77.5 t78.5 35.5t78.5 -35.5t34.5 -77.5q0 -45 -34 -78.5t-79 -33.5t-79 33.5t-34 78.5z" />
<glyph unicode="&#xec;" horiz-adv-x="540" d="M-25 1430q0 30 21 50.5t57 20.5q49 0 92 -55l213 -283q4 -4 -2 -4h-67q-7 0 -13 4l-237 166q-35 27 -49.5 48t-14.5 53zM88 932l109 -68q4 -2 4 -8v-682q0 -9 -6 -18l-93 -148q-8 -8 2 -8h353q10 0 2 8l-92 148q-7 10 -7 18v873q0 6 -6 4l-266 -111q-10 -3 0 -8z" />
<glyph unicode="&#xed;" horiz-adv-x="540" d="M88 932l109 -68q4 -2 4 -8v-682q0 -9 -6 -18l-93 -148q-8 -8 2 -8h353q10 0 2 8l-92 148q-7 10 -7 18v873q0 6 -6 4l-266 -111q-10 -3 0 -8zM125 1163l213 283q43 55 92 55q36 0 57 -20.5t21 -50.5q0 -32 -14.5 -53t-49.5 -48l-237 -166q-6 -4 -12 -4h-68z" />
<glyph unicode="&#xee;" horiz-adv-x="540" d="M-33 1163l250 334q4 4 8 4h117q4 0 8 -4l246 -334q2 -4 -2 -4h-59q-5 0 -9 4l-241 205q-3 3 -6 0l-242 -205q-4 -4 -8 -4h-60zM88 932q-10 5 0 8l266 111q6 2 6 -4v-873q0 -8 7 -18l92 -148q8 -8 -2 -8h-353q-10 0 -2 8l93 148q6 9 6 18v682q0 6 -4 8z" />
<glyph unicode="&#xef;" horiz-adv-x="540" d="M-37 1329q0 42 34.5 77.5t78.5 35.5t78 -35.5t34 -77.5q0 -45 -33.5 -78.5t-78.5 -33.5q-46 0 -79.5 33.5t-33.5 78.5zM84 934q2 -2 4 -2l109 -68l2 -2q2 -2 2 -6v-682q0 -6 -2 -10v-2l-4 -6l-93 -148q-8 -8 2 -8h353h2l2 2q0 4 -2 6l-92 148q-7 7 -7 12v6v873q0 6 -6 4 l-266 -111q-7 -3 -4 -6zM371 1329q0 42 34 77.5t78 35.5t78.5 -35.5t34.5 -77.5q0 -45 -34 -78.5t-79 -33.5t-78.5 33.5t-33.5 78.5z" />
<glyph unicode="&#xf0;" horiz-adv-x="1222" d="M88 442q0 87 33 167.5t93 144.5t152.5 102.5t202.5 38.5q102 0 201.5 -44t149.5 -116h4q-18 158 -108 292.5t-222 209.5q-4 2 -8 -2l-109 -135q-6 -6 -10 -6h-74q-8 0 -2 6l139 170q2 1 1.5 4t-3.5 4q-118 64 -297 106q-7 0 -4 7l23 34q2 5 8 5q168 -15 326 -89q6 0 8 2 l108 136q6 6 9 6h73q8 0 4 -6l-135 -166q-2 -1 -1.5 -4t3.5 -4q206 -104 327.5 -312.5t121.5 -455.5q0 -162 -60 -292t-175 -206t-265 -76q-141 0 -257.5 57t-186.5 167.5t-70 254.5zM250 442q0 -95 23 -170t58.5 -120.5t83.5 -75t93 -40.5t92 -11q67 0 128.5 26.5t111.5 76 t80 131t30 183.5q0 96 -32.5 172.5t-86 122.5t-116 70t-127.5 24q-104 0 -183 -59t-117 -146t-38 -184z" />
<glyph unicode="&#xf1;" horiz-adv-x="1239" d="M96 948l113 -80q4 -4 4 -12v-682q0 -6 -6 -18l-78 -148q-5 -8 2 -8h352q7 0 2 8l-106 148q-6 12 -6 18v494q0 77 28 139.5t74 100.5t100 58.5t109 20.5q107 0 167 -77t60 -197v-539q0 -6 -6 -18l-106 -148q-5 -8 2 -8h350q8 0 4 8l-78 148q-6 12 -6 18v506 q0 178 -91 274.5t-259 96.5q-228 0 -346 -166q-6 -9 -6 2v176q0 6 -7 4l-266 -111q-10 -3 0 -8zM313 1223q21 99 75 161t144 62q35 0 71 -18.5t61.5 -41t60 -41t66.5 -18.5q66 0 102 111q2 4 6 4h51l2 -4q-20 -96 -73.5 -161t-141.5 -65q-40 0 -80 19t-67 41.5t-58 41.5 t-55 19q-38 0 -66 -33.5t-38 -76.5q-2 -4 -6 -4h-52z" />
<glyph unicode="&#xf2;" horiz-adv-x="1187" d="M66 506q0 147 69 272t190.5 199t266.5 74q146 0 268 -74t192 -199t70 -272q0 -247 -147.5 -395t-382.5 -148q-233 0 -379.5 149.5t-146.5 393.5zM254 506q0 -132 39.5 -240t117.5 -174.5t181 -66.5q102 0 181 66.5t120 175t41 239.5q0 224 -92 353.5t-250 129.5 q-159 0 -248.5 -129t-89.5 -354zM256 1430q0 30 21 50.5t57 20.5q49 0 92 -55l213 -283q4 -4 -2 -4h-68q-6 0 -12 4l-238 166q-35 27 -49 48t-14 53z" />
<glyph unicode="&#xf3;" horiz-adv-x="1187" d="M66 506q0 147 69 272t190.5 199t266.5 74q146 0 268 -74t192 -199t70 -272q0 -247 -147.5 -395t-382.5 -148q-233 0 -379.5 149.5t-146.5 393.5zM254 506q0 -132 39.5 -240t117.5 -174.5t181 -66.5q102 0 181 66.5t120 175t41 239.5q0 224 -92 353.5t-250 129.5 q-159 0 -248.5 -129t-89.5 -354zM565 1165l213 283q43 55 92 55q36 0 57 -20.5t21 -50.5q0 -32 -14 -53t-49 -48l-238 -166q-6 -4 -12 -4h-68z" />
<glyph unicode="&#xf4;" horiz-adv-x="1187" d="M66 506q0 147 69 272t190.5 199t266.5 74q146 0 268 -74t192 -199t70 -272q0 -247 -147.5 -395t-382.5 -148q-233 0 -379.5 149.5t-146.5 393.5zM254 506q0 -132 39.5 -240t117.5 -174.5t181 -66.5q102 0 181 66.5t120 175t41 239.5q0 224 -92 353.5t-250 129.5 q-159 0 -248.5 -129t-89.5 -354zM283 1163l249 334q4 4 9 4h116q5 0 9 -4l245 -334q2 -4 -2 -4h-59q-4 0 -8 4l-242 205q-3 3 -6 0l-242 -205q-4 -4 -8 -4h-59z" />
<glyph unicode="&#xf5;" horiz-adv-x="1208" d="M76 506q0 147 69 272t190.5 199t266.5 74q146 0 268.5 -74t192.5 -199t70 -272q0 -247 -148 -395t-383 -148q-233 0 -379.5 149.5t-146.5 393.5zM264 506q0 -132 39.5 -240t117.5 -174.5t181 -66.5q102 0 181 66.5t120 175t41 239.5q0 224 -92 353.5t-250 129.5 q-159 0 -248.5 -129t-89.5 -354zM289 1223q21 99 75 161t144 62q35 0 71 -18.5t61 -41t59.5 -41t66.5 -18.5q66 0 102 111q2 4 6 4h52l2 -4q-20 -96 -73.5 -161t-141.5 -65q-40 0 -80 19t-67 41.5t-58 41.5t-55 19q-38 0 -66.5 -33.5t-38.5 -76.5q-2 -4 -6 -4h-51z" />
<glyph unicode="&#xf6;" horiz-adv-x="1187" d="M66 506q0 147 69 272t190.5 199t266.5 74q146 0 268 -74t192 -199t70 -272q0 -247 -147.5 -395t-382.5 -148q-233 0 -379.5 149.5t-146.5 393.5zM254 506q0 -132 39.5 -240t117.5 -174.5t181 -66.5q102 0 181 66.5t120 175t41 239.5q0 224 -92 353.5t-250 129.5 q-159 0 -248.5 -129t-89.5 -354zM281 1329q0 42 34 77.5t78 35.5t78.5 -35.5t34.5 -77.5q0 -45 -34 -78.5t-79 -33.5t-78.5 33.5t-33.5 78.5zM688 1329q0 42 34.5 77.5t78.5 35.5t78 -35.5t34 -77.5q0 -45 -33.5 -78.5t-78.5 -33.5t-79 33.5t-34 78.5z" />
<glyph unicode="&#xf7;" horiz-adv-x="897" d="M51 483v60q0 4 6 4h783q6 0 6 -4v-60q0 -4 -6 -4h-783q-6 0 -6 4zM322 231q0 48 35.5 83.5t84.5 35.5q47 0 83 -36t36 -83q0 -49 -35.5 -84.5t-83.5 -35.5q-50 0 -85 35.5t-35 84.5zM322 797q0 48 35.5 83t84.5 35q47 0 83 -35.5t36 -82.5q0 -49 -35.5 -85t-83.5 -36 q-49 0 -84.5 35.5t-35.5 85.5z" />
<glyph unicode="&#xf8;" horiz-adv-x="1208" d="M76 506q0 147 69 272t190.5 199t266.5 74q90 0 163 -24t146 -81q3 -4 7 0l79 98q7 7 9 7h73q9 0 4 -7l-112 -139q-3 -5 0 -8q76 -76 119 -177.5t43 -213.5q0 -247 -148 -395t-383 -148q-181 0 -317 94q-1 1 -4 1t-5 -1l-69 -88q-6 -6 -10 -6h-74q-8 0 -2 6l104 129 q1 2 1 6t-1 5q-149 149 -149 397zM264 506q0 -173 55 -283q3 -6 7 -2l522 637q4 4 0 8q-99 123 -246 123q-159 0 -248.5 -129t-89.5 -354zM362 154q54 -66 110.5 -97.5t129.5 -31.5q102 0 181 66.5t120 175t41 239.5q0 173 -57 293q0 3 -4 2l-2 -2l-519 -639q-3 -3 0 -6z " />
<glyph unicode="&#xf9;" horiz-adv-x="1183" d="M45 948q-10 5 0 8l264 111l6 -4v-776q0 -118 62.5 -190t167.5 -72q74 0 143 36t116.5 111.5t47.5 173.5v518q0 6 -4 8l-109 76q-10 5 0 8l265 111l6 -4v-639q0 -114 18.5 -206t65.5 -212q1 -4 -1.5 -6t-5.5 0q-146 55 -221 133q-4 4 -8 0q-63 -79 -154 -124.5t-196 -45.5 q-170 0 -260 82t-90 246v573q0 6 -4 8zM266 1430q0 30 21 50.5t57 20.5q49 0 92 -55l213 -283q4 -4 -2 -4h-67q-7 0 -13 4l-237 166q-35 27 -49.5 48t-14.5 53z" />
<glyph unicode="&#xfa;" horiz-adv-x="1183" d="M45 948q-10 5 0 8l264 111l6 -4v-776q0 -118 62.5 -190t167.5 -72q74 0 143 36t116.5 111.5t47.5 173.5v518q0 6 -4 8l-109 76q-10 5 0 8l265 111l6 -4v-639q0 -114 18.5 -206t65.5 -212q1 -4 -1.5 -6t-5.5 0q-146 55 -221 133q-4 4 -8 0q-63 -79 -154 -124.5t-196 -45.5 q-170 0 -260 82t-90 246v573q0 6 -4 8zM465 1165l213 283q43 55 92 55q36 0 57 -20.5t21 -50.5q0 -32 -14.5 -53t-49.5 -48l-237 -166q-6 -4 -12 -4h-68z" />
<glyph unicode="&#xfb;" horiz-adv-x="1183" d="M45 948q-10 5 0 8l264 111l6 -4v-776q0 -118 62.5 -190t167.5 -72q74 0 143 36t116.5 111.5t47.5 173.5v518q0 6 -4 8l-109 76q-10 5 0 8l265 111l6 -4v-639q0 -114 18.5 -206t65.5 -212q1 -4 -1.5 -6t-5.5 0q-146 55 -221 133q-4 4 -8 0q-63 -79 -154 -124.5t-196 -45.5 q-170 0 -260 82t-90 246v573q0 6 -4 8zM268 1163l250 334q4 4 8 4h117q4 0 8 -4l246 -334q2 -4 -2 -4h-59q-5 0 -9 4l-241 205q-3 3 -6 0l-242 -205q-4 -4 -8 -4h-60z" />
<glyph unicode="&#xfc;" horiz-adv-x="1183" d="M45 948q-10 5 0 8l264 111l6 -4v-776q0 -118 62.5 -190t167.5 -72q74 0 143 36t116.5 111.5t47.5 173.5v518q0 6 -4 8l-109 76q-10 5 0 8l265 111l6 -4v-639q0 -114 18.5 -206t65.5 -212q1 -4 -1.5 -6t-5.5 0q-146 55 -221 133q-4 4 -8 0q-63 -79 -154 -124.5t-196 -45.5 q-170 0 -260 82t-90 246v573q0 6 -4 8zM291 1329q0 42 34 77.5t78 35.5t78.5 -35.5t34.5 -77.5q0 -45 -34 -78.5t-79 -33.5t-78.5 33.5t-33.5 78.5zM698 1329q0 42 34.5 77.5t78.5 35.5t78.5 -35.5t34.5 -77.5q0 -45 -34 -78.5t-79 -33.5t-79 33.5t-34 78.5z" />
<glyph unicode="&#xfd;" horiz-adv-x="980" d="M4 1008q-6 6 2 6h350q5 0 2 -6l-79 -121v-6l247 -572q25 -57 27 -63q1 -3 4 2l260 637q2 6 0 8l-72 115q-2 2 -1 4t4 2h239q4 -1 2 -6q-65 -56 -127 -203l-467 -1118q-36 -88 -84 -125t-125 -33q-58 3 -103.5 35.5t-59.5 58.5q-3 5 2 10l172 240q6 9 6 -2v-193 q0 -59 45 -63q48 -4 74 61l122 297q27 67 0 123l-301 692q-78 159 -139 220zM498 1163l213 283q43 55 92 55q36 0 57 -20.5t21 -50.5q0 -32 -14.5 -53t-49.5 -48l-237 -166q-6 -4 -13 -4h-67z" />
<glyph unicode="&#xfe;" horiz-adv-x="1245" d="M88 -426l109 68q4 2 4 8v1640q0 6 -4 8l-109 68q-10 5 0 8l266 111q6 2 6 -4v-678q0 -10 5 0q20 40 39 70.5t50.5 65.5t66.5 58t86 38.5t110 15.5q214 0 328 -150t114 -401q0 -153 -61 -277t-162 -192t-219 -68q-98 0 -168 25t-109 63.5t-75 100.5q-5 10 -5 0v-693 q0 -6 -6 -4l-266 111q-10 3 0 8zM350 492q0 -212 90.5 -339.5t241.5 -127.5q137 0 217.5 129.5t85.5 345.5q4 239 -82.5 364t-220.5 125q-57 0 -115.5 -36t-107 -99t-79 -158.5t-30.5 -203.5z" />
<glyph unicode="&#xff;" horiz-adv-x="980" d="M4 1008q-6 6 2 6h350q5 0 2 -6l-79 -121v-6l247 -572q25 -57 27 -63q1 -3 4 2l260 637q2 6 0 8l-72 115q-2 2 -1 4t4 2h239q4 -1 2 -6q-65 -56 -127 -203l-467 -1118q-36 -88 -84 -125t-125 -33q-58 3 -103.5 35.5t-59.5 58.5q-3 5 2 10l172 240q6 9 6 -2v-193 q0 -59 45 -63q48 -4 74 61l122 297q27 67 0 123l-301 692q-78 159 -139 220zM236 1331q0 42 34 77.5t78 35.5t78.5 -35.5t34.5 -77.5q0 -45 -33.5 -78.5t-79.5 -33.5q-45 0 -78.5 33.5t-33.5 78.5zM643 1331q0 42 34.5 77.5t78.5 35.5t78 -35.5t34 -77.5q0 -45 -33.5 -78.5 t-78.5 -33.5q-46 0 -79.5 33.5t-33.5 78.5z" />
<glyph unicode="&#x131;" horiz-adv-x="540" d="M88 932q-10 5 0 8l266 111q6 2 6 -4v-873q0 -8 7 -18l92 -148q8 -8 -2 -8h-353q-10 0 -2 8l93 148q6 9 6 18v682q0 6 -4 8z" />
<glyph unicode="&#x152;" horiz-adv-x="2508" d="M113 692q0 150 58 287t156 235.5t234.5 157t286.5 58.5q273 0 508 -205q9 -7 12 -1.5t0 13.5l-61 147q-2 2 -2.5 4t0.5 3.5t4 1.5h776h20.5h22t21.5 0.5t23.5 1t23 1.5t25.5 2.5t24.5 3.5t26 5t25.5 7t27 9q7 3 7 -2v-383q0 -6 -4 -6t-7 6l-127 215q-31 53 -53.5 65.5 t-75.5 12.5h-491q-12 0 -20.5 -9t-8.5 -22v-471q0 -29 17 -46t45 -17h336q39 0 62.5 10t49.5 39l117 125q3 4 5.5 3t2.5 -5v-426q0 -12 -10 -2l-121 149q-37 46 -106 46h-336q-28 0 -45 -17.5t-17 -46.5v-557q0 -23 19 -23h405q125 0 211 68l252 203q5 3 7 2t1 -6l-112 -322 q-2 -6 -9 -6h-1009q-10 0 -2 8l61 146q4 9 -2 12.5t-12 -2.5q-204 -201 -506 -201q-149 0 -283.5 54t-234.5 148t-158.5 231.5t-58.5 295.5zM299 692q8 -136 57 -258.5t125 -211t177.5 -140t211.5 -51.5q147 0 269 87.5t191 239.5t67 334q-2 181 -81.5 336t-211 244.5 t-281.5 89.5q-112 0 -213 -53.5t-172 -143t-109 -213.5t-30 -260z" />
<glyph unicode="&#x153;" horiz-adv-x="1980" d="M86 506q0 147 66.5 272t185.5 199t264 74q143 0 252 -64t170 -172q2 -4 4 0q55 108 167 172t239 64q115 0 203 -36t143.5 -101t85 -150.5t32.5 -190.5q0 -6 -4 -6h-745q-20 0 -23 -22q-15 -145 25 -263.5t128.5 -187.5t209.5 -69q112 0 185 60.5t104 143.5q4 8 8 4 l78 -59q3 -3 -2 -8q-74 -101 -171.5 -152t-256.5 -51q-119 0 -228.5 59.5t-177.5 159.5q-5 5 -8 0q-70 -103 -177 -161t-241 -58q-232 0 -374 149t-142 394zM274 506q0 -132 36.5 -240t112.5 -174.5t179 -66.5q102 0 179 66.5t115 174.5t38 240q0 226 -87.5 354.5 t-244.5 128.5q-158 0 -243 -128t-85 -355zM1133 635q0 -4 4 -4h557q8 0 8 10q0 55 -8.5 104t-28 94.5t-48.5 78t-73.5 52t-99.5 19.5q-262 0 -311 -354z" />
<glyph unicode="&#x160;" horiz-adv-x="1144" d="M106 6v539q0 3 3 4.5t6 0.5t4 -5q43 -111 94.5 -200.5t115.5 -161.5t143.5 -112t166.5 -40q143 0 225 68t82 194q0 173 -196 272l-390 187q-108 53 -168.5 149.5t-60.5 190.5q0 102 55.5 180.5t145 118t196.5 39.5q181 0 334 -119q5 -5 10 0l95 82q3 5 8.5 4t5.5 -8v-449 q0 -1 -1 -3t-2.5 -3.5t-3.5 -1.5t-4.5 1.5t-4.5 6.5q-43 91 -87 160.5t-100 132t-122.5 96t-139.5 33.5q-46 0 -87 -10.5t-78 -33t-58.5 -65t-22.5 -100.5q-2 -69 42.5 -125t144.5 -106l401 -203q119 -61 177.5 -144t58.5 -200q0 -79 -29 -151.5t-84 -131.5t-145.5 -94 t-204.5 -35q-98 0 -207.5 37t-192.5 104q-6 4 -10 0l-108 -100q-7 -7 -7 2zM221 1849q-2 4 2 4h60q4 0 8 -4l241 -204q4 -3 7 0l241 204q4 4 8 4h60l2 -4l-246 -333q-5 -5 -8 -5h-117q-3 0 -8 5z" />
<glyph unicode="&#x161;" horiz-adv-x="1003" d="M78 307q0 6 4 8l278 78q5 2 6.5 0t-1.5 -6l-113 -160q-3 -3 0 -10q71 -192 289 -192q104 0 164 53t61 153q3 136 -160 193l-233 82q-103 37 -172.5 107t-69.5 169q0 108 106 188.5t261 80.5q144 0 250 -68t133 -182q0 -6 -4 -8l-252 -70q-3 -2 -5.5 -0.5t-1.5 4.5l82 145 q4 7 0 11q-56 106 -202 106q-56 0 -104 -15.5t-81.5 -52.5t-33.5 -90q0 -115 178 -180l207 -73q137 -50 195.5 -116t58.5 -171q0 -146 -114.5 -237t-289.5 -91q-184 0 -296.5 85t-139.5 259zM184 1497q-2 4 2 4h60q4 0 8 -4l242 -205q3 -3 6 0l241 205q4 4 9 4h59l2 -4 l-246 -334q-4 -4 -8 -4h-117q-4 0 -8 4z" />
<glyph unicode="&#x178;" horiz-adv-x="1308" d="M-4 1386q-3 3 0 6q0 1 2 1h403q5 -1 2 -7l-92 -120v-6l340 -574q23 -39 29 -65q0 -4 4 0l418 618q2 6 0 8l-94 139q-3 3 0 6q0 1 2 1h301q5 -1 2 -7q-15 -16 -37 -38.5t-34 -34.5t-29.5 -34t-36.5 -50l-428 -627q-17 -24 -17 -74v-356q0 -10 6 -16l111 -148q8 -8 -2 -8 h-395q-10 0 -2 8l110 148q6 6 6 16v291q0 29 -7.5 55t-16 42t-27.5 48l-340 568q-31 53 -84 117t-94 93zM379 1681q0 42 34.5 77.5t78.5 35.5t78 -35.5t34 -77.5q0 -45 -33.5 -78.5t-78.5 -33.5q-46 0 -79.5 33.5t-33.5 78.5zM786 1681q0 42 34.5 77.5t78.5 35.5t78.5 -35.5 t34.5 -77.5q0 -45 -34 -78.5t-79 -33.5t-79 33.5t-34 78.5z" />
<glyph unicode="&#x17d;" horiz-adv-x="1183" d="M41 8q34 22 79.5 74.5t78.5 110.5l632 1107q7 17 1.5 24t-19.5 7h-459q-53 0 -75.5 -12.5t-53.5 -65.5l-127 -215q-3 -6 -6.5 -6t-3.5 6v383q0 5 6 2q13 -5 27 -9t25.5 -7t26.5 -5t24.5 -3.5t25 -2.5t23 -1.5t24 -1t22 -0.5h22h20.5h760q5 -1 2 -7q-69 -79 -109 -149 l-661 -1153q-6 -9 -1.5 -16t15.5 -7h330q89 0 143 19.5t100 62.5l226 205q5 3 7 1.5t1 -5.5l-117 -338q-2 -6 -8 -6h-979q-10 0 -2 8zM276 1849q-1 4 3 4h59q4 0 8 -4l242 -204q3 -3 6 0l242 204q4 4 8 4h59l2 -4l-246 -333q-5 -5 -8 -5h-116q-4 0 -9 5z" />
<glyph unicode="&#x17e;" horiz-adv-x="946" d="M41 8q34 22 79.5 74.5t78.5 110.5l432 729q7 17 1 23.5t-20 6.5h-288q-42 0 -64.5 -14.5t-44.5 -50.5l-121 -201q-3 -6 -6.5 -6t-3.5 6v361q0 5 6 2q95 -35 240 -35h551q4 -1 2 -6q-62 -71 -109 -150l-465 -782q-9 -15 6 -15h205q45 0 80.5 9.5t67.5 33t49.5 40.5 t50.5 53l127 137q4 4 7 2.5t1 -6.5l-88 -324q-2 -6 -8 -6h-764q-10 0 -2 8zM176 1497q-2 4 2 4h60q4 0 8 -4l241 -205q3 -4 7 0l241 205q4 4 8 4h60l2 -4l-246 -334q-4 -4 -8 -4h-117q-4 0 -8 4z" />
<glyph unicode="&#x192;" horiz-adv-x="831" d="M-152 -223l152 207q4 2 6 -2l41 -175q8 -30 37 -30q82 0 141 336l11 57l133 758q1 10 -5.5 16t-17.5 6h-219q-6 0 -4 4l8 56q2 4 8 4h242q4 0 4 4q48 206 148.5 336.5t228.5 130.5h219q5 0 2 -6l-178 -248q-2 -2 -4 2l-62 151q-10 27 -37 27q-41 0 -78 -88t-65 -248 l-10 -57q0 -4 4 -4h272q5 0 5 -0.5t-1 -3.5l-8 -56q-2 -4 -8 -4h-250q-11 0 -20.5 -6t-10.5 -16l-133 -758q-47 -205 -149.5 -336t-229.5 -131q-55 0 -103.5 22t-68.5 42q-3 3 0 10z" />
<glyph unicode="&#x2c6;" horiz-adv-x="878" d="M125 1055l250 334q4 4 8 4h117q4 0 8 -4l246 -334q2 -4 -2 -4h-60q-4 0 -8 4l-242 205q-3 3 -6 0l-241 -205q-4 -4 -9 -4h-59z" />
<glyph unicode="&#x2c7;" horiz-adv-x="878" d="M125 1389q-2 4 2 4h59q5 0 9 -4l241 -205q3 -3 6 0l242 205q4 4 8 4h60l2 -4l-246 -334q-4 -4 -8 -4h-117q-4 0 -8 4z" />
<glyph unicode="&#x2d8;" horiz-adv-x="835" d="M125 1329q0 4 4 4h57q4 0 4 -4q35 -199 228 -199q192 0 227 199q0 4 4 4h58l4 -4q8 -134 -75 -227.5t-218 -93.5t-218 93.5t-75 227.5z" />
<glyph unicode="&#x2d9;" horiz-adv-x="649" d="M154 1225q0 69 51.5 120.5t120.5 51.5q68 0 119 -51.5t51 -120.5q0 -67 -51 -118.5t-119 -51.5q-69 0 -120.5 51t-51.5 119z" />
<glyph unicode="&#x2da;" horiz-adv-x="657" d="M154 1225q0 72 52 124t124 52t123 -52t51 -124t-51 -123t-123 -51t-124 51t-52 123zM219 1225q0 -43 33.5 -76t77.5 -33q43 0 75.5 33t32.5 76q0 44 -32.5 77t-75.5 33q-44 0 -77.5 -33t-33.5 -77z" />
<glyph unicode="&#x2db;" horiz-adv-x="1705" d="M514 -276q0 74 70.5 146.5t165.5 113.5h88q-95 -59 -132.5 -119t-37.5 -109q0 -67 82 -67q55 0 96 20q6 3 6 -2v-53q0 -2 -4 -6q-76 -49 -182 -49q-67 0 -109.5 30.5t-42.5 94.5z" />
<glyph unicode="&#x2dc;" horiz-adv-x="921" d="M137 1057q21 99 75 161t144 62q35 0 71 -18.5t61 -41t59.5 -41t66.5 -18.5q67 0 103 111q2 4 6 4h51l2 -4q-20 -96 -73.5 -160.5t-141.5 -64.5q-51 0 -100 30t-89.5 60t-70.5 30q-38 0 -66 -33.5t-38 -76.5q-2 -4 -7 -4h-51z" />
<glyph unicode="&#x2dd;" horiz-adv-x="1040" d="M166 1055l213 282q44 56 92 56q36 0 57 -21t21 -51q0 -32 -14.5 -52.5t-49.5 -47.5l-237 -166q-6 -4 -12 -4h-68zM498 1055l213 282q44 56 92 56q36 0 57 -21t21 -51q0 -32 -14.5 -52.5t-49.5 -47.5l-237 -166q-6 -4 -13 -4h-67z" />
<glyph unicode="&#x3c0;" horiz-adv-x="1271" d="M100 8l111 148q6 6 6 16v670q0 10 -6 16l-111 148q-8 8 2 8h1067q10 0 2 -8l-110 -148q-6 -6 -6 -16v-670q0 -10 6 -16l110 -148q8 -8 -2 -8h-395q-10 0 -2 8l111 148q6 6 6 16v717q0 29 -17 46t-45 17h-383q-28 0 -44.5 -17t-16.5 -46v-717q0 -10 6 -16l111 -148 q8 -8 -2 -8h-396q-10 0 -2 8z" />
<glyph unicode="&#x2000;" horiz-adv-x="929" />
<glyph unicode="&#x2001;" horiz-adv-x="1858" />
<glyph unicode="&#x2002;" horiz-adv-x="929" />
<glyph unicode="&#x2003;" horiz-adv-x="1858" />
<glyph unicode="&#x2004;" horiz-adv-x="619" />
<glyph unicode="&#x2005;" horiz-adv-x="464" />
<glyph unicode="&#x2006;" horiz-adv-x="309" />
<glyph unicode="&#x2007;" horiz-adv-x="309" />
<glyph unicode="&#x2008;" horiz-adv-x="232" />
<glyph unicode="&#x2009;" horiz-adv-x="371" />
<glyph unicode="&#x200a;" horiz-adv-x="103" />
<glyph unicode="&#x2010;" horiz-adv-x="559" d="M51 483v60q0 4 6 4h445q6 0 6 -4v-60q0 -4 -6 -4h-445q-6 0 -6 4z" />
<glyph unicode="&#x2011;" horiz-adv-x="559" d="M51 483v60q0 4 6 4h445q6 0 6 -4v-60q0 -4 -6 -4h-445q-6 0 -6 4z" />
<glyph unicode="&#x2012;" horiz-adv-x="559" d="M51 483v60q0 4 6 4h445q6 0 6 -4v-60q0 -4 -6 -4h-445q-6 0 -6 4z" />
<glyph unicode="&#x2013;" horiz-adv-x="999" d="M51 483v60q0 4 6 4h885q6 0 6 -4v-60q0 -4 -6 -4h-885q-6 0 -6 4z" />
<glyph unicode="&#x2014;" horiz-adv-x="1243" d="M51 483v60q0 4 6 4h1129q6 0 6 -4v-60q0 -4 -6 -4h-1129q-6 0 -6 4z" />
<glyph unicode="&#x2018;" horiz-adv-x="524" d="M160 1190q0 140 76 239t165 99q3 0 4 -2t-2 -4q-58 -34 -95.5 -95.5t-37.5 -123.5q0 -8 6 -5q21 7 31 7q56 0 90.5 -36.5t34.5 -94.5q0 -55 -39.5 -92.5t-95.5 -37.5q-66 0 -101.5 45t-35.5 101z" />
<glyph unicode="&#x2019;" horiz-adv-x="524" d="M92 1300q0 55 39.5 92.5t95.5 37.5q67 0 102.5 -45t35.5 -101q0 -140 -76.5 -239t-165.5 -99q-3 0 -4 2t2 4q58 34 95.5 95.5t37.5 123.5q0 8 -6 5q-21 -7 -31 -7q-56 0 -90.5 36.5t-34.5 94.5z" />
<glyph unicode="&#x201a;" horiz-adv-x="524" d="M92 94q0 55 39.5 92t95.5 37q67 0 102.5 -44.5t35.5 -100.5q0 -140 -76.5 -239t-165.5 -99q-3 0 -4 2t2 4q58 34 95.5 95.5t37.5 123.5q0 7 -6 4q-18 -6 -31 -6q-56 0 -90.5 36.5t-34.5 94.5z" />
<glyph unicode="&#x201c;" horiz-adv-x="888" d="M160 1190q0 140 76 239t165 99q3 0 4 -2t-2 -4q-58 -34 -95.5 -95.5t-37.5 -123.5q0 -8 6 -5q21 7 31 7q56 0 90.5 -36.5t34.5 -94.5q0 -55 -39.5 -92.5t-95.5 -37.5q-66 0 -101.5 45t-35.5 101zM524 1190q0 140 76.5 239t165.5 99q3 0 4 -2t-2 -4q-58 -34 -95.5 -95.5 t-37.5 -123.5q0 -8 6 -5q21 7 31 7q56 0 90.5 -36.5t34.5 -94.5q0 -55 -39.5 -92.5t-95.5 -37.5q-67 0 -102.5 45t-35.5 101z" />
<glyph unicode="&#x201d;" horiz-adv-x="888" d="M92 1300q0 55 39.5 92.5t95.5 37.5q67 0 102.5 -45t35.5 -101q0 -140 -76.5 -239t-165.5 -99q-3 0 -4 2t2 4q58 34 95.5 95.5t37.5 123.5q0 8 -6 5q-21 -7 -31 -7q-56 0 -90.5 36.5t-34.5 94.5zM457 1300q0 55 39.5 92.5t95.5 37.5q66 0 101.5 -45t35.5 -101 q0 -140 -76.5 -239t-165.5 -99q-3 0 -4 2t2 4q58 34 95.5 95.5t37.5 123.5q0 8 -6 5q-21 -7 -30 -7q-56 0 -90.5 36.5t-34.5 94.5z" />
<glyph unicode="&#x201e;" horiz-adv-x="880" d="M92 94q0 55 39.5 92t95.5 37q67 0 102.5 -44.5t35.5 -100.5q0 -140 -76.5 -239t-165.5 -99q-3 0 -4 2t2 4q58 34 95.5 95.5t37.5 123.5q0 7 -6 4q-18 -6 -31 -6q-56 0 -90.5 36.5t-34.5 94.5zM449 94q0 55 39.5 92t95.5 37q67 0 102 -44.5t35 -100.5q0 -140 -76.5 -239 t-165.5 -99q-3 0 -4 2t2 4q58 34 95.5 95.5t37.5 123.5q0 7 -6 4q-18 -6 -31 -6q-55 0 -89.5 36t-34.5 95z" />
<glyph unicode="&#x2020;" horiz-adv-x="874" d="M10 948v60q0 4 6 4h375q4 0 4 4v407q0 7 6 7h72q6 0 6 -7v-407q0 -4 4 -4h375q6 0 6 -4v-60q0 -4 -6 -4h-375q-4 0 -4 -4v-1219q0 -6 -6 -6h-72q-6 0 -6 6v1219q0 4 -4 4h-375q-6 0 -6 4z" />
<glyph unicode="&#x2021;" horiz-adv-x="874" d="M10 137v60q0 4 6 4h375q4 0 4 4v735q0 4 -4 4h-375q-6 0 -6 4v60q0 4 6 4h375q4 0 4 4v407q0 7 6 7h72q6 0 6 -7v-407q0 -4 4 -4h375q6 0 6 -4v-60q0 -4 -6 -4h-375q-4 0 -4 -4v-735q0 -4 4 -4h375q6 0 6 -4v-60q0 -4 -6 -4h-375q-4 0 -4 -4v-408q0 -6 -6 -6h-72 q-6 0 -6 6v408q0 4 -4 4h-375q-6 0 -6 4z" />
<glyph unicode="&#x2022;" horiz-adv-x="948" d="M174 571q0 120 90 209.5t211 89.5q120 0 209.5 -89.5t89.5 -209.5q0 -121 -89.5 -211t-209.5 -90q-121 0 -211 90t-90 211z" />
<glyph unicode="&#x2026;" horiz-adv-x="1622" d="M154 96q0 54 39.5 93.5t93.5 39.5t93.5 -39.5t39.5 -93.5t-39.5 -93.5t-93.5 -39.5t-93.5 39.5t-39.5 93.5zM678 96q0 54 39.5 93.5t93.5 39.5t93.5 -39.5t39.5 -93.5t-39.5 -93.5t-93.5 -39.5t-93.5 39.5t-39.5 93.5zM1202 94q0 54 39.5 93.5t93.5 39.5t93.5 -39.5 t39.5 -93.5t-39.5 -93.5t-93.5 -39.5t-93.5 39.5t-39.5 93.5z" />
<glyph unicode="&#x202f;" horiz-adv-x="371" />
<glyph unicode="&#x2030;" horiz-adv-x="2596" d="M96 1053q0 153 114.5 265t268.5 112q101 0 191 -51t144 -138.5t54 -187.5q0 -169 -112 -272t-277 -103q-163 0 -273 104.5t-110 270.5zM246 1053q0 -126 67.5 -217t165.5 -91q99 0 169.5 91.5t70.5 216.5q0 142 -68.5 225.5t-171.5 83.5t-168 -81.5t-65 -227.5zM373 6 q-4 -6 4 -6h82q8 0 8 6q115 176 289.5 430.5t381.5 553t275 396.5q5 7 -4 7h-82q-8 0 -8 -7q-41 -61 -946 -1380zM915 338q0 153 114.5 265t268.5 112q101 0 191 -51t144.5 -138.5t54.5 -187.5q0 -169 -112.5 -272t-277.5 -103q-163 0 -273 104.5t-110 270.5zM1065 338 q0 -126 67 -216.5t166 -90.5t169.5 91t70.5 216q0 142 -68.5 225.5t-171.5 83.5t-168 -81.5t-65 -227.5zM1729 338q0 153 114 265t268 112q101 0 191 -51t144.5 -138.5t54.5 -187.5q0 -169 -112.5 -272t-277.5 -103q-163 0 -272.5 104.5t-109.5 270.5zM1878 338 q0 -126 67 -216.5t166 -90.5t169.5 91t70.5 216q0 142 -68.5 225.5t-171.5 83.5t-168 -81.5t-65 -227.5z" />
<glyph unicode="&#x2039;" horiz-adv-x="530" d="M92 424v119q0 4 4 6l318 180q4 -3 4 -4v-82q0 -6 -4 -8l-238 -133q-4 -2 -4 -6v-29q0 -4 4 -6l238 -135q4 -2 4 -9v-81q0 -4 -1 -4.5t-3 -0.5l-318 187q-4 2 -4 6z" />
<glyph unicode="&#x203a;" horiz-adv-x="530" d="M113 236v81q0 7 4 9l237 135q4 2 4 6v29q0 4 -4 6l-237 133q-4 2 -4 8v82q0 3 0.5 3.5t2.5 0.5h1l317 -180q4 -2 4 -6v-119q0 -4 -4 -6l-317 -187q-4 3 -4 5z" />
<glyph unicode="&#x2044;" horiz-adv-x="970" d="M12 6l860 1380q0 7 9 7h73q9 0 4 -7l-860 -1380q0 -6 -8 -6h-74q-8 0 -4 6z" />
<glyph unicode="&#x205f;" horiz-adv-x="464" />
<glyph unicode="&#x20ac;" horiz-adv-x="1449" d="M57 502v53q0 6 6 6h99q-8 55 -8 129q0 62 6 121h-97q-6 0 -6 6v53q0 7 6 7h107q46 248 207.5 400.5t410.5 152.5q125 0 228.5 -46t169.5 -114q5 -5 6 -4l2 2l92 96q14 9 14 -4v-522q0 -2 -2 -5.5t-5 -2.5t-5 8q-68 253 -196 388.5t-304 135.5q-182 0 -292.5 -133 t-139.5 -352h461q6 0 6 -7v-53q0 -6 -6 -6h-469q-4 -79 -2 -121q0 -47 8 -129h463q6 0 6 -6v-53q0 -6 -6 -6h-452q36 -215 141.5 -340t281.5 -125q77 0 144 26t117 67.5t95.5 105.5t78 128.5t65.5 147.5q3 6 6.5 4t3.5 -6v-496q0 -11 -10 -4l-94 102q-4 4 -10 -2 q-74 -64 -179.5 -102.5t-218.5 -38.5q-246 0 -406.5 145.5t-207.5 387.5h-109q-6 0 -6 6z" />
<glyph unicode="&#x2122;" horiz-adv-x="2897" d="M612 1194l37 250q0 2 2 2q45 -16 117 -16h346q72 0 117 16q2 0 2 -2l37 -250q0 -3 -1 -4t-3 2l-113 154q0 1 -7 11t-11 14t-12 11t-16.5 10t-19.5 3h-47q-15 0 -23.5 -10t-8.5 -25v-602q0 -8 2 -10l61 -80q4 -4 0 -4h-260q-4 0 0 4l61 80q2 2 2 10v602q0 15 -8.5 25 t-23.5 10h-47q-9 0 -17.5 -3t-14 -6t-12.5 -10t-9 -10l-8 -12l-7 -8l-111 -154l-2 -3q-2 1 -2 5zM1309 664h172q6 0 2 4l-51 80q-5 5 -5 10v514l3 2l188 -488q39 -100 29 -120q0 -2 4 -2h110q4 0 4 2l238 622v-530q0 -8 -2 -10l-62 -80q-4 -4 3 -4h249q4 0 0 4l-59 80 q-4 2 -4 10v569q0 34 8 45l41 53q2 5 0 5h-192q-5 0 -5 -5q0 -30 -24 -92l-203 -542q-2 -4 -2 0q-2 19 -12 43l-189 485q-33 91 -34 106q0 5 -3 5h-198q-1 0 -1 -2.5t1 -2.5l55 -71l2 -8v-588q0 -8 -2 -10l-61 -80q-4 -4 0 -4z" />
<glyph unicode="&#x2202;" horiz-adv-x="1173" d="M94 553q17 77 65 154.5t118.5 141t169 98t204.5 22.5q95 -10 169.5 -67.5t107.5 -133.5h4q6 114 -21.5 213.5t-78 169.5t-117 120.5t-139 74.5t-144.5 24q-4 0 -6 4v51q2 5 6 5q122 0 227 -32t182 -91t134 -141t84 -182t31.5 -215t-23.5 -239q-27 -127 -76 -229 t-121.5 -179t-173.5 -118.5t-223 -40.5q-215 3 -325 166.5t-54 423.5zM236 285.5q7 -88.5 42.5 -145t83.5 -83t111 -30.5q84 -5 160.5 29t143.5 122t100 221q32 137 10 245.5t-87.5 177.5t-156.5 79q-79 9 -150 -26t-119.5 -97.5t-80.5 -133.5t-45 -142q-19 -128 -12 -216.5 z" />
<glyph unicode="&#x2206;" horiz-adv-x="1251" d="M94 4l527 1045q0 1 2 1t2 -1l532 -1045q0 -4 -4 -4h-1055q-6 0 -4 4zM211 72q-2 -4 4 -4h819q4 0 4 4l-413 798q0 2 -2 2t-2 -2z" />
<glyph unicode="&#x220f;" horiz-adv-x="1271" d="M97.5 -282q-0.5 3 2.5 6l111 147q6 6 6 16v1497q0 9 6 9h828q4 0 4 -9v-1497q0 -10 6 -16l110 -147q2 -2 2.5 -4t-0.5 -3.5t-4 -1.5h-395q-4 0 -4.5 3t2.5 6l111 147q6 6 6 16v1381q0 29 -17 46t-45 17h-383q-28 0 -44.5 -17t-16.5 -46v-1381q0 -10 6 -16l111 -147 q2 -2 2.5 -4t-0.5 -3.5t-4 -1.5h-396q-4 0 -4.5 3z" />
<glyph unicode="&#x2211;" horiz-adv-x="1024" d="M12 1386q-3 3 0 6q0 1 2 1h719q147 0 240 34q6 3 6 -2v-360q0 -6 -3.5 -6t-6.5 6l-121 201q-22 36 -44.5 50.5t-64.5 14.5h-415q-14 0 -21.5 -8.5t2.5 -22.5l467 -565q100 -139 160 -178q6 -3 0 -6q-57 -37 -158 -178l-467 -566q-10 -13 -2.5 -21.5t21.5 -8.5h415 q42 0 64.5 14.5t44.5 50.5l121 201q3 6 6.5 6t3.5 -6v-360q0 -5 -6 -2q-93 34 -240 34h-719q-4 1 -2 6q95 82 150 150l469 561q71 95 115 113q3 3 0 6q-46 18 -115 115l-471 571q-55 67 -150 149z" />
<glyph unicode="&#x221a;" horiz-adv-x="823" d="M-8 -31l92 318q3 6 8 6h64q5 0 8 -6l129 -451l463 1587q0 7 8 7h63q6 0 4 -7l-497 -1702q-3 -6 -8 -6h-64q-5 0 -8 6l-131 457l-55 -209q0 -6 -9 -6h-63q-6 0 -4 6z" />
<glyph unicode="&#x221e;" horiz-adv-x="1779" d="M92 530q0 66 26 126.5t72.5 107.5t118.5 75.5t158 28.5q250 0 383 -186q45 73 99.5 124.5t108.5 77.5t101.5 37t95.5 11q208 0 320.5 -111t112.5 -295q0 -76 -24.5 -141t-66.5 -111t-98 -78.5t-118.5 -48.5t-127.5 -16q-51 0 -92 4.5t-94 21.5t-97 47t-91 84t-86 128 q-62 -106 -150.5 -162.5t-175.5 -56.5q-174 0 -274.5 92.5t-100.5 240.5zM236 530q0 -112 69.5 -190t161.5 -78q80 0 159 62.5t130 167.5v4q-65 155 -134 231t-155 76q-96 0 -163.5 -74t-67.5 -199zM889 621l24 -50q35 -79 58.5 -126.5t56 -100.5t62.5 -81.5t69.5 -47 t85.5 -18.5q128 0 204.5 92.5t76.5 236.5q0 162 -76 251t-207 89q-41 0 -84.5 -12.5t-90 -39.5t-93.5 -76.5t-86 -116.5z" />
<glyph unicode="&#x222b;" horiz-adv-x="671" d="M-100 -279l137 248q3 3 6 -2l92 -151q18 -27 37 -27q41 0 62.5 88t21.5 248v893q0 136 33 239t106 165.5t178 62.5h197q5 0 2 -6l-137 -248q-3 -3 -6 2l-92 151q-18 27 -37 27q-41 0 -62.5 -88t-21.5 -248v-893q1 -135 -32.5 -238.5t-107 -166t-178.5 -62.5h-196 q-5 0 -2 6z" />
<glyph unicode="&#x2248;" horiz-adv-x="1095" d="M53 602q41 95 114 153t161 58q55 0 147.5 -38.5t182.5 -77t137 -38.5q110 0 186 125q2 4 6 4l43 -32l2 -4q-48 -104 -115 -155.5t-143 -51.5q-57 0 -127.5 24t-125 53.5t-117 53.5t-105.5 24q-66 0 -111 -33t-84 -96q-2 -4 -6 -4l-43 31zM63 264q41 95 114 153t161 58 q44 0 112 -24t127.5 -52.5t124.5 -52.5t103 -24q111 0 186 124q3 5 6 5l43 -33l2 -4q-48 -104 -115 -155.5t-143 -51.5q-57 0 -127.5 24t-125 53.5t-117 53.5t-105.5 24q-66 0 -110.5 -33t-83.5 -96q-2 -4 -6 -4l-43 31z" />
<glyph unicode="&#x2260;" horiz-adv-x="991" d="M113 328v53q0 6 6 6h301l74 250h-375q-6 0 -6 6v53q0 6 6 6h393l90 306q0 6 8 6h64q6 0 4 -6l-90 -306h284q7 0 7 -6v-53q0 -6 -7 -6h-303l-73 -250h376q7 0 7 -6v-53q0 -6 -7 -6h-395l-92 -316q0 -6 -8 -6h-64q-6 0 -4 6l92 316h-282q-6 0 -6 6z" />
<glyph unicode="&#x2264;" horiz-adv-x="1105" d="M92 551v90q0 4 4 6l965 404q4 -3 4 -4v-72q0 -6 -4 -8l-897 -371q-2 0 -2 -2t2 -2l897 -377q4 -2 4 -8v-72q-3 -4 -4 -4l-965 414q-4 2 -4 6zM104 4v59q0 5 7 5h948q6 0 6 -5v-59q0 -4 -6 -4h-948q-7 0 -7 4z" />
<glyph unicode="&#x2265;" horiz-adv-x="1105" d="M41 4v59q0 5 6 5h948q6 0 6 -5v-59q0 -4 -6 -4h-948q-6 0 -6 4zM41 135v72q0 6 4 8l897 377q2 0 2 2t-2 2l-897 371q-4 2 -4 8v72q0 3 0.5 3.5t2.5 0.5h1l965 -404q4 -2 4 -6v-90q0 -4 -4 -6l-965 -414q-4 3 -4 4z" />
<glyph unicode="&#x25ca;" horiz-adv-x="1036" d="M84 686q-5 10 0 21l432 723q0 2 2 2t2 -2l432 -723q5 -11 0 -21l-432 -725q0 -1 -2 -1t-2 1zM174 686l342 -571q0 -1 2 -1t2 1l342 571q5 8 0 19l-342 571q0 2 -2 2t-2 -2l-342 -571q-5 -11 0 -19z" />
<glyph unicode="&#x25fc;" horiz-adv-x="1013" d="M0 0v1014h1014v-1014h-1014z" />
</font>
</defs>
</svg>
