<?xml version="1.0" standalone="no"?>
<!DOCTYPE svg PUBLIC "-//W3C//DTD SVG 1.1//EN" "http://www.w3.org/Graphics/SVG/1.1/DTD/svg11.dtd" >
<svg xmlns="http://www.w3.org/2000/svg" xmlns:xlink="http://www.w3.org/1999/xlink" version="1.1">
<metadata></metadata>
<defs>
<font id="knedgebook" horiz-adv-x="1017" >
<font-face units-per-em="2048" ascent="1536" descent="-512" />
<missing-glyph horiz-adv-x="608" />
<glyph unicode="&#xfb00;" horiz-adv-x="1087" d="M29 805v69q0 8 6 5q12 -4 39.5 -6.5t49.5 -2.5h21q5 0 5 4v246q0 156 95 260.5t253 104.5q163 0 260 -105q3 -3 6 0q83 111 199 105q144 -6 219 0q5 0 2 -6l-137 -248q-4 -4 -7 2q-31 87 -66 132.5t-67 45.5q-73 0 -73 -278v-259q0 -4 4 -4h88q120 -1 147 9q6 3 6 -5v-69 q0 -7 -6 -4q-5 4 -42 6t-71 2h-34h-66q-11 0 -18.5 -6.5t-7.5 -16.5v-616q0 -8 6 -14l123 -154q8 -8 -2 -8q-138 6 -203 6q-60 0 -104 -1.5t-64 -3t-23 -1.5q-9 0 -4 8l96 154q5 8 5 14v616q0 10 -8 16.5t-19 6.5h-291q-11 0 -19 -6.5t-8 -16.5v-616q0 -7 7 -14l123 -154 q8 -8 -3 -8q-138 6 -202 6q-60 0 -104 -1.5t-64 -3t-23 -1.5q-9 0 -4 8l96 154q5 8 5 14v616q0 10 -8 16.5t-19 6.5q-76 0 -88 -8q-6 -3 -6 4zM319 874q0 -4 5 -4h335q5 0 5 4v285q0 129 -44 196.5t-124 67.5q-177 0 -177 -249v-300z" />
<glyph unicode="&#xfb01;" horiz-adv-x="1001" d="M29 805v69q0 8 6 5q12 -4 39.5 -6.5t49.5 -2.5h21q5 0 5 4v154q0 204 97 330.5t279 126.5q143 0 273 -101q36 -28 51.5 -52t15.5 -58q0 -49 -32 -85t-74 -36q-81 0 -115 74q-4 8 -15.5 35t-17.5 40t-18.5 37t-23.5 36.5t-25.5 27t-31.5 21t-36 6.5q-87 0 -122.5 -74.5 t-35.5 -222.5v-259q0 -4 5 -4h251q227 3 254 13q7 3 7 -4v-705q0 -9 6 -18l96 -154q5 -8 -4 -8q-3 0 -20.5 1.5t-58.5 3t-101 1.5q-51 0 -189 -6q-10 0 -2 8l96 154q7 10 7 18v533q0 76 -27 89t-178 13h-12h-103q-11 0 -19 -6.5t-8 -16.5v-616q0 -7 7 -14l123 -154 q8 -8 -3 -8q-138 6 -202 6q-60 0 -104 -1.5t-64 -3t-23 -1.5q-9 0 -4 8l96 154q5 8 5 14v616q0 10 -8 16.5t-19 6.5q-76 0 -88 -8q-6 -3 -6 4z" />
<glyph unicode="&#xfb02;" horiz-adv-x="997" d="M29 805v69q0 8 6 5q12 -4 39.5 -6.5t49.5 -2.5h21q5 0 5 4v154q0 205 101.5 331t254.5 126q54 0 115 -8.5t120 -8.5q17 0 30.5 1.5t20.5 3.5t19.5 6t19.5 6q5 3 5 -4v-1307q0 -6 6 -18l96 -154q4 -8 -4 -8q-138 6 -180 6q-60 0 -103 -1.5t-62 -3t-22 -1.5q-8 0 -4 8 l96 154q7 14 7 18v1049q0 52 -10.5 90t-25 58.5t-36 32t-38.5 14.5t-38 3q-31 0 -52 -3t-51.5 -18.5t-49 -44t-32.5 -85.5t-14 -137v-259q0 -4 5 -4h88q120 -1 147 9q6 3 6 -5v-69q0 -7 -6 -4q-5 4 -42 6t-71 2h-34h-66q-11 0 -19 -6.5t-8 -16.5v-616q0 -7 7 -14l123 -154 q8 -8 -3 -8q-138 6 -202 6q-60 0 -104 -1.5t-64 -3t-23 -1.5q-9 0 -4 8l96 154q5 8 5 14v616q0 10 -8 16.5t-19 6.5q-76 0 -88 -8q-6 -3 -6 4z" />
<glyph unicode="tt" horiz-adv-x="1015" d="M37 805v69q0 8 6 5q12 -4 39.5 -6.5t49.5 -2.5h22q4 0 4 4v230q0 6 -4 8l-103 70q-10 5 0 8q53 18 113 42.5t107.5 45.5t50.5 22q6 2 6 -4v-422q0 -4 4 -4h327q5 0 5 4v230q0 6 -5 8l-102 70q-10 5 0 8q53 18 113 42.5t107 45.5t50 22q7 2 7 -4v-422q0 -4 4 -4h34 q94 -1 121 9q6 3 6 -5v-69q0 -7 -6 -4q-5 4 -35.5 6t-57.5 2h-28h-12q-11 0 -18.5 -6.5t-7.5 -16.5v-677q0 -68 36 -68q18 0 35 18.5t27 61.5q0 6 6 0l66 -70q2 -3 -3 -8q-69 -80 -165 -80q-85 0 -128.5 52t-43.5 141v630q0 10 -8 16.5t-19 6.5h-283q-11 0 -18.5 -6.5 t-7.5 -16.5v-677q0 -68 37 -68q43 0 61 80q0 6 6 0l66 -70q3 -3 -2 -8q-69 -80 -166 -80q-85 0 -128.5 52t-43.5 141v630q0 10 -8 16.5t-19 6.5q-76 0 -88 -8q-6 -3 -6 4z" />
<glyph horiz-adv-x="0" />
<glyph horiz-adv-x="682" />
<glyph unicode=" "  horiz-adv-x="608" />
<glyph unicode="&#x09;" horiz-adv-x="608" />
<glyph unicode="&#xa0;" horiz-adv-x="608" />
<glyph unicode="!" horiz-adv-x="589" d="M162 96q0 54 39.5 93.5t93.5 39.5t93.5 -39.5t39.5 -93.5t-39.5 -93.5t-93.5 -39.5t-93.5 39.5t-39.5 93.5zM182 1300q-3 53 30.5 91.5t82.5 38.5q46 0 80 -39t31 -91l-74 -931q0 -9 -6 -9h-64q-6 0 -6 9z" />
<glyph unicode="&#x22;" horiz-adv-x="843" d="M158 1343q-11 62 24 102t84 40t84.5 -40t24.5 -102q-1 -4 -22 -95.5t-37.5 -194.5t-16.5 -183v-34q0 -9 -6 -9h-53q-7 0 -7 9v34q0 80 -16 182.5t-37.5 195t-21.5 95.5zM469 1343q-11 62 24.5 102t84.5 40t84 -40t24 -102q-1 -4 -22 -95.5t-37.5 -194.5t-16.5 -183v-34 q0 -9 -6 -9h-53q-6 0 -6 9v34q0 80 -16.5 183t-37.5 194.5t-22 95.5z" />
<glyph unicode="#" horiz-adv-x="1585" d="M92 446l17 60q0 4 6 4h338l127 428h-344q-7 0 -7 4l17 59q0 5 6 5h346l123 417q0 7 8 7h64q6 0 4 -7l-123 -417h407l123 417q0 7 8 7h64q6 0 4 -7l-123 -417h330q6 0 6 -5l-16 -59q0 -4 -7 -4h-331l-125 -428h336q6 0 6 -4l-17 -60q0 -4 -6 -4h-340l-127 -436q0 -6 -8 -6 h-63q-6 0 -4 6l127 436h-408l-127 -436q0 -6 -8 -6h-64q-6 0 -4 6l127 436h-336q-6 0 -6 4zM530 510h406l127 428h-408z" />
<glyph unicode="$" horiz-adv-x="1144" d="M102 2q7 79 7 172q0 85 -3.5 231t-3.5 156q0 3 2 4.5t4 0.5t3 -5q41 -126 127 -262q130 -206 305 -256q6 0 6 4v604q0 4 -4 8l-189 91q-112 54 -168.5 142.5t-56.5 199.5q0 102 55.5 180.5t145 118t196.5 39.5h17q4 0 4 4v165q0 7 6 7h51q6 0 6 -7v-169q0 -7 4 -7 q142 -21 246 -112q5 -5 10 0l95 82q14 9 14 -4q0 -21 -3 -72t-3 -82q0 -85 3 -185t3 -110q0 -1 -1 -3t-2.5 -3.5t-3.5 -1.5t-4.5 1.5t-4.5 6.5q-78 158 -162 263t-187 143q-4 0 -4 -5v-485q0 -4 4 -8l242 -123q120 -61 180 -145.5t60 -200.5q0 -79 -29.5 -152t-85 -132.5 t-147 -95.5t-205.5 -36h-15q-4 0 -4 -6v-178q0 -6 -6 -6h-51q-6 0 -6 6v186q0 6 -6 6q-176 27 -316 133q-6 4 -10 0l-108 -104q-7 -7 -7 2zM270 1169q-1 -79 42 -133.5t145 -107.5l88 -45q4 1 4 4v469q0 4 -4 4q-10 2 -29 2q-61 0 -114.5 -19.5t-92 -65t-39.5 -108.5z M612 37q0 -6 4 -6h23q133 0 222 71.5t89 194.5q0 168 -205 266l-129 62q-4 -1 -4 -4v-584z" />
<glyph unicode="%" horiz-adv-x="1783" d="M96 1053q0 153 114.5 265t268.5 112q101 0 191 -51t144 -138.5t54 -187.5q0 -169 -112 -272t-277 -103q-163 0 -273 104.5t-110 270.5zM246 1053q0 -126 67.5 -217t165.5 -91q99 0 169.5 91.5t70.5 216.5q0 142 -68.5 225.5t-171.5 83.5t-168 -81.5t-65 -227.5zM373 6 q-4 -6 4 -6h82q8 0 8 6q115 176 289.5 430.5t381.5 553t275 396.5q5 7 -4 7h-82q-8 0 -8 -7q-41 -61 -946 -1380zM915 338q0 153 114.5 265t268.5 112q101 0 191 -51t144.5 -138.5t54.5 -187.5q0 -169 -112.5 -272t-277.5 -103q-163 0 -273 104.5t-110 270.5zM1065 338 q0 -126 67 -216.5t166 -90.5t169.5 91t70.5 216q0 142 -68.5 225.5t-171.5 83.5t-168 -81.5t-65 -227.5z" />
<glyph unicode="&#x26;" horiz-adv-x="1499" d="M47 356q0 69 20 130t51.5 107t83 91t100 77t116.5 70l-10 15q-67 75 -107.5 145t-40.5 150q0 93 50.5 160t131 98t181.5 31q142 0 228.5 -65.5t86.5 -158.5q0 -56 -24 -104.5t-76.5 -91t-80 -61t-89.5 -53.5l-15 -9l-26 -15l385 -475l184 248q4 4 0 8l-154 168 q-3 3 -1.5 5.5t6.5 2.5q49 -6 129 -6q92 0 163.5 1t106 2t35.5 1q10 0 2 -8q-81 -53 -148 -114.5t-131 -145.5l-153 -209l110 -135q33 -42 46 -58t37.5 -42.5t42.5 -36.5t36 -10q25 0 44 6.5t34.5 22.5t22.5 26t22 33q3 7 6 4l35 -21q2 -2 0 -6q-24 -35 -34.5 -50.5 t-36 -43.5t-47 -41t-55.5 -24t-73 -11q-67 0 -111.5 19.5t-91.5 78.5l-104 129q-99 -121 -198.5 -174t-229.5 -53q-73 0 -140 14.5t-125.5 46t-101 76.5t-67.5 111t-25 145zM238 367q0 -65 17 -123.5t50.5 -107t91 -77t131.5 -28.5q190 0 365 209l-432 538 q-70 -42 -116 -91.5t-76.5 -131t-30.5 -188.5zM436 1204q0 -26 7 -52.5t13 -43.5t26 -47.5t26 -38.5t34.5 -43.5t30.5 -38.5l13 -16l28 16q74 42 113 99t39 147q0 88 -46.5 132t-121.5 44q-81 0 -121.5 -43t-40.5 -115z" />
<glyph unicode="'" horiz-adv-x="532" d="M158 1343q-11 62 24 102t84 40t84.5 -40t24.5 -102q-1 -4 -22 -95.5t-37.5 -194.5t-16.5 -183v-34q0 -9 -6 -9h-53q-7 0 -7 9v34q0 80 -16 182.5t-37.5 195t-21.5 95.5z" />
<glyph unicode="(" horiz-adv-x="589" d="M72 600q0 152 33 283.5t96 239t139 193t178 169.5l31 -29q-285 -318 -285 -856t285 -856l-31 -29q-102 84 -178 170t-139 194t-96 239.5t-33 281.5z" />
<glyph unicode=")" horiz-adv-x="589" d="M41 -256q285 318 285 856t-285 856l31 29q102 -84 178 -169.5t139 -193t96 -239t33 -283.5q0 -150 -33 -281.5t-96 -239.5t-139 -194t-178 -170z" />
<glyph unicode="*" horiz-adv-x="843" d="M51 1192q13 26 39 34.5t49 -5.5l223 -131q6 -3 9.5 0t-0.5 10l-127 225q-13 23 -6 48.5t32 35.5q26 10 50 -2.5t30 -38.5l64 -252q1 -5 3.5 -7t5 0t3.5 7l68 248q9 30 30 42.5t49 2.5q26 -9 35 -35.5t-6 -52.5l-131 -219q-6 -7 0 -7q4 -1 10 3l224 121q26 13 51.5 5.5 t34.5 -32.5q12 -23 0.5 -48t-41.5 -32l-250 -59q-5 -1 -7 -3t-0.5 -4.5t7.5 -3.5l248 -75q29 -7 41.5 -29t3.5 -47q-10 -25 -37.5 -34t-50.5 5l-220 131q-6 4 -7.5 1t1.5 -9l123 -225q14 -24 8 -50t-32 -36q-25 -9 -49 3t-31 38l-68 250q-1 3 -2.5 4t-3 0t-2.5 -4l-76 -250 q-7 -26 -31.5 -39t-46.5 -2q-25 12 -33 39t5 47l131 221q7 14 -9 6l-223 -127q-23 -13 -48.5 -5.5t-37.5 32.5q-11 27 0.5 51.5t40.5 30.5l252 61q6 2 6 6t-6 6l-250 74q-27 6 -40.5 28.5t-4.5 47.5z" />
<glyph unicode="+" horiz-adv-x="956" d="M51 483v60q0 4 6 4h379q4 0 4 4v407q0 7 6 7h64q6 0 6 -7v-407q0 -4 4 -4h379q6 0 6 -4v-60q0 -4 -6 -4h-379q-4 0 -4 -4v-407q0 -7 -6 -7h-64q-6 0 -6 7v407q0 4 -4 4h-379q-6 0 -6 4z" />
<glyph unicode="," horiz-adv-x="593" d="M160 94q0 55 39.5 92t95.5 37q67 0 102 -44.5t35 -100.5q0 -171 -74 -270t-168 -99q-3 0 -4 2.5t2 3.5q55 33 94.5 109t39.5 141q0 7 -7 4q-18 -6 -30 -6q-56 0 -90.5 36.5t-34.5 94.5z" />
<glyph unicode="-" horiz-adv-x="559" d="M51 483v60q0 4 6 4h445q6 0 6 -4v-60q0 -4 -6 -4h-445q-6 0 -6 4z" />
<glyph unicode="." horiz-adv-x="573" d="M154 96q0 54 39.5 93.5t93.5 39.5t93.5 -39.5t39.5 -93.5t-39.5 -93.5t-93.5 -39.5t-93.5 39.5t-39.5 93.5z" />
<glyph unicode="/" horiz-adv-x="671" d="M49 -279l498 1702q0 7 8 7h63q7 0 5 -7l-498 -1702q0 -6 -8 -6h-64q-6 0 -4 6z" />
<glyph unicode="0" horiz-adv-x="1417" d="M106 692q0 145 37.5 275t110 234.5t190 166.5t265.5 62q119 0 219 -40t169.5 -109.5t118.5 -163.5t72 -201t23 -224q0 -121 -24 -229.5t-73 -200t-119.5 -158t-169 -104t-216.5 -37.5t-216.5 37.5t-169.5 104t-120 158t-73 200t-24 229.5zM301 692q18 -661 406 -661 q387 0 405 661q3 132 -18 248t-66.5 212.5t-128 153t-192.5 56.5t-192.5 -56.5t-128.5 -153t-67 -212.5t-18 -248z" />
<glyph unicode="1" horiz-adv-x="641" d="M62 1187.5q-1 1.5 0 3.5t4 3q52 25 162 99t188 137q6 2 6 -5v-1253q0 -10 6 -16l102 -154q8 -8 -2 -8q-138 6 -196 6q-60 0 -107 -1.5t-70 -3t-26 -1.5q-10 0 -2 8l115 154q6 6 6 16v1008q0 6 -6 6h-176q-3 0 -4 1.5z" />
<glyph unicode="2" horiz-adv-x="1087" d="M63 930q1 113 36.5 207.5t97 158t144.5 99t177 35.5q195 0 312 -98.5t122 -250.5q1 -30 -1.5 -58t-11.5 -58.5t-15.5 -53t-25.5 -55.5t-29.5 -52t-39 -56.5t-42 -55t-51.5 -62t-53.5 -62.5t-61.5 -70l-377 -424q-2 -2 -0.5 -4t4.5 -2h260q119 0 197.5 28.5t146.5 89.5 q32 27 74.5 72.5t69.5 77.5l26 31q4 4 7 2t1 -7l-112 -356q-2 -6 -9 -6h-837q-4 1 -2 6l475 533q81 92 132 168t75 141t31 115t5 114q-3 134 -85 209.5t-189 75.5q-128 0 -203 -88.5t-75 -241.5q0 -6 2 -8l118 -141q4 -9 -6 -9l-280 48q-7 0 -7 8z" />
<glyph unicode="3" horiz-adv-x="1179" d="M86 430q0 8 6 8l242 43q5 0 2 -6l-103 -143q-2 -2 -2 -8q12 -75 46.5 -133t82 -92t100.5 -51t109 -17q306 0 314 358q2 82 -30.5 150.5t-86.5 111t-120 65.5t-134 23q-57 0 -127 -18q-4 1 -4 4v84q0 4 4 4q66 -12 127 -12q59 0 112.5 18.5t97 54t68.5 96.5t23 138 q-4 130 -70 192t-172 62q-186 0 -237 -168v-8l57 -154q2 -4 -2 -4l-223 37q-6 2 -6 8q42 163 152.5 260t265.5 97q198 0 306.5 -85t108.5 -223q0 -67 -21.5 -123.5t-51.5 -91.5t-70.5 -62t-71.5 -39.5t-61 -19.5q-5 -3 0 -6q68 -9 130.5 -36.5t114 -72t82.5 -113.5t31 -152 q0 -189 -145 -316t-367 -127q-209 0 -339.5 121t-137.5 346z" />
<glyph unicode="4" horiz-adv-x="1167" d="M70 344v55l4 11l631 976q5 7 10 7h176q6 0 6 -7v-978q0 -7 6 -7h74q33 0 50 6.5t34 26.5l65 80q3 4 6 2.5t3 -4.5v-283q0 -3 -3 -4.5t-6 2.5l-65 80q-17 20 -34 26.5t-50 6.5h-74q-6 0 -6 -6v-168q0 -7 6 -16l111 -142q8 -8 -2 -8h-406q-10 0 -2 8l111 142q6 6 6 16v168 q0 6 -6 6h-641q-4 0 -4 4zM244 440q9 -39 51 -39h420q6 0 6 7v813q0 2 -1 3.5t-3.5 1t-5.5 -4.5l-441 -680q-38 -57 -26 -101z" />
<glyph unicode="5" horiz-adv-x="1179" d="M88 276q-4 9 2 9l213 47q4 1 4 -0.5t-2 -5.5l-61 -138q-4 -7 0 -14q28 -64 109.5 -106.5t197.5 -42.5q45 0 92 15t94.5 50.5t84.5 87t60 132t23 177.5q0 118 -38 215t-113.5 156.5t-175.5 59.5q-91 0 -165 -47t-143 -148q-3 -3 -6 0l-74 37q-2 2 -2 6l99 623q0 4 6 4h495 q28 0 52 1.5t38.5 3t34 6.5t26 7t27.5 9.5t27 9.5q4 0 4 -5l-30 -161q0 -7 -6 -7h-619q-6 0 -6 -4l-70 -438q0 -6 4 0q17 26 43.5 52t66.5 53t96.5 44t119.5 17q152 0 263.5 -67.5t166.5 -178t55 -246.5q0 -147 -77 -269t-201 -189.5t-264 -67.5q-164 0 -281.5 84.5 t-169.5 228.5z" />
<glyph unicode="6" horiz-adv-x="1222" d="M121 539q0 188 71 355.5t188.5 283.5t271.5 184t317 68q4 0 4 -5l-10 -51q-2 -4 -7 -4q-39 0 -92.5 -13t-120.5 -39t-133.5 -73t-125.5 -108t-103.5 -152t-61.5 -197q1 -6 5 0q57 83 145 138t197 55q98 0 179 -29.5t133.5 -77t89 -110t52 -126.5t15.5 -128 q0 -239 -144.5 -393t-357.5 -154q-241 0 -376.5 155.5t-135.5 420.5zM283 471q0 -96 21.5 -173.5t55.5 -126t80 -81t92.5 -46t94.5 -13.5q60 0 117 25t107.5 77t81 144.5t30.5 214.5q0 58 -9 113.5t-32 113.5t-58.5 101t-94 70.5t-132.5 27.5q-64 0 -127 -33t-113.5 -90 t-82 -142.5t-31.5 -181.5z" />
<glyph unicode="7" horiz-adv-x="1034" d="M49 991l68 395q0 7 6 7h899q3 0 5 -3t-1 -6l-645 -1378q-2 -6 -6 -6h-70q-4 0 -4 6l502 1245q3 6 -2 6h-416q-73 0 -107 -7t-49 -20.5t-42 -53.5q-8 -12 -13 -19l-117 -168q-3 -4 -5.5 -3.5t-2.5 5.5z" />
<glyph unicode="8" horiz-adv-x="1150" d="M86 350q0 68 28.5 129.5t78.5 109t103 82.5t116 64l57 29q1 0 1 2t-1 2l-8 4q-110 54 -162 99q-115 100 -115 245q0 137 114 225.5t288 88.5q171 0 281 -83t110 -202q0 -101 -69.5 -177t-174.5 -128l-28 -15q-1 0 -1 -2t1 -2l67 -33q118 -57 186 -123t89.5 -127.5 t21.5 -140.5q0 -125 -68 -225.5t-180 -154.5t-243 -54q-222 0 -357 107.5t-135 279.5zM254 352q1 -79 29.5 -141.5t74.5 -101t103 -58.5t119 -20q149 0 239 77.5t96 217.5q2 67 -10.5 117t-44.5 89t-73 68t-107 62l-129 65q-7 3 -14 0l-78 -39q-210 -104 -205 -336z M324 1169q-1 -30 5.5 -57.5t16.5 -48t29 -41.5t33 -34t39.5 -29t38 -23t38 -20.5t31.5 -16.5l82 -43q7 -4 14 0l19 10q82 38 117.5 104t35.5 165q0 112 -66.5 169.5t-172.5 57.5q-107 0 -181.5 -49t-78.5 -144z" />
<glyph unicode="9" horiz-adv-x="1222" d="M88 934q0 225 143 360.5t359 135.5q239 0 372.5 -136t133.5 -362q0 -209 -68.5 -392t-183 -308t-266 -197t-314.5 -72q-4 0 -4 4v51q2 5 6 5q68 0 143.5 22t155.5 72.5t147.5 121.5t120 178.5t72.5 235.5q0 6 -4 0q-47 -82 -141.5 -140t-220.5 -58q-115 0 -205 43.5 t-142 114.5t-78 153t-26 168zM260 936q0 -81 18 -152.5t55 -132.5t102.5 -97t152.5 -36q85 0 163.5 54.5t130.5 160.5t52 238q0 104 -29 182.5t-79 124t-110 68t-128 22.5q-144 0 -236 -108.5t-92 -323.5z" />
<glyph unicode=":" horiz-adv-x="573" d="M154 221q0 54 39.5 93.5t93.5 39.5t93.5 -39.5t39.5 -93.5t-39.5 -93.5t-93.5 -39.5t-93.5 39.5t-39.5 93.5zM154 786q0 54 39.5 94t93.5 40t93.5 -40t39.5 -94t-39.5 -93.5t-93.5 -39.5t-93.5 39.5t-39.5 93.5z" />
<glyph unicode=";" horiz-adv-x="579" d="M154 223q0 55 39.5 92t95.5 37q67 0 102 -44.5t35 -100.5q0 -171 -74 -270t-168 -99q-3 0 -4 2t2 4q55 33 94 109t39 141q0 7 -6 4q-18 -6 -30 -6q-56 0 -90.5 36.5t-34.5 94.5zM156 786q0 54 39.5 94t93.5 40t93.5 -40t39.5 -94t-39.5 -93.5t-93.5 -39.5t-93.5 39.5 t-39.5 93.5z" />
<glyph unicode="&#x3c;" horiz-adv-x="1105" d="M92 467v90q0 4 4 6l965 424q4 -3 4 -4v-76q0 -6 -4 -8l-893 -387q-2 0 -2 -2t2 -2l893 -393q4 -2 4 -9v-75q-3 -4 -4 -4l-965 434q-4 2 -4 6z" />
<glyph unicode="=" horiz-adv-x="991" d="M113 328v53q0 6 6 6h753q7 0 7 -6v-53q0 -6 -7 -6h-753q-6 0 -6 6zM113 643v53q0 6 6 6h753q7 0 7 -6v-53q0 -6 -7 -6h-753q-6 0 -6 6z" />
<glyph unicode="&#x3e;" horiz-adv-x="1105" d="M41 31v75q0 7 4 9l893 393q2 0 2 2t-2 2l-893 387q-4 2 -4 8v76q0 3 0.5 3.5t2.5 0.5h1l965 -424q4 -2 4 -6v-90q0 -4 -4 -6l-965 -434q-4 3 -4 4z" />
<glyph unicode="?" d="M61 997q0 80 30 156.5t85 138.5t141 100t189 38q206 0 329 -95t123 -256q0 -132 -75.5 -242t-251.5 -231q-83 -57 -98.5 -75t-18.5 -56l-12 -137q0 -4 -4 -4h-64q-6 0 -6 4l-27 283q-2 19 3.5 28.5t25.5 24.5l150 117q104 80 146 149.5t42 179.5q0 98 -71.5 170 t-190.5 72q-107 0 -169.5 -69.5t-62.5 -164.5q0 -7 5 -12l110 -119q4 -8 -6 -8h-315q-7 0 -7 8zM334 96q0 54 39.5 93.5t93.5 39.5t93.5 -39.5t39.5 -93.5t-39.5 -93.5t-93.5 -39.5t-93.5 39.5t-39.5 93.5z" />
<glyph unicode="@" horiz-adv-x="1794" d="M113 696q28 208 154.5 376t324 263t426.5 95q166 0 303 -59t223 -159.5t122 -238.5t9 -291q-31 -180 -145 -297t-240 -117q-82 0 -119 47.5t-30 114.5q0 6 -4 2q-48 -79 -135.5 -138.5t-188.5 -55.5q-124 5 -200.5 65t-99 155.5t0.5 219.5q23 125 77 220.5t126.5 150.5 t155.5 79.5t171 18.5q92 -6 164.5 -63.5t79.5 -141.5q2 -4 4 -4l174 102h4q1 -1 0 -4l-196 -534q-11 -31 -16 -54.5t-4 -49.5t20.5 -41.5t56.5 -16.5q79 -3 162.5 98t108.5 244q25 142 -7.5 268t-111.5 216.5t-202.5 143t-274.5 52.5q-267 0 -458 -178t-241 -488 q-26 -159 7.5 -286.5t114.5 -209.5t199 -125.5t263 -43.5q93 0 190 30.5t158 73.5q4 2 8 -2l37 -45v-6q-205 -117 -448 -119q-133 -1 -249.5 25.5t-213.5 84.5t-161.5 143t-91.5 208t-7 272zM700 678q-27 -171 12.5 -266.5t133.5 -100.5q68 -4 130.5 39.5t104.5 108 t68 141.5l65 197q42 123 -12.5 205.5t-171.5 87.5q-115 5 -207.5 -109t-122.5 -303z" />
<glyph unicode="A" horiz-adv-x="1392" d="M-4 1q1 3 4 5q105 82 131 115q30 38 41 63l406 1016q6 14 -9 19l-159 65q-5 2 -5.5 5.5t3.5 6.5l256 148q6 3 8 0q12 -38 27.5 -78t26 -64t27.5 -61.5t23 -50.5l352 -799q68 -153 132.5 -244.5t138.5 -142.5q4 -3 3.5 -6.5t-5.5 -3.5q-138 6 -238 6q-60 0 -103.5 -1.5 t-63.5 -3t-23 -1.5q-6 0 -6.5 3.5t2.5 6.5l84 123q4 7 2 12l-148 336q-15 34 -55 37q-100 8 -244 8q-84 0 -184 -8q-40 -3 -55 -37l-132 -336q-4 -9 3 -16l124 -119q2 -2 2.5 -4.5t-0.5 -4t-4 -1.5q-138 6 -186 6q-62 0 -170 -6q-4 0 -5.5 2t-0.5 5zM414 606q-3 -13 10 -16 q50 -10 180 -10q125 0 225 10q31 3 19 31l-225 516z" />
<glyph unicode="B" horiz-adv-x="1296" d="M100 2l111 148q6 6 6 16v1055q0 10 -6 16l-111 154q-8 8 2 8q228 -6 281 -6q282 6 360 6q188 0 300 -86t112 -228q0 -113 -74.5 -201.5t-179.5 -109.5q-3 0 -3 -2t3 -2q63 -16 121.5 -47t108 -76t79 -109t29.5 -137q0 -188 -124 -297.5t-318 -109.5q-39 0 -195 3t-194 3 q-198 0 -306 -6q-10 0 -2 8zM393 100q0 -26 29 -30q56 -9 254 -9q187 0 284 88t97 250q0 328 -455 328q-56 0 -85 -1.5t-43.5 -4t-18.5 -2.5q-62 -7 -62 -72v-547zM393 868q0 -64 62 -71q5 0 18.5 -3t43 -4.5t85.5 -1.5q32 0 60.5 2t68.5 9t72.5 19t66.5 34t56 52 q23 30 36 76q11 39 11 88v15q-2 59 -20.5 102.5t-58.5 77.5t-109.5 51t-168.5 17q-144 0 -194 -8q-29 -4 -29 -31v-424z" />
<glyph unicode="C" horiz-adv-x="1499" d="M113 692q0 150 58 287t156 235.5t234.5 157t286.5 58.5q245 0 422 -154q20 -20 43 2l90 86q2 2 5.5 3t6 -0.5t2.5 -6.5q-4 -111 -4 -242q0 -72 2 -170t2 -110q0 -3 -2 -5.5t-5 -1.5t-5 7q-176 524 -557 524q-150 0 -274 -90t-194 -244q-66 -146 -65 -316v-20 q5 -183 75 -334t190.5 -239t267.5 -88q91 0 171 32t136 79t106.5 118.5t81.5 133t62 138.5q3 7 6.5 5.5t3.5 -7.5q0 -12 -2 -110t-2 -170q0 -131 4 -242q0 -11 -10 -4l-92 86q-17 13 -33.5 12t-28.5 -12q-80 -68 -177.5 -97.5t-227.5 -29.5q-148 0 -283 56t-234 152.5 t-157.5 232.5t-58.5 288z" />
<glyph unicode="D" horiz-adv-x="1476" d="M86 2l115 154q6 6 6 16v1049q0 10 -6 16l-115 154q-8 8 2 8q138 -6 500 -6q373 0 574.5 -181t201.5 -507q0 -209 -96 -370t-268.5 -248t-395.5 -87q-288 0 -516 -6q-10 0 -2 8zM383 106q0 -26 29 -30q50 -8 176 -8q284 0 441 168t157 469q0 307 -160 466.5t-438 159.5 q-126 0 -176 -8q-29 -4 -29 -31v-1186z" />
<glyph unicode="E" horiz-adv-x="1257" d="M96 2l115 154q6 6 6 16v1049q0 10 -6 16l-115 154q-8 8 2 8q138 -6 500 -6h72q212 0 287 4.5t133 25.5q5 2 5 -1q0 -2 -1 -3q-9 -38 -9 -88q0 -88 3.5 -150.5t8.5 -99.5t5 -43t-3.5 -6t-6.5 6l-117 174q-24 36 -40.5 53t-53 35t-95 24.5t-151.5 6.5q-163 0 -213 -8 q-29 -4 -29 -31v-446q0 -54 34 -67t148 -13q199 0 291 102l66 72q3 4 5.5 3t2.5 -5q-8 -73 -8 -203q0 -150 8 -223q0 -12 -10 -2l-64 80q-51 65 -122 90t-169 25q-36 0 -53 -0.5t-43 -2.5t-37.5 -7t-25 -13.5t-18.5 -22.5t-5 -34v-519q0 -26 29 -30q50 -8 213 -8 q143 0 204 19t122 67l229 178q4 3 7 1.5t1 -5.5q-1 -3 -24.5 -61.5t-51.5 -141.5q-33 -96 -37 -125q-3 -6 -10 -6q-19 0 -138.5 3t-301.5 3q-228 0 -377.5 -3t-159.5 -3q-7 0 -2 8z" />
<glyph unicode="F" horiz-adv-x="1110" d="M96 1391q-8 8 2 8q138 -6 500 -6q407 0 489 30q7 3 7 -2q-4 -36 -4 -90q0 -110 7 -201l7 -92q0 -6 -3.5 -6t-6.5 6l-111 176q-30 48 -59 70t-96.5 34.5t-192.5 12.5q-163 0 -213 -8q-29 -4 -29 -31v-446q0 -24 8 -39t18.5 -23.5t39 -12.5t49.5 -4.5t70 -0.5 q96 0 166.5 22.5t121.5 79.5l66 72q3 4 5.5 3t2.5 -5q-8 -73 -8 -203q0 -117 8 -223q0 -12 -10 -2l-64 80q-51 65 -121 90t-167 25h-47.5t-39.5 -1.5t-35.5 -4.5t-26 -9t-21 -14.5t-11 -21t-4.5 -29.5v-453q0 -10 6 -16l111 -148q8 -8 -2 -8h-406q-10 0 -2 8l111 148 q6 6 6 16v1049q0 10 -6 16z" />
<glyph unicode="G" horiz-adv-x="1583" d="M113 682q0 212 93 383.5t256.5 268t364.5 96.5q124 0 229.5 -35t209.5 -119q5 -5 10 0l125 94q6 3 6 -2q-4 -36 -4 -139q0 -110 7 -254l7 -144q0 -6 -3.5 -6t-6.5 6q-76 242 -229.5 386.5t-358.5 144.5q-224 0 -367 -190q-137 -181 -137 -464v-24q8 -308 149.5 -480.5 t385.5 -172.5q99 0 190.5 37t154 112t62.5 172v68q0 54 -20 83t-66 50l-241 104q-4 1 -3.5 6t5.5 5h586q3 0 5 -3t-1 -6q-69 -56 -89 -108.5t-20 -173.5q0 -160 19 -371q0 -13 -9 -4l-110 109q-16 16 -33 16q-16 0 -33 -14q-179 -150 -403 -150q-159 0 -293.5 49.5 t-231.5 140.5t-151.5 227t-54.5 302z" />
<glyph unicode="H" horiz-adv-x="1490" d="M98 2l113 150q6 6 6 16v1059q0 10 -6 16l-111 148q-8 8 2 8q3 0 25 -1.5t68 -3t106 -1.5q69 0 207 6q10 0 2 -8l-111 -148q-6 -6 -6 -16v-373q0 -62 44.5 -81t160.5 -19h297q116 0 160.5 19t44.5 81v373q0 10 -6 16l-111 148q-8 8 2 8q3 0 27.5 -1.5t73 -3t108.5 -1.5 q59 0 197 6q10 0 2 -8l-111 -148q-6 -6 -6 -16v-1055q0 -10 6 -16l111 -154q8 -8 -2 -8q-138 6 -197 6q-60 0 -108.5 -1.5t-73 -3t-27.5 -1.5q-10 0 -2 8l111 154q6 6 6 16v420q0 27 -11.5 46.5t-28 29.5t-46 15.5t-55 7t-64.5 1.5h-297q-39 0 -64.5 -1.5t-55 -7t-46 -15.5 t-28 -29.5t-11.5 -46.5v-424q0 -10 6 -16l109 -150q8 -8 -2 -8q-138 6 -207 6q-60 0 -106 -1.5t-68 -3t-25 -1.5q-10 0 -2 8z" />
<glyph unicode="I" horiz-adv-x="583" d="M86 2l113 150q6 6 6 16v1059q0 10 -6 16l-111 148q-8 8 2 8q3 0 25 -1.5t68 -3t106 -1.5q69 0 207 6q10 0 2 -8l-111 -148q-6 -6 -6 -16v-1059q0 -10 6 -16l109 -150q8 -8 -2 -8q-138 6 -207 6q-60 0 -106 -1.5t-68 -3t-25 -1.5q-10 0 -2 8z" />
<glyph unicode="J" horiz-adv-x="563" d="M-27 -135q0 8 5 4l2 -4q80 -244 167 -244q58 0 58 72v1481q0 60 -35 106l-82 111q-8 8 2 8q3 0 25 -1.5t68 -3t106 -1.5q69 0 207 6q10 0 2 -8l-111 -148q-6 -6 -6 -16v-1340q0 -45 -7 -89t-25 -89.5t-44.5 -79.5t-69 -56.5t-96.5 -23.5h-6q-49 0 -92 15q-46 15 -64 33 q-4 4 -4 8v260z" />
<glyph unicode="K" horiz-adv-x="1386" d="M98 2l113 150q6 6 6 16v1059q0 10 -6 16l-111 148q-8 8 2 8q3 0 25 -1.5t68 -3t106 -1.5q69 0 207 6q10 0 2 -8l-111 -148q-6 -6 -6 -16v-709v-6q2 -13 17 2l616 707q4 4 0 8l-156 162q-8 8 2 8q81 -6 158 -6q47 0 277 10q10 0 2 -8q-135 -101 -279 -267l-192 -219 q-6 -6 -2 -14l274 -557q120 -239 262 -340q8 -8 -2 -8q-230 10 -301 10q-43 0 -87.5 -3t-45.5 -3q-10 0 -2 8l78 111q2 4 0 8l-318 620q-2 4 -6 0l-266 -307q-26 -30 -29 -74v-192q0 -10 6 -16l109 -150q8 -8 -2 -8q-138 6 -207 6q-60 0 -106 -1.5t-68 -3t-25 -1.5 q-10 0 -2 8z" />
<glyph unicode="L" horiz-adv-x="1087" d="M84 2l115 154q6 6 6 16v1055q0 10 -6 16l-111 148q-8 8 2 8q3 0 25 -1.5t68 -3t106 -1.5q69 0 207 6q10 0 2 -8l-111 -148q-6 -6 -6 -16v-1094q0 -39 20 -52t58 -13h78q144 0 209.5 19.5t125.5 66.5l230 178q4 3 7 1.5t1 -5.5q-1 -3 -24.5 -61.5t-51.5 -141.5 q-33 -96 -37 -125q-3 -6 -10 -6q-26 0 -57.5 1t-71.5 2t-164.5 2t-312.5 1q-77 0 -166 -3t-129 -3q-7 0 -2 8z" />
<glyph unicode="M" horiz-adv-x="1732" d="M94 2l117 154q6 6 6 16v1088q0 6 -6 14l-102 117q-8 8 2 8q3 0 20 -1.5t57.5 -3t100.5 -1.5q69 0 117 6q6 0 6 -8q4 -86 51 -199l383 -891q25 -58 28 -94q0 -2 2 -2l3 2l397 1001q14 35 23.5 64t13.5 49t5.5 32t2 24t0.5 14q0 8 6 8q48 -6 111 -6q44 0 85 1.5t66 3 t29 1.5q10 0 2 -8l-78 -103q-16 -20 -16 -80v-1036q0 -10 6 -16l115 -154q8 -8 -2 -8q-138 6 -209 6q-60 0 -107.5 -1.5t-71 -3t-26.5 -1.5q-10 0 -2 8l114 154q7 7 7 16v1038l-484 -1212q-2 -4 -6 -4q-38 6 -55 6q-32 0 -62 -6q-7 0 -4 6q3 12 3 27q0 68 -56 198l-399 926 q0 -3 -2 -4v-975q0 -10 6 -16l115 -154q8 -8 -3 -8q-138 6 -155 6q-47 0 -79 -1t-43 -2t-18.5 -2t-11.5 -1q-10 0 -2 8z" />
<glyph unicode="N" horiz-adv-x="1480" d="M86 1391q-8 8 2 8q5 0 36 -1.5t77 -3t86 -1.5q53 0 80 6q7 2 10 -6q18 -46 44 -89t85 -130l698 -1020q4 -4 4 2v1065q0 10 -6 16l-119 154q-8 8 2 8q4 0 11.5 -1t18.5 -2t43 -2t79 -1q18 0 156 6q10 0 2 -8l-113 -154q-6 -6 -6 -16v-1137q0 -10 6 -16l59 -66q8 -8 -2 -8 q-1 0 -64.5 3t-105.5 3q-76 0 -106 -6q-7 -2 -10 6q-19 59 -69 152t-110 178l-563 811q-4 4 -4 -2v-967q0 -10 6 -16l113 -154q8 -8 -2 -8q-138 6 -156 6q-47 0 -79 -1t-42.5 -2t-18 -2t-11.5 -1q-10 0 -2 8l118 154q7 7 7 16v1061q-1 10 -7 16z" />
<glyph unicode="O" horiz-adv-x="1695" d="M113 692q0 150 58 287t156 235.5t234.5 157t286.5 58.5q201 0 370 -97.5t267 -267.5t98 -373q0 -158 -58.5 -295.5t-158.5 -231.5t-234.5 -148t-283.5 -54t-283.5 54t-234.5 148t-158.5 231.5t-58.5 295.5zM309 692q0 -180 77.5 -333t206.5 -240.5t277 -87.5 q147 0 265.5 88t184.5 239t66 334q0 142 -45.5 267.5t-121.5 213t-179.5 138.5t-216.5 51q-151 0 -268 -84.5t-181.5 -237t-64.5 -348.5z" />
<glyph unicode="P" horiz-adv-x="1236" d="M98 2l113 154q6 6 6 16v1049q0 10 -6 16l-111 154q-8 8 2 8q228 -6 289 -6q69 0 178.5 3t132.5 3q121 0 216.5 -35t154.5 -95t90 -137.5t31 -166.5q0 -99 -31 -184t-90 -150t-154.5 -102t-216.5 -37q-126 0 -253 45q-32 11 -44 5.5t-12 -28.5v-342q0 -10 6 -16l109 -154 q8 -8 -2 -8q-138 6 -207 6q-60 0 -106 -1.5t-68 -3t-25 -1.5q-10 0 -2 8zM393 725q0 -33 9 -56.5t17.5 -31.5t24.5 -19q41 -26 112.5 -43.5t125.5 -17.5q86 0 150.5 30t99 73t55 102.5t26 105.5t5.5 95q0 72 -19 136t-57.5 117t-104.5 84t-151 31q-214 0 -264 -8 q-29 -4 -29 -31v-567z" />
<glyph unicode="Q" horiz-adv-x="1693" d="M113 692q0 150 58 287t156 235.5t234.5 157t286.5 58.5q200 0 368 -99t264.5 -268.5t96.5 -370.5q0 -281 -156 -459q-4 -4 -4 -14q3 -16 16.5 -48t44.5 -85t93.5 -113.5t144.5 -107.5q6 -3 0 -7q-2 -1 -4 -1q-316 0 -475 213q-4 4 -8 2q-183 -109 -381 -109 q-148 0 -283.5 56t-234.5 152.5t-158 232.5t-59 288zM303 692q0 -180 79 -333t209.5 -240.5t278.5 -87.5q238 0 386.5 182.5t148.5 478.5q0 137 -48.5 262t-128 214t-186 141.5t-219.5 52.5q-149 0 -269 -89t-185.5 -242t-65.5 -339z" />
<glyph unicode="R" horiz-adv-x="1396" d="M98 2l113 154q6 6 6 16v1049q0 10 -6 16l-111 154q-8 8 2 8q228 -6 289 -6q69 0 184 3t138 3q235 0 363 -91t128 -259q0 -117 -79 -202t-203 -128q-2 0 -2 -2t2 -2q158 -39 228.5 -132.5t70.5 -252.5v-160q0 -5 6 -14l116 -152q7 -10 -2 -10q-5 0 -24.5 1.5t-55.5 3 t-81 1.5h-129q-19 0 -19 12v344q0 153 -109.5 239.5t-283.5 86.5q-84 0 -184 -8q-62 -7 -62 -72v-430q0 -10 6 -16l109 -154q8 -8 -2 -8q-138 6 -207 6q-60 0 -106 -1.5t-68 -3t-25 -1.5q-10 0 -2 8zM393 823q0 -64 62 -71q112 -9 184 -9q369 0 369 297q0 57 -16 106.5 t-49 92t-92 67.5t-138 25q-241 0 -291 -8q-29 -4 -29 -31v-469z" />
<glyph unicode="S" horiz-adv-x="1144" d="M119 2q6 67 6 172q0 85 -3 231t-3 156q0 3 1.5 4.5t3.5 0.5t3 -5q66 -166 127 -262q82 -129 175 -198.5t210 -69.5q132 0 216.5 71t84.5 195q0 83 -44.5 148t-150.5 118l-389 187q-112 54 -168.5 142.5t-56.5 199.5q0 102 55.5 180.5t145 118t196.5 39.5q181 0 334 -119 q5 -5 10 0l95 82q3 5 8.5 4t5.5 -8q-6 -67 -6 -154q0 -85 3 -185t3 -110q0 -1 -1 -3t-2.5 -3.5t-3.5 -1.5t-4.5 1.5t-4.5 6.5q-43 91 -87 160.5t-100 132t-122.5 96t-139.5 33.5q-61 0 -114 -20q-54 -18 -92 -64q-40 -47 -40 -113q0 -77 42 -131q43 -56 145 -106l401 -203 q117 -60 173 -144t56 -202q0 -79 -27.5 -152t-81.5 -132.5t-143.5 -95.5t-203.5 -36q-96 0 -200 36.5t-187 104.5q-7 4 -11 0l-108 -104q-6 -6 -6 2z" />
<glyph unicode="T" horiz-adv-x="1165" d="M-14 987q2 14 18.5 79.5t30.5 146t14 149.5q0 47 -4 59q0 5 6 2q82 -30 527 -30q444 0 526 30q6 3 6 -2q-4 -12 -4 -59q0 -69 14 -149.5t30.5 -146t18.5 -79.5q0 -12 -8 -4l-182 260q-22 31 -46.5 50.5t-54.5 27t-49 9t-53 1.5q-66 0 -88 -9t-22 -38v-1112q0 -10 6 -16 l114 -154q8 -8 -2 -8q-138 6 -206 6q-59 0 -106.5 -1.5t-72.5 -3t-28 -1.5q-10 0 -2 8l114 154q6 6 6 16v1112q0 29 -20.5 38t-89.5 9q-32 0 -52.5 -2t-49.5 -9.5t-54 -26.5t-47 -50l-182 -260q-8 -8 -8 4z" />
<glyph unicode="U" horiz-adv-x="1490" d="M92 1391q-8 8 2 8q3 0 25.5 -1.5t70 -3t111.5 -1.5q71 0 209 6q10 0 2 -8l-117 -154q-6 -6 -6 -16v-760q0 -192 103 -305t301 -113q63 0 120.5 12.5t114 43.5t97.5 78.5t66.5 124t25.5 173.5v746q0 9 -7 16l-110 154q-8 8 2 8q5 0 24.5 -1.5t53 -3t73.5 -1.5q73 0 154 6 q10 0 2 -8l-115 -154q-6 -6 -6 -16v-719q0 -260 -143.5 -399.5t-396.5 -139.5q-111 0 -206 31.5t-169.5 93t-117 162.5t-42.5 231v740q0 10 -6 16z" />
<glyph unicode="V" horiz-adv-x="1347" d="M8 1391q-8 8 2 8q3 0 26 -1.5t75.5 -3t124.5 -1.5q48 0 186 6q10 0 2 -8l-96 -140v-6l352 -913q49 -124 49 -189q0 -8 4 0l408 1084q2 6 0 8l-90 158q-3 6 4 6q5 0 24.5 -1.5t53 -3t73.5 -1.5q73 0 154 6q8 0 2 -6q-112 -105 -180 -275l-428 -1112q-2 -6 -9 -6h-141 q-8 0 -8 8q-10 96 -72 252l-317 811q-97 235 -199 320z" />
<glyph unicode="W" horiz-adv-x="1851" d="M8 1391q-8 8 2 8q3 0 24 -1.5t71 -3t122 -1.5q47 0 185 6q10 0 2 -8l-95 -138v-6l291 -915q31 -96 31 -187q0 -8 4 0l236 947q3 13 0 22l-15 51q-17 61 -58.5 121.5t-94.5 104.5q-8 8 2 8q48 -6 176 -6q73 0 211 6q10 0 2 -8l-94 -119l-2 -10l256 -924q36 -121 36 -195 q0 -3 2 -3t3 3l325 1084q2 6 0 8l-86 158q-3 6 2 6q81 -6 140 -6q94 0 174 6q4 -1 2 -6q-139 -129 -189 -293l-334 -1102q-2 -4 -6 -4q-41 6 -88 6q-43 0 -67 -6q-7 0 -7 4q-16 152 -51 270l-190 670q-4 8 -4 -2l-244 -938q-2 -4 -6 -4q-40 6 -94 6q-48 0 -72 -6q-6 0 -6 4 q-6 110 -51 258l-256 815q-40 122 -82.5 194t-106.5 126z" />
<glyph unicode="X" horiz-adv-x="1355" d="M8 0q129 105 273 283l327 419l-231 330q-147 210 -314 359q-8 8 3 8q3 0 32.5 -1.5t88 -3t130.5 -1.5q53 0 191 6q7 0 2 -8l-84 -129q-4 -4 0 -9l289 -413l327 417q5 8 -2 15l-116 121q-3 6 2 6q81 -6 151 -6q133 0 213 6q4 -1 2 -6q-127 -106 -215 -213l-317 -406 l250 -354q101 -142 209.5 -269t142.5 -153q8 -8 -2 -8q-70 10 -252 10q-44 0 -182 -6q-8 0 -4 8l79 135v6l-348 494l-381 -490q-6 -10 0 -16l125 -129q3 -3 2 -5.5t-4 -2.5q-81 6 -151 6q-154 0 -234 -6q-4 1 -2 6z" />
<glyph unicode="Y" horiz-adv-x="1286" d="M-4 1391q-8 8 2 8q3 0 31 -1.5t85.5 -3t129.5 -1.5q123 0 172 6q10 0 2 -8l-96 -125v-6l292 -494q61 -100 68 -145q0 -4 4 0l389 618q2 6 0 8l-94 146q-3 6 2 6q81 -6 129 -6q98 0 178 6q4 -1 2 -6q-11 -12 -30.5 -32t-28.5 -30.5t-23.5 -27t-28 -34t-28.5 -40.5 l-401 -629q-17 -24 -17 -74v-354q0 -10 6 -16l121 -154q8 -8 -2 -8q-138 6 -207 6q-59 0 -106.5 -1.5t-72.5 -3t-28 -1.5q-10 0 -2 8l119 154q6 6 6 16v236q0 64 -15 108.5t-44 91.5l-340 568q-34 58 -84.5 122.5t-89.5 92.5z" />
<glyph unicode="Z" horiz-adv-x="1183" d="M33 2q40 30 103.5 112t115.5 173l579 1013q7 17 1.5 24t-19.5 7h-426q-71 0 -106.5 -22t-69.5 -80l-113 -191q-2 -4 -4.5 -5t-4 0.5t-1.5 4.5q10 78 10 285q0 46 -8 96q0 4 4 4q13 -5 27 -9t25.5 -7t26.5 -5t24.5 -3.5t25 -2.5t23 -1.5t24 -1t22 -0.5h22h20.5h473 q65 0 293 6q8 0 2 -6q-22 -19 -78 -104.5t-117 -190.5l-581 -1014q-5 -9 -2.5 -12.5t8.5 -3.5h330q85 0 133 21.5t116 76.5l228 182q5 3 7 1.5t1 -5.5l-119 -344q-2 -6 -8 -6l-342 6q-535 0 -643 -6q-10 0 -2 8z" />
<glyph unicode="[" horiz-adv-x="493" d="M154 -242v1684q0 43 43 43h249q7 0 7 -4v-56q0 -4 -7 -4h-108q-11 0 -15 -3.5t-4 -14.5v-1606q0 -11 4 -14.5t15 -3.5h108q7 0 7 -4v-56q0 -4 -7 -4h-249q-43 0 -43 43z" />
<glyph unicode="\" horiz-adv-x="598" d="M59 1386q-2 7 4 7h64q8 0 8 -7l404 -1380q2 -6 -4 -6h-64q-8 0 -8 6z" />
<glyph unicode="]" horiz-adv-x="493" d="M41 -225q0 4 6 4h109q11 0 14.5 3t3.5 15v1606q0 12 -3.5 15t-14.5 3h-109q-6 0 -6 4v56q0 4 6 4h250q43 0 43 -43v-1684q0 -43 -43 -43h-250q-6 0 -6 4v56z" />
<glyph unicode="^" horiz-adv-x="1153" d="M115 815l422 664q3 6 8 6h61q7 0 10 -6l422 -664q4 -6 -4 -6h-86q-6 0 -8 6l-365 594l-362 -594q-3 -6 -8 -6h-86q-8 0 -4 6z" />
<glyph unicode="_" horiz-adv-x="1705" d="M-43 -221q0 4 6 4h1778q6 0 6 -4v-60q0 -4 -6 -4h-1778q-6 0 -6 4v60z" />
<glyph unicode="`" horiz-adv-x="630" d="M123 1321q0 30 21 51t57 21q48 0 92 -56l213 -282q4 -4 -2 -4h-68q-6 0 -12 4l-238 166q-35 27 -49 47.5t-14 52.5z" />
<glyph unicode="a" horiz-adv-x="995" d="M66 199q0 217 344 266l141 20q74 12 110.5 53.5t36.5 102.5q0 104 -57 154.5t-152 50.5q-81 0 -134 -41t-60 -92q0 -9 2 -11l104 -108q4 -8 -6 -8h-276q-6 0 -6 8q12 65 39 119t72 98.5t115 70t159 25.5q170 0 273 -78.5t103 -234.5v-238q0 -61 2.5 -99.5t17 -107.5 t42.5 -145q2 -3 0.5 -4.5t-4.5 0.5q-153 54 -213 135q-3 3 -6 0q-88 -172 -314 -172q-161 0 -247 66t-86 170zM260 209q0 -74 44.5 -129t135.5 -55q64 0 112.5 22t75.5 55t44 79t22.5 86t5.5 85v133q0 4 -4 2l-9 -7q-9 -6 -12.5 -8t-14.5 -8.5t-18.5 -10t-21 -9t-26.5 -9 t-31 -7t-37 -6.5l-92 -12q-174 -22 -174 -201z" />
<glyph unicode="b" horiz-adv-x="1095" d="M70 1366q-10 5 0 8q66 20 150.5 56.5t119.5 54.5q6 2 6 -4v-758q0 -8 4 0q39 80 112.5 132t178.5 52q59 0 112 -15t102 -49.5t84.5 -86t57 -131.5t21.5 -179q0 -77 -15.5 -147t-48 -131.5t-79 -107t-112.5 -71.5t-145 -26q-89 0 -154.5 34t-123.5 112q-3 3 -8 0 q-42 -28 -101 -55t-93.5 -38.5t-49.5 -15.5q-4 -1 -5 0.5t1 3.5q48 55 70 160.5t22 220.5v905q0 6 -4 8zM336 438q0 -195 66 -301t188 -106q59 0 104.5 27.5t71 68.5t42 98t21.5 107t5 104q0 112 -24.5 203t-78.5 149t-129 58q-108 0 -187 -125t-79 -283z" />
<glyph unicode="c" horiz-adv-x="1034" d="M78 432q0 122 60 230t173.5 176.5t253.5 68.5q173 0 283 -101t115 -259q0 -8 -7 -8h-297q-10 0 -6 8l119 112q2 2 2 9q-15 83 -70 130.5t-143 47.5q-142 0 -220.5 -114t-78.5 -290q0 -112 32 -204.5t102.5 -152.5t168.5 -60q102 0 176 66t117 173q4 7 10 4l90 -61 q6 -3 3 -10q-67 -117 -174 -175.5t-234 -58.5q-216 0 -345.5 124t-129.5 345z" />
<glyph unicode="d" horiz-adv-x="1083" d="M78 426q0 113 35 206.5t92 152t126.5 90.5t141.5 32q197 0 283 -182q4 -8 4 0v565q0 6 -4 8l-103 68q-10 5 0 8q45 15 103.5 38.5t112.5 47.5t55 25q6 2 6 -4v-1096q0 -114 23 -220t71 -161q4 -4 -1 -4q-1 -1 -3 0q-15 4 -51 16t-96.5 39.5t-102.5 55.5q-5 3 -8 0 q-107 -148 -297 -148q-81 0 -147 27t-110 71.5t-74 105t-43 125.5t-13 134zM262 440q0 -59 6.5 -113t24 -109t44.5 -95.5t71 -66t100 -25.5q124 0 192 99.5t68 297.5q0 178 -76.5 298t-189.5 120q-70 0 -125.5 -56.5t-85 -148.5t-29.5 -201z" />
<glyph unicode="e" horiz-adv-x="1028" d="M78 430q0 90 32 175t90.5 152.5t151 108.5t203.5 41q105 0 187 -35.5t129.5 -94.5t72.5 -128.5t27 -146.5q0 -6 -4 -6h-676q-20 0 -23 -23q-4 -37 -4 -72q0 -45 6 -87q12 -76 47 -141t102.5 -103.5t160.5 -38.5q99 0 168 61t100 144q3 6 8 4l90 -58q5 -5 0 -10 q-50 -68 -98 -110.5t-123 -70.5t-170 -28q-152 0 -261.5 62.5t-162.5 167t-53 237.5zM274 563q0 -4 5 -4h479q8 0 8 10q0 117 -54.5 197t-166.5 80q-65 0 -115.5 -23.5t-81.5 -65t-48.5 -89t-25.5 -105.5z" />
<glyph unicode="f" horiz-adv-x="489" d="M20 805v69q0 8 7 5q12 -4 39.5 -6.5t49.5 -2.5h21q4 0 4 4v203q0 111 35 204.5t104 150.5q65 53 148 53h12q72 -3 127 -3t92 3q6 0 3 -6l-138 -248q-3 -3 -6 2q-64 178 -129 178q-78 0 -78 -278v-259q0 -4 4 -4h74h19q89 0 114 9q6 3 6 -5v-69q0 -7 -6 -4q-9 4 -42 6 t-62 2h-29h-51q-11 0 -19 -6.5t-8 -16.5v-616q0 -8 6 -14l123 -154q8 -8 -2 -8q-138 6 -202 6q-60 0 -104 -1.5t-64 -3t-23 -1.5q-9 0 -4 8l96 154q4 6 4 14v616q0 10 -7.5 16.5t-18.5 6.5q-76 0 -88 -8q-7 -3 -7 4z" />
<glyph unicode="g" horiz-adv-x="968" d="M61 -156q0 138 179 197q6 3 0 6q-45 13 -83 64t-38 114q0 46 30 86t82 58q5 3 2 6q-52 27 -92.5 90.5t-40.5 148.5q0 123 114 208t282 85q48 0 108 -16t103 -43q3 -2 6 0q1 1 7 4.5t8.5 4.5t9 3.5t12 4t13.5 3t18.5 2t23.5 0.5h102q31 0 68 11q4 1 5 -2t-1 -5 q-8 -8 -36 -33.5t-56 -52.5t-45 -47q-3 -5 0 -8q35 -45 35 -119q0 -144 -117 -234.5t-277 -90.5q-93 0 -170 35q-7 4 -14 0q-13 -5 -24.5 -21t-12.5 -37v-8q0 -41 29 -69q32 -31 90 -31h246q58 0 105 -5.5t91.5 -21t74 -40.5t47.5 -65t18 -94q0 -61 -34 -123.5t-93.5 -115 t-151 -86t-195.5 -33.5q-210 0 -319 70.5t-109 199.5zM221 -156q0 -106 73 -157.5t195 -51.5q86 0 151.5 21t103.5 57t56.5 78.5t18.5 89.5q0 78 -53.5 110t-155.5 32h-192q-85 0 -141 -42.5t-56 -136.5zM272 602q0 -120 61 -187t154 -67q101 0 160.5 69t59.5 185 q0 115 -56.5 179.5t-154.5 64.5q-101 0 -162.5 -62t-61.5 -182z" />
<glyph unicode="h" horiz-adv-x="1085" d="M63 1366q-10 5 0 8q45 15 103.5 38.5t112.5 47.5t55 25q6 2 6 -4v-752q0 -12 6 0q91 178 295 178q144 0 223.5 -85t79.5 -259v-389q0 -6 6 -18l76 -154q4 -8 -4 -8q-3 0 -15.5 1.5t-48.5 3t-96 1.5q-62 0 -200 -6q-5 0 -6.5 2.5t1.5 5.5l109 154q6 8 6 18v440 q0 232 -170 232q-105 0 -183.5 -106.5t-78.5 -303.5v-262q0 -10 6 -18l109 -154q3 -3 2 -5.5t-6 -2.5q-138 6 -201 6q-47 0 -80 -1t-45.5 -2t-21.5 -2t-13 -1q-8 0 -4 8l78 154q6 12 6 18v1116q0 6 -4 8z" />
<glyph unicode="i" horiz-adv-x="493" d="M55.5 792.5q0.5 -2.5 3.5 -4.5l105 -67q4 -2 4 -8v-539q0 -9 -6 -18l-92 -154q-4 -8 4 -8q138 6 180 6q60 0 99.5 -1.5t55.5 -3t19 -1.5q8 0 4 8l-88 154q-6 9 -6 18v729q0 6 -6 4l-273 -110q-4 -2 -3.5 -4.5zM121 1272q0 50 35.5 85.5t85.5 35.5q49 0 84.5 -35.5 t35.5 -85.5t-35.5 -85.5t-84.5 -35.5q-50 0 -85.5 35.5t-35.5 85.5z" />
<glyph unicode="j" horiz-adv-x="473" d="M-115 -330q-4 -4 0 -8q32 -36 82 -62t105 -26q130 0 211.5 107t81.5 313v907q0 6 -7 4l-270 -110q-4 -2 -3.5 -4.5t3.5 -4.5l102 -67q5 -3 5 -8v-910q0 -161 -84 -161q-46 0 -54 49l-34 170q-1 5 -7 2zM152 1272q0 50 35.5 85.5t84.5 35.5q50 0 85.5 -35.5t35.5 -85.5 t-35.5 -85.5t-85.5 -35.5q-49 0 -84.5 35.5t-35.5 85.5z" />
<glyph unicode="k" horiz-adv-x="1019" d="M61 1366q-10 5 0 8q61 20 165 65t106 46q6 2 6 -4v-1030q0 -33 22 -11l369 338q4 4 0 8l-74 113q-1 1 -1.5 3t0.5 3.5t5 1.5h338q3 0 4 -2.5t-2 -3.5q-136 -83 -235 -174l-135 -123q-3 -3 0 -8l184 -320q45 -78 107 -158t108 -122q4 -8 -4 -8q-3 0 -47.5 3t-113 6 t-128.5 3q-75 0 -135 -6q-4 0 -5.5 2.5t1.5 5.5l111 133q2 4 0 8l-205 338q-2 4 -6 0l-121 -110q-22 -20 -29.5 -39t-7.5 -51v-107q0 -10 6 -18l109 -154q3 -3 2 -5.5t-6 -2.5q-138 6 -201 6q-47 0 -80 -1t-45.5 -2t-21.5 -2t-13 -1q-8 0 -4 8l78 154q6 12 6 18v1116 q0 6 -4 8z" />
<glyph unicode="l" horiz-adv-x="491" d="M63 1366q-10 5 0 8q45 15 103.5 38.5t112.5 47.5t55 25q6 2 6 -4v-1307q0 -6 6 -18l96 -154q4 -8 -4 -8q-138 6 -180 6q-60 0 -102.5 -1.5t-61.5 -3t-22 -1.5q-8 0 -4 8l96 154q6 12 6 18v1116q0 6 -4 8z" />
<glyph unicode="m" horiz-adv-x="1486" d="M64.5 792.5q-0.5 2.5 3.5 4.5q53 18 113 42.5t107 45.5t50 22q6 2 6 -4v-133q0 -5 1 -4.5t1 2.5q68 139 223 139q92 0 155 -43.5t91 -122.5q4 -12 4 0q32 70 94 118t150 48q123 0 203 -68t80 -188v-477q0 -6 6 -18l75 -154q4 -8 -4 -8q-3 0 -15 1.5t-48 3t-96 1.5 q-63 0 -201 -6q-5 0 -6 2.5t2 5.5l108 154q7 9 7 18v479q0 84 -41 138.5t-111 54.5q-71 0 -126.5 -79.5t-55.5 -195.5v-397q0 -6 6 -18l82 -154q4 -8 -4 -8q-3 0 -15.5 1.5t-48.5 3t-96 1.5q-34 0 -172 -6q-4 0 -5.5 2.5t1.5 5.5l84 154q6 12 6 18v477q0 87 -37 141t-104 54 q-47 0 -85.5 -27.5t-61 -70t-34.5 -89t-12 -90.5v-395q0 -10 6 -18l109 -154q3 -3 2 -5.5t-6 -2.5q-138 6 -201 6q-47 0 -80 -1t-45.5 -2t-21.5 -2t-13 -1q-8 0 -4 8l78 154q6 12 6 18v537q0 6 -4 8l-102 69q-3 2 -3.5 4.5z" />
<glyph unicode="n" horiz-adv-x="1064" d="M64.5 792.5q-0.5 2.5 3.5 4.5q53 18 113 42.5t107 45.5t50 22q6 2 6 -4v-162q2 -2 4 0q35 72 102.5 119t157.5 47q155 0 234.5 -95t79.5 -275v-363q0 -2 8 -18l76 -154q4 -8 -5 -8q-3 0 -15 1.5t-48 3t-96 1.5q-63 0 -201 -6q-5 0 -6 2.5t2 5.5l108 154q7 9 7 18v395 q0 63 -7.5 109.5t-25.5 86t-53.5 60.5t-87.5 21q-101 0 -167.5 -96.5t-66.5 -247.5v-328q0 -10 6 -18l109 -154q3 -3 2 -5.5t-6 -2.5q-138 6 -201 6q-47 0 -80 -1t-45.5 -2t-21.5 -2t-13 -1q-8 0 -4 8l78 154q6 12 6 18v537q0 6 -4 8l-102 69q-3 2 -3.5 4.5z" />
<glyph unicode="o" horiz-adv-x="1130" d="M78 442q0 85 35 167.5t96.5 149t155 107.5t200.5 41q220 0 354 -131t134 -334q0 -224 -129.5 -351.5t-360.5 -127.5q-230 0 -357.5 127.5t-127.5 351.5zM266 442q0 -112 34.5 -206t103 -152.5t159.5 -58.5q90 0 160 59t105.5 153t35.5 205q0 164 -82.5 284t-216.5 120 q-137 0 -218 -115.5t-81 -288.5z" />
<glyph unicode="p" horiz-adv-x="1128" d="M57.5 792.5q-0.5 2.5 3.5 4.5q53 18 113 42.5t107.5 45.5t50.5 22q6 2 6 -4v-178q0 -8 4 0q30 70 112.5 126t192.5 56q186 0 295 -121t109 -348q0 -212 -112 -343.5t-292 -131.5q-215 0 -305 152q-4 8 -4 0v-367q0 -10 6 -18l107 -154q3 -3 1.5 -5.5t-6.5 -2.5 q-138 6 -200 6q-47 0 -80 -1t-45.5 -2t-21.5 -2t-13 -1q-8 0 -4 8l80 154q6 12 6 18v965q0 4 -4 6l-103 69q-3 2 -3.5 4.5zM332 426q0 -191 71 -293t211 -102q42 0 82 22.5t76 68t59 127.5t25 189v18q0 103 -22 180q-23 85 -62.5 128t-81 62.5t-84.5 19.5 q-113 0 -193.5 -108.5t-80.5 -311.5z" />
<glyph unicode="q" horiz-adv-x="1116" d="M78 422q0 130 52 240.5t149.5 177.5t220.5 67q196 0 303 -172h6q25 18 83 80.5t79 89.5q4 4 4 -2v-1155q0 -6 6 -18l80 -154q4 -8 -4 -8q-3 0 -15.5 1.5t-48.5 3t-96 1.5q-63 0 -201 -6q-4 0 -5.5 2.5t1.5 5.5l107 154q6 8 6 18v377q0 12 -6 0q-97 -162 -310 -162 q-192 0 -301.5 123t-109.5 336zM272 422q0 -107 24 -187.5t63.5 -124t83.5 -64.5t92 -21q134 0 205 111t71 323q0 180 -84 283.5t-197 103.5q-106 0 -182 -108.5t-76 -315.5z" />
<glyph unicode="r" horiz-adv-x="686" d="M74 862q-8 8 2 8h264q4 0 4 -6v-121q0 -8 4 0q20 66 77 115t126 49q71 0 123 -18q3 -1 4.5 -3t1.5 -4v-1l-39 -312q0 -8 -6 -2l-154 262q-2 2 -6 2t-16 -7t-32.5 -31.5t-38.5 -62t-31 -107.5t-13 -158v-291q0 -6 6 -18l88 -148q8 -8 -2 -8h-348q-6 0 -2 8l82 148 q6 12 6 18v543q0 8 -4 12z" />
<glyph unicode="s" horiz-adv-x="905" d="M57 211q-2 5 4 8l291 90q4 2 3 -1q0 -1 -1 -3l-98 -166q-2 -5 0 -10q28 -49 86.5 -73.5t134.5 -24.5q95 0 151 42q58 44 58 107q0 104 -111 144l-233 82q-52 19 -91 38.5t-77.5 49t-59 71t-20.5 92.5q0 106 105.5 178t263.5 72q62 0 119.5 -13t108.5 -40t88 -73t52 -107 q0 -5 -6 -8l-252 -70q-3 -2 -4 -0.5t0 4.5l66 150q3 7 0 10q-44 86 -189 86q-78 0 -140 -31t-62 -90q0 -28 11 -51t26 -38.5t43 -30.5t47.5 -23t54.5 -21l219 -78q89 -32 143 -88.5t54 -136.5q0 -128 -101 -211.5t-280 -83.5q-319 0 -404 248z" />
<glyph unicode="t" horiz-adv-x="489" d="M27 805v69q0 8 6 5q12 -4 39.5 -6.5t49.5 -2.5h21q4 0 4 4v230q0 6 -4 8l-102 70q-10 5 0 8q53 18 113 42.5t107 45.5t50 22q6 2 6 -4v-422q0 -4 5 -4h34h17q80 0 104 9q6 3 6 -5v-69q0 -7 -6 -4q-5 4 -35.5 6t-57.5 2h-28h-12q-11 0 -19 -6.5t-8 -16.5v-677 q0 -68 37 -68q18 0 35 18.5t27 61.5q0 6 6 0l65 -70q3 -3 -2 -8q-69 -80 -166 -80q-85 0 -128.5 52t-43.5 141v630q0 10 -7.5 16.5t-18.5 6.5q-76 0 -88 -8q-6 -3 -6 4z" />
<glyph unicode="u" horiz-adv-x="1073" d="M57.5 792.5q-0.5 2.5 3.5 4.5q53 18 113 42.5t107.5 45.5t50.5 22q6 2 6 -4v-616q0 -126 40 -191t140 -65q109 0 170.5 81t61.5 234v365q0 5 -5 8l-102 69q-3 2 -3.5 4.5t3.5 4.5q53 18 113 42.5t107 45.5t50 22q7 2 7 -4v-518q0 -114 23 -220t71 -161q4 -4 -1 -4 q-1 -1 -3 0q-18 5 -49.5 15t-91 35.5t-101.5 53.5q-5 3 -8 0q-47 -68 -112 -104.5t-165 -36.5q-147 0 -231 83t-84 245v420q0 6 -4 8l-103 69q-3 2 -3.5 4.5z" />
<glyph unicode="v" horiz-adv-x="948" d="M3.5 872q-0.5 2 0.5 3.5t4 1.5t24 -1.5t71 -3.5t122 -2q20 0 35 1t43.5 2.5t65.5 3.5q5 -1 2 -7l-76 -120v-9l164 -417q53 -129 57 -197q0 -8 4 0l260 614q2 7 0 9l-73 120q-3 3 0 6q0 1 2 1q70 -7 106 -7q87 0 143 7q2 0 3.5 -2t-0.5 -5q-83 -94 -134 -208l-288 -664 q-2 -4 -7 -4q-30 6 -57 6q-40 0 -80 -6q-6 0 -6 4q-2 16 -23 91t-38 116l-178 432q-17 44 -60.5 118.5t-83.5 112.5q-2 2 -2.5 4z" />
<glyph unicode="w" horiz-adv-x="1306" d="M1.5 872q-0.5 2 0.5 3.5t4 1.5t26 -1.5t75 -3.5t124 -2q34 0 144 7q5 -1 2 -7l-76 -122v-7l137 -483q16 -64 23 -131q0 -8 4 0l176 512l-20 57q-13 36 -45.5 86.5t-69.5 87.5q-7 7 2 7q95 -7 197 -7q41 0 151 7q6 0 2 -7l-67 -149v-8l124 -482q14 -53 23 -104q0 -8 4 0 l197 614q2 7 0 9l-74 120q-3 7 4 7q47 -7 117 -7q32 0 127 7q9 0 2 -7q-82 -71 -129 -208l-225 -664q-2 -4 -7 -4q-30 6 -63 6q-43 0 -84 -6q-6 0 -6 4q0 51 -23 139l-104 404l-191 -543q-2 -4 -6 -4q-41 6 -82 6q-39 0 -63 -6q-6 0 -6 4q0 75 -33 170l-158 494 q-15 51 -50.5 107.5t-80.5 98.5q-2 2 -2.5 4z" />
<glyph unicode="x" horiz-adv-x="929" d="M8 0q3 3 19 16t20.5 17t19 16t20.5 17.5t19 17.5t20.5 19.5t20 19.5t21.5 22.5t20.5 23.5t22.5 26l178 219l-145 192q-60 80 -127 158.5t-97 105.5q-3 3 -1.5 5t4.5 2q8 -2 89.5 -4.5t123.5 -2.5q131 0 178 7q5 -1 2 -7l-82 -114q-4 -4 0 -8l155 -209l168 206q4 7 0 11 l-120 114q-3 3 0 6q0 1 2 1q47 -7 139 -7q157 0 192 7q9 0 2 -7q-9 -9 -41 -40.5t-51 -50.5t-51 -53.5t-61 -68.5l-138 -170l166 -219q126 -168 230 -268q6 -6 -2 -6q-30 6 -224 6q-136 0 -176 -6q-4 1 -2 6l78 131v6l-172 223l-178 -221v-6l127 -133q2 -4 -2 -6 q-41 6 -172 6q-163 0 -193 -6q-8 0 -2 6z" />
<glyph unicode="y" horiz-adv-x="888" d="M4 -324l174 242q6 3 6 -2v-192q0 -60 45 -64h5q45 0 69 61l105 252q12 30 12 62q0 47 -25 98l-237 494q-68 139 -106 191q-20 27 -40 46q-2 4 2 6h363q4 -1 2 -6l-84 -127v-6l190 -397q28 -61 31 -84q0 -3 1 -4t3 2l203 493q2 7 0 9l-72 114q-2 4 2 6h240q4 -1 2 -6 q-62 -54 -125 -202l-383 -912q-40 -98 -92 -139q-47 -37 -120 -37h-15q-54 3 -99.5 35t-56.5 59q-4 4 0 8z" />
<glyph unicode="z" horiz-adv-x="835" d="M16 2q106 87 162 180l352 602q9 16 -11 21q-19 4 -109 4h-74q-65 0 -97.5 -14.5t-54.5 -51.5l-123 -206q-3 -6 -6.5 -6t-3.5 6q0 3 3.5 41.5t6 95.5t2.5 139q0 50 -4 90q0 5 7 2q95 -35 229 -35h188q39 0 305 7q10 0 3 -7q-44 -34 -113 -155l-377 -633q-8 -14 6 -14h150 q85 0 133.5 30t105.5 97l123 139q4 4 7 2.5t1 -6.5l-104 -330q-2 -6 -8 -6l-260 6q-329 0 -437 -6q-10 0 -2 8z" />
<glyph unicode="{" horiz-adv-x="561" d="M94 598.5q-1 1.5 0 3t4 2.5q81 29 115.5 73t30.5 124l-21 493q-3 87 41 139t125 52h125q6 0 6 -4v-56q0 -4 -6 -4h-74q-26 0 -34.5 -12t-8.5 -47v-526q0 -73 -28 -143.5t-76 -88.5q-5 -3 0 -8q48 -23 76 -90t28 -139v-529q0 -35 8.5 -47t34.5 -12h74q6 0 6 -4v-56 q0 -4 -6 -4h-125q-81 0 -125 50.5t-41 140.5l21 493q4 83 -31 128t-115 69q-3 1 -4 2.5z" />
<glyph unicode="|" horiz-adv-x="382" d="M154 -221v1644q0 7 6 7h63q6 0 6 -7v-1644q0 -6 -6 -6h-63q-6 0 -6 6z" />
<glyph unicode="}" horiz-adv-x="561" d="M41 -225q0 4 6 4h74q26 0 34.5 12t8.5 47v529q0 72 28 139t76 90q3 0 3 5q0 2 -3 3q-48 18 -76 88.5t-28 143.5v526q0 35 -8.5 47t-34.5 12h-74q-6 0 -6 4v56q0 4 6 4h125q81 0 125 -52t41 -139l-21 -493q-4 -80 30.5 -124t115.5 -73q3 -1 4 -2.5t0 -3t-4 -2.5 q-80 -24 -115 -69t-31 -128l21 -493q3 -90 -41 -140.5t-125 -50.5h-125q-6 0 -6 4v56z" />
<glyph unicode="~" horiz-adv-x="1105" d="M63 438q41 95 114 153t161 58q44 0 112 -24t127.5 -52.5t124.5 -52.5t103 -24q110 0 186 125q2 4 6 4l43 -33l2 -4q-48 -104 -115 -155.5t-143 -51.5q-57 0 -127.5 24.5t-125 53.5t-117 53.5t-105.5 24.5q-66 0 -110.5 -33t-83.5 -96q-3 -5 -6 -5l-43 31z" />
<glyph unicode="&#xa1;" horiz-adv-x="589" d="M162 774q0 54 39.5 93.5t93.5 39.5t93.5 -39.5t39.5 -93.5t-39.5 -93.5t-93.5 -39.5t-93.5 39.5t-39.5 93.5zM182 -430l74 932q0 8 6 8h64q6 0 6 -8l74 -932q3 -52 -31 -90.5t-80 -38.5q-49 0 -82.5 38t-30.5 91z" />
<glyph unicode="&#xa2;" horiz-adv-x="1036" d="M84 432q0 113 52.5 215.5t152.5 173.5t227 84q4 0 4 4v215q0 6 6 6h64q6 0 6 -6v-215q0 -4 4 -4q161 -10 260.5 -109t104.5 -249q0 -8 -7 -8h-290q-10 0 -6 8l118 112q2 2 2 9q-14 72 -62 119.5t-120 56.5q-4 0 -4 -4v-809q0 -4 4 -4q90 10 158.5 75t107.5 162q4 7 11 2 l86 -59q4 -4 0 -10q-142 -213 -363 -232q-4 0 -4 -6v-174q0 -6 -6 -6h-64q-6 0 -6 6v174q0 6 -6 6q-199 11 -314.5 133.5t-115.5 333.5zM270 442q0 -103 25.5 -188.5t82 -147.5t138.5 -77q4 0 4 4v805q0 4 -4 4q-121 -21 -183.5 -130t-62.5 -270z" />
<glyph unicode="&#xa3;" horiz-adv-x="1130" d="M82 -3.5q-1 2.5 2 5.5q11 10 46.5 40.5t49 43t39 42.5t35.5 53.5t19.5 60t9.5 77.5v291q0 11 -8 18t-19 7q-76 0 -88 -8q-6 -3 -6 4v69q0 8 6 5q12 -4 39.5 -6.5t49.5 -2.5h22q4 0 4 4v248q0 117 18 202.5t59 150t112 97t173 32.5q361 0 361 -433q0 -8 -7 -8h-290 q-11 0 -7 8l119 113q2 2 2 8q0 127 -41.5 185.5t-134.5 58.5q-114 0 -154 -88.5t-40 -288.5v-285q0 -4 4 -4h211q120 -1 147 9q6 3 6 -5v-69q0 -7 -6 -4q-5 4 -42 6t-71 2h-34h-189q-11 0 -18.5 -6.5t-7.5 -16.5v-258q0 -187 -113 -278q-4 -3 -3.5 -5.5t5.5 -2.5h305 q128 0 205 61l252 203q4 3 7 1.5t1 -5.5l-115 -328q-3 -6 -10 -6q-26 0 -57.5 1t-71.5 2t-164.5 2t-312.5 1q-77 0 -166 -3t-129 -3q-3 0 -4 2.5z" />
<glyph unicode="&#xa5;" horiz-adv-x="1308" d="M-4 1391q-8 8 2 8q3 0 31 -1.5t85.5 -3t129.5 -1.5q123 0 172 6q10 0 2 -8l-96 -125v-6l292 -494q62 -106 68 -145q0 -4 4 0l389 618q2 6 0 8l-94 146q-3 6 2 6q81 -6 129 -6q98 0 178 6q4 -1 2 -6q-13 -14 -37 -39t-35.5 -37t-30 -36t-36.5 -52l-401 -629 q-17 -24 -17 -43q0 -8 6 -8h287q6 0 6 -6v-54q0 -6 -6 -6h-287q-6 0 -6 -6v-131q0 -6 6 -6h287q6 0 6 -6v-53q0 -7 -6 -7h-287q-6 0 -6 -6v-96q0 -10 6 -16l111 -148q8 -8 -2 -8h-395q-10 0 -2 8l110 148q6 6 6 16v96q0 6 -6 6h-289q-6 0 -6 7v53q0 6 6 6h289q6 0 6 6v62 q0 43 -8 71q-2 4 -6 4h-281q-6 0 -6 6v54q0 6 6 6h263q5 0 2 6q-16 33 -29 53l-340 568q-34 58 -84.5 122.5t-89.5 92.5z" />
<glyph unicode="&#xa6;" horiz-adv-x="382" d="M154 6v604q0 6 6 6h63q6 0 6 -6v-604q0 -6 -6 -6h-63q-6 0 -6 6zM154 819v604q0 7 6 7h63q6 0 6 -7v-604q0 -6 -6 -6h-63q-6 0 -6 6z" />
<glyph unicode="&#xa7;" horiz-adv-x="1122" d="M113 602q0 44 14 90t42 90.5t79 77.5t117 45q6 0 2 4q-77 62 -111 124t-31 143q3 118 80.5 186t214.5 68q151 0 234 -103q3 -5 8 0l86 74q3 4 7.5 3.5t4.5 -7.5v-404q0 -2 -2 -5t-5.5 -2t-6.5 7q-9 21 -29 65t-29.5 64.5t-27.5 57t-30 54t-31.5 44.5t-37 40t-40 27 t-47.5 19.5t-54 5.5q-69 0 -109.5 -38t-43.5 -95q-3 -47 13.5 -81.5t47 -60t94.5 -65.5l277 -174q105 -67 158 -141t53 -172q0 -60 -23 -118t-82 -111t-147 -74q-7 0 0 -7q142 -103 139 -258q-3 -119 -81 -189.5t-214 -70.5q-150 0 -233 103q-4 5 -9 0l-86 -74 q-3 -4 -7.5 -3.5t-4.5 7.5v404q0 2 2 5t5.5 2t6.5 -7q9 -21 29 -65t29.5 -64.5t27.5 -57t30 -54t31.5 -44.5t37 -40t40 -27t47.5 -19.5t54 -5.5q69 0 110 37t44 94q4 68 -29.5 109.5t-126.5 99.5l-276 174q-105 67 -158 141t-53 172zM254 674q0 -72 44 -126.5t134 -109.5 l242 -147q4 -2 12 -2q182 18 182 182q0 72 -44 126.5t-134 109.5l-241 147q-2 2 -9 2q-89 0 -137.5 -48.5t-48.5 -133.5z" />
<glyph unicode="&#xa8;" horiz-adv-x="878" d="M150 1143q0 42 34 77t78 35t78.5 -35t34.5 -77q0 -45 -34 -79t-79 -34t-78.5 34t-33.5 79zM506 1143q0 42 34 77t78 35t78.5 -35t34.5 -77q0 -45 -34 -79t-79 -34t-78.5 34t-33.5 79z" />
<glyph unicode="&#xa9;" horiz-adv-x="1675" d="M113 700q0 198 96.5 366.5t263.5 267t365 98.5q149 0 284 -58t231.5 -156.5t153 -233.5t56.5 -284q0 -199 -96 -366.5t-263 -265t-366 -97.5q-148 0 -282.5 57.5t-231.5 155.5t-154 232.5t-57 283.5zM193 698q0 -136 52.5 -260t140 -213t206 -141.5t246.5 -52.5 q129 0 248.5 52.5t208 141.5t141.5 213t53 260q0 183 -89.5 337.5t-239 243.5t-322.5 89q-128 0 -247 -53t-206.5 -142.5t-139.5 -214t-52 -260.5zM383 698q0 141 61.5 257.5t175.5 185.5t259 69q154 0 257.5 -84.5t120.5 -234.5q0 -8 -6 -8h-225q-8 0 -4 8l74 98q2 2 2 8 q-12 71 -70.5 113.5t-148.5 42.5q-147 0 -232.5 -125t-85.5 -330q0 -85 20 -163.5t58 -143t102 -103t144 -38.5q92 0 144.5 53t66.5 123q0 6 -2 8l-62 84q-4 8 4 8h226q6 0 6 -8q-15 -60 -44 -113.5t-76 -103t-119 -79t-161 -29.5q-229 0 -357 135t-128 370z" />
<glyph unicode="&#xab;" horiz-adv-x="866" d="M92 424v119q0 4 4 6l318 180q4 -3 4 -4v-82q0 -6 -4 -8l-238 -133q-4 -2 -4 -6v-29q0 -4 4 -6l238 -135q4 -2 4 -9v-81q0 -4 -1 -4.5t-3 -0.5l-318 187q-4 2 -4 6zM428 424v119q0 4 4 6l318 180q4 -3 4 -4v-82q0 -6 -4 -8l-238 -133q-4 -2 -4 -6v-29q0 -4 4 -6l238 -135 q4 -2 4 -9v-81q0 -4 -1 -4.5t-3 -0.5l-318 187q-4 2 -4 6z" />
<glyph unicode="&#xac;" horiz-adv-x="1290" d="M41 950v60q0 4 6 4h940q43 0 43 -43v-811q0 -6 -6 -6h-72q-6 0 -6 6v768q0 18 -18 18h-881q-6 0 -6 4z" />
<glyph unicode="&#xad;" horiz-adv-x="559" d="M51 483v60q0 4 6 4h445q6 0 6 -4v-60q0 -4 -6 -4h-445q-6 0 -6 4z" />
<glyph unicode="&#xae;" horiz-adv-x="1675" d="M113 700q0 198 96.5 366.5t263.5 267t365 98.5q149 0 284 -58t231.5 -156.5t153 -233.5t56.5 -284q0 -199 -96 -366.5t-263 -265t-366 -97.5q-148 0 -282.5 57.5t-231.5 155.5t-154 232.5t-57 283.5zM193 698q0 -136 52.5 -260t140 -213t206 -141.5t246.5 -52.5 q129 0 248.5 52.5t208 141.5t141.5 213t53 260q0 183 -89.5 337.5t-239 243.5t-322.5 89q-128 0 -247 -53t-206.5 -142.5t-139.5 -214t-52 -260.5zM444 256l66 90q6 6 6 14v678q0 3 -6 15l-64 116q-4 7 5 7h417q61 0 115 -12t101 -37t74.5 -70.5t27.5 -106.5q0 -90 -57 -150 t-119 -71v-4q92 -17 142 -74t50 -145v-148q0 -3 6 -12l64 -88q5 -8 -2 -8h-223q-7 0 -7 8v227q0 207 -190 207h-131q-24 0 -37.5 -14.5t-13.5 -40.5v-277q0 -10 4 -14l67 -90q5 -2 2 -5l-4 -1h-291q-4 1 -2 6zM668 799q0 -26 14 -41t37 -15h131q72 0 120 54t48 153 q0 84 -48.5 129t-129.5 45h-166q-6 0 -6 -8v-317z" />
<glyph unicode="&#xaf;" horiz-adv-x="837" d="M154 1171v60q0 4 6 4h518q6 0 6 -4v-60q0 -4 -6 -4h-518q-6 0 -6 4z" />
<glyph unicode="&#xb0;" horiz-adv-x="708" d="M102 1178q0 103 75.5 177.5t178.5 74.5t176.5 -74.5t73.5 -177.5q0 -105 -73.5 -178.5t-176.5 -73.5q-104 0 -179 73.5t-75 178.5zM170 1178q0 -74 55.5 -129.5t130.5 -55.5q73 0 128 55.5t55 129.5q0 75 -54.5 129.5t-128.5 54.5q-75 0 -130.5 -54.5t-55.5 -129.5z" />
<glyph unicode="&#xb1;" horiz-adv-x="997" d="M72 4v59q0 5 6 5h842q6 0 6 -5v-59q0 -4 -6 -4h-842q-6 0 -6 4zM72 573v60q0 4 6 4h379q4 0 4 4v367q0 6 6 6h63q7 0 7 -6v-367q0 -4 4 -4h379q6 0 6 -4v-60q0 -4 -6 -4h-379q-4 0 -4 -4v-366q0 -6 -7 -6h-63q-6 0 -6 6v366q0 4 -4 4h-379q-6 0 -6 4z" />
<glyph unicode="&#xb2;" horiz-adv-x="888" d="M141 616l295 353q74 88 102.5 142t28.5 112q0 67 -40 100t-93 33q-72 0 -103.5 -65t1.5 -156q2 -5 -4 -5l-146 23q-6 0 -6 8q0 44 15 89t45 86.5t82.5 67.5t119.5 26q118 0 188 -53.5t70 -151.5q0 -34 -3.5 -57.5t-15.5 -59.5t-41 -79.5t-75 -98.5l-215 -252q-2 -4 2 -6 h101q59 0 86.5 12t62.5 47l115 117q4 4 7 2.5t1 -6.5l-66 -228q-2 -6 -8 -6h-500q-6 0 -6 6z" />
<glyph unicode="&#xb3;" horiz-adv-x="935" d="M174 831q0 7 4 7l144 39q2 0 2 -3q0 -88 41.5 -138t105.5 -50q55 0 93.5 45t39.5 115q1 87 -45 129.5t-119 42.5h-84q-2 0 -2 2v65q0 2 2 2h86q54 0 88.5 41t34.5 111q0 62 -33.5 92.5t-72.5 30.5q-52 0 -82.5 -43.5t-32.5 -110.5q0 -4 -4 -4l-139 39q-2 0 -2 6 q56 181 268 181q64 0 119.5 -18.5t95 -63.5t39.5 -109q0 -59 -36 -103t-93 -69q-8 -4 0 -4q75 -26 122.5 -78.5t47.5 -130.5q0 -107 -86 -175.5t-207 -68.5q-122 0 -195 52.5t-100 168.5z" />
<glyph unicode="&#xb4;" horiz-adv-x="630" d="M125 1055l213 282q44 56 92 56q36 0 57 -21t21 -51q0 -32 -14.5 -52.5t-49.5 -47.5l-237 -166q-6 -4 -12 -4h-68z" />
<glyph unicode="&#xb5;" horiz-adv-x="1091" d="M62.5 -465.5q-0.5 1.5 0.5 3.5t3 3l106 105q4 2 4 8v1057q0 6 -4 8l-102 69q-3 2 -3.5 4.5t3.5 4.5q53 18 113 42.5t107 45.5t50 22q6 2 6 -4v-588q0 -146 39.5 -215t140.5 -69q109 0 170.5 81t61.5 234v365q0 6 -4 8l-103 69q-3 2 -3.5 4.5t3.5 4.5q53 18 113 42.5 t107.5 45.5t50.5 22q6 2 6 -4v-518q0 -114 23 -220t71 -161q4 -4 -1 -4q-1 -1 -3 0q-18 5 -49.5 15t-91 35.5t-101.5 53.5q-5 3 -8 0q-98 -141 -258 -141q-115 0 -176 55q-4 2 -4 -2q0 -9 8 -98.5t8 -148.5v-232q0 -4 -6 -4h-274q-3 0 -3.5 1.5z" />
<glyph unicode="&#xb6;" horiz-adv-x="1181" d="M51 1081q0 131 86 220.5t209 91.5h733q4 0 4.5 -3t-2.5 -6l-110 -147q-6 -6 -6 -16v-1049q0 -10 6 -16l110 -148q8 -8 -2 -8h-395q-10 0 -2 8l111 148q6 6 6 16v1096q0 29 -17 46t-45 17h-174q-28 0 -44.5 -17t-16.5 -46v-1096q0 -10 6 -16l110 -148q8 -8 -2 -8h-395 q-10 0 -2 8l111 148q6 6 6 16v614q0 7 -4 7q-120 6 -200.5 80.5t-80.5 207.5z" />
<glyph unicode="&#xb7;" horiz-adv-x="573" d="M154 510q0 54 39.5 93.5t93.5 39.5t93.5 -39.5t39.5 -93.5t-39.5 -93.5t-93.5 -39.5t-93.5 39.5t-39.5 93.5z" />
<glyph unicode="&#xb8;" horiz-adv-x="1705" d="M539 -401l22 55q2 4 8 2q81 -25 125 -25q119 0 119 95q0 33 -24.5 52t-59.5 19q-43 0 -76 -8h-8l-10 6l-2 6l76 174h73l-43 -104q-2 -4 2 -4q27 6 56 6q72 0 116.5 -35t44.5 -106q0 -48 -23.5 -83.5t-62 -53.5t-80.5 -26.5t-87 -8.5q-82 0 -164 32q-2 1 -2 7z" />
<glyph unicode="&#xb9;" horiz-adv-x="817" d="M210.5 617q-0.5 3 2.5 6l113 75q6 6 6 17v547q0 6 -4 8h-113q-7 3 0 8l266 152q6 4 6 -5v-710q0 -10 7 -17l110 -75q2 -2 2.5 -4t-0.5 -3.5t-4 -1.5h-387q-4 0 -4.5 3z" />
<glyph unicode="&#xbb;" horiz-adv-x="866" d="M113 236v81q0 7 4 9l237 135q4 2 4 6v29q0 4 -4 6l-237 133q-4 2 -4 8v82q0 3 0.5 3.5t2.5 0.5h1l317 -180q4 -2 4 -6v-119q0 -4 -4 -6l-317 -187q-4 3 -4 5zM449 236v81q0 7 4 9l237 135q4 2 4 6v29q0 4 -4 6l-237 133q-4 2 -4 8v82q0 3 0.5 3.5t2.5 0.5h1l317 -180 q4 -2 4 -6v-119q0 -4 -4 -6l-317 -187q-4 3 -4 5z" />
<glyph unicode="&#xbc;" horiz-adv-x="1599" d="M210.5 617q-0.5 3 2.5 6l113 75q6 6 6 17v547q0 6 -4 8h-113q-7 3 0 8l266 152q6 4 6 -5v-710q0 -10 7 -17l110 -75q2 -2 2.5 -4t-0.5 -3.5t-4 -1.5h-387q-4 0 -4.5 3zM231 6q-4 -6 5 -6h81q9 0 9 6q604 778 1075 1380q5 7 -4 7h-82q-8 0 -8 -7q-150 -200 -497.5 -645 t-578.5 -735zM922 229v56l4 10l301 491q5 7 10 7h160q6 0 6 -7v-499h24q20 0 33 10l70 55q8 5 8 -2v-184q0 -7 -8 -2l-70 51q-17 10 -33 10h-24v-123q0 -8 4 -16l45 -78q4 -8 -2 -8h-256q-5 0 -2 8l41 78q4 6 4 16v123h-311q-4 0 -4 4zM989 293q-3 -6 2 -6h246v407z" />
<glyph unicode="&#xbd;" horiz-adv-x="1624" d="M210.5 617q-0.5 3 2.5 6l113 75q6 6 6 17v547q0 6 -4 8h-113q-7 3 0 8l266 152q6 4 6 -5v-710q0 -10 7 -17l110 -75q2 -2 2.5 -4t-0.5 -3.5t-4 -1.5h-387q-4 0 -4.5 3zM231 6q-4 -6 5 -6h81q9 0 9 6q604 778 1075 1380q5 7 -4 7h-82q-8 0 -8 -7q-150 -200 -497.5 -645 t-578.5 -735zM963 6l294 352q74 89 103 142.5t29 111.5q0 67 -40.5 100t-93.5 33q-72 0 -103.5 -65t1.5 -156q1 -3 1 -3.5t-5 -0.5l-145 23q-7 0 -7 8q0 44 15 89t45 86t83 67t120 26q118 0 188 -53.5t70 -151.5q0 -68 -24.5 -130t-111.5 -165l-215 -251q-3 -3 0 -6 q0 -1 2 -1h101q59 0 86.5 12.5t62.5 47.5l115 117q4 4 7 2t1 -7l-65 -227q-2 -6 -9 -6h-499q-6 0 -6 6z" />
<glyph unicode="&#xbe;" horiz-adv-x="1703" d="M174 831q0 7 4 7l144 39q2 0 2 -3q0 -88 41.5 -138t105.5 -50q55 0 93.5 45t39.5 115q1 87 -45 129.5t-119 42.5h-84q-2 0 -2 2v65q0 2 2 2h86q54 0 88.5 41t34.5 111q0 62 -33.5 92.5t-72.5 30.5q-52 0 -82.5 -43.5t-32.5 -110.5q0 -4 -4 -4l-139 39q-2 0 -2 6 q56 181 268 181q64 0 119.5 -18.5t95 -63.5t39.5 -109q0 -59 -36 -103t-93 -69q-8 -4 0 -4q75 -26 122.5 -78.5t47.5 -130.5q0 -107 -86 -175.5t-207 -68.5q-122 0 -195 52.5t-100 168.5zM336 6q-4 -6 4 -6h82q8 0 8 6q604 778 1075 1380q5 7 -4 7h-82q-8 0 -8 -7 q-151 -202 -500 -649.5t-575 -730.5zM1026 229v56l4 10l301 491q5 7 10 7h160q6 0 6 -7v-499h25q20 0 33 10l69 55q8 5 8 -2v-184q0 -7 -8 -2l-69 51q-17 10 -33 10h-25v-123q0 -8 4 -16l45 -78q4 -8 -2 -8h-256q-5 0 -2 8l41 78q4 6 4 16v123h-311q-4 0 -4 4zM1094 293 q-3 -6 2 -6h245v407z" />
<glyph unicode="&#xbf;" d="M61 -209q0 131 76 241.5t252 231.5q83 57 98.5 75t18.5 56l12 137q0 5 4 5h64q6 0 6 -5l26 -282q2 -19 -3 -28.5t-25 -24.5l-150 -117q-104 -80 -146 -150t-42 -180q0 -98 71.5 -170t190.5 -72q107 0 169 69.5t62 164.5q0 8 -4 12l-110 119q-4 8 6 8h315q6 0 6 -8 q0 -80 -30 -156.5t-84.5 -138.5t-140.5 -99.5t-189 -37.5q-206 0 -329.5 94.5t-123.5 255.5zM420 774q0 54 39.5 93.5t93.5 39.5t93.5 -39.5t39.5 -93.5t-39.5 -93.5t-93.5 -39.5t-93.5 39.5t-39.5 93.5z" />
<glyph unicode="&#xc0;" horiz-adv-x="1398" d="M6 1q1 3 4 5q105 82 131 115q30 38 41 63l406 1016q6 14 -8 19l-160 65q-5 2 -5.5 5.5t3.5 6.5l256 148q6 3 8 0q12 -38 27.5 -78t26 -64t27.5 -61.5t23 -50.5l353 -799q68 -154 132.5 -245.5t137.5 -141.5q4 -3 3.5 -6.5t-5.5 -3.5q-138 6 -238 6q-60 0 -103.5 -1.5 t-63.5 -3t-23 -1.5q-6 0 -6.5 3.5t2.5 6.5l84 123q4 7 2 12l-148 336q-15 34 -55 37q-100 8 -244 8q-84 0 -184 -8q-40 -3 -55 -37l-131 -336q-5 -9 2 -16l125 -119q2 -2 2.5 -4.5t-0.5 -4t-4 -1.5q-138 6 -187 6q-62 0 -170 -6q-4 0 -5.5 2t-0.5 5zM246 1782q0 30 21 50.5 t57 20.5q49 0 92 -55l213 -282q4 -5 -2 -5h-68q-5 0 -12 5l-238 165q-35 27 -49 48t-14 53zM424 606q-3 -13 10 -16q50 -10 180 -10q126 0 226 10q30 3 18 31l-225 516z" />
<glyph unicode="&#xc1;" horiz-adv-x="1398" d="M6 1q1 3 4 5q105 82 131 115q30 38 41 63l406 1016q6 14 -8 19l-160 65q-5 2 -5.5 5.5t3.5 6.5l256 148q6 3 8 0q12 -38 27.5 -78t26 -64t27.5 -61.5t23 -50.5l353 -799q68 -154 132.5 -245.5t137.5 -141.5q4 -3 3.5 -6.5t-5.5 -3.5q-138 6 -238 6q-60 0 -103.5 -1.5 t-63.5 -3t-23 -1.5q-6 0 -6.5 3.5t2.5 6.5l84 123q4 7 2 12l-148 336q-15 34 -55 37q-100 8 -244 8q-84 0 -184 -8q-40 -3 -55 -37l-131 -336q-5 -9 2 -16l125 -119q2 -2 2.5 -4.5t-0.5 -4t-4 -1.5q-138 6 -187 6q-62 0 -170 -6q-4 0 -5.5 2t-0.5 5zM424 606q-3 -13 10 -16 q50 -10 180 -10q126 0 226 10q30 3 18 31l-225 516zM535 1516l213 282q43 55 92 55q36 0 57 -20.5t21 -50.5q0 -32 -14.5 -53t-49.5 -48l-238 -165q-8 -5 -12 -5h-67z" />
<glyph unicode="&#xc2;" horiz-adv-x="1398" d="M6 1q1 3 4 5q105 82 131 115q30 38 41 63l406 1016q6 14 -8 19l-160 65q-5 2 -5.5 5.5t3.5 6.5l256 148q6 3 8 0q12 -38 27.5 -78t26 -64t27.5 -61.5t23 -50.5l353 -799q68 -154 132.5 -245.5t137.5 -141.5q4 -3 3.5 -6.5t-5.5 -3.5q-138 6 -238 6q-60 0 -103.5 -1.5 t-63.5 -3t-23 -1.5q-6 0 -6.5 3.5t2.5 6.5l84 123q4 7 2 12l-148 336q-15 34 -55 37q-100 8 -244 8q-84 0 -184 -8q-40 -3 -55 -37l-131 -336q-5 -9 2 -16l125 -119q2 -2 2.5 -4.5t-0.5 -4t-4 -1.5q-138 6 -187 6q-62 0 -170 -6q-4 0 -5.5 2t-0.5 5zM346 1511l250 334 q4 4 8 4h117q4 0 8 -4l246 -334q2 -4 -2 -4h-60q-4 0 -8 4l-241 205q-4 4 -7 0l-241 -205q-4 -4 -8 -4h-60zM424 606q-3 -13 10 -16q50 -10 180 -10q126 0 226 10q30 3 18 31l-225 516z" />
<glyph unicode="&#xc3;" horiz-adv-x="1398" d="M6 1q1 3 4 5q105 82 131 115q30 38 41 63l406 1016q6 14 -8 19l-160 65q-5 2 -5.5 5.5t3.5 6.5l256 148q6 3 8 0q12 -38 27.5 -78t26 -64t27.5 -61.5t23 -50.5l353 -799q68 -154 132.5 -245.5t137.5 -141.5q4 -3 3.5 -6.5t-5.5 -3.5q-138 6 -238 6q-60 0 -103.5 -1.5 t-63.5 -3t-23 -1.5q-6 0 -6.5 3.5t2.5 6.5l84 123q4 7 2 12l-148 336q-15 34 -55 37q-100 8 -244 8q-84 0 -184 -8q-40 -3 -55 -37l-131 -336q-5 -9 2 -16l125 -119q2 -2 2.5 -4.5t-0.5 -4t-4 -1.5q-138 6 -187 6q-62 0 -170 -6q-4 0 -5.5 2t-0.5 5zM293 1575q21 99 75 161 t144 62q35 0 70 -18.5t59 -41t57.5 -41t65.5 -18.5q66 0 102 111q2 4 6 4h52l2 -4q-20 -96 -73.5 -160.5t-141.5 -64.5q-40 0 -79.5 19t-65 41.5t-55.5 41.5t-54 19q-38 0 -66.5 -34t-38.5 -77q-2 -4 -6 -4h-51zM424 606q-3 -13 10 -16q50 -10 180 -10q126 0 226 10 q30 3 18 31l-225 516z" />
<glyph unicode="&#xc4;" horiz-adv-x="1398" d="M6 1q1 3 4 5q105 82 131 115q30 38 41 63l406 1016q6 14 -8 19l-160 65q-5 2 -5.5 5.5t3.5 6.5l256 148q6 3 8 0q12 -38 27.5 -78t26 -64t27.5 -61.5t23 -50.5l353 -799q68 -154 132.5 -245.5t137.5 -141.5q4 -3 3.5 -6.5t-5.5 -3.5q-138 6 -238 6q-60 0 -103.5 -1.5 t-63.5 -3t-23 -1.5q-6 0 -6.5 3.5t2.5 6.5l84 123q4 7 2 12l-148 336q-15 34 -55 37q-100 8 -244 8q-84 0 -184 -8q-40 -3 -55 -37l-131 -336q-5 -9 2 -16l125 -119q2 -2 2.5 -4.5t-0.5 -4t-4 -1.5q-138 6 -187 6q-62 0 -170 -6q-4 0 -5.5 2t-0.5 5zM356 1681 q0 42 34.5 77.5t78.5 35.5t78.5 -35.5t34.5 -77.5q0 -45 -34 -78.5t-79 -33.5t-79 33.5t-34 78.5zM424 606q-3 -13 10 -16q50 -10 180 -10q126 0 226 10q30 3 18 31l-225 516zM713 1681q0 42 34 77.5t78 35.5t78.5 -35.5t34.5 -77.5q0 -45 -34 -78.5t-79 -33.5t-78.5 33.5 t-33.5 78.5z" />
<glyph unicode="&#xc5;" horiz-adv-x="1398" d="M6 1q1 3 4 5q105 82 131 115q30 38 41 63l406 1016q6 14 -8 19l-160 65q-5 2 -5.5 5.5t3.5 6.5l256 148q6 3 8 0q12 -38 27.5 -78t26 -64t27.5 -61.5t23 -50.5l353 -799q68 -154 132.5 -245.5t137.5 -141.5q4 -3 3.5 -6.5t-5.5 -3.5q-138 6 -238 6q-60 0 -103.5 -1.5 t-63.5 -3t-23 -1.5q-6 0 -6.5 3.5t2.5 6.5l84 123q4 7 2 12l-148 336q-15 34 -55 37q-100 8 -244 8q-84 0 -184 -8q-40 -3 -55 -37l-131 -336q-5 -9 2 -16l125 -119q2 -2 2.5 -4.5t-0.5 -4t-4 -1.5q-138 6 -187 6q-62 0 -170 -6q-4 0 -5.5 2t-0.5 5zM424 606q-3 -13 10 -16 q50 -10 180 -10q126 0 226 10q30 3 18 31l-225 516zM442 1681q0 72 52 124.5t124 52.5t123.5 -52.5t51.5 -124.5t-51.5 -123t-123.5 -51t-124 51t-52 123zM508 1681q0 -43 33 -75.5t77 -32.5q43 0 76 32.5t33 75.5q0 44 -33 77.5t-76 33.5q-44 0 -77 -33.5t-33 -77.5z" />
<glyph unicode="&#xc6;" horiz-adv-x="2168" d="M-5.5 4q0.5 2 3.5 4l37 25q147 96 219 196l760 1045q8 10 -4 16l-131 94q-2 2 -2.5 4t0.5 3.5t4 1.5h864h20.5h22t22 0.5t24 1t23 1.5t25 2.5t24.5 3.5t26.5 5t25.5 7t27 9q6 3 6 -2v-383q0 -6 -4 -6t-7 6l-127 215q-31 53 -53.5 65.5t-75.5 12.5h-436q-12 0 -20 -9 t-8 -22v-471q0 -29 16.5 -46t44.5 -17h281q39 0 62.5 10t49.5 39l117 125q3 4 5.5 3t2.5 -5v-426q0 -6 -3.5 -7t-6.5 5l-121 149q-37 46 -106 46h-281q-28 0 -44.5 -17.5t-16.5 -46.5v-557q0 -23 18 -23h350q125 0 211 68l252 203q5 3 7 1.5t1 -5.5l-112 -322q-2 -6 -9 -6 h-999q-10 0 -2 8l110 148q7 7 7 16v305q-1 15 -3.5 22.5t-14 14t-32.5 6.5h-481q-9 0 -16 -10l-256 -354q-9 -12 -2 -23l78 -123q3 -3 0.5 -6.5t-7.5 -3.5h-358q-4 0 -6 1t-1.5 3zM604 582h440q50 0 50 51v602q0 14 -9 14q-7 0 -12 -8l-469 -651q-4 -8 0 -8z" />
<glyph unicode="&#xc7;" horiz-adv-x="1574" d="M121 692q0 150 58 287t156 235.5t234.5 157t286.5 58.5q245 0 422 -154q20 -20 43 2l90 86q2 2 5.5 3t6 -0.5t2.5 -6.5q-4 -111 -4 -242q0 -72 2 -170t2 -110q0 -3 -2 -5.5t-5 -1.5t-5 7q-176 524 -557 524q-150 0 -274 -90t-193 -244t-65 -336q5 -183 74.5 -334 t190 -239t267.5 -88q91 0 171 32t136 79t106.5 118.5t81.5 133t62 138.5q3 7 6.5 5.5t3.5 -7.5q0 -12 -2 -110t-2 -170q0 -131 4 -242q0 -11 -10 -4l-92 86q-17 13 -33 12t-28 -12q-126 -110 -334 -125q-8 0 -11 -10l-36 -88q-2 -4 2 -4q27 6 55 6q74 0 121 -35.5t41 -105.5 q-4 -48 -28 -83.5t-62 -53.5t-78.5 -26.5t-85.5 -8.5q-82 0 -164 32q-2 1 -2 6l22 56q2 4 9 2q81 -25 125 -25q118 0 118 94q0 34 -25 53t-59 19q-42 0 -75 -8h-9l-10 6l-2 6l66 154q2 7 0 9.5t-6 2.5h-3q-145 4 -275.5 62t-225.5 154t-151 230t-56 283z" />
<glyph unicode="&#xc8;" horiz-adv-x="1267" d="M96 2q-5 -8 2 -8q10 0 159.5 3t377.5 3q182 0 301.5 -3t138.5 -3q7 0 10 6q4 29 37 125q28 83 51.5 141.5t24.5 61.5q2 4 -1 5.5t-7 -1.5l-229 -178q-61 -48 -122 -67t-204 -19q-163 0 -213 8q-29 4 -29 30v519q0 20 5 34t18.5 22.5t25 13.5t37.5 7t43 2.5t53 0.5 q98 0 169 -25t122 -90l64 -80q10 -10 10 2q-8 73 -8 223q0 130 8 203q0 4 -2.5 5t-5.5 -3l-66 -72q-92 -102 -291 -102q-114 0 -148 13t-34 67v446q0 27 29 31q50 8 213 8q93 0 151.5 -6.5t95 -24.5t53 -35t40.5 -53l117 -174q3 -6 6.5 -6t3.5 6t-5 43t-8.5 99.5t-3.5 150.5 q0 51 9 88q2 3 0.5 4t-4.5 0q-58 -21 -132.5 -25.5t-287.5 -4.5h-23.5h-22.5h-26q-362 0 -500 6q-10 0 -2 -8l115 -154q6 -6 6 -16v-1049q0 -10 -6 -16zM408 1782q0 30 20.5 50.5t56.5 20.5q50 0 93 -55l213 -282q3 -5 -3 -5h-67q-5 0 -12 5l-238 165q-35 27 -49 48t-14 53z " />
<glyph unicode="&#xc9;" horiz-adv-x="1267" d="M96 2q-5 -8 2 -8q10 0 159.5 3t377.5 3q182 0 301.5 -3t138.5 -3q7 0 10 6q4 29 37 125q28 83 51.5 141.5t24.5 61.5q2 4 -1 5.5t-7 -1.5l-229 -178q-61 -48 -122 -67t-204 -19q-163 0 -213 8q-29 4 -29 30v519q0 20 5 34t18.5 22.5t25 13.5t37.5 7t43 2.5t53 0.5 q98 0 169 -25t122 -90l64 -80q10 -10 10 2q-8 73 -8 223q0 130 8 203q0 4 -2.5 5t-5.5 -3l-66 -72q-92 -102 -291 -102q-114 0 -148 13t-34 67v446q0 27 29 31q50 8 213 8q93 0 151.5 -6.5t95 -24.5t53 -35t40.5 -53l117 -174q3 -6 6.5 -6t3.5 6t-5 43t-8.5 99.5t-3.5 150.5 q0 51 9 88q2 3 0.5 4t-4.5 0q-58 -21 -132.5 -25.5t-287.5 -4.5h-23.5h-22.5h-26q-362 0 -500 6q-10 0 -2 -8l115 -154q6 -6 6 -16v-1049q0 -10 -6 -16zM475 1516l213 282q43 55 92 55q36 0 57 -20.5t21 -50.5q0 -32 -14 -53t-49 -48l-238 -165q-8 -5 -12 -5h-68z" />
<glyph unicode="&#xca;" horiz-adv-x="1267" d="M96 2l115 154q6 6 6 16v1049q0 10 -6 16l-115 154q-8 8 2 8q138 -6 500 -6h72q212 0 287 4.5t133 25.5q5 2 5 -1q0 -2 -1 -3q-9 -38 -9 -88q0 -88 3.5 -150.5t8.5 -99.5t5 -43t-3.5 -6t-6.5 6l-117 174q-24 36 -40.5 53t-53 35t-95 24.5t-151.5 6.5q-163 0 -213 -8 q-29 -4 -29 -31v-446q0 -54 34 -67t148 -13q199 0 291 102l66 72q3 4 5.5 3t2.5 -5q-8 -73 -8 -203q0 -150 8 -223q0 -12 -10 -2l-64 80q-51 65 -122 90t-169 25q-36 0 -53 -0.5t-43 -2.5t-37.5 -7t-25 -13.5t-18.5 -22.5t-5 -34v-519q0 -26 29 -30q50 -8 213 -8 q143 0 204 19t122 67l229 178q4 3 7 1.5t1 -5.5q-1 -3 -24.5 -61.5t-51.5 -141.5q-33 -96 -37 -125q-3 -6 -10 -6q-19 0 -138.5 3t-301.5 3q-228 0 -377.5 -3t-159.5 -3q-7 0 -2 8zM352 1516l250 333q4 4 8 4h117q4 0 8 -4l246 -333q2 -5 -2 -5h-59q-4 0 -9 5l-241 204 q-3 3 -6 0l-242 -204q-5 -5 -8 -5h-60z" />
<glyph unicode="&#xcb;" horiz-adv-x="1267" d="M96 2q-5 -8 2 -8q10 0 159.5 3t377.5 3q182 0 301.5 -3t138.5 -3q7 0 10 6q4 29 37 125q28 83 51.5 141.5t24.5 61.5q2 4 -1 5.5t-7 -1.5l-229 -178q-61 -48 -122 -67t-204 -19q-163 0 -213 8q-29 4 -29 30v519q0 20 5 34t18.5 22.5t25 13.5t37.5 7t43 2.5t53 0.5 q98 0 169 -25t122 -90l64 -80q10 -10 10 2q-8 73 -8 223q0 130 8 203q0 4 -2.5 5t-5.5 -3l-66 -72q-92 -102 -291 -102q-114 0 -148 13t-34 67v446q0 27 29 31q50 8 213 8q93 0 151.5 -6.5t95 -24.5t53 -35t40.5 -53l117 -174q3 -6 6.5 -6t3.5 6t-5 43t-8.5 99.5t-3.5 150.5 q0 51 9 88q2 3 0.5 4t-4.5 0q-58 -21 -132.5 -25.5t-287.5 -4.5h-23.5h-22.5h-26q-362 0 -500 6q-10 0 -2 -8l115 -154q6 -6 6 -16v-1049q0 -10 -6 -16zM383 1683q0 42 34.5 77.5t78.5 35.5t78 -35.5t34 -77.5q0 -45 -33.5 -78.5t-78.5 -33.5q-46 0 -79.5 33.5t-33.5 78.5z M739 1683q0 42 34.5 77.5t78.5 35.5t78.5 -35.5t34.5 -77.5q0 -45 -33.5 -78.5t-79.5 -33.5t-79.5 33.5t-33.5 78.5z" />
<glyph unicode="&#xcc;" horiz-adv-x="600" d="M-43 1782q0 30 21 50.5t57 20.5q49 0 92 -55l213 -282q4 -5 -2 -5h-68q-4 0 -12 5l-238 165q-35 27 -49 48t-14 53zM106 2l113 150q6 6 6 16v1059q0 10 -6 16l-110 148q-8 8 2 8q3 0 25 -1.5t67.5 -3t105.5 -1.5q69 0 207 6q10 0 2 -8l-110 -148q-7 -7 -7 -16v-1059 q0 -9 7 -16l108 -150q8 -8 -2 -8q-138 6 -207 6q-60 0 -105.5 -1.5t-67.5 -3t-25 -1.5q-11 0 -3 8z" />
<glyph unicode="&#xcd;" horiz-adv-x="600" d="M106 2l113 150q6 6 6 16v1059q0 10 -6 16l-110 148q-8 8 2 8q3 0 25 -1.5t67.5 -3t105.5 -1.5q69 0 207 6q10 0 2 -8l-110 -148q-7 -7 -7 -16v-1059q0 -9 7 -16l108 -150q8 -8 -2 -8q-138 6 -207 6q-60 0 -105.5 -1.5t-67.5 -3t-25 -1.5q-11 0 -3 8zM266 1516l213 282 q43 55 92 55q36 0 57 -20.5t21 -50.5q0 -32 -14 -53t-49 -48l-238 -165q-8 -5 -12 -5h-68z" />
<glyph unicode="&#xce;" horiz-adv-x="600" d="M-12 1516l250 333q4 4 8 4h116q5 0 9 -4l245 -333q2 -5 -2 -5h-59q-3 0 -8 5l-242 204q-3 3 -6 0l-242 -204q-5 -5 -8 -5h-59zM106 2l113 150q6 6 6 16v1059q0 10 -6 16l-110 148q-8 8 2 8q3 0 25 -1.5t67.5 -3t105.5 -1.5q69 0 207 6q10 0 2 -8l-110 -148q-7 -7 -7 -16 v-1059q0 -9 7 -16l108 -150q8 -8 -2 -8q-138 6 -207 6q-60 0 -105.5 -1.5t-67.5 -3t-25 -1.5q-11 0 -3 8z" />
<glyph unicode="&#xcf;" horiz-adv-x="600" d="M12 1683q0 42 34.5 77.5t78.5 35.5t78.5 -35.5t34.5 -77.5q0 -45 -34 -78.5t-79 -33.5t-79 33.5t-34 78.5zM106 2l113 150q6 6 6 16v1059q0 10 -6 16l-110 148q-8 8 2 8q3 0 25 -1.5t67.5 -3t105.5 -1.5q69 0 207 6q10 0 2 -8l-110 -148q-7 -7 -7 -16v-1059q0 -9 7 -16 l108 -150q8 -8 -2 -8q-138 6 -207 6q-60 0 -105.5 -1.5t-67.5 -3t-25 -1.5q-11 0 -3 8zM369 1683q0 42 34 77.5t78 35.5t78.5 -35.5t34.5 -77.5q0 -45 -34 -78.5t-79 -33.5t-78.5 33.5t-33.5 78.5z" />
<glyph unicode="&#xd0;" horiz-adv-x="1486" d="M51 684v55q0 6 6 6h154q6 0 6 7v469q0 10 -6 16l-115 154q-3 3 -2 5.5t4 2.5q14 0 154.5 -3t345.5 -3q373 0 574.5 -181t201.5 -507q0 -209 -96 -370t-268.5 -248t-395.5 -87q-288 0 -516 -6q-4 0 -4 3t2 5l115 154q6 6 6 16v500q0 6 -6 6h-154q-6 0 -6 6zM393 106 q0 -26 29 -30q50 -8 176 -8q284 0 441 167.5t157 469.5q0 307 -160 466.5t-438 159.5q-126 0 -176 -8q-29 -4 -29 -31v-540q0 -7 6 -7h197q6 0 6 -6v-55q0 -6 -6 -6h-197q-6 0 -6 -6v-566z" />
<glyph unicode="&#xd1;" horiz-adv-x="1507" d="M96 1391l148 -142q3 -3 4.5 -7t1.5 -6v-3v-1061q0 -10 -6 -16l-119 -154q-8 -8 2 -8q4 0 11.5 1t18.5 2t43 2t79 1q17 0 155 -6q10 0 2 8l-112 154q-7 7 -7 16v967l5 2l563 -811q59 -85 108.5 -177.5t69.5 -152.5q3 -8 10 -6q30 6 107 6q42 0 105.5 -3t64.5 -3q10 0 2 8 l-60 66q-3 3 -4.5 7t-1.5 7v2v1137q0 10 6 16l113 154q8 8 -2 8q-138 -6 -156 -6q-47 0 -79 1t-42.5 2t-18 2t-11.5 1q-10 0 -2 -8l118 -154q7 -7 7 -16v-1065q-1 -4 -5 -2l-698 1020q-59 87 -85 130t-44 89q-3 8 -10 6q-27 -6 -80 -6q-40 0 -86 1.5t-77 3t-36 1.5 q-10 0 -2 -8zM483 1575q21 99 75 161t144 62q35 0 70 -18.5t59 -41t57.5 -41t65.5 -18.5q67 0 103 111q2 4 6 4h51l2 -4q-20 -96 -73.5 -160.5t-141.5 -64.5q-40 0 -79.5 19t-65 41.5t-55.5 41.5t-54 19q-38 0 -66 -33.5t-38 -77.5q-2 -4 -6 -4h-52z" />
<glyph unicode="&#xd2;" horiz-adv-x="1695" d="M113 692q0 150 58 287t156 235.5t234.5 157t286.5 58.5q201 0 370 -97.5t267 -267.5t98 -373q0 -158 -58.5 -295.5t-158.5 -231.5t-234.5 -148t-283.5 -54t-283.5 54t-234.5 148t-158.5 231.5t-58.5 295.5zM309 692q0 -180 77.5 -333t206.5 -240.5t277 -87.5 q147 0 265.5 88t184.5 239t66 334q0 142 -45.5 267.5t-121.5 213t-179.5 138.5t-216.5 51q-151 0 -268 -84.5t-181.5 -237t-64.5 -348.5zM512 1782q0 30 21 50.5t57 20.5q49 0 92 -55l213 -282q4 -5 -2 -5h-68q-5 0 -12 5l-238 165q-35 27 -49 48t-14 53z" />
<glyph unicode="&#xd3;" horiz-adv-x="1695" d="M113 692q0 150 58 287t156 235.5t234.5 157t286.5 58.5q201 0 370 -97.5t267 -267.5t98 -373q0 -158 -58.5 -295.5t-158.5 -231.5t-234.5 -148t-283.5 -54t-283.5 54t-234.5 148t-158.5 231.5t-58.5 295.5zM309 692q0 -180 77.5 -333t206.5 -240.5t277 -87.5 q147 0 265.5 88t184.5 239t66 334q0 142 -45.5 267.5t-121.5 213t-179.5 138.5t-216.5 51q-151 0 -268 -84.5t-181.5 -237t-64.5 -348.5zM817 1518l213 282q43 55 92 55q36 0 57 -20.5t21 -50.5q0 -32 -14 -53t-49 -48l-238 -165q-8 -5 -12 -5h-68z" />
<glyph unicode="&#xd4;" horiz-adv-x="1695" d="M113 692q0 150 58 287t156 235.5t234.5 157t286.5 58.5q201 0 370 -97.5t267 -267.5t98 -373q0 -158 -58.5 -295.5t-158.5 -231.5t-234.5 -148t-283.5 -54t-283.5 54t-234.5 148t-158.5 231.5t-58.5 295.5zM309 692q0 -180 77.5 -333t206.5 -240.5t277 -87.5 q147 0 265.5 88t184.5 239t66 334q0 142 -45.5 267.5t-121.5 213t-179.5 138.5t-216.5 51q-151 0 -268 -84.5t-181.5 -237t-64.5 -348.5zM512 1511l250 334q4 4 8 4h117q4 0 8 -4l246 -334q2 -4 -2 -4h-60q-4 0 -8 4l-242 205q-3 3 -6 0l-241 -205q-4 -4 -9 -4h-59z" />
<glyph unicode="&#xd5;" horiz-adv-x="1695" d="M113 692q0 150 58 287t156 235.5t234.5 157t286.5 58.5q201 0 370 -97.5t267 -267.5t98 -373q0 -158 -58.5 -295.5t-158.5 -231.5t-234.5 -148t-283.5 -54t-283.5 54t-234.5 148t-158.5 231.5t-58.5 295.5zM309 692q0 -180 77.5 -333t206.5 -240.5t277 -87.5 q147 0 265.5 88t184.5 239t66 334q0 142 -45.5 267.5t-121.5 213t-179.5 138.5t-216.5 51q-151 0 -268 -84.5t-181.5 -237t-64.5 -348.5zM506 1575q21 99 75 161t144 62q35 0 70 -18.5t59 -41t57.5 -41t65.5 -18.5q66 0 102 111q2 4 6 4h52l2 -4q-20 -96 -73.5 -160.5 t-141.5 -64.5q-40 0 -79.5 19t-65 41.5t-55.5 41.5t-54 19q-38 0 -66.5 -34t-38.5 -77q-2 -4 -6 -4h-51z" />
<glyph unicode="&#xd6;" horiz-adv-x="1712" d="M121 692q0 150 58 287t156 235.5t234.5 157t286.5 58.5q201 0 370 -97.5t267 -267.5t98 -373q0 -158 -58.5 -295.5t-158.5 -231.5t-234.5 -148t-283.5 -54t-283.5 54t-234.5 148t-158.5 231.5t-58.5 295.5zM317 692q0 -180 78 -333t207 -240.5t277 -87.5q147 0 265.5 88 t184.5 239t66 334q0 142 -45.5 267.5t-122 213t-180 138.5t-216.5 51q-151 0 -268 -84.5t-181.5 -237t-64.5 -348.5zM565 1681q0 42 34.5 77.5t78.5 35.5t78.5 -35.5t34.5 -77.5q0 -45 -33.5 -78.5t-79.5 -33.5t-79.5 33.5t-33.5 78.5zM922 1681q0 42 34 77.5t78 35.5 t78.5 -35.5t34.5 -77.5q0 -45 -33.5 -78.5t-79.5 -33.5q-45 0 -78.5 33.5t-33.5 78.5z" />
<glyph unicode="&#xd7;" horiz-adv-x="913" d="M95 200l3 3l305 307q4 4 0 8l-301 305q-3 3 0 6l41 41q3 4 9 -2l301 -301q3 -3 6 0l305 301q3 3 6 0l41 -41q3 -3 -2 -8l-299 -301q-4 -4 0 -8l305 -305q5 -5 2 -8l-41 -41q-3 -3 -5 -1l-3 3l-305 303q-5 5 -10 0l-308 -305q-5 -5 -8 -2l-41 41q-3 3 -1 5z" />
<glyph unicode="&#xd8;" horiz-adv-x="1695" d="M113 692q0 150 58 287t156 235.5t234.5 157t286.5 58.5q258 0 461 -160q4 -4 8 0l141 153q7 7 8 7h70q9 0 4 -7l-178 -194q-4 -4 0 -8q105 -102 163 -238.5t58 -290.5q0 -158 -58.5 -295.5t-158.5 -231.5t-234.5 -148t-283.5 -54q-271 0 -481 170q-5 5 -11 0l-149 -164 q-6 -6 -10 -6h-74q-8 0 -2 6l190 207q3 5 0 8q-198 208 -198 508zM309 692q0 -217 109 -387q7 -7 10 -2l791 860q4 4 0 8q-77 91 -180 141t-216 50q-151 0 -268 -84.5t-181.5 -237t-64.5 -348.5zM465 236q79 -97 184.5 -151t220.5 -54q147 0 265.5 88t184.5 239t66 334 q0 235 -122 420q-6 6 -9 2l-790 -864q-6 -8 0 -14z" />
<glyph unicode="&#xd9;" horiz-adv-x="1521" d="M92 1391q-8 8 2 8q3 0 25.5 -1.5t70 -3t111.5 -1.5q71 0 209 6q10 0 2 -8l-117 -154q-6 -6 -6 -16v-760q0 -192 103 -305t301 -113q63 0 120.5 12.5t114 43.5t97.5 78.5t66.5 124t25.5 173.5v746q0 9 -7 16l-110 154q-8 8 2 8q5 0 24.5 -1.5t53 -3t73.5 -1.5q73 0 154 6 q10 0 2 -8l-115 -154q-6 -6 -6 -16v-719q0 -260 -143.5 -399.5t-396.5 -139.5q-111 0 -206 31.5t-169.5 93t-117 162.5t-42.5 231v740q0 10 -6 16zM588 1782q0 30 21 50.5t57 20.5q49 0 92 -55l213 -282q4 -5 -2 -5h-68q-5 0 -12 5l-238 165q-35 27 -49 48t-14 53z" />
<glyph unicode="&#xda;" horiz-adv-x="1521" d="M92 1391q-8 8 2 8q3 0 25.5 -1.5t70 -3t111.5 -1.5q71 0 209 6q10 0 2 -8l-117 -154q-6 -6 -6 -16v-760q0 -192 103 -305t301 -113q63 0 120.5 12.5t114 43.5t97.5 78.5t66.5 124t25.5 173.5v746q0 9 -7 16l-110 154q-8 8 2 8q5 0 24.5 -1.5t53 -3t73.5 -1.5q73 0 154 6 q10 0 2 -8l-115 -154q-6 -6 -6 -16v-719q0 -260 -143.5 -399.5t-396.5 -139.5q-111 0 -206 31.5t-169.5 93t-117 162.5t-42.5 231v740q0 10 -6 16zM659 1518l213 282q43 55 93 55q36 0 56.5 -20.5t20.5 -50.5q0 -32 -14 -53t-49 -48l-238 -165q-7 -5 -12 -5h-67z" />
<glyph unicode="&#xdb;" horiz-adv-x="1521" d="M92 1391q-8 8 2 8q3 0 25.5 -1.5t70 -3t111.5 -1.5q71 0 209 6q10 0 2 -8l-117 -154q-6 -6 -6 -16v-760q0 -192 103 -305t301 -113q63 0 120.5 12.5t114 43.5t97.5 78.5t66.5 124t25.5 173.5v746q0 9 -7 16l-110 154q-8 8 2 8q5 0 24.5 -1.5t53 -3t73.5 -1.5q73 0 154 6 q10 0 2 -8l-115 -154q-6 -6 -6 -16v-719q0 -260 -143.5 -399.5t-396.5 -139.5q-111 0 -206 31.5t-169.5 93t-117 162.5t-42.5 231v740q0 10 -6 16zM483 1511l250 334q4 4 8 4h117q4 0 8 -4l246 -334q2 -4 -2 -4h-59q-5 0 -9 4l-241 205q-3 3 -6 0l-242 -205q-4 -4 -8 -4h-60 z" />
<glyph unicode="&#xdc;" horiz-adv-x="1521" d="M92 1391q-8 8 2 8q3 0 25.5 -1.5t70 -3t111.5 -1.5q71 0 209 6q10 0 2 -8l-117 -154q-6 -6 -6 -16v-760q0 -192 103 -305t301 -113q63 0 120.5 12.5t114 43.5t97.5 78.5t66.5 124t25.5 173.5v746q0 9 -7 16l-110 154q-8 8 2 8q5 0 24.5 -1.5t53 -3t73.5 -1.5q73 0 154 6 q10 0 2 -8l-115 -154q-6 -6 -6 -16v-719q0 -260 -143.5 -399.5t-396.5 -139.5q-111 0 -206 31.5t-169.5 93t-117 162.5t-42.5 231v740q0 10 -6 16zM518 1681q0 42 34.5 77.5t78.5 35.5t78 -35.5t34 -77.5q0 -45 -33.5 -78.5t-78.5 -33.5t-79 33.5t-34 78.5zM874 1681 q0 42 34.5 77.5t78.5 35.5t78.5 -35.5t34.5 -77.5q0 -45 -34 -78.5t-79 -33.5t-79 33.5t-34 78.5z" />
<glyph unicode="&#xdd;" horiz-adv-x="1286" d="M-4 1391q-8 8 2 8q3 0 31 -1.5t85.5 -3t129.5 -1.5q123 0 172 6q10 0 2 -8l-96 -125v-6l292 -494q61 -100 68 -145q0 -4 4 0l389 618q2 6 0 8l-94 146q-3 6 2 6q81 -6 129 -6q98 0 178 6q4 -1 2 -6q-11 -12 -30.5 -32t-28.5 -30.5t-23.5 -27t-28 -34t-28.5 -40.5 l-401 -629q-17 -24 -17 -74v-354q0 -10 6 -16l121 -154q8 -8 -2 -8q-138 6 -207 6q-59 0 -106.5 -1.5t-72.5 -3t-28 -1.5q-10 0 -2 8l119 154q6 6 6 16v236q0 64 -15 108.5t-44 91.5l-340 568q-34 58 -84.5 122.5t-89.5 92.5zM621 1516l213 282q43 55 92 55q36 0 57 -20.5 t21 -50.5q0 -32 -14.5 -53t-49.5 -48l-238 -165q-8 -5 -12 -5h-67z" />
<glyph unicode="&#xde;" horiz-adv-x="1148" d="M66 3q0 3 2 5l96 148q4 6 4 14v1053q0 8 -4 14l-96 147q-2 2 -2 5.5t4 3.5h262q6 0 6 -7v-436q0 -8 4 0q40 76 122.5 126t186.5 50q201 0 307.5 -116.5t106.5 -317.5t-106 -315.5t-308 -114.5q-111 0 -192.5 48.5t-116.5 119.5q-4 8 -4 0v-424q0 -6 -6 -6h-262q-4 0 -4 3 zM334 694q0 -87 26.5 -160t68 -118t90.5 -69.5t97 -24.5q129 0 202 90.5t73 279.5q0 186 -74 280.5t-203 94.5q-111 0 -195.5 -100t-84.5 -273z" />
<glyph unicode="&#xdf;" horiz-adv-x="1187" d="M57 8l111 148q6 6 6 16v614q0 307 133.5 475.5t366.5 168.5q99 0 172 -25.5t113 -69.5t58.5 -94t18.5 -106q0 -67 -29.5 -132.5t-91 -118.5t-143.5 -75q-8 -4 0 -4q163 -31 260.5 -129t97.5 -240q0 -213 -142 -324.5t-384 -111.5h-108q-4 0 -4 4v68q0 4 6 4 q24 -4 57.5 -6t54.5 -2h21q141 0 229 89t88 249q0 152 -93.5 250t-252.5 98q-25 0 -43 -6q-4 -2 -4 4v71l4 4q18 -6 39 -6q110 0 183 84.5t73 200.5t-62 186t-149 70q-63 0 -112 -20t-80 -57t-52 -80.5t-31 -100t-14 -104.5t-4 -105v-889q0 -6 -6 -6h-285q-10 0 -2 8z" />
<glyph unicode="&#xe0;" d="M68 199q0 217 344 266l141 20q74 12 110.5 53.5t36.5 102.5q0 104 -56.5 154.5t-151.5 50.5q-81 0 -134.5 -41.5t-60.5 -91.5q0 -9 2 -11l104 -108q4 -8 -6 -8h-276q-6 0 -6 8q12 65 39 119t72 98.5t115 70t159 25.5q170 0 273.5 -78.5t103.5 -234.5v-238q0 -63 2 -100 t16.5 -106.5t42.5 -145.5q2 -3 0.5 -4.5t-4.5 0.5q-153 54 -213 135q-3 3 -6 0q-88 -172 -314 -172q-161 0 -247 66t-86 170zM240 1274q0 30 21 51t56 21q49 0 93 -56l213 -282q4 -4 -2 -4h-68q-6 0 -12 4l-238 166q-35 27 -49 47.5t-14 52.5zM262 209q0 -74 44.5 -129 t135.5 -55q64 0 112.5 22t75.5 55t44 79t22.5 86t5.5 85v133q0 4 -4 2l-9 -7q-9 -6 -12.5 -8t-14.5 -8.5t-18.5 -10t-21 -9t-26.5 -9t-31 -7t-37 -6.5l-92 -12q-174 -22 -174 -201z" />
<glyph unicode="&#xe1;" d="M68 199q0 217 344 266l141 20q74 12 110.5 53.5t36.5 102.5q0 104 -56.5 154.5t-151.5 50.5q-81 0 -134.5 -41.5t-60.5 -91.5q0 -9 2 -11l104 -108q4 -8 -6 -8h-276q-6 0 -6 8q12 65 39 119t72 98.5t115 70t159 25.5q170 0 273.5 -78.5t103.5 -234.5v-238q0 -63 2 -100 t16.5 -106.5t42.5 -145.5q2 -3 0.5 -4.5t-4.5 0.5q-153 54 -213 135q-3 3 -6 0q-88 -172 -314 -172q-161 0 -247 66t-86 170zM262 209q0 -74 44.5 -129t135.5 -55q64 0 112.5 22t75.5 55t44 79t22.5 86t5.5 85v133q0 4 -4 2l-9 -7q-9 -6 -12.5 -8t-14.5 -8.5t-18.5 -10 t-21 -9t-26.5 -9t-31 -7t-37 -6.5l-92 -12q-174 -22 -174 -201zM369 1010l213 282q44 56 92 56q36 0 57 -21t21 -51q0 -32 -14.5 -52.5t-49.5 -47.5l-237 -166q-6 -4 -13 -4h-67z" />
<glyph unicode="&#xe2;" d="M68 199q0 217 344 266l141 20q74 12 110.5 53.5t36.5 102.5q0 104 -56.5 154.5t-151.5 50.5q-81 0 -134.5 -41.5t-60.5 -91.5q0 -9 2 -11l104 -108q4 -8 -6 -8h-276q-6 0 -6 8q12 65 39 119t72 98.5t115 70t159 25.5q170 0 273.5 -78.5t103.5 -234.5v-238q0 -63 2 -100 t16.5 -106.5t42.5 -145.5q2 -3 0.5 -4.5t-4.5 0.5q-153 54 -213 135q-3 3 -6 0q-88 -172 -314 -172q-161 0 -247 66t-86 170zM190 1008l250 333q5 5 9 5h116q3 0 8 -5l246 -333q2 -4 -2 -4h-59q-4 0 -8 4l-242 204q-3 3 -6 0l-242 -204q-4 -4 -8 -4h-59zM262 209 q0 -74 44.5 -129t135.5 -55q64 0 112.5 22t75.5 55t44 79t22.5 86t5.5 85v133q0 4 -4 2l-9 -7q-9 -6 -12.5 -8t-14.5 -8.5t-18.5 -10t-21 -9t-26.5 -9t-31 -7t-37 -6.5l-92 -12q-174 -22 -174 -201z" />
<glyph unicode="&#xe3;" d="M68 199q0 217 344 266l141 20q74 12 110.5 53.5t36.5 102.5q0 104 -56.5 154.5t-151.5 50.5q-81 0 -134.5 -41.5t-60.5 -91.5q0 -9 2 -11l104 -108q4 -8 -6 -8h-276q-6 0 -6 8q12 65 39 119t72 98.5t115 70t159 25.5q170 0 273.5 -78.5t103.5 -234.5v-238q0 -63 2 -100 t16.5 -106.5t42.5 -145.5q2 -3 0.5 -4.5t-4.5 0.5q-153 54 -213 135q-3 3 -6 0q-88 -172 -314 -172q-161 0 -247 66t-86 170zM176 1067q21 99 75 161t144 62q35 0 70 -18.5t59 -41t57.5 -41t65.5 -18.5q67 0 103 111q2 4 6 4h51l2 -4q-20 -96 -73.5 -160.5t-141.5 -64.5 q-40 0 -79.5 19t-65 41.5t-55.5 41.5t-54 19q-38 0 -66 -33.5t-38 -77.5q-2 -4 -7 -4h-51zM262 209q0 -74 44.5 -129t135.5 -55q64 0 112.5 22t75.5 55t44 79t22.5 86t5.5 85v133q0 4 -4 2l-9 -7q-9 -6 -12.5 -8t-14.5 -8.5t-18.5 -10t-21 -9t-26.5 -9t-31 -7t-37 -6.5 l-92 -12q-174 -22 -174 -201z" />
<glyph unicode="&#xe4;" d="M68 199q0 217 344 266l141 20q74 12 110.5 53.5t36.5 102.5q0 104 -56.5 154.5t-151.5 50.5q-81 0 -134.5 -41.5t-60.5 -91.5q0 -9 2 -11l104 -108q4 -8 -6 -8h-276q-6 0 -6 8q12 65 39 119t72 98.5t115 70t159 25.5q170 0 273.5 -78.5t103.5 -234.5v-238q0 -63 2 -100 t16.5 -106.5t42.5 -145.5q2 -3 0.5 -4.5t-4.5 0.5q-153 54 -213 135q-3 3 -6 0q-88 -172 -314 -172q-161 0 -247 66t-86 170zM225 1174q0 42 34.5 77t78.5 35t78.5 -35t34.5 -77q0 -45 -34 -79t-79 -34t-79 34t-34 79zM262 209q0 -74 44.5 -129t135.5 -55q64 0 112.5 22 t75.5 55t44 79t22.5 86t5.5 85v133q0 4 -4 2l-9 -7q-9 -6 -12.5 -8t-14.5 -8.5t-18.5 -10t-21 -9t-26.5 -9t-31 -7t-37 -6.5l-92 -12q-174 -22 -174 -201zM582 1174q0 42 34 77t78 35t78.5 -35t34.5 -77q0 -45 -34 -79t-79 -34t-78.5 34t-33.5 79z" />
<glyph unicode="&#xe5;" d="M68 199q0 217 344 266l141 20q74 12 110.5 53.5t36.5 102.5q0 104 -56.5 154.5t-151.5 50.5q-81 0 -134.5 -41.5t-60.5 -91.5q0 -9 2 -11l104 -108q4 -8 -6 -8h-276q-6 0 -6 8q12 65 39 119t72 98.5t115 70t159 25.5q170 0 273.5 -78.5t103.5 -234.5v-238q0 -63 2 -100 t16.5 -106.5t42.5 -145.5q2 -3 0.5 -4.5t-4.5 0.5q-153 54 -213 135q-3 3 -6 0q-88 -172 -314 -172q-161 0 -247 66t-86 170zM262 209q0 -74 44.5 -129t135.5 -55q64 0 112.5 22t75.5 55t44 79t22.5 86t5.5 85v133q0 4 -4 2l-9 -7q-9 -6 -12.5 -8t-14.5 -8.5t-18.5 -10 t-21 -9t-26.5 -9t-31 -7t-37 -6.5l-92 -12q-174 -22 -174 -201zM332 1174q0 72 52 124t124 52t123 -52t51 -124t-51 -123.5t-123 -51.5t-124 51.5t-52 123.5zM397 1174q0 -43 33.5 -76t77.5 -33q43 0 75.5 33t32.5 76q0 44 -32.5 77t-75.5 33q-44 0 -77.5 -33t-33.5 -77z " />
<glyph unicode="&#xe6;" horiz-adv-x="1695" d="M76 201q-3 104 67.5 180.5t190 113.5t272.5 37h123q6 0 6 9q-4 152 -74 228.5t-167 76.5q-81 0 -133.5 -41t-59.5 -92q0 -9 2 -11l105 -102q4 -8 -7 -8h-272q-6 0 -6 8q8 54 34 105.5t71 98t119 75t165 28.5q210 0 326 -149q4 -4 8 0q142 149 356 149q85 0 155.5 -26.5 t117.5 -70t80.5 -100.5t49 -116.5t17.5 -120.5q0 -6 -4 -6h-676q-19 0 -22 -23q-14 -195 60.5 -304t252.5 -109q106 0 174.5 60.5t99.5 144.5q4 9 9 4l83 -60q3 -3 -2 -8q-49 -67 -98.5 -110t-123.5 -71t-167 -28q-237 0 -370 166q-4 3 -7 0q-37 -49 -87.5 -84t-104.5 -51.5 t-99 -23.5t-89 -7q-97 0 -171.5 21.5t-116.5 57t-63.5 76t-23.5 83.5zM260 236q0 -35 11 -69t34.5 -65.5t65.5 -51t98 -19.5q72 0 125 27t83 73.5t44 101.5t14 119v113q0 2 -4 2h-121q-350 0 -350 -231zM926 535q0 -5 4 -5h481q8 0 8 11q0 79 -22.5 146t-75.5 113t-129 46 q-53 0 -95.5 -19t-71 -49t-49.5 -72t-32 -83t-18 -88z" />
<glyph unicode="&#xe7;" horiz-adv-x="1036" d="M80 432q0 122 60 230t173.5 176.5t253.5 68.5q173 0 283 -101t115 -259q0 -8 -7 -8h-296q-11 0 -7 8l119 112q2 2 2 9q-15 83 -70 130.5t-143 47.5q-142 0 -220.5 -114t-78.5 -290q0 -112 32 -204.5t102.5 -152.5t168.5 -60q102 0 176 66t117 173q4 8 8 4l97 -63 q3 -3 -2 -8q-78 -108 -165 -164.5t-192 -67.5l-3 -1q-3 -1 -4 -2.5t-3 -6.5l-37 -88q-2 -4 2 -4q27 6 55 6q74 0 121 -35.5t41 -105.5q-4 -48 -28 -83.5t-62 -53.5t-78.5 -26.5t-85.5 -8.5q-82 0 -164 32q-2 1 -2 6l23 56q2 4 8 2q81 -25 125 -25q119 0 119 94q0 34 -25 53 t-59 19q-43 0 -76 -8h-8l-10 6l-2 6l65 154q7 14 -4 14q-198 11 -316 134t-118 333z" />
<glyph unicode="&#xe8;" horiz-adv-x="1054" d="M78 430q0 90 32 175t90.5 152.5t151 108.5t203.5 41q105 0 187 -35.5t129.5 -94.5t72.5 -128.5t27 -146.5q0 -6 -4 -6h-676q-20 0 -23 -23q-10 -83 2.5 -159.5t47 -141t102 -103t160.5 -38.5q99 0 168 61t100 144q3 6 8 4l90 -58q5 -5 0 -10q-50 -68 -98 -110.5 t-123 -70.5t-170 -28q-152 0 -261.5 62.5t-162.5 167t-53 237.5zM274 563q0 -4 5 -4h479q8 0 8 10q0 117 -54.5 197t-166.5 80q-65 0 -115.5 -23.5t-81.5 -65t-48.5 -89t-25.5 -105.5zM285 1274q0 30 20.5 51t56.5 21q49 0 93 -56l213 -282q4 -4 -2 -4h-68q-6 0 -12 4 l-238 166q-35 27 -49 47.5t-14 52.5z" />
<glyph unicode="&#xe9;" horiz-adv-x="1054" d="M78 430q0 90 32 175t90.5 152.5t151 108.5t203.5 41q105 0 187 -35.5t129.5 -94.5t72.5 -128.5t27 -146.5q0 -6 -4 -6h-676q-20 0 -23 -23q-10 -83 2.5 -159.5t47 -141t102 -103t160.5 -38.5q99 0 168 61t100 144q3 6 8 4l90 -58q5 -5 0 -10q-50 -68 -98 -110.5 t-123 -70.5t-170 -28q-152 0 -261.5 62.5t-162.5 167t-53 237.5zM274 563q0 -4 5 -4h479q8 0 8 10q0 117 -54.5 197t-166.5 80q-65 0 -115.5 -23.5t-81.5 -65t-48.5 -89t-25.5 -105.5zM336 1008l213 282q44 56 92 56q36 0 57 -21t21 -51q0 -32 -14.5 -52.5t-49.5 -47.5 l-237 -166q-6 -4 -12 -4h-68z" />
<glyph unicode="&#xea;" horiz-adv-x="1054" d="M78 430q0 90 32 175t90.5 152.5t151 108.5t203.5 41q105 0 187 -35.5t129.5 -94.5t72.5 -128.5t27 -146.5q0 -6 -4 -6h-676q-20 0 -23 -23q-10 -83 2.5 -159.5t47 -141t102 -103t160.5 -38.5q99 0 168 61t100 144q3 6 8 4l90 -58q5 -5 0 -10q-50 -68 -98 -110.5 t-123 -70.5t-170 -28q-152 0 -261.5 62.5t-162.5 167t-53 237.5zM209 1008l250 333q5 5 8 5h117q3 0 8 -5l246 -333q2 -4 -2 -4h-60q-4 0 -8 4l-242 204q-3 3 -6 0l-241 -204q-4 -4 -9 -4h-59zM274 563q0 -4 5 -4h479q8 0 8 10q0 117 -54.5 197t-166.5 80 q-65 0 -115.5 -23.5t-81.5 -65t-48.5 -89t-25.5 -105.5z" />
<glyph unicode="&#xeb;" horiz-adv-x="1054" d="M78 430q0 90 32 175t90.5 152.5t151 108.5t203.5 41q105 0 187 -35.5t129.5 -94.5t72.5 -128.5t27 -146.5q0 -6 -4 -6h-676q-20 0 -23 -23q-10 -83 2.5 -159.5t47 -141t102 -103t160.5 -38.5q99 0 168 61t100 144q3 6 8 4l90 -58q5 -5 0 -10q-50 -68 -98 -110.5 t-123 -70.5t-170 -28q-152 0 -261.5 62.5t-162.5 167t-53 237.5zM233 1176q0 42 34.5 77t78.5 35t78.5 -35t34.5 -77q0 -45 -34 -79t-79 -34t-79 34t-34 79zM274 563q0 -4 5 -4h479q8 0 8 10q0 117 -54.5 197t-166.5 80q-65 0 -115.5 -23.5t-81.5 -65t-48.5 -89 t-25.5 -105.5zM590 1176q0 42 34 77t78 35t78.5 -35t34.5 -77q0 -45 -34 -79t-79 -34t-78.5 34t-33.5 79z" />
<glyph unicode="&#xec;" horiz-adv-x="499" d="M-49 1276q0 30 21 51t57 21q48 0 92 -56l213 -282q4 -4 -2 -4h-68q-6 0 -12 4l-238 166q-35 27 -49 47.5t-14 52.5zM57.5 792.5q0.5 -2.5 3.5 -4.5l109 -67q4 -2 4 -8v-539q0 -9 -6 -18l-92 -148q-8 -8 2 -8h352q10 0 2 8l-92 148q-6 9 -6 18v729q0 6 -6 4l-267 -110 q-4 -2 -3.5 -4.5z" />
<glyph unicode="&#xed;" horiz-adv-x="499" d="M57.5 792.5q0.5 -2.5 3.5 -4.5l109 -67q4 -2 4 -8v-539q0 -9 -6 -18l-92 -148q-8 -8 2 -8h352q10 0 2 8l-92 148q-6 9 -6 18v729q0 6 -6 4l-267 -110q-4 -2 -3.5 -4.5zM70 1010l213 282q44 56 92 56q36 0 57 -21t21 -51q0 -32 -14.5 -52.5t-49.5 -47.5l-237 -166 q-6 -4 -13 -4h-67z" />
<glyph unicode="&#xee;" horiz-adv-x="499" d="M-59 1006l249 333q4 4 9 4h116q5 0 9 -4l245 -333q2 -5 -2 -5h-59q-3 0 -8 5l-242 204q-3 3 -6 0l-242 -204q-5 -5 -8 -5h-59zM57.5 792.5q-0.5 2.5 3.5 4.5l267 110q6 2 6 -4v-729q0 -9 6 -18l92 -148q8 -8 -2 -8h-352q-10 0 -2 8l92 148q6 9 6 18v539q0 6 -4 8l-109 67 q-3 2 -3.5 4.5z" />
<glyph unicode="&#xef;" horiz-adv-x="499" d="M-39 1174q0 42 34.5 77t78.5 35t78 -35t34 -77q0 -45 -33.5 -79t-78.5 -34t-79 34t-34 79zM57 791q2 -3 4 -3l109 -67l2 -2q2 -2 2 -6v-539v-6q0 -1 -1 -3t-1 -3l-4 -6l-92 -148q-4 -4 -4 -6l2 -2h4h352h2h2q1 1 -2 8l-92 148q-4 4 -4 6l-2 2v4v6v729v2q0 2 -4 2h-2 l-267 -110q-4 -2 -4 -4v-2zM317 1174q0 42 34.5 77t78.5 35t78.5 -35t34.5 -77q0 -45 -34 -79t-79 -34t-79 34t-34 79z" />
<glyph unicode="&#xf0;" horiz-adv-x="1222" d="M88 442q0 87 33 167.5t93 144.5t152.5 102.5t202.5 38.5q102 0 201.5 -44t149.5 -116h4q-17 159 -111 298.5t-217 201.5q-5 3 -10 -2l-109 -133q-6 -6 -10 -6h-74q-8 0 -2 6l139 170q2 1 1.5 4t-3.5 4q-127 71 -297 106q-7 0 -4 7l23 34q2 5 8 5q196 -25 324 -89 q5 -3 8 0l110 138q6 6 9 6h73q8 0 4 -6l-135 -166q-2 -1 -1.5 -4t3.5 -4q206 -104 327.5 -312.5t121.5 -455.5q0 -162 -60 -292t-175 -206t-265 -76q-141 0 -257.5 57t-186.5 167.5t-70 254.5zM250 442q0 -95 23 -170t58.5 -120.5t83.5 -75t93 -40.5t92 -11q67 0 128.5 26.5 t111.5 76t80 131t30 183.5q0 96 -32.5 172.5t-86 122.5t-116 70t-127.5 24q-104 0 -183 -59t-117 -146t-38 -184z" />
<glyph unicode="&#xf1;" horiz-adv-x="1069" d="M59.5 792.5q0.5 -2.5 3.5 -4.5l103 -69q4 -2 4 -8v-537q0 -6 -6 -18l-78 -154q-4 -8 4 -8q3 0 15.5 1.5t48.5 3t96 1.5q63 0 201 -6q5 0 6 2.5t-2 5.5l-109 154q-6 8 -6 18v328q0 151 66 247.5t167 96.5q52 0 87.5 -21t54 -60.5t26 -86.5t7.5 -109v-395q0 -9 -7 -18 l-108 -154q-3 -3 -2 -5.5t6 -2.5q138 6 201 6q47 0 80 -1t45.5 -2t21 -2t12.5 -1q8 0 4 8l-75 154q-8 16 -8 18v363q0 180 -79.5 275t-234.5 95q-90 0 -157.5 -47t-102.5 -119q-2 -2 -4 0v162q0 6 -6 4q-3 -1 -50.5 -22t-107.5 -45.5t-113 -42.5q-4 -2 -3.5 -4.5zM193 1067 q21 99 75 161t144 62q35 0 70 -18.5t59 -41t57.5 -41t65.5 -18.5q66 0 102 111q2 4 6 4h51l2 -4q-20 -96 -73.5 -160.5t-141.5 -64.5q-40 0 -79.5 19t-65 41.5t-55.5 41.5t-54 19q-38 0 -66 -33.5t-38 -77.5q-2 -4 -6 -4h-51z" />
<glyph unicode="&#xf2;" horiz-adv-x="1142" d="M84 442q0 85 35 167.5t96.5 149t155 107.5t200.5 41q220 0 354 -131t134 -334q0 -224 -129.5 -351.5t-360.5 -127.5q-230 0 -357.5 127.5t-127.5 351.5zM272 442q0 -112 34.5 -206t103 -152.5t159.5 -58.5q90 0 160 59t105.5 153t35.5 205q0 164 -82.5 284t-216.5 120 q-137 0 -218 -115.5t-81 -288.5zM379 1274q0 30 21 51t57 21q48 0 92 -56l213 -282q4 -4 -2 -4h-68q-6 0 -12 4l-238 166q-35 27 -49 47.5t-14 52.5z" />
<glyph unicode="&#xf3;" horiz-adv-x="1142" d="M84 442q0 85 35 167.5t96.5 149t155 107.5t200.5 41q220 0 354 -131t134 -334q0 -224 -129.5 -351.5t-360.5 -127.5q-230 0 -357.5 127.5t-127.5 351.5zM272 442q0 -112 34.5 -206t103 -152.5t159.5 -58.5q90 0 160 59t105.5 153t35.5 205q0 164 -82.5 284t-216.5 120 q-137 0 -218 -115.5t-81 -288.5zM383 1008l213 282q44 56 92 56q36 0 57 -21t21 -51q0 -32 -14.5 -52.5t-49.5 -47.5l-237 -166q-6 -4 -12 -4h-68z" />
<glyph unicode="&#xf4;" horiz-adv-x="1142" d="M84 442q0 85 35 167.5t96.5 149t155 107.5t200.5 41q220 0 354 -131t134 -334q0 -224 -129.5 -351.5t-360.5 -127.5q-230 0 -357.5 127.5t-127.5 351.5zM260 1008l250 333q5 5 8 5h117q3 0 8 -5l246 -333q2 -4 -2 -4h-60q-4 0 -8 4l-241 204q-4 4 -7 0l-241 -204 q-4 -4 -8 -4h-60zM272 442q0 -112 34.5 -206t103 -152.5t159.5 -58.5q90 0 160 59t105.5 153t35.5 205q0 164 -82.5 284t-216.5 120q-137 0 -218 -115.5t-81 -288.5z" />
<glyph unicode="&#xf5;" horiz-adv-x="1142" d="M84 442q0 85 35 167.5t96.5 149t155 107.5t200.5 41q220 0 354 -131t134 -334q0 -224 -129.5 -351.5t-360.5 -127.5q-230 0 -357.5 127.5t-127.5 351.5zM260 1067q21 99 75 161t144 62q35 0 70 -18.5t59 -41t57.5 -41t65.5 -18.5q67 0 103 111q2 4 6 4h51l2 -4 q-20 -96 -73.5 -160.5t-141.5 -64.5q-40 0 -79.5 19t-65 41.5t-55.5 41.5t-54 19q-38 0 -66.5 -34t-38.5 -77q-2 -4 -6 -4h-51zM272 442q0 -112 34.5 -206t103 -152.5t159.5 -58.5q90 0 160 59t105.5 153t35.5 205q0 164 -82.5 284t-216.5 120q-137 0 -218 -115.5 t-81 -288.5z" />
<glyph unicode="&#xf6;" horiz-adv-x="1142" d="M84 442q0 85 35 167.5t96.5 149t155 107.5t200.5 41q220 0 354 -131t134 -334q0 -224 -129.5 -351.5t-360.5 -127.5q-230 0 -357.5 127.5t-127.5 351.5zM272 442q0 -112 34.5 -206t103 -152.5t159.5 -58.5q90 0 160 59t105.5 153t35.5 205q0 164 -82.5 284t-216.5 120 q-137 0 -218 -115.5t-81 -288.5zM285 1174q0 42 34 77t78 35t78.5 -35t34.5 -77q0 -45 -34 -79t-79 -34t-78.5 34t-33.5 79zM641 1174q0 42 34.5 77t78.5 35t78 -35t34 -77q0 -45 -33.5 -79t-78.5 -34t-79 34t-34 79z" />
<glyph unicode="&#xf7;" horiz-adv-x="897" d="M51 483v60q0 4 6 4h783q6 0 6 -4v-60q0 -4 -6 -4h-783q-6 0 -6 4zM322 231q0 48 35.5 83.5t84.5 35.5q47 0 83 -36t36 -83q0 -49 -35.5 -84.5t-83.5 -35.5q-50 0 -85 35.5t-35 84.5zM322 797q0 48 35.5 83t84.5 35q47 0 83 -35.5t36 -82.5q0 -49 -35.5 -85t-83.5 -36 q-49 0 -84.5 35.5t-35.5 85.5z" />
<glyph unicode="&#xf8;" horiz-adv-x="1208" d="M117 442q0 85 35 167.5t96.5 149t155 107.5t200.5 41q165 0 287 -80q5 -5 10 0l119 148q6 6 8 6h74q8 0 4 -6l-152 -189q-4 -4 0 -8q138 -132 138 -336q0 -224 -129.5 -351.5t-360.5 -127.5q-149 0 -266 60q-3 2 -8 -3l-99 -120q-6 -6 -10 -6h-74q-8 0 -2 6l127 155 q6 5 0 11q-153 153 -153 376zM305 442q0 -140 60 -260q3 -7 8 -2l442 543q5 5 0 10q-85 113 -211 113q-137 0 -218 -115.5t-81 -288.5zM412 113q78 -88 190 -88q90 0 160 59t105.5 153t35.5 205q0 130 -45 220q-3 7 -8 2l-438 -541q-5 -5 0 -10z" />
<glyph unicode="&#xf9;" horiz-adv-x="1085" d="M62.5 792.5q0.5 -2.5 3.5 -4.5l102 -69q4 -2 4 -8v-420q0 -162 84 -245t231 -83q100 0 165 36.5t112 104.5q3 3 8 0q42 -28 101.5 -53.5t91 -35.5t49.5 -15q4 -1 5 0.5t-1 3.5q-48 55 -71 161t-23 220v518q0 6 -6 4q-3 -1 -50.5 -22t-107.5 -45.5t-113 -42.5 q-4 -2 -3.5 -4.5t3.5 -4.5l103 -69q4 -2 4 -8v-365q0 -153 -61.5 -234t-170.5 -81q-100 0 -140 65t-40 191v616q0 6 -6 4q-3 -1 -50 -22t-107 -45.5t-113 -42.5q-4 -2 -3.5 -4.5zM283 1274q0 30 20.5 51t56.5 21q49 0 93 -56l213 -282q4 -4 -2 -4h-68q-6 0 -12 4l-238 166 q-35 27 -49 47.5t-14 52.5z" />
<glyph unicode="&#xfa;" horiz-adv-x="1085" d="M62.5 792.5q0.5 -2.5 3.5 -4.5l102 -69q4 -2 4 -8v-420q0 -162 84 -245t231 -83q100 0 165 36.5t112 104.5q3 3 8 0q42 -28 101.5 -53.5t91 -35.5t49.5 -15q4 -1 5 0.5t-1 3.5q-48 55 -71 161t-23 220v518q0 6 -6 4q-3 -1 -50.5 -22t-107.5 -45.5t-113 -42.5 q-4 -2 -3.5 -4.5t3.5 -4.5l103 -69q4 -2 4 -8v-365q0 -153 -61.5 -234t-170.5 -81q-100 0 -140 65t-40 191v616q0 6 -6 4q-3 -1 -50 -22t-107 -45.5t-113 -42.5q-4 -2 -3.5 -4.5zM481 1008l213 282q44 56 92 56q36 0 57 -21t21 -51q0 -32 -14 -52.5t-49 -47.5l-238 -166 q-6 -4 -12 -4h-68z" />
<glyph unicode="&#xfb;" horiz-adv-x="1085" d="M62.5 792.5q-0.5 2.5 3.5 4.5q53 18 113 42.5t107 45.5t50 22q6 2 6 -4v-616q0 -126 40 -191t140 -65q109 0 170.5 81t61.5 234v365q0 6 -4 8l-103 69q-3 2 -3.5 4.5t3.5 4.5q53 18 113 42.5t107.5 45.5t50.5 22q6 2 6 -4v-518q0 -114 23 -220t71 -161q4 -4 -1 -4 q-1 -1 -3 0q-18 5 -49.5 15t-91 35.5t-101.5 53.5q-5 3 -8 0q-47 -68 -112 -104.5t-165 -36.5q-147 0 -231 83t-84 245v420q0 6 -4 8l-102 69q-3 2 -3.5 4.5zM285 1008l250 333q5 5 8 5h116q4 0 9 -5l245 -333q2 -4 -2 -4h-59q-4 0 -8 4l-242 204q-3 3 -6 0l-242 -204 q-4 -4 -8 -4h-59z" />
<glyph unicode="&#xfc;" horiz-adv-x="1085" d="M62.5 792.5q0.5 -2.5 3.5 -4.5l102 -69q4 -2 4 -8v-420q0 -162 84 -245t231 -83q100 0 165 36.5t112 104.5q3 3 8 0q42 -28 101.5 -53.5t91 -35.5t49.5 -15q4 -1 5 0.5t-1 3.5q-48 55 -71 161t-23 220v518q0 6 -6 4q-3 -1 -50.5 -22t-107.5 -45.5t-113 -42.5 q-4 -2 -3.5 -4.5t3.5 -4.5l103 -69q4 -2 4 -8v-365q0 -153 -61.5 -234t-170.5 -81q-100 0 -140 65t-40 191v616q0 6 -6 4q-3 -1 -50 -22t-107 -45.5t-113 -42.5q-4 -2 -3.5 -4.5zM258 1174q0 42 34.5 77t78.5 35t78 -35t34 -77q0 -45 -33.5 -79t-78.5 -34t-79 34t-34 79z M614 1174q0 42 34.5 77t78.5 35t78.5 -35t34.5 -77q0 -45 -34 -79t-79 -34t-79 34t-34 79z" />
<glyph unicode="&#xfd;" horiz-adv-x="888" d="M4 -324l174 242q6 3 6 -2v-192q0 -60 45 -64q48 -4 74 61l105 252q30 73 -13 160l-237 494q-68 139 -106 191q-20 27 -40 46q-2 4 2 6h363q4 -1 2 -6l-84 -127v-6l190 -397q28 -61 31 -84q0 -3 1 -4t3 2l203 493q2 7 0 9l-72 114q-2 4 2 6h240q4 -1 2 -6 q-62 -54 -125 -202l-383 -912q-40 -98 -92 -139t-135 -37q-54 3 -99.5 35t-56.5 59q-4 4 0 8zM442 1008l213 282q44 56 93 56q36 0 56.5 -21t20.5 -51q0 -32 -14 -52.5t-49 -47.5l-238 -166q-6 -4 -12 -4h-68z" />
<glyph unicode="&#xfe;" horiz-adv-x="1148" d="M61 -426l109 68q4 2 4 8v1640q0 6 -4 8l-109 68q-10 5 0 8l277 111q6 2 6 -4v-770q0 -8 4 0q36 81 114.5 138.5t196.5 57.5q186 0 296 -121t110 -348q0 -212 -113 -343.5t-293 -131.5q-211 0 -309 164q-6 12 -6 0v-668q0 -6 -6 -4l-277 111q-10 3 0 8zM342 426 q0 -191 72.5 -296t212.5 -105q42 0 84 23.5t80 70t63 129.5t27 190q2 114 -23.5 198.5t-67.5 127.5t-85.5 62.5t-86.5 19.5q-53 0 -101.5 -26t-88 -76t-63 -132t-23.5 -186z" />
<glyph unicode="&#xff;" horiz-adv-x="888" d="M4 -324l174 242q6 3 6 -2v-192q0 -60 45 -64q48 -4 74 61l105 252q30 73 -13 160l-237 494q-68 139 -106 191q-20 27 -40 46q-2 4 2 6h363q4 -1 2 -6l-84 -127v-6l190 -397q28 -61 31 -84q0 -3 1 -4t3 2l203 493q2 7 0 9l-72 114q-2 4 2 6h240q4 -1 2 -6 q-62 -54 -125 -202l-383 -912q-40 -98 -92 -139t-135 -37q-54 3 -99.5 35t-56.5 59q-4 4 0 8zM229 1176q0 42 34.5 77t78.5 35t78.5 -35t34.5 -77q0 -45 -34 -79t-79 -34t-79 34t-34 79zM586 1176q0 42 34 77t78 35t78.5 -35t34.5 -77q0 -45 -34 -79t-79 -34t-78.5 34 t-33.5 79z" />
<glyph unicode="&#x131;" horiz-adv-x="499" d="M57.5 792.5q-0.5 2.5 3.5 4.5l267 110q6 2 6 -4v-729q0 -9 6 -18l92 -148q8 -8 -2 -8h-352q-10 0 -2 8l92 148q6 9 6 18v539q0 6 -4 8l-109 67q-3 2 -3.5 4.5z" />
<glyph unicode="&#x152;" horiz-adv-x="2508" d="M113 692q0 150 58 287t156 235.5t234.5 157t286.5 58.5q280 0 508 -205q9 -7 13 -1.5t-1 13.5l-61 147q-2 2 -2.5 4t0.5 3.5t4 1.5h776h20.5h22t21.5 0.5t23.5 1t23 1.5t25.5 2.5t24.5 3.5t26 5t25.5 7t27 9q7 3 7 -2v-383q0 -6 -4 -6t-7 6l-127 215q-31 53 -53.5 65.5 t-75.5 12.5h-491q-12 0 -20.5 -9t-8.5 -22v-471q0 -29 17 -46t45 -17h336q39 0 62.5 10t49.5 39l117 125q3 4 5.5 3t2.5 -5v-426q0 -6 -3.5 -7t-6.5 5l-121 149q-37 46 -106 46h-336q-28 0 -45 -17.5t-17 -46.5v-557q0 -23 19 -23h405q125 0 211 68l252 203q5 3 7 2t1 -6 l-112 -322q-2 -6 -9 -6h-1009q-10 0 -2 8l61 146q4 9 -2 12.5t-12 -2.5q-204 -201 -506 -201q-149 0 -283.5 54t-234.5 148t-158.5 231.5t-58.5 295.5zM299 692q8 -136 57 -258.5t125 -211t177.5 -140t211.5 -51.5q147 0 268.5 87.5t190.5 239.5t68 334q-2 136 -49.5 260 t-125 213.5t-182.5 143t-217 53.5t-213 -53.5t-172 -143t-109 -213.5t-30 -260z" />
<glyph unicode="&#x153;" horiz-adv-x="1843" d="M84 442q0 85 35 167.5t96.5 149t155 107.5t200.5 41q129 0 229 -47.5t165 -134.5q3 -6 6 0q114 182 379 182q105 0 187.5 -35.5t130.5 -94.5t73.5 -129t27.5 -146q0 -6 -4 -6h-682q-19 0 -22 -23q-2 -12 -2 -47q0 -189 80 -295t252 -106q99 0 169 63.5t101 147.5q4 8 8 4 l78 -60q3 -3 -2 -8q-49 -67 -98.5 -110t-123.5 -71t-167 -28q-253 0 -387 168q0 1 -2 1t-2 -1q-126 -168 -396 -168q-230 0 -357.5 127.5t-127.5 351.5zM272 442q0 -112 34.5 -206t103 -152.5t159.5 -58.5q90 0 160 59t105.5 153t35.5 205q0 164 -82.5 284t-216.5 120 q-137 0 -218 -115.5t-81 -288.5zM1067 563q0 -4 4 -4h494q8 0 8 10q0 120 -60 198.5t-174 78.5q-66 0 -116 -23.5t-81 -65t-49 -89.5t-26 -105z" />
<glyph unicode="&#x160;" horiz-adv-x="1144" d="M119 2q6 67 6 172q0 85 -3 231t-3 156q0 3 1.5 4.5t3.5 0.5t3 -5q66 -166 127 -262q82 -129 175 -198.5t210 -69.5q132 0 216.5 71t84.5 195q0 83 -44.5 148t-150.5 118l-389 187q-112 54 -168.5 142.5t-56.5 199.5q0 102 55.5 180.5t145 118t196.5 39.5q181 0 334 -119 q5 -5 10 0l95 82q3 5 8.5 4t5.5 -8q-6 -67 -6 -154q0 -85 3 -185t3 -110q0 -1 -1 -3t-2.5 -3.5t-3.5 -1.5t-4.5 1.5t-4.5 6.5q-43 91 -87 160.5t-100 132t-122.5 96t-139.5 33.5q-61 0 -114.5 -19.5t-92 -65t-39.5 -108.5q-1 -79 42 -134.5t145 -106.5l401 -203 q117 -60 173 -144t56 -202q0 -79 -27.5 -152t-81.5 -132.5t-143.5 -95.5t-203.5 -36q-96 0 -200 36.5t-187 104.5q-7 4 -11 0l-108 -104q-6 -6 -6 2zM221 1849q-2 4 2 4h60q4 0 8 -4l241 -204q4 -3 7 0l241 204q4 4 8 4h60l2 -4l-246 -333q-5 -5 -8 -5h-117q-3 0 -8 5z" />
<glyph unicode="&#x161;" horiz-adv-x="905" d="M57 211q-2 5 4 8l291 90q4 2 3 -1q0 -1 -1 -3l-98 -166q-2 -5 0 -10q28 -49 86.5 -73.5t134.5 -24.5q95 0 151 42t58 103q2 107 -111 148l-233 82q-52 19 -91 38.5t-77.5 49t-59 71t-20.5 92.5q0 106 105.5 178t263.5 72q62 0 119.5 -13t108.5 -40t88 -73t52 -107 q0 -5 -6 -8l-252 -70q-3 -2 -4 -0.5t0 4.5l66 150q3 7 0 10q-44 86 -189 86q-78 0 -140 -31t-62 -90q0 -28 11 -51t26 -38.5t43 -30.5t47.5 -23t54.5 -21l219 -78q89 -32 143 -88.5t54 -136.5q0 -128 -101 -211.5t-280 -83.5q-319 0 -404 248zM137 1343q-2 5 2 5h60 q3 0 8 -5l242 -204q3 -3 6 0l241 204q5 5 9 5h59l2 -5l-246 -333q-4 -4 -8 -4h-117q-4 0 -8 4z" />
<glyph unicode="&#x178;" horiz-adv-x="1310" d="M0 1391q-8 8 2 8q3 0 31 -1.5t85.5 -3t129.5 -1.5q123 0 172 6q10 0 2 -8l-96 -125v-6l292 -494q61 -100 68 -145q0 -4 4 0l389 618q2 6 0 8l-94 146q-3 6 2 6q81 -6 129 -6q98 0 178 6q4 -1 2 -6q-11 -12 -30.5 -32t-28.5 -30.5t-23.5 -27t-28 -34t-28.5 -40.5 l-401 -629q-17 -24 -17 -74v-354q0 -10 6 -16l121 -154q8 -8 -2 -8q-138 6 -207 6q-59 0 -106 -1.5t-72 -3t-28 -1.5q-10 0 -2 8l118 154q6 6 6 16v236q0 64 -15 108.5t-44 91.5l-340 568q-34 58 -84.5 122.5t-89.5 92.5zM414 1681q0 42 34 77.5t78 35.5t78.5 -35.5 t34.5 -77.5q0 -45 -33.5 -78.5t-79.5 -33.5q-45 0 -78.5 33.5t-33.5 78.5zM770 1681q0 42 34.5 77.5t78.5 35.5t78 -35.5t34 -77.5q0 -45 -33.5 -78.5t-78.5 -33.5t-79 33.5t-34 78.5z" />
<glyph unicode="&#x17d;" horiz-adv-x="1183" d="M33 2q40 30 103.5 112t115.5 173l579 1013q7 17 1.5 24t-19.5 7h-426q-71 0 -106.5 -22t-69.5 -80l-113 -191q-2 -4 -4.5 -5t-4 0.5t-1.5 4.5q10 78 10 285q0 46 -8 96q0 4 4 4q13 -5 27 -9t25.5 -7t26.5 -5t24.5 -3.5t25 -2.5t23 -1.5t24 -1t22 -0.5h22h20.5h473 q65 0 293 6q8 0 2 -6q-22 -19 -78 -104.5t-117 -190.5l-581 -1014q-5 -9 -2.5 -12.5t8.5 -3.5h330q85 0 133 21.5t116 76.5l228 182q5 3 7 1.5t1 -5.5l-119 -344q-2 -6 -8 -6l-342 6q-535 0 -643 -6q-10 0 -2 8zM276 1849q-1 4 3 4h59q4 0 8 -4l242 -204q3 -3 6 0l242 204 q4 4 8 4h59l2 -4l-246 -333q-5 -5 -8 -5h-116q-4 0 -9 5z" />
<glyph unicode="&#x17e;" horiz-adv-x="946" d="M33 2q106 87 162 180l352 602q9 16 -10.5 20.5t-110.5 4.5h-74q-65 0 -97 -14.5t-54 -51.5l-123 -206q-3 -6 -6.5 -6t-3.5 6q0 3 3.5 41.5t6 95.5t2.5 139q0 50 -4 90q0 5 6 2q95 -35 229 -35h189q39 0 305 7q9 0 2 -7q-44 -34 -113 -155l-377 -633q-8 -14 7 -14h149 q85 0 134 30t106 97l123 139q4 4 7 2.5t1 -6.5l-105 -330q-2 -6 -8 -6l-260 6q-328 0 -436 -6q-10 0 -2 8zM133 1341q-2 5 2 5h60q3 0 8 -5l241 -204q4 -3 7 0l241 204q5 5 8 5h60l2 -5l-246 -333q-4 -4 -8 -4h-117q-4 0 -8 4z" />
<glyph unicode="&#x192;" horiz-adv-x="831" d="M-152 -223l152 207q4 2 6 -2l41 -175q8 -30 37 -30q82 0 141 336l11 57l133 758q1 10 -5.5 16t-17.5 6h-219q-6 0 -4 4l8 56q2 4 8 4h242q4 0 4 4q48 206 148.5 336.5t228.5 130.5h219q5 0 2 -6l-178 -248q-2 -2 -4 2l-62 151q-10 27 -37 27q-41 0 -78 -88t-65 -248 l-10 -57q0 -4 4 -4h272q5 0 5 -0.5t-1 -3.5l-8 -56q-2 -4 -8 -4h-250q-11 0 -20.5 -6t-10.5 -16l-133 -758q-47 -205 -149.5 -336t-229.5 -131q-55 0 -103.5 22t-68.5 42q-3 3 0 10z" />
<glyph unicode="&#x2c6;" horiz-adv-x="878" d="M125 1055l250 334q4 4 8 4h117q4 0 8 -4l246 -334q2 -4 -2 -4h-60q-4 0 -8 4l-242 205q-3 3 -6 0l-241 -205q-4 -4 -9 -4h-59z" />
<glyph unicode="&#x2c7;" horiz-adv-x="878" d="M125 1389q-2 4 2 4h59q5 0 9 -4l241 -205q3 -3 6 0l242 205q4 4 8 4h60l2 -4l-246 -334q-4 -4 -8 -4h-117q-4 0 -8 4z" />
<glyph unicode="&#x2d8;" horiz-adv-x="835" d="M125 1329q0 4 4 4h57q4 0 4 -4q35 -199 228 -199q192 0 227 199q0 4 4 4h58l4 -4q8 -134 -75 -227.5t-218 -93.5t-218 93.5t-75 227.5z" />
<glyph unicode="&#x2d9;" horiz-adv-x="649" d="M154 1225q0 69 51.5 120.5t120.5 51.5q68 0 119 -51.5t51 -120.5q0 -67 -51 -118.5t-119 -51.5q-69 0 -120.5 51t-51.5 119z" />
<glyph unicode="&#x2da;" horiz-adv-x="657" d="M154 1225q0 72 52 124t124 52t123 -52t51 -124t-51 -123t-123 -51t-124 51t-52 123zM219 1225q0 -43 33.5 -76t77.5 -33q43 0 75.5 33t32.5 76q0 44 -32.5 77t-75.5 33q-44 0 -77.5 -33t-33.5 -77z" />
<glyph unicode="&#x2db;" horiz-adv-x="1415" d="M514 -276q0 74 70.5 146.5t165.5 113.5h88q-95 -59 -132.5 -119t-37.5 -109q0 -67 82 -67q55 0 96 20q6 3 6 -2v-53q0 -2 -4 -6q-76 -49 -182 -49q-67 0 -109.5 30.5t-42.5 94.5z" />
<glyph unicode="&#x2dc;" horiz-adv-x="921" d="M141 1057q21 99 75 161t144 62q35 0 70 -18.5t59 -41t57.5 -41t65.5 -18.5q67 0 103 111q2 4 6 4h51l2 -4q-20 -96 -73.5 -160.5t-141.5 -64.5q-33 0 -64.5 12.5t-55.5 30t-46 35t-45 30t-43 12.5q-38 0 -66 -33.5t-38 -76.5q-2 -4 -6 -4h-52z" />
<glyph unicode="&#x2dd;" horiz-adv-x="1040" d="M166 1055l213 282q44 56 92 56q36 0 57 -21t21 -51q0 -32 -14.5 -52.5t-49.5 -47.5l-237 -166q-6 -4 -12 -4h-68zM498 1055l213 282q44 56 92 56q36 0 57 -21t21 -51q0 -32 -14.5 -52.5t-49.5 -47.5l-237 -166q-6 -4 -13 -4h-67z" />
<glyph unicode="&#x3c0;" horiz-adv-x="1271" d="M100 8l111 148q6 6 6 16v670q0 10 -6 16l-111 148q-8 8 2 8h1067q10 0 2 -8l-110 -148q-6 -6 -6 -16v-670q0 -10 6 -16l110 -148q8 -8 -2 -8h-405q-10 0 -2 8l110 148q7 7 7 16v717q0 29 -17 46t-45 17h-362q-28 0 -45 -17t-17 -46v-717q0 -10 6 -16l111 -148q8 -8 -2 -8 h-406q-10 0 -2 8z" />
<glyph unicode="&#x2000;" horiz-adv-x="929" />
<glyph unicode="&#x2001;" horiz-adv-x="1858" />
<glyph unicode="&#x2002;" horiz-adv-x="929" />
<glyph unicode="&#x2003;" horiz-adv-x="1858" />
<glyph unicode="&#x2004;" horiz-adv-x="619" />
<glyph unicode="&#x2005;" horiz-adv-x="464" />
<glyph unicode="&#x2006;" horiz-adv-x="309" />
<glyph unicode="&#x2007;" horiz-adv-x="309" />
<glyph unicode="&#x2008;" horiz-adv-x="232" />
<glyph unicode="&#x2009;" horiz-adv-x="371" />
<glyph unicode="&#x200a;" horiz-adv-x="103" />
<glyph unicode="&#x2010;" horiz-adv-x="559" d="M51 483v60q0 4 6 4h445q6 0 6 -4v-60q0 -4 -6 -4h-445q-6 0 -6 4z" />
<glyph unicode="&#x2011;" horiz-adv-x="559" d="M51 483v60q0 4 6 4h445q6 0 6 -4v-60q0 -4 -6 -4h-445q-6 0 -6 4z" />
<glyph unicode="&#x2012;" horiz-adv-x="559" d="M51 483v60q0 4 6 4h445q6 0 6 -4v-60q0 -4 -6 -4h-445q-6 0 -6 4z" />
<glyph unicode="&#x2013;" horiz-adv-x="999" d="M51 483v60q0 4 6 4h885q6 0 6 -4v-60q0 -4 -6 -4h-885q-6 0 -6 4z" />
<glyph unicode="&#x2014;" horiz-adv-x="1243" d="M51 483v60q0 4 6 4h1129q6 0 6 -4v-60q0 -4 -6 -4h-1129q-6 0 -6 4z" />
<glyph unicode="&#x2018;" horiz-adv-x="524" d="M160 1190q0 171 74 270t167 99q3 0 4 -2.5t-2 -4.5q-55 -33 -94 -108.5t-39 -140.5q0 -8 6 -5q21 7 31 7q56 0 90.5 -36.5t34.5 -94.5q0 -55 -39.5 -92.5t-95.5 -37.5q-66 0 -101.5 45t-35.5 101z" />
<glyph unicode="&#x2019;" horiz-adv-x="524" d="M92 1300q0 55 39.5 92.5t95.5 37.5q67 0 102.5 -45t35.5 -101q0 -171 -74 -270t-168 -99q-3 0 -4 2.5t2 4.5q55 33 94 108.5t39 140.5q0 8 -6 5q-21 -7 -31 -7q-56 0 -90.5 36.5t-34.5 94.5z" />
<glyph unicode="&#x201a;" horiz-adv-x="524" d="M92 94q0 55 39.5 92t95.5 37q67 0 102.5 -44.5t35.5 -100.5q0 -140 -76.5 -239t-165.5 -99q-3 0 -4 2t2 4q58 34 95.5 95.5t37.5 123.5q0 7 -6 4q-18 -6 -31 -6q-56 0 -90.5 36.5t-34.5 94.5z" />
<glyph unicode="&#x201c;" horiz-adv-x="888" d="M162 1190q0 171 74 270t167 99q3 0 4.5 -2.5t-1.5 -4.5q-55 -33 -94.5 -108.5t-39.5 -140.5q0 -9 7 -5q21 7 30 7q56 0 90.5 -36.5t34.5 -94.5q0 -55 -39.5 -92.5t-95.5 -37.5q-66 0 -101.5 45t-35.5 101zM526 1190q0 171 74 270t168 99q3 0 4 -2.5t-2 -4.5 q-55 -33 -94 -108.5t-39 -140.5q0 -8 6 -5q21 7 31 7q56 0 90.5 -36.5t34.5 -94.5q0 -55 -39.5 -92.5t-95.5 -37.5q-67 0 -102.5 45t-35.5 101z" />
<glyph unicode="&#x201d;" horiz-adv-x="888" d="M92 1300q0 55 39.5 92.5t95.5 37.5q67 0 102.5 -45t35.5 -101q0 -171 -74 -270t-168 -99q-3 0 -4 2.5t2 4.5q55 33 94 108.5t39 140.5q0 8 -6 5q-21 -7 -31 -7q-56 0 -90.5 36.5t-34.5 94.5zM457 1300q0 55 39.5 92.5t95.5 37.5q66 0 101.5 -45t35.5 -101 q0 -171 -74 -270t-168 -99q-3 0 -4 2.5t2 4.5q55 33 94 108.5t39 140.5q0 8 -6 5q-21 -7 -30 -7q-56 0 -90.5 36.5t-34.5 94.5z" />
<glyph unicode="&#x201e;" horiz-adv-x="880" d="M92 94q0 55 39.5 92t95.5 37q67 0 102.5 -44.5t35.5 -100.5q0 -140 -76.5 -239t-165.5 -99q-3 0 -4 2t2 4q58 34 95.5 95.5t37.5 123.5q0 7 -6 4q-18 -6 -31 -6q-56 0 -90.5 36.5t-34.5 94.5zM449 94q0 55 39.5 92t95.5 37q67 0 102 -44.5t35 -100.5q0 -140 -76.5 -239 t-165.5 -99q-3 0 -4 2t2 4q58 34 95.5 95.5t37.5 123.5q0 7 -6 4q-18 -6 -31 -6q-55 0 -89.5 36t-34.5 95z" />
<glyph unicode="&#x2020;" horiz-adv-x="874" d="M10 948v60q0 4 6 4h375q4 0 4 4v407q0 7 6 7h72q6 0 6 -7v-407q0 -4 4 -4h375q6 0 6 -4v-60q0 -4 -6 -4h-375q-4 0 -4 -4v-1219q0 -6 -6 -6h-72q-6 0 -6 6v1219q0 4 -4 4h-375q-6 0 -6 4z" />
<glyph unicode="&#x2021;" horiz-adv-x="874" d="M10 137v60q0 4 6 4h375q4 0 4 4v735q0 4 -4 4h-375q-6 0 -6 4v60q0 4 6 4h375q4 0 4 4v407q0 7 6 7h72q6 0 6 -7v-407q0 -4 4 -4h375q6 0 6 -4v-60q0 -4 -6 -4h-375q-4 0 -4 -4v-735q0 -4 4 -4h375q6 0 6 -4v-60q0 -4 -6 -4h-375q-4 0 -4 -4v-408q0 -6 -6 -6h-72 q-6 0 -6 6v408q0 4 -4 4h-375q-6 0 -6 4z" />
<glyph unicode="&#x2022;" horiz-adv-x="948" d="M174 571q0 120 90 209.5t211 89.5q120 0 209.5 -89.5t89.5 -209.5q0 -121 -89.5 -211t-209.5 -90q-121 0 -211 90t-90 211z" />
<glyph unicode="&#x2026;" horiz-adv-x="1622" d="M154 96q0 54 39.5 93.5t93.5 39.5t93.5 -39.5t39.5 -93.5t-39.5 -93.5t-93.5 -39.5t-93.5 39.5t-39.5 93.5zM678 96q0 54 39.5 93.5t93.5 39.5t93.5 -39.5t39.5 -93.5t-39.5 -93.5t-93.5 -39.5t-93.5 39.5t-39.5 93.5zM1202 94q0 54 39.5 93.5t93.5 39.5t93.5 -39.5 t39.5 -93.5t-39.5 -93.5t-93.5 -39.5t-93.5 39.5t-39.5 93.5z" />
<glyph unicode="&#x202f;" horiz-adv-x="371" />
<glyph unicode="&#x2030;" horiz-adv-x="2596" d="M96 1053q0 153 114.5 265t268.5 112q101 0 191 -51t144 -138.5t54 -187.5q0 -169 -112 -272t-277 -103q-163 0 -273 104.5t-110 270.5zM246 1053q0 -126 67.5 -217t165.5 -91q99 0 169.5 91.5t70.5 216.5q0 142 -68.5 225.5t-171.5 83.5t-168 -81.5t-65 -227.5zM373 6 q-4 -6 4 -6h82q8 0 8 6q115 176 289.5 430.5t381.5 553t275 396.5q5 7 -4 7h-82q-8 0 -8 -7q-41 -61 -946 -1380zM915 338q0 153 114.5 265t268.5 112q101 0 191 -51t144.5 -138.5t54.5 -187.5q0 -169 -112.5 -272t-277.5 -103q-163 0 -273 104.5t-110 270.5zM1065 338 q0 -126 67 -216.5t166 -90.5t169.5 91t70.5 216q0 142 -68.5 225.5t-171.5 83.5t-168 -81.5t-65 -227.5zM1729 338q0 153 114 265t268 112q101 0 191 -51t144.5 -138.5t54.5 -187.5q0 -169 -112.5 -272t-277.5 -103q-163 0 -272.5 104.5t-109.5 270.5zM1878 338 q0 -126 67 -216.5t166 -90.5t169.5 91t70.5 216q0 142 -68.5 225.5t-171.5 83.5t-168 -81.5t-65 -227.5z" />
<glyph unicode="&#x2039;" horiz-adv-x="530" d="M92 424v119q0 4 4 6l318 180q4 -3 4 -4v-82q0 -6 -4 -8l-238 -133q-4 -2 -4 -6v-29q0 -4 4 -6l238 -135q4 -2 4 -9v-81q0 -4 -1 -4.5t-3 -0.5l-318 187q-4 2 -4 6z" />
<glyph unicode="&#x203a;" horiz-adv-x="530" d="M113 236v81q0 7 4 9l237 135q4 2 4 6v29q0 4 -4 6l-237 133q-4 2 -4 8v82q0 3 0.5 3.5t2.5 0.5h1l317 -180q4 -2 4 -6v-119q0 -4 -4 -6l-317 -187q-4 3 -4 5z" />
<glyph unicode="&#x2044;" horiz-adv-x="970" d="M12 6l860 1380q0 7 9 7h73q9 0 4 -7l-860 -1380q0 -6 -8 -6h-74q-8 0 -4 6z" />
<glyph unicode="&#x205f;" horiz-adv-x="464" />
<glyph unicode="&#x20ac;" horiz-adv-x="1486" d="M57 522v53q0 7 6 7h125q5 0 5 6q-12 102 0 196q0 7 -5 7h-125q-6 0 -6 6v53q0 6 6 6h136q4 0 4 6q47 250 215.5 409t412.5 159q104 0 190 -34.5t169 -117.5q20 -20 43 2l90 86q2 2 5.5 3t6 -0.5t2.5 -6.5q0 -59 -2 -132.5t-2 -109.5q0 -72 2 -170t2 -110q0 -3 -2 -5.5 t-5 -1.5t-5 7q-88 261 -210 391.5t-267 130.5q-124 0 -219 -66t-150.5 -176.5t-77.5 -257.5q0 -6 7 -6h409q6 0 6 -6v-53q0 -6 -6 -6h-416q-6 0 -6 -7q-8 -71 0 -198q0 -4 4 -4h418q6 0 6 -7v-53q0 -6 -6 -6h-409q-5 0 -5 -6q33 -219 148 -349t297 -130q73 0 139 32.5 t112.5 79t92 120t73.5 133t60 139.5q3 7 6.5 5t3.5 -8q0 -12 -2 -110t-2 -170q0 -36 2 -109.5t2 -132.5q0 -11 -10 -4l-92 86q-17 13 -33.5 12t-28.5 -12q-81 -68 -162.5 -98.5t-179.5 -30.5q-242 0 -409 150.5t-215 396.5q0 6 -8 6h-134q-6 0 -6 6z" />
<glyph unicode="&#x2122;" horiz-adv-x="1744" d="M72 1161l37 283q0 2 2 2q45 -16 116 -16h346q72 0 117 16q2 0 2 -2l37 -283q0 -3 -1.5 -4t-2.5 2l-113 187q-10 18 -30.5 33.5t-49.5 15.5q-59 0 -59 -35v-602q0 -8 2 -10l62 -80q4 -4 0 -4h-273q-4 0 0 4l62 80q2 2 2 10v602q0 35 -58 35q-57 0 -84 -49l-110 -187l-2 -3 q-2 1 -2 5zM768 664h172q6 0 2 4l-51 80q-4 4 -4 10v514l2 2l182 -488q39 -100 29 -120q0 -2 4 -2h125q4 0 4 2l229 622v-530q0 -8 -2 -10l-61 -80q-4 -4 2 -4h262q4 0 0 4l-59 80q-5 2 -5 10v569q0 32 9 45l41 53q2 5 0 5h-205q-4 0 -4 -5q0 -27 -25 -92l-196 -542 q-2 -4 -2 0q-2 15 -13 43l-182 485q-4 10 -11 28.5t-11.5 30t-8 25t-4.5 22.5q0 5 -2 5h-211q-2 0 -2 -2.5t2 -2.5l55 -71l2 -8v-588q0 -8 -2 -10l-61 -80q-4 -4 0 -4z" />
<glyph unicode="&#x2202;" horiz-adv-x="1173" d="M94 553q17 77 65 154.5t118.5 141t169 98t204.5 22.5q93 -10 161.5 -66.5t102.5 -134.5h5q7 142 -34.5 259.5t-114 190.5t-160.5 112.5t-179 39.5q-4 0 -6 4v51q2 5 6 5q122 0 227 -32t182 -91t134 -141t84 -182t31.5 -215t-23.5 -239q-27 -127 -76 -229t-121.5 -179 t-173.5 -118.5t-223 -40.5q-215 3 -325 166.5t-54 423.5zM244.5 285.5q5.5 -88.5 39 -145t80 -83t109.5 -30.5q62 -4 120 15t111 61.5t95 118t65 177.5q46 208 -18 347.5t-203 154.5q-79 9 -148.5 -26t-116 -97.5t-77 -133t-43.5 -142.5q-19 -128 -13.5 -216.5z" />
<glyph unicode="&#x2206;" horiz-adv-x="1251" d="M94 4l527 1045q0 1 2 1t2 -1l532 -1045q0 -4 -4 -4h-1055q-6 0 -4 4zM211 72q-2 -4 4 -4h819q4 0 4 4l-413 798q0 2 -2 2t-2 -2z" />
<glyph unicode="&#x220f;" horiz-adv-x="1271" d="M97.5 -282q-0.5 3 2.5 6l111 147q6 6 6 16v1497q0 9 6 9h828q4 0 4 -9v-1497q0 -10 6 -16l110 -147q2 -2 2.5 -4t-0.5 -3.5t-4 -1.5h-405q-4 0 -4.5 3t2.5 6l110 147q7 7 7 16v1381q0 29 -17 46t-45 17h-362q-28 0 -45 -17t-17 -46v-1381q0 -10 6 -16l111 -147 q2 -2 2.5 -4t-0.5 -3.5t-4 -1.5h-406q-4 0 -4.5 3z" />
<glyph unicode="&#x2211;" horiz-adv-x="1024" d="M12 1386q-3 3 0 6q0 1 2 1h719q147 0 240 34q6 3 6 -2v-381q0 -6 -3.5 -6t-6.5 6l-121 222q-22 36 -44.5 50.5t-64.5 14.5h-405q-14 0 -21.5 -8.5t2.5 -22.5l457 -565q120 -144 172 -178q6 -3 0 -6q-31 -20 -84 -77t-86 -101l-457 -566q-10 -13 -2.5 -21.5t21.5 -8.5h405 q42 0 64.5 14.5t44.5 50.5l121 221q3 6 6.5 6t3.5 -6v-380q0 -5 -6 -2q-93 34 -240 34h-719q-4 1 -2 6q60 52 140 150l458 561q71 95 115 113q3 3 0 6q-46 18 -115 115l-460 571q-79 96 -140 149z" />
<glyph unicode="&#x221a;" horiz-adv-x="823" d="M-8 -31l92 318q3 6 8 6h64q5 0 8 -6l129 -451l463 1587q0 7 8 7h63q6 0 4 -7l-497 -1702q-3 -6 -8 -6h-64q-5 0 -8 6l-131 457l-55 -209q0 -6 -9 -6h-63q-6 0 -4 6z" />
<glyph unicode="&#x221e;" horiz-adv-x="1779" d="M92 530q0 66 26 126.5t72.5 107.5t118.5 75.5t158 28.5q250 0 383 -186q45 73 99.5 124.5t108.5 77.5t101.5 37t95.5 11q208 0 320.5 -111t112.5 -295q0 -76 -24.5 -141t-66.5 -111t-98 -78.5t-118.5 -48.5t-127.5 -16q-51 0 -92 4.5t-94 21.5t-97 47t-91 84t-86 128 q-62 -106 -150.5 -162.5t-175.5 -56.5q-174 0 -274.5 92.5t-100.5 240.5zM236 530q0 -112 69.5 -190t161.5 -78q80 0 159 62.5t130 167.5v4q-65 155 -134 231t-155 76q-96 0 -163.5 -74t-67.5 -199zM889 621l24 -50q35 -79 58.5 -126.5t56 -100.5t62.5 -81.5t69.5 -47 t85.5 -18.5q128 0 204.5 92.5t76.5 236.5q0 162 -76 251t-207 89q-41 0 -84.5 -12.5t-90 -39.5t-93.5 -76.5t-86 -116.5z" />
<glyph unicode="&#x222b;" horiz-adv-x="671" d="M-100 -279l137 248q3 3 6 -2l92 -151q18 -27 37 -27q41 0 62.5 88t21.5 248v893q0 136 33 239t106 165.5t178 62.5h197q5 0 2 -6l-137 -248q-3 -3 -6 2l-92 151q-18 27 -37 27q-41 0 -62.5 -88t-21.5 -248v-893q1 -135 -32.5 -238.5t-107 -166t-178.5 -62.5h-196 q-5 0 -2 6z" />
<glyph unicode="&#x2248;" horiz-adv-x="1095" d="M53 602q41 95 114 153t161 58q55 0 147.5 -38.5t182.5 -77t137 -38.5q110 0 186 125q2 4 6 4l43 -32l2 -4q-48 -104 -115 -155.5t-143 -51.5q-57 0 -127.5 24t-125 53.5t-117 53.5t-105.5 24q-66 0 -111 -33t-84 -96q-2 -4 -6 -4l-43 31zM63 264q41 95 114 153t161 58 q44 0 112 -24t127.5 -52.5t124.5 -52.5t103 -24q111 0 186 124q3 5 6 5l43 -33l2 -4q-48 -104 -115 -155.5t-143 -51.5q-57 0 -127.5 24t-125 53.5t-117 53.5t-105.5 24q-66 0 -110.5 -33t-83.5 -96q-2 -4 -6 -4l-43 31z" />
<glyph unicode="&#x2260;" horiz-adv-x="991" d="M113 328v53q0 6 6 6h301l74 250h-375q-6 0 -6 6v53q0 6 6 6h393l90 306q0 6 8 6h64q6 0 4 -6l-90 -306h284q7 0 7 -6v-53q0 -6 -7 -6h-303l-73 -250h376q7 0 7 -6v-53q0 -6 -7 -6h-395l-92 -316q0 -6 -8 -6h-64q-6 0 -4 6l92 316h-282q-6 0 -6 6z" />
<glyph unicode="&#x2264;" horiz-adv-x="1105" d="M92 551v90q0 4 4 6l965 404q4 -3 4 -4v-72q0 -6 -4 -8l-897 -371q-2 0 -2 -2t2 -2l897 -377q4 -2 4 -8v-72q-3 -4 -4 -4l-965 414q-4 2 -4 6zM104 4v59q0 5 7 5h948q6 0 6 -5v-59q0 -4 -6 -4h-948q-7 0 -7 4z" />
<glyph unicode="&#x2265;" horiz-adv-x="1105" d="M41 4v59q0 5 6 5h948q6 0 6 -5v-59q0 -4 -6 -4h-948q-6 0 -6 4zM41 135v72q0 6 4 8l897 377q2 0 2 2t-2 2l-897 371q-4 2 -4 8v72q0 3 0.5 3.5t2.5 0.5h1l965 -404q4 -2 4 -6v-90q0 -4 -4 -6l-965 -414q-4 3 -4 4z" />
<glyph unicode="&#x25ca;" horiz-adv-x="1036" d="M84 686q-5 10 0 21l432 723q0 2 2 2t2 -2l432 -723q5 -11 0 -21l-432 -725q0 -1 -2 -1t-2 1zM174 686l342 -571q0 -1 2 -1t2 1l342 571q5 8 0 19l-342 571q0 2 -2 2t-2 -2l-342 -571q-5 -11 0 -19z" />
<glyph unicode="&#x25fc;" horiz-adv-x="880" d="M0 0v881h881v-881h-881z" />
</font>
</defs>
</svg>
