<?xml version="1.0" standalone="no"?>
<!DOCTYPE svg PUBLIC "-//W3C//DTD SVG 1.1//EN" "http://www.w3.org/Graphics/SVG/1.1/DTD/svg11.dtd" >
<svg xmlns="http://www.w3.org/2000/svg" xmlns:xlink="http://www.w3.org/1999/xlink" version="1.1">
<metadata></metadata>
<defs>
<font id="rebuildlight" horiz-adv-x="1290" >
<font-face units-per-em="2048" ascent="1536" descent="-512" />
<missing-glyph horiz-adv-x="821" />
<glyph unicode="&#xfb01;" horiz-adv-x="1153" d="M20 821v53h224v-874h-56v821h-168zM20 991v53h168v154q0 136 91 218.5t231 82.5q108 0 242 -67h258v-54h-281q-38 26 -105 47t-114 21q-125 0 -195.5 -72t-70.5 -196v-187h-224zM446 0v874h306v-874h-56v821h-194v-821h-56zM451 991v164q0 76 31.5 106.5t92.5 30.5 q73 0 177 -45h258v-53h-281q-84 45 -154 45q-43 0 -58 -15t-15 -59v-121h508v-1044h-56v991h-503z" />
<glyph unicode="&#xfb02;" horiz-adv-x="1153" d="M20 821h168v-821h56v874h-224v-53zM20 991v53h168v154q0 136 91 218.5t231 82.5q22 0 44.5 -2t40 -5t37 -9t31.5 -9.5t29 -11t23.5 -10.5t21 -10t15.5 -8v-58q-3 2 -25.5 14t-39.5 19t-45 17t-61.5 15t-70.5 5q-125 0 -195.5 -72t-70.5 -196v-187h-224zM446 0h56v821h194 v-821h56v874h-306v-874zM451 991v164q0 76 31.5 106.5t92.5 30.5q39 0 92 -13.5t85 -31.5v-256h-301zM502 1044h194v168q-1 0 -15.5 5t-30 9.5t-37 8.5t-38.5 4q-43 0 -58 -15t-15 -59v-121zM954 0h56v1446h-56v-1446z" />
<glyph horiz-adv-x="0" />
<glyph horiz-adv-x="682" />
<glyph unicode=" "  horiz-adv-x="821" />
<glyph unicode="&#x09;" horiz-adv-x="821" />
<glyph unicode="&#xa0;" horiz-adv-x="821" />
<glyph unicode="!" horiz-adv-x="598" d="M170 0v291h365v-291h-56v238h-254v-238h-55zM170 1014v432h55v-422l74 -610h-53zM406 414l73 610v422h56v-432l-76 -600h-53z" />
<glyph unicode="&#x22;" horiz-adv-x="1026" d="M72 1522h55l68 -623h-56zM330 899l67 623h56l-68 -623h-55zM573 1522h56l67 -623h-55zM831 899l68 623h55l-67 -623h-56z" />
<glyph unicode="#" horiz-adv-x="1495" d="M86 381v55h256l-59 -436h-56l52 381h-193zM86 580v55h229l27 194h-205v56h269l-41 -305h-279zM137 1028v55h240l51 363h57l-59 -418h-289zM492 0l59 436h315l-61 -436h-57l55 381h-201l-55 -381h-55zM571 580l41 305h318l-43 -305h-316zM633 1028l59 418h56l-52 -363h205 l49 363h58l-58 -418h-317zM635 635h203l28 194h-204zM1014 0l61 436h287v-55h-238l-53 -381h-57zM1098 580l39 305h272v-56h-223l-25 -194h201v-55h-264zM1159 1028l55 418h58l-49 -363h186v-55h-250z" />
<glyph unicode="$" horiz-adv-x="1452" d="M55 244l43 39q244 -256 619 -260q260 -3 404.5 111.5t144.5 301.5q0 153 -112.5 238.5t-371.5 126.5l-159 22q-115 16 -173.5 59.5t-58.5 125.5q0 75 73 125.5t218 50.5q236 0 393 -187l-39 -39q-121 149 -295 166v-262l50 -8q284 -44 407 -141.5t123 -276.5 q0 -94 -36.5 -176t-107 -146.5t-182.5 -103.5t-254 -43v-190h-55v190q-194 4 -348 73t-283 204zM82 975q0 209 164 323.5t436 114.5h4v123h55v-125q167 -10 287.5 -71.5t226.5 -165.5l-41 -41q-102 107 -227.5 166t-304.5 59q-247 0 -396 -99.5t-149 -283.5 q0 -78 33.5 -142.5t92.5 -108t132.5 -71.5t159.5 -41q28 -5 90.5 -13.5t79.5 -10.5q57 -8 92 -15t77 -21.5t65 -34t39 -51t16 -73.5q0 -50 -24.5 -88.5t-67 -61t-94.5 -33.5t-113 -11q-263 0 -451 233l45 39q89 -111 174 -162t203 -55v285l-139 18q-100 14 -182.5 45 t-147 81t-100 124.5t-35.5 167.5zM446 1008q0 -57 44.5 -86t140.5 -43l55 -9v258h-4q-117 0 -176.5 -32t-59.5 -88zM741 254q100 3 158.5 38.5t58.5 100.5q0 34 -15.5 58t-47.5 39t-66.5 23.5t-87.5 16.5v-276z" />
<glyph unicode="%" horiz-adv-x="1585" d="M92 1102q0 126 88.5 214.5t214.5 88.5t214.5 -88.5t88.5 -214.5t-88.5 -214.5t-214.5 -88.5t-214.5 88.5t-88.5 214.5zM147 1102q0 -103 72.5 -175.5t175.5 -72.5t175.5 72.5t72.5 175.5t-72.5 175.5t-175.5 72.5t-175.5 -72.5t-72.5 -175.5zM272 0l752 1446h61 l-751 -1446h-62zM530 0l752 1446h61l-751 -1446h-62zM887 291q0 126 88.5 214.5t214.5 88.5t214.5 -88.5t88.5 -214.5t-88.5 -214.5t-214.5 -88.5t-214.5 88.5t-88.5 214.5zM942 291q0 -103 72.5 -175.5t175.5 -72.5t175.5 72.5t72.5 175.5t-72.5 175.5t-175.5 72.5 t-175.5 -72.5t-72.5 -175.5z" />
<glyph unicode="&#x26;" horiz-adv-x="1409" d="M25 434q0 76 22 140t61.5 112.5t82 82.5t96.5 65l35 20q-30 29 -51.5 53.5t-49 63t-42.5 82.5t-15 90q0 70 29.5 125.5t76 89.5t107.5 56.5t119 31t116 8.5q35 0 73 -4t83.5 -13.5t87.5 -24.5t81.5 -40t69 -56t47 -76t17.5 -97q0 -87 -61.5 -163.5t-239.5 -193.5 l211 -254q72 102 92 218l51 -25q-18 -87 -50.5 -149.5t-84.5 -133.5l-293 361q89 52 152.5 100t95 81.5t49 67t20.5 51t3 40.5q0 51 -20.5 92.5t-56 68.5t-77.5 46.5t-89.5 29.5t-86.5 14.5t-74 4.5q-53 0 -104.5 -7t-105 -25.5t-93 -46.5t-65 -73.5t-25.5 -103.5 q0 -28 7.5 -56.5t23.5 -56.5t29.5 -49t38 -47t35 -37.5t34.5 -34t25 -22.5l-82 -43q-115 -63 -182.5 -154t-67.5 -209q0 -129 74.5 -230.5t188 -152.5t239.5 -51q119 0 208.5 44t176.5 146q72 -82 149 -108.5t184 -26.5h78v-55h-78q-231 0 -335 119q-70 -80 -169.5 -126 t-217.5 -46q-83 0 -163.5 21t-150.5 62.5t-123.5 99t-84.5 136.5t-31 168zM334 428q-4 79 27.5 137t99.5 105l43 26l334 -407q-43 -67 -105 -104.5t-133 -37.5q-67 0 -120 28.5t-82.5 73t-45.5 90t-18 89.5zM389 436q3 -89 61 -161t150 -72q114 0 170 90l-272 336l-6 -4 q-54 -37 -80 -78.5t-23 -110.5zM471 1139q0 62 43.5 97.5t106.5 35.5q60 0 104.5 -36t44.5 -97q0 -55 -31 -98t-131 -109q-68 63 -102.5 112t-34.5 95zM528 1139q0 -30 23.5 -68t66.5 -72q97 61 97 140q0 34 -27 56t-67 22q-38 0 -65.5 -23t-27.5 -55zM1098 322 q77 95 117.5 168.5t64.5 168.5l53 -20q-19 -68 -48.5 -128.5t-52.5 -94.5t-63 -88q24 -37 60 -51.5t94 -14.5h55v-55h-55q-82 0 -130 25.5t-95 89.5z" />
<glyph unicode="'" horiz-adv-x="491" d="M55 1522h56l67 -623h-55zM313 899l68 623h55l-67 -623h-56z" />
<glyph unicode="(" horiz-adv-x="833" d="M92 639q0 195 61.5 380t176.5 339t282 282l33 -43q-151 -116 -270 -272q-111 -148 -169.5 -324.5t-58.5 -361.5t58.5 -361.5t169.5 -324.5q119 -156 270 -272l-33 -43q-167 128 -282 282t-176.5 339t-61.5 380zM400.5 522q-0.5 20 0 66t0.5 47t-0.5 47t0 66t3 76 t7.5 91.5t15.5 96.5t25 106.5t36.5 106t50 111t67 106t85 104.5l31 -41q-69 -78 -120 -175t-77.5 -182.5t-42 -188.5t-19.5 -171.5t-5 -152.5q1 -84 5 -153t19.5 -171.5t42 -188.5t77.5 -183t120 -175l-31 -40q-46 49 -85 104.5t-67 106t-50 111t-36.5 106t-25 106.5 t-15.5 96.5t-7.5 91.5t-3 76z" />
<glyph unicode=")" horiz-adv-x="833" d="M113 -236q69 78 120 175t77.5 183t42 188.5t19.5 171.5t5 153q-1 84 -5 152.5t-19.5 171.5t-42 188.5t-77.5 182.5t-120 175l30 41q46 -49 85 -104.5t67 -106t50 -111t36.5 -106t25 -106.5t15.5 -96.5t7.5 -91.5t3 -76t0 -66t-0.5 -47t0.5 -47t0 -66t-3 -76t-7.5 -91.5 t-15.5 -96.5t-25 -106.5t-36.5 -106t-50 -111t-67 -106t-85 -104.5zM188 -319q153 118 271 272q110 148 168.5 324t58.5 362t-58.5 362t-168.5 324q-118 154 -271 272l33 43q169 -130 283 -282q115 -153 176 -338.5t61 -380.5t-61 -380.5t-176 -338.5q-114 -152 -283 -282z " />
<glyph unicode="*" horiz-adv-x="841" d="M29 1087l16 54l279 -90l-166 -240l-47 33l122 176zM74 1239l16 53l207 -61v215h55v-291zM246 758l172 235l176 -231l-47 -35l-129 172l-127 -174zM477 1155v291h55v-215l207 63l17 -53zM514 1053l274 96l21 -55l-205 -70l127 -176l-45 -33z" />
<glyph unicode="+" d="M92 485v56h426v-459h-55v403h-371zM92 719v59h371v400h55v-459h-426zM772 82v459h426v-56h-371v-403h-55zM772 719v459h55v-400h371v-59h-426z" />
<glyph unicode="," horiz-adv-x="595" d="M139 0v53h365v-86q0 -151 -75.5 -236t-213.5 -85h-76v55h68q233 0 233 274v25h-301zM139 238v53h365v-53h-365z" />
<glyph unicode="-" horiz-adv-x="796" d="M92 485v56h613v-56h-613zM92 719v59h613v-59h-613z" />
<glyph unicode="." horiz-adv-x="595" d="M139 0v53h365v-53h-365zM139 238v53h365v-53h-365z" />
<glyph unicode="/" horiz-adv-x="1026" d="M33 0l622 1446h62l-623 -1446h-61zM324 0l622 1446h62l-623 -1446h-61z" />
<glyph unicode="0" horiz-adv-x="1273" d="M78 758q5 75 26.5 155.5t66.5 167t106.5 154t155 111t204.5 43.5t204.5 -43.5t155 -111t106.5 -154t66.5 -167t26.5 -155.5h-55q-4 69 -24.5 143.5t-61.5 153t-97 140t-140 101t-181 39.5t-181 -39.5t-140 -101t-97 -140t-61.5 -153t-24.5 -143.5h-55zM80 541h55 q8 -80 32 -157t67.5 -146.5t100 -122.5t135 -84t167.5 -31t167.5 31t135 84t100 122.5t67.5 146.5t32 157h55q-8 -88 -34.5 -172t-73.5 -161t-110 -134.5t-150.5 -92t-188.5 -34.5t-188.5 34.5t-150.5 92t-110 134.5t-73.5 161t-34.5 172zM387 662q0 101 12 183.5t39 154 t77.5 111.5t121.5 40t121.5 -40t77.5 -111.5t39 -154t12 -183.5q0 -102 -11 -181.5t-37.5 -150t-77.5 -108.5t-124 -38t-124 38t-77.5 108.5t-37.5 150t-11 181.5zM442 662q0 -424 195 -424q194 0 194 424q0 90 -9.5 164t-30.5 137.5t-60 99t-94 35.5t-94.5 -35.5t-60.5 -99 t-30.5 -137.5t-9.5 -164z" />
<glyph unicode="1" horiz-adv-x="1150" d="M164 891v53h330v-944h-56v891h-274zM164 1126v56h24q158 0 230 39q50 26 75 69t25 88v6h60v-6q0 -59 -34.5 -116.5t-101.5 -90.5q-88 -45 -256 -45h-22zM748 0v1384h55v-1384h-55z" />
<glyph unicode="2" horiz-adv-x="1150" d="M23 852v88q0 117 40.5 209t110.5 149t160 86t194 29q222 0 369 -117t147 -307q0 -107 -38.5 -194t-118.5 -173.5t-236 -218.5l-137 -112h514v-53h-674l267 213q217 180 292.5 291.5t75.5 246.5q0 166 -135 268.5t-326 102.5q-91 0 -171 -25.5t-143 -75.5t-99.5 -132 t-36.5 -187v-88h-55zM76 0v53h952v-53h-952zM76 229v70l366 311q68 55 104 88t71 75t49 83t14 90q0 30 -5.5 57t-20 56t-46.5 46t-78 17q-23 0 -46 -9t-45.5 -27t-37 -52.5t-14.5 -79.5v-102h-55v102q0 64 20.5 110.5t53 69t63.5 32.5t61 10q52 0 91.5 -17.5t60.5 -42 t33.5 -58.5t16 -60t3.5 -52q0 -59 -18.5 -110t-56 -96t-71.5 -77t-89 -77q-14 -11 -21 -17z" />
<glyph unicode="3" horiz-adv-x="1144" d="M66 408v36h55v-36q0 -188 122.5 -298t313.5 -110q123 0 218 35.5t147.5 92t78 117.5t25.5 122q0 78 -17.5 132t-53.5 86t-79 49t-106 28q-49 8 -76 8v45q34 2 70 10q99 21 160 93t61 190q0 55 -24.5 109.5t-73.5 103.5t-135.5 79.5t-198.5 30.5q-106 0 -196 -39.5 t-146.5 -119t-56.5 -185.5v-35h-58v37q0 93 39 169.5t104 124.5t146 74.5t168 26.5q126 0 223.5 -35.5t153 -92.5t83 -120.5t27.5 -127.5q0 -129 -66 -210.5t-161 -101.5q133 -26 200.5 -104t67.5 -225q0 -51 -14.5 -104.5t-53 -111.5t-95.5 -102t-150.5 -73t-210.5 -29 q-219 0 -355 126t-136 335zM309 559v53h226q104 0 170.5 -54t66.5 -163q0 -94 -57 -152.5t-158 -58.5q-104 0 -167.5 61.5t-63.5 172.5v26h53v-26q0 -91 51 -135.5t127 -44.5q75 0 117.5 44t42.5 113q0 80 -50.5 122t-131.5 42h-226zM309 774v53h226q55 0 90.5 13t51 36.5 t20.5 44.5t5 50q0 68 -43.5 95.5t-105.5 27.5q-75 0 -107 -42t-32 -100h-56q0 34 9 65.5t29 62t60.5 49t96.5 18.5q37 0 71 -8.5t65.5 -27.5t50 -55t18.5 -85q0 -30 -4 -54t-18 -52t-37 -47t-65 -31.5t-99 -12.5h-226z" />
<glyph unicode="4" horiz-adv-x="1198" d="M41 256v53h643v-309h-55v256h-588zM41 475v94l571 815h68zM264 494l420 596v-596h-420zM367 547h262v362zM938 0v309h240v-53h-185v-256h-55zM938 494v890h55v-837h185v-53h-240z" />
<glyph unicode="5" horiz-adv-x="1198" d="M86 408h55q0 -80 34 -153.5t93.5 -130t148.5 -90.5t191 -34q113 0 204.5 39t148.5 105t87.5 149t30.5 174q0 210 -110 311t-295 101q-136 0 -232 -84l-43 26l39 299h598v-55h-549l-28 -201q29 30 90 49t125 19q208 0 334.5 -120t126.5 -345q0 -95 -33.5 -186t-97 -166.5 t-166.5 -121.5t-230 -46q-116 0 -216.5 39.5t-167.5 104t-104 147.5t-34 170zM92 535l94 823h850v-53h-800l-82 -715h270q7 62 53 110t127 48q99 0 159 -67.5t60 -213.5q0 -28 -3 -56.5t-15.5 -72.5t-34 -76t-63 -56t-97.5 -24q-105 0 -169 62t-64 164h55q3 -88 52.5 -129 t125.5 -41q39 0 68.5 15.5t46.5 38.5t27 55.5t13 60.5t3 59q0 227 -164 227q-60 0 -96.5 -39.5t-42.5 -119.5h-373z" />
<glyph unicode="6" horiz-adv-x="1216" d="M66 666q0 341 148.5 529.5t414.5 188.5q112 0 214 -47t175 -143t86 -223h-57q-19 148 -129.5 254t-288.5 106q-247 0 -377.5 -178t-130.5 -487q0 -105 16.5 -196t44.5 -158t68 -120.5t84.5 -89t96 -59t101.5 -33.5t101 -10q102 0 191 36.5t149.5 96.5t95.5 140t35 165 q0 99 -37 177t-99 123.5t-135 69t-151 23.5q-91 0 -162 -45t-114 -106h-37v88q0 180 64.5 280t195.5 97q77 -2 126.5 -47.5t49.5 -116.5v-10h-55q0 59 -33 90t-88 31q-207 0 -207 -322q22 40 96.5 78.5t161.5 38.5q97 0 182 -27.5t152 -81t106 -141.5t39 -199 q0 -133 -70.5 -246t-192 -179t-263.5 -66q-81 0 -157 20.5t-152 72.5t-132 131.5t-91 206.5t-35 288zM393 438q0 102 62 174t166 72t165.5 -72t61.5 -174q0 -43 -12 -85t-36 -81t-67.5 -63.5t-99.5 -24.5q-79 -2 -135 37t-80.5 95.5t-24.5 121.5zM449 438q0 -84 48.5 -141 t135.5 -57q73 0 116.5 62t43.5 136q0 79 -46 135t-126 56t-126 -56t-46 -135z" />
<glyph unicode="7" horiz-adv-x="1028" d="M31 1098v53h729q-90 -93 -165.5 -194.5t-127 -189.5t-93.5 -185t-66.5 -170t-44 -157t-28.5 -132t-18 -109q-1 -9 -2 -14h-55q3 15 13.5 83t17.5 106t26.5 117.5t40 137.5t57.5 145.5t80.5 162.5t107.5 166.5t140 179.5h-612zM31 1335v54h981v-54h-981zM485 0 q0 188 88 467q42 131 98 239.5t120.5 197t177.5 224.5l43 52v-86q-163 -196 -244.5 -327.5t-140.5 -315.5q-86 -267 -86 -451h-56z" />
<glyph unicode="8" horiz-adv-x="1216" d="M55 373q0 244 285 338q-30 14 -53 26.5t-57 39.5t-56 58t-38.5 79t-16.5 104q0 73 30 136.5t81.5 107.5t112.5 74.5t130 45.5v-57q-57 -15 -108.5 -40.5t-95 -63t-69.5 -90.5t-26 -113q0 -55 20 -101.5t53 -77.5t60.5 -49t57.5 -32v-94q-25 -10 -40.5 -16t-45 -21 t-49.5 -29.5t-44.5 -38t-39 -49t-25 -61.5t-10.5 -76q0 -61 23 -116.5t60 -95.5t85.5 -73t96.5 -53t97 -31v-57q-57 12 -113 34t-112 59t-98 83.5t-68.5 111.5t-26.5 138zM371 385q0 98 63.5 175t173.5 77t174 -77t64 -175q0 -122 -69.5 -190t-168.5 -68t-168 67.5 t-69 190.5zM401 991q0 103 59 162t148 59t148 -59t59 -162q0 -90 -59.5 -153.5t-147.5 -63.5t-147.5 63.5t-59.5 153.5zM426 385q0 -104 55.5 -153.5t126.5 -49.5t127 49.5t56 153.5q0 86 -49.5 141.5t-133.5 55.5t-133 -55.5t-49 -141.5zM457 991q0 -66 42 -114t109 -48 t109.5 48t42.5 114q0 78 -44 122t-108 44t-107.5 -44t-43.5 -122zM743 4q62 14 122.5 43.5t116 73.5t90 110t34.5 142q0 40 -10.5 76t-25 61.5t-39 49t-44.5 38t-49.5 29.5t-45 21t-40.5 16v94q23 11 44.5 23.5t49.5 36t48 50t34 66.5t14 84q0 60 -26 113t-69.5 90.5t-95 63 t-108.5 40.5v57q69 -15 130.5 -45.5t112.5 -74.5t81.5 -107.5t30.5 -136.5q0 -56 -16.5 -104t-38.5 -79t-56 -58t-57 -39.5t-53 -26.5q284 -94 284 -338q0 -73 -26.5 -138t-68.5 -111.5t-98 -83.5t-112 -59t-113 -34v57z" />
<glyph unicode="9" horiz-adv-x="1214" d="M59 897q0 133 68 245t187 177t261 65q56 0 109 -8t111.5 -28.5t108.5 -53t96.5 -86t79 -122t52 -165.5t19.5 -214q0 -368 -142.5 -564t-408.5 -196q-67 0 -133.5 15.5t-130 49t-113.5 80.5t-83.5 116.5t-41.5 151.5h58q18 -155 139 -257.5t305 -102.5q246 0 371 186.5 t125 520.5q0 151 -33.5 265.5t-85 181t-123.5 108t-138.5 55.5t-140.5 14q-135 0 -241.5 -61t-162.5 -159.5t-56 -213.5q0 -100 34.5 -178t93 -124.5t129 -70.5t148.5 -24q185 0 293 151h37v-88q0 -187 -62.5 -282t-197.5 -95q-89 0 -141 47t-52 117v10h56q0 -58 40 -89 t97 -31q114 0 160.5 77t46.5 240q-39 -51 -109.5 -82t-165.5 -31q-97 0 -180 28t-146.5 82.5t-100 142.5t-36.5 200zM371 897q0 44 13 87t39 80t71.5 60t103.5 23q59 0 105 -23t71.5 -60.5t38 -79.5t12.5 -87q0 -102 -61.5 -176t-165.5 -74t-165.5 74t-61.5 176zM426 897 q0 -80 46.5 -137.5t125.5 -57.5t125.5 57.5t46.5 137.5q0 75 -44 135t-128 60q-80 0 -126 -60.5t-46 -134.5z" />
<glyph unicode=":" horiz-adv-x="643" d="M139 0v291h365v-291h-55v238h-254v-238h-56zM139 778v291h365v-291h-55v238h-254v-238h-56z" />
<glyph unicode=";" horiz-adv-x="643" d="M139 0v53h365v-86q0 -151 -75.5 -236t-213.5 -85h-76v55h68q233 0 233 274v25h-301zM139 238v53h365v-53h-365zM139 778v291h365v-291h-55v238h-254v-238h-56z" />
<glyph unicode="&#x3c;" horiz-adv-x="993" d="M139 379v287l742 374v-61l-686 -348v-217l686 -346v-62zM393 483v78l488 223v-61l-432 -201l432 -198v-62z" />
<glyph unicode="=" horiz-adv-x="1353" d="M139 139v56h1075v-56h-1075zM139 348v60h1075v-60h-1075zM139 584v55h1075v-55h-1075zM139 793v59h1075v-59h-1075z" />
<glyph unicode="&#x3e;" horiz-adv-x="993" d="M113 6v62l686 346v217l-686 348v61l741 -374v-287zM113 262v62l432 198l-432 201v61l487 -223v-78z" />
<glyph unicode="?" horiz-adv-x="1236" d="M141 963v108q0 187 140 295.5t370 108.5q108 0 196 -24.5t145 -64t95.5 -92.5t55 -107t16.5 -110q0 -76 -22.5 -137t-56.5 -104t-95 -99l-131 -119q-61 -54 -61 -98v-106h-56v86q0 16 1 29.5t4.5 25.5t5.5 20t9 19t9 15t12 14.5t12 12.5t15 13.5t14 12.5l152 135 q48 44 77 82.5t40.5 76.5t13.5 59.5t2 61.5q0 48 -14.5 95t-49 92.5t-85.5 80t-129.5 55.5t-174.5 21q-213 0 -333.5 -91.5t-120.5 -258.5v-108h-56zM432 963v47q0 44 10 82t32.5 72t66 53.5t104.5 19.5q62 0 106 -21.5t64 -54.5t27.5 -60t7.5 -52q0 -71 -28 -115.5 t-89 -97.5l-133 -115q-36 -31 -53.5 -71.5t-20 -71.5t-2.5 -95v-69h-55v75q0 6 -0.5 37t0 40.5t3 36t8.5 40.5t15.5 36.5t25.5 41t38 37.5l141 123q49 43 72 80.5t23 87.5q0 30 -12.5 59t-48.5 52.5t-89 23.5q-158 0 -158 -174v-47h-55zM449 0v291h364v-291h-55v238h-254 v-238h-55z" />
<glyph unicode="@" horiz-adv-x="1742" d="M92 729q5 103 34 206t90 204.5t145.5 178.5t211.5 125t277 48q154 0 282 -48t213.5 -127t144.5 -182t84 -210t23 -213q-2 -81 -17.5 -158.5t-45.5 -146t-82 -110.5t-119 -42q-70 0 -101.5 44.5t-31.5 115.5v342q0 432 -346 432q-76 0 -142 -28.5t-113 -75.5t-81 -106.5 t-52 -122t-20 -122.5q-5 -131 42.5 -237.5t140.5 -168t215 -61.5q115 0 211 70l24 -51q-110 -74 -235 -74q-140 0 -246 71t-159 189.5t-48 261.5q2 68 21.5 137.5t57.5 136.5t91 119.5t129 84.5t164 32q204 0 302.5 -127.5t98.5 -357.5v-309q0 -32 0.5 -47t4.5 -37t12 -31.5 t23 -17t38 -7.5q46 0 83.5 27.5t60.5 70.5t38 98t21 106t6 100q4 96 -20.5 196t-80 195t-136 169.5t-198.5 120t-257 44.5q-139 0 -256.5 -44.5t-196.5 -116.5t-135.5 -165.5t-83.5 -189.5t-31 -191q-6 -146 36 -275.5t124.5 -228t213.5 -156t292 -57.5q115 0 203.5 24.5 t132.5 51.5l25 -49q-72 -38 -168 -60t-193 -22q-140 0 -259.5 40t-206.5 111t-147 167.5t-87 212t-21 241.5zM582 723q0 160 75.5 255t196.5 95q80 0 135 -48.5t78 -119.5t23 -157q0 -82 -19 -146.5t-47 -102.5t-64.5 -63t-68 -34t-60.5 -9q-47 0 -89 17.5t-79 54.5 t-59 103.5t-22 154.5zM637 723q0 -121 53 -197.5t141 -76.5q86 0 144.5 76.5t58.5 219.5q0 125 -53 199t-127 74q-96 0 -156.5 -78t-60.5 -217z" />
<glyph unicode="A" horiz-adv-x="1454" d="M0 0l467 1446h59l-467 -1446h-59zM332 0l88 285h614l88 -285h-61l-70 231h-528l-70 -231h-61zM477 481l250 826l250 -826h-500zM555 535h344l-172 573zM928 1446h59l467 -1446h-59z" />
<glyph unicode="B" horiz-adv-x="1415" d="M139 0v1446h56v-1446h-56zM444 0v53h373q71 0 138 11.5t131 39t111.5 68t76.5 103t29 139.5q0 155 -69.5 229.5t-209.5 95.5q-70 9 -84 9v47q51 0 84 6q223 42 223 272q0 320 -463 320h-340v53h338q272 0 396.5 -100t124.5 -275q0 -121 -59 -197.5t-154 -97.5l-6 -2 q1 0 3 -1t3 -1q136 -33 202 -119t66 -239q0 -129 -72.5 -224.5t-192 -142.5t-268.5 -47h-381zM444 238v434h334q131 0 202 -57t71 -158q0 -96 -72.5 -157.5t-200.5 -61.5h-334zM444 856v352h306q114 0 177.5 -43.5t63.5 -132.5t-63.5 -132.5t-177.5 -43.5h-306zM500 291h276 q100 0 159.5 47t59.5 119q0 74 -54.5 117.5t-164.5 43.5h-276v-327zM500 909h248q188 0 188 123t-188 123h-248v-246z" />
<glyph unicode="C" horiz-adv-x="1492" d="M90 725q0 169 56 314t153.5 245.5t231.5 157.5t286 57q207 0 371.5 -92t255.5 -277l-49 -24q-81 169 -232 254.5t-346 85.5q-140 0 -264 -53t-214 -146.5t-142 -229t-52 -292.5q0 -142 36.5 -261.5t100 -204t149.5 -143.5t184.5 -87.5t205.5 -28.5q205 0 349.5 96 t230.5 258l51 -24q-221 -383 -631 -383q-146 0 -276 49.5t-232.5 143.5t-162.5 245t-60 340zM401 735q0 137 51 253.5t151.5 189.5t230.5 73q125 0 219 -65.5t141 -177.5l-51 -27q-39 102 -119.5 159.5t-189.5 57.5q-85 0 -157 -38.5t-119.5 -102.5t-74 -147.5t-26.5 -174.5 q0 -115 31.5 -208.5t84 -152.5t120 -90.5t141.5 -31.5q216 0 329 225l49 -24q-16 -34 -36.5 -65.5t-54 -67t-73 -61.5t-95.5 -43t-119 -17q-86 0 -163 34.5t-137.5 100t-96.5 169.5t-36 232z" />
<glyph unicode="D" horiz-adv-x="1519" d="M139 0v1446h56v-1446h-56zM444 0v53h261q154 0 273.5 40t192.5 104t120 154t65 180t18 192q0 334 -179.5 502t-563.5 168h-187v53h187q410 0 604.5 -181t194.5 -542q0 -110 -19.5 -208t-70.5 -194.5t-130.5 -165.5t-209 -112t-295.5 -43h-261zM444 238v970h234 q105 0 184 -26t128 -69t79 -106.5t41.5 -130.5t11.5 -149q0 -138 -29.5 -232t-93 -151t-156 -81.5t-227.5 -24.5h-172zM500 291h116q239 0 345 97.5t106 338.5q0 72 -10 131.5t-36.5 116t-69 95t-112 62t-161.5 23.5h-178v-864z" />
<glyph unicode="E" horiz-adv-x="1304" d="M139 0v1446h56v-1446h-56zM444 0v53h789v-53h-789zM444 238v405h768v-53h-712v-299h733v-53h-789zM444 827v381h789v-53h-733v-274h712v-54h-768zM444 1393v53h789v-53h-789z" />
<glyph unicode="F" horiz-adv-x="1273" d="M139 0v1446h56v-1446h-56zM444 0v641h768v-53h-712v-588h-56zM444 827v379h789v-53h-733v-272h712v-54h-768zM444 1393v53h789v-53h-789z" />
<glyph unicode="G" horiz-adv-x="1595" d="M90 723q0 107 25 213t81.5 208.5t139 180.5t207.5 126t276 48q109 0 209 -26.5t168 -64t128.5 -88t92 -87t56.5 -72.5l-43 -35q-18 30 -48 65.5t-86 82t-122 83.5t-160 63t-195 26q-140 0 -255.5 -45t-191.5 -117.5t-128.5 -168.5t-75.5 -194.5t-23 -197.5 q0 -129 45 -256.5t125.5 -232t206 -169.5t273.5 -65q67 0 121 10t111.5 35t108.5 75t93 124h43v-244h-55v137q-139 -190 -422 -190q-132 0 -247 45.5t-197.5 122t-142 176.5t-89 210.5t-29.5 221.5zM395 733q0 244 123.5 385.5t325.5 141.5q137 0 252 -76t172 -189l-43 -34 q-47 105 -153 175t-228 70q-176 0 -284.5 -127.5t-108.5 -345.5q0 -55 12.5 -116t42 -126.5t72 -117.5t110 -85.5t148.5 -33.5q49 0 95 15.5t87.5 47.5t71.5 86.5t40 126.5h-296v54h358q-7 -88 -33.5 -156.5t-62 -110.5t-82 -69t-89.5 -37t-89 -10q-80 0 -147.5 25.5 t-114.5 69.5t-82.5 98.5t-56 115.5t-30.5 116.5t-10 106.5zM834 770v53h669v-823h-55v770h-614z" />
<glyph unicode="H" horiz-adv-x="1533" d="M139 0v1446h56v-1446h-56zM444 0v637h646v-637h-56v584h-534v-584h-56zM444 821v625h56v-572h534v572h56v-625h-646zM1339 0v1446h56v-1446h-56z" />
<glyph unicode="I" horiz-adv-x="630" d="M133 0v1446h55v-1446h-55zM442 0v1446h56v-1446h-56z" />
<glyph unicode="J" horiz-adv-x="753" d="M25 0v53h139q200 0 305.5 94t105.5 269v1030h56v-1030q0 -198 -119.5 -307t-347.5 -109h-139zM25 238v53h139q102 0 102 125v1030h56v-1030q0 -178 -158 -178h-139z" />
<glyph unicode="K" horiz-adv-x="1406" d="M139 0v1446h56v-1446h-56zM449 0v418l270 309l414 -727h-64l-358 631l-207 -238v-393h-55zM449 756v690h55v-600l493 600h74l-571 -690h-51zM868 897l480 549h73l-481 -557l516 -889h-65z" />
<glyph unicode="L" horiz-adv-x="1105" d="M139 0v1446h56v-1446h-56zM449 0v53h620v-53h-620zM449 238v1208h55v-1155h565v-53h-620z" />
<glyph unicode="M" horiz-adv-x="2002" d="M135 0v1446h55v-1446h-55zM444 0v1155h80l320 -1155h-62l-276 999l-6 48v-1047h-56zM664 1446h61l274 -1012l2 -22l3 22l274 1012h61l-307 -1118h-61zM1159 0l318 1155h82v-1155h-56v1047l-8 -48l-274 -999h-62zM1812 0v1446h56v-1446h-56z" />
<glyph unicode="N" horiz-adv-x="1519" d="M135 0v1446h55v-1446h-55zM442 1446h64l514 -871v871h55v-993h-47zM444 0v987h48l583 -987h-63l-512 864v-864h-56zM1329 0v1446h55v-1446h-55z" />
<glyph unicode="O" horiz-adv-x="1679" d="M90 727q0 94 22.5 191t72.5 194t121.5 176t176.5 136t230 75v-55q-113 -18 -208.5 -71.5t-160.5 -127t-111 -163t-67 -179.5t-21 -176q0 -100 24.5 -197t73 -184t115.5 -157.5t158.5 -119t196.5 -65.5v-57q-115 17 -215.5 69t-174 127.5t-127 170t-80 200t-26.5 213.5z M399 727q0 68 15.5 138.5t50 140.5t84 124t123.5 87.5t162 33.5q206 0 326 -148.5t120 -375.5q0 -70 -17 -142t-53 -141.5t-86.5 -124t-124 -87.5t-159.5 -33q-104 0 -189.5 46t-139.5 121.5t-83 169t-29 191.5zM455 727q0 -88 26 -172t73 -152t121.5 -109.5t164.5 -41.5 q74 0 138 30t108.5 79t76.5 111.5t47 127.5t15 127q0 202 -106.5 336.5t-284.5 134.5q-75 0 -139.5 -30.5t-107.5 -79t-73.5 -111.5t-44.5 -126.5t-14 -123.5zM963 2q170 28 302.5 141.5t200.5 267t68 316.5q0 89 -21.5 179t-67.5 178.5t-111.5 160.5t-161.5 125t-209 72v55 q125 -19 230.5 -75.5t177 -134t122 -173t73.5 -193.5t23 -194q0 -105 -27.5 -209.5t-82 -199.5t-128.5 -171.5t-174.5 -129.5t-213.5 -70v55z" />
<glyph unicode="P" horiz-adv-x="1392" d="M135 0v1446h55v-1446h-55zM444 0v516h336q79 0 153 15t142.5 49.5t119 85t80.5 127t30 170.5q0 111 -38 194t-108.5 134.5t-165 76.5t-213.5 25h-336v53h336q175 0 303 -50.5t202.5 -160.5t74.5 -272q0 -106 -35.5 -192.5t-93 -142.5t-134.5 -94t-156 -54.5t-161 -16.5 h-280v-463h-56zM444 698v510h295q57 0 109.5 -12t100.5 -38.5t77 -77t29 -119.5q0 -132 -83 -197.5t-227 -65.5h-301zM500 752h245q127 0 190.5 55t63.5 154q0 56 -22.5 95.5t-61.5 60t-82 29.5t-94 9h-239v-403z" />
<glyph unicode="Q" horiz-adv-x="1654" d="M90 733q1 77 18 156t49 159t84.5 152.5t119 131.5t157 100.5t195.5 56.5v-55q-113 -18 -208.5 -69.5t-160.5 -123t-111 -158.5t-67 -175.5t-21 -174.5q0 -150 48.5 -282t136.5 -230t218.5 -154.5t285.5 -56.5q131 0 235 45t209 146l295 -293l-39 -39l-260 256 q-107 -91 -211 -128.5t-229 -37.5q-168 0 -309 60.5t-235.5 164.5t-147 245.5t-52.5 303.5zM399 733q0 69 14.5 137t48 135.5t82 118.5t124 83t166.5 32t166.5 -32t124 -83t81.5 -118.5t47.5 -135.5t14.5 -137q0 -107 -33 -207t-105.5 -183.5t-173.5 -115.5 q-58 -18 -122 -18q-56 0 -123 18q-77 21 -138 74t-98 124t-56.5 150t-19.5 158zM455 733q0 -93 27 -182t87.5 -163t143.5 -101q77 -25 121 -25q50 0 120 25q122 47 190 175t68 271q0 61 -12.5 122t-42 121.5t-72 106.5t-107.5 74.5t-144 28.5t-144.5 -28.5t-108 -74.5 t-72 -106.5t-42 -121.5t-12.5 -122zM963 1434v55q125 -19 229.5 -75.5t174.5 -134t119 -172t71 -189t22 -185.5q0 -232 -106 -395l264 -266l-37 -37l-299 299q56 72 89.5 175.5t33.5 223.5q0 89 -20.5 178t-65 175.5t-108.5 156t-159 121t-208 70.5z" />
<glyph unicode="R" horiz-adv-x="1435" d="M135 0v1446h55v-1446h-55zM442 0v575h340l295 -575h-63l-264 522h-252v-522h-56zM442 760v448h340q51 0 95 -10t86 -33.5t67 -70.5t25 -113q0 -58 -24 -102.5t-64.5 -69.5t-87 -37t-97.5 -12h-340zM442 1393v53h336q59 0 103.5 -2t108.5 -12.5t111.5 -28.5t99 -53 t84 -82.5t54 -121t21.5 -165.5q0 -79 -22.5 -146t-61.5 -114t-82 -79t-94 -54l309 -588h-61l-324 614q129 36 205 131t76 236q0 65 -12 119t-31 94t-49 71.5t-60 52t-72 35t-75.5 22.5t-79.5 12t-76 5t-72 1h-336zM498 813h284q33 0 67 8t69.5 25t58 52t22.5 83 q0 174 -217 174h-284v-342z" />
<glyph unicode="S" horiz-adv-x="1353" d="M47 233l47 41q146 -153 293.5 -211.5t335.5 -60.5h7q121 0 221 33q103 34 169 93t101.5 136t35.5 162q0 156 -112.5 259t-362.5 151l-170 30q-225 38 -225 207q0 78 75 137.5t218 59.5q126 0 218 -46t179 -143l-39 -39q-86 93 -165.5 132.5t-192.5 39.5 q-114 0 -176 -41.5t-62 -99.5q0 -121 179 -151l170 -33q277 -58 399.5 -169t122.5 -292q0 -91 -37 -175.5t-107.5 -153.5t-186 -110.5t-259.5 -41.5q-220 0 -378 68t-298 218zM78 1053q0 200 161.5 323t426.5 123q355 0 596 -237l-41 -41q-212 223 -555 223 q-239 0 -386 -108t-147 -283q0 -156 115.5 -262t296.5 -136l186 -34q67 -13 112 -27.5t86.5 -39.5t62 -63.5t20.5 -91.5q0 -98 -75 -157.5t-204 -59.5t-256 63t-221 177l43 37q91 -103 206 -162t228 -59q115 0 168 45.5t53 115.5q0 71 -59.5 108t-175.5 60l-182 33 q-206 34 -332.5 151.5t-126.5 301.5z" />
<glyph unicode="T" horiz-adv-x="1114" d="M0 1155v53h430v-1208h-55v1155h-375zM0 1393v53h1114v-53h-1114zM684 0v1208h430v-53h-375v-1155h-55z" />
<glyph unicode="U" horiz-adv-x="1466" d="M113 586v860h55v-860q0 -134 44.5 -242.5t122 -178.5t179.5 -107.5t219 -37.5t219 37.5t179.5 107.5t122 178.5t44.5 242.5v860h56v-860q0 -146 -49 -264.5t-134 -195t-197.5 -118t-240.5 -41.5t-240.5 41.5t-197 118t-133.5 195t-49 264.5zM418 565v881h55v-881 q0 -138 71 -218.5t189 -80.5t189 80.5t71 218.5v881h56v-881q0 -158 -85 -255t-231 -97t-230.5 97t-84.5 255z" />
<glyph unicode="V" horiz-adv-x="1445" d="M0 1446h61l476 -1446h-62zM344 1446h57l322 -1100l321 1100h58l-354 -1206h-50zM909 0l475 1446h62l-475 -1446h-62z" />
<glyph unicode="W" horiz-adv-x="2123" d="M2 1446h57l377 -1446h-57zM344 1446h55l215 -983l260 983h58l-287 -1059h-67zM743 0l287 1012h66l286 -1012h-59l-260 936l-262 -936h-58zM1194 1446h57l260 -983l215 983h56l-234 -1059h-67zM1688 0l376 1446h58l-377 -1446h-57z" />
<glyph unicode="X" horiz-adv-x="1417" d="M2 0l502 733l-481 713h71l479 -713l-499 -733h-72zM360 0l349 539l348 -539h-72l-276 438l-277 -438h-72zM377 1446h72l260 -416l260 416h71l-331 -516zM844 733l479 713h72l-482 -713l502 -733h-72z" />
<glyph unicode="Y" horiz-adv-x="1417" d="M0 1446h70l514 -811v-635h-56v616zM354 1446h66l291 -508l288 508h66l-354 -604zM829 0v645l521 801h67l-532 -819v-627h-56z" />
<glyph unicode="Z" horiz-adv-x="1239" d="M33 0v53h1186v-53h-1186zM33 209v82l700 864h-655v53h776zM78 1393v53h1120v-53h-1120zM362 238l836 1007v-82l-713 -872h734v-53h-857z" />
<glyph unicode="[" horiz-adv-x="710" d="M139 -295v1890h459v-53h-403v-1784h403v-53h-459zM449 -55v1411h149v-53h-94v-1305h94v-53h-149z" />
<glyph unicode="\" horiz-adv-x="1024" d="M33 1446h61l623 -1446h-62zM324 1446h61l623 -1446h-62z" />
<glyph unicode="]" horiz-adv-x="710" d="M113 -2h94v1305h-94v53h149v-1411h-149v53zM113 -242h403v1784h-403v53h458v-1890h-458v53z" />
<glyph unicode="^" horiz-adv-x="1482" d="M150 575l438 871h319l426 -871h-61l-400 816h-251l-410 -816h-61zM444 575l281 652h55l275 -652h-60l-241 576l-248 -576h-62z" />
<glyph unicode="_" horiz-adv-x="1019" d="M-25 -248h1065v-59h-1065v59zM-25 -485h1065v-56h-1065v56z" />
<glyph unicode="`" horiz-adv-x="909" d="M256 1475h84l313 -273h-84z" />
<glyph unicode="a" horiz-adv-x="1191" d="M90 297q0 159 93 245t272 115l309 50v32q0 154 -150 154q-139 0 -139 -127h-55q0 20 3 39.5t15 46t31.5 45.5t57 33t87.5 14q107 0 156 -60t49 -145v-71l-360 -62q-140 -24 -227 -97.5t-87 -199.5q0 -145 90 -227t246 -82q211 0 338 172v-172h-55v45q-43 -38 -123 -68 t-160 -30q-179 0 -285 93t-106 257zM139 766q0 87 42 153.5t113 104t155 56t178 18.5q61 0 122 -10t124.5 -35.5t111.5 -63.5t78.5 -100.5t30.5 -140.5v-748h-56v745q0 67 -26 120t-67 86t-96.5 54.5t-110 30t-111.5 8.5q-66 0 -126 -8.5t-116.5 -29t-97.5 -51.5 t-65.5 -79.5t-24.5 -109.5h-58zM369 317q0 -91 54 -139.5t144 -48.5q124 0 188 83.5t64 211.5v137l-276 -49q-174 -39 -174 -195zM424 297q0 24 1.5 39t8.5 38t20.5 37.5t39.5 28.5t63 21l207 37v-88q0 -112 -54.5 -170t-134.5 -58q-79 0 -115 37t-36 78z" />
<glyph unicode="b" horiz-adv-x="1306" d="M133 0v1446h55v-1446h-55zM377 549q0 83 19 147.5t49.5 104t72.5 65t84.5 35.5t89.5 10q55 0 101 -19t76.5 -50.5t53 -70t35 -82t18 -81t5.5 -71.5q0 -43 -7 -90.5t-26.5 -103.5t-50.5 -99.5t-84 -73t-121 -29.5q-65 0 -118.5 23t-89.5 62t-60.5 92t-35.5 110.5 t-11 120.5zM385 0v193q140 -193 350 -193q115 0 203.5 45.5t140.5 123t77.5 171.5t25.5 201q0 116 -39 213.5t-102.5 159.5t-140.5 96t-155 34q-114 0 -194.5 -33t-165.5 -126v561h55v-447q38 36 115 67.5t190 31.5q97 0 185 -38t156.5 -107.5t109.5 -176t41 -233.5 q0 -120 -31.5 -226t-91.5 -189.5t-158 -132t-221 -48.5q-166 0 -295 110v-57h-55zM432 549q0 -67 14.5 -127.5t44.5 -112.5t81.5 -83t119.5 -31q54 0 96.5 22.5t67.5 57t41.5 81t22.5 90.5t6 89q0 55 -13.5 109.5t-40 103.5t-73.5 79.5t-107 30.5q-260 0 -260 -309z" />
<glyph unicode="c" horiz-adv-x="1128" d="M68 510q0 103 25 191.5t69 151.5t99.5 111t120.5 77t128.5 43t126.5 14q52 0 94.5 -4.5t94.5 -19.5t95 -41t89.5 -72.5t85.5 -110.5l-54 -31q-79 132 -173.5 178.5t-231.5 46.5q-68 0 -137 -18t-137.5 -59.5t-121 -101.5t-85.5 -152t-33 -203q0 -104 30.5 -190.5 t81.5 -144.5t118.5 -98.5t138.5 -58.5t145 -18q142 0 242 66.5t168 209.5l53 -30q-159 -299 -463 -299q-82 0 -161 19.5t-153.5 63.5t-130.5 108t-90 160t-34 212zM336 520q0 67 19.5 134.5t55.5 125.5t95 94.5t131 36.5q176 0 266 -176l-51 -28q-29 61 -82.5 106t-132.5 45 q-60 0 -109 -34t-77.5 -87t-44 -109.5t-15.5 -107.5q0 -42 8.5 -86t28 -87.5t47.5 -77.5t70 -55t92 -21q167 0 231 186l54 -31q-16 -39 -40 -73.5t-58 -66.5t-82.5 -50.5t-104.5 -18.5q-75 0 -134.5 34t-95 89.5t-53.5 121.5t-18 136z" />
<glyph unicode="d" horiz-adv-x="1302" d="M66 543q0 127 40.5 233.5t109 176t156.5 107.5t185 38q113 0 190 -31.5t115 -67.5v447h56v-561q-85 92 -166 125.5t-195 33.5q-78 0 -154.5 -34t-140 -96t-102.5 -159.5t-39 -213.5q0 -85 15.5 -162t50 -147t85.5 -121t126.5 -81t168.5 -30q211 0 351 193v-193h-56v57 q-129 -110 -295 -110q-99 0 -182 32t-141.5 87t-99 131t-59.5 163t-19 183zM322 537q0 42 7.5 87.5t28 98t51 93.5t83 68t118.5 27q47 0 89.5 -10t85 -36t73 -65.5t49.5 -104.5t19 -148q0 -79 -18.5 -149.5t-55 -129t-99 -93t-143.5 -34.5q-68 0 -121 29.5t-83.5 73 t-50.5 100t-26.5 103.5t-6.5 90zM377 535q0 -58 10.5 -112.5t35 -108.5t72.5 -86.5t115 -32.5q68 0 119.5 30.5t81.5 82t44.5 112t14.5 127.5q0 311 -260 311q-60 0 -107 -30.5t-73 -79.5t-39.5 -103.5t-13.5 -109.5zM1114 0v1446h55v-1446h-55z" />
<glyph unicode="e" horiz-adv-x="1193" d="M66 510q0 85 16.5 164.5t56.5 158t101 136t157 93.5t217 36t217 -36.5t155 -94t97 -135.5t53 -153.5t15 -154.5v-71h-764v-13q0 -109 66.5 -181.5t173.5 -72.5q106 0 177.5 51.5t98.5 127.5l53 -27q-34 -90 -125.5 -147.5t-203.5 -57.5q-57 0 -108 18.5t-94.5 55 t-69 100.5t-25.5 146v53h766v18q-1 81 -17 153.5t-52.5 140.5t-90.5 117.5t-136.5 79t-185.5 29.5q-109 0 -195.5 -33t-141 -86t-91 -124.5t-51 -143.5t-14.5 -149q0 -230 141.5 -369t364.5 -139q152 0 272 69t188 201l52 -26q-161 -297 -512 -297q-248 0 -404.5 153.5 t-156.5 409.5zM330 614q0 41 9 82.5t30.5 83.5t53 74t80.5 52t109 20q134 0 205.5 -86t71.5 -226h-559zM395 668h426q-8 89 -62 146.5t-147 57.5q-53 0 -95 -20t-66.5 -52.5t-38 -65.5t-17.5 -66z" />
<glyph unicode="f" horiz-adv-x="706" d="M10 821h168v-821h55v874h-223v-53zM10 991v53h168v154q0 136 91 218.5t231 82.5q96 0 188 -45v-57q-36 17 -90 33t-98 16q-125 0 -196 -72t-71 -196v-187h-223zM436 0h56v821h208v53h-264v-874zM440 991v164q0 75 32 106t93 31q26 0 57 -6t48 -12l18 -6v-56 q-70 27 -123 27q-43 0 -58 -15t-15 -59v-121h208v-53h-260z" />
<glyph unicode="g" horiz-adv-x="1292" d="M66 565q0 127 40.5 230t109 168t156.5 100t185 35q113 0 190 -31.5t115 -67.5v45h56v-159q-85 92 -166 125.5t-195 33.5q-63 0 -124.5 -18.5t-117.5 -58.5t-99.5 -95.5t-69 -135.5t-25.5 -173q0 -101 25.5 -187.5t77.5 -155t138.5 -107.5t200.5 -39t199.5 42t155.5 128 v-260q0 -127 -69.5 -199t-191.5 -72q-237 0 -237 250h55v-2q0 -194 191 -194q89 0 142.5 55.5t53.5 152.5v144q-110 -99 -305 -99q-122 0 -217 40.5t-154.5 114t-89.5 172t-30 218.5zM150 -37h55v-33q0 -68 25 -123t66.5 -91t98 -61t116.5 -35.5t124 -10.5q225 0 352 105.5 t127 310.5v1019h55v-1011q0 -221 -138.5 -348t-395.5 -127q-220 0 -352.5 98.5t-132.5 271.5v35zM322 563q0 41 7.5 84.5t28 92t51 85.5t83 61.5t118.5 24.5q62 0 117.5 -21.5t100.5 -63t71.5 -109.5t26.5 -154q0 -155 -82 -251.5t-236 -96.5q-68 0 -121 24.5t-83 61 t-49.5 85.5t-26 91.5t-6.5 85.5zM377 563q0 -52 12 -101t37 -94t72 -72.5t110 -27.5q132 0 197 79.5t65 215.5q0 141 -76 218t-184 77q-60 0 -106.5 -26.5t-73.5 -70t-40 -94t-13 -104.5z" />
<glyph unicode="h" horiz-adv-x="1216" d="M133 0v1446h55v-1446h-55zM385 0v549q0 101 19 174t53.5 113t74.5 57.5t89 17.5t87 -14t61.5 -37.5t39 -57t21.5 -69.5t6 -78v-655h-56v637q0 109 -35.5 165t-123.5 56q-181 0 -181 -309v-549h-55zM385 885v561h55v-432q35 35 104 59.5t152 24.5q99 0 170.5 -22t124 -73 t78 -137.5t25.5 -210.5v-655h-56v645q0 115 -24 194.5t-71 123.5t-106.5 62.5t-140.5 18.5q-200 0 -311 -159z" />
<glyph unicode="i" horiz-adv-x="587" d="M137 0v1044h56v-1044h-56zM137 1202v244h56v-244h-56zM395 0v1044h56v-1044h-56zM395 1202v244h56v-244h-56z" />
<glyph unicode="j" horiz-adv-x="583" d="M0 -188q23 -2 43 -2q28 0 47 7.5t29 17.5t15 30.5t6 36.5t1 45v1097h56v-1097q0 -105 -36 -147t-102 -42q-39 0 -59 2v52zM0 -385q70 -6 133 -6q99 0 154 25t83.5 93.5t28.5 194.5v1122h56v-1114q0 -207 -73 -289.5t-239 -82.5q-67 0 -143 6v51zM141 1204v242h56v-242 h-56zM399 1204v242h56v-242h-56z" />
<glyph unicode="k" horiz-adv-x="1189" d="M133 0h55v1446h-55v-1446zM391 0v350l193 197l325 -547h-61l-275 463l-127 -131v-332h-55zM391 573v873h55v-739l320 337h72zM731 696l342 348h72l-348 -354l409 -690h-63z" />
<glyph unicode="l" horiz-adv-x="579" d="M133 0v1446h55v-1446h-55zM391 0v1446h55v-1446h-55z" />
<glyph unicode="m" horiz-adv-x="1826" d="M137 0v1044h56v-1044h-56zM389 0v524q0 101 21.5 176t58 116.5t79 61t91.5 19.5q90 0 132 -51.5t42 -153.5v-692h-55v692q0 85 -29 118.5t-90 33.5q-88 0 -141.5 -78.5t-53.5 -241.5v-524h-55zM389 836v208h55v-73q35 45 109.5 86t167.5 41q103 0 181 -42t116 -122 q109 164 319 164q180 0 268.5 -106.5t88.5 -305.5v-686h-56v676q0 177 -78 272.5t-223 95.5q-55 0 -103 -14t-80 -32.5t-63 -50.5t-47 -54t-38 -57q-74 208 -285 208q-104 0 -189.5 -60t-142.5 -148zM1016 0v524q0 101 20.5 176t56.5 116.5t78 61t91 19.5q84 0 129 -53 t45 -152v-692h-56v692q0 152 -118 152q-87 0 -139 -78t-52 -242v-524h-55z" />
<glyph unicode="n" horiz-adv-x="1216" d="M133 0v1044h55v-1044h-55zM385 0v547q0 179 69.5 271.5t166.5 92.5q49 0 87 -14t61.5 -37.5t39 -57t21.5 -69.5t6 -78v-655h-56v637q0 109 -35.5 165t-123.5 56q-80 0 -130.5 -79.5t-50.5 -231.5v-547h-55zM385 872v172h55v-43q36 36 113 66.5t158 30.5q199 0 291 -99 t92 -344v-655h-56v645q0 116 -21.5 195t-65.5 123t-101.5 62.5t-138.5 18.5q-99 0 -184.5 -46t-141.5 -126z" />
<glyph unicode="o" d="M74 518q0 124 33.5 224t89 165.5t130.5 109.5t154 62.5t164 18.5t164 -18.5t154.5 -62t131 -108.5t89 -165t33.5 -224q0 -116 -34.5 -213t-91 -162.5t-131.5 -111t-154.5 -66t-160.5 -20.5q-82 0 -161 20.5t-154 65.5t-131.5 110t-90.5 162t-34 213zM129 518 q0 -104 31 -191.5t82 -146.5t118.5 -100.5t139.5 -60.5t145 -19t145 19t139.5 60.5t118.5 101t82 147.5t31 192q0 112 -30 202t-80 149t-117.5 99t-139.5 57t-149 17t-149 -17.5t-139.5 -57.5t-117.5 -99t-80 -149.5t-30 -202.5zM344 520q0 105 32.5 190.5t102 140 t166.5 54.5t166.5 -54.5t102 -140t32.5 -190.5q0 -167 -75.5 -270t-225.5 -103t-225.5 103t-75.5 270zM399 520q0 -87 24.5 -157t81.5 -116t140 -46t140 46t81.5 116t24.5 157q0 84 -25.5 157.5t-83 124t-137.5 50.5t-137.5 -50.5t-83 -124t-25.5 -157.5z" />
<glyph unicode="p" horiz-adv-x="1292" d="M129 -371v1415h55v-1415h-55zM373 524q0 103 28 181t75 121t100.5 64t111.5 21q55 0 101 -19t76.5 -50.5t53 -70t35 -82t18 -81t5.5 -71.5q0 -43 -7 -90.5t-26.5 -103.5t-50.5 -99.5t-84 -73t-121 -29.5q-82 0 -144 31t-98.5 85t-54.5 121t-18 146zM381 180 q57 -79 145 -129.5t205 -50.5q115 0 203.5 45.5t140.5 123t77.5 171.5t25.5 201q0 116 -39 213.5t-102.5 159.5t-140.5 96t-155 34q-109 0 -190.5 -38.5t-169.5 -133.5v172h55v-57q118 111 305 111q97 0 185 -38t156.5 -107.5t109.5 -176t41 -233.5q0 -120 -31.5 -226 t-91.5 -189.5t-158 -132t-221 -48.5q-180 0 -295 98v-416h-55v551zM428 524q0 -66 14.5 -123.5t44.5 -104.5t81.5 -74t119.5 -27q54 0 96.5 22.5t67.5 57t41.5 81t22.5 90.5t6 89q0 55 -13.5 109.5t-40 103.5t-73.5 79.5t-107 30.5q-52 0 -97 -18t-82.5 -55.5t-59 -104 t-21.5 -156.5z" />
<glyph unicode="q" horiz-adv-x="1296" d="M63 543q0 127 41 233.5t109.5 176t156.5 107.5t185 38q187 0 305 -111v57h55v-172q-88 95 -169.5 133.5t-190.5 38.5q-78 0 -154.5 -34t-140 -96t-102.5 -159.5t-39 -213.5q0 -85 15.5 -162t50 -147t85.5 -121t126.5 -81t168.5 -30q117 0 205 50.5t145 129.5v-551h-55 v416q-115 -98 -295 -98q-123 0 -221 48.5t-158 132t-91.5 189.5t-31.5 226zM319 537q0 34 5.5 71.5t18 81t35 82t53 70t76.5 50.5t101 19q46 0 89.5 -12.5t85 -41.5t72.5 -72.5t50 -110.5t19 -150q0 -106 -31 -190t-104 -138.5t-181 -54.5q-68 0 -121 29.5t-84 73 t-50.5 99.5t-26.5 103.5t-7 90.5zM375 535q0 -58 10.5 -112.5t35 -108.5t72.5 -86.5t115 -32.5q68 0 119.5 27t81.5 74t44.5 104.5t14.5 123.5q0 90 -21.5 156.5t-59 104t-82.5 55.5t-97 18q-60 0 -107 -30.5t-73 -79.5t-39.5 -103.5t-13.5 -109.5zM1112 -371v1415h55v-1415 h-55z" />
<glyph unicode="r" horiz-adv-x="751" d="M131 0v1044h55v-1044h-55zM383 0v537q0 89 28 153.5t76 98.5t100.5 49.5t112.5 15.5h41v-53h-36q-52 0 -97 -13t-84.5 -41.5t-62.5 -82t-23 -127.5v-537h-55zM383 872v172h55v-47q122 101 260 101h43v-54h-43q-167 0 -315 -172z" />
<glyph unicode="s" horiz-adv-x="1097" d="M31 166l45 41q77 -87 205 -147t288 -60q62 0 122.5 12t116.5 38.5t98 64t67.5 93.5t25.5 122q0 111 -78.5 183t-252.5 105l-76 15q-113 23 -170 60t-57 98q0 56 56.5 91.5t153.5 35.5q87 0 168 -34.5t142 -84.5l-45 -41q-130 106 -265 106q-155 0 -155 -73 q0 -39 40.5 -64.5t133.5 -44.5l76 -14q190 -36 287.5 -115.5t97.5 -222.5q0 -77 -29 -141.5t-77.5 -108.5t-112 -74.5t-131 -44.5t-136.5 -14q-183 0 -319.5 63.5t-218.5 155.5zM106 741q0 70 29 133t84 113.5t143 80.5t197 30q264 0 475 -160l-45 -41q-77 66 -188.5 106.5 t-241.5 40.5q-185 0 -291 -82.5t-106 -220.5q0 -43 14 -81.5t46 -76.5t94 -67.5t149 -44.5l96 -16q71 -11 116.5 -25.5t68.5 -35t31.5 -42.5t8.5 -53q0 -74 -54.5 -117t-156.5 -43q-109 0 -208 43t-177 125l41 41q69 -73 162 -114t182 -41q80 0 118 25t38 81q0 42 -39 63 t-131 35l-96 17q-359 61 -359 327z" />
<glyph unicode="t" horiz-adv-x="706" d="M10 821v53h223v-606q0 -124 71 -196t196 -72q44 0 98 16t90 33v-53q-84 -41 -188 -41q-141 0 -231.5 79t-90.5 214v573h-168zM10 991v53h168v402h55v-455h-223zM436 991v455h56v-402h208v-53h-264zM440 303v571h260v-53h-208v-528q0 -86 73 -86q24 0 54.5 6.5t49.5 12.5 l19 7v-53q-64 -24 -123 -24q-20 0 -38.5 5t-39.5 19t-34 45.5t-13 77.5z" />
<glyph unicode="u" horiz-adv-x="1218" d="M127 389v655h55v-653q0 -112 23.5 -190t69.5 -121t105 -61.5t140 -18.5q92 0 176 46t140 126v-172h-56v43q-36 -36 -112.5 -66t-157.5 -30q-97 0 -166 22t-119 72.5t-74 136.5t-24 211zM385 389v655h55v-636q0 -108 36 -165t124 -57q80 0 130 80t50 232v546h56v-546 q0 -180 -69.5 -272.5t-166.5 -92.5q-49 0 -87 14t-61.5 37.5t-39 57t-21.5 69.5t-6 78zM1032 0v1044h55v-1044h-55z" />
<glyph unicode="v" horiz-adv-x="1056" d="M-2 1044h61l347 -1044h-62zM287 1044h61l191 -663l176 663h61l-237 -870zM647 0l346 1044h62l-346 -1044h-62z" />
<glyph unicode="w" horiz-adv-x="1617" d="M-2 1044h61l285 -1044h-61zM274 1044h66l145 -659l158 659h66l-224 -870zM598 0l207 758l209 -758h-58l-151 553l-150 -553h-57zM903 1044h66l157 -659l146 659h65l-211 -870zM1268 0l284 1044h62l-285 -1044h-61z" />
<glyph unicode="x" horiz-adv-x="1173" d="M4 0l402 555l-359 489h72l354 -489l-397 -555h-72zM299 0l289 416l289 -416h-72l-217 328l-217 -328h-72zM342 1044h72l174 -262l174 262h72l-246 -350zM700 555l355 489h71l-358 -489l401 -555h-71z" />
<glyph unicode="y" horiz-adv-x="1013" d="M0 1044h63l304 -981q16 -51 16 -93q0 -15 -2 -29q-3 -16 -11.5 -33t-25.5 -36t-49 -30.5t-74 -11.5h-135v53h135q51 0 77 21t28 55v11q0 34 -15 79zM86 -315h215q122 0 187 63.5t110 204.5l354 1091h60l-369 -1130q-90 -283 -340 -283h-217v54zM264 1044l248 -870 l238 870h-58l-178 -677l-188 677h-62z" />
<glyph unicode="z" horiz-adv-x="1083" d="M70 0v236l551 567h-517v53h648l-627 -643v-160h895v-53h-950zM104 991v53h916v-241l-543 -559h543v-54h-674l619 635v166h-861z" />
<glyph unicode="{" horiz-adv-x="802" d="M0 559v55h8q92 -6 137.5 -29t65.5 -78.5t20 -164.5v-315q0 -155 49.5 -215t188.5 -60h221v-55h-221q-166 0 -229.5 70.5t-63.5 259.5v315q0 88 -16 132t-51.5 62t-108.5 23zM0 684v55q73 5 108.5 23t51.5 62t16 132v316q0 189 63.5 259.5t229.5 70.5h221v-56h-221 q-139 0 -188.5 -59.5t-49.5 -214.5v-316q0 -109 -20 -164.5t-65.5 -78.5t-137.5 -29h-8zM309 616v66q89 27 132.5 84.5t43.5 157.5v241q0 109 40.5 153t131.5 44h33v-55h-33q-71 0 -93.5 -26t-22.5 -116v-241q0 -120 -40 -181.5t-126 -93.5q86 -32 126 -94t40 -180v-242 q0 -90 22.5 -115.5t93.5 -25.5h33v-55h-33q-91 0 -131.5 43.5t-40.5 152.5v242q0 99 -43 156.5t-133 84.5z" />
<glyph unicode="|" horiz-adv-x="524" d="M78 -293v1888h55v-1888h-55zM387 -293v1888h55v-1888h-55z" />
<glyph unicode="}" horiz-adv-x="802" d="M113 -8h32q71 0 94 25.5t23 115.5v242q0 118 40 180t126 94q-86 32 -126 93.5t-40 181.5v241q0 90 -23 116t-94 26h-32v55h32q91 0 131.5 -44t40.5 -153v-241q0 -99 43.5 -157t133.5 -85v-66q-90 -27 -133.5 -84.5t-43.5 -156.5v-242q0 -109 -40.5 -152.5t-131.5 -43.5 h-32v55zM113 -248h221q138 0 187.5 60t49.5 215v315q0 83 9.5 132t37 80t67.5 43t110 17h8v-55q-73 -5 -108.5 -23t-51.5 -62t-16 -132v-315q0 -189 -63.5 -259.5t-229.5 -70.5h-221v55zM113 1546v56h221q166 0 229.5 -70.5t63.5 -259.5v-316q0 -88 16 -132t51.5 -62 t108.5 -23v-55h-8q-70 5 -110 17t-67.5 43t-37 80t-9.5 132v316q0 155 -49 214.5t-188 59.5h-221z" />
<glyph unicode="~" horiz-adv-x="1187" d="M92 451v75l17 25q49 63 95.5 88t114.5 25q47 0 99.5 -18t138.5 -60l-2 2q11 -5 36 -18.5t36 -18.5q84 -41 133 -56.5t92 -15.5q69 0 133 33.5t111 87.5v-74q-116 -102 -244 -102q-48 0 -102 17t-146 61l-72 35q-80 38 -126 54.5t-87 16.5q-62 0 -106.5 -27t-103.5 -108z M92 745v70q104 96 227 96q50 0 101.5 -15t146.5 -58l117 -54q125 -57 193 -57q49 0 95.5 28.5t123.5 114.5v-73l-15 -15q-63 -65 -104 -87.5t-100 -22.5q-85 0 -215 61h2l-119 53q-91 40 -138 55t-88 15q-67 0 -120.5 -26t-106.5 -85z" />
<glyph unicode="&#xa1;" horiz-adv-x="598" d="M170 31l76 600h53l-74 -611v-421h-55v432zM170 754v290h55v-237h254v237h56v-290h-365zM406 631h53l76 -600v-432h-56v421z" />
<glyph unicode="&#xa2;" horiz-adv-x="1226" d="M84 528q0 67 16.5 137.5t60 147.5t108 137t170.5 100t239 42v188h55v-190q287 -18 447 -281l-52 -27q-85 133 -187.5 192.5t-246.5 59.5q-119 0 -216 -31.5t-159 -82.5t-103.5 -118.5t-59 -135.5t-17.5 -138q0 -72 19 -142.5t63 -138t107 -118.5t159.5 -82t212.5 -31 q146 0 257 69.5t176 190.5q49 -26 51 -26q-27 -47 -64 -90t-91.5 -88t-131.5 -74t-164 -33v-190h-55v190q-131 3 -236 42t-170.5 97.5t-109 134t-61 147.5t-17.5 142zM397 532q0 175 82 273t217 98q96 0 180 -50t119 -140l-51 -27q-27 70 -83 110t-128 48v-629q72 8 126 49 t81 113l51 -27q-36 -93 -113 -143.5t-178 -50.5q-135 0 -219 101.5t-84 274.5zM453 532q0 -78 18 -138t42.5 -92t58.5 -53t57.5 -27.5t48.5 -8.5v633q-23 -2 -46 -7.5t-57 -26t-59.5 -52.5t-44 -91t-18.5 -137z" />
<glyph unicode="&#xa3;" horiz-adv-x="1409" d="M31 227q0 31 9.5 65t34 71.5t61.5 67t98.5 48.5t138.5 19q73 0 125 -21q-95 170 -179 281h-200v55h168q-68 122 -68 227q0 28 3 56t16 70.5t34.5 79t62 75.5t94.5 66.5t137.5 45t185.5 17.5q101 0 192 -31t165 -91.5t117.5 -162t43.5 -231.5h-56q0 99 -30 180t-77.5 132 t-110 86t-123.5 49t-121 14q-96 0 -173.5 -17t-125.5 -41t-83 -61t-51.5 -67t-26 -69.5t-10.5 -58t-1 -41.5q0 -123 108 -282q43 -63 105 -168.5t102 -190.5q-121 50 -223 50q-64 0 -116 -16t-83 -40t-51.5 -55t-28.5 -58.5t-8 -52.5q0 -51 25.5 -91.5t66.5 -63.5t87 -35 t91 -12q95 0 190.5 48.5t155.5 137.5q9 -6 43.5 -30t45.5 -31.5t41 -27t44.5 -27t41 -20.5t44.5 -18t41 -9.5t44 -4.5q44 0 80 17.5t59 42t41 67t27 76t15 85.5t7.5 80t3.5 74h55q-2 -50 -4 -83.5t-9.5 -90t-18.5 -96t-33 -86t-50.5 -74.5t-73 -47.5t-99.5 -19.5 q-19 0 -38.5 2.5t-35 5.5t-35.5 10.5t-32.5 12t-33.5 16.5t-30.5 17t-32.5 20t-29.5 19.5t-32 22t-30.5 21.5q-53 -80 -153.5 -123t-207.5 -43q-55 0 -110 15t-104 44.5t-80 81t-31 117.5zM201 227q0 51 44.5 95.5t125.5 44.5q48 0 100.5 -20.5t93.5 -49.5q0 -76 -64 -140.5 t-149 -64.5q-59 0 -105 36t-46 99zM256 227q0 -37 29.5 -58.5t66.5 -21.5q59 0 106.5 40.5t47.5 74.5q-58 49 -135 49q-55 0 -85 -26.5t-30 -57.5zM498 1020q0 95 63 164t168 69q115 0 198 -83.5t83 -235.5h-56q0 119 -64 191.5t-155 72.5q-89 0 -135.5 -53t-46.5 -127 q0 -55 21.5 -101t62.5 -104h319v-55h-290l104 -166q59 -90 59 -180q0 -55 -14 -88l35 -27q62 -43 98 -43q23 0 36.5 7t26.5 29.5t19.5 70.5t7.5 124h56q-2 -93 -13 -152t-32 -87.5t-43.5 -37.5t-57.5 -9q-59 0 -129 55l-61 47q20 40 20 100q0 87 -49 160l-154 242 q-40 62 -58.5 108.5t-18.5 108.5z" />
<glyph unicode="&#xa5;" horiz-adv-x="1382" d="M0 1417h70l497 -782v-635h-55v373h-377v53h377v154h-377v53h367zM354 1417h66l274 -479l271 479h65l-336 -575zM813 0v645l502 772h67l-510 -784h373v-53h-377v-154h377v-53h-377v-373h-55z" />
<glyph unicode="&#xa6;" horiz-adv-x="555" d="M131 0v612h62v-612h-62zM131 834v612h62v-612h-62zM367 0v612h57v-612h-57zM367 834v612h57v-612h-57z" />
<glyph unicode="&#xa7;" horiz-adv-x="1236" d="M43 606q0 50 13 93.5t29 71t47 56.5t48.5 41t52.5 35q-33 41 -47 85t-14 112q0 67 23.5 121t61 89t88 59t102.5 34t106 10q243 0 500 -139l-29 -49q-248 133 -471 133q-46 0 -90.5 -8.5t-87.5 -28t-75.5 -48.5t-52.5 -73.5t-20 -99.5q0 -143 99 -191l657 -329 q131 -66 135 -177q31 64 31 121q0 101 -83.5 180t-236.5 150l-208 94q-92 42 -135.5 71.5t-53.5 49.5t-10 55q0 115 166 115q53 0 104.5 -10.5t108 -35t80 -36t80.5 -41.5l-29 -49q-4 2 -29.5 16t-34 18t-33 16.5t-38 18t-37 15t-41.5 14t-41 10t-45 7.5t-45 2 q-111 0 -111 -60q0 -20 8 -32.5t44.5 -35t113.5 -57.5l209 -94q174 -78 263 -167t89 -214q0 -51 -13.5 -97.5t-31 -77.5t-47 -62.5t-48.5 -46.5t-48 -37q55 -60 55 -172q0 -134 -107.5 -229t-279.5 -95q-135 0 -248 38t-237 105l28 50q121 -65 227 -101.5t230 -36.5 q147 0 239.5 76.5t92.5 179.5q0 129 -90 185l-656 354q-50 26 -76 70t-26 88q0 54 33 102q-103 -92 -103 -211q0 -30 7 -58.5t17 -51t30 -46t35 -40t45 -36.5t47.5 -31.5t53.5 -30t52 -26.5t55 -26l205 -92q87 -39 133.5 -82t46.5 -82q0 -48 -43.5 -84.5t-126.5 -36.5 q-43 0 -90 9.5t-76.5 18t-80.5 32.5t-63 30t-62 33l28 49q4 -2 27 -14.5t30 -16t29.5 -15t33 -16t33 -14t36.5 -13.5t35.5 -10.5t39 -9t39 -5t41.5 -2.5q56 0 85.5 19.5t29.5 45.5q0 47 -147 113l-205 94q-51 24 -77 36.5t-73 38.5t-72.5 45.5t-59 51.5t-51 63t-30 72.5 t-12.5 87.5zM223 725q0 -79 76 -121l674 -364q28 22 69 63q18 20 25.5 47t2.5 58t-33.5 63.5t-78.5 58.5l-675 338q-28 -32 -44 -72.5t-16 -70.5z" />
<glyph unicode="&#xa8;" horiz-adv-x="956" d="M231 1221v254h56v-254h-56zM373 1221v254h55v-254h-55zM514 1221v254h55v-254h-55zM655 1221v254h56v-254h-56z" />
<glyph unicode="&#xa9;" horiz-adv-x="1685" d="M115 725q0 200 97 367.5t264.5 264.5t367.5 97q196 0 364 -96t266.5 -261t98.5 -358q0 -157 -56 -295t-152.5 -236t-232.5 -155t-290 -57q-198 0 -365.5 97t-264.5 264.5t-97 367.5zM170 725q0 -138 53 -263t143 -215t214.5 -143t261.5 -53q143 0 268.5 52.5t215 143.5 t141 219t51.5 273q0 178 -91 330t-246.5 241t-336.5 89q-138 0 -263 -53t-215 -143t-143 -215t-53 -263zM352 729q0 170 71 291t190 179t272 58q121 0 235.5 -58t173.5 -146l-41 -37q-59 84 -154 135t-214 51q-217 0 -347 -121.5t-130 -347.5v-4q0 -226 130 -347.5 t347 -121.5q118 0 218.5 53t158.5 136l41 -37q-70 -91 -182.5 -149t-235.5 -58q-114 0 -210.5 33.5t-168.5 98t-113 165t-41 227.5zM662 731q0 139 72.5 224t191.5 85q71 0 122 -25.5t117 -94.5l-41 -39q-57 60 -99 82t-99 22q-94 0 -151.5 -69.5t-57.5 -184.5t57.5 -184.5 t151.5 -69.5q57 0 99 22.5t99 82.5l41 -39q-66 -69 -117.5 -95t-121.5 -26q-119 0 -191.5 85t-72.5 224z" />
<glyph unicode="&#xab;" horiz-adv-x="1161" d="M139 446v310l404 215v-62l-348 -188v-240l348 -184v-61zM406 575v76l137 64v-62l-94 -41l94 -43v-61zM645 446v310l404 215v-62l-349 -188v-240l349 -184v-61zM911 575v76l138 64v-62l-95 -41l95 -43v-61z" />
<glyph unicode="&#xad;" horiz-adv-x="796" d="M92 485v56h613v-56h-613zM92 719v59h613v-59h-613z" />
<glyph unicode="&#xae;" horiz-adv-x="1685" d="M115 725q0 200 97 367.5t264.5 264.5t367.5 97q196 0 364 -96t266.5 -261t98.5 -358q0 -152 -51 -284t-144 -232q-5 -5 -13 -13.5t-15 -15.5t-13 -12l-10 23l-14 31l-197 430q93 47 134.5 101t41.5 126q0 134 -103 214.5t-321 80.5h-428v-1071q-150 98 -237.5 258.5 t-87.5 349.5zM170 725q0 -146 57 -275t158 -223v994q-102 -94 -158.5 -222.5t-56.5 -273.5zM410 1243h458q216 0 348 -91.5t132 -258.5q0 -91 -37 -150t-121 -102l164 -362q78 91 121 209t43 251q0 178 -91 330t-246.5 241t-336.5 89q-244 0 -434 -156zM694 725v332h168 q92 0 134 -39t42 -125q0 -92 -39.5 -130t-134.5 -38h-170zM696 12v576h228l180 -488l12 -34l6 -17l-49 -18q-110 -35 -231 -35q-46 0 -90 6q-22 2 -56 10zM750 780h114q65 0 92 26t27 87q0 57 -29 82.5t-92 25.5h-112v-221zM752 57q46 -6 90 -6q113 0 209 29l-166 452h-133 v-475z" />
<glyph unicode="&#xaf;" horiz-adv-x="776" d="M10 1386v60h531v-60h-531z" />
<glyph unicode="&#xb0;" horiz-adv-x="724" d="M10 1192q0 147 102.5 250.5t249.5 103.5q148 0 250.5 -103t102.5 -251q0 -145 -104 -248.5t-249 -103.5t-248.5 103.5t-103.5 248.5zM70 1192q0 -122 85.5 -209.5t206.5 -87.5t207 87.5t86 209.5q0 125 -84.5 212t-208.5 87q-123 0 -207.5 -87.5t-84.5 -211.5z" />
<glyph unicode="&#xb1;" horiz-adv-x="1482" d="M188 0v55h1106v-55h-1106zM188 209v59h1106v-59h-1106zM188 565v56h426v-244h-55v188h-371zM188 799v59h371v186h55v-245h-426zM868 377v244h426v-56h-370v-188h-56zM868 799v245h56v-186h370v-59h-426z" />
<glyph unicode="&#xb2;" horiz-adv-x="628" d="M123 903v64l215 176q65 53 79 71q25 31 25 76q0 55 -34.5 85t-92.5 30q-137 0 -137 -127v-51h-55v51q0 44 13.5 77.5t33.5 52.5t47.5 31t50.5 15.5t47 3.5q52 0 89.5 -15t57 -39.5t28 -51t8.5 -56.5q0 -29 -7 -54t-14.5 -40.5t-30.5 -38t-35.5 -32.5t-48.5 -39l-169 -136 h313v-53h-383z" />
<glyph unicode="&#xb3;" horiz-adv-x="645" d="M119 1065h59q0 -59 36.5 -89t98.5 -30q75 0 112.5 34t37.5 89q0 48 -36.5 78.5t-98.5 30.5h-58v45h58q104 0 104 96q0 41 -32.5 61.5t-86.5 20.5q-118 0 -118 -103h-56q0 67 43.5 111.5t130.5 44.5q75 0 124.5 -33.5t49.5 -101.5q0 -37 -21.5 -72t-57.5 -45 q58 -14 84 -50.5t26 -82.5q0 -74 -56 -125t-149 -51q-89 0 -141.5 44.5t-52.5 127.5z" />
<glyph unicode="&#xb4;" horiz-adv-x="909" d="M256 1200l313 273h84l-313 -273h-84z" />
<glyph unicode="&#xb5;" horiz-adv-x="1234" d="M131 -317v1361h55v-1361h-55zM389 23q75 -23 152 -23q173 0 299 180v-180h-56v51q-40 -40 -105.5 -72t-137.5 -32q-67 0 -97 10v-274h-55v340zM389 389v655h55v-636q0 -108 36 -165t124 -57q80 0 130 83.5t50 236.5v538h56v-538q0 -180 -70 -276.5t-166 -96.5 q-49 0 -87 14t-61.5 37.5t-39 57t-21.5 69.5t-6 78zM1036 0v1044h56v-1044h-56z" />
<glyph unicode="&#xb6;" horiz-adv-x="968" d="M131 1016q0 215 130 322.5t353 107.5h304v-51h-103v-1737h-55v1737h-146q-34 0 -108 -9v-1728h-55v958q-145 25 -232.5 133.5t-87.5 266.5zM190 1016q0 -132 70.5 -224.5t190.5 -117.5v700q-124 -35 -192.5 -124.5t-68.5 -233.5z" />
<glyph unicode="&#xb7;" horiz-adv-x="483" d="M76 422v342h330v-342h-330zM131 475h219v236h-219v-236z" />
<glyph unicode="&#xb9;" horiz-adv-x="532" d="M113 1393v53h182v-541h-55v488h-127z" />
<glyph unicode="&#xbb;" horiz-adv-x="1161" d="M113 236v61l348 184v240l-348 188v62l403 -215v-310zM113 508v61l94 43l-94 41v62l137 -64v-76zM618 236v61l349 184v240l-349 188v62l404 -215v-310zM618 508v61l95 43l-95 41v62l138 -64v-76z" />
<glyph unicode="&#xbc;" horiz-adv-x="1433" d="M113 1393v53h182v-541h-55v488h-127zM238 0l622 1446h62l-623 -1446h-61zM528 0l623 1446h61l-622 -1446h-62zM928 111v53l297 391h57v-391h104v-53h-104v-111h-55v111h-299zM993 164h234v305z" />
<glyph unicode="&#xbd;" horiz-adv-x="1419" d="M113 1393v53h182v-541h-55v488h-127zM238 0l622 1446h62l-623 -1446h-61zM528 0l623 1446h61l-622 -1446h-62zM938 0v63l215 177q65 53 79 71q25 31 25 76q0 55 -34.5 85t-92.5 30q-137 0 -137 -127v-51h-55v51q0 44 13.5 77.5t33.5 52.5t47.5 31t50.5 15.5t47 3.5 q52 0 89.5 -15t57 -39.5t28 -51t8.5 -56.5q0 -36 -7.5 -63t-29.5 -53t-39 -41t-59 -48l-170 -135h313v-53h-383z" />
<glyph unicode="&#xbe;" horiz-adv-x="1482" d="M119 1065h59q0 -59 36.5 -89t98.5 -30q75 0 112.5 34t37.5 89q0 48 -36.5 78.5t-98.5 30.5h-58v45h58q104 0 104 96q0 41 -32.5 61.5t-86.5 20.5q-118 0 -118 -103h-56q0 67 43.5 111.5t130.5 44.5q75 0 124.5 -33.5t49.5 -101.5q0 -37 -21.5 -72t-57.5 -45 q58 -14 84 -50.5t26 -82.5q0 -74 -56 -125t-149 -51q-89 0 -141.5 44.5t-52.5 127.5zM287 0l622 1446h62l-623 -1446h-61zM578 0l622 1446h62l-623 -1446h-61zM977 111v53l297 391h57v-391h105v-53h-105v-111h-55v111h-299zM1042 164h234v305z" />
<glyph unicode="&#xbf;" horiz-adv-x="1236" d="M141 -33q0 76 22.5 137t56.5 104t95 99l131 119q62 54 62 98v107h55v-86q0 -16 -1 -29.5t-4.5 -25.5t-5.5 -20t-9 -19t-9 -15t-12 -14.5t-12 -12.5t-15 -13.5t-14 -12.5l-151 -135q-39 -35 -65.5 -69.5t-39.5 -59t-20 -56.5t-7.5 -47.5t-0.5 -48.5q0 -48 14.5 -95 t49 -92.5t85 -80t129 -55.5t174.5 -21q213 0 334 91.5t121 258.5v109h55v-109q0 -187 -140 -295t-370 -108q-108 0 -196 24.5t-145 64t-95.5 92t-55 106.5t-16.5 110zM451 -4q0 71 28 116t88 97l133 115q36 31 53.5 71t20 71t2.5 95v70h55v-76q0 -6 0.5 -37t0 -40t-3 -35.5 t-8.5 -41t-15.5 -36.5t-25.5 -40.5t-38 -37.5l-141 -123q-49 -43 -71.5 -80.5t-22.5 -87.5t36 -92.5t113 -42.5q158 0 158 174v47h55v-47q0 -44 -10 -82t-32.5 -72.5t-66 -54t-104.5 -19.5q-62 0 -106 21.5t-63.5 55t-27 60.5t-7.5 52zM487 754v290h56v-237h254v237h55v-290 h-365z" />
<glyph unicode="&#xc0;" horiz-adv-x="1462" d="M0 0l467 1446h59l-467 -1446h-59zM332 0l88 285h614l88 -285h-61l-70 231h-528l-70 -231h-61zM477 481l250 826l250 -826h-500zM520 1888h84l314 -272h-84zM555 535h344l-172 573zM928 1446h59l467 -1446h-59z" />
<glyph unicode="&#xc1;" horiz-adv-x="1462" d="M0 0l467 1446h59l-467 -1446h-59zM332 0l88 285h614l88 -285h-61l-70 231h-528l-70 -231h-61zM477 481l250 826l250 -826h-500zM547 1612l313 272h84l-313 -272h-84zM555 535h344l-172 573zM928 1446h59l467 -1446h-59z" />
<glyph unicode="&#xc2;" horiz-adv-x="1462" d="M0 0l467 1446h59l-467 -1446h-59zM332 0l88 285h614l88 -285h-61l-70 231h-528l-70 -231h-61zM418 1593l309 308l309 -308h-69l-240 234l-240 -234h-69zM477 481l250 826l250 -826h-500zM555 535h344l-172 573zM928 1446h59l467 -1446h-59z" />
<glyph unicode="&#xc3;" horiz-adv-x="1462" d="M0 0l467 1446h59l-467 -1446h-59zM332 0l88 285h614l88 -285h-61l-70 231h-528l-70 -231h-61zM399 1669q0 81 50 127.5t126 46.5q41 0 75.5 -14t53 -29t48.5 -45q31 -31 59 -43t76 -12q56 0 85 34t29 87h54q0 -71 -42.5 -122.5t-129.5 -51.5q-62 0 -101.5 18t-74.5 53 q-26 26 -38.5 37t-39.5 23t-58 12q-118 0 -118 -121h-54zM477 481l250 826l250 -826h-500zM555 535h344l-172 573zM928 1446h59l467 -1446h-59z" />
<glyph unicode="&#xc4;" horiz-adv-x="1462" d="M0 0l467 1446h59l-467 -1446h-59zM332 0l88 285h614l88 -285h-61l-70 231h-528l-70 -231h-61zM477 481l250 826l250 -826h-500zM481 1597v254h56v-254h-56zM555 535h344l-172 573zM623 1597v254h55v-254h-55zM764 1597v254h55v-254h-55zM905 1597v254h56v-254h-56z M928 1446h59l467 -1446h-59z" />
<glyph unicode="&#xc5;" horiz-adv-x="1462" d="M-2 0l467 1446h61l-467 -1446h-61zM332 0l88 285h614l88 -285h-61l-70 231h-528l-70 -231h-61zM477 481l250 826l250 -826h-500zM526 1718q0 83 59 142t142 59t142 -59t59 -142t-59 -141.5t-142 -58.5t-142 58.5t-59 141.5zM555 535h344l-172 569zM580 1718 q0 -60 43.5 -103.5t103.5 -43.5q59 0 103 43.5t44 103.5q0 59 -44.5 103.5t-102.5 44.5q-60 0 -103.5 -44.5t-43.5 -103.5zM928 1446h61l467 -1446h-61z" />
<glyph unicode="&#xc6;" horiz-adv-x="2234" d="M-2 0l893 1446h61l-893 -1446h-61zM317 0l177 285h630v-285h-61v231h-541l-143 -231h-62zM614 481l510 826v-826h-510zM709 535h360v583zM1374 0v53h789v-53h-789zM1374 240v401h768v-55h-708v-293h729v-53h-789zM1374 827v379h789v-53h-729v-272h708v-54h-768z M1374 1393v53h789v-53h-789z" />
<glyph unicode="&#xc7;" horiz-adv-x="1478" d="M147 725q0 169 56 314t153.5 245.5t231.5 157.5t286 57q207 0 371.5 -92t255.5 -277l-49 -24q-81 169 -232 254.5t-346 85.5q-140 0 -263.5 -53t-213.5 -146.5t-142 -229t-52 -292.5q0 -142 36.5 -261.5t100 -204t149.5 -143.5t184.5 -87.5t205.5 -28.5q205 0 349 96 t230 258l51 -24q-221 -383 -630 -383h-19l-57 -117q22 16 65 16q85 0 124.5 -45t39.5 -108q0 -71 -51 -113.5t-129 -42.5q-62 0 -112 22t-103 72l29 52q88 -91 186 -91q56 0 88.5 29t32.5 72q0 98 -123 98q-65 0 -102 -37l-35 27l80 170q-106 11 -201 48t-176.5 102.5 t-141 153.5t-93.5 208.5t-34 261.5zM459 735q0 81 18.5 157t56 141t88.5 114t120.5 76.5t148.5 27.5q125 0 219 -65.5t141 -177.5l-51 -27q-39 102 -119.5 159.5t-189.5 57.5q-85 0 -157 -38.5t-119.5 -102.5t-74 -147.5t-26.5 -174.5q0 -115 31.5 -208.5t84 -152.5 t120 -90.5t141.5 -31.5q217 0 330 225l49 -24q-16 -34 -36.5 -65.5t-54.5 -67t-73.5 -61.5t-95.5 -43t-119 -17q-86 0 -163 34.5t-137.5 100t-96 169t-35.5 232.5z" />
<glyph unicode="&#xc8;" horiz-adv-x="1304" d="M139 0v1446h56v-1446h-56zM444 0v53h789v-53h-789zM444 238v405h768v-53h-712v-299h733v-53h-789zM444 827v381h789v-53h-733v-274h712v-54h-768zM444 1393v53h789v-53h-789zM487 1886h84l314 -272h-84z" />
<glyph unicode="&#xc9;" horiz-adv-x="1304" d="M139 0v1446h56v-1446h-56zM444 0v53h789v-53h-789zM444 238v405h768v-53h-712v-299h733v-53h-789zM444 827v381h789v-53h-733v-274h712v-54h-768zM444 1393v53h789v-53h-789zM649 1577l314 272h84l-314 -272h-84z" />
<glyph unicode="&#xca;" horiz-adv-x="1304" d="M139 0v1446h56v-1446h-56zM377 1593l309 308l309 -308h-69l-240 234l-240 -234h-69zM444 0v53h789v-53h-789zM444 238v405h768v-53h-712v-299h733v-53h-789zM444 827v381h789v-53h-733v-274h712v-54h-768zM444 1393v53h789v-53h-789z" />
<glyph unicode="&#xcb;" horiz-adv-x="1304" d="M139 0v1446h56v-1446h-56zM444 0v53h789v-53h-789zM444 238v405h768v-53h-712v-299h733v-53h-789zM444 827v381h789v-53h-733v-274h712v-54h-768zM444 1393v53h789v-53h-789zM446 1622v254h56v-254h-56zM588 1622v254h55v-254h-55zM729 1622v254h55v-254h-55zM870 1622 v254h56v-254h-56z" />
<glyph unicode="&#xcc;" horiz-adv-x="647" d="M100 1888h84l314 -272h-84zM139 0v1446h56v-1446h-56zM449 0v1446h55v-1446h-55z" />
<glyph unicode="&#xcd;" horiz-adv-x="647" d="M139 0v1446h56v-1446h-56zM150 1612l313 272h84l-314 -272h-83zM449 0v1446h55v-1446h-55z" />
<glyph unicode="&#xce;" horiz-adv-x="647" d="M14 1593l310 308l309 -308h-70l-239 234l-240 -234h-70zM139 0v1446h56v-1446h-56zM449 0v1446h55v-1446h-55z" />
<glyph unicode="&#xcf;" horiz-adv-x="647" d="M76 1624v254h55v-254h-55zM139 0v1446h56v-1446h-56zM217 1624v254h55v-254h-55zM358 1624v254h56v-254h-56zM449 0v1446h55v-1446h-55zM500 1624v254h55v-254h-55z" />
<glyph unicode="&#xd0;" horiz-adv-x="1486" d="M37 573v56h158v-629h-56v573h-102zM37 807v59h102v580h56v-639h-158zM444 0v53h261q154 0 273.5 40t192.5 104t120 154t65 180t18 192q0 334 -179.5 502t-563.5 168h-187v53h187q410 0 604.5 -181t194.5 -542q0 -110 -19.5 -208t-70.5 -194.5t-130.5 -165.5t-209 -112 t-295.5 -43h-261zM444 238v391h261v-56h-205v-282h116q239 0 345 97.5t106 338.5q0 72 -10 131.5t-36.5 116t-69 95t-112 62t-161.5 23.5h-178v-289h205v-59h-261v401h234q105 0 184 -26t128 -69t79 -106.5t41.5 -130.5t11.5 -149q0 -138 -29.5 -232t-93 -151t-156 -81.5 t-227.5 -24.5h-172z" />
<glyph unicode="&#xd1;" horiz-adv-x="1519" d="M135 0v1446h55v-1446h-55zM432 1669q0 81 50 127.5t126 46.5q41 0 75.5 -14t52 -28.5t48.5 -45.5q30 -30 59 -42.5t77 -12.5q56 0 85 34t29 87h53q0 -71 -42.5 -122.5t-129.5 -51.5q-62 0 -101.5 18t-74.5 53q-26 26 -38 37t-39 23t-58 12q-119 0 -119 -121h-53z M442 1446h64l514 -871v871h55v-993h-47zM444 0v987h48l583 -987h-63l-512 864v-864h-56zM1329 0v1446h55v-1446h-55z" />
<glyph unicode="&#xd2;" horiz-adv-x="1679" d="M90 727q0 94 22.5 191t72.5 194t121.5 176t176.5 136t230 75v-55q-113 -18 -208.5 -71.5t-160.5 -127t-111 -163t-67 -179.5t-21 -176q0 -100 24.5 -197t73 -184t115.5 -157.5t158.5 -119t196.5 -65.5v-57q-115 17 -215.5 69t-174 127.5t-127 170t-80 200t-26.5 213.5z M399 727q0 68 15.5 138.5t50 140.5t84 124t123.5 87.5t162 33.5q206 0 326 -148.5t120 -375.5q0 -70 -17 -142t-53 -141.5t-86.5 -124t-124 -87.5t-159.5 -33q-104 0 -189.5 46t-139.5 121.5t-83 169t-29 191.5zM455 727q0 -88 26 -172t73 -152t121.5 -109.5t164.5 -41.5 q74 0 138 30t108.5 79t76.5 111.5t47 127.5t15 127q0 202 -106.5 336.5t-284.5 134.5q-75 0 -139.5 -30.5t-107.5 -79t-73.5 -111.5t-44.5 -126.5t-14 -123.5zM487 1886h84l314 -272h-84zM963 2q170 28 302.5 141.5t200.5 267t68 316.5q0 89 -21.5 179t-67.5 178.5 t-111.5 160.5t-161.5 125t-209 72v55q125 -19 230.5 -75.5t177 -134t122 -173t73.5 -193.5t23 -194q0 -105 -27.5 -209.5t-82 -199.5t-128.5 -171.5t-174.5 -129.5t-213.5 -70v55z" />
<glyph unicode="&#xd3;" horiz-adv-x="1679" d="M90 727q0 94 22.5 191t72.5 194t121.5 176t176.5 136t230 75v-55q-113 -18 -208.5 -71.5t-160.5 -127t-111 -163t-67 -179.5t-21 -176q0 -100 24.5 -197t73 -184t115.5 -157.5t158.5 -119t196.5 -65.5v-57q-115 17 -215.5 69t-174 127.5t-127 170t-80 200t-26.5 213.5z M399 727q0 68 15.5 138.5t50 140.5t84 124t123.5 87.5t162 33.5q206 0 326 -148.5t120 -375.5q0 -70 -17 -142t-53 -141.5t-86.5 -124t-124 -87.5t-159.5 -33q-104 0 -189.5 46t-139.5 121.5t-83 169t-29 191.5zM455 727q0 -88 26 -172t73 -152t121.5 -109.5t164.5 -41.5 q74 0 138 30t108.5 79t76.5 111.5t47 127.5t15 127q0 202 -106.5 336.5t-284.5 134.5q-75 0 -139.5 -30.5t-107.5 -79t-73.5 -111.5t-44.5 -126.5t-14 -123.5zM803 1614l313 272h84l-313 -272h-84zM963 2q170 28 302.5 141.5t200.5 267t68 316.5q0 89 -21.5 179t-67.5 178.5 t-111.5 160.5t-161.5 125t-209 72v55q125 -19 230.5 -75.5t177 -134t122 -173t73.5 -193.5t23 -194q0 -105 -27.5 -209.5t-82 -199.5t-128.5 -171.5t-174.5 -129.5t-213.5 -70v55z" />
<glyph unicode="&#xd4;" horiz-adv-x="1679" d="M90 727q0 94 22.5 191t72.5 194t121.5 176t176.5 136t230 75v-55q-113 -18 -208.5 -71.5t-160.5 -127t-111 -163t-67 -179.5t-21 -176q0 -100 24.5 -197t73 -184t115.5 -157.5t158.5 -119t196.5 -65.5v-57q-115 17 -215.5 69t-174 127.5t-127 170t-80 200t-26.5 213.5z M399 727q0 68 15.5 138.5t50 140.5t84 124t123.5 87.5t162 33.5q206 0 326 -148.5t120 -375.5q0 -70 -17 -142t-53 -141.5t-86.5 -124t-124 -87.5t-159.5 -33q-104 0 -189.5 46t-139.5 121.5t-83 169t-29 191.5zM455 727q0 -88 26 -172t73 -152t121.5 -109.5t164.5 -41.5 q74 0 138 30t108.5 79t76.5 111.5t47 127.5t15 127q0 202 -106.5 336.5t-284.5 134.5q-75 0 -139.5 -30.5t-107.5 -79t-73.5 -111.5t-44.5 -126.5t-14 -123.5zM526 1593l310 308l309 -308h-70l-239 234l-240 -234h-70zM963 2q170 28 302.5 141.5t200.5 267t68 316.5 q0 89 -21.5 179t-67.5 178.5t-111.5 160.5t-161.5 125t-209 72v55q125 -19 230.5 -75.5t177 -134t122 -173t73.5 -193.5t23 -194q0 -105 -27.5 -209.5t-82 -199.5t-128.5 -171.5t-174.5 -129.5t-213.5 -70v55z" />
<glyph unicode="&#xd5;" horiz-adv-x="1679" d="M90 727q0 94 22.5 191t72.5 194t121.5 176t176.5 136t230 75v-55q-113 -18 -208.5 -71.5t-160.5 -127t-111 -163t-67 -179.5t-21 -176q0 -100 24.5 -197t73 -184t115.5 -157.5t158.5 -119t196.5 -65.5v-57q-115 17 -215.5 69t-174 127.5t-127 170t-80 200t-26.5 213.5z M399 727q0 68 15.5 138.5t50 140.5t84 124t123.5 87.5t162 33.5q206 0 326 -148.5t120 -375.5q0 -70 -17 -142t-53 -141.5t-86.5 -124t-124 -87.5t-159.5 -33q-104 0 -189.5 46t-139.5 121.5t-83 169t-29 191.5zM455 727q0 -88 26 -172t73 -152t121.5 -109.5t164.5 -41.5 q74 0 138 30t108.5 79t76.5 111.5t47 127.5t15 127q0 202 -106.5 336.5t-284.5 134.5q-75 0 -139.5 -30.5t-107.5 -79t-73.5 -111.5t-44.5 -126.5t-14 -123.5zM516 1669q0 81 50 127.5t126 46.5q41 0 75.5 -14t52 -28.5t48.5 -45.5q30 -30 59 -42.5t77 -12.5q56 0 85 34 t29 87h53q0 -71 -42.5 -122.5t-129.5 -51.5q-62 0 -101.5 18t-74.5 53q-26 26 -38 37t-39 23t-58 12q-119 0 -119 -121h-53zM963 2q170 28 302.5 141.5t200.5 267t68 316.5q0 89 -21.5 179t-67.5 178.5t-111.5 160.5t-161.5 125t-209 72v55q125 -19 230.5 -75.5t177 -134 t122 -173t73.5 -193.5t23 -194q0 -105 -27.5 -209.5t-82 -199.5t-128.5 -171.5t-174.5 -129.5t-213.5 -70v55z" />
<glyph unicode="&#xd6;" horiz-adv-x="1679" d="M90 727q0 94 22.5 191t72.5 194t121.5 176t176.5 136t230 75v-55q-113 -18 -208.5 -71.5t-160.5 -127t-111 -163t-67 -179.5t-21 -176q0 -100 24.5 -197t73 -184t115.5 -157.5t158.5 -119t196.5 -65.5v-57q-115 17 -215.5 69t-174 127.5t-127 170t-80 200t-26.5 213.5z M399 727q0 68 15.5 138.5t50 140.5t84 124t123.5 87.5t162 33.5q206 0 326 -148.5t120 -375.5q0 -70 -17 -142t-53 -141.5t-86.5 -124t-124 -87.5t-159.5 -33q-104 0 -189.5 46t-139.5 121.5t-83 169t-29 191.5zM455 727q0 -88 26 -172t73 -152t121.5 -109.5t164.5 -41.5 q74 0 138 30t108.5 79t76.5 111.5t47 127.5t15 127q0 202 -106.5 336.5t-284.5 134.5q-75 0 -139.5 -30.5t-107.5 -79t-73.5 -111.5t-44.5 -126.5t-14 -123.5zM594 1597v254h55v-254h-55zM735 1597v254h56v-254h-56zM877 1597v254h55v-254h-55zM963 2q170 28 302.5 141.5 t200.5 267t68 316.5q0 89 -21.5 179t-67.5 178.5t-111.5 160.5t-161.5 125t-209 72v55q125 -19 230.5 -75.5t177 -134t122 -173t73.5 -193.5t23 -194q0 -105 -27.5 -209.5t-82 -199.5t-128.5 -171.5t-174.5 -129.5t-213.5 -70v55zM1018 1597v254h55v-254h-55z" />
<glyph unicode="&#xd7;" horiz-adv-x="1228" d="M119 236l284 284l-284 287l41 43l327 -330l-327 -327zM285 68l329 327l328 -327l-43 -41l-285 284l-286 -284zM287 973l43 41l284 -285l287 285l43 -41l-330 -328zM741 520l328 328l41 -43l-285 -285l285 -287l-41 -43z" />
<glyph unicode="&#xd8;" horiz-adv-x="1579" d="M-27 2l254 234q-149 202 -149 491q0 115 25.5 223.5t81.5 207t137 171.5t199 116.5t259 43.5q177 0 315 -66t230 -180l268 246l37 -43l-270 -248q137 -201 137 -469q0 -223 -90 -398.5t-254 -273.5t-375 -98q-149 0 -284 59.5t-232 171.5l-252 -231zM133 727 q0 -114 26.5 -219t81 -195t130.5 -156.5t180.5 -104.5t226.5 -38q195 0 346.5 91t234.5 254t83 370q0 106 -25 207t-78.5 191.5t-130 158.5t-187 108t-241.5 40t-240 -40t-183 -108.5t-125.5 -159.5t-75 -191.5t-23.5 -207.5zM346 735q0 68 15.5 137.5t50 137t83.5 119.5 t123 84t162 32q138 0 240.5 -71t154.5 -189t52 -266q0 -88 -29 -175.5t-82.5 -163t-141 -122.5t-194.5 -47q-104 0 -188.5 45.5t-137 120.5t-80.5 167t-28 191zM401 735q0 -152 68 -276l618 565q-52 78 -130.5 122t-176.5 44q-76 0 -140 -28.5t-107 -75.5t-73.5 -107 t-44.5 -122t-14 -122zM500 412q105 -146 280 -146q92 0 168.5 42t123.5 109t73 145.5t26 156.5q0 140 -55 256z" />
<glyph unicode="&#xd9;" horiz-adv-x="1466" d="M113 586v860h55v-860q0 -134 44.5 -242.5t122 -178.5t179.5 -107.5t219 -37.5t219 37.5t179.5 107.5t122 178.5t44.5 242.5v860h56v-860q0 -146 -49 -264.5t-134 -195t-197.5 -118t-240.5 -41.5t-240.5 41.5t-197 118t-133.5 195t-49 264.5zM358 1884h84l314 -272h-84z M418 565v881h55v-881q0 -138 71 -218.5t189 -80.5t189 80.5t71 218.5v881h56v-881q0 -158 -85 -255t-231 -97t-230.5 97t-84.5 255z" />
<glyph unicode="&#xda;" horiz-adv-x="1466" d="M113 586v860h55v-860q0 -134 44.5 -242.5t122 -178.5t179.5 -107.5t219 -37.5t219 37.5t179.5 107.5t122 178.5t44.5 242.5v860h56v-860q0 -146 -49 -264.5t-134 -195t-197.5 -118t-240.5 -41.5t-240.5 41.5t-197 118t-133.5 195t-49 264.5zM418 565v881h55v-881 q0 -138 71 -218.5t189 -80.5t189 80.5t71 218.5v881h56v-881q0 -158 -85 -255t-231 -97t-230.5 97t-84.5 255zM715 1616l313 272h84l-313 -272h-84z" />
<glyph unicode="&#xdb;" horiz-adv-x="1466" d="M113 586v860h55v-860q0 -134 44.5 -242.5t122 -178.5t179.5 -107.5t219 -37.5t219 37.5t179.5 107.5t122 178.5t44.5 242.5v860h56v-860q0 -146 -49 -264.5t-134 -195t-197.5 -118t-240.5 -41.5t-240.5 41.5t-197 118t-133.5 195t-49 264.5zM418 565v881h55v-881 q0 -138 71 -218.5t189 -80.5t189 80.5t71 218.5v881h56v-881q0 -158 -85 -255t-231 -97t-230.5 97t-84.5 255zM424 1593l309 308l309 -308h-69l-240 234l-239 -234h-70z" />
<glyph unicode="&#xdc;" horiz-adv-x="1482" d="M121 586v860h55v-860q0 -134 44.5 -242.5t122 -178.5t179.5 -107.5t219 -37.5t219 37.5t179.5 107.5t122.5 178.5t45 242.5v860h55v-860q0 -146 -49 -264.5t-134 -195t-197.5 -118t-240.5 -41.5t-240.5 41.5t-197 118t-133.5 195t-49 264.5zM426 565v881h55v-881 q0 -138 71 -218.5t189 -80.5t189 80.5t71 218.5v881h56v-881q0 -158 -85 -255t-231 -97t-230.5 97t-84.5 255zM496 1597v254h55v-254h-55zM637 1597v254h55v-254h-55zM778 1597v254h56v-254h-56zM920 1597v254h55v-254h-55z" />
<glyph unicode="&#xdd;" horiz-adv-x="1417" d="M0 1446h70l514 -811v-635h-56v616zM354 1446h66l291 -508l288 508h66l-354 -604zM713 1608l313 272h84l-313 -272h-84zM829 0v645l521 801h67l-532 -819v-627h-56z" />
<glyph unicode="&#xde;" horiz-adv-x="1277" d="M135 0v1446h55v-1446h-55zM444 0v281h185q79 0 153 15t142 49t118.5 84.5t80.5 127t30 170.5q0 111 -38 194t-108 134.5t-164.5 76.5t-213.5 25h-185v289h56v-236h129q175 0 302.5 -50.5t202 -160.5t74.5 -272q0 -106 -35.5 -192.5t-93 -142.5t-134 -94t-155.5 -54.5 t-161 -16.5h-129v-227h-56zM444 463v510h144q45 0 87 -7t84.5 -25t73.5 -45t50.5 -71t19.5 -100q0 -132 -82.5 -197t-226.5 -65h-150zM500 516h94q127 0 190.5 55t63.5 154q0 56 -22.5 96t-61.5 60.5t-82 29.5t-94 9h-88v-404z" />
<glyph unicode="&#xdf;" horiz-adv-x="1296" d="M133 0v961q0 133 38 234t107.5 161.5t160.5 90.5t204 30q95 0 182 -21.5t160.5 -65t117.5 -118.5t44 -172q0 -60 -21 -111.5t-54.5 -84.5t-70 -53.5t-71.5 -27.5q100 -22 149 -48q160 -84 160 -308q0 -217 -119 -353.5t-309 -136.5q-38 0 -75 5.5t-56 10.5t-46.5 14.5 t-29.5 10.5v64q78 -49 207 -49q163 0 268 121.5t105 312.5q0 74 -22 131t-52.5 89t-76.5 54.5t-79.5 31t-76.5 17.5q-12 2 -17 3v53q93 16 162.5 85t69.5 169q0 83 -39.5 147t-105 100.5t-143 55t-161.5 18.5q-99 0 -180 -26.5t-143.5 -80.5t-97 -144t-34.5 -209v-961h-55z M391 0v1030q0 131 68 211t194 80q115 0 186.5 -64.5t71.5 -158.5q0 -63 -21.5 -106.5t-61 -65.5t-83 -30.5t-100.5 -8.5h-55v55h53q35 0 63.5 3.5t57 14t48 27t32 45t12.5 66.5q0 70 -58 119t-145 49q-96 0 -151.5 -65.5t-55.5 -170.5v-1030h-55zM590 676v55h82q41 0 75 -4 t71.5 -14.5t66.5 -31.5t53 -51.5t36.5 -77.5t12.5 -108q0 -28 -4.5 -58.5t-21 -73t-43 -74.5t-75 -55t-112.5 -23q-35 0 -74 11.5t-53 21.5v65q20 -16 57.5 -29.5t69.5 -13.5q60 0 103 25t62.5 64.5t27.5 73.5t8 66q0 59 -16 102t-40.5 67.5t-61 39t-69.5 19t-73 4.5h-82z " />
<glyph unicode="&#xe0;" horiz-adv-x="1210" d="M90 297q0 159 93 245t272 115l309 50v32q0 154 -150 154q-139 0 -139 -127h-55q0 20 3 39.5t15 46t31.5 45.5t57 33t87.5 14q107 0 156 -60t49 -145v-71l-360 -62q-140 -24 -227 -97.5t-87 -199.5q0 -145 90 -227t246 -82q211 0 338 172v-172h-55v45q-43 -38 -123 -68 t-160 -30q-179 0 -285 93t-106 257zM139 766q0 87 42 153.5t113 104t155 56t178 18.5q61 0 122 -10t124.5 -35.5t111.5 -63.5t78.5 -100.5t30.5 -140.5v-748h-56v745q0 67 -26 120t-67 86t-96.5 54.5t-110 30t-111.5 8.5q-66 0 -126 -8.5t-116.5 -29t-97.5 -51.5 t-65.5 -79.5t-24.5 -109.5h-58zM369 317q0 156 174 195l276 49v-137q0 -128 -64 -211.5t-188 -83.5q-90 0 -144 48.5t-54 139.5zM393 1497h84l314 -272h-84zM424 297q0 -41 36 -78t115 -37q80 0 134.5 58t54.5 170v88l-207 -37q-37 -7 -63 -21t-39.5 -28.5t-20.5 -37.5 t-8.5 -38t-1.5 -39z" />
<glyph unicode="&#xe1;" horiz-adv-x="1210" d="M90 297q0 159 93 245t272 115l309 50v32q0 154 -150 154q-139 0 -139 -127h-55q0 20 3 39.5t15 46t31.5 45.5t57 33t87.5 14q107 0 156 -60t49 -145v-71l-360 -62q-140 -24 -227 -97.5t-87 -199.5q0 -145 90 -227t246 -82q211 0 338 172v-172h-55v45q-43 -38 -123 -68 t-160 -30q-179 0 -285 93t-106 257zM139 766q0 87 42 153.5t113 104t155 56t178 18.5q61 0 122 -10t124.5 -35.5t111.5 -63.5t78.5 -100.5t30.5 -140.5v-748h-56v745q0 67 -26 120t-67 86t-96.5 54.5t-110 30t-111.5 8.5q-66 0 -126 -8.5t-116.5 -29t-97.5 -51.5 t-65.5 -79.5t-24.5 -109.5h-58zM369 317q0 156 174 195l276 49v-137q0 -128 -64 -211.5t-188 -83.5q-90 0 -144 48.5t-54 139.5zM393 1225l314 272h84l-314 -272h-84zM424 297q0 -41 36 -78t115 -37q80 0 134.5 58t54.5 170v88l-207 -37q-37 -7 -63 -21t-39.5 -28.5 t-20.5 -37.5t-8.5 -38t-1.5 -39z" />
<glyph unicode="&#xe2;" horiz-adv-x="1210" d="M90 297q0 159 93 245t272 115l309 50v32q0 154 -150 154q-139 0 -139 -127h-55q0 20 3 39.5t15 46t31.5 45.5t57 33t87.5 14q107 0 156 -60t49 -145v-71l-360 -62q-140 -24 -227 -97.5t-87 -199.5q0 -145 90 -227t246 -82q211 0 338 172v-172h-55v45q-43 -38 -123 -68 t-160 -30q-179 0 -285 93t-106 257zM139 766q0 87 42 153.5t113 104t155 56t178 18.5q61 0 122 -10t124.5 -35.5t111.5 -63.5t78.5 -100.5t30.5 -140.5v-748h-56v745q0 67 -26 120t-67 86t-96.5 54.5t-110 30t-111.5 8.5q-66 0 -126 -8.5t-116.5 -29t-97.5 -51.5 t-65.5 -79.5t-24.5 -109.5h-58zM299 1208l309 308l310 -308h-70l-240 234l-239 -234h-70zM369 317q0 156 174 195l276 49v-137q0 -128 -64 -211.5t-188 -83.5q-90 0 -144 48.5t-54 139.5zM424 297q0 -41 36 -78t115 -37q80 0 134.5 58t54.5 170v88l-207 -37q-37 -7 -63 -21 t-39.5 -28.5t-20.5 -37.5t-8.5 -38t-1.5 -39z" />
<glyph unicode="&#xe3;" horiz-adv-x="1210" d="M90 297q0 159 93 245t272 115l309 50v32q0 154 -150 154q-139 0 -139 -127h-55q0 20 3 39.5t15 46t31.5 45.5t57 33t87.5 14q107 0 156 -60t49 -145v-71l-360 -62q-140 -24 -227 -97.5t-87 -199.5q0 -145 90 -227t246 -82q211 0 338 172v-172h-55v45q-43 -38 -123 -68 t-160 -30q-179 0 -285 93t-106 257zM139 766q0 87 42 153.5t113 104t155 56t178 18.5q61 0 122 -10t124.5 -35.5t111.5 -63.5t78.5 -100.5t30.5 -140.5v-748h-56v745q0 67 -26 120t-67 86t-96.5 54.5t-110 30t-111.5 8.5q-66 0 -126 -8.5t-116.5 -29t-97.5 -51.5 t-65.5 -79.5t-24.5 -109.5h-58zM264 1284q0 81 50 127.5t126 46.5q41 0 75.5 -14t52 -28.5t48.5 -45.5q30 -30 59 -42.5t77 -12.5q56 0 85 34t29 87h54q0 -71 -42.5 -122.5t-129.5 -51.5q-62 0 -102 18t-75 53q-26 26 -38 37t-39 23t-58 12q-119 0 -119 -121h-53zM369 317 q0 156 174 195l276 49v-137q0 -128 -64 -211.5t-188 -83.5q-90 0 -144 48.5t-54 139.5zM424 297q0 -41 36 -78t115 -37q80 0 134.5 58t54.5 170v88l-207 -37q-37 -7 -63 -21t-39.5 -28.5t-20.5 -37.5t-8.5 -38t-1.5 -39z" />
<glyph unicode="&#xe4;" horiz-adv-x="1210" d="M90 297q0 159 93 245t272 115l309 50v32q0 154 -150 154q-139 0 -139 -127h-55q0 20 3 39.5t15 46t31.5 45.5t57 33t87.5 14q107 0 156 -60t49 -145v-71l-360 -62q-140 -24 -227 -97.5t-87 -199.5q0 -145 90 -227t246 -82q211 0 338 172v-172h-55v45q-43 -38 -123 -68 t-160 -30q-179 0 -285 93t-106 257zM139 766q0 87 42 153.5t113 104t155 56t178 18.5q61 0 122 -10t124.5 -35.5t111.5 -63.5t78.5 -100.5t30.5 -140.5v-748h-56v745q0 67 -26 120t-67 86t-96.5 54.5t-110 30t-111.5 8.5q-66 0 -126 -8.5t-116.5 -29t-97.5 -51.5 t-65.5 -79.5t-24.5 -109.5h-58zM369 317q0 156 174 195l276 49v-137q0 -128 -64 -211.5t-188 -83.5q-90 0 -144 48.5t-54 139.5zM387 1235v254h55v-254h-55zM424 297q0 -41 36 -78t115 -37q80 0 134.5 58t54.5 170v88l-207 -37q-37 -7 -63 -21t-39.5 -28.5t-20.5 -37.5 t-8.5 -38t-1.5 -39zM528 1235v254h56v-254h-56zM670 1235v254h55v-254h-55zM811 1235v254h55v-254h-55z" />
<glyph unicode="&#xe5;" horiz-adv-x="1210" d="M90 297q0 159 93 245t272 115l309 50v32q0 154 -150 154q-139 0 -139 -127h-55q0 20 3 39.5t15 46t31.5 45.5t57 33t87.5 14q107 0 156 -60t49 -145v-71l-360 -62q-140 -24 -227 -97.5t-87 -199.5q0 -145 90 -227t246 -82q211 0 338 172v-172h-55v45q-43 -38 -123 -68 t-160 -30q-179 0 -285 93t-106 257zM139 766q0 87 42 153.5t113 104t155 56t178 18.5q61 0 122 -10t124.5 -35.5t111.5 -63.5t78.5 -100.5t30.5 -140.5v-748h-56v745q0 67 -26 120t-67 86t-96.5 54.5t-110 30t-111.5 8.5q-66 0 -126 -8.5t-116.5 -29t-97.5 -51.5 t-65.5 -79.5t-24.5 -109.5h-58zM369 317q0 156 174 195l276 49v-137q0 -128 -64 -211.5t-188 -83.5q-90 0 -144 48.5t-54 139.5zM424 297q0 -41 36 -78t115 -37q80 0 134.5 58t54.5 170v88l-207 -37q-37 -7 -63 -21t-39.5 -28.5t-20.5 -37.5t-8.5 -38t-1.5 -39zM467 1360 q0 70 49.5 120t120.5 50t120.5 -50t49.5 -120t-49.5 -120t-120.5 -50t-120.5 50t-49.5 120zM520 1360q0 -46 35.5 -81.5t81.5 -35.5q45 0 81 36t36 81q0 44 -36.5 80.5t-80.5 36.5q-45 0 -81 -36t-36 -81z" />
<glyph unicode="&#xe6;" horiz-adv-x="1902" d="M90 297q0 159 93 245t272 115l309 50v32q0 71 -30 112.5t-109 41.5q-78 0 -113 -40.5t-35 -86.5h-55q0 18 4 37.5t17 46t34 46.5t59.5 34t88.5 14q56 0 95.5 -17.5t60 -48.5t29.5 -65t9 -74v-71l-360 -62q-140 -24 -227 -97.5t-87 -199.5q0 -145 90 -227t246 -82 q138 0 261.5 54.5t183.5 135.5q185 -185 409 -190q152 0 272.5 69t188.5 201l51 -26q-161 -297 -512 -297q-105 0 -213.5 44.5t-195.5 121.5q-85 -71 -198.5 -118.5t-246.5 -47.5q-179 0 -285 93t-106 257zM139 766q0 85 44 151t116.5 104t157.5 57.5t176 19.5 q242 0 360 -94q131 94 330 94q121 0 217 -36.5t155 -94t97 -135.5t53 -153.5t15 -154.5v-71h-764v-13q0 -109 66 -181.5t173 -72.5q106 0 178 51.5t99 127.5l53 -27q-34 -90 -126 -147.5t-204 -57.5q-57 0 -108 18.5t-94.5 55t-69 100.5t-25.5 146v53h766v18 q-1 81 -17 153.5t-52.5 140.5t-90 117.5t-136 79t-185.5 29.5q-177 0 -291 -81q-32 -24 -47 -39q-98 120 -352 120q-84 0 -158 -14.5t-139 -45t-103 -86.5t-38 -132h-56zM369 317q0 -91 54 -139.5t144 -48.5q124 0 188 83.5t64 211.5v137l-276 -49q-174 -39 -174 -195z M424 297q0 24 1.5 39t8.5 38t20.5 37.5t39.5 28.5t63 21l207 37v-88q0 -112 -54.5 -170t-134.5 -58q-79 0 -115 37t-36 78zM1038 614h559q0 140 -71 226t-205 86q-74 0 -131.5 -30t-89 -77.5t-47 -99.5t-15.5 -105zM1104 668q4 33 17.5 66t38 65.5t66.5 52.5t95 20 q93 0 147 -57.5t62 -146.5h-426z" />
<glyph unicode="&#xe7;" horiz-adv-x="1128" d="M68 510q0 103 25 191.5t69 151.5t99.5 111t120.5 77t128.5 43t126.5 14q52 0 94.5 -4.5t94.5 -19.5t95 -41t89.5 -72.5t85.5 -110.5l-54 -31q-79 132 -173.5 178.5t-231.5 46.5q-68 0 -137 -18t-137.5 -59.5t-121 -101.5t-85.5 -152t-33 -203q0 -104 30.5 -190.5 t81.5 -144.5t118.5 -98.5t138.5 -58.5t145 -18q142 0 242 66.5t168 209.5l53 -30q-147 -281 -424 -297l-55 -113q21 12 59 12q87 0 127.5 -45t40.5 -106q0 -67 -51.5 -112.5t-128.5 -45.5q-62 0 -120 23.5t-99 62.5l28 51q37 -37 91 -59.5t100 -22.5q56 0 88 29t32 72 q0 98 -122 98q-66 0 -103 -37l-35 27l78 166q-101 5 -193 39.5t-171 99.5t-126.5 174t-47.5 248zM336 520q0 67 19.5 134.5t55.5 125.5t95 94.5t131 36.5q176 0 266 -176l-51 -28q-29 61 -82.5 106t-132.5 45q-60 0 -109 -34t-77.5 -87t-44 -109.5t-15.5 -107.5 q0 -42 8.5 -86t28 -87.5t47.5 -77.5t70 -55t92 -21q167 0 231 186l54 -31q-16 -39 -40 -73.5t-58 -66.5t-82.5 -50.5t-104.5 -18.5q-75 0 -134.5 34t-95 89.5t-53.5 121.5t-18 136z" />
<glyph unicode="&#xe8;" horiz-adv-x="1193" d="M66 510q0 85 16.5 164.5t56.5 158t101 136t157 93.5t217 36t217 -36.5t155 -94t97 -135.5t53 -153.5t15 -154.5v-71h-764v-13q0 -109 66.5 -181.5t173.5 -72.5q106 0 177.5 51.5t98.5 127.5l53 -27q-34 -90 -125.5 -147.5t-203.5 -57.5q-57 0 -108 18.5t-94.5 55 t-69 100.5t-25.5 146v53h766v18q-1 81 -17 153.5t-52.5 140.5t-90.5 117.5t-136.5 79t-185.5 29.5q-109 0 -195.5 -33t-141 -86t-91 -124.5t-51 -143.5t-14.5 -149q0 -230 141.5 -369t364.5 -139q152 0 272 69t188 201l52 -26q-161 -297 -512 -297q-248 0 -404.5 153.5 t-156.5 409.5zM330 614q0 41 9 82.5t30.5 83.5t53 74t80.5 52t109 20q134 0 205.5 -86t71.5 -226h-559zM395 668h426q-8 89 -62 146.5t-147 57.5q-53 0 -95 -20t-66.5 -52.5t-38 -65.5t-17.5 -66zM420 1497h84l313 -272h-84z" />
<glyph unicode="&#xe9;" horiz-adv-x="1193" d="M66 510q0 85 16.5 164.5t56.5 158t101 136t157 93.5t217 36t217 -36.5t155 -94t97 -135.5t53 -153.5t15 -154.5v-71h-764v-13q0 -109 66.5 -181.5t173.5 -72.5q106 0 177.5 51.5t98.5 127.5l53 -27q-34 -90 -125.5 -147.5t-203.5 -57.5q-57 0 -108 18.5t-94.5 55 t-69 100.5t-25.5 146v53h766v18q-1 81 -17 153.5t-52.5 140.5t-90.5 117.5t-136.5 79t-185.5 29.5q-109 0 -195.5 -33t-141 -86t-91 -124.5t-51 -143.5t-14.5 -149q0 -230 141.5 -369t364.5 -139q152 0 272 69t188 201l52 -26q-161 -297 -512 -297q-248 0 -404.5 153.5 t-156.5 409.5zM330 614q0 41 9 82.5t30.5 83.5t53 74t80.5 52t109 20q134 0 205.5 -86t71.5 -226h-559zM395 668h426q-8 89 -62 146.5t-147 57.5q-53 0 -95 -20t-66.5 -52.5t-38 -65.5t-17.5 -66zM408 1225l313 272h84l-313 -272h-84z" />
<glyph unicode="&#xea;" horiz-adv-x="1193" d="M66 510q0 85 16.5 164.5t56.5 158t101 136t157 93.5t217 36t217 -36.5t155 -94t97 -135.5t53 -153.5t15 -154.5v-71h-764v-13q0 -109 66.5 -181.5t173.5 -72.5q106 0 177.5 51.5t98.5 127.5l53 -27q-34 -90 -125.5 -147.5t-203.5 -57.5q-57 0 -108 18.5t-94.5 55 t-69 100.5t-25.5 146v53h766v18q-1 81 -17 153.5t-52.5 140.5t-90.5 117.5t-136.5 79t-185.5 29.5q-109 0 -195.5 -33t-141 -86t-91 -124.5t-51 -143.5t-14.5 -149q0 -230 141.5 -369t364.5 -139q152 0 272 69t188 201l52 -26q-161 -297 -512 -297q-248 0 -404.5 153.5 t-156.5 409.5zM301 1208l309 308l310 -308h-70l-240 234l-239 -234h-70zM330 614q0 41 9 82.5t30.5 83.5t53 74t80.5 52t109 20q134 0 205.5 -86t71.5 -226h-559zM395 668h426q-8 89 -62 146.5t-147 57.5q-53 0 -95 -20t-66.5 -52.5t-38 -65.5t-17.5 -66z" />
<glyph unicode="&#xeb;" horiz-adv-x="1193" d="M66 510q0 85 16.5 164.5t56.5 158t101 136t157 93.5t217 36t217 -36.5t155 -94t97 -135.5t53 -153.5t15 -154.5v-71h-764v-13q0 -109 66.5 -181.5t173.5 -72.5q106 0 177.5 51.5t98.5 127.5l53 -27q-34 -90 -125.5 -147.5t-203.5 -57.5q-57 0 -108 18.5t-94.5 55 t-69 100.5t-25.5 146v53h766v18q-1 81 -17 153.5t-52.5 140.5t-90.5 117.5t-136.5 79t-185.5 29.5q-109 0 -195.5 -33t-141 -86t-91 -124.5t-51 -143.5t-14.5 -149q0 -230 141.5 -369t364.5 -139q152 0 272 69t188 201l52 -26q-161 -297 -512 -297q-248 0 -404.5 153.5 t-156.5 409.5zM330 614q0 41 9 82.5t30.5 83.5t53 74t80.5 52t109 20q134 0 205.5 -86t71.5 -226h-559zM373 1235v254h55v-254h-55zM395 668h426q-8 89 -62 146.5t-147 57.5q-53 0 -95 -20t-66.5 -52.5t-38 -65.5t-17.5 -66zM514 1235v254h55v-254h-55zM655 1235v254h56 v-254h-56zM797 1235v254h55v-254h-55z" />
<glyph unicode="&#xec;" horiz-adv-x="598" d="M63 1497h84l314 -272h-84zM141 0v1044h56v-1044h-56zM399 0v1044h56v-1044h-56z" />
<glyph unicode="&#xed;" horiz-adv-x="598" d="M141 0v1044h56v-1044h-56zM147 1225l314 272h84l-314 -272h-84zM399 0v1044h56v-1044h-56z" />
<glyph unicode="&#xee;" horiz-adv-x="598" d="M-12 1208l309 308l309 -308h-69l-240 234l-240 -234h-69zM141 0v1044h56v-1044h-56zM399 0v1044h56v-1044h-56z" />
<glyph unicode="&#xef;" horiz-adv-x="598" d="M57 1235v254h56v-254h-56zM141 0v1044h56v-1044h-56zM199 1235v254h55v-254h-55zM340 1235v254h55v-254h-55zM399 0v1044h56v-1044h-56zM481 1235v254h56v-254h-56z" />
<glyph unicode="&#xf0;" horiz-adv-x="1216" d="M57 469q0 111 39 199t106 141.5t152.5 81t182.5 27.5q101 0 167.5 -37t90.5 -80q-10 162 -86 235t-244 94l-127 -155h-70l131 162q-90 4 -143 4h-33v57h49q307 0 441.5 -95t134.5 -333v-59h-37q-23 32 -41.5 52.5t-52 46.5t-79.5 39t-103 13q-78 0 -151 -23.5t-135 -69 t-99 -123.5t-37 -177q0 -85 35 -165t95.5 -140t149.5 -96.5t191 -36.5q52 0 100.5 8.5t99.5 30t94.5 53.5t82 83t65.5 115.5t43 153.5t16 195q0 639 -827 639h-35v53h51q137 0 263 -21l129 158h69l-137 -170q543 -119 543 -659q0 -135 -23 -244.5t-65 -183.5t-94.5 -127 t-117.5 -82.5t-127 -42.5t-130 -13q-142 0 -263.5 66t-192.5 179.5t-71 246.5zM369 469q0 102 61.5 174t165.5 72t165.5 -72t61.5 -174q0 -65 -24 -121.5t-80 -95.5t-135 -37q-56 0 -99.5 24.5t-67.5 63.5t-36 81t-12 85zM424 469q0 -74 43.5 -136.5t116.5 -62.5 q87 0 135.5 57.5t48.5 141.5q0 79 -46 134.5t-126 55.5t-126 -55.5t-46 -134.5z" />
<glyph unicode="&#xf1;" horiz-adv-x="1245" d="M133 0v1044h55v-1044h-55zM283 1286q0 81 50 127.5t126 46.5q41 0 75.5 -14t52 -28.5t48.5 -45.5t59 -43t76 -12q56 0 85.5 34t29.5 87h53q0 -71 -42.5 -122.5t-129.5 -51.5q-62 0 -101.5 18t-74.5 53q-26 26 -38 37t-39 23t-58 12q-119 0 -119 -121h-53zM385 0v547 q0 179 69.5 271.5t166.5 92.5q49 0 87 -14t61.5 -37.5t39 -57t21.5 -69.5t6 -78v-655h-56v637q0 109 -35.5 165t-123.5 56q-80 0 -130.5 -79.5t-50.5 -231.5v-547h-55zM385 872v172h55v-43q36 36 113 66.5t158 30.5q199 0 291 -99t92 -344v-655h-56v645q0 116 -21.5 195 t-65.5 123t-101.5 62.5t-138.5 18.5q-99 0 -184.5 -46t-141.5 -126z" />
<glyph unicode="&#xf2;" d="M74 518q0 124 33.5 224t89 165.5t130.5 109.5t154 62.5t164 18.5t164 -18.5t154.5 -62t131 -108.5t89 -165t33.5 -224q0 -116 -34.5 -213t-91 -162.5t-131.5 -111t-154.5 -66t-160.5 -20.5q-82 0 -161 20.5t-154 65.5t-131.5 110t-90.5 162t-34 213zM129 518 q0 -104 31 -191.5t82 -146.5t118.5 -100.5t139.5 -60.5t145 -19t145 19t139.5 60.5t118.5 101t82 147.5t31 192q0 112 -30 202t-80 149t-117.5 99t-139.5 57t-149 17t-149 -17.5t-139.5 -57.5t-117.5 -99t-80 -149.5t-30 -202.5zM344 520q0 105 32.5 190.5t102 140 t166.5 54.5t166.5 -54.5t102 -140t32.5 -190.5q0 -167 -75.5 -270t-225.5 -103t-225.5 103t-75.5 270zM399 520q0 -87 24.5 -157t81.5 -116t140 -46t140 46t81.5 116t24.5 157q0 84 -25.5 157.5t-83 124t-137.5 50.5t-137.5 -50.5t-83 -124t-25.5 -157.5zM457 1497h84 l313 -272h-84z" />
<glyph unicode="&#xf3;" d="M74 518q0 124 33.5 224t89 165.5t130.5 109.5t154 62.5t164 18.5t164 -18.5t154.5 -62t131 -108.5t89 -165t33.5 -224q0 -116 -34.5 -213t-91 -162.5t-131.5 -111t-154.5 -66t-160.5 -20.5q-82 0 -161 20.5t-154 65.5t-131.5 110t-90.5 162t-34 213zM129 518 q0 -104 31 -191.5t82 -146.5t118.5 -100.5t139.5 -60.5t145 -19t145 19t139.5 60.5t118.5 101t82 147.5t31 192q0 112 -30 202t-80 149t-117.5 99t-139.5 57t-149 17t-149 -17.5t-139.5 -57.5t-117.5 -99t-80 -149.5t-30 -202.5zM344 520q0 105 32.5 190.5t102 140 t166.5 54.5t166.5 -54.5t102 -140t32.5 -190.5q0 -167 -75.5 -270t-225.5 -103t-225.5 103t-75.5 270zM399 520q0 -87 24.5 -157t81.5 -116t140 -46t140 46t81.5 116t24.5 157q0 84 -25.5 157.5t-83 124t-137.5 50.5t-137.5 -50.5t-83 -124t-25.5 -157.5zM446 1225l314 272 h84l-314 -272h-84z" />
<glyph unicode="&#xf4;" d="M74 518q0 124 33.5 224t89 165.5t130.5 109.5t154 62.5t164 18.5t164 -18.5t154.5 -62t131 -108.5t89 -165t33.5 -224q0 -116 -34.5 -213t-91 -162.5t-131.5 -111t-154.5 -66t-160.5 -20.5q-82 0 -161 20.5t-154 65.5t-131.5 110t-90.5 162t-34 213zM129 518 q0 -104 31 -191.5t82 -146.5t118.5 -100.5t139.5 -60.5t145 -19t145 19t139.5 60.5t118.5 101t82 147.5t31 192q0 112 -30 202t-80 149t-117.5 99t-139.5 57t-149 17t-149 -17.5t-139.5 -57.5t-117.5 -99t-80 -149.5t-30 -202.5zM334 1208l309 308l309 -308h-69l-240 234 l-240 -234h-69zM344 520q0 105 32.5 190.5t102 140t166.5 54.5t166.5 -54.5t102 -140t32.5 -190.5q0 -167 -75.5 -270t-225.5 -103t-225.5 103t-75.5 270zM399 520q0 -87 24.5 -157t81.5 -116t140 -46t140 46t81.5 116t24.5 157q0 84 -25.5 157.5t-83 124t-137.5 50.5 t-137.5 -50.5t-83 -124t-25.5 -157.5z" />
<glyph unicode="&#xf5;" d="M74 518q0 124 33.5 224t89 165.5t130.5 109.5t154 62.5t164 18.5t164 -18.5t154.5 -62t131 -108.5t89 -165t33.5 -224q0 -116 -34.5 -213t-91 -162.5t-131.5 -111t-154.5 -66t-160.5 -20.5q-82 0 -161 20.5t-154 65.5t-131.5 110t-90.5 162t-34 213zM129 518 q0 -104 31 -191.5t82 -146.5t118.5 -100.5t139.5 -60.5t145 -19t145 19t139.5 60.5t118.5 101t82 147.5t31 192q0 112 -30 202t-80 149t-117.5 99t-139.5 57t-149 17t-149 -17.5t-139.5 -57.5t-117.5 -99t-80 -149.5t-30 -202.5zM317 1286q0 81 50.5 127.5t126.5 46.5 q41 0 75.5 -14t52 -28.5t48.5 -45.5t59 -43t76 -12q56 0 85.5 34t29.5 87h53q0 -71 -42.5 -122.5t-129.5 -51.5q-62 0 -101.5 18t-74.5 53q-26 26 -38.5 37t-39.5 23t-58 12q-118 0 -118 -121h-54zM344 520q0 105 32.5 190.5t102 140t166.5 54.5t166.5 -54.5t102 -140 t32.5 -190.5q0 -167 -75.5 -270t-225.5 -103t-225.5 103t-75.5 270zM399 520q0 -87 24.5 -157t81.5 -116t140 -46t140 46t81.5 116t24.5 157q0 84 -25.5 157.5t-83 124t-137.5 50.5t-137.5 -50.5t-83 -124t-25.5 -157.5z" />
<glyph unicode="&#xf6;" d="M74 518q0 124 33.5 224t89 165.5t130.5 109.5t154 62.5t164 18.5t164 -18.5t154.5 -62t131 -108.5t89 -165t33.5 -224q0 -116 -34.5 -213t-91 -162.5t-131.5 -111t-154.5 -66t-160.5 -20.5q-82 0 -161 20.5t-154 65.5t-131.5 110t-90.5 162t-34 213zM129 518 q0 -104 31 -191.5t82 -146.5t118.5 -100.5t139.5 -60.5t145 -19t145 19t139.5 60.5t118.5 101t82 147.5t31 192q0 112 -30 202t-80 149t-117.5 99t-139.5 57t-149 17t-149 -17.5t-139.5 -57.5t-117.5 -99t-80 -149.5t-30 -202.5zM344 520q0 105 32.5 190.5t102 140 t166.5 54.5t166.5 -54.5t102 -140t32.5 -190.5q0 -167 -75.5 -270t-225.5 -103t-225.5 103t-75.5 270zM399 520q0 -87 24.5 -157t81.5 -116t140 -46t140 46t81.5 116t24.5 157q0 84 -25.5 157.5t-83 124t-137.5 50.5t-137.5 -50.5t-83 -124t-25.5 -157.5zM401 1235v254h56 v-254h-56zM543 1235v254h55v-254h-55zM684 1235v254h55v-254h-55zM825 1235v254h56v-254h-56z" />
<glyph unicode="&#xf7;" d="M92 485v56h1106v-56h-1106zM92 719v59h1106v-59h-1106zM463 82v291h55v-291h-55zM463 887v291h55v-291h-55zM772 82v291h55v-291h-55zM772 887v291h55v-291h-55z" />
<glyph unicode="&#xf8;" d="M14 35l158 141q-98 141 -98 342q0 124 33.5 224t89 165.5t130.5 109.5t154 62.5t164 18.5q109 0 212 -33t181 -100l136 122l36 -43l-131 -120q138 -151 138 -404q0 -116 -34.5 -213t-91 -162.5t-131.5 -111t-154.5 -66t-160.5 -20.5q-122 0 -238.5 46.5t-197.5 137.5 l-158 -139zM129 518q0 -104 31 -191.5t82 -146.5t118.5 -100.5t139.5 -60.5t145 -19t145 19t139.5 60.5t118.5 101t82 147.5t31 192q0 112 -30 202t-80 149t-117.5 99t-139.5 57t-149 17t-149 -17.5t-139.5 -57.5t-117.5 -99t-80 -149.5t-30 -202.5zM344 520 q0 105 32.5 190.5t102 140t166.5 54.5t166.5 -54.5t102 -140t32.5 -190.5q0 -167 -75.5 -270t-225.5 -103t-225.5 103t-75.5 270zM399 520q0 -76 21 -143l399 385q-66 90 -174 90q-80 0 -137.5 -50.5t-83 -124t-25.5 -157.5zM442 322q66 -121 203 -121q83 0 140 46t81.5 116 t24.5 157q0 110 -41 191z" />
<glyph unicode="&#xf9;" horiz-adv-x="1234" d="M131 389v655h55v-653q0 -112 23.5 -190t69.5 -121t105 -61.5t140 -18.5q92 0 176 46t140 126v-172h-56v43q-36 -36 -112.5 -66t-157.5 -30q-97 0 -166 22t-119 72.5t-74 136.5t-24 211zM389 389v655h55v-636q0 -108 36 -165t124 -57q80 0 130 80t50 232v546h56v-546 q0 -180 -69.5 -272.5t-166.5 -92.5q-49 0 -87 14t-61.5 37.5t-39 57t-21.5 69.5t-6 78zM412 1497h84l313 -272h-84zM1036 0v1044h56v-1044h-56z" />
<glyph unicode="&#xfa;" horiz-adv-x="1234" d="M131 389v655h55v-653q0 -112 23.5 -190t69.5 -121t105 -61.5t140 -18.5q92 0 176 46t140 126v-172h-56v43q-36 -36 -112.5 -66t-157.5 -30q-97 0 -166 22t-119 72.5t-74 136.5t-24 211zM389 389v655h55v-636q0 -108 36 -165t124 -57q80 0 130 80t50 232v546h56v-546 q0 -180 -69.5 -272.5t-166.5 -92.5q-49 0 -87 14t-61.5 37.5t-39 57t-21.5 69.5t-6 78zM412 1225l313 272h84l-313 -272h-84zM1036 0v1044h56v-1044h-56z" />
<glyph unicode="&#xfb;" horiz-adv-x="1234" d="M131 389v655h55v-653q0 -112 23.5 -190t69.5 -121t105 -61.5t140 -18.5q92 0 176 46t140 126v-172h-56v43q-36 -36 -112.5 -66t-157.5 -30q-97 0 -166 22t-119 72.5t-74 136.5t-24 211zM301 1208l309 308l310 -308h-70l-240 234l-239 -234h-70zM389 389v655h55v-636 q0 -108 36 -165t124 -57q80 0 130 80t50 232v546h56v-546q0 -180 -69.5 -272.5t-166.5 -92.5q-49 0 -87 14t-61.5 37.5t-39 57t-21.5 69.5t-6 78zM1036 0v1044h56v-1044h-56z" />
<glyph unicode="&#xfc;" horiz-adv-x="1234" d="M131 389v655h55v-653q0 -112 23.5 -190t69.5 -121t105 -61.5t140 -18.5q92 0 176 46t140 126v-172h-56v43q-36 -36 -112.5 -66t-157.5 -30q-97 0 -166 22t-119 72.5t-74 136.5t-24 211zM367 1235v254h55v-254h-55zM389 389v655h55v-636q0 -108 36 -165t124 -57 q80 0 130 80t50 232v546h56v-546q0 -180 -69.5 -272.5t-166.5 -92.5q-49 0 -87 14t-61.5 37.5t-39 57t-21.5 69.5t-6 78zM508 1235v254h55v-254h-55zM649 1235v254h56v-254h-56zM791 1235v254h55v-254h-55zM1036 0v1044h56v-1044h-56z" />
<glyph unicode="&#xfd;" horiz-adv-x="1013" d="M0 1044h63l304 -981q22 -70 14 -122q-3 -16 -11.5 -33t-25.5 -36t-49 -30.5t-74 -11.5h-135v53h135q51 0 77 21t28 55q3 38 -15 90zM86 -315h215q122 0 187 63.5t110 204.5l354 1091h60l-369 -1130q-90 -283 -340 -283h-217v54zM264 1044h62l188 -677l178 677h58 l-238 -870zM477 1225l314 272h83l-313 -272h-84z" />
<glyph unicode="&#xfe;" horiz-adv-x="1277" d="M135 -514v1960h55v-1960h-55zM444 53h185q79 0 153 15t142 49.5t118.5 85t80.5 127t30 170.5q0 111 -38 194t-108 134.5t-164.5 76.5t-213.5 25h-185v516h56v-463h129q175 0 302.5 -50.5t202 -160.5t74.5 -272q0 -106 -35.5 -192.5t-93 -142.5t-134 -94t-155.5 -54.5 t-161 -16.5h-129v-514h-56v567zM444 236v509h144q45 0 87 -7t84.5 -24.5t73.5 -45t50.5 -71t19.5 -99.5q0 -132 -82.5 -197t-226.5 -65h-150zM500 289h94q127 0 190.5 55t63.5 154q0 56 -22.5 95.5t-61.5 60t-82 29.5t-94 9h-88v-403z" />
<glyph unicode="&#xff;" horiz-adv-x="1013" d="M0 1044h66l301 -981q22 -70 14 -122q-3 -16 -11.5 -33t-25.5 -36t-49 -30.5t-74 -11.5h-135v53h135q51 0 77 22t26 56q0 41 -19 102zM86 -315h215q122 0 187 63.5t110 204.5l354 1091h62l-371 -1130q-90 -283 -340 -283h-217v54zM260 1044h62l190 -671l176 671h62 l-238 -870zM266 1235v254h56v-254h-56zM408 1235v254h55v-254h-55zM549 1235v254h55v-254h-55zM690 1235v254h55v-254h-55z" />
<glyph unicode="&#x131;" horiz-adv-x="598" d="M141 0v1044h56v-1044h-56zM399 0v1044h56v-1044h-56z" />
<glyph unicode="&#x152;" horiz-adv-x="2260" d="M86 731q0 120 25 230t78.5 205.5t130.5 165.5t187.5 110.5t242.5 40.5q157 0 305 -80v43h1093v-53h-1038v-90q-38 46 -147 85t-213 39q-121 0 -222.5 -37t-172 -102t-119.5 -153.5t-72 -190t-23 -213.5q0 -115 25 -219.5t75.5 -193t122 -153.5t171 -101.5t215.5 -36.5 q103 0 207 32t153 70v-76h1038v-53h-1093v37q-149 -66 -305 -66q-127 0 -235 39.5t-186.5 109.5t-133.5 165.5t-82 208.5t-27 237zM395 727q0 62 13 128t45.5 136.5t80 125.5t123 90.5t168.5 35.5q83 0 161 -31.5t124 -89.5v-786q-94 -127 -291 -127q-55 0 -112 18.5 t-113.5 60t-100 100.5t-71 147t-27.5 192zM451 727q0 -94 24 -173.5t63 -131.5t88 -89t98 -53t95 -16q78 0 146 25.5t90 70.5v734q-21 38 -87 66t-143 28q-80 0 -145.5 -32t-107 -81.5t-70 -112.5t-40 -122t-11.5 -113zM1360 240v401h768v-55h-709v-293h729v-53h-788z M1360 827v379h788v-53h-729v-272h709v-54h-768z" />
<glyph unicode="&#x153;" horiz-adv-x="2019" d="M74 518q0 124 33.5 224t89 165.5t130.5 109.5t154 62.5t164 18.5q114 0 220 -35.5t186 -108.5q144 144 389 144q121 0 217 -36.5t154.5 -94t97 -135.5t53 -153.5t14.5 -154.5v-71h-764v-13q0 -109 66.5 -181.5t173.5 -72.5q106 0 178 51.5t99 127.5l53 -27 q-34 -90 -126 -147.5t-204 -57.5q-57 0 -108 18.5t-94.5 55t-69 100.5t-25.5 146v53h766v18q-1 81 -17 153.5t-52.5 140.5t-90 117.5t-136 79t-185.5 29.5q-256 0 -387 -176q-72 88 -180.5 132t-227.5 44q-77 0 -149 -17.5t-139.5 -57.5t-117.5 -99t-80 -149.5t-30 -202.5 q0 -104 31 -191.5t82 -146.5t118.5 -100.5t139.5 -60.5t145 -19q113 0 222 46t182 136q68 -88 172 -135t231 -47q152 0 272.5 69t188.5 201l51 -26q-161 -297 -512 -297q-249 0 -403 151q-81 -76 -187 -113.5t-217 -37.5q-82 0 -161 20.5t-154 65.5t-131.5 110t-90.5 162 t-34 213zM344 520q0 105 32.5 190.5t102 140t166.5 54.5t166.5 -54.5t102 -140t32.5 -190.5q0 -167 -75.5 -270t-225.5 -103t-225.5 103t-75.5 270zM399 520q0 -87 24.5 -157t81.5 -116t140 -46t140 46t81.5 116t24.5 157q0 84 -25.5 157.5t-83 124t-137.5 50.5 t-137.5 -50.5t-83 -124t-25.5 -157.5zM1155 614h559q0 140 -71 226t-205 86q-74 0 -131.5 -30t-89 -77.5t-47 -99.5t-15.5 -105zM1221 668q4 33 17.5 66t38 65.5t66.5 52.5t95 20q93 0 147 -57.5t62 -146.5h-426z" />
<glyph unicode="&#x160;" horiz-adv-x="1353" d="M47 233l47 41q146 -153 293.5 -211.5t335.5 -60.5q125 -1 228 33t169 93t101.5 136t35.5 162q0 156 -112.5 259t-362.5 151l-170 30q-225 38 -225 207q0 78 75 137.5t218 59.5q126 0 218 -46t179 -143l-39 -39q-86 93 -165.5 132.5t-192.5 39.5q-114 0 -176 -41.5 t-62 -99.5q0 -121 179 -151l170 -33q277 -58 399.5 -169t122.5 -292q0 -91 -37 -175.5t-107.5 -153.5t-186 -110.5t-259.5 -41.5q-220 0 -378 68t-298 218zM78 1053q0 200 161.5 323t426.5 123q355 0 596 -237l-41 -41q-212 223 -555 223q-239 0 -386 -108t-147 -283 q0 -156 115.5 -262t296.5 -136l186 -34q67 -13 112 -27.5t86.5 -39.5t62 -63.5t20.5 -91.5q0 -98 -75 -157.5t-204 -59.5t-256 63t-221 177l43 37q91 -103 206 -162t228 -59q115 0 168 45.5t53 115.5q0 71 -59.5 108t-175.5 60l-182 33q-206 34 -332.5 151.5t-126.5 301.5z M381 1901h70l239 -234l240 234h69l-309 -308z" />
<glyph unicode="&#x161;" horiz-adv-x="1101" d="M31 166l45 41q77 -87 205 -147t288 -60q62 0 122.5 12t116.5 38.5t98 64t67.5 93.5t25.5 122q0 111 -78.5 183t-252.5 105l-76 15q-113 23 -170 60t-57 98q0 56 56.5 91.5t153.5 35.5q87 0 168 -34.5t142 -84.5l-45 -41q-130 106 -265 106q-155 0 -155 -73 q0 -39 40.5 -64.5t133.5 -44.5l76 -14q190 -36 287.5 -115.5t97.5 -222.5q0 -77 -29 -141.5t-77.5 -108.5t-112 -74.5t-131 -44.5t-136.5 -14q-183 0 -319.5 63.5t-218.5 155.5zM106 741q0 70 29 133t84 113.5t143 80.5t197 30q264 0 475 -160l-45 -41q-77 66 -188.5 106.5 t-241.5 40.5q-185 0 -291 -82.5t-106 -220.5q0 -43 14 -81.5t46 -76.5t94 -67.5t149 -44.5l96 -16q71 -11 116.5 -25.5t68.5 -35t31.5 -42.5t8.5 -53q0 -74 -54.5 -117t-156.5 -43q-109 0 -208 43t-177 125l41 41q69 -73 162 -114t182 -41q80 0 118 25t38 81q0 42 -39 63 t-131 35l-96 17q-359 61 -359 327zM258 1516h70l239 -234l240 234h70l-310 -308z" />
<glyph unicode="&#x178;" horiz-adv-x="1429" d="M6 1446h70l514 -811v-635h-55v616zM360 1446h66l291 -508l289 508h65l-354 -604zM471 1597v254h55v-254h-55zM612 1597v254h56v-254h-56zM754 1597v254h55v-254h-55zM836 0v645l520 801h67l-532 -819v-627h-55zM895 1597v254h55v-254h-55z" />
<glyph unicode="&#x17d;" horiz-adv-x="1239" d="M33 0v53h1186v-53h-1186zM33 209v82l700 864h-655v53h776zM78 1393v53h1120v-53h-1120zM360 1901h70l240 -234l239 234h70l-309 -308zM362 238l836 1007v-82l-713 -872h734v-53h-857z" />
<glyph unicode="&#x17e;" horiz-adv-x="1083" d="M70 0v236l551 567h-517v53h648l-627 -643v-160h895v-53h-950zM104 991v53h916v-241l-543 -559h543v-54h-674l619 635v166h-861zM223 1516h70l239 -234l240 234h70l-310 -308z" />
<glyph unicode="&#x192;" horiz-adv-x="794" d="M10 -152h29q29 0 44 0.5t33.5 4.5t27 9.5t20 19t16 29.5t11 44t10 60.5t8.5 80.5l70 711h-146v55h207l-76 -772q-8 -71 -15 -115.5t-19.5 -80.5t-26 -53.5t-38.5 -29.5t-52.5 -15t-73.5 -3h-29v55zM10 -334h152q75 0 127.5 20.5t85.5 65t51 104t29 146.5l92 860h258v-55 h-209l-86 -811q-11 -106 -31 -174t-59 -118t-101.5 -71.5t-156.5 -21.5h-152v55zM133 942v55h168l21 150q39 272 329 272h154v-55h-154q-68 0 -119 -18.5t-82 -52t-48.5 -71t-24.5 -83.5l-27 -197h-217zM557 942l12 123q6 56 21.5 92t41.5 52.5t51 22t62 5.5h60v-55h-60 q-25 0 -42 -4t-34.5 -15.5t-28.5 -37.5t-15 -66l-7 -62h187v-55h-248z" />
<glyph unicode="&#x2c6;" horiz-adv-x="761" d="M72 1204l309 307l309 -307h-69l-240 234l-240 -234h-69z" />
<glyph unicode="&#x2c7;" horiz-adv-x="761" d="M72 1511h69l240 -233l240 233h69l-309 -307z" />
<glyph unicode="&#x2d8;" horiz-adv-x="653" d="M10 1475h56q0 -66 25.5 -117t66 -79t84 -42t86.5 -14q107 0 182.5 65t75.5 187h57q0 -146 -88 -226t-227 -80q-61 0 -116 17.5t-101 52.5t-73.5 95.5t-27.5 140.5z" />
<glyph unicode="&#x2d9;" horiz-adv-x="555" d="M117 1208v271h55v-271h-55zM383 1208v271h55v-271h-55z" />
<glyph unicode="&#x2da;" horiz-adv-x="634" d="M147 1341q0 71 49.5 120.5t120.5 49.5t120.5 -49.5t49.5 -120.5t-49.5 -120.5t-120.5 -49.5t-120.5 49.5t-49.5 120.5zM201 1341q0 -46 35 -81t81 -35q45 0 81 35.5t36 80.5q0 44 -36.5 80.5t-80.5 36.5q-45 0 -80.5 -36t-35.5 -81z" />
<glyph unicode="&#x2dc;" horiz-adv-x="868" d="M96 1331q0 81 50 127.5t126 46.5q41 0 75.5 -14t53 -29t48.5 -45q31 -31 59 -43t76 -12q56 0 85 34t29 87h54q0 -71 -42.5 -122.5t-129.5 -51.5q-62 0 -102 18t-75 53q-26 26 -38 37t-39 23t-58 12q-118 0 -118 -121h-54z" />
<glyph unicode="&#x2dd;" horiz-adv-x="1263" d="M92 1200l150 273h63l-149 -273h-64zM248 1200l313 273h84l-313 -273h-84zM594 1200l149 273h64l-150 -273h-63zM750 1200l313 273h84l-313 -273h-84z" />
<glyph unicode="&#x3c0;" horiz-adv-x="1300" d="M18 950v56h177v-1006h-60v950h-117zM18 1174v55h1264v-55h-1264zM446 0v1006h408v-1006h-59v950h-289v-950h-60zM1106 0v1006h176v-56h-117v-950h-59z" />
<glyph unicode="&#x2000;" horiz-adv-x="959" />
<glyph unicode="&#x2001;" horiz-adv-x="1919" />
<glyph unicode="&#x2002;" horiz-adv-x="959" />
<glyph unicode="&#x2003;" horiz-adv-x="1919" />
<glyph unicode="&#x2004;" horiz-adv-x="639" />
<glyph unicode="&#x2005;" horiz-adv-x="479" />
<glyph unicode="&#x2006;" horiz-adv-x="319" />
<glyph unicode="&#x2007;" horiz-adv-x="319" />
<glyph unicode="&#x2008;" horiz-adv-x="239" />
<glyph unicode="&#x2009;" horiz-adv-x="383" />
<glyph unicode="&#x200a;" horiz-adv-x="106" />
<glyph unicode="&#x2010;" horiz-adv-x="796" d="M92 485v56h613v-56h-613zM92 719v59h613v-59h-613z" />
<glyph unicode="&#x2011;" horiz-adv-x="796" d="M92 485v56h613v-56h-613zM92 719v59h613v-59h-613z" />
<glyph unicode="&#x2012;" horiz-adv-x="796" d="M92 485v56h613v-56h-613zM92 719v59h613v-59h-613z" />
<glyph unicode="&#x2013;" horiz-adv-x="1282" d="M78 485v56h1126v-56h-1126zM78 719v59h1126v-59h-1126z" />
<glyph unicode="&#x2014;" horiz-adv-x="1880" d="M78 485v56h1724v-56h-1724zM78 719v59h1724v-59h-1724z" />
<glyph unicode="&#x2018;" horiz-adv-x="595" d="M92 801v53h365v-53h-365zM92 1038v86q0 151 75.5 236.5t213.5 85.5h76v-55h-68q-233 0 -233 -275v-24h301v-54h-365z" />
<glyph unicode="&#x2019;" horiz-adv-x="595" d="M139 801v55h68q233 0 233 274v25h-301v53h365v-86q0 -151 -75.5 -236t-213.5 -85h-76zM139 1393v53h365v-53h-365z" />
<glyph unicode="&#x201a;" horiz-adv-x="512" d="M53 0v53h365v-86q0 -150 -75 -233.5t-214 -83.5h-39v55h31q110 0 171.5 65.5t61.5 204.5v25h-301zM53 295v53h365v-53h-365z" />
<glyph unicode="&#x201c;" horiz-adv-x="1107" d="M92 801v53h365v-53h-365zM92 1038v86q0 151 75.5 236.5t213.5 85.5h76v-55h-68q-233 0 -233 -275v-24h301v-54h-365zM604 801v53h365v-53h-365zM604 1038v86q0 151 75.5 236.5t213.5 85.5h76v-55h-68q-233 0 -233 -275v-24h301v-54h-365z" />
<glyph unicode="&#x201d;" horiz-adv-x="1107" d="M139 801v55h68q233 0 233 274v25h-301v53h365v-86q0 -151 -75.5 -236t-213.5 -85h-76zM139 1393v53h365v-53h-365zM651 801v55h68q233 0 233 274v25h-301v53h365v-86q0 -151 -75.5 -236t-213.5 -85h-76zM651 1393v53h365v-53h-365z" />
<glyph unicode="&#x201e;" horiz-adv-x="980" d="M53 0v53h365v-86q0 -150 -75 -233.5t-214 -83.5h-39v55h31q110 0 171.5 65.5t61.5 204.5v25h-301zM53 295v53h365v-53h-365zM565 0v53h365v-86q0 -150 -75 -233.5t-214 -83.5h-39v55h31q110 0 171.5 65.5t61.5 204.5v25h-301zM565 295v53h365v-53h-365z" />
<glyph unicode="&#x2020;" horiz-adv-x="1193" d="M80 713v53h391v-1010h-59v957h-332zM80 952v54h332v446h59v-500h-391zM717 -244v1010h395v-53h-336v-957h-59zM717 952v500h59v-446h336v-54h-395z" />
<glyph unicode="&#x2021;" horiz-adv-x="1193" d="M137 102v54h334v-400h-59v346h-275zM137 342v53h275v436h-275v54h334v-543h-334zM137 1071v53h275v322h59v-375h-334zM717 156h340v-54h-281v-346h-59v400zM717 342v543h342v-54h-283v-436h281v-53h-340zM717 1071v375h59v-322h283v-53h-342z" />
<glyph unicode="&#x2022;" horiz-adv-x="788" d="M139 463v59h510v-59h-510zM139 911v60h510v-60h-510z" />
<glyph unicode="&#x2026;" horiz-adv-x="2048" d="M106 0v348h365v-348h-55v295h-254v-295h-56zM840 0v348h364v-348h-55v295h-254v-295h-55zM1577 0v348h365v-348h-56v295h-254v-295h-55z" />
<glyph unicode="&#x202f;" horiz-adv-x="383" />
<glyph unicode="&#x2030;" horiz-adv-x="2273" d="M92 1102q0 126 88.5 214.5t214.5 88.5t214.5 -88.5t88.5 -214.5t-88.5 -214.5t-214.5 -88.5t-214.5 88.5t-88.5 214.5zM147 1102q0 -103 72.5 -175.5t175.5 -72.5t175.5 72.5t72.5 175.5t-72.5 175.5t-175.5 72.5t-175.5 -72.5t-72.5 -175.5zM272 0l752 1446h61 l-751 -1446h-62zM530 0l752 1446h61l-751 -1446h-62zM887 291q0 126 88.5 214.5t214.5 88.5t214.5 -88.5t88.5 -214.5t-88.5 -214.5t-214.5 -88.5t-214.5 88.5t-88.5 214.5zM942 291q0 -103 72.5 -175.5t175.5 -72.5t175.5 72.5t72.5 175.5t-72.5 175.5t-175.5 72.5 t-175.5 -72.5t-72.5 -175.5zM1575 291q0 126 88.5 214.5t214.5 88.5t214.5 -88.5t88.5 -214.5t-88.5 -214.5t-214.5 -88.5t-214.5 88.5t-88.5 214.5zM1630 291q0 -103 72.5 -175.5t175.5 -72.5t175.5 72.5t72.5 175.5t-72.5 175.5t-175.5 72.5t-175.5 -72.5t-72.5 -175.5z " />
<glyph unicode="&#x2039;" horiz-adv-x="655" d="M139 446v310l404 215v-62l-348 -188v-240l348 -184v-61zM406 575v76l137 64v-62l-94 -41l94 -43v-61z" />
<glyph unicode="&#x203a;" horiz-adv-x="655" d="M113 236v61l348 184v240l-348 188v62l403 -215v-310zM113 508v61l94 43l-94 41v62l137 -64v-76z" />
<glyph unicode="&#x2044;" horiz-adv-x="980" d="M-61 0l751 1446h62l-752 -1446h-61zM229 0l752 1446h61l-751 -1446h-62z" />
<glyph unicode="&#x205f;" horiz-adv-x="479" />
<glyph unicode="&#x20ac;" horiz-adv-x="1525" d="M-39 565l25 53h219q-4 66 -4 105v10h-164l24 53h142q20 300 215 474t493 174q286 0 471 -154l-24 -55q-105 89 -214.5 121t-232.5 32q-189 0 -336.5 -77t-233 -227t-85.5 -351q0 -142 36.5 -260t100 -201t149.5 -140.5t184.5 -84.5t205.5 -27q95 0 179 21t146 55 t112.5 81t83 94.5t54.5 98.5l49 -24q-81 -176 -237 -278.5t-387 -102.5q-104 0 -200.5 23.5t-183 72.5t-155 120t-116.5 172t-66 222h-250zM512 733q0 206 116 332.5t316 126.5q228 -5 336 -141l-27 -60q-35 66 -117 106t-192 40q-161 0 -261 -95.5t-114 -255.5h594l-24 -53 h-572q0 -68 8 -115h512l-24 -53h-477q38 -148 136 -227.5t222 -79.5q66 0 121.5 23.5t91.5 61.5t58 74.5t34 74.5l49 -25q-14 -42 -39.5 -83t-66.5 -84t-106 -70t-142 -27q-86 0 -162.5 33.5t-137.5 98t-96.5 167.5t-35.5 231z" />
<glyph unicode="&#x2122;" horiz-adv-x="1865" d="M61 1153v53h162v-440h-59v387h-103zM61 1393v53h1092l66 -246l2 -10l2 10l65 246h459v-680h-55v627h-357l-88 -318h-53l-88 318h-1045zM469 766v440h274v-440h-55v387h-160v-387h-59zM946 766v440h62l129 -440h-62l-74 260v-260h-55zM1298 766l129 440h62v-440h-55v260 l-74 -260h-62z" />
<glyph unicode="&#x2202;" horiz-adv-x="1179" d="M59 422q0 214 126 347.5t325 133.5q135 0 240 -67v24q0 186 -56 264t-182 78q-64 0 -219 -41v56q146 40 219 40q156 0 226.5 -91t70.5 -306v-133q-90 74 -158.5 97.5t-140.5 23.5q-174 0 -282.5 -118t-108.5 -308q0 -179 113 -287t300 -108q174 0 283.5 73t166 238.5 t56.5 433.5q0 332 -109 489.5t-337 157.5q-144 0 -299 -49v57q149 48 299 48q257 0 381.5 -171.5t124.5 -531.5q0 -421 -139 -611t-427 -190q-212 0 -342.5 124t-130.5 327zM336 432q0 118 61.5 191t159.5 73q140 0 234 -98q-2 -200 -62 -313t-174 -113q-97 0 -158 72 t-61 188zM395 432q0 -92 44 -148.5t116 -56.5q171 0 174 355q-36 26 -51 35t-45.5 16.5t-75.5 7.5q-73 0 -117.5 -57.5t-44.5 -151.5z" />
<glyph unicode="&#x220f;" horiz-adv-x="1536" d="M135 -250v1696h1264v-1696h-60v1641h-1144v-1641h-60zM446 -250v1473h639v-1473h-59v1417h-520v-1417h-60z" />
<glyph unicode="&#x2211;" horiz-adv-x="1259" d="M53 16l488 588l-488 570v272h1159v-55h-1103v-197l503 -590l-503 -608v-191h1103v-55h-1159v266zM332 -20l538 636l-522 607h864v-56h-743l475 -551l-493 -581h761v-55h-880z" />
<glyph unicode="&#x221e;" horiz-adv-x="1482" d="M59 653q0 193 102 320t255 127q101 0 176 -49.5t153 -167.5q84 117 158.5 168t173.5 51q151 0 248.5 -120.5t97.5 -309.5q0 -198 -99 -322.5t-255 -124.5q-103 0 -178.5 46.5t-159.5 162.5q-82 -116 -152.5 -163.5t-170.5 -47.5q-157 0 -253 117t-96 313zM119 653 q0 -172 78.5 -273t210.5 -101q83 0 154 57t169 194q101 -139 175.5 -194t162.5 -55q131 0 213 109t82 282q0 164 -80.5 269.5t-206.5 105.5q-82 0 -146 -45t-140 -150l-46 -64l-47 64q-69 104 -133 148t-149 44q-128 0 -212.5 -111t-84.5 -280zM262 659q0 95 43.5 154 t114.5 59q51 0 100 -43.5t109 -142.5l18 -29l-18 -30q-63 -96 -113 -138.5t-100 -42.5q-69 0 -111.5 59t-42.5 154zM322 659q0 -71 25 -114t69 -43q34 0 71 35.5t91 119.5q-51 87 -87 123.5t-71 36.5q-45 0 -71.5 -43.5t-26.5 -114.5zM840 657l18 29q61 95 110.5 137.5 t102.5 42.5q68 0 110 -58.5t42 -152.5q0 -96 -43.5 -155.5t-112.5 -59.5q-55 0 -101.5 42.5t-107.5 144.5zM909 655q53 -89 87.5 -124t70.5 -35q44 0 70 43.5t26 115.5q0 70 -25 113t-67 43q-35 0 -71.5 -36t-90.5 -120z" />
<glyph unicode="&#x222b;" horiz-adv-x="774" d="M41 -55q41 -41 96 -41q47 0 60.5 29t13.5 112v1014q0 105 14.5 176.5t51 126t103.5 80.5t167 26q82 0 164 -26v-60q-95 31 -164 31q-84 0 -139.5 -22.5t-86.5 -69.5t-43 -109t-12 -153v-1014q0 -106 -25.5 -151.5t-86.5 -45.5q-70 0 -113 31v66zM41 -266q83 -39 178 -39 q156 0 216.5 88t60.5 293v981q0 114 28.5 159.5t89.5 45.5q52 0 97 -25v-61q-43 30 -84 30q-44 0 -60 -31.5t-16 -117.5v-981q0 -235 -72.5 -335.5t-259.5 -100.5q-81 0 -178 32v62z" />
<glyph unicode="&#x2248;" horiz-adv-x="1284" d="M139 229v72q95 102 221 102q99 0 256 -69l117 -51q112 -50 185 -50q68 0 121 32t106 108v-76q-88 -119 -227 -119q-89 0 -207 53l-117 52q-149 65 -234 65q-67 0 -118.5 -29.5t-102.5 -89.5zM139 479v72q90 96 221 96q99 0 256 -69l117 -52q110 -49 185 -49q65 0 109 30 t118 120v-76q-96 -129 -227 -129q-89 0 -207 53l-117 51q-151 66 -234 66q-135 0 -221 -113zM139 721v72q95 102 221 102q97 0 256 -70l117 -51q110 -49 185 -49q68 0 121 31.5t106 107.5v-76q-88 -118 -227 -118q-89 0 -207 53l-117 51q-151 66 -234 66q-67 0 -118.5 -29.5 t-102.5 -89.5zM139 971v71q91 97 221 97q97 0 256 -70l117 -51q110 -49 185 -49q65 0 109.5 29.5t117.5 119.5v-76q-96 -129 -227 -129q-87 0 -207 54l-117 51q-149 65 -234 65q-136 0 -221 -112z" />
<glyph unicode="&#x2260;" horiz-adv-x="1353" d="M139 276v56h1075v-56h-686l-143 -288h-61l143 288h-328zM139 485v60h459l86 176h-545v55h1075v-55h-469l-86 -176h555v-60h-1075zM139 930v59h678l135 273h62l-135 -273h335v-59h-1075z" />
<glyph unicode="&#x2264;" horiz-adv-x="1095" d="M139 0v55h844v-55h-844zM139 209v59h695l-695 279v205l844 338v-62l-788 -311v-135l788 -312v-61h-844zM496 610v78l487 146v-62l-432 -123l432 -123v-61z" />
<glyph unicode="&#x2265;" horiz-adv-x="1095" d="M113 0v55h843v-55h-843zM113 209v61l788 312v135l-788 311v62l843 -338v-205l-694 -279h694v-59h-843zM113 465v61l432 123l-432 123v62l487 -146v-78z" />
<glyph unicode="&#x25ca;" horiz-adv-x="1222" d="M51 725l406 721h63l-405 -721l403 -725h-65zM330 723l291 575l270 -575l-289 -565zM391 723l213 -440l225 442l-211 449zM705 0l403 725l-397 721h63l397 -721l-401 -725h-65z" />
<glyph unicode="&#x25fc;" horiz-adv-x="1044" d="M0 0v1044h1044v-1044h-1044z" />
</font>
</defs>
</svg>
