<?xml version="1.0" standalone="no"?>
<!DOCTYPE svg PUBLIC "-//W3C//DTD SVG 1.1//EN" "http://www.w3.org/Graphics/SVG/1.1/DTD/svg11.dtd" >
<svg xmlns="http://www.w3.org/2000/svg" xmlns:xlink="http://www.w3.org/1999/xlink" version="1.1">
<metadata></metadata>
<defs>
<font id="rebuildmedium" horiz-adv-x="1290" >
<font-face units-per-em="2048" ascent="1536" descent="-512" />
<missing-glyph horiz-adv-x="821" />
<glyph unicode="&#xfb01;" horiz-adv-x="1153" d="M20 821v223h168v154q0 136 91 218.5t231 82.5q108 0 242 -67h258v-54l-252 -131h252v-53h-281q-84 45 -154 45q-43 0 -58 -15t-15 -59v-121h508v-1044h-56v991h-2l-200 -117v-874h-56v821h-194v-821h-56v555l-202 -162v-393h-56v821h-168z" />
<glyph unicode="&#xfb02;" horiz-adv-x="1153" d="M20 821v223h168v154q0 136 91 218.5t231 82.5q22 0 44.5 -2t40 -5t37 -9t31.5 -9.5t29 -11t23.5 -10.5t21 -10t15.5 -8v-58q-3 2 -25.5 14t-39.5 19t-45 17t-61.5 15t-70.5 5q-101 0 -166 -47q6 -4 160 -121q28 14 71 14q39 0 92 -13.5t85 -31.5v-172l202 -145v516h56 v-1446h-314v821h-194v-821h-56v385l-202 225v-610h-56v821h-168zM502 1044h194v168q-1 0 -15.5 5t-30 9.5t-37 8.5t-38.5 4q-43 0 -58 -15t-15 -59v-121z" />
<glyph horiz-adv-x="0" />
<glyph horiz-adv-x="682" />
<glyph unicode=" "  horiz-adv-x="821" />
<glyph unicode="&#x09;" horiz-adv-x="821" />
<glyph unicode="&#xa0;" horiz-adv-x="821" />
<glyph unicode="!" horiz-adv-x="598" d="M170 0v291h365v-291h-56v238l-254 -238h-55zM170 1014v432h55v-422l19 -162l235 359v225h56v-432l-76 -600h-213z" />
<glyph unicode="&#x22;" horiz-adv-x="1026" d="M72 1522h55l25 -230l208 -114l37 344h56l-68 -623h-246zM573 1522h56l39 -357l217 232l14 125h55l-67 -623h-246z" />
<glyph unicode="#" horiz-adv-x="1495" d="M86 381v254h229l27 194h-205v254h240l51 363h57l177 -219l30 219h56l-52 -363h205l49 363h58l-58 -418l-20 -143l-43 -305l188 -144h287v-55h-238l-53 -381h-323l55 381h-201l-55 -381h-320l52 381h-193zM635 635h203l28 194h-204zM1098 580l39 305h272v-56h-223 l-25 -194h201v-55h-264zM1159 1028l55 418h58l-49 -363h186v-55h-250z" />
<glyph unicode="$" horiz-adv-x="1452" d="M55 244l43 39q234 -248 588 -260v176q-242 12 -422 233l45 39q89 -111 174 -162t203 -55v285l-139 18q-100 14 -182.5 45t-147 81t-100 124.5t-35.5 167.5q0 209 164 323.5t436 114.5h4v123h55v-125q167 -10 287.5 -71.5t226.5 -165.5l-41 -41q-102 107 -227.5 166 t-304.5 59q-314 0 -457 -152l185 -127q66 105 272 105q236 0 393 -187l-39 -39q-121 149 -295 166v-262l50 -8q284 -44 407 -141.5t123 -276.5q0 -94 -36.5 -176t-107 -146.5t-182.5 -103.5t-254 -43v-190h-55v190q-194 4 -348 73t-283 204zM446 1008q0 -57 44.5 -86 t140.5 -43l55 -9v258h-4q-117 0 -176.5 -32t-59.5 -88zM741 254q100 3 158.5 38.5t58.5 100.5q0 34 -15.5 58t-47.5 39t-66.5 23.5t-87.5 16.5v-276zM741 586q52 -8 87 -15.5t73 -22t60.5 -34t37.5 -50.5t15 -71q0 -83 -66 -133l205 -98q113 110 113 274q0 153 -112.5 238.5 t-371.5 126.5l-41 6v-221z" />
<glyph unicode="%" horiz-adv-x="1585" d="M92 1102q0 126 88.5 214.5t214.5 88.5t214.5 -88.5t88.5 -214.5t-88.5 -214.5t-214.5 -88.5t-214.5 88.5t-88.5 214.5zM182 1229l402 -289q59 69 59 162q0 103 -72.5 175.5t-175.5 72.5q-66 0 -123 -33t-90 -88zM272 0l752 1446h61l-399 -768l164 -64l432 832h61 l-751 -1446h-320zM887 291q0 126 88.5 214.5t214.5 88.5t214.5 -88.5t88.5 -214.5t-88.5 -214.5t-214.5 -88.5t-214.5 88.5t-88.5 214.5zM942 291q0 -48 14 -86l480 119q-12 91 -82.5 153t-163.5 62q-103 0 -175.5 -72.5t-72.5 -175.5z" />
<glyph unicode="&#x26;" horiz-adv-x="1409" d="M25 434q0 76 22 140t61.5 112.5t82 82.5t96.5 65l35 20q-30 29 -51.5 53.5t-49 63t-42.5 82.5t-15 90q0 70 29.5 125.5t76 89.5t107.5 56.5t119 31t116 8.5q35 0 73 -4t83.5 -13.5t87.5 -24.5t81.5 -40t69 -56t47 -76t17.5 -97q0 -87 -61.5 -163.5t-239.5 -193.5 l211 -254q72 102 92 218l260 -111q-19 -68 -48.5 -128.5t-52.5 -94.5t-63 -88q24 -37 60 -51.5t94 -14.5h55v-55h-55q-82 0 -130 25.5t-95 89.5q97 122 131 192l-391 -225q-43 -67 -105 -104.5t-133 -37.5q-81 0 -139 39l-74 -153q88 -33 195 -33q119 0 208.5 44t176.5 146 q72 -82 149 -108.5t184 -26.5h78v-55h-78q-231 0 -335 119q-70 -80 -169.5 -126t-217.5 -46q-83 0 -163.5 21t-150.5 62.5t-123.5 99t-84.5 136.5t-31 168zM219 1143q0 -77 53 -154l199 154q1 59 44.5 94t105.5 35q60 0 104.5 -36t44.5 -97v-15l246 33q-5 71 -50.5 122 t-112.5 75t-126.5 34.5t-114.5 10.5q-53 0 -104.5 -7t-105 -25.5t-93 -46.5t-65 -73.5t-25.5 -103.5zM389 436q3 -89 61 -161t150 -72q114 0 170 90l-272 336l-6 -4q-54 -37 -80 -78.5t-23 -110.5zM528 1139q0 -30 23.5 -68t66.5 -72q97 61 97 140q0 34 -27 56t-67 22 q-38 0 -65.5 -23t-27.5 -55z" />
<glyph unicode="'" horiz-adv-x="491" d="M55 1522h56l249 -185l21 185h55l-67 -623h-246z" />
<glyph unicode="(" horiz-adv-x="833" d="M92 639q0 195 61.5 380t176.5 339t282 282l33 -43q-151 -116 -270 -272q-111 -148 -169.5 -324.5t-58.5 -361.5q0 -35 3 -70l249 142q0 526 291 835l31 -41q-69 -78 -120 -175t-77.5 -182.5t-42 -188.5t-19.5 -171.5t-5 -152.5q1 -84 5 -153t19.5 -171.5t42 -188.5 t77.5 -183t120 -175l-109 -126q-167 128 -282 282t-176.5 339t-61.5 380z" />
<glyph unicode=")" horiz-adv-x="833" d="M113 -236q69 78 120 175t77.5 183t42 188.5t19.5 171.5t5 153q-1 84 -5 152.5t-19.5 171.5t-42 188.5t-77.5 182.5t-120 175l30 41q46 -49 85 -104.5t67 -106t50 -111t36.5 -106t25 -106.5t15.5 -96.5t7.5 -91.5t3 -76t0 -66t-0.5 -47q0 -10 0.5 -38.5t0.5 -59.5t-1 -62 l250 72q4 62 4 92q0 186 -58.5 362t-168.5 324q-118 154 -271 272l33 43q169 -130 283 -282q115 -153 176 -338.5t61 -380.5t-61 -380.5t-176 -338.5q-114 -152 -283 -282q-7 8 -18.5 21t-35.5 40.5t-39.5 46t-14.5 18.5z" />
<glyph unicode="*" horiz-adv-x="841" d="M29 1087l16 54l215 -70l-53 127l-133 41l16 53l207 -61v215h235v-215l207 63l17 -53l-236 -74l139 -63l129 45l21 -55l-205 -70l123 -170l4 -6l-184 -121l-129 172l-127 -174l-180 119l122 176z" />
<glyph unicode="+" d="M92 485v293h371v400h55v-209l254 51v158h55v-400h371v-59h-211l-18 -178h229v-56h-371v-403h-364v403h-371z" />
<glyph unicode="," horiz-adv-x="595" d="M139 0v291h365v-53h-109l-55 -185h164v-86q0 -151 -75.5 -236t-213.5 -85h-76v55h68q233 0 233 274v25h-301z" />
<glyph unicode="-" horiz-adv-x="796" d="M92 485v293h613v-59h-324l113 -178h211v-56h-613z" />
<glyph unicode="." horiz-adv-x="595" d="M139 0v53h109l55 185h-164v53h365v-291h-365z" />
<glyph unicode="/" horiz-adv-x="1026" d="M33 0l622 1446h62l-162 -375l88 -328l303 703h62l-623 -1446h-352z" />
<glyph unicode="0" horiz-adv-x="1273" d="M78 758q5 75 26.5 155.5t66.5 167t106.5 154t155 111t204.5 43.5t204.5 -43.5t155 -111t106.5 -154t66.5 -167t26.5 -155.5q4 -51 3.5 -99.5t-3.5 -84.5l-2 -35v-2q-11 -111 -51.5 -213t-107.5 -188t-170 -137.5t-228 -51.5q-101 0 -188.5 34.5t-150.5 92t-110 134.5 t-73.5 161t-34.5 172h55q8 -80 32 -157t67.5 -146.5t100 -122.5t135 -84t167.5 -31q73 0 135 18l-100 168q-12 -2 -35 -2q-73 0 -124 38t-77.5 108.5t-37.5 150t-11 181.5q0 230 57 352l-163 139q-66 -85 -103.5 -192t-44.5 -203h-55zM442 662q0 -424 195 -424 q194 0 194 424q0 90 -9.5 164t-30.5 137.5t-60 99t-94 35.5t-94.5 -35.5t-60.5 -99t-30.5 -137.5t-9.5 -164z" />
<glyph unicode="1" horiz-adv-x="1150" d="M164 891v53h330l254 -440v880h55v-1384h-365v891h-274zM164 1126v56h24q158 0 230 39q50 26 75 69t25 88v6h60v-6q0 -59 -34.5 -116.5t-101.5 -90.5q-88 -45 -256 -45h-22z" />
<glyph unicode="2" horiz-adv-x="1150" d="M23 852v88q0 117 40.5 209t110.5 149t160 86t194 29q222 0 369 -117t147 -307q0 -108 -37.5 -194.5t-119 -175t-236.5 -216.5l-137 -112h514v-291h-952v299l366 311q50 42 71.5 61t56.5 52t49.5 53.5t31.5 50t23 58t6 61.5q0 30 -5.5 57t-20 56t-46.5 46t-78 17 q-23 0 -46 -9t-45.5 -27t-37 -52.5t-14.5 -79.5v-102h-55v102q0 64 20.5 110.5t53 69t63.5 32.5t61 10q52 0 91.5 -17.5t60.5 -42t33.5 -58.5t16 -60t3.5 -52q0 -125 -98 -233l70 -191q163 139 222.5 241t59.5 226q0 166 -135 268.5t-326 102.5q-91 0 -171 -25.5t-143 -75.5 t-99.5 -132t-36.5 -187v-88h-55z" />
<glyph unicode="3" horiz-adv-x="1144" d="M66 408v36h55v-36q0 -142 74 -246l155 139q-24 49 -24 117v26h53v-26q0 -91 51 -135.5t127 -44.5q75 0 117.5 44t42.5 113q0 80 -50.5 122t-131.5 42h-226v268h226q55 0 90.5 13t51 36.5t20.5 44.5t5 50q0 68 -43.5 95.5t-105.5 27.5q-75 0 -107 -42t-32 -100h-56 q0 34 9 65.5t29 62t60.5 49t96.5 18.5q37 0 71 -8.5t65.5 -27.5t50 -55t18.5 -85v-13l192 -102q35 62 35 152q0 55 -24.5 109.5t-73.5 103.5t-135.5 79.5t-198.5 30.5q-106 0 -196 -39.5t-146.5 -119t-56.5 -185.5v-35h-58v37q0 93 39 169.5t104 124.5t146 74.5t168 26.5 q126 0 223.5 -35.5t153 -92.5t83 -120.5t27.5 -127.5q0 -129 -66 -210.5t-161 -101.5q133 -26 200.5 -104t67.5 -225q0 -51 -14.5 -104.5t-53 -111.5t-95.5 -102t-150.5 -73t-210.5 -29q-219 0 -355 126t-136 335z" />
<glyph unicode="4" horiz-adv-x="1198" d="M41 256v313l571 815h68l-475 -675l149 -88l330 469v-496l254 373v417h55v-837h185v-53l-185 -185h185v-53h-185v-256h-364v256h-588zM367 547h262v362z" />
<glyph unicode="5" horiz-adv-x="1198" d="M86 408h55q0 -129 82 -234l170 141q-16 43 -16 93h55q3 -88 52.5 -129t125.5 -41q39 0 68.5 15.5t46.5 38.5t27 55.5t13 60.5t3 59q0 227 -164 227q-60 0 -96.5 -39.5t-42.5 -119.5h-373l94 823h850v-53h-800l-82 -713l245 231l39 297h598v-55h-549l-28 -201q29 30 90 49 t125 19q208 0 334.5 -120t126.5 -345q0 -95 -33.5 -186t-97 -166.5t-166.5 -121.5t-230 -46q-116 0 -216.5 39.5t-167.5 104t-104 147.5t-34 170z" />
<glyph unicode="6" horiz-adv-x="1216" d="M66 666q0 341 148.5 529.5t414.5 188.5q112 0 214 -47t175 -143t86 -223h-57q-19 148 -129.5 254t-288.5 106q-247 0 -377.5 -178t-130.5 -487q0 -43 4 -113l258 373q24 107 85.5 163.5t160.5 55.5q77 -2 126.5 -47.5t49.5 -116.5v-10h-55q0 59 -33 90t-88 31 q-207 0 -207 -322q22 40 96.5 78.5t161.5 38.5q97 0 182 -27.5t152 -81t106 -141.5t39 -199q0 -133 -70.5 -246t-192 -179t-263.5 -66q-81 0 -157 20.5t-152 72.5t-132 131.5t-91 206.5t-35 288zM449 438q0 -84 48.5 -141t135.5 -57q73 0 116.5 62t43.5 136q0 79 -46 135 t-126 56t-126 -56t-46 -135z" />
<glyph unicode="7" horiz-adv-x="1028" d="M31 1098v53h389l149 184h-538v54h981v-295q-163 -196 -244.5 -327.5t-140.5 -315.5q-86 -267 -86 -451h-56q0 183 78 434l-321 -274q-17 -92 -27 -160h-55q3 15 13.5 83t17.5 106t26.5 117.5t40 137.5t57.5 145.5t80.5 162.5t107.5 166.5t140 179.5h-612z" />
<glyph unicode="8" horiz-adv-x="1216" d="M55 373q0 244 285 338q-30 14 -53 26.5t-57 39.5t-56 58t-38.5 79t-16.5 104q0 73 30 136.5t81.5 107.5t112.5 74.5t130 45.5v-57q-110 -29 -194 -96.5t-101 -165.5l225 -111q-2 12 -2 39q0 103 59 162t148 59q99 0 158 -71l154 102q-75 55 -177 82v57 q69 -15 130.5 -45.5t112.5 -74.5t81.5 -107.5t30.5 -136.5q0 -56 -16.5 -104t-38.5 -79t-56 -58t-57 -39.5t-53 -26.5q284 -94 284 -338q0 -73 -26.5 -138t-68.5 -111.5t-98 -83.5t-112 -59t-113 -34l-51 194q-38 -14 -84 -14q-99 0 -168 67.5t-69 190.5q0 56 22.5 109 t65.5 90l-99 78q-29 -11 -48 -19.5t-52.5 -26t-56 -39t-45.5 -50.5t-35 -68.5t-12 -85.5q0 -61 23 -116.5t60 -95.5t85.5 -73t96.5 -53t97 -31v-57q-57 12 -113 34t-112 59t-98 83.5t-68.5 111.5t-26.5 138zM426 385q0 -104 55.5 -153.5t126.5 -49.5t127 49.5t56 153.5 q0 86 -49.5 141.5t-133.5 55.5t-133 -55.5t-49 -141.5zM457 991q0 -66 42 -114t109 -48t109.5 48t42.5 114q0 78 -44 122t-108 44t-107.5 -44t-43.5 -122z" />
<glyph unicode="9" horiz-adv-x="1214" d="M59 897q0 133 68 245t187 177t261 65q56 0 109 -8t111.5 -28.5t108.5 -53t96.5 -86t79 -122t52 -165.5t19.5 -214q0 -368 -142.5 -564t-408.5 -196q-67 0 -133.5 15.5t-130 49t-113.5 80.5t-83.5 116.5t-41.5 151.5h58q12 -120 88 -208l190 96q-37 40 -37 102v10h56 q0 -58 40 -89t97 -31q114 0 160.5 77t46.5 240q-39 -51 -109.5 -82t-165.5 -31q-97 0 -180 28t-146.5 82.5t-100 142.5t-36.5 200zM250 1208l166 -155q63 94 182 94q59 0 105 -23t71.5 -60.5t38 -79.5t12.5 -87q0 -6 -1 -18t-1 -17l258 -362q15 95 15 207q0 151 -33.5 265.5 t-85 181t-123.5 108t-138.5 55.5t-140.5 14q-196 0 -325 -123zM426 897q0 -80 46.5 -137.5t125.5 -57.5t125.5 57.5t46.5 137.5q0 75 -44 135t-128 60q-80 0 -126 -60.5t-46 -134.5z" />
<glyph unicode=":" horiz-adv-x="643" d="M139 0v291h365v-291h-55v236l-254 -236h-56zM139 778v291h365v-291h-55v236l-254 -236h-56z" />
<glyph unicode=";" horiz-adv-x="643" d="M139 0v291h365v-53l-201 -185h201v-86q0 -151 -75.5 -236t-213.5 -85h-76v55h68q233 0 233 274v25h-301zM139 778v291h365v-291h-55v236l-254 -236h-56z" />
<glyph unicode="&#x3c;" horiz-adv-x="993" d="M139 379v287l742 374v-61l-256 -311l256 116v-61l-432 -201l432 -198v-62l-406 10l406 -204v-62z" />
<glyph unicode="=" horiz-adv-x="1353" d="M139 139v56h613l-138 153h-475v60h1075v-269h-1075zM139 584v268h1075v-59h-614l135 -154h479v-55h-1075z" />
<glyph unicode="&#x3e;" horiz-adv-x="993" d="M113 6v318l432 198l-432 201v317l741 -374v-287zM356 190l443 224v217l-166 84l-248 -56l215 -98v-78z" />
<glyph unicode="?" horiz-adv-x="1236" d="M141 963v108q0 187 140 295.5t370 108.5q108 0 196 -24.5t145 -64t95.5 -92.5t55 -107t16.5 -110q0 -76 -22.5 -137t-56.5 -104t-95 -99l-131 -119q-61 -54 -61 -98v-106h-324v75q0 6 -0.5 37t0 40.5t3 36t8.5 40.5t15.5 36.5t25.5 41t38 37.5l141 123q49 43 72 80.5 t23 87.5q0 30 -12.5 59t-48.5 52.5t-89 23.5q-158 0 -158 -174v-47h-55v47q0 44 10 82t32.5 72t66 53.5t104.5 19.5q138 0 186 -107l271 -106q2 18 2 53q0 48 -14.5 95t-49 92.5t-85.5 80t-129.5 55.5t-174.5 21q-213 0 -333.5 -91.5t-120.5 -258.5v-108h-56zM449 0v291h364 v-291h-55v238l-254 -238h-55z" />
<glyph unicode="@" horiz-adv-x="1742" d="M92 729q5 103 34 206t90 204.5t145.5 178.5t211.5 125t277 48q154 0 282 -48t213.5 -127t144.5 -182t84 -210t23 -213q-2 -81 -17.5 -158.5t-45.5 -146t-82 -110.5t-119 -42q-70 0 -101.5 44.5t-31.5 115.5v342q0 432 -346 432q-76 0 -142 -28.5t-113 -75.5t-81 -106.5 t-52 -122t-20 -122.5q-5 -131 42.5 -237.5t140.5 -168t215 -61.5q115 0 211 70l119 -297q-72 -38 -168 -60t-193 -22q-140 0 -259.5 40t-206.5 111t-147 167.5t-87 212t-21 241.5zM147 729q-3 -68 7 -145l237 170q5 66 25.5 133.5t59.5 131.5t91 113.5t126.5 80t160.5 30.5 q204 0 302.5 -127.5t98.5 -357.5v-117l285 129q-10 97 -35 186q-29 96 -85 180.5t-136 153t-192.5 108t-241.5 38.5q-139 0 -256.5 -44.5t-196.5 -116.5t-135.5 -165.5t-83.5 -189.5t-31 -191zM582 723q0 160 75.5 255t196.5 95q80 0 135 -48.5t78 -119.5t23 -157 q0 -82 -19 -146.5t-47 -102.5t-64.5 -63t-68 -34t-60.5 -9q-47 0 -89 17.5t-79 54.5t-59 103.5t-22 154.5zM655 858l377 -147q2 12 2 34q0 125 -53 199t-127 74q-69 0 -121 -41t-78 -119z" />
<glyph unicode="A" horiz-adv-x="1454" d="M0 0l467 1446h59l-164 -510l203 -166l162 537l250 -826h-264l647 -372l-432 1337h59l467 -1446h-393l-70 231h-528l-70 -231h-393zM555 535h344l-172 573z" />
<glyph unicode="B" horiz-adv-x="1415" d="M139 0v1446h56v-547l249 107v202h306q114 0 177.5 -43.5t63.5 -132.5q0 -23 -8 -59l178 -113q86 72 86 213q0 320 -463 320h-340v53h338q272 0 396.5 -100t124.5 -275q0 -121 -59 -197.5t-154 -97.5l-6 -2q1 0 3 -1t3 -1q136 -33 202 -119t66 -239q0 -129 -72.5 -224.5 t-192 -142.5t-268.5 -47h-686zM500 291h276q100 0 159.5 47t59.5 119q0 74 -54.5 117.5t-164.5 43.5h-276v-327zM500 909h248q188 0 188 123t-188 123h-248v-246z" />
<glyph unicode="C" horiz-adv-x="1492" d="M90 725q0 169 56 314t153.5 245.5t231.5 157.5t286 57q207 0 371.5 -92t255.5 -277l-49 -24q-81 169 -232 254.5t-346 85.5q-140 0 -264 -53t-214 -146.5t-142 -229t-52 -292.5q0 -54 7 -119l256 23q-7 58 -7 106q0 137 51 253.5t151.5 189.5t230.5 73q125 0 219 -65.5 t141 -177.5l-51 -27q-39 102 -119.5 159.5t-189.5 57.5q-85 0 -157 -38.5t-119.5 -102.5t-74 -147.5t-26.5 -174.5q0 -115 31.5 -208.5t84 -152.5t120 -90.5t141.5 -31.5q216 0 329 225l289 -147q-221 -383 -631 -383q-146 0 -276 49.5t-232.5 143.5t-162.5 245t-60 340z " />
<glyph unicode="D" horiz-adv-x="1519" d="M139 0v1446h56v-795l249 123v434h234q89 0 160 -19t118.5 -51.5t81.5 -80t52 -100t26 -117.5l232 112q-55 220 -230.5 330.5t-486.5 110.5h-187v53h187q410 0 604.5 -181t194.5 -542q0 -110 -19.5 -208t-70.5 -194.5t-130.5 -165.5t-209 -112t-295.5 -43h-566zM500 291 h116q239 0 345 97.5t106 338.5q0 72 -10 131.5t-36.5 116t-69 95t-112 62t-161.5 23.5h-178v-864z" />
<glyph unicode="E" horiz-adv-x="1304" d="M139 0v1446h56v-649l249 -154l428 184h-428v381h789v-53h-733v-274h712v-291h-712v-299h733v-291h-1094zM444 1393v53h789v-53h-789z" />
<glyph unicode="F" horiz-adv-x="1273" d="M139 0v1446h56v-676l249 346v90h789v-53h-733v-272h712v-293h-712v-588h-361zM444 1393v53h789v-53h-789z" />
<glyph unicode="G" horiz-adv-x="1595" d="M90 723q0 107 25 213t81.5 208.5t139 180.5t207.5 126t276 48q109 0 209 -26.5t168 -64t128.5 -88t92 -87t56.5 -72.5l-43 -35q-18 30 -48 65.5t-86 82t-122 83.5t-160 63t-195 26q-183 0 -317 -71.5t-219 -194.5q188 -103 200 -109q59 91 152 140t209 49q137 0 252 -76 t172 -189l-43 -34q-47 105 -153 175t-228 70q-176 0 -284.5 -127.5t-108.5 -345.5q0 -55 12.5 -116t42 -126.5t72 -117.5t110 -85.5t148.5 -33.5q49 0 95 15.5t87.5 47.5t71.5 86.5t40 126.5h-296v54h356l252 186h-608v53h669v-823h-286v137q-139 -190 -422 -190 q-132 0 -247 45.5t-197.5 122t-142 176.5t-89 210.5t-29.5 221.5z" />
<glyph unicode="H" horiz-adv-x="1533" d="M139 0v1446h56v-746l249 238v508h56v-572h534v572h56v-625h-244l493 -209v834h56v-1446h-361v584h-534v-584h-361z" />
<glyph unicode="I" horiz-adv-x="630" d="M133 0v1446h55v-576q102 -79 254 -206v782h56v-1446h-365z" />
<glyph unicode="J" horiz-adv-x="753" d="M25 0v291h139q102 0 102 125v1030h56v-539q216 -476 249 -551q4 36 4 60v1030h56v-1030q0 -198 -119.5 -307t-347.5 -109h-139z" />
<glyph unicode="K" horiz-adv-x="1406" d="M139 0v1446h56v-819l254 -211v2l270 309l348 -172l-199 342l480 549h73l-481 -557l516 -889h-387l-358 631l-207 -238v-393h-365zM449 756v690h55v-600l493 600h74l-571 -690h-51z" />
<glyph unicode="L" horiz-adv-x="1105" d="M139 0v1446h56v-799l254 92v707h55v-1155h565v-291h-930z" />
<glyph unicode="M" horiz-adv-x="2002" d="M135 0v1446h55v-864l254 49v524h80l99 -360l157 225l-116 426h61l274 -1012l2 -22l3 22l274 1012h61l-256 -930l248 111l146 528h82v-934q29 144 89 437t111.5 541t52.5 247h56v-1446h-365v1047l-8 -48l-274 -999h-439l-276 999l-6 48v-1047h-365z" />
<glyph unicode="N" horiz-adv-x="1519" d="M135 0v1446h55v-719q10 -10 254 -262v522h48l176 -299q27 -14 307 -147l-533 905h64l514 -871v871h55v-334l254 154v180h55v-1446h-372l-512 864v-864h-365z" />
<glyph unicode="O" horiz-adv-x="1679" d="M90 727q0 94 22.5 191t72.5 194t121.5 176t176.5 136t230 75v-55q-168 -26 -290 -126t-194 -243l201 -153q21 67 55 124t83 104t117.5 74t148.5 27q131 0 230.5 -64.5t153 -173.5t60.5 -247l254 -74q2 12 2 35q0 89 -21.5 179t-67.5 178.5t-111.5 160.5t-161.5 125 t-209 72v55q125 -19 230.5 -75.5t177 -134t122 -173t73.5 -193.5t23 -194q0 -129 -42 -255t-117 -232t-189 -183t-248 -104q-54 -14 -153 -14q-86 0 -152 12h-2q-137 25 -251.5 101t-188.5 181.5t-115 233t-41 260.5zM455 727q0 -88 26 -172t73 -152t121.5 -109.5 t164.5 -41.5q74 0 138 30t108.5 79t76.5 111.5t47 127.5t15 127q0 202 -106.5 336.5t-284.5 134.5q-75 0 -139.5 -30.5t-107.5 -79t-73.5 -111.5t-44.5 -126.5t-14 -123.5z" />
<glyph unicode="P" horiz-adv-x="1392" d="M135 0v1446h55v-537l254 -211v510h295q57 0 109.5 -12t100.5 -38.5t77 -77t29 -119.5q0 -89 -39 -150l84 -219q205 121 205 371q0 111 -38 194t-108.5 134.5t-165 76.5t-213.5 25h-336v53h336q175 0 303 -50.5t202.5 -160.5t74.5 -272q0 -106 -35.5 -192.5t-93 -142.5 t-134.5 -94t-156 -54.5t-161 -16.5h-280v-463h-365zM500 752h245q127 0 190.5 55t63.5 154q0 56 -22.5 95.5t-61.5 60t-82 29.5t-94 9h-239v-403z" />
<glyph unicode="Q" horiz-adv-x="1654" d="M90 733q1 77 18 156t49 159t84.5 152.5t119 131.5t157 100.5t195.5 56.5v-55q-113 -18 -208.5 -69.5t-160.5 -123t-111 -158.5t-67 -175.5t-21 -174.5q0 -157 53 -294.5t150 -237.5q104 169 131 215q-80 142 -80 317q0 69 14.5 137t48 135.5t82 118.5t124 83t166.5 32 q88 0 161 -29.5t121 -77.5t82 -112t49.5 -129.5t18.5 -132.5l133 395q-156 233 -436 281v55q125 -19 229.5 -75.5t174.5 -134t119 -172t71 -189t22 -185.5q0 -232 -106 -395l264 -266l-203 -203l-260 256q-107 -91 -211 -128.5t-229 -37.5q-168 0 -309 60.5t-235.5 164.5 t-147 245.5t-52.5 303.5zM455 733q0 -93 27 -182t87.5 -163t143.5 -101q77 -25 121 -25q50 0 120 25q122 47 190 175t68 271q0 61 -12.5 122t-42 121.5t-72 106.5t-107.5 74.5t-144 28.5t-144.5 -28.5t-108 -74.5t-72 -106.5t-42 -121.5t-12.5 -122z" />
<glyph unicode="R" horiz-adv-x="1435" d="M135 0v1446h55v-922l252 -172v223h279l-92 185h-187v448h340q51 0 95 -10t86 -33.5t67 -70.5t25 -113q0 -37 -15 -80l240 -63q25 67 25 143q0 65 -12 119t-31 94t-49 71.5t-60 52t-72 35t-75.5 22.5t-79.5 12t-76 5t-72 1h-336v53h336q59 0 103.5 -2t108.5 -12.5 t111.5 -28.5t99 -53t84 -82.5t54 -121t21.5 -165.5q0 -79 -22.5 -146t-61.5 -114t-82 -79t-94 -54l309 -588h-395l-266 522h-250v-522h-363zM498 813h284q33 0 67 8t69.5 25t58 52t22.5 83q0 174 -217 174h-284v-342z" />
<glyph unicode="S" horiz-adv-x="1353" d="M47 233l209 187l43 39q91 -103 206 -162t228 -59q115 0 168 45.5t53 115.5q0 71 -59.5 108t-175.5 60l-182 33q-206 34 -332.5 151.5t-126.5 301.5q0 200 161.5 323t426.5 123q355 0 596 -237l-41 -41q-212 223 -555 223q-239 0 -386 -108t-147 -283q0 -101 49 -181.5 t137 -134.5q140 163 152 176q-84 57 -84 160q0 78 75 137.5t218 59.5q126 0 218 -46t179 -143l-39 -39q-86 93 -165.5 132.5t-192.5 39.5q-114 0 -176 -41.5t-62 -99.5q0 -121 179 -151l170 -33q277 -58 399.5 -169t122.5 -292q0 -91 -37 -175.5t-107.5 -153.5t-186 -110.5 t-259.5 -41.5q-220 0 -378 68t-298 218z" />
<glyph unicode="T" horiz-adv-x="1114" d="M0 1155v53h430v-678l254 678h430v-53h-375v-1155h-364v1155h-375zM0 1393v53h1114v-53h-1114z" />
<glyph unicode="U" horiz-adv-x="1466" d="M113 586v860h55v-860q0 -211 104 -350t277 -191l121 172q-118 22 -185 115.5t-67 232.5v881h55v-881q0 -138 71 -218.5t189 -80.5t189 80.5t71 218.5v881h56v-678l249 508v170h56v-860q0 -146 -49 -264.5t-134 -195t-197.5 -118t-240.5 -41.5t-240.5 41.5t-197 118 t-133.5 195t-49 264.5z" />
<glyph unicode="V" horiz-adv-x="1445" d="M0 1446h61l328 -997q105 217 152 323l-197 674h57l322 -1100l321 1100h58l-25 -80l135 -440l172 520h62l-475 -1446h-496z" />
<glyph unicode="W" horiz-adv-x="2123" d="M2 1446h57l23 -88l463 -821l-201 909h55l215 -983l260 983h58l-158 -584l121 -323l123 430l127 477h106l260 -983l215 983h56l-172 -782l205 -177l249 959h58l-377 -1446h-422l-260 936l-262 -936h-422z" />
<glyph unicode="X" horiz-adv-x="1417" d="M2 0l502 733l-481 713h71l244 -365l352 -125l-313 490h72l260 -416l260 416h71l-188 -293l207 -100l264 393h72l-482 -713l502 -733h-430l-276 438l-277 -438h-430z" />
<glyph unicode="Y" horiz-adv-x="1417" d="M0 1446h70l346 -549l295 -55l-357 604h66l291 -508l233 410l55 98h66l-82 -139l166 -168l201 307h67l-532 -819v-627h-357v616z" />
<glyph unicode="Z" horiz-adv-x="1239" d="M33 0v291l700 864h-655v53h776l-295 -358l170 -170l469 565v-82l-713 -872h734v-291h-1186zM78 1393v53h1120v-53h-1120z" />
<glyph unicode="[" horiz-adv-x="710" d="M139 -295v1890h459v-53h-403v-967l254 224v557h149v-53h-94v-1305h94v-293h-459z" />
<glyph unicode="\" horiz-adv-x="1024" d="M33 1446h61l305 -711l189 96l-264 615h61l623 -1446h-353z" />
<glyph unicode="]" horiz-adv-x="710" d="M113 -2h94v1305h-94v53h149v-764l254 305v645h-403v53h458v-1890h-458v293z" />
<glyph unicode="^" horiz-adv-x="1482" d="M150 575l438 871h319l426 -871h-61l-74 150l-360 362l217 -512h-60l-241 576l-248 -576h-62l236 547l-324 -258l-145 -289h-61z" />
<glyph unicode="_" horiz-adv-x="1019" d="M-25 -248h1065v-59h-614l160 -178h454v-56h-1065v293z" />
<glyph unicode="`" horiz-adv-x="909" d="M256 1475h84l313 -273h-84z" />
<glyph unicode="a" horiz-adv-x="1191" d="M90 297q0 159 93 245t272 115l309 50v32q0 154 -150 154q-139 0 -139 -127h-55q0 20 3 39.5t15 46t31.5 45.5t57 33t87.5 14q107 0 156 -60t49 -145v-71l-360 -62q-138 -24 -224.5 -95.5t-89.5 -193.5h224q0 156 174 195l276 49v-41l219 225q-1 67 -27 120t-67 86 t-96.5 54.5t-109.5 30t-111 8.5q-66 0 -126 -8.5t-116.5 -29t-97.5 -51.5t-65.5 -79.5t-24.5 -109.5h-58q0 87 42 153.5t113 104t155 56t178 18.5q61 0 122 -10t124.5 -35.5t111.5 -63.5t78.5 -100.5t30.5 -140.5v-748h-330v45q-43 -38 -123 -68t-160 -30q-179 0 -285 93 t-106 257zM424 297q0 -41 36 -78t115 -37q80 0 134.5 58t54.5 170v88l-207 -37q-37 -7 -63 -21t-39.5 -28.5t-20.5 -37.5t-8.5 -38t-1.5 -39z" />
<glyph unicode="b" horiz-adv-x="1306" d="M133 0v1446h55v-426q19 -34 57 -98.5t83 -141.5t61 -104q15 65 47.5 113t75 73.5t87 37t93.5 11.5q55 0 101 -19t76.5 -50.5t53 -70t35 -82t18 -81t5.5 -71.5q0 -53 -12 -117l209 51q4 46 4 70q0 116 -39 213.5t-102.5 159.5t-140.5 96t-155 34q-114 0 -194.5 -33 t-165.5 -126v561h55v-447q38 36 115 67.5t190 31.5q97 0 185 -38t156.5 -107.5t109.5 -176t41 -233.5q0 -120 -31.5 -226t-91.5 -189.5t-158 -132t-221 -48.5q-166 0 -295 110v-57h-307zM432 549q0 -67 14.5 -127.5t44.5 -112.5t81.5 -83t119.5 -31q54 0 96.5 22.5t67.5 57 t41.5 81t22.5 90.5t6 89q0 55 -13.5 109.5t-40 103.5t-73.5 79.5t-107 30.5q-260 0 -260 -309z" />
<glyph unicode="c" horiz-adv-x="1128" d="M68 510q0 103 25 191.5t69 151.5t99.5 111t120.5 77t128.5 43t126.5 14q52 0 94.5 -4.5t94.5 -19.5t95 -41t89.5 -72.5t85.5 -110.5l-54 -31q-79 132 -173.5 178.5t-231.5 46.5q-64 0 -129 -16t-130.5 -53t-118 -90t-89 -133.5t-45.5 -178.5q2 -1 211 -69v16 q0 67 19.5 134.5t55.5 125.5t95 94.5t131 36.5q176 0 266 -176l-51 -28q-29 61 -82.5 106t-132.5 45q-60 0 -109 -34t-77.5 -87t-44 -109.5t-15.5 -107.5q0 -68 22.5 -138t65.5 -120l25 -22l2 -2q54 -45 131 -45q167 0 231 186l179 -103l53 -30q-159 -299 -463 -299 q-82 0 -161 19.5t-153.5 63.5t-130.5 108t-90 160t-34 212z" />
<glyph unicode="d" horiz-adv-x="1302" d="M66 543q0 127 40.5 233.5t109 176t156.5 107.5t185 38q113 0 190 -31.5t115 -67.5v447h56v-561q-85 92 -166 125.5t-195 33.5q-72 0 -143.5 -29.5t-132.5 -83.5t-103.5 -138.5t-52.5 -186.5l203 -160q-6 50 -6 91q0 42 7.5 87.5t28 98t51 93.5t83 68t118.5 27 q54 0 102 -14.5t93 -46.5t76 -92t41 -142l192 830h55v-1446h-307v57q-129 -110 -295 -110q-99 0 -182 32t-141.5 87t-99 131t-59.5 163t-19 183zM377 535q0 -58 10.5 -112.5t35 -108.5t72.5 -86.5t115 -32.5q68 0 119.5 30.5t81.5 82t44.5 112t14.5 127.5q0 311 -260 311 q-60 0 -107 -30.5t-73 -79.5t-39.5 -103.5t-13.5 -109.5z" />
<glyph unicode="e" horiz-adv-x="1193" d="M66 510q0 85 16.5 164.5t56.5 158t101 136t157 93.5t217 36t217 -36.5t155 -94t97 -135.5t53 -153.5t15 -154.5v-71h-764v-13q0 -109 66.5 -181.5t173.5 -72.5q106 0 177.5 51.5t98.5 127.5l53 -27q-23 -60 -73.5 -107t-118.5 -73l53 -127q180 64 270 239l52 -26 q-161 -297 -512 -297q-248 0 -404.5 153.5t-156.5 409.5zM395 668h426q-8 89 -62 146.5t-147 57.5q-53 0 -95 -20t-66.5 -52.5t-38 -65.5t-17.5 -66zM518 1036l37 -116q27 6 57 6q134 0 205.5 -86t71.5 -226h-170l-31 -108h408v18q-1 81 -17 153.5t-52.5 140.5t-90.5 117.5 t-136.5 79t-185.5 29.5q-34 0 -96 -8z" />
<glyph unicode="f" horiz-adv-x="706" d="M10 821v53h221q157 172 209 232v49q0 75 32 106t93 31q26 0 57 -6t48 -12l18 -6v-56q-70 27 -123 27q-43 0 -58 -15t-15 -59v-121h208v-223h-208v-821h-314v821h-168zM10 991v53h168v154q0 136 91 218.5t231 82.5q96 0 188 -45v-57q-36 17 -90 33t-98 16q-125 0 -196 -72 t-71 -196v-187h-223z" />
<glyph unicode="g" horiz-adv-x="1292" d="M66 565q0 127 40.5 230t109 168t156.5 100t185 35q113 0 190 -31.5t115 -67.5v45h56v-159q-85 92 -166 125.5t-195 33.5q-63 0 -124.5 -18.5t-117.5 -58.5t-99.5 -95.5t-69 -135.5t-25.5 -173q0 -222 110 -352l109 211q-18 63 -18 141q0 41 7.5 84.5t28 92t51 85.5 t83 61.5t118.5 24.5q104 0 187 -60t114 -173l203 125v241h55v-1011q0 -221 -138.5 -348t-395.5 -127q-220 0 -352.5 98.5t-132.5 271.5v35h55v-33q0 -101 52 -171t142 -107l86 119q-65 65 -65 192h55v-2q0 -194 191 -194q89 0 142.5 55.5t53.5 152.5v144q-110 -99 -305 -99 q-122 0 -217 40.5t-154.5 114t-89.5 172t-30 218.5zM377 563q0 -52 12 -101t37 -94t72 -72.5t110 -27.5q132 0 197 79.5t65 215.5q0 141 -76 218t-184 77q-60 0 -106.5 -26.5t-73.5 -70t-40 -94t-13 -104.5z" />
<glyph unicode="h" horiz-adv-x="1216" d="M133 0v1446h55l199 -832q11 158 75 227.5t159 69.5q49 0 87 -14t61.5 -37.5t39 -57t21.5 -69.5t6 -78v-338q14 -6 58.5 -25.5t82.5 -35.5t61 -25v414q0 115 -24 194.5t-71 123.5t-106.5 62.5t-140.5 18.5q-200 0 -311 -159v561h55v-432q35 35 104 59.5t152 24.5 q99 0 170.5 -22t124 -73t78 -137.5t25.5 -210.5v-655h-314v637q0 109 -35.5 165t-123.5 56q-181 0 -181 -309v-549h-307z" />
<glyph unicode="i" horiz-adv-x="587" d="M137 0v1044h314v-1044h-56v365l-202 -254v-111h-56zM137 1202v244h56v-193l202 193h56v-244h-314z" />
<glyph unicode="j" horiz-adv-x="583" d="M0 -188q23 -2 43 -2q28 0 47 7.5t29 17.5t15 30.5t6 36.5t1 45v1097h314v-1114q0 -207 -73 -289.5t-239 -82.5q-67 0 -143 6v248zM141 1202v244h56v-193l202 193h56v-244h-314zM168 -190l170 -138q61 70 61 250v318l-202 196v-489q0 -90 -29 -137z" />
<glyph unicode="k" horiz-adv-x="1189" d="M133 0v1446h55v-588l277 -434l119 123l176 -297l141 156l-170 290l342 348h72l-348 -354l409 -690h-358l-275 463l-127 -131v-332h-313zM391 573v873h55v-739l320 337h72z" />
<glyph unicode="l" horiz-adv-x="579" d="M133 0v1446h55v-152l203 152h55v-1446h-55v90l-203 293v-383h-55z" />
<glyph unicode="m" horiz-adv-x="1826" d="M137 0v1044h56v-323l196 -258v581h55v-73q35 45 109.5 86t167.5 41q103 0 181 -42t116 -122q109 164 319 164q180 0 268.5 -106.5t88.5 -305.5v-686h-314v692q0 152 -118 152q-87 0 -139 -78t-52 -242v-524h-55v518l-203 115v-633h-55v692q0 85 -29 118.5t-90 33.5 q-88 0 -141.5 -78.5t-53.5 -241.5v-524h-307z" />
<glyph unicode="n" horiz-adv-x="1216" d="M133 0v1044h55v-567q30 -22 104 -72.5t93 -64.5v207q0 179 69.5 271.5t166.5 92.5q148 0 194 -129l184 103q-37 87 -108 123t-180 36q-99 0 -184.5 -46t-141.5 -126v172h55v-43q36 36 113 66.5t158 30.5q199 0 291 -99t92 -344v-655h-314v637q0 109 -35.5 165t-123.5 56 q-80 0 -130.5 -79.5t-50.5 -231.5v-547h-307z" />
<glyph unicode="o" d="M74 518q0 124 33.5 224t89 165.5t130.5 109.5t154 62.5t164 18.5t164 -18.5t154.5 -62t131 -108.5t89 -165t33.5 -224q0 -116 -34.5 -213t-91 -162.5t-131.5 -111t-154.5 -66t-160.5 -20.5q-82 0 -161 20.5t-154 65.5t-131.5 110t-90.5 162t-34 213zM129 518 q0 -133 49 -237l166 245q2 162 80.5 270.5t220.5 108.5q125 0 201 -86t94 -221l176 166q-42 97 -120 162t-165.5 91.5t-185.5 26.5q-77 0 -149 -17.5t-139.5 -57.5t-117.5 -99t-80 -149.5t-30 -202.5zM399 520q0 -87 24.5 -157t81.5 -116t140 -46t140 46t81.5 116t24.5 157 q0 84 -25.5 157.5t-83 124t-137.5 50.5t-137.5 -50.5t-83 -124t-25.5 -157.5z" />
<glyph unicode="p" horiz-adv-x="1292" d="M129 -371v1415h55v-583l193 -8q-4 23 -4 71q0 103 28 181t75 121t100.5 64t111.5 21q55 0 101 -19t76.5 -50.5t53 -70t35 -82t18 -81t5.5 -71.5q0 -69 -21 -152l95 -248q127 150 127 404q0 116 -39 213.5t-102.5 159.5t-140.5 96t-155 34q-109 0 -190.5 -38.5 t-169.5 -133.5v172h55v-57q118 111 305 111q97 0 185 -38t156.5 -107.5t109.5 -176t41 -233.5q0 -120 -31.5 -226t-91.5 -189.5t-158 -132t-221 -48.5q-180 0 -295 98v-416h-307zM428 524q0 -66 14.5 -123.5t44.5 -104.5t81.5 -74t119.5 -27q54 0 96.5 22.5t67.5 57t41.5 81 t22.5 90.5t6 89q0 55 -13.5 109.5t-40 103.5t-73.5 79.5t-107 30.5q-52 0 -97 -18t-82.5 -55.5t-59 -104t-21.5 -156.5z" />
<glyph unicode="q" horiz-adv-x="1296" d="M63 543q0 127 41 233.5t109.5 176t156.5 107.5t185 38q187 0 305 -111v57h55v-172q-88 95 -169.5 133.5t-190.5 38.5q-21 0 -29 -2l35 -135q28 4 47 4q46 0 89.5 -12.5t85 -41.5t72.5 -72.5t50 -110.5t19 -150q0 -159 -68 -260q20 -6 256 -88v868h55v-1415h-307v416 q-115 -98 -295 -98q-123 0 -221 48.5t-158 132t-91.5 189.5t-31.5 226zM375 535q0 -58 10.5 -112.5t35 -108.5t72.5 -86.5t115 -32.5q68 0 119.5 27t81.5 74t44.5 104.5t14.5 123.5q0 90 -21.5 156.5t-59 104t-82.5 55.5t-97 18q-60 0 -107 -30.5t-73 -79.5t-39.5 -103.5 t-13.5 -109.5z" />
<glyph unicode="r" horiz-adv-x="751" d="M131 0v1044h55v-356l203 -72q12 65 43.5 113.5t76 74.5t92 38t99.5 12h41v-53h-36q-52 0 -97 -13t-84.5 -41.5t-62.5 -82t-23 -127.5v-537h-307zM383 872v172h55v-47q122 101 260 101h43v-54h-43q-167 0 -315 -172z" />
<glyph unicode="s" horiz-adv-x="1097" d="M31 166l45 41q77 -87 205 -147t288 -60q121 0 217 41l-143 104q-30 -6 -68 -6q-109 0 -208 43t-177 125l41 41q69 -73 162 -114t182 -41q80 0 118 25t38 81q0 42 -39 63t-131 35l-96 17q-359 61 -359 327q0 70 29 133t84 113.5t143 80.5t197 30q264 0 475 -160l-45 -41 q-77 66 -188.5 106.5t-241.5 40.5q-57 0 -119 -10l35 -129q47 13 100 13q87 0 168 -34.5t142 -84.5l-45 -41q-130 106 -265 106q-155 0 -155 -73q0 -39 40.5 -64.5t133.5 -44.5l76 -14q190 -36 287.5 -115.5t97.5 -222.5q0 -77 -29 -141.5t-77.5 -108.5t-112 -74.5 t-131 -44.5t-136.5 -14q-183 0 -319.5 63.5t-218.5 155.5z" />
<glyph unicode="t" horiz-adv-x="706" d="M10 821v53h223v-206l207 163v43h260v-53h-208v-528q0 -86 73 -86q24 0 54.5 6.5t49.5 12.5l19 7v-237q-84 -41 -188 -41q-141 0 -231.5 79t-90.5 214v573h-168zM10 991v53h168v402h55v-455h-223zM436 991v455h56v-402h208v-53h-264z" />
<glyph unicode="u" horiz-adv-x="1218" d="M127 389v655h55v-593l203 161v432h55v-636q0 -108 36 -165t124 -57q80 0 130 80t50 232v546h56v-546q0 -44 -2 -64l198 86v524h55v-1044h-307v43q-36 -36 -112.5 -66t-157.5 -30q-97 0 -166 22t-119 72.5t-74 136.5t-24 211z" />
<glyph unicode="v" horiz-adv-x="1056" d="M-2 1044h61l187 -567l119 299l-78 268h61l191 -663l176 663h61l-203 -741l150 -76l270 817h62l-346 -1044h-365z" />
<glyph unicode="w" horiz-adv-x="1617" d="M-2 1044h342l145 -659l158 659h66l-121 -466l358 299l-43 167h66l157 -659l146 659h65l-166 -686l250 209l131 477h62l-285 -1044h-373l-151 553l-150 -553h-372z" />
<glyph unicode="x" horiz-adv-x="1173" d="M4 0l402 555l-359 489h72l235 -325l78 194l-90 131h72l174 -262l174 262h72l-132 -188l201 -22l152 210h71l-358 -489l401 -555h-364l-217 328l-217 -328h-367z" />
<glyph unicode="y" horiz-adv-x="1013" d="M0 1044h63l132 -426l213 -79l-144 505h62l188 -677l178 677h58l-232 -849l107 -162l327 1011h60l-369 -1130q-90 -283 -340 -283h-217v252h135q51 0 77 21t28 55v11q0 34 -15 79z" />
<glyph unicode="z" horiz-adv-x="1083" d="M70 0v236l551 567h-517v53h648l-226 -231l125 -121l314 321v166h-861v53h916v-241l-543 -559h543v-244h-950z" />
<glyph unicode="{" horiz-adv-x="802" d="M0 559v180q73 5 108.5 23t51.5 62t16 132v316q0 189 63.5 259.5t229.5 70.5h221v-56h-221q-139 0 -188.5 -59.5t-49.5 -214.5v-193l295 240q40 43 131 43h33v-55h-33q-71 0 -93.5 -26t-22.5 -116v-241q0 -120 -40 -181.5t-126 -93.5q86 -32 126 -94t40 -180v-242 q0 -90 22.5 -115.5t93.5 -25.5h33v-55h-33q-88 0 -129.5 41t-42.5 141l-252 -158q8 -115 60 -162t176 -47h221v-55h-221q-166 0 -229.5 70.5t-63.5 259.5v315q0 88 -16 132t-51.5 62t-108.5 23z" />
<glyph unicode="|" horiz-adv-x="524" d="M78 -293v1888h364v-1888h-364zM133 -55l254 309v1114l-254 -309v-1114z" />
<glyph unicode="}" horiz-adv-x="802" d="M113 -8h32q71 0 94 25.5t23 115.5v242q0 118 40 180t126 94q-86 32 -126 93.5t-40 181.5v241q0 90 -23 116t-94 26h-32v55h32q83 0 123 -37q99 -30 303 -78v25q0 155 -49 214.5t-188 59.5h-221v56h221q166 0 229.5 -70.5t63.5 -259.5v-316q0 -88 16 -132t51.5 -62 t108.5 -23v-180q-73 -5 -108.5 -23t-51.5 -62t-16 -132v-315q0 -189 -63.5 -259.5t-229.5 -70.5h-221v55h221q112 0 164.5 38.5t66.5 129.5l-248 344v-131q0 -109 -40.5 -152.5t-131.5 -43.5h-32v55z" />
<glyph unicode="~" horiz-adv-x="1187" d="M92 451v75l17 25q37 46 67 70l264 208q-77 27 -121 27q-67 0 -120.5 -26t-106.5 -85v70q104 96 227 96q50 0 101.5 -15t146.5 -58l117 -54q125 -57 193 -57q49 0 95.5 28.5t123.5 114.5v-73l-15 -15l-28 -28l-267 -267q31 -8 66 -8q69 0 133 33.5t111 87.5v-74 q-116 -102 -244 -102q-48 0 -102 17t-146 61l-72 35q-80 38 -126 54.5t-87 16.5q-62 0 -106.5 -27t-103.5 -108z" />
<glyph unicode="&#xa1;" horiz-adv-x="598" d="M170 31l76 600h213l76 -600v-432h-56v225l-235 358l-19 -162v-421h-55v432zM170 754v290h55l254 -237v237h56v-290h-365z" />
<glyph unicode="&#xa2;" horiz-adv-x="1226" d="M84 528q0 67 16.5 137.5t60 147.5t108 137t170.5 100t239 42v188h55v-190q287 -18 447 -281l-52 -27q-85 133 -187.5 192.5t-246.5 59.5q-279 0 -428 -166l180 -110q82 145 250 145q96 0 180 -50t119 -140l-51 -27q-27 70 -83 110t-128 48v-629q72 8 126 49t81 113 l51 -27q-33 -85 -101 -135.5t-157 -58.5v-140q134 9 236 77.5t164 182.5q49 -26 51 -26q-27 -47 -64 -90t-91.5 -88t-131.5 -74t-164 -33v-190h-55v190q-131 3 -236 42t-170.5 97.5t-109 134t-61 147.5t-17.5 142zM453 532q0 -78 18 -138t42.5 -92t58.5 -53t57.5 -27.5 t48.5 -8.5v633q-23 -2 -46 -7.5t-57 -26t-59.5 -52.5t-44 -91t-18.5 -137z" />
<glyph unicode="&#xa3;" horiz-adv-x="1409" d="M31 227q0 31 9.5 65t34 71.5t61.5 67t98.5 48.5t138.5 19q73 0 125 -21q-95 170 -179 281h-200v55h168q-68 122 -68 227q0 28 3 56t16 70.5t34.5 79t62 75.5t94.5 66.5t137.5 45t185.5 17.5q101 0 192 -31t165 -91.5t117.5 -162t43.5 -231.5h-56q0 99 -30 180t-77.5 132 t-110 86t-123.5 49t-121 14q-96 0 -173.5 -17t-125.5 -41t-83 -61t-51.5 -67t-26 -69.5t-10.5 -58t-1 -41.5q0 -109 71 -227h215q-35 57 -52 102.5t-17 104.5q0 95 63 164t168 69q115 0 198 -83.5t83 -235.5h-56q0 119 -64 191.5t-155 72.5q-89 0 -135.5 -53t-46.5 -127 q0 -55 21.5 -101t62.5 -104h319v-55h-290l104 -166q59 -90 59 -180q0 -55 -14 -88l35 -27q62 -43 98 -43q23 0 36.5 7t26.5 29.5t19.5 70.5t7.5 124h56q-3 -82 -13 -149l172 -88q17 69 27 237h55q-2 -50 -4 -83.5t-9.5 -90t-18.5 -96t-33 -86t-50.5 -74.5t-73 -47.5 t-99.5 -19.5q-19 0 -38.5 2.5t-35 5.5t-35.5 10.5t-32.5 12t-33.5 16.5t-30.5 17t-32.5 20t-29.5 19.5t-32 22t-30.5 21.5q-53 -80 -153.5 -123t-207.5 -43q-55 0 -110 15t-104 44.5t-80 81t-31 117.5zM256 227q0 -37 29.5 -58.5t66.5 -21.5q59 0 106.5 40.5t47.5 74.5 q-58 49 -135 49q-55 0 -85 -26.5t-30 -57.5z" />
<glyph unicode="&#xa5;" horiz-adv-x="1382" d="M0 1417h70l239 -379l176 156l-131 223h66l274 -479l271 479h65l-41 -502l326 502h67l-510 -784h373v-53h-377v-154h377v-53h-377v-373h-55v555l-246 -164v-391h-55v373h-377v53h377v154h-377v53h367z" />
<glyph unicode="&#xa6;" horiz-adv-x="555" d="M131 0v612h293v-612h-57v344l-174 -74v-270h-62zM131 834v612h62v-287l174 -78v365h57v-612h-293z" />
<glyph unicode="&#xa7;" horiz-adv-x="1236" d="M43 606q0 50 13 93.5t29 71t47 56.5t48.5 41t52.5 35q-33 41 -47 85t-14 112q0 67 23.5 121t61 89t88 59t102.5 34t106 10q243 0 500 -139l-29 -49q-248 133 -471 133q-46 0 -90.5 -8.5t-87.5 -28t-75.5 -48.5t-52.5 -73.5t-20 -99.5q0 -143 99 -191l51 -26l194 88 q-52 25 -82.5 44t-45 38t-18 33t-3.5 38q0 115 166 115q53 0 104.5 -10.5t108 -35t80 -36t80.5 -41.5l-29 -49q-4 2 -29.5 16t-34 18t-33 16.5t-38 18t-37 15t-41.5 14t-41 10t-45 7.5t-45 2q-111 0 -111 -60q0 -20 8 -32.5t44.5 -35t113.5 -57.5l209 -94q174 -78 263 -167 t89 -214q0 -51 -13.5 -97.5t-31 -77.5t-47 -62.5t-48.5 -46.5t-48 -37q55 -60 55 -172q0 -134 -107.5 -229t-279.5 -95q-135 0 -248 38t-237 105l112 205q4 -2 27 -14.5t30 -16t29.5 -15t33 -16t33 -14t36.5 -13.5t35.5 -10.5t39 -9t39 -5t41.5 -2.5q56 0 85.5 19.5 t29.5 45.5q0 47 -147 113l-205 94q-51 24 -77 36.5t-73 38.5t-72.5 45.5t-59 51.5t-51 63t-30 72.5t-12.5 87.5zM98 606q0 -30 7 -58.5t17 -51t30 -46t35 -40t45 -36.5t47.5 -31.5t53.5 -30t52 -26.5t55 -26l23 -10l209 90l-402 217q-50 26 -76 70t-26 88q0 54 33 102 q-103 -92 -103 -211zM223 725q0 -79 76 -121l674 -364q28 22 69 63q18 20 25.5 47t2.5 58t-33.5 63.5t-78.5 58.5l-675 338q-28 -32 -44 -72.5t-16 -70.5z" />
<glyph unicode="&#xa8;" horiz-adv-x="956" d="M231 1221v254h197v-254h-55v153l-86 -153h-56zM514 1221v254h197v-254h-56v153l-86 -153h-55z" />
<glyph unicode="&#xa9;" horiz-adv-x="1685" d="M115 725q0 200 97 367.5t264.5 264.5t367.5 97q196 0 364 -96t266.5 -261t98.5 -358q0 -157 -56 -295t-152.5 -236t-232.5 -155t-290 -57q-198 0 -365.5 97t-264.5 264.5t-97 367.5zM229 1006l150 -88q50 165 185 252t321 87q121 0 235.5 -58t173.5 -146l-41 -37 q-59 84 -154 135t-214 51q-217 0 -347 -121.5t-130 -347.5v-4q0 -226 130 -347.5t347 -121.5q118 0 218.5 53.5t158.5 137.5l-97 92q-66 -69 -117.5 -95t-121.5 -26q-119 0 -191.5 85t-72.5 224t72.5 224t191.5 85q71 0 122 -25.5t117 -94.5l-41 -39q-57 60 -99 82t-99 22 q-94 0 -151.5 -69.5t-57.5 -184.5q0 -112 53 -180l709 403q-70 196 -244.5 320.5t-390.5 124.5q-203 0 -368.5 -108t-246.5 -285z" />
<glyph unicode="&#xab;" horiz-adv-x="1161" d="M139 446v310l404 215v-318l-94 -41l94 -43v-61l-137 65l-209 -94l346 -182v-61zM645 446v310l404 215v-318l-95 -41l95 -43v-61l-138 65l-209 -94l347 -182v-61z" />
<glyph unicode="&#xad;" horiz-adv-x="796" d="M92 485v293h613v-59h-324l113 -178h211v-56h-613z" />
<glyph unicode="&#xae;" horiz-adv-x="1685" d="M115 725q0 200 97 367.5t264.5 264.5t367.5 97q196 0 364 -96t266.5 -261t98.5 -358q0 -152 -51 -284t-144 -232q-5 -5 -13 -13.5t-15 -15.5t-13 -12l-221 484q93 47 134.5 101t41.5 126q0 134 -103 214.5t-321 80.5h-428v-1071q-150 98 -237.5 258.5t-87.5 349.5z M174 801l211 -160v580q-183 -166 -211 -420zM410 1243h458q216 0 348 -91.5t132 -258.5q0 -21 -2 -31l172 -121q-1 133 -55 255t-144.5 210t-215 140.5t-259.5 52.5q-244 0 -434 -156zM694 725v332h168q92 0 134 -39t42 -125q0 -92 -39.5 -130t-134.5 -38h-170zM696 12v576 h228l198 -539q-156 -53 -280 -53q-46 0 -90 6q-22 2 -56 10zM750 780h114q65 0 92 26t27 87q0 57 -29 82.5t-92 25.5h-112v-221z" />
<glyph unicode="&#xaf;" horiz-adv-x="776" d="M10 1386v60h531v-60h-531z" />
<glyph unicode="&#xb0;" horiz-adv-x="724" d="M10 1192q0 147 102.5 250.5t249.5 103.5q148 0 250.5 -103t102.5 -251q0 -145 -104 -248.5t-249 -103.5t-248.5 103.5t-103.5 248.5zM70 1192h585q0 125 -84.5 212t-208.5 87q-123 0 -207.5 -87.5t-84.5 -211.5z" />
<glyph unicode="&#xb1;" horiz-adv-x="1482" d="M188 0v268h1106v-59h-659l192 -154h467v-55h-1106zM188 565v293h371v186h55v-237l256 -186h424v-56h-370v-188h-365v188h-371zM868 799v245h56v-186h370v-59h-426z" />
<glyph unicode="&#xb2;" horiz-adv-x="628" d="M123 903v64l215 176q65 53 79 71q25 31 25 76q0 55 -34.5 85t-92.5 30q-137 0 -137 -127v-51h-55v51q0 44 13.5 77.5t33.5 52.5t47.5 31t50.5 15.5t47 3.5q52 0 89.5 -15t57 -39.5t28 -51t8.5 -56.5q0 -29 -7 -54t-14.5 -40.5t-30.5 -38t-35.5 -32.5t-48.5 -39l-169 -136 h313v-53h-383z" />
<glyph unicode="&#xb3;" horiz-adv-x="645" d="M119 1065h59q0 -59 36.5 -89t98.5 -30q75 0 112.5 34t37.5 89q0 48 -36.5 78.5t-98.5 30.5h-58v45h58q104 0 104 96q0 41 -32.5 61.5t-86.5 20.5q-118 0 -118 -103h-56q0 67 43.5 111.5t130.5 44.5q75 0 124.5 -33.5t49.5 -101.5q0 -37 -21.5 -72t-57.5 -45 q58 -14 84 -50.5t26 -82.5q0 -74 -56 -125t-149 -51q-89 0 -141.5 44.5t-52.5 127.5z" />
<glyph unicode="&#xb4;" horiz-adv-x="909" d="M256 1200l313 273h84l-313 -273h-84z" />
<glyph unicode="&#xb5;" horiz-adv-x="1234" d="M131 -317v1361h55v-389l203 -297v31v655h55v-636q0 -108 36 -165t124 -57q80 0 130 83.5t50 236.5v538h56v-538q0 -26 -4 -72q8 9 200 256v354h56v-1044h-308v51q-40 -40 -105.5 -72t-137.5 -32q-67 0 -97 10v-274h-313z" />
<glyph unicode="&#xb6;" horiz-adv-x="968" d="M131 1016q0 215 130 322.5t353 107.5h304v-51h-103v-1737h-364v958q-145 25 -232.5 133.5t-87.5 266.5zM190 1016q0 -8 1.5 -23t1.5 -22l258 252v151q-124 -35 -192.5 -124.5t-68.5 -233.5zM506 287l254 215v893h-146q-34 0 -108 -9v-1099z" />
<glyph unicode="&#xb7;" horiz-adv-x="483" d="M76 422v342h330v-342h-330zM131 475h219v236h-2z" />
<glyph unicode="&#xb9;" horiz-adv-x="532" d="M113 1393v53h182v-541h-55v488h-127z" />
<glyph unicode="&#xbb;" horiz-adv-x="1161" d="M113 236v333l94 43l-94 41v62l135 -64l184 84l-319 174v62l403 -215v-310zM618 236v333l95 43l-95 41v62l136 -64l184 84l-320 174v62l404 -215v-310z" />
<glyph unicode="&#xbc;" horiz-adv-x="1433" d="M113 1393v53h182v-541h-55v488h-127zM238 0l622 1446h62l-482 -1116l256 59l455 1057h61l-622 -1446h-352zM928 111v53l297 391h57v-391h104v-53h-104v-111h-55v111h-299zM993 164h234v305z" />
<glyph unicode="&#xbd;" horiz-adv-x="1419" d="M113 1393v53h182v-541h-55v488h-127zM238 0l622 1446h62l-265 -612l189 -99l305 711h61l-622 -1446h-352zM938 0v63l215 177q65 53 79 71q25 31 25 76q0 55 -34.5 85t-92.5 30q-137 0 -137 -127v-51h-55v51q0 44 13.5 77.5t33.5 52.5t47.5 31t50.5 15.5t47 3.5 q52 0 89.5 -15t57 -39.5t28 -51t8.5 -56.5q0 -36 -7.5 -63t-29.5 -53t-39 -41t-59 -48l-170 -135h313v-53h-383z" />
<glyph unicode="&#xbe;" horiz-adv-x="1482" d="M119 1065h59q0 -59 36.5 -89t98.5 -30q75 0 112.5 34t37.5 89q0 48 -36.5 78.5t-98.5 30.5h-58v45h58q104 0 104 96q0 41 -32.5 61.5t-86.5 20.5q-118 0 -118 -103h-56q0 67 43.5 111.5t130.5 44.5q75 0 124.5 -33.5t49.5 -101.5q0 -37 -21.5 -72t-57.5 -45 q58 -14 84 -50.5t26 -82.5q0 -74 -56 -125t-149 -51q-89 0 -141.5 44.5t-52.5 127.5zM287 0l622 1446h62l-127 -295l182 -111l174 406h62l-623 -1446h-352zM977 111v53l297 391h57v-391h105v-53h-105v-111h-55v111h-299zM1042 164h234v305z" />
<glyph unicode="&#xbf;" horiz-adv-x="1236" d="M141 -33q0 76 22.5 137t56.5 104t95 99l131 119q62 54 62 98v107h323v-76q0 -6 0.5 -37t0 -40t-3 -35.5t-8.5 -41t-15.5 -36.5t-25.5 -40.5t-38 -37.5l-141 -123q-49 -43 -71.5 -80.5t-22.5 -87.5t36 -92.5t113 -42.5q158 0 158 174v47h55v-47q0 -44 -10 -82t-32.5 -72.5 t-66 -54t-104.5 -19.5q-136 0 -188 107l-270 104v-51q0 -48 14.5 -95t49 -92.5t85 -80t129 -55.5t174.5 -21q213 0 334 91.5t121 258.5v109h55v-109q0 -187 -140 -295t-370 -108q-108 0 -196 24.5t-145 64t-95.5 92t-55 106.5t-16.5 110zM487 754v290h56v-237l254 237h55 v-290h-365z" />
<glyph unicode="&#xc0;" horiz-adv-x="1462" d="M0 0l467 1446h59l-164 -510l203 -166l162 537l250 -826h-264l647 -372l-432 1337h59l467 -1446h-393l-70 231h-528l-70 -231h-393zM520 1888h84l314 -272h-84zM555 535h344l-172 573z" />
<glyph unicode="&#xc1;" horiz-adv-x="1462" d="M0 0l467 1446h59l-164 -510l203 -166l162 537l250 -826h-264l647 -372l-432 1337h59l467 -1446h-393l-70 231h-528l-70 -231h-393zM547 1612l313 272h84l-313 -272h-84zM555 535h344l-172 573z" />
<glyph unicode="&#xc2;" horiz-adv-x="1462" d="M0 0l467 1446h59l-164 -510l203 -166l162 537l250 -826h-264l647 -372l-432 1337h59l467 -1446h-393l-70 231h-528l-70 -231h-393zM418 1593l309 308l309 -308h-69l-240 234l-240 -234h-69zM555 535h344l-172 573z" />
<glyph unicode="&#xc3;" horiz-adv-x="1462" d="M0 0l467 1446h59l-164 -510l203 -166l162 537l250 -826h-264l647 -372l-432 1337h59l467 -1446h-393l-70 231h-528l-70 -231h-393zM399 1669q0 81 50 127.5t126 46.5q41 0 75.5 -14t53 -29t48.5 -45q31 -31 59 -43t76 -12q56 0 85 34t29 87h54q0 -71 -42.5 -122.5 t-129.5 -51.5q-62 0 -101.5 18t-74.5 53q-26 26 -38.5 37t-39.5 23t-58 12q-118 0 -118 -121h-54zM555 535h344l-172 573z" />
<glyph unicode="&#xc4;" horiz-adv-x="1462" d="M0 0l467 1446h59l-164 -510l203 -166l162 537l250 -826h-264l647 -372l-432 1337h59l467 -1446h-393l-70 231h-528l-70 -231h-393zM487 1618v254h197v-254h-55v154l-86 -154h-56zM555 535h344l-172 573zM770 1618v254h197v-254h-56v154l-86 -154h-55z" />
<glyph unicode="&#xc5;" horiz-adv-x="1462" d="M0 0l467 1446h59l-164 -510l203 -166l162 537l250 -826h-264l647 -372l-432 1337h59l467 -1446h-393l-70 231h-528l-70 -231h-393zM555 535h344l-172 573zM557 1743q0 71 49.5 120.5t120.5 49.5t120.5 -49.5t49.5 -120.5t-49.5 -120.5t-120.5 -49.5t-120.5 49.5 t-49.5 120.5zM610 1745h234q-2 43 -38 79t-79 36q-45 0 -81 -36t-36 -79z" />
<glyph unicode="&#xc6;" horiz-adv-x="2234" d="M-2 0l893 1446h61l-329 -533l157 -163l344 557v-752l250 272v379h789v-53h-729v-272h708v-295h-708v-293h729v-293h-1100v231h-541l-143 -231h-381zM709 535h360v583zM1374 1393v53h789v-53h-789z" />
<glyph unicode="&#xc7;" horiz-adv-x="1478" d="M147 725q0 169 56 314t153.5 245.5t231.5 157.5t286 57q207 0 371.5 -92t255.5 -277l-49 -24q-81 169 -232 254.5t-346 85.5q-140 0 -263.5 -53t-213.5 -146.5t-142 -229t-52 -292.5q0 -63 6 -119l256 23q-6 49 -6 106q0 81 18.5 157t56 141t88.5 114t120.5 76.5 t148.5 27.5q125 0 219 -65.5t141 -177.5l-51 -27q-39 102 -119.5 159.5t-189.5 57.5q-85 0 -157 -38.5t-119.5 -102.5t-74 -147.5t-26.5 -174.5q0 -115 31.5 -208.5t84 -152.5t120 -90.5t141.5 -31.5q217 0 330 225l49 -24l239 -123q-221 -383 -630 -383h-19l-57 -117 q22 16 65 16q85 0 124.5 -45t39.5 -108q0 -71 -51 -113.5t-129 -42.5q-62 0 -112 22t-103 72l29 52q88 -91 186 -91q56 0 88.5 29t32.5 72q0 98 -123 98q-65 0 -102 -37l-35 27l80 170q-106 11 -201 48t-176.5 102.5t-141 153.5t-93.5 208.5t-34 261.5z" />
<glyph unicode="&#xc8;" horiz-adv-x="1304" d="M139 0v1446h56v-649l249 -154l428 184h-428v381h789v-53h-733v-274h712v-291h-712v-299h733v-291h-1094zM444 1393v53h789v-53h-789zM487 1886h84l314 -272h-84z" />
<glyph unicode="&#xc9;" horiz-adv-x="1304" d="M139 0v1446h56v-649l249 -154l428 184h-428v381h789v-53h-733v-274h712v-291h-712v-299h733v-291h-1094zM444 1393v53h789v-53h-789zM649 1577l314 272h84l-314 -272h-84z" />
<glyph unicode="&#xca;" horiz-adv-x="1304" d="M139 0v1446h56v-649l249 -154l428 184h-428v381h789v-53h-733v-274h712v-291h-712v-299h733v-291h-1094zM377 1593l309 308l309 -308h-69l-240 234l-240 -234h-69zM444 1393v53h789v-53h-789z" />
<glyph unicode="&#xcb;" horiz-adv-x="1304" d="M139 0v1446h56v-649l249 -154l428 184h-428v381h789v-53h-733v-274h712v-291h-712v-299h733v-291h-1094zM444 1393v53h789v-53h-789zM446 1622v254h197v-254h-55v154l-86 -154h-56zM729 1622v254h197v-254h-56v154l-86 -154h-55z" />
<glyph unicode="&#xcc;" horiz-adv-x="647" d="M100 1888h84l314 -272h-84zM139 0v1446h56v-576q102 -79 254 -206v782h55v-1446h-365z" />
<glyph unicode="&#xcd;" horiz-adv-x="647" d="M139 0v1446h56v-576q102 -79 254 -206v782h55v-1446h-365zM150 1612l313 272h84l-314 -272h-83z" />
<glyph unicode="&#xce;" horiz-adv-x="647" d="M14 1593l310 308l309 -308h-70l-239 234l-240 -234h-70zM139 0v1446h56v-576q102 -79 254 -206v782h55v-1446h-365z" />
<glyph unicode="&#xcf;" horiz-adv-x="647" d="M76 1624v254h196v-254h-55v154l-86 -154h-55zM139 0v1446h56v-576q102 -79 254 -206v782h55v-1446h-365zM358 1624v254h197v-254h-55v154l-86 -154h-56z" />
<glyph unicode="&#xd0;" horiz-adv-x="1486" d="M37 573v56h156l251 227v352h234q105 0 184 -26t128 -69t79 -106.5t41.5 -130.5t11.5 -149q0 -53 -8 -135l260 145q-5 327 -184.5 491.5t-558.5 164.5h-187v53h187q410 0 604.5 -181t194.5 -542q0 -110 -19.5 -208t-70.5 -194.5t-130.5 -165.5t-209 -112t-295.5 -43h-566 v573h-102zM37 807v59h102v580h56v-639h-158zM500 291h116q239 0 345 97.5t106 338.5q0 72 -10 131.5t-36.5 116t-69 95t-112 62t-161.5 23.5h-178v-289h205v-293h-205v-282z" />
<glyph unicode="&#xd1;" horiz-adv-x="1519" d="M135 0v1446h55v-719q10 -10 254 -262v522h48l176 -299q27 -14 307 -147l-533 905h64l514 -871v871h55v-334l254 154v180h55v-1446h-372l-512 864v-864h-365zM432 1669q0 81 50 127.5t126 46.5q41 0 75.5 -14t52 -28.5t48.5 -45.5q30 -30 59 -42.5t77 -12.5q56 0 85 34 t29 87h53q0 -71 -42.5 -122.5t-129.5 -51.5q-62 0 -101.5 18t-74.5 53q-26 26 -38 37t-39 23t-58 12q-119 0 -119 -121h-53z" />
<glyph unicode="&#xd2;" horiz-adv-x="1679" d="M90 727q0 94 22.5 191t72.5 194t121.5 176t176.5 136t230 75v-55q-168 -26 -290 -126t-194 -243l201 -153q21 67 55 124t83 104t117.5 74t148.5 27q131 0 230.5 -64.5t153 -173.5t60.5 -247l254 -74q2 12 2 35q0 89 -21.5 179t-67.5 178.5t-111.5 160.5t-161.5 125 t-209 72v55q125 -19 230.5 -75.5t177 -134t122 -173t73.5 -193.5t23 -194q0 -129 -42 -255t-117 -232t-189 -183t-248 -104q-54 -14 -153 -14q-86 0 -150 12q-111 21 -207.5 73.5t-167.5 128t-122.5 168.5t-77 196.5t-25.5 209.5zM455 727q0 -88 26 -172t73 -152 t121.5 -109.5t164.5 -41.5q74 0 138 30t108.5 79t76.5 111.5t47 127.5t15 127q0 202 -106.5 336.5t-284.5 134.5q-75 0 -139.5 -30.5t-107.5 -79t-73.5 -111.5t-44.5 -126.5t-14 -123.5zM487 1886h84l314 -272h-84z" />
<glyph unicode="&#xd3;" horiz-adv-x="1679" d="M90 727q0 94 22.5 191t72.5 194t121.5 176t176.5 136t230 75v-55q-168 -26 -290 -126t-194 -243l201 -153q21 67 55 124t83 104t117.5 74t148.5 27q131 0 230.5 -64.5t153 -173.5t60.5 -247l254 -74q2 12 2 35q0 89 -21.5 179t-67.5 178.5t-111.5 160.5t-161.5 125 t-209 72v55q125 -19 230.5 -75.5t177 -134t122 -173t73.5 -193.5t23 -194q0 -128 -41.5 -254t-116.5 -232.5t-188.5 -183.5t-247.5 -104q-54 -14 -155 -14q-86 0 -152 12h-2q-137 25 -251.5 101t-188.5 181.5t-115 233t-41 260.5zM455 727q0 -88 26 -172t73 -152 t121.5 -109.5t164.5 -41.5q74 0 138 30t108.5 79t76.5 111.5t47 127.5t15 127q0 202 -106.5 336.5t-284.5 134.5q-75 0 -139.5 -30.5t-107.5 -79t-73.5 -111.5t-44.5 -126.5t-14 -123.5zM803 1614l313 272h84l-313 -272h-84z" />
<glyph unicode="&#xd4;" horiz-adv-x="1679" d="M90 727q0 94 22.5 191t72.5 194t121.5 176t176.5 136t230 75v-55q-168 -26 -290 -126t-194 -243l201 -153q21 67 55 124t83 104t117.5 74t148.5 27q131 0 230.5 -64.5t153 -173.5t60.5 -247l254 -74q2 12 2 35q0 89 -21.5 179t-67.5 178.5t-111.5 160.5t-161.5 125 t-209 72v55q125 -19 230.5 -75.5t177 -134t122 -173t73.5 -193.5t23 -194q0 -129 -42 -255t-117 -232t-189 -183t-248 -104q-54 -14 -153 -14q-86 0 -150 12q-111 21 -207.5 73.5t-167.5 128t-122.5 168.5t-77 196.5t-25.5 209.5zM455 727q0 -88 26 -172t73 -152 t121.5 -109.5t164.5 -41.5q74 0 138 30t108.5 79t76.5 111.5t47 127.5t15 127q0 202 -106.5 336.5t-284.5 134.5q-75 0 -139.5 -30.5t-107.5 -79t-73.5 -111.5t-44.5 -126.5t-14 -123.5zM526 1593l310 308l309 -308h-70l-239 234l-240 -234h-70z" />
<glyph unicode="&#xd5;" horiz-adv-x="1679" d="M90 727q0 94 22.5 191t72.5 194t121.5 176t176.5 136t230 75v-55q-168 -26 -290 -126t-194 -243l201 -153q21 67 55 124t83 104t117.5 74t148.5 27q131 0 230.5 -64.5t153 -173.5t60.5 -247l254 -74q2 12 2 35q0 89 -21.5 179t-67.5 178.5t-111.5 160.5t-161.5 125 t-209 72v55q125 -19 230.5 -75.5t177 -134t122 -173t73.5 -193.5t23 -194q0 -128 -41.5 -254t-116.5 -232.5t-188.5 -183.5t-247.5 -104q-54 -14 -155 -14q-86 0 -150 12q-111 21 -207.5 73.5t-167.5 128t-122.5 168.5t-77 196.5t-25.5 209.5zM455 727q0 -88 26 -172 t73 -152t121.5 -109.5t164.5 -41.5q74 0 138 30t108.5 79t76.5 111.5t47 127.5t15 127q0 202 -106.5 336.5t-284.5 134.5q-75 0 -139.5 -30.5t-107.5 -79t-73.5 -111.5t-44.5 -126.5t-14 -123.5zM516 1669q0 81 50 127.5t126 46.5q41 0 75.5 -14t52 -28.5t48.5 -45.5 q30 -30 59 -42.5t77 -12.5q56 0 85 34t29 87h53q0 -71 -42.5 -122.5t-129.5 -51.5q-62 0 -101.5 18t-74.5 53q-26 26 -38 37t-39 23t-58 12q-119 0 -119 -121h-53z" />
<glyph unicode="&#xd6;" horiz-adv-x="1679" d="M90 727q0 94 22.5 191t72.5 194t121.5 176t176.5 136t230 75v-55q-168 -26 -290 -126t-194 -243l201 -153q21 67 55 124t83 104t117.5 74t148.5 27q131 0 230.5 -64.5t153 -173.5t60.5 -247l254 -74q2 12 2 35q0 89 -21.5 179t-67.5 178.5t-111.5 160.5t-161.5 125 t-209 72v55q125 -19 230.5 -75.5t177 -134t122 -173t73.5 -193.5t23 -194q0 -129 -42 -255t-117 -232t-189 -183t-248 -104q-54 -14 -153 -14q-86 0 -150 12q-111 21 -207.5 73.5t-167.5 128t-122.5 168.5t-77 196.5t-25.5 209.5zM455 727q0 -88 26 -172t73 -152 t121.5 -109.5t164.5 -41.5q74 0 138 30t108.5 79t76.5 111.5t47 127.5t15 127q0 202 -106.5 336.5t-284.5 134.5q-75 0 -139.5 -30.5t-107.5 -79t-73.5 -111.5t-44.5 -126.5t-14 -123.5zM594 1597v254h197v-254h-56v154l-86 -154h-55zM877 1597v254h196v-254h-55v154 l-86 -154h-55z" />
<glyph unicode="&#xd7;" horiz-adv-x="1228" d="M119 236l284 284l-284 287l41 43l133 -135l160 90l-166 168l43 41l284 -285l287 285l43 -41l-178 -178l215 -35l88 88l41 -43l-285 -285l285 -287l-41 -43l-137 138l-123 -129l133 -131l-43 -41l-285 284l-286 -284l-43 41l-125 125z" />
<glyph unicode="&#xd8;" horiz-adv-x="1579" d="M-27 2l254 234q-149 202 -149 491q0 115 25.5 223.5t81.5 207t137 171.5t199 116.5t259 43.5q177 0 315 -66t230 -180l268 246l37 -43l-270 -248q137 -201 137 -469q0 -223 -90 -398.5t-254 -273.5t-375 -98q-149 0 -284 59.5t-232 171.5l-252 -231zM133 727 q0 -266 133 -455l160 148q-80 139 -80 315q0 68 15.5 137.5t50 137t83.5 119.5t123 84t162 32q113 0 202 -48t148 -134l154 143q-86 106 -213 167t-291 61q-131 0 -240 -40t-183 -108.5t-125.5 -159.5t-75 -191.5t-23.5 -207.5zM401 735q0 -152 68 -276l618 565 q-52 78 -130.5 122t-176.5 44q-76 0 -140 -28.5t-107 -75.5t-73.5 -107t-44.5 -122t-14 -122zM500 412q105 -146 280 -146q92 0 168.5 42t123.5 109t73 145.5t26 156.5q0 140 -55 256z" />
<glyph unicode="&#xd9;" horiz-adv-x="1466" d="M113 586v860h55v-860q0 -211 104 -350t277 -191l121 172q-118 22 -185 115.5t-67 232.5v881h55v-881q0 -138 71 -218.5t189 -80.5t189 80.5t71 218.5v881h56v-678l249 508v170h56v-860q0 -146 -49 -264.5t-134 -195t-197.5 -118t-240.5 -41.5t-240.5 41.5t-197 118 t-133.5 195t-49 264.5zM358 1884h84l314 -272h-84z" />
<glyph unicode="&#xda;" horiz-adv-x="1466" d="M113 586v860h55v-860q0 -211 104 -350t277 -191l121 172q-118 22 -185 115.5t-67 232.5v881h55v-881q0 -138 71 -218.5t189 -80.5t189 80.5t71 218.5v881h56v-678l249 508v170h56v-860q0 -146 -49 -264.5t-134 -195t-197.5 -118t-240.5 -41.5t-240.5 41.5t-197 118 t-133.5 195t-49 264.5zM715 1616l313 272h84l-313 -272h-84z" />
<glyph unicode="&#xdb;" horiz-adv-x="1466" d="M113 586v860h55v-860q0 -211 104 -350t277 -191l121 172q-118 22 -185 115.5t-67 232.5v881h55v-881q0 -138 71 -218.5t189 -80.5t189 80.5t71 218.5v881h56v-678l249 508v170h56v-860q0 -146 -49 -264.5t-134 -195t-197.5 -118t-240.5 -41.5t-240.5 41.5t-197 118 t-133.5 195t-49 264.5zM424 1593l309 308l309 -308h-69l-240 234l-239 -234h-70z" />
<glyph unicode="&#xdc;" horiz-adv-x="1482" d="M121 586v860h55v-860q0 -211 104 -350t277 -191l121 172q-118 22 -185 115.5t-67 232.5v881h55v-881q0 -138 71 -218.5t189 -80.5t189 80.5t71 218.5v881h56v-678l250 508v170h55v-860q0 -146 -49 -264.5t-134 -195t-197.5 -118t-240.5 -41.5t-240.5 41.5t-197 118 t-133.5 195t-49 264.5zM496 1597v254h196v-254h-55v154l-86 -154h-55zM778 1597v254h197v-254h-55v154l-86 -154h-56z" />
<glyph unicode="&#xdd;" horiz-adv-x="1417" d="M0 1446h70l346 -549l295 -55l-357 604h66l291 -508l233 410l55 98h66l-82 -139l166 -168l201 307h67l-532 -819v-627h-357v616zM713 1608l313 272h84l-313 -272h-84z" />
<glyph unicode="&#xde;" horiz-adv-x="1277" d="M135 0v1446h55v-621l254 -77v225h144q45 0 87 -7t84.5 -25t73.5 -45t50.5 -71t19.5 -100q0 -172 -141 -231l158 -152q233 117 233 385q0 111 -38 194t-108 134.5t-164.5 76.5t-213.5 25h-185v289h56v-236h129q175 0 302.5 -50.5t202 -160.5t74.5 -272 q0 -106 -35.5 -192.5t-93 -142.5t-134 -94t-155.5 -54.5t-161 -16.5h-129v-227h-365zM500 516h94q127 0 190.5 55t63.5 154q0 56 -22.5 96t-61.5 60.5t-82 29.5t-94 9h-88v-404z" />
<glyph unicode="&#xdf;" horiz-adv-x="1296" d="M133 0v961q0 133 38 234t107.5 161.5t160.5 90.5t204 30q95 0 182 -21.5t160.5 -65t117.5 -118.5t44 -172q0 -60 -21 -111.5t-54.5 -84.5t-70 -53.5t-71.5 -27.5q100 -22 149 -48q160 -84 160 -308q0 -217 -119 -353.5t-309 -136.5q-38 0 -75 5.5t-56 10.5t-46.5 14.5 t-29.5 10.5v240q20 -16 57.5 -29.5t69.5 -13.5q60 0 103 25t62.5 64.5t27.5 73.5t8 66q0 59 -16 102t-40.5 67.5t-61 39t-69.5 19t-73 4.5h-82v266h53q35 0 63.5 3.5t57 14t48 27t32 45t12.5 66.5q0 70 -58 119t-145 49q-96 0 -151.5 -65.5t-55.5 -170.5v-1030h-313z M199 1083l192 -161v108q0 131 68 211t194 80q115 0 186.5 -64.5t71.5 -158.5q0 -107 -56.5 -153.5t-154.5 -55.5l160 -43q93 16 162.5 85t69.5 169q0 83 -39.5 147t-105 100.5t-143 55t-161.5 18.5q-176 0 -294 -83.5t-150 -254.5z" />
<glyph unicode="&#xe0;" horiz-adv-x="1210" d="M90 297q0 159 93 245t272 115l309 50v32q0 154 -150 154q-139 0 -139 -127h-55q0 20 3 39.5t15 46t31.5 45.5t57 33t87.5 14q107 0 156 -60t49 -145v-71l-360 -62q-138 -24 -224.5 -95.5t-89.5 -193.5h224q0 156 174 195l276 49v-41l219 225q-1 67 -27 120t-67 86 t-96.5 54.5t-109.5 30t-111 8.5q-66 0 -126 -8.5t-116.5 -29t-97.5 -51.5t-65.5 -79.5t-24.5 -109.5h-58q0 87 42 153.5t113 104t155 56t178 18.5q61 0 122 -10t124.5 -35.5t111.5 -63.5t78.5 -100.5t30.5 -140.5v-748h-330v45q-43 -38 -123 -68t-160 -30q-179 0 -285 93 t-106 257zM393 1497h84l314 -272h-84zM424 297q0 -41 36 -78t115 -37q80 0 134.5 58t54.5 170v88l-207 -37q-37 -7 -63 -21t-39.5 -28.5t-20.5 -37.5t-8.5 -38t-1.5 -39z" />
<glyph unicode="&#xe1;" horiz-adv-x="1210" d="M90 297q0 159 93 245t272 115l309 50v32q0 154 -150 154q-139 0 -139 -127h-55q0 20 3 39.5t15 46t31.5 45.5t57 33t87.5 14q107 0 156 -60t49 -145v-71l-360 -62q-138 -24 -224.5 -95.5t-89.5 -193.5h224q0 156 174 195l276 49v-41l219 225q-1 67 -27 120t-67 86 t-96.5 54.5t-109.5 30t-111 8.5q-66 0 -126 -8.5t-116.5 -29t-97.5 -51.5t-65.5 -79.5t-24.5 -109.5h-58q0 87 42 153.5t113 104t155 56t178 18.5q61 0 122 -10t124.5 -35.5t111.5 -63.5t78.5 -100.5t30.5 -140.5v-748h-330v45q-43 -38 -123 -68t-160 -30q-179 0 -285 93 t-106 257zM393 1225l314 272h84l-314 -272h-84zM424 297q0 -41 36 -78t115 -37q80 0 134.5 58t54.5 170v88l-207 -37q-37 -7 -63 -21t-39.5 -28.5t-20.5 -37.5t-8.5 -38t-1.5 -39z" />
<glyph unicode="&#xe2;" horiz-adv-x="1210" d="M90 297q0 159 93 245t272 115l309 50v32q0 154 -150 154q-139 0 -139 -127h-55q0 20 3 39.5t15 46t31.5 45.5t57 33t87.5 14q107 0 156 -60t49 -145v-71l-360 -62q-138 -24 -224.5 -95.5t-89.5 -193.5h224q0 156 174 195l276 49v-41l219 225q-1 67 -27 120t-67 86 t-96.5 54.5t-109.5 30t-111 8.5q-66 0 -126 -8.5t-116.5 -29t-97.5 -51.5t-65.5 -79.5t-24.5 -109.5h-58q0 87 42 153.5t113 104t155 56t178 18.5q61 0 122 -10t124.5 -35.5t111.5 -63.5t78.5 -100.5t30.5 -140.5v-748h-330v45q-43 -38 -123 -68t-160 -30q-179 0 -285 93 t-106 257zM299 1208l309 308l310 -308h-70l-240 234l-239 -234h-70zM424 297q0 -41 36 -78t115 -37q80 0 134.5 58t54.5 170v88l-207 -37q-37 -7 -63 -21t-39.5 -28.5t-20.5 -37.5t-8.5 -38t-1.5 -39z" />
<glyph unicode="&#xe3;" horiz-adv-x="1210" d="M90 297q0 159 93 245t272 115l309 50v32q0 154 -150 154q-139 0 -139 -127h-55q0 20 3 39.5t15 46t31.5 45.5t57 33t87.5 14q107 0 156 -60t49 -145v-71l-360 -62q-138 -24 -224.5 -95.5t-89.5 -193.5h224q0 156 174 195l276 49v-41l219 225q-1 67 -27 120t-67 86 t-96.5 54.5t-109.5 30t-111 8.5q-66 0 -126 -8.5t-116.5 -29t-97.5 -51.5t-65.5 -79.5t-24.5 -109.5h-58q0 87 42 153.5t113 104t155 56t178 18.5q61 0 122 -10t124.5 -35.5t111.5 -63.5t78.5 -100.5t30.5 -140.5v-748h-330v45q-43 -38 -123 -68t-160 -30q-179 0 -285 93 t-106 257zM264 1284q0 81 50 127.5t126 46.5q41 0 75.5 -14t52 -28.5t48.5 -45.5q30 -30 59 -42.5t77 -12.5q56 0 85 34t29 87h54q0 -71 -42.5 -122.5t-129.5 -51.5q-62 0 -102 18t-75 53q-26 26 -38 37t-39 23t-58 12q-119 0 -119 -121h-53zM424 297q0 -41 36 -78t115 -37 q80 0 134.5 58t54.5 170v88l-207 -37q-37 -7 -63 -21t-39.5 -28.5t-20.5 -37.5t-8.5 -38t-1.5 -39z" />
<glyph unicode="&#xe4;" horiz-adv-x="1210" d="M90 297q0 159 93 245t272 115l309 50v32q0 154 -150 154q-139 0 -139 -127h-55q0 20 3 39.5t15 46t31.5 45.5t57 33t87.5 14q107 0 156 -60t49 -145v-71l-360 -62q-138 -24 -224.5 -95.5t-89.5 -193.5h224q0 156 174 195l276 49v-41l219 225q-1 67 -27 120t-67 86 t-96.5 54.5t-109.5 30t-111 8.5q-66 0 -126 -8.5t-116.5 -29t-97.5 -51.5t-65.5 -79.5t-24.5 -109.5h-58q0 87 42 153.5t113 104t155 56t178 18.5q61 0 122 -10t124.5 -35.5t111.5 -63.5t78.5 -100.5t30.5 -140.5v-748h-330v45q-43 -38 -123 -68t-160 -30q-179 0 -285 93 t-106 257zM387 1235v254h197v-254h-56v154l-86 -154h-55zM424 297q0 -41 36 -78t115 -37q80 0 134.5 58t54.5 170v88l-207 -37q-37 -7 -63 -21t-39.5 -28.5t-20.5 -37.5t-8.5 -38t-1.5 -39zM670 1235v254h196v-254h-55v154l-86 -154h-55z" />
<glyph unicode="&#xe5;" horiz-adv-x="1210" d="M90 297q0 159 93 245t272 115l309 50v32q0 154 -150 154q-139 0 -139 -127h-55q0 20 3 39.5t15 46t31.5 45.5t57 33t87.5 14q107 0 156 -60t49 -145v-71l-360 -62q-138 -24 -224.5 -95.5t-89.5 -193.5h224q0 156 174 195l276 49v-41l219 225q-1 67 -27 120t-67 86 t-96.5 54.5t-109.5 30t-111 8.5q-66 0 -126 -8.5t-116.5 -29t-97.5 -51.5t-65.5 -79.5t-24.5 -109.5h-58q0 87 42 153.5t113 104t155 56t178 18.5q61 0 122 -10t124.5 -35.5t111.5 -63.5t78.5 -100.5t30.5 -140.5v-748h-330v45q-43 -38 -123 -68t-160 -30q-179 0 -285 93 t-106 257zM424 297q0 -41 36 -78t115 -37q80 0 134.5 58t54.5 170v88l-207 -37q-37 -7 -63 -21t-39.5 -28.5t-20.5 -37.5t-8.5 -38t-1.5 -39zM467 1360q0 70 49.5 120t120.5 50t120.5 -50t49.5 -120t-49.5 -120t-120.5 -50t-120.5 50t-49.5 120zM520 1362h234q-2 43 -38 79 t-79 36q-45 0 -81 -36t-36 -79z" />
<glyph unicode="&#xe6;" horiz-adv-x="1902" d="M90 297q0 159 93 245t272 115l309 50v32q0 71 -30 112.5t-109 41.5q-78 0 -113 -40.5t-35 -86.5h-55q0 18 4 37.5t17 46t34 46.5t59.5 34t88.5 14q56 0 95.5 -17.5t60 -48.5t29.5 -65t9 -74v-71l-360 -62q-124 -22 -207 -82t-102 -162l260 76q44 54 133 74l272 49 l313 289q73 76 193 76q134 0 205 -86t71 -226h-135l-92 -108h434v18q-1 81 -17 153.5t-52.5 140.5t-90 117.5t-136 79t-185.5 29.5q-177 0 -291 -81q-32 -24 -47 -39q-98 120 -352 120q-84 0 -158 -14.5t-139 -45t-103 -86.5t-38 -132h-56q0 85 44 151t116.5 104t157.5 57.5 t176 19.5q242 0 360 -94q131 94 330 94q121 0 217 -36.5t155 -94t97 -135.5t53 -153.5t15 -154.5v-71h-764v-13q0 -109 66 -181.5t173 -72.5q106 0 178 51.5t99 127.5l53 -27q-28 -73 -97 -126.5t-157 -72.5l125 -104q175 69 260 235l51 -26q-161 -297 -512 -297 q-105 0 -213.5 44.5t-195.5 121.5q-85 -71 -198.5 -118.5t-246.5 -47.5q-179 0 -285 93t-106 257zM424 297q0 -41 36 -78t115 -37q80 0 134.5 58t54.5 170v88l-207 -37q-37 -7 -63 -21t-39.5 -28.5t-20.5 -37.5t-8.5 -38t-1.5 -39zM1104 668h426q-8 89 -62 146.5t-147 57.5 q-53 0 -95 -20t-66.5 -52.5t-38 -65.5t-17.5 -66z" />
<glyph unicode="&#xe7;" horiz-adv-x="1128" d="M68 510q0 103 25 191.5t69 151.5t99.5 111t120.5 77t128.5 43t126.5 14q52 0 94.5 -4.5t94.5 -19.5t95 -41t89.5 -72.5t85.5 -110.5l-54 -31q-79 132 -173.5 178.5t-231.5 46.5q-64 0 -129 -16t-130.5 -53t-118 -90t-89 -133.5t-45.5 -178.5q2 -1 211 -69v16 q0 67 19.5 134.5t55.5 125.5t95 94.5t131 36.5q176 0 266 -176l-51 -28q-29 61 -82.5 106t-132.5 45q-60 0 -109 -34t-77.5 -87t-44 -109.5t-15.5 -107.5q0 -68 22.5 -138t65.5 -120l25 -22q57 -47 133 -47q167 0 231 186l179 -103l53 -30q-147 -281 -424 -297l-55 -113 q21 12 59 12q87 0 127.5 -45t40.5 -106q0 -67 -51.5 -112.5t-128.5 -45.5q-62 0 -120 23.5t-99 62.5l28 51q37 -37 91 -59.5t100 -22.5q56 0 88 29t32 72q0 98 -122 98q-66 0 -103 -37l-35 27l78 166q-101 5 -193 39.5t-171 99.5t-126.5 174t-47.5 248z" />
<glyph unicode="&#xe8;" horiz-adv-x="1193" d="M66 510q0 85 16.5 164.5t56.5 158t101 136t157 93.5t217 36t217 -36.5t155 -94t97 -135.5t53 -153.5t15 -154.5v-71h-764v-13q0 -109 66.5 -181.5t173.5 -72.5q106 0 177.5 51.5t98.5 127.5l53 -27q-23 -60 -73.5 -107t-118.5 -73l53 -127q180 64 270 239l52 -26 q-161 -297 -512 -297q-248 0 -404.5 153.5t-156.5 409.5zM395 668h426q-8 89 -62 146.5t-147 57.5q-53 0 -95 -20t-66.5 -52.5t-38 -65.5t-17.5 -66zM420 1497h84l313 -272h-84zM518 1036l37 -116q27 6 57 6q134 0 205.5 -86t71.5 -226h-170l-31 -108h408v18 q-1 81 -17 153.5t-52.5 140.5t-90.5 117.5t-136.5 79t-185.5 29.5q-34 0 -96 -8z" />
<glyph unicode="&#xe9;" horiz-adv-x="1193" d="M66 510q0 85 16.5 164.5t56.5 158t101 136t157 93.5t217 36t217 -36.5t155 -94t97 -135.5t53 -153.5t15 -154.5v-71h-764v-13q0 -109 66.5 -181.5t173.5 -72.5q106 0 177.5 51.5t98.5 127.5l53 -27q-23 -60 -73.5 -107t-118.5 -73l53 -127q180 64 270 239l52 -26 q-161 -297 -512 -297q-248 0 -404.5 153.5t-156.5 409.5zM395 668h426q-8 89 -62 146.5t-147 57.5q-53 0 -95 -20t-66.5 -52.5t-38 -65.5t-17.5 -66zM408 1225l313 272h84l-313 -272h-84zM518 1036l37 -116q27 6 57 6q134 0 205.5 -86t71.5 -226h-170l-31 -108h408v18 q-1 81 -17 153.5t-52.5 140.5t-90.5 117.5t-136.5 79t-185.5 29.5q-34 0 -96 -8z" />
<glyph unicode="&#xea;" horiz-adv-x="1193" d="M66 510q0 85 16.5 164.5t56.5 158t101 136t157 93.5t217 36t217 -36.5t155 -94t97 -135.5t53 -153.5t15 -154.5v-71h-764v-13q0 -109 66.5 -181.5t173.5 -72.5q106 0 177.5 51.5t98.5 127.5l53 -27q-23 -60 -73.5 -107t-118.5 -73l53 -127q180 64 270 239l52 -26 q-161 -297 -512 -297q-248 0 -404.5 153.5t-156.5 409.5zM301 1208l309 308l310 -308h-70l-240 234l-239 -234h-70zM395 668h426q-8 89 -62 146.5t-147 57.5q-53 0 -95 -20t-66.5 -52.5t-38 -65.5t-17.5 -66zM518 1036l37 -116q27 6 57 6q134 0 205.5 -86t71.5 -226h-170 l-31 -108h408v18q-1 81 -17 153.5t-52.5 140.5t-90.5 117.5t-136.5 79t-185.5 29.5q-34 0 -96 -8z" />
<glyph unicode="&#xeb;" horiz-adv-x="1193" d="M66 510q0 85 16.5 164.5t56.5 158t101 136t157 93.5t217 36t217 -36.5t155 -94t97 -135.5t53 -153.5t15 -154.5v-71h-764v-13q0 -109 66.5 -181.5t173.5 -72.5q106 0 177.5 51.5t98.5 127.5l53 -27q-23 -60 -73.5 -107t-118.5 -73l53 -127q180 64 270 239l52 -26 q-161 -297 -512 -297q-248 0 -404.5 153.5t-156.5 409.5zM373 1235v254h196v-254h-55v154l-86 -154h-55zM395 668h426q-8 89 -62 146.5t-147 57.5q-53 0 -95 -20t-66.5 -52.5t-38 -65.5t-17.5 -66zM518 1036l37 -116q27 6 57 6q134 0 205.5 -86t71.5 -226h-170l-31 -108h408 v18q-1 81 -17 153.5t-52.5 140.5t-90.5 117.5t-136.5 79t-185.5 29.5q-34 0 -96 -8zM655 1235v254h197v-254h-55v154l-86 -154h-56z" />
<glyph unicode="&#xec;" horiz-adv-x="598" d="M63 1497h84l314 -272h-84zM141 0v1044h56v-382l202 -300v682h56v-1044h-314z" />
<glyph unicode="&#xed;" horiz-adv-x="598" d="M141 0v1044h56v-382l202 -300v682h56v-1044h-314zM147 1225l314 272h84l-314 -272h-84z" />
<glyph unicode="&#xee;" horiz-adv-x="598" d="M-12 1208l309 308l309 -308h-69l-240 234l-240 -234h-69zM141 0v1044h56v-382l202 -300v682h56v-1044h-314z" />
<glyph unicode="&#xef;" horiz-adv-x="598" d="M57 1235v254h197v-254h-55v154l-86 -154h-56zM141 0v1044h56v-382l202 -300v682h56v-1044h-314zM340 1235v254h197v-254h-56v154l-86 -154h-55z" />
<glyph unicode="&#xf0;" horiz-adv-x="1216" d="M57 469q0 111 39 199t106 141.5t152.5 81t182.5 27.5q101 0 167.5 -37t90.5 -80q-7 113 -45.5 181t-114.5 105l-47 19q-75 22 -144 27l-129 -158h-69l131 162q-74 4 -121 4h-33v57h49q78 0 146 -6l80 100q-133 17 -240 17h-35v53h51q137 0 263 -21l129 158h69l-137 -170 q543 -119 543 -659q0 -135 -23 -244.5t-65 -183.5t-94.5 -127t-117.5 -82.5t-127 -42.5t-130 -13q-142 0 -263.5 66t-192.5 179.5t-71 246.5zM113 469q0 -85 35 -165t95.5 -140t149.5 -96.5t191 -36.5q113 0 209 41l-107 161q-44 -21 -102 -18q-56 0 -99.5 24.5t-67.5 63.5 t-36 81t-12 85q0 23 2 35l-226 133q-32 -75 -32 -168zM424 469q0 -74 43.5 -136.5t116.5 -62.5q87 0 135.5 57.5t48.5 141.5q0 79 -46 134.5t-126 55.5t-126 -55.5t-46 -134.5z" />
<glyph unicode="&#xf1;" horiz-adv-x="1245" d="M133 0v1044h55v-567q30 -22 104 -72.5t93 -64.5v207q0 179 69.5 271.5t166.5 92.5q148 0 194 -129l184 103q-37 87 -108 123t-180 36q-99 0 -184.5 -46t-141.5 -126v172h55v-43q36 36 113 66.5t158 30.5q199 0 291 -99t92 -344v-655h-314v637q0 109 -35.5 165t-123.5 56 q-80 0 -130.5 -79.5t-50.5 -231.5v-547h-307zM283 1286q0 81 50 127.5t126 46.5q41 0 75.5 -14t52 -28.5t48.5 -45.5t59 -43t76 -12q56 0 85.5 34t29.5 87h53q0 -71 -42.5 -122.5t-129.5 -51.5q-62 0 -101.5 18t-74.5 53q-26 26 -38 37t-39 23t-58 12q-119 0 -119 -121h-53z " />
<glyph unicode="&#xf2;" d="M74 518q0 124 33.5 224t89 165.5t130.5 109.5t154 62.5t164 18.5t164 -18.5t154.5 -62t131 -108.5t89 -165t33.5 -224q0 -116 -34.5 -213t-91 -162.5t-131.5 -111t-154.5 -66t-160.5 -20.5q-82 0 -161 20.5t-154 65.5t-131.5 110t-90.5 162t-34 213zM129 518 q0 -133 49 -237l166 245q2 162 80.5 270.5t220.5 108.5q125 0 201 -86t94 -221l176 166q-42 97 -120 162t-165.5 91.5t-185.5 26.5q-77 0 -149 -17.5t-139.5 -57.5t-117.5 -99t-80 -149.5t-30 -202.5zM399 520q0 -87 24.5 -157t81.5 -116t140 -46t140 46t81.5 116t24.5 157 q0 84 -25.5 157.5t-83 124t-137.5 50.5t-137.5 -50.5t-83 -124t-25.5 -157.5zM457 1497h84l313 -272h-84z" />
<glyph unicode="&#xf3;" d="M74 518q0 124 33.5 224t89 165.5t130.5 109.5t154 62.5t164 18.5t164 -18.5t154.5 -62t131 -108.5t89 -165t33.5 -224q0 -116 -34.5 -213t-91 -162.5t-131.5 -111t-154.5 -66t-160.5 -20.5q-82 0 -161 20.5t-154 65.5t-131.5 110t-90.5 162t-34 213zM129 518 q0 -133 49 -237l166 245q2 162 80.5 270.5t220.5 108.5q125 0 201 -86t94 -221l176 166q-42 97 -120 162t-165.5 91.5t-185.5 26.5q-77 0 -149 -17.5t-139.5 -57.5t-117.5 -99t-80 -149.5t-30 -202.5zM399 520q0 -87 24.5 -157t81.5 -116t140 -46t140 46t81.5 116t24.5 157 q0 84 -25.5 157.5t-83 124t-137.5 50.5t-137.5 -50.5t-83 -124t-25.5 -157.5zM446 1225l314 272h84l-314 -272h-84z" />
<glyph unicode="&#xf4;" d="M74 518q0 124 33.5 224t89 165.5t130.5 109.5t154 62.5t164 18.5t164 -18.5t154.5 -62t131 -108.5t89 -165t33.5 -224q0 -116 -34.5 -213t-91 -162.5t-131.5 -111t-154.5 -66t-160.5 -20.5q-82 0 -161 20.5t-154 65.5t-131.5 110t-90.5 162t-34 213zM129 518 q0 -133 49 -237l166 245q2 162 80.5 270.5t220.5 108.5q125 0 201 -86t94 -221l176 166q-42 97 -120 162t-165.5 91.5t-185.5 26.5q-77 0 -149 -17.5t-139.5 -57.5t-117.5 -99t-80 -149.5t-30 -202.5zM334 1208l309 308l309 -308h-69l-240 234l-240 -234h-69zM399 520 q0 -87 24.5 -157t81.5 -116t140 -46t140 46t81.5 116t24.5 157q0 84 -25.5 157.5t-83 124t-137.5 50.5t-137.5 -50.5t-83 -124t-25.5 -157.5z" />
<glyph unicode="&#xf5;" d="M74 518q0 124 33.5 224t89 165.5t130.5 109.5t154 62.5t164 18.5t164 -18.5t154.5 -62t131 -108.5t89 -165t33.5 -224q0 -116 -34.5 -213t-91 -162.5t-131.5 -111t-154.5 -66t-160.5 -20.5q-82 0 -161 20.5t-154 65.5t-131.5 110t-90.5 162t-34 213zM129 518 q0 -133 49 -237l166 245q2 162 80.5 270.5t220.5 108.5q125 0 201 -86t94 -221l176 166q-42 97 -120 162t-165.5 91.5t-185.5 26.5q-77 0 -149 -17.5t-139.5 -57.5t-117.5 -99t-80 -149.5t-30 -202.5zM317 1286q0 81 50.5 127.5t126.5 46.5q41 0 75.5 -14t52 -28.5 t48.5 -45.5t59 -43t76 -12q56 0 85.5 34t29.5 87h53q0 -71 -42.5 -122.5t-129.5 -51.5q-62 0 -101.5 18t-74.5 53q-26 26 -38.5 37t-39.5 23t-58 12q-118 0 -118 -121h-54zM399 520q0 -87 24.5 -157t81.5 -116t140 -46t140 46t81.5 116t24.5 157q0 84 -25.5 157.5t-83 124 t-137.5 50.5t-137.5 -50.5t-83 -124t-25.5 -157.5z" />
<glyph unicode="&#xf6;" d="M74 518q0 124 33.5 224t89 165.5t130.5 109.5t154 62.5t164 18.5t164 -18.5t154.5 -62t131 -108.5t89 -165t33.5 -224q0 -116 -34.5 -213t-91 -162.5t-131.5 -111t-154.5 -66t-160.5 -20.5q-82 0 -161 20.5t-154 65.5t-131.5 110t-90.5 162t-34 213zM129 518 q0 -133 49 -237l166 245q2 162 80.5 270.5t220.5 108.5q125 0 201 -86t94 -221l176 166q-42 97 -120 162t-165.5 91.5t-185.5 26.5q-77 0 -149 -17.5t-139.5 -57.5t-117.5 -99t-80 -149.5t-30 -202.5zM399 520q0 -87 24.5 -157t81.5 -116t140 -46t140 46t81.5 116t24.5 157 q0 84 -25.5 157.5t-83 124t-137.5 50.5t-137.5 -50.5t-83 -124t-25.5 -157.5zM401 1235v254h197v-254h-55v154l-86 -154h-56zM684 1235v254h197v-254h-56v154l-86 -154h-55z" />
<glyph unicode="&#xf7;" d="M92 485v56l318 178h-318v59h1106v-59l-240 -178h240v-56h-1106zM463 82v291h55v-240l254 240h55v-291h-364zM463 887v291h55l254 -240v240h55v-291h-364z" />
<glyph unicode="&#xf8;" d="M14 35l158 141q-98 141 -98 342q0 124 33.5 224t89 165.5t130.5 109.5t154 62.5t164 18.5q109 0 212 -33t181 -100l136 122l36 -43l-131 -120q138 -151 138 -404q0 -116 -34.5 -213t-91 -162.5t-131.5 -111t-154.5 -66t-160.5 -20.5q-122 0 -238.5 46.5t-197.5 137.5 l-158 -139zM129 518q0 -174 88 -307l156 127q-29 77 -29 182t32.5 190.5t102 140t166.5 54.5q133 0 217 -104l133 125q-138 118 -350 118q-77 0 -149 -17.5t-139.5 -57.5t-117.5 -99t-80 -149.5t-30 -202.5zM399 520q0 -76 21 -143l399 385q-66 90 -174 90 q-80 0 -137.5 -50.5t-83 -124t-25.5 -157.5zM442 322q66 -121 203 -121q83 0 140 46t81.5 116t24.5 157q0 110 -41 191z" />
<glyph unicode="&#xf9;" horiz-adv-x="1234" d="M131 389v655h55v-593l203 161v432h55v-636q0 -108 36 -165t124 -57q80 0 130 80t50 232v546h56v-546q0 -44 -2 -64l198 86v524h56v-1044h-308v43q-36 -36 -112.5 -66t-157.5 -30q-97 0 -166 22t-119 72.5t-74 136.5t-24 211zM412 1497h84l313 -272h-84z" />
<glyph unicode="&#xfa;" horiz-adv-x="1234" d="M131 389v655h55v-593l203 161v432h55v-636q0 -108 36 -165t124 -57q80 0 130 80t50 232v546h56v-546q0 -44 -2 -64l198 86v524h56v-1044h-308v43q-36 -36 -112.5 -66t-157.5 -30q-97 0 -166 22t-119 72.5t-74 136.5t-24 211zM412 1225l313 272h84l-313 -272h-84z" />
<glyph unicode="&#xfb;" horiz-adv-x="1234" d="M131 389v655h55v-593l203 161v432h55v-636q0 -108 36 -165t124 -57q80 0 130 80t50 232v546h56v-546q0 -44 -2 -64l198 86v524h56v-1044h-308v43q-36 -36 -112.5 -66t-157.5 -30q-97 0 -166 22t-119 72.5t-74 136.5t-24 211zM301 1208l309 308l310 -308h-70l-240 234 l-239 -234h-70z" />
<glyph unicode="&#xfc;" horiz-adv-x="1234" d="M131 389v655h55v-593l203 161v432h55v-636q0 -108 36 -165t124 -57q80 0 130 80t50 232v546h56v-546q0 -44 -2 -64l198 86v524h56v-1044h-308v43q-36 -36 -112.5 -66t-157.5 -30q-97 0 -166 22t-119 72.5t-74 136.5t-24 211zM367 1235v254h196v-254h-55v154l-86 -154h-55 zM649 1235v254h197v-254h-55v154l-86 -154h-56z" />
<glyph unicode="&#xfd;" horiz-adv-x="1013" d="M0 1044h63l132 -426l213 -79l-144 505h62l188 -677l178 677h58l-232 -849l107 -162l327 1011h60l-369 -1130q-90 -283 -340 -283h-217v252h135q51 0 77 21t28 55q3 38 -15 90zM477 1225l314 272h83l-313 -272h-84z" />
<glyph unicode="&#xfe;" horiz-adv-x="1277" d="M135 -514v1960h55v-1092l254 103v288h144q107 0 180 -36l78 194q-94 27 -217 27h-185v516h56v-463h129q175 0 302.5 -50.5t202 -160.5t74.5 -272q0 -106 -35.5 -192.5t-93 -142.5t-134 -94t-155.5 -54.5t-161 -16.5h-129v-514h-365zM500 289h94q127 0 190.5 55t63.5 154 q0 56 -22.5 95.5t-61.5 60t-82 29.5t-94 9h-88v-403z" />
<glyph unicode="&#xff;" horiz-adv-x="1013" d="M0 1044h63l132 -426l213 -79l-144 505h62l188 -677l178 677h58l-232 -849l107 -162l327 1011h60l-369 -1130q-90 -283 -340 -283h-217v252h135q51 0 77 21t28 55q3 38 -15 90zM266 1235v254h197v-254h-55v154l-86 -154h-56zM549 1235v254h196v-254h-55v154l-86 -154h-55z " />
<glyph unicode="&#x131;" horiz-adv-x="598" d="M141 0v1044h56v-382l202 -300v682h56v-1044h-314z" />
<glyph unicode="&#x152;" horiz-adv-x="2260" d="M86 731q0 120 25 230t78.5 205.5t130.5 165.5t187.5 110.5t242.5 40.5q157 0 305 -80v43h1093v-53h-1038v-90q-38 46 -147 85t-213 39q-123 0 -225.5 -37.5t-174 -105.5t-118.5 -156.5t-70 -195.5l235 -148q6 62 23.5 123t52 122.5t81 108t117 76t154.5 29.5 q83 0 161 -31.5t124 -89.5v-487l250 192v379h788v-53h-729v-272h709v-295h-709v-293h729v-293h-1093v37q-149 -66 -305 -66q-127 0 -235 39.5t-186.5 109.5t-133.5 165.5t-82 208.5t-27 237zM451 727q0 -94 24 -173.5t63 -131.5t88 -89t98 -53t95 -16q78 0 146 25.5t90 70.5 v734q-21 38 -87 66t-143 28q-80 0 -145.5 -32t-107 -81.5t-70 -112.5t-40 -122t-11.5 -113z" />
<glyph unicode="&#x153;" horiz-adv-x="2019" d="M74 518q0 124 33.5 224t89 165.5t130.5 109.5t154 62.5t164 18.5q114 0 220 -35.5t186 -108.5q144 144 389 144q121 0 217 -36.5t154.5 -94t97 -135.5t53 -153.5t14.5 -154.5v-71h-764v-13q0 -109 66.5 -181.5t173.5 -72.5q106 0 178 51.5t99 127.5l235 -121 q-161 -297 -512 -297q-249 0 -403 151q-81 -76 -187 -113.5t-217 -37.5q-82 0 -161 20.5t-154 65.5t-131.5 110t-90.5 162t-34 213zM129 518q0 -143 53 -246l168 158q-6 44 -6 90q0 105 32.5 190.5t102 140t166.5 54.5q32 0 62 -6l122 117q-92 28 -184 28q-77 0 -149 -17.5 t-139.5 -57.5t-117.5 -99t-80 -149.5t-30 -202.5zM399 520q0 -87 24.5 -157t81.5 -116t140 -46t140 46t81.5 116t24.5 157q0 84 -25.5 157.5t-83 124t-137.5 50.5t-137.5 -50.5t-83 -124t-25.5 -157.5zM1221 668h426q-8 89 -62 146.5t-147 57.5q-53 0 -95 -20t-66.5 -52.5 t-38 -65.5t-17.5 -66zM1464 506h457v18q-3 216 -104 350l-121 -135q18 -58 18 -125h-137z" />
<glyph unicode="&#x160;" horiz-adv-x="1353" d="M47 233l209 187l43 39q91 -103 206 -162t228 -59q115 0 168 45.5t53 115.5q0 71 -59.5 108t-175.5 60l-182 33q-206 34 -332.5 151.5t-126.5 301.5q0 200 161.5 323t426.5 123q355 0 596 -237l-41 -41q-212 223 -555 223q-239 0 -386 -108t-147 -283q0 -101 49 -181.5 t137 -134.5q140 163 152 176q-84 57 -84 160q0 78 75 137.5t218 59.5q126 0 218 -46t179 -143l-39 -39q-86 93 -165.5 132.5t-192.5 39.5q-114 0 -176 -41.5t-62 -99.5q0 -121 179 -151l170 -33q277 -58 399.5 -169t122.5 -292q0 -91 -37 -175.5t-107.5 -153.5t-186 -110.5 t-259.5 -41.5q-220 0 -378 68t-298 218zM381 1901h70l239 -234l240 234h69l-309 -308z" />
<glyph unicode="&#x161;" horiz-adv-x="1101" d="M31 166l45 41q77 -87 205 -147t288 -60q121 0 217 41l-143 104q-30 -6 -68 -6q-109 0 -208 43t-177 125l41 41q69 -73 162 -114t182 -41q80 0 118 25t38 81q0 42 -39 63t-131 35l-96 17q-359 61 -359 327q0 70 29 133t84 113.5t143 80.5t197 30q264 0 475 -160l-45 -41 q-77 66 -188.5 106.5t-241.5 40.5q-57 0 -119 -10l35 -129q47 13 100 13q87 0 168 -34.5t142 -84.5l-45 -41q-130 106 -265 106q-155 0 -155 -73q0 -39 40.5 -64.5t133.5 -44.5l76 -14q190 -36 287.5 -115.5t97.5 -222.5q0 -77 -29 -141.5t-77.5 -108.5t-112 -74.5 t-131 -44.5t-136.5 -14q-183 0 -319.5 63.5t-218.5 155.5zM258 1516h70l239 -234l240 234h70l-310 -308z" />
<glyph unicode="&#x178;" horiz-adv-x="1429" d="M6 1446h70l346 -549l295 -55l-357 604h66l291 -508l233 410l56 98h65l-82 -139l166 -168l201 307h67l-532 -819v-627h-356v616zM471 1597v254h197v-254h-56v154l-86 -154h-55zM754 1597v254h196v-254h-55v154l-86 -154h-55z" />
<glyph unicode="&#x17d;" horiz-adv-x="1239" d="M33 0v291l700 864h-655v53h776l-295 -358l170 -170l469 565v-82l-713 -872h734v-291h-1186zM78 1393v53h1120v-53h-1120zM360 1901h70l240 -234l239 234h70l-309 -308z" />
<glyph unicode="&#x17e;" horiz-adv-x="1083" d="M70 0v236l551 567h-517v53h648l-226 -231l125 -121l314 321v166h-861v53h916v-241l-543 -559h543v-244h-950zM223 1516h70l239 -234l240 234h70l-310 -308z" />
<glyph unicode="&#x192;" horiz-adv-x="794" d="M10 -152h29q29 0 44 0.5t33.5 4.5t27 9.5t20 19t16 29.5t11 44t10 60.5t8.5 80.5l70 711h-146v190h168l21 150q39 272 329 272h154v-237h-60q-25 0 -42 -4t-34.5 -15.5t-28.5 -37.5t-15 -66l-7 -62h187v-190h-209l-86 -811q-11 -106 -31 -174t-59 -118t-101.5 -71.5 t-156.5 -21.5h-152v55h152q75 0 127.5 20.5t85.5 65t51 104t29 146.5l10 98l-139 625l-62 -635q-8 -71 -15 -115.5t-19.5 -80.5t-26 -53.5t-38.5 -29.5t-52.5 -15t-73.5 -3h-29v55z" />
<glyph unicode="&#x2c6;" horiz-adv-x="761" d="M72 1204l309 307l309 -307h-69l-240 234l-240 -234h-69z" />
<glyph unicode="&#x2c7;" horiz-adv-x="761" d="M72 1511h69l240 -233l240 233h69l-309 -307z" />
<glyph unicode="&#x2d8;" horiz-adv-x="653" d="M10 1475h56q0 -66 25.5 -117t66 -79t84 -42t86.5 -14q107 0 182.5 65t75.5 187h57q0 -146 -88 -226t-227 -80q-61 0 -116 17.5t-101 52.5t-73.5 95.5t-27.5 140.5z" />
<glyph unicode="&#x2d9;" horiz-adv-x="555" d="M117 1208v271h55v-271h-55zM383 1208v271h55v-271h-55z" />
<glyph unicode="&#x2da;" horiz-adv-x="634" d="M147 1341q0 71 49.5 120.5t120.5 49.5t120.5 -49.5t49.5 -120.5t-49.5 -120.5t-120.5 -49.5t-120.5 49.5t-49.5 120.5zM201 1343h233q-2 43 -38 79t-79 36q-45 0 -80.5 -36t-35.5 -79z" />
<glyph unicode="&#x2dc;" horiz-adv-x="868" d="M96 1331q0 81 50 127.5t126 46.5q41 0 75.5 -14t53 -29t48.5 -45q31 -31 59 -43t76 -12q56 0 85 34t29 87h54q0 -71 -42.5 -122.5t-129.5 -51.5q-62 0 -102 18t-75 53q-26 26 -38 37t-39 23t-58 12q-118 0 -118 -121h-54z" />
<glyph unicode="&#x2dd;" horiz-adv-x="1263" d="M92 1200l150 273h63l21 -205l235 205h84l-313 -273h-240zM594 1200l149 273h404l-313 -273h-84l-5 160l-88 -160h-63z" />
<glyph unicode="&#x3c0;" horiz-adv-x="1300" d="M18 950v56h177v-897l251 155v742h408v-66l377 234h-1213v55h1264v-279h-117v-950h-370v950h-289v-950h-371v950h-117z" />
<glyph unicode="&#x2000;" horiz-adv-x="956" />
<glyph unicode="&#x2001;" horiz-adv-x="1913" />
<glyph unicode="&#x2002;" horiz-adv-x="956" />
<glyph unicode="&#x2003;" horiz-adv-x="1913" />
<glyph unicode="&#x2004;" horiz-adv-x="637" />
<glyph unicode="&#x2005;" horiz-adv-x="478" />
<glyph unicode="&#x2006;" horiz-adv-x="318" />
<glyph unicode="&#x2007;" horiz-adv-x="318" />
<glyph unicode="&#x2008;" horiz-adv-x="239" />
<glyph unicode="&#x2009;" horiz-adv-x="382" />
<glyph unicode="&#x200a;" horiz-adv-x="106" />
<glyph unicode="&#x2010;" horiz-adv-x="796" d="M92 485v293h613v-59h-324l113 -178h211v-56h-613z" />
<glyph unicode="&#x2011;" horiz-adv-x="796" d="M92 485v293h613v-59h-324l113 -178h211v-56h-613z" />
<glyph unicode="&#x2012;" horiz-adv-x="796" d="M92 485v293h613v-59h-324l113 -178h211v-56h-613z" />
<glyph unicode="&#x2013;" horiz-adv-x="1282" d="M78 485v293h1126v-59h-516l-158 -178h674v-56h-1126z" />
<glyph unicode="&#x2014;" horiz-adv-x="1880" d="M78 485v293h1724v-59h-538l-643 -178h1181v-56h-1724z" />
<glyph unicode="&#x2018;" horiz-adv-x="595" d="M92 801v323q0 151 75.5 236.5t213.5 85.5h76v-55h-68q-233 0 -233 -275v-24h301v-54l-283 -184h283v-53h-365z" />
<glyph unicode="&#x2019;" horiz-adv-x="595" d="M139 801v55h68q233 0 233 274v25h-301v291h365v-53h-283l283 -185v-86q0 -151 -75.5 -236t-213.5 -85h-76z" />
<glyph unicode="&#x201a;" horiz-adv-x="512" d="M53 0v348h365v-53l-299 -242h299v-86q0 -150 -75 -233.5t-214 -83.5h-39v55h31q110 0 171.5 65.5t61.5 204.5v25h-301z" />
<glyph unicode="&#x201c;" horiz-adv-x="1107" d="M92 801v323q0 151 75.5 236.5t213.5 85.5h76v-55h-68q-233 0 -233 -275v-24h301v-54l-283 -184h283v-53h-365zM604 801v323q0 151 75.5 236.5t213.5 85.5h76v-55h-68q-233 0 -233 -275v-24h301v-54l-283 -184h283v-53h-365z" />
<glyph unicode="&#x201d;" horiz-adv-x="1107" d="M139 801v55h68q233 0 233 274v25h-301v291h365v-53h-283l283 -185v-86q0 -151 -75.5 -236t-213.5 -85h-76zM651 801v55h68q233 0 233 274v25h-301v291h365v-53h-283l283 -185v-86q0 -151 -75.5 -236t-213.5 -85h-76z" />
<glyph unicode="&#x201e;" horiz-adv-x="980" d="M53 0v348h365v-53l-299 -242h299v-86q0 -150 -75 -233.5t-214 -83.5h-39v55h31q110 0 171.5 65.5t61.5 204.5v25h-301zM565 0v53l299 242h-299v53h365v-381q0 -150 -75 -233.5t-214 -83.5h-39v55h31q110 0 171.5 65.5t61.5 204.5v25h-301z" />
<glyph unicode="&#x2020;" horiz-adv-x="1193" d="M80 713v293h332v446h59v-453l246 187v266h59v-446h336v-293h-336v-957h-364v957h-332z" />
<glyph unicode="&#x2021;" horiz-adv-x="1193" d="M137 102v54h334v-400h-59v346h-275zM137 342v53h275v436h-275v293h275v322h364v-322h283v-53h-316l-272 -729h-334zM717 156h340v-54h-281v-346h-59v400zM717 342v543h342v-54h-283v-436h281v-53h-340z" />
<glyph unicode="&#x2022;" horiz-adv-x="788" d="M139 463v508h510v-60l-442 -389h442v-59h-510z" />
<glyph unicode="&#x2026;" horiz-adv-x="2048" d="M106 0v348h365v-348h-55v293l-254 -293h-56zM840 0v348h364v-348h-55v293l-254 -293h-55zM1577 0v348h365v-348h-56v293l-254 -293h-55z" />
<glyph unicode="&#x202f;" horiz-adv-x="382" />
<glyph unicode="&#x2030;" horiz-adv-x="2273" d="M92 1102q0 126 88.5 214.5t214.5 88.5t214.5 -88.5t88.5 -214.5t-88.5 -214.5t-214.5 -88.5t-214.5 88.5t-88.5 214.5zM147 1102l492 -47q4 32 4 47q0 103 -72.5 175.5t-175.5 72.5t-175.5 -72.5t-72.5 -175.5zM272 0l752 1446h61l-270 -520l59 -264l408 784h61 l-751 -1446h-320zM887 291q0 126 88.5 214.5t214.5 88.5t214.5 -88.5t88.5 -214.5t-88.5 -214.5t-214.5 -88.5t-214.5 88.5t-88.5 214.5zM942 291q0 -92 58.5 -161.5t148.5 -84.5l137 473q-51 21 -96 21q-103 0 -175.5 -72.5t-72.5 -175.5zM1575 291q0 126 88.5 214.5 t214.5 88.5t214.5 -88.5t88.5 -214.5t-88.5 -214.5t-214.5 -88.5t-214.5 88.5t-88.5 214.5zM1630 291q0 -37 8 -64l486 80q-6 97 -77 164.5t-169 67.5q-103 0 -175.5 -72.5t-72.5 -175.5z" />
<glyph unicode="&#x2039;" horiz-adv-x="655" d="M139 446v310l404 215v-318l-94 -41l94 -43v-61l-137 65l-209 -94l346 -182v-61z" />
<glyph unicode="&#x203a;" horiz-adv-x="655" d="M113 236v333l94 43l-94 41v62l135 -64l184 84l-319 174v62l403 -215v-310z" />
<glyph unicode="&#x2044;" horiz-adv-x="980" d="M-61 0l751 1446h62l-240 -461l150 -156l319 617h61l-751 -1446h-352z" />
<glyph unicode="&#x205f;" horiz-adv-x="478" />
<glyph unicode="&#x20ac;" horiz-adv-x="1525" d="M-39 565l25 53h219q-4 66 -4 105v10h-164l24 53h142q20 300 215 474t493 174q286 0 471 -154l-24 -55q-105 89 -214.5 121t-232.5 32q-189 0 -338.5 -79.5t-232.5 -225.5l201 -155q45 128 149 201t254 73q228 -5 336 -141l-27 -60q-35 66 -117 106t-192 40 q-161 0 -261 -95.5t-114 -255.5h594l-24 -53h-572q0 -68 8 -115h512l-24 -53h-477q38 -148 136 -227.5t222 -79.5q66 0 121.5 23.5t91.5 61.5t58 74.5t34 74.5l19 -13q21 -11 63.5 -32t96.5 -48t79 -39l49 -24l-2 -4q-83 -175 -238.5 -276t-383.5 -101q-104 0 -200.5 23.5 t-183 72.5t-155 120t-116.5 172t-66 222h-250z" />
<glyph unicode="&#x2122;" horiz-adv-x="1865" d="M61 1153v53h162v-198l320 385h-482v53h1092l66 -246l2 -10l2 10l65 246h459v-680h-55v627h-357l-88 -318l-90 -309h-82l-74 260v-260h-313v387h-160v-387h-364v387h-103zM1298 766l129 440h62v-440h-55v260l-74 -260h-62z" />
<glyph unicode="&#x2202;" horiz-adv-x="1179" d="M59 422q0 214 126 347.5t325 133.5q135 0 240 -67v24q0 186 -56 264t-182 78q-64 0 -219 -41v56q146 40 219 40q166 0 233 -102q38 -47 293 -352q-4 315 -114 465.5t-332 150.5q-144 0 -299 -49v57q149 48 299 48q257 0 381.5 -171.5t124.5 -531.5q0 -421 -139 -611 t-427 -190q-212 0 -342.5 124t-130.5 327zM119 422q0 -84 24 -152l197 101q-4 40 -4 61q0 117 57 189l154 225q-12 2 -37 2q-174 0 -282.5 -118t-108.5 -308zM395 432q0 -92 44 -148.5t116 -56.5q171 0 174 355q-36 26 -51 35t-45.5 16.5t-75.5 7.5q-73 0 -117.5 -57.5 t-44.5 -151.5z" />
<glyph unicode="&#x220f;" horiz-adv-x="1536" d="M135 -250v1696h1264v-1696h-60v1641h-383l-147 -168h276v-1473h-59v1417h-520v-1417h-371z" />
<glyph unicode="&#x2211;" horiz-adv-x="1259" d="M53 16l488 588l-488 570v272h1159v-55h-1103v-197l229 -270l151 133l-141 166h864v-56h-743l475 -551l-493 -581h761v-285h-1159v266z" />
<glyph unicode="&#x221e;" horiz-adv-x="1482" d="M59 653q0 193 102 320t255 127q101 0 176 -49.5t153 -167.5q84 117 158.5 168t173.5 51q151 0 248.5 -120.5t97.5 -309.5q0 -198 -99 -322.5t-255 -124.5q-103 0 -178.5 46.5t-159.5 162.5q-82 -116 -152.5 -163.5t-170.5 -47.5q-157 0 -253 117t-96 313zM123 723 l139 -49q3 89 46.5 143.5t111.5 54.5q51 0 100 -43.5t109 -142.5l18 -29l-18 -30l-49 -72l266 113l12 18q61 95 110.5 137.5t102.5 42.5q59 0 99 -46.5t49 -123.5l110 166q-36 86 -102 135.5t-150 49.5q-82 0 -146 -45t-140 -150l-46 -64l-47 64q-69 104 -133 148t-149 44 q-113 0 -193.5 -89.5t-99.5 -231.5zM322 659q0 -71 25 -114t69 -43q34 0 71 35.5t91 119.5q-51 87 -87 123.5t-71 36.5q-45 0 -71.5 -43.5t-26.5 -114.5zM909 655q53 -89 87.5 -124t70.5 -35q44 0 70 43.5t26 115.5q0 70 -25 113t-67 43q-35 0 -71.5 -36t-90.5 -120z" />
<glyph unicode="&#x222b;" horiz-adv-x="774" d="M41 -55q41 -41 96 -41q47 0 60.5 29t13.5 112v1014q0 105 14.5 176.5t51 126t103.5 80.5t167 26q82 0 164 -26v-60q-95 31 -164 31q-84 0 -139.5 -22.5t-86.5 -69.5t-43 -109t-12 -153v-553l230 295v256q0 114 28.5 159.5t89.5 45.5q52 0 97 -25v-61q-43 30 -84 30 q-44 0 -60 -31.5t-16 -117.5v-981q0 -235 -72.5 -335.5t-259.5 -100.5q-81 0 -178 32v273z" />
<glyph unicode="&#x2248;" horiz-adv-x="1284" d="M139 229v72l242 291h-21q-135 0 -221 -113v72q90 96 221 96q99 0 256 -69l117 -52q110 -49 185 -49q65 0 109 30t118 120v-76q-68 -91 -156 -119l-145 -190q44 -9 74 -9q68 0 121 32t106 108v-76q-88 -119 -227 -119q-89 0 -207 53l-117 52q-149 65 -234 65 q-67 0 -118.5 -29.5t-102.5 -89.5zM139 721v321q91 97 221 97q97 0 256 -70l117 -51q110 -49 185 -49q65 0 109.5 29.5t117.5 119.5v-76q-60 -80 -137 -112l-310 -142l35 -14q110 -49 185 -49q68 0 121 31.5t106 107.5v-76q-88 -118 -227 -118q-89 0 -207 53l-117 51 q-151 66 -234 66q-67 0 -118.5 -29.5t-102.5 -89.5z" />
<glyph unicode="&#x2260;" horiz-adv-x="1353" d="M139 276v269h459l86 176h-545v55h572l75 154h-647v59h678l135 273h62l-135 -273h335v-268h-469l-86 -176h555v-60h-645l-75 -153h720v-56h-686l-143 -288h-61l143 288h-328z" />
<glyph unicode="&#x2264;" horiz-adv-x="1095" d="M139 0v268h695l-695 279v205l844 338v-62l-577 -227l90 -115v2l487 146v-62l-432 -123l432 -123v-61l-199 -117l199 -78v-61h-309l-211 -154h520v-55h-844z" />
<glyph unicode="&#x2265;" horiz-adv-x="1095" d="M113 0v55h405l-196 154h-209v317l432 123l-432 123v318l843 -338v-205l-694 -279h694v-268h-843zM313 774l287 -86v-78l-231 -69l256 -70l276 111v135l-307 121q-30 -7 -138.5 -32t-142.5 -32z" />
<glyph unicode="&#x25ca;" horiz-adv-x="1222" d="M51 725l406 721h63l-194 -346l153 -82l142 280l184 -395l287 -149l-381 692h63l397 -721l-401 -725h-317zM391 723l213 -440l225 442l-211 449z" />
<glyph unicode="&#x25fc;" horiz-adv-x="1044" d="M0 0v1044h1044v-1044h-1044z" />
</font>
</defs>
</svg>
