<?xml version="1.0" standalone="no"?>
<!DOCTYPE svg PUBLIC "-//W3C//DTD SVG 1.1//EN" "http://www.w3.org/Graphics/SVG/1.1/DTD/svg11.dtd" >
<svg xmlns="http://www.w3.org/2000/svg" xmlns:xlink="http://www.w3.org/1999/xlink" version="1.1">
<metadata></metadata>
<defs>
<font id="roclelight" horiz-adv-x="1806" >
<font-face units-per-em="2048" ascent="1536" descent="-512" />
<missing-glyph horiz-adv-x="782" />
<glyph unicode="&#xfb01;" horiz-adv-x="684" d="M78 1030v60h106v325q0 83 52.5 132.5t125.5 49.5t126 -49.5t53 -132.5v-229h-64v227q0 59 -31 92t-84 33t-83.5 -33t-30.5 -92v-323h293v-1090h-64v1030h-229v-1030h-64v1030h-106z" />
<glyph unicode="&#xfb02;" horiz-adv-x="677" d="M78 1030v60h106v325q0 83 52.5 132.5t125.5 49.5t126 -49.5t53 -132.5v-1272q0 -48 22 -78t64 -30q45 0 65 33l43 -48q-39 -45 -108 -45t-109.5 45t-40.5 121v889h-229v-1030h-64v1030h-106zM248 1090h229v323q0 59 -31 92t-84 33t-83.5 -33t-30.5 -92v-323z" />
<glyph horiz-adv-x="0" />
<glyph horiz-adv-x="682" />
<glyph unicode=" "  horiz-adv-x="782" />
<glyph unicode="&#x09;" horiz-adv-x="782" />
<glyph unicode="&#xa0;" horiz-adv-x="782" />
<glyph unicode="!" horiz-adv-x="411" d="M172 1536h68l-2 -1092h-64zM174 0v307h64v-307h-64z" />
<glyph unicode="&#x22;" horiz-adv-x="575" d="M168 1159v438h63v-438h-63zM344 1159v438h64v-438h-64z" />
<glyph unicode="#" horiz-adv-x="1243" d="M33 492l16 59h260l94 334h-258l17 59h260l139 490h62l-140 -490h406l139 490h62l-140 -490h260l-18 -59h-258l-96 -334h258l-17 -59h-258l-139 -492h-64l140 492h-404l-139 -492h-63l139 492h-258zM371 551h405l94 334h-403z" />
<glyph unicode="$" horiz-adv-x="1019" d="M66 418h69q0 -149 100.5 -257t247.5 -120v819l-112 72q-191 120 -191 297q0 129 87.5 224t215.5 106v116h64v-116q126 -14 211.5 -107t85.5 -219h-70q0 98 -65 172t-162 88v-594l151 -96q256 -162 256 -385q0 -173 -118 -300t-289 -141v-149h-64v149q-174 11 -295.5 138 t-121.5 303zM250 1229q0 -83 44.5 -140.5t123.5 -107.5l65 -43v555q-99 -10 -166 -87t-67 -177zM547 43q143 12 242.5 120t99.5 255q0 189 -240 340l-102 63v-778z" />
<glyph unicode="%" horiz-adv-x="1677" d="M139 1139q0 130 94.5 224.5t225.5 94.5t225 -94t94 -225t-94.5 -225.5t-224.5 -94.5q-131 0 -225.5 94.5t-94.5 225.5zM201 1139q0 -107 75.5 -182.5t182.5 -75.5t182.5 75.5t75.5 182.5t-75.5 182.5t-182.5 75.5t-182.5 -75.5t-75.5 -182.5zM449 0l716 1536h66 l-719 -1536h-63zM899 399q0 131 94.5 225.5t225.5 94.5q130 0 224.5 -94.5t94.5 -225.5t-94 -225t-225 -94t-225.5 94.5t-94.5 224.5zM961 399q0 -107 75.5 -182.5t182.5 -75.5t182.5 75.5t75.5 182.5t-75.5 182.5t-182.5 75.5t-182.5 -75.5t-75.5 -182.5z" />
<glyph unicode="&#x26;" horiz-adv-x="1247" d="M78 412q0 260 330 469l-84 102q-64 72 -93.5 138t-29.5 141q0 118 90.5 208.5t218.5 90.5q132 0 224.5 -85t92.5 -214q0 -37 -4 -68t-15.5 -59.5t-22.5 -49.5t-35.5 -45.5t-43 -41t-57 -43t-65 -43t-78.5 -48.5l444 -534l15 28l178 369h71l-194 -401q-10 -24 -27 -50 l232 -276h-84l-183 219q-84 -128 -185.5 -186t-233.5 -58q-190 0 -325.5 126t-135.5 311zM145 412q0 -160 115.5 -268.5t278.5 -108.5q227 0 376 235l-466 561q-50 -32 -88 -59.5t-81 -68.5t-70.5 -82t-46 -95.5t-18.5 -113.5zM266 1262q0 -70 25 -119.5t86 -122.5l88 -107 q61 36 91.5 55.5t71.5 48.5t60.5 51t39.5 53t27 65t7 76q0 96 -74.5 167.5t-177.5 71.5t-173.5 -73t-70.5 -166z" />
<glyph unicode="'" horiz-adv-x="399" d="M168 1159v438h63v-438h-63z" />
<glyph unicode="(" horiz-adv-x="552" d="M119 729q0 219 47.5 400t145 306.5t231.5 161.5v-59q-155 -48 -258 -265t-103 -544t104 -545.5t257 -263.5v-59q-134 36 -231.5 161.5t-145 306.5t-47.5 400z" />
<glyph unicode=")" horiz-adv-x="552" d="M10 -80q153 45 257 263.5t104 545.5t-103 544t-258 265v59q134 -36 231.5 -161.5t145 -306.5t47.5 -400t-47.5 -400t-145 -306.5t-231.5 -161.5v59z" />
<glyph unicode="*" horiz-adv-x="561" d="M72 1423l20 58l162 -56l-2 172h61l-2 -172l164 54l14 -56l-161 -51l102 -139l-49 -33l-98 139l-101 -141l-47 37l103 137z" />
<glyph unicode="+" horiz-adv-x="878" d="M92 700v60h314v321h63v-321h317v-60h-317v-317h-63v317h-314z" />
<glyph unicode="," horiz-adv-x="399" d="M111 -317q30 0 43.5 22.5t13.5 89.5v512h63v-500q0 -107 -31 -145.5t-89 -38.5v60z" />
<glyph unicode="-" horiz-adv-x="788" d="M92 584v59h604v-59h-604z" />
<glyph unicode="." horiz-adv-x="399" d="M168 0v307h63v-307h-63z" />
<glyph unicode="/" horiz-adv-x="884" d="M51 0l717 1536h66l-719 -1536h-64z" />
<glyph unicode="0" horiz-adv-x="1179" d="M147 418v598q0 183 130 312.5t313 129.5t312.5 -129.5t129.5 -312.5v-598q0 -183 -129.5 -313t-312.5 -130t-313 130t-130 313zM211 403q0 -154 111.5 -261t267.5 -107t267.5 107t111.5 261v627q0 154 -111.5 260.5t-267.5 106.5t-267.5 -106.5t-111.5 -260.5v-627z" />
<glyph unicode="1" horiz-adv-x="444" d="M-23 1374v60h277v-1459h-64v1399h-213z" />
<glyph unicode="2" horiz-adv-x="946" d="M78 1055q0 183 108 293t291 110q182 0 288.5 -109.5t106.5 -293.5q0 -103 -54 -215t-181 -256l-463 -525h711v-59h-797v59l498 566q132 150 175.5 239t43.5 191q0 153 -89.5 248.5t-238.5 95.5q-151 0 -242.5 -94.5t-91.5 -249.5h-65z" />
<glyph unicode="3" horiz-adv-x="995" d="M37 393h65q0 -153 113.5 -255.5t271.5 -102.5q157 0 271 107t114 261q0 83 -37.5 155t-97.5 118.5t-131.5 73t-142.5 26.5h-162v60h184q129 0 213 78.5t84 203.5q0 123 -85 202t-205 79t-205.5 -79t-85.5 -202h-66q0 145 106 242.5t251 97.5t250.5 -97.5t105.5 -242.5 q0 -122 -61 -204.5t-175 -106.5q131 -28 228.5 -146t97.5 -258q0 -119 -61.5 -218t-165 -154.5t-224.5 -55.5q-186 0 -318 119t-132 299z" />
<glyph unicode="4" horiz-adv-x="985" d="M16 358v58l682 1018h66v-1016h197v-60h-197v-358h-64v358h-684zM90 418h610v917z" />
<glyph unicode="5" horiz-adv-x="1040" d="M49 406h68q0 -156 118.5 -263.5t280.5 -107.5q159 0 279 123.5t120 283.5q0 167 -119 286.5t-280 119.5q-177 0 -299 -154l-74 27l95 713h602v-60h-543l-84 -594q50 60 137 94.5t166 34.5q125 0 232 -61t171 -169t64 -237q0 -93 -38 -179t-101 -149t-149 -101t-179 -38 q-126 0 -232.5 54.5t-170.5 154t-64 222.5z" />
<glyph unicode="6" horiz-adv-x="1153" d="M86 473q0 164 98 299l486 662h75l-380 -516q32 23 97 40t122 17q205 0 351 -147.5t146 -354.5q0 -135 -66.5 -249.5t-181 -181.5t-249.5 -67t-249.5 67t-181.5 181.5t-67 249.5zM156 473q0 -181 124.5 -309.5t303.5 -128.5q178 0 303 128.5t125 309.5q0 180 -125.5 311 t-302.5 131q-184 0 -306 -125.5t-122 -316.5z" />
<glyph unicode="7" horiz-adv-x="806" d="M-6 1374v60h844l-619 -1434h-61l590 1374h-754z" />
<glyph unicode="8" horiz-adv-x="1064" d="M80 428q0 152 89.5 270t240.5 162q-81 32 -138 110.5t-57 168.5q0 132 93 225.5t224 93.5t224.5 -93.5t93.5 -225.5q0 -89 -57.5 -169t-135.5 -110q143 -45 235.5 -164t92.5 -268q0 -92 -36 -176t-96.5 -144.5t-144.5 -96.5t-176 -36q-187 0 -319.5 132.5t-132.5 320.5z M147 428q0 -162 112.5 -277.5t272.5 -115.5q161 0 273.5 115.5t112.5 277.5t-113 279.5t-273 117.5t-272.5 -117.5t-112.5 -279.5zM281 1139q0 -105 73 -179.5t178 -74.5q104 0 178 75t74 179q0 106 -74 183t-178 77q-105 0 -178 -76.5t-73 -183.5z" />
<glyph unicode="9" horiz-adv-x="1034" d="M72 1016q0 183 129.5 312.5t312.5 129.5t312.5 -129.5t129.5 -312.5q0 -108 -114 -322l-363 -694h-71l346 649q-36 -32 -110 -54t-130 -22q-183 0 -312.5 130t-129.5 313zM137 1016q0 -155 111 -266t266 -111t266 111t111 266t-111 266t-266 111t-266 -111t-111 -266z " />
<glyph unicode=":" horiz-adv-x="399" d="M168 0v307h63v-307h-63zM168 782v308h63v-308h-63z" />
<glyph unicode=";" horiz-adv-x="399" d="M111 -317q30 0 43.5 22.5t13.5 89.5v512h63v-500q0 -107 -31 -145.5t-89 -38.5v60zM168 782v308h63v-308h-63z" />
<glyph unicode="&#x3c;" horiz-adv-x="747" d="M66 729l503 545h86l-503 -545l501 -545h-86z" />
<glyph unicode="=" horiz-adv-x="931" d="M119 502v59h694v-59h-694zM119 895v59h694v-59h-694z" />
<glyph unicode="&#x3e;" horiz-adv-x="747" d="M92 1274h86l504 -545l-502 -545h-86l502 545z" />
<glyph unicode="?" horiz-adv-x="1015" d="M66 1118q0 183 131.5 313t314.5 130t312.5 -130t129.5 -313q0 -38 -5.5 -71t-24.5 -76.5t-51 -84t-88 -89t-132 -97.5q-28 -18 -47.5 -33.5t-32 -35.5t-19 -33.5t-9.5 -43t-3.5 -48t-0.5 -62.5h-70v30v32t1.5 30t4 32.5t7.5 30t12 32t17.5 29.5t24.5 32t32.5 29t41.5 31 q87 56 144 106.5t85 96t38 82.5t10 81q0 155 -111 266t-266 111t-266 -111t-111 -266h-69zM475 0v307h64v-307h-64z" />
<glyph unicode="@" horiz-adv-x="1705" d="M113 545q0 214 106 396t288 288t396 106t396.5 -106t288.5 -288t106 -396q0 -55 -9.5 -120t-32.5 -138t-56.5 -131.5t-86 -97t-116.5 -38.5q-73 0 -119.5 44t-46.5 106v29q-52 -85 -138 -135t-190 -50q-163 0 -277 114.5t-114 277.5t114 278t277 115q103 0 189.5 -51 t138.5 -138v86q0 135 -92 224.5t-236 89.5q-182 0 -317 -164l-52 41q161 182 369 182q168 0 279.5 -106.5t111.5 -266.5v-508q0 -51 30 -79.5t77 -28.5q59 0 106 50.5t73.5 126.5t40 151.5t13.5 136.5q0 197 -97.5 364.5t-265 265t-364.5 97.5t-364.5 -97.5t-265 -265 t-97.5 -364.5t97.5 -366.5t265 -269t364.5 -99.5q151 0 303 71l25 -59q-160 -72 -328 -72q-160 0 -306.5 63.5t-252.5 170t-168.5 253.5t-62.5 308zM567 406q0 -134 98.5 -233t233.5 -99q133 0 232.5 99t99.5 233q0 135 -99 234t-233 99q-135 0 -233.5 -99t-98.5 -234z" />
<glyph unicode="A" horiz-adv-x="1306" d="M4 0l617 1536h65l617 -1536h-68l-223 555h-719l-221 -555h-68zM317 614h672l-336 840z" />
<glyph unicode="B" horiz-adv-x="1079" d="M160 0v1536h278q148 0 253.5 -105t105.5 -253q0 -95 -51.5 -179.5t-131.5 -126.5q191 -29 299.5 -146.5t108.5 -283.5q0 -183 -129.5 -312.5t-312.5 -129.5h-420zM223 59h357q155 0 265.5 113.5t110.5 269.5q0 161 -119 270t-317 109h-297v-762zM223 881h228 q121 0 201.5 87.5t80.5 209.5q0 123 -86 211t-209 88h-215v-596z" />
<glyph unicode="C" horiz-adv-x="993" d="M113 770q0 160 62.5 303t168.5 244t252 160t307 59h33v-59h-33q-148 -1 -282 -56t-232 -148t-155.5 -224.5t-57.5 -278.5q0 -197 97.5 -360.5t264.5 -257t365 -93.5h33v-59h-33q-161 0 -307 59.5t-252 161.5t-168.5 245.5t-62.5 303.5z" />
<glyph unicode="D" horiz-adv-x="1095" d="M160 0v1536h63q161 0 307 -59t252.5 -160t169 -244t62.5 -303q0 -214 -107 -391.5t-289 -278t-397 -100.5h-61zM223 59h10q195 3 359.5 97t261 256.5t96.5 357.5q0 146 -56.5 277.5t-152.5 225.5t-228.5 149t-279.5 55h-10v-1418z" />
<glyph unicode="E" horiz-adv-x="802" d="M141 440q0 140 70.5 248t189.5 154q-113 29 -186.5 124t-73.5 214q0 146 106.5 251t250.5 105h247v-59h-247q-118 0 -204.5 -86.5t-86.5 -210.5q0 -125 92 -212t221 -87h168v-60h-127q-93 0 -173.5 -47.5t-130.5 -136t-50 -197.5q0 -156 110 -268.5t265 -112.5h163v-59 h-163q-183 0 -312 128.5t-129 311.5z" />
<glyph unicode="F" horiz-adv-x="741" d="M160 0v1536h571v-59h-508v-596h496v-60h-496v-821h-63z" />
<glyph unicode="G" horiz-adv-x="1658" d="M113 770q0 214 106 396.5t288 288.5t396 106q189 0 355.5 -83.5t277.5 -226.5l-49 -39q-102 133 -255 211t-327 78q-197 0 -365 -98.5t-266 -267t-98 -365.5q0 -148 55 -283.5t149.5 -234.5t227 -158t279.5 -59q163 0 301.5 66.5t225.5 196.5t87 298v18h-483v60h547v-674 h-64v342q-47 -112 -143.5 -196t-218 -127.5t-252.5 -43.5q-160 0 -304 63.5t-247 170.5t-163 253.5t-60 307.5z" />
<glyph unicode="H" horiz-adv-x="1544" d="M160 0v1536h63v-743h1098v743h63v-1536h-63v733h-1098v-733h-63z" />
<glyph unicode="I" horiz-adv-x="382" d="M160 0v1536h63v-1536h-63z" />
<glyph unicode="J" horiz-adv-x="444" d="M-41 141v92h64v-92q0 -41 27 -71.5t75 -30.5q47 0 74.5 30.5t27.5 71.5v1395h64v-1395q0 -68 -48.5 -117t-117.5 -49t-117.5 49t-48.5 117z" />
<glyph unicode="K" horiz-adv-x="913" d="M160 0v1536h63v-711l588 711h80l-633 -756l655 -780h-79l-611 733v-733h-63z" />
<glyph unicode="L" horiz-adv-x="620" d="M160 0v1536h63v-1477h393v-59h-456z" />
<glyph unicode="M" horiz-adv-x="1814" d="M160 0v1536h63l684 -1456l684 1456h64v-1536h-64v1386l-653 -1386h-61l-654 1393v-1393h-63z" />
<glyph unicode="N" horiz-adv-x="1093" d="M154 0v1536h65l655 -1391v1391h66v-1536h-66l-655 1391v-1391h-65z" />
<glyph unicode="O" d="M109 766q0 161 63 308t170 253.5t253.5 170t307.5 63.5t308 -63.5t253.5 -170t170 -253.5t63.5 -308q0 -160 -63.5 -307t-170 -252.5t-253.5 -168.5t-308 -63q-215 0 -397.5 106t-289.5 288.5t-107 396.5zM176 766q0 -197 97.5 -365.5t265 -267t364.5 -98.5t364.5 98.5 t265 267t97.5 365.5t-97.5 366.5t-265 269t-364.5 99.5t-364.5 -99.5t-265 -269t-97.5 -366.5z" />
<glyph unicode="P" horiz-adv-x="784" d="M160 0v1536h139q183 0 312.5 -129.5t129.5 -312.5t-129.5 -313t-312.5 -130h-76v-651h-63zM223 711h76q155 0 266 113.5t111 269.5t-111 269.5t-266 113.5h-76v-766z" />
<glyph unicode="Q" d="M113 770q0 214 106 396.5t288 288.5t396 106q161 0 307.5 -63t252 -168.5t168.5 -252t63 -307.5t-61.5 -306.5t-170.5 -254.5l156 -209h-78l-125 166q-105 -91 -236.5 -141t-275.5 -50q-160 0 -306.5 63.5t-252.5 170t-168.5 253.5t-62.5 308zM176 770 q0 -197 97.5 -365.5t265 -267t364.5 -98.5q133 0 255.5 46.5t219.5 131.5l-295 397h78l262 -354q98 102 152.5 233t54.5 277q0 197 -97.5 364.5t-265 265t-364.5 97.5t-364.5 -97.5t-265 -265t-97.5 -364.5z" />
<glyph unicode="R" horiz-adv-x="831" d="M160 0v1536h246q136 0 233.5 -97.5t97.5 -234.5t-97.5 -234.5t-233.5 -97.5h-35l409 -872h-65l-410 872h-82v-872h-63zM223 932h183q112 0 191 80.5t79 191.5t-79 192t-191 81h-183v-545z" />
<glyph unicode="S" horiz-adv-x="1019" d="M66 418h71q0 -156 110 -269.5t265 -113.5t266 111t111 266q0 195 -240 346l-278 174q-191 120 -191 297q0 137 98 234.5t234 97.5q137 0 234.5 -96t97.5 -232h-72q0 108 -76 188t-184 80t-185 -81.5t-77 -190.5q0 -83 44 -139t124 -107l280 -178q95 -60 155 -133.5 t80.5 -135.5t20.5 -124q0 -183 -129.5 -310t-312.5 -127t-314.5 130t-131.5 313z" />
<glyph unicode="T" horiz-adv-x="862" d="M-10 1477v59h882v-59h-409v-1477h-64v1477h-409z" />
<glyph unicode="U" horiz-adv-x="1122" d="M119 418v1118h63v-1118q0 -156 112 -269.5t267 -113.5t267 113.5t112 269.5v1118h64v-1118q0 -183 -130 -313t-313 -130t-312.5 130t-129.5 313z" />
<glyph unicode="V" horiz-adv-x="1521" d="M10 1536h66l684 -1468l686 1468h65l-718 -1536h-64z" />
<glyph unicode="W" horiz-adv-x="1744" d="M14 1536h62l383 -1423l383 1423h61l383 -1423l383 1423h62l-414 -1536h-62l-383 1421l-383 -1421h-61z" />
<glyph unicode="X" horiz-adv-x="815" d="M37 0l338 784l-324 752h66l291 -676l290 676h66l-324 -752l338 -784h-65l-305 709l-306 -709h-65z" />
<glyph unicode="Y" horiz-adv-x="743" d="M10 1536h72l289 -758l291 758h71l-330 -838v-698h-63v698z" />
<glyph unicode="Z" horiz-adv-x="1267" d="M80 0v59l1050 1418h-1028v59h1104v-59l-1052 -1418h1026v-59h-1100z" />
<glyph unicode="[" horiz-adv-x="434" d="M170 -139v1736h172v-59h-109v-1618h109v-59h-172z" />
<glyph unicode="\" horiz-adv-x="884" d="M51 1536h66l717 -1536h-64z" />
<glyph unicode="]" horiz-adv-x="434" d="M92 -80h109v1618h-109v59h172v-1736h-172v59z" />
<glyph unicode="^" horiz-adv-x="786" d="M174 1090l219 507l219 -507h-65l-154 368l-153 -368h-66z" />
<glyph unicode="_" horiz-adv-x="856" d="M-10 -137h876v-60h-876v60z" />
<glyph unicode="`" horiz-adv-x="544" d="M182 1952h66l114 -287h-67z" />
<glyph unicode="a" horiz-adv-x="1069" d="M98 387q0 171 122 291.5t296 120.5q128 0 222.5 -59t138.5 -158v159q0 136 -96.5 225t-254.5 89q-105 0 -177 -38.5t-134 -107.5l-51 41q144 164 362 164q183 0 298.5 -104.5t115.5 -268.5v-743h-63v195q-53 -102 -151.5 -160t-209.5 -58q-174 0 -296 120.5t-122 291.5z M170 387q0 -148 98.5 -250t247.5 -102q152 0 257.5 104t105.5 252q0 144 -108 246t-255 102q-149 0 -247.5 -102t-98.5 -250z" />
<glyph unicode="b" horiz-adv-x="1341" d="M139 0v1597h64v-798q73 140 207.5 227.5t294.5 87.5q154 0 284 -77t205.5 -208.5t75.5 -285.5t-75.5 -285t-205.5 -207t-284 -76q-160 0 -294.5 86.5t-207.5 225.5v-287h-64zM199 543q0 -136 68.5 -253t185 -186t252.5 -69q135 0 250.5 69t182 186t66.5 253t-66.5 254 t-182 188t-250.5 70t-252 -70t-185.5 -188t-68.5 -254z" />
<glyph unicode="c" horiz-adv-x="677" d="M72 543q0 152 70 277t195 197.5t279 72.5h33v-62l-33 2q-14 1 -28 1q-115 0 -214 -59q-111 -66 -173 -180.5t-62 -248.5q0 -100 37 -191.5t100 -158t152 -103.5q77 -32 161 -32q14 0 27 1l33 2v-61h-33q-154 0 -279 71.5t-195 195.5t-70 276z" />
<glyph unicode="d" horiz-adv-x="1341" d="M72 543q0 154 75.5 285.5t205.5 208.5t284 77q159 0 294 -88t208 -227v798h63v-1597h-63v287q-72 -139 -207.5 -225.5t-294.5 -86.5q-154 0 -284 76t-205.5 207t-75.5 285zM137 543q0 -136 67 -253t182.5 -186t250.5 -69q136 0 252.5 69t185 186t68.5 253t-68.5 254 t-185.5 188t-252 70t-250.5 -70t-182.5 -188t-67 -254z" />
<glyph unicode="e" horiz-adv-x="1226" d="M72 543q0 154 75.5 285.5t205.5 208.5t284 77q82 0 157.5 -17.5t141 -55t114 -90.5t76.5 -128t29 -164h-1005q-13 -63 -13 -116q0 -136 67 -253t182.5 -186t250.5 -69q160 0 287 90.5t180 236.5l57 -30q-64 -159 -206 -258t-318 -99q-154 0 -284 76t-205.5 207t-75.5 285 zM166 719h921q-15 150 -140.5 243t-309.5 93q-159 0 -288.5 -94.5t-182.5 -241.5z" />
<glyph unicode="f" horiz-adv-x="430" d="M78 1030v60h106v325q0 84 46.5 133t117.5 49q63 0 108 -37t52 -102l-59 -22q-12 102 -101 102q-100 0 -100 -125v-323h192v-60h-192v-1030h-64v1030h-106z" />
<glyph unicode="g" horiz-adv-x="1155" d="M72 543q0 154 75.5 285.5t205.5 208.5t284 77q100 0 187 -38t128 -89v103h64v-1074q0 -198 -128.5 -330t-320.5 -132q-125 0 -231.5 53t-177.5 160l57 45q53 -96 147 -147.5t207 -51.5q167 0 275 111t108 276v92q-123 -117 -315 -117q-154 0 -284 76t-205.5 207 t-75.5 285zM143 543q0 -136 65.5 -253t179.5 -186t249 -69q194 0 315 131v739q-110 150 -315 150q-135 0 -249 -70t-179.5 -188t-65.5 -254z" />
<glyph unicode="h" horiz-adv-x="907" d="M119 0v1597h63v-645q40 73 119 117.5t176 44.5q142 0 243 -101.5t101 -244.5v-768h-63v768q0 122 -80 204.5t-201 82.5q-120 0 -205.5 -80.5t-89.5 -202.5v-772h-63z" />
<glyph unicode="i" horiz-adv-x="348" d="M121 1346q0 23 15 38t38 15t38 -15t15 -38t-15 -38.5t-38 -15.5t-38 15.5t-15 38.5zM141 0v1090h64v-1090h-64z" />
<glyph unicode="j" horiz-adv-x="348" d="M-51 -401q13 -18 43.5 -31.5t64.5 -13.5q67 0 108.5 49.5t41.5 122.5v1364h-64v-1369q0 -48 -22 -78t-64 -30t-63 35zM123 1346q0 23 15 38t38 15t38 -15t15 -38t-15 -38.5t-38 -15.5t-38 15.5t-15 38.5z" />
<glyph unicode="k" horiz-adv-x="854" d="M139 0v1597h64v-976l549 469h98l-645 -545l645 -545h-98l-549 469v-469h-64z" />
<glyph unicode="l" horiz-adv-x="325" d="M125 141v1456h63v-1454q0 -108 74 -108q43 0 64 35l43 -47q-51 -48 -107 -48q-63 0 -100 45t-37 121z" />
<glyph unicode="m" horiz-adv-x="1619" d="M139 0v768q0 158 104 252t253 94q106 0 194 -64t121 -159q38 94 130 158.5t198 64.5q142 0 242 -101.5t100 -244.5v-768h-64v768q0 122 -78.5 204.5t-199.5 82.5t-210 -93.5t-89 -216.5v-745h-60v745q0 124 -82.5 217t-201.5 93q-122 0 -207.5 -83.5t-85.5 -205.5v-766 h-64z" />
<glyph unicode="n" horiz-adv-x="854" d="M139 0v1090h64v-146q20 64 91.5 117t158.5 53q114 0 188 -70.5t74 -199.5v-844h-64v844q0 98 -55 154.5t-152 56.5q-94 0 -167.5 -82t-73.5 -180v-793h-64z" />
<glyph unicode="o" horiz-adv-x="1273" d="M72 543q0 154 75.5 285.5t205.5 208.5t284 77t284 -77t205.5 -208.5t75.5 -285.5t-75.5 -285t-205.5 -207t-284 -76t-284 76t-205.5 207t-75.5 285zM141 543q0 -136 66 -253t180.5 -186t249.5 -69t249.5 69t180.5 186t66 253t-66 254t-180.5 188t-249.5 70t-249.5 -70 t-180.5 -188t-66 -254z" />
<glyph unicode="p" horiz-adv-x="1341" d="M139 -446v1536h64v-302q65 138 204 232t298 94q154 0 284 -77t205.5 -208.5t75.5 -285.5t-75.5 -285t-205.5 -207t-284 -76q-161 0 -299.5 90.5t-202.5 231.5v-743h-64zM199 543q0 -136 68.5 -253t185 -186t252.5 -69q135 0 249.5 69t180 186t65.5 253t-65.5 254 t-180 188t-249.5 70t-252 -70t-185.5 -188t-68.5 -254z" />
<glyph unicode="q" horiz-adv-x="968" d="M72 547q0 154 74 278.5t202 194.5t283 70h198v-1536h-63v446h-135q-155 0 -283 71t-202 196.5t-74 279.5zM137 547q0 -206 143 -347t351 -141h135v971h-135q-208 0 -351 -138.5t-143 -344.5z" />
<glyph unicode="r" horiz-adv-x="438" d="M139 0v1090h64v-203q34 102 116.5 164.5t186.5 62.5v-59q-74 0 -144 -50.5t-114.5 -137t-44.5 -183.5v-684h-64z" />
<glyph unicode="s" horiz-adv-x="614" d="M43 238h68q0 -83 55 -143t141 -60q88 0 141.5 56t53.5 142q0 58 -24.5 102.5t-82.5 96.5l-250 221q-94 88 -94 209q0 107 74 179.5t180 72.5t180 -74.5t74 -181.5h-67q0 81 -52 139t-135 58q-84 0 -135 -56t-51 -137q0 -93 69 -162l250 -221q70 -63 100.5 -118.5 t30.5 -127.5q0 -110 -76.5 -184t-185.5 -74q-110 0 -187 74.5t-77 188.5z" />
<glyph unicode="t" horiz-adv-x="364" d="M39 1030v60h100v303h64v-303h172v-60h-172v-887q0 -108 76 -108q41 0 59 41l43 -47q-34 -54 -102 -54t-104 44t-36 122v889h-100z" />
<glyph unicode="u" horiz-adv-x="970" d="M115 322v768h63v-766q0 -123 80 -206t201 -83q126 0 217.5 87t91.5 208v760h63v-1090h-63v162q-40 -85 -128.5 -136t-180.5 -51q-147 0 -245.5 93.5t-98.5 253.5z" />
<glyph unicode="v" horiz-adv-x="669" d="M6 1090h66l264 -977l262 977h66l-297 -1090h-62z" />
<glyph unicode="w" horiz-adv-x="2121" d="M10 1090h72l469 -1016l475 1016h70l473 -1016l471 1016h71l-509 -1090h-64l-477 1016l-477 -1016h-64z" />
<glyph unicode="x" horiz-adv-x="1196" d="M10 0l545 557l-520 533h86l477 -490l477 490h86l-520 -533l545 -557h-86l-502 512l-502 -512h-86z" />
<glyph unicode="y" horiz-adv-x="657" d="M2 1090h70l264 -975l262 975h70l-422 -1536h-62l121 446z" />
<glyph unicode="z" horiz-adv-x="528" d="M31 1030v60h473v-58l-398 -973h396v-59h-463v57l393 973h-401z" />
<glyph unicode="{" horiz-adv-x="497" d="M35 729l135 107v602q0 76 39.5 117.5t109.5 41.5h87v-59h-87q-43 0 -64.5 -27.5t-21.5 -74.5v-637l-100 -70l100 -70v-636q0 -48 21.5 -75.5t64.5 -27.5h87v-59h-87q-70 0 -109.5 41.5t-39.5 117.5v603z" />
<glyph unicode="|" horiz-adv-x="403" d="M170 -139v1736h63v-1736h-63z" />
<glyph unicode="}" horiz-adv-x="497" d="M92 -80h86q43 0 64.5 27.5t21.5 75.5v636l101 70l-101 70v637q0 47 -21.5 74.5t-64.5 27.5h-86v59h86q70 0 110 -41.5t40 -117.5v-602l135 -107l-135 -106v-603q0 -76 -40 -117.5t-110 -41.5h-86v59z" />
<glyph unicode="~" horiz-adv-x="1173" d="M92 580q61 71 119.5 111t132.5 40q51 0 96 -16.5t75.5 -41.5t63.5 -54.5t61 -54.5t66.5 -41.5t81.5 -16.5q82 0 149.5 58t96.5 132l47 -47q-45 -86 -122 -146.5t-171 -60.5q-61 0 -112.5 23.5t-88 56.5t-71 66t-78.5 56.5t-94 23.5q-32 0 -60.5 -11t-57.5 -36t-43 -40 t-44 -49z" />
<glyph unicode="&#xa1;" horiz-adv-x="411" d="M172 -446l2 1091h64l2 -1091h-68zM174 782v308h64v-308h-64z" />
<glyph unicode="&#xa2;" horiz-adv-x="956" d="M72 543q0 154 69.5 278.5t194 196t278.5 72.5v137h64v-137h250v-62l-250 2v-971l250 2v-61h-250v-139h-64v139q-154 0 -278 70t-194 194.5t-70 278.5zM141 543q0 -100 36.5 -191.5t98.5 -158t150.5 -103.5t187.5 -31v971q-131 7 -241 -59.5t-171 -180.5t-61 -247z" />
<glyph unicode="&#xa3;" horiz-adv-x="854" d="M45 838v59h115v324q0 148 90.5 244t232.5 96t234 -96t92 -244h-66q0 126 -71.5 203t-188.5 77t-188.5 -77t-71.5 -203v-324h258v-59h-258v-684q4 0 14 1t15 1q45 0 100.5 -19t99 -41.5t95 -41.5t90.5 -19q40 0 70.5 24t37.5 68h72q-3 -24 -15 -49t-33 -49t-57 -39 t-81 -15q-49 0 -102.5 18.5t-93 40t-90 40t-93.5 18.5q-49 0 -80 -20.5t-76 -71.5l-45 45q55 65 109 88v705h-115z" />
<glyph unicode="&#xa4;" horiz-adv-x="1275" d="M94 229l203 203q-113 126 -113 299q0 169 107 295l-197 199l41 41l197 -199q127 121 305 121t305 -121l199 199l41 -41l-199 -199q107 -130 107 -295q0 -170 -113 -299l205 -203l-41 -41l-205 203q-128 -112 -299 -112q-175 0 -299 112l-203 -203zM252 731 q0 -162 112.5 -277.5t272.5 -115.5t272.5 115.5t112.5 277.5t-112.5 279.5t-272.5 117.5t-272.5 -117.5t-112.5 -279.5z" />
<glyph unicode="&#xa5;" horiz-adv-x="976" d="M-10 1536h73l426 -786l424 786h74l-467 -838h318v-59h-318v-170h318v-59h-318v-410h-63v410h-314v59h314v170h-314v59h314z" />
<glyph unicode="&#xa6;" horiz-adv-x="399" d="M168 0v641h63v-641h-63zM168 895v641h63v-641h-63z" />
<glyph unicode="&#xa7;" horiz-adv-x="1140" d="M104 -199l58 45q53 -96 147 -147t207 -51q167 0 275 111t108 276v92q-141 -127 -315 -127q-165 0 -285.5 124t-120.5 296v678q0 198 128.5 330.5t320.5 132.5q125 0 231.5 -53t177.5 -160l-57 -45q-53 96 -147 147t-207 51q-167 0 -275 -111t-108 -276v-92 q123 117 315 117q165 0 285.5 -124t120.5 -296v-668q0 -198 -128.5 -330.5t-320.5 -132.5q-125 0 -232 53t-178 160zM242 408q0 -136 103 -242.5t239 -106.5q188 0 315 150v522q0 136 -103 242t-239 106q-194 0 -315 -131v-540z" />
<glyph unicode="&#xa8;" horiz-adv-x="692" d="M158 1808q0 23 15 38.5t38 15.5t38 -15.5t15 -38.5t-15 -38t-38 -15t-38 15t-15 38zM428 1808q0 23 15 38.5t38 15.5t38.5 -15.5t15.5 -38.5t-15.5 -38t-38.5 -15t-38 15t-15 38z" />
<glyph unicode="&#xa9;" horiz-adv-x="1286" d="M78 737q0 154 75.5 286t205.5 209t284 77t284 -77t205.5 -209t75.5 -286t-75.5 -284.5t-205.5 -206.5t-284 -76t-284 76t-205.5 206.5t-75.5 284.5zM147 737q0 -136 66 -253t180.5 -186t249.5 -69t249.5 69t180.5 186t66 253t-66 254t-180.5 188t-249.5 70t-249.5 -70 t-180.5 -188t-66 -254zM293 737q0 -152 107 -260t259 -108q156 0 265 112q-43 43 -43 45q-91 -98 -222 -98q-127 0 -215 91t-88 218q0 129 88.5 221.5t214.5 92.5q130 0 222 -99q43 43 43 45q-110 113 -265 113q-152 0 -259 -109.5t-107 -263.5z" />
<glyph unicode="&#xab;" horiz-adv-x="671" d="M150 545q0 62 43 108l129 142h86l-150 -162q-37 -43 -37 -88q0 -43 37 -86l150 -164h-86l-132 141q-40 43 -40 109zM322 545q0 62 43 108l129 142h86l-150 -162q-37 -43 -37 -88q0 -43 37 -86l150 -164h-86l-132 141q-40 43 -40 109z" />
<glyph unicode="&#xac;" horiz-adv-x="1105" d="M10 1030v60h957v-578h-64v518h-893z" />
<glyph unicode="&#xad;" horiz-adv-x="788" d="M92 584v59h604v-59h-604z" />
<glyph unicode="&#xae;" horiz-adv-x="1286" d="M78 737q0 154 75.5 286t205.5 209t284 77t284 -77t205.5 -209t75.5 -286t-75.5 -284.5t-205.5 -206.5t-284 -76t-284 76t-205.5 206.5t-75.5 284.5zM147 737q0 -136 66 -253t180.5 -186t249.5 -69t249.5 69t180.5 186t66 253t-66 254t-180.5 188t-249.5 70t-249.5 -70 t-180.5 -188t-66 -254zM463 328h63v377h52l249 -377h78l-250 377h23q97 0 165 68t68 163t-68 163t-165 68h-215v-839zM526 764v344h125q81 0 136 -48.5t55 -123.5t-55 -123.5t-136 -48.5h-125z" />
<glyph unicode="&#xb0;" horiz-adv-x="868" d="M168 1294q0 109 78.5 188t187.5 79t187.5 -79t78.5 -188t-78.5 -187.5t-187.5 -78.5t-187.5 78.5t-78.5 187.5zM227 1294q0 -86 60.5 -146.5t146.5 -60.5t146.5 60.5t60.5 146.5t-60.5 146.5t-146.5 60.5t-146.5 -60.5t-60.5 -146.5z" />
<glyph unicode="&#xb1;" horiz-adv-x="878" d="M92 117v59h694v-59h-694zM92 700v60h314v321h63v-321h317v-60h-317v-317h-63v317h-314z" />
<glyph unicode="&#xb2;" horiz-adv-x="729" d="M170 1360q0 90 52 145.5t134 55.5q92 0 145.5 -50.5t53.5 -136.5q0 -124 -119 -231l-182 -189h307v-59h-387v59l227 238q88 83 88 182q0 58 -37 92.5t-96 34.5q-56 0 -86 -37.5t-30 -103.5h-70z" />
<glyph unicode="&#xb3;" horiz-adv-x="747" d="M168 1087h70q0 -62 40 -102.5t93 -40.5q63 0 102 34t39 105q0 75 -48.5 114.5t-115.5 39.5h-76v49h82q55 0 84 35.5t29 83.5q0 51 -32.5 75.5t-76.5 24.5q-41 0 -70.5 -31t-29.5 -81h-65q0 79 48.5 123.5t120.5 44.5q70 0 118 -39.5t48 -116.5q0 -42 -21 -79.5t-58 -57.5 q65 -20 97 -72t32 -113q0 -93 -59.5 -145.5t-143.5 -52.5q-88 0 -147.5 54t-59.5 148z" />
<glyph unicode="&#xb4;" horiz-adv-x="544" d="M182 1665l115 287h65l-112 -287h-68z" />
<glyph unicode="&#xb5;" horiz-adv-x="970" d="M115 -446v1536h63v-760q0 -127 82.5 -211t204.5 -84q126 0 214.5 86.5t88.5 208.5v760h63v-1090h-63v162q-40 -85 -126 -136t-177 -51q-52 0 -106.5 17t-105.5 57t-75 96v-591h-63z" />
<glyph unicode="&#xb6;" horiz-adv-x="1196" d="M72 745q0 142 101.5 243.5t244.5 101.5h295q142 0 243 -102t101 -245v-1189h-64v1189q0 122 -79.5 204.5t-200.5 82.5h-295v-1476h-64v854q-121 22 -201.5 116.5t-80.5 220.5z" />
<glyph unicode="&#xb8;" horiz-adv-x="724" d="M168 -330h68q0 -60 34.5 -98.5t89.5 -38.5q58 0 93.5 39.5t35.5 101.5q0 63 -44 101.5t-107 38.5h-76v221h64v-160q64 0 112 -20.5t72.5 -53t35.5 -64.5t11 -63q0 -84 -56.5 -142t-135.5 -58q-87 0 -142 50.5t-55 145.5z" />
<glyph unicode="&#xb9;" horiz-adv-x="516" d="M139 1477v59h176v-666h-63v607h-113z" />
<glyph unicode="&#xba;" horiz-adv-x="843" d="M92 1225q0 137 97 236.5t233 99.5t233 -99.5t97 -236.5t-97 -233.5t-233 -96.5t-233 96.5t-97 233.5zM158 1225q0 -111 76.5 -191t187.5 -80q110 0 187 80t77 191q0 113 -77 194.5t-187 81.5q-111 0 -187.5 -81t-76.5 -195z" />
<glyph unicode="&#xbb;" horiz-adv-x="671" d="M92 295l150 164q37 43 37 86q0 45 -37 88l-150 162h86l129 -142q43 -46 43 -108q0 -65 -41 -109l-131 -141h-86zM264 295l150 164q37 43 37 86q0 45 -37 88l-150 162h86l129 -142q43 -46 43 -108q0 -65 -41 -109l-131 -141h-86z" />
<glyph unicode="&#xbc;" horiz-adv-x="1380" d="M139 1477h113v-607h63v666h-176v-59zM303 0l717 1536h65l-718 -1536h-64zM846 123h332v-123h59v123h92v57h-92v486h-63l-328 -486v-57zM913 180l265 395v-395h-265z" />
<glyph unicode="&#xbd;" horiz-adv-x="1406" d="M139 1477h113v-607h63v666h-176v-59zM303 0l717 1536h65l-718 -1536h-64zM915 465q0 90 52.5 145.5t134.5 55.5q92 0 145 -50.5t53 -136.5q0 -125 -118 -231l-183 -189h308v-59h-387v59l227 238q88 83 88 182q0 58 -37 92.5t-96 34.5q-56 0 -86.5 -37.5t-30.5 -103.5h-70 z" />
<glyph unicode="&#xbe;" horiz-adv-x="1466" d="M168 1087h70q0 -62 40 -102.5t93 -40.5q63 0 102 34t39 105q0 75 -48.5 114.5t-115.5 39.5h-76v49h82q55 0 84 35.5t29 83.5q0 51 -32.5 75.5t-76.5 24.5q-41 0 -70.5 -31t-29.5 -81h-65q0 79 48.5 123.5t120.5 44.5q70 0 118 -39.5t48 -116.5q0 -42 -21 -79.5t-58 -57.5 q65 -20 97 -72t32 -113q0 -93 -59.5 -145.5t-143.5 -52.5q-88 0 -147.5 54t-59.5 148zM389 0l717 1536h65l-718 -1536h-64zM932 123h332v-123h59v123h92v57h-92v486h-63l-328 -486v-57zM999 180l265 395v-395h-265z" />
<glyph unicode="&#xbf;" horiz-adv-x="1015" d="M61 -29q0 38 5.5 71t24.5 76.5t51 84t88 89t132 97.5q28 18 47.5 33.5t32 35.5t19.5 34t10 42.5t3.5 48t0.5 62.5h70q0 -96 -7 -130q-21 -103 -135 -177q-87 -56 -144 -106.5t-84.5 -96t-37.5 -83t-10 -81.5q0 -155 111 -266t266 -111t266 111t111 266h69 q0 -183 -131.5 -312.5t-314.5 -129.5t-313 129.5t-130 312.5zM477 782v308h64v-308h-64z" />
<glyph unicode="&#xc0;" horiz-adv-x="1306" d="M4 0l617 1536h65l617 -1536h-68l-223 555h-719l-221 -555h-68zM317 614h672l-336 840zM483 1952h66l115 -287h-68z" />
<glyph unicode="&#xc1;" horiz-adv-x="1306" d="M4 0l617 1536h65l617 -1536h-68l-223 555h-719l-221 -555h-68zM317 614h672l-336 840zM653 1665l115 287h66l-113 -287h-68z" />
<glyph unicode="&#xc2;" horiz-adv-x="1306" d="M4 0h68l221 555h719l223 -555h68l-617 1536h-65zM317 614l336 840l336 -840h-672zM410 1677l211 262h65l211 -262h-76l-168 215l-168 -215h-75z" />
<glyph unicode="&#xc3;" horiz-adv-x="1306" d="M4 0h68l221 555h719l223 -555h68l-617 1536h-65zM317 614l336 840l336 -840h-672zM403 1790q53 96 150 96q33 0 62 -14t46.5 -31t43.5 -31t53 -14q33 0 55 20t43 60l47 -47q-25 -42 -59.5 -69t-93.5 -27q-31 0 -60 13.5t-47.5 30.5t-44.5 30.5t-53 13.5q-58 0 -94 -78z " />
<glyph unicode="&#xc4;" horiz-adv-x="1306" d="M4 0h68l221 555h719l223 -555h68l-617 1536h-65zM317 614l336 840l336 -840h-672zM465 1808q0 23 15 38.5t38 15.5t38 -15.5t15 -38.5t-15 -38t-38 -15t-38 15t-15 38zM735 1808q0 23 15 38.5t38 15.5t38.5 -15.5t15.5 -38.5t-15.5 -38t-38.5 -15t-38 15t-15 38z" />
<glyph unicode="&#xc5;" horiz-adv-x="1306" d="M4 0h68l221 555h719l223 -555h68l-617 1536h-65zM317 614l336 840l336 -840h-672zM492 1808q0 66 47 113t114 47t114.5 -47t47.5 -113q0 -67 -47 -113t-115 -46t-114.5 46t-46.5 113zM559 1808q0 -42 27 -70t67 -28t67.5 28t27.5 70q0 40 -28 69.5t-67 29.5t-66.5 -29.5 t-27.5 -69.5z" />
<glyph unicode="&#xc6;" horiz-adv-x="1646" d="M-6 0l1053 1378q51 72 129 115t165 43h248v-59h-248q-118 0 -204 -86t-86 -211t92 -212t221 -87h168v-60h-127q-93 0 -173.5 -47.5t-130.5 -136t-50 -197.5q0 -156 109.5 -268.5t264.5 -112.5h164v-59h-164q-183 0 -311.5 128.5t-128.5 311.5q0 60 12 115h-501l-422 -555 h-80zM541 614h477q31 79 89.5 138.5t137.5 89.5q-112 29 -186 121t-74 200q0 17 6 41z" />
<glyph unicode="&#xc7;" horiz-adv-x="993" d="M113 770q0 160 62.5 303t168.5 244t252 160t307 59h33v-59h-33q-148 -1 -282 -56t-232 -148t-155.5 -224.5t-57.5 -278.5q0 -197 97.5 -360.5t264.5 -257t365 -93.5h33v-184q64 0 112 -20.5t72.5 -53t35.5 -64.5t11 -63q0 -84 -56.5 -142t-135.5 -58q-87 0 -142 50.5 t-55 145.5h68q0 -60 35 -98.5t90 -38.5q58 0 93.5 39.5t35.5 101.5q0 63 -44 101.5t-108 38.5h-76v186q-156 6 -296 67.5t-242 163t-161.5 242t-59.5 297.5z" />
<glyph unicode="&#xc8;" horiz-adv-x="802" d="M141 440q0 140 70.5 248t189.5 154q-113 29 -186.5 124t-73.5 214q0 146 106.5 251t250.5 105h247v-59h-247q-118 0 -204.5 -86.5t-86.5 -210.5q0 -125 92 -212t221 -87h168v-60h-127q-93 0 -173.5 -47.5t-130.5 -136t-50 -197.5q0 -156 110 -268.5t265 -112.5h163v-59 h-163q-183 0 -312 128.5t-129 311.5zM410 1952h65l115 -287h-68z" />
<glyph unicode="&#xc9;" horiz-adv-x="802" d="M141 440q0 140 70.5 248t189.5 154q-113 29 -186.5 124t-73.5 214q0 146 106.5 251t250.5 105h247v-59h-247q-118 0 -204.5 -86.5t-86.5 -210.5q0 -125 92 -212t221 -87h168v-60h-127q-93 0 -173.5 -47.5t-130.5 -136t-50 -197.5q0 -156 110 -268.5t265 -112.5h163v-59 h-163q-183 0 -312 128.5t-129 311.5zM412 1665l114 287h66l-113 -287h-67z" />
<glyph unicode="&#xca;" horiz-adv-x="802" d="M141 440q0 -183 129 -311.5t312 -128.5h163v59h-163q-155 0 -265 112.5t-110 268.5q0 109 50 197.5t130.5 136t173.5 47.5h127v60h-168q-129 0 -221 87t-92 212q0 124 86.5 210.5t204.5 86.5h247v59h-247q-144 0 -250.5 -105t-106.5 -251q0 -119 73.5 -214t186.5 -124 q-119 -46 -189.5 -154t-70.5 -248zM256 1677l211 262h65l211 -262h-75l-168 215l-168 -215h-76z" />
<glyph unicode="&#xcb;" horiz-adv-x="802" d="M141 440q0 -183 129 -311.5t312 -128.5h163v59h-163q-155 0 -265 112.5t-110 268.5q0 109 50 197.5t130.5 136t173.5 47.5h127v60h-168q-129 0 -221 87t-92 212q0 124 86.5 210.5t204.5 86.5h247v59h-247q-144 0 -250.5 -105t-106.5 -251q0 -119 73.5 -214t186.5 -124 q-119 -46 -189.5 -154t-70.5 -248zM311 1808q0 23 15.5 38.5t38.5 15.5t38 -15.5t15 -38.5t-15 -38t-38 -15t-38.5 15t-15.5 38zM582 1808q0 23 15 38.5t38 15.5t38 -15.5t15 -38.5t-15 -38t-38 -15t-38 15t-15 38z" />
<glyph unicode="&#xcc;" horiz-adv-x="382" d="M47 1952h66l114 -287h-67zM160 0v1536h63v-1536h-63z" />
<glyph unicode="&#xcd;" horiz-adv-x="382" d="M160 0v1536h63v-1536h-63zM164 1665l115 287h65l-113 -287h-67z" />
<glyph unicode="&#xce;" horiz-adv-x="382" d="M-49 1677l211 262h65l211 -262h-76l-167 215l-168 -215h-76zM160 0h63v1536h-63v-1536z" />
<glyph unicode="&#xcf;" horiz-adv-x="382" d="M2 1808q0 23 15 38.5t38 15.5t38.5 -15.5t15.5 -38.5t-15.5 -38t-38.5 -15t-38 15t-15 38zM160 0h63v1536h-63v-1536zM272 1808q0 23 15.5 38.5t38.5 15.5t38 -15.5t15 -38.5t-15 -38t-38 -15t-38.5 15t-15.5 38z" />
<glyph unicode="&#xd0;" horiz-adv-x="1126" d="M35 729v59h125v748h67q215 0 395.5 -99.5t286 -276t105.5 -390.5t-106 -391.5t-287 -278t-396 -100.5h-65v729h-125zM223 59h10q195 3 359.5 97t261 256.5t96.5 357.5q0 146 -56.5 277.5t-152.5 225.5t-228.5 149t-279.5 55h-10v-689h277v-59h-277v-670z" />
<glyph unicode="&#xd1;" horiz-adv-x="1093" d="M154 0v1536h65l655 -1391v1391h66v-1536h-66l-655 1391v-1391h-65zM297 1788q53 96 149 96q33 0 62 -14t46.5 -31t43.5 -31t53 -14q33 0 56 20t43 60l47 -47q-56 -96 -154 -96q-31 0 -60 13.5t-47.5 30.5t-44.5 30.5t-53 13.5q-58 0 -94 -78z" />
<glyph unicode="&#xd2;" d="M109 766q0 161 63 308t170 253.5t253.5 170t307.5 63.5t308 -63.5t253.5 -170t170 -253.5t63.5 -308q0 -160 -63.5 -307t-170 -252.5t-253.5 -168.5t-308 -63q-215 0 -397.5 106t-289.5 288.5t-107 396.5zM176 766q0 -197 97.5 -365.5t265 -267t364.5 -98.5t364.5 98.5 t265 267t97.5 365.5t-97.5 366.5t-265 269t-364.5 99.5t-364.5 -99.5t-265 -269t-97.5 -366.5zM760 1952h65l115 -287h-68z" />
<glyph unicode="&#xd3;" d="M109 766q0 161 63 308t170 253.5t253.5 170t307.5 63.5t308 -63.5t253.5 -170t170 -253.5t63.5 -308q0 -160 -63.5 -307t-170 -252.5t-253.5 -168.5t-308 -63q-215 0 -397.5 106t-289.5 288.5t-107 396.5zM176 766q0 -197 97.5 -365.5t265 -267t364.5 -98.5t364.5 98.5 t265 267t97.5 365.5t-97.5 366.5t-265 269t-364.5 99.5t-364.5 -99.5t-265 -269t-97.5 -366.5zM868 1665l115 287h66l-113 -287h-68z" />
<glyph unicode="&#xd4;" d="M109 766q0 161 63 308t170 253.5t253.5 170t307.5 63.5t308 -63.5t253.5 -170t170 -253.5t63.5 -308q0 -160 -63.5 -307t-170 -252.5t-253.5 -168.5t-308 -63q-215 0 -397.5 106t-289.5 288.5t-107 396.5zM176 766q0 -197 97.5 -365.5t265 -267t364.5 -98.5t364.5 98.5 t265 267t97.5 365.5t-97.5 366.5t-265 269t-364.5 99.5t-364.5 -99.5t-265 -269t-97.5 -366.5zM659 1677l211 262h66l211 -262h-76l-168 215l-168 -215h-76z" />
<glyph unicode="&#xd5;" d="M109 766q0 161 63 308t170 253.5t253.5 170t307.5 63.5t308 -63.5t253.5 -170t170 -253.5t63.5 -308q0 -160 -63.5 -307t-170 -252.5t-253.5 -168.5t-308 -63q-215 0 -397.5 106t-289.5 288.5t-107 396.5zM176 766q0 -197 97.5 -365.5t265 -267t364.5 -98.5t364.5 98.5 t265 267t97.5 365.5t-97.5 366.5t-265 269t-364.5 99.5t-364.5 -99.5t-265 -269t-97.5 -366.5zM653 1788q53 96 150 96q33 0 62 -14t46.5 -31t43.5 -31t53 -14q33 0 55 20t43 60l47 -47q-56 -96 -154 -96q-40 0 -74 22t-65.5 44t-64.5 22q-59 0 -95 -78z" />
<glyph unicode="&#xd6;" d="M109 766q0 161 63 308t170 253.5t253.5 170t307.5 63.5t308 -63.5t253.5 -170t170 -253.5t63.5 -308q0 -160 -63.5 -307t-170 -252.5t-253.5 -168.5t-308 -63q-215 0 -397.5 106t-289.5 288.5t-107 396.5zM176 766q0 -197 97.5 -365.5t265 -267t364.5 -98.5t364.5 98.5 t265 267t97.5 365.5t-97.5 366.5t-265 269t-364.5 99.5t-364.5 -99.5t-265 -269t-97.5 -366.5zM715 1808q0 23 15 38.5t38 15.5t38 -15.5t15 -38.5t-15 -38t-38 -15t-38 15t-15 38zM985 1808q0 23 15 38.5t38 15.5t38.5 -15.5t15.5 -38.5t-15.5 -38t-38.5 -15t-38 15t-15 38 z" />
<glyph unicode="&#xd7;" horiz-adv-x="876" d="M147 483l248 248l-248 248l46 45l247 -248l248 248l41 -43l-246 -246l246 -248l-45 -45l-246 248l-248 -248z" />
<glyph unicode="&#xd8;" d="M109 766q0 161 63 308t170 253.5t253.5 170t307.5 63.5q109 0 217 -31l47 139h62l-53 -158q231 -86 376.5 -290t145.5 -455q0 -160 -63.5 -307t-170 -252.5t-253.5 -168.5t-308 -63q-106 0 -225 33l-53 -160h-60l58 179q-228 86 -371 287.5t-143 451.5zM176 766 q0 -229 129.5 -416.5t335.5 -267.5l461 1391q-98 28 -199 28q-197 0 -364.5 -99.5t-265 -269t-97.5 -366.5zM696 63q103 -28 207 -28q197 0 364.5 98.5t265 267t97.5 365.5q0 231 -131.5 419t-341.5 269z" />
<glyph unicode="&#xd9;" horiz-adv-x="1122" d="M119 418v1118h63v-1118q0 -156 112 -269.5t267 -113.5t267 113.5t112 269.5v1118h64v-1118q0 -183 -130 -313t-313 -130t-312.5 130t-129.5 313zM420 1952h65l115 -287h-68z" />
<glyph unicode="&#xda;" horiz-adv-x="1122" d="M119 418v1118h63v-1118q0 -156 112 -269.5t267 -113.5t267 113.5t112 269.5v1118h64v-1118q0 -183 -130 -313t-313 -130t-312.5 130t-129.5 313zM524 1665l115 287h66l-113 -287h-68z" />
<glyph unicode="&#xdb;" horiz-adv-x="1122" d="M119 418v1118h63v-1118q0 -156 112 -269.5t267 -113.5t267 113.5t112 269.5v1118h64v-1118q0 -183 -130 -313t-313 -130t-312.5 130t-129.5 313zM317 1677l211 262h66l211 -262h-76l-168 215l-168 -215h-76z" />
<glyph unicode="&#xdc;" horiz-adv-x="1122" d="M119 418v1118h63v-1118q0 -156 112 -269.5t267 -113.5t267 113.5t112 269.5v1118h64v-1118q0 -183 -130 -313t-313 -130t-312.5 130t-129.5 313zM373 1808q0 23 15 38.5t38 15.5t38 -15.5t15 -38.5t-15 -38t-38 -15t-38 15t-15 38zM643 1808q0 23 15 38.5t38 15.5 t38.5 -15.5t15.5 -38.5t-15.5 -38t-38.5 -15t-38 15t-15 38z" />
<glyph unicode="&#xdd;" horiz-adv-x="743" d="M10 1536h72l289 -758l291 758h71l-330 -838v-698h-63v698zM334 1665l115 287h65l-113 -287h-67z" />
<glyph unicode="&#xde;" horiz-adv-x="1341" d="M139 0v1597h64v-567q73 140 207.5 228t294.5 88q154 0 284 -77t205.5 -209t75.5 -286t-75.5 -284.5t-205.5 -206.5t-284 -76q-160 0 -295 86t-207 225v-518h-64zM199 774q0 -136 68.5 -253t185 -186t252.5 -69q135 0 250.5 69t182 186t66.5 253t-66.5 254t-182 188 t-250.5 70t-252 -70t-185.5 -188t-68.5 -254z" />
<glyph unicode="&#xdf;" horiz-adv-x="1079" d="M160 0v1202q0 88 33.5 162.5t104 123t165.5 48.5q149 0 239.5 -86t90.5 -233q0 -119 -113 -242l-49 -55l94 -56q171 -93 234 -190t63 -232q0 -183 -129.5 -312.5t-312.5 -129.5h-160v59h160q155 0 265.5 113.5t110.5 269.5q0 121 -58 202t-208 169l-151 90l104 117 q86 96 86 197q0 122 -71 191t-195 69q-114 0 -177 -80.5t-63 -194.5v-1202h-63z" />
<glyph unicode="&#xe0;" horiz-adv-x="1069" d="M98 387q0 171 122 291.5t296 120.5q128 0 222.5 -59t138.5 -158v159q0 136 -96.5 225t-254.5 89q-105 0 -177 -38.5t-134 -107.5l-51 41q144 164 362 164q183 0 298.5 -104.5t115.5 -268.5v-743h-63v195q-53 -102 -151.5 -160t-209.5 -58q-174 0 -296 120.5t-122 291.5z M170 387q0 -148 98.5 -250t247.5 -102q152 0 257.5 104t105.5 252q0 144 -108 246t-255 102q-149 0 -247.5 -102t-98.5 -250zM379 1536h65l115 -287h-67z" />
<glyph unicode="&#xe1;" horiz-adv-x="1069" d="M98 387q0 171 122 291.5t296 120.5q128 0 222.5 -59t138.5 -158v159q0 136 -96.5 225t-254.5 89q-105 0 -177 -38.5t-134 -107.5l-51 41q144 164 362 164q183 0 298.5 -104.5t115.5 -268.5v-743h-63v195q-53 -102 -151.5 -160t-209.5 -58q-174 0 -296 120.5t-122 291.5z M170 387q0 -148 98.5 -250t247.5 -102q152 0 257.5 104t105.5 252q0 144 -108 246t-255 102q-149 0 -247.5 -102t-98.5 -250zM483 1249l115 287h66l-113 -287h-68z" />
<glyph unicode="&#xe2;" horiz-adv-x="1069" d="M98 387q0 -171 122 -291.5t296 -120.5q111 0 209.5 58t151.5 160v-195h63v743q0 164 -115.5 268.5t-298.5 104.5q-218 0 -362 -164l51 -41q62 69 134 107.5t177 38.5q158 0 254.5 -89t96.5 -225v-159q-44 99 -138.5 158t-222.5 59q-174 0 -296 -120.5t-122 -291.5z M170 387q0 148 98.5 250t247.5 102q147 0 255 -102t108 -246q0 -148 -105.5 -252t-257.5 -104q-149 0 -247.5 102t-98.5 250zM274 1260l211 262h66l211 -262h-76l-168 215l-168 -215h-76z" />
<glyph unicode="&#xe3;" horiz-adv-x="1069" d="M98 387q0 -171 122 -291.5t296 -120.5q111 0 209.5 58t151.5 160v-195h63v743q0 164 -115.5 268.5t-298.5 104.5q-218 0 -362 -164l51 -41q62 69 134 107.5t177 38.5q158 0 254.5 -89t96.5 -225v-159q-44 99 -138.5 158t-222.5 59q-174 0 -296 -120.5t-122 -291.5z M170 387q0 148 98.5 250t247.5 102q147 0 255 -102t108 -246q0 -148 -105.5 -252t-257.5 -104q-149 0 -247.5 102t-98.5 250zM268 1372q53 96 150 96q33 0 62 -14t46.5 -31t43.5 -31t53 -14q33 0 55 20t43 60l47 -47q-56 -96 -154 -96q-40 0 -74 22t-65.5 44t-64.5 22 q-59 0 -95 -78z" />
<glyph unicode="&#xe4;" horiz-adv-x="1069" d="M98 387q0 -171 122 -291.5t296 -120.5q111 0 209.5 58t151.5 160v-195h63v743q0 164 -115.5 268.5t-298.5 104.5q-218 0 -362 -164l51 -41q62 69 134 107.5t177 38.5q158 0 254.5 -89t96.5 -225v-159q-44 99 -138.5 158t-222.5 59q-174 0 -296 -120.5t-122 -291.5z M170 387q0 148 98.5 250t247.5 102q147 0 255 -102t108 -246q0 -148 -105.5 -252t-257.5 -104q-149 0 -247.5 102t-98.5 250zM330 1393q0 23 15 38t38 15t38 -15t15 -38t-15 -38.5t-38 -15.5t-38 15.5t-15 38.5zM600 1393q0 23 15 38t38 15t38.5 -15t15.5 -38t-15.5 -38.5 t-38.5 -15.5t-38 15.5t-15 38.5z" />
<glyph unicode="&#xe5;" horiz-adv-x="1069" d="M98 387q0 -171 122 -291.5t296 -120.5q111 0 209.5 58t151.5 160v-195h63v743q0 164 -115.5 268.5t-298.5 104.5q-218 0 -362 -164l51 -41q62 69 134 107.5t177 38.5q158 0 254.5 -89t96.5 -225v-159q-44 99 -138.5 158t-222.5 59q-174 0 -296 -120.5t-122 -291.5z M170 387q0 148 98.5 250t247.5 102q147 0 255 -102t108 -246q0 -148 -105.5 -252t-257.5 -104q-149 0 -247.5 102t-98.5 250zM356 1393q0 66 47.5 112.5t114.5 46.5t114.5 -46.5t47.5 -112.5q0 -67 -47 -113.5t-115 -46.5t-115 46.5t-47 113.5zM424 1393q0 -43 27 -71 t67 -28t67 28t27 71q0 40 -27.5 69t-66.5 29t-66.5 -29t-27.5 -69z" />
<glyph unicode="&#xe6;" horiz-adv-x="2029" d="M98 391q0 170 121.5 289t296.5 119q134 0 226 -58t135 -151v123q0 156 -95 249t-256 93q-105 0 -177 -38.5t-134 -107.5l-51 41q144 164 362 164q163 0 273 -85.5t135 -235.5q70 145 201 233t295 88q89 0 181 -27.5t170 -78t127.5 -131t49.5 -175.5v-43h-1006 q-12 -59 -12 -137q0 -131 68.5 -243.5t183.5 -178t248 -65.5q160 0 287 90.5t180 236.5l57 -30q-64 -159 -206 -258t-318 -99q-168 0 -306 90t-206 238q-34 -154 -148.5 -241t-263.5 -87q-174 0 -296 122.5t-122 293.5zM170 391q0 -148 98.5 -252t247.5 -104 q152 0 260.5 104t108.5 252q0 145 -107 246.5t-262 101.5q-150 0 -248 -100t-98 -248zM971 719h919q0 94 -69 172.5t-174.5 121t-216.5 42.5q-158 0 -281.5 -93.5t-177.5 -242.5z" />
<glyph unicode="&#xe7;" horiz-adv-x="677" d="M72 543q0 152 70 277t195 197.5t279 72.5h33v-62l-33 2q-131 8 -242 -58t-173 -180.5t-62 -248.5q0 -100 37 -191.5t100 -158t152 -103.5t188 -31l33 2v-186q64 0 112 -20.5t72.5 -53t36 -64.5t11.5 -63q0 -84 -57 -142t-136 -58q-87 0 -141.5 50.5t-54.5 145.5h67 q0 -60 35 -98.5t90 -38.5q58 0 93.5 39.5t35.5 101.5q0 63 -44 101.5t-107 38.5h-76v186q-224 12 -369 166t-145 377z" />
<glyph unicode="&#xe8;" horiz-adv-x="1226" d="M72 543q0 154 75.5 285.5t205.5 208.5t284 77q82 0 157.5 -17.5t141 -55t114 -90.5t76.5 -128t29 -164h-1005q-13 -63 -13 -116q0 -136 67 -253t182.5 -186t250.5 -69q160 0 287 90.5t180 236.5l57 -30q-64 -159 -206 -258t-318 -99q-154 0 -284 76t-205.5 207t-75.5 285 zM166 719h921q-15 150 -140.5 243t-309.5 93q-159 0 -288.5 -94.5t-182.5 -241.5zM473 1536h66l114 -287h-67z" />
<glyph unicode="&#xe9;" horiz-adv-x="1226" d="M72 543q0 154 75.5 285.5t205.5 208.5t284 77q82 0 157.5 -17.5t141 -55t114 -90.5t76.5 -128t29 -164h-1005q-13 -63 -13 -116q0 -136 67 -253t182.5 -186t250.5 -69q160 0 287 90.5t180 236.5l57 -30q-64 -159 -206 -258t-318 -99q-154 0 -284 76t-205.5 207t-75.5 285 zM166 719h921q-15 150 -140.5 243t-309.5 93q-159 0 -288.5 -94.5t-182.5 -241.5zM580 1249l114 287h66l-113 -287h-67z" />
<glyph unicode="&#xea;" horiz-adv-x="1226" d="M72 543q0 -154 75.5 -285t205.5 -207t284 -76q176 0 318 99t206 258l-57 30q-53 -146 -180 -236.5t-287 -90.5q-135 0 -250.5 69t-182.5 186t-67 253q0 53 13 116h1005q-1 89 -29 164t-76.5 128t-114 90.5t-141 55t-157.5 17.5q-154 0 -284 -77t-205.5 -208.5 t-75.5 -285.5zM166 719q53 147 182.5 241.5t288.5 94.5q184 0 309.5 -93t140.5 -243h-921zM373 1260l211 262h65l211 -262h-76l-168 215l-167 -215h-76z" />
<glyph unicode="&#xeb;" horiz-adv-x="1226" d="M72 543q0 -154 75.5 -285t205.5 -207t284 -76q176 0 318 99t206 258l-57 30q-53 -146 -180 -236.5t-287 -90.5q-135 0 -250.5 69t-182.5 186t-67 253q0 53 13 116h1005q-1 89 -29 164t-76.5 128t-114 90.5t-141 55t-157.5 17.5q-154 0 -284 -77t-205.5 -208.5 t-75.5 -285.5zM166 719q53 147 182.5 241.5t288.5 94.5q184 0 309.5 -93t140.5 -243h-921zM428 1393q0 23 15 38t38 15t38.5 -15t15.5 -38t-15.5 -38.5t-38.5 -15.5t-38 15.5t-15 38.5zM698 1393q0 23 15.5 38t38.5 15t38 -15t15 -38t-15 -38.5t-38 -15.5t-38.5 15.5 t-15.5 38.5z" />
<glyph unicode="&#xec;" horiz-adv-x="346" d="M29 1536h65l115 -287h-68zM141 0v1090h64v-1090h-64z" />
<glyph unicode="&#xed;" horiz-adv-x="346" d="M139 1249l115 287h65l-112 -287h-68zM141 0v1090h64v-1090h-64z" />
<glyph unicode="&#xee;" horiz-adv-x="346" d="M-70 1260l211 262h66l211 -262h-76l-168 215l-168 -215h-76zM141 0v1090h64v-1090h-64z" />
<glyph unicode="&#xef;" horiz-adv-x="346" d="M-14 1393q0 23 15 38t38 15t38 -15t15 -38t-15 -38.5t-38 -15.5t-38 15.5t-15 38.5zM141 0v1090h64v-1090h-64zM256 1393q0 23 15 38t38 15t38 -15t15 -38t-15 -38.5t-38 -15.5t-38 15.5t-15 38.5z" />
<glyph unicode="&#xf0;" horiz-adv-x="1167" d="M86 473q0 136 67 251.5t181.5 183t249.5 67.5q57 0 122 -17t97 -40l-273 368l-106 -145h-76l144 198l-144 197h76l106 -145l107 145h76l-146 -199l416 -565q98 -135 98 -299q0 -135 -66.5 -249.5t-181 -181.5t-249.5 -67t-249.5 67t-181.5 181.5t-67 249.5zM156 473 q0 -181 125 -309.5t303 -128.5q179 0 303.5 128.5t124.5 309.5q0 191 -122 316.5t-306 125.5q-177 0 -302.5 -131t-125.5 -311z" />
<glyph unicode="&#xf1;" horiz-adv-x="854" d="M139 0v1090h64v-146q20 64 91.5 117t158.5 53q114 0 188 -70.5t74 -199.5v-844h-64v844q0 98 -55 154.5t-152 56.5q-94 0 -167.5 -82t-73.5 -180v-793h-64zM197 1372q53 96 149 96q33 0 62 -14t46.5 -31t43.5 -31t53 -14q33 0 55 20t43 60l47 -47q-25 -42 -59.5 -69 t-93.5 -27q-31 0 -60 13.5t-47.5 30.5t-44.5 30.5t-53 13.5q-58 0 -94 -78z" />
<glyph unicode="&#xf2;" horiz-adv-x="1273" d="M72 543q0 154 75.5 285.5t205.5 208.5t284 77t284 -77t205.5 -208.5t75.5 -285.5t-75.5 -285t-205.5 -207t-284 -76t-284 76t-205.5 207t-75.5 285zM141 543q0 -136 66 -253t180.5 -186t249.5 -69t249.5 69t180.5 186t66 253t-66 254t-180.5 188t-249.5 70t-249.5 -70 t-180.5 -188t-66 -254zM496 1536h65l115 -287h-68z" />
<glyph unicode="&#xf3;" horiz-adv-x="1273" d="M72 543q0 154 75.5 285.5t205.5 208.5t284 77t284 -77t205.5 -208.5t75.5 -285.5t-75.5 -285t-205.5 -207t-284 -76t-284 76t-205.5 207t-75.5 285zM141 543q0 -136 66 -253t180.5 -186t249.5 -69t249.5 69t180.5 186t66 253t-66 254t-180.5 188t-249.5 70t-249.5 -70 t-180.5 -188t-66 -254zM600 1249l115 287h65l-112 -287h-68z" />
<glyph unicode="&#xf4;" horiz-adv-x="1273" d="M72 543q0 154 75.5 285.5t205.5 208.5t284 77t284 -77t205.5 -208.5t75.5 -285.5t-75.5 -285t-205.5 -207t-284 -76t-284 76t-205.5 207t-75.5 285zM141 543q0 -136 66 -253t180.5 -186t249.5 -69t249.5 69t180.5 186t66 253t-66 254t-180.5 188t-249.5 70t-249.5 -70 t-180.5 -188t-66 -254zM393 1260l211 262h66l211 -262h-76l-168 215l-168 -215h-76z" />
<glyph unicode="&#xf5;" horiz-adv-x="1273" d="M72 543q0 154 75.5 285.5t205.5 208.5t284 77t284 -77t205.5 -208.5t75.5 -285.5t-75.5 -285t-205.5 -207t-284 -76t-284 76t-205.5 207t-75.5 285zM141 543q0 -136 66 -253t180.5 -186t249.5 -69t249.5 69t180.5 186t66 253t-66 254t-180.5 188t-249.5 70t-249.5 -70 t-180.5 -188t-66 -254zM387 1372q53 96 150 96q33 0 61.5 -14t46.5 -31t43.5 -31t52.5 -14q33 0 56 20t43 60l47 -47q-56 -96 -154 -96q-31 0 -60 13.5t-47.5 30.5t-44.5 30.5t-53 13.5q-58 0 -94 -78z" />
<glyph unicode="&#xf6;" horiz-adv-x="1273" d="M72 543q0 154 75.5 285.5t205.5 208.5t284 77t284 -77t205.5 -208.5t75.5 -285.5t-75.5 -285t-205.5 -207t-284 -76t-284 76t-205.5 207t-75.5 285zM141 543q0 -136 66 -253t180.5 -186t249.5 -69t249.5 69t180.5 186t66 253t-66 254t-180.5 188t-249.5 70t-249.5 -70 t-180.5 -188t-66 -254zM449 1393q0 23 15 38t38 15t38 -15t15 -38t-15 -38.5t-38 -15.5t-38 15.5t-15 38.5zM719 1393q0 23 15 38t38 15t38 -15t15 -38t-15 -38.5t-38 -15.5t-38 15.5t-15 38.5z" />
<glyph unicode="&#xf7;" horiz-adv-x="878" d="M92 584h694v59h-694v-59zM385 403q0 23 15 38.5t38 15.5t38.5 -15.5t15.5 -38.5t-15.5 -38t-38.5 -15t-38 15t-15 38zM385 823q0 23 15 38.5t38 15.5t38.5 -15.5t15.5 -38.5t-15.5 -38t-38.5 -15t-38 15t-15 38z" />
<glyph unicode="&#xf8;" horiz-adv-x="1273" d="M72 543q0 154 75.5 285.5t205.5 208.5t284 77q63 0 129 -16l55 166h62l-62 -183q168 -59 274.5 -206.5t106.5 -331.5q0 -154 -75.5 -285t-205.5 -207t-284 -76q-83 0 -172 27l-51 -154h-60l58 175q-153 65 -246.5 206t-93.5 314zM141 543q0 -151 79 -276t210 -187 l318 960q-69 15 -111 15q-135 0 -249.5 -70t-180.5 -188t-66 -254zM483 59q73 -24 154 -24q135 0 249.5 69t180.5 186t66 253q0 161 -92 294t-238 187z" />
<glyph unicode="&#xf9;" horiz-adv-x="970" d="M115 322v768h63v-766q0 -123 80 -206t201 -83q126 0 217.5 87t91.5 208v760h63v-1090h-63v162q-40 -85 -128.5 -136t-180.5 -51q-147 0 -245.5 93.5t-98.5 253.5zM319 1536h66l115 -287h-68z" />
<glyph unicode="&#xfa;" horiz-adv-x="970" d="M115 322v768h63v-766q0 -123 80 -206t201 -83q126 0 217.5 87t91.5 208v760h63v-1090h-63v162q-40 -85 -128.5 -136t-180.5 -51q-147 0 -245.5 93.5t-98.5 253.5zM424 1249l115 287h65l-112 -287h-68z" />
<glyph unicode="&#xfb;" horiz-adv-x="970" d="M115 322v768h63v-766q0 -123 80 -206t201 -83q126 0 217.5 87t91.5 208v760h63v-1090h-63v162q-40 -85 -128.5 -136t-180.5 -51q-147 0 -245.5 93.5t-98.5 253.5zM217 1260l211 262h66l211 -262h-76l-168 215l-168 -215h-76z" />
<glyph unicode="&#xfc;" horiz-adv-x="970" d="M115 322v768h63v-766q0 -123 80 -206t201 -83q126 0 217.5 87t91.5 208v760h63v-1090h-63v162q-40 -85 -128.5 -136t-180.5 -51q-147 0 -245.5 93.5t-98.5 253.5zM272 1393q0 23 15.5 38t38.5 15t38 -15t15 -38t-15 -38.5t-38 -15.5t-38.5 15.5t-15.5 38.5zM543 1393 q0 23 15 38t38 15t38 -15t15 -38t-15 -38.5t-38 -15.5t-38 15.5t-15 38.5z" />
<glyph unicode="&#xfd;" horiz-adv-x="657" d="M2 1090h70l264 -975l262 975h70l-422 -1536h-62l121 446zM295 1249l115 287h65l-113 -287h-67z" />
<glyph unicode="&#xfe;" horiz-adv-x="1341" d="M139 -446v2043h64v-798q73 140 207.5 227.5t294.5 87.5q154 0 284 -77t205.5 -208.5t75.5 -285.5t-75.5 -285t-205.5 -207t-284 -76q-160 0 -294.5 86.5t-207.5 225.5v-733h-64zM199 543q0 -136 68.5 -253t185 -186t252.5 -69q135 0 250.5 69t182 186t66.5 253t-66.5 254 t-182 188t-250.5 70t-252 -70t-185.5 -188t-68.5 -254z" />
<glyph unicode="&#xff;" horiz-adv-x="657" d="M2 1090h70l264 -975l262 975h70l-422 -1536h-62l121 446zM147 1393q0 23 15.5 38t38.5 15t38 -15t15 -38t-15 -38.5t-38 -15.5t-38.5 15.5t-15.5 38.5zM418 1393q0 23 15 38t38 15t38 -15t15 -38t-15 -38.5t-38 -15.5t-38 15.5t-15 38.5z" />
<glyph unicode="&#x131;" horiz-adv-x="346" d="M141 0v1090h64v-1090h-64z" />
<glyph unicode="&#x152;" horiz-adv-x="1890" d="M113 766q0 161 62.5 308t168.5 253.5t252.5 170t306.5 63.5q233 0 430 -131q106 106 252 106h248v-59h-248q-119 0 -205 -86.5t-86 -210.5q0 -125 92.5 -212t221.5 -87h168v-60h-127q-144 0 -249.5 -108.5t-105.5 -272.5q0 -156 110 -268.5t265 -112.5h164v-59h-164 q-179 0 -305 123q-208 -148 -461 -148q-214 0 -396 106t-288 288.5t-106 396.5zM176 766q0 -197 97.5 -365.5t265 -267t364.5 -98.5q230 0 418 135q-92 119 -92 270q0 140 70.5 248t189.5 154q-113 29 -186.5 124t-73.5 214q0 112 65 202q-182 119 -391 119 q-197 0 -364.5 -99.5t-265 -269t-97.5 -366.5z" />
<glyph unicode="&#x153;" horiz-adv-x="2287" d="M72 543q0 154 75.5 285.5t205.5 208.5t284 77q182 0 327.5 -108.5t200.5 -276.5q56 169 203 277t330 108q88 0 178.5 -29.5t166 -81t123.5 -131t48 -170.5v-43h-1004q-12 -62 -12 -116q0 -139 68.5 -256t183.5 -184.5t248 -67.5q160 0 287 90.5t180 236.5l57 -30 q-64 -159 -206 -258t-318 -99q-183 0 -331.5 107.5t-201.5 273.5q-52 -166 -198.5 -273.5t-329.5 -107.5q-154 0 -284 76t-205.5 207t-75.5 285zM141 543q0 -136 66 -253t180.5 -186t249.5 -69t249.5 69t180.5 186t66 253t-66 254t-180.5 188t-249.5 70t-249.5 -70 t-180.5 -188t-66 -254zM1229 719h917q0 88 -66 166.5t-169.5 124t-212.5 45.5q-159 0 -287.5 -94.5t-181.5 -241.5z" />
<glyph unicode="&#x160;" horiz-adv-x="1019" d="M66 418q0 -183 131.5 -313t314.5 -130t312.5 127t129.5 310q0 62 -20.5 124t-80.5 135.5t-155 133.5l-280 178q-80 51 -124 107t-44 139q0 109 77 190.5t185 81.5t184 -80t76 -188h72q0 136 -97.5 232t-234.5 96q-136 0 -234 -97.5t-98 -234.5q0 -177 191 -297l278 -174 q240 -151 240 -346q0 -155 -111 -266t-266 -111t-265 113.5t-110 269.5h-71zM266 1939h76l168 -215l168 215h76l-211 -262h-66z" />
<glyph unicode="&#x161;" horiz-adv-x="604" d="M37 238q0 -114 77 -188.5t187 -74.5q109 0 185.5 74t76.5 184q0 72 -30.5 127.5t-100.5 118.5l-250 221q-69 69 -69 162q0 81 51 137t135 56q83 0 134.5 -58t51.5 -139h68q0 107 -74 181.5t-180 74.5t-180 -72.5t-74 -179.5q0 -121 94 -209l250 -221q58 -52 82.5 -96.5 t24.5 -102.5q0 -86 -53.5 -142t-141.5 -56q-87 0 -142 60.5t-55 142.5h-67zM55 1524h76l168 -215l168 215h76l-211 -262h-66z" />
<glyph unicode="&#x178;" horiz-adv-x="743" d="M10 1536l330 -838v-698h63v698l330 838h-71l-291 -758l-289 758h-72zM182 1808q0 23 15.5 38.5t38.5 15.5t38 -15.5t15 -38.5t-15 -38t-38 -15t-38.5 15t-15.5 38zM453 1808q0 23 15 38.5t38 15.5t38 -15.5t15 -38.5t-15 -38t-38 -15t-38 15t-15 38z" />
<glyph unicode="&#x17d;" horiz-adv-x="1267" d="M80 0v59l1050 1418h-1028v59h1104v-59l-1052 -1418h1026v-59h-1100zM399 1939h76l168 -215l168 215h76l-211 -262h-66z" />
<glyph unicode="&#x17e;" horiz-adv-x="528" d="M23 1524h75l168 -215l168 215h76l-211 -262h-66zM31 1030v60h473v-58l-398 -973h396v-59h-463v57l393 973h-401z" />
<glyph unicode="&#x192;" horiz-adv-x="661" d="M-37 -68h57q5 -41 27 -60t66 -19q100 0 112 124l92 1053h-184l4 60h185l28 319q9 92 58.5 140t121.5 48q63 0 105 -37t43 -102h-66q-3 80 -86 80q-100 0 -112 -125l-29 -323h193l-5 -60h-192l-92 -1055q-7 -84 -58 -133t-122 -49q-62 0 -103.5 37t-42.5 102z" />
<glyph unicode="&#x2c6;" horiz-adv-x="786" d="M150 1677l210 262h66l211 -262h-76l-168 215l-168 -215h-75z" />
<glyph unicode="&#x2c7;" horiz-adv-x="788" d="M150 1939h75l168 -215l168 215h76l-211 -262h-66z" />
<glyph unicode="&#x2d8;" horiz-adv-x="679" d="M121 1921h65q0 -70 41 -117t107 -47q64 0 106.5 47.5t42.5 116.5h68q0 -96 -61.5 -159.5t-155.5 -63.5q-95 0 -154 63t-59 160z" />
<glyph unicode="&#x2d9;" horiz-adv-x="606" d="M184 1810q0 51 35.5 86t87.5 35t87.5 -35t35.5 -86q0 -57 -35 -95t-88 -38t-88 38t-35 95z" />
<glyph unicode="&#x2da;" horiz-adv-x="610" d="M141 1808q0 66 47.5 113t114.5 47t114.5 -47t47.5 -113q0 -67 -47 -113t-115 -46t-115 46t-47 113zM209 1808q0 -42 27 -70t67 -28t67 28t27 70q0 40 -27.5 69.5t-66.5 29.5t-66.5 -29.5t-27.5 -69.5z" />
<glyph unicode="&#x2dc;" horiz-adv-x="782" d="M141 1718q54 97 150 97q33 0 62 -14t46.5 -31.5t43.5 -31.5t53 -14q33 0 55 20t43 60l47 -47q-56 -96 -154 -96q-40 0 -74 22t-65.5 44t-64.5 22q-59 0 -95 -78z" />
<glyph unicode="&#x3c0;" horiz-adv-x="1034" d="M8 1030v60h1018v-60h-135v-1030h-64v1030h-620v-1030h-64v1030h-135z" />
<glyph unicode="&#x2000;" horiz-adv-x="984" />
<glyph unicode="&#x2001;" horiz-adv-x="1968" />
<glyph unicode="&#x2002;" horiz-adv-x="984" />
<glyph unicode="&#x2003;" horiz-adv-x="1968" />
<glyph unicode="&#x2004;" horiz-adv-x="656" />
<glyph unicode="&#x2005;" horiz-adv-x="492" />
<glyph unicode="&#x2006;" horiz-adv-x="328" />
<glyph unicode="&#x2007;" horiz-adv-x="328" />
<glyph unicode="&#x2008;" horiz-adv-x="246" />
<glyph unicode="&#x2009;" horiz-adv-x="393" />
<glyph unicode="&#x200a;" horiz-adv-x="109" />
<glyph unicode="&#x2010;" horiz-adv-x="788" d="M92 584v59h604v-59h-604z" />
<glyph unicode="&#x2011;" horiz-adv-x="788" d="M92 584v59h604v-59h-604z" />
<glyph unicode="&#x2012;" horiz-adv-x="788" d="M92 584v59h604v-59h-604z" />
<glyph unicode="&#x2013;" horiz-adv-x="733" d="M92 584v59h549v-59h-549z" />
<glyph unicode="&#x2014;" horiz-adv-x="1282" d="M92 584v59h1098v-59h-1098z" />
<glyph unicode="&#x2018;" horiz-adv-x="376" d="M170 877v499q0 107 31.5 146t89.5 39v-60q-30 0 -44 -23t-14 -89v-512h-63z" />
<glyph unicode="&#x2019;" horiz-adv-x="376" d="M86 852v59q30 0 43.5 23t13.5 90v512h64v-500q0 -107 -31.5 -145.5t-89.5 -38.5z" />
<glyph unicode="&#x201a;" horiz-adv-x="399" d="M111 -317q30 0 43.5 22.5t13.5 89.5v512h63v-500q0 -107 -31 -145.5t-89 -38.5v60z" />
<glyph unicode="&#x201c;" horiz-adv-x="595" d="M170 877v499q0 107 31.5 146t89.5 39v-60q-30 0 -44 -23t-14 -89v-512h-63zM389 877v499q0 107 31.5 146t89.5 39v-60q-30 0 -43.5 -22.5t-13.5 -89.5v-512h-64z" />
<glyph unicode="&#x201d;" horiz-adv-x="595" d="M86 852v59q30 0 43.5 23t13.5 90v512h64v-500q0 -107 -31.5 -145.5t-89.5 -38.5zM305 852v59q30 0 43.5 23t13.5 90v512h64v-500q0 -107 -31.5 -145.5t-89.5 -38.5z" />
<glyph unicode="&#x201e;" horiz-adv-x="618" d="M111 -315q30 0 43.5 22.5t13.5 89.5v512h63v-499q0 -107 -31 -146t-89 -39v60zM330 -315q30 0 43.5 22.5t13.5 89.5v512h64v-499q0 -107 -31.5 -146t-89.5 -39v60z" />
<glyph unicode="&#x2020;" horiz-adv-x="509" d="M10 547v59h213v991h64v-991h213v-59h-213v-993h-64v993h-213z" />
<glyph unicode="&#x2021;" horiz-adv-x="509" d="M10 199v59h213v637h-213v59h213v643h64v-643h213v-59h-213v-637h213v-59h-213v-645h-64v645h-213z" />
<glyph unicode="&#x2022;" horiz-adv-x="712" d="M180 641q0 72 52 124t124 52t124 -52t52 -124t-52 -124t-124 -52t-124 52t-52 124z" />
<glyph unicode="&#x2026;" horiz-adv-x="1136" d="M168 0v307h63v-307h-63zM537 0v307h63v-307h-63zM905 0v307h64v-307h-64z" />
<glyph unicode="&#x202f;" horiz-adv-x="393" />
<glyph unicode="&#x2030;" horiz-adv-x="1925" d="M139 1139q0 130 94.5 224.5t225.5 94.5t225 -94t94 -225t-94.5 -225.5t-224.5 -94.5q-131 0 -225.5 94.5t-94.5 225.5zM201 1139q0 -107 75.5 -182.5t182.5 -75.5t182.5 75.5t75.5 182.5t-75.5 182.5t-182.5 75.5t-182.5 -75.5t-75.5 -182.5zM449 0l716 1536h66 l-719 -1536h-63zM825 295q0 130 94.5 224.5t225.5 94.5t225 -94t94 -225t-94.5 -225.5t-224.5 -94.5q-131 0 -225.5 94.5t-94.5 225.5zM887 295q0 -107 75.5 -182.5t182.5 -75.5t182.5 75.5t75.5 182.5t-75.5 182.5t-182.5 75.5t-182.5 -75.5t-75.5 -182.5zM1147 973 q0 131 94.5 225t224.5 94q131 0 225.5 -94.5t94.5 -224.5q0 -131 -95 -225.5t-225 -94.5t-224.5 94.5t-94.5 225.5zM1208 973q0 -107 75.5 -182.5t182.5 -75.5t182.5 75.5t75.5 182.5t-75.5 182.5t-182.5 75.5t-182.5 -75.5t-75.5 -182.5z" />
<glyph unicode="&#x2039;" horiz-adv-x="499" d="M150 545q0 62 43 108l129 142h86l-150 -162q-37 -43 -37 -88q0 -43 37 -86l150 -164h-86l-132 141q-40 43 -40 109z" />
<glyph unicode="&#x203a;" horiz-adv-x="499" d="M92 295l150 164q37 43 37 86q0 45 -37 88l-150 162h86l129 -142q43 -46 43 -108q0 -65 -41 -109l-131 -141h-86z" />
<glyph unicode="&#x2044;" horiz-adv-x="770" d="M25 -446l659 1982h61l-661 -1982h-59z" />
<glyph unicode="&#x205f;" horiz-adv-x="492" />
<glyph unicode="&#x20ac;" horiz-adv-x="1267" d="M16 545v59h113q-16 85 -16 166q0 86 18 168h-115v59h129q74 239 283 389t475 150h307v-59h-307q-241 -3 -429.5 -135t-260.5 -345h629v-59h-645q-21 -80 -21 -168q0 -82 19 -166h647v-59h-631q73 -217 262 -351.5t430 -134.5h307v-59h-307q-177 0 -333 69t-266.5 192.5 t-158.5 283.5h-129z" />
<glyph unicode="&#x2122;" horiz-adv-x="1443" d="M92 1477v59h469v-59h-203v-582h-63v582h-203zM633 895v641h63l265 -561l266 561h63v-641h-63v491l-236 -491h-61l-234 498v-498h-63z" />
<glyph unicode="&#x2202;" horiz-adv-x="1042" d="M74 451l53 301q20 112 91.5 201.5t172 137.5t209.5 48q195 0 295 -117l16 92q30 168 -47 277.5t-241 109.5q-87 0 -165 -44.5t-159 -141.5l-47 45q107 111 190.5 156t188.5 45q126 0 212.5 -60.5t119.5 -166t10 -236.5l-129 -719q-30 -180 -158.5 -279.5t-300.5 -99.5 q-106 0 -185.5 64.5t-112.5 168t-13 218.5zM131 331q3 -54 24.5 -103t53 -86.5t80 -60t106.5 -22.5q138 0 249 87.5t134 220.5l105 581q-96 131 -293 131q-139 0 -256 -91t-141 -224l-58 -324q-7 -55 -4 -109z" />
<glyph unicode="&#x220f;" horiz-adv-x="1161" d="M139 -446v1982h883v-1982h-64v1923h-755v-1923h-64z" />
<glyph unicode="&#x2211;" horiz-adv-x="944" d="M80 -387l692 934l-692 930v59h799v-59h-723l690 -930l-690 -934h723v-59h-799v59z" />
<glyph unicode="&#x221e;" horiz-adv-x="1992" d="M119 532q0 171 119.5 292.5t289.5 121.5q208 0 361 -211l106 -147l109 147q153 211 360 211q169 0 289.5 -122t120.5 -292q0 -169 -120.5 -289t-289.5 -120q-207 0 -360 211l-109 147l-106 -147q-153 -211 -361 -211q-170 0 -289.5 120t-119.5 289zM188 532 q0 -143 99 -246.5t241 -103.5q91 0 167 48t157 159l104 146l-104 145q-81 111 -157 159t-167 48q-141 0 -240.5 -105.5t-99.5 -249.5zM1034 535l107 -146q81 -111 157 -159t166 -48q142 0 241 103.5t99 246.5q0 144 -99.5 249.5t-240.5 105.5q-90 0 -166 -48t-157 -159z" />
<glyph unicode="&#x222b;" horiz-adv-x="432" d="M-76 -307l60 22q12 -102 100 -102q100 0 100 125v1640q0 84 46.5 133.5t117.5 49.5q62 0 107.5 -37.5t52.5 -102.5l-59 -22q-12 102 -101 102q-100 0 -100 -125v-1640q0 -84 -46.5 -133t-117.5 -49q-63 0 -108 37t-52 102z" />
<glyph unicode="&#x2264;" horiz-adv-x="692" d="M66 731l448 486h86l-448 -486l448 -487h-86zM88 127h496v59h-496v-59z" />
<glyph unicode="&#x2265;" horiz-adv-x="692" d="M92 244l449 487l-449 486h86l449 -486l-449 -487h-86zM109 127h495v59h-495v-59z" />
<glyph unicode="&#x25ca;" horiz-adv-x="837" d="M78 768l307 768h66l309 -768l-309 -768h-66zM145 768l273 -686l274 686l-274 686z" />
<glyph unicode="&#x25fc;" horiz-adv-x="1085" d="M0 0v1085h1085v-1085h-1085z" />
</font>
</defs>
</svg>
