<?xml version="1.0" standalone="no"?>
<!DOCTYPE svg PUBLIC "-//W3C//DTD SVG 1.1//EN" "http://www.w3.org/Graphics/SVG/1.1/DTD/svg11.dtd" >
<svg xmlns="http://www.w3.org/2000/svg" xmlns:xlink="http://www.w3.org/1999/xlink" version="1.1">
<metadata></metadata>
<defs>
<font id="rubendflexible" horiz-adv-x="1566" >
<font-face units-per-em="2048" ascent="1536" descent="-512" />
<missing-glyph horiz-adv-x="716" />
<glyph unicode="&#xfb01;" horiz-adv-x="976" d="M49 375q0 170 69.5 321t192.5 244v272q0 143 45.5 209t139.5 66q54 0 90 -26t53.5 -63t31 -74t34.5 -63t53 -26q33 0 53 22.5t20 57.5t-20 57.5t-53 22.5v92q75 0 124.5 -49t49.5 -123t-49.5 -123t-124.5 -49q-46 0 -79.5 19t-51 47t-33 61t-26 61t-29 47t-43.5 19 q-27 0 -45 -15t-26 -44t-10.5 -57.5t-2.5 -68.5v-211q110 52 235 52h94q172 0 172 -209q0 -150 -100 -455l78 -223q30 -84 -17.5 -137.5t-117.5 -53.5t-117.5 53.5t-17.5 137.5l81 215q-106 303 -106 459v53h102v-49q-2 -122 60 -346q21 60 38.5 163.5t16.5 182.5 q-2 102 -72 102h-108q-128 -6 -221 -61v-750q0 -75 -42 -117.5t-106 -42.5q-215 0 -215 400zM152 377q0 -131 30 -220t82 -89q47 0 47 69v670q-77 -77 -118 -188.5t-41 -241.5zM709 137q-10 -34 5.5 -51.5t41.5 -17.5t41.5 17.5t5.5 51.5l-45 150z" />
<glyph unicode="&#xfb02;" horiz-adv-x="970" d="M49 375q0 170 69.5 321t192.5 244v272q0 143 50.5 209t154.5 66q67 0 113 -49q43 49 114 49q86 0 122 -46.5t36 -137.5q0 -58 -7 -132.5t-22 -167t-25 -152.5t-30 -163t-24 -125q25 -90 73.5 -283t73.5 -280h-100q-12 45 -97 416q-94 -409 -96 -416h-100q25 87 73.5 280 t73.5 283q-3 17 -29.5 158.5t-41.5 224.5q-115 -6 -211 -61v-760q0 -75 -42 -117.5t-106 -42.5q-109 0 -162 108.5t-53 301.5zM152 377q0 -132 30 -226t82 -94q47 0 47 70v680q-77 -77 -118 -188.5t-41 -241.5zM412 1001q97 45 196 50q-22 145 -22 252v12q-3 37 -24.5 58.5 t-59.5 21.5q-22 0 -38 -5.5t-25.5 -19.5t-15.5 -25.5t-8 -36t-2.5 -38t-0.5 -43.5v-15v-211zM686 1303q1 -48 8 -127.5t14 -141t19.5 -160.5t15.5 -129q4 34 16 129.5t19.5 159.5t14.5 142.5t8 126.5q3 92 -58 92q-60 0 -57 -92z" />
<glyph horiz-adv-x="0" />
<glyph horiz-adv-x="682" />
<glyph unicode=" "  horiz-adv-x="716" />
<glyph unicode="&#x09;" horiz-adv-x="716" />
<glyph unicode="&#xa0;" horiz-adv-x="716" />
<glyph unicode="!" horiz-adv-x="530" d="M55 147q0 73 50 122.5t124 49.5q75 0 124.5 -49t49.5 -123t-49.5 -123t-124.5 -49q-74 0 -124 49.5t-50 122.5zM70 1317q-9 74 40 122t121 48q84 0 124 -44.5t32 -121.5l-86 -795h-143zM150 147q0 -34 22.5 -56.5t56.5 -22.5t57 22.5t23 56.5t-23 57t-57 23t-56.5 -23 t-22.5 -57zM172 1321l57 -686l58 686q3 34 -13 54t-43 20t-44.5 -20t-14.5 -54z" />
<glyph unicode="&#x22;" horiz-adv-x="645" d="M164 993v469h78v-469h-78zM403 993v469h78v-469h-78z" />
<glyph unicode="#" horiz-adv-x="1140" d="M61 473v90h246l47 332h-235v90h250l67 475h94l-67 -475h325l68 475h94l-67 -475h196v-90h-211l-47 -332h201v-90h-213l-68 -473h-94l68 473h-326l-67 -473h-95l68 473h-234zM401 563h326l47 332h-325z" />
<glyph unicode="$" horiz-adv-x="448" d="M174 -141v1743h100v-1743h-100z" />
<glyph unicode="%" horiz-adv-x="1593" d="M82 1071q0 157 93 262t249 105q157 0 247.5 -103t90.5 -264q0 -151 -94.5 -256.5t-245.5 -105.5q-152 0 -246 104.5t-94 257.5zM184 1071q0 -108 66 -190t172 -82q73 0 128 40t82 101t27 131q0 118 -61.5 197.5t-175.5 79.5q-113 0 -175.5 -80.5t-62.5 -196.5zM268 -49 l953 1511h108l-952 -1511h-109zM831 338q0 157 93.5 262t249.5 105q157 0 247 -103t90 -264q0 -151 -94.5 -257t-245.5 -106q-152 0 -246 105t-94 258zM934 338q0 -108 65.5 -190t171.5 -82q109 0 173.5 81.5t64.5 190.5q0 118 -62 197t-176 79q-113 0 -175 -80t-62 -196z " />
<glyph unicode="&#x26;" horiz-adv-x="1214" d="M90 383q0 79 20 141.5t65.5 117t105 100t153.5 102.5l-2 2q-95 114 -133 179q-59 104 -59 194q0 56 21 107t61.5 93t108 67t153.5 25q75 0 135 -18t98 -47t63 -68t35.5 -78.5t10.5 -80.5q0 -115 -78.5 -204t-220.5 -169l-43 -25l366 -452q47 122 47 286h105 q0 -197 -86 -368l213 -262h-121l-147 176q-151 -201 -416 -201q-223 0 -339 101t-116 282zM186 383q0 -143 96 -216t263 -75q237 -3 358 180l-409 498q-159 -96 -233.5 -182.5t-74.5 -204.5zM340 1219q0 -54 42.5 -126t141.5 -196l58 33q114 65 178.5 133.5t64.5 155.5 t-61 143.5t-180 56.5q-61 0 -107.5 -14.5t-71.5 -35t-40.5 -49.5t-20 -52.5t-4.5 -48.5z" />
<glyph unicode="'" horiz-adv-x="417" d="M158 993v469h100v-469h-100z" />
<glyph unicode="(" horiz-adv-x="632" d="M115 631q0 153 26 287.5t63.5 229t96 182t107 140.5t112.5 111h123q-61 -62 -99.5 -104t-87.5 -102.5t-79 -112.5t-62 -122.5t-49.5 -143.5t-29 -166t-11.5 -199q0 -148 24.5 -279.5t54 -219t92 -192t99.5 -154t117 -148.5q21 -26 31 -39h-123q-38 43 -65.5 76t-73 96 t-78 121t-70.5 143.5t-62 171.5t-40 197t-16 227z" />
<glyph unicode=")" horiz-adv-x="632" d="M-10 -401q137 172 179 232q159 229 209 481q30 147 30 319q0 106 -11.5 199t-29 166t-49.5 143.5t-62 122.5t-79 112.5t-87.5 102.5t-99.5 104h123q64 -58 112.5 -111t107 -140.5t96 -182t63.5 -229t26 -287.5q0 -116 -16 -227t-40 -197t-62 -171.5t-70.5 -143.5 t-78 -121t-73 -96t-65.5 -76h-123z" />
<glyph unicode="*" horiz-adv-x="720" />
<glyph unicode="+" horiz-adv-x="1228" d="M98 469v92h422q45 0 45 47v424h101v-424q0 -47 43 -47h421v-92h-421q-19 0 -31 -11.5t-12 -33.5v-424h-101v424q0 19 -12 32t-33 13h-422z" />
<glyph unicode="," horiz-adv-x="544" d="M78 147q0 73 50 122.5t124 49.5q75 0 124.5 -49t49.5 -123v-145q0 -94 -58 -153.5t-153 -59.5h-102v88h129q90 0 90 109v24q-21 -35 -80 -35q-74 0 -124 49.5t-50 122.5zM172 147q0 -34 23 -56.5t57 -22.5t57 22.5t23 56.5t-23 57t-57 23t-57 -23t-23 -57z" />
<glyph unicode="-" horiz-adv-x="634" d="M98 469v92h439v-92h-439z" />
<glyph unicode="." horiz-adv-x="569" d="M111 147q0 73 50 122.5t124 49.5q75 0 124.5 -49t49.5 -123t-49.5 -123t-124.5 -49q-74 0 -124 49.5t-50 122.5zM205 147q0 -34 23 -56.5t57 -22.5t57 22.5t23 56.5t-23 57t-57 23t-57 -23t-23 -57z" />
<glyph unicode="/" horiz-adv-x="681" d="M-27 -35l652 1532h84l-652 -1532h-84z" />
<glyph unicode="0" horiz-adv-x="1314" d="M88 717q0 158 34.5 296t102 247.5t178.5 173t254 63.5q115 0 210 -41.5t161 -114t111.5 -172t66.5 -213t21 -239.5q0 -165 -34.5 -300.5t-102.5 -237t-178.5 -158t-254.5 -56.5t-254 56.5t-178.5 158t-102.5 237t-34 300.5zM188 717q0 -142 27 -258t82 -205.5 t146.5 -138.5t213.5 -49t213.5 49t146.5 138.5t82 205.5t27 258q0 113 -16.5 212.5t-53 186t-90 148.5t-132.5 97.5t-177 35.5t-177 -35.5t-132.5 -97.5t-90 -148.5t-53 -186t-16.5 -212.5z" />
<glyph unicode="1" horiz-adv-x="688" d="M123 1198v92h170v35q0 67 40 114.5t107 47.5q66 0 106 -38.5t40 -98.5q0 -67 -51.5 -109.5t-124.5 -42.5h-17v-1198h-100v1198h-170zM393 1290h17q38 0 58.5 18.5t20.5 41.5q0 21 -12.5 35t-34.5 14q-24 0 -36.5 -17t-12.5 -41v-51z" />
<glyph unicode="2" horiz-adv-x="1138" d="M129 104q0 80 58 127t147 7l65 -31l373 450q40 52 63 85.5t50.5 85t40 107t12.5 118.5q0 150 -100 246t-248 96q-166 0 -263.5 -112.5t-97.5 -297.5h-100q12 246 135.5 374t323.5 128q199 0 324.5 -124.5t125.5 -309.5q0 -71 -17.5 -137.5t-50.5 -126t-60.5 -98.5 t-67.5 -89l-357 -438q83 -37 164 -54.5t203 -17.5h172v-92h-186q-149 0 -242 22t-174 64l-23 -29q-43 -55 -85 -72q-25 -10 -52 -10q-59 0 -96 37t-37 92zM225 106q0 -15 10.5 -26.5t30.5 -11.5q19 0 45 30l25 31l-25 12q-40 17 -63 6.5t-23 -41.5z" />
<glyph unicode="3" horiz-adv-x="1183" d="M55 334h117q17 -59 50 -106t72.5 -76.5t88 -49t94.5 -27t94 -7.5q60 0 118.5 15t111 46.5t92 76t63 107.5t23.5 136q0 205 -166 286q-68 -41 -157.5 -66.5t-170.5 -25.5q-86 0 -128 40.5t-42 102.5q0 57 44 99.5t126 42.5q76 0 168 -22t158 -58q61 49 92 104.5t31 153.5 q0 72 -28.5 128.5t-77.5 91t-109 52t-127 17.5q-152 0 -253 -75.5t-124 -217.5h-104q15 78 48.5 144t89.5 121.5t144.5 87.5t200.5 32q187 0 312.5 -105t125.5 -276q0 -108 -38.5 -180t-102.5 -131q184 -112 184 -344q0 -98 -36 -185t-100.5 -151.5t-160 -102t-207.5 -37.5 q-418 0 -516 359zM418 786q0 -22 17.5 -37.5t49.5 -15.5q55 0 127.5 14t114.5 39q-103 54 -242 54q-30 0 -48.5 -16t-18.5 -38z" />
<glyph unicode="4" horiz-adv-x="1210" d="M-3.5 460q-13.5 41 0 86.5t54.5 74.5l766 565v135q0 78 41.5 122t110.5 44q66 0 105.5 -38.5t39.5 -98.5q0 -68 -76 -125l-120 -92v-680h225v-93h-225v-360h-101v360h-667q-58 0 -99 29.5t-54.5 70.5zM102 492q13 -39 58 -39h657v620l-692 -516q-36 -26 -23 -65z M918 1253l55 39q39 24 39 62q0 19 -12 30t-31 11q-51 0 -51 -60v-82z" />
<glyph unicode="5" horiz-adv-x="1138" d="M70 406h96q0 -94 55.5 -171.5t143 -119t186.5 -41.5q192 0 316 131.5t124 322.5q0 149 -58.5 252.5t-154.5 151t-221 47.5q-110 0 -225 -47v-144q0 -60 -36.5 -99.5t-90.5 -39.5q-60 0 -93.5 32.5t-33.5 86.5q0 60 44 116.5t120 100.5v322q0 80 36 117.5t117 37.5h568 v-92h-568q-36 0 -49.5 -13.5t-13.5 -49.5v-279q111 43 225 43q112 0 206 -31t167.5 -94.5t115 -169.5t41.5 -246q0 -150 -67 -275.5t-190.5 -200t-278.5 -74.5q-207 0 -344 119t-137 307zM168 782q0 -19 10 -31t29 -12q20 0 27.5 11.5t7.5 37.5v95q-74 -52 -74 -101z" />
<glyph unicode="6" horiz-adv-x="1292" d="M92 786q0 137 43.5 262.5t122 223.5t200 156.5t267.5 58.5q95 0 169.5 -26.5t120.5 -70.5t72.5 -89t40.5 -95h-118q-72 189 -287 189q-118 0 -218.5 -49.5t-168 -132.5t-105.5 -193.5t-38 -231.5q0 -104 16 -213q156 396 524 396q207 0 344.5 -135t134.5 -353 q-2 -151 -76 -269t-187 -178.5t-240 -60.5q-319 0 -482 271q-16 -112 -16 -246h-96q0 222 41 397q-64 175 -64 389zM256 401q60 -152 173.5 -238.5t281.5 -86.5q72 0 141.5 26.5t128.5 75t95 128t36 175.5q0 95 -34.5 172t-90 123.5t-121.5 71t-133 24.5q-99 0 -180.5 -37.5 t-138 -104.5t-95 -148t-63.5 -181z" />
<glyph unicode="7" horiz-adv-x="978" d="M-10 1370v92h772q33 99 75 139.5t95 40.5q64 0 100.5 -37t36.5 -98q0 -56 -46 -96.5t-132 -40.5h-57l-574 -1327h-106l581 1327h-745zM864 1462h45q62 0 62 45q0 41 -39 41q-42 0 -68 -86z" />
<glyph unicode="8" horiz-adv-x="1200" d="M57 471q0 104 44 195.5t124 160.5q-75 101 -75 238q0 192 119.5 307t330.5 115q205 0 326 -115.5t121 -306.5q0 -129 -76 -236q81 -67 126.5 -160t45.5 -198q0 -214 -149.5 -355t-393.5 -141q-247 0 -395 135.5t-148 360.5zM158 471q0 -177 125 -290t317 -113 q190 0 316 110t126 293q0 82 -37.5 156t-103.5 129q-126 -107 -301 -107q-179 0 -305 107q-137 -121 -137 -285zM250 1065q0 -100 57 -182q134 78 293 78q153 0 289 -76q57 79 57 180q0 151 -90.5 240.5t-255.5 89.5q-167 0 -258.5 -89.5t-91.5 -240.5zM377 811 q98 -72 223 -72q126 0 219 74q-104 55 -219 55q-118 0 -223 -57z" />
<glyph unicode="9" horiz-adv-x="1245" d="M80 987q1 114 41.5 209.5t107.5 158.5t153.5 97.5t180.5 34.5q327 0 477 -275q13 140 13 250h100q0 -228 -47 -418q47 -168 47 -376q0 -323 -151 -508t-394 -185q-195 0 -327.5 94t-155.5 257h115q3 -35 26.5 -76.5t65.5 -84t115 -70.5t161 -27q216 1 330.5 158.5 t114.5 441.5q0 74 -11 182q-151 -338 -481 -338q-136 0 -245 56t-173.5 165t-62.5 254zM180 989q0 -76 23 -141t61 -109t88 -75t103 -45.5t106 -14.5q342 0 447 420q-51 172 -161 271.5t-286 99.5q-71 0 -138 -26.5t-122 -75.5t-88 -128t-33 -176z" />
<glyph unicode=":" horiz-adv-x="569" d="M109 193q0 73 50 122.5t124 49.5q75 0 124.5 -49t49.5 -123t-49.5 -123.5t-124.5 -49.5q-74 0 -124 50t-50 123zM109 860q0 73 50 122.5t124 49.5q75 0 124.5 -49t49.5 -123t-49.5 -123t-124.5 -49q-74 0 -124 49.5t-50 122.5zM203 193q0 -34 23 -57t57 -23t56.5 23 t22.5 57t-22.5 56.5t-56.5 22.5t-57 -22.5t-23 -56.5zM203 860q0 -34 23 -57t57 -23t56.5 23t22.5 57t-22.5 57t-56.5 23t-57 -23t-23 -57z" />
<glyph unicode=";" horiz-adv-x="569" d="M109 193q0 73 50 122.5t124 49.5q75 0 124.5 -49t49.5 -123v-146q0 -94 -58 -153.5t-153 -59.5h-103v88h129q90 0 90 109v24q-21 -35 -79 -35q-74 0 -124 50t-50 123zM109 860q0 73 50 122.5t124 49.5q75 0 124.5 -49t49.5 -123t-49.5 -123t-124.5 -49q-74 0 -124 49.5 t-50 122.5zM203 193q0 -34 23 -57t57 -23t56.5 23t22.5 57t-22.5 56.5t-56.5 22.5t-57 -22.5t-23 -56.5zM203 860q0 -34 23 -57t57 -23t56.5 23t22.5 57t-22.5 57t-56.5 23t-57 -23t-23 -57z" />
<glyph unicode="&#x3c;" horiz-adv-x="1226" d="M57 528q0 56 37.5 98t100.5 42q21 0 43.5 -8t35.5 -15t45.5 -28t45.5 -29q116 73 770 467v-115q-49 -31 -299.5 -181.5t-378.5 -230.5q128 -80 378.5 -230t299.5 -181v-115q-654 394 -770 467q-9 -6 -38 -24t-39 -23.5t-30 -15.5t-34 -13.5t-29 -3.5q-63 0 -100.5 41.5 t-37.5 97.5zM150 528q0 -16 12.5 -27.5t32.5 -11.5q26 0 79 39q-60 39 -79 39q-20 0 -32.5 -11.5t-12.5 -27.5z" />
<glyph unicode="=" horiz-adv-x="1034" d="M98 281v92h838v-92h-838zM98 664v92h838v-92h-838z" />
<glyph unicode="&#x3e;" horiz-adv-x="1226" d="M92 2v115q49 31 299.5 181t378.5 230q-128 80 -378.5 230.5t-299.5 181.5v115q654 -394 770 -467q13 8 45.5 29t45.5 28t35.5 15t43.5 8q63 0 100 -42t37 -98t-37 -97.5t-100 -41.5q-15 0 -29 3.5t-34 13.5t-30 15.5t-39 23.5t-38 24q-116 -73 -770 -467zM952 528 q53 -39 80 -39q20 0 32.5 11.5t12.5 27.5t-12.5 27.5t-32.5 11.5t-80 -39z" />
<glyph unicode="?" horiz-adv-x="1062" d="M106 1067q0 187 123.5 308.5t305.5 121.5q198 0 313 -109t115 -274q0 -118 -54 -210.5t-164 -188.5q-125 -109 -188.5 -203t-87.5 -195h49q90 0 138.5 -47t48.5 -123q0 -72 -55 -122t-130 -50q-87 0 -133 53.5t-43 139.5q0 17 4 57h-153v92h172q58 240 270 428 q59 53 91.5 85.5t67.5 79.5t50.5 96t15.5 108q0 124 -87.5 207.5t-242.5 83.5q-83 0 -147.5 -30t-102 -80t-56.5 -108t-19 -120h-101zM451 162q-2 -44 17 -69t56 -25q30 0 55 23t25 56q0 35 -21.5 56.5t-64.5 21.5h-63q-4 -40 -4 -63z" />
<glyph unicode="@" horiz-adv-x="1923" d="M113 737q0 175 70 335t186.5 274.5t275 182.5t330.5 68q179 0 336.5 -62.5t267.5 -168t174 -247.5t64 -298q0 -151 -41 -282t-111.5 -208t-151.5 -77q-65 0 -112 45t-53 102q-139 -221 -398 -221q-116 0 -213.5 48t-156 134.5t-58.5 192.5q0 163 118.5 273t309.5 110 q286 0 408 -217q6 81 6 102q0 87 -25 155.5t-65 111t-94 70.5t-108 39t-111 11q-181 0 -328 -147l-55 74q168 172 391 172q135 0 242.5 -55.5t172 -166.5t64.5 -260q0 -35 -2.5 -70t-5.5 -58t-9.5 -69t-9.5 -73q-5 -27 -1.5 -63t12 -68.5t34 -55t62.5 -22.5 q71 0 128.5 127.5t57.5 345.5q0 138 -58.5 263.5t-157.5 216.5t-234.5 144.5t-284.5 53.5q-153 0 -293 -60.5t-242 -162.5t-162.5 -243t-60.5 -296q0 -130 43.5 -250.5t119 -214t173 -164t210 -108t224.5 -37.5q239 0 410 115l51 -82q-214 -131 -459 -131q-181 0 -346 73.5 t-281 194t-184.5 279.5t-68.5 325zM623 555q0 -118 93.5 -197t233.5 -79q155 0 242.5 76t130.5 206q-41 139 -131.5 209t-241.5 70q-149 0 -238 -78t-89 -207z" />
<glyph unicode="A" d="M39 119q29 336 246 534q16 100 32.5 183t40.5 172.5t52 158.5t66 133t82 106t101 66.5t123 24.5t123 -24.5t101.5 -66.5t82.5 -105.5t65.5 -133t52 -158.5t41 -172.5t32.5 -183.5q219 -200 248 -534q1 -8 1 -16q0 -50 -28 -86q-32 -42 -92 -42q-71 0 -107 39.5t-45 98.5 q-11 76 -32.5 246.5t-34.5 258.5q-162 125 -408 125q-244 0 -407 -125q-13 -88 -34 -258.5t-32 -246.5q-9 -59 -44.5 -98.5t-106.5 -39.5q-60 0 -92 42q-28 36 -28 86q0 8 1 16zM127 113q-2 -19 7.5 -32t31.5 -13q42 0 47 45l51 393q-119 -161 -137 -393zM393 733 q176 103 389 103t389 -103q-19 117 -41 210t-55 182.5t-73 149.5t-96.5 96t-123.5 36q-57 0 -105.5 -24t-86 -71t-68 -106t-54.5 -138t-41.5 -158.5t-33.5 -176.5zM1303 504q3 -21 21.5 -171t29.5 -220q5 -45 47 -45q22 0 31.5 13t7.5 32q-22 237 -137 391z" />
<glyph unicode="B" horiz-adv-x="1466" d="M10 113q0 61 42 104t106 43q15 0 47 -4v954q0 118 65.5 185t167.5 67h398q216 0 318.5 -89.5t102.5 -250.5q0 -173 -106 -286q119 -66 185 -168q67 -103 67 -235q1 -85 -35 -164q-36 -82 -104.5 -148t-176.5 -106t-239 -40q-72 0 -138 9.5t-128 29.5t-100 34.5 t-98.5 42.5t-78.5 36q-3 -68 -43.5 -110t-105.5 -42t-105.5 38.5t-40.5 99.5zM106 113q0 -21 13 -35.5t35 -14.5q25 0 38 16t13 40v41q-28 4 -43 4q-26 0 -41 -15t-15 -36zM305 233q44 -14 113.5 -46.5t123 -56t136.5 -43t170 -19.5q86 0 165 21.5t145 64t105.5 113.5 t39.5 161q0 125 -60.5 210t-159.5 132q-76 -52 -199.5 -93.5t-221.5 -41.5q-102 0 -154.5 55.5t-52.5 132.5q0 78 51.5 127t155.5 49q89 0 206 -32.5t211 -83.5q45 43 63.5 99t18.5 138q0 129 -89 189.5t-236 60.5h-396q-65 0 -100 -38.5t-35 -100.5v-998zM555 823 q0 -46 28 -71t79 -25q83 0 182.5 28t156.5 66q-206 86 -339 86q-107 0 -107 -84z" />
<glyph unicode="C" horiz-adv-x="1585" d="M113 741q0 220 97 391t263.5 263t372.5 92q466 0 651 -420h-108q-91 174 -224.5 251t-318.5 77q-125 0 -239 -44.5t-202 -126t-140 -207t-52 -276.5q0 -126 35 -235t96 -188t141.5 -136t173 -85t189.5 -29h7q343 0 538 303h104q-101 -190 -272.5 -293t-374.5 -103 q-152 0 -285.5 52.5t-234 148.5t-159 242t-58.5 323z" />
<glyph unicode="D" horiz-adv-x="1556" d="M10 119q0 66 47.5 106.5t110.5 40.5q13 0 37 -4v987q0 103 60.5 158t146.5 55h309q222 0 387.5 -92.5t250.5 -253t85 -366.5q0 -162 -48 -304t-134 -246.5t-215 -164.5t-283 -60q-29 0 -59 3t-54.5 6t-54 11.5t-48 13.5t-48.5 17.5t-42.5 17.5t-43 20t-37.5 18.5 t-38 20.5t-34 18q-2 -63 -41.5 -104.5t-105.5 -41.5q-65 0 -106.5 41.5t-41.5 102.5zM106 119q0 -21 14 -36t36 -15q25 0 37 16.5t12 40.5v41q-28 8 -41 8q-28 0 -43 -16.5t-15 -38.5zM305 231q31 -14 97.5 -48.5t112.5 -56t117 -40t140 -18.5q253 0 412 183.5t159 493.5 q0 278 -172.5 451.5t-449.5 173.5h-307q-109 0 -109 -115v-1024z" />
<glyph unicode="E" horiz-adv-x="1273" d="M92 399q0 111 70.5 209.5t177.5 161.5q-83 54 -135.5 137t-52.5 178q0 204 151.5 290.5t458.5 86.5h450v-92h-428q-69 0 -123.5 -3.5t-120 -13t-113.5 -29.5t-89.5 -50t-63.5 -78.5t-22 -110.5q0 -78 49 -146.5t127 -115.5q285 121 416 121q104 0 155.5 -49t51.5 -127 q0 -77 -52.5 -132.5t-154.5 -55.5q-94 0 -217 42t-201 89q-101 -45 -167 -129t-66 -183q0 -62 21 -111t52.5 -80.5t82.5 -54.5t95 -34.5t107.5 -18t103.5 -7.5t97 -1h497v-92h-508q-128 0 -227 12t-180 40t-133 73.5t-80.5 114t-28.5 159.5zM510 768q200 -96 334 -96 q51 0 78.5 24t27.5 70q0 86 -106 86q-133 0 -334 -84z" />
<glyph unicode="F" horiz-adv-x="1126" d="M106 1061q0 192 157.5 297.5t451.5 105.5h452v-92h-452q-248 0 -378 -81.5t-130 -229.5q0 -69 48 -136t122 -110q285 121 416 121q104 0 155 -49t51 -127q0 -77 -52.5 -133t-153.5 -56q-94 0 -217 42t-201 89q-61 -36 -93.5 -76t-51.5 -120t-19 -211v-295h-100v295 q0 336 184 461q-189 126 -189 305zM459 760q200 -96 334 -96q51 0 78.5 24t27.5 70q0 86 -106 86q-133 0 -334 -84z" />
<glyph unicode="G" horiz-adv-x="1730" d="M98 731q0 157 59.5 298t161 241t240.5 158.5t293 58.5q228 0 398 -100t270 -291h-125q-90 137 -233 218t-310 81q-178 0 -328.5 -90t-237.5 -243t-87 -331q0 -133 51.5 -255.5t139 -212t208.5 -142.5t254 -53q101 0 184 23.5t139.5 62t99.5 94t67.5 113t39.5 124.5h-284 v90h305q12 83 59.5 135t116.5 52q61 0 102 -40.5t41 -96.5q0 -61 -50 -100.5t-128 -39.5h-69q-21 -87 -54 -160.5t-85 -139.5t-119.5 -111.5t-160.5 -72t-204 -26.5q-154 0 -293 58.5t-240.5 158.5t-161 241t-59.5 298zM1497 575h57q74 0 74 50q0 20 -15 32.5t-34 12.5 q-69 0 -82 -95z" />
<glyph unicode="H" horiz-adv-x="1556" d="M174 0v520q0 147 135 262q-135 115 -135 265v415h100v-415q0 -122 115 -209q181 104 402 104q225 0 389 -102q102 86 102 207v415h100v-415q0 -153 -125 -265q125 -112 125 -262v-520h-100v520q0 122 -102 205q-161 -100 -389 -100q-224 0 -402 102q-115 -87 -115 -207 v-520h-100zM483 782q138 -63 308 -63t299 63q-135 66 -299 66t-308 -66z" />
<glyph unicode="I" horiz-adv-x="694" d="M104 113q0 67 52 109t125 42h16v934h-170v92h170v35q0 67 40 114.5t107 47.5q66 0 106 -38.5t40 -98.5q0 -67 -51.5 -109.5t-124.5 -42.5h-17v-934h170v-92h-170v-35q0 -67 -40 -114.5t-107 -47.5q-65 0 -105.5 38.5t-40.5 99.5zM201 113q0 -21 12.5 -35.5t34.5 -14.5 q24 0 36.5 17t12.5 41v51h-16q-38 0 -59 -18t-21 -41zM397 1290h17q38 0 59 18.5t21 41.5q0 21 -13 35t-35 14q-24 0 -36.5 -17t-12.5 -41v-51z" />
<glyph unicode="J" horiz-adv-x="1118" d="M-10 412v114h100v-114q0 -157 90 -250.5t232 -93.5q162 0 256 126.5t94 372.5v631h-354v92h354v35q0 67 40 114.5t107 47.5q66 0 106 -38.5t40 -98.5q0 -67 -51.5 -109.5t-124.5 -42.5h-17v-618q0 -288 -123 -446.5t-348 -158.5q-172 0 -286.5 120.5t-114.5 316.5z M862 1290h17q38 0 58.5 18.5t20.5 41.5q0 21 -12.5 35t-34.5 14q-24 0 -36.5 -17t-12.5 -41v-51z" />
<glyph unicode="K" horiz-adv-x="1368" d="M37 109q0 56 34 100t107 94l64 45v1114h100v-1042l508 360l-100 197q-29 57 -39.5 103.5t-10.5 105.5q0 129 93 215t225 86q131 0 224 -92t93 -221q0 -136 -127 -244l-237 -170l391 -760h-113l-358 702l-549 -395v-168q0 -81 -44 -122.5t-120 -41.5q-65 0 -103 39t-38 95 zM137 123q0 -24 13.5 -39.5t37.5 -15.5q25 0 39.5 19t14.5 52v97l-33 -23q-3 -2 -12 -8.5t-11.5 -8t-10 -7.5l-10 -8t-8 -7.5t-7 -9t-5.5 -8.5t-5 -10t-2 -11t-1 -12zM797 1186q0 -89 32 -152l101 -196l215 153q92 76 92 183q0 91 -64 156t-155 65q-92 0 -156.5 -59.5 t-64.5 -149.5z" />
<glyph unicode="L" horiz-adv-x="1071" d="M113 -25v111q73 48 151 82q-151 138 -151 364v930h100v-903q0 -222 158 -350q257 88 528 88q85 0 136.5 -43t51.5 -121q0 -77 -51 -117.5t-137 -40.5q-66 0 -140.5 6.5t-196.5 38.5t-212 86q-122 -51 -237 -131zM471 147q167 -79 426 -79q42 0 66 17.5t24 49.5 q0 34 -23.5 52t-64.5 18q-230 0 -428 -58z" />
<glyph unicode="M" horiz-adv-x="1757" d="M37 1356q0 57 36.5 94t94.5 37q56 0 95.5 -35t39.5 -104l-20 -228l596 -801l594 801l-19 228q0 69 39.5 104t95.5 35q58 0 94.5 -37t36.5 -94q0 -49 -47 -113l-102 -139l94 -1104h-96l-84 987l-549 -743l39 -54q33 -45 33 -90q0 -53 -31.5 -89t-97.5 -36t-97.5 36 t-31.5 89q0 47 32 90l39 54l-549 743l-84 -987h-96l94 1104l-102 139q-47 64 -47 113zM129 1356q0 -29 18 -51l50 -68l10 109q0 24 -12 36.5t-27 12.5q-18 0 -28.5 -10.5t-10.5 -28.5zM844 100q0 -32 35 -32q34 0 34 32q0 22 -16 41l-18 25l-19 -25q-16 -24 -16 -41z M1550 1346l9 -109l51 68q18 22 18 51q0 18 -10.5 28.5t-28.5 10.5q-15 0 -27 -12.5t-12 -36.5z" />
<glyph unicode="N" horiz-adv-x="1454" d="M12 1370q2 47 38.5 82t92.5 35q57 0 98.5 -35.5t41.5 -103.5v-170l888 -785v1069h101v-1157l133 -117q35 -36 39 -86v-8q0 -44 -32 -80q-36 -38 -101 -39q-57 0 -98.5 35.5t-41.5 104.5v164l-888 784v-1063h-101v1151l-123 109q-47 42 -47 101v9zM104 1356q0 -15 17 -35 l61 -55v80q0 24 -12 36.5t-27 12.5q-18 0 -28.5 -10.5t-10.5 -28.5zM1272 117q0 -24 12 -37.5t27 -13.5q31 0 36 27t-18 46l-57 49v-71z" />
<glyph unicode="O" horiz-adv-x="1732" d="M113 731q0 210 101 384t274 273t378 99q154 0 293 -58.5t240.5 -158.5t161 -241t59.5 -298t-59.5 -298t-161 -241t-240.5 -158.5t-293 -58.5q-205 0 -378 99t-274 273t-101 384zM213 731q0 -133 51.5 -255.5t139 -212t208.5 -142.5t254 -53q178 0 328.5 89.5t238 242.5 t87.5 331q0 107 -33 208t-93.5 182.5t-140.5 143.5t-180 96t-207 34q-178 0 -328.5 -90t-237.5 -243t-87 -331z" />
<glyph unicode="P" horiz-adv-x="1339" d="M74 0v530q0 123 15.5 217t47.5 209q-28 122 -44.5 271t-16.5 235h100q0 -54 10.5 -181.5t24.5 -195.5q69 182 228.5 296t361.5 114q147 0 268.5 -69.5t192.5 -193.5t71 -278t-71 -278t-192.5 -193t-268.5 -69q-207 0 -366 110.5t-230 302.5q-31 -101 -31 -297v-530h-100z M248 956q32 -85 67 -149.5t83 -123t104.5 -96t132 -59.5t166.5 -22q180 0 306 129t126 319q0 202 -124.5 325.5t-307.5 123.5q-100 0 -187.5 -33.5t-155.5 -94.5t-120 -140.5t-90 -178.5z" />
<glyph unicode="Q" horiz-adv-x="1716" d="M113 731q0 210 101 384t274 273t378 99q154 0 293 -58.5t240.5 -158.5t161 -241t59.5 -298q0 -134 -46 -260.5t-130 -216.5l207 -227q-70 -60 -70 -62q-109 119 -207 230q-117 -84 -260 -84q-95 0 -160 65q-63 63 -63 145v5q3 85 65.5 142.5t147.5 57.5q102 0 176 -90 l102 -114q138 148 138 409q0 107 -33 208t-93.5 182.5t-140.5 143.5t-180 96t-207 34q-178 0 -328.5 -90t-237.5 -243t-87 -331q0 -133 51.5 -255.5t139 -212t208.5 -142.5t254 -53v-93q-205 0 -378 99t-274 273t-101 384zM991 322q0 -46 35.5 -82.5t87.5 -36.5 q115 0 201 59l-101 115q-51 57 -110 57q-53 0 -83 -32t-30 -80z" />
<glyph unicode="R" horiz-adv-x="1419" d="M174 0v1210q0 118 66 185t168 67h397q109 0 199 -32.5t148 -87.5t90 -125.5t32 -147.5q0 -91 -48.5 -179t-107.5 -151q113 -62 172.5 -175t61.5 -249v-315h-101v305q0 131 -54.5 228t-145.5 141q-76 -52 -200 -93.5t-222 -41.5q-102 0 -154.5 55.5t-52.5 132.5 q0 78 51.5 127t155.5 49q89 0 206.5 -33t211.5 -84q51 50 91 128.5t40 152.5q0 87 -55.5 158t-140.5 108t-177 37h-395q-65 0 -100.5 -38.5t-35.5 -100.5v-1231h-100zM522 727q0 -46 28 -71t79 -25q83 0 183 28t157 66q-58 34 -158 60t-182 26q-107 0 -107 -84z" />
<glyph unicode="S" horiz-adv-x="1249" d="M84 483h104q24 -188 160 -302q135 -113 361 -113h4q120 1 215 40t152.5 117t58.5 183v5q1 50 -17 91q-18 43 -47 71.5t-77 53.5t-91 40t-106 33q-45 13 -97.5 25.5t-119 28t-103.5 24.5q-148 36 -226.5 124t-78.5 226q0 116 68 199t172.5 120.5t230.5 37.5 q138 0 245.5 -36t171.5 -112q59 -70 58 -167v-15q-2 -57 -20 -102h-109q11 16 20 42.5t9 47.5q0 118 -104 183t-271 65q-65 0 -128 -16.5t-117 -47t-87.5 -82.5t-33.5 -117q0 -103 59 -164.5t199 -99.5q51 -14 144 -35t151 -36q98 -25 165.5 -53.5t124 -72.5t84 -108.5 t27.5 -152.5q0 -89 -36.5 -167.5t-102.5 -137.5t-166 -93.5t-219 -34.5q-152 0 -268.5 37.5t-191 106.5t-116 160t-51.5 204z" />
<glyph unicode="T" horiz-adv-x="1167" d="M-10 1370v92h667q137 140 369 140q158 0 158 -115q0 -59 -41 -88t-113 -29h-330q-55 -79 -55 -188v-1182h-100v1182q0 99 47 188h-602zM807 1462h229q26 0 36.5 5t10.5 20q0 24 -47 24q-136 0 -229 -49z" />
<glyph unicode="U" horiz-adv-x="1593" d="M176 670v792h100v-805q0 -126 30 -230.5t91 -186t163 -127t237 -45.5t237 45.5t162.5 127.5t90.5 186t30 230v805h100v-792q0 -337 -167.5 -516t-452.5 -179q-286 0 -453.5 179.5t-167.5 515.5z" />
<glyph unicode="V" horiz-adv-x="1327" d="M-45 1462h123l586 -1071l598 1071h110l-649 -1171q15 -28 34.5 -62t27.5 -48.5t14 -32.5t6 -35q0 -65 -40.5 -101.5t-100.5 -36.5t-101 36.5t-41 101.5q0 22 10.5 49t22.5 47.5t49 81.5zM627 113q0 -45 37 -45q36 0 36 45q0 31 -36 84q-37 -55 -37 -84z" />
<glyph unicode="W" horiz-adv-x="1902" d="M18 1462h101q0 -235 37.5 -490t93.5 -451.5t125.5 -324.5t130.5 -128q78 0 177.5 199.5t209.5 629.5q-8 27 -23.5 80t-21.5 74.5t-17 61t-15 60t-9.5 50t-7.5 53t-2 47.5q0 79 41 121.5t114 42.5t114.5 -42t41.5 -122q0 -24 -2 -47.5t-7.5 -53t-9.5 -50t-15 -60t-17 -61 t-21.5 -74.5t-23.5 -80q110 -430 209.5 -629.5t177.5 -199.5q61 0 130.5 128t125.5 324.5t93.5 451.5t37.5 490h100q0 -194 -22.5 -402.5t-66 -401t-101 -346t-134.5 -245.5t-159 -92q-41 0 -75.5 13t-82.5 61.5t-92 132t-97 235.5t-104 361q-48 -208 -103 -362.5 t-101.5 -236t-97 -130.5t-83.5 -61.5t-67 -12.5q-102 0 -194.5 141t-154 360t-97.5 480.5t-36 505.5zM897 1323q0 -111 55 -307q1 3 7 24l9 31.5t9 34t9.5 39.5t8 41t7 45.5t4.5 45t2 46.5q0 26 -13.5 49t-42.5 23t-42 -23t-13 -49z" />
<glyph unicode="X" horiz-adv-x="1456" d="M10 -25v93q34 12 70.5 27t105.5 49.5t129.5 73t129 98t117.5 124t82 150.5t34 178v25q-5 110 -66 212.5t-154.5 177.5t-197 129t-207.5 83v92q134 -31 263.5 -97.5t242 -170.5t168.5 -224q56 120 169 224t243 170.5t264 97.5v-92q-104 -29 -208 -83t-198 -129 t-154.5 -177.5t-64.5 -212.5v-25q1 -92 34 -178t82 -150.5t117.5 -124t129 -98t129.5 -73t105.5 -49.5t70.5 -27v-93q-59 17 -128.5 45.5t-159 79t-168 111t-151 146.5t-112.5 180q-40 -94 -112 -180t-150.5 -146.5t-167.5 -111t-158.5 -79.5t-128.5 -45z" />
<glyph unicode="Y" horiz-adv-x="1212" d="M-49 1462h129q368 -343 526 -633q156 288 527 633h127q-244 -233 -387.5 -409t-215.5 -332q91 -211 91 -453v-151q0 -60 -37 -101t-105 -41t-104.5 41t-36.5 101v151q0 242 88 453q-71 154 -214.5 331t-387.5 410zM565 117q0 -21 10.5 -35t30.5 -14t30.5 14t10.5 35v151 q0 171 -41 312q-41 -135 -41 -312v-151z" />
<glyph unicode="Z" horiz-adv-x="1169" d="M-47 104q1 79 57 123q32 25 76 25q33 0 72 -14q15 -8 41 -15l581 1147h-719v92h766l52 101q24 44 54.5 63t80.5 19q60 0 97.5 -34.5t37.5 -88.5q0 -73 -58 -112.5t-169 -39.5h-35l-596 -1180q316 -98 590 -98h256v-92h-271q-180 0 -319.5 25t-300.5 77l-23 -45 q-36 -82 -137 -82q-59 0 -96 37t-37 92zM49 106q0 -15 10.5 -26.5t30.5 -11.5q32 0 45 30l19 37l-19 6q-24 8 -42 8q-11 0 -21 -4q-22 -9 -23 -39zM934 1462q29 0 45 1t36 6.5t29 18t9 32.5q0 14 -10.5 25t-28.5 11q-37 0 -53 -40z" />
<glyph unicode="[" horiz-adv-x="493" d="M172 -240v1665q0 69 43.5 111.5t116.5 42.5h141v-92h-141q-29 0 -45.5 -17.5t-16.5 -44.5v-1665q0 -31 16.5 -50t45.5 -19h141v-92h-141q-74 0 -117 42t-43 119z" />
<glyph unicode="\" horiz-adv-x="739" d="M-10 1497h108l652 -1532h-109z" />
<glyph unicode="]" horiz-adv-x="493" d="M20 -309h142q29 0 45 19t16 50v1665q0 27 -16.5 44.5t-44.5 17.5h-142v92h142q73 0 116.5 -42.5t43.5 -111.5v-1665q0 -77 -43 -119t-117 -42h-142v92z" />
<glyph unicode="^" horiz-adv-x="1236" d="M92 668q310 515 467 770q23 39 59 39q38 0 60 -39l467 -770h-115q-31 49 -181.5 299.5t-230.5 378.5q-80 -128 -230 -378.5t-181 -299.5h-115z" />
<glyph unicode="_" horiz-adv-x="1024" d="M0 -158h1024v-98h-1024v98z" />
<glyph unicode="`" horiz-adv-x="673" d="M166 1831h125q14 -19 37 -50t72 -96.5t81 -109t31 -43.5h-125z" />
<glyph unicode="a" horiz-adv-x="1103" d="M43 360q0 180 115 286t301 106q140 0 266.5 -61t171.5 -165q4 62 4 92q0 367 -383 367q-101 0 -209 -45.5t-166 -103.5l-63 71q83 74 208 122t242 48q104 0 185.5 -24t146 -75.5t99 -140.5t34.5 -212q0 -105 -26 -265q43 -138 43 -360h-101q0 8 0.5 48.5t0 61t-2.5 51 t-6 50.5q-61 -110 -181 -173t-263 -63q-74 0 -146.5 25.5t-133.5 72.5t-98.5 122t-37.5 165zM143 360q0 -125 93 -208.5t223 -83.5q176 0 279 81.5t141 210.5q-50 154 -162.5 226.5t-257.5 72.5t-230.5 -82t-85.5 -217z" />
<glyph unicode="b" horiz-adv-x="1226" d="M92 0q0 263 60 506q-60 203 -60 381v575h101v-598q0 -72 16 -151q55 181 180.5 272.5t288.5 91.5q98 0 184.5 -36.5t153.5 -105.5t106 -179.5t39 -249.5q0 -112 -33.5 -210t-94 -172t-152.5 -116.5t-203 -42.5q-92 0 -170.5 28.5t-134.5 78.5t-96 109t-68 130 q-16 -119 -16 -311h-101zM250 506q16 -87 49.5 -164t84.5 -142.5t127 -104t167 -38.5q167 0 275 129t108 320q0 116 -31.5 209t-85.5 151t-122 88.5t-144 30.5q-94 0 -168.5 -37t-124.5 -104.5t-83 -150.5t-52 -187z" />
<glyph unicode="c" horiz-adv-x="1148" d="M66 518q0 158 63 284t186.5 200.5t288.5 74.5q172 0 306 -89.5t190 -239.5l-90 -46q-45 138 -158.5 210.5t-247.5 72.5t-235 -64t-152 -169.5t-51 -233.5q0 -200 119.5 -331.5t314.5 -131.5q146 0 250.5 69.5t159.5 194.5l88 -40q-64 -150 -196 -232t-302 -82 q-245 0 -389.5 149t-144.5 404z" />
<glyph unicode="d" horiz-adv-x="1226" d="M66 506q0 139 39 249.5t106 179.5t153.5 105.5t184.5 36.5q163 0 288.5 -91.5t180.5 -272.5q16 58 16 168v581h101v-581q0 -172 -60 -375q29 -139 44.5 -281t15.5 -225h-101q0 192 -16 311q-28 -71 -68 -130t-96 -109t-134.5 -78.5t-170.5 -28.5q-111 0 -203 42.5 t-152.5 116.5t-94 172t-33.5 210zM166 506q0 -191 108 -320t275 -129q91 0 167 38.5t127 104t84.5 142.5t49.5 164q-19 104 -52 187t-83 150.5t-124.5 104.5t-168.5 37q-76 0 -144 -30.5t-122 -88.5t-85.5 -151t-31.5 -209z" />
<glyph unicode="e" horiz-adv-x="1159" d="M66 510q0 111 37.5 214t104 181t165 125t213.5 47q122 0 221 -38t161.5 -102t96 -145t33.5 -171q0 -69 -41.5 -110.5t-104.5 -41.5h-784q6 -80 37.5 -153.5t83.5 -131.5t129 -92.5t168 -34.5q83 0 153.5 21.5t118 56.5t78.5 73t49 79l84 -47q-27 -56 -67.5 -103 t-98.5 -87t-139.5 -62.5t-177.5 -22.5q-155 0 -275 74t-182.5 197.5t-62.5 273.5zM168 561h758q40 0 55.5 13.5t15.5 54.5q0 152 -115.5 254t-295.5 102q-93 0 -171 -35.5t-128.5 -95.5t-81 -135t-37.5 -158z" />
<glyph unicode="f" horiz-adv-x="595" d="M49 375q0 170 69.5 321t192.5 244v272q0 143 50.5 209t154.5 66q71 0 117.5 -53t46.5 -148h-94q0 109 -84 109q-22 0 -38 -5.5t-25.5 -19.5t-15.5 -25.5t-8 -36t-2.5 -38t-0.5 -43.5v-15v-211q110 52 235 52h47v-107h-61q-124 0 -221 -57v-754q0 -75 -42 -117.5 t-106 -42.5q-215 0 -215 400zM152 377q0 -131 30 -220t82 -89q47 0 47 69v674q-76 -78 -117.5 -190.5t-41.5 -243.5z" />
<glyph unicode="g" horiz-adv-x="1204" d="M66 565q0 123 38 222t103.5 161.5t151 95.5t184.5 33q174 0 303 -101t158 -226q4 27 6 72t2 76q1 15 1 37t-1 51v67h100q0 -280 -37 -488q35 -212 35 -327q0 -104 -17 -194.5t-57 -173.5t-101 -142t-154.5 -94t-211.5 -35q-121 0 -208.5 30.5t-141 82.5t-92.5 132l78 66 q121 -219 364 -219q120 0 208 39.5t138.5 113t73.5 168.5q21 86 21 194v19q0 21 -6 144q-37 -139 -169.5 -234.5t-291.5 -95.5q-92 0 -176 32.5t-152 95t-108.5 165.5t-40.5 233zM166 565q0 -106 33.5 -190t88.5 -134t120.5 -76t134.5 -26q70 0 133 20t125 66t108.5 133 t67.5 207q-47 207 -157.5 313.5t-276.5 106.5q-174 0 -275.5 -120.5t-101.5 -299.5z" />
<glyph unicode="h" horiz-adv-x="1175" d="M8 117v16q0 117 54 291q58 186 149 348v690h100v-551q49 68 143 117t187 49q205 0 312.5 -136.5t107.5 -379.5v-561h-100v561q0 55 -6 105.5t-26.5 111t-54 104.5t-93.5 73.5t-140 29.5q-92 0 -190 -70.5t-140 -154.5v-643q0 -78 -44.5 -123t-106.5 -45q-63 0 -106 45 t-46 123zM104 113q0 -31 13.5 -51.5t42.5 -20.5q51 0 51 72v473q-35 -102 -51.5 -154.5t-36 -148t-19.5 -170.5z" />
<glyph unicode="i" horiz-adv-x="444" d="M27 0l139 389q-103 295 -103 451q0 101 46.5 169t115.5 68q156 0 156 -233q0 -150 -100 -455l139 -389h-105l-90 287l-94 -287h-104zM51 1337q0 73 50 122.5t124 49.5q75 0 124.5 -49t49.5 -123t-49.5 -123t-124.5 -49q-74 0 -124 49.5t-50 122.5zM152 1337 q0 -35 20 -57.5t53 -22.5t53.5 23t20.5 57t-20.5 57t-53.5 23t-53 -22.5t-20 -57.5zM166 844v-8q0 -125 59 -338q21 61 39 164q17 98 17 174v8q-3 131 -56 131q-56 0 -59 -131z" />
<glyph unicode="j" horiz-adv-x="268" d="M-176 -217q0 90 70 172t184 121v977h100v-957q36 4 58 4h110v-100h-121q-33 0 -47 -2v-162q0 -119 -52 -177t-144 -58q-76 0 -117 52.5t-41 129.5zM-76 -221q3 -86 78 -86q35 0 55.5 28t20.5 74v182q-77 -28 -116 -81q-38 -51 -38 -111v-6zM-47 1337q0 73 50 122.5 t124 49.5q75 0 124.5 -49t49.5 -123t-49.5 -123t-124.5 -49q-74 0 -124 49.5t-50 122.5zM53 1337q0 -34 20.5 -57t53.5 -23t53.5 23t20.5 57t-20.5 57t-53.5 23t-53.5 -23t-20.5 -57z" />
<glyph unicode="k" horiz-adv-x="1181" d="M37 98q0 61 43 107.5t156 126.5l6 2v1128h100v-1071l383 217q-45 88 -59 166q-6 30 -6 59q0 45 14 89q24 70 88 114q43 28 106 38q20 3 40 4q43 0 85 -14q62 -20 92 -71q31 -55 35 -114q0 -6 1 -11q-1 -54 -31 -109q-34 -61 -103 -106l-133 -75l317 -578h-108l-295 530 l-426 -241v-160q0 -81 -44 -122.5t-120 -41.5q-65 0 -103 38.5t-38 94.5zM137 113q0 -24 13.5 -40t37.5 -16q25 0 39.5 19t14.5 53v100q-56 -39 -80.5 -63.5t-24.5 -52.5zM762 882q-5 -21 -5 -44q-1 -28 7 -60q14 -56 47 -121l123 70q87 56 87 130q0 33 -17 69 q-24 48 -86 58q-13 2 -25 2q-46 0 -82 -28q-39 -28 -49 -76z" />
<glyph unicode="l" horiz-adv-x="454" d="M31 0q25 87 73.5 280t73.5 283q0 2 -23 123.5t-31.5 170.5t-24.5 150.5t-22.5 174.5t-6.5 131q0 86 41.5 135t115.5 49q86 0 122 -46.5t36 -137.5q0 -58 -7 -132.5t-22.5 -171t-25 -153.5t-30.5 -167.5t-24 -125.5q24 -88 73.5 -281.5t74.5 -281.5h-100q-12 45 -97 416 q-94 -409 -96 -416h-100zM170 1313q1 -48 8 -131t13.5 -140.5t20 -168t15.5 -128.5q3 28 15.5 130t20 164.5t14.5 144t8 129.5v8q0 84 -58 84q-57 0 -57 -83v-9z" />
<glyph unicode="m" horiz-adv-x="1753" d="M10 973l70 80q83 -116 158 -328q77 163 183 257.5t232 94.5q64 0 115 -24t81.5 -57.5t54.5 -84t34.5 -87.5t19.5 -85q32 64 71.5 120t91.5 107t117.5 81t135.5 30q293 0 293 -379v-698h-100v670q0 155 -47.5 235t-155.5 80q-52 0 -107 -34t-103.5 -91t-88.5 -122.5 t-72 -135.5q94 -340 94 -461q0 -80 -46 -123t-111 -43q-67 0 -113.5 41t-46.5 125q0 142 119 461q-13 77 -32 140.5t-47.5 120.5t-69 89.5t-89.5 32.5q-117 0 -207 -97.5t-168 -285.5q45 -121 73 -246.5t28 -214.5q0 -80 -46.5 -123t-111.5 -43q-68 0 -113 39t-45 127 q0 169 109 461q-26 103 -70 207t-90 164zM162 141q0 -35 17 -54t40 -19t40 19t17 54q0 162 -55 324q-59 -174 -59 -324zM870 141q0 -34 18 -53.5t42 -19.5t41.5 19t17.5 54q0 90 -51 324q-68 -201 -68 -324z" />
<glyph unicode="n" horiz-adv-x="1193" d="M10 1053h115q74 -103 133 -269q62 126 188 209.5t271 83.5q75 0 143 -23.5t124.5 -70t90 -124t33.5 -177.5v-682h-100v682q0 137 -80.5 220t-210.5 83q-136 0 -243.5 -84.5t-170.5 -224.5q1 -4 10 -45t18 -88t19 -111t16.5 -141t6.5 -152q0 -85 -43 -124.5t-109 -39.5 q-151 0 -151 164q0 85 30.5 230.5t98.5 304.5q-25 85 -76 194t-113 185zM170 133q0 -65 51 -65t51 65q0 52 -1.5 98t-3 76.5t-5.5 69t-6.5 55.5t-8 57.5t-7.5 55.5q-28 -84 -49 -209.5t-21 -202.5z" />
<glyph unicode="o" horiz-adv-x="1191" d="M66 518q0 165 70.5 293.5t191 197t268.5 68.5t268.5 -68.5t191 -197t70.5 -293.5q0 -124 -41 -228.5t-111.5 -175t-167.5 -110t-208 -39.5q-230 0 -381 152t-151 401zM166 518q0 -204 124 -332.5t308 -128.5q182 0 305 128.5t123 332.5q0 206 -124 336.5t-306 130.5 t-306 -130.5t-124 -336.5z" />
<glyph unicode="p" horiz-adv-x="1267" d="M92 76q0 273 53 473q-49 223 -49 504h101q0 -215 18 -340q56 164 178 265t297 101q155 0 273 -73.5t178.5 -193.5t60.5 -265q0 -159 -63.5 -289t-181.5 -206.5t-267 -76.5q-173 0 -306.5 112.5t-168.5 268.5q-22 -98 -22 -280v-453h-101v453zM260 549q10 -98 42 -183.5 t84.5 -152.5t131 -106t172.5 -39q69 0 128 18.5t100 48.5t73.5 72t52 85t32 91t17.5 87.5t5 76.5q0 83 -27.5 161.5t-78 140.5t-129.5 100t-173 38q-178 0 -288 -119t-142 -319z" />
<glyph unicode="q" horiz-adv-x="1255" d="M66 526q0 104 34 202t95.5 176t158 125.5t211.5 47.5q179 0 305.5 -106.5t182.5 -272.5q6 80 6 263v92h100v-92q-5 -250 -45 -435q49 -191 49 -551v-352h-100v453q0 182 -10 276q-35 -155 -174 -266t-314 -111q-229 0 -364 148.5t-135 402.5zM166 526q0 -54 8.5 -109 t35.5 -120t69 -114t116 -82t170 -33q188 0 302 128.5t134 329.5q-32 202 -145.5 330.5t-290.5 128.5q-94 0 -171.5 -40.5t-126 -107t-75 -147t-26.5 -164.5z" />
<glyph unicode="r" horiz-adv-x="724" d="M6 895q0 28 11 57.5t32 57.5t57.5 45.5t81.5 17.5q44 0 80.5 -16.5t61 -46.5t39.5 -56t28 -59l359 139v-106l-334 -127q20 -66 20 -178v-623h-100v623q0 93 -14 131l-66 -25q-27 -12 -74 -12q-84 0 -133 53.5t-49 124.5zM106 895q0 -32 19.5 -58t62.5 -26q36 0 64 14 l53 25q-40 131 -117 131q-41 0 -61.5 -27.5t-20.5 -58.5z" />
<glyph unicode="s" horiz-adv-x="1040" d="M57 299q0 88 52 152t141 96v-101q-51 -18 -71.5 -52t-20.5 -89q0 -43 20.5 -82.5t63 -75.5t121 -57.5t182.5 -21.5q175 0 263.5 62t88.5 177q0 41 -6 67t-25.5 54t-62.5 48t-111 36q-42 9 -144 28t-155 31q-266 59 -266 254q0 86 55.5 144t143 83t202.5 25 q75 0 140.5 -14t124 -43.5t100 -81.5t59.5 -123h-118q-55 170 -306 170q-60 0 -110 -7t-95 -23t-70.5 -47t-25.5 -74q0 -60 52 -105t153 -70q62 -15 166.5 -34.5t124.5 -24.5q70 -17 121 -41t80 -50t46 -60t22 -63.5t5 -66.5q0 -157 -128 -250.5t-326 -93.5q-92 0 -169 15.5 t-128.5 42.5t-89.5 60t-59 70.5t-30.5 71t-9.5 64.5z" />
<glyph unicode="t" horiz-adv-x="512" d="M-14 911v105l200 80v182q0 96 47 152.5t142 56.5q84 0 134 -47.5t50 -122.5q0 -37 -9.5 -70t-22 -56.5t-38 -46.5t-42.5 -36t-53 -30t-52 -24t-55 -22v-848q0 -50 20 -83t62 -33q21 0 35.5 7t22.5 16.5t12.5 24.5t5.5 26.5t1 27.5h95q0 -79 -48 -137t-124 -58 q-87 0 -135 53t-48 160v803zM287 1137q98 39 135 77.5t37 98.5q0 30 -23 56t-61 26q-46 0 -67 -27t-21 -84v-147z" />
<glyph unicode="u" horiz-adv-x="1118" d="M86 371v682h98v-682q0 -158 74.5 -230.5t204.5 -72.5q133 0 234.5 65t140.5 168q-86 325 -86 621q0 70 44 112.5t103 42.5q66 0 108 -41t42 -112q0 -319 -97 -625q8 -59 52 -119.5t104 -87.5v-92q-82 14 -143.5 79t-77.5 126q-58 -102 -176.5 -166t-247.5 -64 q-165 0 -271 99t-106 297zM852 922q0 -334 45 -516q53 192 53 518q0 61 -51 61q-25 0 -36 -14.5t-11 -48.5z" />
<glyph unicode="v" horiz-adv-x="1019" d="M-31 1053h115q31 -50 189 -296.5t237 -373.5q79 127 237 373.5t189 296.5h115q-72 -120 -482 -770q8 -13 29 -45.5t28 -45.5t15 -35.5t8 -43.5q0 -63 -41.5 -100.5t-97.5 -37.5t-97.5 37.5t-41.5 100.5q0 21 8 43.5t15 35.5t28 45.5t29 45.5q-410 650 -482 770zM471 113 q0 -20 11.5 -32.5t27.5 -12.5t27.5 12.5t11.5 32.5t-39 80q-39 -53 -39 -80z" />
<glyph unicode="w" horiz-adv-x="1556" d="M2 1053h107q24 -276 74.5 -501t117 -354.5t135.5 -129.5q60 0 126.5 126.5t152.5 436.5q-6 18 -18.5 55t-18.5 55t-16 47.5t-15 46.5t-10.5 37t-7.5 33.5t-2 22.5q0 68 40 108.5t111 40.5t111.5 -40.5t40.5 -108.5q0 -9 -2 -22.5t-7.5 -33.5t-10.5 -37t-15 -46.5 t-16 -47.5t-18.5 -55t-18.5 -55q86 -310 152 -436.5t126 -126.5q72 0 139 130t116 353.5t73 501.5h106q-15 -142 -35 -270.5t-48 -252t-63.5 -222.5t-78 -174.5t-96 -117t-113.5 -41.5q-187 0 -342 541q-46 -160 -92.5 -271t-90.5 -167.5t-81.5 -79.5t-77.5 -23 q-74 0 -137.5 60.5t-109.5 160t-83.5 242.5t-61.5 292t-42 323zM725 928q0 -8 0.5 -13.5t1.5 -11.5t5.5 -20t9 -30t15 -51t21.5 -73q11 38 21.5 73t15 51t9 30t5.5 20t1.5 11.5t0.5 13.5q0 57 -53 57t-53 -57z" />
<glyph unicode="x" horiz-adv-x="1052" d="M20 -25v103q160 79 267.5 141.5t177.5 128.5q-78 97 -78 197q0 98 70 184q-119 98 -437 246v102q142 -68 206 -99.5t153.5 -83.5t144.5 -97q55 45 143 96.5t159.5 86.5t205.5 99v-102q-310 -143 -438 -248q72 -88 72 -186q0 -97 -78 -195q113 -105 444 -268v-103 q-86 43 -134.5 67.5t-125.5 67.5t-137.5 85t-108.5 86q-61 -58 -160.5 -120.5t-163 -95.5t-182.5 -92zM479 545q0 -67 47 -129q47 62 47 127q0 61 -49 119q-45 -56 -45 -110v-7z" />
<glyph unicode="y" horiz-adv-x="1200" d="M92 502v551h101v-551q0 -102 26 -175t71.5 -111t97 -54.5t114.5 -16.5q107 0 206 56t175 157v576q0 62 40.5 102.5t96.5 40.5q55 0 94 -38t39 -105q0 -140 -44.5 -293.5t-125.5 -282.5v-237q0 -245 -123 -382.5t-344 -137.5q-340 0 -399 305h123q37 -211 297 -211 q45 0 88.5 9t91.5 35t83.5 66.5t59 110t23.5 158.5v155q-169 -176 -379 -176q-59 0 -112 10.5t-109.5 41t-97 78.5t-67 130t-26.5 189zM983 535q76 189 76 399q0 51 -39 51q-18 0 -27.5 -14.5t-9.5 -36.5v-399z" />
<glyph unicode="z" horiz-adv-x="1019" d="M48 89.5q-3 23.5 6.5 58.5t35.5 71l576 742h-609v92h664l65 84q51 69 123 69q51 0 86 -33t35 -86q0 -59 -44.5 -92.5t-117.5 -33.5h-96l-606 -797q-20 -29 -12 -50.5t34 -21.5h723v-92h-712q-108 0 -138 49q-10 17 -13 40.5zM827 1053h58q45 0 45 32q0 15 -8 23t-21 8 q-21 0 -47 -31z" />
<glyph unicode="{" horiz-adv-x="788" d="M10 588q0 70 47.5 116t128.5 46q41 0 92.5 -26t90.5 -73q51 63 72.5 127t21.5 176v383q0 242 203 242h102v-92h-98q-62 0 -84.5 -46t-22.5 -165v-354q0 -118 -41 -203.5t-88 -128.5q44 -38 86.5 -132.5t42.5 -209.5v-344q0 -119 22.5 -165t84.5 -46h98v-92h-102 q-203 0 -203 241v371q0 112 -23.5 183t-70.5 130q-39 -45 -90.5 -70.5t-92.5 -25.5q-81 0 -128.5 44.5t-47.5 113.5zM115 588q0 -29 19 -48t52 -18q11 0 26 3.5t44 19.5t55 43q-60 69 -125 69q-31 0 -51 -20t-20 -49z" />
<glyph unicode="|" horiz-adv-x="448" d="M174 -438v2048h100v-2048h-100z" />
<glyph unicode="}" horiz-adv-x="788" d="M20 -307h99q62 0 84 46t22 165v344q0 115 42.5 209.5t86.5 132.5q-47 43 -88 128.5t-41 203.5v354q0 119 -22 165t-84 46h-99v92h103q203 0 203 -242v-383q0 -112 21.5 -176t72.5 -127q39 47 90 73t92 26q81 0 128.5 -46t47.5 -116q0 -69 -47.5 -113.5t-128.5 -44.5 q-41 0 -92 25.5t-90 70.5q-47 -59 -70.5 -130t-23.5 -183v-371q0 -241 -203 -241h-103v92zM477 588q26 -27 55 -43t44 -19.5t26 -3.5q33 -1 52.5 18t19.5 48q0 28 -20 48.5t-52 20.5q-65 0 -125 -69z" />
<glyph unicode="~" horiz-adv-x="1228" d="M150 492q53 87 107.5 128.5t141.5 41.5q55 0 117 -21.5t108 -47.5t104.5 -47.5t107.5 -21.5q63 0 105 32t75 95l67 -49q-111 -172 -249 -172q-51 0 -113.5 22t-111.5 48.5t-108 48.5t-104 22q-60 0 -99.5 -33t-74.5 -96z" />
<glyph unicode="&#xa2;" horiz-adv-x="1138" d="M66 518q0 226 128 380.5t349 174.5v182h100v-180q159 -9 281.5 -97.5t175.5 -229.5l-90 -46q-42 127 -143 199t-224 82v-926q129 9 221.5 77.5t145.5 184.5l88 -40q-61 -140 -180.5 -220.5t-274.5 -91.5v-151h-100v151q-221 19 -349 166t-128 385zM166 518 q0 -185 103 -313t274 -148v924q-117 -14 -203.5 -80.5t-130 -165.5t-43.5 -217z" />
<glyph unicode="&#xa3;" horiz-adv-x="1138" d="M72 102q0 53 37.5 87.5t97.5 35.5q53 0 102 -12q29 89 29 162q0 144 -59 323l-170 27v98l131 -18q-60 164 -60 289q0 173 105.5 283t273.5 110q175 0 272 -101.5t97 -269.5q0 -112 -43 -199t-115.5 -138t-160 -77t-183.5 -26l-27 4q47 -146 47 -289q0 -107 -38 -211 q13 -5 85 -35t102.5 -40.5t89 -23.5t110.5 -13q57 0 97 6.5t72 25t49 33t50 47.5l55 -67q-131 -138 -323 -138q-53 0 -115.5 14t-103.5 29t-110 42.5t-97 37.5q-67 -120 -168 -123q-51 0 -90 33.5t-39 93.5zM162 100q0 -15 9.5 -27t29.5 -12q39 0 73 66q-42 10 -69 10 q-21 0 -32 -10.5t-11 -26.5zM291 1096q0 -54 11.5 -112t23.5 -96t36 -102l91 -12q44 0 90.5 9t97.5 34t90 62t64.5 98.5t25.5 138.5q0 121 -69 200t-193 79t-196 -80.5t-72 -218.5z" />
<glyph unicode="&#xa5;" horiz-adv-x="1210" d="M-49 1462h129q368 -343 526 -633q156 288 527 633h127q-244 -233 -387.5 -409t-215.5 -332l35 -88h381v-92h-356q12 -48 24 -148h332v-92h-325v-33v-151q0 -60 -37 -101t-105 -41t-104.5 41t-36.5 101v151v33h-324v92h330q5 59 23 148h-353v92h379q3 10 33 88 q-71 154 -214.5 331t-387.5 410zM565 117q0 -21 10.5 -35t30.5 -14t30.5 14t10.5 35v151q0 171 -41 312q-41 -135 -41 -312v-151z" />
<glyph unicode="&#xa6;" horiz-adv-x="454" d="M174 -182v512h100v-512h-100zM174 842v512h100v-512h-100z" />
<glyph unicode="&#xa7;" horiz-adv-x="1138" d="M61 815q0 181 66 334t188.5 245.5t274.5 92.5q250 0 383 -281h-119q-18 39 -38.5 69t-52 59t-76 45t-99.5 16q-118 0 -216 -76.5t-154 -209t-56 -292.5q0 -138 29 -243t81.5 -168t119.5 -94t147 -31q79 0 143 28q-43 30 -66 43q-121 72 -187.5 157t-66.5 202 q0 127 90 217t218 90q148 0 240 -89t89 -257q-2 -99 -42.5 -195.5t-112.5 -167.5q141 -136 141 -309q0 -102 -42.5 -185.5t-133.5 -137.5t-217 -54q-72 0 -133.5 17t-104 43t-79.5 65t-59.5 75t-43.5 81h123q24 -45 46 -74.5t57 -58t86 -42.5t120 -14q134 0 203.5 79 t69.5 204q0 73 -24.5 132t-86.5 116q-106 -66 -229 -66q-125 0 -218 46t-148.5 132t-82.5 199.5t-27 257.5zM467 713q0 -73 46 -139t163 -138q67 -44 96 -67q61 57 94 138t33 163q0 135 -64 192.5t-167 57.5q-84 0 -142.5 -58.5t-58.5 -148.5z" />
<glyph unicode="&#xa8;" horiz-adv-x="923" d="M154 1767q0 39 26.5 67t65.5 28q37 0 64.5 -28.5t27.5 -66.5q0 -37 -27.5 -64.5t-64.5 -27.5q-39 0 -65.5 27.5t-26.5 64.5zM586 1767q0 38 28 66.5t66 28.5q37 0 63.5 -28.5t26.5 -66.5q0 -37 -26.5 -64.5t-63.5 -27.5q-38 0 -66 27.5t-28 64.5z" />
<glyph unicode="&#xa9;" horiz-adv-x="1757" d="M113 731q0 209 102.5 385t278.5 278.5t385 102.5t385 -102.5t278.5 -278.5t102.5 -385t-102.5 -385t-278.5 -278.5t-385 -102.5t-385 102.5t-278.5 278.5t-102.5 385zM213 731q0 -185 87 -339.5t241 -244.5t340 -90t338.5 90.5t238.5 245.5t86 340q0 187 -85.5 341 t-238 242.5t-339.5 88.5q-141 0 -265.5 -52t-212.5 -141t-139 -214t-51 -267zM434 721q0 128 52.5 233t157 169.5t243.5 64.5q141 0 252 -75.5t157 -199.5l-82 -36q-49 112 -134.5 165.5t-192.5 53.5q-86 0 -154 -30t-110.5 -82t-65 -119t-22.5 -144q0 -160 92.5 -264.5 t255.5 -104.5q116 0 205 59.5t126 147.5l80 -39q-54 -124 -162.5 -192t-248.5 -68q-204 0 -326.5 128t-122.5 333z" />
<glyph unicode="&#xaa;" horiz-adv-x="753" d="M74 997q0 112 83.5 180t194.5 68q75 0 139 -38.5t93 -100.5q4 28 4 63q0 101 -63.5 145t-159.5 44q-115 0 -185 -70l-63 58q103 92 272 92q127 0 208 -64t81 -194q0 -47 -3.5 -80t-7 -45t-14.5 -51q27 -103 27 -236h-86q0 110 -6 145q-29 -73 -92 -118t-162 -45 q-109 0 -184.5 68.5t-75.5 178.5zM174 997q0 -64 47 -111.5t115 -47.5q156 0 203 163q-24 72 -73 113t-114 41q-73 0 -125.5 -44t-52.5 -114z" />
<glyph unicode="&#xab;" horiz-adv-x="788" d="M154 557q0 92 54.5 185t170.5 163v-110q-56 -33 -92.5 -102.5t-36.5 -135.5q0 -65 35.5 -134t93.5 -104v-110q-78 43 -130.5 105t-73.5 122.5t-21 120.5zM346 557q0 101 66 176t213 172v-110q-183 -122 -183 -238t183 -238v-110q-147 97 -213 172t-66 176z" />
<glyph unicode="&#xac;" horiz-adv-x="1228" d="M100 709v94h654q220 0 313.5 -102.5t93.5 -319.5v-158h-100v158q0 178 -69.5 253t-237.5 75h-654z" />
<glyph unicode="&#xad;" horiz-adv-x="634" d="M98 469v92h439v-92h-439z" />
<glyph unicode="&#xae;" horiz-adv-x="1757" d="M113 731q0 209 102.5 385t278.5 278.5t385 102.5t385 -102.5t278.5 -278.5t102.5 -385t-102.5 -385t-278.5 -278.5t-385 -102.5t-385 102.5t-278.5 278.5t-102.5 385zM213 731q0 -185 87 -339.5t241 -244.5t340 -90t338.5 90.5t238.5 245.5t86 340q0 187 -85.5 341 t-238 242.5t-339.5 88.5q-141 0 -265.5 -52t-212.5 -141t-139 -214t-51 -267zM524 319v582q0 135 104 222t244 87q188 0 288 -77.5t100 -202.5q0 -51 -24.5 -105.5t-64.5 -87.5q132 -119 132 -291v-127h-101v146q0 68 -30.5 125t-69.5 84q-109 -78 -246 -78 q-73 0 -114.5 40.5t-41.5 98.5q0 62 41.5 104t116.5 42q129 0 242 -78q23 14 41 50t18 77q0 86 -75 137t-212 51q-109 0 -178 -64t-69 -155v-580h-101zM797 735q0 -19 17 -34t40 -15q59 0 101 9.5t81 39.5q-64 53 -176 53q-63 0 -63 -53z" />
<glyph unicode="&#xaf;" horiz-adv-x="802" d="M154 1718v101h495v-101h-495z" />
<glyph unicode="&#xb0;" horiz-adv-x="819" d="M113 1190q0 123 85 208t208 85t207.5 -85t84.5 -208t-84.5 -208t-207.5 -85t-208 85t-85 208zM211 1190q0 -83 56.5 -142t138.5 -59t137 58.5t55 142.5q0 83 -55 142t-137 59q-81 0 -138 -59.5t-57 -141.5z" />
<glyph unicode="&#xb1;" horiz-adv-x="1228" d="M98 0v92h1032v-92h-1032zM98 561v92h422q45 0 45 47v332h101v-332q0 -47 43 -47h421v-92h-421q-19 0 -31 -11.5t-12 -33.5v-336h-101v336q0 19 -12 32t-33 13h-422z" />
<glyph unicode="&#xb2;" horiz-adv-x="958" d="M133 592q0 60 49.5 93.5t102.5 33.5h116l142 186q66 85 91 142t25 129q0 74 -47.5 122t-138.5 48q-95 0 -151 -62.5t-56 -173.5h-100q0 34 9 74t32 86t57 82.5t89 61t122 24.5q119 0 202 -72t83 -186q0 -64 -22.5 -125t-48.5 -100t-77 -105l-102 -131h315v-92h-372 l-70 -86q-47 -57 -115.5 -63.5t-109.5 46.5q-25 36 -25 68zM229 592q0 -29 37 -29q20 0 43 23l37 41h-74q-23 0 -33 -10.5t-10 -24.5z" />
<glyph unicode="&#xb3;" horiz-adv-x="966" d="M133 772h117q26 -78 81 -124t169 -46t175.5 57.5t61.5 139.5q0 96 -88 149q-43 -38 -101 -63t-116 -25q-71 0 -117.5 36t-46.5 93q0 52 47.5 92.5t116.5 40.5q54 0 97.5 -12.5t109.5 -48.5q59 49 59 119q0 75 -61 120.5t-158 45.5q-202 0 -229 -175h-105q0 33 11.5 68 t38.5 71t64.5 64t95.5 46t126 18q147 0 231.5 -67.5t84.5 -180.5q0 -98 -84 -178q45 -28 83 -82t38 -123q0 -121 -94 -209t-240 -88q-77 0 -139 17.5t-101 44t-67 63t-41 69.5t-19 68zM371 991q0 -41 61 -41q83 0 146 47q-70 37 -146 37q-27 0 -44 -11.5t-17 -31.5z" />
<glyph unicode="&#xb4;" horiz-adv-x="673" d="M162 1532q-1 0 54.5 75t111.5 149l55 75h123l-221 -299h-123z" />
<glyph unicode="&#xb5;" horiz-adv-x="1118" d="M86 371v551q0 70 43 112.5t102 42.5q66 0 108 -41t42 -112v-848q33 -8 82 -8q133 0 234.5 65t140.5 168q-86 325 -86 621q0 70 44 112.5t103 42.5q66 0 108 -41t42 -112q0 -319 -97 -625q8 -59 52 -119.5t104 -87.5v-92q-82 14 -143.5 79t-77.5 126q-58 -102 -176.5 -166 t-247.5 -64q-35 0 -82 7v-316h-98v346q-92 42 -144.5 132t-52.5 227zM184 371q0 -176 99 -252v805q0 61 -52 61q-25 0 -36 -14.5t-11 -48.5v-551zM852 922q0 -334 45 -516q53 192 53 518q0 61 -51 61q-25 0 -36 -14.5t-11 -48.5z" />
<glyph unicode="&#xb6;" horiz-adv-x="1228" d="M135 1061q0 195 120 298t337 103h319q91 0 144 -50.5t53 -151.5v-1559h-100v1575q0 94 -90 94h-261v-1669h-98v963q-178 0 -301 117t-123 280z" />
<glyph unicode="&#xb7;" horiz-adv-x="569" d="M174 649q0 43 34 77t77 34t77.5 -33.5t34.5 -77.5t-34 -78t-78 -34t-77.5 34.5t-33.5 77.5z" />
<glyph unicode="&#xb9;" horiz-adv-x="681" d="M133 1198v92h170v35q0 67 40.5 114.5t107.5 47.5q65 0 105 -38t40 -99q0 -67 -51.5 -109.5t-124.5 -42.5h-17v-635h-100v635h-170zM403 1290h17q38 0 59 18.5t21 41.5q0 21 -12.5 35t-34.5 14q-25 0 -37.5 -17t-12.5 -41v-51z" />
<glyph unicode="&#xba;" horiz-adv-x="684" d="M74 1153q0 120 73.5 202.5t194.5 82.5t194.5 -82.5t73.5 -202.5t-73.5 -202.5t-194.5 -82.5t-194.5 82.5t-73.5 202.5zM174 1153q0 -80 45.5 -134t122.5 -54t122.5 54t45.5 134q0 78 -45.5 133t-122.5 55t-122.5 -55t-45.5 -133z" />
<glyph unicode="&#xbb;" horiz-adv-x="788" d="M164 209v110q182 121 182 238t-182 238v110q73 -48 118.5 -83.5t84.5 -78t57 -88t18 -98.5t-18 -98.5t-57 -88t-84.5 -78t-118.5 -83.5zM410 209v110q58 35 93.5 104t35.5 134q0 66 -36.5 135.5t-92.5 102.5v110q116 -70 170.5 -163t54.5 -185q0 -60 -21 -120.5 t-73.5 -122.5t-130.5 -105z" />
<glyph unicode="&#xbc;" horiz-adv-x="1607" d="M133 1198v92h170v35q0 67 40.5 114.5t107.5 47.5q65 0 105 -38t40 -99q0 -67 -51.5 -109.5t-124.5 -42.5h-17v-635h-100v635h-170zM240 -49l952 1511h104l-952 -1511h-104zM403 1290h17q38 0 59 18.5t21 41.5q0 21 -12.5 35t-34.5 14q-25 0 -37.5 -17t-12.5 -41v-51z M771 213.5q4 48.5 44 83.5l432 371v118q0 74 39 121t105 47q64 0 100.5 -35t36.5 -85q0 -78 -103 -154l-77 -62v-434h194v-92h-194v-172h-101v172h-342q-65 0 -101.5 36.5t-32.5 85zM884 202.5q8 -18.5 31 -18.5h332v367l-346 -305q-25 -25 -17 -43.5zM1348 733l43 37 q23 20 29.5 31.5t6.5 29.5q0 10 -9.5 20.5t-26.5 10.5q-43 0 -43 -53v-76z" />
<glyph unicode="&#xbd;" horiz-adv-x="1703" d="M133 1198v92h170v35q0 67 40.5 114.5t107.5 47.5q65 0 105 -38t40 -99q0 -67 -51.5 -109.5t-124.5 -42.5h-17v-635h-100v635h-170zM240 -49l952 1511h104l-952 -1511h-104zM403 1290h17q38 0 59 18.5t21 41.5q0 21 -12.5 35t-34.5 14q-25 0 -37.5 -17t-12.5 -41v-51z M981 29q0 60 49.5 93.5t102.5 33.5h116l142 186q66 85 91 141.5t25 128.5q0 74 -47.5 122t-138.5 48q-95 0 -151 -62t-56 -173h-100q0 34 9 74t32 86t57 82.5t89 60.5t122 24q119 0 202 -72t83 -186q0 -64 -22.5 -124.5t-48 -99t-77.5 -105.5l-102 -131h315v-93h-373 l-69 -86q-47 -57 -115.5 -63t-109.5 47q-25 36 -25 68zM1077 29q0 -29 37 -29q20 0 43 23l37 40h-74q-43 0 -43 -34z" />
<glyph unicode="&#xbe;" horiz-adv-x="1908" d="M133 772h117q26 -78 81 -124t169 -46t175.5 57.5t61.5 139.5q0 96 -88 149q-43 -38 -101 -63t-116 -25q-71 0 -117.5 36t-46.5 93q0 52 47.5 92.5t116.5 40.5q54 0 97.5 -12.5t109.5 -48.5q59 49 59 119q0 75 -61 120.5t-158 45.5q-202 0 -229 -175h-105q0 33 11.5 68 t38.5 71t64.5 64t95.5 46t126 18q147 0 231.5 -67.5t84.5 -180.5q0 -98 -84 -178q45 -28 83 -82t38 -123q0 -121 -94 -209t-240 -88q-77 0 -139 17.5t-101 44t-67 63t-41 69.5t-19 68zM371 991q0 -41 61 -41q83 0 146 47q-70 37 -146 37q-27 0 -44 -11.5t-17 -31.5zM539 -49 l952 1511h104l-952 -1511h-104zM1072 213.5q4 48.5 44 83.5l432 371v118q0 74 39 121t105 47q64 0 100.5 -35t36.5 -85q0 -78 -103 -154l-77 -62v-434h194v-92h-194v-172h-101v172h-342q-65 0 -101.5 36.5t-32.5 85zM1185.5 202.5q8.5 -18.5 31.5 -18.5h331v367l-346 -305 q-25 -25 -16.5 -43.5zM1649 733l43 37q23 20 30 32t7 29q0 10 -10 20.5t-27 10.5q-43 0 -43 -53v-76z" />
<glyph unicode="&#xc0;" d="M39 119q29 336 246 534q16 100 32.5 183t40.5 172.5t52 158.5t66 133t82 106t101 66.5t123 24.5t123 -24.5t101.5 -66.5t82.5 -105.5t65.5 -133t52 -158.5t41 -172.5t32.5 -183.5q219 -200 248 -534q5 -60 -27 -102t-92 -42q-71 0 -107 39.5t-45 98.5q-11 76 -32.5 246.5 t-34.5 258.5q-162 125 -408 125q-244 0 -407 -125q-13 -88 -34 -258.5t-32 -246.5q-9 -59 -44.5 -98.5t-106.5 -39.5q-60 0 -92 42t-27 102zM127 113q-2 -19 7.5 -32t31.5 -13q42 0 47 45l51 393q-119 -161 -137 -393zM393 733q176 103 389 103t389 -103q-19 117 -41 210 t-55 182.5t-73 149.5t-96.5 96t-123.5 36q-57 0 -105.5 -24t-86 -71t-68 -106t-54.5 -138t-41.5 -158.5t-33.5 -176.5zM498 1915h125q14 -19 37 -50t72 -96.5t81 -109t31 -43.5h-125zM1303 504q3 -21 21.5 -171t29.5 -220q5 -45 47 -45q22 0 31.5 13t7.5 32 q-22 237 -137 391z" />
<glyph unicode="&#xc1;" d="M39 119q29 336 246 534q16 100 32.5 183t40.5 172.5t52 158.5t66 133t82 106t101 66.5t123 24.5t123 -24.5t101.5 -66.5t82.5 -105.5t65.5 -133t52 -158.5t41 -172.5t32.5 -183.5q219 -200 248 -534q5 -60 -27 -102t-92 -42q-71 0 -107 39.5t-45 98.5q-11 76 -32.5 246.5 t-34.5 258.5q-162 125 -408 125q-244 0 -407 -125q-13 -88 -34 -258.5t-32 -246.5q-9 -59 -44.5 -98.5t-106.5 -39.5q-60 0 -92 42t-27 102zM127 113q-2 -19 7.5 -32t31.5 -13q42 0 47 45l51 393q-119 -161 -137 -393zM393 733q176 103 389 103t389 -103q-19 117 -41 210 t-55 182.5t-73 149.5t-96.5 96t-123.5 36q-57 0 -105.5 -24t-86 -71t-68 -106t-54.5 -138t-41.5 -158.5t-33.5 -176.5zM723 1618q-1 0 54.5 75t110.5 149l56 75h123l-221 -299h-123zM1303 504q3 -21 21.5 -171t29.5 -220q5 -45 47 -45q22 0 31.5 13t7.5 32q-22 237 -137 391 z" />
<glyph unicode="&#xc2;" d="M39 119q29 336 246 534q16 100 32.5 183t40.5 172.5t52 158.5t66 133t82 106t101 66.5t123 24.5t123 -24.5t101.5 -66.5t82.5 -105.5t65.5 -133t52 -158.5t41 -172.5t32.5 -183.5q219 -200 248 -534q5 -60 -27 -102t-92 -42q-71 0 -107 39.5t-45 98.5q-11 76 -32.5 246.5 t-34.5 258.5q-162 125 -408 125q-244 0 -407 -125q-13 -88 -34 -258.5t-32 -246.5q-9 -59 -44.5 -98.5t-106.5 -39.5q-60 0 -92 42t-27 102zM127 113q-2 -19 7.5 -32t31.5 -13q42 0 47 45l51 393q-119 -161 -137 -393zM393 733q176 103 389 103t389 -103q-19 117 -41 210 t-55 182.5t-73 149.5t-96.5 96t-123.5 36q-57 0 -105.5 -24t-86 -71t-68 -106t-54.5 -138t-41.5 -158.5t-33.5 -176.5zM426 1610l305 291q20 20 51.5 20t51.5 -20l305 -291h-142l-202 196q-14 11 -25 0l-203 -196h-141zM1303 504q3 -21 21.5 -171t29.5 -220q5 -45 47 -45 q22 0 31.5 13t7.5 32q-22 237 -137 391z" />
<glyph unicode="&#xc3;" d="M39 119q29 336 246 534q16 100 32.5 183t40.5 172.5t52 158.5t66 133t82 106t101 66.5t123 24.5t123 -24.5t101.5 -66.5t82.5 -105.5t65.5 -133t52 -158.5t41 -172.5t32.5 -183.5q219 -200 248 -534q5 -60 -27 -102t-92 -42q-71 0 -107 39.5t-45 98.5q-11 76 -32.5 246.5 t-34.5 258.5q-162 125 -408 125q-244 0 -407 -125q-13 -88 -34 -258.5t-32 -246.5q-9 -59 -44.5 -98.5t-106.5 -39.5q-60 0 -92 42t-27 102zM127 113q-2 -19 7.5 -32t31.5 -13q42 0 47 45l51 393q-119 -161 -137 -393zM393 733q176 103 389 103t389 -103q-19 117 -41 210 t-55 182.5t-73 149.5t-96.5 96t-123.5 36q-57 0 -105.5 -24t-86 -71t-68 -106t-54.5 -138t-41.5 -158.5t-33.5 -176.5zM485 1665q0 31 10.5 66.5t31.5 70t59.5 57.5t87.5 23q32 0 68 -20.5t62.5 -45t58 -45t55.5 -20.5q37 0 53 34.5t16 82.5h103q0 -35 -11.5 -71t-33 -69 t-59 -54t-83.5 -21q-35 0 -71 20t-61 43.5t-54.5 43.5t-52.5 20q-74 0 -74 -115h-105zM1303 504q3 -21 21.5 -171t29.5 -220q5 -45 47 -45q22 0 31.5 13t7.5 32q-22 237 -137 391z" />
<glyph unicode="&#xc4;" d="M39 119q29 336 246 534q16 100 32.5 183t40.5 172.5t52 158.5t66 133t82 106t101 66.5t123 24.5t123 -24.5t101.5 -66.5t82.5 -105.5t65.5 -133t52 -158.5t41 -172.5t32.5 -183.5q219 -200 248 -534q5 -60 -27 -102t-92 -42q-71 0 -107 39.5t-45 98.5q-11 76 -32.5 246.5 t-34.5 258.5q-162 125 -408 125q-244 0 -407 -125q-13 -88 -34 -258.5t-32 -246.5q-9 -59 -44.5 -98.5t-106.5 -39.5q-60 0 -92 42t-27 102zM127 113q-2 -19 7.5 -32t31.5 -13q42 0 47 45l51 393q-119 -161 -137 -393zM393 733q176 103 389 103t389 -103q-19 117 -41 210 t-55 182.5t-73 149.5t-96.5 96t-123.5 36q-57 0 -105.5 -24t-86 -71t-68 -106t-54.5 -138t-41.5 -158.5t-33.5 -176.5zM475 1769q0 39 26.5 67t65.5 28q37 0 64.5 -28.5t27.5 -66.5q0 -37 -27.5 -64.5t-64.5 -27.5q-39 0 -65.5 27.5t-26.5 64.5zM907 1769q0 38 28 66.5 t66 28.5q37 0 64 -28.5t27 -66.5q0 -37 -27 -64.5t-64 -27.5q-38 0 -66 27.5t-28 64.5zM1303 504q3 -21 21.5 -171t29.5 -220q5 -45 47 -45q22 0 31.5 13t7.5 32q-22 237 -137 391z" />
<glyph unicode="&#xc5;" d="M39 119q29 336 246 534q16 100 32.5 183t40.5 172.5t52 158.5t66 133t82 106t101 66.5t123 24.5t123 -24.5t101.5 -66.5t82.5 -105.5t65.5 -133t52 -158.5t41 -172.5t32.5 -183.5q219 -200 248 -534q5 -60 -27 -102t-92 -42q-71 0 -107 39.5t-45 98.5q-11 76 -32.5 246.5 t-34.5 258.5q-162 125 -408 125q-244 0 -407 -125q-13 -88 -34 -258.5t-32 -246.5q-9 -59 -44.5 -98.5t-106.5 -39.5q-60 0 -92 42t-27 102zM127 113q-2 -19 7.5 -32t31.5 -13q42 0 47 45l51 393q-119 -161 -137 -393zM393 733q176 103 389 103t389 -103q-19 117 -41 210 t-55 182.5t-73 149.5t-96.5 96t-123.5 36q-57 0 -105.5 -24t-86 -71t-68 -106t-54.5 -138t-41.5 -158.5t-33.5 -176.5zM588 1767q0 82 56 138.5t138 56.5t138.5 -56.5t56.5 -138.5t-56.5 -138t-138.5 -56t-138 56t-56 138zM678 1767q0 -45 30 -77.5t74 -32.5t73.5 32.5 t29.5 77.5t-29.5 78t-73.5 33t-74 -33t-30 -78zM1303 504q3 -21 21.5 -171t29.5 -220q5 -45 47 -45q22 0 31.5 13t7.5 32q-22 237 -137 391z" />
<glyph unicode="&#xc6;" horiz-adv-x="2162" d="M119 0v733q0 118 19.5 223.5t66 204t116.5 170t178.5 114t245.5 42.5q242 0 392 -154q-37 -34 -60 -76q-61 67 -136 102.5t-193 35.5q-229 0 -368.5 -148.5t-156.5 -431.5h959q39 -34 67 -45q-36 -14 -80 -47h-948v-723h-102zM981 399q0 -91 28.5 -159.5t80.5 -114 t133 -73.5t180 -40t227 -12h508v92h-498q-57 0 -97 1t-103.5 7.5t-107.5 18t-95 34.5t-82.5 54.5t-52.5 80.5t-21 111q0 100 68 190t168 134h-148q-79 -59 -133.5 -145t-54.5 -179zM1040 1085q0 -71 42 -146t100 -124h135q-77 46 -126.5 118.5t-49.5 151.5q0 62 22 110.5 t63.5 78.5t89.5 50t113.5 29.5t120 13t123.5 3.5h428v92h-450q-377 0 -514 -129l43 -47l-66 -72l-37 43q-37 -70 -37 -172zM1317 723v92h680v-92h-680z" />
<glyph unicode="&#xc7;" horiz-adv-x="1585" d="M113 741q0 220 97 391t263.5 263t372.5 92q466 0 651 -420h-108q-91 174 -224.5 251t-318.5 77q-125 0 -239 -44.5t-202 -126t-140 -207t-52 -276.5q0 -155 51.5 -283t138.5 -211t196.5 -129.5t229.5 -49.5q47 206 177 333q41 39 99.5 71.5t122 50.5t123 5.5t93.5 -61.5 q29 -48 25.5 -99.5t-35 -104.5t-70.5 -95t-80 -72q-144 -105 -371 -119q-6 -52 -6 -112q0 -19 25 -19h65q77 0 127 -51.5t50 -126.5q0 -71 -61 -126.5t-148 -55.5q-21 0 -40.5 2.5t-34 6t-29.5 10t-24 11.5t-20 13.5t-15.5 12.5t-13.5 12.5t-10 9.5l78 69q16 -23 48 -39 t71 -16q49 0 73.5 27.5t24.5 62.5q0 41 -24.5 62.5t-61.5 21.5h-100q-80 0 -80 88q0 77 8 137q-116 4 -221.5 39t-193 100.5t-152 155.5t-100 210.5t-35.5 258.5zM932 70q173 14 293 102q18 13 38.5 32t45 47t39 55.5t20 57t-11.5 52.5q-14 23 -43.5 25.5t-63.5 -10 t-70 -32.5t-63 -40t-43 -35q-101 -96 -141 -254z" />
<glyph unicode="&#xc8;" horiz-adv-x="1146" d="M14 399q0 111 70.5 209.5t177.5 161.5q-83 54 -135.5 137t-52.5 178q0 204 151.5 290.5t458.5 86.5h451v-92h-428q-58 0 -105.5 -2t-104.5 -9.5t-101 -19.5t-87.5 -33.5t-71.5 -51t-45.5 -72.5t-17.5 -97q0 -78 49 -146.5t127 -115.5q285 121 416 121q104 0 155.5 -49 t51.5 -127q0 -77 -52.5 -132.5t-154.5 -55.5q-94 0 -217 42t-201 89q-101 -45 -167 -129t-66 -183q0 -62 21 -111t52.5 -80.5t82.5 -54.5t95 -34.5t107.5 -18t103.5 -7.5t97 -1h497v-92h-507q-161 0 -277 19.5t-202 64.5t-128.5 123.5t-42.5 191.5zM432 768q200 -96 334 -96 q51 0 78.5 24t27.5 70q0 86 -106 86q-133 0 -334 -84zM479 1917h125q14 -19 37 -50t72 -96.5t81 -109t31 -43.5h-125z" />
<glyph unicode="&#xc9;" horiz-adv-x="1273" d="M92 399q0 111 70.5 209.5t177.5 161.5q-83 54 -135.5 137t-52.5 178q0 204 151.5 290.5t458.5 86.5h450v-92h-428q-69 0 -123.5 -3.5t-120 -13t-113.5 -29.5t-89.5 -50t-63.5 -78.5t-22 -110.5q0 -78 49 -146.5t127 -115.5q285 121 416 121q104 0 155.5 -49t51.5 -127 q0 -77 -52.5 -132.5t-154.5 -55.5q-94 0 -217 42t-201 89q-101 -45 -167 -129t-66 -183q0 -62 21 -111t52.5 -80.5t82.5 -54.5t95 -34.5t107.5 -18t103.5 -7.5t97 -1h497v-92h-508q-128 0 -227 12t-180 40t-133 73.5t-80.5 114t-28.5 159.5zM510 768q200 -96 334 -96 q51 0 78.5 24t27.5 70q0 86 -106 86q-133 0 -334 -84zM608 1616q-1 0 54.5 75t111.5 149l55 75h123l-221 -299h-123z" />
<glyph unicode="&#xca;" horiz-adv-x="1273" d="M92 399q0 111 70.5 209.5t177.5 161.5q-83 54 -135.5 137t-52.5 178q0 204 151.5 290.5t458.5 86.5h450v-92h-428q-69 0 -123.5 -3.5t-120 -13t-113.5 -29.5t-89.5 -50t-63.5 -78.5t-22 -110.5q0 -78 49 -146.5t127 -115.5q285 121 416 121q104 0 155.5 -49t51.5 -127 q0 -77 -52.5 -132.5t-154.5 -55.5q-94 0 -217 42t-201 89q-101 -45 -167 -129t-66 -183q0 -62 21 -111t52.5 -80.5t82.5 -54.5t95 -34.5t107.5 -18t103.5 -7.5t97 -1h497v-92h-508q-128 0 -227 12t-180 40t-133 73.5t-80.5 114t-28.5 159.5zM389 1610l305 291q20 20 51.5 20 t51.5 -20l305 -291h-141l-203 196q-14 11 -25 0l-203 -196h-141zM510 768q200 -96 334 -96q51 0 78.5 24t27.5 70q0 86 -106 86q-133 0 -334 -84z" />
<glyph unicode="&#xcb;" horiz-adv-x="1146" d="M14 399q0 111 70.5 209.5t177.5 161.5q-83 54 -135.5 137t-52.5 178q0 204 151.5 290.5t458.5 86.5h451v-92h-428q-58 0 -105.5 -2t-104.5 -9.5t-101 -19.5t-87.5 -33.5t-71.5 -51t-45.5 -72.5t-17.5 -97q0 -78 49 -146.5t127 -115.5q285 121 416 121q104 0 155.5 -49 t51.5 -127q0 -77 -52.5 -132.5t-154.5 -55.5q-94 0 -217 42t-201 89q-101 -45 -167 -129t-66 -183q0 -62 21 -111t52.5 -80.5t82.5 -54.5t95 -34.5t107.5 -18t103.5 -7.5t97 -1h497v-92h-507q-161 0 -277 19.5t-202 64.5t-128.5 123.5t-42.5 191.5zM305 1767q0 39 26.5 67 t65.5 28q37 0 64.5 -28.5t27.5 -66.5q0 -37 -27.5 -64.5t-64.5 -27.5q-39 0 -65.5 27.5t-26.5 64.5zM432 768q200 -96 334 -96q51 0 78.5 24t27.5 70q0 86 -106 86q-133 0 -334 -84zM737 1767q0 38 28 66.5t66 28.5q37 0 64 -28.5t27 -66.5q0 -37 -27 -64.5t-64 -27.5 q-38 0 -66 27.5t-28 64.5z" />
<glyph unicode="&#xcc;" horiz-adv-x="694" d="M78 1917h125q14 -19 37 -50t72 -96.5t81 -109t31 -43.5h-125zM104 113q0 67 52 109t125 42h16v934h-170v92h170v35q0 67 40 114.5t107 47.5q66 0 106 -38.5t40 -98.5q0 -67 -51.5 -109.5t-124.5 -42.5h-17v-934h170v-92h-170v-35q0 -67 -40 -114.5t-107 -47.5 q-65 0 -105.5 38.5t-40.5 99.5zM201 113q0 -21 12.5 -35.5t34.5 -14.5q24 0 36.5 17t12.5 41v51h-16q-38 0 -59 -18t-21 -41zM397 1290h17q38 0 59 18.5t21 41.5q0 21 -13 35t-35 14q-24 0 -36.5 -17t-12.5 -41v-51z" />
<glyph unicode="&#xcd;" horiz-adv-x="694" d="M104 113q0 67 52 109t125 42h16v934h-170v92h170v35q0 67 40 114.5t107 47.5q66 0 106 -38.5t40 -98.5q0 -67 -51.5 -109.5t-124.5 -42.5h-17v-934h170v-92h-170v-35q0 -67 -40 -114.5t-107 -47.5q-65 0 -105.5 38.5t-40.5 99.5zM201 113q0 -21 12.5 -35.5t34.5 -14.5 q24 0 36.5 17t12.5 41v51h-16q-38 0 -59 -18t-21 -41zM299 1618q-1 0 54.5 75t110.5 149l56 75h123l-221 -299h-123zM397 1290h17q38 0 59 18.5t21 41.5q0 21 -13 35t-35 14q-24 0 -36.5 -17t-12.5 -41v-51z" />
<glyph unicode="&#xce;" horiz-adv-x="694" d="M-4 1608l305 290q20 20 51 20t51 -20l306 -290h-142l-202 196q-14 11 -25 0l-203 -196h-141zM104 113q0 67 52 109t125 42h16v934h-170v92h170v35q0 67 40 114.5t107 47.5q66 0 106 -38.5t40 -98.5q0 -67 -51.5 -109.5t-124.5 -42.5h-17v-934h170v-92h-170v-35 q0 -67 -40 -114.5t-107 -47.5q-65 0 -105.5 38.5t-40.5 99.5zM201 113q0 -21 12.5 -35.5t34.5 -14.5q24 0 36.5 17t12.5 41v51h-16q-38 0 -59 -18t-21 -41zM397 1290h17q38 0 59 18.5t21 41.5q0 21 -13 35t-35 14q-24 0 -36.5 -17t-12.5 -41v-51z" />
<glyph unicode="&#xcf;" horiz-adv-x="694" d="M41 1767q0 39 26.5 67t65.5 28q37 0 64.5 -28.5t27.5 -66.5q0 -37 -27.5 -64.5t-64.5 -27.5q-39 0 -65.5 27.5t-26.5 64.5zM104 113q0 67 52 109t125 42h16v934h-170v92h170v35q0 67 40 114.5t107 47.5q66 0 106 -38.5t40 -98.5q0 -67 -51.5 -109.5t-124.5 -42.5h-17 v-934h170v-92h-170v-35q0 -67 -40 -114.5t-107 -47.5q-65 0 -105.5 38.5t-40.5 99.5zM201 113q0 -21 12.5 -35.5t34.5 -14.5q24 0 36.5 17t12.5 41v51h-16q-38 0 -59 -18t-21 -41zM397 1290h17q38 0 59 18.5t21 41.5q0 21 -13 35t-35 14q-24 0 -36.5 -17t-12.5 -41v-51z M473 1767q0 38 28 66.5t66 28.5q37 0 63.5 -28.5t26.5 -66.5q0 -37 -26.5 -64.5t-63.5 -27.5q-38 0 -66 27.5t-28 64.5z" />
<glyph unicode="&#xd0;" horiz-adv-x="1366" d="M-63 53q0 67 47 109.5t114 42.5q5 0 15.5 -1t15.5 -1v516h-139v90h139v469q0 104 58.5 161.5t162.5 57.5q190 -1 346 -39.5t266 -108t185.5 -167t111 -213.5t35.5 -250q0 -166 -36 -301.5t-108.5 -238t-191.5 -158.5t-276 -56q-59 0 -127 14t-113 29t-115.5 42t-97.5 36 v-23q0 -63 -40 -105t-107 -42q-65 0 -105 38t-40 99zM33 53q0 -21 12.5 -35t34.5 -14q25 0 37 15.5t12 39.5v52q-5 0 -15 1t-14 1q-35 0 -51 -18t-16 -42zM229 178q26 -8 128.5 -46t178 -56.5t146.5 -18.5q253 0 382.5 174t129.5 488q0 151 -52 275t-153.5 216.5t-263 143.5 t-369.5 51q-127 0 -127 -127v-469h531v-90h-531v-541z" />
<glyph unicode="&#xd1;" horiz-adv-x="1454" d="M12 1370q2 47 38.5 82t92.5 35q57 0 98.5 -35.5t41.5 -103.5v-170l888 -785v1069h101v-1157l133 -117q35 -35 38.5 -85.5t-32 -89t-100.5 -38.5q-57 0 -98.5 35.5t-41.5 104.5v164l-888 784v-1063h-101v1151l-123 109q-51 45 -47 110zM104 1356q0 -15 17 -35l61 -55v80 q0 24 -12 36.5t-27 12.5q-18 0 -28.5 -10.5t-10.5 -28.5zM422 1663q0 31 10.5 66.5t31 70t59 57.5t87.5 23q32 0 68 -20.5t62.5 -45t58 -45t55.5 -20.5q37 0 53.5 34.5t16.5 82.5h102q0 -78 -49 -146.5t-137 -68.5q-35 0 -71.5 20t-61.5 43.5t-54.5 43.5t-52.5 20 q-74 0 -74 -115h-104zM1272 117q0 -24 12 -37.5t27 -13.5q31 0 36 27t-18 46l-57 49v-71z" />
<glyph unicode="&#xd2;" horiz-adv-x="1732" d="M113 731q0 210 101 384t274 273t378 99q154 0 293 -58.5t240.5 -158.5t161 -241t59.5 -298t-59.5 -298t-161 -241t-240.5 -158.5t-293 -58.5q-205 0 -378 99t-274 273t-101 384zM213 731q0 -133 51.5 -255.5t139 -212t208.5 -142.5t254 -53q178 0 328.5 89.5t238 242.5 t87.5 331q0 107 -33 208t-93.5 182.5t-140.5 143.5t-180 96t-207 34q-178 0 -328.5 -90t-237.5 -243t-87 -331zM592 1917h125q14 -19 37 -50t72 -96.5t81 -109t31 -43.5h-125z" />
<glyph unicode="&#xd3;" horiz-adv-x="1732" d="M113 731q0 210 101 384t274 273t378 99q154 0 293 -58.5t240.5 -158.5t161 -241t59.5 -298t-59.5 -298t-161 -241t-240.5 -158.5t-293 -58.5q-205 0 -378 99t-274 273t-101 384zM213 731q0 -133 51.5 -255.5t139 -212t208.5 -142.5t254 -53q178 0 328.5 89.5t238 242.5 t87.5 331q0 107 -33 208t-93.5 182.5t-140.5 143.5t-180 96t-207 34q-178 0 -328.5 -90t-237.5 -243t-87 -331zM795 1618q-1 0 54.5 75t110.5 149l56 75h123l-221 -299h-123z" />
<glyph unicode="&#xd4;" horiz-adv-x="1732" d="M113 731q0 210 101 384t274 273t378 99q154 0 293 -58.5t240.5 -158.5t161 -241t59.5 -298t-59.5 -298t-161 -241t-240.5 -158.5t-293 -58.5q-205 0 -378 99t-274 273t-101 384zM213 731q0 -133 51.5 -255.5t139 -212t208.5 -142.5t254 -53q178 0 328.5 89.5t238 242.5 t87.5 331q0 107 -33 208t-93.5 182.5t-140.5 143.5t-180 96t-207 34q-178 0 -328.5 -90t-237.5 -243t-87 -331zM510 1608l305 290q20 20 51.5 20t51.5 -20l305 -290h-142l-202 196q-14 11 -25 0l-203 -196h-141z" />
<glyph unicode="&#xd5;" horiz-adv-x="1732" d="M113 731q0 210 101 384t274 273t378 99q154 0 293 -58.5t240.5 -158.5t161 -241t59.5 -298t-59.5 -298t-161 -241t-240.5 -158.5t-293 -58.5q-205 0 -378 99t-274 273t-101 384zM213 731q0 -133 51.5 -255.5t139 -212t208.5 -142.5t254 -53q178 0 328.5 89.5t238 242.5 t87.5 331q0 107 -33 208t-93.5 182.5t-140.5 143.5t-180 96t-207 34q-178 0 -328.5 -90t-237.5 -243t-87 -331zM565 1663q0 31 10.5 66.5t31.5 70t59.5 57.5t87.5 23q32 0 68 -20.5t62 -45t57.5 -45t55.5 -20.5q37 0 53.5 34.5t16.5 82.5h102q0 -78 -49 -146.5t-137 -68.5 q-35 0 -71.5 20t-61.5 43.5t-54.5 43.5t-52.5 20q-73 0 -73 -115h-105z" />
<glyph unicode="&#xd6;" horiz-adv-x="1732" d="M113 731q0 210 101 384t274 273t378 99q154 0 293 -58.5t240.5 -158.5t161 -241t59.5 -298t-59.5 -298t-161 -241t-240.5 -158.5t-293 -58.5q-205 0 -378 99t-274 273t-101 384zM213 731q0 -133 51.5 -255.5t139 -212t208.5 -142.5t254 -53q178 0 328.5 89.5t238 242.5 t87.5 331q0 107 -33 208t-93.5 182.5t-140.5 143.5t-180 96t-207 34q-178 0 -328.5 -90t-237.5 -243t-87 -331zM571 1765q0 39 27 67t66 28q37 0 64.5 -28.5t27.5 -66.5q0 -37 -27.5 -64.5t-64.5 -27.5q-39 0 -66 27.5t-27 64.5zM1004 1765q0 38 28 66.5t66 28.5 q37 0 63.5 -28.5t26.5 -66.5q0 -37 -26.5 -64.5t-63.5 -27.5q-38 0 -66 27.5t-28 64.5z" />
<glyph unicode="&#xd7;" horiz-adv-x="1228" d="M156 123l391 393l-391 393l65 66l391 -393l394 393l65 -66l-393 -393l393 -393l-65 -66l-394 394l-391 -394z" />
<glyph unicode="&#xd8;" horiz-adv-x="1732" d="M98 0l209 217q-92 102 -143 234t-51 280q0 210 101 384t274 273t378 99q280 0 490 -178l147 153h131l-211 -219q94 -102 145.5 -233t51.5 -279q0 -157 -59.5 -298t-161 -241t-240.5 -158.5t-293 -58.5q-138 0 -263.5 46.5t-225.5 130.5l-148 -152h-131zM213 731 q0 -124 43 -237.5t121 -202.5l909 946q-182 158 -420 158q-178 0 -328.5 -90t-237.5 -243t-87 -331zM444 223q186 -155 422 -155q178 0 328.5 89.5t238 242.5t87.5 331q0 246 -166 440z" />
<glyph unicode="&#xd9;" horiz-adv-x="1593" d="M176 670v792h100v-805q0 -126 30 -230.5t91 -186t163 -127t237 -45.5t237 45.5t162.5 127.5t90.5 186t30 230v805h100v-792q0 -337 -167.5 -516t-452.5 -179q-286 0 -453.5 179.5t-167.5 515.5zM518 1919h125q14 -19 37 -50t72 -96.5t81 -109t31 -43.5h-125z" />
<glyph unicode="&#xda;" horiz-adv-x="1593" d="M176 670v792h100v-805q0 -126 30 -230.5t91 -186t163 -127t237 -45.5t237 45.5t162.5 127.5t90.5 186t30 230v805h100v-792q0 -337 -167.5 -516t-452.5 -179q-286 0 -453.5 179.5t-167.5 515.5zM727 1618q-1 0 54.5 75t110.5 149l56 75h123l-221 -299h-123z" />
<glyph unicode="&#xdb;" horiz-adv-x="1593" d="M176 670v792h100v-805q0 -126 30 -230.5t91 -186t163 -127t237 -45.5t237 45.5t162.5 127.5t90.5 186t30 230v805h100v-792q0 -337 -167.5 -516t-452.5 -179q-286 0 -453.5 179.5t-167.5 515.5zM440 1610l305 291q20 20 51.5 20t51.5 -20l305 -291h-141l-203 196 q-14 11 -25 0l-202 -196h-142z" />
<glyph unicode="&#xdc;" horiz-adv-x="1376" d="M16 670v792h101v-805q0 -126 30 -230t90.5 -186t162.5 -127.5t237 -45.5t237 45.5t162.5 127.5t90.5 186t30 230v805h100v-792q0 -337 -167.5 -516t-452.5 -179q-286 0 -453.5 179.5t-167.5 515.5zM338 1767q0 39 26.5 67t65.5 28q37 0 64.5 -28.5t27.5 -66.5 q0 -37 -27.5 -64.5t-64.5 -27.5q-39 0 -65.5 27.5t-26.5 64.5zM770 1767q0 38 28 66.5t66 28.5q37 0 63.5 -28.5t26.5 -66.5q0 -37 -26.5 -64.5t-63.5 -27.5q-38 0 -66 27.5t-28 64.5z" />
<glyph unicode="&#xdd;" horiz-adv-x="1175" d="M-70 1462h129q371 -345 527 -633q158 290 526 633h127q-244 -232 -387 -408.5t-215 -332.5q90 -209 90 -453v-151q0 -60 -36.5 -101t-104.5 -41t-105 41t-37 101v151q0 242 88 453q-71 154 -214.5 331t-387.5 410zM518 1618q-1 0 54.5 75t111.5 149l55 75h123l-221 -299 h-123zM545 117q0 -21 10.5 -35t30.5 -14t30.5 14t10.5 35v151q0 171 -41 312q-41 -135 -41 -312v-151z" />
<glyph unicode="&#xde;" horiz-adv-x="1245" d="M104 0v262q0 269 54 473q-49 223 -49 504v223h100v-223q0 -215 18 -340q114 336 471 336q116 0 209 -39.5t151.5 -109t89 -159.5t30.5 -194q0 -256 -126 -398t-354 -142q-176 0 -306.5 98.5t-164.5 251.5q-22 -98 -22 -281v-262h-101zM272 735q13 -131 63 -230.5 t143.5 -159.5t219.5 -60q96 0 168 32.5t111 79t63 111.5t30.5 117t6.5 108q0 84 -23 157t-68.5 130t-119.5 90t-168 33q-181 0 -288 -106t-138 -302z" />
<glyph unicode="&#xdf;" horiz-adv-x="1308" d="M102 1112q0 436 508 436q240 0 379 -111t139 -304q0 -75 -18 -147t-47 -118q184 -119 184 -362q0 -103 -39 -192.5t-114.5 -160.5t-200 -112t-283.5 -41h-204v100h221q152 0 268.5 46.5t184 139.5t67.5 220q0 34 -7.5 70.5t-24 77.5t-48.5 78.5t-76 62.5 q-143 -140 -381 -140q-110 0 -163.5 46t-53.5 112q0 70 58.5 115t158.5 45q109 0 188 -14.5t175 -47.5q55 83 55 222q0 69 -24.5 124t-65 90.5t-95.5 59t-113 33.5t-120 10q-199 0 -304 -77t-105 -261v-1112l-97 -2zM492 813q0 -59 118 -59q91 0 157 19t126 63 q-86 23 -145.5 30.5t-137.5 7.5q-55 0 -86.5 -18.5t-31.5 -42.5z" />
<glyph unicode="&#xe0;" horiz-adv-x="1103" d="M43 360q0 180 115 286t301 106q140 0 266.5 -61t171.5 -165q4 62 4 92q0 367 -383 367q-101 0 -209 -45.5t-166 -103.5l-63 71q83 74 208 122t242 48q104 0 185.5 -24t146 -75.5t99 -140.5t34.5 -212q0 -105 -26 -265q43 -138 43 -360h-101q0 8 0.5 48.5t0 61t-2.5 51 t-6 50.5q-61 -110 -181 -173t-263 -63q-74 0 -146.5 25.5t-133.5 72.5t-98.5 122t-37.5 165zM143 360q0 -125 93 -208.5t223 -83.5q176 0 279 81.5t141 210.5q-50 154 -162.5 226.5t-257.5 72.5t-230.5 -82t-85.5 -217zM244 1518h125q14 -19 37 -50t72 -96.5t81 -109 t31 -43.5h-125z" />
<glyph unicode="&#xe1;" horiz-adv-x="1103" d="M43 360q0 180 115 286t301 106q140 0 266.5 -61t171.5 -165q4 62 4 92q0 367 -383 367q-101 0 -209 -45.5t-166 -103.5l-63 71q83 74 208 122t242 48q104 0 185.5 -24t146 -75.5t99 -140.5t34.5 -212q0 -105 -26 -265q43 -138 43 -360h-101q0 8 0.5 48.5t0 61t-2.5 51 t-6 50.5q-61 -110 -181 -173t-263 -63q-74 0 -146.5 25.5t-133.5 72.5t-98.5 122t-37.5 165zM143 360q0 -125 93 -208.5t223 -83.5q176 0 279 81.5t141 210.5q-50 154 -162.5 226.5t-257.5 72.5t-230.5 -82t-85.5 -217zM487 1219q-1 0 54.5 74.5t111.5 149.5l56 75h122 l-221 -299h-123z" />
<glyph unicode="&#xe2;" horiz-adv-x="1103" d="M43 360q0 180 115 286t301 106q140 0 266.5 -61t171.5 -165q4 62 4 92q0 367 -383 367q-101 0 -209 -45.5t-166 -103.5l-63 71q83 74 208 122t242 48q104 0 185.5 -24t146 -75.5t99 -140.5t34.5 -212q0 -105 -26 -265q43 -138 43 -360h-101q0 8 0.5 48.5t0 61t-2.5 51 t-6 50.5q-61 -110 -181 -173t-263 -63q-74 0 -146.5 25.5t-133.5 72.5t-98.5 122t-37.5 165zM143 360q0 -125 93 -208.5t223 -83.5q176 0 279 81.5t141 210.5q-50 154 -162.5 226.5t-257.5 72.5t-230.5 -82t-85.5 -217zM180 1208l305 291q20 20 51.5 20t51.5 -20l305 -291 h-141l-203 197q-14 11 -25 0l-202 -197h-142z" />
<glyph unicode="&#xe3;" horiz-adv-x="1103" d="M43 360q0 180 115 286t301 106q140 0 266.5 -61t171.5 -165q4 62 4 92q0 367 -383 367q-101 0 -209 -45.5t-166 -103.5l-63 71q83 74 208 122t242 48q104 0 185.5 -24t146 -75.5t99 -140.5t34.5 -212q0 -105 -26 -265q43 -138 43 -360h-101q0 8 0.5 48.5t0 61t-2.5 51 t-6 50.5q-61 -110 -181 -173t-263 -63q-74 0 -146.5 25.5t-133.5 72.5t-98.5 122t-37.5 165zM143 360q0 -125 93 -208.5t223 -83.5q176 0 279 81.5t141 210.5q-50 154 -162.5 226.5t-257.5 72.5t-230.5 -82t-85.5 -217zM221 1268q0 31 10.5 66.5t31.5 70t59.5 57.5t87.5 23 q32 0 68 -20.5t62 -45t57.5 -45t55.5 -20.5q38 0 54 34t16 82h102q0 -78 -49 -146.5t-137 -68.5q-35 0 -71.5 20t-61.5 43.5t-54.5 43.5t-52.5 20q-73 0 -73 -114h-105z" />
<glyph unicode="&#xe4;" horiz-adv-x="1103" d="M43 360q0 180 115 286t301 106q140 0 266.5 -61t171.5 -165q4 62 4 92q0 367 -383 367q-101 0 -209 -45.5t-166 -103.5l-63 71q83 74 208 122t242 48q104 0 185.5 -24t146 -75.5t99 -140.5t34.5 -212q0 -105 -26 -265q43 -138 43 -360h-101q0 8 0.5 48.5t0 61t-2.5 51 t-6 50.5q-61 -110 -181 -173t-263 -63q-74 0 -146.5 25.5t-133.5 72.5t-98.5 122t-37.5 165zM143 360q0 -125 93 -208.5t223 -83.5q176 0 279 81.5t141 210.5q-50 154 -162.5 226.5t-257.5 72.5t-230.5 -82t-85.5 -217zM205 1368q0 39 26.5 66.5t65.5 27.5q37 0 64.5 -28 t27.5 -66q0 -37 -27.5 -64.5t-64.5 -27.5q-39 0 -65.5 27.5t-26.5 64.5zM637 1368q0 38 28 66t66 28q37 0 63.5 -28t26.5 -66q0 -37 -26.5 -64.5t-63.5 -27.5q-38 0 -66 27.5t-28 64.5z" />
<glyph unicode="&#xe5;" horiz-adv-x="1103" d="M43 360q0 180 115 286t301 106q140 0 266.5 -61t171.5 -165q4 62 4 92q0 367 -383 367q-101 0 -209 -45.5t-166 -103.5l-63 71q83 74 208 122t242 48q104 0 185.5 -24t146 -75.5t99 -140.5t34.5 -212q0 -105 -26 -265q43 -138 43 -360h-101q0 8 0.5 48.5t0 61t-2.5 51 t-6 50.5q-61 -110 -181 -173t-263 -63q-74 0 -146.5 25.5t-133.5 72.5t-98.5 122t-37.5 165zM143 360q0 -125 93 -208.5t223 -83.5q176 0 279 81.5t141 210.5q-50 154 -162.5 226.5t-257.5 72.5t-230.5 -82t-85.5 -217zM338 1374q0 82 56 138.5t138 56.5t138.5 -56.5 t56.5 -138.5t-56.5 -138t-138.5 -56t-138 56t-56 138zM428 1374q0 -45 30 -77.5t74 -32.5t73.5 32.5t29.5 77.5t-29.5 78t-73.5 33t-74 -33t-30 -78z" />
<glyph unicode="&#xe6;" horiz-adv-x="2017" d="M43 356q0 94 37.5 170t102 124t147.5 74t176 26q118 0 239.5 -43t182.5 -117q-2 105 -35 183t-88.5 123.5t-123 67t-146.5 21.5q-118 0 -226.5 -46.5t-169.5 -107.5l-67 70q74 76 200 126t263 50q72 0 140 -15t132 -47t113 -89t73 -133q64 129 178.5 206.5t272.5 77.5 q116 0 214.5 -39t162.5 -103t99.5 -145t33.5 -167q-1 -75 -40.5 -114.5t-103.5 -39.5h-784q8 -108 58.5 -197.5t145 -146.5t214.5 -57q83 0 153.5 19.5t118 53t79 70t48.5 76.5l82 -45q-57 -118 -176 -192.5t-305 -74.5q-168 0 -284.5 77.5t-176.5 217.5q-59 -133 -184 -214 t-293 -81q-126 0 -230 44.5t-168.5 132.5t-64.5 204zM143 356q0 -123 102.5 -205.5t260.5 -82.5q189 0 304.5 107t115.5 282q-69 100 -184.5 150t-235.5 50q-100 0 -181 -33t-131.5 -102.5t-50.5 -165.5zM1026 561h758q71 0 71 68q0 152 -115.5 254t-295.5 102 q-93 0 -171 -35.5t-128.5 -95.5t-81 -135t-37.5 -158z" />
<glyph unicode="&#xe7;" horiz-adv-x="1165" d="M66 518q0 157 63 282.5t187 201t288 75.5q169 0 301 -91t195 -238l-94 -46q-45 133 -158.5 208t-243.5 75q-206 0 -322 -125t-116 -342q0 -206 107 -326.5t280 -138.5q68 159 200.5 269t270.5 110q65 0 84.5 -45t-8.5 -113q-52 -132 -186 -217.5t-291 -91.5 q-15 -62 -15 -100q0 -19 25 -19h65q77 0 126.5 -51.5t49.5 -126.5q0 -72 -62.5 -127t-156.5 -55q-22 0 -41.5 3t-36 9t-28 11t-24.5 15t-18.5 14t-16 14.5l-11.5 11.5l78 69q16 -23 48 -39t71 -16q43 0 70.5 29t27.5 61q0 41 -24.5 62.5t-61.5 21.5h-100q-80 0 -80 88 q0 60 16 129q-206 25 -332 172t-126 377zM655 53q88 7 163 43.5t118 83t67 91t23 73.5q-105 -12 -210 -93t-161 -198z" />
<glyph unicode="&#xe8;" horiz-adv-x="1159" d="M66 510q0 111 37.5 214t104 181t165 125t213.5 47q122 0 221 -38t161.5 -102t96 -145t33.5 -171q0 -69 -41.5 -110.5t-104.5 -41.5h-784q6 -80 37.5 -153.5t83.5 -131.5t129 -92.5t168 -34.5q83 0 153.5 21.5t118 56.5t78.5 73t49 79l84 -47q-27 -56 -67.5 -103 t-98.5 -87t-139.5 -62.5t-177.5 -22.5q-155 0 -275 74t-182.5 197.5t-62.5 273.5zM168 561h758q40 0 55.5 13.5t15.5 54.5q0 152 -115.5 254t-295.5 102q-93 0 -171 -35.5t-128.5 -95.5t-81 -135t-37.5 -158zM301 1518h125q14 -19 37 -50t72 -96.5t81 -109t31 -43.5h-125z " />
<glyph unicode="&#xe9;" horiz-adv-x="1159" d="M66 510q0 111 37.5 214t104 181t165 125t213.5 47q122 0 221 -38t161.5 -102t96 -145t33.5 -171q0 -69 -41.5 -110.5t-104.5 -41.5h-784q6 -80 37.5 -153.5t83.5 -131.5t129 -92.5t168 -34.5q83 0 153.5 21.5t118 56.5t78.5 73t49 79l84 -47q-27 -56 -67.5 -103 t-98.5 -87t-139.5 -62.5t-177.5 -22.5q-155 0 -275 74t-182.5 197.5t-62.5 273.5zM168 561h758q40 0 55.5 13.5t15.5 54.5q0 152 -115.5 254t-295.5 102q-93 0 -171 -35.5t-128.5 -95.5t-81 -135t-37.5 -158zM522 1221q-1 0 54.5 74.5t111.5 149.5l55 75h123l-221 -299h-123 z" />
<glyph unicode="&#xea;" horiz-adv-x="1159" d="M66 510q0 111 37.5 214t104 181t165 125t213.5 47q122 0 221 -38t161.5 -102t96 -145t33.5 -171q0 -69 -41.5 -110.5t-104.5 -41.5h-784q6 -80 37.5 -153.5t83.5 -131.5t129 -92.5t168 -34.5q83 0 153.5 21.5t118 56.5t78.5 73t49 79l84 -47q-27 -56 -67.5 -103 t-98.5 -87t-139.5 -62.5t-177.5 -22.5q-155 0 -275 74t-182.5 197.5t-62.5 273.5zM168 561h758q40 0 55.5 13.5t15.5 54.5q0 152 -115.5 254t-295.5 102q-93 0 -171 -35.5t-128.5 -95.5t-81 -135t-37.5 -158zM229 1210l306 291q20 20 51 20t51 -20l305 -291h-141l-203 197 q-14 11 -25 0l-202 -197h-142z" />
<glyph unicode="&#xeb;" horiz-adv-x="1159" d="M66 510q0 111 37.5 214t104 181t165 125t213.5 47q122 0 221 -38t161.5 -102t96 -145t33.5 -171q0 -69 -41.5 -110.5t-104.5 -41.5h-784q6 -80 37.5 -153.5t83.5 -131.5t129 -92.5t168 -34.5q83 0 153.5 21.5t118 56.5t78.5 73t49 79l84 -47q-27 -56 -67.5 -103 t-98.5 -87t-139.5 -62.5t-177.5 -22.5q-155 0 -275 74t-182.5 197.5t-62.5 273.5zM168 561h758q40 0 55.5 13.5t15.5 54.5q0 152 -115.5 254t-295.5 102q-93 0 -171 -35.5t-128.5 -95.5t-81 -135t-37.5 -158zM279 1368q0 39 26.5 66.5t65.5 27.5q37 0 64.5 -28t27.5 -66 q0 -37 -27.5 -64.5t-64.5 -27.5q-39 0 -65.5 27.5t-26.5 64.5zM711 1368q0 38 28 66t66 28q37 0 63.5 -28t26.5 -66q0 -37 -26.5 -64.5t-63.5 -27.5q-38 0 -66 27.5t-28 64.5z" />
<glyph unicode="&#xec;" horiz-adv-x="344" d="M-106 1520h124q14 -19 37 -50t72 -96.5t81.5 -109t31.5 -43.5h-125zM-25 0q99 253 140 393q-18 51 -32 98.5t-30.5 109t-25 114.5t-13.5 109.5t2.5 100t24 79t50 54.5t81.5 19q39 0 68 -12.5t46.5 -36t29 -53.5t13 -70t0 -79.5t-10 -88.5t-17.5 -90t-23 -91t-24.5 -85.5 t-24.5 -77.5q41 -140 140 -393h-107q-8 16 -35.5 114t-54.5 171q-27 -73 -54.5 -171t-35.5 -114h-107zM121 881q-9 -94 8 -205t43 -168q26 57 43 168t8 205t-51 94t-51 -94z" />
<glyph unicode="&#xed;" horiz-adv-x="436" d="M23 0q95 243 139 393q-18 51 -32 98.5t-30.5 109t-25 114.5t-13.5 109.5t2.5 100t24 79t50 54.5t81.5 19q39 0 68 -12.5t46.5 -36t29 -53.5t13 -70t0 -79.5t-10 -88.5t-17.5 -90t-23 -91t-24.5 -85.5t-24.5 -77.5q41 -140 140 -393h-107q-8 16 -35.5 114t-54.5 171 q-27 -73 -54.5 -171t-35.5 -114h-106zM145 1221q-1 0 54.5 74.5t111.5 149.5l56 75h122l-221 -299h-123zM168 881q-9 -94 8 -205t43 -168q26 57 43 168t8 205t-51 94t-51 -94z" />
<glyph unicode="&#xee;" horiz-adv-x="344" d="M-184 1210l305 291q20 20 51 20t51 -20l305 -291h-141l-203 197q-13 11 -24 0l-203 -197h-141zM-25 0q99 253 140 393q-18 51 -32 98.5t-30.5 109t-25 114.5t-13.5 109.5t2.5 100t24 79t50 54.5t81.5 19q39 0 68 -12.5t46.5 -36t29 -53.5t13 -70t0 -79.5t-10 -88.5 t-17.5 -90t-23 -91t-24.5 -85.5t-24.5 -77.5q41 -140 140 -393h-107q-8 16 -35.5 114t-54.5 171q-27 -73 -54.5 -171t-35.5 -114h-107zM121 881q-9 -94 8 -205t43 -168q26 57 43 168t8 205t-51 94t-51 -94z" />
<glyph unicode="&#xef;" horiz-adv-x="344" d="M-135 1368q0 39 26.5 66.5t65.5 27.5q37 0 64.5 -28t27.5 -66q0 -37 -27.5 -64.5t-64.5 -27.5q-39 0 -65.5 27.5t-26.5 64.5zM-25 0q99 253 140 393q-18 51 -32 98.5t-30.5 109t-25 114.5t-13.5 109.5t2.5 100t24 79t50 54.5t81.5 19q39 0 68 -12.5t46.5 -36t29 -53.5 t13 -70t0 -79.5t-10 -88.5t-17.5 -90t-23 -91t-24.5 -85.5t-24.5 -77.5q41 -140 140 -393h-107q-8 16 -35.5 114t-54.5 171q-27 -73 -54.5 -171t-35.5 -114h-107zM121 881q-9 -94 8 -205t43 -168q26 57 43 168t8 205t-51 94t-51 -94zM297 1368q0 38 28 66t66 28 q37 0 63.5 -28t26.5 -66q0 -37 -26.5 -64.5t-63.5 -27.5q-38 0 -66 27.5t-28 64.5z" />
<glyph unicode="&#xf0;" horiz-adv-x="1099" d="M123 444q0 212 129 344t321 132q45 0 105 -11q-87 118 -168 236l-250 -182v120l193 142l-162 237h135l119 -170l235 172v-121l-178 -131l336 -477q86 -127 86 -291q0 -211 -128 -340t-321 -129q-196 0 -324 128.5t-128 340.5zM229 444q0 -163 99 -264.5t247 -101.5 q144 0 242 101.5t98 264.5q0 165 -98.5 269t-243.5 104t-244.5 -104.5t-99.5 -268.5z" />
<glyph unicode="&#xf1;" horiz-adv-x="1193" d="M10 1053h115q74 -103 133 -269q62 126 188 209.5t271 83.5q75 0 143 -23.5t124.5 -70t90 -124t33.5 -177.5v-682h-100v682q0 137 -80.5 220t-210.5 83q-136 0 -243.5 -84.5t-170.5 -224.5q1 -4 10 -45t18 -88t19 -111t16.5 -141t6.5 -152q0 -85 -43 -124.5t-109 -39.5 q-151 0 -151 164q0 85 30.5 230.5t98.5 304.5q-25 85 -76 194t-113 185zM170 133q0 -65 51 -65t51 65q0 52 -1.5 98t-3 76.5t-5.5 69t-6.5 55.5t-8 57.5t-7.5 55.5q-28 -84 -49 -209.5t-21 -202.5zM336 1266q0 31 10.5 66.5t31 70t59 57.5t87.5 23q32 0 68 -20.5t62.5 -45 t58 -45t55.5 -20.5q38 0 54 34t16 82h102q0 -78 -49 -146.5t-137 -68.5q-35 0 -71.5 20t-61.5 43.5t-54.5 43.5t-52.5 20q-74 0 -74 -114h-104z" />
<glyph unicode="&#xf2;" horiz-adv-x="1191" d="M66 518q0 165 70.5 293.5t191 197t268.5 68.5t268.5 -68.5t191 -197t70.5 -293.5q0 -124 -41 -228.5t-111.5 -175t-167.5 -110t-208 -39.5q-230 0 -381 152t-151 401zM166 518q0 -204 124 -332.5t308 -128.5q182 0 305 128.5t123 332.5q0 206 -124 336.5t-306 130.5 t-306 -130.5t-124 -336.5zM324 1520h125q14 -19 37 -50t72 -96.5t81 -109t31 -43.5h-125z" />
<glyph unicode="&#xf3;" horiz-adv-x="1191" d="M66 518q0 165 70.5 293.5t191 197t268.5 68.5t268.5 -68.5t191 -197t70.5 -293.5q0 -124 -41 -228.5t-111.5 -175t-167.5 -110t-208 -39.5q-230 0 -381 152t-151 401zM166 518q0 -204 124 -332.5t308 -128.5q182 0 305 128.5t123 332.5q0 206 -124 336.5t-306 130.5 t-306 -130.5t-124 -336.5zM520 1221q-1 0 54.5 74.5t111.5 149.5l55 75h123l-221 -299h-123z" />
<glyph unicode="&#xf4;" horiz-adv-x="1191" d="M66 518q0 165 70.5 293.5t191 197t268.5 68.5t268.5 -68.5t191 -197t70.5 -293.5q0 -124 -41 -228.5t-111.5 -175t-167.5 -110t-208 -39.5q-230 0 -381 152t-151 401zM166 518q0 -204 124 -332.5t308 -128.5q182 0 305 128.5t123 332.5q0 206 -124 336.5t-306 130.5 t-306 -130.5t-124 -336.5zM240 1212l305 291q20 20 51 20t51 -20l305 -291h-141l-203 197q-13 11 -24 0l-203 -197h-141z" />
<glyph unicode="&#xf5;" horiz-adv-x="1191" d="M66 518q0 165 70.5 293.5t191 197t268.5 68.5t268.5 -68.5t191 -197t70.5 -293.5q0 -124 -41 -228.5t-111.5 -175t-167.5 -110t-208 -39.5q-230 0 -381 152t-151 401zM166 518q0 -204 124 -332.5t308 -128.5q182 0 305 128.5t123 332.5q0 206 -124 336.5t-306 130.5 t-306 -130.5t-124 -336.5zM295 1268q0 31 10.5 66.5t31 70t59 57.5t87.5 23q32 0 68 -20.5t62.5 -45t58 -45t55.5 -20.5q38 0 54 34t16 82h102q0 -78 -49 -146.5t-137 -68.5q-35 0 -71.5 20t-61.5 43.5t-54.5 43.5t-52.5 20q-74 0 -74 -114h-104z" />
<glyph unicode="&#xf6;" horiz-adv-x="1191" d="M66 518q0 165 70.5 293.5t191 197t268.5 68.5t268.5 -68.5t191 -197t70.5 -293.5q0 -124 -41 -228.5t-111.5 -175t-167.5 -110t-208 -39.5q-230 0 -381 152t-151 401zM166 518q0 -204 124 -332.5t308 -128.5q182 0 305 128.5t123 332.5q0 206 -124 336.5t-306 130.5 t-306 -130.5t-124 -336.5zM289 1370q0 39 26.5 66.5t65.5 27.5q37 0 64.5 -28t27.5 -66q0 -37 -27.5 -64.5t-64.5 -27.5q-39 0 -65.5 27.5t-26.5 64.5zM721 1370q0 38 28 66t66 28q37 0 63.5 -28t26.5 -66q0 -37 -26.5 -64.5t-63.5 -27.5q-38 0 -66 27.5t-28 64.5z" />
<glyph unicode="&#xf7;" horiz-adv-x="1220" d="M139 469v92h942v-92h-942zM510 213q0 44 30.5 75t73.5 31t75 -31t32 -75q0 -42 -32 -73t-75 -31t-73.5 30.5t-30.5 73.5zM510 817q0 43 30.5 74t73.5 31t75 -31t32 -74q0 -44 -32 -75t-75 -31t-73.5 31t-30.5 75z" />
<glyph unicode="&#xf8;" horiz-adv-x="1191" d="M27 0l151 158q-112 143 -112 360q0 165 70.5 293.5t191 197t268.5 68.5q202 0 346 -125l96 101h131l-161 -168q118 -150 118 -367q0 -124 -41 -228.5t-111.5 -175t-167.5 -110t-208 -39.5q-211 0 -354 125l-86 -90h-131zM166 518q0 -165 84 -285l622 648 q-113 104 -276 104q-182 0 -306 -130.5t-124 -336.5zM313 162q117 -105 285 -105q182 0 305 128.5t123 332.5q0 165 -90 293z" />
<glyph unicode="&#xf9;" horiz-adv-x="1118" d="M86 371v682h98v-682q0 -158 74.5 -230.5t204.5 -72.5q133 0 234.5 65t140.5 168q-86 325 -86 621q0 70 44 112.5t103 42.5q66 0 108 -41t42 -112q0 -319 -97 -625q8 -59 52 -119.5t104 -87.5v-92q-82 14 -143.5 79t-77.5 126q-58 -102 -176.5 -166t-247.5 -64 q-165 0 -271 99t-106 297zM266 1518h125q14 -19 37 -50t72 -96.5t81 -109t31 -43.5h-125zM852 922q0 -334 45 -516q53 192 53 518q0 61 -51 61q-25 0 -36 -14.5t-11 -48.5z" />
<glyph unicode="&#xfa;" horiz-adv-x="1118" d="M86 371v682h98v-682q0 -158 74.5 -230.5t204.5 -72.5q133 0 234.5 65t140.5 168q-86 325 -86 621q0 70 44 112.5t103 42.5q66 0 108 -41t42 -112q0 -319 -97 -625q8 -59 52 -119.5t104 -87.5v-92q-82 14 -143.5 79t-77.5 126q-58 -102 -176.5 -166t-247.5 -64 q-165 0 -271 99t-106 297zM428 1212q-1 0 54.5 75t111.5 149l55 75h123l-221 -299h-123zM852 922q0 -334 45 -516q53 192 53 518q0 61 -51 61q-25 0 -36 -14.5t-11 -48.5z" />
<glyph unicode="&#xfb;" horiz-adv-x="1179" d="M147 371v682h99v-682q0 -158 74 -230.5t204 -72.5q133 0 234.5 65t140.5 168q-86 325 -86 621q0 70 44.5 112.5t103.5 42.5q66 0 107.5 -41t41.5 -112q0 -322 -96 -625q8 -59 51.5 -119.5t103.5 -87.5v-92q-82 14 -143.5 79t-77.5 126q-58 -102 -176.5 -166t-247.5 -64 q-165 0 -271 99t-106 297zM223 1206l305 291q20 20 51.5 20t51.5 -20l305 -291h-141l-203 197q-14 11 -25 0l-202 -197h-142zM913 922q0 -334 45 -516q54 196 54 518q0 61 -51 61q-48 0 -48 -63z" />
<glyph unicode="&#xfc;" horiz-adv-x="1118" d="M86 371v682h98v-682q0 -158 74.5 -230.5t204.5 -72.5q133 0 234.5 65t140.5 168q-86 325 -86 621q0 70 44 112.5t103 42.5q66 0 108 -41t42 -112q0 -319 -97 -625q8 -59 52 -119.5t104 -87.5v-92q-82 14 -143.5 79t-77.5 126q-58 -102 -176.5 -166t-247.5 -64 q-165 0 -271 99t-106 297zM256 1364q0 39 26.5 66.5t65.5 27.5q37 0 64.5 -28t27.5 -66q0 -37 -27.5 -64.5t-64.5 -27.5q-39 0 -65.5 27.5t-26.5 64.5zM688 1364q0 38 28 66t66 28q37 0 63.5 -28t26.5 -66q0 -37 -26.5 -64.5t-63.5 -27.5q-38 0 -66 27.5t-28 64.5zM852 922 q0 -334 45 -516q53 192 53 518q0 61 -51 61q-25 0 -36 -14.5t-11 -48.5z" />
<glyph unicode="&#xfd;" horiz-adv-x="1200" d="M92 502v551h101v-551q0 -102 26 -175t71.5 -111t97 -54.5t114.5 -16.5q107 0 206 56t175 157v576q0 62 40.5 102.5t96.5 40.5q55 0 94 -38t39 -105q0 -140 -44.5 -293.5t-125.5 -282.5v-237q0 -245 -123 -382.5t-344 -137.5q-340 0 -399 305h123q37 -211 297 -211 q45 0 88.5 9t91.5 35t83.5 66.5t59 110t23.5 158.5v155q-169 -176 -379 -176q-59 0 -112 10.5t-109.5 41t-97 78.5t-67 130t-26.5 189zM487 1219q-1 0 54.5 74.5t111.5 149.5l56 75h122l-221 -299h-123zM983 535q76 189 76 399q0 51 -39 51q-18 0 -27.5 -14.5t-9.5 -36.5 v-399z" />
<glyph unicode="&#xfe;" horiz-adv-x="1267" d="M104 76q0 269 54 473q-49 223 -49 504v409h100v-409q0 -215 18 -340q55 163 183.5 264.5t310.5 101.5q116 0 209 -44.5t151 -119.5t88.5 -169t30.5 -199q0 -259 -127 -415.5t-352 -156.5q-175 0 -317 113.5t-177 267.5q-22 -98 -22 -280v-453h-101v453zM272 549 q13 -131 68.5 -238.5t155.5 -175t225 -67.5q69 0 126.5 18.5t96 48.5t67.5 72t45.5 84.5t27 91.5t13.5 87t3 77q0 84 -23.5 161.5t-68 140.5t-119 100.5t-168.5 37.5q-180 0 -298.5 -120.5t-150.5 -317.5z" />
<glyph unicode="&#xff;" horiz-adv-x="1200" d="M92 502v551h101v-551q0 -102 26 -175t71.5 -111t97 -54.5t114.5 -16.5q107 0 206 56t175 157v576q0 62 40.5 102.5t96.5 40.5q55 0 94 -38t39 -105q0 -140 -44.5 -293.5t-125.5 -282.5v-237q0 -245 -123 -382.5t-344 -137.5q-340 0 -399 305h123q37 -211 297 -211 q45 0 88.5 9t91.5 35t83.5 66.5t59 110t23.5 158.5v155q-169 -176 -379 -176q-59 0 -112 10.5t-109.5 41t-97 78.5t-67 130t-26.5 189zM238 1366q0 39 26.5 66.5t65.5 27.5q37 0 64.5 -28t27.5 -66q0 -37 -27.5 -64.5t-64.5 -27.5q-39 0 -65.5 27.5t-26.5 64.5zM670 1366 q0 38 28 66t66 28q37 0 63.5 -28t26.5 -66q0 -37 -26.5 -64.5t-63.5 -27.5q-38 0 -66 27.5t-28 64.5zM983 535q76 189 76 399q0 51 -39 51q-18 0 -27.5 -14.5t-9.5 -36.5v-399z" />
<glyph unicode="&#x131;" horiz-adv-x="454" d="M31 0q95 243 139 393q-18 51 -32 98.5t-30.5 109t-25 114.5t-13.5 109.5t2.5 100t24 79t50 54.5t81.5 19q39 0 68 -12.5t46.5 -36t29 -53.5t13.5 -70t0.5 -79.5t-10 -88t-17.5 -90.5t-23 -91t-24.5 -85t-24.5 -78q44 -150 139 -393h-107q-8 16 -35.5 114t-54.5 171 q-27 -73 -54.5 -171t-35.5 -114h-106zM176 881q-9 -94 8 -205t43 -168q26 57 43 168t8 205t-51 94t-51 -94z" />
<glyph unicode="&#x152;" horiz-adv-x="2236" d="M113 731q0 210 101 384t274 273t378 99q218 0 398 -113q145 88 460 88h451v-92h-428q-58 0 -105.5 -2t-104.5 -9.5t-101 -19.5t-87.5 -33.5t-71.5 -51t-45.5 -72.5t-17.5 -97q0 -78 49 -146.5t128 -115.5q285 121 415 121q104 0 155.5 -49t51.5 -127q0 -77 -52.5 -132.5 t-154.5 -55.5q-94 0 -216.5 42t-200.5 89q-101 -45 -167.5 -129t-66.5 -183q0 -62 21 -111t52.5 -80.5t82.5 -54.5t95 -34.5t107.5 -18t103.5 -7.5t97 -1h498v-92h-508q-306 0 -461 74q-174 -99 -377 -99q-205 0 -378 99t-274 273t-101 384zM213 731q0 -133 51.5 -255.5 t139 -212t208.5 -142.5t254 -53q153 0 287 67q-98 91 -98 264q0 111 70.5 209.5t177.5 161.5q-83 54 -136 137t-53 178q0 140 72 224q-147 86 -320 86q-178 0 -328.5 -90t-237.5 -243t-87 -331zM1473 768q200 -96 333 -96q51 0 79 24t28 70q0 86 -107 86q-132 0 -333 -84z " />
<glyph unicode="&#x153;" horiz-adv-x="2119" d="M66 526q0 165 70.5 293.5t191 197t268.5 68.5q160 0 291.5 -86t185.5 -227q49 144 173.5 232t297.5 88q115 0 214.5 -41t163.5 -107t100 -147t34 -162q-1 -75 -41 -113.5t-104 -38.5h-787q9 -107 60 -199t145.5 -152t214.5 -60q83 0 154 21t118.5 56.5t79 73t48.5 78.5 l84 -47q-57 -119 -178 -196.5t-306 -77.5q-165 0 -292 84t-177 221q-51 -136 -184.5 -224t-292.5 -88q-230 0 -381 152t-151 401zM166 526q0 -204 123.5 -332t308.5 -128q171 0 292 115.5t134 301.5v84q-13 189 -135 307.5t-293 118.5q-182 0 -306 -130.5t-124 -336.5z M1126 575h758q48 0 60 12t12 56q0 152 -116 254t-296 102q-75 0 -140.5 -23t-113 -63t-83.5 -94t-56 -115.5t-25 -128.5z" />
<glyph unicode="&#x160;" horiz-adv-x="1249" d="M84 483h104q24 -188 160 -302t365 -113q120 1 215 40t152.5 117t58.5 183q1 53 -17.5 96t-47 71.5t-76.5 53.5t-91 40t-106 33q-45 13 -97.5 25.5t-119 28t-103.5 24.5q-148 36 -226.5 124t-78.5 226q0 116 68 199t172.5 120.5t230.5 37.5q138 0 245.5 -36t171 -112 t58.5 -182q-2 -57 -20 -102h-109q11 16 20 42.5t9 47.5q0 118 -104 183t-271 65q-65 0 -128 -16.5t-117 -47t-87.5 -82.5t-33.5 -117q0 -103 59 -164.5t199 -99.5q51 -14 144 -35t151 -36q98 -25 165.5 -53.5t124 -72.5t84 -108.5t27.5 -152.5q0 -89 -36.5 -167.5 t-102.5 -137.5t-166 -93.5t-219 -34.5q-152 0 -268.5 37.5t-191 106.5t-116 160t-51.5 204zM303 1923h141l203 -197q11 -11 25 0l202 197h142l-305 -291q-20 -20 -51.5 -20t-51.5 20z" />
<glyph unicode="&#x161;" horiz-adv-x="985" d="M31 299q0 88 51.5 152t140.5 96v-101q-51 -18 -71.5 -52t-20.5 -89q0 -43 20.5 -82.5t63 -75.5t121 -57.5t182.5 -21.5q175 0 263.5 62t88.5 177q0 32 -3 53.5t-14.5 46.5t-33 42t-60 33.5t-93.5 29.5q-42 9 -144 28t-155 31q-267 59 -267 254q0 86 55.5 144t143.5 83 t203 25q75 0 140.5 -14t124 -43.5t100 -81.5t59.5 -123h-119q-55 170 -305 170q-60 0 -110 -7t-95 -23t-70.5 -47t-25.5 -74q0 -60 52 -105t153 -70q62 -15 166 -34.5t124 -24.5q87 -20 144.5 -51t84.5 -70.5t36.5 -76t9.5 -83.5q0 -157 -128.5 -250.5t-326.5 -93.5 q-110 0 -197.5 22.5t-140 57.5t-87 80t-47.5 85.5t-13 78.5zM160 1530h141l203 -197q11 -11 24 0l203 197h141l-305 -291q-20 -20 -51 -20t-51 20z" />
<glyph unicode="&#x178;" horiz-adv-x="1210" d="M-49 1462h129q368 -343 526 -633q156 288 527 633h127q-244 -233 -387.5 -409t-215.5 -332q91 -211 91 -453v-151q0 -60 -37 -101t-105 -41t-104.5 41t-36.5 101v151q0 242 88 453q-71 154 -214.5 331t-387.5 410zM301 1765q0 39 26.5 67t65.5 28q37 0 64.5 -28.5 t27.5 -66.5q0 -37 -27.5 -64.5t-64.5 -27.5q-39 0 -65.5 27.5t-26.5 64.5zM565 117q0 -21 10.5 -35t30.5 -14t30.5 14t10.5 35v151q0 171 -41 312q-41 -135 -41 -312v-151zM733 1765q0 38 28 66.5t66 28.5q37 0 64 -28.5t27 -66.5q0 -37 -27 -64.5t-64 -27.5q-38 0 -66 27.5 t-28 64.5z" />
<glyph unicode="&#x17d;" horiz-adv-x="1169" d="M-47 104q0 79 56.5 123t148.5 11q15 -8 41 -15l581 1147h-719v92h766l52 101q24 44 54.5 63t80.5 19q60 0 97.5 -34.5t37.5 -88.5q0 -73 -58 -112.5t-169 -39.5h-35l-596 -1180q316 -98 590 -98h256v-92h-271q-180 0 -319.5 25t-300.5 77l-23 -45q-36 -82 -137 -82 q-59 0 -96 37t-37 92zM49 106q0 -15 10.5 -26.5t30.5 -11.5q32 0 45 30l19 37l-19 6q-41 13 -63.5 4t-22.5 -39zM248 1923h141l203 -197q11 -11 24 0l203 197h142l-306 -291q-20 -20 -51 -20t-51 20zM934 1462q29 0 45 1t36 6.5t29 18t9 32.5q0 14 -10.5 25t-28.5 11 q-37 0 -53 -40z" />
<glyph unicode="&#x17e;" horiz-adv-x="991" d="M48 89.5q-3 23.5 6.5 58.5t35.5 71l576 742h-609v92h664l65 84q51 69 123 69q51 0 86 -33t35 -86q0 -59 -44.5 -92.5t-117.5 -33.5h-96l-606 -797q-20 -29 -12 -50.5t34 -21.5h723v-92h-712q-108 0 -138 49q-10 17 -13 40.5zM188 1522h142l202 -197q11 -11 25 0l203 197 h141l-305 -291q-20 -20 -51 -20t-51 20zM827 1053h58q45 0 45 32q0 15 -8 23t-21 8q-21 0 -47 -31z" />
<glyph unicode="&#x192;" horiz-adv-x="976" d="M14 -178h95q-22 -109 57 -109q93 0 133 183l186 890h-235l20 93h236l74 348q30 140 92 200t162 60q76 0 113 -53t16 -148h-95q22 109 -57 109q-27 0 -47.5 -11.5t-32.5 -25.5t-23 -43t-15.5 -47t-12.5 -56l-72 -333h232l-21 -93h-229l-191 -905q-30 -140 -92.5 -200 t-163.5 -60q-76 0 -113 53t-16 148z" />
<glyph unicode="&#x2c6;" horiz-adv-x="884" d="M86 1610l305 291q20 20 51.5 20t51.5 -20l305 -291h-142l-202 196q-14 11 -25 0l-203 -196h-141z" />
<glyph unicode="&#x2c7;" horiz-adv-x="884" d="M86 1927h141l203 -196q11 -11 25 0l202 196h142l-305 -291q-20 -20 -51.5 -20t-51.5 20z" />
<glyph unicode="&#x2d8;" horiz-adv-x="905" d="M186 1792h101q0 -68 46.5 -109t119.5 -41q74 0 119.5 41t45.5 109h101q0 -99 -74 -172.5t-192 -73.5q-119 0 -193 73t-74 173z" />
<glyph unicode="&#x2d9;" horiz-adv-x="479" d="M154 1217v210h172v-210h-172z" />
<glyph unicode="&#x2da;" horiz-adv-x="712" d="M158 1767q0 82 56 138.5t138 56.5t138.5 -56.5t56.5 -138.5t-56.5 -138t-138.5 -56t-138 56t-56 138zM248 1767q0 -45 30 -77.5t74 -32.5t73.5 32.5t29.5 77.5t-29.5 78t-73.5 33t-74 -33t-30 -78z" />
<glyph unicode="&#x2dc;" horiz-adv-x="907" d="M123 1665q0 31 10.5 66.5t31 70t59 57.5t87.5 23q32 0 68 -20.5t62.5 -45t58 -45t55.5 -20.5q37 0 53.5 34.5t16.5 82.5h102q0 -78 -49 -146.5t-137 -68.5q-35 0 -71.5 20t-61.5 43.5t-54.5 43.5t-52.5 20q-74 0 -74 -115h-104z" />
<glyph unicode="&#x3c0;" horiz-adv-x="1370" d="M98 961v92h881v34q0 67 40 114.5t107 47.5q66 0 106 -38.5t40 -98.5q0 -67 -51.5 -109t-124.5 -42h-17v-961h-100v961h-584v-961h-100v961h-197zM1079 1053h17q38 0 59 18t21 41q0 21 -13 35t-35 14q-25 0 -37 -16.5t-12 -40.5v-51z" />
<glyph unicode="&#x2000;" horiz-adv-x="981" />
<glyph unicode="&#x2001;" horiz-adv-x="1962" />
<glyph unicode="&#x2002;" horiz-adv-x="981" />
<glyph unicode="&#x2003;" horiz-adv-x="1962" />
<glyph unicode="&#x2004;" horiz-adv-x="654" />
<glyph unicode="&#x2005;" horiz-adv-x="490" />
<glyph unicode="&#x2006;" horiz-adv-x="327" />
<glyph unicode="&#x2007;" horiz-adv-x="327" />
<glyph unicode="&#x2008;" horiz-adv-x="245" />
<glyph unicode="&#x2009;" horiz-adv-x="392" />
<glyph unicode="&#x200a;" horiz-adv-x="109" />
<glyph unicode="&#x2010;" horiz-adv-x="634" d="M98 469v92h439v-92h-439z" />
<glyph unicode="&#x2011;" horiz-adv-x="634" d="M98 469v92h439v-92h-439z" />
<glyph unicode="&#x2012;" horiz-adv-x="634" d="M98 469v92h439v-92h-439z" />
<glyph unicode="&#x2013;" horiz-adv-x="1220" d="M98 469v92h1024v-92h-1024z" />
<glyph unicode="&#x2014;" horiz-adv-x="1712" d="M98 469v92h1516v-92h-1516z" />
<glyph unicode="&#x2018;" horiz-adv-x="532" d="M119 1182v145q0 94 58 153.5t153 59.5h102v-88h-129q-90 0 -90 -109v-24q21 35 80 35q74 0 124 -49.5t50 -122.5t-50 -122.5t-124 -49.5q-75 0 -124.5 49t-49.5 123zM213 1182q0 -34 23 -57t57 -23t57 23t23 57t-23 57t-57 23t-57 -23t-23 -57z" />
<glyph unicode="&#x2019;" horiz-adv-x="532" d="M66 1368q0 73 50 122.5t124 49.5q75 0 124.5 -49t49.5 -123v-145q0 -94 -58 -153.5t-153 -59.5h-103v88h129q90 0 90 108v25q-21 -35 -79 -35q-74 0 -124 49.5t-50 122.5zM160 1368q0 -34 23 -57t57 -23t56.5 23t22.5 57t-22.5 57t-56.5 23t-57 -23t-23 -57z" />
<glyph unicode="&#x201a;" horiz-adv-x="544" d="M78 147q0 73 50 122.5t124 49.5q75 0 124.5 -49t49.5 -123v-145q0 -94 -58 -153.5t-153 -59.5h-102v88h129q90 0 90 109v24q-21 -35 -80 -35q-74 0 -124 49.5t-50 122.5zM172 147q0 -34 23 -56.5t57 -22.5t57 22.5t23 56.5t-23 57t-57 23t-57 -23t-23 -57z" />
<glyph unicode="&#x201c;" horiz-adv-x="942" d="M119 1182v145q0 94 58 153.5t153 59.5h102v-88h-129q-90 0 -90 -109v-24q21 35 80 35q74 0 124 -49.5t50 -122.5t-50 -122.5t-124 -49.5q-75 0 -124.5 49t-49.5 123zM213 1182q0 -34 23 -57t57 -23t57 23t23 57t-23 57t-57 23t-57 -23t-23 -57zM528 1178v145 q0 94 58 153.5t153 59.5h103v-88h-129q-90 0 -90 -109v-24q21 35 79 35q74 0 124.5 -49.5t50.5 -122.5t-50.5 -122.5t-124.5 -49.5q-75 0 -124.5 49t-49.5 123zM623 1178q0 -34 22.5 -57t56.5 -23t57 23t23 57t-23 56.5t-57 22.5t-56.5 -22.5t-22.5 -56.5z" />
<glyph unicode="&#x201d;" horiz-adv-x="942" d="M66 1368q0 73 50 122.5t124 49.5q75 0 124.5 -49t49.5 -123v-145q0 -94 -58 -153.5t-153 -59.5h-103v88h129q90 0 90 108v25q-21 -35 -79 -35q-74 0 -124 49.5t-50 122.5zM160 1368q0 -34 23 -57t57 -23t56.5 23t22.5 57t-22.5 57t-56.5 23t-57 -23t-23 -57zM475 1364 q0 73 50 122.5t124 49.5q75 0 124.5 -49t49.5 -123v-145q0 -94 -58 -153.5t-153 -59.5h-102v88h129q90 0 90 108v25q-21 -35 -80 -35q-74 0 -124 49.5t-50 122.5zM569 1364q0 -34 23 -57t57 -23t57 23t23 57t-23 57t-57 23t-57 -23t-23 -57z" />
<glyph unicode="&#x201e;" horiz-adv-x="954" d="M78 147q0 73 50 122.5t124 49.5q75 0 124.5 -49t49.5 -123v-145q0 -94 -58 -153.5t-153 -59.5h-102v88h129q90 0 90 109v24q-21 -35 -80 -35q-74 0 -124 49.5t-50 122.5zM172 147q0 -34 23 -56.5t57 -22.5t57 22.5t23 56.5t-23 57t-57 23t-57 -23t-23 -57zM487 143 q0 73 50.5 122.5t124.5 49.5q75 0 124.5 -49t49.5 -123v-145q0 -94 -58 -153.5t-153 -59.5h-103v88h129q90 0 90 109v24q-21 -35 -79 -35q-74 0 -124.5 49.5t-50.5 122.5zM582 143q0 -34 23 -57t57 -23t56.5 23t22.5 57t-22.5 57t-56.5 23t-57 -23t-23 -57z" />
<glyph unicode="&#x2020;" horiz-adv-x="1138" d="M111 973v92h362q45 0 45 47v350h100v-350q0 -47 44 -47h366v-92h-366q-19 0 -31.5 -11.5t-12.5 -33.5v-1227h-100v1227q0 19 -12 32t-33 13h-362z" />
<glyph unicode="&#x2021;" horiz-adv-x="1138" d="M111 115v92h362q45 0 45 47v674q0 19 -12 32t-33 13h-362v92h362q45 0 45 47v350h100v-350q0 -47 44 -47h366v-92h-366q-19 0 -31.5 -11.5t-12.5 -33.5v-674q0 -47 44 -47h366v-92h-366q-19 0 -31.5 -11.5t-12.5 -33.5v-369h-100v369q0 19 -12 32t-33 13h-362z" />
<glyph unicode="&#x2022;" horiz-adv-x="1026" d="M147 731q0 152 106.5 258.5t258.5 106.5t259.5 -106.5t107.5 -258.5t-107.5 -259t-259.5 -107t-258.5 107t-106.5 259z" />
<glyph unicode="&#x2026;" horiz-adv-x="1796" d="M111 147q0 73 50 122.5t124 49.5q75 0 124.5 -49t49.5 -123t-49.5 -123t-124.5 -49q-74 0 -124 49.5t-50 122.5zM205 147q0 -34 23 -56.5t57 -22.5t57 22.5t23 56.5t-23 57t-57 23t-57 -23t-23 -57zM721 147q0 73 50 122.5t124 49.5q75 0 124.5 -49t49.5 -123t-49.5 -123 t-124.5 -49q-74 0 -124 49.5t-50 122.5zM815 147q0 -34 23 -56.5t57 -22.5t57 22.5t23 56.5t-23 57t-57 23t-57 -23t-23 -57zM1337 147q0 73 50 122.5t124 49.5q75 0 125 -49t50 -123t-50 -123t-125 -49q-74 0 -124 49.5t-50 122.5zM1432 147q0 -34 22.5 -56.5t56.5 -22.5 t57 22.5t23 56.5t-23 57t-57 23t-56.5 -23t-22.5 -57z" />
<glyph unicode="&#x202f;" horiz-adv-x="392" />
<glyph unicode="&#x2030;" horiz-adv-x="2322" d="M82 1071q0 157 93 262t249 105q157 0 247.5 -103t90.5 -264q0 -151 -94.5 -256.5t-245.5 -105.5q-152 0 -246 104.5t-94 257.5zM184 1071q0 -108 66 -190t172 -82q73 0 128 40t82 101t27 131q0 118 -61.5 197.5t-175.5 79.5q-113 0 -175.5 -80.5t-62.5 -196.5zM268 -49 l953 1511h108l-952 -1511h-109zM831 338q0 157 93.5 262t249.5 105q169 0 284 -160l78 -117l78 117q115 160 284 160q156 0 249.5 -105t93.5 -262q0 -153 -94 -258t-246 -105q-170 0 -285 166l-80 117l-80 -117q-115 -166 -285 -166q-152 0 -246 105t-94 258zM934 338 q0 -108 65.5 -190t171.5 -82q129 0 222 149l86 127l-93 137q-50 71 -101 103t-114 32q-113 0 -175 -80t-62 -196zM1593 342l86 -127q93 -149 222 -149q106 0 171.5 82t65.5 190q0 116 -62 196t-175 80q-63 0 -114 -32t-101 -103z" />
<glyph unicode="&#x2039;" horiz-adv-x="530" d="M92 557q0 101 66 176t213 172v-110q-183 -122 -183 -238t183 -238v-110q-147 97 -213 172t-66 176z" />
<glyph unicode="&#x203a;" horiz-adv-x="530" d="M160 209v110q182 121 182 238t-182 238v110q73 -48 118.5 -83.5t84.5 -78t57 -88t18 -98.5t-18 -98.5t-57 -88t-84.5 -78t-118.5 -83.5z" />
<glyph unicode="&#x2044;" horiz-adv-x="813" d="M-119 -49l950 1511h101l-950 -1511h-101z" />
<glyph unicode="&#x205f;" horiz-adv-x="490" />
<glyph unicode="&#x20ac;" horiz-adv-x="1304" d="M119 741q0 131 96 209q-51 78 -27 191q26 116 107.5 196t186.5 115t227 35q222 0 342 -107t170 -313h-109q-38 150 -136.5 239t-266.5 89q-68 0 -135.5 -16.5t-130 -49t-106 -90t-54.5 -131.5q-9 -66 14 -111q125 52 326 52q74 0 115.5 -31t41.5 -94q0 -60 -41.5 -93.5 t-111.5 -33.5q-222 0 -340 82q-68 -53 -68 -138q0 -84 72 -141q123 86 336 86q70 0 111.5 -33.5t41.5 -93.5q0 -63 -41.5 -94t-115.5 -31q-199 0 -316 47q-33 -55 -20 -133q13 -74 57.5 -130t107 -87.5t127.5 -46.5t132 -16q157 -1 266 82t139 221h105q-48 -186 -179.5 -291 t-328.5 -105q-118 0 -225.5 38t-191 121t-106.5 198q-24 110 31 196q-102 74 -102 213zM381 926q84 -37 252 -37q47 0 47 35q0 15 -12 24.5t-35 9.5q-160 0 -252 -32zM393 553q101 -29 240 -29q23 0 35 10t12 25q0 35 -47 35q-153 0 -240 -41z" />
<glyph unicode="&#x2122;" horiz-adv-x="1964" d="M10 1487q0 115 158 115q219 0 303 -140h420v-92h-381q20 -76 20 -192v-494h-100v494q0 130 -18 192h-248q-72 0 -113 29t-41 88zM111 1487q0 -15 10.5 -20t36.5 -5h192q-62 49 -192 49q-47 0 -47 -24zM913 1264q0 90 62.5 156.5t167.5 66.5q156 0 223 -141q11 -26 27 -56 l26 56q67 141 223 141q105 0 167.5 -66.5t62.5 -156.5l-2 -582h-101v575q0 65 -30.5 101.5t-85.5 36.5q-48 0 -82 -27.5t-64 -81.5q-5 -10 -25.5 -46.5t-33.5 -61.5q50 -104 75 -184t25 -160q0 -67 -43.5 -113.5t-111.5 -46.5t-112 46.5t-44 113.5q0 80 25 158.5t75 185.5 q-13 25 -33.5 61.5t-25.5 46.5q-30 55 -63.5 82t-81.5 27q-55 0 -86 -36.5t-31 -101.5v-575h-101zM1341 831q1 -31 15.5 -48t36.5 -17q48 0 51 65q5 85 -51 226q-57 -143 -52 -226z" />
<glyph unicode="&#x2202;" horiz-adv-x="1216" d="M46.5 272q-19.5 94 4.5 211q29 145 114.5 257t206 171.5t255.5 59.5q308 0 372 -289q9 30 25 106q131 607 -276 607q-224 0 -338 -189h-119q29 59 70 107.5t98.5 88.5t135.5 62.5t171 22.5q98 0 171 -26.5t117.5 -75.5t70 -112.5t30.5 -144.5t-3 -164t-28 -178 q-48 -214 -110 -360q-11 -169 -78 -426h-96q32 133 47 209q-183 -234 -469 -234q-94 0 -172 35.5t-129 101.5t-70.5 160zM154 481q-40 -190 46 -297.5t236 -107.5q174 0 289.5 93t189.5 261q26 442 -309 442q-67 0 -136.5 -24.5t-133.5 -71t-113 -123.5t-69 -172z" />
<glyph unicode="&#x220f;" horiz-adv-x="1374" d="M102 1522q0 60 40 98.5t106 38.5q67 0 107 -47.5t40 -114.5v-35h584v35q0 67 40 114.5t107 47.5q66 0 106 -38.5t40 -98.5q0 -67 -51.5 -109.5t-124.5 -42.5h-17v-1370h-100v1370h-584v-1370h-100v1370h-16q-73 0 -125 42.5t-52 109.5zM199 1522q0 -23 21 -41.5t59 -18.5 h16v51q0 24 -12.5 41t-36.5 17q-22 0 -34.5 -14t-12.5 -35zM1079 1462h17q38 0 59 18.5t21 41.5q0 21 -13 35t-35 14q-24 0 -36.5 -17t-12.5 -41v-51z" />
<glyph unicode="&#x2211;" horiz-adv-x="1056" d="M92 -104q0 41 13.5 72.5t46.5 74.5l417 571l-417 572q-34 47 -47 77t-13 70q0 52 45.5 90.5t118.5 38.5h780v-92h-792q-25 0 -41.5 -13.5t-16.5 -33.5q0 -16 5.5 -30.5t10 -21t15.5 -20.5l410 -557l2 2q70 97 180 97q76 0 126 -52t50 -127q0 -74 -50 -126t-126 -52 q-111 0 -180 96h-2l-410 -555q-12 -15 -16 -20.5t-9.5 -20t-5.5 -30.5q0 -20 16.5 -33.5t41.5 -13.5h792v-92h-780q-73 0 -118.5 38.5t-45.5 90.5zM686 614l23 -28q45 -60 106 -60q36 0 58 23t22 65t-22 65t-58 23q-62 0 -106 -59z" />
<glyph unicode="&#x221e;" horiz-adv-x="1757" d="M92 535q0 155 100 260.5t257 105.5q87 0 173 -50t138 -122l74 -108l88 122q69 97 148 147t183 50q181 0 296.5 -118.5t115.5 -297.5q0 -164 -116.5 -280.5t-284.5 -116.5q-114 0 -193 52t-153 159l-87 121l-73 -105q-54 -79 -137.5 -130.5t-174.5 -51.5 q-153 0 -253.5 105.5t-100.5 257.5zM195 535q0 -107 72 -190t179 -83q66 0 134 46t114 120l80 111l-86 125q-49 70 -113.5 108.5t-128.5 38.5q-114 0 -182.5 -81t-68.5 -195zM891 541l90 -129q121 -195 283 -195q123 0 211 92t88 215q0 142 -92.5 234t-215.5 92 q-83 0 -143 -44t-125 -130z" />
<glyph unicode="&#x222b;" horiz-adv-x="722" d="M43 -178h94q0 -109 84 -109q28 0 47.5 10.5t28 30t11.5 38t3 42.5v1403q0 137 53.5 193.5t151.5 56.5q71 0 117.5 -53t46.5 -148h-94q0 109 -84 109q-28 0 -47.5 -10.5t-28 -30t-11.5 -38t-3 -42.5v-1403q0 -137 -53.5 -193.5t-151.5 -56.5q-71 0 -117.5 53t-46.5 148z " />
<glyph unicode="&#x2264;" horiz-adv-x="1294" d="M57 532q0 56 38.5 99t101.5 43q72 0 172 -84q130 82 766 465v-115q-49 -31 -306 -185.5t-385 -234.5l500 -428h137q71 0 113.5 -33t42.5 -96q0 -61 -36 -94t-87 -33q-20 0 -41.5 7.5t-37 15t-40.5 29t-36 31.5t-41.5 41t-40.5 40h-779v92h695l-441 369q-10 -6 -37 -23 t-35 -21.5t-26 -13.5t-31 -11.5t-28 -2.5q-63 0 -100.5 43.5t-37.5 99.5zM150 532q0 -16 13 -29.5t32 -13.5q29 0 84 41q-48 43 -82 43q-23 0 -35 -12t-12 -29zM1010 0q1 -1 19.5 -20.5t26.5 -26.5t24 -16t30 -9t24.5 9.5t10.5 25.5q0 37 -49 37h-86z" />
<glyph unicode="&#x2265;" horiz-adv-x="1294" d="M57 -37q0 63 42.5 96t113.5 33h137l500 428q-128 80 -384.5 235t-305.5 185v115q654 -394 770 -467q55 46 91.5 67t76.5 21q63 0 101 -41.5t38 -97.5q0 -57 -37.5 -102.5t-99.5 -45.5q-12 0 -25 3t-22.5 6t-25 11.5t-24 13.5t-30 18.5t-31.5 19.5l-440 -369h694v-92h-778 q-11 -10 -35.5 -34.5t-35.5 -35t-31.5 -29.5t-34 -27.5t-32 -19t-35 -14.5t-34.5 -4q-51 0 -87 33t-36 94zM150 -37q0 -16 10 -25.5t24 -9.5q11 0 22.5 4.5t23.5 14t19.5 16.5t20 20.5t15.5 16.5h-86q-49 0 -49 -37zM1020 528q53 -39 80 -39q19 0 32 15.5t13 32.5 q0 15 -13.5 26.5t-33.5 11.5q-9 0 -18 -2.5t-18.5 -9t-14.5 -10.5t-15 -13.5t-12 -11.5z" />
<glyph unicode="&#x25fc;" horiz-adv-x="1075" d="M0 0v1075h1075v-1075h-1075z" />
</font>
</defs>
</svg>
